<svg xmlns="http://www.w3.org/2000/svg" role="img" viewBox="2.72 14.72 66.43 42.43"><title>1F1E6-1F1FF.svg</title><path fill="#d22f27" d="M5 17h62v38H5z"/><path fill="#5c9e31" d="M5 42h62v13H5z"/><path fill="#61b2e4" d="M5 17h62v13H5z"/><path fill="#fff" stroke="#fff" stroke-linecap="round" stroke-linejoin="round" d="M38.436 34.61l.586-1.61.562 1.618 1.553-.724-.747 1.542 1.61.586-1.618.562.724 1.553-1.542-.747-.586 1.61-.562-1.618-1.553.724.747-1.542-1.61-.586 1.618-.562-.724-1.553 1.542.747zM30.5307 36a4.0529 4.0529 0 0 1 3.3784-3.9236A4.3955 4.3955 0 0 0 33.0983 32a4.0043 4.0043 0 1 0 0 8 4.3955 4.3955 0 0 0 .8108-.0764A4.0529 4.0529 0 0 1 30.5307 36z"/><g><path fill="none" stroke="#000" stroke-linecap="round" stroke-linejoin="round" stroke-width="2" d="M5 17h62v38H5z"/></g></svg>