<svg xmlns="http://www.w3.org/2000/svg" role="img" viewBox="9.88 10.13 52.00 51.88"><title>1F5D3.svg</title><path fill="#FFF" d="M11.9726 28.2042l.123 31.8059 31.6009-.082L59.9274 47.55l.1229-19.4688-48.0777.123z"/><path fill="#ea5a47" d="M12.1421 28.1401h47.71V12.2523h-47.71v15.8878zm37.8551-11.3806h.0307c.841.0081 1.6281.3433 2.2169.9435.5897.6004.9094 1.3941.901 2.2351-.0162 1.7261-1.426 3.1186-3.1479 3.1186h-.0307c-1.7357-.017-3.134-1.4429-3.1179-3.1786.0162-1.7261 1.426-3.1186 3.1479-3.1186zm-30.2703.848c.6109-.5985 1.4156-.9273 2.2694-.9273h.0317c1.7866.0174 3.2267 1.4852 3.2101 3.2719-.0166 1.7768-1.4678 3.2102-3.2403 3.2102h-.0316c-1.7867-.0175-3.2267-1.4852-3.2101-3.2719.0078-.8656.3528-1.6763.9708-2.2829z"/><path fill="#d0cfce" d="M56.9559 49.0381H44.1387v4.4795c0 .5527-.4473 1-1 1-.502 0-.8992-.3752-.9712-.8569v5.4255l1.1596-.0003 13.6288-10.0478z"/><g><circle cx="21.997" cy="19.941" r="3" fill="none" fill-rule="evenodd" stroke="#000" stroke-linecap="round" stroke-linejoin="round" stroke-miterlimit="10" stroke-width="2" clip-rule="evenodd" transform="matrix(.0096 -1 1 .0096 1.847 41.746)"/><path fill="none" stroke="#000" stroke-linecap="round" stroke-linejoin="round" stroke-miterlimit="10" stroke-width="2" d="M11.997 12.214h48v16h-48z"/><circle cx="49.998" cy="19.941" r="3" fill="none" fill-rule="evenodd" stroke="#000" stroke-linecap="round" stroke-linejoin="round" stroke-miterlimit="10" stroke-width="2" clip-rule="evenodd" transform="matrix(.0096 -1 1 .0096 29.58 69.745)"/><path fill="none" stroke="#000" stroke-linecap="round" stroke-linejoin="round" stroke-miterlimit="10" stroke-width="2" d="M11.997 28.092v32l31.659-.006 16.341-12.048V28.092"/><circle cx="18.217" cy="33.673" r="2" transform="rotate(-89.45 18.217 33.671)"/><circle cx="24.217" cy="33.673" r="2" transform="matrix(.0096 -1 1 .0096 -9.686 57.566)"/><circle cx="30.217" cy="33.673" r="2" transform="matrix(.0096 -1 1 .0096 -3.743 63.566)"/><circle cx="36.217" cy="33.673" r="2" transform="matrix(.0096 -1 1 .0096 2.2 69.566)"/><circle cx="18.217" cy="39.673" r="2" transform="matrix(.0096 -1 1 .0096 -21.628 57.51)"/><circle cx="24.217" cy="39.673" r="2" transform="matrix(.0096 -1 1 .0096 -15.685 63.51)"/><circle cx="30.217" cy="39.673" r="2" transform="matrix(.0096 -1 1 .0096 -9.743 69.509)"/><circle cx="36.217" cy="39.673" r="2" transform="matrix(.0096 -1 1 .0096 -3.8 75.509)"/><circle cx="18.217" cy="45.673" r="2" transform="rotate(-89.45 18.217 45.671)"/><path fill="none" stroke="#000" stroke-linecap="round" stroke-linejoin="round" stroke-miterlimit="10" stroke-width="2" d="M59.869 48.038H43.138v5.479"/></g></svg>