<svg xmlns="http://www.w3.org/2000/svg" role="img" viewBox="2.72 14.72 66.43 42.43"><title>1F1F5-1F1EC.svg</title><rect width="62" height="38" x="5" y="17" fill="#d22f27" rx="2.092" ry="2.092"/><path d="M5 54.3703V17.3118c0-.2641.2894-.4262.5146-.2882l60.4639 37.0585c.2908.1782.1645.6261-.1766.6261H5.338c-.1867 0-.338-.1513-.338-.338z"/><circle cx="19" cy="50" r="1" fill="#fff" stroke="#fff" stroke-linecap="round" stroke-linejoin="round" stroke-width="2"/><circle cx="19" cy="32" r="1" fill="#fff" stroke="#fff" stroke-linecap="round" stroke-linejoin="round" stroke-width="2"/><circle cx="12" cy="40" r="1" fill="#fff" stroke="#fff" stroke-linecap="round" stroke-linejoin="round" stroke-width="2"/><circle cx="26" cy="40" r="1" fill="#fff" stroke="#fff" stroke-linecap="round" stroke-linejoin="round" stroke-width="2"/><circle cx="21.5" cy="44.5" r=".5" fill="#fff" stroke="#fff" stroke-linecap="round" stroke-linejoin="round" stroke-width="2"/><path fill="none" stroke="#f1b31c" stroke-linecap="round" stroke-linejoin="round" stroke-width="2" d="M42 25c9 1 15 6.0874 15 11 .1261 2.1257-1.0651 4.1109-3 5"/><path fill="#f1b31c" stroke="#f1b31c" stroke-linecap="round" stroke-linejoin="round" stroke-width="2" d="M50 21c-1.75.6584-3.1544 3.5714-1.9 5l1.9 1v-6zm0 6c5-3 9 0 9 3h-5l-4-3m-5.19 4.19C44 28 46 26 47.81 26.29l2 .9-5 4zm5-4c-.81 3.81-1 8 2 8l2-5-4-3"/><g><path fill="none" stroke="#000" stroke-linecap="round" stroke-linejoin="round" stroke-width="2" d="M5 17h62v38H5z"/></g></svg>