<svg xmlns="http://www.w3.org/2000/svg" role="img" viewBox="15.10 10.35 53.04 51.16"><title>1F9F5.svg</title><path fill="#d0cfce" d="M49.224 17.187l4.667-4.827H17.207l4.668 4.827m27.349 37.339l4.667 4.827H17.207l4.668-4.827"/><path fill="#ea5a47" d="M22.034 17.187h27.365v37.52H22.034z"/><path fill="#d22f27" d="M42.926 17.187H49.4v37.52h-6.474z"/><g fill="none" stroke="#000" stroke-linecap="round" stroke-linejoin="round"><path stroke-width="2" d="M49.224 17.187l4.667-4.827H17.207l4.668 4.827"/><path stroke-width="2.158" d="M21.875 17.187h27.349m-27.022 37.52h27.03"/><path stroke-width="2" d="M49.224 54.707l4.667 4.827H17.207l4.668-4.827"/><path d="M22.034 17.187h27.031m-27.053 5.36h27.075m-27.098 5.36H49.11m-27.144 5.36h27.167m-27.19 5.36h27.213m-27.236 5.36h27.259m-27.282 5.36h27.304m-27.326 5.36h27.349" stroke-width="2"/><path stroke-width="2" d="M22.2017 43.9829h27.03a9.5279 9.5279 0 0 1 5.6467 2.5918c3.2368 3.2368 5.9341 5.9342 11.3288 5.3947"/></g></svg>