<svg xmlns="http://www.w3.org/2000/svg" role="img" viewBox="9.88 10.75 50.88 52.00"><title>1F6BF.svg</title><path fill="#9B9B9A" stroke="#9B9B9A" stroke-linecap="round" stroke-linejoin="round" stroke-miterlimit="10" stroke-width="2" d="M45.5153 20.1707s7.116-7.9306 13.3053-7.2782v5.8571s-3.3014-.9753-8.2012 5.762"/><path fill="#9B9B9A" stroke="#9B9B9A" stroke-miterlimit="10" d="M23.3045 24.1514s-3.6232 2.4309-3.1341 4.0328l23.497 23.5426s.9153.5151 2.0191-1.0588l1.7375-2.5347"/><path fill="#D0CFCE" d="M24 24s8-6 17-2l3-3 7.1483 6.849-2.6127 3.0195s5.1386 9.3265-1.1003 18.7815L24 24z"/><path fill="#9B9B9A" d="M41.16355 22.65549l2.97298-3.24638 6.80619 6.233-2.97299 3.24638z"/><path fill="#92D3F5" stroke-linecap="round" stroke-linejoin="round" stroke-miterlimit="10" stroke-width="2" d="M20.7513 41.9211c-.9549.9549-2.5745.8797-3.6198-.1655s-1.1185-2.6668-.1636-3.6217c0 0 1.1397-1.1811 4.8354-1.683 0 0 .7352-.1359.6299.5727-.5019 3.6957-1.6819 4.8975-1.6819 4.8975"/><path fill="#92D3F5" stroke-miterlimit="10" stroke-width="2" d="M16.3667 53.4705c-.9549.9549-2.5745.8797-3.6198-.1655-1.0453-1.0453-1.1185-2.6668-.1636-3.6217 0 0 1.1397-1.1812 4.8354-1.683 0 0 .7352-.1359.6299.5727-.5018 3.6957-1.6819 4.8975-1.6819 4.8975m6.7007 6.7007c-.9549.9549-2.5745.8797-3.6198-.1655s-1.1185-2.6668-.1636-3.6217c0 0 1.1397-1.1811 4.8354-1.683 0 0 .7352-.1359.6299.5727-.5018 3.6957-1.6819 4.8975-1.6819 4.8975m4.2164-11.7175c-.9549.9549-2.5745.8797-3.6198-.1655-1.0453-1.0453-1.1185-2.6668-.1636-3.6217 0 0 1.1397-1.1811 4.8354-1.683 0 0 .7352-.1359.6299.5727-.5019 3.6957-1.6819 4.8975-1.6819 4.8975m6.5368 6.5368c-.9549.9549-2.5745.8797-3.6198-.1655-1.0453-1.0453-1.1185-2.6668-.1636-3.6217 0 0 1.1397-1.1812 4.8354-1.683 0 0 .7352-.1359.6299.5727-.5018 3.6957-1.6819 4.8975-1.6819 4.8975"/><g fill="none" stroke="#000" stroke-miterlimit="10" stroke-width="2"><path stroke-linecap="round" stroke-linejoin="round" d="M48.2977 17.3576s4.0466-4.7508 10.5228-4.4651v5.8571s-3.1429-.2857-5.7619 3m-31.9765 4.9183s-1.6306 1.0684-.75 2.0833l22.6667 22.6667s1 1.1667 2.1667-.75M24 24s8-6 17-2l3-3 7.1483 6.849-2.6127 3.0195s5.1386 9.3265-1.1003 18.7815L24 24zm-3.2487 17.9211c-.9549.9549-2.5745.8797-3.6198-.1655s-1.1185-2.6668-.1636-3.6217c0 0 1.1397-1.1811 4.8354-1.683 0 0 .7352-.1359.6299.5727-.5019 3.6957-1.6819 4.8975-1.6819 4.8975"/><path d="M16.3667 53.4705c-.9549.9549-2.5745.8797-3.6198-.1655-1.0453-1.0453-1.1185-2.6668-.1636-3.6217 0 0 1.1397-1.1812 4.8354-1.683 0 0 .7352-.1359.6299.5727-.5018 3.6957-1.6819 4.8975-1.6819 4.8975m6.7007 6.7007c-.9549.9549-2.5745.8797-3.6198-.1655s-1.1185-2.6668-.1636-3.6217c0 0 1.1397-1.1811 4.8354-1.683 0 0 .7352-.1359.6299.5727-.5018 3.6957-1.6819 4.8975-1.6819 4.8975m4.2164-11.7175c-.9549.9549-2.5745.8797-3.6198-.1655-1.0453-1.0453-1.1185-2.6668-.1636-3.6217 0 0 1.1397-1.1811 4.8354-1.683 0 0 .7352-.1359.6299.5727-.5019 3.6957-1.6819 4.8975-1.6819 4.8975m6.5368 6.5368c-.9549.9549-2.5745.8797-3.6198-.1655-1.0453-1.0453-1.1185-2.6668-.1636-3.6217 0 0 1.1397-1.1812 4.8354-1.683 0 0 .7352-.1359.6299.5727-.5018 3.6957-1.6819 4.8975-1.6819 4.8975"/></g></svg>