<svg xmlns="http://www.w3.org/2000/svg" role="img" viewBox="11.30 13.92 49.40 47.90"><title>1F4E1.svg</title><path fill="#d0cfce" d="M14.276 31.5192h3.2117l-.0234-1.1721-3.2401.0106c-.0434.3279.0085.8336.0519 1.1615z"/><path fill="#9b9b9a" d="M52.448 59.999l2.505-21.802h-3.249L48.8 59.999h3.648z"/><path fill="#d0cfce" d="M47.6445 29.3771c.0569.5118.0938 1.0293.0938 1.556 0-.5267-.0369-1.0442-.0938-1.556z"/><path fill="#d0cfce" d="M48.8004 29.3771c-.4111-3.6953-2.5001-7.7075-5.8095-10.2492-2.6571-2.0407-6.2527-2.9817-9.2531-3.1947l.2712 26.9989c.2486.6495-.3346 2.4231.6547 2.6473 2.0178.4572 6.3562-1.3102 8.0762-2.6473 1.7857-1.3882 3.8837-3.5192 4.9515-6.3317.9164-2.4136.9159-5.4874 1.109-7.2233z"/><path fill="#9b9b9a" d="M34.7383 41.7864l-1.2595.1084.259 4.0384c2.2672-.1608 8.4311-2.5655 10.2455-4.0463 2.9667-2.4215 4.7545-5.8777 4.7545-10.9537 0-.5267 0-1.7478-1.0933-1.5561-.7412 6.6622-6.1689 11.9313-12.9062 12.4093z"/><path fill="#3f3f3f" d="M52.7421 27.7526l-3.4453-.0401c-.499.189-.6415 5.5357-.0034 6.2814h3.0961s2.7955-.5886 2.4704-3.7291c-.3754-2.5138-1.5545-2.5138-2.1178-2.5122z"/><g fill="none" stroke="#000" stroke-linecap="round" stroke-linejoin="round" stroke-width="2"><path d="M33.7378 45.9332c8.2843 0 15-6.7157 15-15s-6.7157-15-15-15v30zm18.904-17.9707c1.6565.0351 2.9709 1.4064 2.9358 3.0629-.0351 1.6565-1.4064 2.9709-3.0629 2.9358m-34.1032-1.4707h-4.3872s-.7404.0215-.7404-1.5303.7404-1.5305.7404-1.5305h4.3872v3.0608zm5.7195-1.5575h9.607m-11.617-3.284l11.617-11.716M22.156 34.274l11.582 11.659m6.5 14.066h18.593m-10.031 0l2.904-21.802h3.249l-2.904 21.802"/></g></svg>