<svg xmlns="http://www.w3.org/2000/svg" role="img" viewBox="5.84 2.84 60.19 53.69"><title>1F961.svg</title><path fill="#fff" d="M21.034 22.287l30.595.469L51 29l2.441-.057-2.164 18.312H20.8l-2.12-17.393 3.027.105-.673-7.68z"/><path fill="#d22f27" d="M51 27l2.882-.021-.441 1.964L51 29v-2zm-32.84-.127L21 27v2l-2.662-.5-.178-1.627zm2.652 21.742l30.501.199-.266 1.46-30.035-.033-.2-1.626z"/><g fill="none" stroke="#000" stroke-linecap="round" stroke-linejoin="round" stroke-width="2"><path d="M17.712 29.958l2.85 24.542h30.875l2.85-24.542"/><path d="M54.269 29.956L51.437 54.5H20.562L17 23.625m38 0l-.73 6.331M15 22L8 37m49-15l7 15M20 22h32m-32 0l2 15m30-15l-2 15m-28 0h28M21 51h30m-31-3h31M18 26h2m-2 3h2m32-3h2m-2 3h2m-12-7l12.7087-11.2762c.3681-.3824.3565-.9908-.0259-1.359-.3721-.3582-.9606-.3583-1.3328-.0002L42 22zm-4 0L49.32 6.549c.2996-.434.1906-1.0287-.2435-1.3283a.98311.98311 0 0 0-.0474-.0307c-.4572-.287-1.0598-.1578-1.3592.2913L38 22z"/></g></svg>