<svg xmlns="http://www.w3.org/2000/svg" role="img" viewBox="12.04 12.04 47.79 49.79"><title>1F464.svg</title><path d="M58 61s0-3-1-7c-1.2109-4.8457-4-8-10-8H25c-6 0-8.7891 3.1543-10 8-1 4-1 7-1 7h44zM26 26c0 3.7246.5391 7.8086 2 10 1.8613 2.793 5.0176 4 8 4 3.0957 0 6.1367-1.207 8-4 1.46-2.1914 2-6.2754 2-10 0-2.7935-1-12-10-12s-10 7.3442-10 12z" fill="#D0CFCE"/><g fill="none" stroke="#000" stroke-linejoin="round" stroke-width="2"><path stroke-linecap="round" d="M58 60s0-2-1-6c-1.2109-4.8457-4-8-10-8H25c-6 0-8.7891 3.1543-10 8-1 4-1 6-1 6"/><path d="M26 26c0 3.7246.5391 7.8086 2 10 1.8613 2.793 5.0176 4 8 4 3.0957 0 6.1367-1.207 8-4 1.46-2.1914 2-6.2754 2-10 0-2.7935-1-12-10-12s-10 7.3442-10 12z"/></g></svg>