<svg xmlns="http://www.w3.org/2000/svg" role="img" viewBox="7.65 4.02 55.83 63.83"><title>1F4E6.svg</title><path fill="#f4aa41" d="M34.3223 64.1641c-.1755 0-.3479-.0462-.5-.1338L11.1329 50.6982c-.3095-.1787-.5001-.5089-.5-.8662l-.251-27.414c0-.3573.1905-.6875.5-.8662L35.0723 7.22c.3096-.1777.6904-.1777 1 0l22.6905 13.0818c.4784.2759.6426.8874.3666 1.3659a1.00031 1.00031 0 0 1-.3647.3655L35.5724 36.0333l-.2501 27.1327c-.0015.5514-.4486.9977-1 .9981z"/><path fill="#f4aa41" d="M36 64.572l24.759-14.108-.346-28.476-24.841 14.045L36 64.572z"/><path fill="#d0cfce" d="M44.4415 37.9783c-.7769-.442-1.2545-1.2692-1.249-2.163v-4.1719L20.3119 16.1139c.692-.4567 6.2179-3.6331 6.5605-3.7231l26.1492 13.0017c.3095.1787.5001.5089.5.8662v6.0244c-.0018 1.1714-.6264 2.2536-1.64 2.8409l-4.9444 2.8544c-.771.4505-1.7251.4505-2.4961 0h.0004zm.3962 21.4967v-3.336c.0017-1.0607.5674-2.0405 1.4853-2.5722l6.0733-3.5068c.8836-.5099 2.0133-.207 2.5232.6766.162.2808.2473.5992.2473.9234 0 0-.0232 1.6053-.3301 1.8473-2.0407 1.6093-9.9991 6.2783-9.999 5.9677z"/><path fill="#3f3f3f" d="M44.4274 45.9464v.8683c0 .8266.67 1.4967 1.4967 1.4967.2628 0 .5209-.0692.7485-.2006l6.8048-3.76c.7054-.4073 1.14-1.1599 1.14-1.9745v-1.1184c0-.7976-.6466-1.4442-1.4442-1.4442-.2535 0-.5025.0667-.7221.1935l-6.7455 3.7252c-.7909.4567-1.2781 1.3006-1.2781 2.2139z"/><path fill="#fff" d="M31.083 38.917l-8.298-4.653v7.442l8.298 4.653v-7.442z"/><g fill="none" stroke="#000" stroke-linecap="round" stroke-linejoin="round" stroke-width="2"><path d="M61.262 21.168L35.572 6.336 9.882 21.168v29.664l25.69 14.832 25.69-14.832V21.168zm-25.69 14.865v29.631m.058-29.631L9.94 21.201m42.577 5.049l8.745-5.049m-25.69 14.832l8.616-4.974"/><path d="M26.884 11.4565l25.6375 14.8018v6.0248c0 .8146-.4346 1.5672-1.14 1.9745l-4.9439 2.8543c-.7158.4133-1.6312.1681-2.0446-.5477a1.49694 1.49694 0 0 1-.2006-.7485v-4.7486L18.6235 16.2488M31.083 38.917l-8.298-4.653v7.442l8.298 4.653v-7.442zm23.0837 15.7493V51.66c0-.4679-.3793-.8472-.8472-.8472a.84682.84682 0 0 0-.4236.1135l-6.073 3.5062c-.6098.3519-.9854 1.0025-.9853 1.7065v3.3361m-1.4102-13.5287v.8683c0 .8266.67 1.4967 1.4967 1.4967.2628 0 .5209-.0692.7485-.2006l6.8048-3.76c.7054-.4073 1.14-1.1599 1.14-1.9745v-1.1184c0-.7976-.6466-1.4442-1.4442-1.4442-.2535 0-.5025.0667-.7221.1935l-6.7455 3.7252c-.7909.4567-1.2781 1.3006-1.2781 2.2139z"/></g></svg>