<svg xmlns="http://www.w3.org/2000/svg" role="img" viewBox="11.04 11.04 49.79 49.79"><title>1F643.svg</title><circle cx="36" cy="36" r="23" fill="#FCEA2B"/><circle cx="36" cy="36" r="23" fill="none" stroke="#000" stroke-linecap="round" stroke-linejoin="round" stroke-width="2"/><path fill="none" stroke="#000" stroke-linecap="round" stroke-linejoin="round" stroke-width="2" d="M26.1851 27.0707c2.8995-1.6362 6.2482-2.5699 9.8149-2.5699s6.9153.9336 9.8149 2.5699"/><path d="M42 41c0-1.6568 1.3448-3 3-3 1.6553 0 3 1.3433 3 3 0 1.6552-1.3447 3-3 3-1.6552 0-3-1.3448-3-3m-18 0c0-1.6568 1.3447-3 3-3s3 1.3433 3 3c0 1.6552-1.3447 3-3 3s-3-1.3448-3-3"/></svg>