<svg xmlns="http://www.w3.org/2000/svg" role="img" viewBox="18.58 15.83 31.96 41.21"><title>E30E.svg</title><path fill="#fff" d="M44.1912 19.0075s-2.4385-1.17-3.3436.5374c-.8757 1.6519.0042 7.6106.0042 7.6106l5.8271-3.053s2.8261-2.1693-.2587-4.1397l-2.2291-.9553z"/><ellipse cx="31.584" cy="51.769" fill="none" stroke="#000" stroke-miterlimit="10" stroke-width="2" rx="3.729" ry="3.003" transform="rotate(-56.229 31.584 51.769)"/><path d="M30.5831 48.93l-.2992-2.1686s-1.1385.02-.5878-.7848l2.3613-.279.3392 2.4585a3.20041 3.20041 0 0 0-1.8135.7739z"/><path fill="none" stroke="#000" stroke-linecap="round" stroke-linejoin="round" stroke-width="2" d="M31.221 46.153l6.867-13.439"/><ellipse cx="23.568" cy="47.537" fill="none" stroke="#000" stroke-miterlimit="10" stroke-width="2" rx="3.729" ry="3.003" transform="rotate(-62.651 23.568 47.537)"/><path d="M26.2019 46.375l2.0434-.7854s.532 1.0067.971.1356l-.8-2.0978-2.3166.89c.2189.5951.2545 1.2421.1022 1.8576z"/><path fill="none" stroke="#000" stroke-linecap="round" stroke-linejoin="round" stroke-width="2" d="M28.34 44.648l8.953-12.761m9.7304-12.6102s4.32 2.9181-.5265 5.981l-5.8929 3.1068m3.716-10.2554s-4.7619-2.1223-4.7969 3.6111l.4813 6.6443"/><rect width="5.679" height="3.471" x="36.185" y="28.423" rx="1.736" ry="1.736" transform="rotate(-60 39.024 30.158)"/><g><circle cx="39.02" cy="30.132" r=".613" fill="#fff"/></g></svg>