<svg xmlns="http://www.w3.org/2000/svg" role="img" viewBox="4.82 5.20 59.11 61.36"><title>1F389.svg</title><g id="color"><path fill="#F1B31C" d="M26.181 20.181L38.75 32.75 51.319 45.319 29.789 54.28 8.26 63.24 17.22 41.711z"/><path fill="#FCEA2B" d="M40 35L25.692 20.669 16.391 42.539 7.09 64.409z"/><path fill="#EA5A47" d="M15.224 45.285L26.286 56.347 20.755 58.598 12.958 50.801z"/><path fill="#D22F27" d="M17.343 55.248L20.755 58.598 26.286 56.347 21.485 51.546z"/><path fill="#EA5A47" d="M20.805 32.163L27.501 38.859 39.2 50.558 32.927 53.422 24.756 45.25 18.15 38.645z"/><path fill="#D22F27" d="M26.537 47.031L32.927 53.422 39.2 50.558 31.362 42.72z"/><ellipse cx="30.295" cy="14.458" fill="#8967aa" rx="2" ry="1.971"/><ellipse cx="60.295" cy="18.458" fill="#f1b31c" rx="2" ry="1.971"/><ellipse cx="57.295" cy="39.458" fill="#d22f27" rx="2" ry="1.971"/></g><g id="line" fill="none" stroke="#000" stroke-linecap="round" stroke-linejoin="round" stroke-miterlimit="10" stroke-width="2"><path d="M50.663 45.639L50.831 45.808 28.961 55.109 7.09 64.41 16.391 42.539 25.692 20.669"/><path d="M25.801 20.778L38.262 33.238 50.663 45.639M25.692 20.669L25.801 20.778M46.4905 7.3671c.2347.4487.4027.943.4897 1.473.451 2.7473-1.447 5.4141-4.2392 5.9565"/><path d="M42.9327 14.7763c-.5049.0384-1.0133.1573-1.509.364-2.5697 1.0713-3.828 4.093-2.8105 6.7492M61.7928 26.7168c-.0987.4967-.2778.987-.5425 1.4544-1.372 2.4225-4.5229 3.309-7.0378 1.98"/><path d="M54.3745,30.2558c-0.4173-0.2868-0.8878-0.513-1.4036-0.663c-2.6733-0.7775-5.5486,0.7867-6.4223,3.4936"/></g></svg>