<svg xmlns="http://www.w3.org/2000/svg" role="img" viewBox="9.08 6.20 53.97 60.84"><title>1FA82.svg</title><g id="color"><path fill="#fff" d="M38.607 58.936L59.692 32.937 39.858 29.988 13.501 33.294 32.8 59.204 38.607 58.936z"/><path fill="#b1cc33" d="m60.709,28.9912c-1.9879-11.9821-12.4224-20.7206-24.5674-20.5742-13.7193,0-24.841,10.88-24.841,24.3005,0,0,3.0573-1.8827,5.1108-.2893.2137.1642.5015.1942.7445.0778,3.2218-1.543,6.9739-1.5198,10.1763.0629.167.0925.3642.1141.5473.06,1.5773-.4857,9.6051-2.708,16.679-.0346.2018.0755.4263.0605.6163-.0411,3.196-1.5665,6.9329-1.5849,10.1442-.05.2478.1179.5409.0858.7574-.0829,2.0348-1.5919,4.906.1853,4.906.1853"/><path fill="#5c9e31" d="m55.72,32.5682c-4.4638-25.4955-19.5784-24.1512-19.5784-24.1512,0,0,7.76.7192,8.73,24.2229,3.2933-2.1354,7.5271-2.1634,10.8484-.0717Z"/><path fill="#5c9e31" d="m56.3414,31.952c1.6572-.05,3.4387-.54,5.5345.6879,0-20.2924-21.8072-23.19-21.8072-23.19,0,0,4.8854,1.1285,9.3779,6.7089l6.8948,15.7932Z"/><rect width="6.586" height="6.586" x="32.081" y="58.353" rx="1.42" ry="1.42"/></g><g id="line" fill="none" stroke="#000" stroke-linecap="round" stroke-linejoin="round" stroke-width="2"><path d="M60.9824 32.6058l-22.316 27.1671M60.709 28.9912c-1.9879-11.9821-12.4224-20.7206-24.5674-20.5742-13.7193 0-24.841 10.88-24.841 24.3005 0 0 3.0573-1.8827 5.1108-.2893.2137.1642.5015.1942.7445.0778 3.2218-1.543 6.9739-1.5198 10.1763.0629.167.0925.3642.1141.5473.06 1.5773-.4857 9.6051-2.708 16.679-.0346.2018.0755.4263.0605.6163-.0411 3.196-1.5665 6.9329-1.5849 10.1442-.05.2478.1179.5409.0858.7574-.0829 2.0348-1.5919 4.906.1853 4.906.1853"/><path d="M16.7606 32.57c4.4636-25.4954 19.381-24.153 19.381-24.153 0 0-7.5643.7338-8.5346 24.2376l6.78 25.0408M44.8716 32.64l-7.6251 25.713M55.72 32.5682c-4.4638-25.4955-19.5784-24.1512-19.5784-24.1512 0 0 7.76.7192 8.73 24.2229M16.761 32.66L33.5 58.353M55.72 32.69L37.246 58.353M32.081 59.773L11.301 32.718 32.081 59.773"/><rect width="6.586" height="6.586" x="32.081" y="58.353" rx="1.42" ry="1.42"/></g></svg>