<svg xmlns="http://www.w3.org/2000/svg" role="img" viewBox="13.93 11.43 44.01 49.01"><title>1F3E7.svg</title><g fill="none" stroke="#000" stroke-linecap="round" stroke-linejoin="round" stroke-width="2"><path d="M20.071 27.98l4.47-9.914 4.469 9.914m-7.815-2.449h6.564"/><path d="M34.556 18.066v9.914m-3.373-9.914h6.745m4.647 9.936v-9.958l4.234 8.893 4.469-8.893v9.958"/></g><path fill="#3f3f3f" d="M16 13.438h40V58.48H16z"/><path d="M20.071 27.98l4.47-9.914 4.469 9.914m-7.815-2.449h6.564" fill="none" stroke="#fff" stroke-linecap="round" stroke-linejoin="round" stroke-width="2"/><path fill="none" stroke="#fff" stroke-linecap="round" stroke-linejoin="round" stroke-width="2" d="M34.556 18.066v9.914m-3.373-9.914h6.745m4.647 9.936v-9.958l4.234 8.893 4.469-8.893v9.958"/><path fill="#d0cfce" d="M19.426 33.638h15.126v13.887H19.426z"/><path fill="#b1cc33" d="M19.426 51.147h32.498v3.542H19.426z"/><path fill="#d0cfce" d="M43.2372 39.7711h-5.1328a.9994.9994 0 0 1-1-1v-5.1328a1 1 0 0 1 1-1h5.1328a1 1 0 0 1 1 1v5.1328a.9993.9993 0 0 1-1 1zm8.6866 0H46.791a.9993.9993 0 0 1-1-1v-5.1328a1 1 0 0 1 1-1h5.1328a1 1 0 0 1 1 1v5.1328a.9994.9994 0 0 1-1 1zm-8.6866 8.7576h-5.1328a1 1 0 0 1-1-1v-5.1329a1 1 0 0 1 1-1h5.1328a1 1 0 0 1 1 1v5.1329a.9994.9994 0 0 1-1 1zm8.6866 0H46.791a.9994.9994 0 0 1-1-1v-5.1329a1 1 0 0 1 1-1h5.1328a1 1 0 0 1 1 1v5.1329a1 1 0 0 1-1 1z"/><g fill="none" stroke="#000" stroke-linecap="round" stroke-linejoin="round"><path stroke-width="2.122" d="M16 13.438h40V58.48H16z"/><path stroke-width="2" d="M19.426 33.638h15.126v13.887H19.426zm0 20.085v-2.576h32.497v2.576M38.104 38.771v-5.133h5.133m3.553 5.133v-5.133h5.133M38.104 47.529v-5.133h5.133m3.553 5.133v-5.133h5.133"/></g></svg>