<svg xmlns="http://www.w3.org/2000/svg" role="img" viewBox="9.91 5.16 56.81 56.81"><title>1F387.svg</title><g fill="none" stroke="#000" stroke-linecap="round" stroke-width="2"><path stroke-miterlimit="10" d="M27.612 16.11h0m28.286 28.272h0M55.882 16.1h0m-28.289.028h0"/><path stroke-linejoin="round" d="M41.75 10.25v14m6 6h14m-20 20v-14m-6-6h-14"/><path stroke-miterlimit="10" d="M37.507 26.007l-6.364-6.364m21.214 0l-6.364 6.364m6.364 14.85l-6.364-6.364M32.262 7.347l2.715 6.556M18.84 20.77l6.557 2.715m-6.554 16.268l6.556-2.718m6.87 16.136l2.714-6.557m16.269 6.55l-2.718-6.555m16.133-6.874l-6.557-2.712m6.546-16.271l-6.555 2.72M51.218 7.348l-2.707 6.56m-16.275-6.55l2.715 6.556"/><path stroke-miterlimit="10" d="M13 57l27.6378-27.7591a1.5 1.5 0 0 1 2.1214 0h0a1.5 1.5 0 0 1 0 2.1213L19 55"/></g><path fill="#9b9b9a" d="M11.2929 57.1716l28.6378-28.6378a2.5 2.5 0 0 1 3.5356 0 2.5 2.5 0 0 1 0 3.5355L14.8284 60.7071a1 1 0 0 1-1.4142 0l-2.1213-2.1213a1 1 0 0 1 0-1.4142z"/><g fill="none" stroke="#f1b31c" stroke-linecap="round" stroke-width="2"><path stroke-miterlimit="10" d="M27.612 16.11h0m28.286 28.272h0M55.882 16.1h0m-28.289.028h0"/><path stroke-linejoin="round" d="M41.75 10.25v14m6 6h14m-20 20v-14m-6-6h-14"/><path stroke-miterlimit="10" d="M37.507 26.007l-6.364-6.364m21.214 0l-6.364 6.364m6.364 14.85l-6.364-6.364M32.262 7.347l2.715 6.556M18.84 20.77l6.557 2.715m-6.554 16.268l6.556-2.718m6.87 16.136l2.714-6.557m16.269 6.55l-2.718-6.555m16.133-6.874l-6.557-2.712m6.546-16.271l-6.555 2.72M51.218 7.348l-2.707 6.56m-16.275-6.55l2.715 6.556"/></g><g><path fill="none" stroke="#000" stroke-linecap="round" stroke-miterlimit="10" stroke-width="2" d="M17 52.8787l23.6378-23.6378a1.5 1.5 0 0 1 2.1214 0h0a1.5 1.5 0 0 1 0 2.1213L31.92 42.201"/></g></svg>