<svg xmlns="http://www.w3.org/2000/svg" role="img" viewBox="11.94 7.44 48.00 55.25"><title>1F381.svg</title><g id="color"><path fill="#D22F27" d="M51.024,14.0213c-1.6705-3.0089-3.6713-4.5339-5.9477-4.5339c-2.6203,0-5.3416,2.0624-8.0912,6.133 c-0.3517,0.521-0.6812,1.042-0.985,1.5449c-0.3038-0.5029-0.6333-1.0238-0.9857-1.5449c-2.7479-4.0705-5.4701-6.133-8.0904-6.133 c-2.2762,0-4.278,1.5249-5.9476,4.5339c-1.2484,2.252-1.1453,4.0191-0.548,4.9787c1.0765,1.7294,3.8299,2.7454,7.7039,3.4114 C31.1069,22.9241,34.2545,23,35.8658,23h0.0009c0.0453,0,0.0898,0,0.1335,0c0.0445,0,0.0889,0,0.1344,0 c1.6114,0,4.759-0.0759,7.7336-0.5886c3.8731-0.666,6.6256-1.682,7.7039-3.4114C52.1675,18.0404,52.2734,16.2734,51.024,14.0213z"/><path fill="#FCEA2B" d="M16 36H55V61H16z"/><path fill="#f1b31c" d="M53.391 35.5L17 35.558 17 41.058 44.143 44.987 55 46.5 55 35.558z"/><path fill="#EA5A47" d="M29.714 60L42.286 60 42.286 44.273 29.714 41.786z"/><path fill="#FCEA2B" d="M14 21H58V35H14z"/><path fill="#EA5A47" d="M29.714 22H42.285V35H29.714z"/><path fill="#D22F27" d="M42.286 35.5L29.714 35.52 29.714 42.874 42.286 44.707z"/></g><g id="line" fill="none" stroke="#000" stroke-miterlimit="10" stroke-width="2"><path stroke-linecap="round" stroke-linejoin="round" d="M54.091 21.357L17.356 21.357M17.356 21.357L14 21.357 14 35.5 16.357 35.5 16.357 60.643 55.643 60.643 55.643 35.5 58 35.5 58 21.357 54.091 21.357M16.357 35.5L56.429 35.5M50.9612 18.2506c.3839-.9798.4917-2.3937-.4893-4.2293-1.6091-3.0089-3.5365-4.5339-5.7293-4.5339-2.5241 0-5.1454 2.0624-7.794 6.133-.3388.521-.6562 1.042-.9488 1.5449-.2926-.5029-.61-1.0238-.9495-1.5449-2.647-4.0705-5.2692-6.133-7.7933-6.133-2.1926 0-4.1209 1.5249-5.7292 4.5339-.9019 1.689-.8835 3.0211-.5752 3.9863"/><path d="M42.286 60L42.286 44.273M29.714 41.786L29.714 60M42.286 35L42.286 22M29.714 22L29.714 35M42.286 44.707L42.286 35.5 29.714 35.52 29.714 42.874"/></g></svg>