<svg xmlns="http://www.w3.org/2000/svg" role="img" viewBox="5.06 10.81 61.75 50.88"><title>1F649.svg</title><path d="M50.3838 47.2065c-1.7396 1.4508-3.5449 2.0133-3.8255 2.096 1.2769 3.8998 1.5308 7.3335.8554 9.3629M23.7414 31.4072c4.0808-1.403 9.8253.1056 12.4177 4.5449 2.5249-4.2094 7.8873-5.739 11.8223-4.7169M25.721 59.5755c-.7095-2.8184-.848-5.5181.3199-10.8352-.2215-.045-2.2221-.4854-4.1217-1.928" fill="none" stroke="#000" stroke-linecap="round" stroke-linejoin="round" stroke-miterlimit="10" stroke-width="2"/><circle cx="36.116" cy="36" r="24" fill="#6A462F"/><path fill="#A57939" d="M26.1077 57.8872c-1.017-3.4032-1.4239-6.0475-.0668-12.2261-.3544-.072-5.2649-1.1565-7.0265-5.7402-1.5688-4.0821.1684-8.8353 3.6538-11 4.2321-2.6284 10.5282-1.1215 13.4909 3.952 3.0375-5.0639 9.313-6.5391 13.4909-3.952 3.5775 2.2155 4.9892 7.0209 3.6538 11-1.5753 4.6941-6.2779 6.1647-6.7455 6.3024.9411 4.1067 1.2051 6.2341.8554 8.0629-.1115.583-.6968 1.054-1.4137 2.6346-.3895.8587-3.7481.5225-4 1"/><path fill="#FFF" d="M41.9792 48.917c-.2036.2681-.7527 6.0217-6.3387 6.0246-4.9521.0025-5.4413-5.6762-5.7048-6.0246h12.0435z"/><path fill="#6A462F" d="M19.2323 18.4382c-.361 0-8.0248-2.1272-11.4888 4.6208-3.059 5.959-.3874 10.2553 4.0243 14.2371m41.1649-18.4894c.3466 0 8.0022-2.5589 11.3277 3.9191 2.9367 5.7207.4686 11.8919-4.1618 14.1844"/><path fill="#A57939" d="M18.945 50.4547c-.4804-6.0396.0392-.0793-.4413-6.1189.7336-1.8542 1.6918-4.7683 2.059-8.4418.2878-2.8791-.0143-3.9562-.4118-10.2995-.5229-8.3456-.2387-10.2904-1.0295-10.4961-1.4192-.3691-4.4446 5.3461-5.971 10.4961-1.6205 5.4675-1.5585 10.3212-1.2354 13.5938-.8922 7.6868-.3078-2.4173-1.2001 5.2695"/><path fill="#6A462F" d="M11.3043 39.1904l.0609.0441c.1711-.7626-.0609-.0441-.0609-.0441zM19 57.9208c-.5222-6.0806-.5346-13.548-.5346-13.548l-7.1002-5.1383c-.1299.5787-.4918 2.0098-1.3652 5.2612l9 13.4251z"/><path fill="#A57939" d="M53.4019 50.4547c.4804-6.0396-.0392-.0793.4413-6.1189-.7336-1.8542-1.6918-4.7683-2.059-8.4418-.2878-2.8791.0143-3.9562.4118-10.2995.5229-8.3456.2387-10.2904 1.0295-10.4961 1.4192-.3691 4.4446 5.3461 5.971 10.4961 1.6205 5.4675 1.5585 10.3212 1.2354 13.5938.8922 7.6868.5987-1.1402 1.4909 6.5466"/><path fill="#6A462F" d="M60.8928 39.5034l.4278-.313s-.3159-.2516-.4278.313zM62 45.9208c-1.1036-4.1549-1.2314-5.7905-1.1072-6.4174l-6.9938 5.1184s.0441 7.9261-.4971 14.299l8.5981-13z"/><g><circle cx="26.838" cy="38.251" r="3"/><circle cx="45.395" cy="38.251" r="3"/><path fill="none" stroke="#000" stroke-linecap="round" stroke-linejoin="round" stroke-miterlimit="10" stroke-width="2" d="M41.9792 49.017c-.2036.2681-.7527 6.0217-6.3387 6.0246-4.9521.0025-5.4413-5.6762-5.7048-6.0246h12.0435z"/><circle cx="34.099" cy="44.558" r="1"/><circle cx="37.738" cy="44.558" r="1"/><path fill="none" stroke="#000" stroke-linecap="round" stroke-linejoin="round" stroke-miterlimit="10" stroke-width="2" d="M11.6836 20.1837c-1.2053.6459-2.3451 1.7036-3.2117 3.3917-1.708 3.3272-1.274 6.2517.0837 8.8217m51.9868-12.1357c1.1529.6519 2.2379 1.6919 3.0706 3.3141 1.6027 3.122 1.3194 5.8895.1566 8.3422M50.0121 54.2076c-3.8867 3.0046-8.7619 4.7923-14.0546 4.7923-5.1125 0-9.8354-1.6681-13.6542-4.4897m1.5347-38.0617C27.3571 14.2624 31.5099 13 35.9575 13c4.5893 0 8.8647 1.3441 12.4539 3.6602M18.945 56.8993c-.4804-6.0396.0392-6.4239-.4413-12.4635.7336-1.8542 1.6918-4.7683 2.059-8.4418.2878-2.8791-.0143-3.9562-.4118-10.2995-.5229-8.3456-.2387-10.2904-1.0295-10.4961-1.4192-.3691-4.4446 5.3461-5.971 10.4961-1.6205 5.4675-1.2354 13.5938-1.2354 13.5938l-1.2 5.2695m42.6869 13.4294c.4804-6.0396-.0392-7.5118.4413-13.5514-.7336-1.8542-1.6918-4.7683-2.059-8.4418-.2878-2.8791.0143-3.9562.4118-10.2995.5229-8.3456.2387-10.2904 1.0295-10.4961 1.4192-.3691 4.4446 5.3461 5.971 10.4961 1.6205 5.4675 1.2354 13.5938 1.2354 13.5938l1.4909 6.5466"/></g></svg>