<svg xmlns="http://www.w3.org/2000/svg" role="img" viewBox="14.59 8.59 54.08 51.83"><title>1F468-1F3FD-200D-1F3ED.svg</title><path fill="#9B9B9A" d="M35.5735 10.7259c.0293.0008.0557.0033.0845.0041.0293-.0008.0554-.0033.0845-.0041h-.169zm.0845.0041c-12.6145.3537-10.76 9.6192-10.76 9.6192 6.4833-3.498 18.0292-2.5454 21.5203 0 0 0 1.8545-9.2655-10.7603-9.6192z"/><path fill="#D0CFCE" d="M16.825 58.8833s-2-13.6701 10-13.6701c3.1919 2.1279 5.9264 3.5984 9 3.5922H35.7c3.0736.0062 4.7081-2.1643 7.9-4.2922 5.715 0 9.042 1.9359 10.5843 4.3867 2.0157 4.2358.6039 9.9834.6039 9.9834"/><path fill="#E27022" d="M58.8271 33.29c4.5773 3.7761 7.8593-1.1008 7.8593-1.1008s-3.238-4.9716-7.7812-1.5403"/><path fill="#92D3F5" d="M31.885 11.175v3.087h7.264v-3.087"/><path fill="none" d="M57.95 29.104l.382 6.126"/><path fill="#61B2E4" d="M50.7166 46.0662v12.8171H21.5135V45.8111l-.0033-.0058c1.3944-.797 3.203-1.2921 5.5449-1.2921v9.2652h17.8378v-9.2085l.0007-.055c2.3927.0347 4.4908.5958 5.8761 1.467"/><path fill="#3F3F3F" d="M43.59248 57.38198l4.32366-15.3819 3.85076 1.08241-4.32365 15.38189z"/><path fill="#FCEA2B" d="M58.4145 32.71c2.1562 1.7788 3.7022-.5186 3.7022-.5186s-1.5253-2.3419-3.6654-.7255"/><g><path fill="#6a462f" d="M46.7217 20.5249c1.5075 5.4986.1748 6.9726.1748 6.9726l-5.2598-8.6243s-1.4783 4.1056-5.6542 3.7931c0 0 .6471-2.8931.2934-4.168l-1.0459-.0546c-1.4018 1.5624-5.7645 6.1275-10.6039 8.1882l-.0072-.0014.0286.0037s-.9446-.6107.024-5.8262c0 0 9.1232-4.933 22.3137-.3234"/></g><g><path fill="#c19a65" d="M41.7729 19.0966c-.0721-.0135-.1415-.0229-.2133-.0359-.349.7975-1.9385 3.878-5.5772 3.6057 0 0 .6364-2.8483.2999-4.1375-.3898-.0062-.7635-.0001-1.137.0079-1.4785 1.6367-5.759 6.0634-10.5077 8.0898.006.0051.0098.0077.0098.0077l-.0206-.0027c-.0002.0001-.0005.0002-.0008.0004l-.0072-.0014.008.001c.0037-.0015.0071-.0035.0108-.005-.0365-.0309-.1722-.1763-.2765-.6118-.1128.8022-.1827 1.623-.1827 2.4657 0 7.8276 5.0764 14.1732 11.3385 14.1732 6.262 0 11.3385-6.3456 11.3385-14.1732 0-.3797-.022-.7525-.0454-1.1246l-5.0371-8.2593z"/></g><g><path d="M41.8851 27.0744c0 1.1045-.8965 2-2 2s-2-.8955-2-2c0-1.1035.8965-2 2-2s2 .8965 2 2m-8 0c0 1.1045-.8965 2-2 2s-2-.8955-2-2c0-1.1035.8965-2 2-2s2 .8965 2 2m1.9998 10.0025c-1.1518 0-2.3037-.2862-3.4472-.858-.4942-.247-.6944-.8476-.4473-1.3418.2466-.4936.8462-.6943 1.3418-.4472 1.7178.8594 3.3877.8594 5.1055 0 .4946-.2471 1.0947-.0464 1.3418.4472.247.4942.0468 1.0948-.4473 1.3418-1.1436.5718-2.2954.858-3.4473.858zm3.2635-21.8147h-7.2636c-.5528 0-1-.4477-1-1v-3.0874c0-.5522.4472-1 1-1 .5527 0 1 .4478 1 1v2.0874h5.2636v-2.0874c0-.5522.4473-1 1-1 .5528 0 1 .4478 1 1v3.0874c0 .5523-.4472 1-1 1zm8.2159 3.0625c-.5528 0-1-.4477-1-1v-2.6763c0-.5522.4472-1 1-1 .5527 0 1 .4478 1 1v2.6763c0 .5523-.4473 1-1 1zm-23.3975 0c-.5527 0-1-.4477-1-1v-2.6763c0-.5522.4473-1 1-1s1 .4478 1 1v2.6763c0 .5523-.4473 1-1 1z"/><path d="M35.7168 43.6084c-6.8037 0-12.3389-6.8066-12.3389-15.1733 0-.8765.0616-1.7535.1817-2.606l1.9804.2803c-.1074.7597-.1621 1.5425-.1621 2.3257 0 7.2641 4.6377 13.1733 10.3389 13.1733s10.3389-5.9092 10.3389-13.1733c0-1.0723-.1016-2.1387-.3028-3.17l1.9629-.3828c.2256 1.1573.3399 2.3526.3399 3.5528 0 8.3667-5.5352 15.1733-12.3389 15.1733z"/><path d="M46.8965 28.4976a1.0152 1.0152 0 0 1-.0938-.0044c-.3144-.0293-.5957-.2056-.7597-.4751l-4.3614-7.1514c-1.0771 1.4902-2.9824 3.001-5.7734 2.7969a.99775.99775 0 0 1-.7285-.4014c-.1738-.2334-.2363-.5303-.1729-.814.1651-.7421.336-1.8344.3702-2.685-1.9405 2.0683-5.8399 5.8149-10.2032 7.7217-.1894.1172-.4189.1704-.6504.1416-.0361-.0035-.0713-.0093-.1074-.0166-.2715-.0586-.4961-.2232-.6357-.4419-.6973-.92-.7285-3.1148-.0918-6.5425.0556-.2969.2422-.5532.5078-.6968.251-.1362 4.2334-2.2309 10.6611-2.4126.1348-.0542.2871-.0801.4248-.0708l1.0459.0547c.0352.002.0694.0054.1035.0107 1.4883.0318 3.0879.1695 4.7872.4541.0986-.0454.205-.0752.3173-.0869.3047-.0307.6055.0816.8155.2954 1.5791.3179 3.2373.7637 4.9638 1.3672.5215.1822.7959.7525.6143 1.274-.0176.0493-.0381.0966-.0625.1411 1.2822 5.1933.043 6.9116-.2285 7.2129-.1914.2104-.461.3291-.7422.3291zm-21.3301-7.0098c-.3369 1.957-.3643 3.1035-.3154 3.7495 2.916-1.4761 5.6084-3.8071 7.3906-5.5459-3.6377.3945-6.1328 1.3731-7.0752 1.7964zm18.2783-.915l2.5948 4.2548c-.0206-.8676-.168-2.063-.584-3.6684-.6817-.2207-1.3526-.4155-2.0108-.5864zm-6.4638-1.0093c-.003.6938-.0889 1.436-.1846 2.0503 1.3262-.2403 2.2207-1.0694 2.7744-1.8067-.8955-.1216-1.7598-.2002-2.5898-.2436z"/><path d="M49.6641 23.4844c-.2891 0-.5743-.124-.7725-.3638-1.7725-2.1484-7.1289-3.7241-13.1494-3.895-6.0195.1709-11.376 1.7466-13.1484 3.895-.3506.4253-.9805.4883-1.4083.1353-.4257-.3516-.4863-.982-.1347-1.4078 2.4951-3.0239 8.7178-4.333 13.8359-4.5893.0938-.0293.1934-.0449.2969-.0449h1.1172c.1035 0 .2031.0156.2969.0449 5.1181.2563 11.3418 1.5654 13.8369 4.5893.3515.4258.291 1.0562-.1348 1.4078-.1865.1538-.4121.2285-.6357.2285zm1.6191 19.4619l-2.8887-.8125 2.0088-7.1465c.1113-.3887 1.1309-3.709 3.6533-3.8057l3.8926-.5019.3848 2.9746-3.9727.5127c-.0644.0088-.1279.0127-.1924.0127h-.0009c-.2022.1035-.6836.9433-.878 1.625l-2.0068 7.1416z"/><path d="M58.3311 36.2305c-.5235 0-.9639-.4082-.9971-.9375l-.3819-6.127c-.0341-.5513.3848-1.0264.9356-1.0605.5723-.0406 1.0254.3852 1.0605.9355l.3819 6.127c.0342.5517-.3848 1.0263-.9356 1.0605-.0215.001-.0429.002-.0634.002zM46.4189 21.3491c-.0654 0-.1308-.0063-.1972-.0195-.5401-.1084-.8906-.6328-.7852-1.1733.0059-.0293.541-2.9542-1.3398-5.2886-1.585-1.9668-4.4238-3.0225-8.4385-3.1392-4.0283.1167-6.8721 1.1792-8.4541 3.1582-1.8818 2.355-1.3311 5.2368-1.3252 5.2656.1084.5415-.2422 1.0689-.7842 1.1773-.539.1074-1.0674-.2422-1.1767-.7837-.0313-.1553-.7334-3.8325 1.7246-6.9077 1.9424-2.4312 5.2383-3.7442 9.7998-3.9038.043-.0054.0869-.0083.1308-.0083h.169c.0439 0 .0879.0029.1308.0083 4.5616.1596 7.8584 1.4726 9.8008 3.9043 2.4571 3.0747 1.7559 6.7519 1.7246 6.9072-.0957.4751-.5127.8032-.9795.8032z"/><path d="M62.3047 35.7246c-1.3936 0-2.7734-.5576-4.1143-1.6631-.4258-.3515-.4863-.9814-.1347-1.4082.3515-.4248.9804-.4863 1.4082-.1347 1.124.9287 2.2314 1.3222 3.3007 1.1738 1.1817-.167 2.1163-.9629 2.6377-1.5166-.5312-.5938-1.5048-1.4756-2.7392-1.6875-1.0205-.1699-2.0811.1484-3.1553.958-.4424.334-1.0683.2451-1.4004-.1953-.333-.4405-.2451-1.0674.1953-1.4004 1.5381-1.1621 3.127-1.6104 4.7159-1.3301 2.7578.4824 4.4355 3.0156 4.5058 3.1231.2188.3369.2158.7714-.0078 1.1044-.0693.1026-1.7285 2.5254-4.4521 2.9219-.254.0362-.5069.0547-.7598.0547zm-7.6026 23.1602c-.0507 0-.1015-.003-.1523-.0108-.5459-.083-.9209-.5937-.8379-1.1386.0069-.045.6485-4.4786-1.2334-7.8829-.2676-.4824-.0918-1.0918.3916-1.3584.4854-.2695 1.0918-.0908 1.3584.3916 2.2178 4.0108 1.4922 8.9444 1.46 9.1524-.0762.4941-.502.8467-.9864.8467zm-33.4189.0009c-.5527 0-1-.4472-1-1V46.1836c0-.5527.4473-1 1-1s1 .4473 1 1v11.7021c0 .5528-.4473 1-1 1zm19.7725-3.083H26.8252c-.5527 0-1-.4472-1-1v-9.917c0-.5527.4473-1 1-1s1 .4473 1 1v8.917h13.2305c.5527 0 1 .4473 1 1 0 .5528-.4473 1-1 1z"/><path d="M16.8232 58.8848c-.4843 0-.9101-.3526-.9863-.8467-.041-.2695-.9726-6.6328 2.5811-10.7754 1.9228-2.2412 4.7509-3.377 8.4072-3.377.1973 0 .3906.0586.5547.168 3.1533 2.1026 5.6601 3.4111 8.3828 3.4248 2.1543-.0107 4.2734-.8008 7.293-2.7148.4677-.2969 1.0839-.1563 1.3798.3095.2959.4659.1573 1.084-.3095 1.3799-2.4385 1.5459-5.125 2.9776-8.253 3.0244-.0214.002-.0439 0-.0664.001h-.0703c-.0127 0-.0254-.001-.0381 0-.0146 0-.0293 0-.0439-.001-3.0996-.0429-5.8164-1.4033-9.126-3.5888-2.8965.0566-5.1103.9541-6.5859 2.6689-2.9561 3.4365-2.1377 9.1201-2.1289 9.1778.083.5449-.292 1.0546-.8379 1.1386-.0508.0078-.1016.0108-.1524.0108zm30.6182.5791c-.0908 0-.1816-.0127-.2705-.0371l-3.8506-1.083c-.5322-.1495-.8418-.7022-.6924-1.2334l4.3233-15.3819c.1494-.5322.7041-.8408 1.2334-.6924l3.8506 1.0821c.2548.0722.4716.2422.6015.4736s.1621.5049.0908.7598l-4.3232 15.3828c-.0723.2558-.2422.4717-.4736.6015-.1504.085-.3194.128-.4893.128zm-2.6172-2.7754l1.9248.542 3.7823-13.4571-1.9249-.541-3.7822 13.4561z"/></g></svg>