<svg xmlns="http://www.w3.org/2000/svg" role="img" viewBox="5.84 5.84 60.19 60.19"><title>1F1E8.svg</title><circle cx="36.5" cy="35.5" r="27.5" fill="#fff"/><path d="M36.6819 23c2.2046 0 4.3257.8042 5.9727 2.2642.4131.3672 1.0464.3281 1.4116-.0845.3667-.4136.3286-1.0454-.0845-1.4121C41.968 21.9829 39.3757 21 36.6819 21c-6.0654 0-11 4.9346-11 11v8c0 6.0654 4.9346 11 11 11 2.6943 0 5.2866-.9829 7.2998-2.7676.4131-.3662.4512-.998.0845-1.4116-.3662-.4126-.999-.4521-1.4116-.0845C41.0081 48.1958 38.887 49 36.6819 49c-4.9624 0-9-4.0376-9-9v-8c0-4.9624 4.0376-9 9-9z"/><g><circle cx="36" cy="36" r="28" fill="none" stroke="#000" stroke-linejoin="round" stroke-width="2"/><path fill="none" stroke="#000" stroke-linejoin="round" stroke-width="2" d="M36.6819 23c2.2046 0 4.3257.8042 5.9727 2.2642.4131.3672 1.0464.3281 1.4116-.0845.3667-.4136.3286-1.0454-.0845-1.4121C41.968 21.9829 39.3757 21 36.6819 21c-6.0654 0-11 4.9346-11 11v8c0 6.0654 4.9346 11 11 11 2.6943 0 5.2866-.9829 7.2998-2.7676.4131-.3662.4512-.998.0845-1.4116-.3662-.4126-.999-.4521-1.4116-.0845C41.0081 48.1958 38.887 49 36.6819 49c-4.9624 0-9-4.0376-9-9v-8c0-4.9624 4.0376-9 9-9z"/></g></svg>