<svg xmlns="http://www.w3.org/2000/svg" role="img" viewBox="15.38 10.13 36.24 51.74"><title>1F399.svg</title><g id="color"><path fill="#3F3F3F" d="M48.11,28.5397l-4.38,4.39l-4.35,4.35l-5.81,5.47c0,0-1.2755,1.3938-3.19,1.92 c-1.9145,0.5262-4.79-0.15-6.5699-1.92l-3.58-3.58c-2.77-2.78-2.77-7.32,0-10.1l4.31-4.3l5.51-5.5099l4.39-4.39 c2.78-2.78,7.3199-2.78,10.09,0l0.6,0.6l2.98,2.98C50.89,21.2197,50.89,25.7697,48.11,28.5397z"/><path fill="#9B9B9A" d="M43.8321,24.2619c0,0-3.4544,3.4623-4.3799,4.39c-0.9256,0.9277-4.35,2.4561-5.2784,3.3301 c-0.9283,0.874-3.2698,5.1874-4.8817,6.4899c-1.6118,1.3025-1.0722,1.4146-3.19,1.92s-4.79-0.15-6.57-1.92l-0.6-0.6 c-2.77-2.78-2.77-7.32,0-10.1l4.31-4.3l5.51-5.5099l4.39-4.39c2.78-2.78,7.3199-2.78,10.09,0l0.6,0.6 C46.6121,16.9519,46.6121,21.4918,43.8321,24.2619z"/><path fill="#D0CFCE" d="M21.902 54.688H49.745000000000005V59.985H21.902z"/><path fill="#3F3F3F" d="M47.051 54.688H49.745000000000005V59.985H47.051z"/><path fill="#9B9B9A" d="M36.3643,30.5947l-0.5432-1.3615c-0.6895,0-2.2504,0.9225-2.2504,1.6119v24.092 c0,0.0001,2.9293-0.2495,2.9293-0.2495L36.3643,30.5947z"/><path fill="#3F3F3F" d="M38.1196,54.6877l-0.2185-23.8192c0-0.6894-0.8474-1.0591-1.5368-1.0591L36.5,54.6877 C36.5,54.6877,38.1196,54.6878,38.1196,54.6877z"/><path fill="#D0CFCE" d="M32.4199 28.0879c-.2558 0-.5117-.0977-.707-.293l-7.5977-7.5971c-.3906-.3907-.3906-1.0235 0-1.4141.0187-.0186.0435-.0251.0632-.0419l-.0261-.0264c0 0-.3883.3664-.7789.7571-.3907.3906-.3907 1.0234 0 1.414l7.4951 7.5705c.1953.1953.4511.2929.707.2929s.5117-.0976.707-.2929c.2255-.2258.462-.403.6302-.5197C32.7584 28.0265 32.5929 28.0879 32.4199 28.0879zM41.0273 35.6579l-1.2024 1.1804c-.0477.3048.0283.6249.2632.8599l.6086.5919c.1953.1963.4511.2939.708.2939.2549 0 .5107-.0966.706-.2919.3906-.3897.822-.7921.822-.7921L41.0273 35.6579 41.0273 35.6579z"/></g><g id="line" fill="none" stroke="#000" stroke-linecap="round" stroke-linejoin="round" stroke-miterlimit="10" stroke-width="2"><path d="M29.3922 18.5962l4.3865-4.3865c2.7764-2.7764 7.3196-2.7764 10.096 0l3.5778 3.5778c2.7764 2.7765 2.7764 7.3197 0 10.0961L43.0661 32.27M29.7195 44.009c-2.2958.4945-4.7929-.1458-6.5678-1.9207l-3.5778-3.5778c-2.7764-2.7764-2.7764-7.3196 0-10.096l4.3033-4.3033M33.5707 54.6877V31.8448c0-1.2429 1.0075-2.2505 2.2504-2.2505h.543c1.2429 0 2.2504 1.0076 2.2504 2.2505v22.8429M22.44 54.688H49.745000000000005V59.985H22.44zM20.996 40.499L18.573 42.968M41.636 36.304L42.17 36.838M24.823 19.491L32.42 27.088"/></g></svg>