<svg xmlns="http://www.w3.org/2000/svg" role="img" viewBox="10.00 11.00 51.87 50.87"><title>E20C.svg</title><path fill="#d0cfce" d="M12 13h48v47H12z"/><path fill="#d0cfce" stroke="#9b9b9a" stroke-linejoin="round" stroke-width="2" d="M44 27h10l-2 5h-6l-2-5z"/><path fill="none" stroke="#9b9b9a" stroke-linejoin="round" stroke-width="2" d="M43.5 34.5L40 31h-4v-4h8m-2 11h-6v-7m18.5 3.5L58 31h1m-3 7h3m-3 7h3m-3 7h3m-23-7h5m-5 7h5"/><path fill="#a57939" fill-rule="evenodd" d="M42 39c0-3.866 3.134-7 7-7s7 3.134 7 7v21H42V39z"/><path fill="#3f3f3f" d="M17 40h16v14H17z"/><path fill="#6a462f" d="M50 40h4v18h-4zm-6 0h4v18h-4z"/><path fill="#6a462f" fill-rule="evenodd" d="M44 39c0-2.7614 2.2386-5 5-5s5 2.2386 5 5H44z"/><path fill="none" stroke="#9b9b9a" stroke-width="2" d="M54 27h5"/><g fill="none" stroke-width="4"><path stroke="#ea5a47" d="M17 37V27m8 10V27m8 10V27"/><path stroke="#fff" d="M29 37V27m-8 10V27"/><path stroke="#d22f27" d="M17 39v-2m8 2v-2m8 2v-2"/><path stroke="#d0cfce" d="M29 39v-2m-8 2v-2"/></g><g><path fill="none" stroke="#000" stroke-linecap="round" stroke-width="2" d="M18 54h14"/><path d="M15 27v-1c-.5523 0-1 .4477-1 1h1zm20 0h1c0-.5523-.4477-1-1-1v1zM20 38c0-.5523-.4477-1-1-1s-1 .4477-1 1h2zm4 0c0-.5523-.4477-1-1-1s-1 .4477-1 1h2zm4 0c0-.5523-.4477-1-1-1s-1 .4477-1 1h2zm4 0c0-.5523-.4477-1-1-1s-1 .4477-1 1h2zM15 28h20v-2H15v2zm1 10V27h-2v11h2zm1 1c-.5523 0-1-.4477-1-1h-2c0 1.6569 1.3431 3 3 3v-2zm1-1c0 .5523-.4477 1-1 1v2c1.6569 0 3-1.3431 3-3h-2zm3 1c-.5523 0-1-.4477-1-1h-2c0 1.6569 1.3431 3 3 3v-2zm1-1c0 .5523-.4477 1-1 1v2c1.6569 0 3-1.3431 3-3h-2zm3 1c-.5523 0-1-.4477-1-1h-2c0 1.6569 1.3431 3 3 3v-2zm1-1c0 .5523-.4477 1-1 1v2c1.6569 0 3-1.3431 3-3h-2zm3 1c-.5523 0-1-.4477-1-1h-2c0 1.6569 1.3431 3 3 3v-2zm1-1c0 .5523-.4477 1-1 1v2c1.6569 0 3-1.3431 3-3h-2zm3 1c-.5523 0-1-.4477-1-1h-2c0 1.6569 1.3431 3 3 3v-2zm1-1c0 .5523-.4477 1-1 1v2c1.6569 0 3-1.3431 3-3h-2zm0-11v11h2V27h-2z"/><path fill="none" stroke="#000" stroke-linecap="round" stroke-width="2" d="M35 59V43M15 59V43"/><path d="M49 33c-3.3137 0-6 2.6863-6 6h-2c0-4.4183 3.5817-8 8-8v2zm6 6c0-3.3137-2.6863-6-6-6v-2c4.4183 0 8 3.5817 8 8h-2zm0 20.0053V39h2v20.0053h-2zM43 39v20.007h-2V39h2z"/><path fill="none" stroke="#000" stroke-linejoin="round" stroke-width="2" d="M12 13h48v47H12z"/><path d="M50.03 16.0006h-4v7h4m-4-3.5h3" fill="none" stroke="#000" stroke-linecap="round" stroke-linejoin="round" stroke-width="2"/><path d="M57.03 16.0006h-4v7h4m-4-3.5h3" fill="none" stroke="#000" stroke-linecap="round" stroke-linejoin="round" stroke-width="2"/><path d="M29.03 23.0006l-3-7-3 7m1-1.68h4" fill="none" stroke="#000" stroke-linecap="round" stroke-linejoin="round" stroke-width="2"/><path fill="none" stroke="#000" stroke-linecap="round" stroke-linejoin="round" stroke-width="2" d="M35.03 19.5006h-3v3.5-7h4m6.1701 3.5h-3v3.5-7h4"/><path d="M16 16.0007v7m.0193-2.462L20.0195 16m-2.0333 2.357l2.3965 4.6466" fill="none" stroke="#000" stroke-linecap="round" stroke-linejoin="round" stroke-width="2"/></g></svg>