<svg xmlns="http://www.w3.org/2000/svg" role="img" viewBox="2.72 14.72 66.43 42.43"><title>1F1EC-1F1FA.svg</title><path fill="#1e50a0" d="M5 17h62v38H5z"/><path fill="#92d3f5" stroke="#d22f27" stroke-linecap="round" stroke-linejoin="round" d="M36.0018 46.5A11.7362 11.7362 0 0 0 42 36.0005 11.736 11.736 0 0 0 36 25.5a11.736 11.736 0 0 0-6 10.5005A11.7364 11.7364 0 0 0 35.9982 46.5z"/><path fill="#fcea2b" d="M30.64 40a11.2419 11.2419 0 0 0 5.3581 6.5h.0035A11.2419 11.2419 0 0 0 41.36 40z"/><path fill="none" stroke="#d22f27" stroke-miterlimit="10" stroke-width="2" d="M7 19h58v34H7z"/><path fill="none" stroke="#1e50a0" stroke-linecap="round" stroke-linejoin="round" stroke-width="2" d="M28 39h16"/><path fill="none" stroke="#d22f27" stroke-linecap="round" stroke-linejoin="round" stroke-width="2" d="M36.0018 46.5A11.7362 11.7362 0 0 0 42 36.0005 11.736 11.736 0 0 0 36 25.5a11.736 11.736 0 0 0-6 10.5005A11.7364 11.7364 0 0 0 35.9982 46.5z"/><g><path fill="none" stroke="#000" stroke-linecap="round" stroke-linejoin="round" stroke-width="2" d="M5 17h62v38H5z"/></g></svg>