<svg xmlns="http://www.w3.org/2000/svg" role="img" viewBox="1.68 12.56 68.51 45.63"><title>1F682.svg</title><path fill="#EA5A47" d="M7.7037 46.5833z"/><path fill="#3F3F3F" d="M67.19 30.9498v9.26c0 .19-.05.37-.15.51-.07-.01-.15-.02-.23-.02H6.75c-.09-.14-.14-.31-.14-.49v-9.26c0-.55.46-1 1.03-1h58.51c.02 0 .05 0 .0699.01.5501.0299.9701.4599.9701.99z"/><path fill="#EA5A47" d="M27.14 49.6598h-9.62c.58-2.11 2.51-3.66 4.81-3.66s4.23 1.5499 4.81 3.66z"/><path fill="#3F3F3F" d="M31.407 25.44h4.148v4.523h-4.148zm-4.1107 6.292h-6.7407a.037.037 0 0 1-.0371-.037v-6.3704c0-1.3295 1.0779-2.4074 2.4074-2.4074h2.2963c1.166 0 2.1111.9452 2.1111 2.1111v6.6667c0 .0205-.0165.037-.037.037zM9.556 18.695h3.111v11.63H9.556z"/><path fill="#3F3F3F" d="M7.56 37.73v-6.78c0-.55.45-1 1-1H45.5V18.1h20.72v12.75c.01.03.01.07.01.1v6.6125L7.56 37.73z"/><path fill="#3F3F3F" d="M53.704 14.917h4.593v3.185h-4.593z"/><path fill="#EA5A47" d="M45.27 50.9998c0 2.76-2.24 5-5 5s-5-2.24-5-5c0-.46.06-.91.19-1.34.44-1.63 1.7-2.9301 3.31-3.42.48-.16.98-.24 1.5-.24.93 0 1.79.25 2.53.69 1.11.65 1.94 1.71 2.28 2.97.13.43.19.8799.19 1.34z"/><path fill="none" d="M29.824 48.692h3.167"/><path fill="#EA5A47" d="M68 41.8798v.82c0 .65-.53 1.18-1.19 1.18H65v4.71c0 .59-.48 1.07-1.07 1.07h-5.81c-.13-.46-.32-.89-.57-1.29-.88-1.42-2.46-2.37-4.25-2.37-1.39 0-2.64.56-3.55 1.48-.59.6-1.04 1.34-1.27 2.1801h-3.4c-.34-1.26-1.17-2.32-2.28-2.97-.74-.44-1.6-.69-2.53-.69-.52 0-1.02.08-1.5.24-1.61.49-2.87 1.79-3.31 3.42h-8.32c-.58-2.11-2.51-3.66-4.81-3.66s-4.23 1.55-4.81 3.66H9.04c-1.2599 0-2.28-1.02-2.28-2.28v-3.5H5.19c-.66 0-1.19-.53-1.19-1.18v-.82c0-.65.53-1.18 1.19-1.18h61.62c.08 0 .16.01.23.02.55.1099.96.5899.96 1.1599z"/><path fill="#EA5A47" d="M58.3 50.9998c0 2.76-2.24 5-5 5-2.77 0-5-2.24-5-5 0-.46.06-.91.18-1.34.23-.84.68-1.58 1.27-2.1801.91-.92 2.16-1.48 3.55-1.48 1.79 0 3.37.95 4.25 2.37.25.4.44.83.57 1.29.12.4301.18.88.18 1.3401zm-30.97 0c0 2.76-2.24 5-5 5s-5-2.24-5-5c0-.46.06-.91.19-1.34.58-2.11 2.51-3.66 4.81-3.66s4.23 1.55 4.81 3.66c.13.43.19.8799.19 1.34z"/><path d="M57.3333 29.9636h-8v-8.6342c0-.5523.4477-1 1-1h7v9.6342z"/><g fill="none" stroke="#000" stroke-linecap="round" stroke-linejoin="round" stroke-miterlimit="10" stroke-width="2"><path d="M31.407 25.44h4.148v4.523h-4.148zm-4.077-.4102v4.92h-6.81v-4.63c0-1.32 1.08-2.4 2.41-2.4h2.29c1.17-.0001 2.11.9399 2.11 2.11zM9.56 18.7h3.11v11.25H9.56z"/><path d="M66.23 37.5598v-6.61c0-.03 0-.07-.01-.1v-12.75H45.5v11.85H27.33m-19.77 7.78v-6.78c0-.55.45-1 1-1h1m10.96.0002h-7.85"/><path d="M53.704 14.917h4.593v3.185h-4.593zM7.7037 44.5833v3.1087c0 .5523.4477 1 1 1h6.2088m45.4903 0H64c.5523 0 1-.4477 1-1v-3.8118M29.824 48.692h3.167M68 41.8798v.82c0 .65-.53 1.18-1.19 1.18H5.19c-.66 0-1.19-.53-1.19-1.18v-.82c0-.65.53-1.18 1.19-1.18h61.62c.66 0 1.19.5299 1.19 1.18z"/><circle cx="53.296" cy="51" r="5"/><circle cx="40.273" cy="51" r="5"/><circle cx="22.333" cy="51" r="5"/><path d="M57.162 21.297v8.667h-6.917"/></g></svg>