<svg xmlns="http://www.w3.org/2000/svg" role="img" viewBox="8.96 13.71 53.95 49.20"><title>E0C8.svg</title><path fill="#fff" d="M41.8312 61.958a3.7524 3.7524 0 0 1-.4794-.0293H29.6545a3.8959 3.8959 0 0 1-2.9776-.9873 1.987 1.987 0 0 1-.5449-1.456l-.0039-11.7276a1 1 0 0 1 1-1h16.5508a1 1 0 0 1 1 1v11.45a2.6241 2.6241 0 0 1-.8916 2.1133 3.0431 3.0431 0 0 1-1.9561.6369zm-13.7031-2.3916v.0049l.001.001z"/><path fill="#d0cfce" d="M43.6789 46.7578h-4.8223v15.1709h2.4952a3.7524 3.7524 0 0 0 .4794.0293 3.0431 3.0431 0 0 0 1.9561-.6367 2.6241 2.6241 0 0 0 .8916-2.1133v-11.45a1 1 0 0 0-1-1.0002z"/><path fill="#a57939" d="M36 48.7578c-13.3711 0-26 0-26-10 0-9.4775 11.6475-24 26-24s26 14.5225 26 24c0 10-12.6287 10-26 10z"/><path fill="#6a462f" d="M36 14.7578a21.8545 21.8545 0 0 0-4.9365.5776c11.9931 2.7761 21.0632 15.06 21.0632 23.4224 0 8.755-9.68 9.8449-21.0632 9.9807 1.6189.0193 3.2717.0193 4.9365.0193 13.3711 0 26 0 26-10 0-9.4778-11.6473-24-26-24z"/><g fill="none" stroke="#000" stroke-linecap="round" stroke-linejoin="round" stroke-width="2"><path d="M27.1284 51.5319v8.0389s-.1171 1.358 2.5264 1.358h11.7694s2.2545.3973 2.2545-1.72v-7.677M61 38.7581c0 8.8366-11.1929 9-25 9s-25-.1634-25-9 11.1929-23 25-23 25 14.1634 25 23z"/><path d="M61 38.7581c0 8.8366-11.1929 9-25 9s-25-.1634-25-9 11.1929-23 25-23 25 14.1634 25 23z"/></g></svg>