<svg xmlns="http://www.w3.org/2000/svg" role="img" viewBox="2.18 4.68 68.51 55.26"><title>1F3A9.svg</title><path fill="#fcea2b" d="M52.4776 51.4994l-15.7387 1.9401c-.0392.0023-.3512.0023-.3903 0l-15.7604-1.3132c-.5746-.0335-1.0213-.4806-1.0488-1.1176l-.9272-17.7602c-.0306-.7084.4794-1.3014 1.1193-1.3014h33.2341c.6297 0 1.4478.5931 1.4322 1.2909l-.8589 17.0518c-.0145.6486-.4769 1.1755-1.0614 1.2096z"/><path fill="#3f3f3f" d="M55.355 32.376L56.5 7.083h-40l1.145 25.293h37.71zM54.5 51.262S43.2092 53.0323 37 53.0323 18.5 51.262 18.5 51.262c-7.3129-1.1586-14-2.0756-14-.04 0 3.5608 14.3269 6.4474 32 6.4474s32-2.8866 32-6.4474c0-2.0356-6.6871-1.1186-14 .04z"/><g fill="none" stroke="#000" stroke-linecap="round" stroke-linejoin="round" stroke-width="2"><path d="M55.355 32.376l-.673 14.876L56.5 7.083h-40l1.818 40.169-.673-14.876h37.71zM54.5 51.262S43.2092 53.0323 37 53.0323 18.5 51.262 18.5 51.262c-7.3129-1.1586-14-2.0756-14-.04 0 3.5608 14.3269 6.4474 32 6.4474s32-2.8866 32-6.4474c0-2.0356-6.6871-1.1186-14 .04z"/></g></svg>