<svg xmlns="http://www.w3.org/2000/svg" role="img" viewBox="5.72 5.84 60.32 60.20"><title>25D0.svg</title><path fill="#fff" d="M36.7946 44.5356V8.9226c7.4261 0 13.7534 3.0274 19.0044 8.2784 5.251 5.251 7.6176 11.6901 7.6176 19.1162s-2.6864 13.5741-7.9374 18.8251S44.5017 63.15 37.0756 63.15l-.281-18.6143z"/><path fill="#3f3f3f" d="M37 44.2857L35.1468 8.9836c-7.9565 0-13.6584 3.1402-19.2845 8.5788S7.492 32.1851 9.0488 40.1103c1.5453 7.8672 3.9269 11.6304 9.553 17.069 6.6731 4.8468 10.4418 6.0409 18.3983 6.0409V44.2857z"/><g fill="none" stroke="#000" stroke-width="2"><path stroke-linejoin="round" d="M36 64c15.464 0 28-12.536 28-28S51.464 8 36 8 8 20.536 8 36s12.536 28 28 28z"/><path stroke-linecap="round" d="M36 8v53"/></g></svg>