<svg xmlns="http://www.w3.org/2000/svg" role="img" viewBox="19.23 3.36 31.16 65.78"><title>1F930-1F3FD.svg</title><path fill="#9B9B9A" d="M47.3364 49.4814c-5.0144-1.16-11.5564 6.1034-15.9453 6.1034l.4558 7.5247 1.0888 4.8662h9.0131l.962-4.223 4.6068-9.3292c.6249-1.6017.5593-3.3905-.1812-4.9421z"/><path fill="#3F3F3F" d="M41.3207 51.6566c.6864 2.7364-2.7075 9.8993-2.7603 16.3191h3.3884s.3031-3.1508.962-4.223 4.1092-9.3292 4.1092-9.3292 1.7373-4.0488.1223-4.9422c-.6364-.1254-4.5832 1.1856-5.8216 2.1753z"/><path fill="#92D3F5" d="M44.2795 43.4832c-.5303-1.1113-.6416-2.3711-.3096-3.5567.8623-3.0779 2.398-9.1175 2.4551-10.6483.0776-2.0787-3.2305-4.3562-3.2305-4.3562s-5.6782-5.8388-13.0844 12.612l-3.4253 3.1475c-1.2339 1.5141-2.1729 3.2701-2.5865 5.1793-.333 1.535-.2861 2.8431.0171 3.9568.5371 1.9734 1.8794 3.336 3.3418 4.2676 2.4073 1.5339 5.1397 2.6995 5.1397 2.6995 7.4242-1.2057 6.2829-6.134 14.5454-7.3034l-2.8628-5.9981z"/><path fill="#61B2E4" d="M42.173 24.4284l-2.8243 17.0988 1.972 10.1294s3.2845-1.9486 5.8216-2.1753l-3.3836-8.3017 2.3046-12.4401-3.8903-4.3111z"/><path fill="#EA5A47" d="M23.0762 36.8408h-.0235c-.3203-.0078-.6181-.1679-.7998-.4316l-1.5654-2.2686c-.3135-.4551-.1992-1.0781.2549-1.3916.456-.3135 1.0771-.1992 1.3916.2549l.7822 1.1348.8945-1.1729c.334-.4385.96-.5254 1.4014-.1885.4395.335.5234.962.1885 1.4014l-1.7295 2.2686c-.1895.248-.4834.3935-.7949.3935z"/><g fill="#c19a65"><ellipse cx="36.728" cy="14.699" rx="5.885" ry="7.396" transform="rotate(-26.195 36.727 14.7)"/><path d="M29.6035 50.5029c-.9951 0-1.8574-.7422-1.9824-1.7549-.1348-1.0966.6445-2.0947 1.7402-2.2304 2.9727-.3662 4.7989-1.6875 5.46-2.708.3818-.5899.5752-1.4033.7793-2.2637.0664-.2783.1318-.5537.2031-.8223 1.3604-5.1445 1.544-10.206 1.5459-10.2568.0371-1.1035.9268-1.9668 2.0664-1.9316 1.1035.0371 1.9688.9619 1.9317 2.0664-.0079.2246-.2022 5.5683-1.6768 11.1445-.0625.2363-.1201.4795-.1787.7246-.2608 1.0986-.5567 2.3438-1.3135 3.5127-1.5332 2.3672-4.6465 4.0508-8.3271 4.5049-.083.0097-.1661.0146-.2481.0146z"/></g><g><path fill="#6a462f" d="M41.9477 13.4147h-.01c-9.36 1.82-9.96-4.7-9.99-5.05.65-.84 1.51-1.48 2.54-1.83 0 0 8.1-3.57 11.32 3.99 2.71 6.38 2.41 11.13 2.25 12.46-.03.19-.23.32-.41.25-1.24-.45-5.29-2.03-5.81-3.57l.11-6.25z"/></g><g><path d="M41.9521 67.9756c-.0468 0-.0947-.0029-.1425-.0098-.5469-.0791-.9268-.5849-.8487-1.1318l.462-3.2227c.0156-.1045.0468-.206.0937-.3008l4.6064-9.3291c.4874-1.2597.4327-2.7724-.1865-4.0693l-2.8633-5.998c-.6347-1.3321-.7656-2.8448-.3681-4.2618.956-3.415 2.3681-9.0878 2.4179-10.4121.0391-1.0483-1.6132-2.6753-2.7998-3.4951-.0527-.0371-.1035-.0796-.1484-.126-.0244-.0234-.8535-.7978-2.2314-.5073-1.6631.3545-5.0713 2.4873-9.209 12.7945-.0557.1386-.1416.2636-.251.3642l-2.2627 2.0791c-1.2207 1.1221-2.1348 2.3233-2.7168 3.5703-.3301.709-.5762 1.4336-.7314 2.1514-.2784 1.2803-.2764 2.4521.0039 3.4834.3994 1.4687 1.3799 2.709 2.914 3.6865 2.1817 1.3906 4.7119 1.749 4.7373 1.752.5469.0752.9307.5781.8565 1.125-.0733.5468-.5733.9297-1.1231.8574-.1201-.0166-2.9804-.4131-5.5449-2.0469-1.9668-1.2539-3.2353-2.8848-3.7695-4.8486-.3653-1.3447-.375-2.835-.0293-4.4317.1865-.8623.4805-1.7285.874-2.5732.6924-1.4863 1.7607-2.8984 3.1758-4.1982l2.0967-1.9258c3.4179-8.4458 6.997-13.0918 10.6396-13.8111 2.1485-.4233 3.5576.6787 3.917 1.001.5928.4185 3.6914 2.7246 3.6006 5.1743-.0645 1.7325-1.7061 8.0762-2.4902 10.877-.2666.9512-.1788 1.9668.247 2.8603l2.8633 5.9981c.8565 1.7939.9326 3.8847.21 5.7363l-4.5713 9.2656-.4385 3.0645c-.0723.499-.5.8584-.9893.8584z"/><path d="M32.9375 67.9756c-.5332 0-.9766-.4219-.998-.96l-.3125-7.7324c-.0225-.5518.4072-1.0166.9589-1.0391.5469-.0527 1.0166.4073 1.0391.959l.3125 7.7324c.0225.5518-.4072 1.0166-.959 1.0391-.0137.001-.0273.001-.041.001z"/><path fill="none" stroke="#000" stroke-linecap="round" stroke-linejoin="round" stroke-miterlimit="10" stroke-width="2" d="M38.5577 20.7847c-3.07.59-6.36-1.6-7.59-5.2-.9-2.66-.45-5.4.98-7.22.65-.84 1.51-1.48 2.54-1.83"/><path fill="none" stroke="#000" stroke-linecap="round" stroke-linejoin="round" stroke-miterlimit="10" stroke-width="2" d="M31.9477 8.3547v.01c.03.35.63 6.87 9.99 5.05"/><path fill="none" stroke="#000" stroke-linecap="round" stroke-linejoin="round" stroke-miterlimit="10" stroke-width="2" d="M34.4877 6.5347s8.1-3.57 11.32 3.99c2.71 6.38 2.41 11.13 2.25 12.46-.03.19-.23.32-.41.25-1.24-.45-5.29-2.03-5.81-3.57l.11-6.25v-.01"/><path d="M30.918 50.71c-.71 0-1.4825-.0537-2.3262-.168-.5479-.0742-.9316-.5781-.8574-1.125s.5781-.9326 1.125-.8574c5.6728.7705 7.1758-1.4756 8.6924-4.7285 2.3144-5.7413 1.9228-13.4053 1.9189-13.4825-.0312-.5507.3916-1.0224.9434-1.0527.5371-.0557 1.0224.3906 1.0527.9434.0186.331.4199 8.1894-2.0811 14.3886-1.5068 3.2334-3.3105 6.0821-8.4677 6.0821z"/></g></svg>