<svg xmlns="http://www.w3.org/2000/svg" role="img" viewBox="15.00 9.88 41.88 52.00"><title>1F64E-1F3FE.svg</title><path fill="#92d3f5" d="M17 60.9583v-4c0-4.9941 5.0078-9 10-9q9 7.5 18 0c4.9941 0 10 4.0059 10 9v4"/><path fill="#a57939" d="M24.9365 30.9583c0 9 4.9365 14 11 14 5.9365 0 11.0635-5 11.0635-14a12.1371 12.1371 0 0 0-1-5.0005c-3-2.9995-7-8-7-8-4 3-7 6-13 7.0005 0 0-1.0635.9995-1.0635 6z"/><path d="M46.716 28.74c.03-1.626-7.6646-10.9092-7.716-10.7825-.761 1.8751-10.2252 6.7049-13.1392 7.8271-3.049 1.1741.1017 13.1734.1017 13.1734-4 0-4-6-4-13s4-14 14-14 14 7 14 14 0 13-4 13c.4104-.0973.7137-8.0413.7535-10.218z"/><path fill="none" stroke="#000" stroke-linecap="round" stroke-linejoin="round" stroke-width="2" d="M26 38.9583c-4 0-4-6-4-13s4-14 14-14 14 7 14 14 0 13-4 13m-29 21v-3c0-4.9941 5.0078-9 10-9q9 7.5 18 0c4.9941 0 10 4.0059 10 9v3"/><path fill="none" stroke="#000" stroke-linejoin="round" stroke-width="2" d="M24.9365 30.9583c0 9 4.9365 14 11 14 5.9365 0 11.0635-5 11.0635-14a12.1371 12.1371 0 0 0-1-5.0005c-3-2.9995-7-8-7-8-4 3-7 6-13 7.0005 0 0-1.0635.9995-1.0635 6z"/><path d="M41.873 29.9583a2 2 0 0 1-4 0c0-1.1045 2.0225-2 3.127-2a3.2627 3.2627 0 0 1 .873 2m-7.873 0a2 2 0 0 1-4 0 3.1184 3.1184 0 0 1 1-2c1.1045 0 3 .8955 3 2"/><path fill="none" stroke="#000" stroke-linecap="round" stroke-linejoin="round" stroke-width="2" d="M39 37.9583c-1-2-5-2-6 0"/></svg>