<svg xmlns="http://www.w3.org/2000/svg" role="img" viewBox="5.83 5.45 61.10 61.10"><title>2603.svg</title><circle cx="36" cy="28.11" r="10.75" fill="#fff"/><circle cx="36" cy="51.44" r="13.86" fill="#fff"/><path fill="#d0cfce" d="M36 17.35c7.776 0 7.776 21.51 0 21.51 5.939 0 10.75-4.815 10.75-10.75 0-5.939-4.815-10.75-10.75-10.75z"/><path fill="#d0cfce" d="M36 37.58c8.008 0 8.008 27.72 0 27.72 7.653 0 13.86-6.204 13.86-13.86 0-7.653-6.204-13.86-13.86-13.86z"/><path fill="#3f3f3f" d="M29.47 7.719h13.06v10.64H29.47z"/><g><path fill="none" stroke="#000" stroke-linecap="round" stroke-linejoin="round" stroke-miterlimit="10" stroke-width="1.757" d="M42.59 40.04l21.52-7.12"/><path fill="none" stroke="#000" stroke-linecap="round" stroke-linejoin="round" stroke-miterlimit="10" stroke-width="1.757" d="M57.96 34.95l2.74-7.28"/><circle cx="36" cy="47.93" r="1.757"/><circle cx="36" cy="54.08" r="1.757"/><circle cx="36" cy="60.23" r="1.757"/><circle cx="32.37" cy="25.39" r="1.537"/><circle cx="39.63" cy="25.39" r="1.537"/><path fill="none" stroke="#000" stroke-linecap="round" stroke-linejoin="round" stroke-miterlimit="10" stroke-width="1.581" d="M40.7 31.87c-1.245.924-2.807 1.488-4.477 1.488-1.692 0-3.223-.5413-4.476-1.488"/><path fill="none" stroke="#000" stroke-linecap="round" stroke-linejoin="round" stroke-width="1.757" d="M26.96 18.22h18.08"/><path fill="none" stroke="#000" stroke-linecap="round" stroke-linejoin="round" stroke-width="1.757" d="M29.44 7.537h13.12v10.69H29.44z"/><path fill="none" stroke="#000" stroke-linecap="round" stroke-linejoin="round" stroke-miterlimit="10" stroke-width="1.757" d="M43.42 21.38c1.667 1.801 2.685 4.211 2.685 6.858 0 5.579-4.522 10.1-10.1 10.1s-10.1-4.522-10.1-10.1c0-2.648 1.019-5.059 2.687-6.86"/><path fill="none" stroke="#000" stroke-linecap="round" stroke-linejoin="round" stroke-miterlimit="10" stroke-width="1.757" d="M29.41 40.04L7.894 32.92"/><path fill="none" stroke="#000" stroke-linecap="round" stroke-linejoin="round" stroke-miterlimit="10" stroke-width="1.757" d="M14.04 34.96l-2.74-7.29"/><path fill="none" stroke="#000" stroke-linecap="round" stroke-linejoin="round" stroke-miterlimit="10" stroke-width="1.757" d="M45.82 42.67c2.086 2.33 3.354 5.407 3.354 8.781 0 7.276-5.899 13.17-13.17 13.17s-13.17-5.899-13.17-13.17c0-3.373 1.268-6.45 3.353-8.781"/><path fill="none" stroke="#000" stroke-linecap="round" stroke-linejoin="round" stroke-width="2" d="M9.213 42.346l5.393 5.394"/><path fill="none" stroke="#000" stroke-linecap="round" stroke-linejoin="round" stroke-width="2" d="M15.43 43.589l-7.124 2.754"/><path fill="none" stroke="#000" stroke-linecap="round" stroke-linejoin="round" stroke-width="2" d="M10.867 48.651l2.001-7.37"/><path fill="none" stroke="#000" stroke-linecap="round" stroke-linejoin="round" stroke-width="2" d="M16.451 16.807l5.393 5.394"/><path fill="none" stroke="#000" stroke-linecap="round" stroke-linejoin="round" stroke-width="2" d="M22.667 18.05l-7.123 2.754"/><path fill="none" stroke="#000" stroke-linecap="round" stroke-linejoin="round" stroke-width="2" d="M18.105 23.112l2.001-7.371"/><path fill="none" stroke="#000" stroke-linecap="round" stroke-linejoin="round" stroke-width="2" d="M51.319 8.747l5.393 5.393"/><path fill="none" stroke="#000" stroke-linecap="round" stroke-linejoin="round" stroke-width="2" d="M57.535 9.989l-7.123 2.754"/><path fill="none" stroke="#000" stroke-linecap="round" stroke-linejoin="round" stroke-width="2" d="M52.973 15.052l2.001-7.371"/><path fill="none" stroke="#000" stroke-linecap="round" stroke-linejoin="round" stroke-width="2" d="M58.654 42.075l5.394 5.393"/><path fill="none" stroke="#000" stroke-linecap="round" stroke-linejoin="round" stroke-width="2" d="M64.871 43.318l-7.123 2.754"/><path fill="none" stroke="#000" stroke-linecap="round" stroke-linejoin="round" stroke-width="2" d="M60.309 48.38l2.001-7.371"/></g></svg>