<svg xmlns="http://www.w3.org/2000/svg" role="img" viewBox="9.21 5.71 53.45 60.45"><title>E062.svg</title><path fill="#000" stroke="#000" stroke-linejoin="round" stroke-width="2.25" d="M37.9 21.38c2.481 0 4.867.9047 6.72 2.547.4647.4131 1.177.3691 1.588-.09506.4125-.4653.3697-1.176-.09506-1.588-2.266-2.008-5.182-3.114-8.212-3.114-6.823 0-12.38 5.552-12.38 12.38v9c0 6.823 5.552 12.38 12.38 12.38 3.031 0 5.948-1.106 8.212-3.114.4647-.412.5076-1.123.09506-1.588-.412-.4642-1.124-.5086-1.588-.09506-1.852 1.643-4.239 2.547-6.72 2.547-5.582 0-10.12-4.543-10.12-10.12v-9c0-5.582 4.543-10.12 10.12-10.12z"/><path fill="#92d3f5" stroke="#92d3f5" d="M35.02 8.261c.6041-.3484 1.348-.3484 1.952 0l22.56 13.02c.6041.3484.9759.9925.9759 1.69v26.05c0 .6978-.3718 1.342-.9759 1.69l-22.56 13.02c-.6041.3484-1.348.3484-1.952 0l-22.56-13.02c-.604-.3484-.9759-.9925-.9759-1.69v-26.05c0-.6978.3719-1.342.9759-1.69z"/><path fill="#1e50a0" stroke="#1e50a0" stroke-linejoin="bevel" stroke-width="2" d="M12.47 50.71l48.04-27.74v26.05l-.9759 1.69-22.56 13.02h-1.952z"/><path fill="#61b2e4" stroke="#61b2e4" stroke-linejoin="bevel" stroke-width="2" d="M12.47 50.71l48.04-27.74v26.05l-.9759 1.69-22.56 13.02h-1.952z"/><path fill="#61b2e4" stroke="#61b2e4" stroke-width="2" d="M60.51 22.98L36.49 36.85 59.18 48.4c0-.9954 1.337-1.317 1.337-2.228v-23.19"/><path fill="#fff" stroke="#fff" stroke-linejoin="round" stroke-width="2.25" d="M37.9 21.38c2.481 0 4.867.9047 6.72 2.547.4647.4131 1.177.3691 1.588-.09506.4125-.4653.3697-1.176-.09506-1.588-2.266-2.008-5.182-3.114-8.212-3.114-6.823 0-12.38 5.552-12.38 12.38v9c0 6.823 5.552 12.38 12.38 12.38 3.031 0 5.948-1.106 8.212-3.114.4647-.412.5076-1.123.09506-1.588-.412-.4642-1.124-.5086-1.588-.09506-1.852 1.643-4.239 2.547-6.72 2.547-5.582 0-10.12-4.543-10.12-10.12v-9c0-5.582 4.543-10.12 10.12-10.12z"/><g fill="none"><path stroke="#000" stroke-width="2" d="M35.02 8.261c.6041-.3484 1.348-.3484 1.952 0l22.56 13.02c.6041.3484.9759.9925.9759 1.69v26.05c0 .6978-.3718 1.342-.9759 1.69l-22.56 13.02c-.6041.3484-1.348.3484-1.952 0l-22.56-13.02c-.604-.3484-.9759-.9925-.9759-1.69v-26.05c0-.6978.3719-1.342.9759-1.69z"/></g></svg>