<svg xmlns="http://www.w3.org/2000/svg" role="img" viewBox="9.48 17.36 52.91 39.78"><title>1FABA.svg</title><path fill="#a57939" d="M11.5905 31.688c0-6.7958 10.9285-12.3048 24.41-12.3048s24.41 5.509 24.41 12.3048v1.0556c0 5.6918-2.0093 12.49-5.0625 16.3445C52.2593 52.9859 45.7545 55.242 36 55.242s-15.8538-1.8262-19.347-6.1539c-3.0884-3.8263-5.0625-9.6808-5.0625-16.3445V31.688z"/><path fill="#6a462f" d="M56.616 47.215c0 2.1079-7.3333 8.027-17.6307 8.027S20.34 53.5331 20.34 51.4252s7.4581.6442 19.3909-1.3738c10.1535-1.7171 16.8851-4.9443 16.8851-2.8364z"/><path fill="#fff" d="M30.1896 39.9811c-.5807-1.2291-.8903-2.6807-.8903-4.2194 0-3.2033 1.3258-6.5034 3.4936-8.1002.842-.629 1.8194-.9968 2.8936-.9968 1.5291 0 2.8646.7452 3.9098 1.9258 1.5581 1.7613 2.4871 4.5001 2.4871 7.1711 0 1.5775-.329 3.0678-.9484 4.3259"/><path fill="#fff" d="M22.0701 36.8553c-.3774-1.0452-.571-2.2065-.571-3.4259 0-4.4614 2.5646-9.097 6.3969-9.097 2.071 0 3.7743 1.3645 4.8969 3.3291l-3.628 12.4261-7.0948-3.2323z"/><path fill="#fff" d="M48.0352 38.065l.0097-.0097c2.7968-3.1646 3.9581-7.8486 1.4033-10.4131-2.4097-2.4097-6.7066-1.5097-9.8518.9484l.5354 11.497 7.9035-2.0226z"/><path fill="#d0cfce" d="M31.1051 25.573c-5.0101 4.9391-5.1766 10.2623-3.8755 13.721l3.6002 1.0064-1.2569-5.7734 2.9144-6.5852-1.3822-2.3688zm6.8275 2.2529c2.8534 3.1015-.3711 12.4745-.3711 12.4745l3.2281-.3812 1.0281-5.5714-1.3209-4.1974-2.5642-2.3245zm3.8851 12.2617l5.4053-1.5099 3.546-6.0577-.9593-3.0805c-.9535 7.4157-7.7263 7.606-7.7263 7.606l-.2657 3.0421z"/><g><path fill="none" stroke="#000" stroke-linecap="round" stroke-linejoin="round" stroke-width="2" d="M52.3244 33.688c0 3.8911-7.3087 7.0454-16.3244 7.0454s-16.3244-3.1543-16.3244-7.0454m33.6259 8.8407c-1.5841 2.241-5.687 4.008-10.885 4.6863"/><path fill="none" stroke="#000" stroke-linecap="round" stroke-linejoin="round" stroke-width="2" d="M11.5905 31.688c0-6.7958 10.9285-12.3048 24.41-12.3048s24.41 5.509 24.41 12.3048v1.0556c0 5.6918-2.0093 12.49-5.0625 16.3445C52.2593 52.9859 45.7545 55.242 36 55.242s-15.8538-1.8262-19.347-6.1539c-3.0884-3.8263-5.0625-9.6808-5.0625-16.3445V31.688z"/><path fill="none" stroke="#000" stroke-linecap="round" stroke-linejoin="round" stroke-width="2" d="M30.1896 39.9811c-.5807-1.2291-.8903-2.6807-.8903-4.2194 0-3.2033 1.3258-6.5034 3.4936-8.1002.842-.629 1.8194-.9968 2.8936-.9968 1.5291 0 2.8646.7452 3.9098 1.9258 1.5581 1.7613 2.4871 4.5001 2.4871 7.1711 0 1.5775-.329 3.0678-.9484 4.3259"/><path fill="none" stroke="#000" stroke-linecap="round" stroke-linejoin="round" stroke-width="2" d="M22.2547 37.3126c-.3774-1.0452-.7556-2.6638-.7556-3.8832 0-4.4614 2.5646-9.097 6.3969-9.097 2.071 0 3.7743 1.3645 4.8969 3.3291"/><path fill="none" stroke="#000" stroke-linecap="round" stroke-linejoin="round" stroke-width="2" d="M47.859 38.4898c2.7968-3.1646 4.144-8.2831 1.5891-10.8477-2.4097-2.4097-6.7066-1.5097-9.8518.9484"/></g></svg>