<svg xmlns="http://www.w3.org/2000/svg" role="img" viewBox="5.84 5.84 60.19 60.19"><title>1F6DE.svg</title><circle cx="36" cy="36" r="21.298" fill="#fff"/><path fill="#3f3f3f" d="M36 8.0712C20.5754 8.0712 8.0712 20.5754 8.0712 36S20.5754 63.9288 36 63.9288 63.9288 51.4246 63.9288 36 51.4246 8.0712 36 8.0712zm0 48.8445c-11.5514 0-20.9156-9.3643-20.9156-20.9156S24.4486 15.0844 36 15.0844 56.9156 24.4486 56.9156 36 47.5513 56.9156 36 56.9156z"/><path fill="#3f3f3f" d="M36 29.2437c-3.7314 0-6.7562 3.0249-6.7562 6.7563S32.2686 42.7562 36 42.7562 42.7562 39.7314 42.7562 36 39.7314 29.2437 36 29.2437zM36 39c-1.6569 0-3-1.3431-3-3s1.3431-3 3-3 3 1.3431 3 3-1.3431 3-3 3z"/><g fill="none" stroke="#000" stroke-miterlimit="10" stroke-width="2"><circle cx="36" cy="36" r="27.929"/><circle cx="36" cy="36" r="21.298"/><path stroke-linecap="round" d="M21.032 50.968l10.191-10.191m10.255 15.669l-3.729-13.92m18.697-1.048l-13.92-3.729m8.442-16.717L40.777 31.223M30.521 15.554l3.731 13.921m-18.698 1.046l13.919 3.73"/><circle cx="36" cy="36" r="6.756"/><circle cx="36" cy="36" r="3"/></g></svg>