<svg xmlns="http://www.w3.org/2000/svg" role="img" viewBox="5.71 14.34 60.45 43.20"><title>1F449-1F3FF.svg</title><g fill="#6a462f" stroke="#6a462f"><path d="M26.3028 55.2881c-11.975 0-18.3906-7.1612-18.3906-16.2494s5.9358-19.2913 31.1527-16.6171M25.241 55.495h12.001m.2929-6.9928c1.9313.081 3.4313 1.7123 3.3502 3.6436-.081 1.9313-1.7123 3.4313-3.6436 3.3502m.5263-13.9908c1.9313.081 3.4313 1.7123 3.3502 3.6436-.081 1.9313-1.7123 3.4313-3.6436 3.3502"/><path d="M37.9016 41.5093c1.9268.155 3.3631 1.8426 3.2081 3.7694-.155 1.9268-1.8426 3.3631-3.7694 3.2081m.9058-14.0191c1.929.1237 3.3925 1.7878 3.2688 3.7168s-1.7878 3.3925-3.7168 3.2688m-8.8563-18.4989c7.6195-5.8672 10.6867-6.7449 12.0296-5.3546 1.3429 1.3904-.7837 5.6942-2.1741 7.0371m21.8211 2.8308c1.933 0 3.5 1.567 3.5 3.5s-1.567 3.5-3.5 3.5m-22.3354.0003h22.335m0-7h-27.79m5.844-2.961l2.214-1.958m-7.1832-3.2675c-2.1439 1.9526-5.1677 3.3734-9.5218 3.3013m11.841-5.0688l-2.38 1.821"/><path d="M33.203 34.578l1.967-7.063h25.783v6.953z"/><path d="M38.283 34.577v20.921H26.057V34.577z"/><path d="M35.062 27.468l.995-2.656 3.186.509-2.93 2.164z"/></g><g fill="none" stroke="#000" stroke-linecap="round" stroke-linejoin="round" stroke-miterlimit="10" stroke-width="2"><path d="M24.3679 55.4945c-9.0883 0-16.4558-7.3675-16.4558-16.4558s7.3675-16.4558 16.4558-16.4558m.8731 32.9121h12.001m.2929-6.9928c1.9313.081 3.4313 1.7123 3.3502 3.6436-.081 1.9313-1.7123 3.4313-3.6436 3.3502m.5263-13.9908c1.9313.081 3.4313 1.7123 3.3502 3.6436-.081 1.9313-1.7123 3.4313-3.6436 3.3502"/><path d="M37.9016 41.5093c1.9268.155 3.3631 1.8426 3.2081 3.7694-.155 1.9268-1.8426 3.3631-3.7694 3.2081m.9058-14.0191c1.929.1237 3.3925 1.7878 3.2688 3.7168s-1.7878 3.3925-3.7168 3.2688m-1.7757-23.9394c1.3904-1.3429 3.6061-1.3044 4.949.086 1.3429 1.3904 1.3044 3.6061-.086 4.949m19.733 4.9188c1.933 0 3.5 1.567 3.5 3.5s-1.567 3.5-3.5 3.5m-22.3354.0003h22.335m0-7h-27.79m5.844-2.961l2.214-1.958m-7.1832-3.2675c-2.1439 1.9526-5.1677 3.3734-9.5218 3.3013m11.841-5.0688l-2.38 1.821"/></g></svg>