<svg xmlns="http://www.w3.org/2000/svg" role="img" viewBox="12.60 16.73 46.67 42.42"><title>1F44A-1F3FD.svg</title><path fill="none" d="M51 47.42V33.14"/><g fill="#c19a65"><path d="M42.03 47.56c-.3312 2.471-2.599 7.032-5.057 6.7-.293-.03821-.6495-.1401-1.045-.293.8407-3.095 5.477-7.923 6.114-9.579l-.01274 1.987c.05095.3949.05095.8025 0 1.185zm-8.84-23.47l-.01274 1.223H33.19c.05095-.4204.05095-.828 0-1.223zm8.917-1.146v1.172c.05095-.3949.05095-.8025 0-1.172z"/><path d="M56.86 28.69c-.2038-.1529-1.745-.3482-1.745-.3482l-3.264-.01274c-.5987-.2802-.8247-1.55-.8247-4.288.3312-2.471-1.401-4.726-3.86-5.057-8.881 2.622-2.133 1.723-8.917.08917-9.376 2.498-1.771 2.843-8.917 1.185-9.755.1624-1.828 6.409-9.006 1.274-2.458-.3312-4.726 1.401-5.044 3.86-.06369.3949-.06369.8025 0 1.197h-.03821l.03821 10.97c-.3312 2.458 1.401 4.726 3.86 5.057 6.352-.265 5.107-9.398 5.057 1.223-.3312 2.458 1.401 4.726 3.86 5.057 4.281-2.589 4.384 6.516 7.599 8.173.8025 2.051 10.28-.168 11.56-.1043 4.928 2.479 12.18-2.03 10.32-4.553.05095-.3949.05095-8.165 0-8.56.1783-2.076 1.185-13.71-.6751-15.16z"/><path d="M32.48 46.77c-.293.5095-.7006.9426-1.172 1.287.2165-.4331.5987-.8789 1.172-1.287zm.65-5.24c.03821.8789.02548 2.879-.01274 3.401z"/><path d="M32.48 46.77c-.293.5095-.7006.9426-1.172 1.287.2165-.4331.5987-.8789 1.172-1.287zm.64-1.84l.01274-3.401c.03821.8789.02548 2.879-.01274 3.401zm.07-19.62h-.01274l.01274-1.223c.05095.3949.05095.8025 0 1.223zm8.92-1.2v-1.172c.05095.3694.05095.777 0 1.172zm-2.94 32.7c-2.577 0-9.977 4.548-8.467-7.881zm18.14-23.29c0-1.9 0-4.118-2.011-4.118z"/></g><g fill="none" stroke="#000" stroke-linecap="round" stroke-linejoin="round" stroke-width="2"><path d="M41.94 37.24v7.074c-.3346 2.512 1.428 4.82 3.936 5.156 2.509.3352 4.813-1.43 5.148-3.942a4.59525 4.59525 0 0 0 0-1.213l-.00052-20.48c.3346-2.512-1.428-4.82-3.936-5.156s-4.813 1.43-5.148 3.942v1.301c.3346-2.512-1.428-4.82-3.936-5.156s-4.813 1.43-5.148 3.942v2.427c.3346-2.512-1.428-4.82-3.936-5.156s-4.813 1.43-5.148 3.942c-.02619.8746-.02488 1.613-.08098 2.513.3346-2.512-1.428-4.82-3.936-5.156s-4.813 1.43-5.148 3.942c-.0536.4028-.0536.8107-.0201 1.214l.02063 11.19c-.3346 2.512 1.428 4.82 3.936 5.156 2.509.3352 4.813-1.43 5.148-3.942a4.59525 4.59525 0 0 0 0-1.213v-1.341l.04022-3.517-.04023 11.27c-.3346 2.512 1.428 4.82 3.936 5.156s4.813-1.43 5.148-3.942c.0536-.4028.0536-3.548 0-3.951v-5.012l-.04075-4.248.04075 14.6c-.3346 2.512 1.428 4.82 3.936 5.156s4.813-1.43 5.148-3.942a4.59525 4.59525 0 0 0 0-1.213l.08046-15.82zm15.49 14.84c-.2117 2.896-2.598 5.149-5.497 5.19h-12.98m18.477-5.19V33.52"/><path stroke-miterlimit="10" d="M38.95 57.27c-2.625 0-7.445.6149-7.445-3.105M57.43 33.52c0-1.938 0-4.201-2.049-4.201"/></g></svg>