<svg xmlns="http://www.w3.org/2000/svg" role="img" viewBox="2.72 3.72 66.43 59.43"><title>1F370.svg</title><path fill="#fff" d="M57.5367 18.0513l-16.5406 2.5102-2.0738.4311L7 26c-1.1045 0-2 .8965-2 2v12h1c2.7617 0 5-2.2383 5-4.999S13.2383 30 16 30s5 2.2393 5 5.001S23.2383 40 26 40s5-2.2383 5-4.999S33.2383 30 36 30s5 2.2393 5 5.001S43.2383 40 46 40s5-2.2383 5-4.999S53.2383 30 56 30s5 2.2393 5 5.001S63.2383 40 66 40h1V28c0-4.7112-3.2599-8.6632-7.647-9.7215-.4344-.1048-1.3618-.1812-1.8163-.2272"/><circle cx="49.5" cy="18" r="5" fill="#ea5a47"/><path fill="#fcea2b" d="M67 39v20c0 1.1055-.8955 2-2 2H7c-1.1045 0-2-.8945-2-2V39"/><path fill="#fcea2b" d="M67 40h-1c-2.7607 0-5-2.2383-5-5s-2.2393-5-5-5-5 2.2383-5 5-2.2393 5-5 5-5-2.2383-5-5-2.2393-5-5-5-5 2.2383-5 5-2.2393 5-5 5-5-2.2383-5-5-2.2393-5-5-5-5 2.2383-5 5-2.2393 5-5 5H5"/><g fill="none" stroke="#000" stroke-linecap="round" stroke-linejoin="round" stroke-width="2"><path d="M67 28v31c0 1.1055-.8955 2-2 2H7c-1.1045 0-2-.8945-2-2V28c0-1.1035.8955-2 2-2l33.9961-5.4385m17.0225-2.5102C63.0625 18.5615 67 22.8223 67 28"/><path d="M5 40h1c2.7617 0 5-2.2383 5-4.999S13.2383 30 16 30s5 2.2393 5 5.001S23.2383 40 26 40s5-2.2383 5-4.999S33.2383 30 36 30s5 2.2393 5 5.001S43.2383 40 46 40s5-2.2383 5-4.999S53.2383 30 56 30s5 2.2393 5 5.001S63.2383 40 66 40h1M5 48h62M5 52h62"/><circle cx="49.5" cy="18" r="5"/><path d="M49.5 16c0-5.5229 4.4766-10 10-10"/></g></svg>