<svg xmlns="http://www.w3.org/2000/svg" role="img" viewBox="10.10 9.10 52.05 53.17"><title>1F44D-1F3FC.svg</title><path fill="#debb90" stroke="#debb90" d="M37.088 11.232l-2.922.645L19 29.21l-7.333 13.059 1.999 11.274 12.938 7.07 9.625-.041 14.042.208 2.395-1.57.75-3.833-.75-1.584 3.584-.083 1.333-1.667.833-2.333-1.583-3 1.583-.667 1.917-2.666-.917-2.75-2.5-1.167 1.167-2.167.167-3.416-2.584-1.5-13.166-.5-.834-.667-.854-.597h-9.125l.063-1.736 3.916-9.584 1.667-4.583z"/><g fill="none" stroke="#000" stroke-width="2"><path stroke-linecap="round" stroke-linejoin="round" d="M35.236 59.6006h-9c-8.321 0-14-6.681-14-15 .0204-4.7991 1.7993-9.4241 5-13m17.389 0h-4.389l7-18c.811-2.084-2.79-3.8-5-1l-15 19m20.212 3.5c.1527 2.0638 1.9342 3.6226 4 3.5h13c1.933.2578 3.709-1.1001 3.9669-3.0331s-1.1001-3.709-3.0331-3.9669a3.53363 3.53363 0 0 0-.9337 0h-13c-2.0659-.1226-3.8474 1.4362-4.0001 3.5zm.857 21.336c.1527 2.0638 1.9342 3.6226 4 3.5h7c1.933.2578 3.709-1.1001 3.9669-3.0331s-1.1001-3.709-3.0331-3.9669a3.53363 3.53363 0 0 0-.9337 0h-7c-2.0659-.1226-3.8474 1.4362-4.0001 3.5zm-5.069-14c.1527 2.0638 1.9342 3.6226 4 3.5h19c1.933.2578 3.709-1.1001 3.9669-3.0331s-1.1001-3.709-3.0331-3.9669a3.53363 3.53363 0 0 0-.9337 0h-19c-2.0659-.1226-3.8474 1.4362-4.0001 3.5z"/><path stroke-linecap="round" stroke-linejoin="round" d="M35.236 49.4366c.1527 2.0638 1.9342 3.6226 4 3.5h15c1.933.2578 3.709-1.1001 3.9669-3.0331s-1.1001-3.709-3.0331-3.9669a3.53363 3.53363 0 0 0-.9337 0h-15c-2.0659-.1226-3.8474 1.4362-4.0001 3.5z"/><path stroke-miterlimit="10" d="M14.136 36.2626a19.45696 19.45696 0 0 0-1.906 7.839c0 8.56 4.625 15.5 15.125 15.5"/></g></svg>