<svg xmlns="http://www.w3.org/2000/svg" role="img" viewBox="9.48 3.10 52.91 66.04"><title>1FABC.svg</title><path fill="#b399c8" d="M60.3313 22.6804c-.0733 6.6927-12.4664 13.1075-23.3934 13.352-11.613.2599-24.8213-6.3767-24.9794-13.352-.1-4.4124 5.0419-8.0886 9.7142-11.4291 3.8209-2.7317 8.2526-5.9002 14.4722-5.8879 6.47.0128 11.5456 2.9314 15.7938 6.1522 4.9387 3.7443 8.4346 7.3242 8.3925 11.1648z"/><path fill="#8967aa" d="M60.4614 22.7634c-.0671 6.2695-10.9634 12.2708-21.3231 13.2096 8.9852-1.9111 17.1991-7.2084 17.2662-12.6397.0671-3.8555-3.4532-7.4093-8.3817-11.1643C43.7648 8.9503 38.7024 6.0335 32.2316 6h-.5028c1.4081-.3352 2.8833-.5699 4.526-.5699 6.4707 0 11.5668 2.9168 15.8248 6.1688 4.9284 3.7216 8.4153 7.3088 8.3817 11.1645z"/><path fill="none" stroke="#fff" stroke-linecap="round" stroke-linejoin="round" stroke-width="2" d="M24.4051 29.593c-2.8436-.8647-5.3382-2.395-7.2756-4.5374m11.9647 6.1109c-.6542-.0709-1.2126-.2471-1.6273-.5247"/><path d="M28.4217 39.5354c-1.6525 1.9218-3.448 4.6933-3.1126 7.7666.4201 3.8499 3.8533 5.1421 5.2098 9.2927.6992 2.1393.9435 5.3339-1.217 9.8589m14.2764-26.9559c1.6525 1.9218 3.448 4.6933 3.1126 7.7666-.4201 3.8499-3.8533 5.1421-5.2098 9.2927-.6992 2.1393-.9435 5.3339 1.217 9.8589M17.4898 36.3647c-3.118 3.1517-3.4886 5.3113-3.164 6.7461.5667 2.5053 3.3372 3.174 4.6307 6.39.8208 2.0408.608 4.0163.2687 5.4243m35.285-18.7033c3.118 3.1517 3.4886 5.3113 3.164 6.7461-.5667 2.5053-3.3372 3.174-4.6307 6.39-.8208 2.0408-.608 4.0163-.2687 5.4243" fill="none" stroke="#b399c8" stroke-linecap="round" stroke-linejoin="round" stroke-width="3"/><g fill="none" stroke="#000" stroke-width="2"><path stroke-linecap="round" stroke-linejoin="round" d="M30.0078 39.2208c-1.6525 1.9218-3.448 4.6933-3.1126 7.7666.4201 3.8499 3.8533 5.1421 5.2098 9.2927.6992 2.1393.9435 5.3339-1.217 9.8589m10.7326-26.9182c1.6525 1.9218 3.448 4.6933 3.1126 7.7666-.4201 3.8499-3.8533 5.1421-5.2098 9.2927-.6992 2.1393-.9435 5.3339 1.217 9.8589"/><path stroke-miterlimit="10" d="M60.224 22.6804c-.0733 6.6927-12.4664 13.1075-23.3934 13.352-11.613.2599-24.8213-6.3767-24.9794-13.352-.1-4.4124 5.0419-8.0886 9.7142-11.4291 3.8209-2.7317 8.2526-5.9002 14.4722-5.8879 6.47.0128 11.5456 2.9314 15.7938 6.1522 4.9387 3.7443 8.4346 7.3242 8.3925 11.1648z"/><path stroke-linecap="round" stroke-linejoin="round" d="M19.0759 36.0878c-3.118 3.1517-3.4886 5.3113-3.164 6.7461.5667 2.5053 3.3372 3.174 4.6307 6.39.8208 2.0408.608 4.0163.2687 5.4243m32.1128-18.7033c3.118 3.1517 3.4886 5.3113 3.164 6.7461-.5667 2.5053-3.3372 3.174-4.6307 6.39-.8208 2.0408-.608 4.0163-.2687 5.4243"/></g></svg>