<svg xmlns="http://www.w3.org/2000/svg" role="img" viewBox="8.97 18.72 53.56 35.31"><title>1F4B7.svg</title><path fill="#fff" d="M10.058 19.946h51.553v32.877H10.058z"/><path fill="#b399c8" d="M34.375 19.884h22.563v33.125H34.375z"/><path fill="#d0cfce" d="M36.5686 21.8042v29.2855c0 .1053-.02.2011-.05.2969-.13.383-.51.6608-.95.6608h-15.34c-.44 0-.82-.2778-.95-.6608-.03-.0958-.05-.1915-.05-.2969V21.8042c0-.1053.02-.2011.05-.2969.13-.3831.51-.6608.95-.6608h15.34c.44 0 .82.2777.95.6608.03.0958.05.1916.05.2969z"/><g fill="none" stroke="#000" stroke-linecap="round" stroke-linejoin="round" stroke-width="2"><path d="M41.7094 20.8465h17.8015c.5523 0 1 .4477 1 1v29.2008c0 .5523-.4477 1-1 1H41.7094m-5.1408-30.2431v29.2855c0 .1053-.02.2011-.05.2969-.13.383-.51.6608-.95.6608h-15.34c-.44 0-.82-.2778-.95-.6608-.03-.0958-.05-.1915-.05-.2969V21.8042c0-.1053.02-.2011.05-.2969.13-.3831.51-.6608.95-.6608h15.34c.44 0 .82.2777.95.6608.03.0958.05.1916.05.2969zM13.75 52.0473h-1.609c-.5523 0-1-.4477-1-1V21.8465c0-.5523.4477-1 1-1h1.609M25.413 36.437h1.778"/><path d="M30.0464 39.9502H26.302v-5.1343c0-1.034.8382-1.8722 1.8722-1.8722h0c.9693 0 1.7666.7367 1.8625 1.6807m23.1998-1.6807h0c-1.0579 0-1.9155-.8576-1.9155-1.9155v-3.1689c0-1.0579.8576-1.9156 1.9155-1.9156h0c1.058 0 1.9156.8577 1.9156 1.9156v3.1689c0 1.0579-.8576 1.9155-1.9156 1.9155zm-9.2827-5.2831c.2005-.9798 1.0674-1.7169 2.1065-1.7169h0c.5937 0 1.1313.2407 1.5204.6298.6053.6053.5494 1.6111-.0185 2.2515l-3.6521 4.1187h4.3004"/></g></svg>