<svg xmlns="http://www.w3.org/2000/svg" role="img" viewBox="2.72 2.72 66.44 66.56"><title>1F305.svg</title><path fill="#61b2e4" d="M4 47.292h64v20.787H4z"/><path fill="#e27022" d="M4 4.079h64v43.213H4z"/><path fill="#f4aa41" d="M68 4.079h-8l-16 31 4 3 17-20 3-3.231M4 17.641l2.019 1.913L24.55 38.145l3.75-3.308L9 4.079H4v13.562zM30.879 4.079l2.469 28.375 4.983.412 3.749-25.98.486-2.807M68 34.719l-21.932 6.999.707 4.95L68 44.947M4 34.899l21.933 6.999-.707 4.95L4 45.127"/><path fill="#fcea2b" d="M21.48 47.2923a15.6793 15.6793 0 1 1 29.04.0006"/><path fill="#fff" d="M67.964 24.049L68 47.292H49.932l5.087-10.284 3.622-3.575 1.002-5.65 1.284-2.879 7.037-.855zm-63.927 0L4 47.292h17.48l-3.153-11.213-3.479-3.988.119-3.245-3.894-3.942-7.036-.855z"/><g fill="none" stroke="#000" stroke-linecap="round" stroke-miterlimit="10" stroke-width="2"><path d="M8.48 32.188a7.7528 7.7528 0 0 1 9.8478 4.82M5 24.0262a7.7528 7.7528 0 0 1 9.8478 4.82m39.6276 11.7372a7.7527 7.7527 0 0 1 8.3317-7.127m-4.1659-2.7003a7.7529 7.7529 0 0 1 8.3317-7.1271M5.124 47.293h61.753M20.49 43.9627a15.6793 15.6793 0 1 1 30.7746.2534"/></g></svg>