<svg xmlns="http://www.w3.org/2000/svg" role="img" viewBox="7.67 18.92 56.29 31.04"><title>E011.svg</title><path fill="#92d3f5" d="M45.4984 25.0163a33.6355 33.6355 0 0 0-3.6522.1018 11.7134 11.7134 0 0 0-6.1521 1.7939 1.2523 1.2523 0 0 1-.5877.3008 1.2216 1.2216 0 0 1-.639-.1909 14.775 14.775 0 0 0-6.2841-1.255c-3.3125-.08-6.7515.2835-9.6195 1.9429-3.8016 2.2-6.0438 6.8879-3.6121 10.8918A11.1051 11.1051 0 0 0 21.23 43.207a21.6048 21.6048 0 0 0 6.5791.8253 15.4557 15.4557 0 0 0 8.1509-1.8771 1.5292 1.5292 0 0 1 .8584-.3322 1.564 1.564 0 0 1 .6015.2222 12.2219 12.2219 0 0 0 4.74 1.0915 21.2181 21.2181 0 0 0 9.0651-.95c3.3556-1.2655 6.6136-4.2408 6.6136-8.0656 0-4.1762-3.7449-7.2023-7.4315-8.3417a18.61 18.61 0 0 0-4.9087-.7631z"/><path fill="#61b2e4" d="M51.2255 38.3965a21.2182 21.2182 0 0 1-9.0651.95 12.2192 12.2192 0 0 1-4.74-1.0915 1.5644 1.5644 0 0 0-.6016-.2222 1.5292 1.5292 0 0 0-.8584.3322 15.4554 15.4554 0 0 1-8.1514 1.8771 21.6017 21.6017 0 0 1-6.5791-.8253 11.1051 11.1051 0 0 1-6.2781-4.6054 6.99 6.99 0 0 1-.7388-1.6851 6.7956 6.7956 0 0 0 .7388 5.4752A11.1055 11.1055 0 0 0 21.23 43.207a21.6048 21.6048 0 0 0 6.5791.8253 15.4546 15.4546 0 0 0 8.1509-1.8772 1.5291 1.5291 0 0 1 .8584-.3321 1.5644 1.5644 0 0 1 .6016.2222 12.221 12.221 0 0 0 4.74 1.0915 21.2182 21.2182 0 0 0 9.0651-.95c3.3556-1.2656 6.6136-4.2408 6.6136-8.0656a6.8075 6.8075 0 0 0-.2785-1.9005c-.8495 2.9049-3.5556 5.1278-6.3347 6.1759z"/><g><path fill="none" stroke="#000" stroke-miterlimit="10" stroke-width="2" d="M45.4984 25.0163a33.6355 33.6355 0 0 0-3.6522.1018 11.7134 11.7134 0 0 0-6.1521 1.7939 1.2523 1.2523 0 0 1-.5877.3008 1.2216 1.2216 0 0 1-.639-.1909 14.775 14.775 0 0 0-6.2841-1.255c-3.3125-.08-6.7515.2835-9.6195 1.9429-3.8016 2.2-6.0438 6.8879-3.6121 10.8918A11.1051 11.1051 0 0 0 21.23 43.207a21.6048 21.6048 0 0 0 6.5791.8253 15.4557 15.4557 0 0 0 8.1509-1.8771 1.5292 1.5292 0 0 1 .8584-.3322 1.564 1.564 0 0 1 .6015.2222 12.2219 12.2219 0 0 0 4.74 1.0915 21.2181 21.2181 0 0 0 9.0651-.95c3.3556-1.2655 6.6136-4.2408 6.6136-8.0656 0-4.1762-3.7449-7.2023-7.4315-8.3417a18.61 18.61 0 0 0-4.9087-.7631z"/><path fill="none" stroke="#000" stroke-linecap="round" stroke-linejoin="round" stroke-width="2" d="M35.099 21.477v3.79m1.516 17.466v3.79m-7.964-24.765l.767 3.712m12.635 18.061l.768 3.711M41.547 21l-.768 3.712m-9.845 19.576L30.167 48m18.018-26.799l-1.411 3.518m-21.34 19.667l-1.411 3.517m0-26.048l1.411 3.517m22.119 18.255l1.412 3.518m4.685-25.113l-1.729 3.372M20.54 43.046l-1.729 3.373m32.981-3.866l1.729 3.373M19.569 22.79l1.729 3.372m36.815 7.959h3.79m-52.093.758h3.79m-2.808 5.286l3.371-1.732m-3.14-9.107l3.393 1.689m46 8.15l-3.371-1.732m4.14-8.107l-3.393 1.689M14.38 24.831l2.68 2.68m38.32 13.32l2.68 2.68m0-18.68l-2.68 2.68m-39.32 14.32l-2.68 2.68"/><circle cx="25" cy="37" r="1.25"/><circle cx="32" cy="33" r="1.25"/><circle cx="21" cy="32" r="1.25"/><circle cx="45" cy="37" r="1.25"/><circle cx="52" cy="33" r="1.25"/><circle cx="40" cy="33" r="1.25"/></g></svg>