<svg xmlns="http://www.w3.org/2000/svg" role="img" viewBox="4.15 13.40 63.57 44.82"><title>1F3AD.svg</title><path fill="#3F3F3F" d="M33.6 29.0397c-.28-2.33-1.42-9.24-1.42-9.24-.29-2.37-3.84-4.66-6.16-4.03 0 0-6.15 1.97-7.9 2.44-1.76.47-8.08 1.84-8.08 1.84-2.31.62-4.25 4.37-3.31 6.57 0 0 2.47 6.55 3.39 8.71.69 1.63 3.13 4.58 4.05 6.18 1.95 3.4 6.01 7.46 9.8 6.45l3.95-1.06c3.79-1.02 5.28-6.56 5.26-10.48 0-1.8499.63-5.62.42-7.38zm-17.34 2.3501c-1.07.28-2.11-.13-2.32-.93-.22-.8.47-1.68 1.54-1.97 1.07-.29 2.11.13 2.32.93.22.8-.48 1.68-1.54 1.97zm9.85-2.64c-1.06.28-2.1-.13-2.32-.93-.21-.8.48-1.69 1.55-1.97 1.06-.29 2.1.1299 2.3199.93.2101.8-.4799 1.68-1.5499 1.97zm-2.57 9.69c-2.4.65-3.24 5.31-3.88 2.91-.65-2.4.78-4.8701 3.1801-5.51 2.4-.65 4.87.78 5.5099 3.18.64 2.3999-2.41-1.2201-4.81-.58z"/><path fill="#3F3F3F" d="M21.6693 23.4356c2.1356-.765 4.0226-1.1808 5.0998-.9136 1.2528.3108 2.2244 1.0304 3.1249 2.106l-8.2247-1.1924zm-4.2155 1.1296c-2.232.4053-4.0741.9887-4.8733 1.7587-.9295.8956-1.4112 2.0046-1.6533 3.3863l6.5266-5.145z"/><path fill="#FFF" d="M61.96 28.0497s-6.32-1.37-8.07-1.84c-1.76-.47-7.91-2.45-7.91-2.45-2.32-.62-5.87 1.67-6.16 4.04 0 0-1.14 6.91-1.42 9.24-.21 1.76.42 5.53.42 7.38-.02 3.92 1.47 9.46 5.26 10.48l3.95 1.06c3.79 1.01 7.85-3.05 9.8-6.45.92-1.6 3.36-4.55 4.05-6.18.92-2.16 3.39-8.71 3.39-8.71.94-2.2-1-5.95-3.31-6.57zm-17.82 6.68c.22-.8 1.26-1.22 2.32-.93 1.07.28 1.7599 1.16 1.55 1.96-.22.8-1.26 1.22-2.32.93-1.07-.2799-1.76-1.1599-1.55-1.96zm9.17 11.0201c-.65 2.4-3.11 3.83-5.51 3.18-2.4-.64-3.83-3.11-3.19-5.51.65-2.4 1.48 2.26 3.88 2.9 2.41.65 5.46-2.97 4.82-.57zm4.55-7.35c-.21.8-1.25 1.22-2.32.94-1.06-.29-1.7599-1.17-1.54-1.97.21-.8 1.25-1.22 2.32-.93 1.07.28 1.76 1.16 1.54 1.96z"/><g fill="none" stroke="#000" stroke-linecap="round" stroke-linejoin="round" stroke-miterlimit="10" stroke-width="2"><path d="M27.9197 46.898l-3.9508 1.0585c-3.7855 1.0144-7.852-3.0433-9.7979-6.4451-.9177-1.6042-3.3572-4.5516-4.0536-6.1821-.9213-2.1567-3.3831-8.7075-3.3831-8.7075-.9413-2.2036.9945-5.9547 3.3091-6.5749 0 0 6.3153-1.3686 8.0716-1.8392 1.7562-.4705 7.9098-2.4429 7.9098-2.4429 2.3145-.6202 5.8665 1.6604 6.1531 4.0394 0 0 1.1435 6.9053 1.4241 9.234.212 1.7598-.427 5.5314-.4197 7.3792.0157 3.9189-1.4771 9.4662-5.2626 10.4806z"/><path d="M28.3499 39.0182c.6432 2.4006-2.412-1.2173-4.8126-.574-2.4006.6432-3.2375 5.3039-3.8808 2.9033-.6432-2.4006.7814-4.8681 3.182-5.5113 2.4006-.6433 4.8681.7813 5.5114 3.182z"/><ellipse cx="25.726" cy="27.298" rx="2" ry="1.5" transform="rotate(-14.999 25.727 27.298)"/><path d="M21.6693 23.4356c2.1356-.765 4.0226-1.1808 5.0998-.9136 1.2528.3108 2.2244 1.0304 3.1249 2.106"/><ellipse cx="15.87" cy="29.938" rx="2" ry="1.5" transform="rotate(-14.999 15.87 29.939)"/><path d="M17.4538 24.5652c-2.232.4053-4.0741.9887-4.8733 1.7587-.9295.8956-1.4112 2.0046-1.6533 3.3863M48.031 55.9565l-3.9507-1.0587c-3.7855-1.0143-5.2784-6.5616-5.2627-10.4806.0073-1.8481-.6316-5.6204-.4195-7.3807.2805-2.3284 1.4239-9.2325 1.4239-9.2325.2866-2.379 3.8386-4.6597 6.1532-4.0395 0 0 6.1535 1.9724 7.9099 2.443 1.7561.4706 8.0715 1.8393 8.0715 1.8393 2.3145.6201 4.2503 4.3712 3.309 6.5748 0 0-2.4623 6.5519-3.3837 8.7089-.6963 1.63-3.1355 4.5768-4.0531 6.1807-1.9459 3.402-6.0123 7.4596-9.7978 6.4453z"/><ellipse cx="55.93" cy="37.887" rx="1.5" ry="2" transform="rotate(-75.001 55.932 37.888)"/><path d="M54.3491 32.5124c2.232.4053 4.0741.9887 4.8733 1.7587.9295.8956 1.4112 2.0046 1.6533 3.3863"/><ellipse cx="46.074" cy="35.245" rx="1.5" ry="2" transform="rotate(-75.001 46.075 35.246)"/><path d="M50.1336 31.3828c-2.1356-.765-4.0226-1.1808-5.0998-.9136-1.2528.3108-2.2244 1.0304-3.1249 2.106m2.7052 10.8451c.6432-2.4006 1.4802 2.2601 3.8808 2.9033 2.4006.6433 5.4558-2.9746 4.8125-.574-.6432 2.4006-3.1107 3.8253-5.5113 3.182-2.4006-.6432-3.8252-3.1107-3.182-5.5113z"/></g></svg>