<svg xmlns="http://www.w3.org/2000/svg" role="img" viewBox="4.99 17.74 65.52 40.40"><title>1F688.svg</title><path fill="#d0cfce" d="M68.1967 49H18.769c-6.2907 0-11.4375-4.4743-11.4375-9.9429C7.3315 33.5886 21.0565 20 27.3471 20h40.9844v28.8828a.1273.1273 0 0 1-.1348.1172z"/><path fill="#92d3f5" d="M30.331 38l10.589-9h4.411v9h-15m19 0l10.589-9h4.411v9h-15m-38.9995-1s5-7 10-8a22.7948 22.7948 0 0 1 8 0l-7.569 7.7824z"/><path fill="none" stroke="#ea5a47" stroke-linecap="round" stroke-linejoin="round" stroke-width="2" d="M64.332 43h-52"/><path fill="#3f3f3f" d="M68.331 56h-57l6.235-4h50.765v4z"/><g fill="none" stroke="#000" stroke-linecap="round" stroke-linejoin="round" stroke-width="2"><path d="M68.331 56h-57l6.235-4h50.765v4zm-37-18h14v-8.357m5 8.357h14v-8.357m-36 .357l-7 7h-10"/><path d="M68.1967 49H18.769c-6.2907 0-11.4375-4.4743-11.4375-9.9429h0C7.3315 33.5886 21.0565 20 27.3471 20h40.9844v28.8828a.1273.1273 0 0 1-.1348.1172z"/></g></svg>