<svg xmlns="http://www.w3.org/2000/svg" role="img" viewBox="3.81 14.31 61.75 41.75"><title>1F3E1.svg</title><path fill="#fff" d="M37.075 36.053h26.884v18.114H37.075z"/><path fill="#ea5a47" stroke="#ea5a47" stroke-linecap="round" stroke-linejoin="round" stroke-width="2" d="M49.735 23.2L37.35 36h25.4L49.735 23.2z"/><path fill="#ea5a47" d="M46.3648 26.1096L40.4 32.0595v-7.5733c0-.9313.7665-1.4862 1.6978-1.4862h3.2923c.9313 0 1.0829 1.1231 1.0829 2.0544l-.1081 1.0552z"/><path fill="#a57939" d="M43 42h6v12h-6z"/><path fill="#92d3f5" d="M54 42h6v5h-6z"/><path fill="#b1cc33" d="M41.0059 28.3393c0-3.3123-3.4447-6.0025-7.6937-6.0025a9.8488 9.8488 0 0 0-1.0622.0662c-1.7995-3.4553-5.7065-5.8554-10.2499-5.8554-6.2478 0-11.3122 4.5286-11.3122 10.1144.0012.3692.0247.738.0704 1.1043C7.9656 28.6665 6 30.8102 6 33.3136c0 3.3123 3.4446 6.0025 7.6936 6.0025 1.6151.0139 3.2056-.4022 4.6137-1.207 1.8177 1.4766 4.7264 2.4385 8.0154 2.4385 5.5105 0 9.9776-2.6875 9.9776-6.0025a3.67787 3.67787 0 0 0-.0612-.6531c2.7966-.9016 4.7668-3.0467 4.7668-5.5527z"/><g fill="none" stroke="#000" stroke-linecap="round" stroke-width="2"><path stroke-linejoin="round" d="M46 27l3.735-4L63.5 35.098V54H36.75V41.548"/><path stroke-linejoin="round" d="M43 42h6v12h-6zm11 0h6v5h-6zM43 24h2.5v3m-23 27v-7.173L17.5 42m5.541 4.727l2.844-2.961"/><path stroke-miterlimit="10" d="M41.0059 28.3393c0-3.3123-3.4447-6.0025-7.6937-6.0025a9.8488 9.8488 0 0 0-1.0622.0662c-1.7995-3.4553-5.7065-5.8554-10.2499-5.8554-6.2478 0-11.3122 4.5286-11.3122 10.1144.0012.3692.0247.738.0704 1.1043C7.9656 28.6665 6 30.8102 6 33.3136c0 3.3123 3.4446 6.0025 7.6936 6.0025 1.6151.0139 3.2056-.4022 4.6137-1.207 1.8177 1.4766 4.7264 2.4385 8.0154 2.4385 5.5105 0 9.9776-2.6875 9.9776-6.0025a3.67787 3.67787 0 0 0-.0612-.6531c2.7966-.9016 4.7668-3.0467 4.7668-5.5527z"/><path stroke-linejoin="round" d="M63.5 36h-21"/></g></svg>