<svg xmlns="http://www.w3.org/2000/svg" role="img" viewBox="14.73 -0.52 42.28 59.41"><title>1F9D1-200D-1F373.svg</title><path fill="#FFF" d="M26.2746 20.9035h19.2715v-6.0567c2.209 0 4-1.7908 4-4 0-2.2091-1.791-4-4-4-.8757 0-1.6789.2894-2.3376.7666.3247-.5782.5254-1.2355.5254-1.9459 0-2.2091-1.7908-4-4-4-1.8202 0-3.339 1.2234-3.8235 2.8873-.4845-1.6639-2.0034-2.8873-3.8236-2.8873-2.2091 0-4 1.7909-4 4 0 .7103.2007 1.3677.5254 1.9459-.6587-.4773-1.4619-.7666-2.3376-.7666-2.2092 0-4 1.7909-4 4 0 2.2092 1.7908 4 4 4m28.5733 42.943s2-12.8016-10-12.8016c-3.1919 2.1279-5.9264 3.5984-9 3.5921h.125c-3.0736.0063-5.8082-1.4642-9-3.5921-12 0-10 12.8016-10 12.8016"/><path fill="#D0CFCE" d="M47.7679 7.081c-.9873-.6744-4.0588.3783-4.0588.3783 1.4981-3.7579-1.9342-5.6378-1.9342-5.6378s.7999 3.7291-1.5665 5.7485c-.254.2167-.4339.5065-.4339.8404v12.3027h.6366l.3124.0363h5.3232v-6.0567c2.209 0 4-1.7908 4-4 0-1.5929-.9311-2.9683-2.2788-3.6117l-.0183.3969m-3.4952 37.6615c-3.1699 2.1133-9.076 6.2728-17.3439 0 .3845 5.5358 9.6727 10.6392 19.3119 5.8941l.4192 6.7374h8.1797s1.4331-12.6315-10.5669-12.6315z"/><path d="M45.4255 20.8672c.6529 1.3503 1.1307 2.8478 1.3939 4.4432l-.0644-.361s-3.2903.6195-8.4569-3.7624m-12.1056-.3198c-.6529 1.3503-1.1307 2.8478-1.3939 4.4432l.0644-.361s3.2903.6195 8.457-3.7624" fill="#A57939"/><path fill="#FCEA2B" d="M24.8922 24.8287c-.2094 1.077-.3204 2.202-.3204 3.3595 0 7.8276 5.0765 14.1732 11.3386 14.1732S47.249 36.0158 47.249 28.1882c0-1.0419-.0899-2.0576-.2607-3.0355-3.4698-.2273-6.2888-1.8188-8.6902-4.2855h-4.3876c-2.5871 2.0607-5.5438 3.4683-9.0183 3.9615z"/><g><path fill="none" stroke="#000" stroke-linecap="round" stroke-linejoin="round" stroke-miterlimit="10" stroke-width="2" d="M26.1996 20.8672c-1.0332 2.1368-1.6278 4.6421-1.6278 7.321 0 7.8276 5.0765 14.1732 11.3386 14.1732S47.249 36.0158 47.249 28.1882c0-2.6789-.5946-5.1842-1.6278-7.321"/><path d="M54.9104 57.8273c-.5523 0-1-.4477-1-1v-3c0-4.4516-4.4961-7.8105-8.6519-7.9921-6.205 5.0117-12.4912 5.0117-18.6963 0-4.1557.1816-8.6518 3.5405-8.6518 7.9921v3c0 .5523-.4478 1-1 1-.5523 0-1-.4477-1-1v-3c0-5.3247 5.1401-9.9975 10.9995-10h.0005c.2339 0 .4604.0821.6401.232 5.625 4.6875 11.0947 4.6875 16.7197 0a.99954.99954 0 0 1 .6402-.232h.0005c5.8593.0025 10.9995 4.6753 10.9995 10v3c0 .5523-.4478 1-1 1zM41.9105 26.8274c0 1.1045-.8965 2-2 2s-2-.8955-2-2c0-1.1035.8965-2 2-2s2 .8965 2 2m-8 0c0 1.1045-.8965 2-2 2s-2-.8955-2-2c0-1.1035.8965-2 2-2s2 .8965 2 2m1.9999 10.0024c-1.1519 0-2.3037-.2862-3.4473-.8579-.4941-.2471-.6943-.8477-.4472-1.3418.2465-.4937.8461-.6944 1.3418-.4473 1.7177.8594 3.3876.8594 5.1054 0 .4946-.2471 1.0947-.0464 1.3418.4473.2471.4941.0469 1.0947-.4472 1.3418-1.1436.5717-2.2955.8579-3.4473.8579z"/><path fill="none" stroke="#000" stroke-linecap="round" stroke-linejoin="round" stroke-miterlimit="10" stroke-width="2" d="M26.5622 45.8352s3.6651 10.8583 20.1668 5.0964v5.8753"/><circle cx="28.41" cy="55.827" r="1.5"/><circle cx="43.41" cy="55.827" r="1.5"/><path fill="none" stroke="#000" stroke-linecap="round" stroke-linejoin="round" stroke-miterlimit="10" stroke-width="2" d="M26.1925 20.8672c-.6529 1.3503-1.1307 2.8478-1.3939 4.4432l.0644-.361s3.2903.6195 8.457-3.7624m12.1055-.3198c.6529 1.3503 1.1307 2.8478 1.3939 4.4432l-.0644-.361s-3.2903.6195-8.4569-3.7624m-12.0231-6.34v6.057"/><path fill="none" stroke="#000" stroke-linecap="round" stroke-linejoin="round" stroke-miterlimit="10" stroke-width="2" d="M26.2746 20.9035h19.2715v-6.0567c2.209 0 4-1.7908 4-4 0-2.2091-1.791-4-4-4-.8757 0-1.6789.2894-2.3376.7666.3247-.5782.5254-1.2355.5254-1.9459 0-2.2091-1.7908-4-4-4-1.8202 0-3.339 1.2234-3.8235 2.8873-.4845-1.6639-2.0034-2.8873-3.8236-2.8873-2.2091 0-4 1.7909-4 4 0 .7103.2007 1.3677.5254 1.9459-.6587-.4773-1.4619-.7666-2.3376-.7666-2.2092 0-4 1.7909-4 4 0 2.2092 1.7908 4 4 4"/></g></svg>