<svg xmlns="http://www.w3.org/2000/svg" role="img" viewBox="12.86 7.36 46.52 52.65"><title>1F424.svg</title><path fill="#FCEA2B" stroke="#FCEA2B" stroke-miterlimit="10" stroke-width="2" d="M51.989 51.91C63 43 53.7604 34.196 53.7604 34.196c0-13.0876-10.032-17.4726-15.2722-18.8704-1.9297-.5147-3.9633-.5083-5.88.053-15.4664 4.529-14.2757 18.8174-14.2757 18.8174C10 44 19.4396 51.4671 19.4396 51.4671s16.6068 14.6141 32.5494.4429"/><path fill="#F1B31C" d="M36.7052 38.8074s10.4746-.5149 0 9.2687c0-.0001-10.4746-9.2687 0-9.2687z"/><g><path fill="none" stroke="#000" stroke-linecap="round" stroke-linejoin="round" stroke-miterlimit="10" stroke-width="2" d="M31.396 15.596l-4.428-3.321m7.086 2.214l-1.772-3.764m5.314 4.428l.222-5.757"/><circle cx="28.961" cy="32.425" r="3"/><circle cx="44" cy="32" r="3"/><path fill="none" stroke="#000" stroke-linecap="round" stroke-linejoin="round" stroke-miterlimit="10" stroke-width="2" d="M51.989 51.91C63 43 53.7604 34.196 53.7604 34.196c0-13.0876-10.032-17.4726-15.2722-18.8704-1.9297-.5147-3.9633-.5083-5.88.053-15.4664 4.529-14.2757 18.8174-14.2757 18.8174C10 44 19.4396 51.4671 19.4396 51.4671s16.6068 14.6141 32.5494.4429"/><path fill="none" stroke="#000" stroke-linecap="round" stroke-linejoin="round" stroke-miterlimit="10" stroke-width="2" d="M36.7052 38.8074s10.4746-.5149 0 9.2687c0-.0001-10.4746-9.2687 0-9.2687z"/></g></svg>