<svg xmlns="http://www.w3.org/2000/svg" role="img" viewBox="1.96 3.09 65.58 67.08"><title>2728.svg</title><path fill="#FCEA2B" d="M25.7052 40.1067c.1453.8051.9245 1.4619 1.9675 1.6589l11.9059 2.2495c.5576.1054.564.7031.0064.8085-3.1597.597-9.0176 1.7037-11.9188 2.2519-1.043.1971-1.8155.8529-1.9608 1.6579l-3.1563 17.4924c-.0868.4811-1.0073.4811-1.0942 0l-3.1563-17.4921c-.1453-.8051-.9179-1.461-1.9611-1.6581-2.9014-.5479-8.7594-1.6546-11.9193-2.2516-.5576-.1053-.5576-.7019 0-.8072 3.1601-.597 9.0184-1.7039 11.9197-2.2523 1.0429-.1971 1.172-1.1419 1.3173-1.9469l2.6528-14.0921c.0868-.4811 2.1538-3.594 2.2406-3.1128.9825 5.4443 2.9623 16.4164 3.1566 17.494z"/><path fill="#F1B31C" d="M22.6499 66.2258l1.5818-15.4034C21.4322 46.2039 20.3623 41.4122 19.0589 38l-1.3554 2.1201c-.1349.8046-.8519 1.46-1.8203 1.6571-2.6937.548-8.133 1.6544-11.0668 2.2512-.5177.1053-.5177.7015 0 .8068 2.9338.5967 8.3727 1.7028 11.0664 2.2504.9685.197 2.6859.8525 2.8208 1.6572l2.9305 17.4831c.0806.4809.9353.4809 1.0158-.0001z"/><path fill="#FCEA2B" d="M46.676 19.3048c.1049.5815.6677 1.0558 1.421 1.1981l8.5987 1.6246c.4027.0761.4073.5078.0046.5839-2.282.4312-6.5127 1.2304-8.6081 1.6263-.7533.1423-1.3112.616-1.4161 1.1974l-2.2795 12.6334c-.0627.3475-.7275.3475-.7902 0l-2.2795-12.6332c-.1049-.5815-.6629-1.0552-1.4163-1.1975-2.0955-.3957-6.3263-1.195-8.6084-1.6262-.4027-.0761-.4027-.5069 0-.583 2.2823-.4312 6.5133-1.2306 8.6086-1.6267.7532-.1423.8465-.8247.9514-1.4061l1.7931-10.1776c.0627-.3475 1.6784-2.5957 1.741-2.2481.7095 3.9321 2.1393 11.8564 2.2797 12.6347z"/><path fill="#F1B31C" d="M44.7472 38.1686l.8646-11.1247c-2.0219-3.3355-3.5168-6.7963-4.4581-9.2606l-.2567 1.5312c-.0974.5811-.6153 1.0544-1.3147 1.1968-1.9454.3958-5.8738 1.1948-7.9927 1.6259-.3739.076-.3739.5066 0 .5827 2.1189.431 6.0469 1.2298 7.9924 1.6253.6995.1423 2.2176.6157 2.315 1.1969l2.1164 12.6266c.0583.3473.6756.3473.7338-.0001z"/><path fill="#FCEA2B" d="M56.8824 48.9358c.0862.4637.5487.8419 1.1677.9554l7.0663 1.2955c.3309.0607.3347.4049.0038.4656l-7.074 1.2969c-.619.1135-1.0775.4912-1.1637.9548l-1.8733 10.0742c-.0515.2771-.5978.2771-.6494 0l-1.8733-10.074c-.0862-.4637-.5448-.8414-1.1639-.9549-1.722-.3156-5.1988-.9529-7.0743-1.2967-.3309-.0607-.3309-.4042 0-.4649 1.8755-.3438 5.3525-.9813 7.0745-1.2972.619-.1135.6956-.6577.7818-1.1213l1.4736-8.1159c.0515-.2771 1.3793-2.0699 1.4308-1.7927.583 3.1356 1.758 9.4545 1.8734 10.0752z"/><path fill="#F1B31C" d="M55.2315 63.9782l1.0538-8.8711c-1.6123-2.6598-2.8044-5.4195-3.555-7.3846l-.2047 1.221c-.0777.4634-.4906.8408-1.0484.9543-1.5513.3156-4.6839.9528-6.3736 1.2965-.2982.0606-.2982.404 0 .4646 1.6896.3437 4.822.9807 6.3733 1.2961.5578.1134.9709.491 1.0486.9544l2.1208 10.0688c.0466.277.5388.277.5852 0z"/><g fill="none" stroke="#000" stroke-linecap="round" stroke-linejoin="round" stroke-miterlimit="10" stroke-width="2"><path d="M20 32l2.1418-11.1605.6996 4.1763c.1122.6679 2.3298 13.9055 2.3298 13.9055.2615 1.5604 1.6435 2.8154 3.5205 3.1974L40 44.4198l-11.3161 2.3026c-1.8724.381-3.2513 1.6356-3.5127 3.1963L22.1422 68l-3.029-18.0806c-.2615-1.5607-1.6405-2.8153-3.5131-3.1964L4.2836 44.4205l11.3171-2.3031c1.872-.3812 3.138-2.557 3.3993-4.1174m23.5556-24.5501l1.5469-8.0604.5052 3.0162c.081.4824 1.6827 10.0429 1.6827 10.0429.1889 1.1269 1.1869 2.0334 2.5426 2.3092L57 22.4198l-8.1728 1.663c-1.3523.2752-2.3482 1.1812-2.5369 2.3084l-2.1876 13.0587-2.1876-13.0582c-.1889-1.1272-1.1848-2.0333-2.5372-2.3085l-8.173-1.6629 8.1735-1.6634c1.352-.2753 2.2663-1.8467 2.455-2.9736M53.8482 44.267l1.2335-6.4275.4029 2.4052c.0646.3847 1.3418 8.0084 1.3418 8.0084.1506.8986.9465 1.6215 2.0275 1.8414l6.5126 1.3253-6.5171 1.3261c-1.0783.2194-1.8725.9419-2.023 1.8408L55.0819 65l-1.7445-10.4129c-.1506-.8988-.9448-1.6214-2.0232-1.8409l-6.5174-1.326 6.5177-1.3264c1.0781-.2195 1.8072-1.4726 1.9577-2.3712"/></g></svg>