<svg xmlns="http://www.w3.org/2000/svg" role="img" viewBox="11.38 10.00 49.12 51.87"><title>1F9DB-1F3FC-200D-2642-FE0F.svg</title><path fill="#fcea2b" d="M26 38.0571c-3 0-4-7-4-14 0-6 5-12 14-12s14 6 14 12c0 7-1 14-4 14"/><path fill="#debb90" d="M24.969 31.0571c-.1015 7.999 4.9365 14 11 14 5.9365 0 11.0635-6 11.0635-14 0-5-3-11-3-11-8 0-10 3-16 1 .0005 0-2.9995 5-3.0635 10z"/><path fill="#D22F27" d="M35.65 45.1c-3.4-.1-8.6-5.7-8.6-5.7h-13.6a82.94797 82.94797 0 0 1 4.3 8.4 48.59625 48.59625 0 0 1 2.8 9.9h30.9a48.59625 48.59625 0 0 1 2.8-9.9 82.94797 82.94797 0 0 1 4.3-8.4h-13.9c.1 0-5.5 5.7-9 5.7z"/><path fill="#3F3F3F" d="M17 61v-3.8c0-5 5-9 10-9 6 5 12 5 18 0 5 0 10 4 10 9V61H17z"/><path d="M31.45 61h9c3.6-2.9 5.6-13.5 5.6-13.5-5.7672 5-14.3328 5-20.1 0 0-.1 2 10.5 5.5 13.5z"/><g><path fill="none" stroke="#000" stroke-linecap="round" stroke-linejoin="round" stroke-width="2" d="M26 38.0571c-3 0-4-7-4-14 0-6 5-12 14-12s14 6 14 12c0 7-1 14-4 14"/><path fill="none" stroke="#000" stroke-linejoin="round" stroke-width="2" d="M24.969 31.0571c-.1015 7.999 4.9365 14 11 14 5.9365 0 11.0635-6 11.0635-14 0-5-3-11-3-11-8 0-10 3-16 1 .0005 0-2.9995 5-3.0635 10z"/><path fill="none" stroke="#000" stroke-linejoin="round" stroke-width="2" d="M26.5 39.4H13.4a55.45576 55.45576 0 0 1 4.3 8.4 34.2869 34.2869 0 0 1 1.3 3.8m34-.2c.4-1.2.8-2.4 1.3-3.6a51.12837 51.12837 0 0 1 4.3-8.4H44.7"/><path d="M42 30.1c0 1.1046-.8954 2-2 2s-2-.8954-2-2 .8954-2 2-2c1.1032.0032 1.9968.8968 2 2m-8 0c0 1.1046-.8954 2-2 2s-2-.8954-2-2 .8954-2 2-2c1.1032.0032 1.9968.8968 2 2"/><path fill="none" stroke="#000" stroke-linecap="round" stroke-linejoin="round" stroke-width="2" d="M33 39c1.875-1 4.125-1 6 0"/><path fill="none" stroke="#000" stroke-linecap="round" stroke-linejoin="round" d="M38 38.5c.2408.0816.4748.1819.7.3"/><path fill="none" stroke="#000" stroke-linecap="round" stroke-linejoin="round" stroke-width="2" d="M17 60v-3c0-5 5-9 10-9 6 5 12 5 18 0 5 0 10 4 10 9v3"/><path stroke="#000" stroke-linecap="round" stroke-linejoin="round" d="M34 38.7l.3 2.4.8-2.3-.1-.1zm3.9 0l-.2 2.4-.8-2.3-.1-.1z"/></g></svg>