<svg xmlns="http://www.w3.org/2000/svg" role="img" viewBox="11.12 3.12 47.51 65.13"><title>1F5FD.svg</title><path fill="#92d3f5" d="M16.5981 20.0261c.2385 1.888.5742 4.4455 1.0114 7.4916.3632 2.5311.55 3.6847.9446 3.7248.8178.0831 1.8815-4.52 2.0733-5.3493.4461-1.9284.7298-3.8909.848-5.8667"/><path fill="#61b2e4" d="M13.781 15.056h9.686v4.408h-9.686zm9.5508 14.8153c.5089.07.8658.7737 2.2723 6.4554 1.4457 5.84 1.2648 5.8906 1.8236 6.9854 1.5813 3.0984 3.0307 2.6985 5.6034 6.57 2.2186 3.3391 1.5077 4.1888 2.974 5.16 2.9662 1.9642 7.2971-.5636 12.2657.9579 1.9874.4691 2.0906 1.4083 3.4356 2.9447.9128 1.1351 2.0858 3.1364 2.8077 5.1142.2018.5528-.064 1.1921-.6271 1.3631-2.4852.7551-8.9824-2.2026-18.4919-.543-4.4528.7771-8.1449 2.4-8.9074 1.1731-.8429-1.3566 3.2392-4.0335 2.7288-7.7332-.304-2.2033-2.6284-4.5662-4.0429-7.5645-2.4409-5.1743-3.4515-10.3541-4.7242-15.0509.6506-3.1536 1.7295-5.992 2.8824-5.8323z"/><ellipse cx="41.903" cy="46.206" fill="#92d3f5" rx="4.857" ry="5.806"/><path fill="#f4aa41" d="M16.141 13.3549c-.3347-.7813-.2993-1.672.0963-2.4243.5137-1.0115 1.3778-1.1416 2.6448-1.9243C21.6066 7.3231 22.0213 5.2 22.931 5.4387c.9368.2462 1.0335 2.6385 1.0592 3.2765.0611 1.5111.1668 4.1281-1.7152 5.4653-1.9431 1.3807-5.2823.8836-6.134-.8256z"/><path fill="none" stroke="#92d3f5" stroke-linecap="round" stroke-miterlimit="10" stroke-width="2" d="M41.484 30.529v6.101m10.817-2.26l-4.814 4.314M31.56 34.186l4.314 4.314m-5.212 4.489h3.605m16.022.25h6.101"/><g fill="none" stroke="#000" stroke-linecap="round" stroke-linejoin="round" stroke-width="2"><path d="M13.364 15.056h10.102v4.408H13.364zm2.9185-1.319a3.54268 3.54268 0 0 1-.2317-2.35c.3477-1.1915 1.3361-1.5593 3.1781-2.9133 2.8393-2.0875 3.3071-3.2837 4.0057-3.013.9422.3653.9595 2.8983.53 4.6017a7.43398 7.43398 0 0 1-.7283 1.8207m-6.4586 7.9586c.8754 7.9774 1.7028 11.9615 2.4823 11.9523.68-.0082 1.3236-3.0576 1.9308-9.1481m-1.4193 12.811c.5808 1.9816 1.17 3.9994 2.34 8.04 1.4379 4.9662 1.4817 5.1645 1.7946 5.9219 2.4368 5.899 5.0141 6.542 4.6657 9.6007a43.51457 43.51457 0 0 1-1.4356 5.5629 84.93335 84.93335 0 0 1-.4486 1.47M22.987 29.0992a51.05866 51.05866 0 0 1 2.8724 8.117c1.2757 4.5187.834 4.78 1.8842 6.7294 2.2749 4.2229 5.0484 4.2982 7.0883 8.7932.3357.917.8901 1.7383 1.6151 2.3925 1.3913 1.0323 3.1251 1.4925 4.8452 1.2862 1.9679-.2039 3.2155-1.0839 4.8973-1.342 1.9713-.245 3.9174.6159 5.0622 2.2393 1.0959 1.0032 1.912 3.135 3.4994 7.3575"/><ellipse cx="41.903" cy="46.206" rx="5" ry="6.101"/><path d="M50.289 43.717h6.101m-8.252-4.708l4.813-4.314m-10.833 1.919v-6.101m-7.851 12.954h-3.605m4.693-4.503l-4.314-4.314"/></g></svg>