<svg xmlns="http://www.w3.org/2000/svg" role="img" viewBox="3.11 8.73 65.91 54.16"><title>1F3BF.svg</title><path fill="#92d3f5" d="M13.1459 50.9481c0 2.7722 2.8927 6.0133 6.1177 4.4871l37.927-21.9146c.8035-.4176 1.6385-.0447 2.1156.7843l.4895.7537c.4771.8291.4596 2.6148-.2836 2.9275L20.8246 60.1679c-1.3862.831-3.6104.7012-5.3616.7012-5.6745 0-10.2747-4.4418-10.2747-9.921"/><path fill="#92d3f5" d="M5.1883 50.9481c0-2.2158 1.7814-4.012 3.9788-4.012s3.9788 1.7962 3.9788 4.012"/><path fill="#61b2e4" d="M12.9961 59.3982c2.1208 1.5099 5.8513 2.024 8.1426.5897l37.9959-21.8142c.7597-.3558.7511-1.8552.3191-2.5571l-.1964-.449-.0156.1047-41.0083 23.524s-2.4121 1.3145-5.2373.6019zM9.6372 48.3409c-1.1216 1.959-.2771 4.5512 1.8862 5.7898 0 0 1.8239 1.0541 2.4002-.2086.0788-.4426-.1506-.8947-.5626-1.1331-.9434-.546-1.1558-1.8976-.6901-2.7111"/><path fill="#61b2e4" d="M9.6372 48.3409c.4536-.7922 1.5004-1.0456 2.3381-.5659.8377.4796 1.1492 1.5107.6956 2.3029"/><path fill="#FCEA2B" d="M23.3277 48.0304c-2.201 1.2615-5.0942.3494-6.4621-2.0372-1.3679-2.3866-.6925-5.344 1.5085-6.6055 3.9184-2.2458 6.1114-5.9562 4.0774-9.5049l-5.4873-9.6681s1.4067-2.2395 3.4963-1.8747c.379.0662.7424-.0995.8865-.4554.8069-1.9935 3.9277-9.145 7.1242-3.5679l12.7244 22.2009c.3031.5288.1534 1.184-.3342 1.4635L23.3277 48.0304"/><path fill="#F1B31C" d="M29.36459 22.0142l2.04815-1.1825 9.786 16.94986-2.04815 1.1825z"/><path fill="#9B9B9A" d="M20.552 26.536l-3.5879-6.3214s1.1922-1.989 3.4963-1.8747l.8865-.4554s1.927-5.9618 4.8208-5.6537c0 0 2.9312 1.4284 5.6157 7.8648L20.552 26.536z"/><path fill="#3F3F3F" d="M24.39822 13.41467l2.04815-1.1825 4.8365 8.37706-2.04815 1.1825z"/><g fill="none" stroke="#000" stroke-linecap="round" stroke-linejoin="round" stroke-miterlimit="10" stroke-width="2"><path d="M20.2 59.5163c-1.4043.72-3.0074 1.1774-4.7117 1.1774-5.5228 0-10-4.2873-10-9.576M54.975 39.564L20.141 59.55m-6.9078-8.4323c0 2.6758 2.8154 5.8041 5.9541 4.331l38.9131-22.2773.052.0163c1.4248.4466 2.2684 2.0549 1.927 3.4478l-1.6391.9404M5.4883 51.1177c0-2.1387 1.7338-3.8724 3.8724-3.8724s3.8724 1.7338 3.8724 3.8724M48.214 24.932l13.402-7.682M46.7 30.384l20.112-11.507m-27.521 6.625l25.144-14.419"/><path d="M23.322 48.2532c-2.2017 1.2619-5.0958.3495-6.4642-2.0378s-.6927-5.3457 1.509-6.6076c3.9196-2.2465 6.1133-5.9581 4.0787-9.5079l-5.4891-9.6712s1.4071-2.2402 3.4974-1.8753c.3791.0662.7427-.0996.8868-.4555.8072-1.9941 3.9289-9.1479 7.1264-3.569l12.7285 22.2079c.3032.5289.1535 1.1843-.3343 1.4639L23.322 48.2532M20.545 26.752L31.78 20.31M19.578 38.826l1.803 3.146m1.108-6.333l2.444 4.263m-2.38-9.608l4.256-2.44"/></g></svg>