<svg xmlns="http://www.w3.org/2000/svg" role="img" viewBox="2.72 14.72 66.43 42.43"><title>1F1ED-1F1F7.svg</title><path fill="#1e50a0" d="M5 17h62v38H5z"/><path fill="#d22f27" d="M5 17h62v13H5z"/><path fill="#fff" d="M5 30h62v12H5z"/><path fill="#d22f27" d="M40.5 43.7918A6.7093 6.7093 0 0 0 42.4885 42H40.5z"/><path fill="#fff" d="M37.5 42v2.88a8.4378 8.4378 0 0 0 3-1.0877V42z"/><path fill="#d22f27" d="M34.5 42v2.88a9.3963 9.3963 0 0 0 3 0V42z"/><path fill="#fff" d="M31.5 42v1.7918a8.4378 8.4378 0 0 0 3 1.0877V42z"/><path fill="#d22f27" d="M29.5115 42A6.7093 6.7093 0 0 0 31.5 43.7918V42z"/><path fill="#fff" d="M40.5 42h1.9885A5.0877 5.0877 0 0 0 43.5 39h-3z"/><path fill="#d22f27" d="M37.5 39h3v3h-3z"/><path fill="#fff" d="M34.5 39h3v3h-3z"/><path fill="#d22f27" d="M31.5 39h3v3h-3z"/><path fill="#fff" d="M31.5 39h-3a5.0877 5.0877 0 0 0 1.0115 3H31.5z"/><path fill="#d22f27" d="M40.5 36h3v3h-3z"/><path fill="#fff" d="M37.5 36h3v3h-3z"/><path fill="#d22f27" d="M34.5 36h3v3h-3z"/><path fill="#fff" d="M31.5 36h3v3h-3z"/><path fill="#d22f27" d="M28.5 36h3v3h-3z"/><path fill="#fff" d="M40.5 33h3v3h-3z"/><path fill="#d22f27" d="M37.5 33h3v3h-3z"/><path fill="#fff" d="M34.5 33h3v3h-3z"/><path fill="#d22f27" d="M31.5 33h3v3h-3z"/><path fill="#fff" d="M28.5 33h3v3h-3z"/><path fill="#d22f27" d="M40.5 30h3v3h-3z"/><path fill="#fff" d="M37.5 30h3v3h-3z"/><path fill="#d22f27" d="M34.5 30h3v3h-3z"/><path fill="#fff" d="M31.5 30h3v3h-3z"/><path fill="#d22f27" d="M28.5 30h3v3h-3z"/><path fill="none" stroke="#d22f27" stroke-miterlimit="10" d="M43.5 39c0 3.3137-3.3579 6-7.5 6s-7.5-2.6863-7.5-6v-9h15z"/><g><path fill="#61b2e4" stroke="#61b2e4" stroke-linecap="round" stroke-linejoin="round" d="M30.1872 24.3719l1.6528-1.8632 2.1937 1.2321L36 22.1781l1.9663 1.5627 2.1937-1.2321 1.6528 1.8632 2.3741-.8719 1.2922 2.104L43.5 30a15.9375 15.9375 0 0 0-15 0l-1.9791-4.396 1.2922-2.104z"/><path fill="#1e50a0" stroke="#1e50a0" stroke-miterlimit="10" stroke-width=".25" d="M37.619 28.21l.347-4.469 2.194-1.232 1.653 1.863-1.139 4.458-3.055-.62zm-3.238 0l-.347-4.469-2.194-1.232-1.653 1.863 1.139 4.458 3.055-.62z"/><path fill="none" stroke="#1e50a0" stroke-linecap="round" stroke-linejoin="round" d="M30.1872 24.3719l1.6528-1.8632 2.1937 1.2321L36 22.1781l1.9663 1.5627 2.1937-1.2321 1.6528 1.8632 2.3741-.8719 1.2922 2.104L43.5 30a15.9375 15.9375 0 0 0-15 0l-1.9791-4.396 1.2922-2.104z"/></g><g><path fill="none" stroke="#000" stroke-linecap="round" stroke-linejoin="round" stroke-width="2" d="M5 17h62v38H5z"/></g></svg>