<svg xmlns="http://www.w3.org/2000/svg" role="img" viewBox="2.72 2.72 66.43 66.43"><title>1F304.svg</title><path fill="#e27022" d="M4 4h64v64H4z"/><path fill="#f4aa41" d="M68 4h-8L44 35l4 3 17-20 3-3.231M4 17.562l2.019 1.913L24.55 38.066l3.75-3.308L9 4H4v13.562zM30.879 4l2.469 28.375 4.983.412 3.749-25.98L42.566 4"/><path fill="#fcea2b" d="M50.9612 49.0783c-.2669 3.1308-5.2035 14.6638-16.0395 13.8829a15 15 0 0 1-13.8829-16.0395c.627-8.7 8.6625-14.3418 16.04-13.8829 6.9914.4348 11.089 6.2058 11.6543 7.0295a14.6318 14.6318 0 0 1 2.1067 5.5473 16.4018 16.4018 0 0 1 .1214 3.4627z"/><path fill="#d0cfce" d="M4 42.636l11.889-9.226L54.869 68H4V42.636z"/><path fill="#9b9b9a" d="M41.492 54.869L68 27.944V68H54.869"/><g fill="none" stroke="#000" stroke-linecap="round" stroke-width="2"><path stroke-miterlimit="10" d="M25.75 37.0488a15.0248 15.0248 0 0 1 14.7118-3.3742 15.3622 15.3622 0 0 1 7.5867 5.3881 11.5175 11.5175 0 0 1 1.6933 2.88"/><path stroke-linejoin="round" d="M5 42.416l11.34-9.561L54.746 67M42.983 53.445L66.755 28.22"/></g></svg>