<svg xmlns="http://www.w3.org/2000/svg" role="img" viewBox="11.04 11.04 49.79 49.79"><title>1F609.svg</title><circle cx="36" cy="36" r="23" fill="#FCEA2B"/><path fill="#EA5A47" d="M38.254 51.023l3.023-1.346 1.169-1.443.318-1.61-3.699.045h-9.968l1.314 3.008 3.159 1.346z"/><g><path fill="none" stroke="#000" stroke-linecap="round" stroke-linejoin="round" stroke-width="2" d="M20.6481 30.0276c.4053-1.5015 1.3531-2.7994 2.66-3.6424a6.28014 6.28014 0 0 1 4.3194-1.3752m23.3763 6.0773c-2.2619-2.236-5.7272-2.7128-8.5089-1.1708m.2883 15.8522c0 2.9371-2.308 5.2718-6.9345 5.2718s-6.9637-2.3419-6.9637-5.2718m.055 0s7.0471 2.52 13.75.0543m4.3127-9.9625a5.90226 5.90226 0 0 0-2.8695-.9229 7.4757 7.4757 0 0 0-3.18.7754"/><circle cx="28.079" cy="35.309" r="3"/><circle cx="36" cy="36" r="23" fill="none" stroke="#000" stroke-linecap="round" stroke-linejoin="round" stroke-width="2"/></g></svg>