<svg xmlns="http://www.w3.org/2000/svg" role="img" viewBox="14.84 2.47 42.20 66.82"><title>1F384.svg</title><circle cx="36.081" cy="25.744" r="2"/><circle cx="43.681" cy="49.953" r="2"/><circle cx="28.405" cy="51.924" r="2"/><circle cx="41.681" cy="38.674" r="2"/><circle cx="32.405" cy="34.199" r="2"/><circle cx="34.405" cy="45.055" r="2"/><g><path fill="#a57939" d="M39.1563 68.0352h-6.3125a2.4464 2.4464 0 0 1-2.293-2.57v-7.5843a.9994.9994 0 0 1 1-1h8.8985a.9994.9994 0 0 1 1 1v7.5839a2.4464 2.4464 0 0 1-2.293 2.5704z"/><path fill="#b1cc33" d="M54.7657 61.207c-.0215 0-.043-.0009-.0645-.0019L36 60.0049l-18.7012 1.2a1.0253 1.0253 0 0 1-.8975-.4453.9988.9988 0 0 1-.06-1.001l7.543-15.043-3.23.4033a1 1 0 0 1-.9873-1.497l7.0732-12.0928-1.9258.2363a.9753.9753 0 0 1-.97-.4609.9992.9992 0 0 1 .0078-1.0733L35.16 12.7158a1.0364 1.0364 0 0 1 1.68 0l11.3085 17.5156a.999.999 0 0 1 .0078 1.0733.9736.9736 0 0 1-.97.4609l-1.9258-.2363 7.0735 12.0928a1 1 0 0 1-.9873 1.497l-3.23-.4033 7.5429 15.043a1 1 0 0 1-.8935 1.4482z"/><path fill="#5c9e31" d="M37.697 29.291h5.682l7.723 13.624-4.238.249 7.902 18.043-17.375-1.114.306-30.802z"/><circle cx="36.081" cy="25.744" r="2" fill="#fcea2b"/><circle cx="43.681" cy="49.953" r="2" fill="#d22f27"/><circle cx="28.405" cy="51.924" r="2" fill="#fcea2b"/><circle cx="41.681" cy="38.674" r="2" fill="#fcea2b"/><circle cx="32.405" cy="34.199" r="2" fill="#d22f27"/><circle cx="34.405" cy="45.055" r="2" fill="#d22f27"/><path fill="#fcea2b" d="M32.4991 16.27a.7375.7375 0 0 1-.7266-.8621l.6028-3.5153-2.5546-2.49a.7373.7373 0 0 1 .4093-1.2581l3.53-.5135 1.5787-3.1992a.7671.7671 0 0 1 1.3223 0L38.24 7.631l3.53.5135a.7372.7372 0 0 1 .4091 1.2575l-2.5553 2.49.6036 3.516a.7371.7371 0 0 1-1.0695.7771L36 14.5255l-3.158 1.6593a.7323.7323 0 0 1-.3429.0852z"/></g><g fill="none" stroke="#000" stroke-linecap="round" stroke-linejoin="round" stroke-width="2"><path d="M39.778 19.109l7.53 11.665-3.93-.483 8.093 13.836-5.087-.636 8.382 16.716-12.834-.834m-11.864 0l-12.834.834 8.382-16.716-5.087.636 8.093-13.836-3.93.483 7.53-11.665m8.228 43.3145v3.0417a1.4565 1.4565 0 0 1-1.2931 1.57h-6.3133a1.4565 1.4565 0 0 1-1.2931-1.57v-3.0417M36 4.758l1.87 3.79 4.182.607-3.026 2.95.714 4.165L36 14.304l-3.74 1.966.714-4.165-3.026-2.95 4.182-.607L36 4.758z"/></g></svg>