<svg xmlns="http://www.w3.org/2000/svg" role="img" viewBox="14.69 4.82 42.24 54.99"><title>1F478-1F3FF.svg</title><path fill="#FFA7C0" d="M50.0576 58.8395c0-4.0115 3.8632-8.1267 3.8632-8.1267l-2.1081-3.3567c-4.4249-.4802-6.0588 8.7658-6.0588 8.7658-3.6822-4.6369-9.8914.17-9.8914.17s-6.3702-4.8069-10.0525-.17c0 0-1.6339-9.246-6.0587-8.7658l-2.1081 3.3567s3.8632 4.1152 3.8632 8.1267h28.5512z"/><path fill="#FCEA2B" d="M31.44 17.56l.002-9.743 3.115 2.652 1.415-3.546 1.469 3.409 2.844-2.515v9.743z"/><path d="M44.6616 14.1806c-1.3679-.8802-2.7359-1.5522-4.1038-2.0161l-.2729 5.3958h-8.6702l.0319-5.4733c-1.4461.4652-2.8922 1.1631-4.3383 2.0936-15.3119 15.2765 6.6157 9.8224 8.6766 4.5452 2.0609 5.2772 23.9886 10.7313 8.6767-4.5452z"/><path d="M23.8132 44.829c.9169-.246 1.9445-.389 3.1118-.389 3.17 2.1047 5.8895 3.5601 8.9375 3.574 3.048-.0139 5.7675-1.4693 8.9375-3.574 1.2405 0 2.3238.1609 3.2828.4369.7167-.5253 1.4333-1.0814 2.15-1.7 3.1968-3.5804.3021-14.8257-.9258-19.0057-8.8832-8.316-17.7664-8.3165-26.6496 0-1.2279 4.18-4.1231 15.4253-.9258 19.0057.6938.5989 1.3877 1.1407 2.0816 1.6521z"/><g fill="#6a462f"><path d="M17.6998 50.7747c-1.3542 3.8632-.7748 8.0626-.7748 8.0626h4.5813c-.0014-3.7331-3.3433-7.5512-3.8065-8.0626zM44.8 44.44c-3.17 2.1047-5.8895 3.5601-8.9375 3.574-3.048-.0139-5.7675-1.4693-8.9375-3.574-5.3155 0-7.8812 2.8254-9.0933 5.9727l1.9196-3.0566c4.4248-.4802 6.0587 8.7658 6.0587 8.7658 3.6823-4.6369 10.0525.17 10.0525.17s6.2092-4.8069 9.8914-.17c0 0 1.6339-9.246 6.0588-8.7658l2.1081 3.3567s-3.8616 4.1138-3.863 8.1245H54.8s2-14.3973-10-14.3973zm-8.7867-25.0602s3.5238 5.175 11.1 5.7564c.1564.9382.2386 1.9103.2386 2.9065 0 7.8277-5.0765 14.1733-11.3386 14.1733s-11.3386-6.3456-11.3386-14.1733c0-1.0109.0847-1.9971.2456-2.9481 7.0648-1.2683 11.093-5.7148 11.093-5.7148z"/></g><g><path d="M41.9851 26.9809c0 1.1045-.8965 2-2 2s-2-.8955-2-2c0-1.1035.8965-2 2-2s2 .8965 2 2m-8 0c0 1.1045-.8965 2-2 2s-2-.8955-2-2c0-1.1035.8965-2 2-2s2 .8965 2 2m1.9998 10.0024c-1.1518 0-2.3037-.2861-3.4472-.8579-.4942-.2471-.6944-.8477-.4473-1.3418.2466-.4937.8462-.6943 1.3418-.4473 1.7178.8594 3.3877.8594 5.1055 0 .4946-.247 1.0947-.0464 1.3418.4473.247.4941.0468 1.0947-.4473 1.3418-1.1436.5718-2.2954.8579-3.4473.8579z"/><path fill="none" stroke="#000" stroke-miterlimit="10" stroke-width="2" d="M24.9671 24.9804c-.2096 1.0775-.3208 2.2032-.3208 3.3613 0 7.8276 5.0765 14.1732 11.3386 14.1732 6.2622 0 11.3386-6.3456 11.3386-14.1732 0-1.1582-.1111-2.2839-.3208-3.3614"/><path fill="none" stroke="#000" stroke-linecap="round" stroke-linejoin="round" stroke-miterlimit="10" stroke-width="2" d="M16.925 57.8337s-2-13 10-13c3.1919 2.1279 5.9264 3.5984 9 3.5921H35.8c3.0736.0063 5.8081-1.4642 9-3.5921 12 0 10 13 10 13M31.44 17.56l.002-9.743 3.115 2.652 1.415-3.546 1.469 3.409 2.844-2.515v9.743zM17.6432 50.7128s3.8632 3.1152 3.8632 7.1267"/><path fill="none" stroke="#000" stroke-linecap="round" stroke-linejoin="round" stroke-miterlimit="10" stroke-width="2" d="M51.8127 47.3561c-4.4249-.4802-6.0588 8.7658-6.0588 8.7658-3.6822-4.6369-9.8914.17-9.8914.17s-6.3702-4.8069-10.0525-.17c0 0-1.6339-9.246-6.0587-8.7658m34.1695 3.3567s-3.8632 3.1252-3.8632 7.1367M44.2693 15.055c14.5692 14.5357-6.295 9.3461-8.256 4.3248-1.9611 5.0213-22.8252 10.2109-8.2561-4.3248m-4.7009 8.7713c-1.1906 4.0541-3.9987 14.9608-.898 18.4335m26.7454-18.4335c1.1906 4.0541 3.9986 14.9608.8979 18.4335"/></g></svg>