<svg xmlns="http://www.w3.org/2000/svg" role="img" viewBox="17.14 13.14 37.59 44.59"><title>1F3DA.svg</title><g id="color"><path fill="#FFF" d="M18.5 31.5H53.5V56.5H18.5z"/><path fill="#EA5A47" d="M28.5 22.059L23.5 26.765 23.5 17 28.5 17z"/><path fill="#A57939" d="M25.5 40H34.5V56H25.5z"/><path fill="#6A462F" d="M37.45 40.38L24.26 53.57 21.34 50.66 25.5 46.5 32 40 34.53 37.47z"/><path fill="#9B9B9A" d="M48 47L42.792 47 40 47 40 40 42 40 48 40z"/><path fill="#92D3F5" d="M42.792 47L46 43 43 42 42 40 48 40 48 47z"/><path fill="#EA5A47" d="M36 15L19 31 19 32 53 32 53 31 47 26 40 27 32 28 34 24 32 22 38.6 17.6z"/></g><g id="line" fill="none" stroke="#000" stroke-linecap="round" stroke-linejoin="round" stroke-miterlimit="10" stroke-width="2"><path d="M28.5 22.059L23.5 26.765 23.5 17 28.5 17zM32 40L25.5 46.5 25.5 40zM34.5 43.33L34.5 56 25.5 56 25.5 52.33zM48 47L42.792 47 40 47 40 40 42 40 48 40z"/><path d="M20.068 43.457H38.724000000000004V47.579H20.068z" transform="rotate(-45.001 29.395 45.519)"/><path d="M42.792 47L46 43 43 42 42 40 48 40 48 47zM42 22L42 26M45 25L45 26M39 19L39 26M40 19L36 15 19 31 19 32 53 32 53 31 47 26 40 27 32 28 34 24 32 22 38.6 17.6zM36 20L36 27"/><path d="M19 32H53V56H19z"/></g></svg>