<svg xmlns="http://www.w3.org/2000/svg" role="img" viewBox="8.82 7.94 54.87 54.99"><title>1F346.svg</title><path fill="#8967AA" stroke="#8967AA" stroke-linecap="round" stroke-linejoin="round" stroke-miterlimit="10" stroke-width="2" d="M60.62 23.81c.23 11.63-3.41 21.98-9.12 27.19-.1.1-.19.2-.3.3-.2.21-.4.42-.62.62-.3.29-.61.58-.93.86-.36.33-.73.64-1.11.95-.18.15-.37.29-.56.44-.55.43-1.11.84-1.69 1.23-.21.14-.41.28-.62.41-6.09 3.93-13.56 5.84-21.26 5-.8-.09-1.61-.21-2.41-.37-1.18-.27-2.28-.68-3.31-1.2 35.9-.26 32.7225-32.51 32.6225-35.74l9.3075.31z"/><path fill="#B399C8" stroke="#B399C8" stroke-linecap="round" stroke-linejoin="round" stroke-miterlimit="10" stroke-width="2" d="M43.34 22.61l-.25-.02c.11-.13.2-.12.25.02zM18.69 59.24c-.1-.04-.2-.09-.29-.14-5.33-2.86-8.39-8.83-7.12-14.91 1.57-7.52 9.13-12.38 16.87-10.86 0 0 8.1 2.63 13.35-3.8 1.79-2.19 2.18-6.21 1.84-6.92l10.8.75-2.9525-1.4225c.1 3.23 3.4025 37.0425-32.4975 37.3025z"/><path fill="#5C9E31" stroke="#5C9E31" stroke-linecap="round" stroke-linejoin="round" stroke-miterlimit="10" stroke-width="2" d="M61.69 26.22s-3.72.53-6.8-1.81c-.54 3.78-3.52 6.01-3.52 6.01s-2.97-2.23-3.51-6.01c-.71.54-1.46.93-2.19 1.2-2.42.92-4.62.61-4.62.61s-.63-4.47 2.55-7.66c.65-.66 1.36-1.15 2.07-1.52 2.76-1.44 10.28-1.68 13.48 1.52 3.19 3.19 2.54 7.66 2.54 7.66z"/><path fill="#B1CC33" d="M51.37 30.42s-2.97-2.23-3.51-6.01c-.71.54-1.46.93-2.19 1.2-2.42.92-4.62.61-4.62.61s-.63-4.47 2.55-7.66c.65-.66 1.36-1.15 2.07-1.52C48.43 15.6 51.26 16 51.26 16l.11 14.42z"/><g fill="none" stroke="#000" stroke-linecap="round" stroke-linejoin="round" stroke-miterlimit="10" stroke-width="2"><path d="M60.2755 30.4183c-.0991 1.8395-.539 3.8125-.9248 5.6459-3.3074 15.9218-18.6074 26.5323-34.9364 24.7417-.8085-.0847-1.617-.2057-2.4133-.3629-7.4724-1.718-12.2498-8.9046-10.7186-16.2485 1.568-7.5253 9.1261-12.389 16.868-10.8646 0 0 7.7474 1.9693 12.8504-3.1818m9.7921-18.1649C50.1897 10.9538 49.0717 10 47 10"/><path d="M61.69 26.22s-3.72.53-6.8-1.81c-.54 3.78-3.52 6.01-3.52 6.01s-2.97-2.23-3.51-6.01c-.71.54-1.46.93-2.19 1.2-2.42.92-4.62.61-4.62.61s-.63-4.47 2.55-7.66c.65-.66 1.36-1.15 2.07-1.52 2.76-1.44 10.28-1.68 13.48 1.52 3.19 3.19 2.54 7.66 2.54 7.66zm-20.6892 3.9281c.1285-.1297.2554-.264.3803-.4029"/></g></svg>