<svg xmlns="http://www.w3.org/2000/svg" role="img" viewBox="24.41 14.16 23.05 43.68"><title>1FAD4.svg</title><path fill="#fcea2b" d="M43.5 39.3372A49.359 49.359 0 0 1 45.6921 51.93a3.5779 3.5779 0 0 1-2.9713 3.6183 41.7747 41.7747 0 0 1-13.4416.0317 3.5806 3.5806 0 0 1-2.9713-3.6183 53.1249 53.1249 0 0 1 1.93-12.057L28.5 32.88a49.3636 49.3636 0 0 1-2.1924-12.5929 3.5779 3.5779 0 0 1 2.9713-3.6183 41.7747 41.7747 0 0 1 13.4416-.0317 3.5806 3.5806 0 0 1 2.9713 3.6183A51.9888 51.9888 0 0 1 43.4326 33.4z"/><path fill="#f1b31c" d="M38.53 16.1691A73.9661 73.9661 0 0 1 36 34.8579l2.9519.6275L43.4326 33.4l2.0733-10.4947v-4.6l-3.3634-1.94zm-1.3741 21.7818a43.66 43.66 0 0 1 2.3964 18.1575l4.2647-.7867 1.8751-3.3917L43.5 39.3372z"/><rect width="19.387" height="3.107" x="26.306" y="34.555" fill="#b1cc33" rx="1.553" transform="rotate(-167.673 36 36.108)"/><rect width="19.387" height="3.107" x="26.306" y="34.84" fill="#b1cc33" rx="1.553" transform="rotate(-12.328 35.997 36.391)"/><g fill="none" stroke="#000" stroke-linecap="round" stroke-linejoin="round" stroke-width="2"><path d="M28.5 32.88a49.3636 49.3636 0 0 1-2.1924-12.5929 3.5779 3.5779 0 0 1 2.9713-3.6183 41.7747 41.7747 0 0 1 13.4416-.0317 3.5806 3.5806 0 0 1 2.9713 3.6183A51.9888 51.9888 0 0 1 43.4326 33.4"/><rect width="19.387" height="3.107" x="26.306" y="34.555" rx="1.553" transform="rotate(-167.68 35.995 36.113) scale(.999)"/><path d="M37.1559 37.9509l-8.7769 1.918a1.5579 1.5579 0 0 1-1.849-1.1859h0a1.5579 1.5579 0 0 1 1.1859-1.8491l2.1641-.4729m7.428-1.6232l6.313-1.38a1.5578 1.5578 0 0 1 1.849 1.1864h0a1.5577 1.5577 0 0 1-1.1859 1.849M31.2846 21.06a55.1412 55.1412 0 0 0 2.3261 12.9364M39.3742 21.06a43.6505 43.6505 0 0 1-.8446 6.7476M43.5 39.3372A49.359 49.359 0 0 1 45.6921 51.93a3.5779 3.5779 0 0 1-2.9713 3.6183 41.7747 41.7747 0 0 1-13.4416.0317 3.5806 3.5806 0 0 1-2.9713-3.6183 53.1249 53.1249 0 0 1 1.93-12.057m12.4775 11.2522A55.1427 55.1427 0 0 0 38.3893 38.22m-5.7635 12.9369a43.6505 43.6505 0 0 1 .8446-6.7476"/></g></svg>