<svg xmlns="http://www.w3.org/2000/svg" role="img" viewBox="16.49 15.12 38.26 45.76"><title>1F503.svg</title><g fill="#92d3f5"><path d="M26.6754 17l8.2146 9.4517h-6.024l.2365 25.0865s-.7468 6.7212 7.468 2.24l1.4936 2.9872c-13.4424 7.468-13.4424-5.9743-13.4424-5.9743l-.1369-24.34h-6.0242L26.6754 17"/><path d="M44.7852 59.0246l-8.2147-9.4517h6.0241l-.2365-25.0866s.7468-6.7212-7.4679-2.24l-1.4936-2.9872c13.4423-7.4679 13.4423 5.9744 13.4423 5.9744l.1369 24.34H53l-8.2148 9.4517"/></g><g fill="none" stroke="#000" stroke-linecap="round" stroke-linejoin="round" stroke-width="2"><path d="M26.6754 17l8.2146 9.4517h-6.024l.2365 25.0865s-.7468 6.7212 7.468 2.24l1.4936 2.9872c-13.4424 7.468-13.4424-5.9743-13.4424-5.9743l-.1369-24.34h-6.0242L26.6754 17"/><path d="M44.7852 59.0246l-8.2147-9.4517h6.0241l-.2365-25.0866s.7468-6.7212-7.4679-2.24l-1.4936-2.9872c13.4423-7.4679 13.4423 5.9744 13.4423 5.9744l.1369 24.34H53l-8.2148 9.4517"/></g></svg>