<svg xmlns="http://www.w3.org/2000/svg" role="img" viewBox="2.71 2.46 66.58 66.95"><title>1F3B3.svg</title><path fill="#d0cfce" d="M24.239 20h-7.2109a7.1536 7.1536 0 0 1 .0252 2h7.1534a7.18 7.18 0 0 1 .0323-2zm2.7167-8.6943a6.4946 6.4946 0 0 0-6.3218-6.3219 6.3219 6.3219 0 0 0-6.3219 6.3219l-.0044-.026c.05 2.2573 1.4038 4.4042 2.2124 6.72h8.2325c.8095-2.306 2.1536-4.4452 2.2032-6.694zm.336 16.1643A11.7467 11.7467 0 0 1 24.78 24h-8.309a11.7743 11.7743 0 0 1-2.4995 3.4438c-9.2582 9.2582-5.8275 25.063 1.1162 39.53L15 67h11.1756c6.9436-14.4672 10.3744-30.2719 1.1161-39.53z"/><path fill="#ea5a47" d="M24.2067 22h-7.1534a7.1754 7.1754 0 0 1-.5823 2h8.309a7.1557 7.1557 0 0 1-.5733-2zm.5458-4H16.52a10.7607 10.7607 0 0 1 .5081 2h7.2109a10.8478 10.8478 0 0 1 .5135-2z"/><path fill="#9b9b9a" d="M22.1624 22h2.0436a7.1759 7.1759 0 0 1 .0323-2H22.173c-.0313.6477-.0398 1.3118-.0106 2zm.8944-10.6943A63.054 63.054 0 0 1 22.34 18h2.4118c.8095-2.3063 2.1536-4.4455 2.2032-6.6943a6.5112 6.5112 0 0 0-5.7781-6.2914c1.0552.3063 1.9014 3.297 1.8799 6.2914zM27.291 27.47A11.7454 11.7454 0 0 1 24.7792 24h-2.43a20.8439 20.8439 0 0 0 .8172 3.47c3.0122 9.2582 1.896 25.0629-.3631 39.53l3.3482-.3277C33.0948 52.2052 36.5492 36.7281 27.291 27.47z"/><path fill="#d22f27" d="M22.3489 24h2.43a7.1587 7.1587 0 0 1-.5732-2h-2.0433a19.7444 19.7444 0 0 0 .1865 2zm-.1759-4h2.0653a10.84 10.84 0 0 1 .5135-2H22.34c-.0744.6511-.1341 1.3159-.167 2z"/><path fill="#d0cfce" d="M21 4.9838h-.0007v.02c.0591.0038.1189.0044.1776.01a.636.636 0 0 0-.1769-.03zM41.239 20h-7.2109a7.1536 7.1536 0 0 1 .0252 2h7.1534a7.18 7.18 0 0 1 .0323-2zm2.7167-8.6943a6.4946 6.4946 0 0 0-6.3218-6.3219 6.3219 6.3219 0 0 0-6.3219 6.3219l-.0044-.026c.05 2.2573 1.4038 4.4042 2.2124 6.72h8.2325c.8095-2.306 2.1536-4.4452 2.2032-6.694zm.336 16.1643A11.7467 11.7467 0 0 1 41.78 24h-8.309a11.7743 11.7743 0 0 1-2.4995 3.4438c-9.2582 9.2582-5.9133 25.1037 1.03 39.5708L32 67h11.1756c6.9436-14.4672 10.3744-30.2719 1.1161-39.53z"/><path fill="#ea5a47" d="M41.2067 22h-7.1534a7.1754 7.1754 0 0 1-.5823 2h8.309a7.1557 7.1557 0 0 1-.5733-2zm.5458-4H33.52a10.7607 10.7607 0 0 1 .5081 2h7.2109a10.8478 10.8478 0 0 1 .5135-2z"/><path fill="#9b9b9a" d="M39.1624 22h2.0436a7.1759 7.1759 0 0 1 .0323-2H39.173c-.0313.6477-.0398 1.3118-.0106 2zm.8944-10.6943A63.054 63.054 0 0 1 39.34 18h2.4118c.8095-2.3063 2.1536-4.4455 2.2032-6.6943a6.5112 6.5112 0 0 0-5.7781-6.2914c1.0552.3063 1.9014 3.297 1.8799 6.2914zM44.291 27.47A11.7454 11.7454 0 0 1 41.7792 24h-2.43a20.8439 20.8439 0 0 0 .8172 3.47c3.0122 9.2582 1.896 25.0629-.3631 39.53h3.3719c6.9433-14.4672 10.374-30.2719 1.1158-39.53z"/><path fill="#d22f27" d="M39.3489 24h2.43a7.1587 7.1587 0 0 1-.5732-2h-2.0433a19.7444 19.7444 0 0 0 .1865 2zm-.1759-4h2.0653a10.84 10.84 0 0 1 .5135-2H39.34c-.0744.6511-.1341 1.3159-.167 2z"/><path fill="#d0cfce" d="M38 4.9838h-.0007v.02c.0591.0038.1189.0044.1776.01a.636.636 0 0 0-.1769-.03z"/><circle cx="19.998" cy="52.092" r="15" fill="#9b9b9a"/><path fill="#3F3F3F" d="M27.6018 39.1605a15.0029 15.0029 0 0 1-18.569 23.1724 15.0041 15.0041 0 0 0 25.9655-10.2414 14.8862 14.8862 0 0 0-7.3965-12.931z"/><path fill="#d0cfce" d="M58.239 20h-7.2109a7.1536 7.1536 0 0 1 .0252 2h7.1534a7.18 7.18 0 0 1 .0323-2zm2.7167-8.6943a6.4946 6.4946 0 0 0-6.3218-6.3219 6.3219 6.3219 0 0 0-6.3219 6.3219l-.0044-.026c.05 2.2573 1.4038 4.4042 2.2124 6.72h8.2325c.8095-2.306 2.1536-4.4452 2.2032-6.694zm.336 16.1643A11.7467 11.7467 0 0 1 58.78 24h-8.309a11.7743 11.7743 0 0 1-2.4995 3.4438C38.7133 36.702 42.0563 52.5329 49 67h11.1756c6.9436-14.4672 10.3744-30.2719 1.1161-39.53z"/><path fill="#ea5a47" d="M58.2067 22h-7.1534a7.1754 7.1754 0 0 1-.5823 2h8.309a7.1557 7.1557 0 0 1-.5733-2zm.5458-4H50.52a10.7607 10.7607 0 0 1 .5081 2h7.2109a10.8478 10.8478 0 0 1 .5135-2z"/><path fill="#9b9b9a" d="M56.1624 22h2.0436a7.1759 7.1759 0 0 1 .0323-2H56.173c-.0313.6477-.0398 1.3118-.0106 2zm.8944-10.6943A63.054 63.054 0 0 1 56.34 18h2.4118c.8095-2.3063 2.1536-4.4455 2.2032-6.6943a6.5112 6.5112 0 0 0-5.7781-6.2914c1.0552.3063 1.9014 3.297 1.8799 6.2914zM61.291 27.47A11.7454 11.7454 0 0 1 58.7792 24h-2.43a20.8439 20.8439 0 0 0 .8172 3.47c3.0122 9.2582 1.896 25.0629-.3631 39.53h3.3719c6.9433-14.4672 10.374-30.2719 1.1158-39.53z"/><path fill="#d22f27" d="M56.3489 24h2.43a7.1587 7.1587 0 0 1-.5732-2h-2.0433a19.7444 19.7444 0 0 0 .1865 2zm-.1759-4h2.0653a10.84 10.84 0 0 1 .5135-2H56.34c-.0744.6511-.1341 1.3159-.167 2z"/><path fill="#d0cfce" d="M55 4.9838h-.0007v.02c.0591.0038.1189.0044.1776.01a.636.636 0 0 0-.1769-.03z"/><g><circle cx="19.998" cy="52.092" r="15" fill="none" stroke="#000" stroke-linecap="round" stroke-linejoin="round" stroke-width="2"/><circle cx="16.197" cy="47.652" r="2"/><circle cx="19.777" cy="51.652" r="2"/><circle cx="12.457" cy="53.652" r="2"/><path fill="none" stroke="#000" stroke-linecap="round" stroke-linejoin="round" stroke-width="2.303" d="M8.7027 37.8423a19.06 19.06 0 0 1 5.2688-10.3984c6.8233-6.8233.445-11.226.336-16.1643l.0045.0261a6.3219 6.3219 0 0 1 6.3219-6.3219 6.4947 6.4947 0 0 1 6.3218 6.3219c-.1053 4.7754-6.0734 9.05-.2966 15.497m-.2599 8.2047a18.4794 18.4794 0 0 1 4.5723-7.5635c6.8233-6.8233.445-11.226.336-16.1643l.0045.0261a6.3219 6.3219 0 0 1 6.3219-6.3219 6.4947 6.4947 0 0 1 6.3218 6.3219c-.1052 4.7674-6.0534 9.0357-.3255 15.4646M49 67c-6.9436-14.4671-10.2867-30.298-1.0285-39.5561 6.8233-6.8233.445-11.226.336-16.1643l.0045.0261a6.3219 6.3219 0 0 1 6.3219-6.3219 6.4947 6.4947 0 0 1 6.3218 6.3219c-.1089 4.9383-6.4872 9.3409.3361 16.1642C70.55 36.7281 67.1192 52.5329 60.1756 67z"/><path fill="none" stroke="#000" stroke-linecap="round" stroke-linejoin="round" stroke-width="2.097" d="M32.321 65.557l.382 1.345h9.844l1.237-3.573"/></g></svg>