<svg xmlns="http://www.w3.org/2000/svg" role="img" viewBox="12.51 6.63 47.73 58.11"><title>1F9C4.svg</title><path fill="#d0cfce" d="M23.3922 28.2316a14.9321 14.9321 0 0 0-1.4625.7992 15.273 15.273 0 0 0-7.2972 12.9442c0 8.3124 8.3359 15.2821 16.9124 15.2821h9.2294c8.5765 0 17.3808-6.97 17.3808-15.2821a15.2738 15.2738 0 0 0-7.334-12.9666c-.1755-.0913-.5667-.3017-1.0809-.6-2.4494-1.42-7.57-5.2052-8.7459-9.1391h-9.1675c-.5127 5.0859-9.1691 9.4064-9.8971 9.7612l-.0713.0347"/><path fill="#9b9b9a" d="M50.9321 29.0655s-.0408-.0206-.111-.0571q-.5271-.3212-1.0809-.6c-.1156-.0579-.2275-.1221-.3448-.1771"/><path fill="#fff" d="M31.3363 21.2727A58.1686 58.1686 0 0 0 33.0742 11.03a2.4549 2.4549 0 0 1 2.4622-2.255l.9394.0014c1.6873 0 2.07.6932 2.4746 2.3313l2.4041 9.6 7.3393 15.9259a13.7507 13.7507 0 0 1 2.0444 7.1994A14.3687 14.3687 0 0 1 36.16 57.9825a14.3686 14.3686 0 0 1-14.5789-14.1492 13.725 13.725 0 0 1 1.4289-6.0771"/><g fill="none" stroke="#000" stroke-width="1.959"><path stroke-miterlimit="10" d="M23.01 37.7562a14.0256 14.0256 0 0 1 1.2417-2.068"/><path stroke-linejoin="round" d="M31.3363 21.2727a58.0316 58.0316 0 0 0 1.7543-10.4751 2.1554 2.1554 0 0 1 2.1465-2.023l1.2387.0018c1.6873 0 2.07.6932 2.4746 2.3313l2.1765 8.6043.2262.8738a4.8279 4.8279 0 0 0 .1879.527l6.7209 14.584c1.0973 2.1763 2.4763 5.5042 2.4763 8.1365A14.3687 14.3687 0 0 1 36.16 57.9825a14.3686 14.3686 0 0 1-14.5789-14.1492 13.725 13.725 0 0 1 1.4289-6.0771"/><path stroke-miterlimit="10" d="M31.2916 21.4349s.0178-.0633.0447-.1622m0 0c.0809-.2806.1537-.5528.2086-.8065m-8.6122 17.4143s.0266-.0428.0768-.1243m1.2417-2.068c2.0515-3.479 5.8961-10.2926 7.0851-14.4155M23.01 37.7562c.1728-.2813.6271-1.0255 1.2417-2.068"/><path stroke-miterlimit="10" d="M31.8268 19.27c-.5127 5.0859-9.1691 9.4064-9.8971 9.7612l-.0713.0347M41.0122 57.18c8.364-.3419 17.1429-7.1037 17.1429-15.2047a15.2738 15.2738 0 0 0-7.334-12.9666c-.1755-.0913-.5667-.3017-1.0809-.6-2.4494-1.42-7.8942-5.005-8.72-9.1391l-.027-.1064"/><path stroke-miterlimit="10" d="M23.3922 28.2316a14.9321 14.9321 0 0 0-1.4625.7992 15.273 15.273 0 0 0-7.2972 12.9442c0 7.9861 8.7026 14.7648 16.9124 15.2821m19.3872-28.1916s-.0408-.0206-.111-.0571q-.5271-.3212-1.0809-.6c-.1156-.0579-.2425-.1624-.4111-.2423"/><path stroke-linecap="round" stroke-miterlimit="10" d="M32.316 57.983l-1.779 4.772m6.047-4.377l-.122 4.051m4.061-4.44l1.813 4.759"/></g></svg>