<svg xmlns="http://www.w3.org/2000/svg" role="img" viewBox="14.95 8.95 41.97 54.47"><title>1F476-1F3FE.svg</title><g id="color"><path fill="#92D3F5" d="M17,62.5v-1.9c0-8.4,1.1-25.7,4.1-32.1h30c3,6.3,3.9,23.6,3.9,32.1v1.9H17z"/><path fill="#61B2E4" d="M55,62.5H43c0,0,0-11.5,0-16.5c0-3-1-4-1-4l5.4-2.9l4.4-8l1.4,3.6L55,62.5z"/><circle cx="36" cy="35.5" r="3" fill="#EA5A47"/></g><g id="skin"><path fill="#a57939" d="M51.1,25.7c0-9.1-6.2-15.7-15-15.7s-15,6.5-15,15.7c0,6.3-0.8,12.2,7.1,16.3c0,0,3.5,1,7.9,1 c5,0,8-1.1,8-1.1C52.1,37.9,51.1,31.9,51.1,25.7z M36,38.5c-1.7,0-3-1.3-3-3s1.3-3,3-3s3,1.3,3,3S37.7,38.5,36,38.5z"/></g><g id="line" fill="none" stroke="#000" stroke-width="2"><path stroke-linecap="round" stroke-miterlimit="10" d="M27 28c0 0 1-1 2-1s2 1 2 1M41 28c0 0 1-1 2-1s2 1 2 1"/><path stroke-linecap="round" stroke-linejoin="round" d="M51 29.3c3 3 4 21.7 4 29.7v2.5M17 61.5V59c0-8 1-26.7 4-29.7"/><path stroke-linecap="round" stroke-miterlimit="10" d="M32 16L31 17M36 15L35 17M40 16L41 17"/><circle cx="36" cy="35.5" r="3" stroke-miterlimit="10"/><path stroke-linecap="round" stroke-linejoin="round" stroke-miterlimit="10" d="M32.7 35.6C31.6 35.3 31 35 31 35M41 35c0 0-.5.3-1.5.6"/><path stroke-linecap="round" stroke-linejoin="round" d="M44,42c8-3,7-12,7-15.8 C51,17.3,44.8,11,36,11s-15,6.3-15,15.2C21,30,20,39,28.1,42C31.8,43.4,40.2,43.3,44,42z"/></g></svg>