<svg xmlns="http://www.w3.org/2000/svg" role="img" viewBox="7.59 7.34 52.06 53.56"><title>1F940.svg</title><path fill="#EA5A47" d="M55.0652 36.2595s4.0331-3.3068 1.9928-6.298c-2.0402-2.9912-5.8371-3.3523-6.7789-2.6335 0 0-2.643-6.2579-8.1784-5.5303-5.5354.7276-7.3202 5.6356-6.2605 9.2608 0 0-6.4001 5.0333-1.4014 10.534 0 0 5.2241 3.8607 8.5972.3025 0 0 3.9688 5.8969 8.7463 3.233 4.7774-2.664 3.2829-8.8685 3.2829-8.8685z"/><path fill="#D22F27" d="M35.8681 25.7396c-2.0403-.754-3.9535-1.3032-5.6994-.754-1.8369.5778-3.0824 2.1267-3.5372 3.7146-.4807 1.6782-.1027 3.6523 1.3417 5.1561 1.2212 1.2714 3.2734 1.7098 5.3399 2.3017l1.8414-5.2814.7136-5.137z"/><path fill="#EA5A47" d="M44.0555 39.519c-1.1534-1.1534-.6084-3.5685 1.2174-5.3943 1.8258-1.8258 4.2409-2.3708 5.3943-1.2173"/><path fill="#D22F27" d="M36.5432 35.0587c-.1311-.8395.2261-1.787.6582-2.5746.5728-1.0441 1.3665-1.9737 2.3259-2.6846 1.7166-1.2721 3.7295-1.9343 5.7283-1.9796 1.8795-.0425 3.7466.4604 5.3435 1.5146 0 0 .0265.0178.0725.0534.3221.2496 1.5999 1.3744 1.4302 3.397-.0718.8558-.4962 1.7435-1.041 2.461-.7223.9511-1.6438 1.7543-2.6943 2.3146-1.8797 1.0025-3.9563 1.3525-5.9246 1.0908-1.8507-.2461-3.6056-1.0331-5.0108-2.3273"/><path fill="#EA5A47" d="M50.1567 32.8122c-1.1392-1.1417-3.2422-.5308-5.1572 1.2272s-2.5732 4.1572-1.47 5.3589l.2237.2225c1.1675 1.1405 3.6173.5892 5.4716-1.2313 1.8543-1.8205 2.0995-4.4368.9319-5.5773"/><path fill="#D22F27" d="M45.6369 34.2811c1.4333.5699 2.0187 2.4839 1.3076 4.275-.3689.9292-1.136 1.6363-2.0079 2.0574-1.3515.6528-3.0345.3746-4.0712-.712-.1508-.158-.2764-.3266-.3549-.5012"/><path fill="#D22F27" d="M46.3352 34.9794c-.5699-1.4333-2.4839-2.0187-4.275-1.3076-.9292.3689-1.6363 1.136-2.0574 2.0079-.6528 1.3515-.3746 3.0345.712 4.0712.158.1508.3266.2764.5012.3549"/><path fill="#B1CC33" d="M10.3745 37.4322c1.542-3.1814 5.6727-4.3649 5.6727-4.3649s1.6302 3.9753.0885 7.1572c-1.5417 3.1819-5.6727 4.3649-5.6727 4.3649s-1.6285-3.9767-.0885-7.1572z"/><path fill="#EA5A47" d="M43.571 54.8601c-.1839.9828-1.4893 1.5632-2.9156 1.2963-1.4263-.2669-2.4335-1.28-2.2496-2.2628l1.3835-2.6208c.8878-1.5173.9261-1.5282 1.8709-1.3342l.2962.0552c.9513.159.9831.1831 1.2663 1.9184l.3492 2.9434"/><g fill="none" stroke="#000" stroke-linecap="round" stroke-linejoin="round" stroke-width="2"><path stroke-miterlimit="10" d="M55.2397 36.7939c2.1976-.9887 3.0946-4.581 1.7864-6.7298-1.2531-2.0583-4.8113-4.2316-7.0089-3.2429M38.4804 31.213c1.7039-1.7039 3.9372-2.5559 6.1705-2.5559s4.4666.852 6.1705 2.5559m-7.8465 11.282c-4.2731 3.3861-9.0856.1496-9.9358-1.9156-1.35-3.2794-.379-7.8158 2.0541-9.2439m14.1578 2.0719c1.1534 1.1534.9197 3.2573-.5221 4.6991-1.4418 1.4418-3.5456 1.6755-4.6991.5221"/><path stroke-miterlimit="10" d="M41.0689 38.529c-.8209-.8209-.6545-2.3181.3716-3.3441.5323-.5323 1.2736-.7925 2.002-.8238 1.1291-.0485 2.2096.6451 2.6021 1.7049.0571.1541.0936.3081.0958.4521m-2.5694 18.342c-.1839.9828-1.4893 1.5632-2.9156 1.2963-1.4263-.2669-2.4335-1.28-2.2496-2.2628l1.3835-2.6208c.8878-1.5173.9261-1.5282 1.8709-1.3342l.2962.0552c.9513.159.9831.1831 1.2663 1.9184l.3492 2.9434M29.9516 34.1785c-2.3166-.6635-3.6566-3.0794-2.9931-5.3959.6635-2.3166 3.0793-3.6566 5.3959-2.9931m22.8853 11.0044c1.5743 3.3868.105 7.4086-3.2819 8.9829-3.3868 1.5743-7.4086.105-8.9829-3.2819m7.0423-15.6737c-1.2466-4.1212-5.598-6.4515-9.7192-5.2049-4.1212 1.2466-6.4515 5.598-5.2049 9.7192"/><path d="M10.3745 37.4322c1.542-3.1814 5.6727-4.3649 5.6727-4.3649s1.6302 3.9753.0885 7.1572c-1.5417 3.1819-5.6727 4.3649-5.6727 4.3649s-1.6285-3.9767-.0885-7.1572zm30.0657-20.284c-2.6414-6.3782-9.9533-9.4076-16.3315-6.7661s-9.4076 9.9533-6.7661 16.3315c0 0 10.6575 22.1929 9.6575 32.1929"/></g></svg>