<svg xmlns="http://www.w3.org/2000/svg" role="img" viewBox="9.84 8.96 51.83 53.95"><title>26F9-1F3FD.svg</title><circle cx="16.969" cy="41.094" r="5" fill="#EA5A47"/><g fill="#c19a65" stroke="#c19a65"><circle cx="29.969" cy="14.094" r="3"/><path d="M29.665 23.585s.3038 3.708 3.3038 9.042C33.2129 33.0615 34 34.335 34 34.335L31 46l-.25 15h3.4238L36 49l3-6 6-5v-4l-6-11"/><path d="M45 37l5 10 10.167 6-1 3L47 51l-7-8m-1-20c-2-4-4.3594-4.2329-6.0312-3.583-2.254.876-2.879 3.5801-1.9688 5.583"/></g><g fill="none" stroke="#000" stroke-miterlimit="10" stroke-width="2"><circle cx="29.969" cy="14.094" r="3"/><circle cx="16.969" cy="41.094" r="5"/><path stroke-linecap="round" stroke-linejoin="round" d="M33.2676 31.4463s.3896.7998.8662 1.7764c.4766.9775.5586 2.623.1826 3.6572l-2.6328 7.2402c-.376 1.0342-.6982 2.7793-.7168 3.8799l-.1836 11c-.0186 1.1006.7373 2 1.6787 2 .9414 0 1.8477-.8896 2.0127-1.9775l1.2246-8.045c.1651-1.0879.7031-2.7822 1.1953-3.7666l1.211-2.4218c.4922-.9844 1.5859-2.3653 2.4306-3.0694l2.9278-2.4394C44.3086 38.5762 45 37.0996 45 36h0c0-1.0996-.4307-2.79-.958-3.7559L39 23"/><path stroke-linecap="round" stroke-linejoin="round" d="M45 37l4.1055 8.2109c.4922.9844 1.6699 2.2461 2.6172 2.8057l6.7216 3.9668c.9473.5596 1.4981 1.6914 1.2227 2.5166-.2754.8252-1.332 1.1582-2.3496.7402l-8.4678-3.4804c-1.0176-.418-2.4424-1.4375-3.167-2.2647L40 43m-1-20c-2-4-4.3594-4.2329-6.0312-3.583-1.1915.4629-1.9278 1.437-2.2227 2.5478M34 23l-3.0078 5.2637c-.5459.9551-1.8701 1.9345-2.9434 2.1758L21.125 32"/></g></svg>