<svg xmlns="http://www.w3.org/2000/svg" role="img" viewBox="9.39 6.89 55.73 57.85"><title>E0A7.svg</title><path fill="#3f3f3f" d="M31.6687 28.2991c-8.1155 0-13.92 5.3219-13.92 15.52V62.69h-6.14V43.4894c0-13.5 7.7484-20.793 20.2484-20.793h19.9818l-10.4-9.6 3.8-4.1 17.8 16.5-17.8 16.5-3.8-4.1 10.4-9.6z"/><path fill="none" stroke="#000" stroke-linecap="round" stroke-linejoin="round" stroke-width="2" d="M31.6687 28.2991c-8.1155 0-13.92 5.3219-13.92 15.52V62.69h-6.14V43.4894c0-13.5 7.7484-20.793 20.2484-20.793h19.9818l-10.4-9.6 3.8-4.1 17.8 16.5-17.8 16.5-3.8-4.1 10.4-9.6z"/></svg>