<svg xmlns="http://www.w3.org/2000/svg" role="img" viewBox="1.68 14.68 68.51 43.38"><title>E1C6.svg</title><path fill="#fff" d="M12.1186 17.9475h48.0051c3.7466 0 6.7883 3.0418 6.7883 6.7883v23.6569H4.8447V25.2215c0-4.0146 3.2594-7.274 7.274-7.274z"/><path fill="#9b9b9a" d="M6.808 55.158l15.261-21.746 8.591 8.59 15.982-15.981 19.077 29.854H6.281l.527-.717z"/><g fill="none" stroke="#000" stroke-linecap="round" stroke-linejoin="round" stroke-width="2"><path d="M6.808 55.158l15.261-21.746 8.591 8.59 15.982-15.981 19.077 29.854H6.281l.527-.717z"/><path d="M38 17.0213h22.021c4.4065 0 7.9787 3.5722 7.9787 7.9787v24.2352H4.0002V25c0-4.4065 3.5722-7.9787 7.9787-7.9787h21.9379L36 21.625l2-4.6037z"/><path d="M8.208 24.125v-3H11m4.521 0h3v2.792m0 4.521v3h-2.792m-4.521 0h-3v-2.792"/><circle cx="13.229" cy="26.146" r="2.021"/><path d="M62.837 26.021H40.642m27.217 0h-5.022m5.022 3.217h-5.022m5.022 3.218h-5.022m5.022 3.217h-5.022m5.022 3.218h-5.022m5.022 3.217h-5.022m5.022 3.217h-5.022m-16.266 3.91V20.06"/></g></svg>