<svg xmlns="http://www.w3.org/2000/svg" role="img" viewBox="5.32 9.70 61.23 52.35"><title>1F937-1F3FE-200D-2642-FE0F.svg</title><path fill="#92d3f5" d="M23 38.9583s-4 1-4 3l2 2a35.36 35.36 0 0 1 1 6c0 2-1 11-1 11h30s-2-15-1-16l3-3c0-2-4-3-4-3"/><g fill="#a57939"><path d="M25 30.9583c0 9 4.9365 14 11 14 5.9365 0 11.0635-5 11.0635-14a12.1332 12.1332 0 0 0-1-5c-.9553-3.0582-1.6273-6.0451-1.6273-6.0451-5.3017-.8214-11.0514 2.1655-16.5024 1.2694 0 0-2.9338 4.7757-2.9338 9.7757zm-11.0322 30l2.9375-12.3057-.9375-1.25-4-3-4-6a1.4142 1.4142 0 0 1 2-2l4 4c1 1 2 1 5 2s3.1308 3.2373 3 5c-.666 8.9727-1 13.5557-1 13.5557"/><path d="M19.9912 42.8479s-1.0234-2.89-2.1172-5.89c-.4316-1.1816-1.9062-1.0312-1.9062-.166v3.69m42.0644 20.4764l-2.9375-12.3057.9375-1.25 4-3 4-6a1.4142 1.4142 0 0 0-2-2l-4 4c-1 1-2 1-5 2s-3.1308 3.2373-3 5c.667 8.9727 1 13.5557 1 13.5557"/><path d="M52.01 42.8479s1.0224-2.89 2.1162-5.89c.4306-1.1816 1.9062-1.0312 1.9062-.166v3.69"/></g><path d="M44.2784 19.65c-7.473 0-8.7162 3.5912-16.36 1.88C24.5143 20.7679 26 37.9623 26 37.9623c-3 0-4-7-4-14 0-6 5-12 14-12s14 6 14 12c0 7-1 14-4 14 0 0 .7172-18.3123-1.7216-18.3123z"/><path d="M41.873 29.9583a2 2 0 1 1-2-2 2 2 0 0 1 2 2m-8 0a2 2 0 1 1-2-2 2 2 0 0 1 2 2"/><path fill="none" stroke="#000" stroke-linecap="round" stroke-linejoin="round" stroke-width="2" d="M34.084 37.9583a11.5 11.5 0 0 0 3.9365 0m-24.0527 22l2.9375-11.3057-.9375-1.25-4-3-4-6a1.4142 1.4142 0 0 1 2-2l4 4c1 1 2 1 5 2s3.1308 3.2373 3 5c-.666 8.9727-1 12.5557-1 12.5557"/><path fill="none" stroke="#000" stroke-linecap="round" stroke-linejoin="round" stroke-width="2" d="M19.9912 42.8479s-1.0234-2.89-2.1172-5.89c-.4316-1.1816-1.9062-1.0312-1.9062-.166v3.69m42.0644 19.4764l-2.9375-11.3057.9375-1.25 4-3 4-6a1.4142 1.4142 0 0 0-2-2l-4 4c-1 1-2 1-5 2s-3.1308 3.2373-3 5c.667 8.9727 1 12.5557 1 12.5557"/><path fill="none" stroke="#000" stroke-linecap="round" stroke-linejoin="round" stroke-width="2" d="M52.01 42.8479s1.0224-2.89 2.1162-5.89c.4306-1.1816 1.9062-1.0312 1.9062-.166v3.69M23 39.958l3-1m20.006-.146l3.438 1.146"/><path fill="none" stroke="#000" stroke-linejoin="round" stroke-width="2" d="M24.9507 30.9623c-.1015 7.999 4.9365 14 11 14 5.9365 0 11.0635-6 11.0635-14 0-5-3-11-3-11-8 0-10 3-16 1 0 0-3 5-3.0635 10z"/><path fill="none" stroke="#000" stroke-linecap="round" stroke-linejoin="round" stroke-width="2" d="M26.0142 37.9623c-3 0-4-7-4-14 0-6 5-12 14-12s14 6 14 12c0 7-1 14-4 14"/></svg>