<svg xmlns="http://www.w3.org/2000/svg" role="img" viewBox="14.14 14.14 43.59 44.59"><title>1F9D8-1F3FC.svg</title><g fill="#debb90"><circle cx="35.969" cy="19.094" r="3"/><path d="M30 32s0 10-1 13l-.543.126s-.666 1.333-6.208 3.958C20.4482 49.9365 17 53.7461 17 55.0801S28.501 57 28.501 57l.499.4141L39.4375 56l8.0635 1 4.5.4141L53.917 57 55 54.2471l-1.6641-2.1553-7.8349-4.1777-3.167-3.834-.417-12.5s1.1143 1.3262 1.709 7.8789c.3086 3.3984 2.917 6.1142 3.791 6.9551 1.6377 1.5761 6.3203 4.7509 6.7627 4.9668 1.6123.7861 3.0703-.96 2.6533-1.3809s-5.5-3.3369-5.5-3.3369l-2.25-2.166-3.0947-3.3145-.3916-5.2246-.7637-5.3789L40.5 27h-4.5312L31 27.1113l-2 1.3848-1.667 2.833-2.251 10.166-2.3789 3.7539-7.5381 5.3291s1.0176 1.96 2.96.6709c2.2666-1.5049 6.8555-4.9658 7.542-5.709 1.0019-1.0849 2.6367-4.1396 2.958-6.54.709-5.293 1.375-7 1.375-7z"/></g><g fill="none" stroke="#000" stroke-miterlimit="10" stroke-width="2"><circle cx="35.969" cy="19.094" r="3"/><path stroke-linecap="round" stroke-linejoin="round" d="M16 50l5.7959-4.1084c2.2432-1.5908 4.2471-5.1357 4.4531-7.8779l.377-5.0274c.206-2.7422 2.3994-5.4365 4.874-5.9863s6.5254-.5498 9 0 4.668 3.2441 4.874 5.9863l.377 5.0274c.206 2.7422 2.2099 6.2871 4.4531 7.8779L56 50"/><path stroke-linecap="round" stroke-linejoin="round" d="M29 46s.2246-.4355.5-.9687c.2754-.5333.5742-1.8653.665-2.962L31 32m-2 24.4541s-.6748.123-1.5.2725C26.6748 56.877 25.0996 57 24 57h-5c-1.0996 0-2-.9004-2-2h0c0-1.0996.79-2.4307 1.7559-2.958L22.5 50M41 32l.8467 11.0059c.084 1.0966.6035 2.4443 1.1533 2.9941s1.79 1.4307 2.7559 1.958l7.4882 4.084C54.21 52.5693 55 53.9004 55 55h0c0 1.0996-.9004 2-2 2h-5c-1.0996 0-2.8789-.1953-3.9521-.4336l-5.0958-1.1328c-1.0732-.2383-2.8203-.6699-3.8818-.96l-7.1406-1.9472c-1.0615-.2901-1.7803-1.2012-1.5967-2.0264.1836-.8252 1.2324-1.459 2.3311-1.4092L48.666 50"/></g></svg>