<svg xmlns="http://www.w3.org/2000/svg" role="img" viewBox="7.80 4.80 57.27 62.27"><title>269B.svg</title><g fill="#92D3F5" stroke="#92D3F5" stroke-linejoin="round" stroke-miterlimit="10"><path stroke-width="1.8" d="M28.1271 22.7636c-.3952 2.3126-.6857 4.7995-.8483 7.4259-3.3469 1.871-6.3451 3.8466-8.8669 5.8105-6.1591-4.7995-9.4596-9.5293-8.0767-12.4346 1.5689-3.3003 8.6925-3.405 17.7919-.8018zm34.5146 25.671c-1.5688 3.3004-8.6926 3.405-17.8035.8019-2.638-.7554-5.4504-1.7432-8.344-2.9518-1.3363-.5462-2.6844-1.1388-4.0441-1.7896-1.8013-.8599-3.5329-1.7548-5.1713-2.6728a85.7903 85.7903 0 0 1-.1976-5.8222c0-1.9872.0697-3.9396.1976-5.8105 1.6385-.918 3.37-1.8129 5.1713-2.6728 1.3597-.6508 2.7078-1.2551 4.0441-1.8013 1.325.5578 2.6729 1.1505 4.0325 1.8013 1.8013.8483 3.5212 1.7432 5.1598 2.6612a85.9227 85.9227 0 0 1 .1976 5.8222c0 1.9989-.0698 3.9512-.1976 5.8338 3.3585-1.8826 6.3568-3.8582 8.8785-5.8338 6.1593 4.7993 9.4597 9.5291 8.0767 12.4344z"/><path stroke-width="1.8" d="M44.8382 49.2364c-1.5456 9.3433-4.7065 15.7233-8.3556 15.7233-3.6489 0-6.8098-6.38-8.3555-15.7233 2.6496-.7554 5.4619-1.7432 8.3671-2.9518 2.8937 1.2087 5.706 2.1964 8.344 2.9518zm0-26.4728c-2.638.7554-5.4504 1.7432-8.344 2.9518-2.9053-1.2086-5.7175-2.1964-8.3671-2.9518 1.5573-9.3433 4.7066-15.7233 8.3555-15.7233 3.6492-.0001 6.7985 6.3799 8.3556 15.7233z"/><path stroke-width="2" d="M36.4942 25.7154c-1.3363.5462-2.6844 1.1505-4.0441 1.8013-1.8013.8599-3.5329 1.7548-5.1713 2.6728.1626-2.6264.4531-5.1133.8483-7.4259 2.6496.7554 5.4619 1.7431 8.3671 2.9518z"/><path stroke-width="2" d="M45.8842 36c0 1.9989-.0698 3.9512-.1976 5.8338-.1627 2.6147-.4532 5.1016-.8483 7.4026-2.638-.7554-5.4504-1.7432-8.344-2.9518-1.3363-.5462-2.6844-1.1388-4.0441-1.7896-1.8013-.8599-3.5329-1.7548-5.1713-2.6728A85.7903 85.7903 0 0 1 27.0813 36c0-1.9872.0697-3.9396.1976-5.8105 1.6385-.918 3.37-1.8129 5.1713-2.6728 1.3597-.6508 2.7078-1.2551 4.0441-1.8013 1.325.5578 2.6729 1.1505 4.0325 1.8013 1.8013.8483 3.5212 1.7432 5.1598 2.6612.1278 1.8825.1976 3.8233.1976 5.8221z"/><path stroke-width="2" d="M36.4942 46.2846c-2.9053 1.2086-5.7175 2.1964-8.3671 2.9518-.3952-2.301-.6857-4.7995-.8483-7.4143 1.6385.918 3.37 1.8129 5.1713 2.6728 1.3597.6509 2.7078 1.2436 4.0441 1.7897z"/><path stroke-width="1.8" d="M28.1271 49.2364c-9.111 2.6031-16.223 2.4869-17.792-.8019-1.3828-2.9052 1.9177-7.635 8.0768-12.4345 2.5218 1.9756 5.52 3.9512 8.8669 5.8222.1625 2.6147.4531 5.1132.8483 7.4142z"/><path stroke-width="2" d="M27.0812 36c0 1.9989.0697 3.9396.1976 5.8222-3.3469-1.871-6.3451-3.8466-8.8669-5.8222 2.5218-1.964 5.52-3.9396 8.8669-5.8105-.128 1.8709-.1976 3.8233-.1976 5.8105zm18.6054-5.8222c-1.6386-.918-3.3585-1.8129-5.1598-2.6612-1.3596-.6508-2.7075-1.2435-4.0325-1.8013 2.8936-1.2086 5.706-2.1964 8.344-2.9518.395 2.3011.6855 4.7996.8483 7.4143z"/><path stroke-width="1.8" d="M54.5651 36c-2.5217-1.964-5.52-3.9396-8.8785-5.8222-.1627-2.6147-.4532-5.1132-.8483-7.4143 9.1109-2.6031 16.2346-2.4985 17.8035.8019 1.3829 2.9053-1.9175 7.6351-8.0767 12.4346z"/><path stroke-width="2" d="M45.6866 41.8338c.1278-1.8826.1976-3.8349.1976-5.8338 0-1.9988-.0698-3.9396-.1976-5.8222 3.3585 1.8826 6.3568 3.8582 8.8785 5.8222-2.5217 1.9756-5.52 3.9512-8.8785 5.8338z"/><path stroke-width="2" d="M45.8842 36c0 1.9989-.0698 3.9512-.1976 5.8338-1.6386.918-3.3585 1.8129-5.1598 2.6612-1.3596.6391-2.7075 1.2435-4.0325 1.7896-1.3363-.5462-2.6844-1.1388-4.0441-1.7896-1.8013-.8599-3.5329-1.7548-5.1713-2.6728A85.7903 85.7903 0 0 1 27.0813 36c0-1.9872.0697-3.9396.1976-5.8105 1.6385-.918 3.37-1.8129 5.1713-2.6728 1.3597-.6508 2.7078-1.2551 4.0441-1.8013 1.325.5578 2.6729 1.1505 4.0325 1.8013 1.8013.8483 3.5212 1.7432 5.1598 2.6612.1278 1.8825.1976 3.8233.1976 5.8221z"/></g><g fill="none" stroke="#000" stroke-miterlimit="10" stroke-width="2"><path stroke-linejoin="round" d="M18.4119 36c-6.1591-4.7995-9.4596-9.5293-8.0767-12.4346 1.569-3.3004 8.6926-3.405 17.792-.8019M54.5651 36c6.1592 4.7995 9.4596 9.5293 8.0766 12.4346-1.5688 3.3004-8.6926 3.405-17.8035.8019-2.638-.7554-5.4504-1.7432-8.344-2.9518-1.3363-.5462-2.6844-1.1388-4.0441-1.7896-1.8013-.8599-3.5329-1.7548-5.1713-2.6728"/><path stroke-linecap="round" stroke-linejoin="round" d="M44.0918 53c-1.6996 7.2511-4.4743 11.9598-7.6092 11.9598-3.6489 0-6.8098-6.38-8.3555-15.7233l-.4842-2.3455m1.2842-28.1015c1.7085-7.1316 4.4512-11.7492 7.5555-11.7492 3.6492 0 6.7985 6.38 8.3556 15.7233"/><path stroke-linejoin="round" d="M28.1271 22.7636c2.6496.7554 5.4619 1.7432 8.3671 2.9518m8.344 23.521c-2.638-.7554-5.4504-1.7432-8.344-2.9518-1.3363-.5462-2.6844-1.1388-4.0441-1.7896-1.8013-.8599-3.5329-1.7548-5.1713-2.6728"/><path stroke-linecap="round" stroke-linejoin="round" d="M45.8683 34.3501c.0105.5455.0159 1.0955.0159 1.6499 0 1.9989-.0698 3.9512-.1976 5.8338-.0533.8571-.1204 1.7004-.2004 2.528m-21.7679 5.9548c-6.9369 1.3942-12.078.8539-13.3832-1.882-1.1056-2.3228.7824-5.8117 4.7314-9.5702"/><path stroke-linejoin="round" d="M27.1335 41.7408C23.8451 39.8939 20.8971 37.947 18.4119 36m8.8669 5.8222c-.0485-.0271-.097-.0543-.1453-.0814"/><path stroke-linecap="round" stroke-linejoin="round" d="M44.8382 22.7636c.1379.803.263 1.63.3744 2.4777m3.9183-3.535c6.9986-1.4263 12.1984-.9018 13.5108 1.8591 1.0638 2.2348-.6435 5.5491-4.2915 9.1443M54.5651 36c-2.5217-1.964-5.52-3.9396-8.8785-5.8222"/><path stroke-linejoin="round" d="M45.6866 30.1778c3.3585 1.8826 6.3568 3.8582 8.8785 5.8222"/><path stroke-linecap="round" stroke-linejoin="round" d="M41.666 43.947a40.6874 40.6874 0 0 1-.8578.4148"/><path stroke-linejoin="round" d="M36.4942 25.7154c1.325.5578 2.6729 1.1505 4.0325 1.8013 1.8013.8483 3.5212 1.7432 5.1598 2.6612"/><path stroke-linecap="round" stroke-linejoin="round" d="M27.0903 36.7225c-.0061-.5548-.0092-1.1129-.0092-1.6746 0-2.6514.0697-5.2563.1976-7.7526"/><path stroke-linejoin="round" d="M36.4942 46.2846c-1.3363-.5462-2.6844-1.1388-4.0441-1.7896-1.8013-.8599-3.5329-1.7548-5.1713-2.6728"/><circle cx="36.826" cy="36.327" r="3.263"/><path stroke-linecap="round" stroke-linejoin="round" d="M31.61 48.3635s.3376-.0601.9707-.3281m17.121-8.0687s1.4042-.8972 1.6463-1.1023M31.7066 27.2953c-.2829.143-.5659.2907-.8485.4432m-8.6367 5.029s.2273-.2384.8141-.5891m16.717-8.9765s1.6145-.5904 1.9449-.6609"/></g></svg>