<svg xmlns="http://www.w3.org/2000/svg" role="img" viewBox="13.91 9.66 44.05 56.68"><title>1F530.svg</title><g id="color"><path fill="#fcea2b" d="M17 12.007L16 48.007 35 64.007 35 24.007 17 12.007z"/><path fill="#5c9e31" d="M55 12.007L56 48.007 37 64.007 37 24.007 55 12.007z"/></g><g id="line" fill="none" stroke="#000" stroke-linecap="round" stroke-miterlimit="10" stroke-width="2"><path d="M17.6769 12.0972c-.9223-.6-1.6769-.19-1.6769.91v34a4.7349 4.7349 0 0 0 1.56 3.2518L34.3788 63.7555a2.6239 2.6239 0 0 0 3.1235.0047L54.4364 50.2543A4.7148 4.7148 0 0 0 56 47.0072v-34c0-1.1-.7546-1.5095-1.6769-.91l-16.6462 10.82a3.3519 3.3519 0 0 1-3.3538 0zM36 24.007L36 64.007"/></g></svg>