<svg xmlns="http://www.w3.org/2000/svg" role="img" viewBox="14.55 7.18 53.52 55.77"><title>1F468-1F3FE-200D-1F4BC.svg</title><g id="color"><path fill="#9B9B9A" d="M17.298,58.8535c0,0-2-13.8,10-13.8c3.1918,2.1279,5.9264,3.5984,9,3.5921h-0.125 c3.0736,0.0063,5.3081-2.6642,8.5-4.7921c13.3136,0,10.9,15,10.9,15"/><path fill="#D0CFCE" d="M36.613 54.207L39.028 58.752 45.4 44.136 51.857 53.92 40.7 58.051"/><path fill="#FFF" d="M38.507,57.7426c-0.5976,1.0349-4.8914,1.0349-5.489,0l-1.842-2.4101l-3.3864-8.7387l7.9729,2.7l7.573-2.7 l-3.2865,8.7387L38.507,57.7426z"/><path fill="#D0CFCE" d="M65.729,58.4861H50.2443V38.6837h15.2709c0.1181,0,0.2138,0.0957,0.2138,0.2138V58.4861z"/><path fill="#FFF" d="M62.6179,60.9619H48.0103V42.0102h10.753c2.1288,0,3.8546,1.7257,3.8546,3.8545 C62.6179,45.8647,62.6179,60.9619,62.6179,60.9619z"/><path fill="#3F3F3F" d="M33.4552,48.5348c0,0-1.2063,6.0215,2.3073,6.0215s2.3073-6.0215,2.3073-6.0215"/><path fill="#3F3F3F" d="M35.0163,54.8799c0.3249-0.5627,1.137-0.5627,1.4619,0l1.1645,2.0171l1.8956,1.9831h-3.7911h-3.791 l1.8955-1.9831L35.0163,54.8799z"/><path fill="#D0CFCE" d="M34.912 54.556L32.497 57.801 26.825 44.886 22.868 53.37 32.325 57.801"/></g><g id="hair"><path d="M27.3738,18.7874c0,0,10.1357,7.9589,10.5113,2.439c0,0,5.3353,3.8061,9.0176,3.8064 c6.4331,0.0005-0.131-12.4794-11.1402-15.1193c-3.1441-0.7528-9.8929-1.7551-9.8929,4.4592c0,0-7.6176,4.2314-1.3233,12.5495 l0.0911-0.3328C24.9505,23.5099,27.3738,18.7874,27.3738,18.7874z"/></g><g id="skin"><path fill="#a57939" d="M27.3296,19.0923c-1.7336,2.4893-2.7833,5.7423-2.7833,9.3018c0,7.8277,5.0765,14.1732,11.3386,14.1732 c6.2622,0,11.3386-6.3455,11.3386-14.1732c0-1.1581-0.1111-2.2838-0.3208-3.3613c-2.9944-0.3097-6.0012-1.6571-9.0176-3.8064 C37.7269,24.9825,33.1052,22.8045,27.3296,19.0923z"/></g><g id="line"><path fill="none" stroke="#000" stroke-linecap="round" stroke-linejoin="round" stroke-miterlimit="10" stroke-width="2" d="M24.6238,26.7277c-0.0512,0.5466-0.0775,1.1026-0.0775,1.6664c0,7.8277,5.0765,14.1732,11.3386,14.1732 c6.2622,0,11.3386-6.3455,11.3386-14.1732c0-1.1581-0.1111-2.2838-0.3208-3.3613"/><path d="M41.8851 27.0333c0 1.1045-.8965 2-2 2s-2-.8955-2-2c0-1.1035.8965-2 2-2S41.8851 25.9298 41.8851 27.0333M33.8851 27.0333c0 1.1045-.8965 2-2 2s-2-.8955-2-2c0-1.1035.8965-2 2-2S33.8851 25.9298 33.8851 27.0333M35.8849 37.0357c-1.1518 0-2.3037-.2861-3.4472-.8579-.4942-.2471-.6944-.8477-.4473-1.3418.2466-.4936.8462-.6943 1.3418-.4473 1.7178.8594 3.3877.8594 5.1055 0 .4946-.247 1.0947-.0463 1.3418.4473.247.4941.0468 1.0947-.4473 1.3418C38.1886 36.7496 37.0368 37.0357 35.8849 37.0357z"/><path fill="none" stroke="#000" stroke-linecap="round" stroke-linejoin="round" stroke-miterlimit="10" stroke-width="2" d="M62.618 60.962L48.01 60.962 48.01 42.326 59.836 42.326 59.836 44.438 62.618 44.438z"/><path fill="none" stroke="#000" stroke-linecap="round" stroke-linejoin="round" stroke-miterlimit="10" stroke-width="2" d="M51.214 38.863L66.04 38.863 66.04 57.499M59.836 42.326L62.618 44.438M50.955 48.535L59.388 48.535M50.955 52.631L59.388 52.631M50.955 56.215L59.388 56.215M33.4552 48.5348c0 0-1.2063 6.0215 2.3073 6.0215s2.3073-6.0215 2.3073-6.0215M44.7 55.629L38.96 57.807M27.3738 18.7874c0 0 10.1357 7.9589 10.5113 2.439 0 0 5.3353 3.8061 9.0176 3.8064 6.4331.0005-.131-12.4794-11.1402-15.1193-3.1441-.7528-9.8929-1.7551-9.8929 4.4592 0 0-7.6176 4.2314-1.3233 12.5495l.0911-.3328C24.9505 23.5099 27.3738 18.7874 27.3738 18.7874z"/><path fill="none" stroke="#000" stroke-linecap="round" stroke-linejoin="round" stroke-miterlimit="10" stroke-width="2" d="M16.825,57.8861c0,0-2-13,10-13c3.1919,2.1279,5.9264,3.5984,9,3.5921H35.7c3.0736,0.0063,5.8081-1.4642,9-3.5921"/><path fill="none" stroke="#000" stroke-linecap="round" stroke-linejoin="round" stroke-miterlimit="10" stroke-width="2" d="M34.912 54.556L32.497 57.801 26.825 44.886 22.868 53.37 32.325 57.801zM44.7 44.886L39.028 57.801 36.613 54.556"/></g></svg>