<svg xmlns="http://www.w3.org/2000/svg" role="img" viewBox="10.00 10.00 52.00 52.00"><title>1F237.svg</title><path fill="#d0cfce" d="M13.7 12h44.7a1.6855 1.6855 0 0 1 1.7 1.7v44.7a1.6855 1.6855 0 0 1-1.7 1.7H13.7a1.6855 1.6855 0 0 1-1.7-1.7V13.7a1.6275 1.6275 0 0 1 1.7-1.7z"/><g fill="none" stroke="#000" stroke-width="2"><path stroke-miterlimit="10" d="M13.7 12h44.7a1.6855 1.6855 0 0 1 1.7 1.7v44.7a1.6855 1.6855 0 0 1-1.7 1.7H13.7a1.6855 1.6855 0 0 1-1.7-1.7V13.7a1.6275 1.6275 0 0 1 1.7-1.7z"/><path stroke-linecap="round" stroke-linejoin="round" d="M25 39h22m-22-9h22m-22-9h22m-22 0v18c0 5-1 9-4 12m26-30v28a2.0059 2.0059 0 0 1-2 2h-6"/></g></svg>