<svg xmlns="http://www.w3.org/2000/svg" role="img" viewBox="8.95 8.57 53.98 54.73"><title>1F45B.svg</title><path fill="#d0cfce" d="M14.5371 29.8485V24.594s11.7262-1.1745 21.4627-1.1745 21.4784 1.1745 21.4784 1.1745v5.2545"/><path fill="#8967aa" d="M36 27.8933H18.2944C18.2944 38.8402 11 41.9357 11 48.999s11.1929 12.2992 25 12.2992 25-5.2359 25-12.2992-7.2944-10.1588-7.2944-21.1057H36z"/><path fill="#b399c8" d="M44.0272 27.8933s9.6056 8.8358 5.9753 30.2374C49.7215 59.7873 61 53.4135 61 48.999c0-7.0633-7.2944-10.1588-7.2944-21.1057h-9.6784"/><circle cx="37.692" cy="14.942" r="3.937" fill="#d0cfce"/><circle cx="33.012" cy="13.702" r="3" fill="#d0cfce"/><path fill="#d0cfce" d="M38.5215 12.0002c1.5921.4585 2.5111 2.1209 2.0526 3.7131-.4585 1.5922-2.1209 2.5111-3.7131 2.0526"/><g fill="none" stroke="#000" stroke-linecap="round" stroke-linejoin="round" stroke-width="2"><path d="M36 27.8933H18.2944C18.2944 38.8402 11 41.9357 11 48.999s11.1929 12.2992 25 12.2992 25-5.2359 25-12.2992-7.2944-10.1588-7.2944-21.1057H36z"/><path d="M14.5371 28.8933v-4.4738s11.7262-1 21.4627-1 21.4784 1 21.4784 1v4.4738M18.699 20.362h6.254l3.402-2.966m21.746 2.966h-6.254l-1.701-1.483"/><circle cx="33.012" cy="13.702" r="3"/><path d="M38.5215 12.0002c1.5921.4585 2.5111 2.1209 2.0526 3.7131-.4585 1.5922-2.1209 2.5111-3.7131 2.0526M36 27.8933H18.2944C18.2944 38.8402 11 41.9357 11 48.999s11.1929 12.2992 25 12.2992 25-5.2359 25-12.2992-7.2944-10.1588-7.2944-21.1057H36z"/></g></svg>