<svg xmlns="http://www.w3.org/2000/svg" role="img" viewBox="3.13 17.88 64.74 37.49"><title>E006.svg</title><path fill="#d0cfce" fill-rule="evenodd" d="M37.697 29.799c-3.533-.031-6.538.932-8.636 3.691-1.053-.784-2.237-1.578-3.659-2.363-7.698-4.251-13.449 2.927-10.353 8.187.688 1.17 1.393 2.2 2.121 3.108-2.888 1.912-4.095 5.092-4.455 8.947-.121 1.293 1.395 2.18 2.564 1.688 3.387-.86 6.391-5.045 4.891-7.528l-.076-.197c6.632 5.118 15.503 3.039 30.677 2.045 1.359-.089 2.764.048 4.258.934 4.454 3.044 7.648 2.358 10.614-.061-3.705.026-4.531-2.606-5.705-4.121-.708-.851-2.356-.874-3.211-1.039.425-.474.987-1.12 1.136-2.035.372-2.275-2.593-4.281-1.902-6.754.262-.522.325-.846.248-1.022-.021-.047-.054-.084-.094-.111-.603-.4-3.26 1.428-4.078 2.176-2.236 2.042.904 6.506-3.09 6.683-9.966.443-12.658-2.247-16.543-5.748 2.226 1.731 6.725-.454 8.143-3.578.691-1.063.085-2.713-1.209-2.822-.559-.047-1.105-.076-1.641-.08z"/><g fill="none" stroke="#000" stroke-linecap="round" stroke-linejoin="round" stroke-width="2"><path d="M15.888 31.573L5.405 20.201m27.398 16.431c3.6936 3.3355 6.4959 5.8242 16.144 5.3955 3.9938-.17741.85426-4.6415 3.0901-6.6835.81828-.74732 3.4747-2.5759 4.0777-2.1759.0402.0266.072.0635.0928.11082.0768.17521.0132.49928-.24849 1.0206-.69049 2.4736 2.2739 4.4802 1.9027 6.7544-.1494.91522-.70981 1.5619-1.1357 2.0359.85588.1648 2.5031.18754 3.2106 1.0387 1.1743 1.5149 2 4.1472 5.7048 4.1214-2.9652 2.4194-6.159 3.1053-10.613.0607-1.4945-.88589-2.8986-1.0241-4.2574-.93508-14.778.96833-23.977 2.7808-30.553-1.8429M17.191 42.404c-.767-.941-1.419-1.862-2.141-3.089-3.0961-5.2608 2.6554-12.438 10.354-8.1869 1.3388.73932 2.4799 1.4873 3.4869 2.2268"/><path d="M17.281 42.342c-2.9723 1.9034-4.202 5.1206-4.5667 9.0274-.12068 1.2926 1.3955 2.1803 2.5643 1.6878 3.387-.86001 6.3923-5.0451 4.8918-7.5275M29.03 33.52c2.4163-3.2068 6.0504-4.0013 10.309-3.6415 1.2936.10928 1.8998 1.7583 1.2088 2.8218-1.4441 3.1822-6.0938 5.4018-8.2725 3.4869"/></g></svg>