<svg xmlns="http://www.w3.org/2000/svg" role="img" viewBox="8.84 2.84 54.20 60.32"><title>1F9F8.svg</title><path fill="#6a462f" d="M30.5611 10.066a7.5009 7.5009 0 1 0-8.9647 9.7881zm19.843 9.7882a7.5008 7.5008 0 1 0-8.9641-9.7893z"/><path fill="#a57939" d="M52.5669 42.4826a16.0121 16.0121 0 0 0-5.1145-7.3526 15.9551 15.9551 0 1 0-22.8492.0627 15.9518 15.9518 0 0 0-5.0468 7.3114c4.1889.5944 6.8444 4.7164 6.8444 9.638 0 5.33-2.7746 6.3213-2.7746 6.3213a29.5176 29.5176 0 0 0 12.373 2.8993c3.43 0 7.4815-1.2495 12.041-3.2844 0 0-2.41-.6062-2.41-5.9362-.0002-4.9703 2.6879-9.1289 6.9367-9.6595z"/><path fill="#6a462f" d="M36 39.9478c-4.6338 0-8.4033-3.1475-8.4033-7.0166S31.3664 25.9136 36 25.9136s8.4033 3.1484 8.4033 7.0176S40.634 39.9478 36 39.9478z"/><path fill="#3f3f3f" d="M36 32.7866h-.0059a.788.788 0 0 1-.0693-.0029l-.0019-.001h-.0079a.848.848 0 0 1-.1455-.0273c-.1582-.043-3.8808-1.09-3.8808-3.97 0-1.6407 1.24-2.68 3.3174-2.7793l1.3007-.0079c2.2608.0176 3.6036 1.0586 3.6036 2.7872 0 2.88-3.7227 3.9267-3.8809 3.97a.8573.8573 0 0 1-.1387.0263h-.0039l-.0019.001c-.0264.002-.0528.0039-.08.0039H36z"/><path fill="#6a462f" d="M18.5 61.8076c-4.6865 0-8.5-4.3359-8.5-9.666s3.8135-9.665 8.5-9.665 8.5 4.3359 8.5 9.665-3.8133 9.666-8.5 9.666zm35 0c-4.6865 0-8.5-4.3359-8.5-9.666s3.8135-9.665 8.5-9.665 8.5 4.3359 8.5 9.665-3.8133 9.666-8.5 9.666z"/><g><path d="M30 22.0343a2 2 0 1 0 2-2 2.0007 2.0007 0 0 0-2 2m8 0a2 2 0 1 0 2-2 2.0007 2.0007 0 0 0-2 2"/><path fill="none" stroke="#000" stroke-linecap="round" stroke-linejoin="round" stroke-width="2" d="M32.7621 34.1416a4.9971 4.9971 0 0 0 6.4747.0009"/><path fill="none" stroke="#000" stroke-miterlimit="10" stroke-width="2" d="M21 24.0448a15 15 0 1 0 15-15 15.0055 15.0055 0 0 0-15 15m9.5611-13.9788a7.5009 7.5009 0 1 0-8.9647 9.7881M11 52.142c0 4.7856 3.3619 8.6656 7.5 8.6656s7.5-3.88 7.5-8.6656c0-4.7813-3.3619-8.6656-7.5-8.6656S11 47.3607 11 52.142m35 0c0 4.7856 3.3619 8.6656 7.5 8.6656s7.5-3.88 7.5-8.6656c0-4.7813-3.3619-8.6656-7.5-8.6656S46 47.3607 46 52.142"/><path fill="none" stroke="#000" stroke-linecap="round" stroke-miterlimit="10" stroke-width="2" d="M14.4143 53.4248a4.0015 4.0015 0 0 0 4 4m35.5857 0a4.0015 4.0015 0 0 0 4-4"/><path fill="none" stroke="#000" stroke-miterlimit="10" stroke-width="2" d="M28.5 32.931c0 3.3763 3.3619 6.1138 7.5 6.1138s7.5-2.7375 7.5-6.1138c0-3.3732-3.3618-6.1137-7.5-6.1137s-7.5 2.7405-7.5 6.1137m21.9041-13.0768a7.5008 7.5008 0 1 0-8.9641-9.7893"/><path fill="none" stroke="#000" stroke-linecap="round" stroke-linejoin="round" stroke-width="2" d="M36 32.333v3m0-3.4199s-3.2374-.881-3.2374-3.1277c0-1.5446 1.53-1.8607 2.4865-1.9074l1.2638-.0068c.9127.0072 2.7249.2332 2.7249 1.9142 0 2.2467-3.2373 3.1277-3.2373 3.1277m-15.7182 11.812c1.1282-5.2329 5.8479-8.3926 5.8479-8.3926m19.8698 0s4.6611 3.1205 5.8264 8.2952m-26.8748-1.6783L28.5 48.01a3.22 3.22 0 0 0 4.2578 1.3235h0a3.22 3.22 0 0 0 1.4263-4.3471l-1.0163-1.9848m14.267-1.0522l-3.791 6.0606a3.22 3.22 0 0 1-4.2578 1.3235h0a3.22 3.22 0 0 1-1.426-4.3468l1.0163-1.9848M24.2861 58.0782s9.4536 6.5808 23.4278 0"/></g></svg>