<svg xmlns="http://www.w3.org/2000/svg" role="img" viewBox="18.71 10.08 35.84 54.21"><title>E0A9.svg</title><circle cx="36.446" cy="28.864" r="7.225" fill="#fff"/><path fill="#d22f27" d="M52.5733 29.11c0-9.3149-7.1338-16.8923-15.9034-16.8923S20.7665 19.795 20.7665 29.114c.0027.4653.2238 11.6088 12.9612 31.2452.5334 1.0956 1.6033 1.8302 2.8174 1.9343 1.8394 0 3.0941-2.0266 3.2162-2.2327C52.58 40.4135 52.58 29.5534 52.5733 29.11zM36.67 35.9135c-3.9116 0-7.0826-3.171-7.0826-7.0826s3.171-7.0826 7.0826-7.0826 7.0826 3.171 7.0826 7.0826c-.0045 3.9098-3.1728 7.0781-7.0826 7.0826z"/><path fill="#ea5a47" d="M52.5733 29.11c0-9.3149-7.1338-16.8923-15.9034-16.8923a14.9624 14.9624 0 0 0-3.8645.5254c8.3948.4493 15.0989 7.8225 15.0989 16.849.0068.4436.0068 11.3036-12.812 30.9509a5.84685 5.84685 0 0 1-.5865.7972 2.855 2.855 0 0 0 2.0393.9534c1.8394 0 3.0941-2.0266 3.2162-2.2327C52.58 40.4135 52.58 29.5534 52.5733 29.11z"/><g fill="none" stroke="#000" stroke-linecap="round" stroke-linejoin="round" stroke-width="2"><path d="M36.5451 62.2935c-1.2141-.1042-2.284-.8387-2.8174-1.9343C20.99 40.7228 20.7692 29.5793 20.7665 29.114c0-9.3191 7.1337-16.8964 15.9034-16.8964S52.5733 19.7949 52.5733 29.11c.0068.4436.0068 11.3036-12.812 30.9509-.1221.206-1.3768 2.2326-3.2162 2.2326z"/><path d="M36.67 35.9135c-3.9116 0-7.0826-3.1711-7.0825-7.0827 0-3.9116 3.1711-7.0826 7.0827-7.0825 3.9116 0 7.0825 3.171 7.0825 7.0826-.0044 3.9098-3.1729 7.0782-7.0827 7.0826z"/></g></svg>