<svg xmlns="http://www.w3.org/2000/svg" role="img" viewBox="8.90 9.27 57.46 53.34"><title>1F509.svg</title><g id="color"><path fill="#9b9b9a" d="M12.0792,44.4113v-16.694c0-1.1046,0.8955-2,2-2h11.712v20.692h-11.712 C12.9754,46.4093,12.0803,45.5151,12.0792,44.4113z"/><path fill="#d0cfce" d="M42.2682,58.4333l-14.5-11.579c0.036-0.0961,0.0566-0.1974,0.061-0.3v-21.25 c-0.0055-0.0394-0.0135-0.0785-0.024-0.117l14.459-11.74L42.2682,58.4333z"/></g><g id="line" fill="none" stroke="#000" stroke-linecap="round" stroke-width="2"><path stroke-linejoin="round" d="M43.2188 11.3752l-16.435 13.346h-12.712c-1.6548.005-2.995 1.3452-3 3v16.692c.005 1.6548 1.3452 2.995 3 3h12.712l16.436 13.128L43.2188 11.3752zM26.784 25.333L26.784 46.583"/><path stroke-miterlimit="10" d="M54.6738 24.6122c5.0427 6.7235 5.0427 15.9684 0 22.692M58.8689 19.7825c7.1892 9.5856 7.1892 22.7658 0 32.3514"/></g></svg>