<svg xmlns="http://www.w3.org/2000/svg" role="img" viewBox="9.88 10.25 52.00 51.75"><title>1F4C6.svg</title><path fill="#fff" d="M11.997 27.9165v32.1753l31.6594-.0054 16.489-11.9V28.0918l-48.1484-.1753z"/><path fill="#ea5a47" d="M19.2073 18.736c.0059-.6514-.7503-2.3148-.4458-2.8811-.1466-.5021 1.6993-3.5815 1.6993-3.5815H12l-.003 15 48.1484.305L60 12.2734l-6.6506-.375-1.9644 3.4982c.3652 1.0116.6716 1.8772.7819 2.139.3596.5433.7323 3.2262.7323 3.2264-.0197 1.9187-2.6538 2.2379-2.9272 2.2379-2.4384-.3664-2.7436-2.0798-2.7231-4.2859.0058-.6514-.3112-2.6719-.307-2.7145.0141-.1445 1.5385-3.7261 1.5385-3.7261H25.5657l-2.2003 3.1232c.3652 1.0116 1.6155 4.6319 1.6155 4.6321-.0205 2.1914-1.2224 2.7459-3.0285 2.9712-1.8061.2253-2.7656-2.0578-2.7451-4.2639z"/><path fill="#d0cfce" d="M60.1454 48.1864l-17.2117-.3533s.7574 3.9405.2047 3.9405c-.502 0-.8989 2.3688-.9709 1.8871v5.9346l1.6823-.0774 16.2956-11.3315z"/><g fill="none" stroke="#000" stroke-linecap="round" stroke-linejoin="round" stroke-width="2"><path d="M53.349 12.273H60v16H12v-16h8.461m5.105 0H48.48"/><path d="M53.3494 12.2752l-1.9644 3.1214s.9936 2.767 1.0851 2.8995c.3399.4916.5366 1.0894.5304 1.7326-.0158 1.6567-1.3717 2.987-3.0285 2.9712-1.6568-.0159-2.987-1.3718-2.9712-3.0286.006-.6212.2003-1.1966.5284-1.6723.0816-.1184-.9091-2.9024-.9091-2.9024l1.8603-3.1332m-23.1506.0118l-1.9644 3.1214s.9936 2.767 1.0851 2.8995c.3399.4916.5366 1.0894.5304 1.7326-.0158 1.6567-1.3717 2.987-3.0285 2.9712-1.6568-.0159-2.987-1.3718-2.9712-3.0286.006-.6212.2003-1.1966.5284-1.6723.0816-.1184-.9091-2.9024-.9091-2.9024l1.8603-3.1332M34.3355 38.092c.5248-2.5644 2.7937-4.4936 5.5134-4.4936h0c1.5539 0 2.9609.63 3.9793 1.6484 1.5843 1.5842 1.438 4.2167-.0484 5.8928l-9.5586 10.7799h4.7601M23.276 37.398l5.073-3.8v18.321"/><path d="M11.997 28.092v32l31.659-.006 16.341-12.048V28.092"/><path d="M59.746 48.038H43.138v5.479"/></g></svg>