<svg xmlns="http://www.w3.org/2000/svg" role="img" viewBox="18.62 9.87 34.76 52.13"><title>1F5B1.svg</title><path fill="#d0cfce" d="M38.41 11.95h-4.821c-7.25 0-13.18 4.932-13.18 12.18v23.74c0 7.25 5.932 12.18 13.18 12.18h4.821c7.25 0 13.18-4.932 13.18-12.18V24.13c-.0001-7.25-5.932-12.18-13.18-12.18z"/><path fill="#3f3f3f" d="M36.15 17.93h-.3082c-1.407 0-2.558 1.151-2.558 2.558v7.94c0 1.407 1.151 2.558 2.558 2.558h.3082c1.407 0 2.558-1.151 2.558-2.558v-7.94c0-1.407-1.151-2.558-2.558-2.558z"/><path fill="#9b9b9a" d="M34.79 12.79c3.959 1.699 7.723 4.137 8.161 10.3.5077 7.135-2.133 20.5-2.982 27.28-.5935 4.745-2.3281 6.4477-5.4441 8.9377-1.571 1.256 6.7008.6745 10.1818-1.3614 2.989-1.747 3.9726-3.4222 5.7914-6.5333l.1283-30.0929s-1.225-9.075-11.2-9.078c0 0-10.01-.5155-4.635.5512l-.0014-.0034z"/><g fill="none" stroke="#000" stroke-linecap="round" stroke-linejoin="round" stroke-width="2"><path d="M36.26 31.12h-.5181c-1.37 0-2.49-1.115-2.49-2.478v-8.126c0-1.363 1.121-2.478 2.49-2.478h.5181c1.37 0 2.49 1.115 2.49 2.478v8.126c0 1.363-1.121 2.478-2.49 2.478z"/><path d="M39.61 60.05h-7.215c-6.475 0-11.77-5.263-11.77-11.7V23.64c0-6.432 5.298-11.7 11.77-11.7h7.215c6.475 0 11.77 5.263 11.77 11.7v24.71c0 6.432-5.298 11.7-11.77 11.7z"/></g></svg>