<svg xmlns="http://www.w3.org/2000/svg" role="img" viewBox="14.70 7.45 54.47 52.34"><title>1F9D1-1F3FD-200D-1F3A4.svg</title><g id="color"><path fill="#FFF" d="M54.7775,58.5922c0,0,2-13.7973-10-13.7973c-3.1919,2.1192-5.9264,3.5837-9,3.5775h0.125 c-3.0736,0.0062-5.8082-1.4583-9-3.5775c-12,0-10,13.7973-10,13.7973"/><path fill="#61B2E4" d="M26.9025 44.7949c-12 0-10 13.9674-10 13.9674h15.8934C32.7959 58.7623 28.3745 55.4976 26.9025 44.7949M44.7775 44.7949c12 0 10 13.9674 10 13.9674h-15.748C39.0295 58.7623 44.4519 51.319 44.7775 44.7949"/><path fill="#92D3F5" d="M33.5327,48.2842c0,0-1.2063,6.0214,2.3073,6.0214c3.5135,0,2.3072-6.0214,2.3072-6.0214"/><path fill="#9B9B9A" d="M59.386 38.782H63.386V49.211999999999996H59.386z" transform="rotate(-45.001 61.386 43.997)"/><circle cx="54.662" cy="37.461" r="4" fill="#D0CFCE"/><path fill="#92D3F5" d="M34.9896 54.4882l-2.4152 3.6378c-3.6298-1.7539-5.6719-12.9622-5.6719-12.9622l-5.1046 6.9347 2.974 1.842-.9985 3.1134 8.8689 1.0721M35.679 54.096L37.469 56.706 38.976 58.75 32.665 58.75 34.172 56.706zM36.6904 54.4882l2.4151 3.6378c3.6298-1.7539 5.672-12.9622 5.672-12.9622l5.1045 6.9347-2.974 1.842.9985 3.1134-8.8689 1.0721"/></g><g id="hair"><path fill="#6a462f" d="M26,35.0808c-4,0-4-4.5-4-11.5s4-14,14-14s14,7,14,14s0,11.5-4,11.5"/></g><g id="skin"><path fill="#c19a65" d="M24.9365,28.5808c0,9,4.9365,14,11,14c5.9365,0,11.0635-5,11.0635-14c0.0245-1.7187-0.3164-3.4229-1-5 c-3-3-7-8-7-8c-4,3-7,6-13,7.0005C26,22.5808,24.9365,23.58,24.9365,28.5808z"/></g><g id="line"><circle cx="54.662" cy="37.461" r="4" fill="none" stroke="#000" stroke-linecap="round" stroke-linejoin="round" stroke-miterlimit="10" stroke-width="2"/><path fill="none" stroke="#000" stroke-linecap="round" stroke-linejoin="round" stroke-miterlimit="10" stroke-width="2" d="M65.091 47.667L67.138 49.714M58.893 44.664L58.893 57.864M33.5327 48.0978c0 0-1.2063 6.0215 2.3073 6.0215 3.5135 0 2.3072-6.0215 2.3072-6.0215"/><path fill="none" stroke="#000" stroke-linecap="round" stroke-linejoin="round" stroke-miterlimit="10" stroke-width="2" d="M34.9896 54.1193l-2.4152 3.6377c-3.6298-1.7538-5.6719-12.9621-5.6719-12.9621l-5.1046 6.9346 2.974 1.842-.9985 3.1134 8.8689 1.0721zM36.6904 54.1193l2.4151 3.6377c3.6298-1.7538 5.672-12.9621 5.672-12.9621l5.1045 6.9346-2.974 1.842.9985 3.1134-8.8689 1.0721z"/><path fill="none" stroke="#000" stroke-linecap="round" stroke-linejoin="round" stroke-miterlimit="10" stroke-width="2" d="M16.9025,57.7949c0,0-2-13,10-13c3.1918,2.1279,5.9264,3.5984,9,3.5921h-0.125c3.0736,0.0063,5.8081-1.4642,9-3.5921 c12,0,10,13,10,13"/><path fill="none" stroke="#000" stroke-linecap="round" stroke-linejoin="round" stroke-width="2" d="M26,35.0808 c-4,0-4-4.5-4-11.5s4-14,14-14s14,7,14,14s0,11.5-4,11.5"/><path fill="none" stroke="#000" stroke-linejoin="round" stroke-width="2" d="M24.9365,28.5808c0,9,4.9365,14,11,14 c5.9365,0,11.0635-5,11.0635-14c0.0245-1.7187-0.3164-3.4229-1-5c-3-3-7-8-7-8c-4,3-7,6-13,7.0005 C26,22.5808,24.9365,23.58,24.9365,28.5808z"/><path d="M33.9529 27.0468c0 1.1046-.8954 2-2 2s-2-.8954-2-2 .8954-2 2-2C33.0573 25.0472 33.9525 25.9424 33.9529 27.0468M35.9527 37.0492c-1.2005-.0116-2.3813-.3055-3.4472-.8579-.494-.247-.6943-.8477-.4473-1.3418.247-.4941.8477-.6943 1.3418-.4473 1.5934.8593 3.5121.8593 5.1055 0 .494-.247 1.0947-.0468 1.3418.4473s.0468 1.0947-.4473 1.3418C38.3341 36.7437 37.1532 37.0376 35.9527 37.0492zM41.9529 27.0468c0 1.1046-.8954 2-2 2s-2-.8954-2-2 .8954-2 2-2C41.0573 25.0472 41.9525 25.9424 41.9529 27.0468"/><path fill="none" stroke="#000" stroke-linecap="round" stroke-linejoin="round" stroke-miterlimit="10" stroke-width="2" d="M59.386 38.782H63.386V49.211999999999996H59.386z" transform="rotate(-45.001 61.386 43.997)"/></g></svg>