<svg xmlns="http://www.w3.org/2000/svg" role="img" viewBox="11.24 11.74 49.27 52.52"><title>1F9B7.svg</title><path fill="#fff" d="M56.8463 18.7956a11.6415 11.6415 0 0 0-10.55-5.0124c-4.808.5457-6.061 2.7647-10.3573 3.1882-4.2963-.4234-5.5494-2.6425-10.3574-3.1882a11.6418 11.6418 0 0 0-10.55 5.0124C12.2738 23.008 12.8791 29.3 16.8442 34.1143a6.0923 6.0923 0 0 1 1.4434 3.6257c.2378 6.1213 1.402 23.3418 6.9884 24.5078 4.3092.8994 2.0308-19.6965 10.663-19.43 8.6321-.2667 6.3537 20.3292 10.6628 19.43 5.5865-1.166 6.7508-18.3865 6.9885-24.5078a6.0917 6.0917 0 0 1 1.4434-3.6257c3.9651-4.8143 4.5705-11.1063 1.8126-15.3187z"/><path fill="#d0cfce" d="M56.8463 18.7956c-1.2528-2.7956-12.4747-7.6864-10.55-5.0124 3.06 4.2513 4.207 12.2312 3.2562 20.9215-.8172 7.4687-5.476 23.8776-5.476 23.8776-.3641 2.2321.97 4.2074 1.83 4.071 2.3756-.3769 7.936-7.6133 7.6835-24.9133a5.6745 5.6745 0 0 1 1.4434-3.6257 14.41 14.41 0 0 0 1.8129-15.3187z"/><g><path fill="none" stroke="#000" stroke-miterlimit="10" stroke-width="2" d="M56.8463 18.7956a11.6415 11.6415 0 0 0-10.55-5.0124c-4.808.5457-6.061 2.7647-10.3573 3.1882-4.2963-.4234-5.5494-2.6425-10.3574-3.1882a11.6418 11.6418 0 0 0-10.55 5.0124C12.2738 23.008 12.8791 29.3 16.8442 34.1143a6.0923 6.0923 0 0 1 1.4434 3.6257c.2378 6.1213 1.402 23.3418 6.9884 24.5078 4.3092.8994 2.0308-19.6965 10.663-19.43 8.6321-.2667 6.3537 20.3292 10.6628 19.43 5.5865-1.166 6.7508-18.3865 6.9885-24.5078a6.0917 6.0917 0 0 1 1.4434-3.6257c3.9651-4.8143 4.5705-11.1063 1.8126-15.3187z"/></g></svg>