<svg xmlns="http://www.w3.org/2000/svg" role="img" viewBox="9.60 8.72 53.43 53.18"><title>1F34F.svg</title><path fill="#B1CC33" stroke="#B1CC33" stroke-linecap="round" stroke-linejoin="round" stroke-miterlimit="10" stroke-width="2" d="M43.9805 22.748c3.2532-1.7664 6.7524-2.0682 9.8603-.5143 6.7971 3.4098 9.1671 14.3768 5.3102 24.4942-3.8569 10.1286-12.4875 15.573-19.2735 12.1633-.4877-.2459-.953-.5297-1.3942-.849-1.2846-.9296-3.0462-.93-4.3311-.0009-.4421.3197-.9078.6038-1.396.8499-6.7971 3.4097-15.4276-2.0347-19.2846-12.1633-3.8569-10.1174-1.4756-21.0845 5.3102-24.4942 3.1079-1.5539 6.5959-1.2633 9.838.4919 0 0 .0559.0336.1677.0895.7379.3913 3.9128 1.9564 7.0878 1.9564 3.1637 0 7.043-1.5652 7.9598-1.9564.0671-.0335.1118-.0559.1454-.0671"/><path fill="#f4aa41" d="M49.407 21.2342c-.0849-.0094-.1605 0-.2454.0094l.0377-.2266c.0756.0756.1417.1417.2077.2172z"/><path fill="#5C9E31" stroke="#5C9E31" stroke-linejoin="round" stroke-miterlimit="10" stroke-width="2" d="M36.2186 57.324l-.223.0652c-.6184.0559-1.2366.2328-1.7738.5493-.071.0373-.1521.0838-.223.1304-.4764.3166-.9731.5959-1.5001.838-1.5103.6983-3.1118 1.0148-4.7336 1.0055-.0405 0-.081 0-.1216-.0093.2939-.3632 2.3008-2.5791 8.5751-2.5791zm22.9311-10.6002c-3.3608 8.8364-11.2484 16.1269-21.3971 10.8559 8.2802 1.7898 28.8929-18.7766 11.6544-36.3455 1.52-.0283 3.021.2927 4.4371 1.0007 6.7973 3.4081 9.1669 14.378 5.3056 24.4889z"/><path fill="#B1CC33" stroke-linecap="round" stroke-linejoin="round" stroke-miterlimit="10" stroke-width="2" d="M48.4527 17.2241c3.9562 1.3292 6.8444 5.8193 6.8444 5.8193s-5.0134 1.8354-8.9696.5062c-3.9508-1.3274-6.8444-5.8193-6.8444-5.8193s5.0188-1.8336 8.9696-.5062z"/><g fill="none" stroke="#000" stroke-linecap="round" stroke-linejoin="round" stroke-miterlimit="10" stroke-width="2"><path d="M35.454 20.563v-5.461l-4.343-4.344m26.6307 14.8371c3.6482 4.9493 4.3968 13.296 1.4093 21.1329-3.8569 10.1286-12.4875 15.573-19.2735 12.1633-.4877-.2459-.953-.5297-1.3942-.849-1.2846-.9296-3.0462-.93-4.3311-.0009-.4421.3197-.9078.6038-1.396.8499-6.7971 3.4097-15.4276-2.0347-19.2846-12.1633-3.8569-10.1174-1.4756-21.0845 5.3102-24.4942 3.1079-1.5539 6.5959-1.2633 9.838.4919 0 0 .0559.0336.1677.0895.7379.3913 3.9128 1.9564 7.0878 1.9564.7267 0 1.4911-.0826 2.2487-.2145 0 0 1.1885-.182 2.126-.4632m8.2027-6.8698c3.9562 1.3292 6.8444 5.8193 6.8444 5.8193s-5.0134 1.8354-8.9696.5062c-3.9508-1.3274-6.8444-5.8193-6.8444-5.8193s5.0188-1.8336 8.9696-.5062z"/></g></svg>