<svg xmlns="http://www.w3.org/2000/svg" role="img" viewBox="20.01 23.44 35.42 25.05"><title>E312.svg</title><path d="M22.5593 44.7178c-.5773-2.5154-2.0374-10.5013 1.2395-15.72a6.6807 6.6807 0 0 1 2.559-2.33c2.4455-1.2931 7.5647-2.9953 13.6578.7518v13.5525a70.9621 70.9621 0 0 1-7.6985.6768 3.0564 3.0564 0 0 0-2.4926 1.32c-1.3449 1.9631-4.0426 5.1737-6.3169 3.3551a2.8422 2.8422 0 0 1-.9483-1.6062zm17.4563-17.3094v13.5637A14.93 14.93 0 0 0 47.7761 36s2.644-2.8227 4.6357-3.3378c0 0 3.5712-1.7856-.79-3.7429a32.7714 32.7714 0 0 0-11.6062-1.5109z" fill="#d22f27"/><path d="M22.5593 44.7178c-.5773-2.5154-2.0374-10.5013 1.2395-15.72a6.6807 6.6807 0 0 1 2.559-2.33c2.4455-1.2931 7.5647-2.9953 13.6578.7518v13.5525a70.9621 70.9621 0 0 1-7.6985.6768 3.0564 3.0564 0 0 0-2.4926 1.32c-1.3449 1.9631-4.0426 5.1737-6.3169 3.3551a2.8422 2.8422 0 0 1-.9483-1.6062zm17.4563-17.3094v13.5637A14.93 14.93 0 0 0 47.7761 36s2.644-2.8227 4.6357-3.3378c0 0 3.5712-1.7856-.79-3.7429a32.7714 32.7714 0 0 0-11.6062-1.5109z" fill="none" stroke="#000" stroke-linecap="round" stroke-linejoin="round" stroke-width="2"/></svg>