<svg xmlns="http://www.w3.org/2000/svg" role="img" viewBox="10.00 10.00 51.87 51.87"><title>1F520.svg</title><path fill="#d0cfce" stroke-linejoin="round" stroke-miterlimit="10" stroke-width="2" d="M59.0349 60H12.9651c-.5308 0-.9651-.4343-.9651-.9651V12.9651c0-.5308.4343-.9651.9651-.9651h46.0698c.5308 0 .9651.4343.9651.9651v46.0698c0 .5308-.4343.9651-.9651.9651z"/><g fill="none" stroke="#000" stroke-linejoin="round" stroke-miterlimit="10" stroke-width="2"><path d="M59.0349 60H12.9651c-.5308 0-.9651-.4343-.9651-.9651V12.9651c0-.5308.4343-.9651.9651-.9651h46.0698c.5308 0 .9651.4343.9651.9651v46.0698c0 .5308-.4343.9651-.9651.9651z"/><path stroke-linecap="round" d="M33.611 33.175l-4.628-10.8-4.629 10.8m1.543-2.586h6.171m.1225 17.8154c-.6809.6039-1.5768.9706-2.5585.9706h0c-2.1302 0-3.8571-1.7269-3.8571-3.8571v-3.0857 3.0857-3.0857c0-2.1302 1.7269-3.8571 3.8571-3.8571h0c.9817 0 1.8777.3667 2.5585.9708m12.6263-11.771h-4.1182v-5.3798h4.1182c1.4856 0 2.69 1.2044 2.69 2.69h0c-.0001 1.4856-1.2044 2.6898-2.69 2.6898zm0 5.38h-4.1182V27.775h4.1182c1.4856 0 2.69 1.2044 2.69 2.69h0c-.0001 1.4855-1.2044 2.6899-2.69 2.6899zm.683 16.2h-4.8739V38.5951h4.8739c1.1485 0 2.0796.9311 2.0796 2.0796v6.6005c0 1.1486-.9311 2.0797-2.0796 2.0797z"/></g></svg>