<svg xmlns="http://www.w3.org/2000/svg" role="img" viewBox="8.96 8.96 53.95 53.95"><title>1F6BE.svg</title><path d="M50.0852 41.7317c-.8686.7704-2.0115 1.2382-3.2639 1.2382h0c-2.7175 0-4.9206-2.203-4.9206-4.9206v-3.9364 3.9364-3.9364c0-2.7176 2.2031-4.9206 4.9206-4.9206h0c1.2524 0 2.3953.4679 3.2639 1.2384M37.661 29.192L33.724 42.97l-3.936-13.778-3.937 13.778-3.936-13.778" fill="none" stroke="#000" stroke-linecap="round" stroke-linejoin="round" stroke-miterlimit="10" stroke-width="2"/><path fill="#61B2E4" d="M60 61H12c-.5523 0-1-.4477-1-1V12c0-.5523.4477-1 1-1h48c.5523 0 1 .4477 1 1v48c0 .5523-.4477 1-1 1z"/><path fill="none" stroke="#FFF" stroke-linecap="round" stroke-linejoin="round" stroke-miterlimit="10" stroke-width="2" d="M50.0852 41.7317c-.8686.7704-2.0115 1.2382-3.2639 1.2382h0c-2.7175 0-4.9206-2.203-4.9206-4.9206v-3.9364 3.9364-3.9364c0-2.7176 2.2031-4.9206 4.9206-4.9206h0c1.2524 0 2.3953.4679 3.2639 1.2384M37.661 29.192L33.724 42.97l-3.936-13.778-3.937 13.778-3.936-13.778"/><g><path fill="none" stroke="#000" stroke-linecap="round" stroke-linejoin="round" stroke-miterlimit="10" stroke-width="2" d="M60 61H12c-.5523 0-1-.4477-1-1V12c0-.5523.4477-1 1-1h48c.5523 0 1 .4477 1 1v48c0 .5523-.4477 1-1 1z"/></g></svg>