<svg xmlns="http://www.w3.org/2000/svg" role="img" viewBox="2.72 14.60 66.43 42.68"><title>1F6CC-1F3FF.svg</title><path fill="#a57939" d="M5 42.5h62V49H5z"/><path fill="#d0cfce" d="M5 42v-4c0-1.65 1.35-3 3-3h56c1.65 0 3 1.35 3 3v4"/><path fill="#92d3f5" d="M5.125 30.44s4.875-3.688 16.88-.6875v4l-15 1-.8125 1.25-1.062-1.625-.125-3.625z"/><path fill="#92d3f5" d="M22 41.6V28.88s.2674-3.099 2.535-4.415c2.535-1.472 7.606 0 11.41-1.472 8.606-3.331 19.96 2.94 25.55 6.831 7.497 2.256 5.579 7.111 5.505 12.17"/><g><path fill="#6a462f" d="M15.08 27.56c-.0498-.2168-.0762-.4429-.0762-.6748 0-1.657 1.344-3 3-3s3 1.343 3 3c0 .3926-.0752.7676-.2129 1.111"/></g><g fill="none" stroke="#000" stroke-linecap="round" stroke-linejoin="round" stroke-miterlimit="10" stroke-width="2"><path d="M5 42h62v7H5zm0-1.01v-4c0-1.65 1.35-3 3-3h13.83M5 55.03V16.97m62 10.07v28M15.08 27.66c-.0498-.2168-.0762-.4429-.0762-.6748 0-1.657 1.344-3 3-3s3 1.343 3 3c0 .3926-.0752.7676-.2129 1.111M22 41.99v-14s.2109-2.106 2-3c2-1 9.301-.959 12.3-1.959 6.789-2.263 18.59 3.356 23 6 5 3 7.699 1.813 7.699 4.959M5.042 29.9c1.854-1.855 9.25-3.042 15.96-.9175"/></g></svg>