<svg xmlns="http://www.w3.org/2000/svg" role="img" viewBox="4.75 8.13 58.37 56.12"><title>1F6E0.svg</title><path fill="#D0CFCE" d="M9.5037 22.9282l4.7907 6.4314c-.4471 1.2757-1.6109 2.1572-2.9506 2.2346l-4.7907-6.4314c.2042-1.4367 1.5252-2.4372 2.9506-2.2346z"/><path fill="#9B9B9A" d="M42.933 27.819L18.432 58.077l5.534 3.912 21.847-27.328 2.284-2.714z"/><path fill="#9B9B9A" d="M46.7811 32.0332c3.2442 2.5754 8.6578 1.1565 12.0916-3.169s3.5876-9.9199.3434-12.4953l-5.1471 6.4838-2.8327-.0507-.6772-2.7661 5.1323-6.4651c-3.2442-2.5754-8.6578-1.1565-12.0916 3.169s-3.5876 9.9199-.3434 12.4953"/><path fill="#A57939" d="M27.347 25.982l11.75 15.723 3.416 2.386 9.118 14.385-3.199 2.276-1.066.759-10.183-13.626-1.284-3.904-11.751-15.722z"/><path fill="#9B9B9A" d="M12.0253 19.9354l5.9453 7.9154 10.177-7.6439-3.3973-4.5231s6.7846-5.0959 10.7448-4.5331c0 0-6.6489-2.9652-13.2928 1.1407s-10.177 7.644-10.177 7.644z"/><g><path d="M41.719 38.509l5.062-6.476m-3.418-2.713l-4.66 5.76"/><path fill="none" stroke="#000" stroke-linecap="round" stroke-linejoin="round" stroke-miterlimit="10" stroke-width="2" d="M52 58.906l-11.098-15.73-3.094-2.235L27.23 26.226l-2.936 2.125 10.577 14.715 1.137 3.651 11.489 15.51zM12.5106 19.7899l5.7909 8.029 10.323-7.4455-3.3091-4.588s6.882-4.9637 10.8306-4.3242c0 0-6.5903-3.0933-13.3124.8832s-10.323 7.4455-10.323 7.4455zm-2.579 2.9434l4.6653 6.5229h0c-.4717 1.2669-1.6524 2.1256-2.9933 2.1771h0l-4.6653-6.5229h0c.2319-1.4325 1.5721-2.4073 2.9933-2.1771h0zM41.289 38.509l5.063-6.476m-3.419-2.713l-4.659 5.76m8.0776-3.0468c3.2442 2.5754 8.6578 1.1565 12.0916-3.169s3.5876-9.9199.3434-12.4953l-5.1471 6.4838-2.8327-.0507-.6772-2.7661 5.1323-6.4651c-3.2442-2.5754-8.6578-1.1565-12.0916 3.169-3.4338 4.3256-3.5876 9.9199-.3434 12.4953M30.818 44.386L19 58.906l4 3 9.959-12.74"/></g></svg>