<svg xmlns="http://www.w3.org/2000/svg" role="img" viewBox="8.59 13.96 54.08 44.08"><title>1F4E5.svg</title><g stroke-linecap="round" stroke-miterlimit="10" stroke-width="2"><path fill="#EA5A47" d="M29.5067 22.4308h1.5889c.5519 0 .9994-.4474.9994-.9994v-4.4112c0-.5519.4474-.9994.9994-.9994h4.3313c.5519 0 .9994.4474.9994.9994v4.4112c0 .5519.4474.9994.9994.9994h1.5788c.8109 0 1.2842.9149.8157 1.5768l-5.7482 8.1208c-.3983.5626-1.2331.5626-1.6314 0l-5.7482-8.1208c-.4687-.6619.0046-1.5768.8155-1.5768z"/><path fill="#d0cfce" stroke-linejoin="round" d="M60.736 42.1886v10.7401c0 1.711-1.3914 3.0922-3.0922 3.0922h-43.908c-1.6569 0-3-1.3431-3-3V42.0964c0-1.6569 1.3431-3 3-3h5.4067c1.1204 0 2.2273.523 2.7865 1.4938.5049.8765 1.4431 1.4643 2.5154 1.4643l11.2863.0103 11.2864-.0103c1.0722 0 2.0104-.5878 2.5154-1.4643.5593-.9708 1.6662-1.4938 2.7865-1.4938h5.3248c1.7008 0 3.0922 1.3812 3.0922 3.0922z"/></g><g fill="none" stroke="#000" stroke-linecap="round" stroke-miterlimit="10" stroke-width="2"><path d="M29.5067 22.4308h1.5889c.5519 0 .9994-.4474.9994-.9994v-4.4112c0-.5519.4474-.9994.9994-.9994h4.3313c.5519 0 .9994.4474.9994.9994v4.4112c0 .5519.4474.9994.9994.9994h1.5788c.8109 0 1.2842.9149.8157 1.5768l-5.7482 8.1208c-.3983.5626-1.2331.5626-1.6314 0l-5.7482-8.1208c-.4687-.6619.0046-1.5768.8155-1.5768z"/><path stroke-linejoin="round" d="M60.736 42.1886v10.7401c0 1.711-1.3914 3.0922-3.0922 3.0922h-43.908c-1.6569 0-3-1.3431-3-3V42.0964c0-1.6569 1.3431-3 3-3h5.4067c1.1204 0 2.2273.523 2.7865 1.4938.5049.8765 1.4431 1.4643 2.5154 1.4643l11.2863.0103 11.2864-.0103c1.0722 0 2.0104-.5878 2.5154-1.4643.5593-.9708 1.6662-1.4938 2.7865-1.4938h5.3248c1.7008 0 3.0922 1.3812 3.0922 3.0922z"/></g></svg>