<svg xmlns="http://www.w3.org/2000/svg" role="img" viewBox="10.02 4.90 55.95 57.20"><title>1F4D8.svg</title><g id="color"><path fill="#92d3f5" d="M18 12H60V59.5H18z"/><path fill="#61b2e4" d="m12.5,12h6.4925l-1.25,47.5h-2.7361c-1.6604,0-2.5064-1.346-2.5064-3.0064V12Z"/></g><g id="line"><path fill="none" stroke="#000" stroke-linecap="round" stroke-linejoin="round" stroke-width="2" d="M18 13L18 59M62.9087 54.8149c.6677-.3369 1.0895-1.0203 1.0913-1.7682V9.0833c0-1.1506-.9327-2.0833-2.0833-2.0833H16.4591c-1.5975 0-3.0889.7996-3.9733 2.13h0c-.5776.8688-.3416 2.0413.5271 2.6189.3099.206.6737.316 1.0459.316h3.8086l2.1331-.0177h39.9162v48H14.0583c-1.0289.0008-1.8696-.8213-1.8916-1.85V10.575"/><g><path fill="none" stroke="#000" stroke-linecap="round" stroke-linejoin="round" stroke-width="2" d="M39.533 27.219L39.533 34.219 42.533 34.219M33.7078 34.2187h0c-1.3807 0-2.5-1.1193-2.5-2.5v-2c0-1.3807 1.1193-2.5 2.5-2.5h0c1.3807 0 2.5 1.1193 2.5 2.5v2c0 1.3807-1.1193 2.5-2.5 2.5z"/><circle cx="45.533" cy="34.219" r="1"/><path fill="none" stroke="#000" stroke-linecap="round" stroke-linejoin="round" stroke-width="2" d="M28.416 27.29L26.898 34.29 26.208 34.29 25.537 34.29 24 27.29M49.5633 32.8214c.2456.8558 1.0442 1.4328 1.9338 1.3973h0c.9665.1166 1.8446-.5723 1.9612-1.5388.1167-.9665-.5723-1.8446-1.5388-1.9612-.1403-.0169-.2821-.0169-.4224 0 .9665.1166 1.8446-.5723 1.9612-1.5388.1167-.9665-.5723-1.8446-1.5388-1.9612-.1403-.0169-.2821-.0169-.4224 0h0c-.8896-.0355-1.6882.5416-1.9338 1.3973"/></g></g></svg>