<svg xmlns="http://www.w3.org/2000/svg" role="img" viewBox="12.00 10.00 47.87 51.87"><title>1F3E6.svg</title><path fill="#9B9B9A" d="M16 26h40v34H16z"/><path fill="#D0CFCE" d="M14 22h44v4H14z"/><path fill="#FFF" d="M19.5 26h2.052v34H19.5m5.433-34h2.038v34h-2.038m22.134 0h-2.049V26h2.049M52.5 60h-2.018V26H52.5"/><path fill="#D0CFCE" d="M36 12L19 22h34z"/><path fill="#92D3F5" d="M31.5 50h9v10h-9z"/><circle cx="36" cy="35" r="5" fill="#FCEA2B"/><path fill="none" stroke="#F4AA41" stroke-linecap="round" stroke-linejoin="round" stroke-miterlimit="10" d="M36.9482 34.2622c-.0977-.3803-.5204-.6665-1.0269-.6665h0c-.5789 0-1.0483.3737-1.0483.8347s.4693.8347 1.0483.8347l-.0213.0031c.5789 0 1.0483.3737 1.0483.8347s-.4693.8347-1.0483.8347h0c-.5066 0-.9293-.2861-1.027-.6665m1.038-2.6751V32.8m0 4.933v-.795"/><g fill="none" stroke="#000" stroke-miterlimit="10"><path stroke-linecap="round" stroke-linejoin="round" stroke-width="2" d="M16 26h40v34H16zm-2-4h44v4H14z"/><path stroke-linecap="round" stroke-linejoin="round" stroke-width="2" d="M19.5 26h3v34h-3m5.433-34h3v34h-3m22.134 0h-3V26h3M52.5 60h-3V26h3M36 12l-17 9.749h34zm-4.5 38h9v10h-9zM36 60V50"/><circle cx="36" cy="35" r="5" stroke-width="2"/><path stroke-linecap="round" stroke-linejoin="round" d="M36.9482 34.2622c-.0977-.3803-.5204-.6665-1.0269-.6665h0c-.5789 0-1.0483.3737-1.0483.8347s.4693.8347 1.0483.8347l-.0213.0031c.5789 0 1.0483.3737 1.0483.8347s-.4693.8347-1.0483.8347h0c-.5066 0-.9293-.2861-1.027-.6665m1.038-2.6751V32.8m0 4.933v-.795"/></g></svg>