<svg xmlns="http://www.w3.org/2000/svg" role="img" viewBox="13.31 1.81 42.88 68.25"><title>1F918-1F3FF.svg</title><g fill="#6a462f" stroke="#6a462f"><path d="M33.44 29.64v-.94c.04.31.04.63 0 .94z"/><path d="M53.88 50.93v.01c0 10.04-8.23 16.87-17.89 16.87-8.68.13-16.08-6.25-17.22-14.85-.39-2.89-1.06-7.88-1.06-14.88l-2-18.37c-1.61-7.79 5.1565-8.15 6.8165-2.03l1.13 9.0466.2085.2734s1.272 7.0058 2.1919 7.2158c.37.08.1231-3.1858.3831-.6258v-3.95c-.25-1.9301 1.1-3.71 3.04-3.97 1.93-.26 3.71 1.1 3.96 3.03v.94c.04-.3101.04-.63 0-.94-.25-1.9301 1.17-3.72 3.1-3.98 1.35-.18 3.08 2.7677 4.09 3.8577 1.19-1.18 1.6835-5.2277 1.6835-5.2277l.53-14.94c0-5.88 9.2846-5.4635 9.2846-.0734l1.0634 31.32.0485.5134.64 10.76z"/><path d="M33.44 29.64v-.94c.04.31.04.63 0 .94z"/></g><g fill="none" stroke="#000" stroke-linecap="round" stroke-width="2"><path stroke-miterlimit="10" d="M18.7712 52.9565c1.1419 8.6001 8.5393 14.9847 17.214 14.857 9.667 0 17.893-6.833 17.893-16.878l-.001-.001-.657-11.129c-.1631-2.228-2.0023-3.9616-4.236-3.993h-10c-2.0658-.1226-3.8473 1.4362-4 3.5.1821 2.1099 1.8646 3.7781 3.976 3.942l1.049.117c2.187.242 3.976 1.342 3.976 2.442v2.44a12.44523 12.44523 0 0 0-5.777 2.958m-19.437 1.745c-.3908-2.8898-1.0629-7.8732-1.0629-14.8732m-.0003-.0003l-1.937-18.515M22 17.917l.944 8.69M43.5 8.25l-.458 14.91m8.833-14.702l.5 24.834M15.7708 19.5676c-.7236-7.7302 5.4982-7.5954 6.2292-1.651M43.5 8.25c0-5.875 8.375-5.1875 8.375.2083"/><path stroke-linejoin="round" d="M31.3179 40.6385c-3.322 1.2271-4.997-1.9342-4.8744-4v-7c-.2578-1.933 1.1001-3.709 3.0331-3.9669 1.933-.2578 3.709 1.1001 3.9669 3.0331.0413.3099.0413.6239 0 .9337"/><path stroke-linejoin="round" d="M33.5059 34.0036v-5.3175c-.2578-1.933 1.1001-3.709 3.0331-3.9669 1.933-.2578 3.709 1.1001 3.9669 3.0331.0413.3099.0413.6239 0 .9337l.031 3.5043"/></g></svg>