<svg xmlns="http://www.w3.org/2000/svg" role="img" viewBox="9.88 10.26 51.61 50.73"><title>1F58C.svg</title><path fill="#a57939" stroke="#a57939" stroke-miterlimit="10" stroke-width="2.086" d="M27.4213 52.1412c-1.1308 3.0553-2.6697 4.5942-5.6852 6.1955s-11.2248-.0889-9.5042-1.8095c2.3084-2.3084 3.6596-3.1597 3.2026-6.031-.5824-3.6603 4.2087-6.1331 4.2087-6.1331s2.0935-1.1422 4.1931-.8545c2.2812.3125 4.9498 4.9497 4.9498 4.9497l-1.3648 3.6829z"/><path fill="#92d3f5" d="M45.8565 36.851c-7.0488 6.5155-12.4768 10.4313-15.8703 12.6073l-7.6389-7.6751c2.1789-3.3949 6.0918-8.8147 12.5932-15.8482 4.7694-5.1598 9.7635-9.9137 13.8015-12.4485 2.9438-1.8479 6.597-1.5717 8.8659.6971 2.2688 2.2688 2.5449 5.9222.697 8.8659-2.5347 4.038-7.2887 9.0321-12.4484 13.8015"/><path fill="#61b2e4" d="M26.811 35.509l9.235 9.236-5.834 4.155-7.274-7.335z"/><g fill="none" stroke="#000" stroke-linecap="round" stroke-linejoin="round" stroke-miterlimit="10" stroke-width="2"><path d="M45.8565 36.851c-7.0488 6.5155-12.4768 10.4313-15.8703 12.6073l-7.6389-7.6751c2.1789-3.3949 6.0918-8.8147 12.5932-15.8482 4.7694-5.1598 9.7635-9.9137 13.8015-12.4485 2.9438-1.8479 6.597-1.5717 8.8659.6971h0c2.2688 2.2688 2.5449 5.9222.697 8.8659-2.5347 4.038-7.2887 9.0321-12.4484 13.8015m-26.2133 7.5121s-4.7911 2.4728-4.2087 6.1331c.457 2.8713-.8942 3.7226-3.2026 6.031-1.7206 1.7206 6.4887 3.4108 9.5042 1.8095s4.5544-3.1402 5.6852-6.1955M27.43 35.257l9.139 9.139"/></g></svg>