<svg xmlns="http://www.w3.org/2000/svg" role="img" viewBox="11.01 9.51 49.87 51.74"><title>E31B.svg</title><g fill="#fff"><path d="M26.3929 29.1993l.0846 16.4508s12.687 6.0898 21.9062-3.0026l.0423-14.9284s-2.1991 1.2264-5.7514 2.2837c-4.9718 1.4797-9.7267 2.8757-16.2816-.8035z"/><ellipse cx="35.136" cy="26.154" rx="8.815" ry="3.891"/><ellipse cx="34.961" cy="25.853" rx="2.251" ry="1.32"/></g><ellipse cx="35.169" cy="26.101" fill="none" stroke="#000" stroke-miterlimit="10" stroke-width="2" rx="9.587" ry="4.681"/><path fill="none" stroke="#000" stroke-miterlimit="10" stroke-width="2" d="M25.5821 45.118c0 1.7658 4.2926 3.1908 9.5852 3.1908 5.3 0 8.1386-1.0336 10.4642-2.5249M25.582 26.101V45.12m19.177-17.187v-1.836"/><path fill="none" stroke="#000" stroke-linecap="round" stroke-linejoin="round" stroke-width="2" d="M42.165 29.3017s5.3488-1.7634 7.1208-3.2043v16.8869a20.93405 20.93405 0 0 1-7.3085 4.5137"/><ellipse cx="34.961" cy="26.097" fill="none" stroke="#000" stroke-linecap="round" stroke-linejoin="round" stroke-width="2" rx="2.251" ry="1.373"/><path fill="none" stroke="#000" stroke-linecap="round" stroke-linejoin="round" stroke-width="2" d="M34.344 58.0262c-12.5012-.7606-22.0189-11.5114-21.2583-24.0126.5655-9.2951 6.756-17.2996 15.6102-20.1845"/><path d="M29.0563 17.4945l4.6293-4.14c.21-.1877.228-.5101.0403-.7201a.5112.5112 0 0 0-.2209-.1446l-5.8993-1.94c-.2676-.088-.5558.0577-.6438.3252a.5104.5104 0 0 0-.0147.2635l1.27 6.08c.0576.2757.3278.4526.6035.395a.50944.50944 0 0 0 .2356-.119z"/><path fill="none" stroke="#000" stroke-linecap="round" stroke-linejoin="round" stroke-width="2" d="M37.656 12.7662c12.5012.7606 22.0188 11.5115 21.2582 24.0127-.5656 9.295-6.7561 17.2995-15.6102 20.1844"/><path d="M42.9437 53.2979l-4.6293 4.14c-.2099.1878-.2279.5102-.0402.7201a.5101.5101 0 0 0 .2208.1445l5.8993 1.94c.2676.088.5558-.0577.6438-.3252a.5104.5104 0 0 0 .0147-.2635l-1.27-6.08c-.0576-.2757-.3278-.4525-.6035-.3949a.5091.5091 0 0 0-.2355.119z"/></svg>