<svg xmlns="http://www.w3.org/2000/svg" role="img" viewBox="14.20 12.82 43.85 48.23"><title>1F353.svg</title><path fill="#ea5a47" d="M36.153 60.1681h-.0274l-.0439-.0019c-3.9814-.1885-12.4863-4.3536-19.123-18.7686a14.5371 14.5371 0 0 1 .4423-14.6689c3.4786-5.4161 10.37-8.3526 18.8916-8.0166 8.4278-.2959 15.2793 2.6328 18.7442 8.0371 2.7558 4.3007 2.8877 9.6679.3623 14.7265-2.8965 6.2735-10.6426 18.2943-19.1377 18.6905a3.52311 3.52311 0 0 1-.1084.0019z"/><path fill="#d22f27" d="M55.0368 26.7491c-3.4649-5.4043-10.3164-8.333-18.7442-8.0371a31.649 31.649 0 0 0-3.5044.0584c6.8992.4828 12.4383 3.3011 15.4373 7.9787 2.7559 4.3008 2.8877 9.668.3623 14.7266-2.5024 5.42-8.6257 15.1239-15.7236 17.921a10.2708 10.2708 0 0 0 3.2175.7694l.0439.002h.0274c.0351 0 .085-.001.1084-.002 8.4951-.3964 16.2412-12.417 19.1377-18.69 2.5254-5.059 2.3935-10.4261-.3623-14.727z"/><path fill="#5c9e31" d="M26.9616 27.7258a1 1 0 0 1-.9219-.6153 5.4579 5.4579 0 0 1-.334-2.72c-6.9277.1084-8.4775-1.9932-8.7256-2.4385a1 1 0 0 1 .2159-1.2412 17.9743 17.9743 0 0 1 16.2324-3.9277v-.9316a2.0464 2.0464 0 0 1 2.0439-2.044h1.251a2.0463 2.0463 0 0 1 2.0439 2.044v.9794a17.9573 17.9573 0 0 1 16.4375 3.88 1 1 0 0 1 .2159 1.2412c-.2491.4473-1.8242 2.56-8.8467 2.4366a6.3533 6.3533 0 0 1-.5088 2.7744 1.0015 1.0015 0 0 1-.8994.5625c-3.5869 0-7.4912-1.9766-8.9268-2.7783-3.2646 2.0214-8.9013 2.7392-9.1533 2.77a1.075 1.075 0 0 1-.124.0085z"/><circle cx="25.198" cy="33.736" r="2" fill="#d22f27"/><circle cx="33.198" cy="33.736" r="2" fill="#d22f27"/><circle cx="40.198" cy="33.736" r="2" fill="#d22f27"/><circle cx="47.198" cy="33.736" r="2" fill="#d22f27"/><circle cx="44.198" cy="42.146" r="2" fill="#d22f27"/><circle cx="36.198" cy="42.146" r="2" fill="#d22f27"/><circle cx="28.198" cy="42.146" r="2" fill="#d22f27"/><circle cx="32.198" cy="51.744" r="2" fill="#d22f27"/><circle cx="40.198" cy="51.744" r="2" fill="#d22f27"/><g fill="none" stroke="#000" stroke-linecap="round" stroke-linejoin="round" stroke-width="2"><path d="M24.994 34.744v-2.016m8 2.016v-2.016m7 2.016v-2.016m7 2.016v-2.016m-3 10.426v-2.015m-8 2.015v-2.015m-8 2.015v-2.015m4 11.613v-2.016m8 2.016v-2.016m5.4414-27.387c7.8372.4 9.11-1.8828 9.11-1.8828a17.0606 17.0606 0 0 0-16.78-3.3117v-2.3016a1.0439 1.0439 0 0 0-1.0439-1.0438H35.47a1.0439 1.0439 0 0 0-1.0439 1.0438V18.09a17.031 17.031 0 0 0-16.5755 3.3767s1.2725 2.2824 9.11 1.8828a5.0163 5.0163 0 0 0 0 3.3783s6.28-.7782 9.2376-2.9572c0 0 4.7944 2.9572 8.9651 2.9572a5.55 5.55 0 0 0 .2721-3.3788z"/><path d="M53.0032 25.7021a13.6978 13.6978 0 0 1 1.19 1.5887c2.56 3.9955 2.6736 9.0035.31 13.74-2.8141 6.0928-10.2772 17.7635-18.2906 18.1381l-.0447.0019-.0446-.0019c-7.9926-.3789-15.438-12.0629-18.2586-18.1883A13.5916 13.5916 0 0 1 18.24 27.27a13.8022 13.8022 0 0 1 1.1712-1.5664"/></g></svg>