<svg xmlns="http://www.w3.org/2000/svg" role="img" viewBox="4.78 8.03 63.31 55.06"><title>E203.svg</title><path fill="#FFF" d="M49 41.711L36 30 23 41.711V61h26z"/><path fill="#FFF" d="M31.028 42.624l-9.083-8.501-6.945-5.2-8 7.207V48h16m26 11h17V46.388l-9.152-8.026-9.807 8.335M41.6 35v-9.624L36 20l-5.6 5.376V35"/><path fill="#D0CFCE" d="M49 61V42L32 61m-9-13v-7.667L15.333 48M66 59V47L56 59"/><g><path d="M35.9999 20.7631c-.5789 0-1.0484-.4694-1.0484-1.0484v-9.4295c0-.579.4695-1.0484 1.0484-1.0484.579 0 1.0484.4694 1.0484 1.0484v9.4295c.0001.5791-.4693 1.0484-1.0484 1.0484z"/><path d="M39.8235 15.1571h-7.647c-.579 0-1.0484-.4694-1.0484-1.0484 0-.5789.4694-1.0484 1.0484-1.0484h7.647c.579 0 1.0484.4695 1.0484 1.0484 0 .579-.4694 1.0484-1.0484 1.0484z"/><path fill="none" stroke="#000" stroke-linecap="round" stroke-linejoin="round" stroke-miterlimit="10" stroke-width="2" d="M49 41.711L36 30 23 41.711V61h26zM23 36.13l-8-7.207-8 7.207V48h16m26 11h17V46.388l-8.5-7.657-4.643 4.126"/><path fill="none" stroke="#000" stroke-linecap="round" stroke-linejoin="round" stroke-miterlimit="10" stroke-width="2" d="M41.6 35v-9.624L36 20l-5.6 5.376V35"/></g></svg>