<svg xmlns="http://www.w3.org/2000/svg" role="img" viewBox="14.56 1.68 42.63 68.51"><title>26F3.svg</title><path fill="#B1CC33" d="M17.0033 68c0-5.6246-.5417-10.3318 8.1621-11.6317.1915 2.5172 2.2717 3.5067 4.8379 3.5067s4.6464-.9896 4.8379-3.5067c8.7037 1.2999 8.4122 6.0071 8.4122 11.6317H17.0033z"/><path fill="#5C9E31" d="M24.4252 68h18.8293c0-2.5777.097-5.6094-1.0543-7.6507 0 6.609-12.028 7.6507-17.775 7.6507z"/><path fill="#d0cfce" d="M32.0033 7.8785V5.7001c-.0938-1.6532-3.5156-2.1688-3.9063.0812l-.0156 2.0973"/><path fill="#d0cfce" d="M27.1701 6.0755v53.3806s2.6005.9454 5.7165 0V6.0755"/><path fill="#EA5A47" d="M28.0033 10.8878h4l21.0625 4.9899c1.0231.2948 1.9375.8674 1.9375 1.9375s-.855 1.6071-1.9375 1.9375h.0013l-21.0638 4.9902-3.9987.0017-.0013-6.9294v-6.9274z"/><path fill="#D22F27" d="M55.0033 17.8152c0 1.0701-.855 1.6071-1.9375 1.9375h.0013l-21.0638 4.9902-3.9987.0017-.0013-6.9294h27z"/><g fill="none" stroke="#000" stroke-linecap="round" stroke-linejoin="round" stroke-miterlimit="10" stroke-width="2"><path d="M17.0033 68c0-5.6246-.5417-10.3318 8.1621-11.6317.1915 2.5172 2.2717 3.5067 4.8379 3.5067s4.6464-.9896 4.8379-3.5067c8.7037 1.2999 8.4122 6.0071 8.4122 11.6317H17.0033zm15-61.1176V6c0-1.1-.9-2-2-2h0c-1.1 0-2 .9-2 2v.8824"/><path d="M28.0033 28.75v30.8832s1.8471.5469 4 0V28.75m-3.9988-4.0091l3.9988-.0017 21.0638-4.9902h-.0013c1.0825-.3304 1.9375-.8674 1.9375-1.9375s-.9144-1.6427-1.9375-1.9375l-21.0625-4.9899h-4l.0012 13.8568z"/></g></svg>