<svg xmlns="http://www.w3.org/2000/svg" role="img" viewBox="2.72 13.72 66.43 55.30"><title>1F4FA.svg</title><path fill="#9B9B9A" d="M5.2629 15.7371L4.5 56.0004h62.1729L67 16l-61.7371-.2629z"/><path fill="#3F3F3F" d="M9 20h54v26H9z"/><path fill="#FFF" d="M63 46V20l-14.674-.324 8.902 26.06z"/><path fill="#9B9B9A" d="M34.2719 60.958l-.2095 5.894 4.5437.1057.1946-6.6887s-.8534-1.3007-.3007-1.3007h-4c.5527 0-.2281 1.9897-.2281 1.9897z"/><g><path fill="none" stroke="#000" stroke-linecap="round" stroke-linejoin="round" stroke-miterlimit="10" stroke-width="2" d="M5 16h62v40H5z"/><path stroke="#000" stroke-linecap="round" stroke-linejoin="round" stroke-miterlimit="10" stroke-width="2" d="M50.923 66.852H22.077"/><circle cx="36.5" cy="51" r="2"/><path fill="none" stroke="#000" stroke-linecap="round" stroke-linejoin="round" stroke-miterlimit="10" stroke-width="2" d="M9 20h54v26H9zm29.5 39.968v6.386m-4-6.386v6.386"/></g></svg>