<svg xmlns="http://www.w3.org/2000/svg" role="img" viewBox="0.11 10.48 72.28 54.16"><title>1F987.svg</title><g fill="#3F3F3F"><path d="M25.5252 30.898c-2.3813-1.68-3.9042-4.1204-3.9326-9.0256-6.2917-12.3683-15.8333-7.6799-19-2.2433 7.8333.9798 4 14.6667 4 14.6667 10-.5 7.3714 10.1238 7.3714 10.1238 10.087-3.1417 16.7953 6.148 16.7953 6.148-1.648 2.36-1.8159 6.5996-.3112 7.4402s6.6325 4.2642 6.6325 4.2642l4.6115-4.752s2.1197-2.0094-2.1947-7.0703c2.5572-5.0901 5.9141-7.7066 11.6354-7.725 1.6323-12.2941 10.176-11.3334 10.176-11.3334.9549-10.5438 8.774-13.0505 8.774-13.0505C59.0926 7.1309 47.0926 16.129 44.797 20.7561c-.2883.5812-.3939 6.9192-3.3969 9.5794-5.0794 2.7045-10.3427 3.2278-15.8749.5625z"/><path d="M30.4007 35.4677c-3.1856-2.5092-2.6668-6.2877-2.6668-6.2877l.706-6.3877s3.373 3.7061 3.448 3.9106l2.5254.2349 3.0896-4.4012s2.7828 10.0625-.6418 13.1611"/></g><g fill="none" stroke="#000" stroke-linecap="round" stroke-linejoin="round" stroke-miterlimit="10" stroke-width="2"><path d="M24.7381 31.5162c-2.3813-1.68-3.1171-4.7386-3.1455-9.6438-6.2917-12.3683-15.8333-7.6799-19-2.2433 7.8333.9798 4 14.6667 4 14.6667 10-.5 7.3714 10.1238 7.3714 10.1238 10.087-3.1417 16.7953 6.148 16.7953 6.148-1.648 2.36-1.8159 6.5996-.3112 7.4402s6.6325 4.2642 6.6325 4.2642l4.6115-4.752s2.1197-2.0094-2.1947-7.0703c2.5572-5.0901 5.9141-7.7066 11.6354-7.725 1.6323-12.2941 10.176-11.3334 10.176-11.3334.9549-10.5438 8.774-13.0505 8.774-13.0505C59.0926 7.1309 47.0926 16.129 44.797 20.7561c-.2883.5812.4585 7.3598-2.5445 10.02"/><path d="M30.4007 35.1344c-3.1856-2.5092-2.6668-6.2877-2.6668-6.2877l.706-6.3877s3.373 3.7061 3.448 3.9106l2.5254.2349 3.0896-4.4012s2.7828 10.0625-.6418 13.1611"/></g></svg>