<svg xmlns="http://www.w3.org/2000/svg" role="img" viewBox="17.09 8.09 36.45 54.08"><title>E2D3.svg</title><path fill="#fcea2b" d="M20.684 12.084h29.619v48.13H20.684z"/><path fill="#f1b31c" d="M40.431 12.084h10.018v48.13H40.431z"/><g stroke="#000" stroke-linecap="round" stroke-linejoin="round" stroke-width="2"><path fill="none" d="M19.178 60.214h32.358m0-48.537H19.178m18.098-1.463h5.393m-23.491 1.4627c1.7347 1.6573 2.1728 4.5617 2.1728 7.8687 0 3.6246-.1542 6.7653-2.1728 8.31m0 .0005c1.7347 1.6573 2.1728 4.5616 2.1728 7.8687 0 3.6246-.1542 6.7653-2.1728 8.31m0 .0005c1.7347 1.6573 2.1728 4.5616 2.1728 7.8687 0 3.6246-.1542 6.7653-2.1728 8.3105m32.3583-48.5376c-1.7348 1.6573-2.1729 4.5617-2.1729 7.8687 0 3.6246.1543 6.7653 2.1729 8.31m0 .0005c-1.7348 1.6573-2.1729 4.5616-2.1729 7.8687 0 3.6246.1543 6.7653 2.1729 8.31m0 .0005c-1.7348 1.6573-2.1729 4.5616-2.1729 7.8687 0 3.6246.1543 6.7653 2.1729 8.3105"/><path d="M36.727 35.4885a1.2333 1.2333 0 1 1-.617-1.0685 1.2336 1.2336 0 0 1 .617 1.0685zm-6.1705 0a4.9345 4.9345 0 0 1 2.4678-4.2758l-2.4687-4.2758a9.8691 9.8691 0 0 0-4.9356 8.5516zm7.405 4.2758a4.9428 4.9428 0 0 1-4.9372 0L30.5557 44.04a9.8851 9.8851 0 0 0 9.8745 0zm0-8.5516a4.9345 4.9345 0 0 1 2.4678 4.2758h4.9365a9.8691 9.8691 0 0 0-4.9358-8.5516z"/></g></svg>