<svg xmlns="http://www.w3.org/2000/svg" role="img" viewBox="8.96 8.84 53.95 54.08"><title>26A0.svg</title><g stroke-linecap="round" stroke-linejoin="round" stroke-miterlimit="10" stroke-width="2"><path fill="#fcea2b" d="M32.5222 13.005c.6977-1.2046 1.9862-2.0244 3.4778-2.0244 1.4916 0 2.7801.8198 3.4778 2.0244l20.9678 41.9351c.3433.5938.5544 1.2735.5544 2.0082 0 2.2272-1.8051 4.0323-4.0323 4.0323l-41.9354.0173C12.8051 60.9979 11 59.192 11 56.9657c0-.7356.211-1.4145.5544-2.0083L32.5222 13.005"/><path fill="#FFF" d="M37.6129 47.2709c0 .8907-.7222 1.6129-1.6129 1.6129s-1.6129-.7222-1.6129-1.6129V23.8925c0-.8907.7222-1.6129 1.6129-1.6129s1.6129.7222 1.6129 1.6129v23.3784z"/><circle cx="36" cy="54.529" r="1.613" fill="#FFF"/></g><g fill="none" stroke="#000" stroke-linecap="round" stroke-linejoin="round" stroke-miterlimit="10" stroke-width="2"><path d="M32.5222 13.005c.6977-1.2046 1.9862-2.0244 3.4778-2.0244 1.4916 0 2.7801.8198 3.4778 2.0244l20.9678 41.9351c.3433.5938.5544 1.2735.5544 2.0082 0 2.2272-1.8051 4.0323-4.0323 4.0323l-41.9354.0173C12.8051 60.9979 11 59.192 11 56.9657c0-.7356.211-1.4145.5544-2.0083L32.5222 13.005"/><path d="M37.6129 47.2709c0 .8907-.7222 1.6129-1.6129 1.6129s-1.6129-.7222-1.6129-1.6129V23.8925c0-.8907.7222-1.6129 1.6129-1.6129s1.6129.7222 1.6129 1.6129v23.3784z"/><circle cx="36" cy="54.529" r="1.613"/></g></svg>