<svg xmlns="http://www.w3.org/2000/svg" role="img" viewBox="1.71 25.71 67.21 28.84"><title>1F45F.svg</title><path fill="#9B9B9A" stroke-linecap="round" stroke-linejoin="round" stroke-miterlimit="10" stroke-width="2" d="M7 52.0608c-2.2485-1.8528-3-8.2556-3-11.3966 0-2.7896 1.1307-10.3151 2.9588-12.1432 0 0 2.6586-1.1324 4.0412 0 4.5288 3.7092 13.6575 12.2147 25.0042 0 0 0 17.5773 8.3421 22.3198 9.5458 8.1427 2.0668 8.4167 4.1197 8.4167 6.8223 0 8.6515-10.0838 7.5391-16.8102 7.1718-3.7068-.2025-38.8008.2254-42.9305-.0001"/><path fill="#D0CFCE" d="M7 45.8841s16.134-1.5287 25.4956 1.0426 28.3456.2299 28.3456.2299l5.2681-.0261s-.9366 5.7896-5.523 5.7896S6 51.1287 6 51.1287s-3.3823-4.6906 1-5.2446z"/><g fill="none" stroke="#000" stroke-linecap="round" stroke-linejoin="round" stroke-miterlimit="10" stroke-width="2"><path d="M7 52.0608c-2.2485-1.8528-3-8.2556-3-11.3966 0-2.7896 1.1307-10.3151 2.9588-12.1432 0 0 2.6586-1.1324 4.0412 0 4.5288 3.7092 13.6575 12.2147 25.0042 0 0 0 17.5773 8.3421 22.3198 9.5458 8.1427 2.0668 8.4167 4.1197 8.4167 6.8223 0 8.6515-10.0838 7.5391-16.8102 7.1718-3.7068-.2025-38.8008.2254-42.9305-.0001"/><path d="M8 46.8163s15.134-2.4608 24.4956.1105 28.3456 1.2299 28.3456 1.2299M40.442 35.958l-5.072 5.938m10.156-4.135l-3.532 4.135"/><path d="M7 52.0608c-2.2485-1.8528-3-8.2556-3-11.3966 0-2.7896 1.1307-10.3151 2.9588-12.1432 0 0 2.6586-1.1324 4.0412 0 4.5288 3.7092 13.6575 12.2147 25.0042 0 0 0 17.5773 8.3421 22.3198 9.5458 8.1427 2.0668 8.4167 4.1197 8.4167 6.8223 0 8.6515-10.0838 7.5391-16.8102 7.1718-3.7068-.2025-38.8008.2254-42.9305-.0001"/></g></svg>