<svg xmlns="http://www.w3.org/2000/svg" role="img" viewBox="11.04 11.04 49.79 49.79"><title>1F633.svg</title><path d="M18 39.884l2-2m0 6l4-4m30 0l-2-2m0 6l-4-4" fill="none" stroke="#000" stroke-linecap="round" stroke-linejoin="round" stroke-miterlimit="10" stroke-width="2"/><path fill="#FCEA2B" d="M36 13c-12.68 0-23 10.32-23 23s10.32 23 23 23 23-10.32 23-23-10.32-23-23-23z"/><path fill="#FFF" d="M33.5 32.31c0 3.59-2.914 6.5-6.5 6.5s-6.5-2.91-6.5-6.5c0-3.586 2.914-6.5 6.5-6.5s6.5 2.914 6.5 6.5m18 0c0 3.59-2.914 6.5-6.5 6.5s-6.5-2.91-6.5-6.5c0-3.586 2.914-6.5 6.5-6.5s6.5 2.914 6.5 6.5"/><path fill="none" stroke="#EA5A47" stroke-linecap="round" stroke-linejoin="round" stroke-miterlimit="10" stroke-width="2" d="M18 42.553l2-2m0 6l4-4m30 0l-2-2m0 6l-4-4"/><g><path d="M29.56 32.43c0 1.411-1.146 2.556-2.556 2.556s-2.556-1.144-2.556-2.556c0-1.41 1.146-2.556 2.556-2.556s2.556 1.146 2.556 2.556m18 0c0 1.411-1.146 2.556-2.556 2.556s-2.556-1.144-2.556-2.556c0-1.41 1.146-2.556 2.556-2.556s2.556 1.146 2.556 2.556"/><circle cx="36" cy="36" r="23" fill="none" stroke="#000" stroke-miterlimit="10" stroke-width="2"/><path fill="none" stroke="#000" stroke-miterlimit="10" stroke-width="2" d="M33.5 32.43c0 3.59-2.914 6.5-6.5 6.5s-6.5-2.91-6.5-6.5c0-3.586 2.914-6.5 6.5-6.5s6.5 2.914 6.5 6.5m18 0c0 3.59-2.914 6.5-6.5 6.5s-6.5-2.91-6.5-6.5c0-3.586 2.914-6.5 6.5-6.5s6.5 2.914 6.5 6.5"/><path fill="none" stroke="#000" stroke-linecap="round" stroke-linejoin="round" stroke-miterlimit="10" stroke-width="2" d="M21.69 22.44c.3525-.406 1.928-2.129 4.582-2.405 2.153-.2232 3.761.6367 4.301.9572M41.43 20.97c.464-.2717 2.509-1.4 5.111-.8103 2.111.4781 3.359 1.808 3.768 2.284M42.5 46.5c-1.2841.6376-11.8318.5835-13 0"/></g></svg>