<svg xmlns="http://www.w3.org/2000/svg" role="img" viewBox="5.13 15.00 52.00 51.88"><title>1F349.svg</title><g stroke-linejoin="round" stroke-miterlimit="10" stroke-width="2"><path fill="#B1CC33" d="M55.2257 56.7807c-10.9878 10.9766-28.7798 10.9766-39.7676 0-10.9765-10.9878-10.9765-28.7797 0-39.7675l2.6542 2.6542c-9.5258 9.5145-9.5258 24.9447 0 34.4592 9.5145 9.5258 24.9447 9.5258 34.4592 0l2.6542 2.6541z"/><path fill="#EA5A47" stroke="#EA5A47" stroke-linecap="round" d="M52.5715 54.1265c-9.5145 9.5258-24.9447 9.5258-34.4592 0-9.5258-9.5145-9.5258-24.9447 0-34.4592l34.4592 34.4592"/><path fill="#EA5A47" stroke-linecap="round" d="M49.5241 56.7181c-9.5196 6.8373-22.857 5.9734-31.4119-2.5916-8.6198-8.6097-9.4396-22.0632-2.4594-31.5942"/></g><path fill="none" stroke="#000" stroke-linejoin="round" stroke-miterlimit="10" stroke-width="2" d="M55.2257 56.7807c-10.9878 10.9766-28.7798 10.9766-39.7676 0-10.9765-10.9878-10.9765-28.7797 0-39.7675l2.6542 2.6542c-9.5258 9.5145-9.5258 24.9447 0 34.4592 9.5145 9.5258 24.9447 9.5258 34.4592 0l2.6542 2.6541z"/><path fill="none" stroke="#000" stroke-linecap="round" stroke-linejoin="round" stroke-miterlimit="10" stroke-width="2" d="M17.516 19.071l36.206 36.206m-4.1979 1.4411c-9.5196 6.8373-22.857 5.9734-31.4119-2.5916-8.6198-8.6097-9.4396-22.0632-2.4594-31.5942"/><ellipse cx="31.83" cy="46.907" rx="1.687" ry=".844" transform="rotate(-45.001 31.83 46.908)"/><ellipse cx="44.554" cy="53.269" rx="1.687" ry=".844" transform="rotate(-45.001 44.554 53.27)"/><ellipse cx="31.83" cy="54.86" rx="1.687" ry=".844" transform="rotate(-45.001 31.83 54.86)"/><ellipse cx="25.817" cy="40.894" rx="1.687" ry=".844" transform="rotate(-45.001 25.816 40.894)"/><ellipse cx="19.455" cy="28.17" rx="1.687" ry=".844" transform="rotate(-45.001 19.454 28.17)"/><ellipse cx="17.864" cy="40.894" rx="1.687" ry=".844" transform="rotate(-45.001 17.864 40.894)"/><ellipse cx="22.281" cy="50.086" rx="1.687" ry=".844" transform="rotate(-45.001 22.28 50.087)"/></svg>