<svg xmlns="http://www.w3.org/2000/svg" role="img" viewBox="11.04 11.04 49.79 49.79"><title>1F60C.svg</title><circle cx="36" cy="36" r="23" fill="#FCEA2B"/><g fill="none" stroke="#000" stroke-linecap="round" stroke-miterlimit="10" stroke-width="2"><circle cx="36" cy="36" r="23" stroke-linejoin="round"/><path stroke-linejoin="round" d="M45.8147 44.8055c-5.8513 4.7083-14.1004 4.6878-19.6295 0"/><path d="M40.3059 30.5952c1.0598 2.3854 3.8527 3.46 6.238 2.4002 1.0697-.4752 1.9249-1.3305 2.4002-2.4002m-25.8882 0c1.0598 2.3854 3.8527 3.46 6.238 2.4002 1.0697-.4752 1.9249-1.3305 2.4002-2.4002"/><path stroke-linejoin="round" d="M21.8487 27.1448c.846-1.6267 2.2631-2.8809 3.9804-3.5217 1.6496-.822 3.5458-.9962 5.3181-.4941m20.6355 4.0158c-1.8571-3.2546-5.6391-4.8951-9.2847-4.0272"/></g></svg>