<svg xmlns="http://www.w3.org/2000/svg" role="img" viewBox="14.79 16.04 43.55 36.67"><title>1FA73.svg</title><path fill="#d0cfce" d="M36.6214 42.6711c-2.56 0-3.9347.7605-3.9347 1.8289s-2 6.4131-2 6.4131H16.625V18.9583h40v31.9548H42.5633s-2-5.3446-2-6.4131-1.3743-1.8289-3.9347-1.8289"/><path fill="#3f3f3f" d="M17 18h39v6H17z"/><path fill="#d0cfce" stroke-linecap="round" stroke-linejoin="round" stroke-width="1.6" d="M34 29c2.0039-1.2821-.0281-3.2706 2-4m4 5c-1.6822-1.6822-.9719-4.2706-3-5"/><circle cx="36.5" cy="25.5" r=".5" fill="#d0cfce" stroke-linecap="round" stroke-linejoin="round" stroke-width="1.6"/><g fill="none" stroke="#000" stroke-linecap="round" stroke-linejoin="round"><path stroke-width="2" d="M36.6214 42.6711c-2.56 0-3.9347.7605-3.9347 1.8289s-2 6.4131-2 6.4131H16.625V17.9583h40v32.9548H42.5633s-2-5.3445-2-6.413-1.3743-1.8289-3.9347-1.8289zM27.0438 26.328S26.6591 34 18.9562 39.7946m27-13.4666s.3847 7.672 8.0876 13.4666M17 24h39"/><path stroke-width="1.6" d="M34 29c2.0039-1.2821-.0281-3.2706 2-4m4 5c-1.6822-1.6822-.9719-4.2706-3-5"/><circle cx="36.5" cy="25.5" r=".5" stroke-width="1.6"/></g></svg>