<svg xmlns="http://www.w3.org/2000/svg" role="img" viewBox="2.72 14.72 66.43 42.43"><title>1F1E6-1F1E9.svg</title><path fill="#fcea2b" d="M5 17h62v38H5z"/><path fill="#1e50a0" d="M5 17h21v38H5z"/><path fill="#d22f27" d="M46 17h21v38H46z"/><path fill="#d22f27" d="M42 32.1538V44a2.0059 2.0059 0 0 1-2 2h-8a2.0059 2.0059 0 0 1-2-2V32.1538"/><path fill="#f1b31c" d="M36 32.154h6v6.154h-6zm-6 6.154h6V46h-6z"/><ellipse cx="36" cy="38.308" fill="#6a462f" rx="2.25" ry="2.308"/><path d="M30 27.5385A12.5962 12.5962 0 0 1 36 26m6 1.5385A12.5962 12.5962 0 0 0 36 26m-6 6.154h12m0-.0002V44a2.0059 2.0059 0 0 1-2 2h-8a2.0059 2.0059 0 0 1-2-2V32.1538" fill="none" stroke="#6a462f" stroke-linecap="round" stroke-linejoin="round" stroke-width="2"/><g><path fill="none" stroke="#000" stroke-linecap="round" stroke-linejoin="round" stroke-width="2" d="M5 17h62v38H5z"/></g></svg>