<svg xmlns="http://www.w3.org/2000/svg" role="img" viewBox="7.75 5.88 56.49 58.37"><title>1F6B4-1F3FD.svg</title><g fill="#c19a65" stroke="#c19a65"><circle cx="34.386" cy="11.063" r="2.969"/><path d="M34.386 20.925L36.417 18l3.833.084 6.207 14.15L44.417 36l-2.527 2.514-3.12 11.154-3.406 6.75-2.404-2.037.919-7.078-3.771-6.977.097-3.326 8.045-5-2.886-7.5"/></g><g fill="none" stroke="#000" stroke-miterlimit="10" stroke-width="2"><circle cx="34.386" cy="11.063" r="2.969"/><path stroke-linecap="round" stroke-linejoin="round" d="M26.333 28.083l4.2705-2.9473c.9053-.6245 2.1602-1.875 2.7871-2.7783l1.8858-2.7148c.6269-.9033 2.0029-1.6236 3.0576-1.6006 1.0537.0229 2.2773.8662 2.7197 1.8735l4.5996 10.4868c.4424 1.0079.375 2.6231-.1494 3.5909l-.1338.248c-.5244.9678-1.7803 2.1143-2.79 2.5498l-5.4922 2.3633c-1.0098.4355-1.4922 1.6221-1.0713 2.6387l2.6348 6.3593c.4209 1.0166.0908 2.2979-.7344 2.8477-.8252.5498-1.9277.208-2.4512-.7598l-4.4062-8.1543c-.5235-.9677-.9297-2.5078-.9033-3.4228.0273-.9151.8134-2.1377 1.747-2.7188l4.6485-2.8886c.9336-.5811 1.4795-1.9287 1.2128-2.9961L36.25 24"/><circle cx="20.084" cy="52" r="10.166"/><circle cx="52.084" cy="52" r="10.166"/><path stroke-linecap="round" stroke-linejoin="round" d="M20.25 52l2-24H26"/><path d="M37.9785 50.959l-.9844 3.1328C36.6641 55.1416 35.5742 56 34.5723 56c-1.002 0-1.7071-.8926-1.5655-1.9834l.8692-6.7178m8.531-10.4338L38.77 48.44"/></g></svg>