<svg xmlns="http://www.w3.org/2000/svg" role="img" viewBox="7.22 12.10 53.43 53.05"><title>1F526.svg</title><path fill="none" stroke="#FCEA2B" stroke-linecap="round" stroke-linejoin="round" stroke-miterlimit="10" stroke-width="2" d="M13.198 46.281l-3.863.991m9.766 5.923l-3.928 3.831m11.069 2.444l-1.099 3.666"/><path fill="#D0CFCE" d="M56.4871 16.9995c-1.958-1.958-3.9941-3.469-5.0309-2.7058L29.5787 36.1712c1.2786.5446 2.8726 1.5088 3.8848 2.5215 1.0128 1.0124 2.8059 3.7926 3.3505 5.0717l21.8977-22.4561c-.042-.4639-.2168-2.3-2.2246-4.3088z"/><path fill="#D0CFCE" d="M20.4502 38.2151l-4.7805 4.9489 14.1421 14.1421 5.1413-5.3317C36.6533 50.2752 36.5 48.1773 36.5 45.773s-.9148-4.9821-2.615-6.6822c-3.5097-3.5098-9.925-4.3855-13.4348-.8757z"/><path fill="#9B9B9A" d="M35.8144 39.8366c.4458.6337.6988 3.2212.9996 3.9278l21.8977-22.4561c-.0186-.2055-.106-2.1367-.647-2.7353-.3112-.3443-1.0305.7301-1.3133.3267l-20.937 20.9369z"/><path fill="#9B9B9A" d="M27.41 54.9043l2.4018 2.4018 4.7992-4.8814c1.7002-1.6992 2.3886-4.5444 2.3886-6.9487 0-.7988-.3923-2.8729-.8853-3.4553-.5057-.5973-1.1173.2989-1.52-.3901-.1932-.3305.551 2.3353-.5895 5.7511-1.1406 3.4157-6.5948 7.5226-6.5948 7.5226z"/><g fill="none" stroke="#000" stroke-linecap="round" stroke-linejoin="round" stroke-miterlimit="10" stroke-width="2"><path d="M29.5787 36.1712l21.8775-21.8775s1.4916-.8489 4.609 2.2685 2.6169 4.9574 2.6169 4.9574L36.8046 43.3971"/><path d="M19.7429 39.0908c3.9052-3.9053 10.2369-3.9053 14.1421 0 3.9053 3.9052 3.9053 10.2369 0 14.1421l-4.0732 4.0732L15.6697 43.164l4.0732-4.0732zM13.198 46.281l-3.863.991m9.766 5.923l-3.928 3.831m11.069 2.444l-1.099 3.666"/></g><g fill="none" stroke="#FCEA2B" stroke-linecap="round" stroke-linejoin="round" stroke-miterlimit="10" stroke-width="2.1"><path d="M13.198 46.281l-3.863.991m9.766 5.923l-3.928 3.831m11.069 2.444l-1.099 3.666"/></g></svg>