<svg xmlns="http://www.w3.org/2000/svg" role="img" viewBox="8.96 34.96 54.02 17.08"><title>1F6F9.svg</title><circle cx="51" cy="47.999" r="3"/><circle cx="21" cy="47.999" r="3"/><path fill="#61b2e4" d="M56.4082 43H15.5918c-2.8975 0-5.4512-3.4863-5.47-3.5215A.9948.9948 0 0 1 10 39.001v-2a1 1 0 0 1 1.7861-.6182C12.3213 37.0615 14.1689 39 15.5918 39h40.8164c1.4326 0 3.2725-1.9375 3.8037-2.6152A1 1 0 0 1 62 37v2a.9979.9979 0 0 1-.2109.6143C61.5186 39.9609 59.0732 43 56.4082 43zm-40.8164-2zm45.4072-1.999zm-49.999 0z"/><g fill="#d22f27"><circle cx="51" cy="47.999" r="3"/><circle cx="21" cy="47.999" r="3"/></g><g><path d="M56.4082 43H15.5918c-2.8594 0-5.4453-3.4775-5.4658-3.5127a1 1 0 0 1 1.6963-1.0547C12.3477 39.1289 14.1855 41 15.5918 41h40.8164c1.4326 0 3.2725-1.9375 3.8037-2.6152a1 1 0 0 1 1.5772 1.23C61.5186 39.9609 59.0732 43 56.4082 43z"/><path fill="none" stroke="#000" stroke-linecap="round" stroke-miterlimit="10" stroke-width="2" d="M52 46.2674a2 2 0 1 1-2 3.4641m-28-3.4641a2 2 0 1 1-2 3.4641"/></g></svg>