<svg xmlns="http://www.w3.org/2000/svg" role="img" viewBox="12.21 12.96 47.45 45.95"><title>1F9A0.svg</title><path d="M41.84 16.692l-2.412 7.517M28.69 15.836l2.467 8m-14.008-.784l7.392 5.247m-9.831 7.935l7.895-.029m-4.193 12.491l6.369-4.664m4.354 11.276l2.912-8.017m10.238 8.873l-1.967-7m12.521-.847l-5.904-4.616m10.83-7.935l-8.895.029m4.694-12.491l-7.37 5.164" fill="none" stroke="#000" stroke-linecap="round" stroke-miterlimit="10" stroke-width="2"/><path fill="#ea5a47" d="M50.4876 36a15 15 0 1 1-15-15 15 15 0 0 1 15 15z"/><path fill="#d22f27" d="M45.2977 24.67A16.9861 16.9861 0 0 1 30.4876 50c-.1382 0-.2728-.0143-.41-.0176A14.9871 14.9871 0 0 0 45.2977 24.67z"/><path d="M41.84 16.692l-2.412 7.517M28.69 15.836l2.467 8m-14.008-.784l7.392 5.247m-9.831 7.935l7.895-.029m-4.193 12.491l6.369-4.664m4.354 11.276l2.912-8.017m10.238 8.873l-1.967-7m12.521-.847l-5.904-4.616m10.83-7.935l-8.895.029m4.694-12.491l-7.37 5.164" fill="none" stroke="#d22f27" stroke-linecap="round" stroke-miterlimit="10" stroke-width="2"/><g><path fill="none" stroke="#000" stroke-linecap="round" stroke-linejoin="round" stroke-width="2" d="M50.4876 36a15 15 0 1 1-15-15 15 15 0 0 1 15 15z"/><path d="M38.983 15.497l5.915 1.923h-3.292l-2.623-1.923zm-8.391-.869l-4.622 1.326 2.834.161 1.788-1.487zm-15.289 10.7l3.181-5.186-.559 3.454-2.622 1.732zm-1.37 12.838l.025-4.065 1.191 2.033-1.216 2.032zm5.616 12.898l-3.184-3.754 2.564 1.007.62 2.747zm12.063 5.944l-5.915-1.922 3.456.233 2.459 1.689zm13.393-1.462l-5.121 1.826 2.258-1.643 2.863-.183zm9.377-8.732l-2.68 3.686.827-2.425 1.853-1.261zm3.636-7.915l.024-6.065-.855 2.932.831 3.133zm-6.002-18.112l3.449 4.628-2.302-1.833-1.147-2.795z" fill="none" stroke="#000" stroke-linecap="round" stroke-linejoin="round" stroke-width="1.5"/><circle cx="42.654" cy="32.49" r="1.25"/><circle cx="28.654" cy="29.49" r="1.25"/><circle cx="35.654" cy="28.49" r="1.25"/><circle cx="37.654" cy="44.49" r="1.25"/><circle cx="31.654" cy="34.74" r="2"/><circle cx="31.154" cy="41.74" r="2"/><circle cx="39.654" cy="37.74" r="3"/></g><g fill="none" stroke="#d22f27" stroke-linecap="round" stroke-miterlimit="10" stroke-width="2"><path d="M40.634 20.45l-1.206 3.759m-9.83-5.427l1.559 5.054m-11.063 1.307l4.447 3.156m-6.552 7.935l4.616-.029m-1.287 10.363l3.463-2.536m5.445 8.272l1.321-4.013m9.856 4.734l-1.085-3.861m9.888-2.906l-3.271-2.557m6.996-7.922l-5.061.016m1.682-10.38l-4.358 3.053"/></g></svg>