<svg xmlns="http://www.w3.org/2000/svg" role="img" viewBox="10.13 15.00 51.87 39.12"><title>1F4F7.svg</title><path fill="#3f3f3f" d="M33.8525 28.0066c-5.2851 0-9.5842 4.2991-9.5842 9.5842s4.2991 9.5842 9.5842 9.5842 9.5842-4.2991 9.5842-9.5842-4.2991-9.5842-9.5842-9.5842zm0 14.5841c-2.7572 0-5-2.2428-5-5s2.2428-5 5-5 5 2.2428 5 5-2.2428 5-5 5z"/><circle cx="33.852" cy="37.591" r="5" fill="#d0cfce"/><path fill="#fff" d="M57.9309 22.9178H15.2697c-1.1816 0-3.1441 1.9245-3.1441 3.0622l.4567 7.2175h8.0465l4.1493.1888c-.0121.0215 3.277-5.7956 9.0743-5.7956 4.1504 0 8.7433 5.0107 8.7387 5.0002l3.3923.2991 13.3036.2302.0374-7.1402c0-1.1377-.2119-3.0622-1.3935-3.0622z"/><path fill="#f1b31c" d="M27.8182 19.1835c-.0174.2605-.3503-2.1627-.3503-2.1627h-9.0351s-.2818 2.5039-.3056 2.4387v3.3291l9.691-.1182v-3.4869z"/><path fill="#9b9b9a" d="M56.7227 51.768c.1326-.0026 2.6017-1.0404 2.6017-1.1745l-.0374-17.4733-9.7776-.2263-2.383-.6966h-3.6908c.0046.0105.0097.024.0144.0346v.0003c.2194.3912-.6648.7965-.4939 1.2153.0112.0275.2962 7.996.1552 8.1433-.4261.4452-2.2637 3.2105-3.0595 3.8446-2.3873 1.9024-4.5862 2.0301-4.6733 2.0385-.3453.0332-1.9984.113-2.1133.0988-.1099-.0138-2.3397-.3828-4.2028-1.3936-1.7796-.9656-3.1984-2.5751-3.2099-2.5883-.5522-.6344-.9877-1.9761-1.0001-2-.119-.2288-1.0291-2.1258-.8403-4.7821.0819-1.1522 1.348-4.4997 1.348-4.4997l-4.7313-.1117c.1805 0-7.9089.3934-7.9089.3934l.1028 16.6105s.0008 1.4067.7237 2.1654c.8471.8893 1.6866.4014 1.6944.4014 0 0 41.4675.0002 41.4818 0z"/><g fill="none" stroke="#000" stroke-linecap="round" stroke-linejoin="round" stroke-width="2"><path d="M15.2697 22.9178c-1.7365 0-3.1441 1.371-3.1441 3.0622v23.2213c0 1.6912 1.4076 3.0623 3.1441 3.0623h41.6606c1.7365 0 3.1441-1.3711 3.1441-3.0623V25.98c0-1.6912-1.4076-3.0622-3.1441-3.0622H15.2697zM47.152 33.197h12.466m-47.036 0h8.047"/><circle cx="33.852" cy="37.591" r="10"/><circle cx="33.852" cy="37.591" r="5"/><path d="M27.831 19.1198v-1.0782c0-.5638-.4692-1.0208-1.048-1.0208h-7.6766c-.5787 0-1.048.457-1.048 1.0208v1.0782"/></g></svg>