<svg xmlns="http://www.w3.org/2000/svg" role="img" viewBox="10.98 10.98 53.30 49.92"><title>1F618.svg</title><circle cx="36" cy="36" r="24" fill="#FCEA2B"/><path fill="#D22F27" d="M53.0134 44.4703c-1.9101-.5703-3.9277.5201-4.498 2.4301-.1899.6362-.2018 1.3099-.0342 1.948l.111.3522 3.797 9.7215 8.5568-6.0862c.6097-.4613 1.0532-1.1008 1.275-1.8435.5703-1.91-.5199-3.9283-2.4306-4.4987-1.3381-.3995-2.7576-.0041-3.7038 1.0317a.31363.31363 0 0 1-.3214.0892c-.1151-.0344-.2004-.1321-.2199-.2508-.2229-1.3849-1.1932-2.4938-2.5319-2.8935z"/><g><path fill="none" stroke="#000" stroke-linecap="round" stroke-linejoin="round" stroke-miterlimit="10" stroke-width="2" d="M20.5907 30.0053c.4075-1.5078 1.358-2.8098 2.6702-3.656 1.2228-.9847 2.769-1.4753 4.3352-1.3805m23.4638 6.1001c-2.2698-2.2443-5.7488-2.7231-8.5407-1.1752m4.5245 5.9662c-.8065-.4709-1.7748-.9088-2.8803-.9263-1.1197-.0177-2.1249.3098-3.1914.7782"/><path fill="none" stroke="#000" stroke-linecap="round" stroke-linejoin="round" stroke-miterlimit="10" stroke-width="2" d="M58.3718 41.3612C58.7825 39.6411 59 37.8459 59 36c0-12.7031-10.2978-23-23-23-12.7031 0-23 10.2969-23 23 0 12.7022 10.2969 23 23 23 3.6206 0 7.0459-.8367 10.093-2.3272"/><circle cx="28.04" cy="35.306" r="3"/><path fill="none" stroke="#000" stroke-linecap="round" stroke-linejoin="round" stroke-miterlimit="10" stroke-width="2" d="M36.4141 41.091s10.5248 3.1956 0 5.5637c0 0 10.4577 2.9883 0 4.9125m16.5993-7.0969c-1.9101-.5703-3.9277.5201-4.498 2.4301-.1899.6362-.2018 1.3099-.0342 1.948l.111.3522 3.797 9.7215 8.5568-6.0862c.6097-.4613 1.0532-1.1008 1.275-1.8435.5703-1.91-.5199-3.9283-2.4306-4.4987-1.3381-.3995-2.7576-.0041-3.7038 1.0317a.31363.31363 0 0 1-.3214.0892c-.1151-.0344-.2004-.1321-.2199-.2508-.2229-1.3849-1.1932-2.4938-2.5319-2.8935z"/></g></svg>