<svg xmlns="http://www.w3.org/2000/svg" role="img" viewBox="14.88 10.00 41.99 51.87"><title>1F926-1F3FD.svg</title><path fill="#92D3F5" d="M16 60.958L15.875 57c0-5.875 6.1328-10 11.125-10 6 5 12 5 18 0 4.9941 0 10 5.0059 10 10v3.958"/><path fill="#6a462f" d="M25.7715 39c-4 0-4.832-6.5-4.832-13.5S25.7715 12 35.7715 12s14 7 14 14 0 13-4 13"/><g fill="#c19a65"><path d="M28.8438 43.0937C29.5947 44.0117 32.8525 46 35.75 46c5.9365 0 11.125-5.25 11.125-14.25 0-3-1-5.0005-1-5.0005-3-2.9995-7.6562-9.4995-7.6562-9.4995-1.1211.8413-2.0743 2.5479-3.3243 3.978"/><path d="M28.875 60.958c.0049-.5703-.6973-10.4092 0-14.9717.2666-1.7461 2-1.9863 3-3.9863 3-6 1.833-8.333 4-14 1.1299-2.9541-1.5645-3.7236-3.127-.6001l3.0079-3.7939C36.96 20.2915 33.168 19.1665 31.5 21l-1.8271 3.6265c1.5693-2.3536-.9815-4.1485-2.6729-2.375-1.5791 1.6557-3.624 6.2949-5.125 10.7485 0 0-.1172-2.1943.8125-4.1875.5645-1.21.2285-2.9492-1.6875-2.8125-.9971.0713-1.7637 2.7734-2.54 5.667-.7803 2.9067.0879 7.1562.7197 8.4209 1.4141 2.8281 1.6953 2.8984 1.6953 2.8984s-2 8.9717-4 17.9717"/></g><path fill="none" stroke="#000" stroke-linecap="round" stroke-linejoin="round" stroke-width="2" d="M22.1895 23.4019C23.0879 17.3662 27.2441 12 36 12c10 0 14 7 14 14s0 13-4 13"/><path d="M41.873 30c0 1.1045-.8955 2-2 2-1.1044 0-2-.8955-2-2s.8956-2 2-2c1.1045 0 2 .8955 2 2"/><path fill="none" stroke="#000" stroke-linecap="round" stroke-linejoin="round" stroke-width="2" d="M37.4375 38H39m16 22v-3c0-4.9941-5.0059-9-10-9-3.3652 2.8027-6.8389 3.6934-10.0937 3.6934-.7042 0-1.4415-.0655-2.0538-.1402"/><path fill="none" stroke="#000" stroke-linecap="round" stroke-linejoin="round" stroke-miterlimit="10" stroke-width="2" d="M32.3457 21.542C30.1553 24.8276 30.4473 24.3462 27 31m-5 1.6025c2.25-4.333 4.1094-7.81 5.5313-9.6025M17 60c2-9 4-17.4111 4-17.4111s-.5859-.7603-2-3.5889c-2-4 0-9 2-12m14-4c-1.2832 2.5649-2.8262 5.4771-4 9m-2 28c.0049-.5703-.6973-9.4512 0-14.0137.2666-1.7461 2.1914-2.289 3-3.9863 1.9063-4 2.334-7.8057 3.9365-14"/><path fill="none" stroke="#000" stroke-linecap="round" stroke-linejoin="round" stroke-width="2" d="M37.3262 19.7109c.5107-.5605.9062-1.1352 1.6738-1.7114 0 0 4 5.0005 7 8 0 0 1 2.0005 1 5.0005 0 9-5.127 14-11.0635 14-.2187 0-.5595-.0229-.9365-.0562"/></svg>