<svg xmlns="http://www.w3.org/2000/svg" role="img" viewBox="3.36 26.11 65.78 31.41"><title>1F690.svg</title><path fill="#d0cfce" d="M61.0833 53.0625l3.4792-1H67L66.875 47.5h-.6875s.625-17.625-1.75-18.5-27.6875-.5625-30.8125 0S27 28.625 15.75 39.9375L8 42.48s-1.5.8325-1.5625 5.2075c0 0-.875.25-.75 1.5.1164 1.1644-.2544 4.2792 4.9688 4.5313"/><circle cx="16.48" cy="52.292" r="3" fill="#d0cfce" stroke-linecap="round" stroke-linejoin="round" stroke-miterlimit="10" stroke-width="2"/><circle cx="55" cy="52.292" r="3" fill="#d0cfce" stroke-linecap="round" stroke-linejoin="round" stroke-miterlimit="10" stroke-width="2"/><path fill="#fcea2b" d="M14.2402 44.5641s.0855-1.0781-1.2895-1.2031-3.898 1.2031-4.0386 1.5625c-.1406.3593-.3489 1.4328.2813 1.625.6301.1921 5.0468-1.9844 5.0468-1.9844z"/><path fill="#3f3f3f" d="M18.9688 41.625c.375.02 10.2187-.25 10.8437-1.75s.625-7.4375.625-7.4375-5.2365 1.799-7.4062 3.9688c-4 4-4.0625 5.2187-4.0625 5.2187zm15.0937-8.6875v7.5566c0 .5523.4477 1 1 1l21.7707-.8402c.2292 0 .4515-.0788.6296-.2231l2.1667-1.7556a.99995.99995 0 0 0 .3705-.777l.7059-4.9607c0-.5523-.4477-1-1-1H35.0625c-.5523 0-1 .4477-1 1z"/><path fill="#ea5a47" d="M64.0923 48.0003h-2.4346V41.865h1.437c.5509 0 .9976.4466.9976.9976v5.1377z"/><g fill="none" stroke="#000" stroke-linecap="round" stroke-linejoin="round" stroke-miterlimit="10" stroke-width="2"><path d="M61 52.1363l3.5625-.0738H67L66.875 47.5h-.6875s.625-17.625-1.75-18.5-27.6875-.5625-30.8125 0S27 28.625 15.75 39.9375L8 42.48s-1.5.8325-1.5625 5.2075c0 0-.875.25-.75 1.5.1164 1.1644-.4721 3.4134 4.7511 3.6655m12.6244-.103l25.375-.443"/><circle cx="16.48" cy="52.292" r="3"/><circle cx="55" cy="52.292" r="3"/><path d="M13.2904 44.4762s-1.9647 1.6588-3.5765 1.9176M19.875 41.48c.375.02 9.3125-.105 9.9375-1.605s.625-6.5.625-6.5m4.625 7.2789h21.7707c.2292 0 .4515-.0788.6296-.2231l2.1667-1.7556a.99995.99995 0 0 0 .3705-.777v-4.9607m1.658 9.9115v4.75l1.458.449"/></g></svg>