<svg xmlns="http://www.w3.org/2000/svg" role="img" viewBox="15.45 4.95 39.73 61.23"><title>1F9D1-1F3FE-200D-1F9AF.svg</title><g fill="#a57939"><circle cx="41.226" cy="10.127" r="3"/><path d="M49.05 19.1578l-3.458-1.333-9.709-.2085-3.416 4.458-.542 4.2915-1.667 1.167-6.666-6.1665s-1.459 1.729-.459 3.104 3.7881 5.3242 5.916 5.7285a4.1625 4.1625 0 0 0 4.375-1.416 13.9159 13.9159 0 0 0 1.834-5.75l-1.7 41h3.3l3.4-25h2l3.4 25h3.3l-1.7-41S49.952 39.724 50.94 41.149a1.3558 1.3558 0 0 0 2.3546.2476z"/></g><g fill="none" stroke="#000" stroke-width="2"><circle cx="41.226" cy="10.127" r="3" stroke-miterlimit="10"/><path stroke-linecap="round" stroke-linejoin="round" d="M46.2576 23.0328l2.5684 39.0039a1.7151 1.7151 0 0 1-1.5176 1.9961 2.1831 2.1831 0 0 1-1.92-1.9814l-2.8613-21.0372c-.1484-1.09-.72-1.9814-1.27-1.9814s-1.1211.8916-1.2695 1.9814l-2.8609 21.0372a2.1831 2.1831 0 0 1-1.92 1.9814 1.7151 1.7151 0 0 1-1.5176-1.9961l2.5684-39.0039"/><path stroke-linecap="round" stroke-linejoin="round" d="M24.2576 22.0328l3.707 4.2373c1.8116 2.0693 3.6631 1.543 4.1153-1.1694l.3554-2.1358c.4522-2.7129 2.6221-5.1572 4.8223-5.4321a38.9051 38.9051 0 0 1 8 0c2.2.2749 4.37 2.7192 4.8223 5.4321l.3554 2.1358c.4522 2.7124 2.3794 13.6435 2.593 15.7239"/><path stroke-linecap="round" stroke-miterlimit="10" d="M24.2 22.101l-4.465 39.571"/></g><path fill="none" stroke="#d0cfce" stroke-linecap="round" stroke-miterlimit="10" stroke-width="2" d="M22.362 21.698l-3.549 30.833"/><path fill="none" stroke="#d22f27" stroke-linecap="round" stroke-miterlimit="10" stroke-width="2" d="M18.813 52.531l-1.076 9.561"/><circle cx="17.737" cy="62.172" r="1.097" fill="#d0cfce"/><path fill="none" stroke="#000" stroke-linecap="round" stroke-miterlimit="10" stroke-width="2" d="M22.362 21.698l-.79 6.858"/></svg>