<svg xmlns="http://www.w3.org/2000/svg" role="img" viewBox="13.66 10.91 44.19 50.31"><title>1F6BD.svg</title><g id="color"><path fill="#d0cfce" stroke="#d0cfce" stroke-linecap="round" stroke-linejoin="round" stroke-width="2" d="M34.617 59.349L43.91 59.349"/><path fill="none" stroke="#9b9b9a" stroke-linecap="round" stroke-linejoin="round" stroke-width="2" d="M35.991 30.055L41.894 30.055"/><path fill="#d0cfce" stroke="#9b9b9a" stroke-linecap="round" stroke-linejoin="round" stroke-width="2" d="M15.653 30.788L15.653 35.627"/><path fill="#d0cfce" d="M35.264 31.053H46.583000000000006V59.33H35.264z"/><path fill="#d0cfce" stroke="#d0cfce" stroke-linejoin="round" stroke-width="2" d="m42.0698,59.2955h6.9469c-2.6901-9.2639-1.7826-17.3885-1.7826-17.3885,0,0,.1739-4.8033,3.4783-5.8033,0,0,3.7391-1.087,5-1.8261v-17.3846h-13.6041v14.1367l-.0385,28.2658Z"/><path fill="#9b9b9a" d="m15.5848,36c-.3215-5.6425.6741-5.1006.6741-5.1006l26.8505-.04-.0014,3.0626c-.0005,1.1479-.5209,2.0779-1.1625,2.0779H15.5848Z"/><path fill="#d0cfce" d="m15.661,35.5399s-.201,5.0192,4.9803,8.9725l2.9011,1.7458s-.8331,7.4562-.9581,11.4135c0,0,.0723,1.5872,3.2907,1.7079h9.6223s1.9343.0514,2.4769-1.4407v-11.8464s2.8109-2.3107,3.4363-3.3459c0,0,2.8044-3.9765,1.6135-7.0315,0,0-.93-.1194-4.1375-.1263l-18.8161-.0401-4.4094-.0088Z"/></g><g id="line" fill="none" stroke="#000" stroke-linecap="round" stroke-linejoin="round" stroke-width="2"><path d="M15.661 35.5399s-.201 5.0192 4.9803 8.9725l2.9011 1.7458s-.9857 7.4544-.9581 11.4135c.0065.9269.0723 1.5872 3.2907 1.7079h9.6223s2.4297.1463 2.4769-1.4407c.0894-3.0038 0-11.8463 0-11.8463 0 0 2.8109-2.3107 3.4363-3.3459 0 0 2.8044-3.9765 1.6135-7.0315 0 0-.93-.1194-4.1375-.1263l-18.8161-.0401-4.4094-.0089zM38.1354 30.0615h-21.6403s-.9323.0764-.8214 1.6588"/><path d="M42.0698 59.2955h6.9469c-2.6901-9.2639-1.7826-17.3885-1.7826-17.3885 0 0 .1739-4.8033 3.4783-5.8033 0 0 3.7391-1.087 5-1.8261v-17.3846h-13.6041v14.1367M42 12.875L55.965 12.875"/></g></svg>