<svg xmlns="http://www.w3.org/2000/svg" role="img" viewBox="13.94 9.94 43.99 54.99"><title>E1D0.svg</title><circle cx="36" cy="32" r="5" fill="#3F3F3F"/><path fill="#D0CFCE" d="M34 62h4l-2-25z"/><path fill="#9B9B9A" d="M36 37l2 25h-2.02L36 37"/><g fill="none" stroke="#000" stroke-linecap="round" stroke-linejoin="round" stroke-miterlimit="10" stroke-width="2"><circle cx="36" cy="32" r="5"/><path d="M35 38l-2 25h6l-2-25"/><path d="M42.2646 50.9847C50.2388 48.3541 56 40.8554 56 32c0-11.0457-8.9543-20-20-20s-20 8.9543-20 20c0 8.8554 5.7612 16.3541 13.7354 18.9847"/><path d="M41.5884 45.9128C47.1024 43.6956 51 38.3073 51 32c0-8.2843-6.7157-15-15-15s-15 6.7157-15 15c0 6.3073 3.8976 11.6956 9.4116 13.9128"/><path d="M40.8953 40.7148C43.9401 39.0007 46 35.743 46 32c0-5.5229-4.4772-10-10-10s-10 4.4771-10 10c0 3.743 2.0599 7.0007 5.1047 8.7148"/></g></svg>