<svg xmlns="http://www.w3.org/2000/svg" role="img" viewBox="2.72 14.72 66.43 42.43"><title>1F1E6-1F1E8.svg</title><path fill="#1e50a0" d="M5 17h62v38H5z"/><path fill="#fff" d="M9.887 18H6v2.332L32.113 36H36v-2.332L9.887 18z"/><path fill="#fff" d="M36 20.332V18h-3.887L6 33.668V36h3.887L36 20.332z"/><path fill="#fff" d="M6 24h30v6H6z"/><path fill="#fff" d="M18 18h6v18h-6z"/><path fill="#d22f27" d="M20 18h2v18h-2z"/><path fill="#d22f27" d="M6 26h30v2H6zm30 7.668L29.887 30H26l10 6v-2.332zM36 18h-3.887L24 22.868V24h2l10-6zM6 20.332L12.113 24H16L6 18v2.332zM6 36h3.887L18 31.132V30h-2L6 36z"/><path fill="#5c9e31" stroke="#5c9e31" stroke-linecap="round" stroke-linejoin="round" d="M50.954 36l1.305 2.26 1.305 2.261h-5.22l1.305-2.261L50.954 36z"/><path fill="#fff" d="M55.0483 41.7818c0 5.4893-1.8016 9.9393-4.0241 9.9393S47 47.2711 47 41.7818z"/><path d="M54.0279 42.7818c-.2013 4.8789-1.8477 7.9393-3.0037 7.9393s-2.8025-3.06-3.0038-7.9393h6.0075m1.02-1H47c0 5.4893 1.8017 9.9393 4.0242 9.9393s4.0241-4.45 4.0241-9.9393z"/><ellipse cx="45.906" cy="41.193" fill="#a57939" stroke="#6a462f" stroke-miterlimit="10" rx="1" ry=".5" transform="rotate(-31.65 45.906 41.193)"/><ellipse cx="43.828" cy="49.95" fill="#a57939" stroke="#6a462f" stroke-miterlimit="10" rx=".5" ry="1" transform="rotate(-31.65 43.828 49.95)"/><path fill="#a57939" stroke="#6a462f" stroke-miterlimit="10" d="M40.757 49.4724c-1.3634-.3235-1.9723-2.6772-1.36-5.2572s2.2138-4.4091 3.5772-4.0856a2.0232 2.0232 0 0 1 1.3007 1.4393l-1.7092 7.2022a2.0226 2.0226 0 0 1-1.8087.7013z"/><ellipse cx="56.094" cy="41.193" fill="#a57939" stroke="#6a462f" stroke-miterlimit="10" rx=".5" ry="1" transform="rotate(-58.35 56.094 41.193)"/><ellipse cx="58.172" cy="49.95" fill="#a57939" stroke="#6a462f" stroke-miterlimit="10" rx="1" ry=".5" transform="rotate(-58.35 58.172 49.95)"/><path fill="#a57939" stroke="#6a462f" stroke-miterlimit="10" d="M61.243 49.4724c1.3634-.3235 1.9723-2.6772 1.36-5.2572s-2.2138-4.4091-3.5772-4.0856a2.0232 2.0232 0 0 0-1.3007 1.4393l1.7092 7.2022a2.0226 2.0226 0 0 0 1.8087.7013z"/><path fill="#5c9e31" d="M53.5645 48.0205a.5009.5009 0 0 1-.3477-.1406l-2.2627-2.1846-2.2627 2.1847a.5.5 0 0 1-.6953-.7188l2.61-2.52a.5.5 0 0 1 .6954 0l2.61 2.52a.5.5 0 0 1-.3476.8594z"/><path d="M54.0279 42.7818c-.2013 4.8789-1.8477 7.9393-3.0037 7.9393s-2.8025-3.06-3.0038-7.9393h6.0075m1.02-1H47c0 5.4893 1.8017 9.9393 4.0242 9.9393s4.0241-4.45 4.0241-9.9393z"/><ellipse cx="57.578" cy="38.785" fill="#a57939" stroke="#6a462f" stroke-miterlimit="10" rx="1" ry="1.5" transform="rotate(-13.35 57.579 38.785)"/><ellipse cx="44.422" cy="38.785" fill="#a57939" stroke="#6a462f" stroke-miterlimit="10" rx="1.5" ry="1" transform="rotate(-76.65 44.422 38.785)"/><g><path fill="none" stroke="#000" stroke-linecap="round" stroke-linejoin="round" stroke-width="2" d="M5 17h62v38H5z"/></g></svg>