<svg xmlns="http://www.w3.org/2000/svg" role="img" viewBox="10.00 16.00 51.87 40.87"><title>E261.svg</title><path fill="#D0CFCE" d="M24 18h36v7H24zm0 15h36v7H24zm0 15h36v7H24z"/><path fill="#9B9B9A" d="M12 48h7v7h-7zm0-15h7v7h-7zm0-15h7v7h-7z"/><g fill="none" stroke="#000" stroke-linecap="round" stroke-linejoin="round" stroke-miterlimit="10" stroke-width="2"><path d="M59 25H25c-.5523 0-1-.4477-1-1v-5c0-.5523.4477-1 1-1h34c.5523 0 1 .4477 1 1v5c0 .5523-.4477 1-1 1zm0 15H25c-.5523 0-1-.4477-1-1v-5c0-.5523.4477-1 1-1h34c.5523 0 1 .4477 1 1v5c0 .5523-.4477 1-1 1zm0 15H25c-.5523 0-1-.4477-1-1v-5c0-.5523.4477-1 1-1h34c.5523 0 1 .4477 1 1v5c0 .5523-.4477 1-1 1zM18 25h-5c-.5523 0-1-.4477-1-1v-5c0-.5523.4477-1 1-1h5c.5523 0 1 .4477 1 1v5c0 .5523-.4477 1-1 1zm0 15h-5c-.5523 0-1-.4477-1-1v-5c0-.5523.4477-1 1-1h5c.5523 0 1 .4477 1 1v5c0 .5523-.4477 1-1 1zm0 15h-5c-.5523 0-1-.4477-1-1v-5c0-.5523.4477-1 1-1h5c.5523 0 1 .4477 1 1v5c0 .5523-.4477 1-1 1z"/></g></svg>