<svg xmlns="http://www.w3.org/2000/svg" role="img" viewBox="8.96 8.96 53.95 53.95"><title>26D4.svg</title><g stroke-linecap="round" stroke-linejoin="round" stroke-miterlimit="10" stroke-width="2"><path fill="#ea5a47" d="M36 11c-13.8066 0-25 11.1926-25 25 0 13.8066 11.1934 25 25 25 13.8065 0 25-11.1934 25-25 0-13.8074-11.1935-25-25-25z"/><path fill="#FFF" d="M55.5195 39.4297c.1986-1.1263.3081-2.2831.3081-3.4659 0-1.171-.1078-2.316-.3014-3.4306H16.4738c-.1936 1.1146-.3014 2.2596-.3014 3.4306 0 1.1828.1095 2.3396.3081 3.4659h39.039z"/></g><g fill="none" stroke="#000" stroke-linecap="round" stroke-linejoin="round" stroke-miterlimit="10" stroke-width="2"><path d="M36 11c-13.8066 0-25 11.1926-25 25 0 13.8066 11.1934 25 25 25 13.8065 0 25-11.1934 25-25 0-13.8074-11.1935-25-25-25z"/><path d="M55.5195 39.4297c.1986-1.1263.3081-2.2831.3081-3.4659 0-1.171-.1078-2.316-.3014-3.4306H16.4738c-.1936 1.1146-.3014 2.2596-.3014 3.4306 0 1.1828.1095 2.3396.3081 3.4659h39.039z"/></g></svg>