<svg xmlns="http://www.w3.org/2000/svg" role="img" viewBox="14.70 8.58 54.47 51.22"><title>1F468-200D-1F3A4.svg</title><g id="color"><path fill="#FFF" d="M54.7775,58.5922c0,0,2-13.7973-10-13.7973c-3.1919,2.1192-5.9264,3.5837-9,3.5775h0.125 c-3.0736,0.0062-5.8082-1.4583-9-3.5775c-12,0-10,13.7973-10,13.7973"/><path fill="#61B2E4" d="M26.9025 44.7949c-12 0-10 13.9674-10 13.9674h15.8934C32.7959 58.7623 28.3745 55.4976 26.9025 44.7949M44.7775 44.7949c12 0 10 13.9674 10 13.9674h-15.748C39.0295 58.7623 44.4519 51.319 44.7775 44.7949"/><path fill="#92D3F5" d="M33.5327,48.2842c0,0-1.2063,6.0214,2.3073,6.0214c3.5135,0,2.3072-6.0214,2.3072-6.0214"/><path fill="#9B9B9A" d="M58.387 37.781H62.387V48.211H58.387z" transform="rotate(-45.001 60.387 42.997)"/><circle cx="53.662" cy="36.461" r="4" fill="#D0CFCE"/><path fill="#92D3F5" d="M34.9896 54.4882l-2.4152 3.6378c-3.6298-1.7539-5.6719-12.9622-5.6719-12.9622l-5.1046 6.9347 2.974 1.842-.9985 3.1134 8.8689 1.0721M35.679 54.096L37.469 56.706 38.976 58.75 32.665 58.75 34.172 56.706zM36.6904 54.4882l2.4151 3.6378c3.6298-1.7539 5.672-12.9622 5.672-12.9622l5.1045 6.9347-2.974 1.842.9985 3.1134-8.8689 1.0721"/></g><g id="hair"><path fill="#A57939" d="M41.7739,15.7153l-0.6254-0.6243c-0.2869-0.736-2.9576-6.849-11.302-3.2994 c-2.1059,0.8958-3.98,2.2516-5.6163,3.8515c0,0-2.8374,2.382-3.9208,4.0349c0,0-1.6869-0.2843-3.267-1.7639 c0,0-0.435,6.6434,7.5762,7.5773c0,0,2.8584,0.0223,6.1913-2.8191l1.4053-0.6223c3.0391-0.1977,5.3514-1.1826,5.3532-2.3707 l1.2075-0.5347l0.927-0.2524c0,0,4.6008,8.0972,7.3029,6.0499l0.0027-0.0005C47.2382,19.6375,45.9731,15.8836,41.7739,15.7153z"/></g><g id="skin"><path fill="#FCEA2B" d="M39.7029,18.8922l-0.927,0.2524l-1.2075,0.5347c-0.0018,1.1881-2.3141,2.173-5.3532,2.3707l-1.4053,0.6223 c-3.2748,2.7919-6.0849,2.8188-6.1821,2.819c-0.2001,1.0543-0.3173,2.1485-0.3173,3.2793c0,7.8277,5.0764,14.1733,11.3386,14.1733 s11.3386-6.3456,11.3386-14.1733c0-1.2493-0.1422-2.4543-0.385-3.6083C43.871,26.223,39.7029,18.8922,39.7029,18.8922z"/></g><g id="line"><path d="M41.9625 26.9421c0 1.1045-.8965 2-2 2s-2-.8955-2-2c0-1.1035.8965-2 2-2S41.9625 25.8386 41.9625 26.9421M33.9625 26.9421c0 1.1045-.8965 2-2 2s-2-.8955-2-2c0-1.1035.8965-2 2-2S33.9625 25.8386 33.9625 26.9421M35.9624 36.9445c-1.1519 0-2.3037-.2861-3.4473-.8579-.4941-.2471-.6943-.8476-.4473-1.3418.2466-.4936.8462-.6943 1.3418-.4473 1.7178.8594 3.3877.8594 5.1055 0 .4946-.247 1.0947-.0463 1.3418.4473.2471.4942.0469 1.0947-.4473 1.3418C38.2661 36.6584 37.1142 36.9445 35.9624 36.9445z"/><path fill="none" stroke="#000" stroke-miterlimit="10" stroke-width="2" d="M46.98 24.9598c.21 1.07.32 2.2.32 3.34 0 7.83-5.08 14.18-11.34 14.18s-11.34-6.35-11.34-14.18c0-.97.08-1.91.23-2.82M40.95 15.5798c.08.04.16.09.23.14.14.09.28.18.41.28"/><path fill="none" stroke="#000" stroke-linecap="round" stroke-linejoin="round" stroke-miterlimit="10" stroke-width="2" d="M58.387 37.781H62.387V48.211H58.387z" transform="rotate(-45.001 60.387 42.997)"/><circle cx="53.662" cy="36.461" r="4" fill="none" stroke="#000" stroke-linecap="round" stroke-linejoin="round" stroke-miterlimit="10" stroke-width="2"/><path fill="none" stroke="#000" stroke-linecap="round" stroke-linejoin="round" stroke-miterlimit="10" stroke-width="2" d="M64.292 46.868L67.138 49.714M58.893 44.664L58.893 57.864M41.7739 15.7153c4.1992.1683 5.4643 3.9222 5.2346 9.2263l-.0027.0005c-2.7021 2.0473-7.3029-6.0499-7.3029-6.0499L41.7739 15.7153zM33.5327 48.0978c0 0-1.2063 6.0215 2.3073 6.0215 3.5135 0 2.3072-6.0215 2.3072-6.0215"/><path fill="none" stroke="#000" stroke-linecap="round" stroke-linejoin="round" stroke-miterlimit="10" stroke-width="2" d="M34.9896 54.1193l-2.4152 3.6377c-3.6298-1.7538-5.6719-12.9621-5.6719-12.9621l-5.1046 6.9346 2.974 1.842-.9985 3.1134 8.8689 1.0721zM36.6904 54.1193l2.4151 3.6377c3.6298-1.7538 5.672-12.9621 5.672-12.9621l5.1045 6.9346-2.974 1.842.9985 3.1134-8.8689 1.0721zM39.0934 19.004l2.0825-3.8399c0 0-2.4602-7.1453-11.3294-3.3725-2.1059.8958-3.98 2.2516-5.6163 3.8515 0 0-2.8374 2.382-3.9208 4.0348 0 0-1.6869-.2843-3.267-1.7638 0 0-.435 6.6434 7.5762 7.5773 0 0 2.8584.0223 6.1913-2.8191M39.1076 18.8922c-.0034-.463-3.2917 6.1827-13.917 2.8403"/><path fill="none" stroke="#000" stroke-linecap="round" stroke-linejoin="round" stroke-miterlimit="10" stroke-width="2" d="M16.9025,57.7949c0,0-2-13,10-13c3.1918,2.1279,5.9264,3.5984,9,3.5921h-0.125c3.0736,0.0063,5.8081-1.4642,9-3.5921 c12,0,10,13,10,13"/></g></svg>