<svg xmlns="http://www.w3.org/2000/svg" role="img" viewBox="10.52 10.27 50.83 50.45"><title>1F6E9.svg</title><path fill="#d0cfce" d="M48.8668 30.3783s-24 23-27 20 20-27 20-27 4-5 8-1-1 8-1 8z"/><path fill="#e27022" d="M31.8468 55.2083l-2.17 3.25a.7511.7511 0 0 1-1.17.09l-7.45-8.12-8.25-7.56a.7511.7511 0 0 1 .09-1.17l3.25-2.17a.7529.7529 0 0 1 .86.03l8.52 6.41 6.29 8.38a.7529.7529 0 0 1 .03.86zm27.14-3.7l-5.56 3.01a1.6207 1.6207 0 0 1-1.71-.38l-18.06-14.89-.62-.5-.5-.62-14.89-18.06a1.6207 1.6207 0 0 1-.38-1.71l3.01-5.56c.38-.69 1.49-.56 2.28.27l17.55 18.61 18.61 17.55c.83.79.96 1.9.27 2.28z"/><path fill="#92d3f5" d="M42.9113 33.32a.9972.9972 0 0 1-.71-.2959L39.21 30.0054a1 1 0 0 1-.0274-1.38l1.372-1.4154a1.8847 1.8847 0 0 1 1.3584-.6074 1.9759 1.9759 0 0 1 1.3867.5625l1.7745 1.7749a1.92 1.92 0 0 1 .5605 1.39 1.886 1.886 0 0 1-.61 1.3594l-1.4383 1.3691a.9985.9985 0 0 1-.6751.2615z"/><g fill="none" stroke="#000" stroke-linecap="round" stroke-linejoin="round"><path stroke-width="2" d="M49.267 32.978l-1.53-1.53m-6.94-6.94l-1.53-1.53m.592-2.399l-3 3m14.702 8.702l-3 3m-14.9042 3.9671l2.78 2.29a97.7831 97.7831 0 0 1-9.02 6.94l-1.89-2.51-1.68-1.26a97.3881 97.3881 0 0 1 6.82-8.85l1.87 2.27.5.62zm15.21-8.87s-.41.39-1.13 1.07c-.9.85-2.3 2.15-3.98 3.67l-3.65-3.44-3-3.18c1.54-1.69 2.84-3.08 3.69-3.99.68-.72 1.07-1.13 1.07-1.13s4-5 8-1-1 8-1 8z"/><path stroke-width="2" d="M40.631 28.6008c.2363-.2574.456-.4951.6548-.7091a.9049.9049 0 0 1 1.3059-.02l1.7757 1.7757a.9052.9052 0 0 1-.0216 1.3073c-.2184.2021-.4615.4255-.7242.6649M31.8468 55.2081l-2.17 3.25a.7511.7511 0 0 1-1.17.09l-7.45-8.12-8.25-7.56a.7511.7511 0 0 1 .09-1.17l3.25-2.17a.7529.7529 0 0 1 .86.03l6.84 5.15 1.68 1.26 1.89 2.51 4.4 5.87a.7529.7529 0 0 1 .03.86zm27.14-3.7l-5.56 3.01a1.6207 1.6207 0 0 1-1.71-.38l-15.28-12.6-2.78-2.29-.62-.5-.5-.62-1.87-2.27-13.02-15.79a1.6207 1.6207 0 0 1-.38-1.71l3.01-5.56c.38-.69 1.49-.56 2.28.27l14.55 15.43 3 3.18 3.65 3.44 14.96 14.11c.83.79.96 1.9.27 2.28z"/><path stroke-width="1.798" d="M45.086 13.534l13.812 13.813m-5.687-8.125l-2.657 2.656"/></g></svg>