<svg xmlns="http://www.w3.org/2000/svg" role="img" viewBox="19.59 9.97 32.69 53.56"><title>E31A.svg</title><path fill="#fff" d="M46.3549 25.5221a78.45074 78.45074 0 0 0-20.71 0c1.5564-4.3527 1.5564-9.1101 0-13.4628a81.96839 81.96839 0 0 0 20.71 0 34.83964 34.83964 0 0 0 0 13.4628zm3.9506 36.014a65.53562 65.53562 0 0 0-28.611 0 75.29834 75.29834 0 0 0 0-31.0013 68.42374 68.42374 0 0 0 28.611 0 132.91036 132.91036 0 0 0 0 31.0013z"/><path fill="#d0cfce" d="M45.1934 24.3867c-1.2266.083-1.7218-.3019-3.4987-.2399 1.091-4.4213 1.471-6.3368.38-10.7581 1.5257.0513 1.7156-.0682 3.1803-.2645-.3137 1.9007-.97 4.3039-.0615 11.2625zm4.1183 36.2156c-2.822-.998-2.2276-.3424-5.4449-.8831 1.5073-10.2788 1.5073-17.2745 0-27.5533 2.6698-.2026 2.5541-.0248 5.4449-.7819-.1377 10.4621-1.7207 11.1504 0 29.2182z"/><g fill="none" stroke="#000" stroke-linecap="round" stroke-linejoin="round" stroke-width="2"><path d="M46.3549 25.5221a78.45074 78.45074 0 0 0-20.71 0c1.5564-4.3527 1.5564-9.1101 0-13.4628a81.96839 81.96839 0 0 0 20.71 0 34.83964 34.83964 0 0 0 0 13.4628zm3.9506 36.014a65.53562 65.53562 0 0 0-28.611 0 75.29834 75.29834 0 0 0 0-31.0013 68.42374 68.42374 0 0 0 28.611 0 132.91036 132.91036 0 0 0 0 31.0013z"/></g></svg>