<svg xmlns="http://www.w3.org/2000/svg" role="img" viewBox="14.88 10.00 41.99 51.87"><title>1F926-1F3FD-200D-2642-FE0F.svg</title><path fill="#92D3F5" d="M16 60.958L15.875 57c0-5.875 6.1328-10 11.125-10 6 5 12 5 18 0 4.9941 0 10 5.0059 10 10v3.958"/><path fill="#6a462f" d="M26 38c-3 0-4.958-6.333-5-14-.0332-6 6-12 15-12s14 6 14 12c0 7-1 14-4 14"/><g fill="#c19a65"><path d="M24.125 31c-.1562 8.7187 4.4063 15 11.8115 15C43 46 47 39 47 31c0-5-3-10-3-10-8 0-10.124 3.729-16 1.2515 0 0-3.7852 3.749-3.875 8.7485z"/><path d="M28.875 60.958c.0049-.5703-.6973-10.4092 0-14.9717.2666-1.7461 2-1.9863 3-3.9863 3-6 1.833-8.333 4-14 1.1299-2.9541-1.5645-3.7236-3.127-.6001l3.0079-3.7939C36.96 20.2915 33.168 19.1665 31.5 21l-1.8271 3.6265c1.5693-2.3536-.9815-4.1485-2.6729-2.375-1.5791 1.6557-3.624 6.2949-5.125 10.7485 0 0-.1172-2.1943.8125-4.1875.5645-1.21.2285-2.9492-1.6875-2.8125-.9971.0713-1.7637 2.7734-2.54 5.667-.7803 2.9067.0879 7.1562.7197 8.4209 1.4141 2.8281 1.6953 2.8984 1.6953 2.8984s-2 8.9717-4 17.9717"/></g><path fill="none" stroke="#000" stroke-linecap="round" stroke-linejoin="round" stroke-miterlimit="10" stroke-width="2" d="M32.3457 21.542C30.1553 24.8276 30.4473 24.3462 27 31m-5 1.6025c2.25-4.333 4.1094-7.81 5.5313-9.6025M17 60c2-9 4-17.4111 4-17.4111s-.5859-.7603-2-3.5889c-2-4 0-9 2-12m14-4c-1.2832 2.5649-2.8262 5.4771-4 9m-2 28c.0049-.5703-.6973-9.4512 0-14.0137.2666-1.7461 2.1914-2.289 3-3.9863 1.9063-4 2.334-7.8057 3.9365-14"/><path fill="none" stroke="#000" stroke-linecap="round" stroke-linejoin="round" stroke-width="2" d="M46 38c3 0 4-7 4-14 0-6-5-12-14-12-8.7617 0-13.7324 3.7915-13.9893 11.3735"/><path d="M41.873 30c0 1.1045-.8955 2-2 2-1.1044 0-2-.8955-2-2s.8956-2 2-2c1.1045 0 2 .8955 2 2"/><path fill="none" stroke="#000" stroke-linecap="round" stroke-linejoin="round" stroke-width="2" d="M37.4375 38H39m-1.002-17.3818c.712-.1426 1.4581-.2745 2.252-.3789C41.3477 20.0947 42.5791 20 44 20c0 0 3 6 3 11 0 8-5.127 14-11.0635 14-.4795 0-.9531-.0381-1.4179-.1113M55 60v-3c0-4.9941-5.0059-9-10-9-3.3652 2.8027-6.8389 3.6934-10.0937 3.6934-.7042 0-1.4415-.0655-2.0538-.1402"/></svg>