<svg xmlns="http://www.w3.org/2000/svg" role="img" viewBox="15.62 12.87 39.89 45.89"><title>E1C4.svg</title><g id="color"><path fill="#D0CFCE" d="M33.1,58h-3c-0.6,0-1-0.4-1-1V37c0-0.6,0.4-1,1-1h3c0.6,0,1,0.4,1,1v20C34.1,57.6,33.6,58,33.1,58z"/><path fill="#9B9B9A" d="M38.4,35.4c1.7-2.9,0.7-6.5-2.2-8.2s-6.5-0.7-8.2,2.2s-0.7,6.5,2.2,8.2S36.7,38.3,38.4,35.4"/><path fill="#FFF" d="M30.603 10.078H40.603V46.077H30.603z" transform="rotate(-60 35.603 28.078)"/><path fill="#D0CFCE" d="M30.602 10.079H40.602000000000004V46.078H30.602z" transform="rotate(-60 35.602 28.08)"/><path fill="#9B9B9A" d="M42.1 37.6L42.1 37.6 22.5 14.8 17.5 23.4z"/></g><g id="line"><path fill="none" stroke="#000" stroke-linecap="round" stroke-linejoin="round" stroke-miterlimit="10" stroke-width="2" d="M30 36.4L30 57M34.1 39.4L34.1 57M28.8 29.9c-1.3 2.2-.7 4.9 1.2 6.4"/><path fill="none" stroke="#000" stroke-linecap="round" stroke-linejoin="round" stroke-miterlimit="10" stroke-width="2" d="M30.603 10.078H40.603V46.077H30.603z" transform="rotate(-60 35.603 28.078)"/><path fill="none" stroke="#000" stroke-linecap="round" stroke-linejoin="round" stroke-miterlimit="10" stroke-width="2" d="M30.603 10.078H40.603V46.077H30.603z" transform="rotate(-60 35.603 28.078)"/><path d="M52.7,34.5c1.4,0.8,1.9,2.7,1.1,4.1s-2.7,1.9-4.1,1.1L52.7,34.5z"/></g><g id="color-foreground"><path id="xx" fill="#D22F27" d="M54.2,37.1c0,1.7-1.4,3-3,3c-0.2,0-0.4,0-0.6-0.1l2.9-5C53.9,35.6,54.2,36.3,54.2,37.1z"/></g></svg>