<svg xmlns="http://www.w3.org/2000/svg" role="img" viewBox="6.42 4.04 60.30 62.92"><title>270D-1F3FF.svg</title><path d="M26.296 36.76L45.9 6.237l4.301 2.847-16.113 26.028M18.943 53.711l-3.391 4.824-5.812 4.338 2.008-7.065 3.804-5.537" fill="#3F3F3F"/><g fill="#6a462f"><path d="M12.5112 54.6969c-1.1821-1.3451-2.3342-3.0456-2.2442-4.012l2.6885-18.4595c0-.8427.1873-1.5918 1.0708-2.0703l16.3478-8.2712c.5202-.2526-1.2442-2.812 4.2487-.4575"/><path d="M20.5423 40.4964l.659-3.9539c.0669-.5425.6064-1.3509.9989-1.5091l2.1077-.8445m-2.3649 18.95c2.3774 7.0276 10.894 6.7402 5.0421-2.1684m-3.5577 1.0001c4.8738 8.5664 15.5709 8.7109 6.3068-4.2992m-1.6131 1.6091c13.3104 17.7473 14.1027 4.4061 5.0706-1.307"/><path d="M56.7973 52.2387c-13.0477 2.7879-14.9603-3.4116-21.2146-4.3521-5.087-1.0545-10.7889 2.251-12.7396 3.8613-4.4436 4.2833-10.2629-1.5712-4.7642-5.6889l7.2546-6.7291 8.2677-3.938 7.8137-10.3699L60.054 35.0334c5.6531 5.6531 5.6531 14.8187 0 20.4719C55.5271 56 47.5057 59.6859 36.5 58.1731"/><path d="M38.132 42.874H16.516l8.62-7.394.927 1.101 8.025-1.469 6.633-11.578 3.567 1.899zm-6.073 3.033H53.54v11.268H32.059z"/></g><g fill="none" stroke="#000" stroke-linecap="round" stroke-linejoin="round" stroke-width="2"><path stroke-miterlimit="10" d="M10.6323 52.6212l2.3232-20.3958c0-.8427.1873-1.5918 1.0708-2.0703l17.1784-8.7194"/><path stroke-miterlimit="10" d="M19.5423 39.4964l.659-3.9539c.0669-.5425.6064-1.3509.9989-1.5091l2.1077-.8445m2.7551 2.5991L45.9 6.237l4.301 2.847L33.73 34.189M15.552 56.775l-2.036 2.764-4.776 5.334L11.494 58l2.04-3.039m30.1704-28.7093s12.6258 6.0141 16.3497 8.7817c6.4166 4.769 5.6531 14.8187 0 20.4719-4.527.4947-8.1479 2.0335-18.2172 2.0335"/><path d="M29.078 55.9386c.6067 3.2292-4.422 4.7876-5.0939.133m10.0271-.2809c.6388 3.2142-4.2872 4.1327-4.9332.1478m9.9715-.5438c.6599 3.2167-4.3629 3.6515-5.0383.396"/><path stroke-miterlimit="10" d="M39.05 55.395l-.594-2.782m-4.445 3.178l-1.002-4.557m-3.931 4.705l-.623-3.077m-4.471 3.21l-.093-.677m32.9063-3.1563c-13.0477 2.7879-14.9603-3.4116-21.2146-4.3521-5.087-1.0545-10.7889 2.251-12.7396 3.8613-4.4436 4.2833-10.2629-1.5712-4.7642-5.6889 0 0 5.0087-4.6922 7.2546-5.7291 2.183-1.0079 9.5516-2.1251 9.5516-2.1251"/></g></svg>