<svg xmlns="http://www.w3.org/2000/svg" role="img" viewBox="5.84 5.84 60.32 60.20"><title>1F312.svg</title><path stroke-linecap="round" stroke-linejoin="round" stroke-width="2" d="M36 8a28 28 0 0 1 4.69.4A28 28 0 0 0 36 8zm-1.32.09A28 28 0 0 0 8 36a28 28 0 0 0 20.49 26.96A28 28 0 0 0 55 35 28.01 28.01 0 0 0 34.68 8.09zm6.12.33a28 28 0 0 1 4.48 1.17 28 28 0 0 0-4.48-1.17zm4.65 1.23a28 28 0 0 1 4.18 1.9 28 28 0 0 0-4.18-1.9zm4.35 2a28 28 0 0 1 3.81 2.6 28 28 0 0 0-3.81-2.6zm3.92 2.69a28 28 0 0 1 3.36 3.24 28 28 0 0 0-3.36-3.24zm3.4 3.29a28 28 0 0 1 2.77 3.79 28 28 0 0 0-2.77-3.79zm2.81 3.85A28 28 0 0 1 62 25.64a28 28 0 0 0-2.07-4.16zm2.13 4.32a28 28 0 0 1 1.32 4.43 28 28 0 0 0-1.32-4.43zm1.35 4.58a28 28 0 0 1 .55 4.6 28 28 0 0 0-.55-4.6zm.56 4.73a28 28 0 0 1-.24 4.62 28 28 0 0 0 .26-3.73 28 28 0 0 0-.02-.89zm-.33 5.11a28 28 0 0 1-.85 3.75 28 28 0 0 0 .85-3.75zm-1.27 5.01a28 28 0 0 1-1.19 2.89 28 28 0 0 0 1.19-2.89zm-1.79 4.1a28 28 0 0 1-2.06 3.26 28 28 0 0 0 2.06-3.26zm-2.32 3.65a28 28 0 0 1-2.89 3.2 28 28 0 0 0 2.89-3.2zm-3.81 4.01a28 28 0 0 1-2.51 1.97 28 28 0 0 0 2.51-1.97zm-3.64 2.72a28 28 0 0 1-3.03 1.64 28 28 0 0 0 3.03-1.64zm-3.84 2.04a28 28 0 0 1-4.1 1.38 28 28 0 0 0 4.1-1.38zM28.57 63a28 28 0 0 0 4.24.8 28 28 0 0 1-4.24-.8zm13.29.33a28 28 0 0 1-3.28.51 28 28 0 0 0 3.28-.51zm-7.88.55a28 28 0 0 0 2.01.13 28 28 0 0 0 1.2-.08 28 28 0 0 1-3.21-.05z"/><circle cx="36" cy="36" r="28" fill="#3f3f3f" stroke="#3f3f3f" stroke-linecap="round" stroke-linejoin="round" stroke-width="2"/><path fill="#fcea2b" d="M55 35a28.001 28.001 0 0 1-26.5465 27.9626A27.9995 27.9995 0 1 0 36 8q-.7312 0-1.4535.0374A28.0059 28.0059 0 0 1 55 35z"/><g fill="none" stroke="#000" stroke-linecap="round" stroke-linejoin="round" stroke-width="2"><circle cx="36" cy="36" r="28"/><path d="M55 35a28.001 28.001 0 0 1-26.5465 27.9626A27.9995 27.9995 0 1 0 36 8q-.7312 0-1.4535.0374A28.0059 28.0059 0 0 1 55 35z"/></g></svg>