<svg xmlns="http://www.w3.org/2000/svg" role="img" viewBox="5.84 5.84 60.19 60.19"><title>1F317.svg</title><path stroke-linecap="round" stroke-linejoin="round" stroke-width="2" d="M64 36A28 28 0 0 0 36 8v56a28 28 0 0 0 28-28z"/><path fill="#fcea2b" d="M21.5485 30.1243a1.5009 1.5009 0 0 0 0-3 1.5009 1.5009 0 0 0 0 3z"/><path fill="#fcea2b" stroke="#fcea2b" stroke-linecap="round" stroke-linejoin="round" d="M8 36a28 28 0 0 0 28 28V8A28 28 0 0 0 8 36z"/><path fill="#3f3f3f" stroke="#3f3f3f" stroke-linecap="round" stroke-linejoin="round" stroke-width="2" d="M64 36A28 28 0 0 0 36 8v56a28 28 0 0 0 28-28z"/><g fill="none" stroke="#000" stroke-linecap="round" stroke-linejoin="round" stroke-width="2"><circle cx="36" cy="36" r="28"/><path d="M8 36a28 28 0 0 0 28 28V8A28 28 0 0 0 8 36z"/></g></svg>