<svg xmlns="http://www.w3.org/2000/svg" role="img" viewBox="13.73 7.73 44.28 59.41"><title>E30C.svg</title><path fill="#92d3f5" d="M40.98 32.1777v6.4111c-.0471 3.0625-2.5675 5.5071-5.63 5.4606h-.71c-3.13.4462-3 4.1706-3 4.1706h-5.66s.13-3.7244-3-4.1706h-1.37c-3.0625.0465-5.5829-2.3981-5.63-5.4606v-6.4111h25z"/><path fill="#fff" d="M16.7838 31.3463s-.2656-10.404.3914-11.6241 2.2396-2.8335 3.3659-2.7397 15.264.0391 15.264.0391 3.7181.2348 4.3444 4.0313c.5355 3.2465 0 10.3325 0 10.3325l-23.3656-.0391z"/><path fill="#d0cfce" d="M24.018 48.22h9.36v4.777h-9.36z"/><g fill="none" stroke="#000" stroke-linecap="round" stroke-linejoin="round" stroke-width="2"><path d="M35.3523 16.1351H21.6137c-3.11 0-5.6311 2.5211-5.6311 5.6311h0v16.523c.0002 3.1099 2.5212 5.6308 5.6311 5.6308h1.3647c3.13.46 3 4.3 3 4.3h5.66s-.13-3.84 3-4.3h.7139c3.11 0 5.6311-2.5211 5.6311-5.6311V21.7663c0-3.11-2.5211-5.6311-5.6311-5.6312zM24.018 48.22h9.36v4.777h-9.36zm4.68 4.777v12.032M15.983 36.285h8.035m-8.035-4.107h5.344m-5.344-4.108h8.035m-8.035-4.107h5.344M23.257 16l5.226-5.042 5.902 5.177"/><path d="M24.7312 9.8667c.4563 2.2588 2.6573 3.7201 4.9161 3.2639 1.6455-.3324 2.9315-1.6184 3.2639-3.2639H56v55.1626"/><path d="M40.98 32.1777v6.4111c-.0471 3.0625-2.5675 5.5071-5.63 5.4606h-.71c-3.13.4462-3 4.1706-3 4.1706h-5.66s.13-3.7244-3-4.1706h-1.37c-3.0625.0465-5.5829-2.3981-5.63-5.4606v-6.4111h25z"/></g></svg>