<svg xmlns="http://www.w3.org/2000/svg" role="img" viewBox="10.54 12.42 48.16 49.79"><title>1F40B.svg</title><path fill="#61b2e4" d="M23.065 26.72c-4.1282 3.8472-5.5675 8.7526-5.5888 14.429-.006 1.6437 1.7126 2.0844 2.9248.97512 3.5672-2.5162 6.8185-8.6309 4.9638-11.042"/><path fill="#61b2e4" d="M30.041 14.415c-8.6237-.0962-15.832 3.2259-17.484 5.0703 4.89 16.658 15.151 15.654 22.777 15.324l.0762.99804c1.6115-.0652 3.0624-.10263 4.25.0527 1.0494.13734 1.8668.41137 2.4688.86523.60199.45387 1.0483 1.0936 1.3281 2.207a1.0001 1.0001 0 0 0 .30273.49805c.28067.85815.59483 1.6448 1.0801 2.1602.0385.47969.0486.9432.0156 1.5918-.54151 4.0693-4.2846.5379-6.4883 2.6406-.80175.76502-2.8088 3.2889-2.4512 3.918.0239.042.0577.0776.10352.10156.16953.0886.49707.0475 1.0352-.17773 2.5151-.519 4.3131 2.5755 6.6074 2.3613.92332-.0862 1.6072-.59985 2.1094-.99218.10561.86518.0158 2.5092.81641 3.2734 1.4307 1.2756 4.0008 2.2803 3.7207 5.9746 2.6173-2.7921 4.7922-4.639 2.0606-9.291-.96732-1.6175-1.5274-2.5131-1.0508-3.6445.26265-.34637 1.0229-1.2044 1.2852-1.5977 9.5709-10.006 1.1331-21.326-6.4043-26.412-5.2994-3.5758-10.984-4.8641-16.158-4.9219z"/><path fill="#d0cfce" d="M35.021 30.718l-5.826-1.4363-4.1621-4.3906-5.6055-4.8906v.00004l-5.9219 2.2988 5.877 9.1035 6.9394 3.4043.89453.8711c1.4444.20036 2.8744.26277 4.2461.2539 1.3804-.009 2.7116-.0754 3.9479-.12544"/><path fill="#61b2e4" d="M35.718 26.72c-4.1282 3.8472-5.5675 8.7526-5.5888 14.429-.006 1.6437 1.7126 2.0844 2.9248.97512 3.5672-2.5162 6.8185-8.6309 4.9638-11.042l1.2145-4.0815z"/><g fill="none" stroke="#000" stroke-linecap="round" stroke-linejoin="round" stroke-width="2"><path d="M19.5 31.459c-1.4394 2.8807-2.0101 6.1344-2.0234 9.6914-.006 1.6437 1.7116 2.0839 2.9238.97461 2.3696-1.6714 4.5906-4.9279 5.2773-7.6348"/><path stroke-miterlimit="10" d="M27.718 34.762c-.36802-.0442-.73634-.0977-1.1043-.16218-5.489-.96174-10.897-4.3507-14.057-15.115 2.6444-2.951 19.51-9.6836 33.642-.148 7.5374 5.086 15.975 16.405 6.4039 26.411-.26228.39322-1.0215 1.2521-1.2841 1.5985-.47657 1.1314.0837 2.0265 1.051 3.644 2.7316 4.6521.55534 6.4992-2.062 9.2913.2801-3.6943-2.2893-4.6988-3.72-5.9743-.80061-.76418-.71022-2.4091-.81583-3.2743-.50218.39233-1.1858.90701-2.1091.99321-2.2943.21419-4.0926-2.881-6.6078-2.362-.53808.2252-.86574.26644-1.0353.17783-.0458-.024-.0803-.0582-.10419-.10016-.35758-.62906 1.649-3.1537 2.4508-3.9187 2.2037-2.1027 5.9472 1.4291 6.4887-2.6402.0684-1.3457-.0397-1.9035-.22987-3.4344-.31633-2.5468-1.4236-3.8344-3.0607-4.4589"/><path d="M38.033 31.082c1.6283.069 3.0443.24313 4.2708.49887M13.961 23.298c-.42519-1.68 1.1394-2.486 3.2694-2.7908 5.7206-.81857 8.8438 7.6773 14.428 9.7485"/><path d="M35.718 26.72c-4.1282 3.8472-5.5675 8.7526-5.5888 14.429-.006 1.6437 1.7126 2.0844 2.9248.97512 3.5672-2.5162 6.8185-8.6309 4.9638-11.042"/></g></svg>