<svg xmlns="http://www.w3.org/2000/svg" role="img" viewBox="7.96 8.71 53.09 54.21"><title>1F429.svg</title><path fill="#9b9b9a" d="M54.1176 53.1541c-.0007.4136.5 7.6026-.98-14.7059-.0586-.8818-1.3818-3.5748-.98-4.902.7359-2.4335 3.8378-1.5845 3.9215-10.7843h-2.9418l-1.9608 7.8432s-5.8824 0-7.8432-.98-7.8431.98-7.8431.98 4.902 3.9215 1.9608 11.7647c-.278.4682 6.4944-.97 7.8431 0 1.9984 1.437 4.4252 11.2518 4.902 10.7843z"/><ellipse cx="54.608" cy="19.331" fill="#d0cfce" rx="5.392" ry="4.412"/><path fill="#9b9b9a" d="M10 18.84l7.843-.98 2.941.98v4.902h-3.163l-6.641-.98L10 18.84"/><path fill="#d0cfce" d="M19.8039 23.7423s-4.9019 8.8235-2.9412 13.7255 6.8628 11.7647 16.6667 8.8235S35.49 24.7227 35.49 24.7227l-.98-4.902s-2.9412-8.8235-6.8627-8.8235-7.8432.98-8.8236 3.9216.9802 8.8235.9802 8.8235z"/><path fill="#9b9b9a" d="M26.667 56.784l-3.922 1.272v2.941h7.843v-4.902l-3.921.689zm24.509 0l-3.921 1.272v2.941h7.843v-4.902l-3.922.689zm-26.47-10.493h5.882l-1.176 5.883h-3.53l-1.176-5.883z"/><ellipse cx="28.137" cy="54.135" fill="#d0cfce" rx="4.412" ry="2.941"/><ellipse cx="52.157" cy="54.135" fill="#d0cfce" rx="3.922" ry="2.941"/><g fill="none" stroke="#000" stroke-linecap="round" stroke-linejoin="round" stroke-width="2"><path d="M49.447 51.455l-4.21-9.544-3.864-.522M59.02 19.8207c.3977-5.3988-4.4057-4.9472-5.8823-4.9019 0 0-3.9216 0-3.9216 3.9215s3.9216 4.902 3.9216 4.902c0 5.8824-3.9216 7.8431-3.9216 7.8431.2419.0071-7.9453-1.9351-11.7647-.98L34.51 24.7227c0 .98-.98-4.902-.98-4.902-1.9608-10.7843-8.8235-8.8235-8.8235-8.8235-5.8824 0-6.8628 6.8628-6.8628 6.8628L10 18.84l.98 3.9216 7.8431.98C13.9216 34.5266 16.49 44.9 25.6863 46.2913c0 0 7.8431 1.9608 11.7647-3.9215a11.8954 11.8954 0 0 0 .98-4.902M24.7059 18.84c-.2975.7806-3.92 19.4774 7.8431 9.804m20.412 21.869l-.804-12.065M31.5686 54.1345c0 1.6243-1.7557 2.9411-3.9215 2.9411s-3.9216-1.3168-3.9216-2.9411a3.0663 3.0663 0 0 1 2.3951-2.71 5.0572 5.0572 0 0 1 1.5265-.2311c2.1658-.0001 3.9215 1.3166 3.9215 2.9411zM29.545 51.193l.063-3.921m-3.922 3.921l-.98-4.902"/><path d="M24.986 57.0756c-1.0981.2352-2.2409.9422-2.2409 1.9608v1.9608h7.8431v-4.2135m18.9076.2919c-1.0981.2352-2.2409.9422-2.2409 1.9608v1.9608h7.8431v-4.2135"/><path d="M56.0784 54.1345c0 1.6243-1.7557 2.9411-3.9215 2.9411s-3.9216-1.3168-3.9216-2.9411a3.0663 3.0663 0 0 1 2.3951-2.71 5.0572 5.0572 0 0 1 1.5265-.2311 5.2219 5.2219 0 0 1 .79.06c1.7873.2739 3.1315 1.4597 3.1315 2.8811z"/></g></svg>