<svg xmlns="http://www.w3.org/2000/svg" role="img" viewBox="7.74 6.74 56.15 59.15"><title>E09F.svg</title><path fill="#fff" d="M17.468 25.887h36.721v25.756H17.468z"/><path fill="#a57939" d="M41.051 31.123h-10.31v13.644L41.051 48V31.123z"/><path fill="#61b2e4" d="M9.9469 60.0494c5.3061 0 5.1545 3.1836 10.4605 3.1836s5.3061-3.1836 10.4606-3.1836 5.1544 3.1836 10.3089 3.1836 5.1544-3.1836 10.3089-3.1836S56.64 63.233 61.7947 63.233v-6.3591c-5.1544 0-5.1544-3.1836-10.3089-3.1836s-5.1545 3.1836-10.3089 3.1836S36.0224 53.69 30.868 53.69s-5.1545 3.1836-10.4606 3.1836S15.253 53.69 9.9469 53.69v6.3594z"/><path fill="#92d3f5" d="M9.9469 52.441c5.3061 0 5.1545 3.1837 10.4605 3.1837s5.3061-3.1837 10.4606-3.1837 5.1544 3.1837 10.3089 3.1837 5.1544-3.1837 10.3089-3.1837 5.1545 3.1837 10.3089 3.1837v-6.3591c-5.1544 0-5.1544-3.1837-10.3089-3.1837s-5.1545 3.1837-10.3089 3.1837-5.1545-3.1837-10.3089-3.1837-5.1545 3.1837-10.4606 3.1837-5.1544-3.1837-10.46-3.1837l-.0005 6.3591z"/><path fill="#92d3f5" d="M9.9469 45.4168c5.3061 0 5.1545 3.1836 10.4605 3.1836s5.3061-3.1836 10.4606-3.1836S36.0224 48.6 41.1769 48.6s5.1544-3.1836 10.3089-3.1836S56.64 48.6 61.7947 48.6v-6.3587c-5.1544 0-5.1544-3.1836-10.3089-3.1836s-5.1545 3.1836-10.3089 3.1836-5.1545-3.1836-10.3089-3.1836-5.1545 3.1836-10.4606 3.1836-5.1544-3.1836-10.46-3.1836l-.0005 6.3591z"/><path fill="#ea5a47" d="M16.6 25.201L35.686 8.917l19.506 16.284H16.6zm12.322-10.527v-4.665h-5.931v9.734l5.931-5.069z"/><g fill="none" stroke="#000" stroke-linecap="round" stroke-linejoin="round" stroke-width="2"><path d="M55.185 50.435V25.201m-38.578 0v25.745M16.6 25.201L35.686 8.917l19.506 16.284H16.6zm12.322-10.527v-4.665h-5.931v9.734l5.931-5.069zm1.819 26.536V31.123h10.31v13.074m20.7437 12.2039c-5.1544 0-5.1544-3.1836-10.3089-3.1836s-5.1545 3.1836-10.3089 3.1836-5.1545-3.1836-10.3089-3.1836-5.1545 3.1836-10.4606 3.1836-5.1544-3.1836-10.46-3.1836m51.8473-4.2817c-5.1544 0-5.1544-3.1836-10.3089-3.1836s-5.1545 3.1836-10.3089 3.1836-5.1545-3.1836-10.3089-3.1836-5.1545 3.1836-10.4606 3.1836S15.253 45.752 9.9469 45.752m51.8478 18.1142c-5.1544 0-5.1544-3.1836-10.3089-3.1836s-5.1545 3.1836-10.3089 3.1836-5.1545-3.1836-10.3089-3.1836-5.1545 3.1836-10.4606 3.1836-5.1544-3.1836-10.46-3.1836"/></g></svg>