<svg xmlns="http://www.w3.org/2000/svg" role="img" viewBox="9.88 10.00 52.00 51.88"><title>E0A4.svg</title><path fill="#EA5A47" d="M58.9991 59.9991h-46c-.5518-.0012-.9988-.4482-1-1v-46c.0012-.5518.4482-.9988 1-1h46c.5518.0012.9988.4482 1 1v46c.0314.5209-.3653.9686-.8862 1a.9393.9393 0 0 1-.1138 0z"/><path fill="none" stroke="#000" stroke-miterlimit="10" stroke-width="2" d="M58.9991 59.9991h-46c-.5518-.0012-.9988-.4482-1-1v-46c.0012-.5518.4482-.9988 1-1h46c.5518.0012.9988.4482 1 1v46c.0314.5209-.3653.9686-.8862 1a.9393.9393 0 0 1-.1138 0z"/><path d="M33.6922 29.9921c-.5523 0-1 .4477-1 1v6.6943l-2.11-2.6943v3.2429l2.323 2.9661c.3407.4347.9692.5109 1.4039.1703.2417-.1894.383-.4794.3832-.7865v-9.5928c.0003-.552-.4468-.9997-.9988-1h-.0013zm-4.4027 3.3497l-2.3229-2.9659c-.3407-.4347-.9692-.5109-1.4039-.1703-.2417.1894-.383.4794-.3832.7865v9.5928c0 .5523.4477 1 1 1s1-.4477 1-1v-6.6944l2.11 2.6941v-3.2428z"/><path d="M41.679 39.4904c-1.057-.2787-1.7901-1.2392-1.78-2.3323v-2.74c-.0101-1.0929.723-2.0532 1.78-2.3314v-2.0314c-2.1802.2922-3.8012 2.163-3.78 4.3626v2.74c-.0214 2.1999 1.5995 4.071 3.78 4.3636v-2.0311zm1.2925-9.435v2.0313c1.0566.2784 1.7895 1.2385 1.7793 2.3312v2.74c-.0303 1.0763-.7477 2.0117-1.7793 2.32v2.04c2.1516-.3418 3.746-2.181 3.7793-4.3593v-2.74c.0216-2.1996-1.599-4.0707-3.7793-4.3632z"/></svg>