<svg xmlns="http://www.w3.org/2000/svg" role="img" viewBox="1.67 6.55 68.90 51.90"><title>1F69E.svg</title><path fill="#fff" d="M4.17 33.447l-.206 21.442 63.747.077.306-31.912L49.914 10.32 29.048 24.972l-8.054-7.364L4.17 33.447z"/><path fill="#b1cc33" d="M22.087 36.099h45.278v12.025H22.087z"/><rect width="6.341" height="10.646" x="34.919" y="32.77" fill="#92d3f5" rx="1.058" ry="1.058"/><rect width="6.341" height="10.646" x="21.963" y="32.77" fill="#92d3f5" rx="1.058" ry="1.058"/><rect width="6.341" height="10.646" x="47.929" y="32.77" fill="#92d3f5" rx="1.058" ry="1.058"/><rect width="6.341" height="10.646" x="60.939" y="32.77" fill="#92d3f5" rx="1.058" ry="1.058"/><path fill="#d0cfce" d="M34.31 51.6463c.0114 2.3441-1.8796 4.2537-4.2237 4.2652-2.3441.0114-4.2537-1.8796-4.2652-4.2237v-.0414m37.4555-.0001c0 2.3442-1.9003 4.2445-4.2445 4.2445s-4.2445-1.9003-4.2445-4.2445"/><path fill="#92d3f5" d="M16 22l5-5 5 5-2 1-2-2-2 2-2-1-3 2-1-1 2-1zm26.167-6.571L50.083 9 58 15.429l-3.167 1.285-3.166-2.571-3.167 2.571-3.167-1.285L40.583 18 39 16.714l3.167-1.285z"/><path fill="#3f3f3f" d="M22.757 47.584h43.938v4.063H22.757z"/><g fill="none" stroke="#000" stroke-linecap="round"><path stroke-linejoin="round" stroke-width="2" d="M4 56h64m0-34L50 9 29 24l-8-8L4 32"/><path stroke-miterlimit="10" stroke-width="2.074" d="M23.71 50.6463h-.82c-.49-.0014-.887-.3983-.8884-.8883V28.8236c.0031-1.0462.8505-1.8936 1.8967-1.8967H65.383c1.0464.0029 1.8939.8503 1.897 1.8967v20.9347c-.0014.4898-.3982.8866-.888.888h-.8291M52.532 50.646H36.406m-2.096 1.2524c.0114 2.3441-1.8796 4.2537-4.2237 4.2652-2.3441.0114-4.2537-1.8796-4.2652-4.2237v-.0414m37.4555-.2522c0 2.3442-1.9003 4.2445-4.2445 4.2445s-4.2445-1.9003-4.2445-4.2445"/><rect width="6.341" height="10.646" x="34.919" y="32.78" stroke-miterlimit="10" stroke-width="2.074" rx="1.058" ry="1.058"/><rect width="6.341" height="10.646" x="21.963" y="32.78" stroke-miterlimit="10" stroke-width="2.074" rx="1.058" ry="1.058"/><rect width="6.341" height="10.646" x="47.757" y="32.859" stroke-miterlimit="10" stroke-width="2.074" rx="1.058" ry="1.058"/><rect width="6.341" height="10.646" x="60.939" y="32.859" stroke-miterlimit="10" stroke-width="2.074" rx="1.058" ry="1.058"/><path stroke-miterlimit="10" stroke-width="1.97" d="M20.945 47.566h47.368"/></g></svg>