<svg xmlns="http://www.w3.org/2000/svg" role="img" viewBox="11.96 5.46 49.45 60.58"><title>E095.svg</title><rect width="34.043" height="55.942" x="14.182" y="7.979" fill="#9b9b9a" rx="3.68" ry="3.68"/><path fill="#3f3f3f" d="M44.3929 54.9961H18.0135a.9747.9747 0 0 1-.9727-.9727V15.117a.9748.9748 0 0 1 .9727-.9727h26.3794a.9748.9748 0 0 1 .9727.9727v38.9064a.919.919 0 0 1-.9727.9727z"/><path fill="#fcea2b" d="M46.2852 7.6752a13.0323 13.0323 0 0 0-9.2634 22.2024l-2.6729 8.5816 7.1733-5.6237a13.0317 13.0317 0 1 0 4.763-25.16z"/><g><path fill="none" stroke="#000" stroke-linecap="round" stroke-linejoin="round" stroke-width="2" d="M45.3656 37.4681v16.5553a.919.919 0 0 1-.9727.9727H18.0135a.9747.9747 0 0 1-.9727-.9727V15.117a.9748.9748 0 0 1 .9727-.9727H31.572"/><circle cx="31.203" cy="59.252" r="1.945"/><path fill="none" stroke="#000" stroke-linecap="round" stroke-linejoin="round" stroke-width="2" d="M33.334 11.226H26.34m21.8848 25.635v23.38a3.6908 3.6908 0 0 1-3.68 3.68H17.8616a3.6908 3.6908 0 0 1-3.68-3.68V11.6587a3.6908 3.6908 0 0 1 3.68-3.68h19.1092"/><path fill="none" stroke="#000" stroke-linecap="round" stroke-linejoin="round" stroke-width="2.5" d="M46.892 26.339v-5.745h-2.903m5.663 5.745h-5.729"/><circle cx="46.589" cy="15.602" r="1.909"/><path fill="none" stroke="#000" stroke-linecap="round" stroke-linejoin="round" stroke-width="2" d="M46.2851 7.6752A13.0261 13.0261 0 0 0 37.2562 30.1l-2.6037 8.36 7.0766-5.5479a13.03 13.03 0 1 0 4.556-25.2361z"/></g></svg>