<svg xmlns="http://www.w3.org/2000/svg" role="img" viewBox="1.56 24.81 68.25 33.38"><title>1F6FB.svg</title><path fill="#d22f27" d="M6.7469 52a.9994.9994 0 0 1-1-1v-9.1111A3.2209 3.2209 0 0 1 8.4891 38.69l11.3713-2 6.3535-7.8a7.3957 7.3957 0 0 1 5.7529-2.7334h11.2373a2.173 2.173 0 0 1 2.1709 2.1709v8.5273h19.6479a1 1 0 0 1 1 1L66.0259 52z"/><path fill="#92d3f5" d="M41.2232 38.3284h-3.9209a1 1 0 0 1-1-1V30.221a.9994.9994 0 0 1 1-1H40.74a1.5441 1.5441 0 0 1 1.4834 1.5957v6.5117a.9994.9994 0 0 1-1.0002 1zm-7.1284 0H24.65a1 1 0 0 1-.7832-1.6211l3.5859-4.5195c.1944-.2334.3594-.4385.5166-.6319 1.0147-1.2529 1.8916-2.3349 3.5567-2.3349h2.5684a.9994.9994 0 0 1 1 1v7.1074a1 1 0 0 1-.9996 1z"/><circle cx="16" cy="51" r="5" fill="#3f3f3f"/><circle cx="52.933" cy="51" r="5" fill="#3f3f3f"/><path fill="#d0cfce" d="M16 54a3 3 0 1 1 3-3 3.0033 3.0033 0 0 1-3 3zm36.9336 0a3 3 0 1 1 3-3 3.0033 3.0033 0 0 1-3 3z"/><path fill="#fcea2b" d="M6.0629 41.9918h3.7324a1.679 1.679 0 0 1 1.4453.8012 1.6077 1.6077 0 0 1 .042 1.6236l-1.4317 2.63a1.7614 1.7614 0 0 1-1.5507.91H7.0629a.9891.9891 0 0 1-1-.9791v-4.9857zm2 4.9863zm56.9263-3.0673v3.0673a.9891.9891 0 0 1-1 .9791h-1.2373a1.7614 1.7614 0 0 1-1.5507-.91l-1.4317-2.63a1.6077 1.6077 0 0 1 .042-1.6236 1.679 1.679 0 0 1 1.4453-.8012h3.7324zm-2.01 3.0673z"/><path fill="#d0cfce" d="M66.36 52h-8.4269v-4.0428h7.0794c1.1463 0 2.9033-.08 2.9033.6587v2.8252c-.0811.323-.923.5589-1.5558.5589zm-56.2883 0H4.3969C3.6248 52 3 51.7 3 51.3283v-1.3366c0-2.0506 0-2.0506 4.2629-2.0506h4.2193l-.0136 3.3889c-.0014.37-.6262.67-1.3969.67z"/><g fill="none" stroke="#000" stroke-linecap="round" stroke-linejoin="round" stroke-width="2"><path d="M60.6527 43.9981l1.4315 2.686c.1314.2466.2636.27.6675.2749h2.7719a2.0051 2.0051 0 0 1 2.033 2.3211l-.3039 1.7146H60.831"/><path d="M6.0521 46.9781v-5.0889a2.2373 2.2373 0 0 1 1.8958-2.2111L20.3928 37.62l6.5967-8.098a6.419 6.419 0 0 1 4.9769-2.365h11.2382a1.1708 1.1708 0 0 1 1.1708 1.1708v9.5273H65v9.1233"/><path d="M10.3994 43.9981l-1.4315 2.686c-.1314.2466-.2636.27-.6675.2749H6.0521A2.0522 2.0522 0 0 0 4 49.011V51h4.0629m33.1605-20.1835v6.5121h-3.9211M34.095 30.817v6.512H24.65"/><circle cx="16" cy="51" r="5"/><circle cx="52.933" cy="51" r="5"/><path d="M23.651 51h21.21"/></g></svg>