<svg xmlns="http://www.w3.org/2000/svg" role="img" viewBox="8.00 9.62 58.63 56.13"><title>1F984.svg</title><path fill="#FFF" d="M23.7544 12.3618l1.6667 7.1667-5.3333 5.3333-8.3333 14.3333 1 4.6667 2.1667 1.3333 4-.1667 3.5-3.3333 6.8333-1.8333s1.3333 1.5 2.1667 3 3.6667 4.1667 3.6667 4.1667l.5 6-1.8333 6.1667-2 2.8333s22 9.5 33.1667-7l-.5-6-1.8333-5-3.3333-5.1667-1-1.5-.1667-5.1667-2.8333-5.3333-5-3-2.6667-4.5-5.1667-4.1667-6.5-1.5-5.6667 1-4.1667-2.1667-2.3335-.1666z"/><path fill="#EA5A47" d="M50.671 23.155l5.2083 4.095s5.5638 8.2181-.3258 17.8201c-7.0492 11.4924 0 0 0 0-1.6183 3.4754-2.3141 6.7423-1.738 9.7216l-5.3111-4.4167V34.2917L50.671 23.155zm-24.773-3.884l-15.113-7.25 5.166 6.119 5.224 5.855 4.723-4.724"/><path fill="#92D3F5" d="M29.7367 13.6311l10.7677.1362s9.2377 4.0661 10.5355 11.8161l.6874 8.9567c-2.6337 6.5386-3.0562 14.1267 2.0883 20.8336 0 0-7.1444 1.3215-9.8944-7.1094L42.3377 43.5l.3258-6.0341 1.4169-5.6426-.2833-4.8929-2.2761-4.3124-3.5322-2.8413-5.792-2.0801-2.4601-4.0655"/><path fill="#61B2E4" d="M58.4549 36.75s5.5192 6.4066 6.9982 15.1193c.1838 1.0826.1251 2.193-.1377 3.2591-.4317 1.7512-.8179 4.9979.1452 7.3825.4689 1.1611-.5621 2.3655-1.7883 2.1115-3.7094-.7686-9.2437-3.6474-10.2567-8.0876-.0239-.1047-.0368-.2138-.0417-.321l-.266-5.7459a1.57464 1.57464 0 0 1 .1875-.8211l3.692-6.8359c.0666-.1233.1164-.2549.1482-.3914l1.3193-5.6695"/><g><path fill="none" stroke="#000" stroke-linecap="round" stroke-linejoin="round" stroke-miterlimit="10" stroke-width="2" d="M58.4549 37.7826C60.2229 40.1443 65 44.4647 64.5 54.0208m-32-12.1354s8.4783 6.7823 0 18.7647M24.809 19.134L10.25 11.75l10.925 12.245"/><path fill="none" stroke="#000" stroke-linecap="round" stroke-linejoin="round" stroke-miterlimit="10" stroke-width="2" d="M35.1962 30.8696c.5489 8.3555-9.3225 9.703-11.954 10.3347-.3325.0798-.6318.25-.8736.4919l-2.2227 2.2227a1.86351 1.86351 0 0 1-1.3176.5458h-3.5121c-1.203 0-2.2711-.7698-2.6515-1.9111l-.531-1.5931a2.79489 2.79489 0 0 1 .2549-2.3218l8.7862-14.6436 4.7238-4.7238-2.1151-6.9054s7.8026-.6987 8.4135 5.3308c0 0 16.9281 2.4418 10.5531 19.383 0 0-1.625 5.9489 2.375 11.1846M30.9167 14.0208S53.1611 10 50.875 33.9791"/><path fill="none" stroke="#000" stroke-linecap="round" stroke-linejoin="round" stroke-miterlimit="10" stroke-width="2" d="M49.9187 23.155s14.7665 6.5865 5.4563 22.22c0 0-5.375 6.5625.625 13.6042"/><circle cx="24.417" cy="28.93" r="2"/></g></svg>