<svg xmlns="http://www.w3.org/2000/svg" role="img" viewBox="7.30 5.92 62.40 54.27"><title>1F469-1F3FE-200D-1F33E.svg</title><path fill="#B1CC33" d="M54.8401 58.9748s2-14.0205-10-14.0205c-3.1918 2.1279-5.9264 3.5984-9 3.5921h.125c-3.0736.0063-5.8081-1.4642-9-3.5921-12 0-10 14.0205-10 14.0205"/><path fill="#61B2E4" d="M22.032 44.995h4.288v14.027h-4.288zm22.469 0h4.288v14.027h-4.288z"/><path fill="#61B2E4" d="M22.032 57.336h27.491v1.734H22.032z"/><path fill="#5C9E31" d="M26.903 45.054l5.803 10.187 3.197-5.295m9-4.892l-5.804 10.187-3.196-5.295"/><path fill="#F4AA41" d="M27.062 16.375V8.173l8.785 1.418 8.786-1.418v8.202"/><path fill="#E27022" d="M27.062 12.958h17.446v2.658H27.062z"/><path fill="#9B9B9A" d="M57.561 40.758h5.48v4.245h-5.48z"/><path fill="#A57939" d="M58.301 45.044V58.975h4V45.044z"/><g><path d="M9.7129 48.3177c6.3524-.3944 4.5577-5.6759 4.5577-5.6759s-5.5445-.6118-4.5577 5.6759zM56.2127 38.137c2.1052-2.4526-.9647-5.5202-2.188-4.7455 2.1054-4.1094.2125-7.648-1.8387-10.8415-2.4906-3.8777-5.9991-6.5095-5.9991-6.5095H26.383s-11.9999 8.7517-7.3379 17.851c-1.2233-.7747-2.3565-.3104-3.1313.9129-.7747 1.2233-.7801 2.5579.4433 3.3326-1.4183 0-2.5681 1.1497-2.5681 2.568s1.1498 2.5681 2.5681 2.5681 2.568-1.1498 2.568-2.5681c.6816 1.2776 1.9884 1.2985 3.2872.6582 1.9517-.9622 1.0791-3.5474 1.0791-3.5474 3.6019 6.1061 9.1339 3.8279 9.1625 3.816-4.5758-1.8243-7.8898-7.181-7.8898-13.5056 0-2.9437.718-5.6779 1.947-7.9438l-.0278.0891.6342 2.0569h17.335l.6342-2.0569-.0278-.0891c1.229 2.2659 1.947 5.0001 1.947 7.9438 0 6.3246-3.3141 11.6815-7.8899 13.5056.0289.012 5.5607 2.2898 9.1625-3.816 0 0-.8726 2.5852 1.0791 3.5474 1.2988.6403 1.9056 1.6194 2.5872.3418 0 1.4183 1.1497 2.5681 2.568 2.5681 3.5286 0 3.2681-2.1498 3.2681-3.5681.4921-1.1482.4472-2.5546-1.5682-2.568z"/></g><g><path fill="#a57939" d="M35.9026 22.663h8.8477s-.0171-3.205.2418-2.78c1.4504 2.3813 2.3116 5.3538 2.3116 8.5778 0 7.8276-5.0765 14.1732-11.3386 14.1732s-11.3386-6.3456-11.3386-14.1732c0-3.0831.7875-5.9363 2.1249-8.2623.1858-.3231.366 2.4645.366 2.4645h8.7852z"/></g><g><path d="M41.9027 27.1c0 1.1045-.8965 2-2 2s-2-.8955-2-2c0-1.1035.8965-2 2-2s2 .8965 2 2m-8 0c0 1.1045-.8965 2-2 2s-2-.8955-2-2c0-1.1035.8965-2 2-2s2 .8965 2 2m1.9999 10.0024c-1.1518 0-2.3037-.2861-3.4473-.8579-.4941-.247-.6943-.8476-.4472-1.3418.2466-.4936.8462-.6943 1.3418-.4472 1.7177.8593 3.3877.8593 5.1054 0 .4947-.2471 1.0948-.0464 1.3418.4472.2471.4942.0469 1.0948-.4472 1.3418-1.1436.5718-2.2954.8579-3.4473.8579z"/><path fill="none" stroke="#000" stroke-linecap="round" stroke-linejoin="round" stroke-miterlimit="10" stroke-width="2" d="M26.903 45.054l5.803 10.187 3.197-5.295m9-4.892l-5.804 10.187-3.196-5.295"/><path fill="none" stroke="#000" stroke-linecap="round" stroke-linejoin="round" stroke-miterlimit="10" stroke-width="2" d="M54.8401 57.9543s2-13-10-13c-3.1918 2.1279-5.9264 3.5984-9 3.5921h.125c-3.0736.0063-5.8081-1.4642-9-3.5921-12 0-10 13-10 13M22.032 45.906V58.11m27.491-12.204V58.11"/><path fill="none" stroke="#000" stroke-linecap="round" stroke-linejoin="round" stroke-miterlimit="10" stroke-width="2" d="M27.171 45.209V58.11l17.448-.014V45.189m-28.2619-6.7174c-1.2234-.7748-1.218-2.1093-.4433-3.3326.7748-1.2234 1.908-1.6877 3.1313-.9129m-.12 6.8135c0 1.4183-1.1497 2.5681-2.568 2.5681s-2.5681-1.1498-2.5681-2.5681 1.1498-2.568 2.5681-2.568M9.7129 48.6523c6.3524-.3944 4.5577-5.6759 4.5577-5.6759s-5.5445-.6118-4.5577 5.6759zm13.5785-10.5019s.8726 2.5851-1.0791 3.5473c-1.2988.6403-2.6056.6195-3.2872-.6581M27.062 16.375V8.173l8.785 1.418 8.786-1.418v8.202M27.062 12.87h17.571m-18.25 3.5051s-11.9999 8.7517-7.3379 17.851m33.5996 6.8135c0 .8066.3718 1.5264.9535 1.9972m-5.3198-4.8864s-.8726 2.5851 1.0791 3.5473c1.2988.6403 2.6056.6195 3.2872-.6581m-7.4579-24.6645s2.9602 2.159 5.3689 5.4472M53.1295 25.1s-2.3767 15.4155 7.0845 15.6583V25.1m7.0845 0s2.3766 15.4155-7.0845 15.6583V25.1"/><path fill="none" stroke="#000" stroke-linecap="round" stroke-linejoin="round" stroke-miterlimit="10" stroke-width="2" d="M57.561 40.758h5.48v4.245h-5.48zm4.74 17.196v-12.91h-4v12.91M19.39 16.375h32.568m-25.447 4.142c-1.229 2.2659-1.947 5-1.947 7.9438 0 7.8277 5.0765 14.1732 11.3386 14.1732s11.3386-6.3455 11.3386-14.1732c0-2.7693-.6354-5.3532-1.734-7.5362l-.2361-.8856-.5208 2.624H27.1174l-.6342-2.0571"/></g></svg>