<svg xmlns="http://www.w3.org/2000/svg" role="img" viewBox="14.65 5.78 45.82 63.57"><title>1F3B7.svg</title><path fill="#fcea2b" d="M58.3359 42.5786c-2.7773-2.126-8.5199-5.8337-10.2807-6.9909.8311 5.1719 1.7668 16.6156.47 18.8578-.3819.6601-.3669 1.6449-.6462 1.6449-1.1557 0-4.1123-14.8042-4.1123-14.8042.0169-.0169-5.1231-25.0405-5.8159-27.611-.4102-1.5249-2.2325-2.7641-2.6436-2.9374-1.211-.5103-7.4913-.8018-10.1632-1.1162 1.5498.3779 6.8551 2.5792 7.7545 3.1724 2.1982 1.4487 2.8586 7.6358 4.9348 26.0835.3554 3.1572 1.1778 10.8786 1.5274 13.7468.749 6.1211 1.1333 7.5279 2.4673 10.3394 1.4287 3.0117 6.051 4.4648 6.051 4.4648 4.6997-.4112 7.3433-4.3532 7.3433-7.7546-.0449-1.0098-.4355-9.5911.4112-12.4543.5215-1.7627 1.9436-3.8998 2.7024-4.641z"/><path fill="#3f3f3f" d="M19.563 8.3379c-.0078.0811-.4535 1.3485-.4653 1.4232.2315.0254 1.0852.0304 1.3137.0548 1.1133.1206 3.0453.4053 4.3519.5747-.1103-.166-.3705-1.7343-.4418-1.8852-.5351-.0273-1.6859-.0161-2.3226-.0581-.8106-.0537-1.7972-.085-2.4359-.1094z"/><g fill="none" stroke="#000" stroke-linecap="round" stroke-linejoin="round" stroke-miterlimit="10" stroke-width="2"><path d="M39.674 30.278l1.534-.946m-.921 5.444l1.863-1.064m-1.23 5.602l1.827-1.355m-1.067 6.293l1.75-1.747m4.5488 24.6694l-.2473.0124c-1.9476.0976-4.528-.6466-6.0516-3.8582-1.3826-2.9143-1.9445-6.7954-2.7225-13.1606-1.7866-14.6171-3.5588-35.4876-6.1067-37.1668-3.6575-2.4104-16.4202-2.7051-15.939-3.24.102-.1134.4415-.2152 1.6139-.2573.4613-.0166.0362-1.4799.6104-1.4837 1.1638-.0077 3.7966.2283 5.2394.2793.2471.0088.5007 1.0585.7517 1.0691 4.3901.1854 8.9637.8552 11.0332 1.7268.5752.2423 1.2915.562 1.8241 2.5387 2.0671 7.6717 8.1527 43.2176 9.8464 43.2176 1.6937 0 1.3243-18.9038.1054-21.0217-1.2188-2.1179 10.4479 6.9191 10.4479 6.9191s-2.0679 1.2514-2.8921 4.0368c-.8243 2.7854-.3793 12.9091-.3793 12.9091 0 4.0863-3.268 7.4093-7.333 7.4982"/></g></svg>