<svg xmlns="http://www.w3.org/2000/svg" role="img" viewBox="18.78 5.78 41.56 63.31"><title>1F3CC-1F3FE.svg</title><path fill="#D0CFCE" d="M53.9375 15.7813L57 16l1 3c1 2-2.9687 3.1875-3.9687.1875"/><g fill="#a57939" stroke="#a57939"><circle cx="38.969" cy="11.094" r="3"/><path d="M33.1563 20c-4.0625.4688-5.8233.2085-6.3643-.625-.5137-.792-.209-4.4585-.375-8.75l-2.25-1.1665-.042 10.875 1.417 2 5.25.7915 1.333-.5835L33.1563 20z"/><path d="M28 11l2 5 10 3 1 3-1 11 1 4 1 14 4 16h-3l-6-16-2-11h-1l-1 10-2 17h-3V49l1-13 2-9 2.25-6.9375c-.8437-.2812-3.4687-.9062-4.5937-2.1562s-3.3331-5.8335-3.3643-7.3648"/></g><g fill="none" stroke="#000" stroke-miterlimit="10" stroke-width="2"><path stroke-linecap="round" stroke-linejoin="round" d="M33 21l-1.3672 4.1025c-.3476 1.0435-.8281 2.7759-1.0664 3.8496l-1.1328 5.0958c-.2383 1.0732-.502 2.8496-.5869 3.9462l-.6934 9.0118C28.0684 48.1025 28 49.9004 28 51v14c0 1.0996.6758 2 1.5 2s1.6045-.8936 1.7334-1.9863l1.5322-13.0274c.1289-1.0927.3233-2.8818.4336-3.9765l.6016-6.0196C33.9102 40.8955 34.2246 40 34.5 40c.2754 0 .6611.8857.8574 1.9678l1.2852 7.0644c.1963 1.0821.6738 2.8106 1.0595 3.8408l4.5958 12.254C42.6836 66.1572 43.6748 67 44.5 67c.8252 0 1.2813-.873 1.0146-1.9404l-3.0292-12.1192c-.2666-1.0674-.5499-2.8379-.628-3.9355l-.7148-10.0098c-.0781-1.0976-.3613-2.8681-.628-3.9355l-.0292-.1192c-.2666-1.0674-.4043-2.8369-.3047-3.9326l.6386-7.0161c.0996-1.0952-.0439-2.6665-.3193-3.4917-.2754-.8252-1.3623-1.7588-2.416-2.0747l-6.168-1.8506c-1.0547-.3159-2.25-1.4101-2.6582-2.4316L28 11"/><circle cx="38.969" cy="11.094" r="3"/><path stroke-linecap="round" stroke-linejoin="round" d="M32 23l-5.0234-.6279C25.3398 22.1675 24 20.6499 24 19v-9m21.7666 3.8164L57 16l1 3c1 2-2 3-3 0M21 9l10.974 2.134"/></g></svg>