<svg xmlns="http://www.w3.org/2000/svg" role="img" viewBox="11.96 9.59 46.95 53.95"><title>1F339.svg</title><path fill="#EA5A47" d="M38.1631 16.8246s-5.1901-.5135-5.8625 3.0442 1.757 6.4979 2.9313 6.6556c0 0-2.5562 6.2939 1.8725 9.6935s9.1611 1.1911 10.9752-2.1216c0 0 8.0846.9665 8.4396-6.4577 0 0-.9641-6.4239-5.8652-6.2931 0 0 1.3634-6.9761-3.8985-8.4706s-8.5924 3.9497-8.5924 3.9497z"/><path fill="#B1CC33" d="M25.9293 32.6035c3.992 4.886 2.805 12.462 2.805 12.462s-7.66-.347-11.653-5.233-2.805-12.462-2.805-12.462 7.661.351 11.653 5.233z"/><path fill="#D22F27" d="M44.4122 38.2369c.9095 1.9758 1.874 3.7171 3.4969 4.5633 1.7075.8903 3.6834.6758 5.1278-.1255 1.5266-.8468 2.6551-2.5099 2.6972-4.5946.0355-1.7625-1.1056-3.5236-2.1483-5.4034l-5.0366 2.4325-4.137 3.1277zm7.5393-18.1631s.1963-3.2744-.3034-4.0737c0 0 1.1424-1.6739 3.088-1.3169 1.4815.2718 2.3317 3.3174 2.653 4.7549.1124.5031.2884.7228-.0498 1.1118-.5455.6274-1.8031 1.8051-2.9605 2.0586l-2.4273-2.5347z"/><path fill="#EA5A47" d="M48.3664 22.704c0 1.6312-2.0931 2.9535-4.6751 2.9535s-4.6751-1.3223-4.6751-2.9535"/><path fill="#D22F27" d="M50.5245 31.1699c-.5009.6863-1.4235 1.1037-2.2859 1.3551-1.1433.3333-2.3619.4293-3.543.2537-2.1134-.3143-4.0049-1.2693-5.4503-2.6508-1.3591-1.2989-2.3237-2.9748-2.7075-4.8494 0 0-.0062-.0313-.0135-.0891-.0513-.4042-.1594-2.1031 1.3907-3.4133.6559-.5544 1.5837-.882 2.4763-1.0041 1.1833-.1618 2.4028-.0781 3.5418.2685 2.038.6203 3.7539 1.8412 4.9606 3.4181 1.1346 1.4827 1.819 3.2801 1.8975 5.1888"/><path fill="#EA5A47" d="M39.0161 22.8385c-.0018 1.6129 1.9173 2.6679 4.5145 2.7789s4.7591-1.1201 4.8288-2.7498l-.0008-.3155c-.0191-1.632-2.1412-2.9744-4.7397-2.9983-2.5986-.0239-4.6219 1.6527-4.6028 3.2847"/><path fill="#D22F27" d="M43.174 24.8175c-.6105-1.4165.3289-3.1838 2.0983-3.9475.9179-.3962 1.9603-.3538 2.8746-.035 1.4172.4941 2.4105 1.8808 2.3753 3.3822-.0051.2183-.0355.4264-.1035.6054"/><path fill="#D22F27" d="M43.174 23.8299c-.6105 1.4165.3289 3.1838 2.0983 3.9475.9179.3962 1.9603.3538 2.8746.035 1.4172-.4941 2.4105-1.8808 2.3753-3.3822-.0051-.2183-.0355-.4264-.1035-.6054"/><g fill="none" stroke="#000" stroke-linecap="round" stroke-linejoin="round" stroke-width="2"><path stroke-miterlimit="10" d="M49.8675 30.3979c-.4428.6348-1.2583 1.0208-2.0207 1.2533-1.0107.3083-2.0878.3971-3.1319.2346-1.8682-.2907-3.5402-1.174-4.8179-2.4517-1.2014-1.2014-2.0541-2.7514-2.3933-4.4853m2.4995-2.1264c0-1.6312 1.6529-2.9535 3.6919-2.9535 2.039 0 3.6919 1.3223 3.6919 2.9535m2.0233 2.1642c0 1.1609-1.1763 2.1019-2.6274 2.1019-.7528 0-1.4609-.3402-1.9982-.8332-.8327-.7641-1.1063-2.0186-.6344-3.0455.0686-.1493.1516-.284.252-.3874m8.906-6.9199c.9791-.6237 2.4048-.1371 3.1844 1.0868.7796 1.2239.6178 2.7216-.3613 3.3453m-1.9362 15.5893c1.1689 2.1072.4082 4.7631-1.699 5.932-2.1072 1.1689-4.7631.4082-5.932-1.699m-8.4011-23.9637c-2.253-.8548-5.9182 1.2312-6.5125 3.6757-.5693 2.3415.9006 6.2141 3.1536 7.0689"/><path stroke-miterlimit="10" d="M50.8669 20.8344c5.4159.6272 6.3961 6.4611 5.8024 8.7734-.8819 3.4349-5.3899 5.4013-8.1201 4.6907m2.3177-13.4641c1.2816-3.5081-.5232-7.3909-4.0313-8.6725-3.5081-1.2816-7.3909.5232-8.6725 4.0313m-3.3589 10.7446c-2.0326 3.7956-.6035 8.5203 3.1921 10.5529s8.5203.6035 10.5529-3.1921"/><path d="M25.9293 32.3094c3.992 4.886 2.805 12.462 2.805 12.462s-7.66-.347-11.653-5.233-2.805-12.462-2.805-12.462 7.661.351 11.653 5.233zm11.175 8.555c-3.438 3.548-7.676 10.246-5.829 20.735"/></g></svg>