<svg xmlns="http://www.w3.org/2000/svg" role="img" viewBox="10.00 9.88 52.00 52.00"><title>E05D.svg</title><path d="M35.9229 15.9417a20.0469 20.0469 0 0 0-17.0911 30.5729l-1.9236 8.5325 8.4409-1.9844a20.0688 20.0688 0 1 0 10.5738-37.121z"/><path fill="none" stroke="#000" stroke-dasharray="6.116 4.587" stroke-linecap="round" stroke-linejoin="round" stroke-width="2" d="M60.0376 36.1049a24.006 24.006 0 0 0-27.67-23.8674c-16.6142 2.367-25.717 21.8659-16.9262 36.0411l-2.296 10.183a.4561.4561 0 0 0 .5493.5444l10.1421-2.3844c15.5078 9.44 36.24-2.149 36.2007-20.5167z"/><g><path fill="#61b2e4" d="M35.9229 15.9417a20.0469 20.0469 0 0 0-17.0911 30.5729l-1.9236 8.5325 8.4409-1.9844a20.0688 20.0688 0 1 0 10.5738-37.121z"/><path fill="none" stroke="#61b2e4" stroke-dasharray="6.116 4.587" stroke-linecap="round" stroke-linejoin="round" stroke-width="2" d="M60.0376 36.1049a24.006 24.006 0 0 0-27.67-23.8674c-16.6142 2.367-25.717 21.8659-16.9262 36.0411l-2.296 10.183a.4561.4561 0 0 0 .5493.5444l10.1421-2.3844c15.5078 9.44 36.24-2.149 36.2007-20.5167z"/></g></svg>