<svg xmlns="http://www.w3.org/2000/svg" role="img" viewBox="7.85 5.97 47.43 59.93"><title>E148.svg</title><path fill="#f1b31c" d="M20.64 60.0652c1.2884-1.3774 3.5553-3.5778 4.8055-4.9144-1.4427.8793-4.1755 3.3446-5.5714 4.23a45.6473 45.6473 0 0 1-5.45-4.7348 23.46 23.46 0 0 0 8.9808-4.1188 29.5494 29.5494 0 0 1-10.0069 2.8814A47.5786 47.5786 0 0 1 9.9974 48c7.0976 1.93 14.8154-.9125 19.5793-5.8747 1.2319.7119 2.8134 1.5783 4.1044 2.23a3.1808 3.1808 0 0 1 1.605 1.8949c1.7331 4.63.7225 8.7115-2.4132 12.38-1.3121 1.5349-3.2687 3.8825-4.9969 4.923a33.7009 33.7009 0 0 1-7.236-3.488z"/><path fill="#a57939" d="M36.2569 39.36l-2.5721-1.4886c.6788-1.1846 1.3362-2.3389 2-3.4893q7.2-12.4714 14.4018-24.9414c.0981-.17.1933-.3422.301-.5062a1.4859 1.4859 0 0 1 2.5647 1.5012c-.8034 1.44-1.6407 2.8612-2.4651 4.2894Q44.1716 25.667 37.8549 36.6079c-.5189.8986-1.0419 1.7948-1.598 2.7521z"/><path fill="#92d3f5" d="M35.0265 44.4193l-5.0817-2.935c.5308-.9114 1.0138-1.8065 1.5637-2.6585a.9245.9245 0 0 1 1.3-.3156q1.7.9372 3.3618 1.9418a.9313.9313 0 0 1 .3741 1.2874c-.4628.9021-.9962 1.768-1.5179 2.6799z"/><path fill="#d0cfce" d="M10 18.463h18.227v8.332H10z"/><g><path fill="none" stroke="#000" stroke-linecap="round" stroke-linejoin="round" stroke-width="2" d="M20.64 60.0652c1.2884-1.3774 3.5553-3.5778 4.8055-4.9144-1.4427.8793-4.1755 3.3446-5.5714 4.23a45.6473 45.6473 0 0 1-5.45-4.7348 23.46 23.46 0 0 0 8.9808-4.1188 29.5494 29.5494 0 0 1-10.0069 2.8814A47.5786 47.5786 0 0 1 9.9974 48c7.0976 1.93 14.8154-.9125 19.5793-5.8747 1.2319.7119 2.8134 1.5783 4.1044 2.23a3.1808 3.1808 0 0 1 1.605 1.8949c1.7331 4.63.7225 8.7115-2.4132 12.38-1.3121 1.5349-3.2687 3.8825-4.9969 4.923a33.7009 33.7009 0 0 1-7.236-3.488z"/><path fill="none" stroke="#000" stroke-miterlimit="10" stroke-width="2" d="M36.2569 39.36l-2.5721-1.4886c.6788-1.1846 1.3362-2.3389 2-3.4893q7.2-12.4714 14.4018-24.9414c.0981-.17.1933-.3422.301-.5062a1.4859 1.4859 0 0 1 2.5647 1.5012c-.8034 1.44-1.6407 2.8612-2.4651 4.2894Q44.1716 25.667 37.8549 36.6079c-.5189.8986-1.0419 1.7948-1.598 2.7521zm-1.2304 5.0593l-5.0817-2.935c.5308-.9114 1.0138-1.8065 1.5637-2.6585a.9245.9245 0 0 1 1.3-.3156q1.7.9372 3.3618 1.9418a.9313.9313 0 0 1 .3741 1.2874c-.4628.9021-.9962 1.768-1.5179 2.6799z"/><circle cx="32.93" cy="63.413" r="1.397"/><circle cx="36.147" cy="59.381" r="1.176"/><circle cx="36.147" cy="62.357" r=".934"/><path fill="none" stroke="#000" stroke-linecap="round" stroke-linejoin="round" stroke-width="2" d="M10 18.463h18.227v8.332H10zm1.785 0l7.309-7.64 7.278 7.64"/><circle cx="19.113" cy="13.969" r="1.047"/></g></svg>