<svg xmlns="http://www.w3.org/2000/svg" role="img" viewBox="15.33 2.58 41.34 67.21"><title>1F91E-1F3FF.svg</title><g fill="#6a462f" stroke="#6a462f"><path d="M21.6616 43.9634c-2.0638-.1527-3.6226-1.9342-3.5-4v-7c-.2578-1.933 1.1001-3.709 3.0331-3.9669 1.933-.2578 3.709 1.1001 3.9669 3.0331.0413.3099.0413.6239 0 .9337v7c.1226 2.0659-1.4362 3.8474-3.5 4.0001z"/><path d="M28.724 50.1933c-2.0638-.1527-3.6226-1.9342-3.5-4v-15c-.2578-1.933 1.1001-3.709 3.0331-3.9669 1.933-.2578 3.709 1.1001 3.9669 3.0331.0413.3099.0413.6239 0 .9337v15c.1226 2.0659-1.4362 3.8474-3.5 4.0001zm25.6622-12.2558L42.2667 7.68c-2.0167-4.6175-9.2042-1.7425-7.5148 2.7128l3.1856 9.0447L40.5 35.6042"/><path d="M46.6991 19.3468l3.2966-9.6649c.9549-4.9474-6.5964-6.6514-7.729-2.0232M33.9375 54.375l9.9333-30.5202c.9549-4.9474-3.1207-16.3312-11.6157 7.9577"/><path d="M18.6704 46.5v6.1723c1.1617 8.6001 8.6874 14.9847 17.5125 14.857 9.8346 0 18.2033-6.833 18.2033-16.878l-.0011-.001-.6684-11.129c-.1659-2.228-2.037-3.9616-4.3095-3.993H39.2339c-2.1016-.1226-3.914 1.4362-4.0694 3.5.1852 2.1099 1.8969 3.7781 4.045 3.942l1.0672.117c2.2249.242 4.045 1.342 4.045 2.442v2.44c-2.1907.4577-4.2188 1.4784-5.8772 2.958"/><path d="M43.438 54.875l-26.271-7.958v-6.959l27.427-.177z"/></g><g fill="none" stroke="#000" stroke-linecap="round" stroke-linejoin="round" stroke-width="2"><path d="M21.6616 43.9634c-2.0638-.1527-3.6226-1.9342-3.5-4v-7c-.2578-1.933 1.1001-3.709 3.0331-3.9669 1.933-.2578 3.709 1.1001 3.9669 3.0331.0413.3099.0413.6239 0 .9337v7c.1226 2.0659-1.4362 3.8474-3.5 4.0001z"/><path d="M28.724 50.1933c-2.0638-.1527-3.6226-1.9342-3.5-4v-15c-.2578-1.933 1.1001-3.709 3.0331-3.9669 1.933-.2578 3.709 1.1001 3.9669 3.0331.0413.3099.0413.6239 0 .9337v15c.1226 2.0659-1.4362 3.8474-3.5 4.0001zm9.214-30.7553l-2.971 7.757m16.5721 4.8913L42.2667 7.68c-2.0167-4.6175-9.2042-1.7425-7.5148 2.7128l3.1856 9.0447 4.4316 12.533"/><path d="M46.6991 19.3468l3.2966-9.6649c.9549-4.9474-6.5964-6.6514-7.729-2.0232M18.1302 47.0806s-.0905 4.1182 0 5.487c.5722 8.6567 9.6883 15.0894 18.363 14.9617 9.667 0 17.893-6.833 17.893-16.878l-.001-.001-.657-11.129c-.1631-2.228-2.0023-3.9616-4.236-3.993h-10c-2.0658-.1226-3.8473 1.4362-4 3.5.1821 2.1099 1.8646 3.7781 3.976 3.942l1.049.117c2.187.242 3.976 1.342 3.976 2.442v2.44a12.44523 12.44523 0 0 0-5.777 2.958"/></g></svg>