<svg xmlns="http://www.w3.org/2000/svg" role="img" viewBox="10.78 16.03 50.31 38.81"><title>1F6A1.svg</title><path fill="#3f3f3f" d="M33.429 22.5141c.0563.261-.4737.8975-.1653.5925a1.5438 1.5438 0 0 0 .4295-.9446 1.6034 1.6034 0 0 0-.8064-1.61 1.5 1.5 0 1 0-1.5142 2.59l.0649.0374-.6893-.8964.0254.078v-.7976l-.017.0834.3858-.6619a2.5641 2.5641 0 0 0-.64 1.0319 2.8242 2.8242 0 0 0 .0336 1.2944 1.5 1.5 0 1 0 2.8928-.7975zm8.568 2.9119a1.5009 1.5009 0 0 0 0-3 1.5009 1.5009 0 0 0 0 3zm-4.8012-1.0039a1.5009 1.5009 0 0 0 0-3 1.5009 1.5009 0 0 0 0 3zm-10.9685-4.3877a1.61 1.61 0 0 0 1.5666 2.701 1.515 1.515 0 0 0 1.0477-1.8454 2.7206 2.7206 0 0 0-1.0805-1.438 1.5105 1.5105 0 0 0-2.0523.5381 1.5349 1.5349 0 0 0 .5381 2.0523.632.632 0 0 1-.2982-.3549l1.0477-1.8452-.0942.0243 1.1558.1512-.0807-.0542.7429 1.2952-.0029-.0972-.4393 1.0607.0706-.0669a1.5 1.5 0 1 0-2.1213-2.1213z"/><path fill="#fcea2b" stroke="#000" stroke-linejoin="round" stroke-width="2" d="M27 30h15v23H27z"/><path fill="none" stroke="#61b2e4" stroke-linejoin="round" stroke-width="2" d="M28 50h14"/><path fill="#d0cfce" stroke="#d0cfce" stroke-linejoin="round" stroke-width="1.633" d="M27 42h6v4h-6z"/><path fill="#3f3f3f" stroke="#3f3f3f" stroke-linejoin="round" stroke-width="1.472" d="M27 34h6v6.5h-6z"/><path fill="#d0cfce" stroke="#d0cfce" stroke-linejoin="round" stroke-width="2" d="M36 34h6v11h-6z"/><g fill="none" stroke="#000" stroke-width="2"><rect width="4" height="4" x="30" y="20" stroke-miterlimit="10" rx="1.732" transform="rotate(9.671 32 22)"/><rect width="4" height="4" x="35" y="21" stroke-miterlimit="10" rx="1.732" transform="rotate(9.671 37 23)"/><rect width="4" height="4" x="40" y="22" stroke-miterlimit="10" rx="1.732" transform="rotate(9.667 41.998 24.003)"/><rect width="4" height="4" x="25" y="19" stroke-miterlimit="10" rx="1.732" transform="rotate(9.667 26.998 21.002)"/><path stroke-miterlimit="10" d="M12 18l48 10m-25-5v8"/><path stroke-linejoin="round" d="M36 34h6v11h-6zm-9 0h6v13h-6z"/><path stroke-linejoin="round" d="M27 30h15v23H27z"/></g></svg>