<svg xmlns="http://www.w3.org/2000/svg" role="img" viewBox="9.20 9.20 54.60 50.48"><title>1F336.svg</title><g stroke-linejoin="round" stroke-miterlimit="10" stroke-width="2"><path fill="#EA5A47" stroke="#EA5A47" stroke-linecap="round" d="M61.02 29.52c0 .3701-.02.7401-.05 1.11-.4075 8.0575-5.22 24.1-29.95 27.07-6.26-.16-12.03-2.28-16.71-5.79-.98-.66-3.61-2.05-2.77-3.69.84-1.64 4.07-.33 4.25-.29.1.03.2.06.29.11 5.54 1.88 11.54 1.95 15.73 1.95 4.18 0 17.4-3.26 17.44-19.74v-.07c0-.08 0-.17.02-.25.16-2.92 2.41-5.27 5.29-5.56.19-.02.39-.03.6-.03.19 0 .38.01.56.03 2.76.26 4.97 2.41 5.3 5.15z"/><path fill="#D22F27" stroke="#D22F27" stroke-linecap="round" d="M60.97 30.63c-.02.4-.06.79-.11 1.18-1.66 14.58-14.03 25.91-29.05 25.91-.27 0-10.3-1.8875-10.56-1.9075 23.3441 3.5725 38.1872-12.2053 35.5547-24.0153 1.66.45 2.8053-.5772 4.1653-1.1672z"/><path fill="#B1CC33" d="M48.6055 28.4323c-.4282.8332.3404 1.7472 1.2376 1.4778 1.5002-.4505 3.4108-.6393 4.297.8565 1.2368 2.0876 5.3387.5293 7.0383-.2337.4606-.2067.7127-.708.5864-1.1968-.4177-1.6163-1.8591-5.0003-6.6064-5.0003-3.6944.0001-5.6073 2.2568-6.5529 4.0965z"/><path fill="#5C9E31" stroke="#5C9E31" stroke-linecap="round" d="M61.18 30.53c-1.3.59-4 1.63-5.75 1.16 6.14-2.85-.27-7.35-.27-7.35 4.75 0 6.19 3.38 6.6 5 .13.48-.12.99-.58 1.19z"/></g><g fill="none" stroke="#000" stroke-miterlimit="10" stroke-width="2"><path stroke-linecap="round" d="M55.2323 24.3359S57.4092 11.25 45.3241 11.25"/><path stroke-linejoin="round" d="M31.02 57.7c-.05.01-.09.01-.14.02"/><path stroke-linecap="round" stroke-linejoin="round" d="M60.1362 35.7529C56.9018 48.383 45.4488 57.7213 31.8078 57.7213c-6.5624 0-12.6151-2.1556-17.4997-5.8085-.9807-.6664-3.6104-2.0547-2.7698-3.6962.8407-1.6414 4.0758-.3283 4.2563-.2859.0956.0319.1911.0637.2867.1062 5.543 1.8795 11.5426 1.9538 15.7264 1.9538 3.8212 0 15.1805-2.7194 17.1531-15.7467"/><path stroke-linejoin="round" d="M48.6055 28.4323c-.4282.8332.3404 1.7472 1.2376 1.4778 1.5002-.4505 3.4108-.6393 4.297.8565 1.2368 2.0876 5.3387.5293 7.0383-.2337.4606-.2067.7127-.708.5864-1.1968-.4177-1.6163-1.8591-5.0003-6.6064-5.0003-3.6944.0001-5.6073 2.2568-6.5529 4.0965z"/><path stroke-linejoin="round" d="M61.18 30.53c-.07.03-.14.06-.21.1-1.36.59-3.8799 1.51-5.54 1.06-.54-.14-1-.43-1.29-.92-.89-1.5-2.8-1.31-4.3-.86-.2.06-.4.06-.57.02-.61-.16-.99-.85-.66-1.5.89-1.74 2.64-3.84 5.95-4.06.19-.02.39-.03.6-.03.19 0 .38.01.56.03 4.3.24 5.65 3.42 6.04 4.97.13.48-.12.99-.58 1.19z"/></g></svg>