<svg xmlns="http://www.w3.org/2000/svg" role="img" viewBox="19.19 5.94 43.12 61.49"><title>E320.svg</title><g fill="#D0CFCE" stroke="#D0CFCE"><path stroke-miterlimit="10" d="M60.2043 9.8937c-3 7-12.5379 11.949-12.5 14.5.042 2.8237 1.2939 8.5391 1.5 11.5.5502 6.6553.5502 13.3447 0 20-.1448 1.9947 4.6519 5.6706 0 9-1.2223.8748-6-2-14 0a24.1353 24.1353 0 0 1-7.59.2906c-.9843-.1391-1.6695-1.0498-1.5304-2.0342.0848-.6.4658-1.1171 1.0138-1.3758 2.2278-1.0376 5.1861-1.9593 7.1061-2.8809 2.9511-1.4165 4.7874-2.833 5.8248-4.6706.1194-.2145.1935-.4513.2176-.6956.8519-8.01-2.58-20.217-5.0424-25.6338a8.07807 8.07807 0 0 1-1-4c0-2 1-3 2-5 2.2429-4.4858 2.8473-7.1758 3.9283-9.4321.3562-.6152 1.0114-.9961 1.7223-1.0013a52.7142 52.7142 0 0 1 14.6556.6821l3.6943.7516z"/><path stroke-linecap="round" stroke-linejoin="round" stroke-width="2" d="M60.2043 9.8937c-3 7-12.5379 11.949-12.5 14.5.042 2.8237 1.2939 8.5391 1.5 11.5.5502 6.6553.5502 13.3447 0 20-.1448 1.9947 4.6519 5.6706 0 9-1.2223.8748-6-2-14 0a24.1353 24.1353 0 0 1-7.59.2906c-.9843-.1391-1.6695-1.0498-1.5304-2.0342.0848-.6.4658-1.1171 1.0138-1.3758 2.2278-1.0376 5.1861-1.9593 7.1061-2.8809 2.9511-1.4165 4.7874-2.833 5.8248-4.6706.1194-.2145.1935-.4513.2176-.6956.8519-8.01-2.58-20.217-5.0424-25.6338a8.07807 8.07807 0 0 1-1-4c0-2 1-3 2-5 2.2429-4.4858 2.8473-7.1758 3.9283-9.4321.3562-.6152 1.0114-.9961 1.7223-1.0013a52.7142 52.7142 0 0 1 14.6556.6821l3.6943.7516z"/></g><g fill="none" stroke="#000" stroke-linecap="round" stroke-linejoin="round" stroke-width="2"><path d="M60.2043 9.8937c-3 7-12.5379 11.949-12.5 14.5.042 2.8237 1.2939 8.5391 1.5 11.5.5502 6.6553.5502 13.3447 0 20-.1448 1.9947 4.4567 6.3415 0 9-1.6764 1-6-2-14 0a24.1353 24.1353 0 0 1-7.59.2906c-.9843-.1391-1.6695-1.0498-1.5304-2.0342.0848-.6.4658-1.1171 1.0138-1.3758 2.2278-1.0376 5.1861-1.9593 7.1061-2.8809 2.9511-1.4165 4.7874-2.833 5.8248-4.6706.1194-.2145.1935-.4513.2176-.6956.8519-8.01-2.58-20.217-5.0424-25.6338a8.07807 8.07807 0 0 1-1-4c0-2 1-3 2-5 2.2429-4.4858 2.8473-7.1758 3.9283-9.4321.3562-.6152 1.0114-.9961 1.7223-1.0013a52.7142 52.7142 0 0 1 14.6556.6821"/><path d="M38.2782 26.7171a2.90921 2.90921 0 0 0 1.1652-.8014c1.0091-1.1669.9664-3.1874-.074-5.0985"/><path d="M32.091 18.079l-3.226-3.133 2.672-1.262-4.053-3.937m-4.63 22.81l3.881-2.272.503 2.913 4.876-2.855m-1.392-7.44l-4.481-.381.8 2.846-5.63-.478"/></g><path d="M32.091 18.079l-3.226-3.133 2.672-1.262-4.053-3.937m-4.63 22.81l3.881-2.272.503 2.913 4.876-2.855m-1.392-7.44l-4.481-.381.8 2.846-5.63-.478" fill="none" stroke="#D22F27" stroke-linecap="round" stroke-linejoin="round" stroke-width="2"/></svg>