<svg xmlns="http://www.w3.org/2000/svg" role="img" viewBox="19.84 5.84 38.94 60.19"><title>231A.svg</title><g stroke-miterlimit="10" stroke-width="2"><path fill="#9b9b9a" stroke="#9b9b9a" d="M53.9958 40.5232h.6992c1.1 0 2-.9 2-2v-5.1541c0-1.1-.9-2-2-2H50v9.1648l3.9958-.0107z"/><path fill="#9b9b9a" d="M25 21V9c0-.5523.4477-1 1-1h20c.5523 0 1 .4477 1 1v12"/><path fill="#9b9b9a" stroke="#9b9b9a" d="M47 51v12c0 .5523-.4477 1-1 1H26c-.5523 0-1-.4477-1-1V51"/><path fill="#d0cfce" stroke="#d0cfce" d="M48 51H24c-1.1 0-2-.9-2-2V23c0-1.1.9-2 2-2h24c1.1 0 2 .9 2 2v26c0 1.1-.9 2-2 2z"/></g><g fill="none" stroke="#000" stroke-miterlimit="10" stroke-width="2"><path d="M25 21V9c0-.5523.4477-1 1-1h20c.5523 0 1 .4477 1 1v12"/><path stroke-linecap="round" stroke-linejoin="round" d="M35.844 26.188v10h8.312M47 55v9H25v-9m0-38V8h22v9m6.9959 14.3691h.6991c1.1 0 2 .9 2 2v5.1541c0 1.1-.9 2-2 2h-.6992"/><path stroke-linecap="round" stroke-linejoin="round" d="M48 51H24c-1.1 0-2-.9-2-2V23c0-1.1.9-2 2-2h24c1.1 0 2 .9 2 2v26c0 1.1-.9 2-2 2z"/><path stroke-linecap="round" stroke-linejoin="round" d="M35.844 26.188v10h8.312"/></g></svg>