<svg xmlns="http://www.w3.org/2000/svg" role="img" viewBox="10.02 4.90 55.95 57.20"><title>1F4D9.svg</title><g id="color"><path fill="#f4aa41" d="M18 12H60V59.5H18z"/><path fill="#e27022" d="m14.6366,12h2.4693c1.0419,0,1.8866.8447,1.8866,1.8866l-1,43.7268c0,1.0419.1553,1.8866-.8866,1.8866h-2.4693c-1.0419,0-1.8866-.8447-1.8866-1.8866V13.8866c0-1.0419.8447-1.8866,1.8866-1.8866Z"/></g><g id="line"><path fill="none" stroke="#000" stroke-linecap="round" stroke-linejoin="round" stroke-width="2" d="M18 13L18 59M62.9087 54.8149c.6677-.3369 1.0895-1.0203 1.0913-1.7682V9.0833c0-1.1506-.9327-2.0833-2.0833-2.0833H16.4591c-1.5975 0-3.0889.7996-3.9733 2.13h0c-.5776.8688-.3416 2.0413.5271 2.6189.3099.206.6737.316 1.0459.316h3.8086l2.1331-.0177h39.9162v48H14.0583c-1.0289.0008-1.8696-.8213-1.8916-1.85V10.575"/><g><path fill="none" stroke="#000" stroke-linecap="round" stroke-linejoin="round" stroke-width="2" d="M39.533 27.219L39.533 34.219 42.533 34.219M33.7078 34.2187h0c-1.3807 0-2.5-1.1193-2.5-2.5v-2c0-1.3807 1.1193-2.5 2.5-2.5h0c1.3807 0 2.5 1.1193 2.5 2.5v2c0 1.3807-1.1193 2.5-2.5 2.5z"/><g fill="none" stroke="#000" stroke-linecap="round" stroke-linejoin="round" stroke-width="2"><path d="M50.164 27.219L49.563 31.099 53.658 31.099M52.983 27.219L52.983 34.219"/></g><circle cx="45.533" cy="34.219" r="1"/><path fill="none" stroke="#000" stroke-linecap="round" stroke-linejoin="round" stroke-width="2" d="M28.416 27.29L26.898 34.29 26.208 34.29 25.537 34.29 24 27.29"/></g></g></svg>