<svg xmlns="http://www.w3.org/2000/svg" role="img" viewBox="2.07 8.44 67.99 52.12"><title>1F38A.svg</title><path fill="#f1b31c" d="M31.843 18.7784c-3.5265-6.9338-11.9304-9.884-19.0352-6.571S2.5611 23.8546 5.6059 31.013L31.843 18.7784z"/><path fill="#FCEA2B" d="M13.2039 12.1558c3.1295-1.4593 6.5101-1.7007 9.6158-.9244-.8834.2213-1.7593.525-2.6158.9244-6.1756 2.8798-9.3513 9.5527-8.0783 15.9501L6.002 30.9614c-3.0448-7.1584.097-15.4925 7.2019-18.8056z"/><path fill="#F1B31C" d="M66.6602 30.9614c3.0448-7.1584-.0971-15.4926-7.2019-18.8056s-15.5087-.3628-19.0352 6.571l26.2371 12.2346z"/><path fill="#FCEA2B" d="M59.4583 12.1558c-3.1295-1.4593-6.5101-1.7007-9.6158-.9244.8834.2213 1.7593.525 2.6158.9244 6.1756 2.8798 9.3513 9.5527 8.0783 15.9501l6.1236 2.8555c3.0448-7.1584-.097-15.4925-7.2019-18.8056z"/><ellipse cx="19.295" cy="31.458" fill="#ea5a47" rx="2" ry="1.971"/><ellipse cx="44.295" cy="33.458" fill="#8967aa" rx="2" ry="1.971"/><ellipse cx="40.295" cy="55.458" fill="#FCEA2B" rx="2" ry="1.971"/><g fill="none" stroke="#000" stroke-linecap="round" stroke-linejoin="round" stroke-miterlimit="10" stroke-width="2"><path d="M31.843 18.7784c-3.5265-6.9338-11.9304-9.884-19.0352-6.571S2.5611 23.8546 5.6059 31.013L31.843 18.7784zm34.8172 12.183c3.0448-7.1584-.0971-15.4926-7.2019-18.8056s-15.5087-.3628-19.0352 6.571l26.2371 12.2346zm-30.2989-.6193c-.4363.257-.8402.5878-1.1941.9918-1.8345 2.0941-1.6323 5.3611.4517 7.297"/><path d="M35.4667 38.5125c.4084.2994.7771.669 1.0888 1.1064 1.6156 2.2673 1.0872 5.4977-1.1802 7.2151M20.956 42.9535c-.4954.1047-.9836.2898-1.4477.5601-2.4057 1.4013-3.2539 4.5627-1.8945 7.0613"/><path d="M17.5073 50.4141c.2919.4138.5237.8816.68 1.3954.8098 2.6637-.7193 5.5578-3.4155 6.4641m38.7209-19.6538c.4774.1689.937.4165 1.3616.7455 2.2007 1.7052 2.6261 4.9507.9502 7.249"/><path d="M55.9312 46.4689c-.3437.3719-.6351.8051-.8575 1.294-1.1528 2.5341-.0173 5.6041 2.5364 6.8569"/></g></svg>