<svg xmlns="http://www.w3.org/2000/svg" role="img" viewBox="24.24 3.24 23.39 65.39"><title>25C9-FE0F-200D-1F534-200D-25AE-FE0F.svg</title><circle cx="36" cy="40" r="1"/><path fill="#3F3F3F" stroke="#000" stroke-linejoin="round" d="M26 5h20v62H26z"/><path fill="#9B9B9A" d="M26 53h20v14H26z"/><circle cx="36" cy="40" r="8" fill="#D22F27" stroke="#D0CFCE"/><circle r="4" fill="#EA5A47" transform="matrix(-1 0 0 1 36 40)"/><path fill="none" stroke="#fff" stroke-linecap="round" stroke-linejoin="round" stroke-width="2" d="M41 40c0-.5844-.1003-1.1454-.2845-1.6667C40.0291 36.3913 38.177 35 36 35"/><circle cx="36" cy="40" r="2" fill="#F1B31C"/><circle cx="36" cy="40" r="1" fill="#FCEA2B"/><path fill="#61B2E4" d="M28 7h8v4h-8z"/><g stroke="#000"><path fill="none" stroke-linejoin="round" d="M26 5h20v62H26z"/><circle cx="36" cy="40" r="7" fill="none"/><path stroke-linecap="round" d="M27.5 52.5h17"/><path fill="none" stroke-linejoin="round" d="M28 7h16v4H28z"/><path fill="none" stroke-linejoin="round" d="M26 5h20v62H26z"/></g></svg>