<svg xmlns="http://www.w3.org/2000/svg" role="img" viewBox="10.00 10.00 51.87 51.87"><title>1F4C9.svg</title><path fill="#fff" d="M12.05 59.91h47.9v-47.9h-47.9z"/><path fill="#92d3f5" d="M31.2379 28.4166l-6.8898-8.6812-2.8384 2.5491 8.7131 11.7972 6.5938-3.5617c.1425-.0713 11.2762 21.2218 11.2762 21.2218l3.397-1.4527-12.4352-25.0843s-7.5277 3.5956-7.8167 3.2118z"/><g fill="none" stroke="#000" stroke-linecap="round" stroke-linejoin="round" stroke-miterlimit="10" stroke-width="2"><path d="M47.906 52.066L37.261 30.593l-7.352 3.644-8.758-12.097 3.197-2.405 7.01 9.319 4.126-2.045-.013-.027 3.584-1.777L51.49 50.289z"/><path d="M12.052 12.015h47.897v47.897H12.052zm39.787 24.07h7.966m-47.066 0H26.04m29.167 11.908h4.476m-46.944 0h28.622m6.873 8.088l.017 3.289m-.218-47.311l.12 22.446m-11.969 3.677v21.391m0-47.243v9.955M24.225 33.302v26.271m0-47.453v3.532m19.03 8.525h15.971m-46.962 0h5.288"/></g></svg>