<svg xmlns="http://www.w3.org/2000/svg" role="img" viewBox="11.04 11.04 49.79 49.79"><title>E280.svg</title><path fill="#FCEA2B" d="M36 13.2002c-12.5719 0-22.7998 10.2279-22.7998 22.7998 0 12.5718 10.2279 22.7998 22.7998 22.7998 12.5718 0 22.7998-10.228 22.7998-22.7998 0-12.5719-10.228-22.7998-22.7998-22.7998z"/><path fill="#FFF" d="M31.5797 31.3465c0 2.4645-2.0004 4.4626-4.4626 4.4626s-4.4626-1.9981-4.4626-4.4626c0-2.4622 2.0004-4.4626 4.4626-4.4626s4.4626 2.0004 4.4626 4.4626m18 0c0 2.4645-2.0004 4.4626-4.4626 4.4626s-4.4626-1.9981-4.4626-4.4626c0-2.4622 2.0004-4.4626 4.4626-4.4626s4.4626 2.0004 4.4626 4.4626"/><g><circle cx="36" cy="36" r="23" fill="none" stroke="#000" stroke-miterlimit="10" stroke-width="2"/><path fill="none" stroke="#000" stroke-miterlimit="10" stroke-width="2" d="M31.7799 31.4626c0 2.4645-2.0004 4.4626-4.4626 4.4626s-4.4626-1.9981-4.4626-4.4626c0-2.4622 2.0004-4.4626 4.4626-4.4626s4.4626 2.0004 4.4626 4.4626"/><path d="M29.3173 31.9252c0 1.1045-.8965 2-2 2s-2-.8955-2-2c0-1.1035.8965-2 2-2s2 .8965 2 2"/><path fill="none" stroke="#000" stroke-miterlimit="10" stroke-width="2" d="M49.7799 31.4626c0 2.4645-2.0004 4.4626-4.4626 4.4626s-4.4626-1.9981-4.4626-4.4626c0-2.4622 2.0004-4.4626 4.4626-4.4626s4.4626 2.0004 4.4626 4.4626"/><path d="M47.3173 31.9252c0 1.1045-.8965 2-2 2s-2-.8955-2-2c0-1.1035.8965-2 2-2s2 .8965 2 2M22.8547 31c0-2.4622 2.0004-4.4626 4.4626-4.4626S31.7799 28.5378 31.7799 31"/><path d="M40.8547 31c0-2.4622 2.0004-4.4626 4.4626-4.4626S49.7799 28.5378 49.7799 31"/><path fill="none" stroke="#000" stroke-linecap="round" stroke-linejoin="round" stroke-miterlimit="10" stroke-width="2" d="M29 43c1.2841-.6376 3.9847-1.0308 6.8421-.9981 2.6235.03 4.9897.4146 6.1579.9981"/></g></svg>