<svg xmlns="http://www.w3.org/2000/svg" role="img" viewBox="11.04 11.04 49.79 49.79"><title>1F9D0.svg</title><circle cx="36" cy="36" r="24" fill="#FCEA2B"/><path fill="none" stroke="#000" stroke-linecap="round" stroke-linejoin="round" stroke-miterlimit="10" stroke-width="2" d="M28.8233 44.2876c2.3686-.6663 11.8642.535 14.0445 2.0632M22.3012 23.3391c1.2822-.889 2.8466-1.271 4.3937-1.0722 1.5679.0356 3.0646.6567 4.1996 1.7378m18.1498 3.3135c-2.4149-1.7243-5.3513 0-8.2333-.2604"/><path d="M30 31c0 1.6568-1.3448 3-3 3-1.6553 0-3-1.3433-3-3 0-1.6552 1.3447-3 3-3 1.6552 0 3 1.3448 3 3m17 2c0 1.6568-1.3447 3-3 3s-3-1.3433-3-3c0-1.6552 1.3447-3 3-3s3 1.3448 3 3"/><path fill="none" stroke="#000" stroke-linecap="round" stroke-linejoin="round" stroke-miterlimit="10" stroke-width="2" d="M55.6437 47.9697c2.1202-3.4721 3.346-7.5506 3.3562-11.916C59.0295 23.3506 48.7558 13.0296 36.0537 13c-12.7031-.0297-23.0239 10.2431-23.0536 22.9462-.0296 12.7022 10.2432 23.0241 22.9462 23.0537 5.209.0122 10.0176-1.7084 13.8804-4.6186"/><circle cx="43.929" cy="30.81" r="9.421" fill="none" stroke="#000" stroke-linecap="round" stroke-linejoin="round" stroke-miterlimit="10" stroke-width="2"/><path fill="none" stroke="#000" stroke-linecap="round" stroke-linejoin="round" stroke-miterlimit="10" stroke-width="2" d="M53.6876 30.9567s2.2127.5511 1.9237 4.0128-3.5691 7.9621-3.5691 7.9621-2.0208 2.3624-1.4607 4.3219c.7165 2.5065 4.3147 6.4367 4.1809 8.6099"/></svg>