<svg xmlns="http://www.w3.org/2000/svg" role="img" viewBox="10.00 10.00 51.87 51.87"><title>1F199.svg</title><path fill="#92d3f5" d="M59.0349 60h-46.07A.9679.9679 0 0 1 12 59.0349v-46.07A.9679.9679 0 0 1 12.9651 12h46.07a.9679.9679 0 0 1 .9649.9651v46.07a.9679.9679 0 0 1-.9651.9649z"/><path fill="none" stroke="#000" stroke-miterlimit="10" stroke-width="2" d="M59.0349 60h-46.07A.9679.9679 0 0 1 12 59.0349v-46.07A.9679.9679 0 0 1 12.9651 12h46.07a.9679.9679 0 0 1 .9649.9651v46.07a.9679.9679 0 0 1-.9651.9649z"/><path fill="none" stroke="#000" stroke-linecap="round" stroke-linejoin="round" stroke-width="2" d="M30.4261 30.015v6.75a3.75 3.75 0 0 1-3.75 3.75h0a3.75 3.75 0 0 1-3.75-3.75v-6.75M35.6477 40.47v-10.5h4.0038a2.6151 2.6151 0 0 1 2.6151 2.6153h0A2.6149 2.6149 0 0 1 39.6515 35.2h-4.0038"/><path fill="none" stroke="#000" stroke-linecap="round" stroke-linejoin="round" stroke-width="2" d="M49.869 29.97v6.486"/><circle cx="49.869" cy="40.47" r="1.5"/></svg>