<svg xmlns="http://www.w3.org/2000/svg" role="img" viewBox="18.86 9.86 33.02 52.65"><title>1F982.svg</title><path fill="#EA5A47" d="M39.8231 26.896s9.7765.248 9.8779-3.7507c.1014-3.9987 1.6859-6.6916-.7748-8.0222C45 13 44.8635 21.0219 45.7904 23.0461S38 25 38 25l1.8231 1.896zM32 27s-10 0-10-4-1-6 1-8 4 6 3 8 7 2 7 2l-1 2z"/><path fill="#D22F27" d="M41.9643 55.8624s-2.1556-6.898 2.8023-3.0179-3.0179 9.9158-6.7902 6.898c-3.7723-3.0179-9.808-18.5383-5.4968-33.1965 0 0 3.449-5.1735 6.0357 0 2.5867 5.1735 1.1643 20.6939.151 24.1429-1.0133 3.449-1.0133 6.0357 2.4357 7.3291"/><path fill="#EA5A47" d="M31 34h9v4h-9zm0 9h9v4h-9z"/><g fill="none" stroke="#000" stroke-linecap="round" stroke-linejoin="round" stroke-miterlimit="10" stroke-width="2"><path d="M23.8571 11.8879c-6.898 10.347.8622 14.6582.8622 14.6582l6.898.8622"/><path d="M23.1893 14.5535c5.3678 1.8034 2.3924 8.5436 2.3924 8.5436l.8622.8622 6.898.8622m13.7959-12.9336s6.898 9.4847-.8622 14.6582l-6.6891.4638"/><path d="M37.6531 24.8216l7.7602-.8622.8622-1.7245s-4.7459-3.2912 1.5071-7.6813M40.24 30.857l4.927 1.725 1.971-1.725-.986-1.724m-15.397 1.724l-5.173 1.725-1.725-1.725 1.725-1.724m5.173 5.173l-3.449 6.036-1.724.862-2.479-1.221m17.137-5.677l3.449 6.036 1.724.862 2.623-1.149m-13.832-17.82l.575 2.012m1.365 0l.647-2.012m2.5866 11.2091c-5.1735 1.7245-8.3225-.1249-8.3225-.1249m-.2148 4.0048s4.8008 2.1556 8.8247 0"/><path d="M41.9643 55.8624s-2.1556-6.898 2.8023-3.0179-3.0179 9.9158-6.7902 6.898c-3.7723-3.0179-9.808-18.5383-5.4968-33.1965 0 0 3.449-5.1735 6.0357 0 2.5867 5.1735 1.1643 20.6939.151 24.1429-1.0133 3.449-1.0133 6.0357 2.4357 7.3291"/><path d="M25.5816 48.24h3.1731l1.5865-1.7245.7933-4.3112s5.5529 1.7245 8.7259 0l.7933 4.3112 1.5865 1.7245h3.1731m-13.4812-1.9249s3.9965 1.7871 7.4455.0626"/></g></svg>