<svg xmlns="http://www.w3.org/2000/svg" role="img" viewBox="4.63 14.00 58.37 44.99"><title>1F3A5.svg</title><circle cx="22.258" cy="26.11" r="3" fill="#d0cfce"/><circle cx="46.153" cy="26.11" r="3" fill="#d0cfce"/><path fill="#3f3f3f" d="M46.1533 16.1104c-5.5143 0-10 4.4861-10 10s4.4857 10 10 10 10-4.4858 10-10-4.4857-10-10-10zm0 13c-1.6545 0-3-1.3459-3-3s1.3455-3 3-3 3 1.3458 3 3-1.3454 3-3 3zm-23.8955-13c-5.5143 0-10 4.4861-10 10s4.4857 10 10 10 10-4.4858 10-10c0-5.5139-4.4857-10-10-10zm0 13c-1.6545 0-3-1.3459-3-3s1.3455-3 3-3 3 1.3458 3 3-1.3454 3-3 3zM20.429 44.2365l6.998.8154c.3759-.1465 2.8419-.3707 2.8419-.3707s2.8139 1.7829 3.188 4.5719c.375 2.7901-4.6428 3.8145-4.8684 3.8145-2.5157 0-3.6289-4.5602-3.6328-4.6031l-4.5267-.6947.5692 2.2492c.286 1.1299.4249 2.292.4134 3.4575l-.0159 1.6137c0 .4463 1.3875 1.8082 1.865 1.8082h24.8268V40.0308H20.429v4.2058z"/><path fill="#9b9b9a" d="M51.727 42.827l-.005.003.164-.057-.159.054zm9.4555 12.1435l-.2379-13.609s-9.2885 1.4989-9.2459 1.4826c.0088-.0034.0155-.0095.0237-.0139l-3.4454.9831v9.2196l3.6286 1.0345-.1419-.043c-.0176-.0053 9.4188.9461 9.4188.9461z"/><path fill="#d0cfce" d="M24.2184 48.4645c.113.0207 2.5968 3.5392 2.6747 3.604.0641.0534 3.3897 1.0268 3.6015.9991.2104-.0282 2.2949-2.0265 2.3537-2.1349.0182-.0336 1.1749-1.7591.8288-3.2001-.2426-1.0102-2.0037-1.8806-2.0689-1.9302-.1583-.1204-3.6895-.7349-3.6999-.7367 0 0-15.5371-2.5602-15.6504-2.6373l-4.3653-3.5156-1.3312 8.0498 4.7444-.7342c.1113-.0176 12.9126 2.2361 12.9126 2.2361z"/><g fill="none" stroke="#000" stroke-linecap="round" stroke-linejoin="round" stroke-width="2"><path d="M21.3957 40.0307h26.6918v16.8676H23.2607c-1.03 0-1.865-.8095-1.865-1.8082v-3.1238"/><path d="M7.9148 39.3892l-1.1513 7.5734 5.0161-.7784 13.5947 2.4922c-.0187.2723-.0103.5506.0275.8316.3018 2.2475 2.3682 3.8244 4.6154 3.5226 2.2475-.3018 3.8245-2.3681 3.5227-4.6156-.3018-2.2473-2.3682-3.8243-4.6156-3.5224-.4237.0569-.8235.1768-1.1914.3485l-15.2674-2.7989-4.5507-3.053z"/><circle cx="46.154" cy="26.11" r="10"/><circle cx="46.154" cy="26.11" r="3"/><circle cx="22.258" cy="26.11" r="10"/><circle cx="22.258" cy="26.11" r="3"/><path d="M52.053 53.068l8.892 2.113v-13.82l-8.892 2.412"/></g></svg>