<svg xmlns="http://www.w3.org/2000/svg" role="img" viewBox="10.00 10.00 51.87 51.87"><title>E381.svg</title><path fill="#F1B31C" d="M59.0349 60h-46.07a.96772.96772 0 0 1-.6815-.2836.96753.96753 0 0 1-.2834-.6815v-46.07a.96772.96772 0 0 1 .2836-.6815.96753.96753 0 0 1 .6815-.2834h46.07a.96772.96772 0 0 1 .6815.2836.96753.96753 0 0 1 .2834.6815v46.07a.96772.96772 0 0 1-.2836.6815.96753.96753 0 0 1-.6815.2834z"/><circle cx="24.5" cy="47.5" r="4.5" fill="#fff"/><path fill="#fff" fill-rule="evenodd" d="M42 52c0-12.1503-9.8497-22-22-22v7c8.2843 0 15 6.7157 15 15h7z" clip-rule="evenodd"/><path fill="#fff" fill-rule="evenodd" d="M52 52c0-17.6731-14.3269-32-32-32v7c13.8071 0 25 11.1929 25 25h7z" clip-rule="evenodd"/><g fill="none" stroke="#000" stroke-linejoin="round" stroke-width="2"><path stroke-miterlimit="10" d="M59.0349 60h-46.07a.96772.96772 0 0 1-.6815-.2836.96753.96753 0 0 1-.2834-.6815v-46.07a.96772.96772 0 0 1 .2836-.6815.96753.96753 0 0 1 .6815-.2834h46.07a.96772.96772 0 0 1 .6815.2836.96753.96753 0 0 1 .2834.6815v46.07a.96772.96772 0 0 1-.2836.6815.96753.96753 0 0 1-.6815.2834v0z"/><path stroke-linecap="round" d="M29 47.5c0 2.4853-2.0147 4.5-4.5 4.5S20 49.9853 20 47.5s2.0147-4.5 4.5-4.5 4.5 2.0147 4.5 4.5z"/><path fill-rule="evenodd" d="M41 52c0-11.598-9.402-21-21-21v6c8.2843 0 15 6.7157 15 15h6z" clip-rule="evenodd"/><path fill-rule="evenodd" d="M52 52c0-17.6731-14.3269-32-32-32v6.0012c14.1062.1342 25.5 11.6109 25.5 25.7488 0 .0834-.0004.1668-.0012.25H52z" clip-rule="evenodd"/></g></svg>