<svg xmlns="http://www.w3.org/2000/svg" role="img" viewBox="21.50 10.00 30.87 51.87"><title>1F488.svg</title><g stroke-linecap="round" stroke-linejoin="round" stroke-miterlimit="10" stroke-width="2"><path fill="#D0CFCE" d="M48.5 16h-23c-1.1046 0-2-.8954-2-2s.8954-2 2-2h23c1.1046 0 2 .8954 2 2s-.8954 2-2 2zm0 44h-23c-1.1046 0-2-.8954-2-2s.8954-2 2-2h23c1.1046 0 2 .8954 2 2s-.8954 2-2 2z"/><path fill="#EA5A47" d="M26 16h22v40H26z"/><path fill="#FFF" d="M41.822 16L26 25v-4l8.462-5zM26 37l22-13v-4L26 33zm22-5L26 45v4l22-13zm0 12L27.692 56h6.77L48 48z"/><path fill="#92D3F5" d="M48 16h-6.178L26 25v8l22-13zm0 28L27.692 56H26v-7l22-13z"/></g><g fill="none" stroke="#000" stroke-linecap="round" stroke-linejoin="round" stroke-miterlimit="10" stroke-width="2"><path d="M48.5 16h-23c-1.1046 0-2-.8954-2-2h0c0-1.1046.8954-2 2-2h23c1.1046 0 2 .8954 2 2h0c0 1.1046-.8954 2-2 2zm0 44h-23c-1.1046 0-2-.8954-2-2h0c0-1.1046.8954-2 2-2h23c1.1046 0 2 .8954 2 2h0c0 1.1046-.8954 2-2 2zM26 16h22v40H26z"/><path d="M41.822 16L26 25v-4l8.462-5zM26 37l22-13v-4L26 33zm22-5L26 45v4l22-13zm0 12L27.692 56h6.77L48 48z"/><path d="M48 16h-6.178L26 25v8l22-13zm0 28L27.692 56H26v-7l22-13z"/></g></svg>