<svg xmlns="http://www.w3.org/2000/svg" role="img" viewBox="7.78 3.78 59.31 63.31"><title>1F364.svg</title><path fill="#ea5a47" d="M29.9063 42.9375c-1.6563-.5312-2.9688-1.375-4.1875-2.375-2.9317-2.4053-5.7198-6.0488-5.7198-9.3125v-19c0-2.7617-2.2383-5-5-5s-5 2.2383-5 5l1 28c0 4.375 1.0733 10.293 3.751 14.6875.6582 1.0801 3.2188 3.8125 4.1875 4.5938"/><path fill="#f4aa41" d="M63.6572 35.2861c.2158-.3193.3428-.7041.3428-1.1201 0-.414-.127-.7988-.3428-1.1191C64.4375 32.7734 65 32.0391 65 31.166c0-.873-.5625-1.6074-1.3428-1.8799.2158-.3193.3428-.7041.3428-1.1201 0-.8725-.5625-1.6069-1.3428-1.8799.2158-.3198.3428-.7046.3428-1.1196 0-.873-.5625-1.6074-1.3428-1.8804.2158-.3198.3428-.7046.3428-1.1196 0-1.1045-.8955-2-2-2-.1006 0-.1973.0151-.2939.0298.1826-.3018.2939-.6519.2939-1.0298 0-1.1045-.8955-2-2-2-.1006 0-.1973.0151-.2939.0298.1826-.3018.2939-.6519.2939-1.0298 0-1.1045-.8955-2-2-2-.3779 0-.7275.1113-1.0303.2935.0157-.0967.0303-.1929.0303-.2935 0-1.1045-.8955-2-2-2-.415 0-.7998.1265-1.1201.3428-.2725-.7798-1.0069-1.3428-1.8799-1.3428-.3779 0-.7275.1113-1.0303.2935.0157-.0967.0303-.1929.0303-.2935 0-1.1045-.8955-2-2-2-.415 0-.7998.1265-1.1201.3428C45.6074 8.7295 44.873 8.1665 44 8.1665c-.415 0-.7998.1265-1.1201.3428C42.6074 7.7295 41.873 7.1665 41 7.1665c-.415 0-.7998.1265-1.1201.3428C39.6074 6.7295 38.873 6.1665 38 6.1665s-1.6074.563-1.8799 1.3428c-.3203-.2163-.7051-.3428-1.1201-.3428-.6885 0-1.2959.3481-1.6553.8779-.2197.0035-.4277.0474-.625.1162-.3476-.5922-.9843-.9941-1.7197-.9941-1.1045 0-2 .8955-2 2-1.1045 0-2 .8955-2 2-1.1045 0-2 .8955-2 2 0 .415.126.7998.3428 1.1196-.7793.273-1.3428 1.0074-1.3428 1.8804 0 .6006.2705 1.1333.6904 1.5-.4199.3667-.6904.8994-.6904 1.5 0 .8853.5791 1.6279 1.376 1.8911.001.0723.0136.1411.0215.2114C24.5898 21.5259 24 22.2734 24 23.1665c0 1.1045.8955 2 2 2 .1006 0 .1963-.0151.2939-.0298-.1826.3018-.2939.6519-.2939 1.0298 0 1.1045.8955 1.9995 2 1.9995.3779 0 .7275-.1108 1.0303-.293-.0157.0967-.0303.1929-.0303.293 0 1.1055.8955 2 2 2 .415 0 .7998-.126 1.1201-.3418.2725.7793 1.0069 1.3418 1.8799 1.3418.6006 0 1.1338-.2695 1.5-.6894.3662.4199.8994.6894 1.5.6894.3779 0 .7275-.1113 1.0303-.293-.0157.0967-.0303.1934-.0303.293 0 1.1055.8955 2 2 2 .2314 0 .4482-.0488.6533-.1211.0899.1514.1914.2949.3155.418-.5792.3476-.9688.9785-.9688 1.7031 0 1.1055.8955 2 2 2-1.1045 0-2 .8965-2 2 0 .3789.1113.7285.2939 1.0303-.0976-.0147-.1933-.0303-.2939-.0303-1.1045 0-2 .8965-2 2 0 .1016.0146.1973.0303.294-.3028-.1827-.6524-.294-1.0303-.294-1.1045 0-2 .8965-2 2-.415 0-.7998.127-1.1201.3438-.2725-.7803-1.0069-1.3438-1.8799-1.3438-.6006 0-1.1338.2715-1.5.6904-.3662-.4189-.8994-.6904-1.5-.6904-1.1045 0-2 .8965-2 2-1.1045 0-2 .8965-2 2 0 .3789.1113.7285.2939 1.0303-.0976-.0147-.1933-.0303-.2939-.0303-1.1045 0-2 .8965-2 2-1.1045 0-2 .8965-2 2 0 .3789.1113.7285.2939 1.0303-.0976-.0147-.1933-.0303-.2939-.0303-1.1045 0-2 .8965-2 2 0 .8858.5791 1.6289 1.376 1.8916.001.0723.0136.1416.0215.2119C19.5898 57.5254 19 58.2734 19 59.166c0 1.1055.8955 2 2 2 .415 0 .7998-.126 1.1201-.3418.2725.7793 1.0069 1.3418 1.8799 1.3418.3779 0 .7275-.1113 1.0303-.293-.0157.0967-.0303.1934-.0303.293 0 1.1055.8955 2 2 2 .6006 0 1.1338-.2695 1.5-.6894.3662.4199.8994.6894 1.5.6894.415 0 .7998-.126 1.1201-.3418.2725.7793 1.0069 1.3418 1.8799 1.3418.8232 0 1.5283-.498 1.835-1.207.1181.0332.2402.0537.3652.0644.3223.6739 1.0039 1.1426 1.7998 1.1426.6006 0 1.1338-.2695 1.5-.6894.3662.4199.8994.6894 1.5.6894.873 0 1.6074-.5625 1.8799-1.3418.3203.2158.7051.3418 1.1201.3418.873 0 1.6074-.5625 1.8799-1.3418.3203.2158.7051.3418 1.1201.3418.873 0 1.6074-.5625 1.8799-1.3418.3203.2158.7051.3418 1.1201.3418 1.1045 0 2-.8945 2-2 0-.0996-.0146-.1963-.0303-.293.3028.1817.6524.293 1.0303.293 1.1045 0 2-.8945 2-2 1.1045 0 2-.8945 2-2 1.1045 0 2-.8945 2-2 1.1045 0 2-.8945 2-2 0-.3769-.1113-.7275-.2939-1.0293.0966.0147.1933.0293.2939.0293 1.1045 0 2-.8945 2-2 0-.3769-.1113-.7275-.2939-1.0293.0966.0147.1933.0293.2939.0293 1.1045 0 2-.8945 2-2 0-.5996-.2705-1.1328-.6895-1.5.419-.3662.6895-.8984.6895-1.5 0-.414-.127-.7988-.3428-1.1191C64.4375 41.7734 65 41.0391 65 40.166c0-.5996-.2705-1.1328-.6895-1.5.419-.3662.6895-.8984.6895-1.5 0-.873-.5625-1.6074-1.3428-1.8799z"/><g fill="none" stroke="#000" stroke-linecap="round" stroke-linejoin="round" stroke-miterlimit="10" stroke-width="2"><path d="M25.0322 41.2734C21.9697 38.8955 19.999 35.1777 19.999 31V12c0-2.7617-2.2383-5-5-5s-5 2.2383-5 5l1 28c0 5.4502 1.7442 10.4922 4.7051 14.6006"/><path d="M63.6572 35.1191C63.873 34.7998 64 34.415 64 34s-.127-.7998-.3428-1.1191C64.4375 32.6074 65 31.873 65 31s-.5625-1.6074-1.3428-1.8809C63.873 28.7998 64 28.415 64 28c0-.873-.5625-1.6074-1.3428-1.8804C62.873 25.7998 63 25.415 63 25c0-.873-.5625-1.6074-1.3428-1.8804C61.873 22.7998 62 22.415 62 22c0-1.1045-.8955-2-2-2-.1006 0-.1973.0151-.2939.0298C59.8887 19.728 60 19.3779 60 19c0-1.1045-.8955-2-2-2-.1006 0-.1973.0151-.2939.0298C57.8887 16.728 58 16.3779 58 16c0-1.1045-.8955-2-2-2-.3779 0-.7275.1113-1.0303.2935.0157-.0967.0303-.1929.0303-.2935 0-1.1045-.8955-2-2-2-.415 0-.7998.1265-1.1201.3428C51.6074 11.563 50.873 11 50 11c-.3779 0-.7275.1113-1.0303.2935.0157-.0967.0303-.1929.0303-.2935 0-1.1045-.8955-2-2-2-.415 0-.7998.1265-1.1201.3428C45.6074 8.563 44.873 8 44 8c-.415 0-.7998.1265-1.1201.3428C42.6074 7.563 41.873 7 41 7c-.415 0-.7998.1265-1.1201.3428C39.6074 6.563 38.873 6 38 6s-1.6074.563-1.8799 1.3428C35.7998 7.1265 35.415 7 35 7c-.6885 0-1.2959.3481-1.6553.8779-.2197.0034-.4277.0474-.625.1162C32.3721 7.4019 31.7354 7 31 7c-1.1045 0-2 .8955-2 2-1.1045 0-2 .8955-2 2-1.1045 0-2 .8955-2 2 0 .415.126.7998.3428 1.1196C24.5635 14.3926 24 15.127 24 16c0 .6006.2705 1.1333.6904 1.5-.4199.3667-.6904.8994-.6904 1.5 0 .8853.5791 1.6279 1.376 1.8911.001.0723.0136.1411.0215.2114C24.5898 21.3594 24 22.1069 24 23c0 1.1045.8955 2 2 2 .1006 0 .1963-.0151.2939-.0298C26.1113 25.272 26 25.6221 26 26c0 1.1045.8955 2 2 2 .3779 0 .7275-.1113 1.0303-.2935-.0157.0967-.0303.1929-.0303.2935 0 1.1045.8955 2 2 2 .415 0 .7998-.127 1.1201-.3428C32.3926 30.4375 33.127 31 34 31c.6006 0 1.1338-.2705 1.5-.6895.3662.419.8994.6895 1.5.6895.3779 0 .7275-.1113 1.0303-.293-.0157.0957-.0303.1924-.0303.293 0 1.1045.8955 2 2 2 .2314 0 .4482-.0488.6533-.1221.0899.1514.1914.295.3155.418C40.3896 33.6445 40 34.2744 40 35c0 1.1045.8955 2 2 2-1.1045 0-2 .8955-2 2 0 .3779.1113.7285.2939 1.0293C40.1963 40.0156 40.1006 40 40 40c-1.1045 0-2 .8955-2 2 0 .1006.0146.1973.0303.293C37.7275 42.1113 37.3779 42 37 42c-1.1045 0-2 .8955-2 2-.415 0-.7998.127-1.1201.3428C33.6074 43.5625 32.873 43 32 43c-.6006 0-1.1338.2705-1.5.6895-.3662-.419-.8994-.6895-1.5-.6895-1.1045 0-2 .8955-2 2-1.1045 0-2 .8955-2 2 0 .3779.1113.7285.2939 1.0293C25.1963 48.0156 25.1006 48 25 48c-1.1045 0-2 .8955-2 2-1.1045 0-2 .8955-2 2 0 .3779.1113.7285.2939 1.0293C21.1963 53.0156 21.1006 53 21 53c-1.1045 0-2 .8955-2 2 0 .8848.5791 1.6279 1.376 1.8906.001.0723.0136.1416.0215.2119C19.5898 57.3594 19 58.1074 19 59c0 1.1045.8955 2 2 2 .415 0 .7998-.127 1.1201-.3428C22.3926 61.4375 23.127 62 24 62c.3779 0 .7275-.1113 1.0303-.293-.0157.0957-.0303.1924-.0303.293 0 1.1045.8955 2 2 2 .6006 0 1.1338-.2705 1.5-.6895.3662.419.8994.6895 1.5.6895.415 0 .7998-.127 1.1201-.3428C31.3926 64.4375 32.127 65 33 65c.8232 0 1.5283-.498 1.835-1.208.1181.0332.2402.0537.3652.0654C35.5225 64.5313 36.2041 65 37 65c.6006 0 1.1338-.2705 1.5-.6895.3662.419.8994.6895 1.5.6895.873 0 1.6074-.5625 1.8799-1.3428C42.2002 63.873 42.585 64 43 64c.873 0 1.6074-.5625 1.8799-1.3428C45.2002 62.873 45.585 63 46 63c.873 0 1.6074-.5625 1.8799-1.3428C48.2002 61.873 48.585 62 49 62c1.1045 0 2-.8955 2-2 0-.1006-.0146-.1973-.0303-.293.3028.1817.6524.293 1.0303.293 1.1045 0 2-.8955 2-2 1.1045 0 2-.8955 2-2 1.1045 0 2-.8955 2-2 1.1045 0 2-.8955 2-2 0-.3779-.1113-.7285-.2939-1.0293.0966.0137.1933.0293.2939.0293 1.1045 0 2-.8955 2-2 0-.3779-.1113-.7285-.2939-1.0293.0966.0137.1933.0293.2939.0293 1.1045 0 2-.8955 2-2 0-.6006-.2705-1.1328-.6895-1.5.419-.3672.6895-.8994.6895-1.5 0-.415-.127-.7998-.3428-1.1191C64.4375 41.6074 65 40.873 65 40c0-.6006-.2705-1.1328-.6895-1.5.419-.3672.6895-.8994.6895-1.5 0-.873-.5625-1.6074-1.3428-1.8809z"/></g></svg>