<svg xmlns="http://www.w3.org/2000/svg" role="img" viewBox="2.72 14.72 66.43 42.43"><title>1F1F0-1F1F7.svg</title><path fill="#fff" d="M5 17h62v38H5z"/><circle cx="36" cy="36" r="9" fill="#d22f27"/><path d="M28.1267 31.6756A4.4922 4.4922 0 0 0 36 36c.023-.04.0338-.0828.0554-.123l.0232.0138a4.4932 4.4932 0 0 1 7.7243 4.59l.003.0018a8.9918 8.9918 0 0 1-15.6792-8.8071zm.2046-.3887l.02.0115c-.03.046-.0668.085-.0954.1325.0271-.0465.047-.0981.0754-.144z" fill="#1e50a0"/><g fill="none" stroke="#000" stroke-linecap="round" stroke-linejoin="round"><path d="M24.232 41.902l3 5.196m-6.464-3.196l3 5.196M22.5 42.902l1 1.732m1 1.732l1 1.732"/><path d="M45.5 48.098l1-1.732m1-1.732l1-1.732m-1.268 6.196l1-1.732m1-1.732l1-1.732m-6.464 3.196l1-1.732m1-1.732l1-1.732"/><path d="M20.768 28.098l3-5.196M22.5 29.098l3-5.196m-1.268 6.196l3-5.196"/><path d="M44.768 24.902l1 1.732m1 1.732l1 1.732m.464-7.196l1 1.732m1 1.732l1 1.732M46.5 23.902l3 5.196"/></g><g><path fill="none" stroke="#000" stroke-linecap="round" stroke-linejoin="round" stroke-width="2" d="M5 17h62v38H5z"/></g></svg>