<svg xmlns="http://www.w3.org/2000/svg" role="img" viewBox="10.91 12.91 50.05 45.55"><title>E082.svg</title><path fill="#61b2e4" d="M22.727 50.64h3.766l-2.441 6.975h3.956l2.441-6.975h3.766l-2.441 6.975h3.956l2.441-6.575h.8175l-.8352-19.11h-3.869c-.9309 1.375-2.527 2.145-4.182 2.02-1.725.04034-3.375-.7024-4.488-2.02h-4.085l-1.639 25.27.4287.06404z"/><path fill="#fcea2b" d="M35.337 38.64s-.3528 4.586-2.94 4.586c-2.47 0-2.94-4.586-2.94-4.586 1.882-1.529 4.822-1.176 5.88 0z"/><path fill="#61b2e4" stroke="#61b2e4" stroke-linecap="round" stroke-linejoin="bevel" stroke-miterlimit="10" stroke-width="2" d="M25.227 20.75h10.35v-1.8l1.33-1.23-.1-2.75-10.7 1.89-.88 1.71z"/><g fill="#fcea2b" stroke="#fcea2b" stroke-width="2"><path stroke-linecap="square" d="M34.68 22.73v1.485c-.4391 5.578-8.612 5.578-9.051 0 .0012-.8226.0036-.6626 0-1.485z"/><path stroke-linecap="round" stroke-linejoin="bevel" d="M38.15 31.93h19.59c.6362-.03983 1.191.4293 1.256 1.063 0 1.74-1.741 4.157-3.674 4.254l-16.85 1.002z"/><path d="M20.86 41.12l-2.8 12.75a2.836 2.836 0 0 1-3.039 2.439c-1.42 0-2.221-1.822-1.988-3.309l2.691-15.13c.67-3.949 2.23-5.932 5.802-5.932"/></g><g fill="none" stroke="#000" stroke-linecap="round" stroke-width="2"><path stroke-miterlimit="10" d="M40.28 31.93h17.47a1.189 1.189 0 0 1 1.256 1.063c0 1.74-1.741 4.157-3.674 4.254l-12.98.7744M15.03 56.3c-1.42 0-2.221-1.822-1.988-3.309l2.691-15.13c.67-3.949 2.275-5.932 5.802-5.932"/><path stroke-linejoin="round" d="M20.61 47.31l.918-15.38h4.085a5.731 5.731 0 0 0 4.554 2.02m.713-13.21h4.7"/><path stroke-linejoin="round" d="M39.287 21.214l-3.71-.47v-1.8l1.33-1.23-.1-2.75-10.7 1.89-.88 1.71v2.18m15.25 11.18h-2.32l.66 15.25"/><path stroke-linejoin="round" d="M22.42 51.09l-1.93 5.54m9.64-5.54l-1.93 5.54m9.77-5.54l-1.96 5.54"/><path stroke-miterlimit="10" d="M25.63 24.21a4.54 4.54 0 0 0 9.051 0"/></g></svg>