<svg xmlns="http://www.w3.org/2000/svg" role="img" viewBox="1.81 1.81 68.51 68.51"><title>1F6F0.svg</title><g id="color" stroke-linecap="round" stroke-linejoin="round" stroke-miterlimit="10" stroke-width="2"><path fill="#d0cfce" d="M24.2814,24.4049c3.6326-3.6326,3.934-9.4125,0.8702-13.3997c-0.3699-0.4815-1.0826-0.53-1.512-0.1007L11.0003,23.5439 c-0.4196,0.4196-0.3828,1.1114,0.0737,1.4905C14.9386,28.2441,20.6405,28.0457,24.2814,24.4049z"/><path fill="#3f3f3f" d="M15.7278 67.7278L4.4142 56.4142c-.3906-.3906-.3906-1.0237 0-1.4143l15.1005-15.1005c.3905-.3905 1.0236-.3905 1.4142 0l11.3137 11.3137c.3905.3906.3905 1.0237 0 1.4142L17.1421 67.7278C16.7515 68.1184 16.1184 68.1184 15.7278 67.7278zM51.2131 32.2426L39.8994 20.9289c-.3905-.3905-.3905-1.0237 0-1.4142L54.9999 4.4142c.3906-.3906 1.0237-.3906 1.4143 0l11.3136 11.3136c.3906.3906.3906 1.0237 0 1.4143L52.6273 32.2426C52.2368 32.6331 51.6036 32.6331 51.2131 32.2426z"/><path fill="#d0cfce" d="M51.9203,39.1924L39.1924,51.9203c-0.3905,0.3905-1.0237,0.3905-1.4142,0L23.636,37.7782c-0.3905-0.3905-0.3905-1.0237,0-1.4142 l12.728-12.728c0.3905-0.3905,1.0237-0.3905,1.4142,0l14.1421,14.1422C52.3108,38.1687,52.3108,38.8019,51.9203,39.1924z"/><path fill="#9b9b9a" d="M36.364 23.636L23.636 36.364c-.3905.3905-1.0237.3905-1.4142 0l-4.2426-4.2427c-.3905-.3905-.3905-1.0237 0-1.4142l12.7279-12.7279c.3905-.3905 1.0237-.3905 1.4142 0l4.2427 4.2426C36.7545 22.6123 36.7545 23.2455 36.364 23.636zM53.3345 44.8492l-8.4853 8.4853c-.3905.3905-1.0236.3905-1.4142 0l-2.1213-2.1213c-.3905-.3905-.3905-1.0237 0-1.4142l8.4853-8.4853c.3905-.3905 1.0237-.3905 1.4142 0l2.1213 2.1213C53.725 43.8256 53.725 44.4587 53.3345 44.8492z"/><circle cx="12.322" cy="12.322" r="2" fill="#3f3f3f" transform="rotate(-45.001 12.322 12.323)"/></g><g id="line" fill="none" stroke="#000" stroke-miterlimit="10" stroke-width="2"><path d="M45.5 26.5L43.07 28.93M28.93 43.07L26.52 45.49 26 46M12 14L12 22M23 12L14 12"/><path stroke-linecap="round" stroke-linejoin="round" d="M24.2814 24.4049c3.6326-3.6326 3.934-9.4125.8702-13.3997-.3699-.4815-1.0826-.53-1.512-.1007L11.0003 23.5439c-.4196.4196-.3828 1.1114.0737 1.4905C14.9386 28.2441 20.6405 28.0457 24.2814 24.4049zM15.7278 67.7278L4.4142 56.4142c-.3906-.3906-.3906-1.0237 0-1.4143l15.1005-15.1005c.3905-.3905 1.0236-.3905 1.4142 0l11.3137 11.3137c.3905.3906.3905 1.0237 0 1.4142L17.1421 67.7278C16.7515 68.1184 16.1184 68.1184 15.7278 67.7278zM51.2131 32.2426L39.8994 20.9289c-.3905-.3905-.3905-1.0237 0-1.4142L54.9999 4.4142c.3906-.3906 1.0237-.3906 1.4143 0l11.3136 11.3136c.3906.3906.3906 1.0237 0 1.4143L52.6273 32.2426C52.2368 32.6331 51.6036 32.6331 51.2131 32.2426zM51.9203 39.1924L39.1924 51.9203c-.3905.3905-1.0237.3905-1.4142 0L23.636 37.7782c-.3905-.3905-.3905-1.0237 0-1.4142l12.728-12.728c.3905-.3905 1.0237-.3905 1.4142 0l14.1421 14.1422C52.3108 38.1687 52.3108 38.8019 51.9203 39.1924z"/><path stroke-linecap="round" stroke-linejoin="round" d="M36.364 23.636L23.636 36.364c-.3905.3905-1.0237.3905-1.4142 0l-4.2426-4.2427c-.3905-.3905-.3905-1.0237 0-1.4142l12.7279-12.7279c.3905-.3905 1.0237-.3905 1.4142 0l4.2427 4.2426C36.7545 22.6123 36.7545 23.2455 36.364 23.636zM53.3345 44.8492l-8.4853 8.4853c-.3905.3905-1.0236.3905-1.4142 0l-2.1213-2.1213c-.3905-.3905-.3905-1.0237 0-1.4142l8.4853-8.4853c.3905-.3905 1.0237-.3905 1.4142 0l2.1213 2.1213C53.725 43.8256 53.725 44.4587 53.3345 44.8492z"/><circle cx="12.322" cy="12.322" r="2" stroke-linecap="round" stroke-linejoin="round" transform="rotate(-45.001 12.322 12.323)"/></g></svg>