<svg xmlns="http://www.w3.org/2000/svg" role="img" viewBox="11.04 11.04 49.79 49.79"><title>1F627.svg</title><path fill="#FCEA2B" d="M36 13c-12.6823 0-23 10.3177-23 23 0 12.6822 10.3177 23 23 23 12.6822 0 23-10.3178 23-23 0-12.6823-10.3178-23-23-23z"/><path fill="#FFF" d="M28 46s-.1191-2.9038 0-3c1.3686-.7308 3.9645-1 8-1 4 0 6.6522.2795 8 1 .0878.0572 0 3 0 3H28z"/><g><circle cx="36" cy="36" r="23" fill="none" stroke="#000" stroke-miterlimit="10" stroke-width="2"/><path d="M30 30.9252c0 1.6568-1.3448 3-3 3-1.6553 0-3-1.3433-3-3 0-1.6552 1.3447-3 3-3 1.6552 0 3 1.3448 3 3m18 0c0 1.6568-1.3447 3-3 3s-3-1.3433-3-3c0-1.6552 1.3447-3 3-3s3 1.3448 3 3"/><path fill="none" stroke="#000" stroke-linecap="round" stroke-linejoin="round" stroke-miterlimit="10" stroke-width="2" d="M28 46s-.1191-2.9038 0-3c1.3686-.7308 3.9645-1 8-1 4 0 6.6522.2795 8 1 .0878.0572 0 3 0 3H28zm-4.8517-21.7499c.4872.2275 2.6277 1.1608 5.1639.3327 2.0576-.6718 3.1771-2.1117 3.5396-2.6239m16.9999 2.2912c-.4872.2275-2.6277 1.1608-5.1639.3327-2.0576-.6718-3.1771-2.1117-3.5396-2.6239"/></g></svg>