<svg xmlns="http://www.w3.org/2000/svg" role="img" viewBox="5.72 5.84 60.32 60.20"><title>E051.svg</title><circle cx="36" cy="36" r="28" fill="#92d3f5"/><path fill="#61b2e4" d="M15.5122 55.0858l39.5732-39.5732c.2429.2264.4828.458.7195.6947 10.9347 10.9347 10.9347 28.6633 0 39.598s-28.6633 10.9347-39.598 0a28.46067 28.46067 0 0 1-.6947-.7195z"/><path fill="#fff" d="M33.2 33.2L24 48l14.8-9.2"/><path fill="#ea5a47" d="M33.2 33.2L48 24l-9.2 14.8"/><path d="M36 14v-3m0 50v-3m22-22h3m-50 0h3m37.5564-15.5564l2.1213-2.1213M18.3223 53.6777l2.1214-2.1214m31.1126 0l2.1214 2.1214M18.3223 18.3223l2.1213 2.1213M47 16.9474l1.5-2.598m-25 43.3012l1.5-2.598M55.0526 47l2.598 1.5m-43.3012-25l2.598 1.5m40.303 5.306l2.8978-.7765m-48.2963 12.941l2.8977-.7765M41.694 57.2504l.7765 2.8977m-12.941-48.2962l.7765 2.8977M55.0526 25l2.598-1.5m-43.3012 25l2.598-1.5M47 55.0526l1.5 2.598m-25-43.3012l1.5 2.598M57.2504 41.694l2.8978.7765m-48.2963-12.941l2.8977.7765M30.306 57.2504l-.7765 2.8977m12.941-48.2962l-.7765 2.8977" fill="none" stroke="#fff" stroke-linecap="round" stroke-linejoin="round" stroke-width="2"/><g fill="none" stroke="#000" stroke-linecap="round" stroke-linejoin="round" stroke-width="2"><path d="M36 64c15.464 0 28-12.536 28-28S51.464 8 36 8 8 20.536 8 36s12.536 28 28 28z"/><path d="M33.2 33.2L24 48l14.8-9.2"/><path d="M33.2 33.2L48 24l-9.2 14.8"/></g></svg>