<svg xmlns="http://www.w3.org/2000/svg" role="img" viewBox="16.30 4.55 39.27 62.27"><title>1F4F1.svg</title><g stroke-linecap="round" stroke-linejoin="round" stroke-miterlimit="10" stroke-width="2"><path fill="#9B9B9A" d="M52.5 64.7644h-33c-.5523 0-1-.4477-1-1v-56c0-.5523.4477-1 1-1h33c.5523 0 1 .4477 1 1v56c0 .5523-.4477 1-1 1z"/><path fill="#D0CFCE" d="M48.0339 55H23.9661c-.5336 0-.9661-.4325-.9661-.9661V13.9661c0-.5336.4325-.9661.9661-.9661h24.0678c.5336 0 .9661.4325.9661.9661v40.0678c0 .5336-.4325.9661-.9661.9661z"/><path fill="#FFF" d="M31 10h10-10z"/></g><g stroke="#000" stroke-miterlimit="10"><path fill="none" stroke-linecap="round" stroke-linejoin="round" stroke-width="2" d="M52.5 64.7644h-33c-.5523 0-1-.4477-1-1v-56c0-.5523.4477-1 1-1h33c.5523 0 1 .4477 1 1v56c0 .5523-.4477 1-1 1z"/><path fill="none" stroke-linecap="round" stroke-linejoin="round" stroke-width="2" d="M48.0339 55H23.9661c-.5336 0-.9661-.4325-.9661-.9661V13.9661c0-.5336.4325-.9661.9661-.9661h24.0678c.5336 0 .9661.4325.9661.9661v40.0678c0 .5336-.4325.9661-.9661.9661z"/><circle cx="36" cy="60" r="2"/><path fill="none" stroke-linecap="round" stroke-linejoin="round" stroke-width="2" d="M31 10h10-10z"/></g></svg>