<svg xmlns="http://www.w3.org/2000/svg" role="img" viewBox="2.72 14.72 66.43 42.43"><title>1F1EF-1F1F2.svg</title><rect width="62" height="38" x="5" y="17" fill="#5c9e31" rx="3.2" ry="3.2"/><path d="M29.4811 39.9955l-17.346 10.6314c-3.1225 1.9138-7.135-.3331-7.135-3.9955V25.3685c0-3.6623 4.0125-5.9093 7.135-3.9955l17.346 10.6314c2.9832 1.8284 2.9832 6.1625 0 7.9909zm12.6389-.2446l18.1816 11.1436C63.233 52.6912 67 50.5818 67 47.1436V24.8564c0-3.4382-3.767-5.5476-6.6984-3.7509L42.12 32.2491c-2.8006 1.7165-2.8006 5.7854 0 7.5019z"/><path fill="#fcea2b" d="M5 21.6921v-2.4179C5 18.0182 6.0182 17 7.2742 17h4.1124c.4018 0 .7964.1064 1.1437.3085l53.3393 31.0338c.6999.4072 1.1305 1.1559 1.1305 1.9657v2.4179c0 1.256-1.0182 2.2742-2.2742 2.2742h-4.1124c-.4018 0-.7964-.1064-1.1437-.3085L6.1305 23.6577C5.4306 23.2505 5 22.5018 5 21.692z"/><path fill="#fcea2b" d="M67 21.3178v-1.3929C67 18.3095 65.6905 17 64.0751 17H60.789c-.5168 0-1.0243.1369-1.4709.3968L6.454 48.154C5.5538 48.6778 5 49.6407 5 50.6822v1.3929C5 53.6905 6.3095 55 7.9249 55h3.2861c.5168 0 1.0243-.1369 1.4709-.3968l52.864-30.7573c.9002-.5238 1.454-1.4867 1.454-2.5282z"/><g><path fill="none" stroke="#000" stroke-linecap="round" stroke-linejoin="round" stroke-width="2" d="M5 17h62v38H5z"/></g></svg>