<svg xmlns="http://www.w3.org/2000/svg" role="img" viewBox="12.34 12.84 47.19 46.94"><title>1F511.svg</title><path fill="#F4AA41" d="M33.5357 31.9911c-1.4016-4.2877-.2247-9.41 3.4285-13.0632 5.018-5.018 12.8077-5.3639 17.3989-.7727s4.2452 12.381-.7728 17.3989c-4.057 4.057-10.4347 5.5131-14.2685 2.5888"/><path fill="#F4AA41" stroke="#F4AA41" stroke-linecap="round" stroke-linejoin="round" stroke-miterlimit="10" stroke-width="2" d="M33.652 31.736l-2.434 2.451-16.574 16.327v7.146h6.399v-4.576h5.011v-5.782h5.986l2.351-2.373v-4.302h1.971l3.09-3.09"/><path fill="#E27022" d="M15.985 53.346l.001-1.907 15.912-15.565.952.974z"/><circle cx="48.52" cy="23.998" r="3.952" fill="#E27022"/><g fill="none" stroke="#000" stroke-linecap="round" stroke-linejoin="round" stroke-miterlimit="10" stroke-width="2"><path d="M30.735 34.656L14.303 50.681v7.24h7.565v-4.636h5.125v-5.858h5.098l2.405-2.404v-4.358h2.015"/><circle cx="48.52" cy="23.998" r="3.952"/><path d="M34.2256 31.1781c-1.4298-4.2383-.3466-9.2209 3.1804-12.6947 4.8446-4.7715 12.4654-4.8894 17.0216-.2634s4.3223 12.2441-.5223 17.0156c-3.9169 3.8577-9.6484 4.6736-14.1079 2.3998"/></g></svg>