<svg xmlns="http://www.w3.org/2000/svg" role="img" viewBox="13.00 10.00 45.87 51.87"><title>1FAD9-200D-1F7E8.svg</title><rect width="34" height="26" x="19" y="30" fill="none" stroke="#000" stroke-width="2" rx="5"/><path fill="#fff" fill-rule="evenodd" d="M19 19c-.5523 0-1 .4477-1 1v2.5c0 1.3836-.2295 2.3394-.5429 3.064-.3156.7301-.7389 1.2807-1.222 1.8544-.0649.077-.1322.1558-.2012.2367l-.0002.0002c-.4236.4962-.91 1.0661-1.2843 1.7444C14.2913 30.2301 14 31.2092 14 32.5V51c0 5.5228 4.4772 10 10 10h24c5.5228 0 10-4.4772 10-10V32.5c0-1.2908-.2913-2.2699-.7494-3.1003-.3743-.6783-.8607-1.2482-1.2843-1.7444-.069-.0809-.1364-.1598-.2014-.2369-.4831-.5737-.9064-1.1243-1.222-1.8544C54.2295 24.8394 54 23.8836 54 22.5V20c0-.5523-.4477-1-1-1H19z" clip-rule="evenodd"/><path fill="#D0CFCE" d="M54 12H18c-.5523 0-1 .4477-1 1v6c0 .5523.4477 1 1 1h36c.5523 0 1-.4477 1-1v-6c0-.5523-.4477-1-1-1z"/><path fill="#F1B31C" fill-rule="evenodd" d="M24 29h24c3.3137 0 6 2.6863 6 6v16c0 3.3137-2.6863 6-6 6H24c-3.3137 0-6-2.6863-6-6V35c0-3.3137 2.6863-6 6-6z" clip-rule="evenodd"/><path fill="#FCEA2B" fill-rule="evenodd" d="M24 57h17c3.3137 0 6-2.6863 6-6V35c0-3.3137-2.6863-6-6-6H24c-3.3137 0-6 2.6863-6 6v16c0 3.3137 2.6863 6 6 6z" clip-rule="evenodd"/><path fill="none" stroke="#fff" stroke-linecap="round" stroke-linejoin="round" stroke-width="2" d="M24 51V32.8246c0-4.4211 2-3.9299 2-9.8246"/><g fill="none" stroke="#000" stroke-linecap="round" stroke-linejoin="round" stroke-width="2"><path d="M36 60h12c4.9706 0 9-4.0294 9-9V32.5c0-4.5-4-4-4-10M36 60H24c-4.9706 0-9-4.0294-9-9V32.5c0-4.5 4-4 4-10M54 12H18c-.5523 0-1 .4477-1 1v6c0 .5523.4477 1 1 1h36c.5523 0 1-.4477 1-1v-6c0-.5523-.4477-1-1-1z"/></g></svg>