<svg xmlns="http://www.w3.org/2000/svg" role="img" viewBox="10.38 17.88 58.11 44.11"><title>1F3D5.svg</title><path fill="#FCEA2B" stroke="#FCEA2B" stroke-linecap="round" stroke-linejoin="round" stroke-miterlimit="10" stroke-width="2" d="M27 35L12.5 60h29L27 35"/><path fill="#F1B31C" stroke="#F1B31C" stroke-linecap="round" stroke-linejoin="round" stroke-miterlimit="10" stroke-width="2" d="M27 35v25H12.5L27 35"/><path fill="#B1CC33" d="M66.5 32.6158c0-3.5438-3.6409-6.422-8.1319-6.422a10.302 10.302 0 0 0-1.1227.0708C55.3433 22.5678 51.2137 20 46.4116 20c-6.6037 0-11.9566 4.845-11.9566 10.8212.0012.395.026.7896.0743 1.1815-2.9518.9632-5.0293 3.2567-5.0293 5.9351 0 3.5437 3.6409 6.422 8.1319 6.422 1.7071.0148 3.3882-.4304 4.8765-1.2914 1.9213 1.5798 4.9956 2.6089 8.472 2.6089 5.8244 0 10.546-2.8754 10.546-6.4219a3.98451 3.98451 0 0 0-.0647-.6989c2.9559-.9646 5.0383-3.2595 5.0383-5.9407z"/><path fill="#8967AA" d="M27 54c-1 0-3 1-5 1-2.7614 0-5 2.2386-5 5h10v-6z"/><g fill="none" stroke="#000" stroke-linecap="round" stroke-width="2"><path stroke-linejoin="round" d="M46.94 60v-7.675l-5.285-5.164m5.857 5.057l3.006-3.168"/><path stroke-linejoin="round" stroke-miterlimit="10" d="M27 35L12.5 60h29l-6.934-11.956M27 60V44.25m0 0V60"/><path stroke-miterlimit="10" d="M66.5 32.6158c0-3.5438-3.6409-6.422-8.1319-6.422a10.302 10.302 0 0 0-1.1227.0708C55.3433 22.5678 51.2137 20 46.4116 20c-6.6037 0-11.9566 4.845-11.9566 10.8212.0012.395.026.7896.0743 1.1815-2.9518.9632-5.0293 3.2567-5.0293 5.9351 0 3.5437 3.6409 6.422 8.1319 6.422 1.7071.0148 3.3882-.4304 4.8765-1.2914 1.9213 1.5798 4.9956 2.6089 8.472 2.6089 5.8244 0 10.546-2.8754 10.546-6.4219a3.98451 3.98451 0 0 0-.0647-.6989c2.9559-.9646 5.0383-3.2595 5.0383-5.9407z"/><path stroke-linejoin="round" stroke-miterlimit="10" d="M27 54c-1 0-3 1-5 1-2.7614 0-5 2.2386-5 5h10v-6z"/></g></svg>