<svg xmlns="http://www.w3.org/2000/svg" role="img" viewBox="18.34 8.72 42.19 53.56"><title>1F50E.svg</title><circle cx="43.971" cy="25.476" r="11.166" fill="#FFF" transform="rotate(-57.459 43.97 25.476)"/><path fill="#92D3F5" d="M53.4402 31.8458c1.461-2.289 2.284-6.5149 1.6981-9.1673-.4014-1.8161-2.6553-3.8396-3.8988-5.1585.6487 2.3544 1.0384 7.3509-2.1852 11.9716-2.7358 3.9212-6.6908 5.6353-8.9477 6.0576 4.2488 1.2831 10.8311.2175 13.3336-3.7034z"/><path fill="#D0CFCE" d="M51.7774 13.2414c-3.2684-2.0837-7.1512-2.7717-10.9373-1.9372-3.785.8366-7.0182 3.097-9.1041 6.3645-4.3036 6.746-2.3176 15.7369 4.4283 20.0415 6.745 4.3047 15.7348 2.3197 20.0415-4.4273 2.0849-3.2675 2.7728-7.1524 1.9362-10.9374-.8366-3.7851-3.096-7.0182-6.3646-9.1041zm1.8363 18.3876c-2.1788 3.4147-5.8819 5.2814-9.6611 5.2814-2.1045.0009-4.2319-.5785-6.1343-1.7924-5.3172-3.3926-6.8818-10.4791-3.4892-15.7954 1.6436-2.5754 4.1915-4.3576 7.1747-5.0159 2.9841-.6584 6.0444-.1176 8.6208 1.5269 2.5755 1.6426 4.3567 4.1905 5.016 7.1747.6593 2.9831.1166 6.0443-1.5269 8.6207z"/><path fill="#3F3F3F" d="M31.4429 40.2651l-6.918 10.335-3.7106 5.8155c-.4778.75.3797 3.2105 1.1294 3.6888.3613.2305 2.5325.011 2.5325.011L36 42.9231l-4.5571-2.658z"/><g fill="none" stroke="#000" stroke-linecap="round" stroke-linejoin="round" stroke-miterlimit="10" stroke-width="2"><circle cx="43.971" cy="25.476" r="14.637" transform="rotate(-57.459 43.97 25.476)"/><circle cx="43.971" cy="25.476" r="11.166" transform="rotate(-57.459 43.97 25.476)"/><path d="M31.3102 39.9657l4.4057 2.811-10.4959 16.45c-.7499 1.1753-2.344 1.4986-3.5606.7224h0c-1.2166-.7763-1.595-2.3582-.8451-3.5335l10.4959-16.4499z"/></g></svg>