<svg xmlns="http://www.w3.org/2000/svg" role="img" viewBox="15.92 5.92 40.03 56.03"><title>E209.svg</title><path fill="#3f3f3f" d="M38 18v-3h-1v-2h-2v2h-1v3h-1v8h6v-8h-1zM20 38h9v-6h.0487l3.4757-4 1.1419-1.3143h-2.2958l-9.2572 5.1429a13.3413 13.3413 0 0 1-1.0285 3.0856 4.99 4.99 0 0 1-3.0857 2.0572H18V38zm30.9143-3.0858a13.3441 13.3441 0 0 1-1.0286-3.0856l-9.2571-5.1429h-2.2949L39.4756 28l3.4757 4H43v6h11v-1.0286a4.99 4.99 0 0 1-3.0857-2.0572z"/><path fill="#e67a94" d="M43 38l2-6h-2.049l-3.475-4L36 24l-3.476 4-3.475 4H27l2 6h-9v22h32V38h-9z"/><path fill="#d0cfce" d="M20 51h32v10H20z"/><circle cx="36" cy="32" r="2" fill="#fff"/><rect width="5" height="8" x="34" y="52" fill="#a57939" rx="1.409"/><g fill="none" stroke="#000" stroke-width="2"><path stroke-linecap="round" stroke-linejoin="round" d="M39 26v-8h-1v-3h-1v-2h-2v2h-1v3h-1v8"/><rect width="5" height="8" x="34" y="52" stroke-linecap="round" stroke-linejoin="round" rx="1.409"/><path stroke-linecap="round" stroke-linejoin="round" d="M36 8v5m-2.35 29.085v2.113m3-2.113v2.113m3-2.113v2.113m-6 2.887v2.113m3-2.113v2.113m3-2.113v2.113m-16-8.113v2.113m3-2.113v2.113m-3 2.887v2.113m3-2.113v2.113m19-7.113v2.113m3-2.113v2.113m-3 2.887v2.113m3-2.113v2.113m-15-11.113v2.113m3-2.113v2.113m3-2.113v2.113m-16 13.887v2.113m3-2.113v2.113m19-2.113v2.113m3-2.113v2.113M43 38l2-6h-2.049l-3.475-4L36 24l-3.476 4-3.475 4H27l2 6h-9v22h32V38h-9z"/><circle cx="36" cy="32" r="2" stroke-miterlimit="10"/><path stroke-linecap="round" stroke-linejoin="round" d="M33.6663 26.6857h-2.2958l-9.2572 5.1429a13.3413 13.3413 0 0 1-1.0285 3.0856 4.99 4.99 0 0 1-3.0857 2.0572H18V38h2m32 0h2v-1.0286a4.99 4.99 0 0 1-3.0857-2.0572 13.3441 13.3441 0 0 1-1.0286-3.0856l-9.2571-5.1429h-2.2949"/></g></svg>