<svg xmlns="http://www.w3.org/2000/svg" role="img" viewBox="15.00 10.00 41.87 51.87"><title>E262.svg</title><path fill="#FFF" d="M51.7598 17H20.1525v37.65c0 4.0593 3.2907 5.6209 7.35 5.6209h16.9073c4.0593 0 7.35-1.5616 7.35-5.6209V17z"/><path fill="#FFF" stroke-linecap="round" stroke-linejoin="round" stroke-miterlimit="10" stroke-width="2" d="M31 16v-4h10v4"/><path fill="#9b9b9a" d="M51 37v20.621L48.3 60H33z"/><path fill="#FFF" stroke-linecap="round" stroke-linejoin="round" stroke-miterlimit="10" stroke-width="2" d="M17 16h38v4H17z"/><g fill="none" stroke="#000" stroke-linecap="round" stroke-linejoin="round" stroke-miterlimit="10" stroke-width="2"><path d="M31 16v-4h10v4m10 9v31c0 2.2091-1.7909 4-4 4H25c-2.2091 0-4-1.7909-4-4V25m-4-9h38v4H17zm24 12.25V55M31 28.25V55"/></g></svg>