<svg xmlns="http://www.w3.org/2000/svg" role="img" viewBox="4.26 24.14 64.35 33.73"><title>1F699.svg</title><path fill="#92d3f5" d="M63.4786 49.9898h.6453c.5523 0 1-.4477 1-1v-2c0-.0954-.0706-.1761-.1652-.1887l-1.7098-.228c0-1.717.4975-13.863-.9281-19.3795-.1094-.4233-.4944-.7148-.9313-.731l-26.8087.0071c-.3597-.0133-.6988.1677-.8879.4739l-4.4024 9.1295L12.5558 37.69c-.3231.0313-.611.2174-.7721.4993l-3.0765 6.3838H7.5405c-.5522 0-1 .4478-1 1v1.5834c0 .5523.4478 1 1 1h16.5209l2.8125 3.4375 27.25.1875v-1.8594h9.0156"/><path fill="#3f3f3f" d="M33.353 36.0106h12.6324s.4678-6.8125 0-6.8125h-8.6856c-.4107 0-.785.2358-.9633.6067l-2.9835 6.2058zM7.2489 44.6343v4.4597h17.4375l1.8541 2.6105 29.3636.077 2.7521-.8588h5.8956l.7387-4.2871-3-.1034-1.8541-4.3601-9.2656.9844-2.5469 2.1666-25.8755-.1544-1.362-2.7521c-.1764-.3564-.5233-.5975-.9189-.6385l-6.8426-.7652-2.878 3.742-3.498-.1206z"/><path fill="#9b9b9a" d="M16.3739 46.7398c-2.2 0-4 1.8-4 4s1.8 4 4 4 4-1.8 4-4-1.8-4-4-4zm38.125 0c-2.2 0-4 1.8-4 4s1.8 4 4 4 4-1.8 4-4-1.8-4-4-4z"/><path fill="#3f3f3f" stroke-linecap="round" stroke-linejoin="round" stroke-miterlimit="10" stroke-width="2" d="M63.4786 31.969c.0833 0 1.375.0833 1.375.0833s1.6666.9792 1.6041 5.8125c-.0625 4.8334-1.6666 5.6875-1.6666 5.6875h-.7917"/><g fill="none" stroke="#000" stroke-linecap="round" stroke-linejoin="round" stroke-width="2"><path stroke-miterlimit="10" d="M63.1239 49.9898h1c.5523 0 1-.4477 1-1v-2c0-.0954-.0706-.1761-.1652-.1887l-1.7098-.228c0-1.717.4975-13.863-.9281-19.3795-.1094-.4233-.4944-.7148-.9313-.731l-26.8087.0071c-.3597-.0133-.6988.1677-.8879.4739l-4.4024 9.1295L12.5558 37.69c-.3231.0313-.611.2174-.7721.4993l-3.0765 6.3838H7.5405c-.5522 0-1 .4478-1 1v1.5834c0 .5523.4478 1 1 1h1.0834"/><path stroke-miterlimit="10" d="M23.6656 48.1565h.7083l1.5755 2.1707c.1881.2592.489.4126.8093.4126h19.653"/><circle cx="16.374" cy="50.74" r="5"/><circle cx="54.499" cy="50.74" r="5"/><path stroke-miterlimit="10" d="M34.186 36.511h11.813v-6.354m1.568 15.583l3.182-3.271h8.75m-45.125-.812h7.208l1.91 2.977m39.9866-12.665c.0833 0 1.375.0833 1.375.0833s1.6666.9792 1.6041 5.8125c-.0625 4.8334-1.6666 5.6875-1.6666 5.6875h-.7917"/></g></svg>