<svg xmlns="http://www.w3.org/2000/svg" role="img" viewBox="13.69 8.19 44.37 55.12"><title>E091.svg</title><g id="color"><path fill="#fff" d="m30.879,13.5825l-.2243,10.403s5.901-2.9202,8.0942-1.114,13.0305,6.4507,15.2237,6.3217,1.0679-1.0078,1.0679-1.0078l.8673-13.5708s-4.5155,1.1611-8.515-1.0321-12.7725-6.0637-16.5139,0Z"/><ellipse cx="27.503" cy="53.486" fill="#a57939" rx="11.656" ry="7.87"/><path fill="#d0cfce" d="m30.6547,23.9855c2.1896-1.267,4.6804-1.92,7.21-1.89,4.7236,0,8.7752,6.4968,14.9073,6.4968.9039,0,1.3564-.4069,2.2686-.4069.7566,0,1.0586.5411,1.0586,1.496v1.6279c0,.7455-.8143,1.5923-3.2048,1.5923-7.1861,0-11.2378-4.0647-15.4069-4.0647-2.4863.047-4.8989.8522-6.9151,2.3078v-4.438l.0823-2.7212Z"/></g><g id="line" fill="none" stroke="#000" stroke-linecap="round" stroke-width="2"><path stroke-miterlimit="10" d="m32.1769,46.2743c4.1108,1.2157,6.9831,3.9874,6.9831,7.2116,0,4.3462-5.2186,7.87-11.6561,7.87s-11.656-3.5234-11.656-7.87c0-3.1536,2.7474-5.8739,6.7144-7.1295"/><path stroke-linejoin="round" d="m30.6547,12.48c2.1525-1.3927,4.6471-2.1654,7.21-2.2332,4.7236,0,8.7752,4.1079,14.9073,4.1079.9039,0,1.3564-.4069,2.2686-.4069.7566,0,1.0586.5411,1.0586,1.496v15.8654c0,.7455-.8143,1.5923-3.2048,1.5923-7.1861,0-11.2378-4.0647-15.4069-4.0647-2.4863.047-4.8989.8522-6.9151,2.3078v-4.438"/><path stroke-miterlimit="10" d="M27.182 10.421L27.182 52.34"/></g></svg>