<svg xmlns="http://www.w3.org/2000/svg" role="img" viewBox="8.83 9.71 54.21 54.21"><title>262F.svg</title><circle cx="36" cy="36.883" r="25" fill="#FFF"/><path fill="#3F3F3F" stroke-linecap="round" stroke-linejoin="round" stroke-miterlimit="10" stroke-width="2" d="M10.8833 36.8833c0 13.6133 10.8253 24.6897 24.3381 25.0915-6.5806-.4018-11.7797-5.8647-11.7797-12.5332 0-6.9322 5.6137-12.5583 12.5583-12.5583 6.9322 0 12.5583-5.6261 12.5583-12.5583 0-6.6685-5.2117-12.1313-11.7923-12.5332-.2511-.0126-.5022-.0251-.766-.0251s-.5275 0-.7786.0251c-13.5128.4019-24.3381 11.4783-24.3381 25.0915z"/><circle cx="37.344" cy="48.939" r="4.019" fill="#3F3F3F" stroke-miterlimit="10" stroke-width="2"/><circle cx="37.344" cy="23.823" r="4.019" fill="#FFF" stroke-miterlimit="10" stroke-width="2"/><g fill="none" stroke="#000" stroke-miterlimit="10" stroke-width="2"><path stroke-linecap="round" stroke-linejoin="round" d="M23.4417 49.4417c0 6.6685 5.1992 12.1314 11.7797 12.5332.2637.0125.5148.0251.7786.0251s.5149-.0126.766-.0251c13.5128-.3893 24.3506-11.4657 24.3506-25.0915S50.2787 12.1812 36.766 11.7919c6.5806.4019 11.7923 5.8647 11.7923 12.5332 0 6.9322-5.6261 12.5583-12.5583 12.5583-6.9446-.0001-12.5583 5.626-12.5583 12.5583z"/><path stroke-linecap="round" stroke-linejoin="round" d="M10.8833 36.8833c0 13.6133 10.8253 24.6897 24.3381 25.0915-6.5806-.4018-11.7797-5.8647-11.7797-12.5332 0-6.9322 5.6137-12.5583 12.5583-12.5583 6.9322 0 12.5583-5.6261 12.5583-12.5583 0-6.6685-5.2117-12.1313-11.7923-12.5332-.2511-.0126-.5022-.0251-.766-.0251s-.5275 0-.7786.0251c-13.5128.4019-24.3381 11.4783-24.3381 25.0915z"/><circle cx="37.344" cy="48.939" r="4.019"/><circle cx="37.344" cy="23.823" r="4.019"/></g></svg>