<svg xmlns="http://www.w3.org/2000/svg" role="img" viewBox="18.59 7.96 34.70 53.95"><title>1F425.svg</title><path fill="#fcea2b" stroke="#fcea2b" stroke-miterlimit="10" stroke-width="1.8" d="M36 32c8.2843 0 12.8894 5.3033 15 11 1.5787 4.2609-5.4843 11.7165-15.0067 11.0122C26.619 53.3189 19.8647 49 21 43c1.1294-5.9692 6.7157-11 15-11z"/><path fill="#fcea2b" d="M42.25 36c2 9 9 9 9 9 2-6-6-11-6-11 7-6 1-10 1-10 0-10-10.375-11-10.375-11C25.5 15 26.25 24 26.25 24c-6 4 .625 9.75.625 9.75S19.25 38 21.25 45c0 0 8 0 8-9"/><path fill="#f1b31c" d="M36.6219 26.6032s5.9251-.2907 0 5.2324c0 0-5.9251-5.2324 0-5.2324z"/><g><path fill="none" stroke="#000" stroke-linecap="round" stroke-linejoin="round" stroke-width="2" d="M23 49s4.7974 5.0246 13.48 5.0122C45 54 49 49 49 49M33.625 13.5l-2.5-1.875m4 1.25l-1-2.125m3 2.5L37.25 10"/><path fill="none" stroke="#000" stroke-linecap="round" stroke-linejoin="round" stroke-width="2" d="M31.596 53.731l-.971 4.519L27.5 60m6-1l-2.875-.75m9.279-4.519l.971 4.519L44 60m-6-1l2.875-.75"/><circle cx="32.25" cy="23" r="2"/><circle cx="40.25" cy="23" r="2"/><path fill="none" stroke="#000" stroke-linecap="round" stroke-linejoin="round" stroke-width="2" d="M36.3719 26.6032s5.9132-.2907 0 5.2324c0 0-5.9132-5.2324 0-5.2324z"/><path fill="none" stroke="#000" stroke-linecap="round" stroke-linejoin="round" stroke-width="2" d="M42 36c2 9 9 9 9 9 2-6-6-11-6-11 7-6 1-10 1-10 0-10-10.375-11-10.375-11C25.25 15 26 24 26 24c-6 4 .625 9.75.625 9.75S19 38 21 45c0 0 8 0 8-9"/></g></svg>