<svg xmlns="http://www.w3.org/2000/svg" role="img" viewBox="12.79 15.54 49.79 47.16"><title>1F4AB.svg</title><path fill="#fcea2b" d="M14.8274 18.535c-.3361-.2255 80.195-10.75 29.9619 39.4441L32.69 48.4801S80.4392 29.907 14.8274 18.535z"/><path fill="#f1b31c" d="M31.2981 48.3615l3.791 3.1118c11.0639-4.9912 39.6016-20.5748-.4471-33.8447C24.0006 17.1618 14 18.535 14 18.535c64.0026 11.0487 17.2981 29.8265 17.2981 29.8265z"/><path fill="#fcea2b" d="M35 30.403l4.944 10.018L51 42.028l-8 7.798 1.889 11.011L35 55.638l-9.889 5.199L27 49.826l-8-7.798 11.056-1.607z"/><g fill="none" stroke="#000" stroke-linecap="round" stroke-linejoin="round" stroke-miterlimit="10" stroke-width="2"><path d="M48.6648 34.784c.7196-5.4552-6.5085-11.5508-33.8374-16.2489 0 0 72.9938-9.9979 34.8066 33.0676"/><path d="M35 30.403l4.944 10.018L51 42.028l-7 7.798 1.889 11.011L35 55.638l-9.889 5.199L27 49.826l-8-7.798 11.056-1.607z"/></g></svg>