<svg xmlns="http://www.w3.org/2000/svg" role="img" viewBox="4.93 3.93 62.02 62.14"><title>1F3A2.svg</title><path fill="#fcea2b" d="M39.4776 16.4928c5.5494-3.93 8.754-.6339 8.754-.6339.9628.8397 1.0667 2.2993.2327 3.267l-9.9662 11.4952c-.8397.9629-2.2993 1.0669-3.267.2328l-3.7134-3.2195c-.9629-.8397-1.0669-2.2993-.2328-3.267l1.6316-1.8819 3.2342 2.8045 5.8114-6.7029-2.4845-2.0943z"/><path fill="#f4aa41" d="M45.9661 22.1935L38.86 30.39c-.8397.9628-2.2992 1.0667-3.2669.2327L31.88 27.403c-.9628-.8397-1.0668-2.2993-.2327-3.2669l1.6315-1.8819 3.2343 2.804L38.93 22.27"/><path fill="#ea5a47" d="M14.271 50.034l-6.405-2.562v16.421h6.405V50.034z"/><path fill="#d22f27" d="M10.38 49.63v14.083h3.203V50.9l-3.203-1.27z"/><path fill="#ea5a47" d="M30.613 48.78l-6.405 1.693v13.42h6.405V48.78z"/><path fill="#d22f27" d="M27.41 50.111v13.083h3.203V48.78l-3.203 1.331z"/><path fill="#ea5a47" d="M48.353 36.383l-6.405 6.413v21.139h6.405V36.383z"/><path fill="#d22f27" d="M44.515 40.249v23.195h3.203V37.986l-3.203 2.263z"/><path fill="#ea5a47" d="M64.822 11.896l-6.405 10.482v41.515h6.405V11.896z"/><path fill="#d22f27" d="M61.62 17.866v45.492h3.202V13.565l-3.202 4.301z"/><g><path fill="none" stroke="#000" stroke-linecap="round" stroke-miterlimit="10" stroke-width="2" d="M62.3587 6.1951s-25.8251 55.94-55.1808 35.974"/><path fill="none" stroke="#000" stroke-linecap="round" stroke-linejoin="round" stroke-width="2" d="M47.718 36.383l-6.405 6.413v21.139h6.405V36.383zM30.613 48.78l-6.405 1.693v13.42h6.405V48.78zm-17.03 1.254l-6.405-2.562v16.421h6.405V50.034zM39.8608 16.45c5.5494-3.9305 8.754-.6339 8.754-.6339.9628.8397 1.0667 2.2993.2327 3.267l-9.9662 11.4947c-.8397.9628-2.2993 1.0668-3.267.2328l-3.7134-3.2195c-.9629-.8397-1.0669-2.2993-.2328-3.267L33.3 22.4422l3.2342 2.8041 5.8114-6.7029-2.4848-2.0934z"/><circle cx="48.575" cy="20.77" r="1.55"/><circle cx="46.884" cy="22.991" r="1.55"/><circle cx="40.021" cy="30.636" r="1.55"/><circle cx="42.21" cy="28.608" r="1.55"/><path fill="none" stroke="#000" stroke-linecap="round" stroke-linejoin="round" stroke-width="2" d="M64.822 11.896l-6.405 10.482v41.515h6.405V11.896z"/></g></svg>