<svg xmlns="http://www.w3.org/2000/svg" role="img" viewBox="9.04 11.79 38.17 50.05"><title>1F468-200D-1F466.svg</title><path fill="#92D3F5" d="M36.0004 38.9986h-6.5838c-4.0035 3.2895-7.9182 3.2895-11.8327 0-3.2918 0-6.5836 2.6671-6.5836 5.9566V61h25.0001V38.9986z"/><path fill="#B1CC33" d="M26.5 61v-2.5333C26.5 56 29.0018 54 31.5036 54c2.9751 2.4667 5.9502 2.4667 8.9929 0 2.5017 0 5.0035 2 5.0035 4.4667V61"/><path d="M13.9286 21.3903c.5334-7.7347 6.4011-7.8236 9.335-7.3791.2667.0889 1.0669 0 1.3336 0 5.3343-.7112 8.0014 5.3343 8.0014 8.0014 0 .978.2255 3.3655-1.1081 4.6991 0 0-3.2483-3.7211-3.4261-5.8549 0 0-10.1352 3.8229-10.8464.5334 0 0-.7112 2.6671-1.3336 3.3784 0 0-.3288 2.0448-.3288 2.6671.0002.0002-1.8937-2.667-1.627-6.0454zm19.7069 20.8813c.4694 3.3631 4.487-.8706 4.487-.8706.5491 1.5737 4.4254 3.8674 4.4254 3.8674 1.0324-.9557.5259-2.8525.3721-3.5136-.5106-2.7127-3.0794-4.5325-5.8079-4.1144a6.44664 6.44664 0 0 1-1.0324 0c-2.2709-.3369-6.03-.1483-7.12 4.6433-.5317 2.3382.624 2.9844.624 2.9844s3.764-5.0588 4.0518-2.9965z" fill="#A57939"/><path d="M28.0454 20.8569s-10.1351 3.8229-10.8464.5334c0 0-.7112 2.6672-1.3336 3.3784 0 0-.3185 1.9835-.3273 2.635.4585 5.148 3.8411 9.1996 7.9427 9.1996 4.2864 0 7.782-4.426 7.9809-9.9028-.1045-.1204-3.2414-3.7454-3.4163-5.8436zM38.1228 41.401s-4.0176 4.2337-4.487.8706c-.2576-1.8462-3.2933 2.0046-3.9283 2.834-.0739.3356-.1232.5668-.1232.5888-.1437 3.7311 2.7579 6.8753 6.4885 7.031 3.7306-.1557 6.6323-3.2999 6.4886-7.031 0-.0303-.0594-.2263-.15-.5089-.6787-.4149-3.7996-2.383-4.2886-3.7845z" fill="#FCEA2B"/><g><path fill="none" stroke="#000" stroke-miterlimit="10" stroke-width="2" d="M31.5 25.5689v.6437c0 5.7012-3.5862 10.3908-8 10.3908s-8-4.6897-8-10.3908v-.6437"/><path fill="none" stroke="#000" stroke-linecap="round" stroke-linejoin="round" stroke-width="2" d="M13.9286 21.3903c.5334-7.7347 6.4011-7.8236 9.335-7.3791.2667.0889 1.0669 0 1.3336 0 5.3343-.7112 8.0014 5.3343 8.0014 8.0014 0 .978.2255 3.3655-1.1081 4.6991 0 0-3.2483-3.7211-3.4261-5.8549 0 0-10.1352 3.8229-10.8464.5334 0 0-.7112 2.6671-1.3336 3.3784 0 0-.3288 2.0448-.3288 2.6671.0002.0002-1.8937-2.667-1.627-6.0454z"/><path d="M22.25 26.5c0 .7143-.5357 1.25-1.25 1.25s-1.25-.5357-1.25-1.25.5357-1.25 1.25-1.25 1.25.5357 1.25 1.25m5 0c0 .7143-.5357 1.25-1.25 1.25s-1.25-.5357-1.25-1.25.5357-1.25 1.25-1.25 1.25.5357 1.25 1.25"/><path fill="none" stroke="#000" stroke-linecap="round" stroke-linejoin="round" stroke-width="2" d="M21.633 31.5332c1.1558.6223 2.5782.6223 3.734 0"/><path fill="none" stroke="#000" stroke-linecap="round" stroke-linejoin="round" stroke-width="1.6" d="M26.5003 60.2v-1.7333C26.5003 56 29.0021 54 31.5039 54c2.9751 2.4667 5.9502 2.4667 8.9929 0 2.5017 0 5.0035 2 5.0035 4.4667V60.2"/><path d="M38.7983 45.7015c.0333.4958-.3417.9247-.8377.958-.4959.0333-.9249-.3417-.9582-.8375s.3417-.9247.8377-.958a.86825.86825 0 0 1 .0604-.002c.4796-.0155.8813.3601.8978.8395z"/><path fill="none" stroke="#000" stroke-linecap="round" stroke-linejoin="round" stroke-width="1.6" d="M34.6642 49.1857c.7749.6425 1.8974.6425 2.6723 0"/><path d="M34.1001 44.862a.9372.9372 0 0 1 .0604.002c.4959.0333.871.4622.8377.958s-.4623.8707-.9582.8375c-.4959-.0333-.871-.4622-.8377-.958.0165-.4794.4182-.855.8978-.8395z"/><path fill="none" stroke="#000" stroke-miterlimit="10" stroke-width="1.6" d="M42.5496 45.2683c.0078.141.0117.283.0118.4261.1437 3.7311-2.758 6.8753-6.4886 7.031-3.7306-.1557-6.6322-3.2999-6.4885-7.031 0-.0952.0017-.1899.0052-.2841"/><path fill="none" stroke="#000" stroke-linecap="round" stroke-linejoin="round" stroke-width="1.6" d="M33.6358 42.2716c.4694 3.3631 4.487-.8706 4.487-.8706.5491 1.5737 4.4254 3.8674 4.4254 3.8674 1.0324-.9557.5259-2.8525.3721-3.5136-.5106-2.7127-3.0794-4.5325-5.8079-4.1144a6.44664 6.44664 0 0 1-1.0324 0c-2.2709-.3369-6.03-.1483-7.12 4.6433-.5317 2.3382.624 2.9844.624 2.9844s3.764-5.0588 4.0518-2.9965z"/><path fill="none" stroke="#000" stroke-linecap="round" stroke-linejoin="round" stroke-miterlimit="10" stroke-width="2" d="M11.0003 60V44.9552c0-3.2895 3.2918-5.9566 6.5836-5.9566 2.6822 2.2539 5.3643 2.9634 8.0751 2.1288"/></g></svg>