<svg xmlns="http://www.w3.org/2000/svg" role="img" viewBox="14.91 13.29 40.55 43.55"><title>270A.svg</title><g fill="#fcea2b"><path d="M21.2413 36.1672c-2.0638-.1527-3.6226-1.9342-3.5-4v-7c-.2578-1.933 1.1001-3.709 3.0331-3.9669 1.933-.2578 3.709 1.1001 3.9669 3.0331.0413.3099.0413.6239 0 .9337v7c.1227 2.0659-1.4362 3.8474-3.5 4.0001zm20.5153 2.769c-2.0638-.1527-3.6226-1.9342-3.5-4v-15c-.2578-1.933 1.1001-3.709 3.0331-3.9669 1.933-.2578 3.709 1.1001 3.9669 3.0331.0413.3099.0413.6239 0 .9337v15c.1226 2.0659-1.4362 3.8474-3.5 4.0001z"/><path d="M35.2055 38.9362c-2.0638-.1527-3.6226-1.9342-3.5-4v-15c-.2578-1.933 1.1001-3.709 3.0331-3.9669 1.933-.2578 3.709 1.1001 3.9669 3.0331.0413.3099.0413.6239 0 .9337v15c.1226 2.0659-1.4362 3.8474-3.5 4.0001zm-7.6527 1.231c-2.0638-.1527-3.6226-1.9342-3.5-4v-15c-.2578-1.933 1.1001-3.709 3.0331-3.9669 1.933-.2578 3.709 1.1001 3.9669 3.0331.0413.3099.0413.6239 0 .9337v15c.1226 2.0659-1.4362 3.8474-3.5 4.0001zm-7.516 1.0022c-2.0638-.1527-3.6226-1.9342-3.5-4v-15c-.2578-1.933 1.1001-3.709 3.0331-3.9669 1.933-.2578 3.709 1.1001 3.9669 3.0331.0413.3099.0413.6239 0 .9337v15c.1226 2.0659-1.4362 3.8474-3.5 4.0001z"/><path d="M31.9818 16.3328c-.2578-1.933 2.7585-.1838 6.218.4567 2.3329.4319 4.5808-3.02 4.8386-1.087-.2372.8694 3.7325-2.5368 3.1508 7.8034M44.212 20.053l-.034.642"/><path d="M15.7504 36.1672c1.1419 8.8555 10.7801 19.5839 19.4548 19.4524 9.667 0 19.3573-8.7184 19.3573-19.0617l-.9282-10.5345c0-5.1523-14.0999-4.1388-16.301-4.0927L16 29.4275"/></g><g fill="none" stroke="#000" stroke-linecap="round" stroke-width="2"><path stroke-linejoin="round" d="M43.7413 34.9892v-2.333c0-1.1-1.789-2.2-3.976-2.441l-1.049-.117c-2.187-.242-3.976-1.851-3.976-3.774s1.8-3.334 4-3.334h10c2.2011-.0448 4.0567 1.6316 4.235 3.826l.657 11.213m-15.669.026a12.44571 12.44571 0 0 1 5.777-2.958"/><path stroke-miterlimit="10" d="M16.7761 39.479c1.1988 9.0291 8.9653 15.7322 18.0727 15.5981 10.1492 0 18.7855-7.1738 18.7855-17.7199"/><path stroke-linejoin="round" d="M16.776 39.479v-3.521m3.5316-2.9933c-2.0638-.1527-3.6226-1.9342-3.5-4v-7c-.2578-1.933 1.1001-3.709 3.0331-3.9669 1.933-.2578 3.709 1.1001 3.9669 3.0331.0413.3099.0413.6239 0 .9337v7c.1226 2.0659-1.4362 3.8474-3.5 4.0001z"/><path stroke-linejoin="round" d="M28.7444 31.8273c-3.322 1.2271-4.997-1.9342-4.8744-4v-7c-.2578-1.933 1.1001-3.709 3.0331-3.9669 1.933-.2578 3.709 1.1001 3.9669 3.0331.0413.3099.0413.6239 0 .9337"/><path stroke-linejoin="round" d="M30.9324 24.4656V19.148c-.2578-1.933 1.1001-3.709 3.0331-3.9669 1.933-.2578 3.709 1.1001 3.9669 3.0331.0413.3099.0413.6239 0 .9337"/><path stroke-linejoin="round" d="M37.9948 19.148c-.2578-1.933 1.1001-3.709 3.0331-3.9669 1.933-.2578 3.709 1.1001 3.9669 3.0331.0413.3099.0413.6239 0 .9337"/></g></svg>