<svg xmlns="http://www.w3.org/2000/svg" role="img" viewBox="9.70 10.82 48.73 54.73"><title>E31E.svg</title><path fill="#d0cfce" d="M29.3074 22.94C33.9324 5.3988 65.2 10.1921 53.9116 38.8571c-14.5916 35.7917-32.7916 24.6771-29.7292 13"/><path fill="#9b9b9a" d="M49.8878 38.8065C53.5515 16.929 35.3253 21.5671 33.8822 27.13c3.9743-15.8754 24.0915-9.5928 16.0056 11.6765zm-11.5246-7.9807c4.4385 7 8.3371 13.9079 2.3371 16.6163-1.3969.5735-2.8765.4132-4.3824 1.1735-1.5343.7223-1.8192 1.3265-3.6385 3.2848-2.5625 2.0625-5.7708-1.5465-3.9583-3.6875 3.0729-3.3958 6.4479-3.9271 4.6667-7.2083-1.2187-2.2047.4957-5.0277 4.402-3.9027"/><g fill="none" stroke="#000" stroke-linecap="round" stroke-linejoin="round" stroke-width="2"><path d="M30.3253 22.8171C34.95 5.2754 65.2 11.0671 53.8878 39.15c-14.5919 35.7917-31.875 25-28.8125 13.3229"/><path d="M39.3034 31.1921c4.4386 7 7.3969 13.5417 1.3969 16.25-1.3969.5735-2.8765.4132-4.3824 1.1735-1.5343.7223-1.8192 1.3265-3.6385 3.2848-2.5625 2.0625-5.7708-1.5465-3.9583-3.6875 3.0729-3.3958 6.4479-3.9271 4.6667-7.2083-1.2187-2.2047-.4062-5.2812 3.5-4.1562M33.8822 27.13c3.9744-15.875 24.8326-10.2582 15.24 11.1183M25.301 26.698l-3.226-3.134 2.672-1.262-4.053-3.937m-8.906 23.728l4.378-1.03-.377 2.932 5.5-1.294m.367-10.19l-4.331-1.209.255 2.945-5.442-1.52"/></g><g fill="none" stroke="#d22f27" stroke-linecap="round" stroke-linejoin="round" stroke-width="2"><path d="M25.301 26.698l-3.226-3.134 2.672-1.262-4.053-3.937m-8.906 23.728l4.378-1.03-.377 2.932 5.5-1.294m.367-10.19l-4.331-1.209.255 2.945-5.442-1.52"/></g></svg>