<svg xmlns="http://www.w3.org/2000/svg" role="img" viewBox="2.20 4.08 67.47 61.09"><title>1F639.svg</title><path fill="#F4AA41" d="M58.6505 48.8749C55.0598 57.974 46.0437 64 35.4885 64 26.389 64 16.27 58.1638 12.6794 49.0646l-.1259-.3121C11.4142 45.8985 10.6 42.4051 10.6 39.139l4.6597-32.3062 10.2062 10.0583c2.9169-1.2453 6.125-1.935 9.4918-1.935h1.0614c3.3668 0 6.5749.6897 9.4918 1.935L56.7173 5.8328l3.715 33.8098c0 3.2661-.6271 6.3845-1.7673 9.2386"/><path fill="#E27022" d="M35.4885 63.6979c10.4781.3382 20.1034-5.93 23.6567-14.9346l.1095-.2282c1.1274-2.8244 1.9338-6.8115 1.9338-10.0437L56.4967 6.135"/><path fill="#92D3F5" d="M14.2466 42.8494c-1.8488.1561-5.5872.7259-7.6631 2.8018-.6507.6487-1.0076 1.5123-1.0076 2.4286 0 .9184.3569 1.782 1.0076 2.4328 1.2995 1.2994 3.564 1.2994 4.8614 0 2.076-2.0759 2.6457-5.8142 2.8017-7.6632zm43.5098 0c.1561 1.8489.7257 5.5873 2.8017 7.6632 1.2995 1.2994 3.564 1.2975 4.8615 0 1.34-1.3401 1.34-3.5214.0021-4.8614-2.076-2.0759-5.8144-2.6457-7.6653-2.8018z"/><path fill="#EA5A47" d="M25.0988 49.036s7.7848 4.1519 10.3797-3.1139c2.5949 7.2658 10.784 3.0641 10.784 3.0641s-2.6883 4.3726-3.4807 5.2235c-4.0095 4.3055-9.3823 4.0459-13.645.1165-.9334-.8604-4.038-5.2902-4.038-5.2902z"/><g><path fill="none" stroke="#000" stroke-linecap="round" stroke-linejoin="round" stroke-miterlimit="10" stroke-width="2" d="M61.95 54.177l-9.342-5.19m5.19 10.38l-9.342-5.19M11.7403 37.9376l3.5008-31.5071 10.9585 10.694c2.8525-1.2043 5.9896-1.8713 9.282-1.8713h1.038c3.2923 0 6.4295.667 9.282 1.8713L56.76 6.4305l3.5219 31.6975M22.8515 59.3894C26.5159 61.6782 30.8441 63 35.4816 63h1.038c4.6375 0 8.9677-1.3218 12.6301-3.6106M9.013 54.177l9.342-5.19m-4.152 10.38l9.342-5.19m31.658-16.2388c-3.1139-4.1519-9.3418-4.1519-11.4177 0m-26.9873 0c3.1139-4.1519 9.3418-4.1519 11.4177 0"/><path d="M9.0142 53.5476c-1.4718 0-2.8564-.5738-3.8985-1.6158C4.0737 50.8897 3.5 49.5051 3.5 48.0313c0-1.4718.5737-2.8564 1.6157-3.8964 3.4302-3.4302 9.952-3.4687 10.2278-3.4687.5737 0 1.038.4643 1.038 1.038 0 .2757-.0385 6.7975-3.4687 10.2277-1.0401 1.0419-2.4248 1.6157-3.8986 1.6157zm5.2324-10.7468c-1.8488.1561-5.5872.7259-7.6631 2.8018-.6507.6487-1.0076 1.5123-1.0076 2.4286 0 .9184.3569 1.782 1.0076 2.4328 1.2995 1.2994 3.564 1.2994 4.8614 0 2.076-2.0759 2.6457-5.8142 2.8017-7.6632zm48.7443 10.7468c-1.4739 0-2.8585-.5738-3.9006-1.6158-3.4301-3.4302-3.4686-9.952-3.4686-10.2277 0-.5737.4642-1.038 1.038-1.038.2757 0 6.7994.0385 10.2296 3.4687 2.1489 2.1489 2.1469 5.648-.002 7.7969-1.04 1.0421-2.4247 1.6159-3.8964 1.6159zm-5.2345-10.7468c.1561 1.8489.7257 5.5873 2.8017 7.6632 1.2995 1.2994 3.564 1.2975 4.8615 0 1.34-1.3401 1.34-3.5214.0021-4.8614-2.076-2.0759-5.8144-2.6457-7.6653-2.8018z"/><path fill="none" stroke="#000" stroke-linecap="round" stroke-linejoin="round" stroke-miterlimit="10" stroke-width="2" d="M31.637 45.466h8.321m-14.5605 3.1197s7.8 4.16 10.4-3.12c2.6 7.28 10.805 3.0701 10.805 3.0701s-2.6936 4.3812-3.4875 5.2337c-4.0173 4.3139-9.4006 4.0538-13.6716.1167-.9352-.8621-4.0459-5.3005-4.0459-5.3005z"/></g></svg>