<svg xmlns="http://www.w3.org/2000/svg" role="img" viewBox="13.43 8.93 53.88 55.51"><title>1F47A.svg</title><path fill="#ea5a47" stroke="#ea5a47" stroke-miterlimit="10" d="M15.3127 11h41l-.4087 34.0923-1.7905 4.6783-2.5492 4.3957-2.9134 2.9134-2.8831 2.0637-4.1474 1.8149-4.9635.8888a15.96094 15.96094 0 0 1-2.6076-.2862l-4.639-.9001-4.4658-1.9235a6.45872 6.45872 0 0 1-.6366-.3776l-1.9475-1.312a20.8445 20.8445 0 0 1-1.9365-2.2328l-2.1111-2.8148-1.0908-1.6362a7.63571 7.63571 0 0 1-1.1786-2.9805l-.5259-3.1555a15.03766 15.03766 0 0 1-.2046-2.4724V11z"/><path fill="#fff" stroke="#fff" stroke-linecap="round" stroke-linejoin="round" d="M23.2977 23.8647l.4543-.5574c1.2341-1.514 3.4619-1.7409 4.9759-.5068l4.5938 3.7446c1.514 1.2341 1.7409 3.4619.5068 4.9759l-.4543.5574c-1.2341 1.514-3.4619 1.7409-4.9759.5068l-4.5938-3.7446c-1.5141-1.2341-1.741-3.4619-.5068-4.9759zm16.4542 8.2137l-.4543-.5574c-1.2341-1.514-1.0072-3.7418.5068-4.9759l4.5938-3.7446c1.514-1.2341 3.7418-1.0072 4.9759.5068l.4543.5574c1.2341 1.514 1.0072 3.7418-.5068 4.9759l-4.5938 3.7446c-1.5139 1.2341-3.7417 1.0072-4.9759-.5068z"/><g fill="#d22f27"><path d="M36.313 41l10-6h9l1.705.602 2.709.053 3.107.106 1.168.662.531.878-.026 1.062-.638 1.169-.982.69-3.574.778h-23z"/><path d="M38.8666 35h8.8922c1.4105 0 2.5539 1.1434 2.5539 2.5539v.8922c0 1.4105-1.1434 2.5539-2.5539 2.5539h-8.8922c-1.4105 0-2.5539-1.1434-2.5539-2.5539v-.8922c0-1.4105 1.1434-2.5539 2.5539-2.5539z"/></g><g><path fill="none" stroke="#000" stroke-linecap="round" stroke-linejoin="round" stroke-width="2" d="M15.5 42V11h41v21.201"/><path fill="none" stroke="#000" stroke-linecap="round" stroke-miterlimit="10" stroke-width="2" d="M56.4178 43.8508C55.3951 55.1267 45.4251 63.4387 34.1491 62.416 23.5881 61.4581 15.5006 52.6043 15.5002 42m28.3125 8.5414c-5.0061-2.0554-10.6204-2.0554-15.6265 0"/><path d="M33.63 28.9252c0 1.6569-1.3431 3-3 3s-3-1.3431-3-3 1.3431-3 3-3c1.6565.0007 2.9993 1.3434 3 3m12 0c0 1.6569-1.3431 3-3 3s-3-1.3431-3-3 1.3431-3 3-3c1.6566.0006 2.9994 1.3434 3 3"/><path fill="none" stroke="#000" stroke-linecap="round" stroke-linejoin="round" stroke-width="2" d="M25.313 17l7 6m15-6l-7 6m15.058 12H39.254m21.059 0H55.43m1.0702 6h4.8125s4 0 4-3c.0345-1.6224-1.2527-2.9655-2.8751-3a2.88923 2.88923 0 0 0-.1249 0h-2M36.313 41H56.5m-20.1873 4s4-3 8 0a6.42165 6.42165 0 0 0 2.6154 1.2638m-11-1.2638s-4-3-8 0a6.42165 6.42165 0 0 1-2.6154 1.2638"/></g></svg>