<svg xmlns="http://www.w3.org/2000/svg" role="img" viewBox="2.72 9.72 66.43 47.43"><title>1F9C0.svg</title><path fill="#fcea2b" d="M57 11.9961c5.5225 0 10 4.4775 10 10v31c0 1.1045-.8955 2-2 2H7c-1.1045 0-2-.8955-2-2v-31c0-1.1045.8955-2 2-2l13-2.0801 37-5.9199z"/><circle cx="16" cy="43.996" r="5" fill="#f1b31c"/><circle cx="56" cy="29.996" r="5" fill="#f1b31c"/><circle cx="49" cy="44.996" r="3" fill="#f1b31c"/><circle cx="40" cy="31.996" r="3" fill="#f1b31c"/><circle cx="32" cy="40.996" r="3" fill="#f1b31c"/><circle cx="21" cy="28.996" r="3" fill="#f1b31c"/><g fill="none" stroke="#000" stroke-linecap="round" stroke-linejoin="round" stroke-miterlimit="10" stroke-width="2"><path d="M67 21.9961v31c0 1.1045-.8955 2-2 2H7c-1.1045 0-2-.8955-2-2v-31c0-1.1045.8955-2 2-2l50-8m0 0c5.5225 0 10 4.4775 10 10"/><circle cx="16" cy="43.996" r="5"/><circle cx="56" cy="29.996" r="5"/><circle cx="49" cy="44.996" r="3"/><circle cx="40" cy="31.996" r="3"/><circle cx="32" cy="40.996" r="3"/><circle cx="21" cy="28.996" r="3"/></g></svg>