<svg xmlns="http://www.w3.org/2000/svg" role="img" viewBox="5.84 5.84 60.19 60.19"><title>E065.svg</title><circle cx="36" cy="36" r="28" fill="#fcea2b"/><path fill="#fcea2b" fill-rule="evenodd" d="M34.31 27.16l.008.0467c2.003-.3473 4.135-.0214 6.033 1.074 4.305 2.485 5.78 7.99 3.294 12.29l-13.26 22.97c11.44 2.278 23.56-2.803 29.72-13.47 4.209-7.291 4.767-15.69 2.241-23.07h-26.34c-.5771 0-1.142.0543-1.688.1581z" clip-rule="evenodd"/><path fill="#f1b31c" fill-rule="evenodd" d="M27 43.5L8.2 32.62C9.87 18.75 21.68 8 36 8c12.32 0 22.77 7.951 26.52 19H36c-4.971 0-9 4.029-9 9 0 2.192.7836 4.201 2.086 5.762L27 43.5z" clip-rule="evenodd"/><circle cx="36" cy="36" r="9" fill="#f1b31c"/><g fill="none" stroke="#000" stroke-width="2"><circle cx="36" cy="36" r="10"/><path stroke-linecap="round" d="M44.66 41l-11.5 19.92M11.08 33.16L31 44.66M36 26h23"/><circle cx="36" cy="36" r="28"/></g></svg>