<svg xmlns="http://www.w3.org/2000/svg" role="img" viewBox="8.76 3.51 55.86 64.61"><title>E2D4.svg</title><path fill="#fff" d="M22.87 30.1262c-.01 0-.02-.02-.02-.02a4.4115 4.4115 0 0 1-.52-.36c-.01-.01-.02-.01-.03-.02a6.09761 6.09761 0 0 1-1.83-2.6c-1.0696-2.9444.3071-6.216 3.16-7.51.3625-2.1663 2.4124-3.6285 4.5787-3.266a3.97705 3.97705 0 0 1 2.1813 1.136 5.01505 5.01505 0 0 1 2.72-2.41 4.92346 4.92346 0 0 1 3.28-.02c-.4703-2.707 1.343-5.2827 4.05-5.753a4.97524 4.97524 0 0 1 3.25.543 7.94242 7.94242 0 0 1 2.83-1.77 7.84756 7.84756 0 0 1 2.67-.48 5.88004 5.88004 0 0 1 2.03-1.23c3.112-1.1322 6.553.4698 7.69 3.58.06.17.11.34.16.52.1902.0313.3775.0781.56.14 1.1745.3682 2.11 1.263 2.53 2.42.7501 2.0737-.3187 4.3634-2.39 5.12a3.94233 3.94233 0 0 1-2.91-.08c-1.3271 4.0903-5.656 6.3941-9.79 5.21-.4464 2.7027-2.9992 4.5319-5.7019 4.0855a4.96004 4.96004 0 0 1-3.0081-1.7255c-1.2719 2.4148-4.2605 3.3412-6.6752 2.0694a4.95253 4.95253 0 0 1-.1448-.0794 5.91375 5.91375 0 0 1-2.06 2.41"/><path fill="#fff" d="M22.87 30.1262c-.01 0-.02-.02-.02-.02a4.4115 4.4115 0 0 1-.52-.36c-.01-.01-.02-.01-.03-.02a6.09761 6.09761 0 0 1-1.83-2.6c-1.0696-2.9444.3071-6.216 3.16-7.51.3625-2.1663 2.4124-3.6285 4.5787-3.266a3.97705 3.97705 0 0 1 2.1813 1.136 5.01505 5.01505 0 0 1 2.72-2.41 4.92346 4.92346 0 0 1 3.28-.02c-.4703-2.707 1.343-5.2827 4.05-5.753a4.97524 4.97524 0 0 1 3.25.543 7.94242 7.94242 0 0 1 2.83-1.77 7.84756 7.84756 0 0 1 2.67-.48 5.88004 5.88004 0 0 1 2.03-1.23c3.112-1.1322 6.553.4698 7.69 3.58.06.17.11.34.16.52.1902.0313.3775.0781.56.14 1.1745.3682 2.11 1.263 2.53 2.42.7501 2.0737-.3187 4.3634-2.39 5.12a3.94233 3.94233 0 0 1-2.91-.08c-1.3271 4.0903-5.656 6.3941-9.79 5.21-.4464 2.7027-2.9992 4.5319-5.7019 4.0855a4.96004 4.96004 0 0 1-3.0081-1.7255c-1.2719 2.4148-4.2605 3.3412-6.6752 2.0694a4.95253 4.95253 0 0 1-.1448-.0794 5.91375 5.91375 0 0 1-2.06 2.41M51 27h6v39h-6z"/><path fill="#9b9b9a" d="M47 47.2622c-3.0158-.7946-6.2176.2485-8.1866 2.667-1.1117-7.2961-1.1712-15.1315.3836-19.9292H33v36h14V47.2622z"/><path fill="#d0cfce" d="M33 66V30H16c3 9.2571 0 29.8286-5 36h22z"/><path fill="#3f3f3f" d="M47 47.2622V66h6V55c-.0023-3.6454-2.47-6.8278-6-7.7378z"/><path fill="#ea5a47" d="M51 31h6v4h-6z"/><g fill="none" stroke="#000" stroke-linecap="round" stroke-linejoin="round" stroke-width="2"><path d="M22.87 30c-.01 0-.02-.02-.02-.02a4.4115 4.4115 0 0 1-.52-.36c-.01-.01-.02-.01-.03-.02a6.09761 6.09761 0 0 1-1.83-2.6c-1.0696-2.9444.3071-6.216 3.16-7.51.3625-2.1663 2.4124-3.6285 4.5787-3.266A3.97705 3.97705 0 0 1 30.39 17.36a5.01505 5.01505 0 0 1 2.72-2.41 4.92346 4.92346 0 0 1 3.28-.02c-.4703-2.707 1.343-5.2827 4.05-5.753a4.97524 4.97524 0 0 1 3.25.543 7.94242 7.94242 0 0 1 2.83-1.77 7.84756 7.84756 0 0 1 2.67-.48 5.88004 5.88004 0 0 1 2.03-1.23c3.112-1.1322 6.553.4698 7.69 3.58.06.17.11.34.16.52.1902.0313.3775.0781.56.14 1.1745.3682 2.11 1.263 2.53 2.42.7501 2.0737-.3187 4.3634-2.39 5.12a3.94233 3.94233 0 0 1-2.91-.08c-1.3271 4.0903-5.656 6.3941-9.79 5.21-.4464 2.7027-2.9992 4.5319-5.7019 4.0855A4.96004 4.96004 0 0 1 38.36 25.51c-1.2719 2.4148-4.2605 3.3412-6.6752 2.0694A4.95253 4.95253 0 0 1 31.54 27.5a5.91375 5.91375 0 0 1-2.06 2.41M44.1969 66c-5-6.1714-8-26.7429-5-36H16c3 9.2571 0 29.8286-5 36h33.1969zM53 66h4V27h-6v22.721"/><path d="M44.197 66H53V55c.0004-4.4179-3.5807-7.9996-7.9986-8-2.3974-.0002-4.6685 1.0749-6.188 2.9292"/></g></svg>