<svg xmlns="http://www.w3.org/2000/svg" role="img" viewBox="2.72 14.72 66.43 42.43"><title>1F35E.svg</title><path fill="#f1b31c" d="M33 17h29c2.7617 0 5 2.2393 5 5 0 1.6357-.7969 3.0752-2.0117 3.9873-.1074.0625-.207.1348-.2988.2168-.42.3662-.6895.8984-.6895 1.499V53c0 1.1045-.8955 2-2 2H33c1.1045 0 2-.8955 2-2V27.7031c0-.6006.2695-1.1328.6895-1.499.0918-.082.1914-.1543.2988-.2168C37.2031 25.0752 38 23.6357 38 22c0-2.7607-2.2383-5-5-5z"/><path fill="#fcea2b" d="M33 17c2.7617 0 5 2.2393 5 5 0 1.6357-.7969 3.0752-2.0117 3.9873-.1074.0625-.207.1348-.2988.2168-.42.3662-.6895.8984-.6895 1.499V53c0 1.1045-.8955 2-2 2H10c-1.1045 0-2-.8955-2-2V27.7031c0-.6006-.2695-1.1328-.6895-1.499-.0917-.082-.1914-.1543-.2988-.2168C5.7969 25.0752 5 23.6357 5 22c0-2.7607 2.2383-5 5-5h23z"/><g fill="none" stroke="#000" stroke-linecap="round" stroke-linejoin="round" stroke-miterlimit="10" stroke-width="2"><path d="M33 17c2.7617 0 5 2.2393 5 5 0 1.6357-.7969 3.0752-2.0117 3.9873-.1074.0625-.207.1348-.2988.2168-.42.3662-.6895.8984-.6895 1.499V53c0 1.1045-.8955 2-2 2"/><path d="M10 17h52c2.7617 0 5 2.2393 5 5 0 1.6357-.7969 3.0752-2.0117 3.9873-.1074.0625-.207.1348-.2988.2168-.42.3662-.6895.8984-.6895 1.499V53c0 1.1045-.8955 2-2 2H10c-1.1045 0-2-.8955-2-2V27.7031c0-.6006-.2695-1.1328-.6895-1.499-.0917-.082-.1914-.1543-.2988-.2168C5.7969 25.0752 5 23.6357 5 22c0-2.7607 2.2383-5 5-5z"/></g></svg>