<svg xmlns="http://www.w3.org/2000/svg" role="img" viewBox="2.40 17.53 70.07 31.95"><title>1F453.svg</title><g stroke-miterlimit="10"><path fill="#9B9B9A" stroke="#9B9B9A" stroke-linejoin="round" stroke-width="2" d="M37.5891 34.151c1.0309-.1557 2.3936-.355 3.1719 3.5553.5088 2.5561 2.4518 2.3815 3.5921 4.0059 2.3054 3.2843 7.0505 5.5111 11.3652 5.5111 6.9036 0 12.5-5.5964 12.5-12.5l.105-4.9141 1.895.0501V25.732S51.2865 9.5532 40.7379 31.0532H34.314C23.7654 9.5532 4.8336 25.732 4.8336 25.732v4.1273l1.895-.0501.105 4.9141c0 6.9036 5.5964 12.5 12.5 12.5 4.3147 0 9.1189-2.1861 11.3652-5.5111"/><path fill="#9B9B9A" stroke="#9B9B9A" stroke-width="2" d="M37.5891 34.151c1.0309-.1557 2.3936-.355 3.1719 3.5553.5088 2.5561 2.4518 2.3815 3.5921 4.0059 2.3054 3.2843 7.0505 5.5111 11.3652 5.5111M37.7915 33.8289c-6.7199-.9921-2.7978 3.4384-3.0884 3.9105-1.3989 2.2732-2.5354 2.0263-3.6757 3.6507-2.3054 3.2843-7.0505 5.5111-11.3652 5.5111"/><circle cx="19.766" cy="33.558" r="9.58" fill="#D0CFCE" stroke-linecap="round" stroke-linejoin="round" stroke-width="1.846"/><circle cx="55.286" cy="33.558" r="9.58" fill="#D0CFCE" stroke-linecap="round" stroke-linejoin="round" stroke-width="1.846"/></g><g fill="none" stroke="#000" stroke-linecap="round" stroke-linejoin="round" stroke-miterlimit="10"><path stroke-width="2" d="M30.6989 41.7122c-2.2463 3.325-7.0505 5.5111-11.3652 5.5111-6.9036 0-12.5-5.5964-12.5-12.5l-.105-4.9141-1.895.0501V25.732s18.9318-16.1788 29.4804 5.3212h6.4239c10.5486-21.5 29.4804-5.3212 29.4804-5.3212v4.1273l-1.895-.0501-.105 4.9141c0 6.9036-5.5964 12.5-12.5 12.5-4.3147 0-9.1189-2.1861-11.3652-5.5111"/><path stroke-width="2" d="M34.761 37.7063c0-1.6569 1.3431-3 3-3s3 1.3431 3 3"/><circle cx="19.766" cy="33.558" r="9.58" stroke-width="1.846"/><circle cx="55.286" cy="33.558" r="9.58" stroke-width="1.846"/></g></svg>