<svg xmlns="http://www.w3.org/2000/svg" role="img" viewBox="2.72 15.59 66.56 54.56"><title>26F4.svg</title><path fill="#92d3f5" d="M39.5247 59.5143a16.3123 16.3123 0 0 0 3.7228-.2481 1.5488 1.5488 0 0 0 1.5-1.5 1.5292 1.5292 0 0 0-1.5-1.5 7.3831 7.3831 0 0 0-4.1107.9318c-1.6938.9277-.1817 3.5192 1.5142 2.59a4.5086 4.5086 0 0 1 2.5965-.5222v-3a16.3123 16.3123 0 0 1-3.7228.2481 1.51 1.51 0 0 0-1.5 1.5 1.5335 1.5335 0 0 0 1.5 1.5z"/><path fill="#92d3f5" stroke="#92d3f5" stroke-linecap="round" stroke-linejoin="round" stroke-width="2" d="M66.0159 55.0026s-8.541 2.02-11.44 1.9974c-2.6647-.02-7.8234-1.918-10.4871-1.9974S36.2642 56.9 33.6012 57c-2.71.1016-7.9688-1.9076-10.68-1.9974C20.3055 54.916 15.2444 56.9883 12.627 57 10.6616 57.0088 5 55.0026 5 55.0026V68l62-.5V55z"/><path fill="#3f3f3f" stroke="#3f3f3f" stroke-miterlimit="10" d="M67.5 43.5v24l-22.187-.1858s-3.7584-19.794-11.813-22.814c-8-3 20 2 34-1z"/><path fill="none" stroke="#d22f27" stroke-miterlimit="10" stroke-width="3" d="M33 42h35"/><path fill="#3f3f3f" stroke="#3f3f3f" stroke-miterlimit="10" stroke-width="2" d="M53.5 19.5h3v5h-3z"/><path fill="#3f3f3f" stroke="#3f3f3f" stroke-miterlimit="10" d="M62 19h3v5h-3z"/><g fill="none" stroke="#000" stroke-linecap="round" stroke-linejoin="round"><path stroke-width="2.152" d="M64.8 18v6.6h-3.7V18z"/><path stroke-width="2" d="M56.8 18.9v5.7h-3.7v-5.7z"/><path stroke-width="2.904" d="M47 36.241h18.4"/><path stroke-width="2" d="M32 44.4s10.4 6.8 12.7 22.2a1.0767 1.0767 0 0 0 1 .8H67m0-26.8H33l-1 3.3h35m-1.3972-3.3l-18.4823-.0919a1.4694 1.4694 0 0 1-.9642-.2726l-7.1359-7.33 27.9993.1393"/><path stroke-width="3" d="M46 28.662h18.4"/><path stroke-width="2" d="M67 33H42v-8h25"/><path stroke-miterlimit="10" stroke-width="2" d="M5 55.003c1.5483.386 4.9902.94992 6.9719.94992s5.8272-2.0724 10.331-2.2042 7.0209 2.1243 10.207 2.4509c3.1857.32664 5.6912-1.2372 7.6966-1.2372"/></g></svg>