<svg xmlns="http://www.w3.org/2000/svg" role="img" viewBox="6.49 6.49 58.89 58.77"><title>E1CD.svg</title><g fill="#9B9B9A"><path d="M36.0216 12.9316c-12.6956 0-22.9874 10.2918-22.9874 22.9874S23.326 58.9065 36.0216 58.9065 59.009 48.6147 59.009 35.9191 48.7172 12.9316 36.0216 12.9316zm0 37.9516c-8.2645 0-14.9642-6.6997-14.9642-14.9642s6.6997-14.9642 14.9642-14.9642 14.9642 6.6997 14.9642 14.9642-6.6997 14.9642-14.9642 14.9642z"/><path d="M31.529 7.661h8.982v11.19h-8.982zm0 45.408h8.982v11.19h-8.982z"/><path d="M18.869 31.411v8.982H7.679v-8.982z"/><path d="M64.309 31.411v8.982h-11.19v-8.982z"/></g><g fill="none" stroke="#000" stroke-linecap="round" stroke-linejoin="round" stroke-miterlimit="10" stroke-width="2"><path d="M58.8744 31.433c-1.784-9.0631-9.3335-16.482-18.3729-18.3317m.0001 45.715c9.1275-1.7899 16.5775-9.2979 18.3729-18.4234m-45.7544 0c1.7832 9.1158 9.3162 16.611 18.4216 18.4234m0-45.7151c-9.07 1.8049-16.6032 9.2666-18.4216 18.3317"/><circle cx="36.022" cy="35.919" r="15"/><path d="M31.542 13.101V8.66m8.96 4.441V8.66m-8.96 54.598v-4.442m8.96 4.442v-4.442m18.372-27.383h4.442m-4.442 8.96h4.442m-54.637-8.96h4.441m-4.441 8.96h4.441"/></g></svg>