<svg xmlns="http://www.w3.org/2000/svg" role="img" viewBox="-0.41 14.72 73.06 38.19"><title>1F450-1F3FE.svg</title><path d="M6.523 24.2978c-.8267-1.1121-2.3985-1.3435-3.5107-.5167s-1.3435 2.3985-.5167 3.5107c.1325.1783.2881.3382.4628.4755l9.417 9.6754.8938.8849-5.153-5.3427c-.8267-1.1121-2.3985-1.3435-3.5107-.5167-1.1121.8268-1.3435 2.3985-.5167 3.5107.1325.1783.2881.3382.4628.4755l6.4432 6.62 5.0941 5.0412c4.3891 3.9622 10.7435 2.9533 14.7048-1.4348 2.2744-2.5411 3.5384-5.8278 3.5528-9.238-.0868-3.019-.7282-10.8638-.7282-10.8638-.3494-1.8195-2.5956-2.9255-2.7502-1.9455l-2.6253 7.2992-2.7327-2.6936 2.7327 2.6936-2.7327-2.6936-10.9596-10.9994c-.8267-1.1121-2.3985-1.3435-3.5107-.5167-1.1121.8268-1.3435 2.3985-.5167 3.5107.1325.1783.2881.3382.4628.4755l3.4694 3.5646 4.7716 4.9416L8.7396 19.376c-.8267-1.1121-2.3985-1.3435-3.5107-.5167-1.1121.8268-1.3435 2.3985-.5167 3.5107.1325.1783.2881.3382.4628.4755l9.5524 9.7181m51.0963-8.2658c.8267-1.1121 2.3985-1.3435 3.5107-.5167s1.3435 2.3985.5167 3.5107a2.50539 2.50539 0 0 1-.4628.4755l-9.417 9.6754-.8938.8849 5.153-5.3427c.8268-1.1121 2.3985-1.3435 3.5107-.5167 1.1121.8268 1.3435 2.3985.5167 3.5107a2.50539 2.50539 0 0 1-.4628.4755l-6.4432 6.62-5.0941 5.0412c-4.3891 3.9622-10.7435 2.9533-14.7048-1.4348-2.2744-2.5411-3.5384-5.8278-3.5528-9.238.0868-3.019.7283-10.8638.7283-10.8638.3494-1.8195 2.5956-2.9255 2.7502-1.9455l2.6253 7.2992 2.7327-2.6936-2.7327 2.6936 2.7327-2.6936 10.9595-10.9992c.8267-1.1121 2.3985-1.3435 3.5107-.5167 1.1121.8268 1.3435 2.3985.5167 3.5107a2.50539 2.50539 0 0 1-.4628.4755l-3.4694 3.5646-4.7716 4.9416L63.6071 19.376c.8267-1.1121 2.3985-1.3435 3.5107-.5167 1.1121.8268 1.3435 2.3985.5167 3.5107a2.50539 2.50539 0 0 1-.4628.4755l-9.5524 9.7181" fill="#a57939" stroke="#a57939"/><path d="M6.523 24.2978c-.8267-1.1121-2.3985-1.3435-3.5107-.5167s-1.3435 2.3985-.5167 3.5107c.1325.1783.2881.3382.4628.4755l9.417 9.6754.8938.8849-5.153-5.3427c-.8267-1.1121-2.3985-1.3435-3.5107-.5167-1.1121.8268-1.3435 2.3985-.5167 3.5107.1325.1783.2881.3382.4628.4755l6.4432 6.62 5.0941 5.0412c4.3891 3.9622 10.7435 2.9533 14.7048-1.4348 2.2744-2.5411 3.5384-5.8278 3.5528-9.238-.0868-3.019-.7282-10.8638-.7282-10.8638-.3494-1.8195-2.5956-2.9255-2.7502-1.9455l-2.6253 7.2992-2.7327-2.6936 2.7327 2.6936-2.7327-2.6936-10.9596-10.9994c-.8267-1.1121-2.3985-1.3435-3.5107-.5167-1.1121.8268-1.3435 2.3985-.5167 3.5107.1325.1783.2881.3382.4628.4755l3.4694 3.5646 4.7716 4.9416L8.7396 19.376c-.8267-1.1121-2.3985-1.3435-3.5107-.5167-1.1121.8268-1.3435 2.3985-.5167 3.5107.1325.1783.2881.3382.4628.4755l9.5524 9.7181m51.0963-8.2658c.8267-1.1121 2.3985-1.3435 3.5107-.5167s1.3435 2.3985.5167 3.5107a2.50539 2.50539 0 0 1-.4628.4755l-9.417 9.6754-.8938.8849 5.153-5.3427c.8268-1.1121 2.3985-1.3435 3.5107-.5167 1.1121.8268 1.3435 2.3985.5167 3.5107a2.50539 2.50539 0 0 1-.4628.4755l-6.4432 6.62-5.0941 5.0412c-4.3891 3.9622-10.7435 2.9533-14.7048-1.4348-2.2744-2.5411-3.5384-5.8278-3.5528-9.238.0868-3.019.7283-10.8638.7283-10.8638.3494-1.8195 2.5956-2.9255 2.7502-1.9455l2.6253 7.2992 2.7327-2.6936-2.7327 2.6936 2.7327-2.6936 10.9595-10.9992c.8267-1.1121 2.3985-1.3435 3.5107-.5167 1.1121.8268 1.3435 2.3985.5167 3.5107a2.50539 2.50539 0 0 1-.4628.4755l-3.4694 3.5646-4.7716 4.9416L63.6071 19.376c.8267-1.1121 2.3985-1.3435 3.5107-.5167 1.1121.8268 1.3435 2.3985.5167 3.5107a2.50539 2.50539 0 0 1-.4628.4755l-9.5524 9.7181" fill="none" stroke="#000" stroke-linecap="round" stroke-linejoin="round" stroke-width="2"/></svg>