<svg xmlns="http://www.w3.org/2000/svg" role="img" viewBox="8.17 8.67 55.90 54.40"><title>1F510.svg</title><path fill="#D0CFCE" stroke="#D0CFCE" stroke-linecap="round" stroke-linejoin="round" stroke-miterlimit="10" stroke-width="2" d="M14.1961 35.6519c-.2003-7.666 5.5788-16.3843 12.4516-16.6004 6.9307-.218 14.4147 10.2522 12.4099 17.1736H35.875s.7894-7.1326-2.2339-10.144c-.5425-1.5365-4.5505-4.3006-7.4804-3.869-1.9766.2912-6.3916 2.8073-7.3105 4.5813-1.0274 1.9835-1.1693 8.8584-1.1693 8.8584h-3.4848z"/><path fill="#FCEA2B" d="M41.698 36.361h1.63v23.372H10.283V36.361h1.63z"/><path fill="#F1B31C" d="M42.941 36.532L26.619 59.578h16.79z"/><path fill="#F4AA41" d="M55.9395 32.5829c3.5838-1.818 6.0691-5.786 6.0691-10.3885 0-6.3218-4.689-11.4467-10.4731-11.4467s-10.4731 5.1249-10.4731 11.4467c0 5.1112 3.1002 10.0458 7.3573 10.6187"/><path fill="#F4AA41" stroke="#F4AA41" stroke-linecap="round" stroke-linejoin="round" stroke-miterlimit="10" stroke-width="2" d="M56.027 32.349l-.011 3.077.156 20.725-4.502 4.501-3.66-4.66 2.883-2.883-3.157-3.157 2.641-3.642-3.14-3.14.014-2.976 2.709-2.71-1.241-1.241v-3.894"/><path fill="#E27022" d="M53.544 57.09l1.2-1.202-.219-19.827-1.214.013z"/><circle cx="51.535" cy="18.109" r="3.521" fill="#E27022" transform="rotate(-45.001 51.535 18.11)"/><g fill="none" stroke="#000" stroke-linecap="round" stroke-linejoin="round" stroke-miterlimit="10" stroke-width="2"><path d="M39.4673 33.4202c.5811-8.0338-5.889-14.5868-12.8196-14.3688-6.8728.2162-12.4516 7.0826-12.4516 14.3688M41.698 36.321h1.63v23.371H10.283V36.321h1.63z"/><path d="M17.8248 33.4202c0-5.5092 3.979-10.701 8.8809-10.8645 4.9432-.1648 9.5578 4.79 9.1434 10.8645M56.025 36.026l.257 20.446-4.561 4.56-4.766-4.765 2.921-2.921-3.228-3.229 3.689-3.689-3.211-3.211v-3.03l2.745-2.745-1.269-1.269"/><circle cx="51.535" cy="18.109" r="3.521" transform="rotate(-45.001 51.535 18.11)"/><path d="M56.0171 31.6362c3.5704-1.7692 6.0267-5.5901 5.9932-10-.0461-6.0573-4.7723-10.9321-10.5563-10.8882-5.784.044-10.4355 4.9901-10.3894 11.0475.0372 4.8974 3.1337 9.0217 7.3751 10.3985"/></g></svg>