<svg xmlns="http://www.w3.org/2000/svg" role="img" viewBox="15.52 11.02 39.33 50.83"><title>1F4BA.svg</title><path fill="#D0CFCE" d="M49.2446 52.5931H29.9128c-.5523 0-1 .4477-1 1V57.5c0 1.3807 1.1193 2.5 2.5 2.5h17.8318c.5523 0 1-.4477 1-1v-5.4069c0-.5523-.4477-1-1-1z"/><path fill="#9B9B9A" d="M50.5779 46.6676H28.5796c-.5523 0-1 .4477-1 1v3.4069c0 1.6569 1.3431 3 3 3h17.9983c1.6568 0 3-1.3431 3-3v-3.4069c0-.5523-.4478-1-1-1z"/><path fill="#61B2E4" d="M33.917 43.1837l-9.2373-29.4265c-.1654-.5269-.7266-.82-1.2535-.6546l-5.1587 1.6194c-.527.1654-.82.7266-.6546 1.2536l9.2372 29.4264c.1654.527.7267.82 1.2536.6546l5.1587-1.6193c.5269-.1655.82-.7267.6546-1.2536z"/><path fill="#61B2E4" d="M52.91 43.22v3.93c0 .55-.45 1-1 1H27.25c-.56 0-1-.45-1-1v-3.66l-8.64-27.51c-.16-.53.13-1.09.66-1.26l5.16-1.62c.52-.16 1.08.13 1.25.66l8.94 28.46h18.29c.55 0 1 .45 1 1z"/><path fill="#92D3F5" d="M29.4966 24.3829l-3.3355-10.6257c-.1654-.5269-.7266-.82-1.2536-.6546l-1.0688.3355c-.527.1654-.82.7267-.6546 1.2536l3.3355 10.6257c.1654.5269.7266.82 1.2536.6546l1.0688-.3355c.527-.1654.82-.7267.6546-1.2536z"/><path fill="#9B9B9A" d="M46.0288 33.3353h-17.072c-.5284 0-.9568.4283-.9568.9567v2.5306c0 .5284.4284.9568.9568.9568h17.072c.5284 0 .9568-.4284.9568-.9568V34.292c0-.5284-.4284-.9567-.9568-.9567z"/><g fill="none" stroke="#000" stroke-linecap="round" stroke-linejoin="round" stroke-miterlimit="10"><path stroke-width="2" d="M50.24 53.5698v5.43c0 .55-.44 1-1 1H31.41c-1.3799 0-2.5-1.12-2.5-2.5v-3.91-.02c.48.31 1.05.5 1.67.5h18c.61 0 1.18-.19 1.66-.5z"/><path stroke-width="2" d="M51.58 48.1498v2.92c0 1.05-.54 1.96-1.34 2.5-.48.31-1.05.5-1.66.5h-18c-.62 0-1.19-.19-1.67-.5-.8-.54-1.33-1.46-1.33-2.5v-2.92h24zm-22.74-22.51l-.39.12-.68.21c-.52.17-1.09-.13-1.25-.65l-3.34-10.63c-.16-.52.13-1.09.66-1.25l.49-.16h.01l.5699-.18c.52-.16 1.09.1299 1.25.66l3.34 10.62c.1601.53-.1299 1.09-.6599 1.26z"/><path stroke-width="2" d="M52.91 43.2198v3.93c0 .55-.45 1-1 1H27.25c-.56 0-1-.45-1-1v-3.66l-8.64-27.51c-.16-.53.13-1.09.66-1.2599l5.16-1.62c.15-.05.3-.05.45-.03.06.01.11.03.16.05.11.03.2.09.29.16l-.49.16c-.53.16-.82.73-.66 1.25l3.34 10.63c.16.52.73.82 1.25.65l.68-.21 2.38 7.58h-1.87c-.53 0-.96.42-.96.95v2.53c0 .53.43.96.96.96h3.27l1.39 4.44h18.29c.55-.0001 1 .4498 1 .9999z"/><path stroke-width="1.914" d="M46.99 34.2897v2.53c0 .53-.43.96-.96.96H28.96c-.53 0-.96-.43-.96-.96v-2.53c0-.53.43-.95.96-.95h17.07c.53.0001.96.4201.96.95z"/></g></svg>