<svg xmlns="http://www.w3.org/2000/svg" role="img" viewBox="11.04 11.04 49.92 49.80"><title>1F605.svg</title><circle cx="36" cy="36" r="24" fill="#fcea2b"/><path fill="#92d3f5" d="M54.25 28.1758a4.2422 4.2422 0 0 1-4.2442-4.2427c0-4.2026 4.211-8.4619 4.253-8.5044.1543.1729 4.2343 4.3228 4.2343 8.5039a4.241 4.241 0 0 1-4.2431 4.2432z"/><path fill="#fff" d="M50.595 41.64a11.5554 11.5554 0 0 1-.87 4.49c-12.49 3.03-25.43.34-27.49-.13a11.4347 11.4347 0 0 1-.83-4.36h.11s14.8 3.59 28.89.07z"/><path fill="#ea5a47" d="M49.7251 46.13c-1.79 4.27-6.35 7.23-13.69 7.23-7.41 0-12.03-3.03-13.8-7.36 2.06.47 14.9999 3.16 27.49.13z"/><g fill="none" stroke="#000" stroke-width="2"><path stroke-linejoin="round" d="M54.25 28.1758a4.2422 4.2422 0 0 1-4.2442-4.2427c0-4.2026 4.211-8.4619 4.253-8.5044.1543.1729 4.2343 4.3228 4.2343 8.5039a4.241 4.241 0 0 1-4.2431 4.2432z"/><path stroke-linecap="round" stroke-linejoin="round" d="M48.0945 16.433a22.9582 22.9582 0 1 0 10.3993 14.7455M50.595 41.64a11.5554 11.5554 0 0 1-.87 4.49c-12.49 3.03-25.43.34-27.49-.13a11.4347 11.4347 0 0 1-.83-4.36h.11s14.8 3.59 28.89.07z"/><path stroke-linecap="round" stroke-linejoin="round" d="M49.7251 46.13c-1.79 4.27-6.35 7.23-13.69 7.23-7.41 0-12.03-3.03-13.8-7.36 2.06.47 14.9999 3.16 27.49.13z"/><path stroke-linecap="round" stroke-miterlimit="10" d="M31.6941 33.4036a4.7262 4.7262 0 0 0-8.6382 0m25.8882 0a4.7262 4.7262 0 0 0-8.6382 0"/></g></svg>