<svg xmlns="http://www.w3.org/2000/svg" role="img" viewBox="2.72 14.72 66.43 42.43"><title>1F5FA.svg</title><g stroke-linecap="round" stroke-linejoin="round" stroke-miterlimit="10" stroke-width="2"><path fill="#92D3F5" d="M5 17h62v38H5z"/><path fill="#B1CC33" d="M28.5 30.5c-.0417.5833-1.667 2.5858-2.0833 2.875-.8682.603-1.2071.3266-1.9635.9219-.4794.3773-1.0785.7807-1.8125.9219-.4063.0781-.2266-.3058-1.1407.2812-.5092.327-.0571.6789 0 1 .0768.4317.1342.1715 1 1 .452.4326.4924.8181 1 1 .3173.1137.5479.0514 1 0 .9479-.1077.5264.8266 1 1 1.0892.3987.9965 1.8323 2 2 .4053.0677.5508-.1443 1 0 .4112.1322.8831.5008 1 1 .1539.6575-.3718 1.2692-1 2-.5081.5911-.6024.5-1 1-.5312.668-.389.8636-1 2-.6184 1.1502-.9584 1.3113-1 2-.0174.288-.0008.9691 0 1 .0175.6949.0562.7867 0 1-.1307.497-1.14.9323-1.5208.875-.7496-.1127-.7361-2.703-.7708-3.1042-.0704-.8101.2616-1.263.2916-1.7708.1037-1.7568.397-2.3016 0-3-.2533-.4456-.3871-.2493-1-1-.3461-.4239-.8704-1.0816-1-2-.0817-.5785.089-.582 0-1-.1652-.7754-.8085-1.0257-2-2-.7351-.6011-1.3871-1.1342-2-2-.3185-.4499-.7692-1.0865-1-2-.3038-1.2024.1487-1.3986 0-3-.0335-.3607-.1795-1.676-1-3-.3483-.5621-.5937-.9457-1-1-.7745-.1035-1.1901 1.1152-2 1-.484-.0689-.8581-.5785-1-1-.0379-.1126-.1763-.5437 0-1 .0977-.2529.3985-.5019 1-1 .6138-.5083.9223-.7672 1-1 .1463-.4386-.1174-.595 0-1 .2008-.693 1.2649-1.2436 2-1 .4223.1399.3312.4078 1 1 .3247.2875 1.0264.8266 2 1 .4917.0876.7375.1313 1 0 .6467-.3236.3375-1.1808 1-2 .6094-.7535 1.5995-.929 2-1 .9901-.1755 1.1254.2006 2 0 .9399-.2156.9128-.6796 2-1 .4761-.1403 1.3149-.3876 2 0 .6168.3489.535.8878 1 1 .649.1567.967-.855 2-1 .7887-.1107 1.7269.3212 2 1 .1356.3369.0721.6473 0 1-.2177 1.0653-.7955 1.1298-1 2-.2223.9456.2539 1.1749 0 2-.1667.5417-.5.375-1.0312.8125-.2432.2002-.3021.5208-.9688 1.1875-.3333.3333-.6794.6544-1 1-.7307.7876-.8473.8473-1 1m6 5c-.2327-.2965-1.2282-1.826-1-2 .2819-.2149.7809.2076 1 0 .1816-.1721-.1166-.5043 0-1 .1124-.4781.5564-.8775 1-1 .528-.1458.897.1447 1 0 .1982-.2786-1.2375-1.2621-1-2 .1473-.4577.8035-.4017 1-1 .1321-.402-.1271-.5401 0-1 .1285-.4649.5373-.8448 1-1 .1315-.0441.5717-.1918 1 0 .5418.2426.4575.7571 1 1 .3049.1365.6951.1365 1 0 .5414-.2424.4828-.7669 1-1 .3427-.1544.5131.0106 1 0 1.1173-.0243 1.9392-.9311 2-1 .5035-.571.2483-.7995 1-2 .4014-.6411.6646-.8799 1-1 .0953-.0341.5557-.1989 1 0 .5393.2415.4849.7637 1 1 .2668.1224.4404.0553 1 0 .0712-.007.7141-.0047 2 0 1.9053.0069 1.8204.0439 2 0 1.0108-.247.9913-.7535 2-1 .6976-.1705.6827.0772 2 0 1.1978-.0702 1.7747-.3081 2 0 .0859.1175.021.1781 0 1-.0085.3348.2708.6502.276 1.0417.0115.8917.0431.8352-.0051.9583-.2075.5292-.3616.6588-.6042 1.1875-.0905.1972-.1193.2741-.0833 1.0208.0529 1.097.3557.8476.4167 1.7917.0475.7382.1251.8865 0 1-.3363.3052-2.1732-.2637-2.5833-1.125-.4311-.9051-.1221-1.6729-.4167-1.875-.4045-.2775-2.2332 1.1258-2.5 2.0156-.0528.1761-.2842.4526.5781 1.2344.8716.7902 1.2485 1.0843 1.3281 1.1562.4844.4375 1.0081 1.028.5938 1.5938-.5568.7599-1.6156.316-2 1-.3447.6132.3857 1.1847 0 2-.1112.235-.4075.49-1 1-.6594.5675-.9046.6509-1 1-.1277.4673.1847.7829 0 1-.2369.2786-.9667.0125-1 0-1.2899-.4836-1.342-1.9702-2-2-.7889-.0357-1.2216 2.0781-2 2-.1748-.0175-.4498-.345-1-1-.5292-.6301-.6418-.8616-1-1-.4581-.1771-.8913-.0369-1 0-.1805.0613-.5032.2216-1 1-.7071 1.1079-.4384 1.3954-1 2-.4762.5127-.858.509-1 1-.0302.1043-.0201.4028 0 1 .0207.6139.0304.9225 0 1-.2084.5314-.762.4707-1 1-.1635.3635.0261.5513 0 1-.0602 1.034-1.1898 2.148-2 2-.322-.0588-.548-.3726-1-1-.4-.5552-.8285-1.15-1-2-.1846-.9149.1535-1.0103 0-2-.0778-.5019-.2532-1.6321-1-2-.7166-.353-1.2454.3476-2 0-.7025-.3236-1.0231-1.2894-1-2 .0247-.7592.4439-1.2926 1-2 .4356-.5543.6535-.8315.9999-1m20 9c-1.1801.5793-1.7441.4529-2 1-.1985.4245-.0394.8859 0 1 .2429.7039.925.9719 1 1 .8638.3235 1.3389-.3545 2 0 .5044.2705.4256.7713 1 1 .3162.1259.5969.0764 1 0 .6927-.1313 1.5826-.3001 2-1 .2991-.5014.1975-1.0104 0-2-.1533-.7682-.3549-1.7781-1-2-.1257-.0432-.1378-.0117-1 0-.7313.0099-.8063-.0117-1 0-.7651.0462-.9044.4622-2 1z"/></g><g fill="none" stroke="#000" stroke-linecap="round" stroke-linejoin="round" stroke-miterlimit="10" stroke-width="2"><path d="M5 17h62v38H5z"/><path d="M28.5 30.5c-.0417.5833-1.667 2.5858-2.0833 2.875-.8682.603-1.2071.3266-1.9635.9219-.4794.3773-1.0785.7807-1.8125.9219-.4063.0781-.2266-.3058-1.1407.2812-.5092.327-.0571.6789 0 1 .0768.4317.1342.1715 1 1 .452.4326.4924.8181 1 1 .3173.1137.5479.0514 1 0 .9479-.1077.5264.8266 1 1 1.0892.3987.9965 1.8323 2 2 .4053.0677.5508-.1443 1 0 .4112.1322.8831.5008 1 1 .1539.6575-.3718 1.2692-1 2-.5081.5911-.6024.5-1 1-.5312.668-.389.8636-1 2-.6184 1.1502-.9584 1.3113-1 2-.0174.288-.0008.9691 0 1 .0175.6949.0562.7867 0 1-.1307.497-1.14.9323-1.5208.875-.7496-.1127-.7361-2.703-.7708-3.1042-.0704-.8101.2616-1.263.2916-1.7708.1037-1.7568.397-2.3016 0-3-.2533-.4456-.3871-.2493-1-1-.3461-.4239-.8704-1.0816-1-2-.0817-.5785.089-.582 0-1-.1652-.7754-.8085-1.0257-2-2-.7351-.6011-1.3871-1.1342-2-2-.3185-.4499-.7692-1.0865-1-2-.3038-1.2024.1487-1.3986 0-3-.0335-.3607-.1795-1.676-1-3-.3483-.5621-.5937-.9457-1-1-.7745-.1035-1.1901 1.1152-2 1-.484-.0689-.8581-.5785-1-1-.0379-.1126-.1763-.5437 0-1 .0977-.2529.3985-.5019 1-1 .6138-.5083.9223-.7672 1-1 .1463-.4386-.1174-.595 0-1 .2008-.693 1.2649-1.2436 2-1 .4223.1399.3312.4078 1 1 .3247.2875 1.0264.8266 2 1 .4917.0876.7375.1313 1 0 .6467-.3236.3375-1.1808 1-2 .6094-.7535 1.5995-.929 2-1 .9901-.1755 1.1254.2006 2 0 .9399-.2156.9128-.6796 2-1 .4761-.1403 1.3149-.3876 2 0 .6168.3489.535.8878 1 1 .649.1567.967-.855 2-1 .7887-.1107 1.7269.3212 2 1 .1356.3369.0721.6473 0 1-.2177 1.0653-.7955 1.1298-1 2-.2223.9456.2539 1.1749 0 2-.1667.5417-.5.375-1.0312.8125-.2432.2002-.3021.5208-.9688 1.1875-.3333.3333-.6794.6544-1 1-.7307.7876-.8473.8473-1 1m6 5c-.2327-.2965-1.2282-1.826-1-2 .2819-.2149.7809.2076 1 0 .1816-.1721-.1166-.5043 0-1 .1124-.4781.5564-.8775 1-1 .528-.1458.897.1447 1 0 .1982-.2786-1.2375-1.2621-1-2 .1473-.4577.8035-.4017 1-1 .1321-.402-.1271-.5401 0-1 .1285-.4649.5373-.8448 1-1 .1315-.0441.5717-.1918 1 0 .5418.2426.4575.7571 1 1 .3049.1365.6951.1365 1 0 .5414-.2424.4828-.7669 1-1 .3427-.1544.5131.0106 1 0 1.1173-.0243 1.9392-.9311 2-1 .5035-.571.2483-.7995 1-2 .4014-.6411.6646-.8799 1-1 .0953-.0341.5557-.1989 1 0 .5393.2415.4849.7637 1 1 .2668.1224.4404.0553 1 0 .0712-.007.7141-.0047 2 0 1.9053.0069 1.8204.0439 2 0 1.0108-.247.9913-.7535 2-1 .6976-.1705.6827.0772 2 0 1.1978-.0702 1.7747-.3081 2 0 .0859.1175.021.1781 0 1-.0085.3348.2708.6502.276 1.0417.0115.8917.0431.8352-.0051.9583-.2075.5292-.3616.6588-.6042 1.1875-.0905.1972-.1193.2741-.0833 1.0208.0529 1.097.3557.8476.4167 1.7917.0475.7382.1251.8865 0 1-.3363.3052-2.1732-.2637-2.5833-1.125-.4311-.9051-.1221-1.6729-.4167-1.875-.4045-.2775-2.2332 1.1258-2.5 2.0156-.0528.1761-.2842.4526.5781 1.2344.8716.7902 1.2485 1.0843 1.3281 1.1562.4844.4375 1.0081 1.028.5938 1.5938-.5568.7599-1.6156.316-2 1-.3447.6132.3857 1.1847 0 2-.1112.235-.4075.49-1 1-.6594.5675-.9046.6509-1 1-.1277.4673.1847.7829 0 1-.2369.2786-.9667.0125-1 0-1.2899-.4836-1.342-1.9702-2-2-.7889-.0357-1.2216 2.0781-2 2-.1748-.0175-.4498-.345-1-1-.5292-.6301-.6418-.8616-1-1-.4581-.1771-.8913-.0369-1 0-.1805.0613-.5032.2216-1 1-.7071 1.1079-.4384 1.3954-1 2-.4762.5127-.858.509-1 1-.0302.1043-.0201.4028 0 1 .0207.6139.0304.9225 0 1-.2084.5314-.762.4707-1 1-.1635.3635.0261.5513 0 1-.0602 1.034-1.1898 2.148-2 2-.322-.0588-.548-.3726-1-1-.4-.5552-.8285-1.15-1-2-.1846-.9149.1535-1.0103 0-2-.0778-.5019-.2532-1.6321-1-2-.7166-.353-1.2454.3476-2 0-.7025-.3236-1.0231-1.2894-1-2 .0247-.7592.4439-1.2926 1-2 .4356-.5543.6535-.8315.9999-1m20 9c-1.1801.5793-1.7441.4529-2 1-.1985.4245-.0394.8859 0 1 .2429.7039.925.9719 1 1 .8638.3235 1.3389-.3545 2 0 .5044.2705.4256.7713 1 1 .3162.1259.5969.0764 1 0 .6927-.1313 1.5826-.3001 2-1 .2991-.5014.1975-1.0104 0-2-.1533-.7682-.3549-1.7781-1-2-.1257-.0432-.1378-.0117-1 0-.7313.0099-.8063-.0117-1 0-.7651.0462-.9044.4622-2 1z"/></g></svg>