<svg xmlns="http://www.w3.org/2000/svg" role="img" viewBox="15.16 14.16 42.43 43.68"><title>1F4D0.svg</title><path fill="#D0CFCE" d="M17.1601 15.9546l.252 39.4373 38.6183-39.4373H17.1601zm5.2503 16.4361V22.1629c0-.208.0871-.4079.2418-.555.0773-.0733.1686-.1306.2678-.1697a.8634.8634 0 0 1 .3156-.0597h.0008l10.4243.0065a.86285.86285 0 0 1 .2402.0342c.2298.0668.4223.2271.5189.4445a.7534.7534 0 0 1 .0607.2238c.025.2273-.0554.4583-.2283.628L23.8279 32.9369c-.1579.1555-.3731.2382-.5923.2382-.1048 0-.2095-.0184-.3103-.0574-.2332-.0902-.4063-.2743-.4782-.4955a.74723.74723 0 0 1-.0367-.2315z"/><path fill="#9B9B9A" d="M55.561 16.215l-6.776.167-31.537 32.43-.074 6.946z"/><path fill="#d0cfce" stroke-linecap="round" stroke-linejoin="round" stroke-miterlimit="10" stroke-width="2" d="M23.855 43.289l-1.289-1.243m6.842-4.516l-1.289-1.243m4.065-1.636l-1.289-1.243m4.065-1.637l-1.289-1.243m4.066-1.636l-1.289-1.243m6.842-4.516l-1.289-1.243M26.719 40.494l-2.2-2.121m16.082-12.276l-2.2-2.121"/><g fill="none" stroke="#000" stroke-linecap="round" stroke-linejoin="round" stroke-miterlimit="10" stroke-width="2"><path d="M17.065 56.081V16.056l38.779.025z"/><path d="M22.542 34.373V21.334l12.633.008zm1.313 8.916l-1.289-1.243m6.842-4.516l-1.289-1.243m4.065-1.636l-1.289-1.243m4.065-1.637l-1.289-1.243m4.066-1.636l-1.289-1.243m6.842-4.516l-1.289-1.243M26.719 40.494l-2.2-2.121m16.082-12.276l-2.2-2.121"/></g></svg>