<svg xmlns="http://www.w3.org/2000/svg" role="img" viewBox="10.10 9.60 52.05 53.17"><title>1F44E-1F3FF.svg</title><path fill="#6a462f" stroke="#6a462f" d="M37.333 57.207l-1.667-4.583-3.916-9.584-.063-1.736h9.125l.854-.597.834-.667 13.166-.5 2.584-1.5-.167-3.416-1.167-2.167 2.5-1.167.917-2.75-1.917-2.666-1.583-.667 1.583-3-.833-2.333-1.333-1.667-3.584-.083.75-1.584-.75-3.833-2.395-1.57-14.042.208-9.625-.041-12.938 7.07-1.999 11.274L19 42.707 34.166 60.04l2.922.645z"/><g fill="none" stroke="#000" stroke-width="2"><path stroke-linecap="round" stroke-linejoin="round" d="M17.236 40.3161c-3.2007-3.5759-4.9796-8.2009-5-13 0-8.319 5.679-15 14-15h9m-18 28l15 19c2.21 2.8 5.811 1.084 5-1l-7-18h4.389m6.823 0h13c.3099.0413.6238.0413.9337 0 1.933-.2578 3.291-2.0339 3.0331-3.9669s-2.0339-3.291-3.9669-3.0331h-13c-2.0658-.1226-3.8473 1.4362-4 3.5.1528 2.0638 1.9343 3.6226 4.0001 3.5zm.857-21.336h7c.3099.0413.6238.0413.9337 0 1.933-.2578 3.291-2.0339 3.0331-3.9669s-2.0339-3.291-3.9669-3.0331h-7c-2.0658-.1226-3.8473 1.4362-4 3.5.1528 2.0638 1.9343 3.6226 4.0001 3.5zm-5.069 14h19c.3099.0413.6238.0413.9337 0 1.933-.2578 3.291-2.0339 3.0331-3.9669s-2.0339-3.291-3.9669-3.0331h-19c-2.0658-.1226-3.8473 1.4362-4 3.5.1528 2.0638 1.9343 3.6226 4.0001 3.5z"/><path stroke-linecap="round" stroke-linejoin="round" d="M39.236 25.9801h15c.3099.0413.6238.0413.9337 0 1.933-.2578 3.291-2.0339 3.0331-3.9669s-2.0339-3.291-3.9669-3.0331h-15c-2.0658-.1226-3.8473 1.4362-4 3.5.1528 2.0638 1.9343 3.6226 4.0001 3.5z"/><path stroke-miterlimit="10" d="M27.355 12.315c-10.5 0-15.125 6.94-15.125 15.5.0807 2.7175.73 5.3879 1.906 7.839"/></g></svg>