<svg xmlns="http://www.w3.org/2000/svg" role="img" viewBox="2.54 0.66 67.05 69.55"><title>1F326.svg</title><path fill="#fcea2b" d="M18.1614 32.7701l-3.2872 1.7201c-.867.4537-2.0118.0607-2.2652-.8845-.0153-.0572-.0232-.1085-.0222-.1515l.1368-5.8167-8.0643-1.162 6.0358-5.473-5.8412-5.6814 8.1036-.8768-1.3933-8.0309 7.0724 4.0568 3.595-7.3181 3.3356 7.4372 7.2087-3.8045-1.6659 7.9764 5.994 1.6251c.9561.2592 1.2279 1.4855.4708 2.1244l-4.1241 3.4802 5.8187 5.7815-8.1229.6762 1.1943 8.063-6.9703-4.2205-4.6578 7.5588-2.5514-7.0798z"/><path fill="#d0cfce" d="M25.6193 30.5602c-.031.3535-.3174.6396-.6721.6775-4.2996.4606-7.6067 4.6942-7.6067 9.8474 0 5.4608 3.7871 9.8877 8.4588 9.8877h32.248c5.1325 0 9.2932-4.6783 9.2932-10.4492 0-5.5305-3.8212-10.0575-8.6569-10.4251-.37-.0281-.67-.2871-.7406-.6494-1.0803-5.5472-6.0636-9.7159-11.9553-9.7159-3.829 0-7.2399 1.7335-9.4549 4.4912-.2164.2695-.5797.3929-.8992.2589-.8523-.3575-1.7525-.5304-2.7597-.5304-3.806.0001-6.9302 2.9047-7.2546 6.6073z"/><path fill="#92d3f5" d="M28.6934 59.2233c-.7516 1.1632-2.1343 1.6031-3.0902.9854s-1.1216-2.0613-.37-3.2245c0 0 .8943-1.4257 4.0066-3.0386 0 0 .6168-.3534.5724.3205-.1914 3.5001-1.1188 4.9572-1.1188 4.9572"/><path fill="#61b2e4" d="M29.1527 54.0877c.5441 1.6504-.7227 4.9495-.7227 4.9495-.9587 1.3692-2.1337 1.5027-3.1418.7967-.0001 0 2.7195-.9711 3.8645-5.7462"/><path fill="#92d3f5" d="M58.798 59.2233c-.7516 1.1632-2.1343 1.6031-3.0902.9854s-1.1216-2.0613-.37-3.2245c0 0 .8943-1.4257 4.0066-3.0386 0 0 .6168-.3534.5724.3205-.1914 3.5001-1.1188 4.9572-1.1188 4.9572"/><path fill="#61b2e4" d="M59.2573 54.0877c.5441 1.6504-.7227 4.9495-.7227 4.9495-.9587 1.3692-2.1337 1.5027-3.1418.7967-.0001 0 2.7195-.9711 3.8645-5.7462"/><path fill="#92d3f5" d="M43.7457 59.2233c-.7516 1.1632-2.1343 1.6031-3.0902.9854s-1.1216-2.0613-.37-3.2245c0 0 .8943-1.4257 4.0066-3.0386 0 0 .6168-.3534.5724.3205-.1914 3.5001-1.1188 4.9572-1.1188 4.9572"/><path fill="#61b2e4" d="M44.205 54.0877c.5441 1.6504-.7227 4.9495-.7227 4.9495-.9587 1.3692-2.1337 1.5027-3.1418.7967-.0001 0 2.7195-.9711 3.8645-5.7462"/><path fill="#92d3f5" d="M35.7196 66.7944c-.7516 1.1632-2.1343 1.603-3.0902.9854-.9559-.6177-1.1216-2.0613-.37-3.2245 0 0 .8943-1.4257 4.0066-3.0385 0 0 .6168-.3534.5724.3205-.1915 3.5001-1.1188 4.9571-1.1188 4.9571"/><path fill="#61b2e4" d="M36.1789 61.6589c.5441 1.6504-.7227 4.9495-.7227 4.9495-.9587 1.3692-2.1337 1.5027-3.1418.7967-.0001 0 2.7194-.9711 3.8645-5.7462"/><path fill="#92d3f5" d="M50.7719 66.7944c-.7516 1.1632-2.1343 1.603-3.0902.9854-.9559-.6177-1.1216-2.0613-.37-3.2245 0 0 .8943-1.4257 4.0066-3.0385 0 0 .6168-.3534.5724.3205-.1915 3.5001-1.1188 4.9571-1.1188 4.9571"/><path fill="#61b2e4" d="M51.2312 61.6589c.5441 1.6504-.7227 4.9495-.7227 4.9495-.9587 1.3692-2.1337 1.5027-3.1418.7967-.0001 0 2.7195-.9711 3.8645-5.7462"/><g fill="none" stroke="#000" stroke-linecap="round" stroke-linejoin="round"><path stroke-width="1.9" d="M14.524 33.667l-3.2 1.796 1.666-7.976-8.064-1.162 6.035-5.473L5.12 15.17l8.104-.877-1.394-8.03 7.073 4.056 3.595-7.318 3.336 7.437 7.208-3.804-1.666 7.976 8.065 1.162-2.924 2.383"/><path stroke-width="1.9" d="M32.9118 19.9675c-.5423-5.4473-5.1387-9.7012-10.7287-9.7012-5.9549 0-10.7822 4.8274-10.7822 10.7822 0 4.2822 2.4963 7.9814 6.1131 9.7216"/><path stroke-width="2" d="M25.6193 30.5602c-.031.3535-.3174.6396-.6721.6775-4.2996.4606-7.6067 4.6942-7.6067 9.8474 0 5.4608 3.7871 9.8877 8.4588 9.8877h32.248c5.1325 0 9.2932-4.6783 9.2932-10.4492 0-5.5305-3.8212-10.0575-8.6569-10.4251-.37-.0281-.67-.2871-.7406-.6494-1.0803-5.5472-6.0636-9.7159-11.9553-9.7159-3.829 0-7.2399 1.7335-9.4549 4.4912-.2164.2695-.5797.3929-.8992.2589-.8523-.3575-1.7525-.5304-2.7597-.5304-3.806.0001-6.9302 2.9047-7.2546 6.6073z"/><path stroke-width="1.8" d="M28.6934 59.2233c-.7516 1.1632-2.1343 1.6031-3.0902.9854s-1.1216-2.0613-.37-3.2245c0 0 .8761-1.5078 4.0066-3.0386 0 0 .6168-.3534.5724.3205-.1914 3.5001-1.1188 4.9572-1.1188 4.9572m30.1046 0c-.7516 1.1632-2.1343 1.6031-3.0902.9854s-1.1216-2.0613-.37-3.2245c0 0 .8761-1.5078 4.0066-3.0386 0 0 .6168-.3534.5724.3205-.1914 3.5001-1.1188 4.9572-1.1188 4.9572m-15.0523 0c-.7516 1.1632-2.1343 1.6031-3.0902.9854s-1.1216-2.0613-.37-3.2245c0 0 .8761-1.5078 4.0066-3.0386 0 0 .6168-.3534.5724.3205-.1914 3.5001-1.1188 4.9572-1.1188 4.9572m-8.0261 7.5711c-.7516 1.1632-2.1343 1.603-3.0902.9854-.9559-.6177-1.1216-2.0613-.37-3.2245 0 0 .8761-1.5078 4.0066-3.0385 0 0 .6168-.3534.5724.3205-.1915 3.5001-1.1188 4.9571-1.1188 4.9571m15.0523 0c-.7516 1.1632-2.1343 1.603-3.0902.9854-.9559-.6177-1.1216-2.0613-.37-3.2245 0 0 .8761-1.5078 4.0066-3.0385 0 0 .6168-.3534.5724.3205-.1915 3.5001-1.1188 4.9571-1.1188 4.9571"/></g></svg>