<svg xmlns="http://www.w3.org/2000/svg" role="img" viewBox="8.96 9.96 53.95 53.95"><title>E042.svg</title><path fill="#61b2e4" d="M57 12H15c-2.2091 0-4 1.7909-4 4v42c0 2.2091 1.7909 4 4 4h42c2.2091 0 4-1.7909 4-4V16c0-2.2091-1.7909-4-4-4z"/><path fill="none" stroke="#fff" stroke-miterlimit="10" stroke-width="2" d="M36.935 62.009h9.5"/><path fill="#fff" d="M48.5 26.8438h4.6875v-7.0312c-3.125 0-15.625-3.125-15.625 10.1562v4.6875h-6.25v7.8125h6.25v18.5644l7.8125-.0139V42.4688h7.0312l.7812-7.8125H45.375v-4.6875c0-3.125 2.3438-3.125 3.125-3.125z"/><g fill="none" stroke="#000" stroke-width="2"><path stroke-miterlimit="10" d="M45.6188 62h12.1554C59.5558 62 61 60.5558 61 58.7742V15.2258C61 13.4442 59.5558 12 57.7742 12H14.2258C12.4442 12 11 13.4442 11 15.2258v43.5484C11 60.5558 12.4442 62 14.2258 62h23.4761"/><path stroke-linecap="round" stroke-linejoin="round" d="M45.6183 62V42.208h7.1251l.7917-7.9168h-7.9168v-4.7501c0-3.1667 2.375-3.1667 3.1667-3.1667h4.7501v-7.1251c-3.1997-.3243-15.8336-3.1667-15.8336 10.2918v4.7501h-6.3334v7.9168h6.3334V62"/></g></svg>