<svg xmlns="http://www.w3.org/2000/svg" role="img" viewBox="5.45 6.70 61.23 58.10"><title>1F441-FE0F-200D-1F5E8-FE0F.svg</title><path fill="#FFF" d="M7.6875 31.4375c7.1875 11.9375 20.4718 18.9653 29.5625 21.5 4.5378 1.2652 16.125 9.75 16.125 9.75S50.4832 54.1918 50 51.25c-1.8349-11.1713 13.0625-12.5 14.5311-20.4657C56 10.9583 26-6.6875 7.6875 31.4375z"/><circle cx="36" cy="30.5" r="14.222" fill="#A57939"/><g><path fill="none" stroke="#000" stroke-linecap="round" stroke-linejoin="round" stroke-miterlimit="10" stroke-width="2" d="M7.6875 31.4375c7.1875 11.9375 20.4718 18.9653 29.5625 21.5 4.5378 1.2652 16.125 9.75 16.125 9.75S50.4832 54.1918 50 51.25c-1.8349-11.1713 13.0625-12.5 14.5311-20.4657C56 10.9583 26-6.6875 7.6875 31.4375z"/><circle cx="36" cy="30.5" r="7.782"/><circle cx="36" cy="30.5" r="14.222" fill="none" stroke="#000" stroke-linecap="round" stroke-linejoin="round" stroke-miterlimit="10" stroke-width="2"/><circle cx="36" cy="30.5" r="7.782" fill="none" stroke="#000" stroke-linecap="round" stroke-linejoin="round" stroke-miterlimit="10" stroke-width="2"/></g></svg>