<svg xmlns="http://www.w3.org/2000/svg" role="img" viewBox="5.84 5.84 60.19 60.19"><title>1F1F4.svg</title><circle cx="36" cy="36" r="27.5" fill="#fff"/><path d="M36 21.0122c-6.0654 0-11 4.9346-11 11v8c0 6.0654 4.9346 11 11 11s11-4.9346 11-11v-8c0-6.0654-4.9346-11-11-11zm9 19c0 4.9624-4.0371 9-9 9s-9-4.0376-9-9v-8c0-4.9624 4.0371-9 9-9s9 4.0376 9 9v8z"/><g><circle cx="36" cy="36" r="28" fill="none" stroke="#000" stroke-linejoin="round" stroke-width="2"/><path fill="none" stroke="#000" stroke-linejoin="round" stroke-width="2" d="M36 21.0122c-6.0654 0-11 4.9346-11 11v8c0 6.0654 4.9346 11 11 11s11-4.9346 11-11v-8c0-6.0654-4.9346-11-11-11zm9 19c0 4.9624-4.0371 9-9 9s-9-4.0376-9-9v-8c0-4.9624 4.0371-9 9-9s9 4.0376 9 9v8z"/></g></svg>