<svg xmlns="http://www.w3.org/2000/svg" role="img" viewBox="6.06 5.93 59.38 62.01"><title>E093.svg</title><g id="color"><path fill="#fff" d="M27.0006 11.248l.3517 10.1996s4.2205-4.7129 7.6673-2.673 10.692 6.0494 12.732 6.0494 3.1654-.0703 3.1654-.0703l-.1407-12.1692s-1.7586.4924-3.6578.211-6.9366-2.4435-7.5266-2.673c-1.2662-.4924-4.5019-1.8289-7.0342-1.2662s-5.557 2.3916-5.557 2.3916zM20.42 42.19L35.952 34.072 51.13 42.19 20.42 42.19z"/><path fill="#3f3f3f" d="M18.703 46.663H52.937V58.827H18.703z"/><path fill="#d0cfce" d="M27.3106 19.74c2.1054-1.2183 4.5004-1.8462 6.9327-1.8174 4.5418 0 8.4376 6.247 14.3338 6.247.8692 0 1.3042-.3913 2.1814-.3913.7275 0 1.0179.52 1.0179 1.4385v1.5653c0 .7168-.783 1.531-3.0816 1.531-6.91 0-10.8055-3.9084-14.8143-3.9084-2.3906.0452-4.7105.8194-6.6491 2.219v-4.267l.0792-2.6167zM10.314 62.339H61.324V65.851H10.314zM12.689 58.827H58.951V62.339H12.689z"/><path fill="#9b9b9a" d="M46.15 41.118L35.82 36.063 25.489 41.118 46.15 41.118z"/><path fill="#d0cfce" d="M11.784 43.15H59.855V46.662H11.784z"/><path fill="#fff" d="M17.383 46.663H22.811999999999998V58.827H17.383zM33.105 46.663H38.534V58.827H33.105zM48.827 46.663H54.256V58.827H48.827z"/></g><g id="line" fill="none" stroke="#000" stroke-linecap="round" stroke-width="2"><path stroke-linejoin="round" d="m27.3106,10.34c2.0697-1.3392,4.4684-2.0822,6.9327-2.1474,4.5418,0,8.4376,3.9373,14.3338,3.9373.8692,0,1.3042-.3912,2.1814-.3912.7275,0,1.0179.52,1.0179,1.4384v13.6052c0,.7168-.783,1.531-3.0816,1.531-6.91,0-10.8055-3.9084-14.8143-3.9084-2.3906.0452-4.7105.8194-6.6491,2.219v-4.2672"/><path stroke-miterlimit="10" d="M23.972 8.347L23.972 39.033"/><path stroke-linejoin="round" d="M63.325 65.852L8.314 65.852M11.314 62.339L60.325 62.339M11.784 43.15H59.855V46.662H11.784zM58.95 62.339L12.689 62.339M13.689 58.827L57.95 58.827M17.383 46.663H22.811999999999998V58.827H17.383zM33.105 46.663H38.534V58.827H33.105zM48.827 46.663H54.256V58.827H48.827zM55.161 43.15L35.82 33.04 16.478 43.15 55.161 43.15z"/></g></svg>