<svg xmlns="http://www.w3.org/2000/svg" role="img" viewBox="3.50 15.63 65.00 40.50"><title>1FA97.svg</title><g id="line-supplement"><circle cx="56.882" cy="44.306" r="1"/><circle cx="60.702" cy="38.72" r="1"/><circle cx="59.772" cy="42.927" r="1"/><circle cx="57.873" cy="40.056" r="1"/><circle cx="61.661" cy="34.395" r="1"/><circle cx="58.855" cy="35.607" r="1"/><circle cx="59.827" cy="31.322" r="1"/><circle cx="19.912" cy="45.562" r="1"/><circle cx="18.062" cy="41.609" r="1"/><circle cx="16.082" cy="37.506" r="1"/><circle cx="14.194" cy="33.538" r="1"/></g><g id="color"><path fill="#fff" d="m14.1154,27.117l4.1208-3.9246c.0428-.0408.0913-.0752.1439-.1023l9.2312-4.7475c.067-.0344.1396-.0564.2145-.0647l9.896-1.1054c.0674-.0075.1356-.0039.2018.0106l10.4682,2.303c.1225.0269.2339.0904.3195.1821l4.2694,4.5708c.1094.1171.26.1873.4201.1957l4.4217.2319c.3823.0201.655.3788.5721.7525l-5.1154,23.0557c-.1005.4527-.6446.6385-1.0009.3416l-4.2501-3.5409c-.4-.3333-1.0078-.0541-1.0155.4665h0c-.007.4695-.5136.7607-.9228.5305l-5.0072-2.817c-.4425-.2489-.98.1111-.9183.615l.0362.2957c.0566.4622-.398.8192-.8336.6545l-5.1605-1.951c-.4748-.1795-.9521.2572-.8153.746l.2991,1.0694c.1286.4599-.2898.8862-.752.7661l-4.8403-1.2573c-.5017-.1303-.9319.3767-.7217.8505l.5879,1.3251c.1817.4095-.1181.8704-.566.8704h-3.179c-.2341,0-.4482-.132-.5533-.3412l-9.6764-19.2553c-.1224-.2435-.0711-.5385.1262-.7265Z"/><path fill="#781e32" d="M19.7985 54.9706c-.3873 0-.7398-.2232-.9053-.5733L6.8219 28.8163c-.2358-.499-.0224-1.0947.4767-1.3304.0005-.0002.001-.0005.0014-.0007l5.7744-2.7246c.4985-.236 1.094-.0233 1.33.4752.0004.0008.0007.0015.0011.0023l12.0707 25.5811c.2359.4988.0228 1.0944-.4761 1.3303-.0005.0002-.001.0005-.0014.0007l-5.7744 2.7247c-.133.0632-.2785.0959-.4258.0957zM60.4611 53.3613c-.1325.0254-.2688.0235-.4006-.0055l-7.4116-1.6283c-.5394-.1185-.8808-.6518-.7626-1.1913l6.0691-27.6269c.1188-.5393.6518-.8805 1.1913-.7626l7.4116 1.6283c.5395.1185.8808.6518.7626 1.1913l-6.0691 27.6269c-.0861.3912-.3972.6934-.7907.7681z"/><path fill="#fff" d="m15.9245,53.0282c-1.4059-.0028-2.6849-.8137-3.2871-2.084l-6.8721-14.5615c-.8559-1.8144-.0789-3.979,1.7354-4.835l2.1015-.9922c.499-.2359,1.0947-.0226,1.3305.4764.0002.0004.0004.0008.0006.0012l9.1181,19.3232c.2359.499.0225,1.0948-.4765,1.3306-.0003.0002-.0007.0003-.001.0005l-2.1016.9912c-.4837.2296-1.0124.3491-1.5478.3496Z"/><path fill="#d0cfce" d="M28.962 46.828L17.965 22.982 20.891 21.255 28.962 46.828zM34.792 44.759L27.705 17.933 31.046 17.885 34.792 44.759zM41.294 45.068L38.336 16.946 41.209 17.791 41.294 45.068zM48.025 46.637L49.192 19.545 51.119 21.979 48.025 46.637z"/><circle cx="56.882" cy="44.306" r="1" fill="#fff"/><circle cx="60.702" cy="38.72" r="1" fill="#fff"/><circle cx="59.772" cy="42.927" r="1" fill="#fff"/><circle cx="57.873" cy="40.056" r="1" fill="#fff"/><circle cx="61.661" cy="34.395" r="1" fill="#fff"/><circle cx="58.855" cy="35.607" r="1" fill="#fff"/><circle cx="59.827" cy="31.322" r="1" fill="#fff"/><circle cx="19.912" cy="45.562" r="1" fill="#fff"/><circle cx="18.062" cy="41.609" r="1" fill="#fff"/><circle cx="16.082" cy="37.506" r="1" fill="#fff"/><circle cx="14.194" cy="33.538" r="1" fill="#fff"/></g><g id="line" fill="none" stroke="#000" stroke-linecap="round" stroke-linejoin="round" stroke-width="2"><path d="M43.915 21.386L48.418 20.173 46.997 46.783 43.115 44.371M53.664 25.174L58.553 24.705 53.059 49.467 50.177 46.223M33.866 19.708L38.112 17.924 40.325 45.383 36.373 43.696M23.952 21.272L27.834 18.935 33.98 45.922 29.973 44.889M14.73 27.043L18.464 23.839 28.35 47.44 23.837 47.44M9.331 31.789L7.727 28.39 13.5 25.665 25.572 51.246 19.798 53.97 18.449 51.112"/><path d="m19.1469,50.7828l-3.6775,1.7354c-.4443.2094-.9743.0192-1.1841-.4249l-8.359-17.7133c-.2097-.4442-.0196-.9743.4246-1.184h.0003s3.6774-1.736,3.6774-1.736"/><path d="M45.461 33.957H73.747V41.545H45.461z" transform="rotate(-77.609 59.604 37.751)"/><path d="M9.886 35.642L7.112 36.936M11.461 38.734L8.687 40.028M13.054 41.861L10.28 43.154M14.557 45.032L11.784 46.325M16.117 48.197L13.343 49.491"/></g></svg>