<svg xmlns="http://www.w3.org/2000/svg" role="img" viewBox="5.97 24.97 59.93 32.68"><title>1FA72.svg</title><path fill="#61B2E4" d="M8.1924 30.2063c0-1.6819.996-1.5227 2.2246-1.5227h51.166c1.2286 0 2.2246-.1592 2.2246 1.5227v1.5749c0 2.6857-.8443 2.68-2.7141 3.4932-12.8582 5.5906-10.02 6.2746-16.19 14.72-5.5122 7.5445-12.3623 7.4371-17.88-.1-6.4513-8.8121-3.815-9.0294-16.0148-14.6507-1.8973-.8742-2.8163-3.8808-2.8163-6.6213v1.5839z"/><path fill="#92D3F5" d="M8.1924 28.6836c0-1.6819.996-1.5226 2.2246-1.5226h51.166c1.2286 0 2.2246 1.3634 2.2246 3.0453v-1.47c0 2.6857-.7522 6.5385-2.7141 6.5385-20.6443 0-18.9758 15.6932-22.8639 20.2543h-4.5323c-2.7027-2.9387-2.1465-19.993-22.6886-20.285-2.0018-.0284-2.8163-.8354-2.8163-3.576v-2.9845z"/><g fill="none" stroke="#000" stroke-miterlimit="10" stroke-width="2"><path d="M61.0935 35.2744c-12.8582 5.5906-10.02 6.2746-16.19 14.72-5.5122 7.5445-12.3623 7.4371-17.88-.1-6.4513-8.8121-3.815-9.0294-16.0148-14.6507"/><path d="M32.585 54.5615s-1.59-19.3178-21.5763-19.3178c-2.0019 0-2.8163-2.3581-2.8163-5.0986v-1.4615c0-1.6819.996-1.5226 2.2246-1.5226h51.166c1.2286 0 2.2246-.1593 2.2246 1.5226v1.5749c0 2.6858-.7522 4.9848-2.7141 4.9848-20.0881 0-21.7516 19.3188-21.7516 19.3188"/></g></svg>