<svg xmlns="http://www.w3.org/2000/svg" role="img" viewBox="10.91 11.04 49.92 49.92"><title>1F60E.svg</title><circle cx="36" cy="36" r="23" fill="#FCEA2B"/><path fill="#3F3F3F" d="M45.331 38.5639c3.9628 0 7.1782-2.8618 7.1782-6.3889 0-1.7646.4473-3.5291-.8519-4.6852s-4.3449-1.7037-6.3264-1.7037c-2.3567 0-5.1428.1434-6.4514 1.7037-.8933 1.0652-.7268 3.2534-.7268 4.6852.0001 3.5271 3.2128 6.3889 7.1783 6.3889zm-19.5926 0c3.9628 0 7.1782-2.8618 7.1782-6.3889 0-1.7646.4473-3.5291-.8519-4.6852s-4.3449-1.7037-6.3264-1.7037c-2.3567 0-5.1428.1434-6.4514 1.7037-.8933 1.0652-.7268 3.2534-.7268 4.6852.0001 3.5271 3.2128 6.3889 7.1783 6.3889z"/><g fill="none" stroke="#000" stroke-linecap="round" stroke-linejoin="round" stroke-miterlimit="10" stroke-width="2"><circle cx="35.887" cy="36.056" r="23"/><path d="M45.7019 44.862c-6.574 3.5248-14.0454 3.6576-19.6295 0m-7.1898-14.3982s-.953 8.5508 6.8608 7.9185c2.6197-.212 7.8164-.6507 7.867-8.3427.0046-.6979-.0078-1.5989-.8108-2.6298-1.0647-1.3669-3.5716-1.9711-9.9446-1.422.0001.0001-3.4462-.099-3.9724 4.476z"/><path d="M18.953 29.931l-.433-3.372 3.833-.527m30.3882 4.4318s.953 8.5508-6.8608 7.9185c-2.6197-.212-7.8164-.6507-7.867-8.3427-.0046-.6979.0078-1.5989.8108-2.6298 1.0647-1.3669 3.5716-1.9711 9.9446-1.422 0 .0001 3.4463-.099 3.9724 4.476zm-21.2364-4.048s4.1241 2.5339 8.6569 0m-6.6256 4.9021s2.2019-3.7509 4.5362 0"/><path d="M52.664 29.933l.433-3.371-3.833-.528m-15.3091 3.9931s1.7954-3.7509 3.6988 0"/></g></svg>