<svg xmlns="http://www.w3.org/2000/svg" role="img" viewBox="23.73 5.98 24.30 59.67"><title>1F3BC.svg</title><path fill="none" stroke="#000" stroke-linecap="round" stroke-linejoin="round" stroke-miterlimit="10" stroke-width="2" d="M31.3109 42.1835c-.3895-4.0287 3.2811-7.3285 7.3285-7.3285s7.3285 3.32 7.3285 7.3285c0 1.9413-.5746 9.4819-10.7869 9.1301-4.5864-.3678-8.4458-3.7482-9.0968-8.831-.5015-3.9165.0223-7.3091 4.0759-11.3628 4.0537-4.0537 5.2229-4.2957 9.3212-9.9483s2.5823-9.2909 2.3736-10.0085-1.6073-3.0374-4.2006-3.0374c-2.5934 0-3.8432 2.7692-4.1817 3.9137-.3385 1.1445-.7269 3.4443-.0932 7.8778.4744 3.3194 8.0552 32.289 8.9828 36.6029.089.4139.1574.8321.1961 1.2496.0029.0308.0279.7657.0279.7657 0 2.7615-2.2386 5-5 5s-5-2.2385-5-5c0-.3646.039-.7202.1132-1.0627 0 0 .3213-1.1083.8974-1.2909"/><circle cx="33.947" cy="57.146" r="2"/></svg>