<svg xmlns="http://www.w3.org/2000/svg" role="img" viewBox="10.53 7.90 54.45 57.07"><title>2695.svg</title><path fill="#B1CC33" stroke="#B1CC33" stroke-linecap="round" stroke-linejoin="round" stroke-miterlimit="10" stroke-width="1.8" d="M31.8796 32.5444h3.0758c1.081 0 1.9573.8763 1.9573 1.9573s-.8763 1.9573-1.9573 1.9573H22.0928c-3.4747 0-6.2915 2.8168-6.2915 6.2915s2.8168 6.2915 6.2915 6.2915h5.82l.1518-4.1943h-5.6921c-1.081 0-2.1149-.8916-2.1149-1.9726s1.0339-1.9421 2.1149-1.9421h12.4431c3.4747 0 6.2915-2.8168 6.2915-6.2915S38.2903 28.35 34.8156 28.35h-2.936v4.1944z"/><path fill="#5C9E31" stroke="#5C9E31" stroke-linecap="round" stroke-linejoin="round" stroke-miterlimit="10" stroke-width="1.8" d="M25.6815 52.9568h6.2564c1.0718 0 2.0064-.8259 2.0385-1.8971.0333-1.1085-.8554-2.0176-1.9564-2.0176v-4.1943h.2686c3.4114 0 6.317 2.6528 6.4382 6.062.1273 3.5793-2.7365 6.5209-6.2874 6.5209h-11.045 0c.3544-1.7722 1.476-3.2963 3.0626-4.1617h0a2.55704 2.55704 0 0 1 1.2245-.3122z"/><path fill="#B1CC33" stroke="#B1CC33" stroke-linecap="round" stroke-linejoin="round" stroke-miterlimit="10" stroke-width="2" d="M38.5255 49.5541c.1156.4344.1846.8879.2013 1.3557.1273 3.5793-2.7365 6.5209-6.2874 6.5209h-11.045 0c.3544-1.7722 1.476-3.2963 3.0626-4.1617h0a2.55675 2.55675 0 0 1 1.2245-.3122h6.2564c.6261 0 1.2055-.2819 1.5854-.7299l5.0022-2.6728z"/><path fill="#5C9E31" stroke="#5C9E31" stroke-linecap="round" stroke-linejoin="round" stroke-miterlimit="10" stroke-width="1.8" d="M32.02 49.042h-3.756v-4.194h3.756"/><path fill="#5C9E31" d="M22.0172 39.9504s-7.0835 1.3718-6.6981 5.5566c0 0 1.5016 2.8532 3.3237 3.3165l5.4135 1.2276h2.9924v-6.2l-5.1829-.0391-1.4931-.648 1.4261-1.743.2184-1.4706z"/><path fill="#B1CC33" stroke="#B1CC33" stroke-linecap="round" stroke-linejoin="round" stroke-miterlimit="10" stroke-width="1.8" d="M53.1287 19.8834c0 4.333-7.5 4.5-7.5 4.5l-9.0336.0479-.2124.0041H19.4174c-.975 0-1.8787.6663-2.0353 1.6286-.1995 1.2263.7418 2.2861 1.9306 2.2861h8.7861l-.0654 4.1943h-8.7365c-3.4449 0-6.449-2.6546-6.5523-6.0979-.1069-3.563 2.7496-6.485 6.2886-6.485h16.7773l.0694-.0001h0c.9191-.0536 1.6803-.7117 1.8908-1.608.6815-2.9017 3.2865-5.062 6.3961-5.062"/><path fill="#B1CC33" d="M44.1667 13.2914c3.628 0 8.962 2.964 8.962 6.592"/><path fill="#5C9E31" d="M40.0554 35.0975s.3106-2.1447-.5502-3.2538c-1.1194-1.4422-2.6599-3.9045-5.0267-4.4977h-6.0243l.184 6.203h6.6038c.8129-.2732 1.2617-.2283 1.7893-.07.8758.2629 1.6941.689 2.4436 1.2129l.5805.4056zm-22.7377-7.2546c.9637.7905 2.4037.5477 3.0549-.515l6.8774.0181-.0809 6.1896c-1.7968-.0299-3.6842.107-5.0206-.1243-7.325-1.2678-8.0362-5.2822-8.0362-5.2822s.4486-4.6934 5.3821-4.6934l-1.5559 1.5603c-.8572.2494-1.4626 1.014-1.5088 1.9056l.888.9413z"/><g><path fill="none" stroke="#000" stroke-linecap="round" stroke-linejoin="round" stroke-miterlimit="10" stroke-width="2" d="M24.1293 44.8478H22.33c-1.081 0-1.9573-.8763-1.9573-1.9573s.8763-1.9573 1.9573-1.9573h12.4431c3.4747 0 6.2915-2.8168 6.2915-6.2915s-2.8168-6.2915-6.2915-6.2915h-2.936"/><path fill="none" stroke="#000" stroke-linecap="round" stroke-linejoin="round" stroke-miterlimit="10" stroke-width="2" d="M31.8371 32.5444h3.0758c1.081 0 1.9573.8763 1.9573 1.9573s-.8763 1.9573-1.9573 1.9573H22.0504c-3.4747 0-6.2915 2.8168-6.2915 6.2915s2.8168 6.2915 6.2915 6.2915h2.0789"/><path fill="none" stroke="#000" stroke-linecap="round" stroke-linejoin="round" stroke-width="2" d="M24.0663 32.5444h-4.7694c-3.4449 0-6.449-2.6546-6.5523-6.0979-.1069-3.563 2.7496-6.485 6.2886-6.485h16.7773l.0694-.0001h0c.9191-.0536 1.6803-.7117 1.8908-1.608.6815-2.9017 3.2865-5.062 6.3961-5.062"/><path fill="none" stroke="#000" stroke-linecap="round" stroke-linejoin="round" stroke-width="2" d="M53.1287 19.8834c0 4.333-7.5 4.5-7.5 4.5l-9.0336.0479-.2124.0041H19.4174c-.975 0-1.8787.6663-2.0353 1.6286-.1995 1.2263.7418 2.2861 1.9306 2.2861h4.7536"/><path fill="none" stroke="#000" stroke-linecap="round" stroke-linejoin="round" stroke-width="1.8" d="M44.1667 13.2914c3.628 0 8.962 2.964 8.962 6.592"/><path fill="none" stroke="#000" stroke-linecap="round" stroke-miterlimit="10" stroke-width="2" d="M50.9807 23.8384s3.793 4.054 7.585 4.577m-.4967-.0004l4.838-2.223m-3.792 6.8l-1.046-4.577"/><path fill="none" stroke="#000" stroke-linecap="round" stroke-linejoin="round" stroke-width="2" d="M28.065 58.237v4.725m0-21.104v10.019m0-26.479v10.178m0-20.538v3.843"/><circle cx="28.065" cy="12.038" r="3"/><path fill="none" stroke="#000" stroke-linecap="round" stroke-linejoin="round" stroke-miterlimit="10" stroke-width="2" d="M32.02 44.8478h.2686c3.4114 0 6.317 2.6528 6.4382 6.062.1273 3.5793-2.7365 6.5209-6.2874 6.5209h-11.045 0c.3544-1.7722 1.476-3.2963 3.0626-4.1617h0a2.55675 2.55675 0 0 1 1.2245-.3122h6.2564c1.0718 0 2.0064-.8259 2.0385-1.8971.0333-1.1085-.8554-2.0176-1.9564-2.0176"/></g></svg>