<svg xmlns="http://www.w3.org/2000/svg" role="img" viewBox="12.14 10.51 46.35 51.35"><title>1F9DF-200D-2640-FE0F.svg</title><circle cx="36.366" cy="28.349" r="10" fill="#e67a94"/><path fill="#b1cc33" d="M35.1853 17.2058c-5.8765.5287-10.5159 6.6407-10.5159 14.1212 0 7.8277 5.0764 14.1733 11.3386 14.1733s11.3387-6.3456 11.3387-14.1733a17.2594 17.2594 0 0 0-.7674-5.0941 9.9175 9.9175 0 0 1-11.394-9.0271zm19.7602 43.7527s2-12.6032-10-12.6032c-3.1918 2.128-5.9264 3.5985-9 3.5922h.125c-3.0736.0063-5.8081-1.4642-9-3.5922-12 0-10 12.6032-10 12.6032"/><path fill="#d0cfce" d="M46.362 48.3253l-.9075.8851a15.6367 15.6367 0 0 1-5.3451 5.81l-2.0029 5.7446-2-4.5853c-3.337.02-6.674-2.2824-9.3481-6.9693l-.55-.9118c-10.9306.6777-9.0393 12.6875-9.0393 12.6875l3.1531-.007 2.0839-4.7825 1.5287 4.8108 31.18-.05"/><path fill="#fcea2b" d="M32.0082 38.3478s8-3.11 8 0c0 6.2422-8 0-8 0z"/><path fill="#9b9b9a" d="M42.5157 52.7743c6.4062 1.661 6.5337 5.0343 7.1339 8.1842h5.1128s1.8925-11.904-9.05-12.5747q-.46-.0282-.95-.0285"/><path fill="#5c9e31" d="M30.0082 29.9816v2.041a2.1088 2.1088 0 0 0 1.7064 2.1339 2.0016 2.0016 0 0 0 2.2936-1.9791v-2.1958a.0571.0571 0 0 0-.0571-.0571h-3.8858a.057.057 0 0 0-.0571.0571zm8-.0571v2.2529a2 2 0 0 0 4 0v-2.2529z"/><path fill="#fff" d="M42.0082 29.9662a2 2 0 1 1-2-2 2.0007 2.0007 0 0 1 2 2m-8 0a2 2 0 1 1-2-2 2.0007 2.0007 0 0 1 2 2"/><path fill="#3f3f3f" d="M53.0521 51.4424s6.0211-3.94 3.7911-8.3254c-1.865-3.6679-3.05-2.9718-5.5723-6.6808 0 0 4.5573.7879 4.9282-3.0695 0 0-4.1419-.5987-4.5869-2.6015 2.032.3261.315-14.02-6.6162-6.9837.2355-1.2222 8.9306 17.7872-7.1192 21.454-15.3929 3.5166-17.0529-28.1861-2.3575-28.141l2.7526 1.31c.609-.5622 1.5694-2.5768.5622-4.0525-1.4611-2.1406-6.4019-3.4788-13.79.6178-2.8847-.8727-7.5511 13.4479-10.4593 13.8716 0 0 2.5221 3.4864 5.5634 1.3352 0 0-.0313 1.2369-3.7089 8.3082-4.4193 8.4972 4.9328 11.9654 4.1292 11.9166 0 0 5.2327-3.6286 6.9235-2.8668 2.3857 1.0749 8.0418 8.8 17.4322.0742-.0004.0004 6.7751 1.079 8.1279 3.8336z"/><g><path fill="none" stroke="#000" stroke-linecap="round" stroke-linejoin="round" stroke-width="2" d="M35.1853 17.2058c-5.8765.5287-10.5159 6.6407-10.5159 14.1212 0 7.8277 5.0764 14.1733 11.3386 14.1733s11.3387-6.3456 11.3387-14.1733a17.2594 17.2594 0 0 0-.7674-5.0941 9.9175 9.9175 0 0 1-11.394-9.0271z"/><path fill="none" stroke="#000" stroke-linecap="round" stroke-linejoin="round" stroke-width="2" d="M45.3916 25.3133a2 2 0 0 0-1.3286-2.18 1.9753 1.9753 0 0 0 .3775-.8915 1.9931 1.9931 0 0 0-2.79-2.1141 1.9923 1.9923 0 0 0-3.3909-1.3058 1.9922 1.9922 0 0 0-2.7713-.4814"/><path fill="none" stroke="#000" stroke-linecap="round" stroke-linejoin="round" stroke-width="2" d="M35.1853 17.2058q.0408.48.1262.9464a9.9978 9.9978 0 0 0 9.4213 8.1878q.2037.0082.4093.0082a10.0162 10.0162 0 0 0 1.4372-.1149M32.0082 38.3478s8-3.11 8 0c0 6.2422-8 0-8 0zm7.4328 1.7162h-4.299"/><path fill="none" stroke="#000" stroke-linecap="round" stroke-linejoin="round" stroke-width="1.5" d="M36.952 40.064v-2.925"/><path fill="none" stroke="#000" stroke-linecap="round" stroke-linejoin="round" stroke-width="2" d="M26.66 48.974c2.6741 4.6869 6.0111 6.99 9.3481 6.9693l2 4.0183 2.0029-5.1777a15.6376 15.6376 0 0 0 5.3451-5.81M43.558 57.289l-.756 2.663m-22.578-.032l2.084-3.563 1.528 3.563"/><path d="M55.008 60.9662a1 1 0 0 1-1-1v-3c0-4.4517-4.4961-7.81-8.6518-7.9922-6.2051 5.0117-12.4912 5.0117-18.6963 0-4.1558.1817-8.6519 3.5405-8.6519 7.9922v3a1 1 0 0 1-2 0v-3c0-5.3247 5.14-9.9976 11-10a.9994.9994 0 0 1 .64.2319c5.625 4.6875 11.0947 4.6875 16.72 0a.9994.9994 0 0 1 .64-.2319c5.8594.0024 11 4.6753 11 10v3a1 1 0 0 1-1 1z"/><path fill="none" stroke="#000" stroke-miterlimit="10" stroke-width="1.5" d="M42.0082 29.9662a2 2 0 1 1-2-2 2.0007 2.0007 0 0 1 2 2m-8 0a2 2 0 1 1-2-2 2.0007 2.0007 0 0 1 2 2"/><path fill="none" stroke="#000" stroke-linecap="round" stroke-linejoin="round" stroke-width="2" d="M48.5353 22.8288c5.0381.18 3.4578 6.7348 3.03 7.2054a4.4742 4.4742 0 0 0 4.6831 2.5273c-.3149 3.5538-3.68 3.2945-4.7574 3.2707a9.3964 9.3964 0 0 0 2.899 4.6831 5.02 5.02 0 0 1 .5947 7.7308m-36.8325-1.0233c-3.1087-2.9376-3.6951-8.0927-.2186-11.1464a7.2646 7.2646 0 0 0 2.1143-5.2045c-2.6565 1.2469-5.1757-.6366-5.9093-1.6807 1.5855-.3927 4.1821-3.7919 4.6165-5.89 1.48-5.5 5.1875-9.769 11.5628-10.6191 4.2819-.5709 6.484.4078 7.6666 2.1614"/></g></svg>