<svg xmlns="http://www.w3.org/2000/svg" role="img" viewBox="10.00 10.13 51.88 52.00"><title>0038-FE0F-20E3.svg</title><path fill="#d0cfce" d="M11.75 12.416h48V60.25h-48z"/><g fill="none" stroke="#000" stroke-linecap="round" stroke-linejoin="round" stroke-width="2"><path d="M12 12.166h48v48H12z"/><path d="M31.3392 40.518h0a4.3461 4.3461 0 0 0 4.3459 4.3459h.63a4.3459 4.3459 0 0 0 4.3459-4.3459h0a4.346 4.346 0 0 0-4.3459-4.3459h-.63a4.3462 4.3462 0 0 0-4.3459 4.3459zm0-8.7037h0a4.346 4.346 0 0 0 4.3459 4.3457h.63a4.3458 4.3458 0 0 0 4.3459-4.3459h0a4.3458 4.3458 0 0 0-4.3459-4.3456h-.63a4.346 4.346 0 0 0-4.3459 4.3458z"/></g></svg>