<svg xmlns="http://www.w3.org/2000/svg" role="img" viewBox="12.58 15.83 47.85 48.10"><title>1F337.svg</title><path fill="#5C9E31" d="M23.6968 59.4302s-8.7685-5.362-9.193-14.6985c-.4359-9.5866 9.2144-26.9468 9.2144-26.9468s-4.7203 20.7062-.0214 41.6453z"/><path fill="#F4AA41" d="M50.7169 27.3033c-2.7631-.1233-8.0574 1.5799-9.5149 2.8892-2.4893 2.2362-2.9448 2.8517-3.8431 6.4732-.1034.4169.08.5524.1891 1.413.1488 1.1738-3.5923-1.3633-3.5923-1.3633-2.1365-1.8582-1.2818-5.2882-.1597-7.8879 2.6922-6.2376 14.314-9.8962 16.4506-8.0381 0 0 .9568 1.2159 1.1218 6.4742l-.6515.0397z"/><path fill="#F4AA41" d="M57.2882 29.8721c1.3436 2.4925-3.0561 13.578-9.7327 14.8346-2.1528.4052-3.8746-.0623-5.7286-1.4619-.9986-.7539-1.8237-1.7212-2.4582-2.7997-1.5547-2.3665-.8443-5.7082.9387-7.9079 4.278-5.2777 15.4261-5.0316 16.9808-2.6651"/><path fill="#E27022" d="M52.9482 22.6663c2.1629-.5025 4.2949-.3222 4.8381.3621m-6.418 4.2352s-.3688-4.5372-.4588-4.763c-.1099-.2756 3.1089-2.0736 6.8768-1.1484 3.7679.9252 0 7.9946 0 7.9946l-1.3267-.9953c-.2155-.1617-.4588-.2727-.7228-.3265-1.181-.2407-4.3685-.7614-4.3685-.7614z"/><g fill="none" stroke="#000" stroke-linecap="round" stroke-linejoin="round" stroke-width="2"><path d="M23.6968 59.4302s-8.7685-5.362-9.193-14.6985c-.4359-9.5866 9.2144-26.9468 9.2144-26.9468s-4.7203 20.7062-.0214 41.6453zm10.391-18.1413c-3.438 3.548-7.676 10.246-5.829 20.735m28.825-32.1518c1.3436 2.4925-3.0561 13.578-9.7327 14.8346-2.1528.4052-3.8746-.0623-5.7286-1.4619-.9986-.7539-1.8237-1.7212-2.4582-2.7997v0c-1.5547-2.3665-.8443-5.7082.9387-7.9079 4.278-5.2777 15.4261-5.0316 16.9808-2.6651m-3.547-7.5304c2.1629-.5025 4.2949-.3222 4.8381.3621m.0001.0001c.3869.5853.2321 2.1634-.3773 3.8327m-23.4319 9.391c-2.1322-1.8631-1.8894-4.8477-.7613-7.4448 2.7067-6.2313 13.5127-8.9826 15.645-7.1195m-.1457-.1679c.506.5262.7973 1.5901.8465 3.1014"/></g></svg>