<svg xmlns="http://www.w3.org/2000/svg" role="img" viewBox="10.00 10.00 51.87 51.87"><title>1F3C9.svg</title><path fill="#f4aa41" d="M58.6194 13.2261c-12.3292-3.2325-25.9985-.0171-35.6616 9.646-9.6832 9.6832-12.8918 23.3893-9.6257 35.7385l.0486.0486c12.3292 3.2325 25.9985.0171 35.6616-9.646C58.7255 39.33 61.934 25.6239 58.668 13.2747"/><path fill="#e27022" d="M60.0187 20.3525c-1.4674 9.6513-6.7618 19.7594-15.3964 25.7913-9.7444 6.8072-21.6281 8.2594-32.1623 4.9803.1342 2.5292.5149 5.0476 1.1665 7.5114l.0484.0484c12.283 3.2204 25.9011.017 35.5281-9.6099 7.6078-7.6077 11.2312-18.7573 10.8157-28.7215z"/><g fill="none" stroke="#000" stroke-linecap="round" stroke-linejoin="round" stroke-miterlimit="10" stroke-width="2"><path d="M58.6194 13.2261c-12.3292-3.2325-25.9985-.0171-35.6616 9.646-9.6832 9.6832-12.8918 23.3893-9.6257 35.7385l.0486.0486c12.3292 3.2325 25.9985.0171 35.6616-9.646C58.7255 39.33 61.934 25.6239 58.668 13.2747m.001.0013L13.333 58.612m28.242-24.165l-4.079-4.08m7.615.544l-4.08-4.079m-2.991 11.15l-4.08-4.079m.544 7.615l-4.079-4.079m.543 7.614l-4.079-4.079m-.8734-4.8946c0-1.7991.4751-3.4872 1.3066-4.9457m13.6856 13.6124c-1.4691.8481-3.174 1.3333-4.9922 1.3333m10-10c0 1.8198-.4861 3.5261-1.3355 4.996m-13.694-13.641c1.4575-.8498 3.1494-1.3415 4.9551-1.3547"/></g></svg>