<svg xmlns="http://www.w3.org/2000/svg" role="img" viewBox="2.72 14.72 66.43 42.43"><title>1F3F4-E0065-E0073-E0076-E0063-E007F.svg</title><path fill="#f1b31c" d="M5 17h62v38H5z"/><path fill="#d22f27" d="M5 22h62v4H5zm0 8h62v4H5zm0 8h62v4H5zm0 8h62v4H5z"/><rect width="4.206" height="35.92" x="16.27" y="18.17" fill="#fcea2b" stroke="#fcea2b" stroke-linecap="square" stroke-width="1.957" rx="0" ry="0"/><rect width="13.85" height="37.87" x="5.168" y="17.08" fill="#1e50a0" rx="0" ry="0"/><rect width="3.507" height="36.08" x="20.4" y="18.09" fill="#d22f27" stroke="#d22f27" stroke-linecap="square" stroke-width="1.791" rx="0" ry="0"/><ellipse cx="22.22" cy="24.02" fill="#d22f27" stroke="#fcea2b" stroke-linecap="square" stroke-width=".25" rx="1.057" ry="1.093"/><ellipse cx="22.22" cy="20" fill="#fff" rx="1.057" ry="1.093"/><ellipse cx="22.22" cy="28.04" fill="#fff" rx="1.057" ry="1.093"/><ellipse cx="22.22" cy="36.08" fill="#fff" rx="1.057" ry="1.093"/><ellipse cx="22.22" cy="44.12" fill="#fff" rx="1.057" ry="1.093"/><ellipse cx="22.22" cy="52.16" fill="#fff" rx="1.057" ry="1.093"/><ellipse cx="22.22" cy="32.06" fill="#5c9e31" rx="1.057" ry="1.093"/><ellipse cx="22.22" cy="40.1" fill="#d22f27" stroke="#fcea2b" stroke-linecap="square" stroke-width=".25" rx="1.057" ry="1.093"/><ellipse cx="22.22" cy="48.14" fill="#5c9e31" rx="1.057" ry="1.093"/><g fill="none" stroke="#fcea2b" stroke-linecap="round" stroke-linejoin="round" stroke-width="1.027"><path d="M10.33 19.55s-.6551-.8387.6787-1.093c1.334-.2543 1.009 1.412 3.463 4.349M10.51 26.78s-.6551.8387.6787 1.093c1.334.2545 1.009-1.412 3.463-4.349M15.87 19.74l2.804-.1029M14.87 23.2l1.567-.02184 2.266-1.204M16.44 23.18l2.254 1.565M9.542 23.19l5.332.0112M11.04 21.69l1.163 1.5m-1.143 1.49l1.139-1.496M10.2 32.26s-.6551-.8387.6787-1.093c1.334-.2543 1.009 1.412 3.463 4.349M10.38 39.49s-.6551.8387.6787 1.093c1.334.2543 1.009-1.412 3.463-4.349m.2183-.324l1.567-.02184 2.266-1.204M16.3 35.88l2.254 1.565M9.41 35.9l5.332.0112M10.91 34.41l1.163 1.5M10.93 37.4l1.139-1.496M10.23 45.39s-.6551-.8387.6787-1.093c1.334-.2545 1.009 1.412 3.463 4.349M10.41 52.62s-.6551.8387.6787 1.093c1.334.2545 1.009-1.412 3.463-4.349m.2183-.324l1.567-.02184 2.266-1.204M16.33 49.02l2.254 1.565M9.438 49.03l5.332.0112M10.94 47.54l1.163 1.5m-1.143 1.49l1.139-1.496M15.84 26.51l2.832.1235M15.84 32.75l2.832-.1303M15.81 39.55l2.818.1098M15.84 45.63l2.832-.06258M15.81 52.67l2.86.09644M14.29 29.63l3.22.01907 1.074-.7169M17.51 29.65l1.111 1.133M10.71 29.56l1.927.06778M14.57 28.55l1.213 1.078M14.57 30.73l1.325-1.092" transform="matrix(1.001 0 0 .9465 .087 1.925)"/><path d="M14.57 28.55l-1.933 1.07 1.933 1.1m-.25 11.86l3.22.01908 1.074-.7169M17.54 42.6l1.111 1.133M10.74 42.52l1.927.06778M14.6 41.51l1.213 1.078M14.6 43.68l1.325-1.092" transform="matrix(1.001 0 0 .9465 .087 1.925)"/><path d="M14.6 41.51l-1.933 1.07 1.933 1.1" transform="matrix(1.001 0 0 .9465 .087 1.925)"/></g><g><path fill="none" stroke="#000" stroke-linecap="round" stroke-linejoin="round" stroke-width="2" d="M5 17h62v38H5z"/></g></svg>