<svg xmlns="http://www.w3.org/2000/svg" role="img" viewBox="12.13 10.00 48.00 52.00"><title>1F647-200D-2640-FE0F.svg</title><path fill="#92d3f5" d="M21.1668 33.0423a23.705 23.705 0 0 0-3.665 2.333c-2.2159 1.7734-3.918 16.334-3.834 17.667s1.583 7.916 2.25 7.916H56.25s2.166-3.333 2.083-4.333.25-14.749-1.166-16.583-1.5459-4.1895-2.418-4.833a28.5671 28.5671 0 0 0-3.582-2.167"/><path d="M39.1668 36.0423c0 4-14 2-14 6s4.873 8 10.9365 8c5.9365 0 11.0635-4 11.0635-10 0-2-7-2-8-4m-5 22a1.92 1.92 0 0 1-2 1.9414c-1.1025 0-6 .0586-6 .0586h-6s0-4 5-4h7a1.9588 1.9588 0 0 1 2 2zm4 0a1.92 1.92 0 0 0 2 1.9414c1.1025 0 6 .0586 6 .0586h6s0-4-5-4h-7a1.9588 1.9588 0 0 0-2 2z" fill="#fcea2b"/><path fill="#f1b31c" d="M43.0879 47.899c2.9254-1.5092 4.157-7.0041 3.9423-7.9341s-7.9409-3.9226-7.9409-3.9226c-2.0747 5.6638-7.4411.42-12.9225 4.4718-4.6763 3.457 5.18 8.6662 5.18 8.6662-8.7621 5.2459-10.3325-3.9487-10.3325-3.9487-2.187-5.7992 1.1523-5.1893 1.1523-12.1893s4-14 14-14 14 7 14 14S52.89 43.3872 51.4155 48.56c0 0-4.2487 5.6569-9.2487.6922z"/><g fill="none" stroke="#000" stroke-linecap="round" stroke-width="2"><path stroke-linejoin="round" d="M25.878 49.8c-9.9825-1.7577-3.7112-9.7577-3.7112-16.7577s4-14 14-14 14 7 14 14 5.6037 16.0533-3.3329 17.2439"/><path stroke-linejoin="round" d="M39.1668 36.0423c0 4-14 2-14 6h0c0 4 4.873 8 10.9365 8 5.9365 0 11.0635-4 11.0635-10h0c0-2-7-2-8-4m-5 22a1.92 1.92 0 0 1-2 1.9414c-1.1025 0-6 .0586-6 .0586h-6s0-4 5-4h7a1.9588 1.9588 0 0 1 2 2zm4 0a1.92 1.92 0 0 0 2 1.9414c1.1025 0 6 .0586 6 .0586h6s0-4-5-4h-7a1.9588 1.9588 0 0 0-2 2zm-20-22s-4 3-4 12v4c0 3 0 6 2 8m38-24s4 3 4 12v5c0 3 0 5-2 7M23.167 15.042l3 3m5-3l-2-3m20 3l-3 3m-5-3l2-3m-4.0002 24.0003v-7"/><path stroke-miterlimit="10" d="M33.1668 43.0423a2.7822 2.7822 0 0 1-3 0m9 0a2.9662 2.9662 0 0 0 3 0"/></g></svg>