<svg xmlns="http://www.w3.org/2000/svg" role="img" viewBox="2.46 24.96 66.95 33.45"><title>1F69B.svg</title><path fill="#d0cfce" d="M10.3401 52.88H5.86c-.5499 0-.99-.44-1-.99l-.0859-7.277c-.0056-.4754.1011-.944.3129-1.3697.2638-.5303.6003-1.2013.6404-1.2545.0577-.0765.1028-.1579.1358-.248.1679-.4566.7625-2.1888 2.1969-7.3608 1.4499-5.23 10.53-5.92 13.6098-6 .5601-.01 1.02.44 1.02 1v22.5c0 .32-.0024.745-.0024.745"/><path fill="#3f3f3f" d="M44.625 52.19H26.1899V28.31c0-.55.4501-1 1-1H66.25c.55 0 1 .45 1 1v21.88c0 .55-.8091 1.968-1.3591 1.968l-7.7509.032"/><circle cx="16.333" cy="53.25" r="3" fill="#d0cfce" stroke-miterlimit="10" stroke-width="2"/><path fill="#3f3f3f" d="M9.8333 41l5.875.0208.125-6.8958-3.1939.068c-.4314.0091-.8082.294-.9347.7065L9.8333 41"/><circle cx="57.417" cy="53.25" r="3" fill="#d0cfce" stroke-miterlimit="10" stroke-width="2"/><circle cx="48.417" cy="53.25" r="3" fill="#d0cfce" stroke-miterlimit="10" stroke-width="2"/><g fill="none" stroke="#000" stroke-miterlimit="10" stroke-width="2"><circle cx="16.333" cy="53.25" r="3"/><path stroke-linecap="round" stroke-linejoin="round" d="M10.75 41h5.083v-5.917"/><circle cx="57.417" cy="53.25" r="3"/><circle cx="48.417" cy="53.25" r="3"/><path stroke-linecap="round" stroke-linejoin="round" d="M10.3401 51.88H5.86c-.5499 0-.99-.44-1-.99l-.0859-6.277c-.0056-.4754.1011-.944.3129-1.3697.2638-.5303.6003-1.2013.6404-1.2545.0577-.0765.8983-2.4368 2.3327-7.6088 1.4499-5.23 10.53-5.92 13.6098-6 .5601-.01 1.02.44 1.02 1v21.5c0 .32-.0024.745-.0024.745m19.9375-.435H26.1899V28.31c0-.55.4501-1 1-1H66.25c.55 0 1 .45 1 1v21.88c0 .55-.45 1-1 1h-3.11"/></g></svg>