<svg xmlns="http://www.w3.org/2000/svg" role="img" viewBox="19.55 15.67 38.40 49.40"><title>E0B3.svg</title><path fill="#fff" d="M28.77 17.5957a3.8637 3.8637 0 0 0-3.8637 3.8637v16.4282h7.7273V21.4594a3.8636 3.8636 0 0 0-3.8636-3.8637z"/><path fill="#ea5a47" d="M32.3923 48.9127a7.8209 7.8209 0 1 1-7.1763-.014V35.461s6.3086 1.1094 7.163-.7251z"/><path fill="#fff" d="M37.2661 22.206a2.4562 2.4562 0 0 0-2.217 2.628l-.8037 7.0837-.9019 1.877c0 .1971.4545.3128.5653.2471l4.1887-1.1925a.3686.3686 0 0 1 .3326-.1314H53.783A2.4562 2.4562 0 0 0 56 30.09v-5.256a2.4562 2.4562 0 0 0-2.217-2.628z"/><g><path fill="#d22f27" d="M29.5311 36.047a8.5613 8.5613 0 0 0 3.1895-.8825l.0168 13.387a1.7357 1.7357 0 0 0 .38 1.0937c1.5413 1.8989 3.0231 3.7055 3.0231 6.4643a7.2153 7.2153 0 0 1-7.4163 7.1359s7.1832-5.41 1.203-11.7924a2.1565 2.1565 0 0 1-.3918-1.2619z"/></g><g fill="none" stroke="#000" stroke-width="2"><g stroke-linecap="round" stroke-linejoin="round"><path d="M30.4881 40.6758a12.6005 12.6005 0 0 1-2.4173.1889c-1.59 0-2.8791-.1853-2.8791-.4138m5.2964 5.6978a12.6005 12.6005 0 0 1-2.4173.1889c-1.59 0-2.8791-.1853-2.8791-.4138m4.5674-10.6113a13.1556 13.1556 0 0 1-2.2837.07c-1.59 0-2.2837-.1762-2.2837-.4047m5.2964-5.2478a12.6005 12.6005 0 0 1-2.4173.1889c-1.59 0-2.8791-.1853-2.8791-.4138"/><path d="M32.42 37.8876V48.719a2.1666 2.1666 0 0 0 .9233 1.5989 7.2252 7.2252 0 1 1-11.0861 2.5735"/><path d="M24.2854 50.3091a2.1032 2.1032 0 0 0 .9068-1.59V21.2835a3.6137 3.6137 0 0 1 7.2273 0l.0105 8.4285"/><path d="M30.4881 24.2571a12.6005 12.6005 0 0 1-2.4173.1889c-1.59 0-2.8791-.1852-2.8791-.4138"/></g><path stroke-miterlimit="10" d="M37.2661 22.206a2.4562 2.4562 0 0 0-2.217 2.628l-.52 6.7082-2.32 3.5085a.2268.2268 0 0 0 .1471.3411s5.9633-2.6739 6.0742-2.6739H53.783A2.4562 2.4562 0 0 0 56 30.09v-5.256a2.4562 2.4562 0 0 0-2.217-2.628z"/></g></svg>