<svg xmlns="http://www.w3.org/2000/svg" role="img" viewBox="14.52 3.77 42.70 63.70"><title>1F931.svg</title><g id="color"><path fill="#92D3F5" d="M35.0359 50.9573c-3.3514.6469-6.5323 2.0356-9.4541 4.5483-3.542-1.1069-5.5639-2.594-4.8048-7.7038.4237-2.8517 2.3245-8.1187 3.8385-11.9767l4.5164-1.1455C28.7706 42.8019 30.3749 48.6487 35.0359 50.9573zM54.7363 47.1351c0 0-1.4193-4.8441-1.8906-6.4043-.4712-1.5602-1.641-3.9508-4.1093-5.8043h.1166c-1.0415 2.842-2.2128 5.288-3.5408 7.2562"/><path fill="#E27022" d="M40.6536,50.4989c-2.3394-0.2048-5.0554,0.0429-7.8517,0.8091 c-7.2305,1.9814-12.2576,6.6797-11.2281,10.494c1.029,3.8141,7.7252,5.7661,14.9563,3.7847 c5.1971-1.4242,9.2563-4.4929,10.7457-7.5227C42.1073,57.0539,40.1605,54.3988,40.6536,50.4989z"/></g><g id="hair"><path fill="#A57939" d="M37.0112,5.5444H36.403c-10.662,0.072-13.8137,9.1852-13.2013,17.5008 c0.6118,8.3156,5.0449,8.6202,5.0449,8.6202c7.1856,1.5858,10.6109,2.4438,19.3463-1.3634 c1.1555-1.1618,2.3231-3.2142,2.6202-7.2568C50.8255,14.7296,47.6737,5.6164,37.0112,5.5444z"/></g><g id="skin"><path fill="#FCEA2B" d="M20.6455 48.4473c-1.6956 4.6389-3.6227 8.4184-3.6227 8.4184-.5984 2.7267-.2715 5.1299 2.8906 6.5416l3.9165-6.3524M34.6757 50.7674l5.9779-.2685 1.3003 5.0409c1.3312 1.6315 3.3555 2.6745 5.625 2.6745 4.0083 0 7.2574-3.249 7.2574-7.2571 0-.9559-.1895-1.8664-.5259-2.7022l.0006-.0003c0 0-.5267-1.5108-1.273-3.5306-.2551-.6903-6.1736-.9213-6.4677-1.6905-1.1971-3.1305 3.0216-7.1018 2.2068-8.1807-2.857-3.7827-7.2266.3118-7.2266.3118-6.3461 4.5039-12.5558-.3118-12.5558-.3118C27.8384 46.3277 34.6757 50.7674 34.6757 50.7674z"/><path fill="#FCEA2B" d="M41.5754 65.0199c-.2884.0285-1.2082-.1543-2.044-.4062 0 0 0 0-.3232-.7627-.4307-1.0176.0449-2.1914 1.0615-2.6221 2.2149-.9375.5252-.3051 2.3885-.9818 3.3086-1.2032 5.22-2.1762 5.22-2.1762 1.4705-.7485 2.9947-2.6722 3.3871-4.2748 0 0 .0218-.0891-.2301-1.3479-.2168-1.083.4853-2.1367 1.5683-2.3535 1.0889-.2168 2.1367.4864 2.3535 1.5684.5124 2.5592.6346 6.8012.452 7.8839-.0231.1369-.1635.3128-.2044.3443-2.4975 1.9276-7.4647 3.5946-11.1802 4.9446-1.9053.6923-.076-.8209-2.1941.0766C41.5754 65.0199 41.5754 65.0199 41.5754 65.0199zM45.7841 18.9705c-7.3556-.2979-13.7002-8.0627-13.7002-8.0627l-.001-.0013c-2.3749 1.8821-3.9396 5.0951-3.9396 8.7426 0 5.799 3.9552 10.5001 8.834 10.5001 4.879 0 8.8341-4.7011 8.8341-10.5001 0-.2281-.0062-.4546-.0182-.6791"/><path fill="none" stroke="#FCEA2B" stroke-linecap="round" stroke-linejoin="round" stroke-miterlimit="10" stroke-width="4" d="M19.9134,59.5894c0.4496,0.2901,0.6421,3.5438,9.12,3.1549"/></g><g id="line"><path fill="none" stroke="#000" stroke-linecap="round" stroke-linejoin="round" stroke-miterlimit="10" stroke-width="2" d="M39.2503 50.2592c0 0-12.5801.5886-16.5557 9.17M29.236 34.9309c0 0-.9656 13.6674 6.1998 15.8365M24.616 56.497L23.044 52.589M46.161 42.74L45.811 40.203M45.7841 18.9705c-7.3556-.2979-13.7002-8.0627-13.7002-8.0627l-.001-.0013c-2.3749 1.8821-3.9396 5.0951-3.9396 8.7426 0 5.799 3.9552 10.5001 8.834 10.5001 4.879 0 8.8341-4.7011 8.8341-10.5001 0-.2281-.0062-.4546-.0182-.6791"/><path fill="none" stroke="#000" stroke-linecap="round" stroke-linejoin="round" stroke-miterlimit="10" stroke-width="2" d="M46.9541 29.5361c1.0908-1.0969 2.2245-3.1449 2.5054-6.9619C50.0374 14.7226 47.0619 6.118 36.9944 6.05h-.5742c-10.0674.068-13.043 8.6726-12.4651 16.5242s4.7639 8.218 4.7639 8.218M29.9357 63.652c-16.6632 2.7202-12.6715-6.7863-12.6715-6.7863s5.9595-16.1513 7.2632-20.0109c.6696-1.9827 4.7086-2.0019 4.7086-2.0019s6.2092 4.8158 12.5558.3118c0 0 4.3693-4.0945 7.2262-.3118.6918.916 1.8192 3.5429 2.8765 6.231"/><circle cx="47.82" cy="50.957" r="7.257" fill="none" stroke="#000" stroke-linecap="round" stroke-linejoin="round" stroke-miterlimit="10" stroke-width="2"/><path fill="none" stroke="#000" stroke-linecap="round" stroke-linejoin="round" stroke-miterlimit="10" stroke-width="2" d="M40.4658,64.9149c8.909-2.032,13.9866-5.5255,13.9866-5.5255"/><circle cx="22.713" cy="59.331" r="1"/></g></svg>