<svg xmlns="http://www.w3.org/2000/svg" role="img" viewBox="2.72 14.72 66.43 42.43"><title>1F1F8-1F1FF.svg</title><path fill="#d22f27" d="M5 17h62v38H5z"/><path fill="#1e50a0" stroke="#f1b31c" stroke-miterlimit="10" d="M5 48h62v7H5zm0-31h62v7H5z"/><path fill="none" stroke="#fcea2b" stroke-linecap="round" stroke-linejoin="round" stroke-width=".968" d="M19.362 28.927h36.801m-40.147 4.182h36.801"/><path fill="none" stroke="#fcea2b" stroke-linecap="round" stroke-linejoin="round" stroke-width=".925" d="M11.676 36.478h48.827"/><path d="M48.6477 32.309a17.8474 17.8474 0 0 0-25.2386 0l-3.9549 3.9544a.3035.3035 0 0 0 0 .4293l3.9549 3.9544a17.8474 17.8474 0 0 0 25.2386 0l3.9549-3.9544a.3035.3035 0 0 0 0-.4293z"/><path fill="#fff" d="M36.09 45.6893a.3112.3112 0 0 0 .3118.3107 17.4822 17.4822 0 0 0 12.1535-5.1379l4.1695-4.169a.3036.3036 0 0 0 0-.4293l-4.1695-4.169a17.4813 17.4813 0 0 0-12.1535-5.1382.3111.3111 0 0 0-.3123.3106z"/><path d="M23.89 34.3h9.68m-9.68 4.356h9.68" fill="none" stroke="#fff" stroke-linecap="round" stroke-linejoin="round" stroke-width="1.936"/><path d="M38.411 34.3h9.68m-9.68 4.356h9.68" fill="none" stroke="#000" stroke-linecap="round" stroke-linejoin="round" stroke-width="1.936"/><circle cx="31.119" cy="30.645" r="2.904" fill="#1e50a0" stroke="#000" stroke-linecap="round" stroke-linejoin="round" stroke-width=".968"/><circle cx="12.766" cy="38.292" r="2.904" fill="#1e50a0" stroke="#000" stroke-linecap="round" stroke-linejoin="round" stroke-width=".968"/><circle cx="60.178" cy="38.292" r="2.904" fill="#1e50a0" stroke="#000" stroke-linecap="round" stroke-linejoin="round" stroke-width=".968"/><g><path fill="none" stroke="#000" stroke-linecap="round" stroke-linejoin="round" stroke-width="2" d="M5 17h62v38H5z"/></g></svg>