<svg xmlns="http://www.w3.org/2000/svg" role="img" viewBox="12.12 9.74 47.88 52.26"><title>1F9DD-1F3FB.svg</title><path fill="#b1cc33" d="M54.9563 60.9315s2-14.0268-10-14.0268c-3.1919 2.1279-5.9264 3.5984-9 3.5921h.125c-3.0736.0063-5.8082-1.4642-9-3.5921-12 0-10 14.0268-10 14.0268z"/><path fill="#5c9e31" d="M45.3423 46.9047a18.0129 18.0129 0 0 1-8.9375 3.5885c13.0625.4115 12.9775 6.395 13.74 10.395h5.1129s2.0846-13.9835-9.9154-13.9835z"/><path fill="#6a462f" d="M18.09 52.064v-9.565h7.085v3.564"/><path fill="#a57939" d="M48.0012 60.9583c-18.4989-5.1358-20.92-14.0536-20.92-14.0536s-4.2.2046-5.6776 1.3537c3.1163 6.4287 5.9346 9.5505 14.1044 12.6807"/><g fill="#fadcbc"><path d="M38.1218 20.7907a9.3946 9.3946 0 0 1-2.18-5.054c-.028 0-.0549-.0052-.0829-.0052a8.2719 8.2719 0 0 1-1.98 5.0591 10.8766 10.8766 0 0 1-8.7937 4.7087 17.3993 17.3993 0 0 0-.5656 4.4052c0 7.8277 5.0765 14.1732 11.3386 14.1732s11.3386-6.3455 11.3386-14.1732a17.3453 17.3453 0 0 0-.6258-4.6109 9.7529 9.7529 0 0 1-8.4492-4.5029z"/><path d="M46.5736 24.71l11.45-1.6359s-6.2678 9.8488-10.494 8.7989m-22.0657-7.182l-11.3175-1.6171s6.1889 9.7351 10.3663 8.6973"/></g><g fill="#a57939"><path d="M35.8592 11.8839A15.35 15.35 0 0 0 20.7228 24.73c8.8261 3.0574 13.1564-3.9388 13.1564-3.9388a8.2716 8.2716 0 0 0 1.98-5.0592h.0826a9.3969 9.3969 0 0 0 2.18 5.0592s3.413 6.46 12.8727 3.93a15.3509 15.3509 0 0 0-15.1353-12.8373zm1.6172 32.6241l-5.1958-.6448-4.21-2.6168-3.413-6.1064-.3792-2.8444-2.3514-.4172-2.9109-2.2636v12.5535l6.159.3305v4.5958l1.9062-.19c3.17 2.1133 5.8895 3.5747 8.9375 3.5885 3.048-.0138 5.7675-1.4752 8.9375-3.5885A9.6884 9.6884 0 0 1 51.51 49.04a12.86 12.86 0 0 0 .6612-4.1082c0-16.6561-.27-14.3257-.27-14.3257l-2.3264 1.4249-2.2.2655-1.2895 4.8923-3.6029 4.9683z"/></g><g><path d="M42.0189 28.5439a2 2 0 1 1-2-2 2.0007 2.0007 0 0 1 2 2m-8 0a2 2 0 1 1-2-2 2.0007 2.0007 0 0 1 2 2m1.9999 10.0024a7.6528 7.6528 0 0 1-3.4473-.8579 1 1 0 0 1 .8945-1.7891 5.3774 5.3774 0 0 0 5.1055 0 1 1 0 1 1 .8945 1.7891 7.6524 7.6524 0 0 1-3.4472.8579z"/><path fill="none" stroke="#000" stroke-linecap="round" stroke-linejoin="round" stroke-width="2" d="M50.9662 24.1052c-4.4734-13.6208-14.9474-12.2213-14.9474-12.2213S25.6656 10.5005 21.15 23.87m5.6885-2.3315a6.5528 6.5528 0 0 0 6.0977 1.5354m12.2628-1.5354a6.5525 6.5525 0 0 1-6.0976 1.5354"/><circle cx="36.019" cy="22.105" r="1.5"/><path fill="none" stroke="#000" stroke-linecap="round" stroke-linejoin="round" stroke-width="2" d="M25.4639 24.691l-11.3175-1.6171s6.1889 9.7351 10.3663 8.6973m11.5061-16.0397a20.4581 20.4581 0 0 1-3.08 5.0592M46.5736 24.71l11.45-1.6359s-6.2678 9.8488-10.494 8.7989M36.0188 15.7315a20.4558 20.4558 0 0 0 3.08 5.0592M51.218 30.988v13.503M18.09 52.064v-9.565h7.085v3.564m-5.151-3.603v-4.743m3.372 4.782v-3.442"/><path fill="none" stroke="#000" stroke-linecap="round" stroke-linejoin="round" stroke-width="2" d="M54.9563 59.9047s2-13-10-13c-3.1919 2.1279-5.9264 3.5984-9 3.5921h.125c-3.0736.0063-5.8082-1.4642-9-3.5921-12 0-10 13-10 13m9.3604-35.4026l-.9825.2293a17.29 17.29 0 0 0-.779 5.1733c0 7.8276 5.0765 14.1732 11.3386 14.1732s11.3386-6.3456 11.3386-14.1732a17.29 17.29 0 0 0-.7791-5.1733l-.8123-.3239"/><path fill="none" stroke="#000" stroke-linecap="round" stroke-linejoin="round" stroke-width="2" d="M46.5736 24.71l11.45-1.6359s-6.2678 9.8488-10.494 8.7989M19.949 30.288v3.169m27.9491 26.5044c-18.4989-5.1358-20.8168-13.0567-20.8168-13.0567s-4.2.2046-5.6776 1.3537c3.1163 6.4287 5.69 8.6387 13.8595 11.7689"/></g></svg>