<svg xmlns="http://www.w3.org/2000/svg" role="img" viewBox="2.72 14.72 66.43 42.43"><title>1F3F4-E0065-E0073-E0069-E0062-E007F.svg</title><path fill="#f1b31c" d="M5 17h62v38H5z"/><path fill="#d22f27" d="M5 22h62v4H5zm0 8h62v4H5zm0 8h62v4H5zm0 8h62v4H5z"/><rect width="30.39" height="18.37" x="5.612" y="17.63" fill="#1e50a0" stroke-width="2.521" rx="0" ry="0"/><g transform="translate(-69.32 7.602)"><rect width="23.22" height="6.069" x="78.21" y="17.69" fill="#fff" stroke-width="2" rx="0" ry="0"/><rect width="1.786" height="2.939" x="80.47" y="15.46" fill="#fff" stroke-width=".386" rx="0" ry="0"/><rect width="1.786" height="2.939" x="84.71" y="15.46" fill="#fff" stroke-width=".386" rx="0" ry="0"/><rect width="2.508" height=".721" x="84.36" y="15.36" fill="#fff" stroke-width=".227" rx="0" ry="0"/><rect width="2.508" height=".721" x="80.12" y="15.32" fill="#fff" stroke-width=".227" rx="0" ry="0"/><rect width="2.508" height=".721" x="88.57" y="13.99" fill="#fff" stroke-width=".227" rx="0" ry="0"/><rect width="2.508" height=".721" x="92.83" y="15.23" fill="#fff" stroke-width=".227" rx="0" ry="0"/><rect width="2.508" height=".721" x="97.06" y="15.36" fill="#fff" stroke-width=".227" rx="0" ry="0"/><rect width="1.786" height="2.939" x="93.16" y="15.46" fill="#fff" stroke-width=".386" rx="0" ry="0"/><rect width="1.786" height="2.939" x="97.39" y="15.46" fill="#fff" stroke-width=".386" rx="0" ry="0"/><rect width="1.786" height="4.325" x="88.92" y="13.99" fill="#fff" stroke-width=".468" rx="0" ry="0"/><path fill="#1e50a0" d="M89.3302 16.69192c-.14117.01665-.22422.16789-.26462.41558v.60103h.52924v-.60103c-.0404-.24769-.12345-.39892-.26462-.41558z"/><path fill="#1e50a0" stroke-width=".052" d="M90.33 16.69c-.1412.01665-.2242.1679-.2646.4156v.601h.5292v-.601c-.0404-.2477-.1234-.3989-.2646-.4156zm3.72 2.13c-.1412.01665-.2242.1679-.2646.4156v.601h.5292v-.601c-.0404-.2477-.1234-.3989-.2646-.4156zm4.23 0c-.1412.01665-.2242.1679-.2646.4156v.601h.5292v-.601c-.0404-.2477-.1234-.3989-.2646-.4156zm-12.68 0c-.1412.01665-.2242.1679-.2646.4156v.601h.5292v-.601c-.0404-.2477-.1234-.3989-.2646-.4156z"/><path fill="#1e50a0" stroke-width=".079" d="M87.7 22.38c-.2284.02327-.3628.2346-.4282.5808v.84h.8564v-.84c-.06538-.3462-.1998-.5575-.4282-.5808zm4.24-.04c-.2284.02327-.3628.2346-.4282.5808v.84h.8564v-.84c-.06538-.3462-.1998-.5575-.4282-.5808zm4.23 0c-.2284.02327-.3628.2346-.4282.5808v.84h.8564v-.84c-.06538-.3462-.1998-.5575-.4282-.5808zm-12.68 0c-.2284.02327-.3628.2346-.4282.5808v.84h.8564v-.84c-.06538-.3462-.1998-.5575-.4282-.5808z"/><path fill="#1e50a0" stroke-width=".116" d="M89.85 21.07c-.2608.04406-.4142.4442-.4888 1.1v1.59h.9777v-1.59c-.07463-.6555-.228-1.056-.4888-1.1z"/><path fill="#1e50a0" stroke-width=".052" d="M81.38 18.82c-.1412.01665-.2242.1679-.2646.4156v.601h.5292v-.601c-.0404-.2477-.1234-.3989-.2646-.4156z"/></g><g><path fill="none" stroke="#000" stroke-linecap="round" stroke-linejoin="round" stroke-width="2" d="M5 17h62v38H5z"/></g></svg>