<svg xmlns="http://www.w3.org/2000/svg" role="img" viewBox="13.61 3.11 44.65 65.65"><title>1F94A.svg</title><path fill="#ea5a47" d="M45.6055 50.9252V46.364s1.2674-1.1629 2.4125-2.3333c3.7692-3.8524 5.6146-9.8857 5.6146-9.8857 5.0219-13.3527.71-17.7289.71-17.7289-.9967-1.3248-3.1441-.5776-3.1441-.5776-.3357-3.0657-1.217-5.0365-1.217-5.0365-2.3082-7.0949-21.9067-5.0803-21.9067-5.0803C15.1069 7.5175 15.9463 21.532 15.9463 21.532c-.011 18.5937 6.1272 24.8196 6.1272 24.8196v4.524c0 1.8644 5.2812 3.3819 11.7536 3.3819s11.7784-1.4679 11.7784-3.3323"/><path fill="#d0cfce" d="M33.5724 66.5424c6.6195 0 12.0327-1.515 12.0327-3.3795l.0005-.0252V50.9252c0 1.8644-5.3061 3.3324-11.7785 3.3324s-11.7536-1.5175-11.7536-3.3819v12.2496l.0005.0376c0 1.8644 5.4131 3.3795 12.0327 3.3795"/><path fill="#d22f27" d="M45.1785 50.9252V46.364s1.2674-1.1629 2.4125-2.3333c3.7692-3.8524 5.6146-9.8857 5.6146-9.8857 5.0219-13.3527.71-17.7289.71-17.7289-.9967-1.3248-3.1441-.5776-3.1441-.5776-.3357-3.0657-1.217-5.0365-1.217-5.0365-.9936-3.0534-8.5963-4.7285-13.0545-5.2941 0 0 27.125 11.8671 3.6091 39.5366-.1393.1639-.2027.3785-.2025.5937.0012 1.2357.0053 5.6832.0053 8.0304l-.0057.0385c0-.0001 4.0445-.6901 5.2723-2.7819z"/><path fill="#9b9b9a" d="M39.9063 66.9688c4.0891-.5312 6.695-2.125 6.695-3.5284l.0006-.0258V50.9252c0 1.1917-2.7146 2.2375-6.6956 2.8449v13.1987z"/><g fill="none" stroke="#000" stroke-linecap="round" stroke-linejoin="round" stroke-miterlimit="10" stroke-width="2"><path d="M45.6055 50.9252c0 1.8644-5.3061 3.3324-11.7785 3.3324s-11.7536-1.5175-11.7536-3.3819"/><path d="M45.6055 60.1059V46.364s1.2674-1.1629 2.4125-2.3333c3.7692-3.8524 5.6146-9.8857 5.6146-9.8857 5.0219-13.3527.71-17.7289.71-17.7289-.9967-1.3248-3.1441-.5776-3.1441-.5776-.3357-3.0657-1.217-5.0365-1.217-5.0365-2.3082-7.0949-21.9067-5.0803-21.9067-5.0803C15.1069 7.5175 15.9463 21.532 15.9463 21.532c-.011 18.5937 6.1272 24.8196 6.1272 24.8196v16.7736l.0005.0376c0 1.8644 5.4131 3.3795 12.0327 3.3795"/><path d="M33.5724 66.5424c5.3784 0 9.9603-1.0002 11.4895-2.3752.0209-.0188.0413-.0377.0611-.0567m-3.8018-50.5492c4.9387-4.4356 9.8773 2.2774 9.8773 2.2774s-6.0223 1.8613-4.9836 10.927"/></g></svg>