<svg xmlns="http://www.w3.org/2000/svg" role="img" viewBox="5.72 5.84 60.32 60.20"><title>26AB.svg</title><path d="M36 64.0001c15.464 0 28-12.536 28-28S51.464 8.00012 36 8.00012 8 20.5361 8 36.0001s12.536 28 28 28z"/><path fill="#3F3F3F" d="M36 64.0001c15.464 0 28-12.536 28-28S51.464 8.00012 36 8.00012 8 20.5361 8 36.0001s12.536 28 28 28z"/><path fill="none" stroke="#000" stroke-linejoin="round" stroke-width="2" d="M36 64.0001c15.464 0 28-12.536 28-28S51.464 8.00012 36 8.00012 8 20.5361 8 36.0001s12.536 28 28 28z"/></svg>