<svg xmlns="http://www.w3.org/2000/svg" role="img" viewBox="18.96 8.71 33.95 53.95"><title>E30F.svg</title><path fill="#92d3f5" d="M47.1761 59.0556l-2.203.5511a36.974 36.974 0 0 1-17.9462 0l-2.203-.5511a4.97 4.97 0 0 1-3.7639-4.8215V23.3515a5.6373 5.6373 0 0 1 5.6373-5.6373h18.6054a5.6373 5.6373 0 0 1 5.6373 5.6373v30.8826a4.97 4.97 0 0 1-3.7639 4.8215z"/><path fill="#61b2e4" d="M46.1113 53.9941l-9.1737-.5141a14.6754 14.6754 0 0 0-1.6435 0l-9.1737.5137a2.042 2.042 0 0 1-2.1411-2.0552v-28.63a2.4839 2.4839 0 0 1 2.4661-2.5014h19.3409a2.4839 2.4839 0 0 1 2.4661 2.5014v28.63a2.042 2.042 0 0 1-2.1411 2.0556z"/><path fill="#92d3f5" d="M36.15 10.736a14.4448 14.4448 0 0 0-6.52 1.6474l1.4535 7.9938a5.6334 5.6334 0 0 0 10.1336 0l1.4529-7.9938a14.4446 14.4446 0 0 0-6.52-1.6474z"/><circle cx="36.302" cy="56.56" r="1.102" fill="#fff"/><g fill="none" stroke="#000"><path stroke-miterlimit="10" stroke-width="2" d="M40.7177 21.7966h4.4873a2.3348 2.3348 0 0 1 2.3208 2.3516v26.9237a1.9256 1.9256 0 0 1-2.0124 1.9353l-8.6276-.4858a12.8781 12.8781 0 0 0-1.542 0l-8.6276.4858a1.9256 1.9256 0 0 1-2.0124-1.9353V24.1482a2.34 2.34 0 0 1 2.3208-2.3516h4.5567"/><circle cx="36.302" cy="56.56" r="1.102" stroke-miterlimit="10"/><path stroke-linecap="round" stroke-linejoin="round" stroke-width="2.001" d="M36.15 10.736a14.4448 14.4448 0 0 0-6.52 1.6474l1.4535 7.9938a5.6334 5.6334 0 0 0 10.1336 0l1.4529-7.9938a14.4446 14.4446 0 0 0-6.52-1.6474z"/><path stroke-linecap="round" stroke-linejoin="round" stroke-width="2.001" d="M41.6988 17.7142h3.608a5.6376 5.6376 0 0 1 5.6332 5.6332V54.236a4.9723 4.9723 0 0 1-3.7637 4.8215l-2.2057.5493a36.9 36.9 0 0 1-17.9412 0l-2.2057-.5493A4.9723 4.9723 0 0 1 21.06 54.236V23.3474a5.6376 5.6376 0 0 1 5.6332-5.6332h3.9031"/></g></svg>