<svg xmlns="http://www.w3.org/2000/svg" role="img" viewBox="8.96 8.96 53.95 53.95"><title>1F6BA.svg</title><path fill="#61b2e4" stroke-linecap="round" stroke-linejoin="round" stroke-miterlimit="10" stroke-width="2" d="M60 61H12c-.5523 0-1-.4477-1-1V12c0-.5523.4477-1 1-1h48c.5523 0 1 .4477 1 1v48c0 .5523-.4477 1-1 1z"/><path fill="#fff" d="M43.2 41.03l-.6336-15.2c-.0917-1.839-2.367-3.982-4.166-4h-4.8c-1.8.0175-4.075 2.161-4.166 4l-.6336 15.2c-.0046.1041.5065.7846.4647.8795l1.824-1.179-.2002 16.52c-.0261.252.477.4648.6308.6635.0303.0387.0737.0644.1216.0721.1711 0 .5254-.3422.5886-.9004l2.033-18.03c.0429-.3697.1377-.7311.2815-1.073l.787-.4984h1.3l.9422.5893c.1229.3151.2052.6453.2447.9822l1.648 18.14c.0632.559.802.7859.9731.7859a.19345.19345 0 0 0 .1216-.072c.1539-.1987.8316-.4618.8059-.7139l-.1949-16.52 1.471 1.186c-.058-.1074.5633-.7177.5577-.8402z"/><circle cx="36" cy="15.98" r="2.375" fill="#fff"/><g fill="none" stroke="#000" stroke-width="2"><path stroke-linecap="round" stroke-linejoin="round" stroke-miterlimit="10" d="M60 61H12c-.5523 0-1-.4477-1-1V12c0-.5523.4477-1 1-1h48c.5523 0 1 .4477 1 1v48c0 .5523-.4477 1-1 1z"/><circle cx="36" cy="16.02" r="2.375" stroke-miterlimit="10"/><path stroke-linecap="round" stroke-linejoin="round" d="M40.02 26.67c-1.882 2.826-.5416 4.886-.0253 6.4.3669 1.076.6043 3.36.718 4.491.4803 4.781.802 19.2.802 19.2.044.88-.46 1.6-1.12 1.6-.7812-.1321-1.36-.7976-1.383-1.59l-2.031-17.62c-.1008-.8744-.5432-1.59-.9832-1.59s-.88.7152-.9832 1.59l-2.034 17.62c-.0229.792-.602 1.458-1.383 1.59-.66 0-1.164-.72-1.12-1.6 0 0 .4181-14.27.8585-19.01.1095-1.178.2965-3.559.6615-4.684.4939-1.522 1.933-3.791.0229-6.4"/><path stroke-linecap="round" stroke-linejoin="round" d="M28.8 41.07l.6336-15.2c.1155-2.224 1.94-3.975 4.166-4h4.8c2.227.0249 4.051 1.776 4.166 4l.6336 15.2"/></g></svg>