<svg xmlns="http://www.w3.org/2000/svg" role="img" viewBox="11.76 8.51 46.48 58.11"><title>1F338.svg</title><path fill="#5C9E31" d="M25.8375 35.1097c4.1058 4.886 2.2246 13.4388 2.2246 13.4388s-7.5369.8282-11.6437-4.0578-2.6028-13.6372-2.6028-13.6372 7.9161-.6258 12.0219 4.2562z"/><path fill="#FFA7C0" d="M43.7106 31.8594c3.34 1 7.98 4 8.83 10.66l-2.19.1801h-.0099l.18 2.1899c-11.57.3701-12.55-9.35-12.55-9.35h-.69s-.88 9.7201-12.45 9.35l.18-2.1899h-.01l-2.19-.1801c.85-6.66 5.49-9.66 8.83-10.66-3.51.24-9.12-.9099-12.2-7.1599l2.02-.88-.88-2.02c7.02-2.67 10.93-.15 13.2 2.5499-1.77-3.3099-2.95-8.3099 2.2-13.98l1.56 1.5601h.01l1.55-1.5601c5.16 5.67 3.98 10.67 2.21 13.98h.16c2.27-2.7 6.28-5.22 13.3-2.5499l-.88 2.02 2.02.88c-3.0801 6.25-8.7001 7.3999-12.2001 7.1599z"/><path fill="#FCEA2B" d="M37.9623 26.0189s.9758-.0021 1.9566.2527l-1.0721 6.9321c-1.8894-.0469-4.3796-1.7891-4.3796-3.6898 0-1.9302 1.5648-3.495 3.4951-3.495"/><g><path fill="none" stroke="#000" stroke-linecap="round" stroke-linejoin="round" stroke-width="2" d="M20.5589 46.5211c-1.3349-.7304-2.6211-1.6939-3.6593-2.9643-3.993-4.886-2.805-12.462-2.805-12.462s5.0132.2297 9.0421 2.9018"/><path fill="none" stroke="#000" stroke-linecap="round" stroke-linejoin="round" stroke-miterlimit="10" stroke-width="2" d="M34.0696 24.6209c-1.7699-3.313-2.9507-8.3121 2.2021-13.9802l1.5576 1.5576h.0025m.0001 0h.0025l1.5576-1.5576c5.1528 5.6681 3.972 10.6672 2.2021 13.9802h.1646c2.2731-2.6991 6.2758-5.2194 13.2972-2.5536l-.8789 2.0199.0009.0024 2.0199.8789c-3.0804 6.2486-8.6944 7.3987-12.2002 7.1636m-9.928-7.5112c-2.2731-2.6991-6.1797-5.2191-13.2011-2.5534l.8789 2.0199-.0009.0024-2.0199.8789c3.0804 6.2486 8.6944 7.3987 12.2002 7.1636"/><path fill="none" stroke="#000" stroke-linecap="round" stroke-linejoin="round" stroke-miterlimit="10" stroke-width="2" d="M31.927 32.1323c-3.3354 1.0006-7.979 4.0001-8.8292 10.6579l2.1959.1748.0017.0019-.1748 2.1959c11.572.3686 12.4442-9.3577 12.4442-9.3577h.699s.9724 9.7262 12.5444 9.3577l-.1748-2.1959.0017-.0019 2.1959-.1748c-.8502-6.6578-5.4937-9.6573-8.8292-10.6579"/><path fill="none" stroke="#000" stroke-linecap="round" stroke-linejoin="round" stroke-miterlimit="10" stroke-width="2" d="M37.8738 33.0079c-1.8894-.0469-3.4066-1.5933-3.4066-3.494 0-1.9303 1.5648-3.495 3.495-3.495.3439 0 .6763.0497.9902.1423m-.6894 3.3518l2.482-1.03"/><circle cx="43.937" cy="27.073" r="1.398" transform="rotate(-24.122 43.938 27.073)"/><path fill="none" stroke="#000" stroke-linecap="round" stroke-linejoin="round" stroke-miterlimit="10" stroke-width="2" d="M38.263 29.514l2.457 2.46"/><path fill="none" stroke="#000" stroke-linecap="round" stroke-linejoin="round" stroke-width="2" d="M37.1626 43.8927c-3.438 3.548-7.676 10.246-5.829 20.735"/></g></svg>