<svg xmlns="http://www.w3.org/2000/svg" role="img" viewBox="11.96 9.84 48.95 54.08"><title>2696.svg</title><path fill="#9B9B9A" d="M48.0626 62.92c0-3.3137-5.5964-6-12.5-6s-12.5 2.6863-12.5 6h25z"/><path fill="#D0CFCE" d="M24.9006 46.9656c0 2.1938-2.1985 3.9723-4.9106 3.9723s-4.9106-1.7785-4.9106-3.9723h9.8212zm33-.0408c0 2.1938-2.1985 3.9723-4.9106 3.9723-2.712 0-4.9106-1.7785-4.9106-3.9723h9.8212z"/><g><path fill="none" stroke="#000" stroke-linecap="round" stroke-linejoin="round" stroke-miterlimit="10" stroke-width="2" d="M15.9996 25.1697c2.6667.0001 8.9544-5.3333 20.0002-5.3333S50.6666 23.8365 56 25.1697M36 23.906v28"/><circle cx="36" cy="13.895" r="3"/><path fill="none" stroke="#000" stroke-linecap="round" stroke-linejoin="round" stroke-miterlimit="10" stroke-width="2" d="M48 61.9064c0-3.3137-5.5964-6-12.5-6s-12.5 2.6863-12.5 6m3-16c0 3.3137-2.6863 6-6 6s-6-2.6863-6-6h12zM20 27.906l-5 18h10zm0 0v18m39 .0004c0 3.3137-2.6863 6-6 6s-6-2.6863-6-6h12zM53 27.906l-5 18h10zm0 0v18"/></g></svg>