<svg xmlns="http://www.w3.org/2000/svg" role="img" viewBox="11.80 8.92 46.02 49.40"><title>1F4C3.svg</title><path fill="#9B9B9A" d="M56 48.821V10.958H15.037v41.307l39.427-1.348"/><path fill="#9B9B9A" stroke-linecap="round" stroke-linejoin="round" stroke-miterlimit="10" stroke-width="2" d="M56 48.821V10.958H16v30.153"/><path fill="#D0CFCE" stroke-linecap="round" stroke-linejoin="round" stroke-miterlimit="10" stroke-width="2" d="M47.972 38.149l-34.133 7.503.814 10.789 31.189-4.164 3.273-.437L53 51.321z"/><g fill="none" stroke="#000" stroke-linecap="round" stroke-linejoin="round" stroke-miterlimit="10" stroke-width="2"><path d="M56 48.821V10.958H16v30.153"/><path d="M47.972 38.149l-34.133 7.503.814 10.789 31.189-4.164 3.273-.437L53 51.321zM20.622 16H36m-15.378 5.328H51.66M20.622 32.221H51.66m-31.038 5.406h12.771M20.622 26.814H51.66M56 48.3213c0 1.6569-1.3431 3-3 3"/></g></svg>