<svg xmlns="http://www.w3.org/2000/svg" role="img" viewBox="13.94 10.19 48.88 46.76"><title>2615.svg</title><path fill="#fff" fill-rule="evenodd" d="M36 52c9.9411 0 18-8.0589 18-18H18c0 9.9411 8.0589 18 18 18z"/><path fill="#d0cfce" fill-rule="evenodd" d="M48.6162 50.6071c.3634-.0085.8242-.035.3004.786-.6808 1.067-1.109 1.7206-1.8992 2.6872-.1829.2652-.4863.1697-.8084.1697h8.4206c.2789 0 1.8401-1.7679 2.9604-2.7771.4262-.6415.9505-.7229.1803-.7229 0 0-8.5204-.1429-9.1541-.1429zm-2.1095-1.0834c5.5804-3.5502 7.7456-7.7841 7.7456-14.75h-8.5c-.466 6.9489-1.0169 10.097-4.7056 14.75h5.46z"/><path fill="#fff" d="M55.0324 34.751l-2.8466 9.3477s7.7321 1.3848 7.9244-3.9622c.1827-5.0781-5.0778-5.3855-5.0778-5.3855z"/><path fill="#d0cfce" fill-rule="evenodd" stroke="#d0cfce" stroke-miterlimit="10" stroke-width="3" d="M39.5295 21.1886l.0114-.0114c1.9526-1.9526 1.9526-5.1184 0-7.0711-1.9526-1.9526-5.1184-1.9526-7.071 0 1.1715-1.1715 3.071-1.1715 4.2426 0 1.1716 1.1716 1.1716 3.0711 0 4.2427l-3.4534 3.4534-.0114.0114c-1.9526 1.9526-1.9526 5.1184 0 7.071 1.9526 1.9526 5.1184 1.9526 7.0711 0-1.1716 1.1716-3.0711 1.1716-4.2427 0s-1.1716-3.071 0-4.2426l3.4534-3.4534z"/><path fill="#d0cfce" fill-rule="evenodd" stroke="#d0cfce" stroke-miterlimit="10" stroke-width="1.498" d="M33.0109 14.6184c-.2916.2935-.766.2951-1.0596.0034s-.2951-.766-.0034-1.0596m8.9244 15.8403c.294-.2912.2963-.7656.0051-1.0596s-.7656-.2963-1.0596-.0051"/><g fill="none" stroke="#000" stroke-width="2"><path stroke-linecap="round" stroke-linejoin="round" d="M24 47.4166C20.3175 44.1207 18 39.331 18 34h36c0 5.331-2.3175 10.1207-6 13.4166"/><path stroke-linecap="round" d="M51 45h4.5c3.0376 0 5.5-2.4624 5.5-5.5S58.5376 34 55.5 34H53"/><path stroke-miterlimit="10" d="M16.5086 49.9385h41.8588c.69 0 1.0356.8343.5477 1.3222l-3.4059 3.1559a2.12468 2.12468 0 0 1-1.5025.6223H20.73c-.661 0-1.2877-.2941-1.7102-.8025l-2.9687-3.3231c-.322-.3875-.0464-.9748.4574-.9748z"/></g></svg>