<svg xmlns="http://www.w3.org/2000/svg" role="img" viewBox="9.88 11.88 52.00 50.13"><title>1F5D2.svg</title><path fill="#FFF" d="M60.069 17.0151l-5.9178-.9325H17.21l-5.2722.9684.0358 43.2177 31.6332-.0359 16.4981-12.0507-.0359-31.167z"/><path fill="#d0cfce" d="M56.9559 49.0381H44.1387v4.4795c0 .5527-.4473 1-1 1-.502 0-.8992-.3752-.9712-.8569v5.4255l1.1596-.0003 13.6288-10.0478z"/><path fill="#FFF" stroke-linecap="round" stroke-linejoin="round" stroke-miterlimit="10" stroke-width="2" d="M45.481 13.955v5.636m-4.761-5.636v5.636m-4.76-5.636v5.636m14.281-5.636v5.636M31.2 13.955v5.636m-4.761-5.636v5.636m-4.76-5.636v5.636"/><g fill="none" stroke="#000" stroke-linecap="round" stroke-linejoin="round" stroke-miterlimit="10" stroke-width="2"><path d="M45.481 13.955v5.636m-4.761-5.636v5.636m-4.76-5.636v5.636m14.281-5.636v5.636M31.2 13.955v5.636m-4.761-5.636v5.636m-4.76-5.636v5.636m-4.689 9.761h37.797M16.99 39.825h37.797M16.99 50.298h22.125M25.946 24.443v31.106m28.379-38.576h5.635l.037 31.065-16.341 12.048-31.659.006-.037-43.119h5.639"/><path d="M59.746 48.038H43.138v5.479"/></g></svg>