<svg xmlns="http://www.w3.org/2000/svg" role="img" viewBox="14.78 7.97 48.45 53.82"><title>1F468-1F3FC-200D-1F52C.svg</title><g id="color"><path fill="#FFF" d="M17.2543,58.726c0,0-2-13.5,10-13.5c3.1919,2.1279,5.9264,3.5984,9,3.5922h-0.125 c3.0736,0.0062,5.5081-2.1643,8.7-4.2922c15.5705-0.0001,10.7,14.2,10.7,14.2"/><path fill="#D0CFCE" d="M46.7393,44.7531c-3.17,2.1133-4.875,3-8.9375,3.5886c13.0625,0.4114,13.0625,5.4114,13.8246,9.4114 c4.2379,0,5.1129,0,5.1129,0S58.7393,44.7531,46.7393,44.7531z"/><path fill="#FFF" d="M58.4735,43.0986h-1.1793v6.4784l3.8661,8.8385c0,0,0.3081,1.3805-0.7928,1.3805 c-0.5364,0-9.8482,0.0116-10.3846,0.0116c-1.1009,0-0.7928-1.3804-0.7928-1.3804l3.8661-8.8286v-6.5h-1.0854"/><path fill="none" d="M53.056 43.099L57.294 43.099"/><path fill="#B1CC33" d="M57.2942,49.577l3.8661,8.8385c0,0,0.3081,1.3805-0.7928,1.3805c-0.5364,0-9.8482,0.0116-10.3846,0.0116 c-1.1009,0-0.7928-1.3804-0.7928-1.3804l3.8661-8.8286"/><path fill="#92D3F5" d="M23.1487,25.0027c0,0,12.7029-7.0231,26.2497,0.8022l-3.8831,6.0255c0,0-6.7095,0.9323-9.2418-1.6 c-2.5912,2.5912-8.4903,1.6-8.4903,1.6L23.1487,25.0027z"/></g><g id="hair"><path fill="#fcea2b" d="M50.2314,20.331c-0.59-2.45-2.64-5.38-7.52-8.6c-5.48-3.95-13.73-2.8-16,0.09 c-0.4301,0.6-0.65,1.31-0.64,2.03l-0.46,0.01c-6.5,6.89-0.69,15.72,0.04,13.91l-1.692-2.9689l3.6871-1.2904 c0.5166-2.6997,0.2549-5.4106,0.2549-5.4106l0.1-0.09c1.89,1.98,5.87,3.81,15.16,3.33l0.04,0.77l2.6,1.8799l2.68,1.7641 l-1.0299,2.016C47.4514,27.771,51.3414,24.881,50.2314,20.331z"/></g><g id="skin" fill="#debb90"><path d="M45.5153 31.8304c0 0-6.7095.9323-9.2418-1.6-2.5912 2.5912-8.4903 1.6-8.4903 1.6l-2.6202-3.8602c-.1321-.0523-.2808-.157-.4382-.3082-.0092.2335-.0283.4636-.0283.6999 0 7.8277 5.0765 14.1733 11.3385 14.1733 6.0934 0 11.05-6.0131 11.3133-13.549L45.5153 31.8304zM45.8209 24.0623c-.0052-.0233-.015-.0482-.0195-.0713-.21-1.06-2.21-.93-2.6-1.8799l-.04-.77c-9.0382.467-13.0441-1.2531-14.9954-3.17-.0803.0969-.1607.1929-.2386.2927.0472.7883.1126 2.7628-.2377 4.7858C31.8943 22.0457 38.5742 21.1414 45.8209 24.0623z"/></g><g id="line"><path d="M36.035,37.0051c-1.1519,0-2.3038-0.2861-3.4473-0.8579c-0.4942-0.2471-0.6943-0.8477-0.4473-1.3418 c0.2466-0.4936,0.8462-0.6943,1.3418-0.4473c1.7178,0.8594,3.3877,0.8594,5.1055,0c0.4946-0.247,1.0947-0.0463,1.3418,0.4473 c0.2471,0.4941,0.0469,1.0947-0.4473,1.3418C38.3387,36.719,37.1868,37.0051,36.035,37.0051z"/><path fill="none" stroke="#000" stroke-linecap="round" stroke-linejoin="round" stroke-miterlimit="10" stroke-width="2" d="M47.4379 28.8593c-.2 7.61-5.2 13.71-11.34 13.71-6.26 0-11.34-6.34-11.34-14.17v-1.02M49.0279 25.1093c.93-1.78 2.7-6.54-5.9-12.53-5.48-3.95-13.73-2.8-16 .09-.69.95-.82 2.19-.41 3.29.71 1.86 2.01 5.11 9.44 6.05 2.86.36 4.61.38 9.58-.15M27.4279 23.3293c.67-2.32.89-4.38.89-4.38M26.0279 14.7093c-3.56 4.39-2.74 7.9-2.15 9.75"/><path d="M37.5615,58.9531c-0.5527,0-1-0.4472-1-1v-4.4248c-6.1631-1.165-10.6885-7.7207-10.8877-8.0127 c-0.3105-0.456-0.1924-1.0781,0.2647-1.3886c0.4541-0.3116,1.0781-0.1924,1.3886,0.2626 c0.0459,0.0674,4.6504,6.7227,10.3321,7.2784c0.5117,0.0498,0.9023,0.4804,0.9023,0.9951v5.29 C38.5615,58.5059,38.1143,58.9531,37.5615,58.9531z"/><path d="M16.9932,58.9521c-0.4844,0-0.9102-0.3525-0.9864-0.8466c-0.041-0.2696-0.9726-6.6328,2.5811-10.7754 c1.9228-2.2412,4.751-3.377,8.4072-3.377c0.1973,0,0.3906,0.0586,0.5547,0.168c3.1533,2.1025,5.6611,3.4102,8.3828,3.4238 c2.7227-0.0127,5.2295-1.3213,8.3828-3.4238c0.1641-0.1094,0.3575-0.168,0.5547-0.168c1.9072,0,3.6094,0.3155,5.0596,0.9365 c0.5078,0.2168,0.7432,0.8047,0.5254,1.3125c-0.2168,0.5088-0.8086,0.7452-1.3125,0.5254 c-1.127-0.4824-2.4629-0.7412-3.9756-0.7714c-3.3096,2.1855-6.0274,3.5459-9.1279,3.5878c-0.0147,0.001-0.0313,0.003-0.044,0.001 h-0.0029c-0.0108,0-0.0254,0-0.0381,0h-0.043c-0.0136,0-0.0283,0-0.0381,0h-0.0029c-0.0185,0.002-0.0293,0-0.0439-0.001 c-3.1006-0.0419-5.8174-1.4023-9.128-3.5878c-2.8964,0.0566-5.1103,0.9541-6.5859,2.6689 c-2.956,3.4365-2.1377,9.1201-2.1289,9.1777c0.083,0.545-0.292,1.0547-0.8379,1.1387 C17.0947,58.9492,17.0439,58.9521,16.9932,58.9521z"/><path d="M49.9824,60.8076c-0.5801,0-1.081-0.2265-1.4111-0.6387c-0.5918-0.7382-0.4014-1.7626-0.3565-1.9599 c0.0137-0.0635,0.0342-0.124,0.0596-0.1836l3.7822-8.6358v-5.291h-0.0859c-0.5527,0-1-0.4472-1-1c0-0.5527,0.4473-1,1-1h1.0859 c0.5528,0,1,0.4473,1,1v6.5c0,0.1377-0.0283,0.2744-0.0839,0.4014l-3.8164,8.7139c-0.003,0.0302-0.0049,0.0615-0.0059,0.0927 l10.0498-0.0107c-0.001-0.0313-0.0029-0.0635-0.0068-0.0947l-3.8155-8.7237c-0.0556-0.1259-0.084-0.2627-0.084-0.4004v-6.4785 c0-0.5527,0.4473-1,1-1h1.1797c0.5528,0,1,0.4473,1,1c0,0.5528-0.4472,1-1,1h-0.1797v5.2696l3.7823,8.6464 c0.0263,0.0586,0.0459,0.1192,0.0595,0.1827c0.045,0.1972,0.2354,1.2207-0.3564,1.959c-0.3301,0.413-0.832,0.6396-1.4121,0.6396 L49.9824,60.8076z"/><path d="M57.2939 44.0986h-4.2373c-.5527 0-1-.4472-1-1 0-.5527.4473-1 1-1h4.2373c.5528 0 1 .4473 1 1C58.2939 43.6514 57.8467 44.0986 57.2939 44.0986zM30.3301 33.0156c-1.4844 0-2.6045-.1816-2.7129-.1992-.2686-.0449-.5078-.1992-.6611-.4248l-4.6348-6.8271c-.1582-.2325-.2109-.5206-.1455-.794.0654-.2734.2431-.5068.4892-.6426.5381-.2978 13.3555-7.2046 27.2334.8111.2373.1367.4073.3647.4717.6308.0645.2656.0176.5464-.1308.7764l-3.8829 6.0259c-.1582.2441-.415.4082-.7031.4482-.6806.0947-6.3066.7959-9.373-1.2949C34.5615 32.7373 32.167 33.0156 30.3301 33.0156zM28.3623 30.9033c1.7627.2149 5.5313.293 7.2041-1.3799.3906-.3906 1.0234-.3906 1.4141 0 1.6513 1.6524 5.9384 1.5811 7.9492 1.3702l3.0488-4.7315c-10.415-5.499-20.2529-2.0986-23.3476-.7558L28.3623 30.9033z"/><path d="M42.0351 27.0027c0 1.1045-.8965 2-2 2s-2-.8955-2-2c0-1.1035.8965-2 2-2S42.0351 25.8992 42.0351 27.0027M34.0351 27.0027c0 1.1045-.8965 2-2 2s-2-.8955-2-2c0-1.1035.8965-2 2-2S34.0351 25.8992 34.0351 27.0027"/></g></svg>