<svg xmlns="http://www.w3.org/2000/svg" role="img" viewBox="2.84 2.59 66.19 66.69"><title>1F3A3.svg</title><path fill="#92d3f5" d="M46.8612 65.5371l-1.6868.8404c-.7318.3646-1.579-.3197-1.2981-1.065 1.1586-3.0731 5.3156-4.8418 5.3156-4.8418-6.0185-6.5137-5.6827-14.7094-5.6827-14.7094C43.165 33.286 51.0838 33 51.0838 33s8.6088 0 9.6976 12.9822c0 0 .0474 6.5397-7.5845 14.4886 0 0 4.139 1.7874 5.1468 4.8905.2414.7433-.5889 1.3958-1.3077 1.0377l-1.7297-.8618c-2.648-1.3195-5.7971-1.3195-8.4451 0z"/><path fill="#92d3f5" d="M43.7957 52.5248c-.5335 0-4.821.0934-5.5082.1939v-3.9962s.8311-3.9527 5.5082-4.8481m16.3308-.844c5.2256.144 6.7234 5.113 6.7234 5.113l-2.928 10.7316c-.5235-.7915-1.2329-1.0028-1.9989-1.24 0 0-2.2732-1.1794-3.8565-1.0127 0 0 3.6017-7.1961 2.06-13.5919"/><path fill="#61b2e4" d="M60.1265 43.0304c5.2256.144 6.7234 5.113 6.7234 5.113l-2.928 10.7316c-.5235-.7915-1.2329-1.0028-1.9989-1.24 0 0-2.7732-1.1794-4.3565-1.0127 0 0 4.1017-7.1961 2.56-13.5919"/><path fill="#61b2e4" d="M50.1554 64.5501s7.4634 1.7937 8.1571 1.7937c0 0-.246-3.2812-4.6562-5.8438 0 0 6.4265-6.1875 6.3838-12.8498C60.0403 41.1165 57 36.754 51.0838 33.75c3.773 3.7525 6.4517 5.3115 6.5936 10.6042.0633 2.3614-.4224 4.6993-1.2657 6.9059-.998 2.6114-2.8893 7.0225-6.2563 13.29z"/><path fill="#a57939" d="M14.4232 49.892l-4.0299 15.9836c-3.5506-.0794-4.5619-1.2079-4.5619-1.2079l3.858-15.9324s1.6145 1.1567 4.7337 1.1567z"/><path fill="#6a462f" d="M11.9185 49.4159c.6932.1379 1.4569.2298 2.2547.2261l-4.0394 16.2336c-.6986-.0127-1.4899-.145-2.0738-.2376l3.8585-16.2221z"/><g><circle cx="53.911" cy="41.856" r="1.766"/><path fill="none" stroke="#000" stroke-linecap="round" stroke-linejoin="round" stroke-width="2" d="M62.3565 56.721c.766.2372 1.487.6866 2.0105 1.4781l2.4829-10.0557s-1.4978-4.969-6.7234-5.113"/><path fill="none" stroke="#000" stroke-linecap="round" stroke-linejoin="round" stroke-width="2" d="M46.8612 66.0371l-1.6868.8404c-.7318.3646-1.579-.3197-1.2981-1.065 1.1586-3.0731 5.3156-4.8418 5.3156-4.8418-6.0185-6.5137-5.6827-12.4594-5.6827-12.4594C43.165 36.036 51.0838 33 51.0838 33s10.0419 3.2568 9.6976 15.7322c0 0 .0474 4.2897-7.5845 12.2386 0 0 4.139 1.7874 5.1468 4.8905.2414.7433-.5889 1.3958-1.3077 1.0377l-1.7297-.8618c-2.648-1.3195-5.7971-1.3195-8.4451 0z"/><path fill="none" stroke="#000" stroke-linecap="round" stroke-linejoin="round" stroke-width="2" d="M40.1126 51.6063c-.5328.0283-1.138.0835-1.8251.1733v-3.5718s.8311-3.533 5.5082-4.3333M51.0838 33l.1114-22.6456S47.486 1.526 34.647 6.5416c-11.88 4.641-18.2171 25.3384-21.2206 38.0033m1.7468 4.5971l-4.2894 17.4836c-3.5506-.0794-5.7337-1.4067-5.7337-1.4067l4.2894-17.4836s2.6145 1.4067 5.7337 1.4067zm-9.12 12.3871s2.6145 1.4067 5.7337 1.4067"/></g></svg>