<svg xmlns="http://www.w3.org/2000/svg" role="img" viewBox="9.59 4.84 52.45 60.45"><title>1F335.svg</title><path d="M35.4871 7.054c-3.6266 0-6.5664 3.2647-6.5664 7.292v19.1925h-2.9773c-3.9616 0-3.7957-1.0309-3.7957-4.7691l-1.6106-3.2526c0-2.7922-.3806-3.6821-3.3989-3.41-2.6314.2368-5.1765 1.5557-5.1765 4.05L11.7561 37.44c0 2.6374 4.38 7.58 7.1743 7.58l7.013.0688h2.9773v19.0866h13.1328V14.346c0-4.0273-2.9397-7.292-6.5664-7.292zm19.0367 18.9303a4.7767 4.7767 0 0 0-5.2448 4.7531v6.3643c0 3.7383.1565 4.7691-3.5816 4.7691h-3.3913l.0793 11.5507h11.6693a4.7757 4.7757 0 0 0 4.7753-4.7757V30.9427a4.9143 4.9143 0 0 0-4.3062-4.9584z" fill="#b1cc33"/><path d="M42.0535 63.1477V14.198c0-3.9562-2.94-7.1634-6.5664-7.1634s-6.5664 3.2072-6.5664 7.1634v48.95m-3.8592-19.1026h-6.3643a6.7684 6.7684 0 0 1-6.7685-6.7686V26.137a4.7765 4.7765 0 0 1 5.2447-4.7531 4.9143 4.9143 0 0 1 4.3066 4.9584V31.11a3.3843 3.3843 0 0 0 3.3842 3.3842h.1975m20.7639 17.9085h8.3573a4.7757 4.7757 0 0 0 4.7756-4.7756V29.9239a4.9143 4.9143 0 0 0-4.3065-4.9584 4.7765 4.7765 0 0 0-5.2447 4.7531v6.3643c0 3.7382.1565 6.7685-3.5817 6.7685M40.096 18.349l4.069-4.069m6.969 33.803l4.069-4.068m-35.05-13.646l4.068-4.068m8.925-14.598L29.668 7m1.549 48.233l-4.593-3.623m29.281-23.614l4.069-4.068m-8.942 11.644l-4.405-3.848m-10.453-6.146l-2.937-4.217m-18.543 4.601l-2.938-5.25" fill="none" stroke="#000" stroke-linecap="round" stroke-linejoin="round" stroke-width="2"/></svg>