<svg xmlns="http://www.w3.org/2000/svg" role="img" viewBox="10.00 10.13 51.88 52.00"><title>274E.svg</title><path fill="#B1CC33" d="M59.04 60.1661H12.96c-.5302 0-.96-.4298-.96-.96v-46.08c0-.5302.4298-.96.96-.96h46.08c.5302 0 .96.4298.96.96v46.08c0 .5302-.4298.96-.96.96z"/><path fill="#D0CFCE" d="M42.837 35.575l2.481-2.521 8.661-8.811-6.68-6.796-8.666 8.816-2.358 2.397-.305.306-11.261-11.457-6.68 6.796 11.066 11.258.193.195-2.649 2.691-9.407 9.57 6.68 6.796 9.409-9.572 2.419-2.458.226-.232 12.122 12.332 6.68-6.796-12.117-12.327z"/><g fill="none" stroke="#000" stroke-linecap="round" stroke-linejoin="round" stroke-miterlimit="10" stroke-width="2"><path d="M59.04 60.1661H12.96c-.5302 0-.96-.4298-.96-.96v-46.08c0-.5302.4298-.96.96-.96h46.08c.5302 0 .96.4298.96.96v46.08c0 .5302-.4298.96-.96.96z"/><path d="M42.837 35.575l2.481-2.521 8.661-8.811-6.68-6.796-8.666 8.816-2.358 2.397-.305.306-11.261-11.457-6.68 6.796 11.066 11.258.193.195-2.649 2.691-9.407 9.57 6.68 6.796 9.409-9.572 2.419-2.458.226-.232 12.122 12.332 6.68-6.796-12.117-12.327z"/></g></svg>