<svg xmlns="http://www.w3.org/2000/svg" role="img" viewBox="2.72 14.72 66.43 42.43"><title>1F3F4-E0065-E0073-E006D-E0063-E007F.svg</title><g fill="none" stroke="#000" stroke-linecap="round"><g stroke-width=".75"><path d="M55.19 44.14l.4246 1.381h3.504l.336-1.381m-2.1646.13v1.229"/><path d="M49.921 46.543l.4246 1.381h3.504l.336-1.381m-2.1646.13v1.229"/><path d="M55.136 46.543l.4246 1.381h3.504l.336-1.381m-2.1646.13v1.229"/><path d="M55.205 51.291l.4246 1.381h3.504l.336-1.381m-2.1646.13v1.229"/><path d="M52.298 48.993l.4246 1.381h3.504l.336-1.381m-2.1646.13v1.229"/><path d="M60.35 46.543l.4246 1.381h3.504l.336-1.381m-2.1646.13v1.229"/><path d="M58.012 48.993l.4246 1.381h3.504l.336-1.381m-2.1646.13v1.229"/></g><path d="M8.613 26.61s1.511-7.361 3.138.00008"/><path stroke-width=".999" d="M10.18 19.58l.0049 2.448"/><path stroke-width=".924" d="M8.909 20.01v2.077"/><path stroke-width=".928" d="M11.46 20v2.099"/><path d="M8.544 22.09h3.286"/><g><path d="M14.122 26.495s1.511-7.361 3.138.00008"/><path stroke-width=".999" d="M15.689 19.465l.0049 2.448"/><path stroke-width=".924" d="M14.418 19.895v2.077"/><path stroke-width=".928" d="M16.969 19.885v2.099"/><path d="M14.053 21.975h3.286"/></g><g><path d="M14.122 26.495s1.511-7.361 3.138.00008"/><path stroke-width=".999" d="M15.689 19.465l.0049 2.448"/><path stroke-width=".924" d="M14.418 19.895v2.077"/><path stroke-width=".928" d="M16.969 19.885v2.099"/><path d="M14.053 21.975h3.286"/></g><g><path d="M8.634 34.643s1.511-7.361 3.138.00008"/><path stroke-width=".999" d="M10.201 27.613l.0049 2.448"/><path stroke-width=".924" d="M8.93 28.043v2.077"/><path stroke-width=".928" d="M11.481 28.033v2.099"/><path d="M8.565 30.123h3.286"/></g><g><path d="M14.122 34.529s1.511-7.361 3.138.00008"/><path stroke-width=".999" d="M15.689 27.499l.0049 2.448"/><path stroke-width=".924" d="M14.418 27.929v2.077"/><path stroke-width=".928" d="M16.969 27.919v2.099"/><path d="M14.053 30.009h3.286"/></g></g><path fill="#781e32" d="M5 17h62v38H5z"/><g fill="none" stroke="#fcea2b" stroke-linecap="round" stroke-width=".75"><path d="M55.19 44.14l.4246 1.381h3.504l.336-1.381m-2.1646.13v1.229"/><path d="M49.921 46.543l.4246 1.381h3.504l.336-1.381m-2.1646.13v1.229"/><path d="M55.136 46.543l.4246 1.381h3.504l.336-1.381m-2.1646.13v1.229"/><path d="M55.205 51.291l.4246 1.381h3.504l.336-1.381m-2.1646.13v1.229"/><path d="M52.298 48.993l.4246 1.381h3.504l.336-1.381m-2.1646.13v1.229"/><path d="M60.35 46.543l.4246 1.381h3.504l.336-1.381m-2.1646.13v1.229"/><path d="M58.012 48.993l.4246 1.381h3.504l.336-1.381m-2.1646.13v1.229"/></g><g fill="none" stroke="#fcea2b" stroke-linecap="round"><path d="M8.613 26.61s1.511-7.361 3.138.00008"/><path stroke-width=".999" d="M10.18 19.58l.0049 2.448"/><path stroke-width=".924" d="M8.909 20.01v2.077"/><path stroke-width=".928" d="M11.46 20v2.099"/><path d="M8.544 22.09h3.286"/><g><path d="M14.122 26.495s1.511-7.361 3.138.00008"/><path stroke-width=".999" d="M15.689 19.465l.0049 2.448"/><path stroke-width=".924" d="M14.418 19.895v2.077"/><path stroke-width=".928" d="M16.969 19.885v2.099"/><path d="M14.053 21.975h3.286"/></g><g><path d="M14.122 26.495s1.511-7.361 3.138.00008"/><path stroke-width=".999" d="M15.689 19.465l.0049 2.448"/><path stroke-width=".924" d="M14.418 19.895v2.077"/><path stroke-width=".928" d="M16.969 19.885v2.099"/><path d="M14.053 21.975h3.286"/></g><g><path d="M8.634 34.643s1.511-7.361 3.138.00008"/><path stroke-width=".999" d="M10.201 27.613l.0049 2.448"/><path stroke-width=".924" d="M8.93 28.043v2.077"/><path stroke-width=".928" d="M11.481 28.033v2.099"/><path d="M8.565 30.123h3.286"/></g><g><path d="M14.122 34.529s1.511-7.361 3.138.00008"/><path stroke-width=".999" d="M15.689 27.499l.0049 2.448"/><path stroke-width=".924" d="M14.418 27.929v2.077"/><path stroke-width=".928" d="M16.969 27.919v2.099"/><path d="M14.053 30.009h3.286"/></g></g><g><path fill="none" stroke="#000" stroke-linecap="round" stroke-linejoin="round" stroke-width="2" d="M5 17h62v38H5z"/></g></svg>