<svg xmlns="http://www.w3.org/2000/svg" role="img" viewBox="14.85 8.85 42.04 53.04"><title>1F926-200D-2640-FE0F.svg</title><path fill="#92D3F5" d="M17 60.958L15.875 57c0-5.875 6.1328-10 11.125-10 6 5 12 5 18 0 4.9941 0 10 5.0059 10 10v3.958"/><path fill="#F1B31C" d="M20.2654 49.272C22.305 47.8316 24.765 47 27 47c6 5 12 5 18 0 1.8959 0 3.7919.7239 5.4167 1.8923.7012-.423 1.4046-.861 2.1135-1.3337-.3916.3906 3.5781-7.6279.8447-12.3711-.4385-.8535-.9805-2.3496-1.3125-3.25-1.4727-3.2695-1.8623-4.0313-2.1875-10.0625.0273-3.6929-3.1562-6.999-6.8369-7.3076a1.00165 1.00165 0 0 1-.6885-.3433c-.0928-.0996-2.8271-3.0366-7.6621-3.0366-6.2002 0-11.3057 4.0464-12.6074 8.8906-.5342 2.0122-2.6553 2.0952-2.4951 4.171.2041 2.019-.0098 7.0098-.7139 8.912a6.80794 6.80794 0 0 1-1.1191 2.088c-3.7725 4.4199.4316 12.4463.2392 12.1533.7491.6817 1.509 1.2935 2.2743 1.8696z"/><g fill="#FCEA2B"><path d="M28.875 60.958c.0049-.5703-.6973-10.4092 0-14.9717.2666-1.7461 2-1.9863 3-3.9863 3-6 1.833-8.333 4-14 1.1299-2.9541-1.5645-3.7236-3.127-.6001l3.0079-3.7939C36.96 20.2915 33.168 19.1665 31.5 21l-1.8271 3.6265c1.5693-2.3536-.9815-4.1485-2.6729-2.375-1.5791 1.6557-3.624 6.2949-5.125 10.7485 0 0-.1172-2.1943.8125-4.1875.5645-1.21.2285-2.9492-1.6875-2.8125-.9971.0713-1.7637 2.7734-2.54 5.667-.7803 2.9067.0879 7.1562.7197 8.4209 1.4141 2.8281 1.6953 2.8984 1.6953 2.8984s-2 8.9717-4 17.9717"/><path d="M24.125 31c-.1562 8.7187 4.4063 15 11.8115 15C43 46 47 39 47 31c0-5-8.916-13.499-8.916-13.499-3.75 3.583-6.874 12.7778-12.75 10.3003 0 0-1.1192-1.8008-1.209 3.1987z"/></g><path fill="none" stroke="#000" stroke-linecap="round" stroke-linejoin="round" stroke-width="2" d="M20.4785 24.0044c.0371-1.1914.1895-2.5352.627-4.1616 1.4795-5.5 7.2773-8.9658 13.709-8.9658 5.4003 0 8 3 8 3 4.1689.374 7.373 3.8515 7.4052 8.0371.3867 7.1796 1.0244 7.1523 3.4287 12.8222 1.7159 3.9698 1.0762 8.5567-1.6377 11.9038"/><path d="M41.873 30c0 1.1045-.8955 2-2 2-1.1044 0-2-.8955-2-2s.8956-2 2-2c1.1045 0 2 .8955 2 2"/><path fill="none" stroke="#000" stroke-linecap="round" stroke-linejoin="round" stroke-width="2" d="M37.4375 38H39m16 22v-3c0-4.9941-5.0059-9-10-9-3.3652 2.8027-6.8389 3.6934-10.0937 3.6934-.7042 0-1.4415-.0655-2.0538-.1402"/><path fill="none" stroke="#000" stroke-linecap="round" stroke-linejoin="round" stroke-miterlimit="10" stroke-width="2" d="M32.3457 21.542C30.1553 24.8276 30.4473 24.3462 27 31m-5 1.6025c2.25-4.333 4.1094-7.81 5.5313-9.6025M17 60c2-9 4-17.4111 4-17.4111s-.5859-.7603-2-3.5889c-2-4 0-9 2-12m14-4c-1.2832 2.5649-2.8262 5.4771-4 9m-2 28c.0049-.5703-.6973-9.4512 0-14.0137.2666-1.7461 2.1914-2.289 3-3.9863 1.9063-4 2.334-7.8057 3.9365-14"/><path fill="none" stroke="#000" stroke-linecap="round" stroke-linejoin="round" stroke-width="2" d="M37.3262 19.7109c.5107-.5605.9062-1.1352 1.6738-1.7114 0 0 4 5.0005 7 8 0 0 1 2.0005 1 5.0005 0 9-5.127 14-11.0635 14-.2187 0-.5595-.0229-.9365-.0562"/></svg>