<svg xmlns="http://www.w3.org/2000/svg" role="img" viewBox="2.72 14.72 66.43 42.43"><title>1F1F0-1F1F2.svg</title><path fill="#1e50a0" d="M5 17h62v38H5z"/><path fill="#fff" d="M5 27h62v9H5z"/><path fill="#d22f27" d="M5 36h62v9H5z"/><path fill="#f1b31c" d="M5 17h62v10H5z"/><path fill="#5c9e31" d="M37 36L5 55V17l32 19z"/><g fill="#fff"><circle cx="19" cy="31" r="1.044"/><circle cx="19" cy="34.333" r="1.044"/><circle cx="19" cy="37.667" r="1.044"/><circle cx="19" cy="41" r="1.044"/></g><path fill="#fff" stroke="#fff" stroke-linecap="round" stroke-linejoin="round" d="M11.6929 36.125a7.4815 7.4815 0 0 1 5.9889-7.3567 7.3762 7.3762 0 0 0-1.4373-.1433 7.5 7.5 0 0 0 0 15 7.3839 7.3839 0 0 0 1.4373-.1432 7.4817 7.4817 0 0 1-5.9889-7.3568z"/><g><path fill="none" stroke="#000" stroke-linecap="round" stroke-linejoin="round" stroke-width="2" d="M5 17h62v38H5z"/></g></svg>