<svg xmlns="http://www.w3.org/2000/svg" role="img" viewBox="5.84 16.09 60.58 38.95"><title>1F32E.svg</title><circle cx="28.707" cy="23.311" r="5.999" fill="#ea5a47" transform="rotate(-14.999 28.702 23.308)"/><circle cx="15.49" cy="30.155" r="6" fill="#ea5a47" transform="rotate(-45.001 15.492 30.157)"/><ellipse cx="56.511" cy="30.153" fill="#ea5a47" rx="5.997" ry="6.002" transform="rotate(-44.992 56.515 30.154)"/><path fill="#ea5a47" d="M49.0889 24.8599c-.8594 3.2011-4.1446 5.0952-7.3467 4.2387-3.2012-.8545-5.0986-4.143-4.2432-7.3452.8526-3.1968 4.1475-5.0957 7.3448-4.2353 3.1982.8525 5.1025 4.1425 4.2451 7.3418z"/><path fill="#b1cc33" d="M57.4414 48.6279l4.958-.75-.3271-.9658c1.6015-.4297 2.5527-2.0742 2.1211-3.6738-.2461-.919-.8985-1.6113-1.709-1.9639 1.3652-1.5654 1.6758-3.873.5801-5.7724-1.1817-2.043-3.5821-2.9239-5.7481-2.2823.2852-1.0107.043-2.1357-.7539-2.9297-.6719-.6738-1.584-.9472-2.46-.8466.3985-2.0391-.4863-4.1924-2.3847-5.2891-2.0449-1.1787-4.5645-.7422-6.1192.8965-.2578-1.0166-1.0312-1.8711-2.1172-2.1602-.9189-.247-1.8457-.0273-2.5546.4971-.6739-1.9648-2.5176-3.3867-4.711-3.3867-2.3584 0-4.3222 1.6386-4.8496 3.8349-.7324-.75-1.8301-1.1035-2.915-.8125-.919.2461-1.6114.8985-1.9639 1.708-1.5654-1.3642-3.873-1.6738-5.7715-.5771-2.0429 1.1797-2.9248 3.5801-2.2822 5.7461-1.0107-.2832-2.1367-.041-2.9316.7539-.6729.6719-.9463 1.584-.8457 2.4609-2.0381-.3984-4.1915.4864-5.2881 2.3858-1.1787 2.0429-.7422 4.5635.8964 6.1181-1.0166.2588-1.8701 1.0313-2.1621 2.1172-.4287 1.6006.5215 3.2451 2.1211 3.6748l-.0283 1.0049 3.1192.6514"/><path fill="#fcea2b" d="M15.1484 53.001c-1.1045 0-2-.8955-2-2 0-12.7022 10.2979-23 23-23 12.7022 0 23 10.2978 23 23 0 1.1045-.8964 2-2 2h-42z"/><g fill="none" stroke="#000" stroke-linecap="round" stroke-linejoin="round" stroke-miterlimit="10" stroke-width="2"><path d="M15.1484 53.001c-1.1045 0-2-.8955-2-2 0-12.7022 10.2979-23 23-23 12.7012 0 23 10.2978 23 23 0 1.1045-.8964 2-2 2h-42z"/><path d="M62.0723 46.9121c1.6015-.4297 2.5527-2.0742 2.1211-3.6738-.2461-.919-.8985-1.6113-1.709-1.9639 1.3652-1.5654 1.6758-3.873.5801-5.7724-1.1817-2.043-3.5821-2.9239-5.7481-2.2823.2852-1.0107.043-2.1357-.7539-2.9297-.6719-.6738-1.584-.9472-2.4609-.8466.3984-2.0391-.4864-4.1924-2.3848-5.2891-2.0449-1.1787-4.5645-.7422-6.1182.8965-.2578-1.0166-1.0312-1.8711-2.1172-2.1602-.9189-.247-1.8457-.0273-2.5546.4971-.6739-1.9648-2.5176-3.3867-4.711-3.3867-2.3584 0-4.3232 1.6386-4.8496 3.8349-.7334-.75-1.8291-1.1035-2.915-.8125-.919.2461-1.6114.8985-1.9629 1.708-1.5664-1.3642-3.8731-1.6738-5.7725-.5771-2.0439 1.1797-2.9248 3.5801-2.2822 5.7461-1.0098-.2832-2.1367-.041-2.9316.7539-.6729.6719-.9454 1.584-.8457 2.4609-2.0391-.3984-4.1915.4864-5.2881 2.3858-1.1787 2.0429-.7422 4.5635.8974 6.1181-1.0176.2588-1.8711 1.0313-2.1631 2.1172-.4287 1.6006.5215 3.2451 2.1211 3.6748m4.7735-22.2168c-1.1104.1026-2.1905.5738-3.042 1.4253-.8106.8106-1.2754 1.8272-1.4063 2.8804m20.1455-10.7622c-.997-.4414-2.1435-.561-3.2812-.2568-1.1338.3037-2.0645.977-2.707 1.854m16.5986-1.5972c.9971-.4414 2.1435-.561 3.2812-.2568 1.1338.3037 2.0645.977 2.7071 1.854m9.709 4.8593c1.1093.1026 2.1894.5738 3.041 1.4253.8105.8106 1.2754 1.8272 1.4062 2.8804"/></g></svg>