<svg xmlns="http://www.w3.org/2000/svg" role="img" viewBox="2.72 14.72 66.43 42.43"><title>1F3F3-FE0F-200D-1F7E6-200D-1F30C.svg</title><path fill="#1E50A0" d="M67 17H5.31909v37.8044H67V17z"/><path fill="#fff" fill-rule="evenodd" d="M33 31c0 .5523-.4477 1-1 1 .5523 0 1 .4477 1 1 0-.5523.4477-1 1-1-.5523 0-1-.4477-1-1z" clip-rule="evenodd"/><path fill="#fff" d="M32 31.75c-.1381 0-.25.1119-.25.25s.1119.25.25.25v-.5zm1.25-.75c0-.1381-.1119-.25-.25-.25s-.25.1119-.25.25h.5zm-.5 2c0 .1381.1119.25.25.25s.25-.1119.25-.25h-.5zm1.25-.75c.1381 0 .25-.1119.25-.25s-.1119-.25-.25-.25v.5zm-2 0c.6904 0 1.25-.5596 1.25-1.25h-.5c0 .4142-.3358.75-.75.75v.5zm1.25.75c0-.6904-.5596-1.25-1.25-1.25v.5c.4142 0 .75.3358.75.75h.5zm.75-1.25c-.6904 0-1.25.5596-1.25 1.25h.5c0-.4142.3358-.75.75-.75v-.5zM32.75 31c0 .6904.5596 1.25 1.25 1.25v-.5c-.4142 0-.75-.3358-.75-.75h-.5z"/><path fill="#fff" fill-rule="evenodd" d="M38 33c0 .5523-.4477 1-1 1 .5523 0 1 .4477 1 1 0-.5523.4477-1 1-1-.5523 0-1-.4477-1-1z" clip-rule="evenodd"/><path fill="#fff" d="M37 33.75c-.1381 0-.25.1119-.25.25s.1119.25.25.25v-.5zm1.25-.75c0-.1381-.1119-.25-.25-.25s-.25.1119-.25.25h.5zm-.5 2c0 .1381.1119.25.25.25s.25-.1119.25-.25h-.5zm1.25-.75c.1381 0 .25-.1119.25-.25s-.1119-.25-.25-.25v.5zm-2 0c.6904 0 1.25-.5596 1.25-1.25h-.5c0 .4142-.3358.75-.75.75v.5zm1.25.75c0-.6904-.5596-1.25-1.25-1.25v.5c.4142 0 .75.3358.75.75h.5zm.75-1.25c-.6904 0-1.25.5596-1.25 1.25h.5c0-.4142.3358-.75.75-.75v-.5zM37.75 33c0 .6904.5596 1.25 1.25 1.25v-.5c-.4142 0-.75-.3358-.75-.75h-.5z"/><path fill="#fff" fill-rule="evenodd" d="M37 29c0 .5523-.4477 1-1 1 .5523 0 1 .4477 1 1 0-.5523.4477-1 1-1-.5523 0-1-.4477-1-1z" clip-rule="evenodd"/><path fill="#fff" d="M36 29.75c-.1381 0-.25.1119-.25.25s.1119.25.25.25v-.5zm1.25-.75c0-.1381-.1119-.25-.25-.25s-.25.1119-.25.25h.5zm-.5 2c0 .1381.1119.25.25.25s.25-.1119.25-.25h-.5zm1.25-.75c.1381 0 .25-.1119.25-.25s-.1119-.25-.25-.25v.5zm-2 0c.6904 0 1.25-.5596 1.25-1.25h-.5c0 .4142-.3358.75-.75.75v.5zm1.25.75c0-.6904-.5596-1.25-1.25-1.25v.5c.4142 0 .75.3358.75.75h.5zm.75-1.25c-.6904 0-1.25.5596-1.25 1.25h.5c0-.4142.3358-.75.75-.75v-.5zM36.75 29c0 .6904.5596 1.25 1.25 1.25v-.5c-.4142 0-.75-.3358-.75-.75h-.5z"/><circle cx="41.5" cy="33.5" r=".5" fill="#fff"/><circle cx="43.5" cy="32.5" r=".5" fill="#fff"/><circle cx="37.5" cy="38.5" r=".5" fill="#fff"/><circle cx="35.5" cy="35.5" r=".5" fill="#fff"/><circle cx="35.5" cy="32.5" r=".5" fill="#fff"/><circle cx="33.5" cy="29.5" r=".5" fill="#fff"/><circle cx="30.5" cy="35.5" r=".5" fill="#fff"/><circle cx="33.5" cy="36.5" r=".5" fill="#fff"/><circle cx="41.5" cy="27.5" r=".5" fill="#fff"/><circle cx="33.5" cy="26.5" r=".5" fill="#fff"/><circle cx="37.5" cy="25.5" r=".5" fill="#fff"/><circle cx="29.5" cy="31.5" r=".5" fill="#fff"/><circle cx="39.5" cy="31.5" r=".5" fill="#fff"/><path fill="none" stroke="#fff" stroke-linecap="round" stroke-linejoin="round" d="M27.4883 23.4277l-.4278.8555L28.7715 23m-2.9941 1.711c-.3422.6844-.4278 1.4258-.4278 1.711l.8555-.4278m-2.9943 2.9943c.2852.9981 1.0266 2.652 1.711 1.2832m-.8555-3.8497c0 .9981.2567 2.7376 1.2833 1.711m-2.5665 3.422c.2851.998 1.1121 2.652 2.1387 1.2832m-2.5665.8555c.4278.9981 1.5399 2.652 2.5665 1.2832m-1.711 1.7111c.8555 1.2832 2.5665 1.2832 2.9943 0m-.8555 2.5664c.5703.4278 2.1388 1.1977 2.1388-.8555m-.4279 2.9943c.4278.1426 1.3688.3422 1.711 0 .3422-.3422.2852-.9981 0-1.2833m3.8498 3.8497s1.0205.6906 2.1387-.4277c.3422-.3422-.4277-.7129-.8555-.8555-.8555 0-3.1653-.0855-3.8497-.4277m15.0565-18.821l.4278.8555L43.8281 23m2.9942 1.711c.3422.6844.4277 1.4258.4277 1.711l-.8555-.4278m2.9943 2.9943c-.2852.9981-1.0266 2.652-1.711 1.2832m.8555-3.8497c0 .9981-.2567 2.7376-1.2832 1.711m2.5664 3.422c-.2851.998-1.1121 2.652-2.1387 1.2832m2.5665.8555c-.4278.9981-1.5399 2.652-2.5665 1.2832m1.711 1.7111c-.8555 1.2832-2.5665 1.2832-2.9942 0m.8554 2.5664c-.5703.4278-2.1387 1.1977-2.1387-.8555m.4278 2.9943c-.4278.1426-1.3688.3422-1.711 0-.3422-.3422-.2852-.9981 0-1.2833m-3.8498 3.8497s-1.0204.6906-2.1387-.4277c-.3422-.3422.4277-.7129.8555-.8555.8555 0 3.1653-.0855 3.8497-.4277"/><circle cx="36" cy="32" r="9" fill="none" stroke="#fff" stroke-width="1.15"/><path fill="none" stroke="#fff" stroke-linecap="round" stroke-width="3" d="M11.5 48.5h49"/><g><path fill="none" stroke="#000" stroke-linecap="round" stroke-linejoin="round" stroke-width="2" d="M67 17H5v38h62V17z"/></g></svg>