<svg xmlns="http://www.w3.org/2000/svg" role="img" viewBox="14.24 12.74 43.40 46.02"><title>E326.svg</title><g id="color"><path fill="#d0cfce" d="M35.665 44.073L36.036 43.134 40.401 41.634 44.301 47.155 39.993 50.199 35.665 44.073z"/><path fill="#d0cfce" d="M27.755 42.138H35.521V47.413H27.755z" transform="rotate(-54.661 31.638 44.776)"/><path fill="#92d3f5" d="M53.8248 25.6409l-10.7522-7.5227 1.455-2.08c.7017-1.003 1.7967-1.4059 2.36-.8684l2.8557 2.7241c.5935.5666 1.2697 1.0397 2.0054 1.4029l3.5378 1.7492c.698.3451.6949 1.5119-.0068 2.5148l-1.4549 2.0801zM29.0712 17.9523l-10.9137 7.4825-1.4475-2.1109c-.698-1.018-.69-2.1945.0171-2.5359l3.5841-1.73c.7453-.3593 1.4316-.8298 2.0354-1.3955l2.9056-2.7194c.5733-.5366 1.6735-.12 2.3715.8981l1.4475 2.1111z"/><path fill="#fff" d="M43.6753 19.5893l-10.2427 13.9875c-.1263.1758-.2141.3707-.2625.5817-.068.2965-.1536.7577-.1718 1.2606-.0291.8034-.3432 4.3296-.3432 4.3296l3.4669 2.4117 4.6828-1.5774c.0612-.0206.1141-.045.1681-.0804.2505-.1638 1.0406-.7035 1.3794-1.2062l9.894-13.6536-8.571-6.0535zM19.7277 25.3772l8.7391-5.9622 6.2616 9.2291-2.7497 3.8114s-.7961.9212-.8327 3.1661l-.2835 4.1029-.5284.7457-.5763-.6026c-.1245-.1104-.2348-.2356-.3286-.373l-9.6753-14.0799-.0262-.0375z"/></g><g id="line"><path fill="none" stroke="#000" stroke-linecap="round" stroke-linejoin="round" stroke-width="2" d="M35.665 44.073L36.036 43.134 40.401 41.634 44.301 47.155 39.993 50.199 35.665 44.073z"/><path fill="none" stroke="#000" stroke-linecap="round" stroke-linejoin="round" stroke-width="2" d="M27.755 42.138H35.521V47.413H27.755z" transform="rotate(-54.661 31.638 44.776)"/><path fill="none" stroke="#000" stroke-linecap="round" stroke-linejoin="round" stroke-width="2" d="M53.8248 25.6409l-10.7522-7.5227 1.455-2.08c.7017-1.003 1.7967-1.4059 2.36-.8684l2.8557 2.7241c.5935.5666 1.2697 1.0397 2.0054 1.4029l3.5378 1.7492c.698.3451.6949 1.5119-.0068 2.5148l-1.4549 2.0801zM29.0712 17.9523l-10.9137 7.4825-1.4475-2.1109c-.698-1.018-.69-2.1945.0171-2.5359l3.5841-1.73c.7453-.3593 1.4316-.8298 2.0354-1.3955l2.9056-2.7194c.5733-.5366 1.6735-.12 2.3715.8981l1.4475 2.1111zM43.0451 18.8925l-10.1596 13.8775c-.5199.6959-.7967 1.5434-.7877 2.412l-.365 4.9012-4.492 6.3351 4.3033 3.0513 4.492-6.3351 4.8032-1.66c.8299-.2541 1.5534-.7737 2.0593-1.4789l10.1094-13.809M35.889 28.668L29.28 19.057"/><path fill="none" stroke="#000" stroke-linecap="round" stroke-linejoin="round" stroke-width="2" d="M35.494 43.898L39.87 50.059 44.171 47.005 40.401 41.634M19.1061 26.0533l9.7445 14.1716c.4173.6149.9963 1.1026 1.6732 1.4093"/><rect width="6.791" height="2.291" x="24.127" y="49.423" rx=".8" ry=".8" transform="rotate(-54.232 27.523 50.569)"/><rect width="3.417" height="3.417" x="22.398" y="53.603" rx="1.175" ry="1.175" transform="rotate(-54.232 24.106 55.311)"/><rect width="2.291" height="6.791" x="42.853" y="47.757" rx=".8" ry=".8" transform="rotate(-33.03 43.998 51.152)"/><rect width="3.417" height="3.417" x="45.476" y="54.344" rx="1.175" ry="1.175" transform="rotate(-33.03 47.184 56.052)"/><path fill="none" stroke="#000" stroke-linecap="round" stroke-linejoin="round" stroke-width="2" d="M39.515 24.604L49.066 31.658M21.51 29.55L31.638 22.487"/></g></svg>