<svg xmlns="http://www.w3.org/2000/svg" role="img" viewBox="11.03 10.41 50.06 50.44"><title>1F634.svg</title><g id="color"><circle cx="36" cy="36" r="24" fill="#FCEA2B"/><circle cx="36" cy="48.144" r="3.404" fill="#FFF"/></g><g id="line"><path fill="none" stroke="#000" stroke-linecap="round" stroke-linejoin="round" stroke-miterlimit="10" stroke-width="2" d="M44.7693,14.7308c-0.3678-0.1518-0.7405-0.2944-1.1176-0.4274C41.258,13.4592,38.6826,13,36,13c-12.7031,0-23,10.2969-23,23 c0,12.7022,10.2969,23,23,23c12.7022,0,23-10.2978,23-23c0-2.8236-0.5088-5.5284-1.4397-8.0276"/><circle cx="36" cy="48.144" r="3.404" fill="none" stroke="#000" stroke-linecap="round" stroke-linejoin="round" stroke-miterlimit="10" stroke-width="2"/><path fill="none" stroke="#000" stroke-linecap="round" stroke-linejoin="round" stroke-miterlimit="10" stroke-width="2" d="M50.1652 32.8593c-3.1758 2.3436-7.4563 2.061-10 0M31.8348 32.8593c-3.1758 2.3436-7.4563 2.061-10 0"/><path d="M44.8748 24.0258h-2.6162c-.3564 0-.6855-.1899-.8652-.498-.1787-.3086-.1797-.6885-.0029-.998l1.7607-3.082h-.8926c-.5527 0-1-.4478-1-1s.4473-1 1-1h2.6162c.3564 0 .6855.1899.8652.498.1787.3086.1797.6885.0029.998l-1.7607 3.082h.8926c.5527 0 1 .4478 1 1S45.4275 24.0258 44.8748 24.0258zM51.0184 20.0258h-3.7598c-.3564 0-.6855-.1899-.8652-.498-.1787-.3086-.1797-.6885-.0029-.998l2.9043-5.082h-2.0361c-.5527 0-1-.4478-1-1s.4473-1 1-1h3.7598c.3564 0 .6855.1899.8652.498.1787.3086.1797.6885.0029.998l-2.9044 5.082h2.0361c.5527 0 1 .4478 1 1S51.5711 20.0258 51.0184 20.0258zM59.1609 25.0258h-4.9023c-.3564 0-.6855-.1899-.8652-.498-.1787-.3086-.1797-.6885-.0029-.998l4.0469-7.082h-3.1787c-.5527 0-1-.4478-1-1s.4473-1 1-1h4.9023c.3564 0 .6855.1899.8652.498.1787.3086.1797.6885.0029.998l-4.0469 7.082h3.1787c.5527 0 1 .4478 1 1S59.7137 25.0258 59.1609 25.0258z"/></g><g id="color-foreground" fill="#61B2E4" stroke="#61B2E4" stroke-miterlimit="10" stroke-width=".1"><path d="M44.8748 24.0258h-2.6162c-.3564 0-.6855-.1899-.8652-.498-.1787-.3086-.1797-.6885-.0029-.998l1.7607-3.082h-.8926c-.5527 0-1-.4478-1-1s.4473-1 1-1h2.6162c.3564 0 .6855.1899.8652.498.1787.3086.1797.6885.0029.998l-1.7607 3.082h.8926c.5527 0 1 .4478 1 1S45.4275 24.0258 44.8748 24.0258zM51.0184 20.0258h-3.7598c-.3564 0-.6855-.1899-.8652-.498-.1787-.3086-.1797-.6885-.0029-.998l2.9043-5.082h-2.0361c-.5527 0-1-.4478-1-1s.4473-1 1-1h3.7598c.3564 0 .6855.1899.8652.498.1787.3086.1797.6885.0029.998l-2.9044 5.082h2.0361c.5527 0 1 .4478 1 1S51.5711 20.0258 51.0184 20.0258zM59.1609 25.0258h-4.9023c-.3564 0-.6855-.1899-.8652-.498-.1787-.3086-.1797-.6885-.0029-.998l4.0469-7.082h-3.1787c-.5527 0-1-.4478-1-1s.4473-1 1-1h4.9023c.3564 0 .6855.1899.8652.498.1787.3086.1797.6885.0029.998l-4.0469 7.082h3.1787c.5527 0 1 .4478 1 1S59.7137 25.0258 59.1609 25.0258z"/></g></svg>