<svg xmlns="http://www.w3.org/2000/svg" role="img" viewBox="14.10 9.47 52.55 53.43"><title>E0AD.svg</title><path fill="#f1b31c" d="M25.1643 37.59c-3.0066 0-4.0088-7.0153-4.0088-14.0306 0-6.0131 5.011-12.0263 14.0307-12.0263S49.2168 17.5464 49.2168 23.56c0 7.0153-3.2135 9.4758-3.2135 9.4758l-.11-4.4768.1277-2.367L43.6809 23s-1.83-1.617-1.66-1.4043-2.5884-2.9787-2.5884-2.9787l-2.1692-.33-3.4552 2.2871-2.4681 1.277-1.9627 1.5389-3.3135 1.44-.6383.4255-.0425 2.28-.5958 2.8687 1.5365 7.1858h-1.1594"/><path fill="#fcea2b" d="M24.1987 28.7988c0 8.2186 4.6433 13.3927 11.6123 13.3927 6.823 0 10.4006-4.1406 10.4006-12.3592a8.7214 8.7214 0 0 0-.9629-4.2967c-3.448-2.7395-5.9168-8-5.9168-8-4.5973 2.7395-8.0453 5.4791-14.9413 6.3923 0 0-.1919.305-.1919 4.8709z"/><path fill="#92d3f5" d="M47.1813 46.4687c-4.9473 7.4285-9.7692 5.8349-14.06 3.5476l-6.7135-10.8142-8.41 4.992-.5249 2.19-.4339-.0808-.2111 2.7712-.5792 2.4165.3995-.0566-.2467 3.239a12.764 12.764 0 0 0-.1528 2.0052v4.28h38v-4.28c0-5.3438-3.7487-8.6468-7.0674-10.2099z"/><path fill="#fcea2b" d="M26.408 39.202l5.672 10.167L54.249 37.09l4.159-3.565 3.481 1.859 2.253-1.327.811-2.928-6.398-4.093H56.16l-2.511.633-2.086 2.367-1.419 2.488-23.736 6.678z"/><g fill="none" stroke="#000" stroke-linecap="round" stroke-width="2"><path stroke-linejoin="round" d="M21.2516 27.5356c-.0029-.6543-.0029-1.3223-.0029-2 0-7 5-14 14-14a13.75 13.75 0 0 1 14 13.4954q.0047.2523 0 .5046c0 .6.0039 1.1318.0049 1.666"/><path stroke-linejoin="round" d="M46.2116 29.5336a11.6605 11.6605 0 0 0-.9629-3.998c-3-3-7-8-7-8-4 3-7 6-13 7 0 0-.9287.873-1.05 5.0693m22.9826 17.3799c3.85 1.1778 7.0674 4.5469 7.0674 8.5508v5.4226"/><path stroke-miterlimit="10" d="M54.1605 37.0356l-14.433 9.0118a58.4589 58.4589 0 0 1-11.937 5.69c-2.4385.8393-4.6463 1.5969-4.6463 1.5969"/><path stroke-miterlimit="10" d="M58.73 33.6221l1.8149 1.1067a2.7369 2.7369 0 0 0 3.2106-.2627h0a2.7321 2.7321 0 0 0 .3381-3.8073 12.1519 12.1519 0 0 0-5.3648-3.5348 6.1469 6.1469 0 0 0-4.9344.377h0a3.3866 3.3866 0 0 0-.6987.4977l-.5025.4643a3.3845 3.3845 0 0 0-.73.9721l-.5832 1.1668a4.7 4.7 0 0 1-1.97 2.0334h0A80.9152 80.9152 0 0 0 35.3764 36.69l-13.5121 5.0544a8.1235 8.1235 0 0 0-5.2372 6.6187 91.6836 91.6836 0 0 0-.4671 11.6725m12.92-30.5391s2.53 1.5112 4.0415 0m4.2906-.2274s2.53 1.5112 4.0415 0"/><path stroke-linejoin="round" d="M26.3237 37.59s-3.9807 1.0222-4.5279-5.5161"/><path stroke-miterlimit="10" d="M29.08 42.5106s-.0059 2.5532 2.0208 3.4468"/><path stroke-linejoin="round" d="M36.1883 51.0828q5.2653.7349 10.5305-3.6528"/></g></svg>