<svg xmlns="http://www.w3.org/2000/svg" role="img" viewBox="2.59 5.34 66.69 63.81"><title>E212.svg</title><path fill="#fcea2b" d="M35.1143 20.4165a1 1 0 0 1-.8955-1.4448l.81-1.6323a1.041 1.041 0 0 1 1.791 0l.8008 1.6113a1 1 0 0 1-.8828 1.4448l-1.6113.021z"/><path fill="#d0cfce" d="M31.771 20.233h8.458v12.419h-8.458z"/><path fill="#9b9b9a" d="M37.145 20.233h3.095v12.419h-3.095z"/><path fill="#d0cfce" d="M45.949 62.528l-3.554-26.324h-12.79l-3.554 26.324h19.898z"/><path fill="#9b9b9a" d="M39.9355 40.08a1 1 0 0 0-.9931-.8828h-5.8848a1 1 0 0 0-.9931.8828l-2.6412 22.33a1 1 0 0 0 .9932 1.1171H41.583a1.0009 1.0009 0 0 0 .9932-1.1171z"/><path fill="#92d3f5" d="M4 62.528h64.013V68H4z"/><path fill="#d0cfce" d="M36 10.031l3.269 3.998h-6.538L36 10.031zm-8.06 22.62h16.12v3.553H27.94z"/><g fill="none" stroke="#000" stroke-linecap="round" stroke-linejoin="round"><path stroke-width="2" d="M36 7.614v2.417m-8.06 22.62h16.12v3.553H27.94z"/><path stroke-width="2" d="M31.771 20.233h8.458v12.419h-8.458zm8.458 3h-8.458m9.365-3H30.864m2.485-6.204h5.269v6.203h-5.269zM27.94 32.651l-.905-1.611m17.025 1.611l.905-1.611M36 10.031l3.269 3.998h-6.538L36 10.031zm5.224 49.455l-2.282-19.289h-5.884l-2.282 19.289"/><path stroke-width="2" d="M45.949 62.528l-3.554-26.324h-12.79l-3.554 26.324h19.898z"/><path stroke-width="2.001" d="M5.004 62.528h61.994"/></g></svg>