<svg xmlns="http://www.w3.org/2000/svg" role="img" viewBox="14.70 5.58 52.47 54.34"><title>1F469-1F3FC-200D-1F692.svg</title><path fill="#D22F27" d="M51.6005 21.7394c-1.2424-1.0276-3.1754-1.2845-5.0366-1.1561-1.9375.1336-3.8314.7473-5.5122 1.7729-1.6872 1.0294-3.5154 1.5016-5.2726 1.5234-1.7569-.0218-3.585-.494-5.2722-1.5234-1.6809-1.0256-3.5747-1.6393-5.5122-1.7729-1.8615-.1284-3.7943.1285-5.0366 1.1561 0 0-4.4856 3.444.6199 7.412 10.1343 4.2267 20.2683 4.2268 30.4025.0001 5.1056-3.9681.62-7.4121.62-7.4121z"/><path fill="#EA5A47" d="M35.5608 7.6561c.0691 0 .1399.0053.2092.0061.0694-.0008.1402-.0061.2093-.0061h-.4185zm.2092.0061c-5.4277.0619-11.719 1.9772-11.8034 11.9473l-.2803.8991c.5991-.0556 1.2175-.0607 1.8293-.0208 1.8726.1225 3.7029.6844 5.3274 1.6236 1.6307.9428 3.3975 1.3753 5.0955 1.3952 1.6982-.0199 3.4651-.4524 5.0957-1.3952 1.6245-.9392 3.4548-1.5011 5.3274-1.6236.5063-.0331 1.0171-.0341 1.5183-.0034l-.3064-.8749C47.489 9.6394 41.1978 7.7241 35.77 7.6622z"/><path fill="#A57939" d="M16.725 58.8812s-2-13.5 10-13.5c3.1919 2.1279 5.9264 3.5984 9 3.5922H35.6c3.0736.0062 5.7081-2.5643 8.9-4.6922 10.0682-.5859 11.8023 7.479 11.4489 10.8872-.1964 1.8934-1.1178 3.683-1.049 3.7128"/><path fill="#3F3F3F" d="M39.701 52.703l-3.89 5.871-3.83-5.871z"/><path fill="#9B9B9A" d="M63.6613 38.5923l1.43 1.72c-2.29 1.78-6.58 7.24-6.58 7.24l-3.03-3.65s5.93-3.25 8.18-5.31z"/><path fill="#9B9B9A" d="M52.6679 46.23532l2.80844-2.33135 3.03012 3.65019-2.80843 2.33135z"/><path fill="#3F3F3F" d="M52.6713 46.2323l3.03 3.65s-6.98 5.92-6.65 9.01h-5.21c-.97-6.13 8.83-12.66 8.83-12.66z"/><path fill="#FCEA2B" d="M31.4701 17.7429v-4.6823l4.1171-5.2226 4.4789 5.3009v4.604c-2.535 1.8666-6.3765 1.1812-8.596 0z"/><g fill="#fcea2b"><path d="M26.7588 19.7649c-1.7821 2.2194-2.0358 4.2075-1.935 5.4848l-.1722.4657c2.1471-.3334 5.5091-1.9969 7.624-3.5629m8.5985-.6994c2.6002 2.2005 5.8288 4.4575 7.1545 3.4331.2163-2.3798-1.2982-4.7597-1.2982-4.7597m-21.7516 5.6848s-10.6339 2.5266-7.9128 15.7288c0 0 5.3626.1413 7.5363-2.4284 0 0 2.4867-2.2423 3.5184-8.1865s-3.2501-5.1369-3.2501-5.1369"/></g><g fill="#debb90"><path d="M35.7154 23.4165c4.0167-2.5616 11.8176.9081 11.184 4.9181 0 7.8276-5.0765 14.1732-11.3386 14.1732s-11.3386-6.3456-11.3386-14.1732c-.4039-2.0168 6.6155-7.9845 11.4932-4.9181zm8.9453 21.627l.06.09-5.02 7.57h-7.72l-5.06-7.75c3.15 2.1 5.86 3.56 8.88 3.59h.12c2.98-.03 5.65-1.45 8.74-3.5z"/></g><g><path d="M41.884 26.8797c0 1.1045-.8965 2-2 2s-2-.8955-2-2c0-1.1035.8965-2 2-2s2 .8965 2 2m-8 0c0 1.1045-.8965 2-2 2s-2-.8955-2-2c0-1.1035.8965-2 2-2s2 .8965 2 2m1.9999 10.0024c-1.1519 0-2.3037-.2861-3.4473-.8579-.4941-.247-.6943-.8476-.4472-1.3418.2465-.4936.8461-.6943 1.3417-.4472 1.7178.8594 3.3877.8594 5.1055 0 .4946-.2471 1.0947-.0464 1.3418.4472.2471.4942.0469 1.0948-.4473 1.3418-1.1435.5718-2.2954.8579-3.4472.8579z"/><path d="M35.8838 43.4141c-6.8037 0-12.3389-6.8067-12.3389-15.1734 0-.9248.0684-1.854.2031-2.7607l1.9786.2939c-.1202.8101-.1817 1.6402-.1817 2.4668 0 7.2642 4.6377 13.1734 10.3389 13.1734s10.3389-5.9092 10.3389-13.1734c0-1.0727-.1016-2.1391-.3028-3.1699l1.9629-.3828c.2256 1.1567.3399 2.352.3399 3.5527 0 8.3667-5.5352 15.1734-12.3389 15.1734zm.2539-23.5069c-1.8506 0-3.708-.5205-5.1377-1.2817-.3262-.1738-.5303-.5132-.5303-.8828v-4.6822c0-.2246.0752-.4428.2149-.6191l4.1172-5.2226c.1855-.2359.4677-.3755.7685-.3809h.0166c.294 0 .5733.1294.7637.3545l4.4795 5.3008c.1523.1806.2363.4091.2363.6455v4.604c0 .3178-.1514.6167-.4072.8052-1.3135.9672-2.9151 1.3593-4.5215 1.3593zm-3.668-2.7905c1.9942.8755 4.7315 1.1475 6.5967.085v-3.6973l-3.4521-4.0855-3.1446 3.9883v3.7095z"/><path d="M36.2383 19.9072c-1.8506 0-3.707-.5205-5.1367-1.2817-.3262-.1738-.5303-.5132-.5303-.8828v-4.6822c0-.2246.0752-.4428.2148-.6191l4.1172-5.2226c.1856-.2359.4678-.3755.7686-.3809h.0166c.2939 0 .5732.1294.7636.3545l4.4786 5.3008c.1523.1806.2363.4091.2363.6455v4.604c0 .3178-.1514.6167-.4072.8052-1.3135.9672-2.9151 1.3593-4.5215 1.3593zm-3.667-2.7905c1.9902.8755 4.7285 1.1484 6.5957.085v-3.6973l-3.4522-4.0855-3.1435 3.9883v3.7095z"/><path d="M47.5186 20.6094c-.5489 0-.9952-.4424-1-.9917-.0616-7.3057-3.5957-10.8926-10.8028-10.9605-7.208.0679-10.7422 3.6548-10.8037 10.9605-.0049.5493-.4512.9917-1 .9917h-.0088c-.5517-.0049-.9961-.4561-.9912-1.0083.0693-8.2896 4.3838-12.7539 12.4834-12.939.0361-.0039.0733-.0058.1104-.0058h.4189c.0371 0 .0742.0019.1104.0058 8.0996.1851 12.414 4.6494 12.4834 12.939.0048.5522-.4395 1.0034-.9913 1.0083h-.0087z"/><path d="M47.0146 27.1597c-1.538.0005-3.4628-1.6187-5.4746-3.3111-.3984-.334-.7929-.6665-1.1767-.9785-.4287-.3486-.4932-.978-.1455-1.4067.3486-.4282.9785-.4932 1.4072-.145.3926.3188.7959.6582 1.2021 1 1.0313.8676 2.8096 2.3628 3.75 2.7485-.1289-1.5469-.8476-3.4194-1.1181-3.9082-.2686-.4829-.0938-1.0918.3887-1.3599.4814-.2671 1.0918-.0937 1.3593.3892.419.7534 1.5664 3.6611 1.3662 5.8721-.0253.2768-.165.5307-.3847.7011-.3574.2764-.751.3985-1.1739.3985zm.5625-1.19h.0098-.0098z"/><path d="M50.5762 29.335c-.3076 0-.6104-.1416-.8067-.4078-.3271-.4443-.2324-1.0703.2129-1.3979 1.2989-.9565 1.9561-1.9111 1.9531-2.8379-.0039-1.3208-1.3359-2.3267-1.3486-2.3364-.8808-.689-2.3701-.9912-4.2148-.8692-1.7051.1114-3.3965.6275-4.8926 1.4913-1.6904.9775-3.6211 1.5063-5.584 1.5297-1.9863-.0234-3.917-.5522-5.6084-1.5297-1.4941-.8643-3.1855-1.3799-4.8916-1.4913-1.8467-.1211-3.333.1797-4.1846.8477-.0976.0728-1.8007 1.3613-1.2763 2.999.1689.5259-.1211 1.0889-.6465 1.2573-.5283.169-1.0899-.1215-1.2578-.6469-.9688-3.021 1.8545-5.1172 1.9756-5.2051 1.5586-1.2241 3.8691-1.355 5.5205-1.2481 2.0107.1319 4.0029.7388 5.7627 1.7559 1.3935.8062 2.9873 1.2422 4.6064 1.2612 1.5957-.019 3.1895-.455 4.583-1.2612 1.7608-1.0171 3.7529-1.624 5.7627-1.7559 1.6543-.1093 3.9609.024 5.5498 1.2696.0606.0429 2.1377 1.581 2.1445 3.9267.004 1.5996-.9267 3.0982-2.7675 4.4536-.1787.1319-.3858.1954-.5918.1954z"/><path d="M24.8037 26.6372c-.5058 0-.9394-.3818-.9932-.8955-.0585-.5488.3399-1.041.8897-1.0991 1.5332-.1612 3.6572-1.1988 6.1416-2.9995.4482-.3238 1.0732-.2242 1.3965.2226.3242.4473.2246 1.0723-.2227 1.3965-2.8066 2.0352-5.1982 3.1685-7.1064 3.3696a1.06485 1.06485 0 0 1-.1055.0054z"/><path d="M17.6357 41.9199c-.4736 0-.8837-.332-.9794-.7978-2.0792-10.0879 4.2392-13.8555 6.7285-14.9258-.2539-1.2749-.3145-3.5967 1.5048-6.2515.3135-.4551.9346-.5727 1.3907-.2593.4551.3121.5713.9346.2597 1.3902-2.0302 2.9604-1.0693 5.2236-1.0273 5.3188.1182.2671.1152.5782-.0107.8413-.127.2637-.3604.4634-.6426.5386-.3321.0908-7.9619 2.2949-6.4043 12.0713 1.4043-.1807 3.6338-.7129 4.7002-1.9736.3574-.4209.9863-.4727 1.4101-.1172.4209.3574.4737.9883.1172 1.4101-2.1767 2.5713-6.8183 2.7481-7.0146 2.7539-.0108.001-.0215.001-.0323.001zm-.7148 16.9512c-.4844 0-.9102-.3525-.9863-.8467-.041-.2695-.9727-6.6328 2.581-10.7754 1.9229-2.2412 4.751-3.3769 8.4073-3.3769.1972 0 .3906.0586.5546.1679 3.1534 2.1016 5.6602 3.4092 8.3829 3.4239 2.7236-.0137 5.2304-1.3213 8.3828-3.4239a1.0013 1.0013 0 0 1 .5547-.1679c1.2753 0 2.4638.1406 3.5332.4179.5341.1387.8554.6836.7168 1.2188-.1387.5342-.6846.8584-1.2188.7168-.8242-.2129-1.7422-.3311-2.7344-.3506-3.3086 2.1846-6.0254 3.5449-9.1259 3.5879-.0215.001-.043.001-.0645.001h-.0664a.29428.29428 0 0 0-.042 0c-.0146 0-.0293 0-.0439-.001-3.0987-.043-5.8165-1.4033-9.126-3.5879-2.8965.0566-5.1104.9541-6.586 2.6689-2.956 3.4366-2.1377 9.1202-2.1289 9.1778.083.5449-.292 1.0547-.8379 1.1387-.0507.0078-.1015.0107-.1523.0107z"/><path d="M47.5 45.0698v6.6c-1.57 1.72-2.79 3.76-2.56 5.84-.15.04-.3.04-.45 0-.45-.11-.77-.51-.77-.97v-8.3l-7.08 10.21c-.19.27-.5.43-.83.43s-.64-.16-.82-.44l-7.07-10.33v9.81c0 .55-.44 1-1 1h-1.78c-.55 0-1-.45-1-1v-12.87c0-.55.45-1 1-1 .36 0 .67.18.85.46.11-.28.34-.5.64-.59.41-.13.87.03 1.12.39l8.07 11.81 8.08-11.64c.25-.36.7-.52 1.12-.39.26.09.48.27.59.51.17-.3101.5-.53.89-.53.55 0 1 .45 1 1z"/><path d="M39.7021 53.2217h-7.7187c-.5527 0-1-.4473-1-1 0-.5528.4473-1 1-1h7.7187c.5528 0 1 .4472 1 1 0 .5527-.4472 1-1 1zm16.128-2.3369c-.2881 0-.5733-.1231-.7705-.3623l-3.0283-3.6543c-.17-.2041-.251-.4668-.2266-.7315.0254-.2637.1543-.5068.3584-.6758l1.5996-1.3261-6.0029-2.8369c-.4991-.2364-.7119-.8321-.4766-1.3321.2363-.498.8291-.7138 1.332-.4765l6.958 3.289c1.4024-.7881 5.7569-3.2871 7.5479-4.9219.2021-.1845.4707-.2744.7432-.2597.2724.0195.5263.1494.7002.3603l1.4218 1.7159c.1729.208.2539.4775.2246.746-.0293.2686-.166.5147-.3798.6807-2.1045 1.6387-6.1407 6.7383-6.3936 7.0596-.0381.0498-.082.0976-.1309.1416l-.0009.001c-.0108.0097-.0215.0185-.0332.0283l-2.8057 2.3242c-.1865.1553-.4121.2305-.6367.2305zm-1.6211-4.5225l1.7519 2.1143 1.2696-1.0518-1.752-2.1143-1.2695 1.0518zm2.9365-2.1748l1.4805 1.7861c1.1758-1.4482 3.4511-4.1728 5.1943-5.7812l-.1543-.1865c-1.915 1.4961-4.9306 3.2744-6.5205 4.1816z"/><path d="M53.29 47.0998c-.06.03-3.34 1.91-5.79 4.5699-1.57 1.72-2.79 3.76-2.56 5.84 0 .07.01.15.02.22.09.55-.28 1.06-.83 1.15-.05.01-.1.01-.16.01-.48 0-.9-.35-.98-.84-.24-1.52.08-3 .73-4.36.86-1.83 2.3101-3.47 3.78-4.81 2.28-2.08 4.61-3.41 4.81-3.52.48-.27 1.09-.1 1.36.38.27.4801.1 1.0901-.38 1.3601zm-4.1084 11.8191c-.5048 0-.9384-.3808-.9931-.8935-.374-3.4951 5.8174-8.0742 7.0625-8.9561.4511-.3203 1.0752-.2148 1.3935.2373.3194.4502.2139 1.0743-.2373 1.3936-2.6982 1.915-6.415 5.3867-6.2304 7.1123.0586.5498-.3389 1.042-.8877 1.1006a1.0066 1.0066 0 0 1-.1075.0058zm5.7168-.0478c-.0507 0-.1015-.0029-.1523-.0107-.5459-.084-.9209-.5938-.8379-1.1387 0-.0049.0723-.4854.1006-1.2393l.0088-.2998c.0068-.2988.0049-.626-.0078-.9775l.0117-.6953c.0107-.5528.4707-.9571 1.0195-.9805.5528.0107.9912.4678.9805 1.0195l-.0127.6387c.0137.3379.0156.7041.0088 1.0342l-.0108.3359c-.0332.8789-.1181 1.4434-.122 1.4668-.0762.4942-.502.8467-.9864.8467z"/></g></svg>