<svg xmlns="http://www.w3.org/2000/svg" role="img" viewBox="5.84 5.84 60.32 60.20"><title>1F9C6.svg</title><g id="color"><circle cx="36" cy="35.998" r="28" fill="#fff"/><path fill="#a57939" stroke="#a57939" stroke-width="2" d="m52.99,45.478c-2.627,4.555-6.949,7.882-12.02,9.248-5.067,1.365-10.49.6441-15.03-1.979l3.463-6.007c8.406-15.49,5.906-11.48,21.62-2.395l1.967,1.133Z"/><ellipse cx="35.04" cy="24.707" fill="#6a462f" stroke="#6a462f" stroke-width="2" rx="7.993" ry="8.057" transform="rotate(-70 35.04 24.707)"/><ellipse cx="26.906" cy="36.213" fill="#5c9e31" rx="8.057" ry="7.99" transform="rotate(-10 26.905 36.213)"/><path fill="#6a462f" d="m20.32,40.538c1.4953,2.2077,4.0002,3.5329,6.682,3.535,4.4498,0,8.057-3.5772,8.057-7.99s-3.6072-7.99-8.057-7.99c-.2132.0014-.4263.0112-.6387.0293.033.0452.0656.0908.0976.1367.145.2237.2786.4545.4004.6914.1216.2379.2311.4817.3281.7305.0973.2482.1821.5012.2539.7578.0723.2567.1316.5168.1777.7793.0452.2626.0771.5273.0957.793.0139.1879.021.3761.0215.5645-.0003.2661-.014.5321-.041.7969-.027.2655-.0674.5295-.1211.791-.0534.2609-.1199.5191-.1992.7734-.0791.2544-.1711.5047-.2754.75-.1044.2452-.2211.4851-.3496.7187-.1291.234-.2699.4615-.4219.6816-.1513.2201-.3136.4326-.4863.6367-.1737.2037-.3575.3986-.5508.584-.1922.1856-.3936.3616-.6035.5273-.2108.1657-.4298.3208-.6562.4648-.2256.1436-.4584.2759-.6973.3965-.2398.1209-.4855.2297-.7363.3262-.2502.0966-.5051.1807-.7637.252-.2586.0715-.5207.1302-.7852.1758-.242.0403-.4858.0696-.7305.0879l-.0002-.0003Z"/><ellipse cx="43.124" cy="36.559" fill="#6a462f" rx="7.99" ry="8.057" transform="rotate(-70 43.124 36.56)"/></g><g id="line" fill="none" stroke="#000" stroke-width="2"><path stroke-linecap="round" d="m51.28,44.49l1.703.9851c-5.471,9.48-17.57,12.74-27.02,7.278l3.463-6.007"/><circle cx="36.01" cy="36" r="28" stroke-miterlimit="10"/><path stroke-linecap="round" d="m27.02,24.79c-.029-.9764.123-1.974.477-2.947,1.509-4.147,6.122-6.274,10.3-4.752,3.519,1.281,5.611,4.739,5.286,8.274"/><ellipse cx="26.715" cy="35.927" rx="8.057" ry="7.99" transform="rotate(-10 26.715 35.927)"/><ellipse cx="43.333" cy="36.491" rx="8.345" ry="8.411" transform="rotate(-70 43.333 36.491)"/><path stroke-linecap="round" stroke-linejoin="round" d="m20.02,40.39c1.4953,2.2077,4.0002,3.5329,6.682,3.535,4.4498,0,8.057-3.5772,8.057-7.99h0c0-4.4128-3.6072-7.99-8.057-7.99-.2132.0014-.4263.0112-.6387.0293.033.0452.0656.0908.0977.1367.145.2237.2786.4545.4004.6914.1216.2379.2311.4817.3281.7305.0973.2482.1821.5012.2539.7578.0723.2567.1316.5168.1777.7793.0452.2626.0772.5273.0957.793.0139.1879.021.3761.0215.5645-.0003.2661-.014.5321-.041.7969-.027.2655-.0674.5295-.1211.791-.0534.2609-.1198.5191-.1992.7734-.0791.2544-.1711.5047-.2754.75-.1044.2452-.2211.4851-.3496.7187-.1291.234-.2699.4615-.4219.6816-.1513.2201-.3136.4326-.4863.6367-.1737.2037-.3575.3986-.5508.584-.1922.1856-.3936.3616-.6035.5273-.2108.1657-.4298.3208-.6562.4648-.2256.1436-.4584.2759-.6973.3965-.2398.1209-.4855.2297-.7363.3262-.2502.0966-.5051.1807-.7637.252-.2586.0715-.5207.1302-.7852.1758-.242.0403-.4858.0696-.7305.0879l-.0002-.0003Z"/></g></svg>