<svg xmlns="http://www.w3.org/2000/svg" role="img" viewBox="2.72 14.72 66.43 42.43"><title>1F3F4-E0075-E0073-E0063-E0061-E007F.svg</title><path fill="#fff" d="M67 17H5.31909v37.8044H67V17z"/><g fill="#5c9e31"><path fill-rule="evenodd" d="M50.9767 40H21.0233c4.4073-.6361 9.522-1 14.9767-1 5.4547 0 10.5694.3639 14.9767 1z" clip-rule="evenodd"/><path d="M50.9767 40v1c.5245 0 .9599-.4052.9974-.9284.0376-.5232-.3354-.9864-.8546-1.0613L50.9767 40zm-29.9534 0l-.1428-.9897c-.5191.0749-.8922.5381-.8546 1.0613.0375.5232.4729.9284.9974.9284v-1zm29.9534-1H21.0233v2h29.9534v-2zM36 38c-5.4971 0-10.6599.3666-15.1195 1.0103l.2857 1.9794C25.5212 40.3612 30.5878 40 36 40v-2zm15.1195 1.0103C46.6599 38.3666 41.4972 38 36 38v2c5.4122 0 10.4788.3612 14.8339.9897l.2856-1.9794z"/></g><path fill="#EA5A47" d="M5 48h62v7H5z"/><path fill="#EA5A47" stroke="#EA5A47" stroke-linejoin="round" d="M16.5 23l.5613 1.7275h1.8163l-1.4694 1.0676.5613 1.7274L16.5 26.4549l-1.4695 1.0676.5613-1.7274-1.4694-1.0676h1.8163L16.5 23z"/><path fill="#A57939" stroke="#A57939" stroke-linejoin="round" d="M25.5 32.5l-2 1.5.5.5.8271-.0497v1c3.5803 0 2.9428-2.6187 5.6729-1.4503 0 0-1.0849 4.1054-3.5267 4.4315l.0056.6306c1.1716 0 .3285-.0218 1.5001-.0218C30.5344 37.752 32.1332 36.5621 33.5 35c.6926 2.12 3.3577 2.12 1.5 3.5h1.7574s.184-.1723.5014-.61c.3174-.4377-1.2968-2.9192-1.2968-2.9192S38.5 35.5 39.5 35c-.7961 1.9627 1.9817 3.222-1 3.6l.5.4h1.5s1.8158-2.2027 2.1319-3.5497C43.1828 38.3454 47.7828 36.6894 45 39h1l1.5-1c-1.9206-2-1.5327-9.4773-7.0314-9.4773-2.5 0-2.9686.4773-3.9686.4773S33 28 32 28s-4.1511 1.8594-4.5 2c-.3489.1406-1.1729.541-1.1729.541-.5 0-1.5 1.5-1.5 1.5l.6729.459z"/><path fill="none" stroke="#A57939" stroke-linecap="round" stroke-width="3" d="M40.5 44.5H53m-34 0h16.5"/><g><path fill="none" stroke="#000" stroke-linecap="round" stroke-linejoin="round" stroke-width="2" d="M67 17H5v38h62V17z"/></g></svg>