<svg xmlns="http://www.w3.org/2000/svg" role="img" viewBox="13.98 8.98 43.91 52.91"><title>1F368.svg</title><circle cx="35.999" cy="21.001" r="10" fill="#FCEA2B" transform="rotate(-45.001 36 21.002)"/><path fill="#F1B31C" d="M43.0703 13.9375c-2.5937-2.5937-6.2578-3.4551-9.5713-2.6016 1.6748.4317 3.2608 1.2911 4.5713 2.6016 3.9063 3.9063 3.9063 10.2378.001 14.1421-1.3106 1.311-2.8975 2.1724-4.5713 2.602 3.3135.8536 6.9766-.0078 9.5713-2.602 3.9053-3.9043 3.9053-10.2358-.001-14.1421z"/><path fill="#FCEA2B" d="M52.0703 23.9297c3.9063 3.9043 3.9063 10.2363.001 14.1426C48.166 41.9766 39.9053 44.9043 36 41c-3.9053-3.9062-1.9766-13.166 1.9287-17.0713s10.2373-3.9053 14.1416.001z"/><path fill="#F1B31C" d="M52.0703 23.9375c-2.5937-2.5937-6.2578-3.4551-9.5713-2.6016 1.6748.4317 3.2608 1.2911 4.5713 2.6016 3.9063 3.9063 3.9063 10.2383.001 14.1426-1.3106 1.3105-2.8975 2.1719-4.5713 2.6015 3.3135.8536 6.9766-.0078 9.5713-2.6015 3.9053-3.9043 3.9053-10.2363-.001-14.1426z"/><ellipse cx="26.999" cy="31.002" fill="#FCEA2B" rx="10" ry="10.001" transform="rotate(-45.001 26.999 31.003)"/><path fill="#F1B31C" d="M34.0703 23.9375c-2.5937-2.5937-6.2578-3.4551-9.5713-2.6016 1.6748.4317 3.2608 1.2911 4.5713 2.6016 3.9063 3.9063 3.9063 10.2383.001 14.1426-1.3106 1.3105-2.8975 2.1719-4.5713 2.6015 3.3135.8536 6.9766-.0078 9.5713-2.6015 3.9053-3.9043 3.9053-10.2363-.001-14.1426z"/><path fill="#FFF" d="M33 60v-6c0-2.7617-2.2393-5-5-5h-7c-2.7607 0-5-2.2383-5-5v-3c0-1.1045.8955-2 2-2h36c1.1045 0 2 .8955 2 2v3c0 2.7617-2.2393 5-5 5h-7c-2.7607 0-5 2.2383-5 5v6"/><g fill="none" stroke="#000" stroke-linecap="round" stroke-linejoin="round" stroke-miterlimit="10"><path stroke-width="2" d="M26 21c0-5.5228 4.4772-10 10-10s10 4.4772 10 10m-9.9343 5.5031C37.7119 23.2387 41.0947 21 45 21c5.5225 0 10 4.4766 10 10 0 3.1787-1.4829 6.0107-3.7946 7.8423"/><path stroke-width="2" d="M20.6391 38.7165C18.4166 36.8823 17 34.1066 17 31c0-5.5228 4.4772-10 10-10s10 4.4772 10 10c0 3.1784-1.4828 6.0105-3.7945 7.8421"/><path stroke-width="1.947" d="M33 60v-6c0-2.7617-2.2393-5-5-5h-7c-2.7607 0-5-2.2383-5-5v-3c0-1.1045.8955-2 2-2h36c1.1045 0 2 .8955 2 2v3c0 2.7617-2.2393 5-5 5h-7c-2.7607 0-5 2.2383-5 5v6m-10 0h14"/></g></svg>