<svg xmlns="http://www.w3.org/2000/svg" role="img" viewBox="14.82 6.94 54.23 54.86"><title>1F431-200D-1F4BB.svg</title><g id="color"><path fill="#92d3f5" d="m17.1347,58.8989s-2-13.5,10-13.5c3.1918,2.1279,5.9264,3.5984,9,3.5922h-.1247c3.1016-.1525,5.4081-2.1643,8.6-4.2922,15.5705,0,10.8,14.2,10.8,14.2"/><path fill="#61b2e4" d="M49.297 58.861L49.297 45.986 44.806 45.202 44.806 52.447 26.929 52.447 26.931 45.202 22.265 45.986 22.265 58.861 49.297 58.861z"/><path fill="#d0cfce" d="M67.087 43.423L60.137 59.772 35.147 59.772 42.097 43.423 67.087 43.423z"/><path fill="#9b9b9a" d="M67.303 43.423L60.353 59.772 60.133 59.772 51.363 59.772 58.313 43.423 67.083 43.423 67.303 43.423z"/><path fill="#f4aa41" d="m49.1631,33.7883c-2.1131,5.2847-7.4192,8.7024-13.6311,8.7024-5.3551,0-11.31-3.3075-13.4233-8.5922l-.0742-.1813c-.67-1.6576-.5622-3.6865-.5622-5.5835l2.1538-18.7637,6.0076,5.8429c1.7682-.7441,3.6676-1.1263,5.586-1.1239h.6246c1.9184-.0024,3.8178.3798,5.586,1.1239l6.5951-6.4229,2.1863,19.6364c.0024,1.8389-.3508,3.6609-1.04,5.3657"/><path fill="#e27022" d="m35.532,42.4907c6.2312.1985,11.9553-3.3981,14.0684-8.6828l.0651-.1339c.67-1.6576.5626-3.9976.5626-5.8946l-2.2027-18.9894"/><path fill="#b399c8" d="M22.652 17.7L22.165 22.428 49.297 20.787 49.014 18.333 22.652 17.7z"/><path fill="#b399c8" d="m50.8972,19.6c0,1.1046-.8954,2-2,2s-2-.8954-2-2,.8954-2,2-2c1.1044.0004,1.9996.8956,2,2"/><path fill="#fff" d="M47.0723 24.9748s-8.1678 3.4075-7.7837 3.84c7.8154 7.0159 8.4286-2.8627 7.7837-3.84zM24.6281 24.9748s7.5569 4.01 7.7837 3.84c-7.5445 7.3839-8.5455-2.2369-7.7837-3.84zM53.7216 51.7376c-.514 1.1362-1.6057 1.9026-2.8489 2-1.1035 0-1.62-.8955-1.1511-2 .5142-1.1361 1.6058-1.9024 2.849-2 1.1035 0 1.6194.8965 1.151 2"/></g><g id="line"><path fill="none" stroke="#000" stroke-linecap="round" stroke-linejoin="round" stroke-width="2" d="m36.8723,47.8986c-.3528.0548-.7094.0819-1.0665.0811h.125c-3.0736.0063-5.8081-1.4642-9-3.5921-12,0-9.8856,13.561-9.8856,13.561"/><path fill="none" stroke="#000" stroke-linecap="round" stroke-linejoin="round" stroke-width="2" d="M35.467 52.133L26.929 52.133 26.931 44.888M22.265 45.757L22.265 57.867M35.147 59.772L60.137 59.772 67.087 43.423 42.097 43.423 35.147 59.772zM24.177 59.773L35.147 59.773"/><path fill="none" stroke="#000" stroke-linecap="round" stroke-linejoin="round" stroke-width="1.8" d="M38.294 35.589L35.85 32.575M33.407 35.589L35.85 32.575M33.407 32.575L38.294 32.575"/><path fill="none" stroke="#000" stroke-linecap="round" stroke-linejoin="round" stroke-width="2" d="M49.7667 23.869l.4387 4.1844c.0021 1.7794-.3434 3.5421-1.0171 5.189M22.5121 33.2423c-.6737-1.6469-1.0192-3.4095-1.0171-5.1889l2.138-18.99 6.4492 6.2109c1.7311-.72 3.5878-1.0893 5.4626-1.0868h.6108c1.875-.0024 3.7319.367 5.4632 1.0868l6.4485-6.2109.6655 6.399"/><path fill="none" stroke="#000" stroke-linecap="round" stroke-linejoin="round" stroke-width="1.8" d="m28.1119,39.9719c2.2346,1.3761,4.8085,2.1022,7.4329,2.0969h.6108c2.6244.0054,5.1983-.7207,7.4329-2.0969"/><ellipse cx="28.52" cy="27.752" rx="1.222" ry="1.206"/><ellipse cx="43.181" cy="27.752" rx="1.222" ry="1.206"/><path fill="none" stroke="#000" stroke-linecap="round" stroke-linejoin="round" stroke-width="1.6" d="M47.0723 24.9474s-8.1678 3.4075-7.7837 3.84c7.8154 7.0159 8.4286-2.8627 7.7837-3.84zM50.922 37.195L45.424 34.18M48.678 39.809L43.181 36.795M24.6281 24.9474s7.5569 4.01 7.7837 3.84c-7.5445 7.3838-8.5455-2.2369-7.7837-3.84zM20.779 37.195L26.276 34.18M23.022 39.809L28.52 36.795M46.998 18.284L22.652 17.7 22.165 22.428 47.005 20.926"/><path fill="none" stroke="#000" stroke-linecap="round" stroke-linejoin="round" stroke-width="1.6" d="m50.4972,19.6c0,1.1046-.8954,2-2,2s-2-.8954-2-2,.8954-2,2-2c1.1044.0004,1.9996.8956,2,2"/></g></svg>