<svg xmlns="http://www.w3.org/2000/svg" role="img" viewBox="11.69 17.56 48.88 47.51"><title>1F331.svg</title><path fill="#B1CC33" d="M51.935 35.8718c4.1996.9278 6.7648 5.4824 6.7648 5.4824s-4.2448 3.05-8.4449 2.1226-6.7648-5.4824-6.7648-5.4824 4.247-3.0482 8.4449-2.1226z"/><path fill="#5C9E31" d="M22.3618 19.992c4.067 1.3991 6.0978 6.2158 6.0978 6.2158s-4.5639 2.5478-8.6315 1.149-6.0978-6.2158-6.0978-6.2158 4.566-2.5458 8.6315-1.149z"/><g fill="none" stroke="#000" stroke-linecap="round" stroke-linejoin="round" stroke-width="2"><path d="M36 63.166v-12l-5-22m5 22l5-10M22.3618 19.992c4.067 1.3991 6.0978 6.2158 6.0978 6.2158s-4.5639 2.5478-8.6315 1.149-6.0978-6.2158-6.0978-6.2158 4.566-2.5458 8.6315-1.149zM51.935 35.8718c4.1996.9278 6.7648 5.4824 6.7648 5.4824s-4.2448 3.05-8.4449 2.1226-6.7648-5.4824-6.7648-5.4824 4.247-3.0482 8.4449-2.1226z"/></g></svg>