<svg xmlns="http://www.w3.org/2000/svg" role="img" viewBox="14.87 10.00 42.13 52.13"><title>E0AC.svg</title><g id="color"><path fill="#f1b31c" d="m26,38.042c-3,0-4-7-4-14,0-6,5-12,14-12s14,6,14,12c0,7-1,14-4,14"/><path fill="#fcea2b" d="m24.8471,28.6632c-.1,8,4.1,14,11,14,7.1,0,11.1-6,11.1-14,0-5-3-10-3-10-8,0-10,3-16,1-1.8545,2.6512-2.9285,5.7692-3.1,9Z"/><path fill="#92d3f5" d="m16.9584,61.1493v-4.0088c0-5.0109,5.011-9.02,10.0219-9.02,6.0133,5.011,12.0265,5.011,18.0394,0,5.0109,0,10.0219,4.0088,10.0219,9.02v4.0088"/><path fill="#fcea2b" d="m24.51,29.1228v1.042c0,8.3286,4.8508,14.8539,11.044,14.8539s11.0442-6.5253,11.0442-14.8539c0-5.0665-1.8716-8.1824-5.5611-12.1229-2.9703,2.3577-6.1348,4.4601-9.4594,6.2845-2.7855,1.6486-6.583,3.8862-7.0677,4.7964Z"/><path fill="#fff" d="M26.447 35.399L35.43 33.832 45.541 35.326 45.924 37.052 40.511 45.427 30.681 45.427 25.184 35.763 26.447 35.399z"/></g><g id="line"><path fill="none" stroke="#000" stroke-linecap="round" stroke-linejoin="round" stroke-width="2" d="m22.0886,28.077c-.1105-1.3332-.1503-2.6713-.1192-4.0087,0-6.0131,5.0106-12.0263,14.0306-12.0263s14.0306,6.0132,14.0306,12.0263c.0322,1.3374-.0076,2.6756-.1191,4.0087"/><path d="M41.9129 30.0814c0 1.107-.8974 2.0044-2.0044 2.0044s-2.0044-.8974-2.0044-2.0044.8974-2.0044 2.0044-2.0044h0c1.1057.0031 2.0013.8987 2.0044 2.0044M33.8954 30.0814c0 1.107-.8974 2.0044-2.0044 2.0044s-2.0044-.8974-2.0044-2.0044.8974-2.0044 2.0044-2.0044c1.1057.0031 2.0013.8987 2.0044 2.0044"/><path d="M41.9129 30.0814c0 1.107-.8974 2.0044-2.0044 2.0044s-2.0044-.8974-2.0044-2.0044.8974-2.0044 2.0044-2.0044h0c1.1057.0031 2.0013.8987 2.0044 2.0044M33.8954 30.0814c0 1.107-.8974 2.0044-2.0044 2.0044s-2.0044-.8974-2.0044-2.0044.8974-2.0044 2.0044-2.0044c1.1057.0031 2.0013.8987 2.0044 2.0044"/><path fill="none" stroke="#000" stroke-linecap="round" stroke-linejoin="round" stroke-width="2" d="M16.9584 60.1471v-3.0066c0-5.0109 5.011-9.02 10.0219-9.02 6.0133 5.011 12.0265 5.011 18.0394 0 5.0109 0 10.0219 4.0088 10.0219 9.02v3.0066M46.169 35.356L49.477 32.723M25.63 35.356L22.33 32.308M47.05 29.6632c0-5-3-11-3-11-8 0-10 3-16 1 0 0-3 5-3.1 10M32.5955 45.0455c-1.333.0108-3.6243-1.8519-4.4967-3.071-1.2201-1.7415-2.0501-3.7258-2.4335-5.8173l-.1393-.45 8.9093-2.2972c.945-.2449 1.9375-.2387 2.8793.0182l8.4081 2.2792h.5438c-.1966 2.0406-.8241 4.0162-1.8409 5.7962-.8769 1.4159-3.28 3.4562-4.7421 3.4681l-7.088.0738z"/></g></svg>