<svg xmlns="http://www.w3.org/2000/svg" role="img" viewBox="24.15 5.27 20.20 57.20"><title>1F574-1F3FC.svg</title><g fill="#debb90"><path d="M27.0742 36.74l2.4513-1.7495-.5965 18.4923a1.0317 1.0317 0 0 0 .2089.7344.1978.1978 0 0 0 .127.0752c.1788 0 1.8029-.21 1.869-.7937l2.0452-18.9231c.041-.3517 1.4212-1.6935 1.4212-1.6935a7.2121 7.2121 0 0 1 1.1162 1.6409L37.84 53.3508c.066.5831.4362.94.6149.94.05-.0075 1.8064-.305 1.78-.5681L38.6658 34.965l3.0286 2.1221a4.591 4.591 0 0 1 .1087-.7085l-.8255-16.724c-.0961-1.9208-2.7312-2.9534-4.6111-2.9718h-5.0129a3.5927 3.5927 0 0 0-3.5166 3.4514l-.6617 16.2411a.8406.8406 0 0 1-.1011.3647z"/><circle cx="33.927" cy="10.412" r="2.481"/></g><g stroke="#000"><path fill="none" stroke-linecap="round" stroke-linejoin="round" stroke-width="2.28" d="M34.3181 19.3794v9.4444"/><circle cx="34.319" cy="10.412" r="3" fill="none" stroke-miterlimit="10" stroke-width="2"/><path fill="none" stroke-linecap="round" stroke-linejoin="round" stroke-width="2" d="M38.4944 21.2212L40.0818 52.97c.046.919-.48 1.671-1.17 1.671a1.7343 1.7343 0 0 1-1.4446-1.66l-2.1234-18.407c-.1078-.9132-.5673-1.66-1.0268-1.66s-.9216.7469-1.0268 1.66l-2.1214 18.4067a1.7351 1.7351 0 0 1-1.4445 1.66c-.6893 0-1.2157-.752-1.17-1.671l1.5877-31.7485"/><path fill="none" stroke-linecap="round" stroke-linejoin="round" stroke-width="2" d="M26.6619 36.26l.6617-15.8743a4.4057 4.4057 0 0 1 4.3512-4.1775h5.0129a4.4064 4.4064 0 0 1 4.3513 4.1775l.9365 16.1935"/><ellipse cx="34.319" cy="59.411" stroke-linecap="round" stroke-linejoin="round" stroke-width="1.56" rx="8.256" ry="1.294"/></g></svg>