<svg xmlns="http://www.w3.org/2000/svg" role="img" viewBox="11.04 11.04 49.79 49.79"><title>1F60D.svg</title><circle cx="36" cy="36" r="23" fill="#FCEA2B"/><path fill="#D22F27" d="M26.4992 27.4384c-1.2653-3.3541-6.441-3.5687-6.1168 1.3178.0431.6485.281 1.2724.6414 1.8135l5.3179 6.4224 5.2212-6.266c.5796-.6964.9224-1.5779.905-2.4853-.0863-4.3523-5.0509-4.0351-6.1274-.8036m19.4607.0012c-1.2547-3.3541-6.3873-3.5687-6.0658 1.3178.0428.6485.2787 1.2724.6361 1.8135l5.2737 6.4224 5.1777-6.266c.5747-.6964.9147-1.5779.8974-2.4853-.0856-4.3523-5.0089-4.0351-6.0763-.8036"/><path fill="#FFF" d="M48.5859 42.6735c0 5.6296-4.1784 10.1046-12.5541 10.1046-8.3738 0-12.6069-4.4888-12.6069-10.1047 0 0 13.0254 3.0311 25.161.0001z"/><g fill="none" stroke="#000" stroke-linecap="round" stroke-linejoin="round" stroke-miterlimit="10" stroke-width="2"><circle cx="36" cy="36" r="23"/><path d="M48.5859 42.6735c0 5.6296-4.1784 10.1046-12.5541 10.1046-8.3738 0-12.6069-4.4888-12.6069-10.1047 0 0 13.0254 3.0311 25.161.0001zM26.4992 27.4384c-1.2653-3.3541-6.441-3.5687-6.1168 1.3178.0431.6485.281 1.2724.6414 1.8135l5.3179 6.4224h0l5.2212-6.266c.5796-.6964.9224-1.5779.905-2.4853-.0863-4.3523-5.0509-4.0351-6.1274-.8036zm19.302 0c-1.2547-3.3541-6.3873-3.5687-6.0658 1.3178.0428.6485.2787 1.2724.6361 1.8135l5.2737 6.4224h0l5.1777-6.266c.5747-.6964.9147-1.5779.8974-2.4853-.0856-4.3523-5.0089-4.0351-6.0763-.8036z"/></g></svg>