<svg xmlns="http://www.w3.org/2000/svg" role="img" viewBox="11.01 9.51 58.11 51.36"><title>1F469-1F3FB-200D-1F3A4.svg</title><path fill="#3F3F3F" d="M45.3045 45.6162c2.4514 0 3.7516.5425 5.1709 1.4059l.0148-.0244v11.9008h-28.983V46.9977l-.0826-.1495c1.3796-.7617 2.5886-1.232 4.871-1.232l.0885-.0119s.2787 11.8441 8.9179 12.9588h.8504c8.6392-1.1147 8.9179-12.9588 8.9179-12.9588"/><path fill="#9B9B9A" d="M55.24448 40.84803l2.82838-2.82847 7.37525 7.375-2.82838 2.82847z"/><circle cx="53.622" cy="36.586" r="4" fill="#D0CFCE"/><path fill="#a57939" d="M58.0265 42.7938c-1.3223-.3647-1.8445-1.8761-1.7502-3.2374-1.5707 1.4034-3.9748 1.3658-5.4827-.1422-1.5621-1.5621-1.5621-4.0947 0-5.6568.8289-.8289 1.9303-1.2045 3.0157-1.1536-.4639-.8731-.395-2.3412-.778-3.8458 0 0-.4278-.3276-.506-.7819-.0687-.3989-.1467-.8118-.2523-1.2263-.5676-2.2302-1.2861-7.7974-8.3534-12.6925-2.4218-1.6774-4.865.5316-4.865.5316l-.3099-.2285s-3.767-6.1694-10.4646-.815c-6.6976 5.3544-7.7859 10.4623-8.3535 12.6925-.5676 2.2302-.3391 4.4139-2.1568 4.6323-1.8178.2183-2.7274 3.125-1.8178 4.5105.9096 1.3854.6826 4.3608-1.2472 4.893-1.9299.5323-2.8215 4.2902-1.8727 5.8823.5701 1.1254 2.2085 2.8893 4.9567 4.5168 1.2208-3.0382 3.7885-5.7533 9.0735-5.7533 3.17 2.1047 5.8896 3.5601 8.9375 3.5739 3.048-.0138 5.7676-1.4692 8.9375-3.5739 5.4276 0 7.9862 2.8235 9.1662 5.9154 1.8039-.6282 3.663-1.3354 5.5985-2.1588 2.8642-1.2183.4543-5.35-1.4755-5.8823z"/><g fill="#fadcbc"><path d="M24.8142 26.0388c-.9299.096 1.3287 2.7283 1.3287 3.7068 0 1.1735-1.4449 1.4633-1.2299 2.5538 1.2196 6.1835 5.6861 10.769 11.0095 10.769 6.2621 0 11.3385-6.3455 11.3385-14.1732 0-.9784-.0793-1.9337-.2303-2.8564 0 0-6.737-3.4848-8.3708-6.8039v-.5669s-.8335 2.2193-2.3769 2.7968l-.7643-4.8041s-5.7542 8.867-10.7045 9.3781zm19.9233 18.8807c-3.1699 2.1047-5.8895 3.5601-8.9375 3.5739-3.0479-.0138-5.7675-1.4692-8.9375-3.5739-12 0-10 13.9957-10 13.9957l4.6447-.0244V46.9977l-.0826-.1495c1.3796-.7617 2.5886-1.232 4.871-1.232l.0885-.0119s.2787 11.8441 8.9179 12.9588h.8504c8.6392-1.1147 8.9179-12.9588 8.9179-12.9588l.2342.0119c2.4514 0 3.7516.5425 5.1709 1.4059l.0148-.0244v11.7414l4.2473-.0223s2-13.7973-10-13.7973z"/></g><g><path d="M41.9226 27.0667c0 1.1045-.8965 2-2 2s-2-.8955-2-2c0-1.1035.8965-2 2-2s2 .8965 2 2m-8 0c0 1.1045-.8965 2-2 2s-2-.8955-2-2c0-1.1035.8965-2 2-2s2 .8965 2 2m1.9999 10.0024c-1.1519 0-2.3037-.2861-3.4473-.8579-.4941-.2471-.6943-.8477-.4473-1.3418.2466-.4937.8462-.6943 1.3418-.4473 1.7178.8594 3.3877.8594 5.1055 0 .4946-.247 1.0947-.0464 1.3418.4473.2471.4941.0469 1.0947-.4473 1.3418-1.1435.5718-2.2954.8579-3.4472.8579z"/><path fill="none" stroke="#000" stroke-linecap="round" stroke-linejoin="round" stroke-miterlimit="10" stroke-width="2" d="M25.0079 32.2806c1.3428 5.9552 5.7209 10.3201 10.9146 10.3201 4.9713 0 9.1954-3.9992 10.7256-9.5644m8.0894 24.8832s2-13-10-13c-3.1918 2.1279-5.9263 3.5984-9 3.5921h.125c-3.0736.0063-5.8081-1.4642-9-3.5921-12 0-10 13-10 13"/><path fill="none" stroke="#000" stroke-linecap="round" stroke-linejoin="round" stroke-miterlimit="10" stroke-width="2" d="M55.24448 40.84803l2.82838-2.82847 7.37525 7.375-2.82838 2.82847z"/><circle cx="53.622" cy="36.586" r="4" fill="none" stroke="#000" stroke-linecap="round" stroke-linejoin="round" stroke-miterlimit="10" stroke-width="2"/><path fill="none" stroke="#000" stroke-linecap="round" stroke-linejoin="round" stroke-miterlimit="10" stroke-width="2" d="M64.252 46.992l2.846 2.846m-8.245-5.049v14M38.6599 14.6725s-3.6231-6.1695-10.065-.8151-7.4886 10.4623-8.0345 12.6925c-.5459 2.2303-.3262 4.414-2.0745 4.6323-1.7484.2184-2.6232 3.1251-1.7484 4.5105.8749 1.3855.6565 4.3608-1.1996 4.8931-1.8561.5322-3.4939 3.6986-1.4194 5.8823M38.958 14.389s2.3499-2.209 4.6792-.5316c6.7975 4.8951 7.4886 10.4623 8.0345 12.6925.1015.4145.1765.8274.2426 1.2263.0753.4543.1391.8905.2172 1.2905"/><path fill="none" stroke="#000" stroke-linecap="round" stroke-linejoin="round" stroke-miterlimit="10" stroke-width="2" d="M47.2014 33.4751c-1.9653-1.5286-.0438-6.9252-.0438-6.9252-2.2275-.4832-8.2142-8.1654-8.2142-8.1654s-.6951 2.2068-2.6604 3.0803l-.7643-4.8041s-6.2493 8.9692-11.0405 9.8892c0 0 3.6159 4.3048.122 6.0517-3.4939 1.747-2.5532 4.9133-1.0246 5.2409m21.4947 7.0651s-.2787 11.844-8.9179 12.9588h-.8504c-8.6392-1.1148-8.9179-12.9588-8.9179-12.9588M21.507 46.301v11.617M50.49 46.301v11.674"/></g></svg>