<svg xmlns="http://www.w3.org/2000/svg" role="img" viewBox="8.95 10.95 54.47 49.97"><title>1F49E.svg</title><path d="M43 36.1645c0-4.7003-3.8103-8.5106-8.5106-8.5106-3.2363 0-6.0501 1.8067-7.4894 4.4662-1.4392-2.6595-4.2531-4.4662-7.4894-4.4662-4.7003 0-8.5106 3.8103-8.5106 8.5106 0 2.0221.7083 3.8769 1.8862 5.337l-.0029.0023L27 59l14.1167-17.4962-.0029-.0023C42.2917 40.0413 43 38.1865 43 36.1645zm18-18.6432C61 15.0242 58.9758 13 56.4787 13c-1.7193 0-3.2141.9598-3.9787 2.3727C51.7354 13.9598 50.2406 13 48.5213 13 46.0242 13 44 15.0242 44 17.5213c0 1.0742.3763 2.0596 1.002 2.8353l-.0015.0012L52.5 29.6526l7.4995-9.2948-.0015-.0012c.6257-.7757 1.002-1.7611 1.002-2.8353z" fill="#FFA7C0"/><g fill="none" stroke="#000" stroke-miterlimit="10" stroke-width="2"><path stroke-linecap="round" d="M19.6143 21.6923C23.7178 18.4958 29.5411 16.5 36 16.5c.6906 0 1.3739.0228 2.0486.0675m22.8713 13.6938c.3795 1.2013.5801 2.4528.5801 3.7387 0 8.7281-9.2412 15.8734-20.9398 16.4609"/><path stroke-linejoin="round" d="M43 36.1645c0-4.7003-3.8103-8.5106-8.5106-8.5106-3.2363 0-6.0501 1.8067-7.4894 4.4662-1.4392-2.6595-4.2531-4.4662-7.4894-4.4662-4.7003 0-8.5106 3.8103-8.5106 8.5106 0 2.0221.7083 3.8769 1.8862 5.337l-.0029.0023L27 59l14.1167-17.4962-.0029-.0023C42.2917 40.0413 43 38.1865 43 36.1645zm18-18.6432C61 15.0242 58.9758 13 56.4787 13c-1.7193 0-3.2141.9598-3.9787 2.3727C51.7354 13.9598 50.2406 13 48.5213 13 46.0242 13 44 15.0242 44 17.5213c0 1.0742.3763 2.0596 1.002 2.8353l-.0015.0012L52.5 29.6526l7.4995-9.2948-.0015-.0012c.6257-.7757 1.002-1.7611 1.002-2.8353z"/></g></svg>