<svg xmlns="http://www.w3.org/2000/svg" role="img" viewBox="8.66 17.28 50.44 36.81"><title>1F9FC.svg</title><rect width="41.633" height="26.487" x="15.605" y="25.672" fill="#ffa7c0" rx="10.965" ry="10.965"/><path fill="#61b2e4" d="M18.9426 34.3527a4.1622 4.1622 0 0 1-4.1633 4.1634 3.9106 3.9106 0 0 1-1.5613-.3123 4.1509 4.1509 0 0 1 0-7.7022 3.9088 3.9088 0 0 1 1.5613-.3122 4.1621 4.1621 0 0 1 4.1633 4.1633z"/><ellipse cx="14.259" cy="34.353" fill="#92d3f5" rx="2.602" ry="3.851"/><ellipse cx="19.675" cy="23.708" fill="#92d3f5" rx="3.802" ry="4.684" transform="rotate(-25.363 19.675 23.708)"/><path fill="#61b2e4" d="M31.6443 23.2787a5.2061 5.2061 0 0 1-1.8034 7.1354 5.5518 5.5518 0 0 1-1.4581.6032 5.2188 5.2188 0 0 1-5.0975-8.5455 5.5512 5.5512 0 0 1 1.2235-.9965 5.2062 5.2062 0 0 1 7.1355 1.8034z"/><ellipse cx="25.853" cy="26.851" fill="#92d3f5" rx="3.691" ry="5.154" transform="rotate(-50.384 25.853 26.851)"/><g fill="none" stroke="#000" stroke-width="2"><path stroke-miterlimit="10" d="M21.2364 27.2573a11.3923 11.3923 0 0 0-3.9031 3.8094m14.1657-5.3915h14.3219a11.4406 11.4406 0 0 1 11.418 11.4075v3.6638a11.4406 11.4406 0 0 1-11.418 11.4075H27.0234a11.4406 11.4406 0 0 1-11.4179-11.4075v-2.3107"/><path stroke-linecap="round" stroke-linejoin="round" d="M24.948 35.896h22.948m-22.948 6.039h22.948"/><circle cx="14.779" cy="34.353" r="4.163" stroke-miterlimit="10"/><path stroke-linecap="round" stroke-linejoin="round" d="M23.6752 21.87a5.1348 5.1348 0 0 0-.4909.3643 4.1077 4.1077 0 0 0-.1777-.4986 4.1633 4.1633 0 1 0-1.9787 5.5454c.0665-.0315.1208-.0771.1848-.1116a5.1985 5.1985 0 1 0 2.4625-5.2995z"/></g></svg>