<svg xmlns="http://www.w3.org/2000/svg" role="img" viewBox="9.09 8.84 53.82 52.07"><title>1F341.svg</title><path fill="#f4aa41" d="M36.0441 11.1661c3.6923 4.6154 5.5385 8.3077 6.4615 15.6923.4173 3.3383 0 5.5385-.2838 7.9244 0 0 11.32-9.7705 18.7047-7.0013 0 0-6.4615 6.4615-7.3846 9.2308-.9231 2.7692-2.7692 6.4615-6.4615 6.4615 0 0 0 4.6154 10.1539 2.7692 0 0-6.4615 10.1539-17.5385 5.5385 0 0-1.8462.9231-1.8462 7.3846H34.2386c0-6.4615-1.8462-7.3846-1.8462-7.3846C21.3155 56.3969 14.854 46.243 14.854 46.243c10.1538 1.8462 10.1538-2.7692 10.1538-2.7692-3.6923 0-5.5385-3.6923-6.4615-6.4615-.9231-2.7692-7.3846-9.2308-7.3846-9.2308 7.3846-2.7692 18.7047 7.0013 18.7047 7.0013-.2838-2.3859-.7011-4.5861-.2838-7.9244.923-7.3846 2.7692-11.0769 6.4615-15.6923z"/><path fill="none" stroke="#000" stroke-linecap="round" stroke-linejoin="round" stroke-miterlimit="10" stroke-width="2" d="M36.0441 10.9064c3.6923 4.6154 5.5385 8.3077 6.4615 15.6923.4173 3.3383 0 5.5385-.2838 7.9244 0 0 11.32-9.7705 18.7047-7.0013 0 0-6.4615 6.4615-7.3846 9.2308-.9231 2.7692-2.7692 6.4615-6.4615 6.4615 0 0 0 4.6154 10.1539 2.7692 0 0-6.4615 10.1539-17.5385 5.5385 0 0-1.8462.9231-1.8462 7.3846H34.2386c0-6.4615-1.8462-7.3846-1.8462-7.3846-11.0769 4.6154-17.5385-5.5385-17.5385-5.5385 10.1538 1.8462 10.1538-2.7692 10.1538-2.7692-3.6923 0-5.5385-3.6923-6.4615-6.4615-.9231-2.7692-7.3846-9.2308-7.3846-9.2308 7.3846-2.7692 18.7047 7.0013 18.7047 7.0013-.2838-2.3859-.7011-4.5861-.2838-7.9244.9231-7.3846 2.7693-11.0769 6.4616-15.6923h0z"/></svg>