<svg xmlns="http://www.w3.org/2000/svg" role="img" viewBox="17.97 9.09 36.70 53.82"><title>1F951.svg</title><path fill="#B1CC33" stroke-miterlimit="10" stroke-width="2" d="M52.75 44.6037c0 9.0482-7.3378 16.3754-16.3754 16.3754-9.0482 0-16.3754-7.3272-16.3754-16.3754 0-.2534.0106-.4962.0211-.7496.095-2.2911.6757-4.4661 1.6259-6.4193.6335-1.5731 1.3831-3.1674 2.1432-4.7722 2.0377-4.3182 4.1388-8.6892 4.1388-13.0391 0-4.6667 3.7797-8.4464 8.4464-8.4464 4.656 0 8.4464 3.7797 8.4464 8.4464 0 4.3499 2.101 8.7209 4.1387 13.0391.7601 1.6048 1.5098 3.1991 2.1433 4.7722.8552 2.1644 1.4992 4.3077 1.6259 6.4193.0105.2534.0211.4962.0211.7496z"/><circle cx="36.375" cy="44.527" r="8.449" fill="#A57939" stroke="#A57939" stroke-linecap="round" stroke-linejoin="round" stroke-miterlimit="10" stroke-width="2"/><path fill="#6A462F" d="M44.8203 44.5224c0 4.6694-3.7764 8.4551-8.4458 8.4551 0 0 9.6829-7.2273 0-16.901 4.6694.0001 8.4458 3.7858 8.4458 8.4459z"/><g fill="none" stroke="#000" stroke-miterlimit="10" stroke-width="2"><path d="M52.75 44.6037c0 9.0482-7.3378 16.3754-16.3754 16.3754-9.0482 0-16.3754-7.3272-16.3754-16.3754 0-.2534.0106-.4962.0211-.7496.095-2.2911.6757-4.4661 1.6259-6.4193.6335-1.5731 1.3831-3.1674 2.1432-4.7722 2.0377-4.3182 4.1388-8.6892 4.1388-13.0391 0-4.6667 3.7797-8.4464 8.4464-8.4464 4.656 0 8.4464 3.7797 8.4464 8.4464 0 4.3499 2.101 8.7209 4.1387 13.0391.7601 1.6048 1.5098 3.1991 2.1433 4.7722.8552 2.1644 1.4992 4.3077 1.6259 6.4193.0105.2534.0211.4962.0211.7496z"/><circle cx="36.375" cy="44.527" r="8.449" stroke-linecap="round" stroke-linejoin="round"/></g></svg>