<svg xmlns="http://www.w3.org/2000/svg" role="img" viewBox="9.87 10.00 52.13 52.01"><title>E06B.svg</title><g stroke="#000"><g stroke-width="8" transform="translate(-134.7 18.68) scale(.8851)"><path stroke-linecap="round" stroke-linejoin="round" d="M192.9-2.429v22m15.6-15.556l-15.6 15.56m22-.005h-44m22 0L177.3 4.01"/><ellipse cx="192.9" cy="-3.328" rx=".87" ry=".899"/><ellipse cx="150.2" cy="-145.5" rx=".87" ry=".899" transform="rotate(45)"/><ellipse cx="19.57" cy="-170" rx=".87" ry=".899" transform="rotate(90)"/><ellipse cx="19.57" cy="-215.8" rx=".87" ry=".899" transform="rotate(90)"/><ellipse cx="-122.6" cy="-127.3" rx=".87" ry=".899" transform="rotate(135)"/></g><path d="M53.40404 44.13158c-.97992-.87112-2.27082-1.3981-3.68665-1.3981-3.06644 0-5.55522 2.487-5.55522 5.55521v4.44418c0 3.06644 2.48878 5.55522 5.55522 5.55522 3.0691 0 5.55522-2.48878 5.55522-5.55522v-2.2531h-4.44417M40.08746 42.7317l-4.44418 15.55816-4.44417-15.55816m-4.80921 3.101c-.45523-1.772-2.42321-3.10189-4.78086-3.10189-2.6961 0-4.88097 1.73922-4.88097 3.886 0 2.145 2.18488 3.886 4.88097 3.886l-.09994.01332c2.6961 0 4.88098 1.741 4.88098 3.886 0 2.14766-2.18488 3.886-4.88098 3.886-2.35853 0-4.32633-1.33255-4.78085-3.10455" fill="none" stroke-linecap="round" stroke-linejoin="round" stroke-miterlimit="10" stroke-width="2.9999960000000003" clip-rule="evenodd"/></g><g transform="translate(4.97 4.974) scale(.8621)"><g class="UnoptimicedTransforms" transform="translate(-134.7 -44.62) scale(.8851)"><path stroke="#000" stroke-linejoin="round" stroke-width="18" d="M192.9 69.08l-.0404 22.01" class="UnoptimicedTransforms"/><path stroke-linejoin="round" d="M170.9 82.08l-.002 9h44l-.00091-9z" color="#000"/><path d="M160.027 91.09c.00051-5.435 4.432-9.841 9.9-9.841s9.902 4.406 9.902 9.841z" class="UnoptimicedTransforms"/><path d="M205.78 91.09c.00051-5.435 4.432-9.841 9.9-9.841s9.902 4.406 9.902 9.841z" class="UnoptimicedTransforms"/><circle cx="176.7" cy="74.88" r="9.83"/><circle cx="209.1" cy="74.88" r="9.83"/><circle cx="192.9" cy="68.19" r="9.83"/><rect width="22.56" height="3.551" x="182.1" y="80.08" rx="3.482" ry="3.482"/></g><g fill="#f1b31c" stroke="#f1b31c" stroke-width="8" transform="translate(-134.7 18.68) scale(.8851)"><path stroke-linecap="round" stroke-linejoin="round" d="M192.9-2.429V41.57m15.6-37.555L177.3 35.13m37.6-15.56h-44m37.6 15.56L177.3 4.015"/><ellipse cx="192.9" cy="42.47" rx=".87" ry=".899"/><ellipse cx="192.9" cy="-3.328" rx=".87" ry=".899"/><ellipse cx="150.2" cy="-99.67" rx=".87" ry=".899" transform="rotate(45)"/><ellipse cx="150.2" cy="-145.5" rx=".87" ry=".899" transform="rotate(45)"/><ellipse cx="19.57" cy="-170" rx=".87" ry=".899" transform="rotate(90)"/><ellipse cx="19.57" cy="-215.8" rx=".87" ry=".899" transform="rotate(90)"/><ellipse cx="-122.6" cy="-127.3" rx=".87" ry=".899" transform="rotate(135)"/><ellipse cx="-122.6" cy="-173.1" rx=".87" ry=".899" transform="rotate(135)"/></g><ellipse cx="56.43" cy="35.93" fill="#f1b31c" rx="4.206" ry="4.238"/><ellipse cx="15.64" cy="35.93" fill="#f1b31c" rx="4.206" ry="4.238"/><rect width="58.1" height="29.02" x="6.95" y="36" stroke-width="1.006" rx="4.698" ry="5"/><rect width="56.94" height="12.72" x="7.524" y="35.99" stroke="#000" stroke-linecap="square" stroke-width="1.149" rx="0" ry="0"/><path d="M53.40404 44.13158c-.97992-.87112-2.27082-1.3981-3.68665-1.3981-3.06644 0-5.55522 2.487-5.55522 5.55521v4.44418c0 3.06644 2.48878 5.55522 5.55522 5.55522 3.0691 0 5.55522-2.48878 5.55522-5.55522v-2.2531h-4.44417M40.08746 42.7317l-4.44418 15.55816-4.44417-15.55816m-4.80921 3.101c-.45523-1.772-2.42321-3.10189-4.78086-3.10189-2.6961 0-4.88097 1.73922-4.88097 3.886 0 2.145 2.18488 3.886 4.88097 3.886l-.09994.01332c2.6961 0 4.88098 1.741 4.88098 3.886 0 2.14766-2.18488 3.886-4.88098 3.886-2.35853 0-4.32633-1.33255-4.78085-3.10455" fill="none" stroke="#fff" stroke-linecap="round" stroke-linejoin="round" stroke-miterlimit="10" stroke-width="2.9999960000000003" clip-rule="evenodd"/><ellipse cx="21.61" cy="21.56" fill="#f1b31c" rx="4.206" ry="4.238"/><ellipse cx="36.04" cy="15.42" fill="#f1b31c" rx="4.206" ry="4.238"/><ellipse cx="50.46" cy="21.56" fill="#f1b31c" rx="4.206" ry="4.238"/></g></svg>