<svg xmlns="http://www.w3.org/2000/svg" role="img" viewBox="7.34 5.71 57.20 60.45"><title>1F4D1.svg</title><path fill="#fff" stroke="#fff" stroke-linejoin="round" stroke-width="2" d="M14.85 64.04l.05537-5.257-5.343-.03324v-50.79h28.89l5.287 5.291h11.3v50.79z"/><path fill="#d0cfce" stroke-width=".945" d="M49.63644 19.597L38.094 7.5887V19.597"/><path fill="#92d3f5" stroke-width=".945" d="M54.53035 25.98732H62.405V31.235h-7.87465l-1.94488-2.62384z"/><path fill="#ea5a47" stroke-width=".945" d="M49.24535 46.047H57.12v5.24768h-7.87465l-1.94488-2.62384z"/><g fill="none" stroke="#000" stroke-linecap="round" stroke-linejoin="round"><path stroke-width="1.889" d="M60 28.75V17H49.32" transform="matrix(1.059 0 0 1.058 -8.462 -4.752)"/><path stroke-width="2" d="M55.06 45.53V31.68"/><path stroke-width="1.889" d="M22 63.09V65h38V53.33" transform="matrix(1.059 0 0 1.058 -8.462 -4.752)"/><path stroke-width="1.889" d="M55 48V22.68L44.32 12H17v48h38v-7" transform="matrix(1.059 0 0 1.058 -8.462 -4.752)"/><path stroke-width="1.889" d="M55 23H44.3l.02-11m15.23 22l-1.84-2.48 1.84-2.48H67V34zm-5 18.96l-1.84-2.48L54.55 48H62v4.96z" transform="matrix(1.059 0 0 1.058 -8.462 -4.752)"/><path stroke-width="2" d="M15.89 17.48h14.82m-14.82 8.46h27.52m-27.52 7.41h27.52m-27.52 8.47h27.52m-27.52 8.47h27.52"/></g></svg>