<svg xmlns="http://www.w3.org/2000/svg" role="img" viewBox="1.03 16.53 70.07 31.95"><title>1F576.svg</title><g fill="#3F3F3F" stroke="#3F3F3F" stroke-miterlimit="10"><path d="M36.1871 33.1543c1.0309-.1557 2.3936-.355 3.1719 3.5553.5088 2.5561 2.4518 2.3815 3.5921 4.0059 2.3054 3.2843 7.0505 5.5111 11.3652 5.5111 6.9036 0 12.5-5.5964 12.5-12.5l.105-4.9141 1.895.0501v-4.1273S49.8845 8.5565 39.3359 30.0565H32.912c-10.5486-21.5-29.4804-5.3212-29.4804-5.3212v4.1273l1.895-.0501.105 4.9141c0 6.9036 5.5964 12.5 12.5 12.5 4.3147 0 9.1189-2.1861 11.3652-5.5111"/><path d="M36.1871 33.1543c1.0309-.1557 2.3936-.355 3.1719 3.5553.5088 2.5561 2.4518 2.3815 3.5921 4.0059 2.3054 3.2843 7.0505 5.5111 11.3652 5.5111m-36.0561-.322c4.3147 0 9.0598-2.2268 11.3652-5.5111 1.1402-1.6244 2.2768-1.3775 3.6757-3.6507.2905-.4721-3.6316-4.9026 3.0884-3.9105"/></g><g fill="none" stroke="#000" stroke-linecap="round" stroke-linejoin="round" stroke-miterlimit="10" stroke-width="2"><path d="M29.2969 40.7155c-2.2463 3.325-7.0505 5.5111-11.3652 5.5111-6.9036 0-12.5-5.5964-12.5-12.5l-.105-4.9141-1.895.0501v-4.1273s18.9318-16.1788 29.4804 5.3212h6.4239c10.5486-21.5 29.4804-5.3212 29.4804-5.3212v4.1273l-1.895-.0501-.105 4.9141c0 6.9036-5.5964 12.5-12.5 12.5-4.3147 0-9.1189-2.1861-11.3652-5.5111"/><path d="M33.359 36.7096c0-1.6569 1.3431-3 3-3s3 1.3431 3 3"/><circle cx="18.364" cy="32.561" r="9.58"/><circle cx="53.884" cy="32.561" r="9.58"/></g></svg>