<svg xmlns="http://www.w3.org/2000/svg" role="img" viewBox="9.03 7.16 56.94 56.31"><title>1F3BB.svg</title><path fill="#6a462f" d="M43.9439 35.0722c.504.5663.9593 1.183.9832 1.2502.4488.9423.5862 2.0227.3781 3.0953-.0108.0656-.1071.4973-.161.6489-.01.0298-.2472.5995-.3817.8455-.0502.0895-.0994.1783-.1545.2638-.6957 1.1809-1.7624 2.4803-2.6674 3.8946-.9569 1.4955-.8246 2.1554-1.1615 2.9107-.4395-.367-.9375-.6771-1.5081-.8813-2.6-.9304-5.4619.4231-6.3922 3.0231-.5809 1.6232-.2712 3.3482.6759 4.6418-.3025.2624-4.4344 3.1784-5.3895 4.0143-4.2168 3.6905-9.84 3.5837-13.8775-.2608l-.3291-.286c-3.7426-4.1322-3.7091-9.7563.0855-13.8797.8594-.934 3.8775-4.9919 4.1474-5.2877 1.2696.979 2.9864 1.3317 4.6236.7915 2.6223-.8652 4.0468-3.6924 3.1815-6.3149-.1898-.5755-.4874-1.081-.8434-1.5296.7635-.3179 1.4199-.1692 2.9388-1.0885 1.4364-.8694 2.762-1.9034 3.9599-2.5694.0869-.0529.1769-.1.2676-.1478.2493-.1284.8247-.3513.8548-.3606.1528-.05.5868-.1356.6527-.1447 1.0774-.1813 2.154-.017 3.0848.4551.1104.0424 2.0447 1.6528 2.4301 2.3302"/><path fill="#a57939" d="M61.061 11.957l-4.317 2.057 2.665 2.057 1.652-4.114zM13.879 56.6802l2.9768-4.1544s1.3677-.9057 2.7466.4679c1.3791 1.3736.4772 2.7472.4772 2.7472l-4.2387 3.2095M56.108 18.7119c-.3945.0949-1.3882-.4817-1.6567-.7558L31.7625 38.3633l1.8457 1.7656s22.1399-21.1031 22.4997-21.417z"/><g fill="none" stroke="#000" stroke-linecap="round" stroke-linejoin="round" stroke-width="2"><path d="M55.115 21.419l1.278 1.298m-5.387-5.391l1.126 1.144m.855 5.048l1.531 1.569M49 19.477l.904.927m12.705-2.572l1.371-1.338m-8.519-5.798l1.371-1.338M43.9439 35.0722c.504.5663.9593 1.183.9832 1.2502.4488.9423.5862 2.0227.3781 3.0953-.0108.0656-.1071.4973-.161.6489-.01.0298-.2472.5995-.3817.8455-.0502.0895-.0994.1783-.1545.2638-.6957 1.1809-1.7624 2.4803-2.6674 3.8946-.9569 1.4955-.8246 2.1554-1.1615 2.9107-.4395-.367-.9375-.6771-1.5081-.8813-2.6-.9304-5.4619.4231-6.3922 3.0231-.5809 1.6232-.2712 3.3482.6759 4.6418-.3025.2624-4.4344 3.1784-5.3895 4.0143-4.2168 3.6905-9.84 3.5837-13.8775-.2608l-.3291-.286c-3.7426-4.1322-3.7091-9.7563.0855-13.8797.8594-.934 3.8775-4.9919 4.1474-5.2877 1.2696.979 2.9864 1.3317 4.6236.7915 2.6223-.8652 4.0468-3.6924 3.1815-6.3149-.1898-.5755-.4874-1.081-.8434-1.5296.7635-.3179 1.4199-.1692 2.9388-1.0885 1.4364-.8694 2.762-1.9034 3.9599-2.5694.0869-.0529.1769-.1.2676-.1478.2493-.1284.8247-.3513.8548-.3606.1528-.05.5868-.1356.6527-.1447 1.0774-.1813 2.154-.017 3.0848.4551.1104.0424 2.0447 1.6528 2.4301 2.3302l4.602 4.586zM29.213 48.901l-3.454 4.138m-5.806-5.828l4.313-3.234m34.713-27.436l-2.459-2.459 4.167-2.753 1.045 1.045-2.753 4.167z"/><path d="M32.5021 37.7866l21.8058-20.8472c.1366-.1306.3529-.1268.4849.0085l.8634.8853M13.2067 56.236l3.6146-3.4557s1.1839-.7649 2.4343.4856c1.2505 1.2505.4891 2.4411.4891 2.4411l-3.3616 3.7022M28.083 44.0587c.3876.3232.7483.674 1.0798 1.0485"/></g></svg>