<svg xmlns="http://www.w3.org/2000/svg" role="img" viewBox="10.00 10.00 51.87 51.87"><title>25E9.svg</title><path fill="#fff" d="M60 12v48H12l48-48z"/><path fill="#3f3f3f" d="M12.9952 12.9336l44.8813-.0801-43.1812 46.1956-1.9309-.0612.2309-46.0543z"/><g fill="none" stroke="#000" stroke-width="2"><path stroke-linejoin="round" d="M59.0349 60h-46.07a.96772.96772 0 0 1-.6815-.2836.96753.96753 0 0 1-.2834-.6815v-46.07a.96772.96772 0 0 1 .2836-.6815.96753.96753 0 0 1 .6815-.2834h46.07a.96772.96772 0 0 1 .6815.2836.96753.96753 0 0 1 .2834.6815v46.07a.96772.96772 0 0 1-.2836.6815.96753.96753 0 0 1-.6815.2834h0z"/><path stroke-linecap="round" d="M59 13L15 57"/></g></svg>