<svg xmlns="http://www.w3.org/2000/svg" role="img" viewBox="4.29 0.91 63.05 62.30"><title>1F383.svg</title><path fill="#5C9E31" d="M47.8995 9.1325c.0036-.0902-.0177-.1854-.02-.277-.0012-.1675-.0161-.3359-.0366-.5069-.0126-.0909-.0187-.1795-.0366-.2709-.0589-.33-.1401-.6613-.267-.9896-1.4448-3.7362-5.9587-4.9144-9.2682-2.8591-2.5414 1.5789-3.9725 4.4725-4.8703 7.2267-.8674 2.6562-1.3688 5.4905-1.5359 8.3.0057-.0012.0123-.002.0179-.0032-.0017.0278-.0058.0557-.0074.0834.8161-.1688 1.7649-.2942 2.8594-.3484.0019-.0265.006-.053.0079-.0795.3639-.0173.7436-.0267 1.1403-.0267 1.7114 0 3.1121.1713 4.2474.4241-1.1245-2.8896-1.9282-6.282-1.0305-9.1633.3867-1.2377 1.0952-2.5057 2.3122-3.1451 1.3619-.7169 3.4476-.1575 2.9586 1.75-.0953.373-.4211.5609-.616.8633-.8978 1.3881.3412 2.3164 1.652 1.9849 1.6414-.4139 2.4005-1.6262 2.4636-3.0253.009.0216.0206.0408.0292.0626z"/><path fill="#F4AA41" d="M26.6422 19.7574c.0035-.0016.0068-.0037.0103-.0053-.1259-.0449-.25-.0787-.3753-.1198-.1509-.0496-.3019-.1002-.4519-.1443-.1786-.0525-.3558-.0975-.533-.1425-.1506-.0382-.3013-.0776-.4509-.1104-.1745-.0383-.3475-.0692-.5206-.1003-.1498-.0269-.2999-.0552-.4486-.0767-.1706-.0247-.3394-.0422-.5086-.0601-.1487-.0157-.2977-.0329-.4453-.0434-.1665-.0119-.3312-.0167-.4962-.022-.147-.0048-.2944-.011-.4402-.0107-.1638.0004-.3257.0078-.4879.0145-.1439.006-.288.0103-.4306.0211-.161.0123-.3202.0314-.4795.0498-.1407.0162-.2819.0308-.4213.0517-.1581.0237-.3139.0543-.4701.0839-.1374.0261-.2751.0503-.411.0808-.1557.035-.309.0767-.4628.1175-.1331.0353-.2668.0686-.3984.1082-.1534.0461-.3042.0988-.4555.1504-.1284.0438-.2575.0856-.3843.1334-.1512.0569-.2998.1205-.4488.183-.1235.0518-.2477.1014-.3696.1569-.1494.0679-.2958.1423-.4428.2157-.1176.0587-.2362.1152-.3523.1773-.1473.0788-.2915.1639-.4362.248-.1122.0652-.2254.1281-.3361.1964-.1448.0894-.2864.1851-.4285.2797-.1065.0709-.2142.1396-.3192.2134-.1428.1003-.2821.2067-.4219.3123-.0999.0754-.2012.1484-.2996.2263-.1401.1109-.2764.2277-.4134.3436-.0945.08-.1905.1577-.2835.24-.1364.1207-.2689.2471-.402.3727-.0889.0839-.1794.1655-.2668.2515-.134.1318-.2639.269-.3943.4057-.082.0858-.1656.1693-.2461.257-.1306.1422-.2568.2896-.3837.4365-.0761.0881-.1541.1739-.2287.2637-.1258.1512-.247.3074-.3689.463-.071.0907-.144.1792-.2136.2714-.1213.1606-.2376.3259-.3546.4906-.0653.0919-.1328.1818-.1967.2751-.1155.1685-.226.3414-.337.5138-.0607.0942-.1237.1865-.1831.2819-.1089.175-.2125.3542-.3168.533-.0565.0969-.1155.1919-.1706.2898-.1023.1816-.1989.3669-.2965.5518-.0519.0984-.1064.1952-.1569.2946-.0964.1894-.1867.3821-.278.5746-.0465.0981-.0957.1948-.1409.2936-.0875.1917-.169.3862-.2514.5805-.0438.1032-.0904.205-.1327.3089-.0831.2042-.16.411-.2374.6177-.0357.0952-.0742.189-.1087.2847-.0733.2036-.1399.4095-.2076.6152-.0338.1027-.0707.2042-.1031.3073-.0641.2042-.1213.4104-.1798.6162-.0298.105-.0629.209-.0912.3145-.0581.2161-.1092.4339-.161.6514-.023.0966-.0494.1924-.0711.2893-.0527.2349-.098.4709-.1432.7069-.0154.0805-.0342.1605-.0487.2411-.051.2827-.0947.5662-.1347.8497-.0048.0343-.0116.0685-.0163.1028-.3012 2.2099-.2696 4.4514.076 6.6451.1729 1.0981.4187 2.1852.7521 3.2487.4583 1.4606 1.0642 2.8831 1.7966 4.2331.6502 1.1984 1.3989 2.3402 2.2521 3.3903.0835.1027.1737.1989.259.2999.1797.2126.3576.4269.5455.6316a.05323.05323 0 0 0 .0023.0024c.2523.2747.5026.5352.7516.787.0829.0839.165.1624.2476.2438.1679.1655.3353.3282.5015.4839.0938.0877.1868.1724.28.257.1547.1404.3085.2768.4616.4089.0943.0813.1883.1623.2819.2404.158.1319.3145.2576.4708.3809.083.0656.1665.1335.2491.1966.2084.1595.4152.3112.6203.4559.0272.0192.055.0409.0822.0599.2303.1606.4578.3104.6835.4533.0784.0496.1554.0947.2332.1422.1491.0911.2977.1804.4447.264.0888.0506.1768.0985.2649.1464.1353.0737.2697.1446.4031.2122.0882.0447.1761.0889.2634.131.136.0656.2705.127.4043.1865.079.0352.1584.0719.2367.105.1684.0712.3347.1367.4996.1988.0403.0152.0815.0329.1216.0475.2014.0737.3996.1396.5952.2003.0689.0214.1362.0394.2044.0592.1293.0377.2579.0742.3846.1066.0772.0197.1531.0375.2293.0553.1164.0272.2316.0527.3457.0757.0753.0152.1501.03.2243.0433.1163.021.2306.0392.3442.0561.0658.0098.1322.0206.1972.0291.14.0182.2772.0324.4129.0447.0353.0032.0719.0081.1069.0109.1683.0135.3325.0222.4938.0273.0517.0016.1014.0013.1524.0021.111.0019.2208.0028.3282.0012.058-.0009.1144-.0029.1713-.0048.0989-.0033.1963-.0076.2919-.0136.0549-.0034.1092-.0071.1631-.0114.0978-.0078.1932-.0172.2873-.0275.0454-.0049.0914-.0094.1358-.015.1164-.0145.2295-.0309.3399-.0487.0189-.0031.039-.0054.0577-.0086.1305-.0219.2561-.046.3778-.0716.0274-.0058.053-.0122.08-.0181.0928-.0204.1835-.0415.2709-.0636.0342-.0087.067-.0175.1003-.0264.0787-.0209.1552-.0421.2292-.064.03-.0089.0594-.0175.0885-.0265a8.2688 8.2688 0 0 0 .2235-.0719c.0207-.007.0419-.0137.062-.0208.1862-.0645.3523-.129.4965-.1904l.0031-.0014c.0535-.0228.1055-.0453.153-.0669l-.001-.0007c.3469-.1577.5346-.278.5346-.278 1.4692 1.4635 7.6696 1.7152 8.0888 1.7307a.66622.66622 0 0 0 .0447 0c.4192-.0154 6.6196-.2672 8.0888-1.7307 0 0 6.8438 4.4366 15.5886-5.0859 7.0378-7.0443 7.9-20.5231 2.0165-28.6674-.5543-.7675-1.1686-1.4874-1.8432-2.1503-1.0616-1.0431-2.2445-1.9655-3.5286-2.7019-3.6327-2.0837-7.8248-2.3765-11.7263-.8917 0 0-2.0279-2.4888-8.6181-2.4888s-8.6181 2.4888-8.6181 2.4888c-.1098-.0415-.2178-.073-.3271-.1119"/><path fill="#E27022" d="M44.5882 59.6454c1.7503.8029 7.6702 2.5917 14.9042-5.3642 2.1951-2.4146 3.8261-5.4041 4.805-8.5551.9897-3.1884 1.2669-6.5781.8197-9.8944-1.3646-10.1149-9.7316-19.8646-20.2419-16.0795 5.7584 2.7111 9.8136 9.4387 10.743 16.3279.4653 3.4475.176 6.9711-.8522 10.2849-1.0174 3.2764-2.7123 6.3828-4.9942 8.8938-1.8228 2.0046-3.5648 3.4138-5.1836 4.3866z"/><path fill="#FCEA2B" d="M20 48s15 10 32 0c0 0-16 20-32 0zm15.896-.072l-1.711-2.964L32.473 42h6.846l-1.712 2.964zm13.078-10.0831c2.5901-.9575 3.9136-3.8335 2.956-6.4235l-9.3796 3.4675c.9576 2.5901 3.8335 3.9135 6.4236 2.956zm-26.156 0c-2.5901-.9575-3.9136-3.8335-2.956-6.4235l9.3796 3.4675c-.9575 2.5901-3.8335 3.9135-6.4236 2.956z"/><g fill="none" stroke="#000" stroke-linecap="round" stroke-linejoin="round" stroke-miterlimit="10" stroke-width="2"><path d="M39.4 17.6598c-.68-2.34-.98-4.83-.3-7.02.39-1.24 1.1-2.5 2.31-3.14 1.36-.72 3.45-.16 2.96 1.75-.09.37-.42.56-.62.86-.89 1.39.35 2.32 1.66 1.99 1.64-.42 2.4-1.63 2.46-3.03l.03.06c0-.09-.02-.18-.02-.27 0-.17-.02-.34-.04-.51l-.03-.27c-.06-.33-.14-.66-.27-.99-1.45-3.74-5.96-4.92-9.27-2.86-2.54 1.58-3.97 4.47-4.87 7.23-.66 2.01-1.11 4.13-1.36 6.26"/><path d="M7.1349 33.9318c-.0522.2349-.097.4709-.1418.7069-.0153.0805-.0338.1605-.0482.2411-.0505.2827-.0938.5662-.1334.8497-.0048.0343-.0115.0685-.0161.1028-.2982 2.2099-.2669 4.4514.0752 6.6451.1711 1.0981.4145 2.1852.7446 3.2487.4537 1.4606 1.0535 2.8831 1.7787 4.2331.6437 1.1984 1.3849 2.3402 2.2296 3.3903.0826.1027.172.1989.2564.2999.1779.2126.354.4269.54.6316a.05323.05323 0 0 0 .0023.0024c.2498.2747.4976.5352.7441.787.0821.0839.1634.1624.2451.2438.1662.1655.332.3282.4965.4839.0928.0877.1849.1724.2772.257.1531.1404.3054.2768.457.4089.0933.0813.1864.1623.2791.2404.1564.1319.3114.2576.4661.3809.0822.0656.1649.1335.2466.1966.2064.1595.4111.3112.6141.4559.027.0192.0544.0409.0814.0599.228.1606.4532.3104.6767.4533.0776.0496.1539.0947.2309.1422.1476.0911.2947.1804.4402.264.088.0506.175.0985.2622.1464.134.0737.267.1446.399.2122.0873.0447.1744.0889.2608.131.1346.0656.2678.127.4003.1865.0782.0352.1569.0719.2343.105.1667.0712.3314.1367.4946.1988.0399.0152.0807.0329.1204.0475.1994.0737.3956.1396.5893.2003.0682.0214.1348.0394.2023.0592.1281.0377.2554.0742.3807.1066.0764.0197.1516.0375.2271.0553.1152.0272.2293.0527.3422.0757.0745.0152.1486.03.222.0433.1151.021.2283.0392.3408.0561.0652.0098.1309.0206.1952.0291.1386.0182.2744.0324.4088.0447.035.0032.0712.0081.1058.0109.1666.0135.3292.0222.4889.0273.0511.0016.1004.0013.1509.0021.1099.0019.2186.0028.3249.0012.0574-.0009.1133-.0029.1696-.0048.0979-.0033.1943-.0076.289-.0136.0543-.0034.1082-.0071.1614-.0114.0968-.0078.1912-.0172.2844-.0275.0449-.0049.0905-.0094.1345-.015a9.3729 9.3729 0 0 0 .3365-.0487c.0187-.0031.0386-.0054.0571-.0086.1292-.0219.2535-.046.374-.0716.0272-.0058.0524-.0122.0792-.0181.0919-.0204.1817-.0415.2682-.0636.0338-.0087.0663-.0175.0993-.0264.0779-.0209.1536-.0421.2269-.064.0297-.0089.0588-.0175.0876-.0265.0767-.0237.1502-.0477.2213-.0719.0204-.007.0414-.0137.0614-.0208.1843-.0645.3488-.129.4916-.1904l.0031-.0014c.053-.0228.1045-.0453.1515-.0669l-.001-.0007c.3434-.1577.5293-.278.5293-.278 1.4545 1.4635 7.593 1.7152 8.0081 1.7307a.65435.65435 0 0 0 .0443 0c.415-.0154 6.5535-.2672 8.0081-1.7307 0 0 6.7755 4.4366 15.4329-5.0859 6.9675-7.0443 7.8211-20.5231 1.9964-28.6674-.5488-.7675-1.1569-1.4874-1.8248-2.1503-1.051-1.0431-2.222-1.9655-3.4933-2.7019-3.5964-2.0837-7.7466-2.3765-11.6092-.8917 0 0-2.0076-2.4888-8.532-2.4888s-8.532 2.4888-8.532 2.4888c-.1086-.0417-.2155-.0732-.3237-.1121"/><path d="M27.0273 19.7574c.0035-.0016.0067-.0037.0102-.0053-.1246-.0449-.2475-.0787-.3715-.1198-.1494-.0496-.2989-.1002-.4474-.1443-.1768-.0525-.3522-.0975-.5277-.1425-.1491-.0382-.2983-.0776-.4464-.1104-.1727-.0383-.344-.0692-.5154-.1003-.1483-.0269-.2969-.0552-.4442-.0767-.1689-.0247-.3361-.0422-.5035-.0601-.1472-.0157-.2947-.0329-.4409-.0434-.1648-.0119-.3279-.0167-.4912-.022-.1456-.0048-.2914-.011-.4358-.0107-.1622.0004-.3224.0078-.483.0145-.1425.006-.2852.0103-.4263.0211-.1594.0123-.317.0314-.4747.0498-.1393.0162-.2791.0308-.4171.0517-.1565.0237-.3108.0543-.4655.0839-.136.0261-.2724.0503-.4069.0808-.1541.035-.3059.0767-.4581.1175-.1318.0353-.2641.0686-.3945.1082-.1519.0461-.3011.0988-.451.1504-.1271.0438-.2549.0856-.3805.1334-.1497.0569-.2968.1205-.4443.183-.1223.0518-.2452.1014-.3659.1569-.1479.0679-.2928.1423-.4384.2157-.1165.0587-.2339.1152-.3488.1773-.1458.0788-.2886.1639-.4318.248-.1111.0652-.2231.1281-.3327.1964-.1434.0894-.2835.1851-.4242.2797-.1055.0709-.2121.1396-.316.2134-.1414.1003-.2792.2067-.4177.3123-.0989.0754-.1992.1484-.2966.2263-.1387.1109-.2736.2277-.4092.3436-.0936.08-.1886.1577-.2807.24-.135.1207-.2662.2471-.3979.3727-.088.0839-.1776.1655-.2642.2515-.1327.1318-.2612.269-.3904.4057-.0812.0858-.1639.1693-.2437.257-.1293.1422-.2543.2896-.3798.4365-.0754.0881-.1525.1739-.2264.2637M20 48s15 10 32 0c0 0-16 20-32 0zm15.896-.072l-1.711-2.964L32.473 42h6.846l-1.712 2.964zm13.078-10.0831c2.5901-.9575 3.9136-3.8335 2.956-6.4235l-9.3796 3.4675c.9576 2.5901 3.8335 3.9135 6.4236 2.956zm-26.156 0c-2.5901-.9575-3.9136-3.8335-2.956-6.4235l9.3796 3.4675c-.9575 2.5901-3.8335 3.9135-6.4236 2.956z"/></g></svg>