<svg xmlns="http://www.w3.org/2000/svg" role="img" viewBox="10.00 9.25 51.88 52.00"><title>1F196.svg</title><path fill="#92d3f5" d="M59.0349 59h-46.07A.9679.9679 0 0 1 12 58.0349v-46.07A.9679.9679 0 0 1 12.9651 11h46.07a.9679.9679 0 0 1 .9649.9651v46.07a.9679.9679 0 0 1-.9651.9649z"/><g fill="none" stroke="#000" stroke-width="2"><path stroke-miterlimit="10" d="M59.0349 59.3333h-46.07A.9679.9679 0 0 1 12 58.3682v-46.07a.9679.9679 0 0 1 .9651-.9651h46.07a.9679.9679 0 0 1 .9649.9653v46.07a.9679.9679 0 0 1-.9651.9649z"/><path stroke-linecap="round" stroke-linejoin="round" d="M22 42.833v-15l10.714 15v-15m17.4824 1.3486a5.3366 5.3366 0 0 0-3.5535-1.3483h0a5.3572 5.3572 0 0 0-5.3572 5.3572v4.2857a5.3572 5.3572 0 0 0 5.3572 5.3571h0A5.3572 5.3572 0 0 0 52 37.4762v-2.1709h-4.2857"/></g></svg>