<svg xmlns="http://www.w3.org/2000/svg" role="img" viewBox="14.33 3.83 39.84 60.71"><title>1F3CC-1F3FD-200D-2642-FE0F.svg</title><g fill="#c19a65"><circle cx="33.745" cy="9.104" r="2.86"/><path d="M28.2163 17.5879c-3.9085.4766-5.529.1906-6.101-.572-.4766-.7626-.1906-4.29-.3813-8.3888l-2.0972-1.1439v10.3906l1.3346 1.9062 4.957.7626 1.2392-.572z"/><path d="M23.2592 9.0084l1.9066 4.7664 9.5327 2.86.9533 2.86-.9533 10.4852.9533 3.8131.9532 13.3458 3.8131 15.2523h-2.86l-5.72-15.2523-1.9066-10.486h-.9532l-.9533 9.5327-1.9059 16.206h-2.86V45.2327l.9534-12.3927 1.9066-8.5794 2.0972-6.5776c-.7627-.286-3.3365-.858-4.3851-2.0972s-3.1458-5.5288-3.2412-7.054"/></g><g fill="none" stroke="#000" stroke-width="2"><path stroke-linecap="round" stroke-linejoin="round" d="M40.2274 11.6776l10.6766 2.0972.9533 2.86c.9533 1.9065-1.9065 2.86-2.86 0m-32.411-9.5329l10.486 2.0019m.9533 9.4373L26.691 22.45c-.286.9533-.7626 2.6692-1.0486 3.6225l-1.0486 4.8617c-.1906 1.0486-.4766 2.6691-.5719 3.7177l-.6673 8.5795c-.0954 1.0486-.1907 2.7644-.1907 3.813V60.39c0 1.0486.6673 1.9066 1.43 1.9066a1.9638 1.9638 0 0 0 1.6205-1.9066l1.43-12.3925c.0953-1.0486.286-2.7645.3813-3.8131l.572-5.72c.0953-1.0486.3813-1.9065.6672-1.9065s.6673.8579.858 1.9065l1.2392 6.7682a22.6577 22.6577 0 0 0 1.0486 3.6225l4.385 11.7249a2.8 2.8 0 0 0 2.0972 1.8112c.7626 0 1.2392-.8579.9533-1.8112l-2.86-11.5346a25.07 25.07 0 0 1-.5719-3.7178l-.6673-9.5327c-.0953-1.0486-.3813-2.7644-.572-3.7177v-.0953a12.2615 12.2615 0 0 1-.286-3.7178l.572-6.6729a9.2911 9.2911 0 0 0-.286-3.3364 4.0017 4.0017 0 0 0-2.2878-2.0019l-5.91-1.8112a4.6631 4.6631 0 0 1-2.5738-2.2879l-1.144-3.1458"/><circle cx="33.745" cy="9.104" r="3" stroke-miterlimit="10"/><path stroke-linecap="round" stroke-linejoin="round" d="M27.0723 20.4477l-4.7663-.572a3.3716 3.3716 0 0 1-2.86-3.2411V8.0552"/></g></svg>