<svg xmlns="http://www.w3.org/2000/svg" role="img" viewBox="11.15 10.02 50.46 50.96"><title>1F529.svg</title><g id="color"><g id="_1F529"><path fill="#9b9b9a" d="M36.804 28.439L43.931 35.497 46.961 32.467 39.869 25.374 36.804 28.439z"/><path fill="#d0cfce" d="M35.171 18.77H59.119V30.269H35.171z" transform="rotate(45 47.145 24.52)"/><path fill="#d0cfce" d="M32.174 33.07L39.869 25.374 46.961 32.467 19.415 60.013 12.322 52.921 32.174 33.07"/><path fill="#9b9b9a" d="M30.858 35.501H40.888V37.425H30.858z" transform="rotate(45 35.873 36.462)"/><path fill="#9b9b9a" d="M21.335 45.023H31.365000000000002V46.947H21.335z" transform="rotate(45 26.35 45.985)"/><path fill="#9b9b9a" d="M19.295 47.064H29.325000000000003V48.988H19.295z" transform="rotate(45 24.31 48.026)"/><path fill="#9b9b9a" d="M17.254 49.104H27.284V51.028H17.254z" transform="rotate(45 22.27 50.066)"/><path fill="#d0cfce" d="M21.125 37.419H41.186V44.94199999999999H21.125z" transform="rotate(45 31.155 41.18)"/></g></g><g id="line"><g id="_1F529-2" fill="none" stroke="#000" stroke-linecap="round" stroke-linejoin="round" stroke-width="2"><path d="M35.171 18.77H59.119V30.269H35.171z" transform="rotate(45 47.145 24.52)"/><path d="M32.755 32.488L39.869 25.374 46.961 32.467 39.883 39.546M29.642 49.786L20.556 58.873 18.527 59.126 13.175 53.774 13.174 52.069 22.375 42.868"/><path d="M21.125 37.419H41.186V44.94199999999999H21.125z" transform="rotate(45 31.155 41.18)"/></g></g></svg>