<svg xmlns="http://www.w3.org/2000/svg" role="img" viewBox="5.84 5.84 60.19 60.19"><title>1F1EF.svg</title><circle cx="36" cy="36" r="28" fill="#fff"/><path d="M44.3463 21c-.5527 0-1 .4478-1 1v18c0 4.9624-4.0371 9-9 9-2.2256 0-4.3643-.8208-6.0244-2.312-.4082-.3677-1.043-.3354-1.4121.0757s-.335 1.0435.0762 1.4126C29.0133 49.9971 31.6266 51 34.3464 51c6.0654 0 11-4.9346 11-11V22c0-.5522-.4473-1-1-1z"/><g><circle cx="36" cy="36" r="28" fill="none" stroke="#000" stroke-linejoin="round" stroke-width="2"/><path fill="none" stroke="#000" stroke-linejoin="round" stroke-width="2" d="M44.3463 21c-.5527 0-1 .4478-1 1v18c0 4.9624-4.0371 9-9 9-2.2256 0-4.3643-.8208-6.0244-2.312-.4082-.3677-1.043-.3354-1.4121.0757s-.335 1.0435.0762 1.4126C29.0133 49.9971 31.6266 51 34.3464 51c6.0654 0 11-4.9346 11-11V22c0-.5522-.4473-1-1-1z"/></g></svg>