<svg xmlns="http://www.w3.org/2000/svg" role="img" viewBox="10.99 9.11 49.90 52.65"><title>23F0.svg</title><path fill="#FFF" stroke-linecap="round" stroke-linejoin="round" stroke-miterlimit="10" stroke-width="2" d="M50.258 55.036l2.884 4.828m-31.4-4.828l-2.884 4.828"/><path fill="#d0cfce" d="M46.1859 14.7917c2.2534-4.6476 4.2653-4.0842 6.1673-4.3168 1.2869-.1573 6.4609 3.1641 6.4609 6.5799s-2.2433 4.739-3.5597 5.4867m-29.4403-7.7498c-2.2533-4.6476-4.2652-4.0842-6.1672-4.3168-1.287-.1573-6.461 3.1641-6.461 6.5799s2.2433 4.739 3.5597 5.4867"/><circle cx="36" cy="36.294" r="23" fill="#FFF" stroke-linecap="round" stroke-linejoin="round" stroke-miterlimit="10" stroke-width="2"/><path fill="#FFF" stroke-linecap="round" stroke-linejoin="round" stroke-miterlimit="10" stroke-width="2" d="M36.026 18.989v17"/><path fill="#FFF" stroke-linecap="round" stroke-linejoin="round" stroke-miterlimit="10" stroke-width="2.079" d="M35.974 35.935l-6 10.392"/><g fill="none" stroke="#000" stroke-linecap="round" stroke-linejoin="round" stroke-miterlimit="10"><path stroke-width="2" d="M50.258 55.036l2.884 4.828m-31.4-4.828l-2.884 4.828m29.9917-47.2879c.9692-.8502 2.2395-1.3655 3.6301-1.3655 3.0417 0 5.5076 2.4657 5.5076 5.5075 0 1.1088-.3277 2.1411-.8914 3.0052m-33.9456-7.1472c-.9693-.8502-2.2396-1.3655-3.6302-1.3655-3.0417 0-5.5075 2.4657-5.5075 5.5075 0 1.1088.3276 2.1411.8914 3.0052"/><circle cx="36" cy="36.294" r="23" stroke-width="2"/><path stroke-width="2" d="M36.026 18.989v17"/><path stroke-width="2.079" d="M35.974 35.935l-6 10.392"/></g></svg>