<svg xmlns="http://www.w3.org/2000/svg" role="img" viewBox="13.97 5.72 53.07 60.32"><title>1F985.svg</title><path fill="#A57939" d="M16.7701 49.5304S11.162 36.0709 31.3512 37.1925c0 0 4.4865-20.1893 32.5272-26.919 0 0 5.6081 26.919-23.5541 38.1353 0 0 0 8.973 8.973 11.2163 1.2317.3079 3.0236-.3413 3.3649 0 2.2433 2.2433-12.3379 4.4865-15.7028 3.3649v-6.7298s-7.8514 0-11.2163-8.973c0-.0001-2.2433-4.4866-8.973 2.2432z"/><path fill="#6A462F" d="M33.5945 30.3411s0-20.0676 6.7298-23.4325c0 0 5.6081 4.4865 4.4865 11.2163L33.5945 30.3411z"/><path fill="#FFF" d="M26.2427 46.3372s-4.1575-2.4149-9.3514 3.1932c0 0-6.4923-13.1612 15.5815-12.7495l-6.2301 9.5563z"/><path fill="#FCEA2B" d="M16.154 43.27l3.943 2.433-3.327 2.706z"/><g fill="none" stroke="#000" stroke-linecap="round" stroke-linejoin="round" stroke-miterlimit="10" stroke-width="2"><path d="M43.6891 14.76c0-4.4865-3.3649-6.7298-3.3649-6.7298-6.7298 4.4865-6.7298 17.946-7.8514 24.6758-.4206 2.5237-.6835 3.6278-1.321 4.1207-1.0625.8215-3.1655-.0548-8.7737 1.1136-8.973 1.8694-5.6081 11.5901-5.6081 11.5901 6.7298-6.7298 8.973-2.2433 8.973-2.2433 3.3649 10.0946 10.0946 8.973 10.0946 8.973 1.1216 4.4865 0 6.7298 0 6.7298 3.3649 3.3649 26.919-3.3649 15.2354-4.1126-11.6836-.7478-10.7489-10.4685-10.7489-10.4685 4.1408-2.3005 7.6106-4.6848 10.5155-7.0871 0 0 .7008-1.8859-1.5425-7.494"/><path d="M31.3512 37.1925c1.1216-7.8514 13.4595-17.946 13.4595-17.946S57.1486 10.2735 65 10.2735c0 0 0 16.8244-10.0946 28.0406 0 0 0-6.7298-2.2433-8.973M30.0193 54.2272l-.9113 5.3978s-3.3775-1.1341-4.4865 0m4.4865 0s2.2433 0 2.2433 1.1216"/></g></svg>