<svg xmlns="http://www.w3.org/2000/svg" role="img" viewBox="9.88 10.00 52.00 51.88"><title>E0A2.svg</title><path fill="#FCEA2B" d="M58.9991 59.9991h-46c-.5518-.0012-.9988-.4482-1-1v-46c.0012-.5518.4482-.9988 1-1h46c.5518.0012.9988.4482 1 1v46c.0314.5209-.3653.9686-.8862 1a.9393.9393 0 0 1-.1138 0z"/><path fill="none" stroke="#000" stroke-miterlimit="10" stroke-width="2" d="M58.9991 59.9991h-46c-.5518-.0012-.9988-.4482-1-1v-46c.0012-.5518.4482-.9988 1-1h46c.5518.0012.9988.4482 1 1v46c.0314.5209-.3653.9686-.8862 1a.9393.9393 0 0 1-.1138 0z"/><path d="M26.597 32.8367c.369.0954.6695.3628.807.7183.1132.5518.6523.9074 1.2042.7942.5518-.1132.9074-.6523.7942-1.2042a.88573.88573 0 0 0-.0072-.0323c-.3632-1.2888-1.4682-2.2311-2.7982-2.3861v2.1101zm-1.3179 6.0777c-.5351-.0735-.995-.4167-1.2175-.9089-.1668-.5381-.7382-.8391-1.2763-.6723s-.8391.7382-.6723 1.2763c.0041.0133.0085.0264.0131.0395.5084 1.3242 1.7379 2.2341 3.1529 2.3332v-2.0678z"/><path d="M25.8939 34.815c-.0314-.003-.0633-.004-.0956-.004-.9458 0-1.5808-.5488-1.5808-1.0608 0-.41.4121-.84 1.0611-.9956v-2.0617c-1.6638.0753-3.0022 1.3947-3.1011 3.0573.1193 1.7858 1.6327 3.1557 3.4216 3.0969.0313.002.0632.0039.0956.0039.9458 0 1.5813.5489 1.5813 1.0609-.0463.3928-.3081.7267-.6785.8654v2.1308c1.5054-.2214 2.6441-1.4764 2.7185-2.9962-.1193-1.786-1.633-3.1559-3.4221-3.0969z"/><path d="M45.9691 38.9065c-.514-.0868-.9502-.4255-1.1617-.902-.1782-.5344-.756-.8232-1.2905-.645-.5344.1783-.8232.756-.6449 1.2905.5005 1.3057 1.7037 2.2101 3.0971 2.328v-2.0715zm1.3185-6.0926c.3931.0879.7166.3658.8628.7411.1117.5521.6499.9092 1.202.7974.5521-.1117.9092-.6499.7974-1.202a.97558.97558 0 0 0-.0084-.0377c-.37-1.3087-1.5011-2.2591-2.8539-2.3982v2.0994z"/><path d="M46.6403 34.815c-.0314-.003-.0633-.004-.0956-.004-.9458 0-1.5808-.5488-1.5808-1.0608 0-.3987.3882-.8162 1.0053-.983v-2.07c-1.6421.0985-2.9507 1.4103-3.0453 3.0526.1193 1.7856 1.6324 3.1553 3.421 3.0969.0314.002.0633.0039.0957.0039.9458 0 1.5813.5489 1.5813 1.0609-.0536.4125-.3392.7576-.7343.8875v2.1232c1.5302-.2025 2.6973-1.4691 2.7743-3.0107-.1195-1.7856-1.6329-3.1552-3.4216-3.0965z"/><g><path d="M35.5317 38.8582c-.8088-.2722-1.3546-1.0292-1.3574-1.8826v-2.3937c.0028-.8534.5486-1.6104 1.3574-1.8826v-2.09c-1.9534.3117-3.3924 1.9943-3.3974 3.9724v2.3937c.005 1.9782 1.444 3.6607 3.3974 3.9724v-2.0896zm1.3184-8.2448v2.0981c.789.284 1.316 1.0314 1.3185 1.87v2.3937c-.0025.8386-.5295 1.586-1.3185 1.87v2.0981c1.936-.3289 3.3541-2.0039 3.359-3.9677v-2.3937c-.0045-1.964-1.4226-3.6395-3.359-3.9685z"/></g></svg>