<svg xmlns="http://www.w3.org/2000/svg" role="img" viewBox="9.36 10.48 52.78 51.91"><title>E08D.svg</title><path fill="#fcea2b" d="M32.4064 14.4782a3.8921 3.8921 0 0 1 6.7064 0L59.5617 54.62a4.4616 4.4616 0 0 1 .5748 1.9161 3.9267 3.9267 0 0 1-3.8321 3.928H15.3106a3.8434 3.8434 0 0 1-3.8321-3.8322 3.4546 3.4546 0 0 1 .5748-1.9161l20.3531-40.238"/><path fill="#3f3f3f" d="M40.15 37.6778h.3229a3.686 3.686 0 0 0 3.7121-3.6316 3.901 3.901 0 0 0-1.614-3.0665 2.5847 2.5847 0 0 0-2.5824-2.5017 2.2532 2.2532 0 0 0-1.7755.7263 3.4054 3.4054 0 0 0-2.6631-1.2914 3.516 3.516 0 0 0-2.34.8877 2.5779 2.5779 0 0 0-1.9369-.8877 2.6231 2.6231 0 1 0 0 5.2456 1.8544 1.8544 0 0 0 1.13-.3226 3.4757 3.4757 0 0 0 3.1469 2.0173 1.3729 1.3729 0 0 0 .5651-.0808 2.5246 2.5246 0 0 0-1.0493 2.0176 2.6352 2.6352 0 0 0 2.6632 2.6631 2.518 2.518 0 0 0 2.421-1.7753z"/><path fill="#9b9b9a" d="M34.542 60.455h-16.13l7.34-7.787 2.271-4.795 3.812-2.735 2.204 2.975-1.052 4.295 1.555 8.047z"/><path fill="#d0cfce" d="M34.542 60.455h18.819l-6.358-11.891-4.943-2.141-2.657-3.381-2.299.526-2.348-.526-2.921 2.096 2.204 2.975-1.052 4.295 1.555 8.047z"/><g fill="none" stroke="#000" stroke-linecap="round" stroke-width="2"><path stroke-linejoin="round" d="M32.4064 14.4782a3.8921 3.8921 0 0 1 6.7064 0L59.5617 54.62a4.4616 4.4616 0 0 1 .5748 1.9161 3.9267 3.9267 0 0 1-3.8321 3.928H15.3106a3.8434 3.8434 0 0 1-3.8321-3.8322 3.4546 3.4546 0 0 1 .5748-1.9161l20.3531-40.238"/><path stroke-miterlimit="10" d="M18.412 60.455l7.34-7.787 2.271-4.795 6.733-4.831 2.348.526 2.299-.526 2.657 3.381 4.943 2.141 6.358 11.891"/><path stroke-miterlimit="10" d="M31.835 45.138l2.204 2.975-1.056 4.269.771 3.997"/><path stroke-linejoin="round" d="M32.4027 32.8359a3.4757 3.4757 0 0 0 3.1473 2.0173 1.3729 1.3729 0 0 0 .5651-.0808 2.5246 2.5246 0 0 0-1.0493 2.0176 2.6352 2.6352 0 0 0 2.6632 2.6631 2.518 2.518 0 0 0 2.421-1.7753m2.4209-6.6978a2.5847 2.5847 0 0 0-2.5824-2.5017 2.2532 2.2532 0 0 0-1.7755.7263 3.4054 3.4054 0 0 0-2.663-1.2917 3.516 3.516 0 0 0-2.34.8877 2.5779 2.5779 0 0 0-1.9369-.8877A2.6866 2.6866 0 0 0 28.61 30.576"/></g></svg>