<svg xmlns="http://www.w3.org/2000/svg" role="img" viewBox="10.41 16.03 50.44 39.81"><title>1F95E.svg</title><ellipse cx="35.719" cy="41.859" fill="#d0cfce" rx="24.281" ry="10.984"/><ellipse cx="35.719" cy="29.719" fill="#fcea2b" rx="19.656" ry="8.094"/><ellipse cx="35.719" cy="25.094" fill="#fcea2b" rx="19.656" ry="8.094"/><ellipse cx="35.719" cy="31.031" fill="#fcea2b" stroke="#fcea2b" stroke-miterlimit="10" stroke-width="2" rx="19.656" ry="8.094"/><ellipse cx="35.719" cy="40.125" fill="#fcea2b" stroke="#fcea2b" stroke-miterlimit="10" stroke-width="2" rx="19.656" ry="8.094"/><ellipse cx="35.719" cy="35.5" fill="#fcea2b" stroke="#fcea2b" stroke-miterlimit="10" stroke-width="2" rx="19.656" ry="8.094"/><path fill="#f1b31c" d="M38.6094 25.0937c-4.1508 0-7.5156 1.8119-7.5156 4.0469 0 1.6833 1.9094 3.1258 4.625 3.7357v4.3581a1.7344 1.7344 0 0 0 3.4687 0v2.3125a1.7344 1.7344 0 0 0 3.4687 0v-3.4688a1.7344 1.7344 0 0 0 3.4688 0v-6.9375c0-2.235-3.365-4.0469-7.5156-4.0469zm4.0406 7.4554l.0061-.002v.0623c.0001-.0206-.0053-.0394-.0061-.0603z"/><g fill="none" stroke="#000" stroke-linecap="round" stroke-linejoin="round" stroke-width="2"><path d="M35.4059 34.3427q-.5911-.0037-1.1735-.0217c-10.1615-.3129-18.17-3.8068-18.17-8.071 0-4.47 8.8-8.0938 19.6563-8.0938S55.375 21.78 55.375 26.25c0 2.884-3.6633 5.4157-9.1784 6.8492m-9.3216 5.8695c-10.8558 0-20.8125-3.6236-20.8125-8.0937m39.3125 0c0 2.3681-2.47 4.4987-6.4069 5.9788-.6809.256-2.08.7438-2.8431.9587"/><path d="M55.375 35.5c0 4.47-8.8 8.0938-19.6562 8.0938S16.0625 39.97 16.0625 35.5"/><path d="M55.375 40.125c0 4.47-8.8 8.0938-19.6562 8.0938s-19.6563-3.6237-19.6563-8.0938"/><path d="M58.8438 43.0156C58.8438 49.0821 48.49 54 35.7188 54s-23.1251-4.9179-23.1251-10.9844m26.0157-17.9219c-4.1508 0-7.5156 1.8119-7.5156 4.0469 0 1.6833 1.9094 3.1258 4.625 3.7357v4.3581a1.7344 1.7344 0 0 0 3.4687 0v2.3125a1.7344 1.7344 0 0 0 3.4687 0v-3.4688a1.7344 1.7344 0 0 0 3.4688 0v-6.9375c0-2.235-3.365-4.0469-7.5156-4.0469z"/></g></svg>