<svg xmlns="http://www.w3.org/2000/svg" role="img" viewBox="6.55 1.42 59.16 62.66"><title>1F91F-1F3FC.svg</title><path fill="#debb90" d="M18 25.4375L16 14.25c-.875-4.4982-7.6875-3.625-7.1875 1.75 0 0 3.8903 21.9482 4.4479 29.3481v-.2559c.5404 10.5716 9.8613 17.3382 20.4303 16.7979 6.0957-.3376 11.8562-2.898 16.1913-7.1966 3.7118-3.9314 12.8301-14.6738 12.8301-14.6738 1.861-2.7454.4175-6.9889-1.0186-5.9441l-12.563 5.9165.3194-.107c-2.3974.8467-3.0395-1.5318-2.8249-3.2447l2.1111-27.8841c.5272-6.7684-7.2581-6.5855-7.2581-.9621L40.3125 23.5l-9.6782.8404-.5949.6013-.6767-.4909L18 25.4375z"/><g fill="none" stroke="#000" stroke-linecap="round" stroke-linejoin="round" stroke-width="2"><path d="M18 25.4375L16 14.25c-.875-4.4982-7.6875-3.625-7.1875 1.75 0 0 3.8903 21.9482 4.4479 29.3481v-.2559c.5404 10.5716 9.8613 17.3382 20.4303 16.7979 6.0957-.3376 11.8562-2.898 16.1913-7.1966 3.7118-3.9314 12.8301-14.6738 12.8301-14.6738 1.861-2.7454.4175-6.9889-1.0186-5.9441l-12.563 5.9165.3194-.107c-2.3974.8467-3.0395-1.5318-2.8249-3.2447l2.1111-27.8841c.5272-6.7684-7.2581-6.5855-7.2581-.9621L40.3125 23.5"/><path d="M30.0394 27.604c.2371-2.1519 1.7598-3.4091 3.8076-3.4552 1.9138-.043 3.9409.9576 3.9591 3.2774 0 0 .1972 6.9598.1592 7.3048-.2371 2.1519-2.1736 3.7041-4.3255 3.467-2.1518-.237-3.3818-2.198-3.467-4.3254l-.1334-6.2686zm-7.9308 0c.2371-2.1519 1.7598-3.4091 3.8076-3.4552 1.9138-.043 3.9409.9576 3.9591 3.2774 0 0 .1972 6.9598.1592 7.3048-.2371 2.1519-2.1736 3.7041-4.3255 3.467-2.1518-.237-3.3818-2.198-3.467-4.3254l-.1334-6.2686z"/></g></svg>