<svg xmlns="http://www.w3.org/2000/svg" role="img" viewBox="9.22 9.60 53.43 52.68"><title>1F999.svg</title><path fill="#a57939" d="M61.54 37c-.4139-.6823-1.39-1.178-2.738-1.947-1.524-1.908-.2775-2.888-2.053-4.905-4.281-4.865-26.31-1.117-26.31-1.117-4.651-5.643-5.238-8.224-10.98-17.44 0 0-.2587 1.479-1.428 2.21-1.259.7875-3.444.8412-3.707 1.134-.6945.7732-1.671 2.201-2.951 3.054-.8146.5427.3339 2.21.4168 3.005.166 1.592 2.6-.7192 3.797.3442 3.578 3.18 4 15.15 6.763 19.06 1.3 1.544 3.074 2.768 4.98 3.433 1.844 6.959 3.817 7.267 2.687 15.83.4369.16 1.284.9293 1.707.7362.2856-.168 1.226-.1211 1.52-.9389.1153-.3212.5276-1.195.7119-1.722.2205-.6301.1615-1.731.1615-1.731l.6918-6.166-.2429-3.854c4.723-.01304 8.445-.3529 14.93-1.979 1.32-.7341.9776-.8917 1.52.6663 1.099 3.158 3.573 5.685 4.12 7.08 1.747 4.457.527 4.588.4127 6.775 0 0 .02287 2.269 1.503 1.958.792-.8507 2.113-2.719 2.393-4.392.2496-1.491.4007-4.187-.3646-6.387-.8238-1.093-.06493-6.32-.3348-9.521-.1412-1.675-.4815-2.371-.3404-2.404 1.814 2.192 3.536 1.42 3.131-.7725z"/><path fill="#6a462f" d="M24.77 42.73c1.975.178 3.83 1.677 3.79 4.771 0 0-4.077 2.104-4.41 2.898s1.014 6.068 1.014 6.068-1.065 1.741-1.219 2.027c-.8464 1.573-2.624 1.142-2.624 1.142l-.7872-11.64c1.228-2.086 4.236-5.262 4.236-5.262zm23.59 1.81s2.621-1.731 3.146-.9814c.4054.5742 1.054 5.922 1.349 8.562s-3.699 6.291-4.407 7.209c-.4578.5932-1.158.75-1.881.7299-.4678-.01295-1.223.9912-1.756.3317-.4196-.5191-.452-2.319-.7014-2.366-.3162.1528 4.857-4.956 4.857-4.956z"/><g fill="none" stroke="#000" stroke-linecap="round" stroke-linejoin="round" stroke-width="2"><path d="M60.66 37.43l-1.868-2.339c-.8728-8.886-18.46-7.821-28.36-6.022-2.322.4345-6.446-9.261-8.223-13.67-.2737-.6795-1.317-3.758-2.636-3.758-1.128 0-1.043 1.632-1.55 2.196-.4312.4801-2.718.6383-3.768.9577-.3651.111.1295 1.608-.2308 1.722-1.335.4216-2.756.8147-2.699 1.644.04867.7095.1107 2.779.8074 2.934 1.55.3459 2.621-.4551 3.447.2786 3.578 3.18 4 15.15 6.763 19.06 1.3 1.544 2.992 2.709 4.98 3.433l2.344 5.148c1.045 2.673 1.011 5.618 1.009 8.373l-.4614 1.021c-.424.938.3586 1.958 1.503 1.958v0c.6795 0 1.286-.375 1.52-.9389l.7119-1.722c.229-.5537.2847-1.152.1615-1.731l-.2283-6.013"/><path d="M33.02 45.22c3.575 1.759 13.64.04346 18.2-1.392.4893 5.819 2.003 5.739 3.923 7.774l.8742 5.754-.4614 1.021c-.424.938.3586 1.958 1.503 1.958v0c.6795 0 1.286-.375 1.52-.9389l.7119-1.722c.229-.5537.2847-1.152.1615-1.731l-1.269-5.969"/><path d="M49.05 44.7c-1.155 3.33-1.013 3.448-1.017 4.312-.0035.7897.2763 1.276.6732 2.694.3249 1.161-2.755 4.226-3.8 5.376l-.7969.7882c-.732.7238-.3668 1.956.7014 2.366v0c.6344.2435 1.335.1109 1.756-.3317l1.282-1.352M24.77 42.73c-1.323 2.21-3.516 4.47-4.241 6.28-.3209.8185.6727 9.041.6727 9.041l.1115 1.115c.1022 1.024 1.29 1.516 2.281.9432v0c.5884-.34.9262-.9683.8464-1.573l-.2452-1.847"/></g></svg>