<svg xmlns="http://www.w3.org/2000/svg" role="img" viewBox="11.04 11.04 49.79 48.79"><title>1F4E0.svg</title><g stroke-linecap="round" stroke-linejoin="round" stroke-miterlimit="10" stroke-width="2"><path fill="#9B9B9A" d="M13 32h46v26H13z"/><path fill="#D0CFCE" d="M21 55h-1c-1.6569 0-3-1.3431-3-3V38c0-1.6569 1.3431-3 3-3h1c1.6569 0 3 1.3431 3 3v14c0 1.6569-1.3431 3-3 3z"/><path fill="#9B9B9A" d="M17 13h38v19H17z"/><path fill="#FFF" d="M29 17h22v15H29z"/><path fill="#B1CC33" d="M46 37h9v8h-9z"/></g><path fill="none" stroke="#000" stroke-linecap="round" stroke-linejoin="round" stroke-miterlimit="10" stroke-width="2" d="M13 32h46v26H13z"/><path fill="none" stroke="#000" stroke-linecap="round" stroke-linejoin="round" stroke-miterlimit="10" stroke-width="2" d="M21 55h-1c-1.6569 0-3-1.3431-3-3V38c0-1.6569 1.3431-3 3-3h1c1.6569 0 3 1.3431 3 3v14c0 1.6569-1.3431 3-3 3zm-4-42h38v19H17z"/><path fill="none" stroke="#000" stroke-linecap="round" stroke-linejoin="round" stroke-miterlimit="10" stroke-width="2" d="M29 17h22v15H29z"/><circle cx="29" cy="39" r="2"/><circle cx="35" cy="39" r="2"/><circle cx="41" cy="39" r="2"/><circle cx="29" cy="45" r="2"/><circle cx="35" cy="45" r="2"/><circle cx="41" cy="45" r="2"/><circle cx="29" cy="51" r="2"/><circle cx="35" cy="51" r="2"/><circle cx="41" cy="51" r="2"/><path fill="none" stroke="#000" stroke-linecap="round" stroke-linejoin="round" stroke-miterlimit="10" stroke-width="2" d="M46 37h9v8h-9z"/></svg>