<svg xmlns="http://www.w3.org/2000/svg" role="img" viewBox="5.84 5.84 60.19 60.19"><title>1F30E.svg</title><g stroke-linecap="round" stroke-linejoin="round" stroke-miterlimit="10" stroke-width="2"><circle cx="36" cy="36" r="28" fill="#92D3F5"/><path fill="#B1CC33" d="M41.6878 29.1965c-.0568.7946-2.2706 3.5222-2.8378 3.9161-1.1826.8214-1.6443.4449-2.6746 1.2557-.653.5139-1.469 1.0634-2.4689 1.2557-.5534.1064-.3086-.4165-1.5537.3831-.6936.4454-.0778.9247 0 1.3621.1046.588.1828.2336 1.3621 1.3621.6157.5893.6707 1.1144 1.3621 1.3621.4322.1549.7463.07 1.3621 0 1.2911-.1467.717 1.1259 1.3621 1.3621 1.4839.5433 2.0319.3161 3.3988.5445.552.0922 1.3122-.1799 2 1 .2963.5083 0 2 .05 2.5421.0844.9159-.5065 1.7288-1.3621 2.7243-.6921.8052-.8206.6811-1.3621 1.3621-.7236.9099-.5299 1.1763-1.3621 2.7243-.8424 1.5667-1.3055 1.7862-1.3621 2.7243-.0237.3923-.0011 1.32 0 1.3621.0238.9465.0765 1.0716 0 1.3621-.1781.677-1.5528 1.2699-2.0716 1.1919-1.0211-.1535-1.0026-3.6818-1.05-4.2283-.0958-1.1035.3564-1.7204.3973-2.4121.1412-2.393.5408-3.1351 0-4.0864-.3451-.607-.5273-.3396-1.3621-1.3621-.4715-.5774-1.1856-1.4733-1.3621-2.7243-.1113-.788.1212-.7928 0-1.3621-.2251-1.0562-1.1013-1.3971-2.7243-2.7243-1.0013-.8188-1.8894-1.5449-2.7243-2.7243-.4339-.6128-1.0478-1.48-1.3621-2.7243-.4138-1.6378.2025-1.9051 0-4.0864-.0457-.4913-.2445-2.2829-1.3621-4.0864-.4745-.7657-.8087-1.2882-1.3621-1.3621-1.055-.141-1.6211 1.519-2.7243 1.3621-.6593-.0938-1.1689-.788-1.3621-1.3621-.0517-.1534-.2402-.7406 0-1.3621.1331-.3445.5428-.6837 1.3621-1.3621.836-.6924 1.2563-1.045 1.3621-1.3621.1992-.5974-.1599-.8105 0-1.3621.2735-.944 1.7229-1.6939 2.7243-1.3621.5752.1906.4511.5555 1.3621 1.3621.4423.3916 1.3981 1.1259 2.7243 1.3621.6697.1193 1.0045.1788 1.3621 0 .8809-.4408.4597-1.6084 1.3621-2.7243.8301-1.0264 2.1787-1.2654 2.7243-1.3621 1.3486-.2391 1.5329.2732 2.7243 0 1.2802-.2937 1.2433-.9257 2.7243-1.3621.6485-.1911 1.791-.528 2.7243 0 .8401.4752.7287 1.2093 1.3621 1.3621.884.2134 1.3172-1.1646 2.7243-1.3621 1.0743-.1508 2.3522.4375 2.7243 1.3621.1847.4589.0982.8817 0 1.3621-.2966 1.4511-1.0836 1.5389-1.3621 2.7243-.3028 1.288.3458 1.6004 0 2.7243-.227.7378-.6811.5108-1.4047 1.1067-.3311.2727-.4115.7094-1.3196 1.6175-.454.454-.9255.8914-1.3621 1.3621-.9957 1.0728-1.1544 1.1541-1.3625 1.3621"/></g><g fill="none" stroke="#000" stroke-linecap="round" stroke-linejoin="round" stroke-miterlimit="10" stroke-width="2"><circle cx="36" cy="36" r="28"/><path d="M41.6878 29.1965c-.0568.7946-2.2706 3.5222-2.8378 3.9161-1.1826.8214-1.6443.4449-2.6746 1.2557-.653.5139-1.469 1.0634-2.4689 1.2557-.5534.1064-.3086-.4165-1.5537.3831-.6936.4454-.0778.9247 0 1.3621.1046.588.1828.2336 1.3621 1.3621.6157.5893.6707 1.1144 1.3621 1.3621.4322.1549.7463.07 1.3621 0 1.2911-.1467.717 1.1259 1.3621 1.3621 1.4839.5433 2.0319.3161 3.3988.5445.552.0922 1.3122-.1799 2 1 .2963.5083 0 2 .05 2.5421.0844.9159-.5065 1.7288-1.3621 2.7243-.6921.8052-.8206.6811-1.3621 1.3621-.7236.9099-.5299 1.1763-1.3621 2.7243-.8424 1.5667-1.3055 1.7862-1.3621 2.7243-.0237.3923-.0011 1.32 0 1.3621.0238.9465.0765 1.0716 0 1.3621-.1781.677-1.5528 1.2699-2.0716 1.1919-1.0211-.1535-1.0026-3.6818-1.05-4.2283-.0958-1.1035.3564-1.7204.3973-2.4121.1412-2.393.5408-3.1351 0-4.0864-.3451-.607-.5273-.3396-1.3621-1.3621-.4715-.5774-1.1856-1.4733-1.3621-2.7243-.1113-.788.1212-.7928 0-1.3621-.2251-1.0562-1.1013-1.3971-2.7243-2.7243-1.0013-.8188-1.8894-1.5449-2.7243-2.7243-.4339-.6128-1.0478-1.48-1.3621-2.7243-.4138-1.6378.2025-1.9051 0-4.0864-.0457-.4913-.2445-2.2829-1.3621-4.0864-.4745-.7657-.8087-1.2882-1.3621-1.3621-1.055-.141-1.6211 1.519-2.7243 1.3621-.6593-.0938-1.1689-.788-1.3621-1.3621-.0517-.1534-.2402-.7406 0-1.3621.1331-.3445.5428-.6837 1.3621-1.3621.836-.6924 1.2563-1.045 1.3621-1.3621.1992-.5974-.1599-.8105 0-1.3621.2735-.944 1.7229-1.6939 2.7243-1.3621.5752.1906.4511.5555 1.3621 1.3621.4423.3916 1.3981 1.1259 2.7243 1.3621.6697.1193 1.0045.1788 1.3621 0 .8809-.4408.4597-1.6084 1.3621-2.7243.8301-1.0264 2.1787-1.2654 2.7243-1.3621 1.3486-.2391 1.5329.2732 2.7243 0 1.2802-.2937 1.2433-.9257 2.7243-1.3621.6485-.1911 1.791-.528 2.7243 0 .8401.4752.7287 1.2093 1.3621 1.3621.884.2134 1.3172-1.1646 2.7243-1.3621 1.0743-.1508 2.3522.4375 2.7243 1.3621.1847.4589.0982.8817 0 1.3621-.2966 1.4511-1.0836 1.5389-1.3621 2.7243-.3028 1.288.3458 1.6004 0 2.7243-.227.7378-.6811.5108-1.4047 1.1067-.3311.2727-.4115.7094-1.3196 1.6175-.454.454-.9255.8914-1.3621 1.3621-.9957 1.0728-1.1544 1.1541-1.3625 1.3621"/></g></svg>