<svg xmlns="http://www.w3.org/2000/svg" role="img" viewBox="14.73 7.48 42.17 53.30"><title>1F9D1-1F3FC-200D-2695-FE0F.svg</title><path fill="#fff" d="M16.6483 58.8573s-2.1-14.9 9.9-14.9c3.1919 2.1279 6.0264 3.7984 9.1 3.7921l.2749.1c3.0737.0063 5.9081-1.8642 9.1-3.9921 11.5646-.0346 9.509 14.9 9.74 15"/><circle cx="24.614" cy="54.782" r="3" fill="#9b9b9a"/><path fill="#d0cfce" d="M45.0771 43.8448c-3.17 2.1133-5.275 3.5-9.3375 4.0886 13.0625.4114 12.9625 6.9114 13.7247 10.9114h5.1128s2.6144-15.0022-9.5-15z"/><path fill="#fcea2b" d="M26 36.5808c-4 0-4-6-4-13s4-14 14-14 14 7 14 14 0 13-4 13"/><g><path fill="#debb90" d="M24.9365 28.5808c0 9 4.9365 14 11 14 5.9365 0 11.0635-5 11.0635-14a12.1371 12.1371 0 0 0-1-5c-3-3-7-8-7-8-4 3-7 6-13 7.0005 0-.0005-1.0635.9987-1.0635 5.9995z"/></g><g><path d="M41.9529 27.0468a2 2 0 1 1-2-2 2.0007 2.0007 0 0 1 2 2m-8 0a2 2 0 1 1-2-2 2.0007 2.0007 0 0 1 2 2m1.9998 10.0024a7.6524 7.6524 0 0 1-3.4472-.8579 1 1 0 1 1 .8945-1.789 5.3779 5.3779 0 0 0 5.1055 0 1 1 0 1 1 .8945 1.789 7.6528 7.6528 0 0 1-3.4473.8579z"/><circle cx="24.614" cy="54.782" r="3" fill="none" stroke="#000" stroke-linecap="round" stroke-linejoin="round" stroke-width="2"/><path fill="none" stroke="#000" stroke-linecap="round" stroke-linejoin="round" stroke-width="2" d="M24.6141 51.7818s-1.3273-5.46 2.2791-9.2021m23.0224 3.399C56.1221 49.097 54.7678 57.9 54.7678 57.9M28.5935 45.99c2.4969 1.5232 4.7846 2.5066 7.2993 2.5014h-.125a13.3645 13.3645 0 0 0 6.86-2.2377M16.8928 57.9s-1.4346-9.3251 5.4161-12.18m22.1487-3.14c1.5847 1.6445 2.4274 5.3192 2.4274 5.3192-3.4246.1134-3.3095 3.8829-3.3095 3.8829s-.7793 5.5625 1.6548 5.4316l-.1645 1.6163.2835-2.963m1.942-7.9681c3.4246.1134 3.31 3.8829 3.31 3.8829s.7793 5.5625-1.6549 5.4316l.1645 1.6162-.2835-2.963M29.953 46.767L35.611 57.9m5.657-10.903L35.611 57.9M26 36.5808c-4 0-4-6-4-13s4-14 14-14 14 7 14 14 0 13-4 13"/><path fill="none" stroke="#000" stroke-linejoin="round" stroke-width="2" d="M24.9365 28.5808c0 9 4.9365 14 11 14 5.9365 0 11.0635-5 11.0635-14a12.1371 12.1371 0 0 0-1-5c-3-3-7-8-7-8-4 3-7 6-13 7.0005 0-.0005-1.0635.9987-1.0635 5.9995z"/></g></svg>