<svg xmlns="http://www.w3.org/2000/svg" role="img" viewBox="12.41 4.79 47.30 63.05"><title>1F44C.svg</title><path fill="#fcea2b" stroke="#fcea2b" stroke-miterlimit="10" stroke-width="1.8" d="M56.4257 39.17c.03-.18.03-.36.03-.55 0 0 .33-21.03.3-21.34-.19-1.94-1.92-3.36-3.86-3.17-1.94.19-3.36 1.91-3.17 3.86l.7104 13.2212c-1.42-5.66-5.6404-21.6412-5.7304-21.8712-.68-1.83-2.71-2.76-4.54-2.08-1.83.69-2.75 2.72-2.07 4.55l1.7127 6.7546L42.3757 28.68v-.01c-2.6-4.36-10.55-17.72-10.71-17.93-1.18-1.55-3.4-1.85-4.95-.67-1.55 1.17-1.86 3.39-.68 4.94l5.3325 9.1368 7.5566 13.0352-6.2691-7.432c-.16-.27-.36-.51-.59-.72-.55-.51-1.22-.81-1.92-.91-.59-.19-1.22-.23-1.87-.11l-10.0796 1.47c-.32 0-.63.04-.93.12-1.88.51-2.99 2.45-2.48 4.33.51 1.89 2.45 3 4.34 2.48l8.8796-1.3 5.651 7.1064c-1.3254 3.8368-1.2485 6.1236-3.2986 7.1812-3.9119-1.3794-7.9247-1.9453-7.9247-1.9453V42.06c.04-.31.04-.62 0-.93-.26-1.93-2.03-3.29-3.96-3.03-1.94.25-3.3 2.03-3.04 3.96v8.14l.0716.2227c.0875 1.9615.7117 3.8226 1.5117 4.4226 1.1808 1.3968 3.0242 3.1904 4.9271 5.0504 4.3858 3.3314 10.4516 6.0706 15.5078 5.8058 11.0842 0 20.0698-8.9855 20.0698-20.0698 0-2.2878-.3798-4.4198-1.0843-6.4559"/><g fill="none" stroke="#000" stroke-linecap="round" stroke-linejoin="round" stroke-width="2"><path d="M15.4577 50.2v-8.14c-.26-1.93 1.1-3.71 3.04-3.96 1.93-.26 3.7 1.1 3.96 3.03.04.31.04.62 0 .93v5.3923m34.0037-8.2764c.7045 2.036 1.0843 4.1681 1.0843 6.4559 0 11.0842-8.9855 20.0698-20.0698 20.0698-5.0562.2648-11.122-2.4744-15.5078-5.8058-1.9029-1.86-3.7464-3.6536-4.9271-5.0504-.8-.6-1.4242-2.4611-1.5117-4.4226"/><path d="M33.681 42.2164c-1.3254 3.8368-1.2485 6.1236-3.2986 7.1812-3.9119-1.3794-7.9247-1.9453-7.9247-1.9453M28.03 35.11l-8.8796 1.3c-1.89.52-3.83-.59-4.34-2.48-.51-1.88.6-3.82 2.48-4.33.3-.08.61-.12.93-.12L28.3 28.01c.65-.12 1.28-.08 1.87.11m3.511 14.096L28.03 35.11m2.14-6.99c.7.1 1.37.4 1.92.91.23.21.43.45.59.72l6.2691 7.432m-7.5566-13.0352L26.06 15.01c-1.18-1.55-.87-3.77.68-4.94 1.55-1.18 3.77-.88 4.95.67.16.21 8.11 13.57 10.71 17.93v.01m8.0604 2.5112C49.0404 25.5312 44.82 9.55 44.73 9.32c-.68-1.83-2.71-2.76-4.54-2.08-1.83.69-2.75 2.72-2.07 4.55l1.7127 6.7546M49.75 17.97c-.19-1.95 1.23-3.67 3.17-3.86 1.94-.19 3.67 1.23 3.86 3.17.03.31-.3 21.34-.3 21.34 0 .19 0 .37-.03.55M41.825 27.792l3.581 5.655"/></g></svg>