<svg xmlns="http://www.w3.org/2000/svg" role="img" viewBox="1.71 25.96 67.21 30.21"><title>1F45E.svg</title><g id="color"><path fill="#A57939" d="M7.6821,50.4643C5.4335,48.6114,4,45.8052,4,42.6642c0-2.7896,1.1307-12.3151,2.9588-14.1432 c0,0,16.4385,9.1248,29.0454,0L48.478,36c0,0,6.7551,0.8268,11.6292,1.2555c4.8929,0.4303,6.6336,4.931,6.6336,7.6336 c0,8.6515-13.338,7.2227-20.0644,6.8554c-3.7068-0.2024-9.1385-0.499-13.2682-0.7245l-20.7127-0.3202L7.6821,50.4643z"/><path fill="#A57939" stroke="#A57939" stroke-miterlimit="10" stroke-width="2" d="M7.6821,50.4643 C5.4335,48.6114,4,45.8052,4,42.6642c0-2.7896,1.1307-12.3151,2.9588-14.1432c0,0,16.4385,9.1248,29.0454,0L48.478,36 c0,0,6.7551,0.8268,11.6292,1.2555c4.8929,0.4303,6.6336,4.931,6.6336,7.6336c0,8.6515-13.338,7.2227-20.0644,6.8554 c-3.7068-0.2024-9.1385-0.499-13.2682-0.7245L7.6821,50.4643z"/><path fill="#3F3F3F" stroke-linecap="round" stroke-linejoin="round" stroke-miterlimit="10" stroke-width="2" d="M11 50.7H27.544V54H11z"/></g><g id="line" fill="none" stroke="#000" stroke-linecap="round" stroke-linejoin="round" stroke-miterlimit="10" stroke-width="2"><path d="M7.6821,50.4643C5.4335,48.6114,4,45.8052,4,42.6642c0-2.7896,1.1307-12.3151,2.9588-14.1432c0,0,16.4385,9.1248,29.0454,0 L48.478,36c0,0,6.7551,0.8268,11.6292,1.2555c4.8929,0.4303,6.6336,4.931,6.6336,7.6336c0,8.6515-13.338,7.2227-20.0644,6.8554 c-3.7068-0.2024-9.1385-0.499-13.2682-0.7245"/><path d="M11 50.7H27.544V54H11zM37.097 33.385L34.328 35.296M40.663 35.248L37.893 37.159M44.227 37.111L41.458 39.023"/></g></svg>