<svg xmlns="http://www.w3.org/2000/svg" role="img" viewBox="14.67 7.17 42.15 52.72"><title>1F469-1F3FD-200D-1F393.svg</title><path fill="#3F3F3F" d="M54.8495 58.9165s2-14-10-14c-3.1919 2.1279-5.9264 3.5984-9 3.5922h.125c-3.0736.0062-5.8082-1.4643-9-3.5922-12 0-10 14-10 14"/><path fill="#9B9B9A" d="M45.119 12.271l-9.31.91-9.07-.89-5.44-.53 13.88-2.52 15.13 2.52z"/><path fill="#3F3F3F" d="M45.1188 12.2713v7.97s-6.72-.27-9.19 2.63c-2.47-2.9-9.19-2.63-9.19-2.63v-7.95l9.07.89 9.31-.91z"/><path fill="#FFF" d="M35.8506 51.4932h-.1084v-.001c-3.1973-.0313-5.9854-1.4639-9.4277-3.7598-.46-.3066-.584-.9277-.2774-1.3867.3057-.46.9248-.584 1.3867-.2773 3.1533 2.1025 5.6602 3.4101 8.3828 3.4248 2.7217-.0137 5.2286-1.3223 8.3829-3.4248.4609-.3067 1.081-.1827 1.3867.2773.3066.46.1826 1.0801-.2774 1.3867-3.4433 2.2959-6.2314 3.7285-9.4277 3.7598v.001h-.0205z"/><g><path fill="#6a462f" d="M21.1866 46.4742c1.4263-.9518 3.3033-1.5577 5.7879-1.5577 3.1699 2.1133 5.8895 3.5746 8.9375 3.5886 3.048-.0139 5.7675-1.4753 8.9375-3.5886 2.4695 0 4.3384.5988 5.7615 1.5405 1.121-1.4768 1.9742-3.0567 2.3716-4.7086 2.0498-8.5205-5.2788-18.3913-7.4774-21.5108-4.1739-.3651-7.3131.5797-9.5764 2.6336-2.4446-2.1166-5.6751-2.8033-9.3764-2.6336-2.1985 3.1195-9.7601 13.0233-7.5775 21.5108.4411 1.7153 1.2238 3.289 2.2117 4.7258z"/></g><g><path fill="#c19a65" d="M47.1449 28.8923c-6.6211-7.1154-8.1216-9.2836-11.2161-6.021-3.3996-3.3996-3.5685-.36-11.4025 4.6002-.0387.4764-.0585.9315-.0585 1.4208 0 7.8276 5.0764 14.1732 11.3386 14.1732 6.2621 0 11.3385-6.3456 11.3385-14.1732z"/></g><g><path d="M41.9289 27.0637c0 1.1045-.8965 2-2 2s-2-.8955-2-2c0-1.1035.8965-2 2-2s2 .8965 2 2m-8 0c0 1.1045-.8965 2-2 2s-2-.8955-2-2c0-1.1035.8965-2 2-2s2 .8965 2 2m1.9999 10.0025c-1.1519 0-2.3037-.2862-3.4473-.858-.4941-.247-.6943-.8476-.4472-1.3417.2465-.4937.8461-.6944 1.3417-.4473 1.7178.8594 3.3877.8594 5.1055 0 .4946-.2471 1.0947-.0464 1.3418.4473.2471.4941.0469 1.0947-.4473 1.3417-1.1435.5718-2.2954.858-3.4472.858zM54.7461 58.915c-.0508 0-.1016-.0029-.1523-.0107-.5459-.084-.9209-.5938-.8379-1.1387.0087-.0576.8271-5.7412-2.1289-9.1777-1.4756-1.7149-3.6895-2.6123-6.586-2.669-3.3096 2.1856-6.0283 3.5459-9.126 3.5889-.0214.002-.0429.001-.0644.001h-.1084c-.0147 0-.0293 0-.044-.001-3.0996-.043-5.8164-1.4033-9.1259-3.5889-2.8965.0567-5.1104.9541-6.586 2.669-2.956 3.4365-2.1377 9.1201-2.1289 9.1777.083.5449-.292 1.0547-.8379 1.1387-.5332.0801-1.0547-.29-1.1386-.8359-.0411-.2696-.9727-6.6329 2.581-10.7754 1.9229-2.2412 4.751-3.377 8.4072-3.377.1973 0 .3907.0586.5547.168 3.1533 2.1025 5.6602 3.4101 8.3828 3.4248 2.7217-.0137 5.2286-1.3223 8.3829-3.4248.164-.1094.3574-.168.5546-.168 3.6563 0 6.4844 1.1358 8.4073 3.377 3.5537 4.1425 2.622 10.5058 2.581 10.7754-.0761.4941-.5019.8466-.9863.8466zM21.2998 21.1133c-.5527 0-1-.4478-1-1v-8.1216c0-.5522.4473-1 1-1s1 .4478 1 1v8.1216c0 .5522-.4473 1-1 1z"/><path d="M19.2725 23.6929c-.2159 0-.4336-.0699-.6172-.2134-.4336-.3413-.5098-.9702-.168-1.4043l2.0264-2.5796c.3408-.4331.9677-.5093 1.4043-.1689.4336.3413.5097.9702.1679 1.4043l-2.0263 2.5795c-.1973.251-.4903.3824-.7871.3824z"/><path d="M21.2998 25.2134c-.5527 0-1-.4478-1-1v-4.1001c0-.5523.4473-1 1-1s1 .4477 1 1v4.1001c0 .5522-.4473 1-1 1z"/><path d="M20.3213 44.0664c-.3731 0-.7305-.209-.9024-.5674-.2255-.4697-.4238-.9482-.5888-1.4219-2.9785-8.5644 4.2597-18.8125 6.6387-22.1801l.166-.2354c.3183-.4507.9423-.56 1.3935-.2412.4512.3179.5596.9419.2412 1.3936l-.167.2373c-2.2324 3.1596-9.0244 12.7758-6.3837 20.3686.1406.4024.3095.8106.5029 1.2139.2392.498.0293 1.0957-.4688 1.334-.1396.0674-.2871.0986-.4316.0986zm31.2148 0c-.1445 0-.292-.0312-.4316-.0986-.4981-.2383-.708-.836-.4688-1.334.1934-.4033.3623-.8115.503-1.2149 2.6406-7.5918-4.1514-17.208-6.3838-20.3676l-.167-.2373c-.3184-.4517-.21-1.0757.2412-1.3936.4502-.3188 1.0762-.2095 1.3936.2412l.166.2354c2.3789 3.3676 9.6172 13.6157 6.6386 22.1792-.165.4746-.3632.9531-.5888 1.4228-.1719.3584-.5293.5674-.9024.5674z"/><path d="M24.6201 28.6279c-.3564 0-.7012-.1875-.8818-.5205-.2637-.4853-.0908-1.0884.3945-1.3515l.0147-.0083c4.1728-2.2642 4.1728-2.2642 8.1572-6.3213l1.458 1.3701c-4.1865 4.2622-4.2666 4.3247-8.6611 6.709-.1534.083-.3184.1225-.4815.1225zm22.627.0069c-.1612 0-.3242-.0386-.4756-.1211-.1817-.0987-4.499-2.4634-8.6768-6.7173-.3867-.3941-.3808-1.0274.0137-1.4141.3926-.3872 1.0254-.3818 1.4141.0127 3.9687 4.042 8.1601 6.3379 8.2021 6.3609.4854.2631.666.8701.4024 1.3559-.1807.3335-.5245.523-.8799.523z"/><path d="M35.9287 43.5977c-7.1494 0-12.3389-6.6202-12.3389-15.7403 0-.5522.4473-1 1-1 .5528 0 1 .4478 1 1 0 7.9619 4.3477 13.7403 10.3389 13.7403 5.7012 0 10.3389-5.9092 10.3389-13.1734 0-.2495-.0059-.498-.0166-.7446-.0244-.5518.4023-1.0191.9541-1.044.539-.0117 1.0185.4019 1.0439.9541.0127.2769.0186.5547.0186.8345 0 8.3667-5.5352 15.1734-12.3389 15.1734z"/><path fill="none" stroke="#000" stroke-linecap="round" stroke-linejoin="round" stroke-miterlimit="10" stroke-width="2" d="M21.299 11.761l5.44.53 9.07.89 9.31-.91 5.19-.51"/><path fill="none" stroke="#000" stroke-linecap="round" stroke-linejoin="round" stroke-miterlimit="10" stroke-width="2" d="M26.7388 11.7613v8.48s6.72-.27 9.19 2.63m9.19-11.11v8.48s-6.72-.27-9.19 2.63M50.309 11.761l-15.13-2.52-13.88 2.52"/></g></svg>