<svg xmlns="http://www.w3.org/2000/svg" role="img" viewBox="15.70 5.08 40.48 61.10"><title>1FAF0.svg</title><circle cx="39.866" cy="46.247" r="3.866" fill="#fcea2b"/><path d="M31.2093 13.9433c.6705-3.2503 4.0434-6.6603 6.857-6.6603 1.6504 0 2.3534.6565 2.3534 2.0065 0 7.0439.9289 9.4563 3.4356 15.1189l4.6067 9.1357-17.3207-16.1577.068-3.4431zm2.5326 18.1449c-1.6066-1.6066-4.2115-1.6066-5.8182 0s-1.6066 4.2115 0 5.8182l1.4969 1.4387c-1.6066-1.6066-4.2115-1.6066-5.8182 0s-1.6066 4.2115 0 5.8182l1.4545 1.4545c-1.6066-1.6066-4.2115-1.6066-5.8182 0s-1.6066 4.2115 0 5.8182l6.7966 6.7757c6.4264 6.4264 16.8456 6.4264 23.272 0s6.3817-16.8009-.0447-23.2273l-5.982-5.982-18.3699-18.37c-1.6049-1.6049-4.207-1.6049-5.8119 0s-1.6049 4.207 0 5.8119l14.6435 14.6435" fill="#fcea2b"/><path d="M33.7419 32.0882c-1.6066-1.6066-4.2115-1.6066-5.8182 0s-1.6066 4.2115 0 5.8182l1.4969 1.4387c-1.6066-1.6066-4.2115-1.6066-5.8182 0s-1.6066 4.2115 0 5.8182l1.4545 1.4545c-1.6066-1.6066-4.2115-1.6066-5.8182 0s-1.6066 4.2115 0 5.8182l6.7966 6.7757c6.4264 6.4264 16.8456 6.4264 23.272 0s6.3817-16.8009-.0447-23.2273l-5.982-5.982-18.3699-18.37c-1.6049-1.6049-4.207-1.6049-5.8119 0s-1.6049 4.207 0 5.8119l14.6435 14.6435zm-1.5415-18.4421c0-3.688 3.0522-6.3632 5.8659-6.3632 1.6504 0 2.3534.6565 2.3534 2.0065 0 6.8778.2017 10.1006 2.5447 15.5202" fill="none" stroke="#000" stroke-linecap="round" stroke-linejoin="round" stroke-width="2"/></svg>