<svg xmlns="http://www.w3.org/2000/svg" role="img" viewBox="14.21 17.84 41.08 39.89"><title>23FE.svg</title><path fill="#fff" d="M53.4371 45.8226c-7.807 5.5256-18.6871 4.7925-25.6787-2.1991-6.4354-6.4354-7.5684-16.1653-3.399-23.7607-5.1179 3.6223-8.4589 9.589-8.4589 16.3361 0 11.0457 8.9543 20 20 20 7.5571 0 14.1353-4.1914 17.5366-10.3763z"/><path fill="none" stroke="#000" stroke-linejoin="round" stroke-width="2" d="M53.5366 45.6237c-7.807 5.5256-18.6871 4.7925-25.6787-2.1991-6.4354-6.4354-7.5684-16.1653-3.399-23.7607C19.341 23.2862 16 29.2529 16 36c0 11.0457 8.9543 20 20 20 7.5571 0 14.1353-4.1914 17.5366-10.3763z"/></svg>