<svg xmlns="http://www.w3.org/2000/svg" role="img" viewBox="3.37 7.74 58.76 46.51"><title>1F4F8.svg</title><circle cx="33.852" cy="37.591" r="5" fill="#d0cfce"/><path fill="#3f3f3f" d="M33.8524 27.5907c-2.1024 0-5.0159 1.4642-6.5495 2.6766 0 0 .9658 1.2952.6406 1.6224-.3262.3271-1.3249.369-1.3249.369-1.1046 1.4944-2.4297 3.3352-2.4297 5.3321 0 4.9629 4.9985 10.2978 9.9614 10.2978s9.7021-5.335 9.7021-10.2979-5.0371-10-10-10zm0 16.0001c-3.3086 0-6-2.6914-6-6s2.6914-6 6-6 6 2.6914 6 6-2.6914 6-6 6z"/><path fill="#fff" d="M11.518 21.918h-.383v2.294l1.314-1.529-.931-.765zm16.0143 9.724l-6.1309-3.6932-2.6515 4.7584c2.3713 2.2317 7.42-.4655 7.8561-.4137l.9263-.6515zm1.3217.652l.001-.002-.001.002zm.6128-9.376l-4.7056.5-1.5291.0937 3.5873 5.7254.5652.7418c1.1349-.8972 4.6418-2.4049 4.212-2.2579-.5185.1758 2.6106-1.0071 3.8303-1.0071 4.1438 0 6.3852 3.4308 6.3851 3.4308-.0047-.0106 1.1873 1.7282 1.1827 1.7177 0 0 3.6809-.5696 3.5087-.4292v1.2675c.1755-.1525 1.5048-.8383 1.7557-.8383l11.0885-.2717-.2276-7.5374c0-1.1372-30.2059-1.1353-29.6532-1.1353zm-.5427 8.8216c-.005-.0331-.009-.0649-.0174-.0976.008.0323.0126.0648.0174.0976zm.0092.1897c-.0017.0379-.0011.0759-.0072.1134.006-.0379.0057-.075.0072-.1134zm-12.372.7423l-.7721-5.4771-3.404 1.8031.25 4.1286s-.2866.6813.1414.5908l1.9292-.5908s.54-.4548 1.8555-.4546z"/><path fill="#9b9b9a" d="M57.6162 51.343c.1405-.0243 1.9616-.7183 1.9582-4.0029-.0052-5.0782 0-15.0175 0-15.0175s-13.0007-.1253-12.448-.1253h-3.6908c.0046.0105.0097.024.0144.0346.2193.3913-.7686.5787-.5976.9975 0 0 1.2496 2.3944.9999 5.5663-.2497 3.1719-2.8919 6.7518-5.5648 8.1018-2.441 1.2329-2.1896.9902-4.9309.6931-2.7412-.2971-4.7834-.8471-6.2134-2.2769-.0809-.0809-1.2041-2.1166-1.7665-3.0153-1.2721-2.033-1.228-3.6201-1.1879-4.7077.0457-1.2387.796-1.7835 1.0592-2.8015.3098-1.1985 1.308-2.4241 1.3705-2.5306.0749-.1277-2.9171-.0406-6.1038-.0531l-5.1876-.0095c-1.3155-.0002-2.2012.0012-2.2012.0012h-.5c.1289 0-.0278 18.333.25 18.3648.2867.0328 1.712 1.3319 3.2368 1.3497 10.1553.1187 41.4669-.5625 41.5034-.5688z"/><path fill="#f1b31c" d="M17.1424 37.5907s3.5909-9.3438 3.8741-9.4459c.2841-.1035 5.8744 2.4323 5.8744 2.4323s-4.5214-7.4033-4.456-7.6641c.0655-.2612 7.7379-4.8892 7.7379-4.8892l-8.7435 2.0703c-.2832.0767-.7378-.0972-.7661-.3907l-1.7091-8.1953-2.691 8.0704c-.083.269-7.9333-2.1364-7.9333-2.1364l5.5443 5.1175c.208.1709-6.1709 7.6712-6.1709 7.6712l7.5566-3.0363c.1484-.0806 1.8826 10.3962 1.8826 10.3962z"/><g fill="none" stroke="#000" stroke-linecap="round" stroke-linejoin="round" stroke-width="2"><path d="M12.1256 33.1975v16.0038c0 1.6912 1.4076 3.0623 3.1441 3.0623h41.6606c1.7365 0 3.1441-1.3711 3.1441-3.0623V25.98c0-1.6912-1.4076-3.0622-3.1441-3.0622H29.4665M47.152 33.197h12.466"/><path d="M30.6138 28.1268c1.0157-.3475 2.1051-.5361 3.2386-.5361 5.5229 0 10 4.4771 10 10s-4.4771 10-10 10-10-4.4772-10-10c0-1.0285.1553-2.0207.4436-2.9544"/><circle cx="33.852" cy="37.591" r="5"/><path d="M13.874 22.56l-8.263 9.612 10.124-5.475 1.34 12.332 3.945-11.31 6.924 4.171-5.509-8.977 9.454-5.513-11.613 3.18-1.042-10.673-3.127 10.179-10.496-4.312 8.263 6.786z"/></g></svg>