<svg xmlns="http://www.w3.org/2000/svg" role="img" viewBox="11.04 11.04 49.79 49.79"><title>1F632.svg</title><circle cx="36" cy="36" r="23" fill="#FCEA2B"/><path fill="#FFF" d="M43.1797 51.8701H28.8106c0-4 2.3896-7.1796 7.1797-7.1796 4.789 0 7.2099 3.1894 7.2099 7.1796"/><g><path fill="none" stroke="#000" stroke-linecap="round" stroke-linejoin="round" stroke-miterlimit="10" stroke-width="2" d="M43.1797 51.8701H28.8106c0-4 2.3896-7.1796 7.1797-7.1796 4.789 0 7.2099 3.1894 7.2099 7.1796M20.2793 27.2002c.7207-1.3857 1.9278-2.4541 3.3907-3 1.4052-.7002 3.0205-.8486 4.5302-.4209m22.6895 3.4209c-1.582-2.7724-4.8037-4.1699-7.9092-3.4306"/><circle cx="36" cy="36" r="23" fill="none" stroke="#000" stroke-linecap="round" stroke-linejoin="round" stroke-miterlimit="10" stroke-width="2"/><path d="M30 34c0 1.6568-1.3448 3-3 3-1.6553 0-3-1.3433-3-3 0-1.6552 1.3447-3 3-3 1.6552 0 3 1.3448 3 3m18 0c0 1.6568-1.3447 3-3 3s-3-1.3433-3-3c0-1.6552 1.3447-3 3-3s3 1.3448 3 3"/><path fill="none" stroke="#000" stroke-linecap="round" stroke-linejoin="round" stroke-miterlimit="10" stroke-width="2" d="M20.6948 27.2002c.7207-1.3857 1.9278-2.4541 3.3907-3 1.4052-.7002 3.0205-.8486 4.5302-.4209m22.6895 3.4209c-1.582-2.7724-4.8037-4.1699-7.9092-3.4306"/></g></svg>