<svg xmlns="http://www.w3.org/2000/svg" role="img" viewBox="8.96 8.96 53.95 53.95"><title>1F6B9.svg</title><path fill="#61b2e4" stroke-linecap="round" stroke-linejoin="round" stroke-miterlimit="10" stroke-width="2" d="M60 61H12c-.5523 0-1-.4477-1-1V12c0-.5523.4477-1 1-1h48c.5523 0 1 .4477 1 1v48c0 .5523-.4477 1-1 1z"/><path fill="#fff" d="M43.2 40.83l-.6336-15.2c-.0917-1.839-2.366-3.982-4.166-4h-4.8c-1.8.0175-4.075 2.161-4.166 4l-.6336 15.2c-.0047.1041.6157.6698.5739.7648l2.524-1.98-.7458 17.69c-.026.252.2117.5213.3655.72.0303.0387.0737.0644.1216.0721.1712 0 .5256-.3422.5888-.9004l2.034-18.03c.0429-.3697.1378-.7311.2816-1.073l.7872-.4984h1.3l.5796.6441c.123.3151.2828.6169.3223.9538l2.319 18c.0632.5591.4168.9004.588.9004.0479-.0077.0912-.0333.1216-.072.1539-.1987.2257-.451.2-.7031l-.5709-17.71 2.401 1.945c-.058-.1074.6151-.6073.6094-.7299z"/><circle cx="36" cy="16.08" r="2.375" fill="#fff"/><g fill="none" stroke="#000" stroke-width="2"><path stroke-linecap="round" stroke-linejoin="round" stroke-miterlimit="10" d="M60 61H12c-.5523 0-1-.4477-1-1V12c0-.5523.4477-1 1-1h48c.5523 0 1 .4477 1 1v48c0 .5523-.4477 1-1 1z"/><circle cx="36" cy="16.01" r="2.375" stroke-miterlimit="10"/><path stroke-linecap="round" stroke-linejoin="round" d="M40 26.36l1.52 30.4c.044.88-.46 1.6-1.12 1.6-.7812-.1321-1.36-.7976-1.383-1.59l-2.031-17.62c-.1008-.8744-.5432-1.59-.9832-1.59s-.88.7152-.9832 1.59l-2.034 17.62c-.0229.792-.602 1.458-1.383 1.59-.66 0-1.164-.72-1.12-1.6l1.52-30.4"/><path stroke-linecap="round" stroke-linejoin="round" d="M43.2 40.76l-.6336-15.2c-.1156-2.224-1.94-3.975-4.166-4h-4.8c-2.227.0249-4.051 1.776-4.166 4l-.6336 15.2"/></g></svg>