<svg xmlns="http://www.w3.org/2000/svg" role="img" viewBox="-0.01 24.49 71.89 32.77"><title>E20F.svg</title><path fill="#f4aa41" d="M50.846 56l-9.8-10.557.352-1.979 2.423-2.892 2.298-1.182 4.244-5.064L57.431 56h-6.585z"/><path fill="#e27022" d="M51.957 55L25.968 26.963 35.078 56h5.306l11.573-1z"/><path fill="#f4aa41" d="M33.477 35.064l-7.509-8.101 2.642 8.101h4.867zM2.473 55l23.495-28.037L35.111 55H2.473z"/><path fill="#fcea2b" d="M19.18 35.064l6.788-8.101 2.642 8.101h-9.43z"/><path fill="#e27022" d="M69.527 55L50.363 34.326 57.105 55h12.422z"/><g fill="none" stroke="#000" stroke-linecap="round" stroke-linejoin="round" stroke-width="2"><path d="M44.586 41.219l5.777-6.893L57.105 55"/><path d="M69.527 55L50.363 34.326 57.105 55h12.422zM2.473 55l23.495-28.037L35.111 55H2.473zm36.976 0h12.508L25.968 26.963"/></g></svg>