<svg xmlns="http://www.w3.org/2000/svg" role="img" viewBox="2.72 14.72 66.43 42.43"><title>1F1EC-1F1F8.svg</title><path fill="#1e50a0" d="M5 17h62v38H5z"/><path fill="none" stroke="#9b9b9a" stroke-linecap="round" stroke-linejoin="round" stroke-width="2" d="M49 25l2-2m-2 2l-2-2"/><path fill="#fff" d="M9.887 18H6v2.332L32.113 36H36v-2.332L9.887 18z"/><path fill="#fff" d="M36 20.332V18h-3.887L6 33.668V36h3.887L36 20.332z"/><path fill="#fff" d="M6 24h30v6H6z"/><path fill="#fff" d="M18 18h6v18h-6z"/><path fill="#d22f27" d="M20 18h2v18h-2z"/><path fill="#d22f27" d="M6 26h30v2H6zm30 7.668L29.887 30H26l10 6v-2.332zM36 18h-3.887L24 22.868V24h2l10-6zM6 20.332L12.113 24H16L6 18v2.332zM6 36h3.887L18 31.132V30h-2L6 36z"/><path fill="none" stroke="#e27022" stroke-linecap="round" stroke-linejoin="round" stroke-width="2" d="M50 26h4v1h-4zm4 1v3m-4-3v3m-1-5l1 1"/><path fill="none" stroke="#f1b31c" stroke-linecap="round" stroke-linejoin="round" stroke-width="2" d="M59.1357 49a9.9864 9.9864 0 0 0-14.2714 0"/><path fill="#5c9e31" stroke="#5c9e31" stroke-linecap="round" stroke-linejoin="round" stroke-width="2" d="M52 42l3-8h-6l3 8z"/><g><path d="M59 31v10a1.0029 1.0029 0 0 0 1 1h1a1.0029 1.0029 0 0 0 1-1v-5a2.094 2.094 0 0 0-.8321-1.5547L59 33"/><path fill="none" stroke="#000" stroke-linecap="round" stroke-linejoin="round" stroke-width="2" d="M59 31v10a1.0029 1.0029 0 0 0 1 1h1a1.0029 1.0029 0 0 0 1-1v-5a2.094 2.094 0 0 0-.8321-1.5547L59 33"/></g><g><path fill="#9b9b9a" d="M45 31v10a1.0029 1.0029 0 0 1-1 1h-1a1.0029 1.0029 0 0 1-1-1v-5a2.094 2.094 0 0 1 .8321-1.5547L45 33"/><path fill="none" stroke="#9b9b9a" stroke-linecap="round" stroke-linejoin="round" stroke-width="2" d="M45 31v10a1.0029 1.0029 0 0 1-1 1h-1a1.0029 1.0029 0 0 1-1-1v-5a2.094 2.094 0 0 1 .8321-1.5547L45 33"/></g><g><path fill="none" stroke="#000" stroke-linecap="round" stroke-linejoin="round" stroke-width="2" d="M5 17h62v38H5z"/></g></svg>