<svg xmlns="http://www.w3.org/2000/svg" role="img" viewBox="5.71 5.71 60.45 60.45"><title>1F16F.svg</title><circle cx="36" cy="36" r="26.68" fill="#fff" fill-rule="evenodd"/><g stroke="#000" stroke-linecap="round" stroke-linejoin="round"><circle cx="36" cy="36" r="26.68" fill="none" stroke-width="4.75"/><circle cx="36" cy="19.355" r="2" stroke-width="1.33"/><path stroke-width="1.33" d="M30.0277 39.96726l11.94363-.00004-.52763-12.6578c-.0966-1.85203-1.61554-3.31034-3.44559-3.331l-3.97322.00004c-1.85403.02065-3.37337 1.47896-3.46957 3.331z"/><path stroke-width="1.33" d="M32.6945 27.97566l-1.26579 25.3156c-.03664.73282.38307 1.3324.93268 1.3324a1.38303 1.38303 0 0 0 1.15186-1.32374l1.69148-14.67639c.08395-.72815.45235-1.32374.81876-1.32374s.73282.59559.81876 1.32374l1.69348 14.67639a1.38303 1.38303 0 0 0 1.15186 1.32374c.54962 0 .96932-.59958.93268-1.3324l-1.26578-25.3156z"/></g></svg>