<svg xmlns="http://www.w3.org/2000/svg" role="img" viewBox="1.68 17.93 68.51 39.63"><title>1F375.svg</title><path fill="#fff" d="M19.9055 55.7995h32.1874C62.8891 49.3081 68 36.2917 68 20.7519l-39.3658-.4358H21.71L4 20.7519c0 15.5398 5.1109 28.5562 15.9055 35.0476z"/><path fill="#b1cc33" d="M18.324 29.419h14.019v17.524H18.324z"/><path fill="#5c9e31" d="M31 30L21 47l2-.058h9.343L32 30h-1z"/><g fill="none" stroke="#000" stroke-width="2"><path stroke-linecap="round" stroke-linejoin="round" d="M19.5 20.3161H4c0 15.5398 5.1109 28.5562 15.9055 35.0476h32.1874C62.8891 48.8723 68 35.8559 68 20.3161H31.5"/><path stroke-linecap="round" stroke-miterlimit="10" d="M25.5 20.5l-.167 10.919"/><path stroke-linejoin="round" d="M18.324 29.419h14.019v17.524H18.324z"/></g></svg>