<svg xmlns="http://www.w3.org/2000/svg" role="img" viewBox="1.66 19.66 69.55 33.55"><title>1F988.svg</title><path fill="#9B9B9A" d="M18.25 40.9655S15 46.8276 11 49.931c0 0 2-4.1379 1-8.2759s-8-9.3103-8-9.3103 10 0 14 5.1724c0 0 17 1.0345 21-6.2069 0 0 1-5.1724-3-9.3103 0 0 5 0 10 4.1379 4.8462 4.0107 3.1164 4.134 9.3791 7.9055.4091.2464.8493.443 1.3017.5871C59.7607 35.6108 69 38.5517 69 38.5517s0 4.1379-14 6.2069c0 0-1 5.1724-5 7.2414 0 0 2-6.2069-1-6.2069 0 0-2 0-9-1.0345"/><path fill="#D0CFCE" d="M37.5053 42.3136s-3.1325 1.9058-3.679 4.4556c0 0-2.8661-3.0198-4.9723-2.5598l4.7588-3.4697M44.5556 37s4.25 2 0 5m2-5s4.25 2 0 5m2-5s4.25 2 0 5"/><g fill="none" stroke="#000" stroke-linecap="round" stroke-linejoin="round" stroke-miterlimit="10"><path stroke-width="2" d="M40 44c7 1 9 1 9 1 3 0 1 6 1 6 4-2 5-7 5-7 14-2 14-6 14-6s-9.2393-2.8429-12.3191-3.7905c-.4525-.1392-.8926-.3293-1.3017-.5675C49.1164 29.9962 50.8462 29.877 46 26c-5-4-10-4-10-4 4 4 3 9 3 9-4 7-21 6-21 6-4-5-14-5-14-5s7 5 8 9-1 8-1 8c4-3 7.25-8.6667 7.25-8.6667L27 42"/><path stroke-width="2" d="M37 43s-2.9279 1.6684-3.4781 3.8358c0 0-2.594-2.5042-4.548-2.0775l4.4581-3.0208"/><path d="M45 37s2 2 0 5m2-5s2 2 0 5m2-5s2 2 0 5"/></g></svg>