<svg xmlns="http://www.w3.org/2000/svg" role="img" viewBox="10.00 10.00 51.87 51.87"><title>1F17E.svg</title><g fill="none" stroke="#000" stroke-width="2"><path stroke-miterlimit="10" d="M59.0349 60h-46.07A.9679.9679 0 0 1 12 59.0349v-46.07A.9679.9679 0 0 1 12.9651 12h46.07a.9679.9679 0 0 1 .9649.9651v46.07a.9679.9679 0 0 1-.9651.9649z"/><path stroke-linecap="round" stroke-linejoin="round" d="M35.75 46.5116h0a7.8572 7.8572 0 0 1-7.8571-7.8571v-6.2858a7.8572 7.8572 0 0 1 7.8571-7.8571h0a7.8572 7.8572 0 0 1 7.8571 7.8571v6.2858a7.8572 7.8572 0 0 1-7.8571 7.8571z"/></g><path fill="#d22f27" d="M59.0349 60h-46.07A.9679.9679 0 0 1 12 59.0349v-46.07A.9679.9679 0 0 1 12.9651 12h46.07a.9679.9679 0 0 1 .9649.9651v46.07a.9679.9679 0 0 1-.9651.9649z"/><g fill="none" stroke="#fff" stroke-width="2"><path stroke-miterlimit="10" d="M59.0349 60h-46.07A.9679.9679 0 0 1 12 59.0349v-46.07A.9679.9679 0 0 1 12.9651 12h46.07a.9679.9679 0 0 1 .9649.9651v46.07a.9679.9679 0 0 1-.9651.9649z"/><path stroke-linecap="round" stroke-linejoin="round" d="M35.75 46.5116h0a7.8572 7.8572 0 0 1-7.8571-7.8571v-6.2858a7.8572 7.8572 0 0 1 7.8571-7.8571h0a7.8572 7.8572 0 0 1 7.8571 7.8571v6.2858a7.8572 7.8572 0 0 1-7.8571 7.8571z"/></g></svg>