<svg xmlns="http://www.w3.org/2000/svg" role="img" viewBox="2.59 9.72 66.69 54.69"><title>1F93D-1F3FB.svg</title><path fill="#92D3F5" d="M68 43.334c0-1.916-11.917 3.041-16.917 3.041s-10-3-16-3-10 3-16 3S4 41.417 4 43.25c0 5.3125-.2705 7.4795 1.667 11.167 1.9619 3.7344 9.958 3.667 13.083 6.917 2.415 2.5117 7.125 1.833 10.25 1.833 2.166 0 4.5518.083 8.9688.083 3.833 0 10.4882-1.334 13.2802-1.334 2.333 0 5.791-3.3857 6.5-4.8027 2.003-4.0029 6.5508-.96 8.25-4.0664 2.1875-4 2.001-4.2344 2.001-9.7129z"/><circle cx="14.969" cy="15.094" r="3" fill="#EA5A47"/><g fill="#fadcbc"><path d="M47.417 45s-3.709-7.75-4.4795-10.375L41.0625 44 36 42.875l-5.125.3125-1.875-11-.9687-.875c-.6133-1.6455-6.0723-1.8545-8.4688-3.9375-1.7422-1.5146-3.25-6.8437-3.7812-9.1562l1.25-1.5938 3.9062 7.2188L29.6875 27l11.6875 1.4375 2.875 2.125 5.625 12.25.8125 3.0625L47.417 45z"/><circle cx="34.969" cy="20.094" r="3"/></g><g fill="none" stroke="#000" stroke-miterlimit="10" stroke-width="2"><circle cx="34.969" cy="20.094" r="3"/><path stroke-linecap="round" stroke-linejoin="round" d="M30 43v-7c0-1.0996-.2246-2.6748-.5-3.5S29 31 29 31m13 4l-1 8M5 43c3 0 9 3 15 3s10-3 16-3 11 3 16 3 7-3 15-3m-20.9941 7.9639C48.0449 51.5313 50.0225 52 52 52c2.7441 0 4.585-.9043 7.0088-1.7197m-46.2315.6064C15.0439 51.4883 17.5225 52 20 52c6 0 10-3 16-3m-9.999 8.959c3.208-.8828 6.2031-2.084 9.999-2.084 4.4063 0 8.2734 1.6182 11.9971 2.4775"/><circle cx="14.969" cy="15.094" r="3"/><path stroke-linecap="round" stroke-linejoin="round" d="M17.875 16l2.4688 7.1108c.3613 1.0391 1.5292 2.1075 2.5966 2.3741l4.1192 1.0302c1.0674.2666 2.8379.5537 3.9345.6382l9.0118.6934c1.0966.0845 2.6308.7895 3.4082 1.5674l.1718.1718c.7774.7774 1.708 2.2647 2.0664 3.3047l.7657 2.2207c.3584 1.0401 1.0097 2.7168 1.4472 3.7256L50.75 45.5"/></g></svg>