<svg xmlns="http://www.w3.org/2000/svg" role="img" viewBox="6.60 5.60 59.68 59.93"><title>1F4A3.svg</title><path fill="#9B9B9A" d="M39.1103 21.88867l7.77804-7.77831 10.99994 10.99956-7.77803 7.7783z"/><path fill="#3F3F3F" d="M46.034 22.212l4.478-4.478 7.377 7.377-5.367 5.367z"/><circle cx="31.769" cy="40.404" r="23" fill="#9B9B9A"/><path fill="#3F3F3F" d="M19.6333 55.7374c12.7025 0 23-10.2975 23-23 0-5.5327-1.9548-10.6081-5.2097-14.5762 9.8615 2.5932 17.1357 11.5674 17.1357 22.2428 0 12.7025-10.2975 23-23 23-7.1697 0-13.5723-3.2816-17.7903-8.4237 1.8726.4922 3.8373.7571 5.8643.7571z"/><g fill="none" stroke="#000" stroke-linecap="round" stroke-linejoin="round" stroke-miterlimit="10" stroke-width="2"><path d="M41.46 19.539l5.429-5.428 11 10.999-5.367 5.367"/><circle cx="31.769" cy="40.404" r="23"/><path d="M55.757 16.243l8.486-8.486"/></g></svg>