<svg xmlns="http://www.w3.org/2000/svg" role="img" viewBox="7.86 6.61 57.03 59.41"><title>1F6C0.svg</title><path fill="#d0cfce" d="M10.052 33.2853c.2752 2.3177 47.5575 2.6076 51.7188 0 0 0 1.0555 0 1.0555 4.222s1.0555 16.8878-10.5549 18.9987H20.6068a8.744 8.744 0 0 1-3.57-.98c-2.2-1.11-4.8087-3.4755-5.9294-8.5189-2.1109-9.4998-1.0554-13.7218-1.0554-13.7218zm36.942-21.1097l6.3329 5.2774a5.9576 5.9576 0 0 0 0-6.3329c-2.111-3.1665-6.3329 1.0555-6.3329 1.0555z"/><path fill="#9b9b9a" d="M62.8513 33.4964L43.8275 56.506s9.2649 1.0555 10.4376 0 7.5057-6.3329 7.5057-8.4439 1.0805-14.5657 1.0805-14.5657zM16.385 55.451l-2.111 6.332 2.111 2.111h3.166l2.111-6.332-5.277-2.111z"/><path fill="#9b9b9a" d="M54.382 55.451l2.111 6.332-2.111 2.111h-3.166l-2.111-6.332 5.277-2.111z"/><path fill="#fcea2b" d="M26.94 28.0079a5.272 5.272 0 0 1-5.2775 5.2774c-2.6232 0-3.1664-5.2378-3.1664-8.4439s.0155-3.1664 2.6387-3.1664 5.8052 3.1268 5.8052 6.3329z"/><g><path fill="#a57939" d="M20.6068 21.675s-6.4089 1.0555-7.3884 4.2219.4919 6.984 2.111 7.3884a6.9539 6.9539 0 0 0 1.0555 0c.61.0623 2.6129.7382 3.1664 0 .7551-1.0068-.986-2.6281 0-4.2219 1.9587-3.1665 3.0145-6.3329 1.0555-7.3884z"/></g><g><g fill="none" stroke="#000" stroke-linecap="round" stroke-linejoin="round" stroke-width="2"><path d="M60.3987 33.4964V12.5978s0-7.2829-6.8607-1.5832"/><path d="M47.2051 12.4923c1.6888-2.2166 4.5386-2.85 6.3329-1.4777s1.9 4.3275.2111 6.544zM15.857 60.306L14.696 64h3.694l.739-2.111m-9.077-28.3926v9.9216c0 7.2829 5.7 13.2991 12.6658 13.2991h27.4427c6.9662 0 12.6658-6.0162 12.6658-13.2991v-9.9216a350.7089 350.7089 0 0 1-52.7743 0z"/></g><path d="M20.6068 21.675h0m.9143 12.3579l-3.0252-3.914a8.2726 8.2726 0 0 0 3.1541-8.2744" fill="none" stroke="#000" stroke-linecap="round" stroke-linejoin="round" stroke-width="2"/><path fill="none" stroke="#000" stroke-linecap="round" stroke-linejoin="round" stroke-width="2" d="M17.3458 33.74a6.5034 6.5034 0 0 1-3.9-7.4819 6.6126 6.6126 0 0 1 8.2491-4.3734 6.6126 6.6126 0 0 1 5.0183 7.8734 5.8915 5.8915 0 0 1-.3394.95M51.638 61.783l.739 2.111h3.694L54.91 60.2"/></g></svg>