<svg xmlns="http://www.w3.org/2000/svg" role="img" viewBox="20.00 10.00 30.87 51.87"><title>E0C5.svg</title><path d="M45 42H26m19-18H25.5m20-7H25.1393" fill="none" stroke="#000" stroke-linecap="round" stroke-width="2"/><path fill="#fff" fill-rule="evenodd" d="M22.0341 13.0331c-.0187-.565.4342-1.0331.9994-1.0331h24.9297c.5664 0 1.0197.47.9993 1.036L48.8557 16h.0002l-1.5163 42.072C47.3008 59.1479 46.4174 60 45.3408 60H25.5232c-1.0788 0-1.9632-.8556-1.9989-1.9339L22.1324 16h-.0002l-.0981-2.9669z" clip-rule="evenodd"/><path fill="#A57939" d="M24.0372 17.0359c-.0203-.566.433-1.0359.9993-1.0359h20.9272c.5662 0 1.0195.4698.9993 1.0357l-1.3936 39.0357C45.531 57.1475 44.6475 58 43.5707 58h-17.098c-.5383 0-.98-.4261-.9993-.9641l-1.4362-40z"/><path fill="#6A462F" fill-rule="evenodd" d="M46.1075 41H24.8976l-.8604-23.9641c-.0203-.566.433-1.0359.9994-1.0359h20.9271c.5663 0 1.0196.4698.9993 1.0357L46.1075 41z" clip-rule="evenodd"/><path fill="#fff" fill-rule="evenodd" d="M46.7501 23H24.2514l-.2142-5.9641c-.0203-.566.433-1.0359.9994-1.0359h20.9271c.5663 0 1.0196.4698.9993 1.0357L46.7501 23z" clip-rule="evenodd"/><g><path d="M22.0341 13.0331l-.9995.033.9995-.033zm26.9284.0029L47.9632 13l.9993.036zM48.8557 16l-.9993-.036L47.819 17h1.0367v-1zm.0002 0l.9993.036.0374-1.036h-1.0367v1zm-1.5163 42.072l.9993.036-.9993-.036zm-23.8153-.0059l-.9995.0331.9995-.0331zM22.1324 16l.9994-.0331-.032-.9669h-.9674v1zm-.0002 0l-.9994.0331.032.9669h.9674v-1zm.9013-5c-1.1305 0-2.0363.9363-1.9989 2.0661L23.0335 13v-2zm24.9297 0H23.0335v2h24.9297v-2zm1.9987 2.072C50.0027 11.94 49.096 11 47.9632 11v2l1.9987.072zm-.1068 2.964l.1068-2.964L47.9632 13l-.1068 2.964 1.9987.072zm-.9994.964h.0002v-2h-.0002v2zm-.9992-1.036l-1.5163 42.072 1.9987.072 1.5163-42.072-1.9987-.072zm-1.5163 42.072c-.0194.5379-.4611.964-.9994.964v2c1.6149 0 2.9399-1.2782 2.9981-2.892l-1.9987-.072zm-.9994.964H25.5232v2h19.8176v-2zm-19.8176 0c-.5394 0-.9816-.4278-.9995-.9669l-1.9989.0661C22.5783 59.7166 23.9049 61 25.5232 61v-2zm-.9995-.9669l-1.3919-42.0662-1.9989.0662 1.3919 42.0661 1.9989-.0661zM22.1322 17h.0002v-2h-.0002v2zm-1.0976-3.9339l.0982 2.967 1.9989-.0662L23.0335 13l-1.9989.0661z"/><path fill="none" stroke="#000" stroke-linecap="round" stroke-width="2" d="M34 57h9.5351c.5384 0 .9801-.4263.9993-.9643L46 15"/></g></svg>