<svg xmlns="http://www.w3.org/2000/svg" role="img" viewBox="11.04 11.04 49.79 49.79"><title>1F62A.svg</title><circle cx="36" cy="36" r="24" fill="#FCEA2B"/><path fill="#92D3F5" d="M53.0243 55.0045c-1.3489-.0915-2.5814-.7028-3.4702-1.7214-2.9266-3.3525-2.5576-9.3267-2.5405-9.5792.0356-.5252.4899-.9214 1.0148-.8858.2529.0172 6.2222.4585 9.1501 3.811h.0005c1.833 2.1017 1.6153 5.3044-.486 7.1383-1.0165.8894-2.3198 1.3286-3.6687 1.2371z"/><g fill="none" stroke="#000" stroke-miterlimit="10" stroke-width="2"><path stroke-linecap="round" stroke-linejoin="round" d="M46.8344 56.2934C43.606 58.0206 39.9174 59 36 59c-12.7025 0-23-10.2975-23-23s10.2975-23 23-23 23 10.2975 23 23c0 2.0737-.2744 4.0832-.7889 5.9944"/><path stroke-linecap="round" stroke-linejoin="round" d="M40.5 32.7253c.4132-.344 2.2456-1.7915 4.9091-1.6364 2.1608.1259 3.61 1.2333 4.0909 1.6364m-27 0c.4132-.344 2.2456-1.7915 4.9091-1.6364 2.1608.1259 3.61 1.2333 4.0909 1.6364"/><path d="M53.0243 55.0045c-1.3489-.0915-2.5814-.7028-3.4702-1.7214-2.9266-3.3525-2.5576-9.3267-2.5405-9.5792.0356-.5252.4899-.9214 1.0148-.8858.2529.0172 6.2222.4585 9.1501 3.811h.0005c1.833 2.1017 1.6153 5.3044-.486 7.1383-1.0165.8894-2.3198 1.3286-3.6687 1.2371z"/><path stroke-linecap="round" stroke-linejoin="round" d="M29.5 45.5c1.2841-.6376 3.9847-1.0308 6.8421-.9981 2.6235.03 4.9897.4146 6.1579.9981"/></g></svg>