<svg xmlns="http://www.w3.org/2000/svg" role="img" viewBox="3.75 11.38 64.87 46.24"><title>E1C2.svg</title><path fill="#ea5a47" d="M64.8 44l-1.1-.6c-.4-.2-.6-.6-.5-1 .3-1.9.5-8.5-9.7-11.5-.2-.1-.4-.1-.6-.1l-19.6.1c-.4 0-.8.1-1.1.3l-10.3 6.9c-.2.1-.4.2-.6.2-1.9-.1-3.7.1-5.6.4-5.4 1.1-7.6 4-8.4 5.5-.2.3-.2.7-.2 1 .1 2.4-1.5 5.1.9 7.3l19.4-.1 20.4-.5 16.1-.2c.9-.1001 2.4-1.4 2.8-2.2001C68.4 46.8 65 44.1 64.8 44z"/><path fill="#9b9b9a" d="M17.3 46.4c-2.2 0-4 1.8-4 4s1.8 4 4 4 4-1.8 4-4-1.8-4-4-4zm39.8 0c-2.2 0-4 1.8-4 4s1.8 4 4 4 4-1.8 4-4-1.8-4-4-4z"/><path fill="#92d3f5" d="M56.1 39.3V35c0-.9-.8-1.7-1.7-1.7H33.2c-.1 0-.2 0-.2.1l-8 5.7c-.2.1-.2.4-.1.6.1.1.2.2.3.2 5.6 0 27.2-.2 30.4-.1.3 0 .5-.2.5-.5 0 .1 0 .1 0 0z"/><path fill="#fcea2b" d="M8.9 40.5l4 1.6-2.1 2.9-5 .1z"/><g fill="none" stroke="#000" stroke-linecap="round" stroke-linejoin="round" stroke-width="2"><path d="M47.6 51l-20.6.4m-18.9 0c-.9-.2-1.7-.5-1.8-1-.1-1-.3-3.8-.3-5.1 0-.5.1-1.1.4-1.5 1.1-2 4.8-6.8 14.9-6.4l10.3-6.9c.5-.3 1.1-.5 1.6-.5l19.6-.1c.3 0 .6 0 .9.1 2.2.6 11.7 4 10.4 12.6l1.1.6c.5.2.9.7 1 1.2.4 1.4.3 2.9-.2 4.3"/><path d="M24.9 39.9l30.2-.2v-4.5"/><circle cx="17.3" cy="50.4" r="5"/><circle cx="57.1" cy="50.4" r="5"/><path d="M12.3 42.9l-1.8 2.2-3.7-.1m11.4675-17.1374c1.686-4.7001 5.6083-8.5012 10.8147-9.8108 4.6697-1.1747 9.3778-.0949 12.9752 2.5523"/><path d="M14.1824 26.8537c1.9558-6.0058 6.8614-10.9045 13.439-12.5591 5.9379-1.4937 11.9263-.0137 16.3931 3.5"/><path d="M22.217 28.7337c1.3375-3.2661 4.1557-5.8757 7.841-6.8028 3.4647-.8715 6.9577-.0704 9.6268 1.8937"/></g></svg>