<svg xmlns="http://www.w3.org/2000/svg" role="img" viewBox="2.72 14.72 66.43 42.43"><title>1F1F9-1F1E8.svg</title><path fill="#1e50a0" d="M5 17h62v38H5z"/><path fill="#fff" d="M9.887 18H6v2.332L32.113 36H36v-2.332L9.887 18z"/><path fill="#fff" d="M36 20.332V18h-3.887L6 33.668V36h3.887L36 20.332z"/><path fill="#fff" d="M6 24h30v6H6z"/><path fill="#fff" d="M18 18h6v18h-6z"/><path fill="#d22f27" d="M20 18h2v18h-2z"/><path fill="#d22f27" d="M6 26h30v2H6zm30 7.668L29.887 30H26l10 6v-2.332zM36 18h-3.887L24 22.868V24h2l10-6zM6 20.332L12.113 24H16L6 18v2.332zM6 36h3.887L18 31.132V30h-2L6 36z"/><g><path fill="#f1b31c" stroke="#fff" stroke-linecap="round" stroke-linejoin="round" stroke-width="1.009" d="M60.73 29.0911H44.6178s-1.0053 14.0906 8.0395 18.1475v.0165l.0167-.0082.0167.0082v-.0165c9.0449-4.0569 8.0393-18.1475 8.0393-18.1475z"/><path fill="#5c9e31" d="M49.777 42.7141s0-5.0455 3.0273-5.0455 3.0274 5.0455 3.0274 5.0455-3.0274 3.0274-6.0547 0z"/><circle cx="52.804" cy="37.669" r="1.009" fill="#d22f27" stroke="#d22f27" stroke-miterlimit="10" stroke-width="1.009"/><ellipse cx="47.889" cy="33.506" fill="#f4aa41" rx="1.514" ry="2.649" transform="rotate(-25.087 47.89 33.506)"/><ellipse cx="48.898" cy="33.506" fill="#ffa7c0" rx="1.514" ry="2.649"/><ellipse cx="56.971" cy="33.506" fill="#a57939" rx="1.514" ry="2.649"/></g><g><path fill="none" stroke="#000" stroke-linecap="round" stroke-linejoin="round" stroke-width="2" d="M5 17h62v38H5z"/></g></svg>