<svg xmlns="http://www.w3.org/2000/svg" role="img" viewBox="2.53 16.65 63.57 34.95"><title>1F3CA-1F3FF-200D-2642-FE0F.svg</title><g fill="#6a462f"><path d="M41.7129 32.5877s-6.1963-4.29-7.6262-5.72a4.878 4.878 0 0 1-.7626-1.7159c-.2869-.7626 1.143-3.5271 2.5729-3.4308a16.1338 16.1338 0 0 1 4.4813 1.7149c1.3346.572 2.0972-.5719 2.4785-1.2383L35.42 18.67l-4.86 4.385-3.4318 3.4327-2.7649 6.8623 2.9542-.6663 7.3412-1.24z"/><circle cx="18.548" cy="28.583" r="2.86"/></g><path fill="#92d3f5" d="M64.8773 31.3485c-7.6261 0-10.4859 2.86-15.2523 2.86s-9.5327-2.86-15.2523-2.86-9.5327 2.86-15.2524 2.86-12.3925-2.86-15.2523-2.86v11.1532c0 1.3346 1.3346 7.9122 6.6729 7.9122H59.253c5.529 0 5.6243-4.5757 5.6243-9.0561z"/><g fill="none" stroke="#000" stroke-width="2"><path stroke-linecap="round" stroke-linejoin="round" d="M4.8215 31.3485c2.86 0 8.58 2.86 14.2991 2.86s9.5327-2.86 15.2523-2.86 10.486 2.86 15.2524 2.86 6.6729-2.86 14.299-2.86m-20.0186 7.6261a19.9668 19.9668 0 0 0 5.72.9533c2.5738 0 4.3851-.8579 6.6729-1.62m-44.0425.5714a26.505 26.505 0 0 0 6.8639 1.0486c5.72 0 9.5327-2.86 15.2523-2.86M24.84 45.6475c3.05-.8579 5.91-2.0018 9.5327-2.0018 4.1944 0 7.9121 1.5252 11.4392 2.3831"/><circle cx="18.548" cy="28.583" r="3" stroke-miterlimit="10"/><path stroke-linecap="round" stroke-linejoin="round" d="M24.84 33.255c.9532-2.86.9532-5.72 3.813-8.5794 1.9066-1.9066 4.7664-5.72 6.6729-5.72s6.6729 2.86 6.6729 2.86"/><path stroke-linecap="round" stroke-linejoin="round" d="M41.0456 32.3017s-4.957-3.7177-6.6729-4.7663c-1.8112-1.1439-1.9066-1.9066-1.9066-1.9066"/></g></svg>