<svg xmlns="http://www.w3.org/2000/svg" role="img" viewBox="11.68 10.80 49.14 49.14"><title>1F4DE.svg</title><path fill="#d0cfce" d="M13.6707 21.3098c1.4142 9.8995 26.8701 35.3553 36.7696 36.7696 0 0 5.6569 0 8.4853-5.6569l-9.1924-9.1924-3.5355 3.5355c-7.0711-1.4142-19.799-14.1421-21.2132-21.2132l3.5355-3.5355-9.1924-9.1924c-5.6569 2.8284-5.6569 8.4853-5.6569 8.4853z"/><path fill="#9b9b9a" d="M25 26l-9.0844-8.9594 2.0831-2.729c.364-.4769 1.06-.5357 1.4989-.1267l8.2523 7.6901-2.75 4.125zm29.893 29.907l-8.441-8.334 3.228-3.251 8.519 8.485-3.306 3.1z"/><g fill="none" stroke="#000" stroke-linecap="round" stroke-linejoin="round" stroke-width="2"><path d="M13.6707 21.3098c1.4142 9.8995 26.8701 35.3553 36.7696 36.7696 0 0 5.6569 0 8.4853-5.6569l-9.1924-9.1924-3.5355 3.5355c-7.0711-1.4142-19.799-14.1421-21.2132-21.2132l3.5355-3.5355-9.1924-9.1924c-5.6569 2.8284-5.6569 8.4853-5.6569 8.4853z"/><path d="M13.6707 21.3098c1.4142 9.8995 26.8701 35.3553 36.7696 36.7696 0 0 5.6569 0 8.4853-5.6569l-9.1924-9.1924-3.5355 3.5355c-7.0711-1.4142-19.799-14.1421-21.2132-21.2132l3.5355-3.5355-9.1924-9.1924c-5.6569 2.8284-5.6569 8.4853-5.6569 8.4853z"/></g></svg>