<svg xmlns="http://www.w3.org/2000/svg" role="img" viewBox="5.83 5.83 60.84 60.22"><title>E057.svg</title><path fill="#61B2E4" d="M29 36.5V32c-2.1667 0-6.5 2.7-6.5 13.5s8.6667 16.8333 13 18.5c.6667 0 3.6-.4 10-2s11.3333-7.3333 13-10c-5.1667 1.6667-17 3.6-23-2S28.6667 38.6667 29 36.5z"/><path fill="#92D3F5" fill-rule="evenodd" d="M63.3049 26.2072C59.2885 15.0096 48.5796 7 36 7 19.9837 7 7 19.9837 7 36s12.9837 29 29 29c.1937 0 .3869-.0019.5797-.0057C28.1007 62.4485 22 55.3538 22 47c0-10.4934 2.5-18.5 18.5-18.5 6.7548 0 13.7528 2.591 18.5315 6.7569l4.2734-9.0497z" clip-rule="evenodd"/><path fill="#92D3F5" fill-rule="evenodd" d="M64.9111 33.7122A29.107 29.107 0 0 0 64.7264 32C62.7779 17.8766 50.6591 7 36 7 21.2487 7 9.0698 18.0138 7.23807 32.2668c1.28508-1.105 2.22933-2.4875 3.14053-3.8215 1.1978-1.7539 2.3385-3.424 4.1214-4.2697 8.3824-3.9763 18.6973-1.9904 23.4544 2.7666 3.4941 3.4942 4.4141 8.908 3.0805 14.8581.9264 1.2048 2.4059 2.4423 4.4651 2.6997 4 .5 14.5-2 18-8 .5321-.9122 1.0004-1.8508 1.4111-2.7878z" clip-rule="evenodd"/><path fill="#61B2E4" fill-rule="evenodd" d="M41.5654 38.2603C44.9644 34.226 47 29.091 47 23.5c0-6.2746-2.5638-11.9748-6.7413-16.18951C52.9522 9.17851 62.9702 19.2705 64.7264 32c.0781.5657.1398 1.1366.1847 1.7121-.4107.9371-.879 1.8757-1.4111 2.7879-3.5 6-14 8.5-18 8-2.0592-.2574-3.5387-1.4949-4.4651-2.6997.2703-1.2059.448-2.3897.5305-3.54z" clip-rule="evenodd"/><g fill="none" stroke="#000" stroke-linecap="round" stroke-linejoin="round" stroke-width="2"><path d="M28 36c0 12 12 17.5 20 17.5 6.4 0 10.6667-1.6667 12-2.5-3 4.5-12 13.4-24 13-4.5-1.6667-13.5-7.6-13.5-18 0-13 9.5-18 13.5-18"/><path d="M12 21.5C15 16.3333 23 8 36 8c16.5076 0 29 11 28.5 22.5S55 45 48.5 45c-5.2 0-7.3169-3-7.7253-4.5 1.0227-1.4316 1.7253-3.1126 1.7253-5 0-6.5-8-14-18.5-14-7.5 0-16 2-16 14m0 .5c0 16 13 26 21 27"/></g></svg>