<svg xmlns="http://www.w3.org/2000/svg" role="img" viewBox="8.86 7.86 59.15 57.15"><title>26F7.svg</title><g fill="#FCEA2B"><circle cx="33.969" cy="13.094" r="3"/><path d="M45 25.6875L51 35l-2 5-12 5 .1738 14H33.75l-3.2812-16.3867 5.7031-4.9131c.9521-.7666.9082-.8877.9082-1.4189 0-.7198-.5176-2.5313-.5176-2.5313l-3.1875-8.125L34.5 20.5l2.9375-.9375 2.875-.0625L45 25.6875z"/><path d="M40 44l2 10h3v-9l2-4"/></g><g fill="none" stroke="#000" stroke-miterlimit="10" stroke-width="2"><circle cx="33.969" cy="13.094" r="3"/><path stroke-linecap="round" stroke-linejoin="round" d="M44.54 24.6738l5.3995 8.6309c.583.9326.7265 2.5312.3173 3.5527l-.5136 1.2852c-.4092 1.0215-1.5743 2.2031-2.5889 2.6269l-8.3086 3.461c-1.0146.4238-1.835 1.6699-1.8213 2.7695l.125 10c.0137 1.0996-.7461 2-1.6875 2s-1.8887-.8828-2.1045-1.9609l-2.4961-12.4649c-.2158-1.0781.3594-2.456 1.2783-3.0605L36.5 38.6445"/><path stroke-linecap="round" stroke-linejoin="round" d="M44.8613 25.1685l-2.5361-3.9136C41.0459 19.4648 38.4248 18.6748 36.5 19.5c-1.9248.8252-2.9727 3.2212-2.3291 5.3247l.8604 2.2275"/><path stroke-linecap="round" stroke-linejoin="round" d="M38.167 23l.6719 3.2905c.2207 1.0777-.292 2.5342-1.1387 3.2368l-2.7803 2.3067M40 44l1.6074 8.0391C41.8232 53.1172 42.6748 54 43.5 54c.8252 0 1.5-.9004 1.5-2v-5c0-1.0996.4023-2.8047.8945-3.7891L47 41M11 61l2 2h48m5-5H41m-12 0h-9l-2-2m15-25l23 18m-1-3l-2 3"/><circle cx="33.969" cy="13.094" r="3"/><path stroke-linecap="round" stroke-linejoin="round" d="M46.3174 27.417l3.6318 5.8809c.5781.9365.7168 2.538.3076 3.5595l-.5136 1.2852c-.4092 1.0215-1.5743 2.2031-2.5889 2.6269l-8.3086 3.461c-1.0146.4238-1.835 1.6699-1.8213 2.7695l.125 10c.0137 1.0996-.7461 2-1.6875 2s-1.8887-.8828-2.1045-1.9609l-2.4961-12.4649c-.2158-1.0781.3594-2.456 1.2783-3.0605L36.5 38.6445"/><path stroke-linecap="round" stroke-linejoin="round" d="M48.1045 30.1748l-5.7793-8.9199C41.0459 19.4648 38.4248 18.6748 36.5 19.5c-1.9248.8252-2.9727 3.2212-2.3291 5.3247l.8604 2.2275"/><path stroke-linecap="round" stroke-linejoin="round" d="M38.167 23l.6719 3.2905c.2207 1.0777-.292 2.5342-1.1387 3.2368l-2.7803 2.3067M40 44l1.6074 8.0391C41.8232 53.1172 42.6748 54 43.5 54c.8252 0 1.5-.9004 1.5-2v-5c0-1.0996.4023-2.8047.8945-3.7891L47 41M11 61l2 2h48m5-5H41m-12 0h-9l-2-2m15-25l23 18m-1-3l-2 3"/></g></svg>