<svg xmlns="http://www.w3.org/2000/svg" role="img" viewBox="11.95 7.19 50.36 54.86"><title>1F9D9-1F3FD.svg</title><g id="color"><path fill="#92D3F5" d="M58,25.7l-11.9-4.8c-0.2-4.3-1.9-11.3-10.6-11.6c-12,0-14.6,11-14.6,11l-1,2l-0.6,1.2L14,25.7"/><path fill="#61B2E4" d="M19.0858,25.7L16.8,31.4c-0.3115,0.5831-0.3832,1.2648-0.2,1.9L19.5,44 c0.0564,0.1933,0.2588,0.3043,0.4521,0.2479C20.0717,44.213,20.1651,44.1195,20.2,44l0.2-7.7l0.6-0.6l1-1.3l8-8.8"/><path fill="#92D3F5" d="M17,60.949v-4c0-4.9941,5.0078-9,10-9c6,5,12,5,18,0c4.9941,0,10,4.0059,10,9v4"/><path fill="#61B2E4" d="M45.6624 60.949v-4.0122c-.1404-2.631-1.5943-5.2619-3.6479-6.9125.9952-.5542 1.9904-1.246 2.9855-2.0753 4.9941 0 10 4.0059 10 9v4M53.3683 40.539c-2.5437-1.0747-3.7346-4.008-2.6599-6.5517s4.008-3.7346 6.5517-2.6599 3.7346 4.008 2.6599 6.5517c-.4479 1.0601-1.2477 1.9332-2.2646 2.4721"/><path fill="#92D3F5" d="M55.3145,32.4717c-0.8786,0.137-1.6948,0.5381-2.34,1.15c1.5407-0.3467,3.1393-0.3467,4.68,0 C57.0093,33.0098,56.1931,32.6087,55.3145,32.4717z"/><path fill="#A57939" d="M57.314 61L57.314 40.539 53.314 40.539 53.314 61"/></g><g id="skin"><path fill="#c19a65" d="M25.9065,25.7998C25.3022,27.3152,25,28.9565,25,30.9c0,8,5,14,11,14s11-6,11-14 c0-1.9435-0.3022-3.5848-0.9065-5.1002"/></g><g id="line"><path fill="none" stroke="#000" stroke-linecap="round" stroke-linejoin="round" stroke-width="2" d="M19.0858 25.8L16.9 31.4c-.3115.5831-.3832 1.2648-.2 1.9L19.5 44c.0564.1933.2588.3043.4521.2479C20.0717 44.213 20.1651 44.1195 20.2 44l.2-7.7c.0103-.473.0775-.943.2-1.4M26.9 17.5c-.4245 1.0967-.7263 2.2369-.9 3.4l0 0-12 4.9h44l-11.9-4.9c-.2-4.3-2.2-11.3-10.9-11.6C22.2 9.3 20 22.8 20 22.8M53.3683 40.59c-2.5437-1.0747-3.7346-4.008-2.6599-6.5517s4.008-3.7346 6.5517-2.6599 3.7346 4.008 2.6599 6.5517c-.4479 1.0601-1.2477 1.9332-2.2646 2.4721M57.314 60.051L57.314 40.605 53.314 40.605 53.314 60.051"/><path fill="none" stroke="#000" stroke-linecap="round" stroke-linejoin="round" stroke-width="2" d="M17,60v-3 c0-4.9941,5.0078-9,10-9c6,5,12,5,18,0c3.2121,0,6.4292,1.6572,8.316,4.1687"/><path d="M42 29.9c0 1.1-.9 2-2 2s-2-.9-2-2 .9-2 2-2S42 28.8 42 29.9M34 29.9c0 1.1-.9 2-2 2-1.1 0-2-.9-2-2s.9-2 2-2C33.1 27.9 34 28.8 34 29.9"/><path fill="none" stroke="#000" stroke-linecap="round" stroke-linejoin="round" stroke-width="2" d="M25.9065 25.7998C25.3022 27.3152 25 28.9565 25 30.9c0 8 5 14 11 14s11-6 11-14c0-1.9435-.3022-3.5848-.9065-5.1002M33 38.1c1.9 1 4.1 1 6 0"/></g></svg>