<svg xmlns="http://www.w3.org/2000/svg" role="img" viewBox="0.14 0.14 70.59 70.59"><title>1F3AF.svg</title><circle cx="39.488" cy="39.455" r="29.85" fill="#EA5A47"/><circle cx="39.488" cy="39.455" r="23.85" fill="#FFF"/><circle cx="39.488" cy="39.455" r="15.85" fill="#EA5A47"/><circle cx="39.488" cy="39.455" r="10.9" fill="#FFF"/><circle cx="39.488" cy="39.455" r="5.9" fill="#EA5A47"/><g fill="none" stroke="#000" stroke-linecap="round" stroke-linejoin="round" stroke-miterlimit="10" stroke-width="2"><path d="M11.466 11.499H2.513m8.953 0V2.546m4.041 13.001H6.554m8.955-.002V6.593m23.977 32.871L7.478 7.519m14.4909 8.8277c4.8593-3.674 10.9579-5.8915 17.5193-5.8915 16.0163 0 29 12.9837 29 29s-12.9837 29-29 29-29-12.9837-29-29c0-6.5467 2.1693-12.5867 5.8283-17.4404"/><path d="M26.2567 20.6399c3.7421-2.6364 8.306-4.1847 13.2315-4.1847 12.7025 0 23 10.2975 23 23s-10.2975 23-23 23-23-10.2975-23-23c0-4.8704 1.5138-9.3872 4.0966-13.1056"/><path d="M32.04 26.4321c2.1945-1.2578 4.7374-1.9769 7.4482-1.9769 8.2843 0 15 6.7157 15 15s-6.7157 15-15 15-15-6.7157-15-15c0-2.6162.7305-5.1268 1.9079-7.268"/><path d="M40.0779 34.4744c2.4674.3067 4.3769 2.4111 4.3769 4.9616 0 2.7614-2.2386 5-5 5-2.4824 0-4.5422-1.809-4.9332-4.1806"/><path d="M35.7775 30.1663c1.1474-.4587 2.3996-.7111 3.7107-.7111 5.5228 0 10 4.4772 10 10s-4.4772 10-10 10-10-4.4771-10-10c0-1.2548.252-2.4731.6858-3.5895"/></g></svg>