<svg xmlns="http://www.w3.org/2000/svg" role="img" viewBox="6.62 4.74 55.27 58.89"><title>1F9D7-200D-2640-FE0F.svg</title><g fill="#fcea2b"><path d="M49.5811 21.6466l4.7663 2.2879-2.6692 12.5832-1.0486 1.43-2.0018 11.3438 2.86 11.4393-2.86.9532-4.7664-12.3925v-9.5327l-8.5794-4.7664-7.1839 7.2659-2.0447-1.7045 8.2753-10.3277L44.92 33.4987s2.4737-8.53 2.7549-8.9922a96.0264 96.0264 0 0 1-11.249-2.7645c-1.43-.4767-2.86-1.5253-1.9065-3.4318"/><circle cx="53.39" cy="16.022" r="2.86"/></g><path fill="#d0cfce" stroke="#d0cfce" stroke-linejoin="round" stroke-width="2" d="M42.0227 8.3009v.9532L40.54 15.16l-5.5639 1.11-2.6968 2.2116 1.817 4.2544-.653 3.6768-2.86 1.9065-1.9066 1.9066-5.182 10.4965.817 2.1191.6473 1.2173.387.8894-2.52 4.4842-3.87 5.793-4.5786 5.5052-5.5861.8541L8.7812 6.952l28.6915.0333z"/><path fill="#92d3f5" d="M52.532 33.2766l2.9551.9532-1.2392 3.6225-2.9552-.9533"/><g fill="none" stroke="#000" stroke-width="2"><path stroke-linecap="round" stroke-linejoin="round" d="M45.9677 30.7714l6.4689 2.3145m.0954.1907l2.9551.9533-1.2392 3.6224-2.9552-.9533M40.6908 14.4533l1.2164-5.0428m-22.835 45.6007l6.6729-10.486-2.0858-4.2821 5.8874-10.9588L34.62 25.781l-.31-2.661"/><circle cx="53.39" cy="16.022" r="3" stroke-miterlimit="10"/><path stroke-linecap="round" stroke-linejoin="round" d="M44.4092 33.1669l-8.2735-2.3689a3.05 3.05 0 0 0-3.05.9533l-6.1452 7.6967a2.0726 2.0726 0 0 0-.3041 2.5348c.44.51 1.7187.1649 2.4814-.5977l4.8254-5.0581a2.59 2.59 0 0 1 3.05-.3813l5.243 2.9551a9.2638 9.2638 0 0 0 3.5271.9533h.9532a5.2968 5.2968 0 0 0 3.2412-1.43l.4766-.4766a7.3208 7.3208 0 0 0 1.7159-3.1458c.1906-.9533.3813-1.7159.3813-1.7159"/><path stroke-linecap="round" stroke-linejoin="round" d="M50.6255 37.9476l-1.6206 9.4374a12.1659 12.1659 0 0 0 .0951 3.7177l1.9066 7.7215a1.8053 1.8053 0 0 1-.9533 2.2879 1.7817 1.7817 0 0 1-2.0972-1.3346l-3.4318-8.8654a12.201 12.201 0 0 1-.6673-3.7178v-6.6729m8.5797-7.4355l1.8112-5.91c.5719-2.0019-.1907-4.099-1.8112-4.5757a54.1713 54.1713 0 0 0-6.6729-1.43h-.0954c-2.0972-.286-5.2429-.8579-7.1495-1.3346-1.8112-.4766-3.3364-.9532-3.3364-.9532m22.2232-2.231s.6578-.0232.8715.389c.252.4842.0079 1.7942.2465 2.5066a3.3629 3.3629 0 0 0 1.2906 1.7468"/></g></svg>