<svg xmlns="http://www.w3.org/2000/svg" role="img" viewBox="13.96 8.84 44.08 54.08"><title>1F6E1.svg</title><path fill="#D0CFCE" d="M35.9899 10.9064c-11.0457 0-20 4.4773-20 10l.0261.2749c2.9513 30.53 18.6744 39.0674 19.8983 39.6877l.0756.0374s17-8 20-40c.5156-5.4986-8.9543-10-20-10zm.0021 43.9776l-.0604-.0299c-.978-.4957-13.5423-7.318-15.9006-31.7145l-.021-.2195c0-4.4133 7.1553-7.991 15.9819-7.991 8.8265 0 16.3938 3.5969 15.9819 7.991C49.5766 48.4912 35.992 54.884 35.992 54.884z"/><path fill="#EA5A47" d="M35 17.9064l3 4-3 4 3 4-3 4 3 4-3 4 3 4-3 4 1 5.2597s-15-11-16-32c0 0 0-8 16-8l-1 2.7403z"/><path fill="#D22F27" d="M36 15.1661l-1 2.7403 3 4-3 4 3 4-3 4 3 4-3 4 3 4-3 4 1.002 4.9774S49.8461 45.9255 51.9839 22.92c0 0-.8334-6.9702-15.9839-7.7539z"/><g fill="none" stroke="#000" stroke-linecap="round" stroke-linejoin="round" stroke-miterlimit="10" stroke-width="2"><path d="M35.9245 60.8691c-1.2239-.6204-16.947-9.1579-19.8983-39.6878L16 20.9064c0-5.5228 8.9543-10 20-10s20.5155 4.5013 20 10c-3 32-20 40-20 40l-.0755-.0373z"/><path d="M35.9417 54.854c-.978-.4958-13.5423-7.318-15.9006-31.7144l-.021-.2196c0-4.4133 7.1553-7.991 15.9819-7.991s16.3938 3.5969 15.9819 7.991C49.5866 48.4911 36.002 54.8838 36.002 54.8838l-.0603-.0298z"/></g></svg>