<svg xmlns="http://www.w3.org/2000/svg" role="img" viewBox="5.19 9.69 61.49 48.37"><title>260E.svg</title><path fill="#fff" d="M30.815 21.046h10.188v3.814H30.815z"/><path fill="#ea5a47" d="M62.2981 16.4519c-8-6-43.5383-5.4488-51.5383.5512 0 0-3.4343 2.1604-2.2396 8.6384H20.815l.483-4.1896c6-4 24-4 30 0v5h13c2-6-2-10-2-10z"/><path fill="#d22f27" d="M51.718 21.146l11.853-.073.179 4.437-11.823.208-.209-4.572zm-43.1315-.0021l11.7607-.0858-.2538 4.6647-11.0946-.0658c-.2817-.0107-.5094-.2332-.5266-.5146l-.2227-3.6378c-.0119-.1947.142-.3594.337-.3608z"/><path fill="#ea5a47" d="M24.875 29.3125l-2.2878 1.4359a14.18668 14.18668 0 0 0-5.3529 6.1012l-.1876.4091c-1.2265 2.6743-1.2088 5.4081-1.2757 8.3495l-.0465 6.3967-.1396 3.2332 40.5667-.093.0465-10.2115c-.036-1.7783.0817-3.7978-.6978-5.3965l-1.4422-3.6985c-.5138-1.0538-2.5803-3.3784-3.5589-4.0241l-4.4159-2.1366c-.503-.2167-.8448-.694-.8879-1.24l-.0695-.8801-19.4386 1.0045-.8125.75z"/><path fill="#d22f27" d="M26.75 25L26 29v1h20.125l-.844-5.469-2.093-.281-1.5 2.188-11.625.062-1.25-2.062-2.157.156.094.406z"/><path fill="#d22f27" d="M39.3438 29.8438s12.691 3.649 12.441 25.149c5.6116.7635 4.4696-.0255 4.6954-2.405.1014-1.0688 0-2.2904-.1909-4.3137l-.0763-5.917c-.2465-1.2803-1.4581-6.0242-2.3408-6.9837l-1.9772-2.4191c-1.7544-1.9069-3.8845-2.768-6.8051-3.263l-5.7461.1524z"/><g><circle cx="30" cy="35" r="2"/><circle cx="30" cy="41" r="2"/><circle cx="30" cy="47" r="2"/><circle cx="36" cy="35" r="2"/><circle cx="36" cy="41" r="2"/><circle cx="36" cy="47" r="2"/><circle cx="42" cy="35" r="2"/><circle cx="42" cy="41" r="2"/><circle cx="42" cy="47" r="2"/><path fill="none" stroke="#000" stroke-linecap="round" stroke-linejoin="round" stroke-width="2" d="M26 24v5s-3.5.5-7 4-4 9.9999-4 9.9999v13.0003L18 56h39V43.1252S56.5 36.5 53 33s-7-4-7-4v-5h-3l-1.0003 3H29.8133L29 24h-3z"/><path fill="none" stroke="#000" stroke-linecap="round" stroke-linejoin="round" stroke-width="2" d="M61.9839 16.4519c-8-6-44-6-52 0 0 0-4 4-2 10h13v-5c6-4 24-4 30 0v5h13c2-6-2-10-2-10z"/></g></svg>