<svg xmlns="http://www.w3.org/2000/svg" role="img" viewBox="11.04 11.04 49.79 49.79"><title>1F626.svg</title><path fill="#FCEA2B" d="M36 13c-12.6823 0-23 10.3177-23 23 0 12.6822 10.3177 23 23 23 12.6822 0 23-10.3178 23-23 0-12.6823-10.3178-23-23-23z"/><circle cx="36" cy="36" r="23" fill="none" stroke="#000" stroke-miterlimit="10" stroke-width="2"/><path stroke="#000" stroke-miterlimit="10" stroke-width="2" d="M42.87 45.7c0-2.592-3.834-4.694-6.869-4.694-3.035 0-6.869 2.101-6.869 4.694s3.659.9248 6.694.9248 7.044 1.667 7.044-.9248z"/><path d="M30 31c0 1.657-1.345 3-3 3s-3-1.343-3-3c0-1.655 1.345-3 3-3s3 1.345 3 3m18 0c0 1.657-1.345 3-3 3s-3-1.343-3-3c0-1.655 1.345-3 3-3s3 1.345 3 3"/></svg>