<svg xmlns="http://www.w3.org/2000/svg" role="img" viewBox="9.61 9.61 52.65 52.65"><title>1F9F0.svg</title><path fill="#d22f27" d="M11.674 11.633h48.652v24.366H11.674z"/><path fill="#ea5a47" d="M11.674 35.999h48.652v24.285H11.674z"/><path fill="#a57939" d="M44.407 29.061l-.039 6.938h-2.559l.039-6.938h2.559z"/><path fill="#9b9b9a" d="M38.5888 22.0886V29.11h9.0071v-4.0427s6.0283 0 8.0141 1.9858a10.6528 10.6528 0 0 0-8.0141-5.0354 39.6255 39.6255 0 0 0-9.0071.0709z"/><path fill="#d0cfce" d="M36.2832 22.7269v5.6737a2.2354 2.2354 0 0 1-2.6241 0v-5.6737a1.8842 1.8842 0 0 1 2.6241 0zm-8.4177 1.1772a7.3568 7.3568 0 0 1-.0681.9049 4.9929 4.9929 0 0 1-3.1527 3.98l-.5838.2044v7.0058h-3.7267v-7.0061l-.4962-.1654a5.05 5.05 0 0 1-3.23-3.98v-.0387a4.6961 4.6961 0 0 1 1.2454-4.184 6.12 6.12 0 0 1 1.4888-1.0411.4248.4248 0 0 1 .5838.3794v3.1429l.8271 1.2455h2.9l.8271-1.2455v-3.1429a.4125.4125 0 0 1 .5838-.3794 6.3726 6.3726 0 0 1 1.4887 1.0411 4.4486 4.4486 0 0 1 1.3128 3.2791zM32.423 40.423h7.154v3.613h-7.154z"/><g><path fill="none" stroke="#000" stroke-linecap="round" stroke-linejoin="round" stroke-width="2" d="M11.674 11.633h48.652v24.366H11.674z"/><path fill="none" stroke="#000" stroke-linecap="round" stroke-linejoin="round" stroke-width="2.001" d="M20.3342 35.9989V28.74l-.4963-.1654a5.0391 5.0391 0 0 1-3.23-3.9311v-.0485a4.5741 4.5741 0 0 1 1.2451-4.135 5.4741 5.4741 0 0 1 1.4887-1.0022.429.429 0 0 1 .5838.3794v3.104l.8271 1.2455h2.9l.8271-1.2455v-3.104a.416.416 0 0 1 .5838-.3794 5.6789 5.6789 0 0 1 1.4884 1.0022 4.4289 4.4289 0 0 1 1.3136 3.25 7.0368 7.0368 0 0 1-.0682.8855 4.9093 4.9093 0 0 1-3.1526 3.9407l-.5838.2044v7.2588"/><path fill="none" stroke="#000" stroke-linecap="round" stroke-linejoin="round" stroke-width="2" d="M44.368 35.999h15.958v24.287H11.674V35.999h8.66"/><path fill="none" stroke="#000" stroke-miterlimit="10" stroke-width="2" d="M41.809 35.999H24.061m8.362 4.424h7.154v3.613h-7.154z"/><g fill="none" stroke="#000" stroke-linecap="round" stroke-linejoin="round" stroke-width="2.001"><path d="M44.368 35.999l.039-6.938h-2.559l-.039 6.938"/><path d="M38.5888 22.04v7.0212h9.0071v-4.0425s6.0283 0 8.0141 1.9858a10.6531 10.6531 0 0 0-8.0141-5.0355 39.6283 39.6283 0 0 0-9.0071.071zm-2.3056.6383v5.6737h0a2.2357 2.2357 0 0 1-2.6241 0h0v-5.6737h0a1.884 1.884 0 0 1 2.6241 0z"/></g></g></svg>