<svg xmlns="http://www.w3.org/2000/svg" role="img" viewBox="9.47 13.97 53.43 43.18"><title>E06D.svg</title><path fill="#fff" d="M61.22 21.64l-23.31-6.602a1.007 1.007 0 0 0-.5537.0019l-22.59 6.627a.9484.9484 0 0 0-.1365.0719 5.383 5.383 0 0 0-1.834 9.543 5.364 5.364 0 0 0 .0663 8.697 5.378 5.378 0 0 0 1.486 9.502l23.01 6.713a1.003 1.003 0 0 0 .5547.002l23.31-6.651a1.001 1.001 0 0 0 .7255-.9619v-25.98a1 1 0 0 0-.7275-.9619z"/><path fill="#b399c8" d="M37.64 29.23l-22.6-6.63 22.6-6.62 23.3 6.6z"/><path fill="#b399c8" d="M15.08 24.73l21.99 6.446a2 2 0 0 0 1.111.0039l23.29-6.765a.613.613 0 0 0 .442-.5794l.0189-1.251-24.3 6.672-22.56-6.612a4.4 4.4 0 0 0-.4554 8.481l23.01 6.713 24.21-6.91.04-1.242a.6255.6255 0 0 0-.7968-.6215l-23.45 6.692-22.42-6.54a2.4 2.4 0 0 1-.1393-4.487"/><path fill="#1e50a0" d="M15.08 33.41l21.99 6.446a1.999 1.999 0 0 0 1.111.004l23.29-6.765a.6131.6131 0 0 0 .442-.5794l.0189-1.251-24.3 6.672-22.56-6.612a4.4 4.4 0 0 0-.4554 8.481l23.01 6.713 24.21-6.91.04-1.242a.6254.6254 0 0 0-.7968-.6214l-23.45 6.692-22.42-6.54a2.4 2.4 0 0 1-.1393-4.487"/><path fill="#5c9e31" d="M15.08 42.15l21.99 6.446a2 2 0 0 0 1.111.0039l23.29-6.765a.613.613 0 0 0 .442-.5794l.0189-1.251-24.3 6.672-22.56-6.612a4.4 4.4 0 0 0-.4554 8.481l23.01 6.713 24.21-6.91.04-1.242a.6254.6254 0 0 0-.7968-.6214l-23.45 6.692-22.42-6.54a2.4 2.4 0 0 1-.1393-4.487"/><path fill="#8967aa" d="M44.32 17.79l-5.73-1.62L16 22.8l5.81 1.7z"/><path stroke="#000" stroke-width="2" d="M37.63 55.23l23.31-6.652"/><path stroke="#000" stroke-linecap="round" stroke-linejoin="round" stroke-width="2" d="M37.64 16v0l-22.6 6.63z"/><path fill="#a57939" d="M31 18.05l-8.17 2.627 23.01 6.713 7.111-2.287-7.102 2.289.5 25.17 7.787-2.033-.1172-25.77-.0098.0039h-.002z"/><g fill="none" stroke="#000" stroke-linecap="round" stroke-linejoin="round" stroke-width="2"><path d="M44.61 27.41l-6.969 1.854-22.6-6.63 22.6-6.63 23.3 6.6-6.921 2.159"/><path d="M54.59 33l6.356-1.814M15.08 22.64c-4.388.9407-4.717 7.076-.4554 8.481l23.01 6.713 7.997-2.282"/><path d="M58.22 40.58l-.8905.224 3.608-.9539"/><path stroke-linecap="butt" d="M54.07 41.68l3.255-.8742M15.08 31.29c-4.388.9407-4.717 7.076-.4554 8.481l23.01 6.713 8.176-2.357"/><path d="M15.08 40.04a4.4 4.4 0 0 0-.4554 8.481l23.01 6.713 23.31-6.652"/><path stroke-width="1.5" d="M54.01 24.76l.129 25.77M45.81 27.42l.00043 25.25"/><path stroke-width="1.4" d="M54.32 24.96l-23.86-7.209z"/><path stroke-width="1.5" d="M45.85 27.39l-23.01-6.713z"/></g></svg>