<svg xmlns="http://www.w3.org/2000/svg" role="img" viewBox="4.02 13.02 63.83 49.08"><title>1F4E3.svg</title><path fill="#fff" d="M19.64 44.13l17.5701 1.1537c2.2294.1147 11.5148 2.6342 13.5707 3.5041L59.64 53.022v-35.44l-11.4626 5.4053c-4.2491 1.6889-11.7209 2.7518-16.2754 3.1557l-12.262.581V44.13z"/><path fill="#d0cfce" d="M19.64 44.0667v-3.1828s25.39-.507 40 8.546l-.171 3.5013c-15.21-10.43-39.829-8.8645-39.829-8.8645"/><path fill="#d22f27" d="M12.85 25.98h6.787v18.63H12.85c-1.1046 0-2-.8954-2-2V27.98c0-1.1046.8954-2 2-2z"/><rect width="6" height="40.01" x="59.64" y="15.29" fill="#ea5a47" rx="2" ry="2"/><path fill="#9b9b9a" d="M19.636 44.92l.6284 4.031h-1.368l1.681 8.9161h.75l.38 2.016-5.725.0758-2.835-15.04"/><path fill="#ea5a47" d="M10.85 28.79H8.365c-1.1046 0-2 .8954-2 2v8.922c0 1.1046.8954 2 2 2h2.485"/><g fill="none" stroke="#000" stroke-linecap="round" stroke-linejoin="round" stroke-width="2"><path d="M19.64 25.98s24.79 1.289 40-9.142m-40 28.042s24.79-1.289 40 9.142M12.85 25.98h6.787v18.63H12.85c-1.1046 0-2-.8954-2-2V27.98c0-1.1046.8954-2 2-2z"/><rect width="6" height="40.01" x="59.64" y="15.29" rx="2" ry="2"/><path d="M19.636 44.92l.8766 4.648h-1.5l1.564 8.299h.4996l.38 2.016-5.475.0758-2.835-15.04M19.64 25.98s24.79 1.289 40-9.142m-40 28.042s24.79-1.289 40 9.142M10.85 28.79H8.365c-1.1046 0-2 .8954-2 2v8.922c0 1.1046.8954 2 2 2h2.485M13.64 41h3"/></g></svg>