<svg xmlns="http://www.w3.org/2000/svg" role="img" viewBox="1.68 13.68 68.51 50.76"><title>1F32C.svg</title><path fill="#d0cfce" d="M14.5968 29.9075c-.0396.4525-.4062.8186-.8602.8673C8.233 31.3643 4 36.7833 4 43.3794 4 50.3693 8.8475 56.751 14.8272 56.751h41.2775c1.3997-.037 2.5589-.1579 3.7218-.551C63.0257 54.6289 68 49.4069 68 42.6607c0-7.079-4.8912-12.8736-11.0809-13.3441-.4735-.036-.8576-.3674-.9479-.8313-1.3827-7.1005-7.7614-12.4363-15.3028-12.4363-4.9012 0-9.2671 2.2189-12.1023 5.7487-.277.3449-.742.503-1.151.3315-1.091-.4575-2.2432-.6789-3.5324-.6789-4.8718 0-8.8707 3.7179-9.2859 8.4572z"/><g fill="none" stroke="#000" stroke-linecap="round" stroke-linejoin="round"><path stroke-width="2" d="M59.4442 55.4591C64.3882 53.8362 68 48.7016 68 42.6183c0-7.079-4.8912-12.8736-11.0809-13.3441-.4735-.036-.8576-.3674-.9479-.8313-1.3827-7.1005-7.7614-12.4363-15.3028-12.4363-4.9012 0-9.2671 2.2189-12.1023 5.7487-.277.3449-.742.503-1.151.3315-1.091-.4575-2.2432-.6789-3.5324-.6789-4.8718 0-8.8707 3.718-9.2859 8.4573-.0396.4525-.4062.8186-.8602.8673C8.233 31.322 4 36.741 4 43.3371c0 6.9899 4.8475 12.6562 10.8272 12.6562h36.2187"/><path stroke-width="2" d="M31.686 32.062a6.30033 6.30033 0 0 1-4.312 1.438 6.29989 6.29989 0 0 1-4.313-1.437m25.878-.001a6.30033 6.30033 0 0 1-4.312 1.438 6.29989 6.29989 0 0 1-4.313-1.437m-.7026 13.2703c1.6569 0 3-1.1379 3-2.5417 0-1.0528-.7555-1.9561-1.8323-2.3419-.3589-.1286-.7535-.1997-1.1677-.1997m-.4271 10.1562c.9401 0 2.0159-.5708 2.3309-1.472.5041-1.4419-.3552-3.0541-1.9192-3.6009m22.7676.2256c2.1545-3.308 2.0114-7.9339-1.9915-9.7984-1.7893-.8334-3.8681-.6097-4.9454 1.0444-.5386.827-.3048 1.9341.5222 2.4727m-9.859 7.273c4.7602 2.7667 12.0053 5.3518 16.2737-.9917"/><path stroke-width="1.907" d="M55.7258 59.2062c-.2065 1.8432-1.8674 3.2117-3.7107 3.0052-1.5499-.1736-2.7348-1.376-2.9498-2.8502m-2.744-12.8106s10.2039 5.4508 9.4045 12.6556"/></g></svg>