<svg xmlns="http://www.w3.org/2000/svg" role="img" viewBox="11.04 11.04 49.79 49.79"><title>1F62C.svg</title><path fill="#FCEA2B" d="M36 13c-12.7025 0-23 10.2975-23 23s10.2975 23 23 23 23-10.2975 23-23c-.0143-12.6966-10.3034-22.9857-23-23z"/><path fill="#FFF" d="M44.5 49.2708h-17c-2.2064-.0065-3.9935-1.7936-4-4 .0065-2.2064 1.7936-3.9935 4-4h17c2.2064.0065 3.9935 1.7936 4 4-.0065 2.2064-1.7936 3.9935-4 4z"/><g><path fill="none" stroke="#000" stroke-linecap="round" stroke-linejoin="round" stroke-width="2" d="M28 41.771v7m5-7v7m5-7v7m5-7v7"/><circle cx="36" cy="36" r="23" fill="none" stroke="#000" stroke-miterlimit="10" stroke-width="2"/><path fill="none" stroke="#000" stroke-miterlimit="2" stroke-width="2" d="M44.5 49.2708h-17c-2.2064-.0065-3.9935-1.7936-4-4h0c.0065-2.2064 1.7936-3.9935 4-4h17c2.2064.0065 3.9935 1.7936 4 4h0c-.0065 2.2064-1.7936 3.9935-4 4z"/><path d="M30 31c0 1.6568-1.3448 3-3 3-1.6553 0-3-1.3433-3-3 0-1.6552 1.3447-3 3-3 1.6552 0 3 1.3448 3 3m18 0c0 1.6568-1.3447 3-3 3s-3-1.3433-3-3c0-1.6552 1.3447-3 3-3s3 1.3448 3 3"/></g></svg>