<svg xmlns="http://www.w3.org/2000/svg" role="img" viewBox="10.00 10.00 51.87 51.87"><title>1F197.svg</title><path fill="#d0cfce" stroke-miterlimit="10" stroke-width="2" d="M59.0349 60H12.9651c-.5308 0-.9651-.4343-.9651-.9651V12.9651c0-.5308.4343-.9651.9651-.9651h46.0698c.5308 0 .9651.4343.9651.9651v46.0698c0 .5308-.4343.9651-.9651.9651z"/><g fill="none" stroke="#000" stroke-miterlimit="10"><path stroke-width="2" d="M59.0349 60H12.9651c-.5308 0-.9651-.4343-.9651-.9651V12.9651c0-.5308.4343-.9651.9651-.9651h46.0698c.5308 0 .9651.4343.9651.9651v46.0698c0 .5308-.4343.9651-.9651.9651z"/><path stroke-linecap="round" stroke-linejoin="round" stroke-width="3" d="M39.32 29.85v12.3m0-4.32l7.03-7.98m-3.64 4.14l4.21 8.16m-17.45 0v0c-2.426 0-4.393-1.967-4.393-4.393v-3.515c0-2.426 1.967-4.393 4.393-4.393v0c2.426 0 4.393 1.967 4.393 4.393v3.515c0 2.426-1.967 4.393-4.393 4.393z"/></g></svg>