<svg xmlns="http://www.w3.org/2000/svg" role="img" viewBox="11.04 11.04 49.79 49.79"><title>1F620.svg</title><path fill="#FCEA2B" d="M36 13c-12.6823 0-23 10.3177-23 23 0 12.6822 10.3177 23 23 23 12.6822 0 23-10.3178 23-23 0-12.6823-10.3178-23-23-23z"/><circle cx="36" cy="36" r="23" fill="none" stroke="#000" stroke-miterlimit="10" stroke-width="2"/><path d="M30 32.9252c0 1.6567-1.3448 3-3 3-1.6553 0-3-1.3433-3-3 0-1.6553 1.3447-3 3-3 1.6552 0 3 1.3448 3 3m18 0c0 1.6567-1.3447 3-3 3s-3-1.3433-3-3c0-1.6553 1.3447-3 3-3s3 1.3448 3 3"/><path fill="none" stroke="#000" stroke-linecap="round" stroke-linejoin="round" stroke-miterlimit="10" stroke-width="2" d="M23 24l7 4m19-4l-7 4M29.5 43c1.2841-.6376 3.9847-1.0308 6.8421-.9981 2.6235.03 4.9897.4146 6.1579.9981"/></svg>