<svg xmlns="http://www.w3.org/2000/svg" role="img" viewBox="11.57 13.32 48.49 48.12"><title>1F33D.svg</title><path fill="#FCEA2B" stroke="#FCEA2B" stroke-linecap="round" stroke-miterlimit="10" stroke-width="2" d="M38.6406 52.917L23.5191 37.7852c-8.8335-8.8335-12.0384-17.6975-8.58-21.1661.9229-.9127 2.2211-1.3691 3.7931-1.3691.5679 0 1.1663.0608 1.8052.1724 4.2596.7809 9.9188 4.1278 15.5678 9.7768l3.4584 3.4584c-.8316 1.3286-1.643 2.789-2.3225 4.3509-2.5355 5.7402-3.4888 12.9004 1.3995 19.9085z"/><path fill="#FCEA2B" d="M52.3017 53.9819c-3.4584 3.4685-9.4522 3.1338-13.3264-.7302l-.3346-.3346c-4.8884-7.0081-3.9351-14.1682-1.3996-19.9085.6795-1.5619 1.4908-3.0223 2.3225-4.3509l12.008 11.9979c3.864 3.874 4.1987 9.8678.7301 13.3263z"/><path fill="#5C9E31" stroke="#5C9E31" stroke-miterlimit="10" stroke-width="2" d="M55.9832 56.1928c-3.6714 4.3001-10.152 4.4928-14.0668.5679-.1319-.1319-.2535-.2535-.3752-.3955-1.1359-1.1359-2.0994-2.2921-2.9006-3.4482-4.8884-7.0081-3.9351-14.1682-1.3996-19.9085.6795-1.5619 1.4908-3.0223 2.3225-4.3509 2.6065-4.148 5.5172-6.9573 6.075-7.4847.0305-.0304.0913-.0101.0913.0406.0304 1.3387.4868 12.6165 9.5232 21.805 3.5193 3.58 3.9858 9.3508.7302 13.1743z"/><path fill="#B1CC33" d="M55.4439 43.1392c3.9189 3.9189 3.7265 10.4004-.5773 14.0676-3.821 3.2558-9.5884 2.7869-13.1692-.7314-9.1932-9.0327-20.4663-9.4964-21.8012-9.5195-.0506-.0009-.0777-.0591-.043-.096 1.404-1.4949 19.344-19.9446 35.1903-4.0983.1372.1259.2688.246.4004.3776z"/><path fill="#FCEA2B" d="M36.1052 25.1992c-5.649-5.649-11.3082-8.9958-15.5678-9.7768-.6389-.1115-1.2373-.1724-1.8052-.1724-1.572 0-2.8702.4564-3.7931 1.3691-3.4584 3.4686-.2535 12.3326 8.58 21.1661"/><g fill="none" stroke="#000" stroke-miterlimit="10" stroke-width="2"><path d="M55.4439 43.1392c3.9189 3.9189 3.7265 10.4004-.5773 14.0676-3.821 3.2558-9.5884 2.7869-13.1692-.7314-9.1932-9.0327-20.4663-9.4964-21.8012-9.5195-.0506-.0009-.0777-.0591-.043-.096 1.404-1.4949 19.344-19.9446 35.1903-4.0983.1372.1259.2688.246.4004.3776z"/><path stroke-linecap="round" d="M37.4872 32.4593c.6253-1.3559 1.3429-2.6301 2.0763-3.8017 2.6065-4.148 5.5172-6.9573 6.075-7.4847.0305-.0304.0913-.0101.0913.0406.0198.8707.2197 5.9457 2.8433 11.9158l.2619.5604m-12.7298-8.4905c-5.649-5.649-11.3082-8.9958-15.5678-9.7768-.6389-.1115-1.2373-.1724-1.8052-.1724-1.572 0-2.8702.4564-3.7931 1.3691-3.4584 3.4686-.2535 12.3326 8.58 21.1661"/></g></svg>