<svg xmlns="http://www.w3.org/2000/svg" role="img" viewBox="5.84 5.84 60.19 60.19"><title>1F30F.svg</title><circle cx="36" cy="36" r="28" fill="#92D3F5" stroke-linecap="round" stroke-linejoin="round" stroke-miterlimit="10" stroke-width="2"/><path fill="#B1CC33" d="M9 34c.5363.13 2.3029.3956 3 1 .8804.7633-.0786 1.4353 1 3 .8754 1.2699 1.4379 3.0859 2 3 .7427-.1134.5561-2.6591 2-4 .4647-.4316 1.2271-2.1396 2-2 1.4918.2695 1.2206 3.3712 3 4 1.0358.366 2.3338.7411 3 0 .8521-.9479.3369-1.7146 1-3 .8275-1.6039 2.0751-1.2738 4-3 2.0099-1.8025-.7353-2.7141 1-4 2.0988-1.5552 4.5219-.4686 6-2 1.3787-1.4284-.4493-2.7987 1-4 .6379-.5287 3.0773-.4945 6-1 1.2827-.2218 3.239-.5602 5-1 1.4183-.3542 2.0643-1.2649 2-2-.0632-.7224-.6832-.9777-1-1-2.0169-.1422-2.2701.1908-4 0-1.9902-.2195-1.9509-.6928-4-1-.9448-.1416-1.0863-.061-5 0-2.2653.0353-3.4099.0519-4 0-2.562-.2253-4.642-.8844-5-1-2.0319-.6559-2.0007-.9771-3-1-1.5103-.0345-2.1089.6871-4 1-1.2519.2071-2.313.1098-3 0l-1.004-.5618-2.8295 3.0328-2.2612 3.2599-1.5459 3.005-1.199 3.265-.8482 3.8116-.2314 2.0592L9 34z"/><path fill="#B1CC33" stroke-linecap="round" stroke-linejoin="round" stroke-miterlimit="10" stroke-width="2" d="M32 47c-1.5469.1652-2.6099.7611-3 1-.7033.4307-1.5549.9523-2 2-.4653 1.0953-.2139 2.1245 0 3 .2472 1.012.4286 1.7547 1 2 .7282.3127 1.2331.4499 3 0 .7713-.1964 1.9404-.4941 3 0 .9949.464.8162.1239 2 1 .4182.3095 1.5387 1.1387 3 1 1.2722-.1208 2.4038-.9373 3-2 .7448-1.3275.5882-2.9215 0-4-.8341-1.5294-2.0909-1.2053-3-3-.4124-.8142-.3632-1.2944-1-2-.6519-.7223-1.6523-1.2702-2-1-.4014.312.4546 1.413 0 2-.4861.6277-1.7694-.2382-4 0zm-5-6c-1.0128.5427-1.9557 1.547-2 2-.0252.2579.3162.5088 1 1 1.0589.7607 1.0884 1.8078 1.5 1.6667.5548-.1901 1.3464-1.7906 2.0426-2.8333.814-1.2191 3.0778-1.1972 3.2908-2.0833C33.0298 39.9323 30.613 38.0735 30 38c-.8605-.1031-.9983 1.9274-3 3zM9 34c.5363.13 2.3029.3956 3 1 .8804.7633-.0786 1.4353 1 3 .8754 1.2699 1.4379 3.0859 2 3 .7427-.1134.5561-2.6591 2-4 .4647-.4316 1.2271-2.1396 2-2 1.4918.2695 1.2206 3.3712 3 4 1.0358.366 2.3338.7411 3 0 .8521-.9479.3369-1.7146 1-3 .8275-1.6039 2.0751-1.2738 4-3 2.0099-1.8025-.7353-2.7141 1-4 2.0988-1.5552 4.5219-.4686 6-2 1.3787-1.4284-.4493-2.7987 1-4 .6379-.5287 3.0773-.4945 6-1 1.2827-.2218 2.239.4398 4 0 1.4183-.3542 4.0643-2.2649 4-3-.0632-.7224-1.6832-.9777-2-1-2.0169-.1422-2.2701.1908-4 0-1.9902-.2195-1.9509-.6928-4-1-.9448-.1416-1.0863-.061-5 0-2.2653.0353-3.4099.0519-4 0-2.562-.2253-4.642-.8844-5-1-2.0319-.6559-2.0007-.9771-3-1-1.5103-.0345-2.1089.6871-4 1-1.2519.2071-2.313.1098-3 0"/><g fill="none" stroke="#000" stroke-linecap="round" stroke-linejoin="round" stroke-miterlimit="10" stroke-width="2"><circle cx="36" cy="36" r="28"/><path d="M32 47c-1.5469.1652-2.6099.7611-3 1-.7033.4307-1.5549.9523-2 2-.4653 1.0953-.2139 2.1245 0 3 .2472 1.012.4286 1.7547 1 2 .7282.3127 1.2331.4499 3 0 .7713-.1964 1.9404-.4941 3 0 .9949.464.8162.1239 2 1 .4182.3095 1.5387 1.1387 3 1 1.2722-.1208 2.4038-.9373 3-2 .7448-1.3275.5882-2.9215 0-4-.8341-1.5294-2.0909-1.2053-3-3-.4124-.8142-.3632-1.2944-1-2-.6519-.7223-1.6523-1.2702-2-1-.4014.312.4546 1.413 0 2-.4861.6277-1.7694-.2382-4 0zm-5-6c-1.0128.5427-1.9557 1.547-2 2-.0252.2579.3162.5088 1 1 1.0589.7607 1.0884 1.8078 1.5 1.6667.5548-.1901 1.3464-1.7906 2.0426-2.8333.814-1.2191 3.0778-1.1972 3.2908-2.0833C33.0298 39.9323 30.613 38.0735 30 38c-.8605-.1031-.9983 1.9274-3 3zM9 34c.5363.13 2.3029.3956 3 1 .8804.7633-.0786 1.4353 1 3 .8754 1.2699 1.4379 3.0859 2 3 .7427-.1134.5561-2.6591 2-4 .4647-.4316 1.2271-2.1396 2-2 1.4918.2695 1.2206 3.3712 3 4 1.0358.366 2.3338.7411 3 0 .8521-.9479.3369-1.7146 1-3 .8275-1.6039 2.0751-1.2738 4-3 2.0099-1.8025-.7353-2.7141 1-4 2.0988-1.5552 4.5219-.4686 6-2 1.3787-1.4284-.4493-2.7987 1-4 .6379-.5287 3.0773-.4945 6-1 1.2827-.2218 2.239.4398 4 0 1.4183-.3542 4.0643-2.2649 4-3-.0632-.7224-1.6832-.9777-2-1-2.0169-.1422-2.2701.1908-4 0-1.9902-.2195-1.9509-.6928-4-1-.9448-.1416-1.0863-.061-5 0-2.2653.0353-3.4099.0519-4 0-2.562-.2253-4.642-.8844-5-1-2.0319-.6559-2.0007-.9771-3-1-1.5103-.0345-2.1089.6871-4 1-1.2519.2071-2.313.1098-3 0"/><circle cx="36" cy="36" r="28"/></g></svg>