<svg xmlns="http://www.w3.org/2000/svg" role="img" viewBox="14.16 14.16 43.68 43.55"><title>1FAA8.svg</title><path fill="#d0cfce" d="M55.785 34.99a.9992.9992 0 0 1 .1055 1.041l-3.8946 8.0626a1.0021 1.0021 0 0 1-.706.5468L40.492 46.7783a1.007 1.007 0 0 1-.7939-.1806L16.2137 29.02a1.0007 1.0007 0 0 1-.1758-1.4316l2.4385-2.9971a.9981.9981 0 0 1 .3252-.2627l18.3057-9.2217a1.0147 1.0147 0 0 1 .6572-.0849l3.8193.8066a.9974.9974 0 0 1 .6367.4424l2.6731 4.144 1.6213 2.4905z"/><path fill="#3f3f3f" d="M26.692 56h20.096l-6.471-10.181-23.374-17.6-1.129 4.827L26.692 56z"/><path fill="#9b9b9a" d="M54.78 36.031l1.348 11.513L54.469 56h-7.681l-6.471-10.181 10.622-1.879 3.841-7.909z"/><g fill="none" stroke="#000" stroke-linecap="round" stroke-linejoin="round" stroke-width="2"><path d="M45.797 23.608l9.193 11.989 1.138 11.642L54.469 56H26.692L16 32.86l.813-4.641 2.439-2.997L37.558 16l3.819.807 2.643 4.11-5.012 3.353"/><path d="M47.359 56l-7.061-10.203-23.485-17.578m38.177 7.378l-3.895 8.062-10.797 2.138"/></g></svg>