<svg xmlns="http://www.w3.org/2000/svg" role="img" viewBox="7.66 15.16 56.68 41.30"><title>E106.svg</title><path fill="#D0CFCE" d="M37.2971 16.7728h-2.472c-5.8763 0-10.6842 4.8079-10.6842 10.6842v16.9332c0 5.8763 4.8079 10.6842 10.6842 10.6842h2.472c5.8763 0 10.6842-4.8079 10.6842-10.6842V27.457c0-5.8763-4.8079-10.6842-10.6842-10.6842z"/><path fill="#3F3F3F" d="M36.0611 22.1118c-1.1405 0-2.0737.9332-2.0737 2.0737v5.8343c0 1.1405.9332 2.0737 2.0737 2.0737s2.0737-.9332 2.0737-2.0737v-5.8343c0-1.1405-.9332-2.0737-2.0737-2.0737z"/><path fill="#9B9B9A" d="M35.1358 18.1769c3.0267 1.2986 5.904 3.1629 6.2392 7.8732.3881 5.455-1.6305 15.6686-2.2795 20.8566-.4538 3.6277-2.248 5.3071-4.6299 7.2111-1.2013.9603 5.2663.8427 7.9297-.7139 2.2852-1.3355 4.4994-3.6288 4.5264-2.9039l.3229-25.8045s-.9367-6.9377-8.5654-6.9401c0 .0001-7.652-.3939-3.5434.4215z"/><g fill="none" stroke="#000" stroke-linecap="round" stroke-linejoin="round" stroke-miterlimit="10" stroke-width="2"><path d="M38.8294 54.5013h-5.5367c-4.9688 0-9.0342-4.0654-9.0342-9.0342V26.38c0-4.9688 4.0654-9.0342 9.0342-9.0342h5.5367c4.9688 0 9.0342 4.0654 9.0342 9.0342v19.0871c0 4.9688-4.0654 9.0342-9.0342 9.0342z"/><path d="M36.1449 32.1553h-.1677c-1.1161 0-2.0294-.9132-2.0294-2.0294v-6.0465c0-1.1161.9132-2.0294 2.0294-2.0294h.1677c1.1161 0 2.0294.9132 2.0294 2.0294v6.0465c0 1.1162-.9132 2.0294-2.0294 2.0294zM15.032 34.191l-5.215-5.216m5.215-5.258l-5.215 5.216m47.339-5.216l5.216 5.216m-5.216 5.258l5.216-5.216"/></g></svg>