<svg xmlns="http://www.w3.org/2000/svg" role="img" viewBox="14.70 8.33 53.22 54.47"><title>1F468-1F3FD-200D-2696-FE0F.svg</title><path fill="#3F3F3F" d="M16.9628 58.9989s-2.1669-14.8402 9.8331-14.8402c3.1918 2.128 5.7264 3.6985 8.8 3.6922h-.125c3.0736.0063 6.208-1.9642 9.3999-4.0922 12.3378-.0001 10.109 15.1402 10.34 15.2402"/><path fill="#FFF" d="M44.7853 44.6077l-3.8861 5.9728-2.5935 4.4989c-1.2071 2.0939-4.2282 2.0958-5.438.0035l-2.5994-4.4955-3.4576-5.9797c6.1416 5.2919 12.1328 5.2919 17.9746 0z"/><path fill="#A57939" d="M64.2334 41.3898c1.53.73 2.17 2.57 1.43 4.09l-1.63 3.39c-.74 1.52-2.58 2.16-4.1 1.43l-2.05-1.74.36-.43 3.41-7.05.04-.2 2.54.51z"/><path fill="#F1B31C" d="M61.693 40.88l-.04.2-3.41 7.05-.36.43-.53-.44-.02-.02-3.65-1.76h-.02l-.96-.21.13-.61 3.41-7.05.17-.2.84.69 3.64 1.76z"/><path fill="#A57939" d="M57.3334 48.0998l.02.02-.06.07-5.5 11.38c-.44.91-1.47 1.45-2.43 1.17-1.24-.37-1.8-1.72-1.26-2.83l5.54-11.48.02-.09h.02l3.65 1.76zm-2.85-11.42l1.93 1.59-.17.2-3.41 7.05-.13.61-2.52-.54c-1.53-.74-2.17-2.57-1.43-4.1l1.64-3.38c.73-1.53 2.57-2.17 4.09-1.43z"/><g><path fill="#6a462f" d="M42.8904 12.8176c-5.4806-3.95-13.7306-2.8042-16.0004.0931-.6911.9446-.8198 2.1893-.4031 3.283.0143.0374.0284.0773.0427.1158l-.7382-1.3657c-6.4964 6.8913-2.0855 15.7185-1.3567 13.9137 2.675-2.5039 3.5089-8.5252 3.6301-9.5188 1.8488 2.1545 6.1666 4.0219 18.043 2.7596l1.5211 6.7592c-.0001 0 9.2179-6.8378-4.7385-16.0399z"/></g><g><path fill="#c19a65" d="M46.4797 23.7515c-.1676-.5613-.3563-1.109-.577-1.634-11.7155 1.2176-16.0002-.6372-17.838-2.7788-.1198.9813-.9379 6.8611-3.5354 9.4185.0251 7.8008 5.0898 14.1156 11.3363 14.1156 6.2621 0 11.3386-6.3456 11.3386-14.1733 0-.8993-.0745-1.7759-.2026-2.6287l-.5219-2.3193z"/></g><g><path d="M41.9452 27.1317c0 1.1045-.8965 2-2 2s-2-.8955-2-2c0-1.1035.8965-2 2-2s2 .8965 2 2m-8 0c0 1.1045-.8965 2-2 2s-2-.8955-2-2c0-1.1035.8965-2 2-2s2 .8965 2 2m1.9999 10.0024c-1.1519 0-2.3038-.2861-3.4473-.8579-.4942-.247-.6943-.8476-.4473-1.3418.2466-.4936.8462-.6943 1.3418-.4472 1.7178.8593 3.3877.8593 5.1055 0 .4946-.2471 1.0947-.0464 1.3418.4472.2471.4942.0469 1.0948-.4473 1.3418-1.1435.5718-2.2954.8579-3.4472.8579zM16.9082 58.9834c-.4844 0-.9102-.3525-.9863-.8467-.041-.2695-.9727-6.6328 2.581-10.7754 1.8809-2.1914 4.627-3.3261 8.166-3.375.3672-.1035.7666.0235 1.0157.3116 3.0508 2.0175 5.5049 3.2656 8.1631 3.2783 2.7226-.0127 5.2294-1.3213 8.3828-3.4239.3886-.2587.9052-.2138 1.2441.1075.3379.3222.4092.8359.169 1.2373-1.6524 2.7705-7.2334 11.8652-9.6397 12.5625-1.9541.5713-5.2012-3.4942-9.6621-12.0645-2.7637.1065-4.8857 1-6.3145 2.6612-2.956 3.4365-2.1377 9.1201-2.1289 9.1777.083.5449-.292 1.0547-.8379 1.1387-.0507.0078-.1015.0107-.1523.0107zm12.6943-11.1875c2.3633 4.1709 4.9024 7.9229 5.9258 8.3096.9912-.4873 3.6455-4.1123 6.2305-8.1358-1.9512.9991-3.7979 1.5782-5.8047 1.6055-.0215.001-.0449 0-.0664.001h-.0566a.42523.42523 0 0 1-.0479 0c-.0146 0-.0283 0-.042-.001-2.1211-.0283-4.0635-.6748-6.1387-1.7793z"/><path fill="none" stroke="#000" stroke-linecap="round" stroke-linejoin="round" stroke-miterlimit="10" stroke-width="2" d="M57.2934 48.1898l-5.5 11.38c-.44.91-1.47 1.45-2.43 1.17-1.24-.37-1.8-1.72-1.26-2.83l5.54-11.48"/><path fill="none" stroke="#000" stroke-linecap="round" stroke-linejoin="round" stroke-miterlimit="10" stroke-width="2" d="M56.4134 38.2698l-1.93-1.59c-1.52-.74-3.36-.1-4.09 1.43l-1.64 3.38c-.74 1.53-.1 3.36 1.43 4.1l2.52.54.96.21h.02l3.65 1.76.02.02.53.44 2.05 1.74c1.52.73 3.36.09 4.1-1.43l1.63-3.39c.74-1.52.1-3.36-1.43-4.09l-2.54-.51-.8-.16-3.64-1.76-.84-.69zM61.653 41.08l-3.41 7.05m-5.41-2.61l3.41-7.05"/><path d="M32.0244 54.6201c-.208 0-.417-.0644-.5967-.1982-.4423-.3301-.5341-.9571-.2041-1.3994l3.7598-5.044c.1904-.2558.4883-.4053.8135-.4023.3203.0039.6181.1601.8037.4209l3.3779 4.7597c.3194.4512.2139 1.0752-.2363 1.3946-.4512.3203-1.0742.2129-1.3945-.2364l-2.5821-3.6386-2.9385 3.9414c-.1962.2636-.497.4023-.8027.4023z"/><path fill="none" stroke="#000" stroke-linecap="round" stroke-linejoin="round" stroke-miterlimit="10" stroke-width="2" d="M24.524 28.7554v.13c.06 7.77 5.11 14.04 11.34 14.04 6.2 0 11.25-6.23 11.34-13.96v-.21c0-1.16-.11-2.29-.32-3.36-.21-1.06-.51-2.08-.89-3.03"/><path fill="none" stroke="#000" stroke-linecap="round" stroke-linejoin="round" stroke-miterlimit="10" stroke-width="2" d="M47.624 28.9754s3.9-2.89 2.79-7.44c-.59-2.45-2.64-5.38-7.52-8.6-5.48-3.95-13.73-2.8-16 .09-.44.6-.65 1.31-.65 2.03 0 .42.08.85.24 1.26.31.81.73 1.88 1.7 2.9 2.07 2.16 6.6 4.14 17.81 3.14.49-.04.99-.09 1.51-.14"/><path fill="none" stroke="#000" stroke-linecap="round" stroke-linejoin="round" stroke-miterlimit="10" stroke-width="2" d="M25.794 15.0654c-6.5 6.89-2.09 15.72-1.36 13.91l.09-.09c2.85-2.78 3.56-9.58 3.56-9.58"/></g></svg>