<svg xmlns="http://www.w3.org/2000/svg" role="img" viewBox="9.16 5.91 45.94 56.81"><title>1F469-1F3FB-200D-1F9BC.svg</title><circle cx="42.613" cy="55.744" r="5" fill="#d0cfce"/><circle cx="16.313" cy="55.744" r="5" fill="#d0cfce"/><path fill="#ea5a47" d="M37.1128 42.0437c-6.2 2.2-6.9 9.6-6.9 9.6l-6.9021.0206 1.1021 4.88 8.6.1a9.9 9.9 0 0 1 19.8 0 25.5081 25.5081 0 0 0-2.8-15.6"/><path fill="#a57939" d="M46.9128 38.7436a4.5364 4.5364 0 0 1-1 .1h-13.3a1.0021 1.0021 0 0 0-1 1v1.2a1.0754 1.0754 0 0 0 1 1h16.4a1.0754 1.0754 0 0 0 1-1v-16.5a1.0021 1.0021 0 0 0-1-1h-1.2c-.5 0-.4193.4316-.4193 1.0316l-.5807 13.0684a7.4715 7.4715 0 0 1 .1 1.1z"/><g fill="#fadcbc"><circle cx="44.077" cy="11.544" r="2.599"/><path d="M31.5635 34.2571l5.8365-.3724.0356-.0344 1.1977-8.6156.6514-4.3151a3.9744 3.9744 0 0 1 3.9784-3.2913 3.784 3.784 0 0 1 3.581 3.6439l-.3563 15.3264a2.5073 2.5073 0 0 1-2.5067 2.449H39.46l-8.268.0259-7.7533 10.4019c-.3652.5478-1.2437.2714-1.4519-.3532a5.0533 5.0533 0 0 1 .4709-2.1191l4.295-9.5054a4.3658 4.3658 0 0 1 2.018-2.3 6.7127 6.7127 0 0 1 2.7928-.9406z"/></g><g fill="none" stroke="#000" stroke-width="2"><circle cx="43.885" cy="11.447" r="2.599" stroke-miterlimit="10"/><path stroke-linecap="round" stroke-linejoin="round" d="M31.9809 34.0565l5.8364-.3725.0356-.0343 1.1978-8.6156.6513-4.3151a3.9744 3.9744 0 0 1 3.9785-3.2913h0a3.7838 3.7838 0 0 1 3.5809 3.6439l-.3563 15.3263a2.5074 2.5074 0 0 1-2.5067 2.4491h-4.5215l-8.2679.0258-7.9741 10.5633c-.3652.5478-1.283.6246-1.4912 0a4.2438 4.2438 0 0 1 .3532-2.0406L27.17 37.2971a4.3658 4.3658 0 0 1 2.018-2.3h0a6.7113 6.7113 0 0 1 2.7929-.9406z"/><path stroke-linecap="round" stroke-linejoin="round" d="M43.957 21.04l-4.191 7.457-9.424-1.7m-7.2292 24.8466a8.8794 8.8794 0 0 1 1.3 4.9l8.6.1h0a9.9 9.9 0 0 1 19.8 0 25.5081 25.5081 0 0 0-2.8-15.6"/><path stroke-linecap="round" stroke-linejoin="round" d="M37.1128 42.0437c-6.2 2.2-6.9 9.6-6.9 9.6h-3.2m19.9-12.9001a4.5364 4.5364 0 0 1-1 .1h-13.3a1.0021 1.0021 0 0 0-1 1v1.2a1.0754 1.0754 0 0 0 1 1h16.4a1.0754 1.0754 0 0 0 1-1v-16.5a1.0021 1.0021 0 0 0-1-1h-1.2c-.5 0-.4193.4316-.4193 1.0316l-.5807 13.0684a7.4715 7.4715 0 0 1 .1 1.1z"/><circle cx="16.313" cy="55.743" r="5" stroke-miterlimit="10"/><circle cx="42.613" cy="55.744" r="5" stroke-miterlimit="10"/><path stroke-linecap="round" stroke-linejoin="round" d="M24.5128 56.6436a6.602 6.602 0 0 0-.1-1.4 9.9842 9.9842 0 0 0-2.8-5.6 6.8641 6.8641 0 0 0-6.5392-2.1517m3.5824-.5069l7.4-17.5h3l2.3.1m-2.3-1.7v1.6M46.844 8.213s.5785-.2695.9252.0177c.4081.3372.6855 1.5991 1.1679 2.145a3.2608 3.2608 0 0 0 1.8129 1.0717"/></g></svg>