<svg xmlns="http://www.w3.org/2000/svg" role="img" viewBox="12.92 12.92 56.03 56.03"><title>1F362.svg</title><circle cx="36" cy="35.999" r="10" fill="#f4aa41" transform="rotate(-45.001 36 36)"/><path fill="#e27022" d="M43.0703 28.9199c-2.5937-2.5947-6.2578-3.4551-9.5713-2.602 1.6748.4311 3.2608 1.2915 4.5713 2.602 3.9063 3.9053 3.9063 10.2364.001 14.1426-1.3106 1.3105-2.8975 2.1699-4.5713 2.6016 3.3135.8535 6.9766-.0078 9.5713-2.6016 3.9053-3.9062 3.9053-10.2373-.001-14.1426z"/><path fill="#a57939" d="M19.125 36l-4.127-21 21.001 4.128z"/><path fill="#6A462F" d="M36 19.128L14.999 15l.248 1.263 13.129 3.564-9.775 13.497.525 2.676z"/><path fill="#d0cfce" d="M39.582 55.418c1.2901 1.289 2.8448 2.1445 4.4883 2.582l13.8965-13.8965c-.4385-1.6426-1.292-3.1992-2.5811-4.4883-1.29-1.291-2.8457-2.1445-4.4892-2.583L37 50.9277c.4385 1.6446 1.293 3.2012 2.582 4.4903z"/><path fill="#9b9b9a" d="M58 44.1035c-.4385-1.6426-1.292-3.1992-2.5811-4.4883-1.29-1.291-2.8457-2.1445-4.4892-2.583l-.0752.0752c.1894.2012.3848.3887.5644.6104 1.2891 1.6006 2.1426 3.5283 2.5811 5.5674L42.582 57.4434c.4961.2226 1.002.4179 1.5215.5566L58 44.1035z"/><g fill="none" stroke="#000" stroke-linecap="round" stroke-linejoin="round" stroke-miterlimit="10" stroke-width="2"><circle cx="36.001" cy="35.999" r="10" transform="rotate(-45.001 36.002 36)"/><path d="M54 54l13 13M19.17 36.042l-4.127-20.999 21.001 4.127zm20.5155 19.3428c1.2901 1.289 2.8448 2.1445 4.4883 2.582l13.8965-13.8965c-.4385-1.6426-1.292-3.1992-2.581-4.4883C54.1992 38.291 52.6436 37.4375 51 37L37.1035 50.8965c.4385 1.6426 1.293 3.1992 2.582 4.4883z"/></g></svg>