<svg xmlns="http://www.w3.org/2000/svg" role="img" viewBox="7.83 4.08 56.22 60.97"><title>1F63D.svg</title><path fill="#F4AA41" d="M58.6655 48.8322c-3.5976 9.1169-12.6313 15.1546-23.2072 15.1546-9.1173 0-19.256-5.8476-22.8536-14.9645l-.1262-.3127c-1.1415-2.8597-.9573-6.3599-.9573-9.6324L15.1881 6.706l10.2281 10.0799c2.9226-1.2477 6.137-1.9388 9.5103-1.9388H35.99c3.3733 0 6.5877.6911 9.5103 1.9388L56.7285 5.706l3.7223 33.8758c0 3.2725-.6283 6.3969-1.7707 9.2566"/><path fill="#E27022" d="M35.4583 63.9868c10.6088.3425 20.3541-6.004 23.9517-15.1208l.1109-.231c1.1415-2.8597.9579-6.8965.9579-10.169l-3.7503-32.76"/><g fill="none" stroke="#000" stroke-linecap="round" stroke-linejoin="round" stroke-miterlimit="10" stroke-width="2"><path d="M62 54.16l-9.36-5.2m5.2 10.4l-9.36-5.2m-35.1884-6.1283c-1.1172-2.7655-1.7316-5.787-1.7316-8.9517L15.2 6.32l10.9799 10.7149c2.858-1.2066 6.0013-1.8749 9.3001-1.8749h1.04c3.2988 0 6.4421.6683 9.3001 1.8749L56.8 6.3201l3.64 32.76c0 3.1647-.6144 6.1862-1.7316 8.9517M22.8253 59.3824C26.4968 61.6757 30.8335 63 35.48 63h1.04c4.6465 0 8.9852-1.3243 12.6547-3.6176M10 54.16l9.36-5.2m-5.2 10.4l9.36-5.2m31.72-15.2308c-3.12-4.16-9.36-4.16-11.44 0m-27.04 0c3.12-4.16 9.36-4.16 11.44 0"/><path d="M35.6476 47.6836s10.9458 3.3234 0 5.7862c0 0 10.876 3.1078 0 5.109"/></g></svg>