<svg xmlns="http://www.w3.org/2000/svg" role="img" viewBox="8.96 14.21 53.95 43.45"><title>E309.svg</title><path fill="#D0CFCE" d="M11 21.306h50v34.388H11z"/><path fill="#D22F27" d="M27.706 40.872h6.74v6.74h4.744v-6.74h6.74v-4.744h-6.74v-6.74h-4.744v6.74h-6.74z"/><g><path fill="none" d="M27.706 40.901h6.74v6.74h4.744v-6.74h6.74v-4.744h-6.74v-6.74h-4.744v6.74h-6.74zm-8.7669-22.2074h2.8591c.5127 0 .9284.4157.9284.9284v1.8314c0 .5127-.4157.9284-.9284.9284h-2.8591c-.5127 0-.9284-.4157-.9284-.9284V19.622c0-.5127.4157-.9284.9284-.9284zm32.2932 0h2.8591c.5127 0 .9284.4157.9284.9284v1.8314c0 .5127-.4157.9284-.9284.9284h-2.8591c-.5127 0-.9284-.4157-.9284-.9284V19.622c0-.5127.4157-.9284.9284-.9284z"/><path fill="none" stroke="#000" stroke-linecap="round" stroke-linejoin="round" stroke-width="2" d="M11 21.335h50v34.388H11z"/><path fill="none" stroke="#000" stroke-linecap="round" stroke-linejoin="round" stroke-width="2" d="M28.1512 21.3353V18.344c0-1.1415.9254-2.0669 2.0669-2.0669h11.5638c1.1415 0 2.0669.9254 2.0669 2.0669v2.9913"/><path d="M39.19 29.4168v6.74h6.74v4.7442h-6.74v6.74h-4.7444v-6.74h-6.74v-4.7444h6.74v-6.74H39.19m0-2h-4.7444c-1.1046 0-2 .8954-2 2v4.74h-4.74c-1.1046 0-2 .8954-2 2v4.7444c0 1.1046.8954 2 2 2h4.74v4.74c0 1.1046.8954 2 2 2H39.19c1.1046 0 2-.8954 2-2v-4.74h4.74c1.1046 0 2-.8954 2-2v-4.7444c0-1.1046-.8954-2-2-2h-4.74v-4.74c0-1.1046-.8954-2-2-2zm-20.2509-8.723h2.8591c.5127 0 .9284.4157.9284.9284v1.8314c0 .5127-.4157.9284-.9284.9284h-2.8591c-.5127 0-.9284-.4157-.9284-.9284V19.622c0-.5127.4157-.9284.9284-.9284zm32.2932 0h2.8591c.5127 0 .9284.4157.9284.9284v1.8314c0 .5127-.4157.9284-.9284.9284h-2.8591c-.5127 0-.9284-.4157-.9284-.9284V19.622c0-.5127.4157-.9284.9284-.9284z"/></g></svg>