<svg xmlns="http://www.w3.org/2000/svg" role="img" viewBox="5.84 5.84 60.19 60.19"><title>E053.svg</title><circle cx="36" cy="36" r="28" fill="#92D3F5"/><path fill="#92D3F5" fill-rule="evenodd" d="M34.3116 27.1581l.008.0467c2.0031-.3473 4.1346-.0214 6.0328 1.0745 4.3047 2.4853 5.7795 7.9896 3.2943 12.2942L30.3856 63.5424c11.4426 2.2785 23.5577-2.8033 29.7155-13.4689 4.2094-7.2909 4.7672-15.688 2.2408-23.0735H36c-.5771 0-1.1415.0543-1.6884.1581z" clip-rule="evenodd"/><path fill="#61B2E4" fill-rule="evenodd" d="M27 43.5L8.20227 32.6171C9.87243 18.7484 21.681 8 36 8c12.3156 0 22.7741 7.9511 26.5222 19H36c-4.9706 0-9 4.0294-9 9 0 2.1919.7836 4.2008 2.0858 5.7618L27 43.5z" clip-rule="evenodd"/><circle cx="36" cy="36" r="9" fill="#61B2E4"/><g fill="none" stroke="#000" stroke-width="2"><circle cx="36" cy="36" r="10"/><path stroke-linecap="round" d="M44.6602 41l-11.5 19.9186M11.0814 33.1603L31 44.6603M36 26h23"/><circle cx="36" cy="36" r="28"/></g></svg>