<svg xmlns="http://www.w3.org/2000/svg" role="img" viewBox="2.72 14.72 66.43 42.43"><title>1F1F9-1F1F1.svg</title><path fill="#d22f27" d="M5.4907 17H67v38H5V17.4906c0-.271.2197-.4907.4907-.4907z"/><path fill="#f1b31c" d="M38 36L6.6524 54.0486C5.9175 54.4717 5 53.9413 5 53.0933V18.8964c0-.8434.9125-1.371 1.6435-.9502L38 36z"/><path d="M26 36L6.0728 54.0293C5.66 54.4028 5 54.1099 5 53.5532V18.6171c0-.6222.7377-.9496 1.1991-.5322L26 36z"/><path fill="#fff" stroke="#fff" stroke-linecap="round" stroke-linejoin="round" d="M15.35 34.05l-4.63 2.44 5.04.67-3.53-3.53.67 5.04 2.45-4.62z"/><g><path fill="none" stroke="#000" stroke-linecap="round" stroke-linejoin="round" stroke-width="2" d="M5 17h62v38H5z"/></g></svg>