<svg xmlns="http://www.w3.org/2000/svg" role="img" viewBox="8.98 9.85 52.91 53.04"><title>1F4D3.svg</title><path fill="#FFF" d="M11 57.697h49V11.909H15.998l-4 4z"/><path fill="#9b9b9a" stroke-linecap="round" stroke-linejoin="round" stroke-miterlimit="10" stroke-width="2" d="M55.0015 60.9092h-43.003c-.5514 0-.9985-.447-.9985-.9985v-43.003c0-.5514.447-.9985.9985-.9985h43.003c.5514 0 .9985.447.9985.9985v43.003c0 .5514-.447.9985-.9985.9985z"/><g fill="none" stroke="#000" stroke-linecap="round" stroke-linejoin="round" stroke-miterlimit="10" stroke-width="2"><path d="M11 16.9092l4.9985-5h43.003c.5514 0 .9985.447.9985.9985v43.003c0 .5514-.447.9985-.9985.9985"/><path d="M55.0015 60.9092h-43.003c-.5514 0-.9985-.447-.9985-.9985v-43.003c0-.5514.447-.9985.9985-.9985h43.003c.5514 0 .9985.447.9985.9985v43.003c0 .5514-.447.9985-.9985.9985z"/><path d="M47.358 29.799h-4v6.999h4m-4-3.5h3m-26.716 3.5v-6.999l5 6.999v-6.999m6.2163 6.9995h0c-1.3807 0-2.5-1.1193-2.5-2.5v-2c0-1.3807 1.1193-2.5 2.5-2.5h0c1.3807 0 2.5 1.1193 2.5 2.5v2c0 1.3807-1.1193 2.5-2.5 2.5zm5.4997-6.9695h4m-2 0v7"/></g></svg>