<svg xmlns="http://www.w3.org/2000/svg" role="img" viewBox="9.98 8.98 51.91 52.91"><title>1F36F.svg</title><path fill="#f4aa41" d="M55 17v-6H17v6m28 43c8.2842 0 15-6.7158 15-15V22c0-2.7612-2.2383-5-5-5H17c-2.7617 0-5 2.2388-5 5v23c0 8.2842 6.7158 15 15 15h18z"/><path fill="#fcea2b" d="M35 17v14c0 2.7617 2.2393 5 5 5 2.7617 0 5-2.2383 5-5v11c0 1.6563 1.3428 3 3 3s3-1.3437 3-3V23c0 1.6567 1.3428 3 3 3 1.6563 0 3-1.3433 3-3v-5.5781C56.3867 17.1538 55.7119 17 55 17H33v-6h22v6"/><g fill="none" stroke="#000" stroke-linecap="round" stroke-linejoin="round" stroke-miterlimit="10" stroke-width="2"><path d="M55 17v-6H17v6m34 25c0 1.6563-1.3428 3-3 3s-3-1.3437-3-3m6-19c0 1.6567 1.3428 3 3 3 1.6563 0 3-1.3433 3-3v-5M45 31c0 2.7617-2.2383 5-5 5-2.7607 0-5-2.2383-5-5m10 11V31m6 11V23m-16 8V17m-2 0v-6"/><path d="M45 60c8.2842 0 15-6.7158 15-15V22c0-2.7612-2.2383-5-5-5H17c-2.7617 0-5 2.2388-5 5v23c0 8.2842 6.7158 15 15 15h18z"/></g></svg>