<svg xmlns="http://www.w3.org/2000/svg" role="img" viewBox="10.52 10.52 50.83 49.95"><title>1F497.svg</title><path fill="#FFA7C0" d="M59.5 25c0-6.9036-5.5964-12.5-12.5-12.5-4.7533 0-8.8861 2.6536-11 6.5598C33.8861 15.1536 29.7533 12.5 25 12.5c-6.9036 0-12.5 5.5964-12.5 12.5 0 2.9699 1.0403 5.6942 2.7703 7.8387l-.0043.0034L36 58.5397l20.7339-25.6975-.0043-.0034C58.4597 30.6942 59.5 27.9699 59.5 25z"/><path fill="#E67A94" d="M56.4172 29.3999c0-5.9979-4.8623-10.8602-10.8602-10.8602-4.1297 0-7.7204 2.3055-9.557 5.6992-1.8366-3.3937-5.4272-5.6992-9.557-5.6992-5.9979 0-10.8602 4.8623-10.8602 10.8602 0 2.5803.9039 4.9472 2.4069 6.8104l-.0037.003L36 58.5397l18.014-22.3264-.0037-.003c1.503-1.8633 2.4069-4.2301 2.4069-6.8104z"/><path fill="#FFA7C0" d="M53.865 33.0423c0-5.2482-4.2545-9.5027-9.5027-9.5027-3.6135 0-6.7553 2.0173-8.3624 4.9868-1.607-2.9695-4.7488-4.9868-8.3624-4.9868-5.2482 0-9.5027 4.2545-9.5027 9.5027 0 2.2578.7909 4.3288 2.106 5.9591l-.0032.0026L36 58.5397l15.7622-19.5356-.0032-.0026c1.3151-1.6304 2.106-3.7014 2.106-5.9592z"/><path fill="#E67A94" d="M51.3129 36.6848c0-4.4984-3.6467-8.1451-8.1451-8.1451-3.0973 0-5.7903 1.7291-7.1677 4.2744-1.3774-2.5453-4.0704-4.2744-7.1677-4.2744-4.4984 0-8.1451 3.6467-8.1451 8.1451 0 1.9352.6779 3.7104 1.8052 5.1078l-.0028.0022L36 58.5397l13.5105-16.7448-.0028-.0022c1.1273-1.3975 1.8052-3.1726 1.8052-5.1079z"/><g><path fill="none" stroke="#000" stroke-linejoin="round" stroke-miterlimit="10" stroke-width="2" d="M59.5 25c0-6.9036-5.5964-12.5-12.5-12.5-4.7533 0-8.8861 2.6536-11 6.5598C33.8861 15.1536 29.7533 12.5 25 12.5c-6.9036 0-12.5 5.5964-12.5 12.5 0 2.9699 1.0403 5.6942 2.7703 7.8387l-.0043.0034L36 58.5397l20.7339-25.6975-.0043-.0034C58.4597 30.6942 59.5 27.9699 59.5 25z"/></g></svg>