<svg xmlns="http://www.w3.org/2000/svg" role="img" viewBox="15.11 12.73 41.78 46.41"><title>23CF.svg</title><path fill="#fff" d="M54.4095 48.0658c.1653-.4497.2755-.9554.2755-1.4618 0-.787-.2755-1.5741-.7163-2.2484L39.1448 16.529l-.2755-.2811c-.7163-.7308-1.5983-1.1242-2.59-1.1242s-1.9286.3935-2.59 1.1242l-.2755.2811-14.9352 27.8266c-.7714 1.012-.9369 2.4738-.4408 3.7102.551 1.4052 1.9286 2.305 3.4165 2.305h29.5364c1.488 0 2.8655-.8994 3.4165-2.305h.0022z"/><g fill="none" stroke="#000" stroke-linejoin="round"><path stroke-width="1.909" d="M54.8067 48.5091c.1701-.4627.2835-.983.2835-1.5041 0-.8098-.2835-1.6196-.7371-2.3135l-15.2529-28.632-.2835-.2892c-.7371-.752-1.6446-1.1567-2.665-1.1567s-1.9844.4049-2.665 1.1567l-.2835.2892-15.3675 28.632c-.7938 1.0413-.964 2.5454-.4536 3.8176.567 1.4459 1.9844 2.3717 3.5154 2.3717h30.3913c1.531 0 2.9485-.9254 3.5154-2.3717h.0023z"/><path stroke-linecap="round" stroke-width="2" d="M17 57.38h38"/></g></svg>