<svg xmlns="http://www.w3.org/2000/svg" role="img" viewBox="-0.52 10.61 72.41 56.16"><title>1F64C.svg</title><path fill="#fcea2b" stroke-linecap="round" stroke-linejoin="round" stroke-miterlimit="10" stroke-width="2" d="M20.566 35.241l.003-16.016"/><path d="M57.5727 35.9529l-.1749-18.6731.0001.7675c-.0005-3.5223 6.4973-4.4704 6.498.8314l.0603 6.4345.1146 12.2387-.1318-14.0733c-.0005-3.1731 5.6525-3.2804 5.6531.8117l.0035 24.3792c.0013 8.8056-7.0629 15.8274-15.8685 15.8286S37.782 57.362 37.7808 48.5564c.0464-3.0717-.2798-8.2946-.2808-15.3797 2.1739-2.1745 5.6522.8046 6.8519 3.646l.0007 4.8897-.0033-23.0647c-.0005-3.6647 6.6298-3.9373 6.6304.5772l-.0004-2.9215c-.0006-3.9456 6.4176-5.3212 6.4186 1.7439M13.9751 35.9529l.1749-18.6732-.0001.7675c.0005-3.5223-6.4973-4.4704-6.498.8314l-.0603 6.4345-.1146 12.2386.1318-14.0731c.0005-3.1731-5.6525-3.2804-5.6531.8117l-.0035 24.3792c-.0013 8.8056 7.0629 15.8274 15.8685 15.8286s15.945-7.1361 15.9463-15.9417c-.0464-3.0717.2798-8.2946.2808-15.3797-2.1739-2.1745-5.6522.8046-6.8519 3.646l-.0007 4.8897.0033-23.0647c.0005-3.6647-6.6298-3.9373-6.6304.5772l.0004-2.9215c.0006-3.9456-6.4176-5.3212-6.4186 1.7439" fill="#fcea2b"/><path d="M57.5727 35.9529l-.1749-18.6731.0001.7675c-.0005-3.5223 6.4973-4.4704 6.498.8314l.0603 6.4345.1146 12.2387-.1318-14.0733c-.0005-3.1731 5.6525-3.2804 5.6531.8117l.0035 24.3792c.0013 8.8056-7.0629 15.8274-15.8685 15.8286S37.782 57.362 37.7808 48.5564c.0464-3.0717-.2798-8.2946-.2808-15.3797 2.1739-2.1745 5.6522.8046 6.8519 3.646l.0007 4.8897-.0033-23.0647c-.0005-3.6647 6.6298-3.9373 6.6304.5772l-.0004-2.9215c-.0006-3.9456 6.4176-5.3212 6.4186 1.7439zM50.982 37.552l-.003-18.327M20.566 37.552l.003-18.327m-6.5939 16.7279l.1749-18.6732-.0001.7675c.0005-3.5223-6.4973-4.4704-6.498.8314l-.0603 6.4345-.1146 12.2386.1318-14.0731c.0005-3.1731-5.6525-3.2804-5.6531.8117l-.0035 24.3792c-.0013 8.8056 7.0629 15.8274 15.8685 15.8286s15.945-7.1361 15.9463-15.9417c-.0464-3.0717.2798-8.2946.2808-15.3797-2.1739-2.1745-5.6522.8046-6.8519 3.646l-.0007 4.8897.0033-23.0647c.0005-3.6647-6.6298-3.9373-6.6304.5772l.0004-2.9215c.0006-3.9456-6.4176-5.3212-6.4186 1.7439z" fill="none" stroke="#000" stroke-linecap="round" stroke-linejoin="round" stroke-miterlimit="10" stroke-width="2"/></svg>