<svg xmlns="http://www.w3.org/2000/svg" role="img" viewBox="14.56 1.68 42.76 68.51"><title>1F31C.svg</title><path fill="#FCEA2B" d="M44.0422 51.4548c.4326 4.3927 3.0423 9.3581 10.8915 14.3134.7821.4938.5357 1.6732-.3778 1.8182-1.7019.27-3.4469.4136-5.227.4136-18.0768 0-32.7308-14.3269-32.7308-32 0-17.6731 14.6541-32 32.7308-32 1.7798 0 3.5246.1435 5.2263.4135.8258.131 1.1385 1.1617.5234 1.728-4.0365 3.7157-7.234 7.9623-9.4854 12.8921-1.0597 2.3204-1.2184 4.9524-.4059 7.3704.8325 2.4776 2.3223 5.7414 4.9173 8.5959 4.375 4.8125-3.5625 5.375-3.5625 5.375s-3.1458.5833-.5 3.4375c1.161 1.2524.7912 1.964-.1731 2.7025 3.2645 2.8612-1.8268 4.9399-1.8268 4.9399"/><path fill="#F1B31C" d="M54.0385 4.3223C52.269 4.019 50.7843 4 48.9283 4c-17.6731 0-32 14.3269-32 32s14.3269 32 32 32c1.719 0 3.4063-.1355 5.0518-.3965 0 0 .6874-.3097.7793-1.1742 0 0-3.0381.3419-4.6022.3419-16.9944 0-30.7711-13.7767-30.7711-30.7711S33.1628 5.2289 50.1572 5.2289c1.6727 0 3.3142.1335 4.9145.3903"/><g><circle cx="36" cy="27.25" r="3"/><path fill="none" stroke="#000" stroke-linecap="round" stroke-linejoin="round" stroke-miterlimit="10" stroke-width="2" d="M44.3441 51.4548c.4118 4.1818 2.7967 8.8825 9.7967 13.5995 1.1555.7786.6786 2.5674-.7056 2.7269-1.2478.1437-2.517.2188-3.8044.2188C31.5541 68 16.9 53.6731 16.9 36c0-17.6731 14.6541-32 32.7308-32 1.4038 0 2.7859.0893 4.1422.2595 1.271.1595 1.7777 1.7021.8548 2.5905-3.6851 3.5471-6.6266 7.5692-8.7365 12.192-1.0567 2.3153-1.2149 4.9406-.405 7.3533.832 2.4787 2.3222 5.7467 4.9203 8.6047 4.375 4.8125-3.5625 5.375-3.5625 5.375s-3.1458.5833-.5 3.4375c1.161 1.2524.2761 2.4207-.6881 3.1591-1.0432.7989-2.3329 1.1945-3.646 1.244-1.6313.0614-3.9551-.2698-5.7064-2.2156m8.0405 5.4548s5.0913-2.0786 1.8269-4.9398m-5.3898-26.64s-4.7812-3-9.5625 1.9062"/></g></svg>