<svg xmlns="http://www.w3.org/2000/svg" role="img" viewBox="16.21 5.71 39.20 60.45"><title>E318.svg</title><path fill="#fff" d="M23.0481 61.9023s-2.6029.0837-2.5377-1.7412.9093-3.0868 1.3655-3.8689 24.6495-37.8917 24.6495-37.8917L26.0267 59.405s-1.3349 2.5816-2.9787 2.4972z"/><path fill="none" stroke="#000" stroke-linecap="round" stroke-miterlimit="10" stroke-width="3.251" d="M23.21 63.42c1.6016-.2804 2.9369-1.3839 3.514-2.904 0 0 22.26-40.97 25-51.13M19.33 61.22c-.4682-1.5641-.1359-3.2585.8883-4.53 0 0 24.13-39.9 31.51-47.4"/><path d="M51.3472 7.0815l2.522 1.4563c.441.2547.5921.8185.3376 1.2596l-5.5467 9.401-3.9341-2.1932 5.3616-9.5861c.2547-.441.8185-.5921 1.2596-.3376z"/></svg>