<svg xmlns="http://www.w3.org/2000/svg" role="img" viewBox="8.59 18.84 54.08 35.20"><title>1F4E7.svg</title><g fill="none" stroke="#000" stroke-linecap="round" stroke-width="2"><path stroke-linejoin="round" d="M37.698 22.005h-4v5.75h4"/><path stroke-miterlimit="10" d="M33.698 24.255h3"/></g><path fill="#d0cfce" d="M27.5372 38.8006l-15.35 12.89c-.35-.6201-.57-.19-.57-1.07v-26.51l15.92 14.69zM21.171 20.896h28.542v3.125H21.171z"/><path fill="#9b9b9a" d="M60.6582 22.01v26.56c0 .86-.2 1.65-.55 2.27L47.8409 39.6075l-1.6151 1.2252-2.4465-3.2336L60.6582 22.01z"/><path fill="#d0cfce" d="M26.6383 36.75l4.47 4.13c.24.22.48.41.72.57 2.4301 1.8 5.26 1.8 7.6801-.01.23-.16.47-.36.69-.56l4.5-4.15"/><path fill="#d0cfce" stroke="#d0cfce" stroke-linecap="round" stroke-linejoin="round" stroke-width="1.8" d="M26.6383 36.75l4.47 4.13c.24.22.48.41.72.57 2.4301 1.8 5.26 1.8 7.6801-.01.23-.16.47-.36.69-.56l4.5-4.15 15.41 14.11c-.42.77-1.07 1.27-1.79 1.27h-45.26c-.7 0-1.34-.47-1.77-1.22l15.3499-14.14"/><path fill="#d0cfce" stroke="#d0cfce" stroke-linecap="round" stroke-linejoin="round" stroke-width="2" d="M20 36h7v5h-7z"/><path fill="#d0cfce" d="M47.7628 39.536L60.1082 50.84c-.42.77-1.07 1.27-1.79 1.27h-45.26c-.7 0-1.34-.47-1.77-1.22l12.0781-11.126"/><path fill="#d0cfce" d="M50.4294 20.8958s8.5778.3914 8.9878.9514c.05.06-18.7231 19.27-18.9531 19.43-2.42 1.81-5.25 1.81-7.68.01-.24-.16-.48-.35-.72-.57l-4.47-4.13-15.92-14.69c.04-.06.09-.13.14-.2.42-.6.99-.71 1.61-.71h8.48"/><path fill="none" stroke="#ea5a47" stroke-linecap="round" stroke-linejoin="round" stroke-width="2" d="M37.698 22.005h-4v7h4"/><path fill="none" stroke="#ea5a47" stroke-linecap="round" stroke-miterlimit="10" stroke-width="2" d="M33.698 25.505h3"/><g fill="none" stroke="#000" stroke-linecap="round" stroke-linejoin="round" stroke-width="2"><path d="M20.072 42.7987L11.2883 50.89c-.35-.6201-.57-1.44-.57-2.32V22.4583c0-.4348-.0379-.2318.2817.0631L26.6383 36.75m17.141.8491l16.8789-16.0432V48.57c0 .86-.2 1.65-.55 2.27L47.8409 39.6075"/><path d="M26.6383 36.75l4.47 4.13c.24.22.48.41.72.57 2.4301 1.8 5.26 1.8 7.6801-.01.23-.16.47-.36.69-.56l4.5-4.15"/><path d="M47.7628 39.536L60.1082 50.84c-.42.77-1.07 1.27-1.79 1.27h-45.26c-.7 0-1.34-.47-1.77-1.22l12.0781-11.126"/><path d="M49.4849 20.9h9.46c2.6184-.0539 1.3646 1.3217 1.4046 1.3917L44.6949 36.73l-4.5 4.15c-.22.2-.46.4-.69.56-2.42 1.81-5.25 1.81-7.68.01-.24-.16-.48-.35-.72-.57l-4.47-4.13-15.92-14.69c.002-.8682.6193-1.16 1.75-1.16h8.48m-7.7574 31.21s-2.7511.14-2.4693-4.485"/></g></svg>