<svg xmlns="http://www.w3.org/2000/svg" role="img" viewBox="11.09 8.96 49.58 54.08"><title>1F9E3.svg</title><path fill="#ea5a47" d="M58.5325 26.2869c-.7637-4.5368-5.5179-3.3408-6.6654-4.8738 0 0 1.5728-3.7014.79-6.2409-.84-2.7235-4.5033-4.4717-5.0751-4.0175a20.7541 20.7541 0 0 1-11.6084 4.017 20.7541 20.7541 0 0 1-11.6084-4.017c-.5718-.4542-4.2353 1.294-5.0751 4.0175a8.2083 8.2083 0 0 0 .1069 4.0978 2.65 2.65 0 0 1-1.9159 3.2084c-1.6963.422-3.6067 1.0736-4.067 3.8084-1.1975 7.1144 3.9252 8.4664 6.6654 8.8068 7.8862.98 23.8853.8409 31.7876 0 2.7457-.292 7.8629-1.6923 6.6654-8.8067z"/><path fill="#ea5a47" d="M41.786 35.7819s7.049-.4124 7.4305-.4535a33.6533 33.6533 0 0 0 7.8259-1.8118c.0192-.0058 0 5.6384 0 5.6384-.1608 6.5671-.8528 16.53-.8528 16.53L42.8 57.1252s-.156-10.7842-.2307-17.1464c-.0015-.13-.7821-.834-.7836-.96z"/><path fill="none" stroke="#ea5a47" stroke-linecap="round" stroke-linejoin="round" stroke-width="2" d="M46.14 61.108v-6.015"/><path fill="none" stroke="#ea5a47" stroke-linecap="round" stroke-linejoin="round" stroke-width="2" d="M48.806 60.779v-6.014"/><path fill="none" stroke="#ea5a47" stroke-linecap="round" stroke-linejoin="round" stroke-width="2" d="M51.472 60.451v-6.014"/><path fill="#d22f27" d="M58.5325 26.2869c-1.11-4.4648-5.5179-3.3408-6.6654-4.8738 0 0 1.5728-3.7014.79-6.2409-.84-2.7235-4.5033-4.4717-5.0751-4.0175a24.6416 24.6416 0 0 1-1.442 12.2777s1.0507 7.1627-3.45 12.3451c0 0 18.3283.5115 15.8425-9.4906z"/><path fill="#d22f27" d="M57.042 33.517l-5.954 22.642 4.528-.574 1.426-18.01v-4.058z"/><g fill="none" stroke="#000" stroke-width="2"><path stroke-miterlimit="10" d="M58.5325 26.2869c-.5538-3.29-3.2062-3.5652-5.06-4.0526a1.65 1.65 0 0 1-1.1647-2.0749 9.3069 9.3069 0 0 0 .3488-4.9872c-.84-2.7235-4.5033-4.4717-5.0751-4.0175a20.7541 20.7541 0 0 1-11.6084 4.017 20.7541 20.7541 0 0 1-11.6084-4.017c-.5718-.4542-4.2353 1.294-5.0751 4.0175a9.497 9.497 0 0 0 .394 5.1338 1.472 1.472 0 0 1-.9778 1.8647c-1.8562.533-4.7145.6862-5.2919 4.1162-1.1975 7.1144 3.9252 8.4664 6.6654 8.8068 7.8862.98 23.8853.8409 31.7876 0 2.7459-.2921 7.8631-1.6924 6.6656-8.8068z"/><path stroke-linecap="round" stroke-linejoin="round" d="M56.056 54.711V37.337"/><path stroke-linecap="round" stroke-linejoin="round" d="M42.8 56.118V38.743"/><path stroke-linecap="round" stroke-linejoin="round" d="M52.219 59.979v-6.014"/><path stroke-linecap="round" stroke-linejoin="round" d="M49.553 60.307v-6.014"/><path stroke-linecap="round" stroke-linejoin="round" d="M46.887 60.636v-6.015"/><path stroke-linecap="round" stroke-miterlimit="10" d="M22.98 23.4314c3.7066 1.6744 7.5693 2.1755 12.993 2.1755a25.1354 25.1354 0 0 0 7.1648-1.0878"/></g></svg>