<svg xmlns="http://www.w3.org/2000/svg" role="img" viewBox="3.75 17.75 65.00 36.38"><title>1FAAD.svg</title><path fill="#ea5a47" d="M24.1 46.2c-.4.8-.7 1.6-1 2.4L5 43.8c.7-2.4 1.7-4.9 2.8-7l16.3 9.4zm4.6-5.2c-.6.4-1.2.9-1.7 1.4L13.8 29c1.7-1.7 3.6-3.1 5.7-4.4L28.7 41zm6.7-20.9l-.1 18.7c-.8 0-1.5.1-2.2.3l-4.8-18.2c2.4-.5 4.7-.8 7.1-.8zm16.1 4l-9.3 16.3c-.7-.3-1.4-.6-2-.9L45 21.3c2.3.6 4.5 1.6 6.5 2.8zm11.9735 11.8694L47.5 45.1c-.4-.6-.8-1.2-1.3-1.7l13.2-12.9c1.6 1.7 2.7735 3.3694 4.0735 5.4694z"/><path fill="#d22f27" d="M66.3808 44.0643l-17.5079 4.3559c-.4-1.4-.9-2.6-1.7-3.7l15.945-8.9731c1.7 2.5 3.2629 8.3172 3.2629 8.3172zm-7.2416-13.9135L46.2549 43.1374c-1.1-1.3-2.4-2.3-3.9-3.1l9.1058-15.9356c3 1.6 7.9746 5.9277 7.6785 6.0491zM44.9 21.3L40 39.5c-1.3-.4-2.6-.7-4.1-.7h-.7l.1-18.7h.7c3.1 0 6.1.4 8.9 1.2zM33.2 39.1c-1.6.4-3.1 1-4.4 1.8l-9.3-16.3c2.7-1.7 5.7-2.9 8.9-3.7l4.8 18.2zM27 42.3c-1.2 1.1-2.2 2.4-2.9 3.9L7.8 36.8c1.6-2.8 3.6-5.4 5.9-7.7L27 42.3z"/><path fill="#fff" d="M23.3105 48.6424l12.6573 3.6879 12.2384-3.1065c1.0934-.2903 1.2803-1.8214.3892-2.5184l-2.3209-1.8155-2.2801-3.5462-8.0802-2.4905-7.2604 2.6921"/><g fill="none" stroke="#000" stroke-linecap="round" stroke-linejoin="round" stroke-width="2"><path d="M36.1 52l-2.4-8.9m2.4 8.9l6.9-6.8M36.1 52l2.4-9.1M36.1 52l-6.9-6.7m-2.1 4.4l9 2.3 9.2-2.1m21.3-5.3l-18.1 4.5c-1-5.9-6.1-10.4-12.3-10.4-6.1 0-11.1 4.4-12.2 10.1L6 44c3.2-13.7 15.5-23.9939 30.2-24 14.9333-.0062 27.5203 10.4777 30.4 24.6m-57.5-7l15.6 8.7M14.2 29.7l12.5 12.4m-6.8-16.6l8.7 15.1m-.1-19.2L33 38.5m2.5-17.8l-.1 17.4m9.4-16.2l-4.5 16.8m10.9-14.1l-8.7 15.1m16.3-9.1L46.5 43m16.2-6.8L47.8 45"/></g></svg>