<svg xmlns="http://www.w3.org/2000/svg" role="img" viewBox="1.05 28.92 69.16 26.66"><title>1F98E.svg</title><path fill="#B1CC33" d="M39.9167 47.3583S47.7986 45 53.8993 46.5 68 46 68 46s-7.6667.6667-15.3333-3.6667S39 40.8333 32.5 40.4167c-6.5-.4167-14.1667-4.5833-17.8333-7C11 31 8.5833 31.25 8.5833 31.25S8 32 6 33s-5 2 1 4 8.8333 5.8333 8.8333 5.8333 6 6.025 24.0834 4.525z"/><path d="M39.9167 46.5s7.8819-1.5 13.9826 0S68 46 68 46s-7.6667.6667-15.3333-3.6667S39 40.8333 32.5 40.4167c-6.5-.4167-14.1667-4.5833-17.8333-7C11 31 8.5833 31.25 8.5833 31.25S8 32 6 33s-5 2 1 4 8.8333 4.8333 8.8333 4.8333m5.5537 3.1931S27.1029 46.8333 32 46.4166M19 43l-3 7m0-2h-1m2 0l1 1m18.547-2.494l-.468 6.865m-.661-1.641l-.928.374m1.855-.748l1.258.447" fill="none" stroke="#000" stroke-linecap="round" stroke-linejoin="round" stroke-miterlimit="10" stroke-width="2"/></svg>