<svg xmlns="http://www.w3.org/2000/svg" role="img" viewBox="3.63 3.63 64.61 64.61"><title>1F9EC.svg</title><g id="color"><path fill="#92d3f5" d="M22.184 50.234H24.184V57.081H22.184z" transform="rotate(-45 23.184 53.657)"/><path fill="#ea5a47" d="M17.343 45.392H19.343V52.239000000000004H17.343z" transform="rotate(-45 18.343 48.815)"/><path fill="#92d3f5" d="M30.141 33.314H32.141V39.564H30.141z" transform="rotate(-45 31.141 36.439)"/><path fill="#ea5a47" d="M34.561 37.734H36.561V43.984H34.561z" transform="rotate(-45 35.56 40.859)"/><path fill="#92d3f5" d="M38.447 33.971H40.447V40.818H38.447z" transform="rotate(-45 39.447 37.394)"/><path fill="#ea5a47" d="M33.605 29.129H35.605V35.976H33.605z" transform="rotate(-45 34.605 32.553)"/><path fill="#92d3f5" d="M41.748 30.252L40.016 31.984 37.114 29.081 38.152 28.044 41.748 30.252z"/><path fill="#ea5a47" d="M44.038 33.767L42.919 34.886 40.016 31.984 41.748 30.252 44.038 33.767z"/><path fill="#92d3f5" d="M51.352 20.943H53.352V27.193H51.352z" transform="rotate(-45 52.352 24.068)"/><path fill="#ea5a47" d="M46.932 16.523H48.932V22.773H46.932z" transform="rotate(-45 47.932 19.648)"/><path fill="#92d3f5" d="M55.836 16.582H57.836V23.429000000000002H55.836z" transform="rotate(-45 56.836 20.006)"/><path fill="#ea5a47" d="M50.994 11.74H52.994V18.587H50.994z" transform="rotate(-45 51.994 15.164)"/><path fill="#92d3f5" d="M17.889 54.529H19.889V61.376000000000005H17.889z" transform="rotate(-45 18.889 57.952)"/><path fill="#ea5a47" d="M13.047 49.687H15.047V56.534H13.047z" transform="rotate(-45 14.047 53.11)"/><path fill="#92d3f5" d="M48.8128 31.8422c.792 3.9598.3747 8.4358-4.08 12.8905-4.4548 4.4548-8.9308 4.872-12.8905 4.08-2.1284-.4313-4.1154-1.2162-5.8761-1.9021-.2122-.0848-.4242-.1697-.6293-.2475-4.5891-1.7748-7.2407-2.4466-10.2459.5586l-4.4407 4.4407c-1.0748 1.0748-2.8143 1.0748-3.8891 0s-1.0748-2.8143 0-3.8891l4.4407-4.4407c4.0446-4.0446 8.2024-4.1436 11.9854-3.1749 1.6829.4101 3.2951 1.0465 4.7871 1.6334.5586.2192 1.0961.4313 1.6122.6223 4.5326 1.6758 7.5731 2.1142 11.2571-1.5698 3.684-3.684 3.2456-6.7245 1.5698-11.2571.5162.1909 1.0536.4031 1.6122.6223 1.4919.5869 3.1042 1.2233 4.7871 1.6334zM51.6624 6.7612c1.0748 1.0748 1.0748 2.8143 0 3.8891l-4.4407 4.4407c-3.0052 3.0052-2.3334 5.6568-.5586 10.2459-.2051-.0778-.4172-.1626-.6293-.2475-1.7607-.6859-3.7477-1.4708-5.8761-1.9021-.9687-3.783-.8697-7.9408 3.1749-11.9854l4.4407-4.4407c1.0748-1.0748 2.8143-1.0748 3.8891 0z"/><path fill="#ea5a47" d="M25.9662 46.9107c1.7607.6859 3.7477 1.4708 5.8761 1.9021.9687 3.783.8697 7.9408-3.1749 11.9854l-4.4407 4.4407c-1.0748 1.0748-2.8143 1.0748-3.8891 0s-1.0748-2.8143 0-3.8891l4.4407-4.4407c3.0052-3.0052 2.3334-5.6568.5586-10.2459.2051.0778.4172.1626.6293.2475zM65.2388 20.3376c1.0748 1.0748 1.0748 2.8143 0 3.8891l-4.4407 4.4407c-4.0446 4.0446-8.2024 4.1436-11.9854 3.1749-1.6829-.4101-3.2951-1.0465-4.7871-1.6334-.5586-.2192-1.0961-.4313-1.6122-.6223-4.5326-1.6758-7.5731-2.1142-11.2571 1.5698s-3.2456 6.7245-1.5698 11.2571c-.5162-.1909-1.0536-.4031-1.6122-.6223-1.4919-.5869-3.1042-1.2233-4.7871-1.6334-.792-3.9598-.3747-8.4358 4.08-12.8905s8.9308-4.872 12.8905-4.08c2.1284.4313 4.1154 1.2162 5.8761 1.9021.2122.0848.4242.1697.6293.2475 4.5891 1.7748 7.2407 2.4466 10.2459-.5586l4.4407-4.4407c1.0748-1.0748 2.8143-1.0748 3.8891 0z"/></g><g id="line" fill="none" stroke="#000" stroke-width="2"><g stroke-miterlimit="10"><path d="M23.1932 40.1518c-.7944-3.9626-.3766-8.4301 4.076-12.8827 6.8508-6.8508 13.7371-4.1505 18.7646-2.1779 4.9843 1.9542 7.7305 2.8277 10.8738-.3156l4.4401-4.4401c1.0738-1.0738 2.8153-1.0738 3.8891 0s1.0738 2.8153 0 3.8891l-4.4401 4.4401c-5.835 5.835-11.8986 3.4575-16.7703 1.5468-5.469-2.1448-8.7629-3.1585-12.8681.9467-3.684 3.684-3.2459 6.7149-1.5669 11.2503M31.8511 48.8057c.9568 3.7914.8586 7.946-3.1864 11.991l-4.4401 4.4401c-1.0738 1.0738-2.8153 1.0738-3.8891 0s-1.0738-2.8153 0-3.8891l4.4401-4.4401c3.0081-3.0081 2.3373-5.6531.5607-10.2439"/></g><g stroke-miterlimit="10"><path d="M40.1484 23.193c-.9565-3.7911-.8576-7.9453 3.1868-11.9897l4.4401-4.4401c1.0738-1.0738 2.8153-1.0738 3.8891 0s1.0738 2.8153 0 3.8891l-4.4401 4.4401c-3.0084 3.0084-2.337 5.6534-.5609 10.2443M48.8073 31.851c.7937 3.9617.3748 8.4283-4.0766 12.8797-6.8508 6.8508-13.7371 4.1498-18.7649 2.1783-4.9836-1.9542-7.7305-2.8277-10.8735.3152l-4.4401 4.4401c-1.0738 1.0738-2.8153 1.0738-3.8891 0s-1.0738-2.8153 0-3.8891l4.4401-4.4401c5.835-5.835 11.8982-3.4572 16.7707-1.5465 5.4683 2.1448 8.7625 3.1582 12.8678-.9471 3.6841-3.6841 3.2456-6.7147 1.5671-11.2501"/></g><path stroke-linecap="round" stroke-linejoin="round" d="M50.984 11.333L60.667 21.016M46.712 15.653L56.347 25.288M35.224 28.577L43.423 36.776M30.789 31.541L40.459 41.211M28.361 36.511L35.489 43.639M17.735 45.454L26.546 54.265M13.003 49.313L22.687 58.997"/></g></svg>