<svg xmlns="http://www.w3.org/2000/svg" role="img" viewBox="2.85 8.73 66.30 54.42"><title>1F504.svg</title><path d="M20.7713 30.421l-3.7092 4.0991c.6829-7.7072 5.6421-14.3554 12.9628-17.0134 2.1314-.774 4.3519-1.1663 6.5997-1.1663 5.4828 0 10.7603 2.375 14.4775 6.5161l.61.6795 3.8565-3.6084-.61-.6795C50.2532 14.0063 43.5725 11 36.6282 11c-2.8472 0-5.6591.4963-8.3556 1.4755-9.2075 3.3435-15.5605 11.8282-16.4322 21.5835L8.549 30.421l-3.344 3.1165 9.4546 10.4502 9.4537-10.4493-3.342-3.1174zM67 38.3473l-9.4546-10.4502-9.4537 10.4493 3.3421 3.1174 3.6932-4.0815c-.6491 7.749-5.6209 14.4422-12.9728 17.1119-2.1306.7731-4.3501 1.1654-6.5997 1.1654-5.4828 0-10.7603-2.375-14.4775-6.5157l-.61-.6795-3.8565 3.6079.61.6795C21.925 57.9933 28.6066 61 35.5509 61c2.8481 0 5.6591-.4968 8.3556-1.475 9.2481-3.3574 15.6194-11.9025 16.4463-21.7122l3.3032 3.6511L67 38.3473z" fill="#3F3F3F" stroke-linecap="round" stroke-linejoin="round" stroke-miterlimit="10" stroke-width="2"/><path d="M20.7713 30.421l-3.7092 4.0991c.6829-7.7072 5.6421-14.3554 12.9628-17.0134 2.1314-.774 4.3519-1.1663 6.5997-1.1663 5.4828 0 10.7603 2.375 14.4775 6.5161l.61.6795 3.8565-3.6084-.61-.6795C50.2532 14.0063 43.5725 11 36.6282 11c-2.8472 0-5.6591.4963-8.3556 1.4755-9.2075 3.3435-15.5605 11.8282-16.4322 21.5835L8.549 30.421l-3.344 3.1165 9.4546 10.4502 9.4537-10.4493-3.342-3.1174zM67 38.3473l-9.4546-10.4502-9.4537 10.4493 3.3421 3.1174 3.6932-4.0815c-.6491 7.749-5.6209 14.4422-12.9728 17.1119-2.1306.7731-4.3501 1.1654-6.5997 1.1654-5.4828 0-10.7603-2.375-14.4775-6.5157l-.61-.6795-3.8565 3.6079.61.6795C21.925 57.9933 28.6066 61 35.5509 61c2.8481 0 5.6591-.4968 8.3556-1.475 9.2481-3.3574 15.6194-11.9025 16.4463-21.7122l3.3032 3.6511L67 38.3473z" fill="none" stroke="#000" stroke-linecap="round" stroke-linejoin="round" stroke-miterlimit="10" stroke-width="2"/></svg>