<svg xmlns="http://www.w3.org/2000/svg" role="img" viewBox="4.44 13.19 61.62 52.49"><title>1F380.svg</title><path fill="#EA5A47" d="M57.294 16.4726c-4.9576 0-13.7529 4.8295-18.1344 9.5323.8358.8942 1.355 2.1297 1.355 3.4895-.0483 6.2816.1137 6.5231-.1576 7.6042 11.5893 3.5957 14.4851 12.5149 20.1946 4.9369 6.5154-8.648 2.8707-25.5629-3.2576-25.5629z"/><path fill="#D22F27" d="M40.5115 29.9496c4.6559-4.2405 12.2929-8.2014 16.7825-8.2014 3.3555 0 5.9664 5.0713 6.5725 11.0799.823-7.9779-2.2597-16.3555-6.5725-16.3555-4.9576 0-13.7529 4.8295-18.1344 9.5323.8358.8942 1.355 2.1297 1.355 3.4895-.0012.1558-.0022.3068-.0031.4552z"/><path fill="#EA5A47" d="M30.11 28.4898v.46c.01 1.54.01 2.7 0 3.58v2.14c0 .57.03.88.11 1.24.01.03.01.06.02.09.02.03.02.06.03.1h-.01c-7.18 2.23-11.02 6.5-14.26 7.62-1.7.59-3.24.32-5-1.56-.3-.32-.61-.7-.93-1.12-1.51-2.01-2.48-4.46-2.99-7.04v-.02c-.14-.71-.25-1.43-.32-2.15-.05-.44-.09-.88-.1-1.32-.03-.43-.04-.87-.04-1.3 0-5.56 1.77-10.85 4.38-12.87.16-.13.32-.24.49-.34.58-.34 1.2-.53 1.84-.53.61 0 1.27.07 1.98.21.23.04.46.09.69.15.21.05.43.11.65.17 4.76 1.32 10.85 4.96 14.43 8.61l-.97 3.88z"/><path fill="#D22F27" d="M30.11 28.4898v.46c-3.82-3.48-9.66-6.78-14.11-7.84-.97-.23-1.87-.36-2.67-.36-.83 0-1.61.31-2.33.87-.12.09-.23.18-.35.29-2.01 1.83-3.46 5.64-3.89 9.92-.05-.44-.09-.88-.1-1.32-.03-.43-.04-.87-.04-1.3 0-5.56 1.77-10.85 4.38-12.87.16-.13.32-.24.49-.34.58-.34 1.2-.53 1.84-.53.61 0 1.27.07 1.98.21.23.04.46.09.69.15.21.05.43.11.65.17 4.76 1.32 10.85 4.96 14.43 8.61l-.97 3.88z"/><path fill="#EA5A47" d="M30.2974 36.8198c-1.2433.4498-2.3699.9827-3.4001 1.5558-2.2091 2.9385-6.1227 8.8343-10.3118 18.2197-.3339.7478.1772 1.6439.8543 1.496l4.8211-1.054c.6993-.1529 1.3995.2638 1.7428 1.0375l2.1714 4.8934c.38.8563 1.4067.6854 1.5923-.2651.9416-4.8245 3.1008-15.2418 5.7176-22.2669-1.5431-.3283-2.787-1.7591-3.1876-3.6164zm13.8482 1.6128c-1.0626-.6085-2.206-1.1647-3.4429-1.6129-.4006 1.8573-1.6446 3.2882-3.1877 3.6164 2.6169 7.0251 4.7762 17.4424 5.7177 22.2669.1855.9505 1.2123 1.1214 1.5923.2651l2.1715-4.8934c.3433-.7734 1.0435-1.1903 1.7428-1.0375l4.8211 1.054c.6771.1479 1.1882-.7481.8543-1.496-4.1623-9.3253-8.0525-15.2051-10.2691-18.1626z"/><path fill="#EA5A47" d="M35.8394 22.7182h-1.6787c-2.2335 0-4.0505 2.3813-4.0505 5.3087v6.6448c0 2.9274 1.817 5.3088 4.0505 5.3088h1.6787c2.2335 0 4.0505-2.3815 4.0505-5.3088v-6.6448c.0001-2.9274-1.817-5.3087-4.0505-5.3087z"/><path fill="#D22F27" d="M39.5468 24.6244c.5888.922.9436 2.1089.9436 3.4025v6.6448c0 2.9274-1.817 5.3088-4.0505 5.3088h-1.6787c-.5522 0-1.0787-.146-1.5588-.4094 1.4619-.8019 2.4917-2.6958 2.4917-4.8994v-6.6448c0-2.2036-1.0298-4.0974-2.4917-4.8993.4801-.2634 1.0066-.4094 1.5588-.4094h1.6787c1.2466 0 2.3633.7417 3.1069 1.9062z"/><g fill="none" stroke="#000" stroke-miterlimit="10"><path stroke-width="1.992" d="M59.056 16.1044c-.5572-.3152-1.1471-.4855-1.762-.4855-2.2168 0-5.2008.9656-8.2145 2.4537M40.357 36.2449c11.5893 3.5957 14.4851 12.5149 20.1946 4.9369 5.8616-7.7802 3.4998-22.2515-1.4956-25.0774m-9.9765 1.9683c-3.7261 1.8399-7.4976 4.4786-9.9199 7.0785M30.11 28.4898v.46c.01 1.54.01 2.7 0 3.58 0 1.02-.01 1.67 0 2.14 0 .57.03.88.11 1.24 0 .02.01.03.01.05.02.04.03.09.04.14h-.01c-7.18 2.23-11.02 6.5-14.26 7.62-1.7.59-3.24.32-5-1.56-.3-.32-.61-.7-.93-1.12-1.51-2.01-2.48-4.46-2.99-7.04-.14-.72-.25-1.44-.32-2.17-.05-.44-.09-.88-.1-1.32-.03-.43-.04-.87-.04-1.3 0-5.56 1.77-10.85 4.38-12.87.16-.13.32-.24.49-.34.58-.34 1.2-.53 1.84-.53.61 0 1.27.07 1.98.21.23.04.46.09.69.15.21.05.43.11.65.17 4.76 1.32 10.85 4.96 14.43 8.61"/><path stroke-linecap="round" stroke-linejoin="round" stroke-width="2" d="M30.2974 36.8198c-1.2433.4498-2.3699.9827-3.4001 1.5558-2.2091 2.9385-6.1227 8.8343-10.3118 18.2197-.3339.7478.1772 1.6439.8543 1.496l4.8211-1.054c.6993-.1529 1.3995.2638 1.7428 1.0375l2.1714 4.8934c.38.8563 1.4067.6854 1.5923-.2651.9416-4.8245 3.1008-15.2418 5.7176-22.2669-1.5431-.3283-2.787-1.7591-3.1876-3.6164zm13.8482 1.6128c-1.0626-.6085-2.206-1.1647-3.4429-1.6129-.4006 1.8573-1.6446 3.2882-3.1877 3.6164 2.6169 7.0251 4.7762 17.4424 5.7177 22.2669.1855.9505 1.2123 1.1214 1.5923.2651l2.1715-4.8934c.3433-.7734 1.0435-1.1903 1.7428-1.0375l4.8211 1.054c.6771.1479 1.1882-.7481.8543-1.496-4.1623-9.3253-8.0525-15.2051-10.2691-18.1626z"/><path stroke-width="2" d="M35.8394 22.7182h-1.6787c-2.2335 0-4.0505 2.3813-4.0505 5.3087v6.6448c0 2.9274 1.817 5.3088 4.0505 5.3088h1.6787c2.2335 0 4.0505-2.3815 4.0505-5.3088v-6.6448c.0001-2.9274-1.817-5.3087-4.0505-5.3087z"/></g></svg>