<svg xmlns="http://www.w3.org/2000/svg" role="img" viewBox="21.07 11.32 29.86 48.49"><title>1F9C2.svg</title><path fill="#fff" d="M47.005 23.6808q-.0165-.1244-.0344-.2486c-.6379-4.42-3.0608-8.2535-7.464-9.6336-4.6024-1.4424-10.3.3264-12.82 4.5724-1.69 2.847-1.5438 6.097-1.7552 9.2756-.1392 2.0924-.2538 4.1868-.3806 6.28l-.91 15.01C23.61 49.45 23.1764 58 23.0915 58h26c-.65-10.7276-1.2233-21.46-1.8875-32.1728-.044-.7172-.104-1.4338-.199-2.1464z"/><path fill="#d0cfce" d="M47.204 25.8272c-.0445-.7175-.1045-1.4339-.199-2.1464q-.0163-.1244-.0344-.2486c-.6379-4.42-3.0609-8.2536-7.464-9.6336a11.4619 11.4619 0 0 0-5.43-.3033 10.62 10.62 0 0 1 1.27.3033c4.4031 1.38 6.8261 5.2141 7.464 9.6336q.018.1242.0344.2486c.0945.7125.1545 1.4289.199 2.1464C43.7082 36.54 44.2813 47.2724 44.9315 58h4.16c-.6502-10.7276-1.2233-21.46-1.8875-32.1728z"/><path fill="none" stroke="#000" stroke-linecap="round" stroke-linejoin="round" stroke-width="2" d="M47.005 23.6808q-.0165-.1244-.0344-.2486c-.6379-4.42-3.0608-8.2535-7.464-9.6336-4.6024-1.4424-10.3.3264-12.82 4.5724-1.69 2.847-1.5438 6.097-1.7552 9.2756-.1392 2.0924-.2538 4.1868-.3806 6.28l-.91 15.01C23.61 49.45 23.1764 58 23.0915 58h26c-.65-10.7276-1.2233-21.46-1.8875-32.1728-.044-.7172-.104-1.4338-.199-2.1464z"/><g><circle cx="36.611" cy="17.576" r="1.47"/><circle cx="39.731" cy="19.656" r="1.47"/><circle cx="33.492" cy="19.656" r="1.47"/></g></svg>