<svg xmlns="http://www.w3.org/2000/svg" role="img" viewBox="11.04 11.04 49.79 49.79"><title>E281.svg</title><path fill="#FCEA2B" d="M36 13c-12.6823 0-23 10.3177-23 23 0 12.6822 10.3177 23 23 23 12.6822 0 23-10.3178 23-23 0-12.6823-10.3178-23-23-23z"/><circle cx="36" cy="36" r="23" fill="none" stroke="#000" stroke-miterlimit="10" stroke-width="2"/><path fill="none" stroke="#000" stroke-linecap="round" stroke-linejoin="round" stroke-miterlimit="10" stroke-width="2" d="M47.472 24.5833c-.449.2959-2.431 1.5305-5.0607 1.0799-2.1334-.3656-3.4503-1.6274-3.8834-2.0815M24.528 24.5833c.449.2959 2.431 1.5305 5.0607 1.0799 2.1334-.3656 3.4503-1.6274 3.8834-2.0815"/><path stroke="#000" stroke-miterlimit="10" stroke-width="2" d="M41 45c0 2.2091-2.7909 4-5 4s-5-1.7909-5-4 2.7909-3 5-3 5 .7909 5 3z"/><path d="M30 31c0 1.6568-1.3448 3-3 3-1.6553 0-3-1.3433-3-3 0-1.6552 1.3447-3 3-3 1.6552 0 3 1.3448 3 3m18 0c0 1.6568-1.3447 3-3 3s-3-1.3433-3-3c0-1.6552 1.3447-3 3-3s3 1.3448 3 3"/></svg>