<svg xmlns="http://www.w3.org/2000/svg" role="img" viewBox="2.72 12.59 66.69 47.56"><title>1FA90.svg</title><circle cx="36.146" cy="36.428" r="22.543" fill="#ea5a47"/><path fill="#d22f27" d="M52.5238 20.931a22.5441 22.5441 0 0 1-36.2417 26.1447A22.5423 22.5423 0 1 0 52.5238 20.931z"/><path fill="#f1b31c" d="M52.7935 22.7551c7.6746-.9256 13.1384-.0236 14.1918 2.8489C68.8256 30.6221 56.51 39.7536 39.4777 46S7.1461 53.2415 5.3059 48.2235c-1.07-2.9183 2.6472-7.2279 9.2958-11.552l.0766 1.5538c-2.5091 2.2523-3.7143 4.3411-3.1382 5.9122 1.4336 3.909 13.3515 3.1334 26.6194-1.7323s22.8616-11.9789 21.428-15.8879c-.5527-1.5073-2.6644-2.3181-5.8112-2.4664z"/><g fill="none" stroke="#000" stroke-linecap="round" stroke-linejoin="round" stroke-width="2"><path d="M17.1562 46.5937a21.5389 21.5389 0 1 1 38.7705-18.6872m1.7504 9.2576a21.5552 21.5552 0 0 1-34.892 16.1641"/><path d="M52.7935 22.7551c7.6746-.9256 13.1384-.0236 14.1918 2.8489C68.8256 30.6221 56.51 39.7536 39.4777 46S7.1461 53.2415 5.3059 48.2235c-1.07-2.9183 2.6472-7.2279 9.2958-11.552"/><path d="M53.7763 24.0509c3.1468.1483 5.2585.9591 5.8112 2.4664 1.4336 3.909-8.16 11.0223-21.428 15.8879S12.9737 48.0465 11.54 44.1375c-.5761-1.5711.6291-3.66 3.1382-5.9122"/></g></svg>