<svg xmlns="http://www.w3.org/2000/svg" role="img" viewBox="8.59 2.46 54.70 66.95"><title>1F3D1.svg</title><path fill="#a57939" d="M28.0173 62.7147c-2.6148 4.3359-8.2494 5.7311-12.5853 3.1163s-5.7311-8.2494-3.1163-12.5853l-.0479.0795c1.3431-2.2271 4.2373-2.9438 6.4644-1.6007s2.9438 4.2373 1.6007 6.4644c-.5394.8945-.2516 2.057.6429 2.5964s2.057.2516 2.5964-.6429l.0104-.0168L56.3124 5.842c.5834-.9674 1.8521-1.2815 2.8195-.6981l.4397.2652.4397.2652c.9674.5834 1.2815 1.8521.6981 2.8195L27.9771 62.7814l.0402-.0667z"/><path fill="#6A462F" d="M15.6043 51.8464c2.2271 1.3431 2.9438 4.2373 1.6006 6.4644-.5394.8945-.2516 2.057.6429 2.5964.8869.5349 2.0356.2546 2.5808-.6221-.4382-.597-.5021-1.4224-.0957-2.0963 1.3431-2.2271.6264-5.1214-1.6007-6.4645-1.3087-.7892-2.8417-.85-4.161-.3283.3536.1105.7018.2506 1.0331.4504zm44.407-46.1722l-.4397-.2651-.0349-.021-34.6876 57.5153.0402-.0667c-1.3668 2.2665-3.5609 3.72-5.9612 4.2267 3.5151.4774 7.1403-1.1175 9.0889-4.3481L61.4438 9.2281c.5834-.9674-.4652-2.9705-1.4325-3.5539z"/><circle cx="52.246" cy="60.869" r="5" fill="#EA5A47"/><path fill="#D22F27" d="M54.9365 56.6588c.4978.7773.7901 1.699.7901 2.6905 0 2.7614-2.2386 5-5 5-.9916 0-1.9132-.2923-2.6905-.7902.8886 1.3874 2.44 2.3094 4.2099 2.3094 2.7614 0 5-2.2386 5-5-.0001-1.7697-.9221-3.3212-2.3095-4.2097z"/><g fill="none" stroke="#000" stroke-linecap="round" stroke-linejoin="round" stroke-miterlimit="10" stroke-width="2"><circle cx="52.246" cy="60.869" r="5"/><path d="M58.208 12.5205L28.0173 62.7147h0c-2.6148 4.3359-8.2494 5.7311-12.5853 3.1163s-5.7311-8.2494-3.1163-12.5853l-.0479.0795c1.3431-2.2271 4.2373-2.9438 6.4644-1.6007s2.9438 4.2373 1.6007 6.4644c-.5394.8945-.2516 2.057.6429 2.5964s2.057.2516 2.5964-.6429l.0104-.0168L56.3124 5.842c.5834-.9674 1.8521-1.2815 2.8195-.6981l.4397.2652.4397.2652c.9674.5834 1.2815 1.8521.6981 2.8195l-.385.6385"/></g></svg>