<svg xmlns="http://www.w3.org/2000/svg" role="img" viewBox="8.07 11.82 54.99 49.12"><title>F77A.svg</title><path d="M37.82387 40.77141L26.45594 21.076 15.088 40.77141zM10.95 47.9507l4.23975 7.314c.82768 1.65535 2.5506 2.78708 4.5269 2.78708h28.09046l-5.82754-10.10108zm50.1.05067c0-1.01348-.30405-1.9594-.81079-2.7364l-16.45226-28.631c-.84457-1.60468-2.53371-2.68573-4.47623-2.68573h-8.69909l25.42161 44.05286 4.00327-6.94237c.8108-1.33443 1.01349-1.90874 1.01349-3.05736z" fill="#92d3f5"/><path d="M37.82387 40.77141L26.45594 21.076 15.088 40.77141zM10.95 47.95046l4.23975 7.314v0c.82768 1.65535 2.5506 2.78708 4.5269 2.78708v0h28.09046l-5.82754-10.10108zm50.1.05067c0-1.01348-.30405-1.9594-.81079-2.7364l-16.45226-28.631c-.84457-1.60468-2.53371-2.68573-4.47623-2.68573h-8.69909l25.42161 44.05286 4.00327-6.94238c.8108-1.33442 1.01349-1.90873 1.01349-3.05735z" fill="none" stroke="#000" stroke-linecap="round" stroke-width="2"/></svg>