<svg xmlns="http://www.w3.org/2000/svg" role="img" viewBox="14.72 3.09 43.31 60.06"><title>1F46F.svg</title><path fill="#9b9b9a" d="M22.727 13.085l-3-8h2l4 6m3 2l2-3 2 2-4-4-3 3m17.916 2l-3-8h2l4 6m3 2l2-3 2 2-4-4-3 3"/><path d="M32.727 12.085l-1-4h-3m24.916 4l-1-4h-3"/><g fill="#fcea2b"><circle cx="25.696" cy="14.179" r="3"/><path d="M29.7274 27.0849l-.6185 6 1.6185 5 2 12 2.7 11h-3.3l-3.4-11-3-11h-1l-1.4 22h-3.3l-.3-23 1.5006-5.8774-.5006-5.1226s0-2-1 0l1 2v3l-3-3v-5l3-2 1-1h7l2 1 1 2 1 3-2 4h-1m21-4l-.6026 6 1.6026 5 2 12 2.7 11h-3.3l-3.4-11-3-11h-1l-1.4 22h-3.3l-.3-23 1.66-5.9493-.66-5.0507s0-2-1 0l1 2v3l-3-3v-5l3-2 1-1h7l2 1 1 2 1 3-2 4h-1"/><circle cx="46.612" cy="14.179" r="3"/></g><g fill="none" stroke="#000"><circle cx="25.696" cy="14.179" r="3" stroke-miterlimit="10" stroke-width="2"/><path stroke-linecap="round" stroke-linejoin="round" stroke-width="1.6" d="M22.727 13.085l-3-8h2l4 6m3 2l2-3 2 2-4-4-3 3"/><path stroke-linecap="round" stroke-linejoin="round" stroke-width="1.6" d="M32.727 12.085l-1-4h-3"/><circle cx="46.612" cy="14.179" r="3" stroke-miterlimit="10" stroke-width="2"/><path stroke-linecap="round" stroke-linejoin="round" stroke-width="1.6" d="M43.643 13.085l-3-8h2l4 6m3 2l2-3 2 2-4-4-3 3"/><path stroke-linecap="round" stroke-linejoin="round" stroke-width="1.6" d="M53.643 12.085l-1-4h-3"/><path stroke-linecap="round" stroke-linejoin="round" stroke-width="2" d="M29.7274 27.0849v4a24.3894 24.3894 0 0 0 .3926 3.9609l.2148 1.0782c.2158 1.0781.541 2.8486.7217 3.9337l1.3418 8.0546c.1807 1.085.5439 2.8466.8057 3.9151l1.747 7.1152c.2618 1.0683-.2656 1.9423-1.1728 1.9423a2.6669 2.6669 0 0 1-2.2412-1.9111l-2.2188-7.1778c-.3252-1.0517-.8271-2.7793-1.1172-3.8408l-1.9472-7.1406c-.29-1.0615-.751-1.93-1.0264-1.93s-.5576.8984-.627 1.9962l-1.1464 18.008a2.0027 2.0027 0 0 1-1.7774 1.9961 1.8858 1.8858 0 0 1-1.6758-2l-.247-19a27.042 27.042 0 0 1 .3027-3.9727l.3418-2.0546a29.2506 29.2506 0 0 0 .3291-3.9727v-3m30 0v4a26.59 26.59 0 0 0 .36 3.9668l.1953 1.0664c.1982 1.0811.5088 2.8545.6894 3.94l1.3418 8.0546c.1807 1.085.544 2.8467.8057 3.9151l1.748 7.1153c.2617 1.0683-.2656 1.9423-1.1738 1.9423a2.6669 2.6669 0 0 1-2.2412-1.9111l-2.2184-7.1783c-.3252-1.0517-.8271-2.7793-1.1172-3.8408l-1.947-7.1406c-.29-1.0615-.751-1.93-1.0264-1.93s-.5576.8984-.6269 1.9962L44.37 59.0888a2.0027 2.0027 0 0 1-1.7764 1.9961 1.8858 1.8858 0 0 1-1.6758-2l-.248-19a25.1141 25.1141 0 0 1 .3291-3.9678l.373-2.0644a27.0137 27.0137 0 0 0 .3555-3.9678v-3"/><path stroke-linecap="round" stroke-linejoin="round" stroke-width="2" d="M20.2274 32.8359l-2.8848-4.1133a2.9346 2.9346 0 0 1 .0574-3.2334l2.121-2.8086a4.5462 4.5462 0 0 1 3.2061-1.5957h6a3.5548 3.5548 0 0 1 2.8945 1.7891l1.211 2.4219a3.9983 3.9983 0 0 1-.1573 3.49l-2.6572 4.2987m11.2919.0003l-3.0537-4.3613a2.94 2.94 0 0 1 .06-3.2344l2.1211-2.8086a4.5458 4.5458 0 0 1 3.206-1.5957h6a3.5547 3.5547 0 0 1 2.8945 1.7891l1.211 2.4219a4.0814 4.0814 0 0 1-.1309 3.5058l-2.558 4.2832"/></g></svg>