<svg xmlns="http://www.w3.org/2000/svg" role="img" viewBox="3.76 19.76 64.35 31.35"><title>1F3DF.svg</title><path fill="#D0CFCE" d="M66 34l-4 15H10L6 34zm0 0c0-10.4934-19.5066-8-30-8S6 23.5066 6 34h60z"/><path fill="#D0CFCE" d="M14 31c0-10.4934 15.704-6 22-6s22-4.4934 22 6H14z"/><path fill="#D0CFCE" d="M25 33.5733c0-18.3823 8.4816-9.1724 11-9.1724 2.5184 0 12-9.2099 12 9.1724H25z"/><path fill="#92D3F5" d="M41 49c0-10.4934-2.9013-12-5-12s-5 1.5066-5 12h10z"/><g fill="none" stroke="#000" stroke-linecap="round" stroke-linejoin="round" stroke-miterlimit="10" stroke-width="2"><path d="M66 33.9998l-4 15H41c0-10.49-2.9-12-5-12s-5 1.51-5 12H10l-4-15c0-4.88 4.23-6.95 9.81-7.78 2.31-2.16 6.51-2.36 10.68-2.08 2.55-4.75 7.65.26 9.51.26 1.85 0 7.47-4.98 10.32-.31 3.9-.19 7.71.11 9.87 2.13 5.58.8299 9.81 2.9 9.81 7.78zM41 49H31m27-18.0002c0-2.18-.68-3.71-1.81-4.78m-40.38 0c-1.13 1.07-1.81 2.6-1.81 4.78"/><path d="M48 33.5698c0-3.54-.35-6.06-.94-7.82l-.74-1.66m-19.83.05l-.64 1.61c-.53 1.76-.85 4.28-.85 7.82m-12 15.43v-6c0-.55.45-1 1-1m5 7v-6c0-.55.45-1 1-1m5 7v-6c0-.55.45-1 1-1m31 7v-6c0-.55.45-1 1-1m-7 7v-6c0-.55.45-1 1-1m-7 7v-6c0-.55.45-1 1-1m-5 7H31c0-10.49 2.9-12 5-12s5 1.51 5 12z"/></g></svg>