<svg xmlns="http://www.w3.org/2000/svg" role="img" viewBox="5.84 5.84 60.19 60.19"><title>1F31A.svg</title><circle cx="36" cy="36" r="28" fill="#3f3f3f" stroke="#3f3f3f" stroke-linecap="round" stroke-linejoin="round" stroke-width="2"/><path stroke="#000" stroke-miterlimit="10" stroke-width=".204" d="M29 62c20.0033 0 16.6634-52 16.6634-52s24.9582 7 16.6388 35S13.4011 62 29 62z" opacity=".4"/><circle cx="26.5" cy="27.5" r="5" fill="#fff" stroke-linecap="round" stroke-linejoin="round"/><circle cx="45.5" cy="27.5" r="5" fill="#fff"/><g stroke="#000" stroke-linecap="round" stroke-linejoin="round"><path stroke-width=".25" d="M34 37h4v2h-4z"/><path fill="none" stroke-width="2" d="M36 64a28 28 0 0 1 0-56m0 0a28 28 0 0 1 0 56"/><path fill="none" stroke-width="2" d="M36 39.5c1.1046 0 2.5-.8954 2.5-2H34a2 2 0 0 0 2 2zm-9.08 6.42s3.705 3.389 9.652 3.771c6.942.3136 10.42-3.695 10.42-3.695"/><circle cx="26.5" cy="27.5" r="5" fill="none" stroke-width="2"/><circle cx="45.5" cy="27.5" r="5" fill="none" stroke-width="2"/><circle cx="45.5" cy="27.5" r="5" fill="none"/><circle cx="47.75" cy="27.75" r="1.75" stroke-width="2"/><circle cx="26.5" cy="27.5" r="5" fill="none"/><circle cx="28.75" cy="27.75" r="1.75" stroke-width="2"/></g></svg>