<svg xmlns="http://www.w3.org/2000/svg" role="img" viewBox="10.00 10.00 51.87 51.87"><title>1F192.svg</title><path fill="#d0cfce" stroke-miterlimit="10" stroke-width="2" d="M59.0349 60H12.9651c-.5308 0-.9651-.4343-.9651-.9651V12.9651c0-.5308.4343-.9651.9651-.9651h46.0698c.5308 0 .9651.4343.9651.9651v46.0698c0 .5308-.4343.9651-.9651.9651z"/><g fill="none" stroke="#000" stroke-miterlimit="10" stroke-width="2"><path d="M59.0349 60H12.9651c-.5308 0-.9651-.4343-.9651-.9651V12.9651c0-.5308.4343-.9651.9651-.9651h46.0698c.5308 0 .9651.4343.9651.9651v46.0698c0 .5308-.4343.9651-.9651.9651z"/><path stroke-linecap="round" stroke-linejoin="round" d="M47.946 32.027v8h3.429m-19.4198-.0003h0c-1.5779 0-2.8571-1.2792-2.8571-2.8571v-2.2857c0-1.5779 1.2792-2.8571 2.8571-2.8571h0c1.5779 0 2.8571 1.2792 2.8571 2.8571v2.2857c0 1.5779-1.2792 2.8571-2.8571 2.8571zm9.1295 0h0c-1.5779 0-2.8571-1.2792-2.8571-2.8571v-2.2857c0-1.5779 1.2792-2.8571 2.8571-2.8571h0c1.5779 0 2.8571 1.2792 2.8571 2.8571v2.2857c.0001 1.5779-1.2791 2.8571-2.8571 2.8571zm-14.7072-.719c-.5044.4473-1.168.719-1.8952.719h0c-1.5779 0-2.8571-1.2792-2.8571-2.8571v-2.2857 2.2857-2.2857c0-1.5779 1.2792-2.8571 2.8571-2.8571h0c.7272 0 1.3909.2717 1.8952.7191"/></g></svg>