<svg xmlns="http://www.w3.org/2000/svg" role="img" viewBox="26.21 5.71 19.45 60.45"><title>E345.svg</title><g stroke-width=".626"><path fill="#a57939" d="M40.62156 11.47528l.05536-3.52656-9.07299.02718-.0292 3.39763 1.4359 1.90358a3.2864 3.2864 0 0 1 .64085 1.97943l-.06585 27.66896h4.65405l.26076-27.492a3.23331 3.23331 0 0 1 .83222-2.16776z"/><path fill="#d0cfce" d="M35.99532 43.46712v20.02176c-2.30554-.01986-4.79435-1.08375-7.36533-2.6089l-.24724-17.41792z"/><path fill="#9b9b9a" d="M43.6046 43.46712V60.9988l-7.61307 2.83136V43.46712z"/></g><g fill="none" stroke="#000" stroke-linecap="round" stroke-linejoin="round" stroke-width="2"><path d="M40.8 11.51l.057-3.538-9.34.02726-.03006 3.409 1.478 1.91a3.383 3.297 0 0 1 .6597 1.986l-.0678 27.75h4.792l.2685-27.58a3.328 3.243 0 0 1 .8568-2.174zm2.81 49.51V43.48l-15.23.001s.2472 17.38.2472 17.42l.5058.4658c3.928 3.495 9.924 3.555 13.92.1382z"/><path d="M31.84 43.48l2.733 6.094c.6533.9651 2.095.9978 2.793.0634l2.801-6.157"/></g></svg>