<svg xmlns="http://www.w3.org/2000/svg" role="img" viewBox="11.52 11.40 49.83 50.83"><title>2693.svg</title><path fill="#d0cfce" stroke-linecap="round" stroke-linejoin="round" stroke-miterlimit="10" stroke-width="2" d="M54.215 34.1095l-5.2701 9.12h3.1702c-2.4101 5.55-7.6001 9.37-13.5801 10.07v-23.88h4c1.2053 0 2.1704-1.0684 1.9747-2.3241-.154-.9877-1.0771-1.6759-2.0766-1.6759H38.535v-2.41c2.0104-.891 3.3423-3.0605 2.9227-5.4805-.3413-1.9684-1.8948-3.5908-3.8506-3.9978-3.2277-.6717-6.0721 1.7782-6.0721 4.8883 0 2.05 1.24 3.81 3 4.59v2.41h-3.898c-.9996 0-1.9227.6882-2.0766 1.6759-.1958 1.2557.7694 2.3241 1.9746 2.3241h4v23.88c-5.9299-.71-11.1699-4.56-13.58-10.07h3.1001l-5.2701-9.12-5.27 9.12h3.28c0 .24.0541.4652.13.71 2.6723 8.6078 16.5632 15.1685 19.0988 16.3038.2569.1151.5388.1164.7966.0034 2.5781-1.1294 16.8623-7.7541 19.5846-17.0172h3.08l-5.27-9.12zm-17.68-16.69c.5501 0 1 .45 1 1s-.4499 1-1 1c-.55 0-1-.45-1-1s.45-1 1-1z"/><path fill="none" stroke="#000" stroke-linecap="round" stroke-linejoin="round" stroke-miterlimit="10" stroke-width="2" d="M54.215 34.1095l-5.2701 9.12h3.1702c-2.4101 5.55-7.6001 9.37-13.5801 10.07v-23.88h4c1.2053 0 2.1704-1.0684 1.9747-2.3241-.154-.9877-1.0771-1.6759-2.0766-1.6759H38.535v-2.41c2.0104-.891 3.3423-3.0605 2.9227-5.4805-.3413-1.9684-1.8948-3.5908-3.8506-3.9978-3.2277-.6717-6.0721 1.7782-6.0721 4.8883 0 2.05 1.24 3.81 3 4.59v2.41h-3.898c-.9996 0-1.9227.6882-2.0766 1.6759-.1958 1.2557.7694 2.3241 1.9746 2.3241h4v23.88c-5.9299-.71-11.1699-4.56-13.58-10.07h3.1001l-5.2701-9.12-5.27 9.12h3.28c0 .24.0541.4652.13.71 2.6723 8.6078 16.5632 15.1685 19.0988 16.3038.2569.1151.5388.1164.7966.0034 2.5781-1.1294 16.8623-7.7541 19.5846-17.0172h3.08l-5.27-9.12zm-17.68-16.69c.5501 0 1 .45 1 1s-.4499 1-1 1c-.55 0-1-.45-1-1s.45-1 1-1z"/></svg>