<svg xmlns="http://www.w3.org/2000/svg" role="img" viewBox="2.72 2.72 66.43 66.43"><title>1F6A2.svg</title><path fill="#ea5a47" d="M68 26.0871H32.9622c-.5314 0-.9622.391-.9622.8733v2.4004h36v-3.2737z"/><path fill="#fff" d="M68 25.0871H46.7416l6.1518-13.0284c.1277-.31.4055-.5086.7113-.5086H68"/><path fill="#3f3f3f" d="M32 29.3608s13.4044 6.7981 15.6724 22.2469c.0637.4344.4686.7673.9515.7673H68V29.3608m-4.854-17.8107V5.8734c0-.4824.3239-.8734.7235-.8734h2.261c.3996 0 .7235.391.7235.8734v5.6767h-3.708z"/><path fill="#3f3f3f" d="M32 29.3608s10.4044 6.7981 12.6724 22.2469c.0637.4344.4686.7673.9515.7673H67"/><path fill="#ea5a47" d="M67 25.625H32.9622c-.5314 0-.9622.391-.9622.8734v2.4004h35"/><path fill="none" d="M67 26.0871H45.7416l7.1518-14.0284c.1277-.31.4055-.5086.7113-.5086H68m.005 36.5029L68 68"/><path fill="#92d3f5" d="M68 47v21H4V47h1c3 0 9 3 15 3s10-3 16-3 11 3 16 3 7-3 15-3h1z"/><g fill="none" stroke="#000" stroke-linecap="round" stroke-linejoin="round" stroke-width="2"><path d="M63.146 11.5501V5.8734c0-.4824.3239-.8734.7235-.8734h2.261c.3996 0 .7235.391.7235.8734v5.6767h-3.708zm-9.423 4.8039h10.654m-12.842 4.093h12.842M32 29.3608s8.8829 5.804 12.0224 18.8735M53.723 16.354h10.654m-12.842 4.093h12.842M67 25.625H32.9622c-.5314 0-.9622.391-.9622.8734v2.4004h35"/><path d="M66 25.625H45.7416l7.1518-13.5663c.1277-.31.4055-.5086.7113-.5086H67M53.723 16.354h10.654m-12.842 4.093h12.842m-10.654-4.093h10.654m-12.842 4.093h12.842M5 47c3 0 9 3 15 3s10-3 16-3 11 3 16 3 7-3 15-3"/></g></svg>