<svg xmlns="http://www.w3.org/2000/svg" role="img" viewBox="6.32 10.32 61.36 48.86"><title>1F9F6.svg</title><circle cx="30.806" cy="34.822" r="22.224" fill="#f4aa41"/><path fill="#e27022" d="M43.2943 15.8254c-6.2393 2.6787-12.0117 8.0346-12.0117 17.646s2.7688 16.8558 11.31 19.955c5.712-4.986 11.01-8.8868 11.01-18.4984S47.09 18.8793 43.2943 15.8254z"/><g fill="none" stroke="#000" stroke-linecap="round" stroke-linejoin="round" stroke-width="2"><circle cx="30.806" cy="34.822" r="22.224"/><path d="M43.92 17.0156a22.124 22.124 0 0 1-13.1141 4.28 22.1238 22.1238 0 0 1-13.1232-4.2865"/><path d="M46.7354 19.6607c-3.3016 4.46-9.726 8.3615-15.9293 8.3615a21.241 21.241 0 0 1-16.21-8.2991"/><path d="M49.1487 22.6555c-2.8242 6.4865-10.5142 12.0936-18.3426 12.0936a21.24 21.24 0 0 1-18.4633-11.6882"/><path d="M51.2308 26.4248c-2.6184 8.1809-11.28 15.0511-20.4247 15.0511a22.361 22.361 0 0 1-20.5554-14.815"/><path d="M52.559 30.5513a22.2316 22.2316 0 0 1-21.7529 17.6514A22.6412 22.6412 0 0 1 8.8738 31.2144M45.1424 51.971c1.3165.9452 3.7331 3.6351 6.6276 3.6753s5.5935-3.1506 7.0575-2.3287c2.6065 1.4632 3.7516 3.7282 6.6919 3.7746"/><path d="M37.8184 55.8438a22.7078 22.7078 0 0 1-14.0976-21.0217 22.2316 22.2316 0 0 1 14.1184-20.6993"/><path d="M41.5632 15.8254a22.2229 22.2229 0 0 0-11.1753 18.9967A21.8953 21.8953 0 0 0 41.66 53.9286"/><path d="M44.5777 17.8248a22.926 22.926 0 0 0-7.5227 16.9973c0 6.904 2.8854 13.414 8.0874 17.1489"/></g></svg>