<svg xmlns="http://www.w3.org/2000/svg" role="img" viewBox="2.33 7.96 67.21 53.59"><title>E147.svg</title><rect width="62.599" height="38.705" x="4.7" y="20.147" fill="#d0cfce" rx="3.409" ry="3.409"/><rect width="9.003" height="15.673" x="31.396" y="10.599" fill="#9b9b9a" rx="1.557" ry="1.557"/><path fill="#9b9b9a" d="M17.4032 30.6509h37.7033a5.7472 5.7472 0 0 1 5.7472 5.7472v14.3041a2.9184 2.9184 0 0 1-2.9184 2.9184H12.783a2.9184 2.9184 0 0 1-2.9184-2.9184V38.1894a7.5386 7.5386 0 0 1 7.5386-7.5385z"/><rect width="48" height="19.731" x="11.474" y="31.367" fill="#fff" rx="2.918" ry="2.918"/><g fill="none" stroke="#000" stroke-width="2"><path stroke-linecap="round" stroke-linejoin="round" d="M40.5015 20.6474h23.389A3.4091 3.4091 0 0 1 67.3 24.0566v31.8868a3.4091 3.4091 0 0 1-3.4091 3.4092H8.11a3.4091 3.4091 0 0 1-3.41-3.4092V24.0566a3.4091 3.4091 0 0 1 3.41-3.4092h23.286"/><rect width="48" height="19.731" x="11.474" y="31.367" stroke-linecap="round" stroke-linejoin="round" rx="2.918" ry="2.918"/><path stroke-linecap="round" stroke-linejoin="round" d="M52.396 38.141h-4v7h4m-4-3.5h3m-17 3.5l-3-7-3 7m1-1.676h4m-14 1.676v-7l5 7v-7m20 7v-7l-3 6-3-6v7"/><rect width="9.003" height="15.673" x="31.499" y="10.237" stroke-miterlimit="10" rx="1.557" ry="1.557"/></g></svg>