<svg xmlns="http://www.w3.org/2000/svg" role="img" viewBox="16.65 7.02 40.95 57.20"><title>E087.svg</title><g id="color"><path fill="#fff" d="M35.507 28.964L37.932 32.731 37.741 29.831 35.507 28.964zM28.383 43.703L30.299 41.24 30.664 39.324 31.668 40.784 31.485 44.798 28.383 43.703z"/><path fill="#9b9b9a" d="M18.494 46.107L29.697 46.107 29.697 51.728 41.132 51.728 41.132 57.349 52.371 57.349 52.371 62.853 18.494 62.853 18.494 46.107z"/></g><g id="skin" fill="#fcea2b"><path d="m30.2458,35.1754l-.8973,3.1093c-.2684.8665-.7483,1.6525-1.3964,2.2871l-4.0583,3.6811c-.7142.5966-1.758.5787-2.4513-.0421-.3967-.7606-.2775-1.6878.2987-2.3233l4.1637-4.6711.3187-2.0831,4.0222.0421Z"/><path d="m26.6156,19.4248c.9881-.908,2.2418-1.4745,3.5762-1.6161,2.309,0,2.8981,1.4336,3.0842,3.0314l.0311,2.4916v7.1007l3.487,4.9631c.2229.9307.2886,1.8921.1944,2.8445l-.3742,9.2773c-.0109.8421-.6689,1.5334-1.5094,1.586-.8716.024-1.5976-.6631-1.6216-1.5346-.0006-.0222-.0008-.0444-.0004-.0666l-.2389-9.97-5.6953-5.66c-.6094-.8199-.9368-1.8152-.9331-2.8368,0,0,0-9.6105,0-9.6105Z"/><circle cx="34.124" cy="12.467" r="3.266"/></g><g id="line" fill="none" stroke="#000" stroke-linecap="round" stroke-linejoin="round" stroke-width="2"><path d="M30.2458 35.1754l-.8973 3.1093c-.2684.8665-.7483 1.6525-1.3964 2.2871l-4.0583 3.6811c-.7142.5966-1.758.5787-2.4513-.0421-.3967-.7606-.2775-1.6878.2987-2.3233l4.1637-4.6711.3187-2.0831M18.824 46.107L29.697 46.107 29.697 51.728 41.132 51.728 41.132 57.349 52.371 57.349 52.371 62.193"/><path d="M33.3071 27.6766v2.7558l3.487 4.9631c.2229.9307.2886 1.8921.1944 2.8445l-.3742 9.2773c-.0109.8421-.6689 1.5334-1.5094 1.586-.8716.024-1.5976-.6631-1.6216-1.5346-.0006-.0222-.0008-.0444-.0004-.0666l-.2389-9.97-5.6953-5.66c-.6094-.8199-.9368-1.8152-.9331-2.8368v-5.3953M40.923 32.217L55.608 38.79"/><path d="M40.2627 28.2575l-6.9556-3.936-.0311-3.4815c-.1861-1.5978-.7752-3.0314-3.0842-3.0314-3.2685 0-7.3183 4.1-7.3183 5.8843v6.1942M30.8582 12.4667c0-1.8035 1.4621-3.2656 3.2656-3.2656s3.2656 1.4621 3.2656 3.2656-1.4621 3.2656-3.2656 3.2656h0"/></g></svg>