<svg xmlns="http://www.w3.org/2000/svg" role="img" viewBox="2.96 34.46 66.95 24.07"><title>1F68C.svg</title><path fill="#EA5A47" d="M17.9247 53.9753l-6.625-1.017s-1.0625 0-1.0625-1.25-.0625-3.5625-.0625-3.5625.6832-9.4798 2.625-10.625c1.625-.9583 46.544-.7036 53.1365-.5781.4728.009.8668.3478.9496.8133.2375 1.3354.6809 4.0966.7264 6.3273.0625 3.0625-.125 8-.125 8l-4.7646 1.7952"/><path fill="#3F3F3F" d="M13.1331 38.0833s-2.3125 3.1667-2.125 9.0417c0 0 3.9166 1.4583 9.9791-4.3125l42.9375 1.3125s2.2292-1.2292 2.3334-6.2917c0 0-45.875-2.1666-53.125.25z"/><path fill="none" d="M50.341 53.061l-20.166-.054"/><circle cx="56.48" cy="53.292" r="3" fill="#D0CFCE"/><circle cx="23.98" cy="53.292" r="3" fill="#D0CFCE"/><path fill="#3F3F3F" d="M40.487 40.318h5.063v12.667h-5.063z"/><path fill="#FCEA2B" d="M11.1591 50.6562h2.5783l1.0723-2.3125h-2.8795c-.4259 0-.7711.3992-.7711.8916v1.4209z"/><g fill="none" stroke="#000" stroke-linecap="round" stroke-linejoin="round" stroke-miterlimit="10" stroke-width="2"><path d="M17.9247 52.9753l-6.625-.017s-1.0625 0-1.0625-1.25-.0625-3.5625-.0625-3.5625.6832-9.4798 2.625-10.625c1.625-.9583 46.544-.7036 53.1365-.5781.4728.009.8668.3478.9496.8133.2375 1.3354.6809 4.0966.7264 6.3273.0625 3.0625-.125 8-.125 8l-4.7646.7952m-12.3816.1825l-20.166-.054"/><path d="M11.3 40.5l-4.563.313L5.3 44.125"/><circle cx="56.48" cy="53.292" r="3"/><circle cx="23.98" cy="53.292" r="3"/><path d="M45.5493 43.0283l18.1254.1592s.0142-.0017.0403-.0069m-50.4368 3.1303s4.0241-.9494 7.709-3.4984l19.5.1713"/><path d="M17.9247 52.9753l-6.625-.017s-1.0625 0-1.0625-1.25-.0625-3.5625-.0625-3.5625.6832-9.4798 2.625-10.625c1.625-.9583 46.544-.7036 53.1365-.5781.4728.009.8668.3478.9496.8133.2375 1.3354.6809 4.0966.7264 6.3273.0625 3.0625-.125 8-.125 8"/><path d="M40.487 40.318h5.063v12.667h-5.063zM11.159 50.656h2.578l1.073-1.361"/></g></svg>