<svg xmlns="http://www.w3.org/2000/svg" role="img" viewBox="6.91 8.91 56.81 56.19"><title>E085.svg</title><g id="skin" fill="#fcea2b"><path d="M27.2646 44.9249l-5.2875 4.873c-.998.8487-2.1085 1.5554-3.3 2.1l-6.85 2.84c-1.0385.3762-2.1952-.0727-2.708-1.051-.3284-1.1236.2152-2.3183 1.2781-2.8089l7.4659-4.1523 4.4669-6.7372 4.9346 4.9364zM38.2887 22.9679c.0769-1.6449-.8817-3.1627-2.4-3.8-1.6-.6-4-.4-6 3.6l-5.1 9.2c-.6218 1.1727-.964 2.4732-1 3.8h0c.076 1.2473.6102 2.4226 1.5 3.3l8.77 8.3c.8939.9378 1.4861 2.1222 1.7 3.4l1.3 10.34c.2 1.1.8036 2 2 2 1.009-.0678 1.7719-.9407 1.7041-1.9497-.0011-.0168-.0025-.0336-.0041-.0503l-.2-13.34c-.0715-1.2896-.4121-2.55-1-3.7l-4.57-7.27c-.6972-1.227-1.0051-2.6369-.8829-4.0428l4.1829-9.7872zM52.4384 36.7979l4.57 7.6c.5879 1.15.9285 2.4104 1 3.7l.2 13.01c.0956 1.0067-.643 1.9003-1.6497 1.9959-.0168.0016-.0335.003-.0503.0041-1.1535 0-1.8-.9-2-2l-1.3-10.01c-.2139-1.2778-.8061-2.4622-1.7-3.4l-7.5093-7.1069c-1.4087-1.3672-2.4043-3.342-1.7459-7.0311l2.5078-5.7907c1.3838-2.488 2.9193-5.256 3.4268-6.1983.654-1.6745 2.3028-2.7458 4.0986-2.663 2.9 0 4.4127 3.6152 4.4127 8.5632 0 2.6268-.9661 3.4846-2.2935 3.4846-.6439-.0529-1.2632-.2715-1.7977-.6345l-.1695 6.4767z"/><circle cx="40.429" cy="14.633" r="3.543"/><circle cx="58.209" cy="14.633" r="3.543"/></g><g id="skin-shadow" fill="#f1b31c"><path d="M33.4786 55.438l-4.4033 1.9405c-1.1027.5162-2.4159.0593-2.96-1.03-.3336-1.0873.1393-2.2597 1.134-2.8112l5.3683-3.1564.861 5.0571zM39.5587 43.738l1.1313-2.862 4.7949 4.95-4.8765 4.95c.2314-2.3966-.1291-4.8133-1.0497-7.038z"/></g><g id="color" fill="#fff"><path d="M36.111 31.413L37.77 32.846 40.182 32.846 40.182 36.314 40.484 38.199 38.976 39.631 37.317 36.314 36.186 33.298 36.111 31.413zM27.185 47.967L29.128 46.149 32.013 48.594 28.564 50.287 27.185 47.967z"/></g><g id="line" fill="none" stroke="#000" stroke-linecap="round" stroke-linejoin="round" stroke-width="2"><path d="m29.2471,43.0979l-7.27,6.7c-.998.8487-2.1085,1.5554-3.3,2.1l-6.85,2.84c-1.0385.3762-2.1952-.0727-2.708-1.051-.3284-1.1236.2152-2.3183,1.2781-2.8089l7.4659-4.1523,4.2008-6.3357"/><path d="m38.2887,22.9679c.0769-1.6449-.8817-3.1627-2.4-3.8-1.6-.6-4-.4-6,3.6l-5.1,9.2c-.6218,1.1727-.964,2.4732-1,3.8h0c.076,1.2473.6102,2.4226,1.5,3.3l8.77,8.3c.8939.9378,1.4861,2.1222,1.7,3.4l1.3,10.34c.2,1.1.8036,2,2,2,1.009-.0678,1.7719-.9407,1.7041-1.9497-.0011-.0168-.0025-.0336-.0041-.0503l-.2-13.34c-.0715-1.2896-.4121-2.55-1-3.7l-4.57-7.27c-.6972-1.227-1.0051-2.6369-.8829-4.0428"/><path d="M45.2288 31.0877l-5.02-.99c-1.3262-.201-2.5062-.952-3.25-2.0683l-2.63-4.9317M51.7888 23.0682l-2.0588 6.5472c-.5378 1.786.4268 3.4645 2.5609 4.2469 0 0 3.6555 1.2354 4.5027 1.5134 1.2347.4052 2.65 2.963 2.65 2.963"/><path d="M44.761 27.7692c1.3838-2.488 2.9193-5.256 3.4268-6.1983.654-1.6745 2.3028-2.7458 4.0986-2.663 2.9 0 4.4127 3.6152 4.4127 8.5632 0 2.6268-.9693 3.4846-2.26 3.4846-.656-.0423-1.2884-.2605-1.8309-.6317M52.4384 36.7979l4.57 7.6c.5879 1.15.9285 2.4104 1 3.7l.2 13.01c.0956 1.0067-.643 1.9003-1.6497 1.9959-.0168.0016-.0335.003-.0503.0041-1.1535 0-1.8-.9-2-2l-1.3-10.01c-.2139-1.2778-.8061-2.4622-1.7-3.4l-7.5093-7.1069c-1.4087-1.3672-2.4043-3.342-1.7459-7.0311M47.4372 43.8448l-6.8284 6.9316M40.69 40.876l-1.1317 2.862M33.4786 55.438l-4.4033 1.9405c-1.1027.5162-2.4159.0593-2.96-1.03-.3336-1.0873.1393-2.2597 1.134-2.8112l5.3683-3.1564M36.8854 14.6334c0-1.957 1.5864-3.5434 3.5434-3.5434s3.5434 1.5864 3.5434 3.5434-1.5864 3.5434-3.5434 3.5434h0M54.6651 14.6334c0-1.957 1.5864-3.5434 3.5434-3.5434s3.5434 1.5864 3.5434 3.5434-1.5864 3.5434-3.5434 3.5434h0"/></g></svg>