<svg xmlns="http://www.w3.org/2000/svg" role="img" viewBox="18.45 7.57 35.73 54.86"><title>1F442.svg</title><path fill="#fcea2b" d="M25.1071 19.7483C29.7321 2.2067 61 7 49.7113 35.665c-14.5919 35.7917-32.7917 24.6771-29.7292 13"/><path d="M45.6875 35.6144C49.3512 13.7369 31.125 18.375 29.6819 23.9375c3.9743-15.875 24.0915-9.5924 16.0056 11.6769zm-11.5246-7.9807c4.4385 7 8.3371 13.9079 2.3371 16.6163-1.3969.5735-2.8765.4132-4.3824 1.1735-1.5343.7223-1.8192 1.3265-3.6385 3.2848-2.5625 2.0625-5.7708-1.5465-3.9583-3.6875 3.0729-3.3958 6.4479-3.9271 4.6667-7.2083-1.2187-2.2047.4957-5.0277 4.402-3.9027" fill="#f1b31c"/><g fill="none" stroke="#000" stroke-linecap="round" stroke-linejoin="round" stroke-miterlimit="10" stroke-width="2"><path d="M26.125 19.625C30.75 2.0833 61 7.875 49.6875 35.9583c-14.5919 35.7917-31.875 25-28.8125 13.3229"/><path d="M35.1031 28C39.5417 35 42.5 41.5417 36.5 44.25c-1.3969.5735-2.8765.4132-4.3824 1.1735-1.5343.7223-1.8192 1.3265-3.6385 3.2848-2.5625 2.0625-5.7708-1.5465-3.9583-3.6875 3.0729-3.3958 6.4479-3.9271 4.6667-7.2083-1.2187-2.2047-.4062-5.2812 3.5-4.1562m-3.0056-9.7188c3.9744-15.875 24.8326-10.2582 15.2399 11.1183"/></g></svg>