<svg xmlns="http://www.w3.org/2000/svg" role="img" viewBox="24.76 3.76 22.35 64.35"><title>E143.svg</title><path fill="#EA5A47" d="M45 66H27V28h9l9-3z"/><path fill="#D22F27" d="M33 66l12-33v33z"/><path fill="#D0CFCE" d="M45 25v11H27v-8h9zm-9 3v7"/><path fill="#F1B31C" stroke-linecap="round" stroke-linejoin="round" stroke-miterlimit="10" stroke-width="2" d="M35 17.7143C35 20.8571 33.2091 25 31 25s-4-4.1429-4-7.2857C27 11.8865 31 9 31 6c0 3 4 5.4286 4 11.7143z"/><g fill="none" stroke="#000" stroke-linecap="round" stroke-linejoin="round" stroke-miterlimit="10" stroke-width="2"><path d="M45 66H27V28h9l9-3zM35 17.7143C35 20.8571 33.2091 25 31 25s-4-4.1429-4-7.2857C27 11.8865 31 9 31 6c0 3 4 5.4286 4 11.7143z"/><path d="M35 17.7143C35 20.8571 33.2091 25 31 25s-4-4.1429-4-7.2857C27 11.8865 31 9 31 6c0 3 4 5.4286 4 11.7143zM27 35h18m-9-7v3"/></g></svg>