<svg xmlns="http://www.w3.org/2000/svg" role="img" viewBox="2.72 14.72 66.43 42.43"><title>1F1FB-1F1EC.svg</title><path fill="#1e50a0" d="M5 17h62v38H5z"/><path fill="#1e50a0" d="M5 17h31v19H5z"/><path fill="#fff" d="M9.5 36H5l26.5-19H36z"/><path fill="#fff" d="M36 32.5L5 17v3.5L36 36z"/><path fill="#d22f27" d="M36 33.5L5 18v1.5L36 35z"/><path fill="#d22f27" d="M8.5 36H6l26.5-19H35z"/><path fill="#d22f27" d="M36 25H22v-8h-3v8H5v3h14v8h3v-8h14v-3z"/><path d="M5 28h14v8m0-19v8H5m31 0H22v-8m0 19v-8h14" fill="none" stroke="#fff" stroke-linejoin="round"/><path fill="#fcea2b" d="M57.4518 44.7545c-4.5023 3.939-9.0187 3.8068-13.3557.1308-.4754.112-.8438.3264-1.1072.2357-.6456-.2222-.704-.8505-.1978-1.3206a8.0456 8.0456 0 0 0 .9669-.9378c.3463-.4526.6265-.3777.9966-.0522a19.9329 19.9329 0 0 0 1.9685 1.6365 7.357 7.357 0 0 0 9.6994-1.4055c.6294-.7476.8221-.7463 1.4606-.0087a3.6555 3.6555 0 0 0 .6087.6286c.4793.3369.7014.7127.3 1.2333-.32.4154-.7352.3809-1.34-.1401z"/><path fill="#186648" d="M50.6427 27.723h-5.0756a1.8626 1.8626 0 0 0-1.8626 1.8626v10.7523c0 2.0873 4.749 3.7429 6.389 4.2524a1.84 1.84 0 0 0 1.0983 0c1.64-.5095 6.389-2.1651 6.389-4.2524V29.5856a1.8626 1.8626 0 0 0-1.8625-1.8626z"/><circle cx="55.215" cy="30.246" r=".631" fill="#fcea2b"/><circle cx="55.215" cy="32.138" r=".631" fill="#fcea2b"/><circle cx="55.215" cy="34.031" r=".631" fill="#fcea2b"/><circle cx="55.215" cy="35.923" r=".631" fill="#fcea2b"/><circle cx="55.215" cy="37.815" r=".631" fill="#fcea2b"/><circle cx="55.215" cy="39.707" r=".631" fill="#fcea2b"/><circle cx="46.385" cy="30.246" r=".631" fill="#fcea2b"/><circle cx="51.116" cy="29.931" r=".946" fill="#ffa7c0"/><circle cx="46.385" cy="32.138" r=".631" fill="#fcea2b"/><circle cx="46.385" cy="34.031" r=".631" fill="#fcea2b"/><circle cx="47.647" cy="35.923" r=".631" fill="#fcea2b"/><circle cx="46.385" cy="37.815" r=".631" fill="#fcea2b"/><circle cx="46.385" cy="39.707" r=".631" fill="#fcea2b"/><circle cx="50.17" cy="41.599" r=".631" fill="#fcea2b"/><circle cx="51.431" cy="41.599" r=".631" fill="#fcea2b"/><path fill="none" stroke="#ffa7c0" stroke-linecap="round" stroke-linejoin="round" stroke-width=".631" d="M49.854 32.454l-1.892 2.523"/><rect width="3.154" height="10.092" x="49.46" y="31.508" fill="#fff" rx="1.155" ry="1.155"/><path fill="none" stroke="#ffa7c0" stroke-linecap="round" stroke-linejoin="round" stroke-width=".631" d="M52.377 32.454l.586 3.445"/><path fill="#a57939" stroke="#a57939" stroke-linecap="round" stroke-linejoin="round" stroke-width=".631" d="M52.081 29.1231a.9461.9461 0 0 0-1.338 0l1.338 1.338a.9461.9461 0 0 0 0-1.338z"/><g><path fill="none" stroke="#000" stroke-linecap="round" stroke-linejoin="round" stroke-width="2" d="M5 17h62v38H5z"/></g></svg>