<svg xmlns="http://www.w3.org/2000/svg" role="img" viewBox="10.00 9.87 52.13 52.13"><title>E206.svg</title><path fill="#61B2E4" d="M12.069 12.235h48.338v47.864H12.069z"/><g fill="none" stroke="#000" stroke-linecap="round" stroke-linejoin="round" stroke-miterlimit="10" stroke-width="2"><path d="M59.1766 59.9266l-45.9998.1466c-.5523.0018-1.0014-.4445-1.0032-.9968l-.1466-45.9998c-.0018-.5523.4445-1.0014.9968-1.0032l45.9998-.1466c.5523-.0018 1.0014.4445 1.0032.9968l.1466 45.9998c.0018.5523-.4445 1.0014-.9968 1.0032zM19.062 27.048L36.036 18m17.026 8.952L36.036 18"/><path d="M30.0226 53.0078v-22h8.3889c3.0263 0 5.4793 2.4533 5.4793 5.4796h0c0 3.0263-2.453 5.4793-5.4793 5.4793h-8.3889"/></g></svg>