<svg xmlns="http://www.w3.org/2000/svg" role="img" viewBox="17.67 2.05 35.66 69.16"><title>1FA71.svg</title><path fill="#b399c8" d="M23.1141 22.5l3.5 16.5-6.5 14.5c7.4469 3.4679 11.7477 8.9461 13.175 15.5h4.65c.5613-6.3319 5.6639-11.2823 13.175-15.5l-6.5-14.5 4.05-16.5c-1.55 6-22.55 7-25.55 0z"/><path fill="#8967aa" d="M44.8859 4.5s6.6123 18.22 2 21c-3.9956 2.4081-16.822 2.8488-22 0-5.8774-3.2336 2-21 2-21-.2888.29-2.0408 4.0444 2 12 6.1492 6.2577 8.1287 6.8691 13 0 5.2049-9.105 3.1913-11.8579 3-12z"/><g fill="none" stroke="#000" stroke-linecap="round" stroke-linejoin="round" stroke-width="2"><path d="M23.1141 22.5l3.5 16.5-6.5 14.5c7.4469 3.4679 11.7477 8.9461 13.175 15.5h4.65c.5613-6.3319 5.6639-11.2823 13.175-15.5l-6.5-14.5 4.05-16.5"/><path d="M45.1218 4.5s6.6123 18.22 2 21c-3.9956 2.4081-16.822 2.8488-22 0-5.8774-3.2336 2-21 2-21s-3.4311 4.2216 2 12c4.1942 6.0068 9.225 6.4472 13 0 4.9764-8.4991 3-12 3-12z"/></g></svg>