<svg xmlns="http://www.w3.org/2000/svg" role="img" viewBox="14.59 9.34 40.31 53.56"><title>1F428.svg</title><path fill="#9b9b9a" d="M33.671 13.1667l-5.2981 1.0741c-1.8836.5825-5.036.132-6.5999-.1535-.622-.1136-1.2588.0091-1.7969.3412l-.7979.4924c-1.3183.8136-2.121 2.2521-2.121 3.8012 0 .4826.1293.9565.3744 1.3722l.242.4104a7.9865 7.9865 0 0 0 4.1338 3.4435l.6664.244.5607 1.2304a8.9201 8.9201 0 0 0 2.5401 3.2627l.8531.6834-.6532 2.4645-1.2611 6.6238 1.2611 6.3762.3906 1.3859s1.5916 1.6313 2.3299 2.0307l.4258 3.3333.1212 1.9521c.0765 1.2316.3701 2.4399.8673 3.5692l.1333.3029c.7011 1.5924 1.9593 2.2451 3.6054 2.8086l2.9162-.1477s3.474.307 4.3559.1292c.6954-.1402 6.3215-2.5837 6.3215-2.5837s4.6112-4.4254 5.1625-8.3512.7095-8.8683-.9862-12.2225c-1.6957-3.3541-4.5391-7.1481-4.5391-7.1481l-2.1037-3.4937-2.7711-2.4818s-2.25-.6667-2.75 0-.4811-2.4202-.4811-2.4202l.4598-.1204c1.6888-.4424 3.0021-1.7679 3.4369-3.4587.1918-.7459.3604-1.4521.4178-1.8339.0128-.0855.021-.1793.025-.2794.0819-2.0169-1.3696-3.7827-3.3293-4.2662-.7956-.1963-1.6226-.2439-2.2963.0662-1.9626.9035-3.8159 1.5628-3.8159 1.5628z"/><path fill="#3f3f3f" d="M30.046 19.542l-1.833 1.625v2.416l1.505 1.834h1.911l.709-1.459-.167-2.916-2.125-1.5z"/><path fill="#d0cfce" d="M33.2985 29.1427s3.2267 1.1698.6642 3.3573-3.3125 4.8125-3.3125 4.8125l.5 4.9375-1.4322 4.7531-.4428 1.5594s-3.1875-1.375-4.0625-4.1875-.6868-6.6751-.6868-6.6751l2.2492-7.8281 6.5234-.7291z"/><g fill="none" stroke="#000" stroke-width="2"><ellipse cx="30.319" cy="22.573" stroke-miterlimit="9.999" rx="2.168" ry="3.124" transform="rotate(-10.248 30.32 22.573)"/><path stroke-linecap="round" stroke-linejoin="round" d="M29.718 29.8718c3.0586-.2054 7.1509-1.8162 8.3837-3.5592s.6715-4.8163.6715-4.8163c4.1661-.085 3.8936-3.1148 3.9398-6.6981.0466-3.6123-4.2196-3.3423-4.2196-3.3423-1.8815-.085-4.8601 2.3639-4.8601 2.3639-5.3989-.6802-9.1055 1.5278-9.1905 1.6554 0 0-2.0885-2.0015-4.2053-1.5048 0 0-5.2238 1.059-2.935 6.0958 2.5587 5.631 5.0901 3.718 5.0901 3.718s.9305 6.5171 7.3254 6.0876zm3.4136 2.311c-.085.2551-4.1642 2.4082-1.8115 10.179l-2.113 6.1217a13.0035 13.0035 0 0 0-.6889 5.0133l.0818 1.3795c.116 1.9558.952 3.8854 2.5426 5.0294 4.1465 2.9821 6.2598-1.6811 6.7751-2.7554.6364-1.327-.4461-3.0488-2.177-2.6161m4.5786-21.3124l.7242 3.5918a4.65578 4.65578 0 0 1-.4923 3.1781l-2.0778 3.7471"/><path stroke-linecap="round" stroke-linejoin="round" d="M46.8791 50.0563s-9.0974-5.739-12.4558-.2551c-.7194 1.1747-1.0896 2.2557-1.2273 3.2293m-6.1601-23.1587s-5.5566 8.1245-.1749 15.6562m13.1773 15.3859c-1.3177.143-2.7591.0637-4.2978-.3655"/><path stroke-linecap="round" stroke-linejoin="round" d="M42 24.8333c2.4884.7826 3.621 2.0388 4.8791 5.0588 7.7875 8.5881 7.9542 20.1068 1.3604 26.7534 0 0-3.2138 3.7271-8.2012 4.2684"/></g></svg>