<svg xmlns="http://www.w3.org/2000/svg" role="img" viewBox="5.84 5.84 60.19 60.19"><title>1F1F0.svg</title><circle cx="36" cy="36" r="27.5" fill="#fff"/><circle cx="36" cy="36" r="28" fill="none" stroke="#000" stroke-linejoin="round" stroke-width="2"/><path stroke="#000" stroke-linejoin="round" stroke-width="2" d="M37.3163 31.4598l7.7462-8.7889c.3652-.4141.3252-1.0464-.0889-1.4111-.4141-.3652-1.0449-.3252-1.4111.0889L29.2344 37.6055V22.0123c0-.5522-.4473-1-1-1s-1 .4478-1 1v28c0 .5522.4473 1 1 1s1-.4478 1-1v-9.3826l6.6624-7.5591 8.9802 17.412c.1777.3442.5273.5415.8896.5415.1543 0 .3105-.0356.457-.1113.4912-.2529.6836-.856.4307-1.3472l-9.338-18.1057h0z"/></svg>