<svg xmlns="http://www.w3.org/2000/svg" role="img" viewBox="6.90 29.90 57.07 27.07"><title>1F3EA.svg</title><path fill="#E27022" d="M9 38h53v17H9z"/><path fill="#92D3F5" d="M14 45h10v10H14zm14 0h10v10H28zm10 0h10v10H38zm10 0h10v10H48z"/><ellipse cx="19" cy="37" fill="#FFF" rx="7" ry="5"/><g fill="none" stroke="#000" stroke-miterlimit="10"><path stroke-linecap="round" stroke-linejoin="round" stroke-width="2" d="M26 38h36v17H9V38h3"/><path stroke-linecap="round" stroke-linejoin="round" stroke-width="2" d="M14 45h10v10H14zm5 10V45m9 0h10v10H28zm10 0h10v10H38zm10 0h10v10H48z"/><ellipse cx="19" cy="37" stroke-width="2" rx="7" ry="5"/><path stroke-linecap="round" stroke-linejoin="round" stroke-width=".857" d="M16.577 35.9892c.0859-.4199.4575-.7358.9028-.7358h0c.2544 0 .4848.1032.6516.2699.2594.2594.2355.6905-.0079.9649l-1.5652 1.7652h1.843m2.3767-3.0004l-1.115 2.521h1.755m-.289-.929v1.408"/></g></svg>