<svg xmlns="http://www.w3.org/2000/svg" role="img" viewBox="5.84 21.22 60.19 29.44"><title>267E.svg</title><path fill="#9b9b9a" stroke="#9b9b9a" stroke-width="2" d="M36 39.44c-4.335 4.335-8.841 9.096-15.73 9.096-7.141 0-12.24-5.271-12.24-12.58.05558-7.058 5.863-12.67 12.92-12.54 6.29 0 10.97 4.973 15.05 9.054 4.335-4.336 8.841-9.054 15.73-9.054 7.226 0 12.24 5.229 12.24 12.54-.05592 7.058-5.863 12.75-12.92 12.62-6.29 0-10.97-5.057-15.05-9.137zm-3.4-3.444c-3.315-3.06-6.801-7.522-11.73-7.522-4.129.0055-7.475 3.351-7.48 7.48-.2047 4.113 3.108 7.584 7.226 7.522 4.844.0005 8.754-4.166 11.98-7.48zm26.01-.0417c.205-4.113-3.108-7.543-7.226-7.48-4.846 0-8.756 4.165-11.99 7.48 3.315 3.06 6.8 7.522 11.73 7.522 4.129-.0057 7.476-3.393 7.482-7.522z"/><g stroke="#000" stroke-linecap="round" stroke-width="2"><path fill="none" d="M36 32.51c4.335-4.336 8.841-9.096 15.73-9.096 7.226 0 12.24 5.271 12.24 12.58-.05592 7.058-5.863 12.71-12.92 12.58-5.006 0-8.99-3.178-12.47-6.532m-2.581-2.564c-4.335 4.335-8.841 9.096-15.73 9.096-7.141 0-12.24-5.271-12.24-12.58.05558-7.058 5.863-12.71 12.92-12.58 5.02 0 9.012 3.194 12.49 6.558m-3.476 3.475c-2.586-2.503-5.447-4.932-9.102-4.932-4.129.0055-7.474 3.351-7.48 7.48-.2047 4.113 3.108 7.542 7.226 7.48 4.844.0005 8.754-4.166 11.98-7.48m9.401 2.521c2.594 2.513 5.462 4.959 9.129 4.959 4.129-.0052 7.476-3.351 7.482-7.48h.0004c.2047-4.113-3.108-7.542-7.226-7.48-4.846 0-8.756 4.165-11.99 7.48"/><path stroke-linejoin="round" d="M32.6 36l3.4-3.49m0 6.98L39.4 36"/></g></svg>