<svg xmlns="http://www.w3.org/2000/svg" role="img" viewBox="11.04 11.04 49.79 49.79"><title>1F61D.svg</title><path fill="#FCEA2B" d="M36 13c-12.6823 0-23 10.3177-23 23 0 12.6822 10.3177 23 23 23 12.6822 0 23-10.3178 23-23 0-12.6823-10.3178-23-23-23z"/><path fill="#FFF" d="M41.6682 46.5925c2.018-1.0892 3.6277-2.7511 4.4969-4.7746-1.9847.9853-6.1585 1.5931-10.5745 1.5426-4.0546-.0464-7.7116-.6408-9.5171-1.5426h-.2385c.939 2.1647 2.7178 3.8986 4.9168 4.9729"/><path fill="#EA5A47" d="M41.5772 42.818c0 6.0751-2.5324 11-5.6562 11-3.1239 0-5.6563-4.9249-5.6563-11"/><g fill="none" stroke="#000" stroke-miterlimit="10" stroke-width="2"><circle cx="36" cy="36" r="23"/><path stroke-linecap="round" stroke-linejoin="round" d="M24 27c2.3334 1.3333 4.6666 2.6667 7 4-2.3334 1.3333-4.6666 2.6667-7 4m24-8c-2.3334 1.3333-4.6666 2.6667-7 4 2.3334 1.3333 4.6666 2.6667 7 4M30.7517 46.7908c-2.199-1.0742-3.9778-2.8081-4.9168-4.9729m20.3301.0001c-.8692 2.0234-2.4789 3.6854-4.4969 4.7746M26.0734 41.818c1.8055.9018 5.4625 1.4962 9.5171 1.5426 4.4161.0505 8.5899-.5572 10.5745-1.5426"/><path stroke-linejoin="round" d="M41.6597 42.818c0 6.0751-2.5324 11-5.6562 11s-5.6563-4.9249-5.6563-11"/></g></svg>