<svg xmlns="http://www.w3.org/2000/svg" role="img" viewBox="8.98 10.98 53.17 47.92"><title>E1C8.svg</title><path fill="#9B9B9A" d="M16.564 17.064h37.685l3.125 10.847h2.758v14.086h-3.171l-6.572 14.982h-31.16L13.255 42.77h-2.206V26.532h2.206z"/><circle cx="25.388" cy="29.275" r="5.883" fill="#D0CFCE"/><circle cx="27.41" cy="46.11" r="4.044" fill="#D0CFCE"/><circle cx="44.322" cy="36.023" r="7.85" fill="#D0CFCE"/><path fill="#FFF" d="M20.75 15.9438c0-1.5947 1.1753-2.8875 2.625-2.8875S26 14.349 26 15.9438m2.625 0c0-1.5947 1.1753-2.8875 2.625-2.8875s2.625 1.2928 2.625 2.8875m2.625 0c0-1.5947 1.1753-2.8875 2.625-2.8875s2.625 1.2928 2.625 2.8875m2.625 0c0-1.5947 1.1753-2.8875 2.625-2.8875s2.625 1.2928 2.625 2.8875"/><g fill="none" stroke="#000" stroke-linecap="round" stroke-linejoin="round" stroke-miterlimit="10" stroke-width="2"><path d="M16.564 17.064h37.685l3.125 10.847h2.758v14.086h-3.171l-6.572 14.982h-31.16L13.255 42.77h-2.206V26.532h2.206z"/><circle cx="25.388" cy="29.275" r="5.883"/><circle cx="27.41" cy="46.11" r="4.044"/><circle cx="44.322" cy="36.023" r="7.85"/><path d="M25.388 23.392l18.934 4.781m-24.817 1.1019s2.2519 14.9967 3.8605 18.4436c1.6085 3.4468 4.0443 2.4358 4.0443 2.4358 4.0443-.3677 20.9103-7.3842 20.9103-7.3842M20.75 15.9438c0-1.5947 1.1753-2.8875 2.625-2.8875S26 14.349 26 15.9438m2.625 0c0-1.5947 1.1753-2.8875 2.625-2.8875s2.625 1.2928 2.625 2.8875m2.625 0c0-1.5947 1.1753-2.8875 2.625-2.8875s2.625 1.2928 2.625 2.8875m2.625 0c0-1.5947 1.1753-2.8875 2.625-2.8875s2.625 1.2928 2.625 2.8875"/></g></svg>