<svg xmlns="http://www.w3.org/2000/svg" role="img" viewBox="11.67 9.67 49.54 56.29"><title>21A9.svg</title><path fill="#3F3F3F" d="M38.6553 12.8414H22.7344v3.4189h15.9208c7.3628 0 16.1395 3.214 16.1395 18.5264 0 11.6068-5.3478 17.4921-15.8958 17.4921H21.0742l5.5427-5.0903-2.0293-2.21-9.8013 9.0097 9.8013 8.9927 2.0293-2.209-5.5248-5.0743H38.899c12.4552 0 19.3146-7.4262 19.3146-20.911.0001-13.9463-7.1289-21.9452-19.5583-21.9452z"/><path d="M38.655 10.8413H22.7346c-1.1045 0-2 .8955-2 2v3.4189c0 1.1045.8955 2 2 2H38.655c9.3823 0 14.1396 5.5601 14.1396 16.5264 0 10.5693-4.4155 15.4922-13.8955 15.4922H26.2087l1.7612-1.6172c.8135-.7471.8672-2.0122.1201-2.8257l-2.0293-2.21c-.3589-.3911-.8584-.623-1.3887-.6455-.5239-.0239-1.0474.1665-1.438.5254l-9.8013 9.0098c-.4121.3794-.647.9136-.6465 1.4736s.2354 1.0942.6479 1.4727l9.8013 8.9922c.3838.3525.8682.5264 1.3516.5264.5405 0 1.0791-.2178 1.4731-.6465l2.0293-2.209c.3589-.3916.5479-.9082.5254-1.4385s-.2544-1.0293-.645-1.3877l-1.7432-1.6006H38.899c13.5454 0 21.3145-8.3511 21.3145-22.9116.0001-14.9936-8.059-23.9453-21.5585-23.9453zm.244 44.8564H21.0921l5.5248 5.0743-2.0293 2.209-9.8013-8.9927 9.8013-9.0097 2.0293 2.21-5.5427 5.0903H38.899c10.5479 0 15.8958-5.8854 15.8958-17.4921 0-15.3124-8.7767-18.5264-16.1395-18.5264H22.7344v-3.4189h15.9208c12.4294 0 19.5584 7.9988 19.5584 21.9453.0001 13.4847-6.8594 20.9109-19.3146 20.9109z"/></svg>