<svg xmlns="http://www.w3.org/2000/svg" role="img" viewBox="6.94 1.31 50.50 61.75"><title>1F462.svg</title><g id="color"><path fill="#6a462f" d="M10.113 50.156L10.247 60.95 19.888 61.229 21.082 50.176"/><path fill="#6a462f" d="M10.369 52.98L11.043 60.958 18.882 60.958 19.556 54.724"/><path fill="#a57939" d="m50.3692,52.6627c5.0161.1894,5,8.2957,5,8.2957h-24.9957l-8.5938-11.0526h-11.6605c1.0244-3.1706,5.7177-8.176,6.8115-11.8457,3.613-12.1211-7.7259-27.1017-7.7259-27.1017C21.5547,1.0701,41.451,3.9709,41.6469,3.9998c.0034.0005.0025-.0015.0007.0015-.0738.1166-5.286,8.3971-6.2784,22.574-1.0161,14.5157-.0139,18.8882,3.2856,22.9289,3.2996,4.0407,6.6983,2.9692,11.7144,3.1586Z"/><path fill="none" d="M22.278 9.14L26.036 25.313"/></g><g id="line" fill="none" stroke="#000" stroke-linecap="round" stroke-linejoin="round" stroke-width="2"><path d="M10.369 52.98L11.043 60.958 18.882 60.958 19.556 54.724"/><path d="M50.3692 52.6627c5.0161.1894 5 8.2957 5 8.2957h-24.9957l-8.5938-11.0526h-11.4105c1.0244-3.1706 5.4677-8.176 6.5615-11.8457 3.613-12.1211-7.7259-27.1017-7.7259-27.1017C21.6159 1.0211 41.6484 4 41.6484 4c0 0-5.2797 8.2972-6.2792 22.5752-1.0161 14.5157-.0139 18.8882 3.2856 22.9289 3.2996 4.0407 6.6983 2.9692 11.7144 3.1586zM22.278 9.14L26.036 25.313"/></g></svg>