<svg xmlns="http://www.w3.org/2000/svg" role="img" viewBox="14.14 3.77 43.59 64.22"><title>E20B.svg</title><path fill="#D0CFCE" d="M46.958 12.625l3.156 5.185v36.968h-8.197l.288-34.019zm-21.778.25l-3.425 4.805v36.967l8.308-.366-.43-33.261z"/><path fill="#F4AA41" d="M28.3148 57.4378s1.2601-31.8982 1.0101-39.8965c-.24-7.6278 6.64-11.4654 6.64-11.4654s6.88 3.8376 6.64 11.4654c-.25 7.9983 1.01 39.8965 1.01 39.8965H28.3148z"/><path fill="#FFF" d="M39.5098 59.8696l16.0986-1.2525c.1851-3.1745-3.2684-6.958-3.2684-6.958-8.25-5.9369-9.5834-9.42-9.5834-9.42L39.34 33.0566M32.4299 59.841l-16.0383-1.2239c-.1851-3.1745 3.2684-6.958 3.2684-6.958 8.25-5.9369 9.5834-9.42 9.5834-9.42l3.4166-9.1825"/><path fill="#FFF" d="M40.0299 65.778c-.0101.0665-.0101.1045-.0101.1045h-8.1099s0-.038-.0101-.114c-.0499-.6744-.2699-4.1796.5301-5.9275-.02-6.7253-.06-29.0008.51-34.0069.66-5.918 3.0199-6.7919 3.0199-6.7919s2.37.8739 3.0401 6.7919c.56 5.0156.53 27.3386.5099 34.0355.7801 1.7573.5601 5.253.5201 5.9084z"/><g fill="none" stroke="#000" stroke-linecap="round" stroke-linejoin="round" stroke-miterlimit="10" stroke-width="1.949"><path d="M45.43 17.26l2.27-4.12 2.41 4.67v32.17m-28.36.11V17.68l2.42-4.67 2.27 4.12m16.65 25.7298c-.31-9.52-.63-20.96-.49-25.32.24-7.63-6.64-11.46-6.64-11.46s-6.88 3.83-6.64 11.46c.14 4.38-.18 15.9-.49 25.45.31-.49.41-.75.41-.75l3.36-9.01v-.01c.07-3.32.18-6.01.34-7.39.66-5.91 3.02-6.79 3.02-6.79s2.37.88 3.04 6.79c.15 1.36.26 3.99.34 7.23.18 7.54.19 18.41.17 24.38"/><path d="M40.1733 59.8126l15.4351-1.1955c.1851-3.1745-3.2684-6.958-3.2684-6.958-8.25-5.9369-9.5834-9.42-9.5834-9.42L39.34 33.0566m-6.91 24.3832c-.02-5.92-.01-16.68.17-24.21l-3.36 9.01s-.1.26-.41.75v.01m3.83-9.9398l-.06.16v.01m-3.77 9.7698c-.73 1.16-2.61 3.61-7.08 7.09-.64.5-1.34 1.03-2.09 1.57 0 0-3.45 3.78-3.27 6.96l15.44 1.19"/><path d="M40.03 65.7798c-.01.06-.01.1-.01.1h-8.11s0-.04-.0099-.11c-.05-.68-.27-4.18.53-5.93v-2.4c-.02-5.92-.01-16.68.17-24.21v-.0099c.07-3.32.1801-6.01.34-7.39.66-5.91 3.02-6.79 3.02-6.79s2.37.88 3.04 6.79c.15 1.36.26 3.99.34 7.23.18 7.54.19 18.41.17 24.38v2.43c.7799 1.7599.5599 5.2499.5199 5.9099z"/></g></svg>