<svg xmlns="http://www.w3.org/2000/svg" role="img" viewBox="13.82 5.69 40.23 61.36"><title>E10C.svg</title><g id="color"><path fill="#ea5a47" d="M31 60H41V66H31z"/></g><g id="skin"><path fill="#fcea2b" d="m44.0655,27.4143l-1.0101-2.074c-.3279-.6733-.5317-1.4002-.6016-2.1459l-.2969-3.1669c-.1809-1.93-.8427-3.7838-1.9248-5.3921h0c-.1644-.2444-.3412-.4802-.5296-.7066l-.9857-1.1843c-.7016-.843-1.5585-1.5435-2.5242-2.0635l-1.1451-.6166c-.9675-.521-2.0206-.864-3.1093-1.0128l-.9085-.1242c-1.7521-.2395-3.5358-.074-5.214.4836l-.85.2824c-1.3118.4359-2.5136,1.1509-3.5225,2.0959l-1.1697,1.0956c-.7567.7088-1.3903,1.5384-1.8749,2.455l-.3199.6051c-.7835,1.482-1.2062,3.1281-1.2336,4.8043l-.1822,11.154c-.0124.7579.3287,1.4785.9227,1.9494h0c.5906.4682,1.4141.5072,2.0463.0968l2.2643-1.47.1433.1986c.4102.5687.9343,1.0458,1.539,1.4008h0c.6034.3543,1.3522.3504,1.9518-.0101l2.0361-1.224,1.2556,1.1151c.6913.6139,1.5883.9454,2.5127.9285l2.7019-2.0616.1457,5.7101-.053,5.8426-.0265,1.9343c0,.6757-.106,2.7472-.106,3.2194,0,1.6569.106,3.1134,1.5633,3.6301.108.0383.5379.1451.6492.1325l.3975-.0795.8082-.2915c.318-.2252.7154-.1855.8214-2.5835l-.0095-2.9247.0737-8.2741v-10.9765l1.1,3.519,1.2144,2.0484,3.9662,1.239c.7867.2458,1.6423-.0404,2.1228-.7101h0c.5028-.7007.5359-1.6348.0839-2.3693l-2.4391-3.9635c-.1028-.167-.1973-.3391-.2832-.5154Zm-10.6265,21.9495l.0033.088c-.018.0297-.0327.0613-.0497.0916l.0464-.1796Z"/></g><g id="line" fill="none" stroke="#000" stroke-linecap="round" stroke-linejoin="round" stroke-width="2"><path d="M16.0039 21.4353c0-7.4632 6.0501-13.5133 13.5133-13.5133s13.5133 6.0501 13.5133 13.5133M16.004 22.153L16.004 32.007M21.7459 32.2479c-.0665 1.586-1.4061 2.8177-2.9921 2.7512-1.586-.0665-2.8177-1.4061-2.7512-2.9921M27.4917 32.4392c-.0665 1.586-1.4061 2.8177-2.9921 2.7512-1.586-.0665-2.8177-1.4061-2.7512-2.9921"/><path d="M27.4884 32.5491c-.1273 1.5822-1.5131 2.7617-3.0954 2.6344-1.5822-.1273-2.7617-1.5131-2.6344-3.0954M33.2709 32.8319c-.1016 1.5841-1.4681 2.7859-3.0522 2.6843s-2.7859-1.4681-2.6843-3.0522M47.1932 31.0059c1.1028 1.1418 1.0712 2.9613-.0706 4.0641s-2.9613 1.0712-4.0641-.0706M39.0192 51.2038c0 1.5874-1.2868 2.8742-2.8742 2.8742s-2.8742-1.2868-2.8742-2.8742M33.271 32.862L33.271 51.204M39.019 51.204L39.019 28.383M41.451 33.181L43.059 34.999M43.0305 21.2818c-.0592 3.5756 1.1075 6.0587 2.711 7.8192M45.697 29.051L47.193 31.006M20 65L28 65M44 65L52 65M31 65L31 60M41 65L41 60M30 60L42 60"/></g></svg>