<svg xmlns="http://www.w3.org/2000/svg" role="img" viewBox="15.60 9.85 43.91 53.04"><title>1F48D.svg</title><path fill="#D0CFCE" d="M37.625 25.0417c8.7995 0 15.9583 7.1589 15.9583 15.9583S46.4245 56.9583 37.625 56.9583c-8.7995 0-15.9583-7.1589-15.9583-15.9583s7.1588-15.9583 15.9583-15.9583m0-4c-11.0227 0-19.9583 8.9357-19.9583 19.9583s8.9356 19.9583 19.9583 19.9583S57.5833 52.0227 57.5833 41 48.6477 21.0417 37.625 21.0417z"/><path fill="#61B2E4" stroke-linecap="round" stroke-linejoin="round" stroke-miterlimit="10" stroke-width="2" d="M41.314 17h-7.668l-1-5.043h9.668z"/><g fill="none" stroke="#000" stroke-linecap="round" stroke-linejoin="round" stroke-miterlimit="10" stroke-width="2"><circle cx="37.625" cy="41" r="19.958"/><path d="M27.933 11.958l3.25 6.47m15.692-6.471l-3.25 6.469M41.314 17h-7.668l-1-5.043h9.668z"/></g></svg>