<svg xmlns="http://www.w3.org/2000/svg" role="img" viewBox="11.04 11.04 49.79 49.79"><title>1F928.svg</title><path fill="#FCEA2B" d="M36 13c-12.6823 0-23 10.3177-23 23s10.3177 23 23 23 23-10.3178 23-23c.0001-12.6823-10.3177-23-23-23z"/><circle cx="36" cy="36" r="23" fill="none" stroke="#000" stroke-linecap="round" stroke-linejoin="round" stroke-width="2"/><path fill="none" stroke="#000" stroke-linecap="round" stroke-linejoin="round" stroke-miterlimit="10" stroke-width="2" d="M23.0708 27.7432c.4132-.344 2.2456-1.7915 4.9091-1.6364 2.1608.1259 3.61 1.2333 4.0909 1.6364m16.8584-.648c-.4132.344-2.2456 1.7915-4.9091 1.6364-2.1608-.1259-3.61-1.2333-4.0909-1.6364"/><path d="M30 35c0 1.6568-1.3448 3-3 3-1.6553 0-3-1.3433-3-3 0-1.6552 1.3447-3 3-3 1.6552 0 3 1.3448 3 3m18 0c0 1.6568-1.3447 3-3 3s-3-1.3433-3-3c0-1.6552 1.3447-3 3-3s3 1.3448 3 3"/><path fill="none" stroke="#000" stroke-linecap="round" stroke-linejoin="round" stroke-width="2" d="M29.1321 47.1385c4.6002-1.4165 9.8284-1.4698 13.7359 0"/></svg>