<svg xmlns="http://www.w3.org/2000/svg" role="img" viewBox="6.43 18.68 55.51 46.13"><title>E008.svg</title><path fill="#9b9b9a" d="M35.337 37.683c1.0011.11144 4.0745 1.5116 3.8835 5.2204-.27896 5.4165 7.6521-3.1107 1.0176-11.889"/><path fill="#9b9b9a" d="M21.636 30.273c-1.0023-2.0393-1.1974-4.0835-1.453-7.0904-.10149-1.1939 5.7639-1.1676 9.3481.57629 16.544-7.191 27.801.32681 28.149 6.9603 0 0 2.2673.85981 2.3226 3.2152.013.557.528 4.066-16.003 4.066h-8s-10-.5-15.5 9.75c-.29517.57883-.50441 1.2045-.62771 1.7365-1.0477 4.0472 5.5475 2.4327 6.6491 5.2532.40316 1.0322 1.1544 4.1685.56439 4.5874-.0393.0283-.0851.0437-.13677.0467-.19108.009-.47061-.16726-.86303-.59882-2.0599-1.5336-4.9982.51116-6.9868-.6529-.80032-.46845-1.2022-1.2239-1.4915-1.7917-.46148.7394-1.075 2.2683-2.1236 2.6224-1.8358.5511-4.5889.37522-5.8969 3.8416-1.1916-3.6368-2.3829-6.2308 2.0593-9.292 1.5604-1.057 3.9503-2.6878 4.0085-4.1251.009-.18371-.41609-10.673 5.9728-19.1z"/><path fill="#d0cfce" fill-rule="evenodd" d="M57.863 31.432c1.243.46701 2.1344 1.2238 2.1875 2.3926l-.0508.17579s1.5608 3.2084-11.084 3.873l-7.5.12696h-5.416s-.76556-.0308-1.9668.125l-.17969.004-.082.0332c-1.8927.27635-4.7352 1.0324-7.5606 3.0234l-.3125.125-.18945.2461c-1.8744 1.4244-3.7096 3.3991-5.209 6.1934-.19867.38958-.34208.79051-.46289 1.1797l-.94532 1.2207c1.15-16.617 15.965-17.63 32.494-18.602 3.4332-.23615 4.1602-.33984 6.2793-.11728z"/><path fill="#9b9b9a" d="M28.156 35.945c.76004.66098 2.4918 3.5606.22546 6.5026-3.3099 4.2967 8.0632 1.7931 7.5983-9.2004l-.89344-2.2005-7.6619 2.5989z"/><g fill="none" stroke="#000" stroke-linecap="round" stroke-linejoin="round" stroke-miterlimit="10" stroke-width="2"><path d="M36.334 38c1.2843.59584 3.0324 2.0769 2.8867 4.9043-.201 3.904 3.839.552 3.64-4.904h-6.5273z"/><path d="M29.429 39.379C26.431 40.652 23 43.09 20.5 47.75c-.29517.57883-.50441 1.2045-.62771 1.7365-1.0477 4.0472 5.5475 2.4327 6.6491 5.2532.40316 1.0322 1.1544 4.1685.56439 4.5874-.0393.0283-.0851.0437-.13677.0467-.19108.009-.47061-.16726-.86303-.59882-2.0599-1.5336-4.9982.51116-6.9868-.6529-.80032-.46845-1.2022-1.2239-1.4915-1.7917-.46148.7394-1.075 2.2683-2.1236 2.6224-1.8358.5511-4.5889.37522-5.8969 3.8416-1.1916-3.6368-2.3829-6.2308 2.0593-9.292 1.5604-1.057 3.9503-2.6878 4.0085-4.1251.009-.18371-.41609-10.673 5.9728-19.1l.0082-.0046c-1.0023-2.0393-1.1974-4.0835-1.453-7.0904-.10149-1.1939 5.7639-1.1676 9.3481.57629 16.544-7.191 27.801.32681 28.149 6.9603 0 0 2.2673.85981 2.3226 3.2152.014.558.529 4.067-16.002 4.067h-8s-.1314-.0066-.37235-.0028"/><path d="M28.156 35.945c.76004.66098 2.4918 3.5606.22546 6.5026-3.3099 4.2967 8.0632 1.7931 7.5983-9.2004"/></g></svg>