<svg xmlns="http://www.w3.org/2000/svg" role="img" viewBox="14.21 2.46 43.45 66.95"><title>1F0CF.svg</title><path fill="#d0cfce" d="M16.5 4.8h39v62.4h-39z"/><path fill="#ea5a47" d="M35.806 48.602l-8.963 2.513 1.087-4.5-6.647-.149 2.956-2.461 4.029-1.503 17.045.278 5.025 3.529-6.281.306 1.444 4.5-9.695-2.513z"/><path fill="#d22f27" d="M41.9248 50.1883c.6289.8354 3.5763.9269 3.5763.9269l-1.4445-4.5 6.2818-.3059-5.0257-3.5293-2.9248-.09c-.6163.363-1.092 6.6628-.4631 7.4983z"/><path fill="#ea5a47" d="M21.0209 23.286c-.6734.15 3.9411-6.4248 11.4258-2.5271 0 0 4.5-10.7789 14.4109-6.7508 0 0-8.1695 6.2635-6.0268 5.9931 8.2578-1.042 9.3575 4.3845 9.3575 4.3845-10.0714-2.8386-4.3783 5.6017-4.3783 5.6017-6.8537-6.8408-14.4739-5.7178-19.9542-.7242.0002 0 2.9642-7.7161-4.8349-5.9772z"/><path fill="#d22f27" d="M40.8308 20.0012c8.2578-1.042 9.3575 4.3845 9.3575 4.3845-10.0714-2.8386-4.3783 5.6017-4.3783 5.6017-2.0246-2.0207-6.0321-2.3908-6.1648-4.0666-.2592-3.2741-.3242-5.7291 1.1856-5.9196z"/><g><path fill="#fcea2b" d="M44.8886 28.89c-.2972-2.0864-11.3522-6.9564-18.0832-.6564 0 0-.2566 4.3777-.2566 5.312 0 6.3731 4.1333 11.54 9.2319 11.54s9.2316-5.1665 9.2316-11.54a26.4689 26.4689 0 0 0-.1237-4.6556z"/></g><g><path fill="none" stroke="#000" stroke-linecap="round" stroke-linejoin="round" stroke-width="2" d="M16.5 4.8h39v62.4h-39z"/><path fill="none" stroke="#000" stroke-linecap="round" stroke-linejoin="round" stroke-width="2" d="M21.0209 23.286c-.6734.15 3.9411-6.4248 11.4258-2.5271 0 0 4.5-10.7789 14.4109-6.7508 0 0-8.1695 6.2635-6.0268 5.9931 8.2578-1.042 9.3575 4.3845 9.3575 4.3845-10.0714-2.8386-4.3783 5.6017-4.3783 5.6017-6.8537-6.8408-14.4739-5.7178-19.9542-.7242.0002 0 2.9642-7.7161-4.8349-5.9772zm4.9752 19.494c-1.211.0039-6.32 3.4383-6.32 5.0027 0 0 6.5691-1.77 8.2538-1.1678 0 0-1.939 3.8151-1.8187 5.8608 0 0 6.3717-3.1424 9.8822-3.1424"/><path fill="none" stroke="#000" stroke-linecap="round" stroke-linejoin="round" stroke-width="2" d="M45.99 42.78c1.211.0039 6.32 3.4383 6.32 5.0027 0 0-6.5692-1.77-8.2539-1.1678 0 0 1.9391 3.8151 1.8187 5.8608 0 0-6.3717-3.1424-9.8822-3.1424M23.37 7.35v4.5a2.5 2.5 0 0 1-2.5 2.5h0a2.4908 2.4908 0 0 1-1.6728-.642M48.63 64.2165v-4.5a2.5 2.5 0 0 1 2.5-2.5h0a2.4908 2.4908 0 0 1 1.6728.642"/><circle cx="50.782" cy="27.475" r="1.949"/><circle cx="48.833" cy="16.482" r="1.949"/><circle cx="20.68" cy="26.467" r="1.949"/><path d="M41.7716 31.0968a1.9489 1.9489 0 1 1-1.9488-1.9489 1.95 1.95 0 0 1 1.9488 1.9489m-7.7953 0a1.9489 1.9489 0 1 1-1.9489-1.9489 1.95 1.95 0 0 1 1.9489 1.9489m1.9487 9.7465a7.4566 7.4566 0 0 1-3.3591-.836.9745.9745 0 1 1 .8717-1.7432 5.24 5.24 0 0 0 4.9748 0 .9745.9745 0 1 1 .8717 1.7432 7.4566 7.4566 0 0 1-3.3591.836z"/></g></svg>