<svg xmlns="http://www.w3.org/2000/svg" role="img" viewBox="8.96 8.96 53.95 53.95"><title>1F49F.svg</title><path fill="#B399C8" d="M11 11h50v50H11z"/><path fill="#FFF" d="M52 30.6393c0-4.7003-3.8103-8.5106-8.5106-8.5106-3.2363 0-6.0501 1.8067-7.4894 4.4662-1.4392-2.6595-4.2531-4.4662-7.4894-4.4662-4.7003 0-8.5106 3.8103-8.5106 8.5106 0 2.0221.7083 3.8769 1.8862 5.337l-.0029.0023L36 53.4748l14.1167-17.4962-.0029-.0023C51.2917 34.5161 52 32.6613 52 30.6393z"/><g><path fill="none" stroke="#000" stroke-linecap="round" stroke-linejoin="round" stroke-miterlimit="10" stroke-width="2" d="M11 11h50v50H11z"/><path fill="none" stroke="#000" stroke-linejoin="round" stroke-miterlimit="10" stroke-width="2" d="M52 30.6393c0-4.7003-3.8103-8.5106-8.5106-8.5106-3.2363 0-6.0501 1.8067-7.4894 4.4662-1.4392-2.6595-4.2531-4.4662-7.4894-4.4662-4.7003 0-8.5106 3.8103-8.5106 8.5106 0 2.0221.7083 3.8769 1.8862 5.337l-.0029.0023L36 53.4748l14.1167-17.4962-.0029-.0023C51.2917 34.5161 52 32.6613 52 30.6393z"/></g></svg>