<svg xmlns="http://www.w3.org/2000/svg" role="img" viewBox="8.14 8.89 57.59 53.09"><title>1F93C.svg</title><circle cx="39.969" cy="14.094" r="3" fill="#FCEA2B"/><circle cx="29.969" cy="16.016" r="3.984" fill="#FCEA2B"/><path fill="#FCEA2B" d="M50 22l9 10v4l-6 5-5 7-2.8262 12H41.75L43 45l6-11-9.0312-8.75S39.208 24.125 38 24.125s-2.791.375-5.0098.375c-1.5732 0-5.1328-1.1245-7.7871-2.7866 0 0-1.5986-1.6553-.0674-3.1011 1.5313-1.4458 0 0 0 0s1.9883 1.2026 3.4766 1.8877c1.7207.792 5.8457 1.792 9.7207.7085 0 0 6.5137-2.311 8.292-1.394C48.4033 20.7314 50 22 50 22z"/><path fill="#fcea2b" d="M59 35l1 11 4.167 12h-3L55 47l-1-6"/><path fill="#FCEA2B" d="M26.334 28.1523L21.1357 34l4 12-.75 14h-3.4238l-.8262-13-3.0673-6L11 36v-4l9.0684-10s1.8613-3.0283 2.6474-3.1455c1.5625-.2334 3.2774-.4585 4.6944.1455.8212.3496 2.2334 2.5366 2.164 4.8545-.0185.6309-.1816 1.2593-.4521 1.8779-.0381.0869 2.998 2.2158 4.2978 1.2197 1.8203-1.3955 3.5791-5.6308 4.8086-5.6308 1.3682 0-.959 6.0366-2.999 7.6372-3.1875 2.5005-7.6309-.8008-8.1045-.25"/><path fill="#fcea2b" d="M12 37v10L9.969 58h3L16 48l1-6"/><g fill="none" stroke="#000" stroke-miterlimit="10" stroke-width="2"><circle cx="39.969" cy="14.094" r="3"/><path stroke-linecap="round" stroke-linejoin="round" d="M41 25l6.6709 7.5049c.7314.8222.8984 2.2851.3711 3.251l-4.084 7.4882c-.5273.9659-1.0332 2.6524-1.124 3.7491l-.918 11.0136C41.8252 59.1035 42.5205 60 43.4619 60s1.918-.876 2.1699-1.9463l1.9102-8.1074c.2519-1.0703.9814-2.6787 1.6201-3.5742l2.6758-3.7442c.6387-.8955 1.8535-2.2041 2.6982-2.9082l2.9278-2.4394C58.3086 36.5762 59 35.0996 59 34h0c0-1.0996-.6025-2.6689-1.3379-3.4863L50 22"/><path stroke-linecap="round" stroke-linejoin="round" d="M59 35l.8193 9.0078c.0996 1.0957.4756 2.8428.837 3.8818l2.8544 8.2208C63.8721 57.1494 63.4922 58 62.667 58s-1.9404-.7852-2.4785-1.7441l-4.21-7.5118c-.5381-.9589-1.1269-2.6318-1.3076-3.7168L54 41m-4-19c-2-2-4.2988-2.5669-6-2-3 1-8 2-10 2s-5-1-8-3m.334 9.1523l-3.8692 4.3526c-.7314.8222-1.0449 2.3486-.6962 3.3926l2.7343 8.205c.3487 1.044.585 2.7959.5254 3.8946l-.5351 10.0058C24.4336 59.1016 23.6152 60 22.6738 60c-.9414 0-1.7685-.8984-1.8388-1.9961l-.5723-9.0078c-.0703-1.0977-.5293-2.8008-1.0215-3.7852l-1.2109-2.4218c-.4922-.9844-1.586-2.3653-2.4307-3.0694l-2.9277-2.4394c-.8448-.7041-1.5362-2.1807-1.5362-3.2803h0c0-1.0996.6026-2.6689 1.3379-3.4863L20.1357 22"/><path stroke-linecap="round" stroke-linejoin="round" d="M12 37v8c0 1.0996-.1631 2.8848-.3633 3.9668l-1.3047 7.0664C10.1318 57.1152 10.6436 58 11.4688 58c.8251 0 1.7607-.8613 2.08-1.9141l1.8711-6.1718c.3194-1.0528.7285-2.8018.9092-3.8868L17 42m6.0674-22.1855c-.8418.3173-1.7901.9892-2.9317 2.1855"/><path stroke-linecap="round" d="M25.1357 23S30 27 32 27c1 0 3 0 4-5m-3.9297-3.8125c.5674-.5459.9199-1.313.9199-2.1616 0-1.6563-1.3437-3-3-3-1.6543 0-3 1.3437-3 3"/></g></svg>