<svg xmlns="http://www.w3.org/2000/svg" role="img" viewBox="2.72 12.72 66.43 45.43"><title>1F967.svg</title><path fill="#FFF" d="M66.7469 49.0622s-1.8957 3.0508-2.0249 4.0996c-.2071 1.6855-.3762 3.0747-2.0747 3.0747H9.3527c-1.6985 0-2.8676-1.3892-3.0747-3.0747-.1292-1.0488-1.1667-4.0996-1.1667-4.0996l-.1189-6.8581C7.3516 38.771 15.5828 36.7635 36 36.7635c20.1722 0 31.6119.102 30.9228 4.2365l-.1759 8.0622z"/><path fill="#fcea2b" d="M63.7295 36.3262C63.373 34.8027 62.793 33 62.793 33c-2.8409-6.8564-8.2969-12.6299-15.6953-15.6943C32.623 11.311 16.0771 17.9009 9.624 32.041c0 0-.7802 1.8653-1.1504 4.2217C6.4639 36.9102 5 38.7744 5 41c0 2.7617 2.2393 5 5 5 1.8662 0 3.4736-1.0342 4.333-2.5488C15.1924 44.9658 16.8008 46 18.667 46c1.8652 0 3.4746-1.0352 4.333-2.5498C23.8584 44.9648 25.4678 46 27.333 46c1.8662 0 3.4746-1.0342 4.334-2.5488C32.5264 44.9658 34.1338 46 36 46s3.4736-1.0342 4.333-2.5488C41.1924 44.9658 42.8008 46 44.667 46c1.8652 0 3.4746-1.0352 4.333-2.5498C49.8584 44.9648 51.4678 46 53.333 46c1.8662 0 3.4746-1.0342 4.334-2.5488C58.5264 44.9658 60.1338 46 62 46c2.7607 0 5-2.2383 5-5 0-2.1504-1.3662-3.9687-3.2705-4.6738z"/><g fill="none" stroke="#000" stroke-linecap="round" stroke-linejoin="round" stroke-miterlimit="10" stroke-width="2"><path d="M66 49s-.874 2.9766-1 4c-.2021 1.6445-1.3428 3-3 3H10c-1.6572 0-2.7979-1.3555-3-3-.126-1.0234-1-4-1-4m57.7295-12.6738C63.373 34.8027 62.793 33 62.793 33c-2.8409-6.8564-8.2969-12.6299-15.6953-15.6943C32.623 11.311 16.0771 17.9009 9.624 32.041c0 0-.7802 1.8653-1.1504 4.2217C6.4639 36.9102 5 38.7744 5 41c0 2.7617 2.2393 5 5 5 1.8662 0 3.4736-1.0342 4.333-2.5488C15.1924 44.9658 16.8008 46 18.667 46c1.8652 0 3.4746-1.0352 4.333-2.5498C23.8584 44.9648 25.4678 46 27.333 46c1.8662 0 3.4746-1.0342 4.334-2.5488C32.5264 44.9658 34.1338 46 36 46s3.4736-1.0342 4.333-2.5488C41.1924 44.9658 42.8008 46 44.667 46c1.8652 0 3.4746-1.0352 4.333-2.5498C49.8584 44.9648 51.4678 46 53.333 46c1.8662 0 3.4746-1.0342 4.334-2.5488C58.5264 44.9658 60.1338 46 62 46c2.7607 0 5-2.2383 5-5 0-2.1504-1.3662-3.9687-3.2705-4.6738zM36 32v-6m-13.556 3.557l4.778-4.779m22.335 4.779l-4.779-4.779"/></g></svg>