<svg xmlns="http://www.w3.org/2000/svg" role="img" viewBox="9.09 8.71 54.08 54.08"><title>1F95D.svg</title><g stroke-linecap="round" stroke-linejoin="round" stroke-miterlimit="10" stroke-width="2"><circle cx="36.138" cy="35.763" r="25.012" fill="#5C9E31"/><path fill="#B1CC33" d="M37.3152 26.3316l2.3679-2.1883c1.156-1.0683 3.0228-.1693 2.9083 1.4006l-.2345 3.2157c-.0658.9029.5736 1.7048 1.4686 1.8415l3.1872.4869c1.5559.2377 2.017 2.2578.7183 3.147l-2.6603 1.8216c-.747.5115-.9752 1.5114-.5241 2.2963l1.6065 2.7955c.7843 1.3647-.5076 2.9846-2.0126 2.5237l-3.0829-.9442c-.8657-.2651-1.7897.1799-2.1221 1.022l-1.184 2.999c-.578 1.464-2.65 1.464-3.228 0l-1.184-2.999c-.3324-.8421-1.2565-1.2871-2.1221-1.022l-3.0829.9442c-1.505.4609-2.7969-1.159-2.0126-2.5237l1.6065-2.7955c.4511-.785.2229-1.7848-.5241-2.2963L24.544 34.235c-1.2987-.8893-.8377-2.9093.7183-3.147l3.1872-.4869c.895-.1367 1.5344-.9386 1.4685-1.8415l-.2345-3.2157c-.1145-1.5698 1.7523-2.4688 2.9083-1.4006l2.3679 2.1883c.665.6145 1.6906.6145 2.3555 0z"/></g><circle cx="36.138" cy="35.763" r="25.012" fill="none" stroke="#000" stroke-linecap="round" stroke-linejoin="round" stroke-miterlimit="10" stroke-width="2"/><path fill="none" stroke="#000" stroke-linecap="round" stroke-linejoin="round" stroke-miterlimit="10" stroke-width="2" d="M37.3152 26.3316l2.3679-2.1883c1.156-1.0683 3.0228-.1693 2.9083 1.4006l-.2345 3.2157c-.0658.9029.5736 1.7048 1.4686 1.8415l3.1872.4869c1.5559.2377 2.017 2.2578.7183 3.147l-2.6603 1.8216c-.747.5115-.9752 1.5114-.5241 2.2963l1.6065 2.7955c.7843 1.3647-.5076 2.9846-2.0126 2.5237l-3.0829-.9442c-.8657-.2651-1.7897.1799-2.1221 1.022l-1.184 2.999c-.578 1.464-2.65 1.464-3.228 0l-1.184-2.999c-.3324-.8421-1.2565-1.2871-2.1221-1.022l-3.0829.9442c-1.505.4609-2.7969-1.159-2.0126-2.5237l1.6065-2.7955c.4511-.785.2229-1.7848-.5241-2.2963L24.544 34.235c-1.2987-.8893-.8377-2.9093.7183-3.147l3.1872-.4869c.895-.1367 1.5344-.9386 1.4685-1.8415l-.2345-3.2157c-.1145-1.5698 1.7523-2.4688 2.9083-1.4006l2.3679 2.1883c.665.6145 1.6906.6145 2.3555 0z"/><ellipse cx="24.191" cy="25.13" rx=".914" ry="1.827" transform="rotate(-48.417 24.192 25.13)"/><ellipse cx="36.039" cy="19.052" rx=".914" ry="1.827"/><ellipse cx="48.069" cy="25.24" rx="1.827" ry=".914" transform="rotate(-45.001 48.069 25.24)"/><ellipse cx="50.808" cy="38.1" rx=".914" ry="1.827" transform="rotate(-83.633 50.812 38.101)"/><ellipse cx="21.473" cy="37.99" rx="1.827" ry=".914"/><ellipse cx="29.379" cy="48.704" rx="1.827" ry=".914" transform="rotate(-60 29.38 48.706)"/><ellipse cx="43.053" cy="48.737" rx=".914" ry="1.827" transform="rotate(-28.115 43.05 48.739)"/></svg>