<svg xmlns="http://www.w3.org/2000/svg" role="img" viewBox="8.83 7.46 54.21 53.46"><title>1F607.svg</title><path fill="#fcea2b" d="M36 60a24 24 0 0 0 18.157-39.6953q-.1309-.1515-.2646-.3008A24 24 0 1 0 36 60z"/><g fill="none" stroke="#000" stroke-width="2"><path stroke-linecap="round" stroke-linejoin="round" d="M45.8147 45.2268a15.4294 15.4294 0 0 1-19.6294 0M47.7657 16.233a23.0273 23.0273 0 0 0-23.3693-.096m-6.7583 6.0097a23 23 0 1 0 36.625-.1294"/><ellipse cx="36" cy="14.8" stroke-miterlimit="10" rx="25" ry="5.25"/><path stroke-linecap="round" stroke-miterlimit="10" d="M31.6941 33.4036a4.7262 4.7262 0 0 0-8.6382 0m25.8882 0a4.7262 4.7262 0 0 0-8.6382 0"/></g><ellipse cx="36" cy="14.8" fill="none" stroke="#61b2e4" stroke-miterlimit="10" stroke-width="2.1" rx="25" ry="5.25"/></svg>