<svg xmlns="http://www.w3.org/2000/svg" role="img" viewBox="9.88 9.13 52.00 50.75"><title>E09C.svg</title><path fill="#9b9b9a" d="M36.641 23.012l3.476 3.74-2.195 4.004.014 5.547H22.978l-.386-3.844-1.038-2.182.509-2.787-.765-6.591 12.032-9.765 6.823 3.169-3.512 8.709z"/><path fill="#3f3f3f" d="M36.641 23.012l3.476 3.74-2.195 4.004.014 5.547h9.852l-.155-3.542-1.628-4.28.818-3.879-.719-7.666-5.951-2.633-3.512 8.709z"/><path fill="#ea5a47" d="M19.2578 58.568c0-9.1562 6.9838-16.4253 16.6672-16.5788 9.112-.1445 16.6422 6.2323 16.6671 16.5788z"/><path fill="#fff" d="M32.584 30.153h-5.148l-.517-5.908h5.148l.517 5.908z"/><g fill="none" stroke="#000" stroke-linecap="round" stroke-width="2"><path stroke-linejoin="round" d="M29.7387 57.9618a6.1863 6.1863 0 0 1 12.3726 0m12.4762-14.1839c3.219 3.0927 5.3153 8.6178 5.3153 13.6429m-47.9556 0a21.1963 21.1963 0 0 1 5.64-13.6346M46.104 16.936l.719 7.666-.818 3.879 1.628 4.28.155 3.542M22.9 35.531l-.308-3.072-1.038-2.182.509-2.787-.765-6.591"/><path stroke-linejoin="round" d="M18.743 22.984l14.587-11.85 16.316 7.41"/><path stroke-miterlimit="10" d="M25.718 17.183l-.639-4.784"/><path stroke-linejoin="round" d="M26.919 24.245h5.148l.517 5.908m5.58-10.916l-1.523 3.775 3.476 3.712-2.187 4.034.007 5.456m-25.617.089h20.355m10.165 0h16.84m-18.7017 6.312a15.8563 15.8563 0 0 1 11.6138 15.2931m-33.3343 0c0-7.3088 5.61-14.2373 13.7462-15.6474"/></g></svg>