<svg xmlns="http://www.w3.org/2000/svg" role="img" viewBox="1.63 1.63 67.25 71.37"><title>1F933-1F3FF.svg</title><g id="color"><path fill="#B399C8" d="M4,70.6667v-17.5L26.75,52.25l16.6667-17.9167c1.0833,2.2917,7.6667,6.25,10.0833,6.5L38.5,65.75 C37.4583,67.625,23.0693,70.6667,4,70.6667z"/><path fill="#92D3F5" d="M64.208 27.896L64.25 4.971 49.676 5.049 49.637 26.4"/></g><g id="skin" fill="#6a462f"><path d="M64.837,20.0537c1.0597,0.1522,1.6563,0.9253,1.6457,1.9381c-0.0099,0.9466-0.5375,1.9321-1.6843,1.9033 c0,0-1.2147-0.0379-1.6188-0.015c-0.1713,0.0097-0.3427,0.0192-0.5125-0.0051c-1.0597-0.1522-1.7953-1.1346-1.6431-2.1943 s1.1346-1.7953,2.1943-1.6431C63.2183,20.0376,64.837,20.0539,64.837,20.0537z"/><path d="M64.8758 16.1978c1.0597.1522 1.6563.9253 1.6457 1.9381-.0099.9466-.5375 1.9321-1.6843 1.9033 0 0-1.2147-.0379-1.6188-.015-.1713.0097-.3427.0192-.5125-.0051-1.0597-.1522-1.7953-1.1346-1.6431-2.1943s1.1346-1.7953 2.1943-1.6431C63.257 16.1818 64.8758 16.198 64.8758 16.1978zM51.2751 26.2517c-.2374-.9177-.7139-1.7561-1.381-2.4296l.0252-.0391.5511-.8399c.2598-.396 1.1637-.3694 2.008.0605l.4053.2057c.8445.4295 1.8686.2729 2.3229-.4194.4543-.6923.1396-1.6255-.6525-2.1452l-3.6001-2.3623c-.7818-.5361-1.8459-.3709-2.4284.377l-2.8853 3.8816c-2.0153 3.1257 1.0264 12.2507-.9736 13.1465 1.6544 1.5527 3.2083 2.7292 7.1282 4.6602 1.7052-4.6602 9.7468-6.5977 11.5385-12.681"/></g><g id="line" fill="none" stroke="#000" stroke-linecap="round" stroke-linejoin="round" stroke-width="2"><path stroke-miterlimit="10" d="M4 53.167L4 70.667M26.75 52.25L4 53.167M53.5 40.833L38.5 65.75M43.417 34.333L26.75 52.25M38.5 65.75c-1.0417 1.875-15.4307 4.9167-34.5 4.9167M43.4167 34.3333c1.0833 2.2917 7.6667 6.25 10.0833 6.5"/><path d="M49.9193 23.783l.5511-.8399c.2598-.396 1.1637-.3694 2.008.0605l.4053.2057c.8445.4295 1.8686.2729 2.3229-.4194.4543-.6923.1396-1.6255-.6525-2.1452l-3.6001-2.3623c-.7818-.5361-1.8459-.3709-2.4284.377l-2.8853 3.8816M51.2751 26.2517c-.2374-.9177-.7139-1.7561-1.381-2.4296M45.6403 22.541c-2.0153 3.1257 1.0264 12.2507-.9736 13.1465M63.3333 27.6667C61.5417 33.75 53.5 35.6875 51.7948 40.3477M64.837 20.0537c1.0597.1522 1.6563.9253 1.6457 1.9381-.0099.9466-.5375 1.9321-1.6843 1.9033 0 0-1.2147-.0379-1.6188-.015-.1713.0097-.3427.0192-.5125-.0051-1.0597-.1522-1.7953-1.1346-1.6431-2.1943s1.1346-1.7953 2.1943-1.6431C63.2183 20.0376 64.837 20.0539 64.837 20.0537z"/><path d="M64.8758 16.1978c1.0597.1522 1.6563.9253 1.6457 1.9381-.0099.9466-.5375 1.9321-1.6843 1.9033 0 0-1.2147-.0379-1.6188-.015-.1713.0097-.3427.0192-.5125-.0051-1.0597-.1522-1.7953-1.1346-1.6431-2.1943s1.1346-1.7953 2.1943-1.6431C63.257 16.1818 64.8758 16.198 64.8758 16.1978zM63.28 12.64L63.28 4M50.585 4L63.28 4M50.585 4L50.585 14.555"/></g></svg>