<svg xmlns="http://www.w3.org/2000/svg" role="img" viewBox="23.72 2.72 24.43 66.43"><title>E2DA.svg</title><path fill="#fff" d="M30.9846 21.0072l-.0432-12.7511s5.1319-2.9552 10.0704.0743l.0193 12.6768H30.9846z"/><path fill="#9b9b9a" d="M39 30l5-5v-3H28v3l5 5h6z"/><path fill="#d0cfce" d="M33 20h6v10h-6z"/><path fill="#9b9b9a" d="M39 30l7 8v19c0 5.5228-4.4772 10-10 10s-10-4.4772-10-10V38l7-8h6z"/><path fill="#d0cfce" d="M36 67c-5.5228 0-10-4.4772-10-10V38l7-8h6l3 8v19c0 5.5228-2.6863 10-6 10"/><g stroke="#000" stroke-linecap="round" stroke-linejoin="round"><path fill="none" stroke-width="2" d="M46 57c0 5.5228-4.4772 10-10 10s-10-4.4772-10-10m20 0V38H26v19m7-37h6v10h-6zm-7 18l7-8-5-5v-3h4.972M46 38l-7-8 5-5v-3h-4.73M36 15V5m-6 2v11M42 7v11"/><path d="M37.0062 51.8749c0 .4197-.3404.7599-.7601.7599s-.7599-.3404-.7599-.7601.3404-.7599.7601-.7599c.1334 0 .2644.0351.3799.1018.2352.1358.38.3867.38.6583zm-3.8 0c-.0004-1.0863.5791-2.0902 1.52-2.6331l-1.52-2.6332c-1.8818 1.0859-3.0408 3.0937-3.04 5.2663h3.04zm4.5603 2.6332c-.9409.5424-2.0996.5424-3.0405 0l-1.52 2.6331c1.8818 1.0849 4.1992 1.0849 6.081 0l-1.5205-2.6331zm0-5.2663c.9409.5429 1.5204 1.5468 1.52 2.6331h3.04c.0009-2.1725-1.1578-4.1803-3.0394-5.2663l-1.5206 2.6332z"/></g></svg>