<svg xmlns="http://www.w3.org/2000/svg" role="img" viewBox="8.96 8.96 53.95 54.08"><title>1F6B0.svg</title><path fill="#61b2e4" stroke-linecap="round" stroke-linejoin="round" stroke-miterlimit="10" stroke-width="2" d="M60 61.0208H12c-.5523 0-1-.4477-1-1v-48c0-.5523.4477-1 1-1h48c.5523 0 1 .4477 1 1v48c0 .5523-.4477 1-1 1z"/><path fill="#FFF" d="M26.4479 45.3958l2.1368 10.3194 9.6236.0556 2.1146-10.1667s-7-4.375-14.0833-.2083"/><path fill="#FFF" stroke-linecap="round" stroke-linejoin="round" stroke-miterlimit="10" stroke-width="2" d="M58.5 24.6808v4.87c0 .56-.45 1-1 1H40.62c-2.84 0-3.51 2.46-3.66 3.83-.06.5-.48.88-.99.88h-5.02c-.55 0-.99-.43-1-.9801-.0101-2.7999.82-10.5999 10.6301-10.5999H45.75v-4.45H41v-3.21h13.25v3.21H49.5v4.45h8c.55 0 1 .45 1 1z"/><g fill="none" stroke="#000" stroke-linecap="round" stroke-linejoin="round" stroke-miterlimit="10" stroke-width="2"><path d="M60 61.0208H12c-.5523 0-1-.4477-1-1v-48c0-.5523.4477-1 1-1h48c.5523 0 1 .4477 1 1v48c0 .5523-.4477 1-1 1z"/><path d="M24.333 34.818l3.929 20.953h10.476l3.929-20.953M26.7336 45.0446s6.5477-2.619 13.0953 0"/><path d="M58.5 24.6808v4.87c0 .56-.45 1-1 1H40.62c-2.84 0-3.51 2.46-3.66 3.83-.06.5-.48.88-.99.88h-5.02c-.55 0-.99-.43-1-.9801-.0101-2.7999.82-10.5999 10.6301-10.5999H45.75v-4.45H41v-3.21h13.25v3.21H49.5v4.45h8c.55 0 1 .45 1 1z"/></g></svg>