<svg xmlns="http://www.w3.org/2000/svg" role="img" viewBox="9.01 6.76 53.87 58.24"><title>E0C4.svg</title><path d="M33.25 20.94c1.554.2358 2.192-.1519 2.773-.5791M28.15 24.68c1.554.2358 2.192-.1519 2.773-.5791M23.21 29.39c1.554.2358 2.192-.1519 2.773-.5791M28.71 28.8c1.554.2358 2.192-.1519 2.773-.5791M19.81 34.05c1.554.2358 2.192-.1519 2.773-.5791m3.047.2391c1.554.2358 2.192-.1519 2.773-.5791M15.55 41.42c1.554.2358 2.192-.1519 2.773-.5791M19.8 37.88c1.554.2358 2.192-.1519 2.773-.5791M40.86 20.34c1.145 1.077 1.891 1.12 2.611 1.098M40.54 24.33c1.145 1.077 1.891 1.12 2.611 1.098m-7.571.432c1.145 1.077 1.891 1.12 2.611 1.098m-.931 3.462c1.145 1.077 1.891 1.12 2.611 1.098m-7.751.412c1.145 1.077 1.891 1.12 2.611 1.098M32.82 36.46c1.145 1.077 1.891 1.12 2.611 1.098m-8.001.062c1.145 1.077 1.891 1.12 2.611 1.098M26.62 41.67c1.145 1.077 1.891 1.12 2.611 1.098m-7.981-.308c1.145 1.077 1.891 1.12 2.611 1.098M17.83 45.31c1.145 1.077 1.891 1.12 2.611 1.098" fill="none" stroke="#000" stroke-linecap="round" stroke-linejoin="round" stroke-width="2"/><path fill="#d22f27" stroke-miterlimit="10" d="M53.04 55.43c-1.899 1.899-4.025 3.447-6.296 4.644-.7534.3922-1.527.7534-2.312 1.073-3.127 1.259-6.461 1.899-9.784 1.899-6.657 0-13.31-2.539-18.39-7.616-10.16-10.16-4.489-20.96 5.666-31.12 5.843-5.849 15.28-12.16 22.65-10.69 2.565.5114 1.553-5.314 6.422-3.788 4.996 1.566.1482 4.589.7905 6.896.3357 1.206-.0102.7558 1.255 1.913 1.373 1.256 2.25 2.477 3.168 3.829 6.853 10.11 5.8 24-3.168 32.95z"/><path fill="#fff" stroke="#fff" stroke-linecap="round" stroke-linejoin="round" stroke-miterlimit="10" stroke-width="2" d="M24.63 46.88c-7.894 2.624-10.18-.4228-9.963-2.803-.6752-12.27 25.7-32.68 30.43-26.27 3.626 2.767-.2077 13.82-8.298 21.91-3.995 3.272-8.052 5.376-12.17 7.16z"/><path d="M54.03 55.89c-5.078 5.078-11.73 7.616-18.39 7.616-2.645-.0032 32.21-14.29 13.28-47.76 2.573-5.308 2.418-4.034 3.388-5.059.99-1.046.8594 1.118.6695 1.446-.683 1.18-1.387 5.042-.9119 5.427 13.72 11.1 10.3 30 1.967 38.33z" opacity=".25"/><path fill="none" stroke-width="0" d="M-3.442 26.9v1.087c0 .03019-.02135.06922 0 .09057s.06356-.0135.09057 0c.03819.01909.05238.07147.09057.09057.027.0135.06038 0 .09057 0h.09057c.03019 0 .06922-.02135.09057 0s-.02135.06922 0 .09057.06356-.0135.09057 0c.03819.01909.05238.07147.09057.09057.1249.06246.08101-.1097.1811.09057.0135.027-.0135.06356 0 .09057.01909.03819.07147.05238.09057.09057.0135.027-.02135.06922 0 .09057s.06922-.02135.09057 0c.04269.04269-.04269.1384 0 .1811.02135.02135.06922-.02135.09057 0 .1208.1208-.1509.09057.09057.09057"/><path fill="none" stroke="#d22f27" stroke-linecap="round" stroke-linejoin="round" stroke-width="2" d="M33.25 20.94c1.554.2358 2.192-.1519 2.773-.5791M28.15 24.68c1.554.2358 2.192-.1519 2.773-.5791M23.21 29.39c1.554.2358 2.192-.1519 2.773-.5791M28.71 28.8c1.554.2358 2.192-.1519 2.773-.5791M19.81 34.05c1.554.2358 2.192-.1519 2.773-.5791m3.047.2391c1.554.2358 2.192-.1519 2.773-.5791M15.55 41.42c1.554.2358 2.192-.1519 2.773-.5791M19.8 37.88c1.554.2358 2.192-.1519 2.773-.5791M40.86 20.34c1.145 1.077 1.891 1.12 2.611 1.098M40.54 24.33c1.145 1.077 1.891 1.12 2.611 1.098m-7.571.432c1.145 1.077 1.891 1.12 2.611 1.098m-.931 3.462c1.145 1.077 1.891 1.12 2.611 1.098m-7.751.412c1.145 1.077 1.891 1.12 2.611 1.098M32.82 36.46c1.145 1.077 1.891 1.12 2.611 1.098m-8.001.062c1.145 1.077 1.891 1.12 2.611 1.098M26.62 41.67c1.145 1.077 1.891 1.12 2.611 1.098m-7.981-.308c1.145 1.077 1.891 1.12 2.611 1.098M17.83 45.31c1.145 1.077 1.891 1.12 2.611 1.098"/><g fill="none" stroke="#000" stroke-linecap="round" stroke-width="2"><path d="M15.18 46.36c2.177 2.331 4.22 2.526 4.347 2.538 11.82 1.074 27.92-16.01 26.88-28.63-.1845-1.538-.9901-2.714-2.387-3.445"/><path stroke-linejoin="round" stroke-miterlimit="10" d="M53.26 55.35c-1.899 1.899-4.025 3.447-6.296 4.644-.7534.3922-1.527.7534-2.312 1.073-3.127 1.259-6.461 1.899-9.784 1.899-6.657 0-13.31-2.539-18.39-7.616-10.16-10.16-4.489-20.96 5.666-31.12 7.42-7.428 15.19-12.45 22.79-10.65.5377.127 3.531-1.687 3.003-4.498-.02462-.1311 1.098-.2277 2.761.3031 1.805.5762 2.682 1.569 3.53 2.933-2.569.9024-2.981 4.066-2.748 4.319l1.776 1.928c1.147 1.245 2.219 2.672 3.137 4.024 6.853 10.11 5.831 23.8-3.137 32.76z"/></g></svg>