<svg xmlns="http://www.w3.org/2000/svg" role="img" viewBox="5.32 10.82 61.23 50.23"><title>1F624.svg</title><path fill="#FCEA2B" d="M36 12c-13.2548 0-24 10.7452-24 24s10.7452 24 24 24 24-10.7452 24-24-10.7452-24-24-24z"/><path fill="#D0CFCE" d="M41.5405 37.4966L55.2873 43.81s3.8107-4.3777 7.3934-.753c1.8042 1.6892 1.8974 4.5211.2082 6.3253 0 0 0 .0001-.0001.0001a4.85118 4.85118 0 0 1-.0666.07c-.0338.0348 3.46 3.3212.3024 6.4791-1.6137 1.6749-4.2497 1.8118-6.0282.313 0 0-2.5219 3.7564-6.086-.2145s.8088-7.42.8088-7.42L41.5405 37.4966zm-11.0809 0L16.7127 43.81s-3.8107-4.3777-7.3934-.753c-1.8042 1.6892-1.8974 4.5211-.2082 6.3253 0 0 0 .0001.0001.0001.0219.0235.0441.0468.0666.07.0338.0348-3.46 3.3212-.3024 6.4791 1.6137 1.6749 4.2498 1.8118 6.0283.313 0 0 2.5218 3.7566 6.0858-.2148s-.8088-7.42-.8088-7.42l10.2789-11.1131z"/><g fill="none" stroke="#000" stroke-linecap="round" stroke-linejoin="round" stroke-width="2"><path d="M46.7165 56.3562c-6.7467 3.5446-14.8098 3.5235-21.5379-.0562m22.2725-.3487c-.2421.1393-.4869.2743-.7346.4049M13.1224 38.3876A23.27573 23.27573 0 0 1 13 36c0-12.7025 10.2975-23 23-23s23 10.2975 23 23c0 .5043-.0161 1.0046-.0482 1.501M23 24l7 4m19-4l-7 4M30 43a17.62547 17.62547 0 0 1 6.8421-.9981A16.36286 16.36286 0 0 1 43 43"/><path d="M22.5 33.0775c1.3758 1.1372 3.1261 1.7206 4.9091 1.6364A7.07787 7.07787 0 0 0 31.5 33.0775m9 0c1.3758 1.1372 3.1261 1.7206 4.9091 1.6364A7.07787 7.07787 0 0 0 49.5 33.0775m-19.0404 4.4191L16.7127 43.81s-3.8107-4.3777-7.3934-.753c-1.8042 1.6892-1.8974 4.5211-.2082 6.3253 0 0 0 .0001.0001.0001.0219.0235.0441.0468.0666.07.0338.0348-3.46 3.3212-.3024 6.4791 1.6137 1.6749 4.2498 1.8118 6.0283.313 0 0 2.5218 3.7566 6.0858-.2148s-.8088-7.42-.8088-7.42l10.2789-11.1131zm11.0809 0L55.2873 43.81s3.8107-4.3777 7.3934-.753c1.8042 1.6892 1.8974 4.5211.2082 6.3253 0 0 0 .0001-.0001.0001a4.85118 4.85118 0 0 1-.0666.07c-.0338.0348 3.46 3.3212.3024 6.4791-1.6137 1.6749-4.2497 1.8118-6.0282.313 0 0-2.5219 3.7564-6.086-.2145s.8088-7.42.8088-7.42L41.5405 37.4966z"/></g></svg>