<svg xmlns="http://www.w3.org/2000/svg" role="img" viewBox="8.96 12.84 54.08 49.70"><title>E248.svg</title><path fill="#D0CFCE" d="M15.042 14.9756c-2.2091 0-4 1.7909-4 4v11.7841l-.0019 4.5314c-.0002.2808.328.4336.5428.2527l5.0257-4.389c.1804-.1518.4086-.2351.6443-.2351h30.9557c2.2091 0 4-1.7909 4-4v-7.9441c0-2.2091-1.7909-4-4-4H15.042z"/><path fill="#9B9B9A" d="M60.5096 60.5444c.2147.1808.5427.0281.5426-.2526l-.0018-4.2707h.0007V44.077c0-2.2091-1.7909-4-4-4H24.103c-2.2091 0-4 1.7909-4 4v7.9441c0 2.2091 1.7909 4 4 4h30.8579a.9999.9999 0 0 1 .6441.2351l4.9046 4.2882z"/><g><path fill="none" stroke="#000" stroke-miterlimit="10" stroke-width="2" d="M15.042 14.9756c-2.2091 0-4 1.7909-4 4v11.7841l-.0019 4.5314c-.0002.2808.328.4336.5428.2527l5.0257-4.389c.1804-.1518.4086-.2351.6443-.2351h30.9557c2.2091 0 4-1.7909 4-4v-7.9441c0-2.2091-1.7909-4-4-4H15.042zm45.4676 45.5688c.2147.1808.5427.0281.5426-.2526l-.0018-4.2707h.0007V44.077c0-2.2091-1.7909-4-4-4H24.103c-2.2091 0-4 1.7909-4 4v7.9441c0 2.2091 1.7909 4 4 4h30.8579a.9999.9999 0 0 1 .6441.2351l4.9046 4.2882z"/><circle cx="31.997" cy="48.059" r="2"/><circle cx="40.008" cy="48.059" r="2"/><circle cx="48.02" cy="48.059" r="2"/></g></svg>