<svg xmlns="http://www.w3.org/2000/svg" role="img" viewBox="14.59 2.59 42.44 66.69"><title>1F39A.svg</title><g id="color"><path fill="#d0cfce" d="M51.8848,5.9497H19.9502c-1.1025,0-2,0.897-2,2v56.1421c0,1.1025,0.8975,2,2,2h31.9346 c1.1025,0,2-0.8975,2-2V7.9497C53.8848,6.8467,52.9873,5.9497,51.8848,5.9497z"/><path fill="#3f3f3f" d="M29.1015,23.4683v9.678h13.797v-9.678H29.1015z"/><path fill="#9b9b9a" d="M39.0727 13.9583c0-1.103-2.237-3-3.3395-3 0 0-2.6872.5693-2.6872 1.6723 0 0-.2951 10.8166-.2951 10.8167l6.6252.021C39.3761 23.4682 39.0727 13.9583 39.0727 13.9583zM32.7332 33.4116v24.5467c0 1.1025 1.0477 3 3 3s3.3395-1.8975 3.3395-3V33.4116H32.7332z"/></g><g id="line" fill="none" stroke="#000" stroke-linecap="round" stroke-linejoin="round" stroke-miterlimit="10" stroke-width="2"><path d="M32.7332 23.0969v-9.1386c0-1.6568 1.3433-3 3-3h.3395c1.6567 0 3 1.3432 3 3v9.1386M39.0727 33.4116v24.5467c0 1.6569-1.3433 3-3 3h-.3395c-1.6567 0-3-1.3431-3-3V33.4116M29.102 23.447H42.899V33.146H29.102zM33.021 28.333L38.91 28.333"/><path d="M51.8846 67.092H19.9504c-1.6568 0-3-1.3432-3-3V7.9496c0-1.6568 1.3432-3 3-3h31.9342c1.6569 0 3 1.3432 3 3V64.092C54.8846 65.7488 53.5415 67.092 51.8846 67.092zM47.911 18.26L50.559 18.26M47.911 12.631L50.559 12.631M47.922 23.468L50.559 23.468M47.911 28.203L50.559 28.203M47.922 33.412L50.559 33.412M47.911 39.041L50.559 39.041M47.912 44.249L50.559 44.249M47.901 48.984L50.559 48.984M47.892 54.193L50.559 54.193M47.907 58.909L50.559 58.909M21.282 18.26L23.93 18.26M21.282 12.631L23.93 12.631M21.293 23.468L23.93 23.468M21.282 28.203L23.93 28.203M21.293 33.412L23.93 33.412M21.282 39.041L23.93 39.041M21.283 44.249L23.93 44.249M21.272 48.984L23.93 48.984M21.263 54.193L23.93 54.193M21.277 58.909L23.93 58.909"/></g></svg>