<svg xmlns="http://www.w3.org/2000/svg" role="img" viewBox="13.95 2.07 44.35 67.73"><title>26B0.svg</title><g stroke-miterlimit="10"><path fill="#A57939" stroke="#A57939" stroke-width="2" d="M31.6322 67.6h9.0635c1.3055 0 2.4611-.8442 2.858-2.0879L55.9064 26.807c.271-.8492.1504-1.7749-.3292-2.5262L43.772 5.7859C43.2209 4.9225 42.2675 4.4 41.2432 4.4H31.0847c-1.0242 0-1.9777.5225-2.5288 1.3859L16.7507 24.2807c-.4796.7514-.6002 1.6771-.3292 2.5262L28.7742 65.512c.3969 1.2438 1.5525 2.088 2.858 2.088z"/><path fill="#f4aa41" stroke-linecap="round" stroke-width="2" d="M36.334 22v16m-4.8-11.367h9.6"/><path fill="#6A462F" stroke="#6A462F" stroke-linejoin="round" d="M39.25 4.4l8.25 22.1-8.25 41.1 2.25-.1L56 25.382 41.5 4.5z"/></g><path fill="none" stroke="#000" stroke-miterlimit="10" stroke-width="2" d="M31.6322 67.6h9.0635c1.3055 0 2.4611-.8442 2.858-2.0879L55.9064 26.807c.271-.8492.1504-1.7749-.3292-2.5262L43.772 5.7859C43.2209 4.9225 42.2675 4.4 41.2432 4.4H31.0847c-1.0242 0-1.9777.5225-2.5288 1.3859L16.7507 24.2807c-.4796.7514-.6002 1.6771-.3292 2.5262L28.7742 65.512c.3969 1.2438 1.5525 2.088 2.858 2.088z"/></svg>