<svg xmlns="http://www.w3.org/2000/svg" role="img" viewBox="14.70 7.20 51.86 54.86"><title>1F469-1F3FF-200D-1F527.svg</title><path fill="#92D3F5" d="M16.9615 58.9182s-2-13.5 10-13.5c3.1919 2.1279 5.9264 3.5984 9 3.5922h-.125c3.0736.0062 5.5081-2.1643 8.7-4.2922 15.5705 0 10.7 14.2 10.7 14.2"/><path fill="#61B2E4" d="M49.124 58.88V46.005l-4.491-.784v7.245H26.756l.002-7.245-4.666.784V58.88zM36.4608 9.2639h-1.8035c-11.2952.0352-10.0449 11.3139-10.0449 11.3139 12.8913-5.657 21.8933 0 21.8933 0S47.7559 9.2991 36.4608 9.2639z"/><path fill="#9B9B9A" d="M54.7257 38.1905c.5178-2.1526 2.3561-3.6419 4.4485-3.8148l-1.1313 4.637c.0816.0154 2.7264.6496 2.8078.6692l1.1312-4.7124c1.9373 1.0552 3.007 3.3129 2.4664 5.56-.4769 1.9823-2.0759 3.3944-3.9597 3.7417L57.066 58.4981c-.2616 1.0876-1.3553 1.7572-2.4429 1.4955-1.0877-.2616-1.7571-1.3554-1.4955-2.443l3.4226-14.2269c-1.5196-1.166-2.3014-3.1509-1.8245-5.1332z"/><path fill="#FFF" d="M32.9491 18.2936v-2.3118c0-1.6568 1.3432-3 3-3 1.6569 0 3 1.3432 3 3v2.3295"/><g><path d="M24.8199 26.5593s-10.6339 2.5266-7.9128 15.7288c0 0 5.3627.1413 7.5363-2.4283 0 0 2.4867-2.2424 3.5184-8.1865 1.0317-5.9442-3.2501-5.1369-3.2501-5.1369"/><path d="M24.7167 26.2827c4.7415-.4991 11.7795-7.5645 11.7795-7.5645s8.5126 8.7362 10.8925 6.8972c.2163-2.3798-1.2982-4.7597-1.2982-4.7597s-8.8314-5.4799-19.9716-.3616c-3.0698 3.8232-1.6044 6.9598-1.6044 6.9598"/></g><g><path fill="#6a462f" d="M36.4962 18.7182s-6.9597 6.983-11.7001 7.55c-.0604.5923-.1019 1.1918-.1019 1.8047 0 7.8277 5.0765 14.1733 11.3386 14.1733 6.2621 0 11.3386-6.3456 11.3386-14.1733 0-.8017-.066-1.5825-.1683-2.3479-2.6027 1.3082-10.7069-7.0068-10.7069-7.0068z"/></g><g><path d="M42.0075 27.0729c0 1.1045-.8965 2-2 2s-2-.8955-2-2c0-1.1035.8965-2 2-2s2 .8965 2 2m-8 0c0 1.1045-.8965 2-2 2s-2-.8955-2-2c0-1.1035.8965-2 2-2s2 .8965 2 2m1.9999 10.0024c-1.1519 0-2.3037-.2861-3.4473-.8579-.4941-.2471-.6943-.8477-.4472-1.3418.2465-.4937.8461-.6944 1.3417-.4473 1.7178.8594 3.3877.8594 5.1055 0 .4946-.2471 1.0947-.0464 1.3418.4473.2471.4941.0469 1.0947-.4473 1.3418-1.1435.5718-2.2954.8579-3.4472.8579z"/><path fill="none" stroke="#000" stroke-linecap="round" stroke-miterlimit="10" stroke-width="2" d="M24.7868 26.3818c-.0778.6699-.118 1.355-.118 2.0519 0 7.8276 5.0765 14.1732 11.3386 14.1732S47.346 36.2613 47.346 28.4337c0-.3957.0122-2.8271.0122-2.8271"/><path fill="none" stroke="#000" stroke-linecap="round" stroke-linejoin="round" stroke-miterlimit="10" stroke-width="2" d="M51.7472 47.208c-1.513-1.3672-3.7236-2.3012-6.9399-2.3012-3.1919 2.1279-5.9264 3.5985-9.0001 3.5922h.1251c-3.0737.0063-5.8082-1.4643-9.0001-3.5922-12 0-10 13-10 13m37.7935-19.7163c.5178-2.1526 2.3561-3.6419 4.4485-3.8148l-1.1313 4.637c.0816.0154 2.7264.6496 2.8078.6692l1.1312-4.7124c1.9373 1.0552 3.007 3.3129 2.4664 5.56-.4769 1.9823-2.0759 3.3944-3.9597 3.7417L57.066 58.4981c-.2616 1.0876-1.3553 1.7572-2.4429 1.4955-1.0877-.2616-1.7571-1.3554-1.4955-2.443l3.4226-14.2269c-1.5196-1.166-2.3014-3.1509-1.8245-5.1332zm-7.9163-17.6127S48.0598 9.2991 36.7645 9.2639h-1.8033c-11.2953.0352-10.0449 11.3139-10.0449 11.3139"/><path fill="none" stroke="#000" stroke-linecap="round" stroke-miterlimit="10" stroke-width="2" d="M32.9491 18.2936v-2.3118c0-1.6568 1.3432-3 3-3 1.6569 0 3 1.3432 3 3v2.3295"/><path fill="none" stroke="#000" stroke-linecap="round" stroke-linejoin="round" stroke-miterlimit="10" stroke-width="2" d="M44.807 44.907v7.245H26.93l.002-7.245m22.367.784v12.19m-27.033-12.19v12.177m10.34-1.071H26.93m-.8416-36.3118c-3.0698 3.8233-1.6044 6.9599-1.6044 6.9599s-9.3623 2.4885-6.9666 14.112c0 0 4.3693-.1397 6.283-2.4021"/><path fill="none" stroke="#000" stroke-linecap="round" stroke-linejoin="round" stroke-miterlimit="10" stroke-width="2" d="M46.0601 20.8468s1.5144 2.3799 1.2981 4.7598c-2.3799 1.839-10.8925-6.8972-10.8925-6.8972s-7.038 7.0654-11.7795 7.5645"/><path fill="none" stroke="#000" stroke-linecap="round" stroke-linejoin="round" stroke-miterlimit="10" stroke-width="2" d="M49.6421 22.4463c-6.1883-4.9827-16.9721-5.4838-24.0306-2.1379-1.2509.593-2.3848 1.3068-3.3554 2.1379"/></g></svg>