<svg xmlns="http://www.w3.org/2000/svg" role="img" viewBox="14.50 4.38 43.50 65.00"><title>E25A.svg</title><g id="color"><path fill="#fcea2b" d="M55.6239 48.0593c0 11.975-7.1616 18.3072-16.2494 18.3906-5.7703.0529-18.4055-.8495-16.6172-31.1527M48.8393 37.5921c.081-1.9313 1.7123-3.4313 3.6436-3.3502s3.4313 1.7123 3.3502 3.6436M41.8423 37.3592c.081-1.9313 1.7123-3.4313 3.6436-3.3502s3.4313 1.7123 3.3502 3.6436"/><path fill="#fcea2b" d="M41.8463 37.2253c.155-1.9268 1.8426-3.3631 3.7694-3.2081 1.9268.155 3.3631 1.8426 3.2081 3.7694M34.8047 36.8809c.1237-1.929 1.7878-3.3925 3.7168-3.2688s3.3925 1.7878 3.2688 3.7168M23.2915 46.1851c-2.001-4.5612-3.367-5.3685-4.7912-7.1091-1.9507-2.3841-1.4098-4.1029-.5634-4.9205 1.3903-1.3429 5.6942.7837 7.0371 2.1741M27.8047 14.5086c0-1.933 1.567-3.5 3.5-3.5s3.5 1.567 3.5 3.5"/><path fill="none" d="M24.844 36.455L22.886 34.242M17.851 39.105L19.672 41.485"/><path fill="#fcea2b" d="M34.915 41.924L27.852 39.957 27.852 14.174 34.805 14.174 34.915 41.924zM34.915 36.844H55.836V49.07H34.915zM27.805 40.065L25.149 39.07 25.658 35.884 27.822 38.814 27.805 40.065z"/></g><g id="line"><path d="m23.6487,13.4223c0-4.2718,3.463-7.7349,7.7349-7.7349s7.7349,3.463,7.7349,7.7349c0,2.6699-1.3527,5.0239-3.4102,6.4139-.78.527-.412-4.9898-1.8246-7.6565-.8231-1.5539-3.4931-.8244-4.0828-.8244-1.5102,0-1.3365,9.3691-2.5272,8.6208-2.1776-1.3684-3.625-3.7921-3.625-6.5538Z"/><path fill="none" stroke="#000" stroke-linecap="round" stroke-linejoin="round" stroke-width="2" d="M55.8163 50.7743c0 9.0883-7.3675 16.4558-16.4558 16.4558s-16.4558-7.3675-16.4558-16.4558M55.816 50.951L55.816 37.901M48.824 37.6074c.081-1.9313 1.7123-3.4313 3.6436-3.3502s3.4313 1.7123 3.3502 3.6436M41.827 37.3745c.081-1.9313 1.7123-3.4313 3.6436-3.3502s3.4313 1.7123 3.3502 3.6436"/><path fill="none" stroke="#000" stroke-linecap="round" stroke-linejoin="round" stroke-width="2" d="M41.8311 37.2406c.155-1.9268 1.8426-3.3631 3.7694-3.2081s3.3631 1.8426 3.2081 3.7694M34.7895 36.8962c.1237-1.929 1.7878-3.3925 3.7168-3.2688s3.3925 1.7878 3.2688 3.7168M17.8357 39.1198c-1.3429-1.3904-1.3044-3.6061.086-4.949s3.6061-1.3044 4.949.086M27.7895 14.5239c0-1.933 1.567-3.5 3.5-3.5s3.5 1.567 3.5 3.5M34.789 36.859L34.789 14.524M27.79 14.524L27.79 42.315M24.829 36.471L22.871 34.257M19.6034 41.4395c1.9526 2.1439 3.3734 5.1677 3.3013 9.5218M17.836 39.12L19.657 41.5"/></g></svg>