<svg xmlns="http://www.w3.org/2000/svg" role="img" viewBox="12.70 12.33 48.10 47.85"><title>1FA9B.svg</title><path d="M41.635 43.302L53.29 54.957m-9.613-13.696l11.655 11.655" fill="none" stroke="#000" stroke-linecap="round" stroke-linejoin="round" stroke-width="2"/><path fill="#f4aa41" d="M58.5645 55.9782l-2.09 2.09a4.3035 4.3035 0 0 1-6.076.118l-13.64-13.64a.9993.9993 0 0 1 0-1.4142l.2147-.2147-.705-.7051-.2148.2148a1 1 0 0 1-1.4142 0l-2.64-2.64a1 1 0 0 1 0-1.4142l6.87-6.87a1 1 0 0 1 1.4142 0l2.64 2.64a1 1 0 0 1 0 1.4143l-.2845.2845.705.705.2845-.2845a.9993.9993 0 0 1 1.4142 0l13.64 13.64a4.3035 4.3035 0 0 1-.1181 6.0761z"/><path fill="#d0cfce" d="M34.82 37.4869a.9969.9969 0 0 1-.7071-.293L20.2686 23.3506l-3.416-.7719a1 1 0 0 1-.69-.5645l-2.3516-5.2148a1 1 0 0 1 .2041-1.1182l2.041-2.0415a1.0014 1.0014 0 0 1 1.1074-.21l5.2666 2.3a1 1 0 0 1 .5782.7119l.7236 3.4585 13.8365 13.8387a1 1 0 0 1 0 1.4141l-2.041 2.041a.9969.9969 0 0 1-.7074.293z"/><path fill="none" stroke="#e27022" stroke-linecap="round" stroke-linejoin="round" stroke-width="2" d="M41.635 43.302L53.29 54.957m-9.613-13.696l11.655 11.655"/><g fill="none" stroke="#000" stroke-linecap="round" stroke-linejoin="round" stroke-width="2"><path d="M44.3357 36.9691l13.64 13.64a3.3 3.3 0 0 1-.1177 4.6619l-2.09 2.09a3.3 3.3 0 0 1-4.662.1176l-13.64-13.64.922-.9219-2.1194-2.1194-.9219.922-2.64-2.64 6.87-6.87 2.64 2.64-.9919.992 2.1194 2.1193zM34.778 32.313L22.813 20.397l-.783-3.75-5.267-2.3-2.042 2.041 2.353 5.215 3.698.836 11.964 11.916"/></g></svg>