<svg xmlns="http://www.w3.org/2000/svg" role="img" viewBox="17.37 7.49 37.40 59.02"><title>E0AA.svg</title><path fill="#f4aa41" d="M45.1905 27.205H20.423v9.561a15.6418 15.6418 0 0 0 15.5707 15.6618 16.0014 16.0014 0 0 0 9.0146-2.8228 153.2983 153.2983 0 0 0 .1822-22.4z"/><path fill="#e27022" d="M45.1905 27.205a165.7763 165.7763 0 0 1-.0911 22.3089 15.6337 15.6337 0 0 0 6.6472-12.839v-9.47zM30.075 52.337l1.548 5.645h9.015l1.457-5.645h-12.02zm2.368 5.645h7.376v6.485h-7.376z"/><path fill="#3f3f3f" d="M28.2973 9.631a3.0064 3.0064 0 0 1 3.0049 2.7979v13.7745h-3.0049zm16.2127 0a3.0064 3.0064 0 0 1 3.0049 2.7979v13.7745H44.51z"/><g fill="none" stroke="#000" stroke-linecap="round" stroke-width="2"><path stroke-miterlimit="10" d="M31.3022 26.2034V12.6359a3.0316 3.0316 0 0 0-3.0049-3.0049h0a3.0315 3.0315 0 0 0-3.0048 3.0049h0v13.5675m22.2219 0V12.6359A3.0315 3.0315 0 0 0 44.51 9.631h0a3.0316 3.0316 0 0 0-3.0049 3.0049h0v13.5675"/><path stroke-linejoin="round" d="M19.5124 26.2944V36.766a16.5724 16.5724 0 0 0 33.1447 0V26.2944z"/><path stroke-linejoin="round" d="M30.075 52.337l1.548 5.645h9.015l1.457-5.645m-9.653 12.13v-6.485h7.376v6.485"/></g></svg>