<svg xmlns="http://www.w3.org/2000/svg" role="img" viewBox="8.96 8.84 53.95 54.08"><title>1F3A6.svg</title><rect width="50" height="50" x="11" y="10.958" fill="#92d3f5" rx="1.921"/><path fill="#fff" d="M43.96 46.2808L51.59 52.5a1.0894 1.0894 0 0 0 1.7778-.8445V33.4761a1.09 1.09 0 0 0-1.7778-.8445l-7.8408 6.3908"/><path fill="#fff" d="M41.7727 52.4857H20.82a2.1875 2.1875 0 0 1-2.1875-2.1875V34.833a2.1876 2.1876 0 0 1 2.1875-2.1876h20.9528A2.1875 2.1875 0 0 1 43.96 34.833v15.4652a2.1875 2.1875 0 0 1-2.1873 2.1875z"/><circle cx="23.647" cy="24.253" r="5" fill="#fff"/><circle cx="38.749" cy="24.253" r="5" fill="#fff"/><g fill="none" stroke="#000" stroke-width="2"><path stroke-linecap="round" stroke-linejoin="round" d="M43.96 46.2808L51.59 52.5a1.0894 1.0894 0 0 0 1.7778-.8445V33.4761a1.09 1.09 0 0 0-1.7778-.8445l-7.63 6.18"/><circle cx="23.647" cy="24.253" r="5" stroke-linejoin="round"/><circle cx="38.749" cy="24.253" r="5" stroke-linejoin="round"/><path stroke-linejoin="round" d="M41.7727 52.4857H20.82a2.1875 2.1875 0 0 1-2.1875-2.1875V34.833a2.1876 2.1876 0 0 1 2.1875-2.1876h20.9528A2.1875 2.1875 0 0 1 43.96 34.833v15.4652a2.1875 2.1875 0 0 1-2.1873 2.1875z"/><rect width="50" height="50" x="11" y="10.958" stroke-miterlimit="10" rx="1.921"/></g></svg>