<svg xmlns="http://www.w3.org/2000/svg" role="img" viewBox="16.88 11.13 38.12 51.74"><title>E30B.svg</title><path fill="#A57939" d="M22.2499 14.3071h27.5003c1.8029 0 3.2644 1.4615 3.2644 3.2644V57.651c0 1.8029-1.4615 3.2644-3.2644 3.2644H22.2499c-1.8029 0-3.2644-1.4615-3.2644-3.2644V17.5715c0-1.8029 1.4615-3.2644 3.2644-3.2644z"/><path fill="#FFF" d="M23.308 16.564h25.395v38.93H23.308z"/><path fill="#9B9B9A" d="M26.194 13.216h19.624v5.461H26.194z"/><path fill="#D22F27" d="M26.204 24.599h1.883v1.884h1.326v-1.884h1.884v-1.326h-1.884v-1.884h-1.326v1.884h-1.883z"/><g><path fill="none" stroke="#000" stroke-linecap="round" stroke-linejoin="round" stroke-width="2" d="M45.8181 14.3071h3.9321c1.8029 0 3.2644 1.4615 3.2644 3.2644V57.651c0 1.8029-1.4615 3.2644-3.2644 3.2644H22.2499c-1.8029 0-3.2644-1.4615-3.2644-3.2644V17.5715c0-1.8029 1.4615-3.2644 3.2644-3.2644h3.9443"/><path fill="none" stroke="#000" stroke-linecap="round" stroke-linejoin="round" stroke-width="2" d="M45.82 16.56h2.88v38.93H23.31V16.56h2.88"/><path fill="none" stroke="#000" stroke-linecap="round" stroke-linejoin="round" stroke-width="2" d="M26.194 13.216h19.624v5.461H26.194z"/><path fill="none" stroke="#000" stroke-linecap="round" stroke-linejoin="round" stroke-width="1.5" d="M26.194 32.983h5.021m-5.021 5.674H42.75m-16.556 3.349h13.58m-13.58 3.349H42.75m-16.556 3.349h13.58"/><path d="M29.4134 21.3892v1.8837h1.8837v1.3261h-1.8837v1.8838h-1.3261V24.599h-1.8837v-1.3261h1.8837v-1.8837h1.3261m0-1h-1.3261c-.5523 0-1 .4477-1 1v.8837h-.8837c-.5523 0-1 .4477-1 1v1.3261c0 .5523.4477 1 1 1h.8837v.8838c0 .5523.4477 1 1 1h1.3261c.5523 0 1-.4477 1-1v-.8838h.8837c.5523 0 1-.4477 1-1v-1.3261c0-.5523-.4477-1-1-1h-.8837v-.8837c0-.5523-.4477-1-1-1z"/></g></svg>