<svg xmlns="http://www.w3.org/2000/svg" role="img" viewBox="9.21 16.34 54.08 46.20"><title>1F350.svg</title><path fill="#B1CC33" stroke="#B1CC33" stroke-miterlimit="10" stroke-width="2" d="M56.599 32.8694c6.3433 6.3433 6.3359 16.6243 0 22.9601-6.3433 6.3433-16.6169 6.3433-22.9601 0-.1776-.1776-.3405-.3553-.5107-.5403-1.5396-1.6728-2.6573-3.6046-3.3604-5.6401-.6588-1.5469-1.2509-3.1901-1.8431-4.8481-1.5987-4.4558-3.1901-8.9931-6.2396-12.0426-3.2716-3.2716-3.2716-8.5711 0-11.8427 3.2641-3.2641 8.5712-3.2716 11.8427 0 3.0495 3.0495 7.5868 4.6409 12.0426 6.2396 1.658.5922 3.3012 1.1843 4.8482 1.843 2.1169.9178 4.0709 1.9689 5.6401 3.3604.1851.1703.3627.3331.5403.5107z"/><path fill="#5C9E31" d="M56.5987 55.8297C51.8529 60.5871 45.2122 60.49 45.2122 60.49 67.4175 47.2917 50.42 28.9939 50.42 28.9939s4.0668 1.9735 5.6346 3.366c.1937.166.3689.332.5441.5072 6.3447 6.3447 6.3278 16.6194 0 22.9626z"/><g fill="none" stroke="#000" stroke-linecap="round" stroke-linejoin="round" stroke-miterlimit="10" stroke-width="2"><path d="M21.7378 21.5926s-5.271-5.1624-10.4878.0543m13.6305-2.7283c2.9293-1.0048 6.3086-.3418 8.6475 1.9971 3.0495 3.0495 7.5868 4.6409 12.0426 6.2396 1.658.5922 3.3012 1.1843 4.8482 1.843 2.1169.9178 4.0709 1.9689 5.6401 3.3604.185.1702.3627.333.5403.5107 6.3433 6.3433 6.3359 16.6243 0 22.9601-6.3433 6.3433-16.6169 6.3433-22.9601 0-.1776-.1776-.3405-.3553-.5107-.5403-1.5396-1.6728-2.6573-3.6046-3.3604-5.6401-.6588-1.5469-1.2509-3.1901-1.8431-4.8481-1.5987-4.4558-3.1901-8.9931-6.2396-12.0426-2.1564-2.1564-2.8915-5.1939-2.2052-7.9509"/></g></svg>