<svg xmlns="http://www.w3.org/2000/svg" role="img" viewBox="11.04 11.04 49.79 49.79"><title>1F614.svg</title><path fill="#FCEA2B" d="M36 13c-12.6823 0-23 10.3177-23 23 0 12.6822 10.3177 23 23 23 12.6822 0 23-10.3178 23-23 0-12.6823-10.3178-23-23-23z"/><g fill="none" stroke="#000" stroke-miterlimit="10" stroke-width="2"><circle cx="36" cy="36" r="23"/><path stroke-linecap="round" stroke-linejoin="round" d="M27 46h18M23 33.0774c.4132.344 2.2456 1.7915 4.9091 1.6364 2.1608-.1259 3.61-1.2333 4.0909-1.6364m9 0c.4132.344 2.2456 1.7915 4.9091 1.6364 2.1608-.1259 3.61-1.2333 4.0909-1.6364m-30.0615-5.8273c.4872.2275 2.6277 1.1608 5.1639.3327 2.0576-.6718 3.1771-2.1117 3.5396-2.6239m24 2.2912c-.4872.2275-2.6277 1.1608-5.1639.3327-2.0576-.6718-3.1771-2.1117-3.5396-2.6239"/></g></svg>