<svg xmlns="http://www.w3.org/2000/svg" role="img" viewBox="2.72 14.72 66.43 42.43"><title>1F1F8-1F1ED.svg</title><path fill="#1e50a0" d="M5 17h62v38H5z"/><path fill="#fff" d="M9.887 18H6v2.332L32.113 36H36v-2.332L9.887 18z"/><path fill="#fff" d="M36 20.332V18h-3.887L6 33.668V36h3.887L36 20.332z"/><path fill="#fff" d="M6 24h30v6H6z"/><path fill="#fff" d="M18 18h6v18h-6z"/><path fill="#d22f27" d="M20 18h2v18h-2z"/><path fill="#d22f27" d="M6 26h30v2H6zm30 7.668L29.887 30H26l10 6v-2.332zM36 18h-3.887L24 22.868V24h2l10-6zM6 20.332L12.113 24H16L6 18v2.332zM6 36h3.887L18 31.132V30h-2L6 36z"/><path fill="#3f3f3f" d="M58.5 29h-.2771c.0939.0307.1839.0693.2771.1014zm-13 0v.1014c.0932-.0321.1832-.0707.2771-.1014z"/><path fill="#fcea2b" d="M52 28a19.9562 19.9562 0 0 0-6.2229 1h12.4458A19.9562 19.9562 0 0 0 52 28zm6.5 6.5v-5.3986c-.0932-.0321-.1832-.0707-.2771-.1014H45.7771c-.0939.0307-.1839.0693-.2771.1014V34.5z"/><path fill="#92d3f5" d="M44.9556 34.81l13.5444.0535S60 44 52 47m-7.0444-12.19S44 45 52 47"/><path fill="#1e50a0" stroke="#1e50a0" stroke-linecap="round" stroke-linejoin="round" stroke-width="2" d="M56 42.9188c-2.4-1.5567-8 0-8 0L52 47z"/><path fill="none" stroke="#a57939" stroke-linecap="round" stroke-linejoin="round" stroke-width="2" d="M46 37l3 4v3"/><ellipse cx="46.858" cy="40.589" fill="none" stroke="#a57939" stroke-linecap="round" stroke-linejoin="round" stroke-width="2" rx=".5" ry="2.647" transform="rotate(-18.17 46.858 40.59)"/><path fill="#f4aa41" stroke="#a57939" stroke-linecap="round" stroke-linejoin="round" stroke-width="2" d="M53 32h-2l-1-2 3 2z"/><path fill="none" stroke="#f4aa41" stroke-linecap="round" stroke-linejoin="round" stroke-width="2" d="M55 41h-3a2.8222 2.8222 0 0 0 3 0z"/><path fill="none" stroke="#000" stroke-linecap="round" stroke-linejoin="round" d="M58.5833 29v9c0 6.75-6.75 9-6.75 9s-6.75-2.25-6.75-9v-9s6.8959-3.4063 13.5 0zM58.5 34.5h-13"/><g><path fill="none" stroke="#000" stroke-linecap="round" stroke-linejoin="round" stroke-width="2" d="M5 17h62v38H5z"/></g></svg>