<svg xmlns="http://www.w3.org/2000/svg" role="img" viewBox="2.72 14.72 66.43 42.43"><title>1F1FB-1F1FA.svg</title><path fill="#d22f27" d="M5 17h62v38H5z"/><path fill="#5c9e31" d="M5 36h62v19H5z"/><path d="M25.248 36.6804L6.5332 53.6128C5.9433 54.1465 5 53.7279 5 52.9324V19.0675c0-.7955.9432-1.2141 1.5332-.6804L25.248 35.3196c.4026.3643.4026.9965 0 1.3608z"/><path fill="#f1b31c" stroke="#000" stroke-linecap="round" stroke-linejoin="round" stroke-width="2" d="M26 34L5 17v4l18.529 15L5 51v4l21-17h41v-4H26z"/><path fill="none" stroke="#f1b31c" stroke-linecap="round" stroke-linejoin="round" d="M12.3334 39.2727c2.1513.1362 4.0105-1.4864 4.1666-3.6363-.1248-1.72-1.6123-3.0181-3.3333-2.9091-1.3768-.0872-2.5668.9512-2.6667 2.3272.0799 1.1008 1.0319 1.9316 2.1334 1.8619"/><g><path fill="none" stroke="#000" stroke-linecap="round" stroke-linejoin="round" stroke-width="2" d="M5 17h62v38H5z"/></g></svg>