<svg xmlns="http://www.w3.org/2000/svg" role="img" viewBox="5.84 5.84 60.19 60.19"><title>1F30D.svg</title><g stroke-linecap="round" stroke-linejoin="round" stroke-miterlimit="10" stroke-width="2"><circle cx="36" cy="36" r="28" fill="#92D3F5"/><path fill="#B1CC33" d="M49.4394 11.4301C48.9012 12.3361 47.7952 13.5726 47 14c-1.2452.6692-1.904.2672-3 1-1.2689.8484-1.2095 1.9379-2 2-.8018.063-.6879-1.993-1-3-.4521-1.4585-.2307-1.5267-1-2-1.0834-.6665-3.2121-1.0502-5 0-.7094.4167-.7506.682-3 4-1.7096 2.5218-2.188 3.1093-2 4 .1989.9419.0427 1.7474 1 2 1.1873.3132 1.3661-.2722 2-1 1.3282-1.525 2.3581-3.7828 3-4 .5713-.1933 2.0656 1.3495 2 3-.0463 1.1654-.852 1.922-2 3-.7417.6965-2.875 1.5-6 2-1.719.275-1.4083.8524-2.0625 1.5938-.8427.955-.4615 2.1691-1.2812 3.3125-1.0252 1.43-3.4727 1.7917-3.6564 2.7188C22.8432 33.4154 24.9604 33.9845 26 34c.8505.0127 1.0644-.7721 3-2 .7408-.47 1.75-1.2812 2.6875-1.25.5041.0168 1.8289.2852 2.3438.7188.5938.5-.1562 1.8438-.4062 3.1562s-2.8976 1.8646-3.8542 2.0208c-1.5737.257-4.1439-.5228-5.6042.9375-1 1-1.1155 1.766-1.1667 3.4167-.0129.4172.937 3.0323 2 4 1.1442 1.0416 2.2939-.8356 4 0 1.7456.8549 2.493 2.7288 3 4 .5078 1.2731.1756 1.1679 1 5 .4146 1.9271.3191 1.1194 1 4 .5632 2.3826.5889 2.7678 1 3 1.1732.6628 3.8997-.8162 5-3 .6895-1.3683.2111-1.9625 1-5 .3928-1.5123.5892-2.2685 1-3 1.7332-3.0861 4.8828-3.1256 5-5 .0802-1.2824-1.3573-1.8515-1-3 .3421-1.0997 1.8099-1.0603 2-2 .2579-1.2752-2.2492-2.316-2-3 .2822-.7746 4.0696-1.0098 6 1 .6397.666.4982.9775 2 4 1.3839 2.7851 1.7637 3.0431 2 3 .4287-.0782.3223-1.1355 1-3 .3243-.8922 1.0927-3.0062 2-3 .6247.0043.7386 1.0097 2 2 .7103.5576 1.7908.8806 2.3474 1.0378C63.7747 40.0932 64 38.0729 64 36c0-10.6315-5.9252-19.8791-14.6535-24.6206"/></g><g fill="none" stroke="#000" stroke-linecap="round" stroke-linejoin="round" stroke-miterlimit="10" stroke-width="2"><circle cx="36" cy="36" r="28"/><path d="M49.4394 11.4301C48.9012 12.3361 47.7952 13.5726 47 14c-1.2452.6692-1.904.2672-3 1-1.2689.8484-1.2095 1.9379-2 2-.8018.063-.6879-1.993-1-3-.4521-1.4585-.2307-1.5267-1-2-1.0834-.6665-3.2121-1.0502-5 0-.7094.4167-.7506.682-3 4-1.7096 2.5218-2.188 3.1093-2 4 .1989.9419.0427 1.7474 1 2 1.1873.3132 1.3661-.2722 2-1 1.3282-1.525 2.3581-3.7828 3-4 .5713-.1933 2.0656 1.3495 2 3-.0463 1.1654-.852 1.922-2 3-.7417.6965-2.875 1.5-6 2-1.719.275-1.4083.8524-2.0625 1.5938-.8427.955-.4615 2.1691-1.2812 3.3125-1.0252 1.43-3.4727 1.7917-3.6564 2.7188C22.8432 33.4154 24.9604 33.9845 26 34c.8505.0127 1.0644-.7721 3-2 .7408-.47 1.75-1.2812 2.6875-1.25.5041.0168 1.8289.2852 2.3438.7188.5938.5-.1562 1.8438-.4062 3.1562s-2.8976 1.8646-3.8542 2.0208c-1.5737.257-4.1439-.5228-5.6042.9375-1 1-1.1155 1.766-1.1667 3.4167-.0129.4172.937 3.0323 2 4 1.1442 1.0416 2.2939-.8356 4 0 1.7456.8549 2.493 2.7288 3 4 .5078 1.2731.1756 1.1679 1 5 .4146 1.9271.3191 1.1194 1 4 .5632 2.3826.5889 2.7678 1 3 1.1732.6628 3.8997-.8162 5-3 .6895-1.3683.2111-1.9625 1-5 .3928-1.5123.5892-2.2685 1-3 1.7332-3.0861 4.8828-3.1256 5-5 .0802-1.2824-1.3573-1.8515-1-3 .3421-1.0997 1.8099-1.0603 2-2 .2579-1.2752-2.2492-2.316-2-3 .2822-.7746 4.0696-1.0098 6 1 .6397.666.4982.9775 2 4 1.3839 2.7851 1.7637 3.0431 2 3 .4287-.0782.3223-1.1355 1-3 .3243-.8922 1.0927-3.0062 2-3 .6247.0043.7386 1.0097 2 2 .7103.5576 1.7908.8806 2.3474 1.0378C63.7747 40.0932 64 38.0729 64 36c0-10.6315-5.9252-19.8791-14.6535-24.6206z"/></g></svg>