<svg xmlns="http://www.w3.org/2000/svg" role="img" viewBox="2.59 8.47 66.69 60.44"><title>26F2.svg</title><path fill="#fff" d="M9.6925 54.5561L9.2761 32.146s3.5702-8.5423 8.1766.0011l.2968 4.5149 7.3075-.0937.1874-20.611s2.7169-5.3401 6.6517 0l-.2811 11.5234h8.2444l.1874-11.7108s2.5295-5.2464 6.6517.0937l.0937 20.33 8.4318-.0937-.0263-4.5526s2.5321-5.4903 6.3928.0251l.0042 23.7333s-22.3911 10.0245-51.9023-.7495z"/><path fill="#d0cfce" d="M35.955 41.28v-8.545l-5.02-.621 1.793 4.973.717 4.348 2.51-.155z"/><path fill="#9b9b9a" d="M35.955 41.7v-8.544l5.02-.621-1.793 4.972-.717 4.349-2.51-.156z"/><path fill="#d0cfce" d="M36 42.2385l-.045 17.7777H30.98s-.3773-7.7261-1.69-10.9454-9.6-9.2972-9.6-9.2972 11.731 2.47 14.0205 2.4675"/><path fill="#d0cfce" d="M36 60.622v5.5511H5.7425V54.2276s19.2585 6.74 23.8912 6.2538S36 60.622 36 60.622z"/><path fill="#9b9b9a" d="M36 60.622v5.5511h30.2575V54.2276s-19.2585 6.74-23.8912 6.2538S36 60.622 36 60.622z"/><path fill="none" stroke="#61b2e4" stroke-linecap="round" stroke-linejoin="round" stroke-width="2" d="M53.578 35.819v-4.177m-.5317 4.1771v-5.7162c.9717-2.9724 4.1691-4.5942 7.1415-3.6225 1.6853.5509 3.0152 1.8595 3.5933 3.5356v20.917h-.7174v-19.29"/><path fill="#9b9b9a" d="M35.955 42.2385v17.7777h5.02s.3773-7.7261 1.69-10.9454 9.6-9.2972 9.6-9.2972-11.731 2.47-14.02 2.4675"/><path fill="none" stroke="#61b2e4" stroke-linecap="round" stroke-linejoin="round" stroke-width="2" d="M48.0137 16.1195c-.1492-2.4745-2.2676-4.3647-4.7431-4.2321-2.4755-.1326-4.5939 1.7576-4.7431 4.2321v10.6071h-.6243V14.6887c.9716-2.9724 4.1688-4.5944 7.1412-3.6228 1.6855.5509 3.0155 1.8596 3.5936 3.5359v20.9169h-.7174v-19.29l.0931.0231v19.29"/><path fill="none" stroke="#92d3f5" stroke-linecap="round" stroke-linejoin="round" stroke-width="2" d="M18.638 35.8191v-5.7162c-.6738-2.3431-2.8359-3.9428-5.2736-3.9018-2.4806-.1339-4.7333 1.4397-5.4612 3.8149v20.917h.7174v-19.29m24.5362-15.3916v10.4752h.6243V14.6887c-.6738-2.3432-2.8358-3.9428-5.2736-3.9019-2.4806-.1338-4.7333 1.4398-5.4612 3.815v20.9169h.7174"/><g fill="none" stroke="#000" stroke-linecap="round" stroke-linejoin="round" stroke-width="2"><path d="M67.015 66.7126H4.985V53.32A75.62366 75.62366 0 0 0 36 60.0162 75.50394 75.50394 0 0 0 67.015 53.32v13.3926zM16 38.867a58.00986 58.00986 0 0 0 20.41 3.3666A57.99852 57.99852 0 0 0 56 38.4844m-27.43-7.0099c4.7342 1.6908 9.9156 1.6411 14.6165-.14M16 38.867c8.7349 3.0567 14.7001 11.159 15.0248 20.4076M56 38.4844c-8.7349 3.0567-14.7001 11.159-15.0248 20.4076"/><path d="M28.57 31.4983a13.08052 13.08052 0 0 1 2.6427 3.3827 13.32949 13.32949 0 0 1 1.5856 6.5539M43.09 31.4983a13.08483 13.08483 0 0 0-2.6427 3.3827 13.33192 13.33192 0 0 0-1.5856 6.5539m15.3699-5.6158v-3.672c.0111-2.2579 1.8506-4.0793 4.1085-4.0682 2.2422.011 4.0572 1.826 4.0682 4.0682V50.91M39.1816 26.7266V16.756c.0111-2.2579 1.8506-4.0793 4.1085-4.0682 2.2422.011 4.0572 1.826 4.0682 4.0682v18.7627m-29.9056.3004v-3.672c.0003-2.2579-1.8298-4.0886-4.0877-4.0889-2.2579-.0003-4.0885 1.8298-4.0889 4.0877v18.764m23.2266-24.1833V16.756c0-2.2579-1.8304-4.0883-4.0883-4.0883s-4.0883 1.8304-4.0883 4.0883v18.7627"/></g></svg>