<svg xmlns="http://www.w3.org/2000/svg" role="img" viewBox="6.78 8.28 56.81 50.81"><title>1F9BC.svg</title><path fill="#a57939" d="M53.5813 29.472a3.5128 3.5128 0 0 1-1 .0729H35.4045a1.0029 1.0029 0 0 0-1 1v2.0076a1.0029 1.0029 0 0 0 1 1h21.1843a1.0029 1.0029 0 0 0 1-1V11.3682a1.0029 1.0029 0 0 0-1-1h-2.0075a1.0029 1.0029 0 0 0-1 1V29.472z"/><path fill="#ea5a47" d="M41.3058 33.5525c-7.8 2.8289-8.5532 11.1565-8.5532 11.1565l-9.29.1483a14.883 14.883 0 0 1 1.9152 7.0546l10.81.1463v-.1463a12.4838 12.4838 0 1 1 24.9676 0c1.7835-10.7-3.5667-19.6176-3.5667-19.6176"/><circle cx="48.196" cy="50.8" r="6.291" fill="#d0cfce"/><circle cx="15.176" cy="50.8" r="6.291" fill="#d0cfce"/><g fill="none" stroke="#000" stroke-width="2"><path stroke-linecap="round" stroke-linejoin="round" d="M23.6968 45.7191a10.9438 10.9438 0 0 1 1.6812 6.1928l10.81.1463v-.1463a12.4838 12.4838 0 1 1 24.9676 0c1.7835-10.7-3.5667-19.6176-3.5667-19.6176"/><path stroke-linecap="round" stroke-linejoin="round" d="M41.3058 33.5525c-7.8 2.8289-8.7086 12.14-8.7086 12.14l-4.079.0123"/><circle cx="48.196" cy="50.8" r="6.291" stroke-miterlimit="10"/><path stroke-linecap="round" stroke-linejoin="round" d="M25.378 51.9119a12.505 12.505 0 0 0-8.3441-11.7237M53.5813 29.472a3.5128 3.5128 0 0 1-1 .0729H35.4045a1.0029 1.0029 0 0 0-1 1v2.0076a1.0029 1.0029 0 0 0 1 1h21.1843a1.0029 1.0029 0 0 0 1-1V11.3682a1.0029 1.0029 0 0 0-1-1h-2.0075a1.0029 1.0029 0 0 0-1 1V29.472z"/><path stroke-linecap="round" stroke-linejoin="round" d="M21.275 42.528l9.344-21.984 3.786.037 2.896.029m-2.897-2.129v2.1"/><circle cx="15.176" cy="50.799" r="6.291" stroke-miterlimit="10" transform="rotate(-1.335 15.175 50.796)"/></g></svg>