<svg xmlns="http://www.w3.org/2000/svg" role="img" viewBox="10.00 15.00 51.87 41.87"><title>1F39E.svg</title><path fill="#D0CFCE" d="M42.3923 24.6798L60 24.9369l.1694-7.6202L12 16.8286v8.1083l20.3445-.2571c.5527 0 1.6146.5054 1.6146 1.0576l-.2315 20.9094c0 .5527-2.9051.3328-3.4578.3328L12 46.6875V55l48-.258v-7.7624H39.8702c-.5528 0-1.6399-.4474-1.6399-1.0001l.4195-20.7302c0-.5522 3.1897-.5695 3.7425-.5695z"/><path fill="#FFF" d="M38.244 24.937h21.742V46.98H38.244zm-26.24 0h21.951V46.98H12.004z"/><g><path fill="none" stroke="#000" stroke-linecap="round" stroke-linejoin="round" stroke-miterlimit="10" stroke-width="2" d="M12 17h48v38H12z"/><path fill="none" stroke="#000" stroke-linecap="round" stroke-linejoin="round" stroke-miterlimit="10" stroke-width="2" d="M12 24.937h21.959V46.98H12m48 0H38.23V24.937H60"/><circle cx="18.095" cy="20.908" r="1.079"/><circle cx="24.095" cy="20.908" r="1.079"/><circle cx="30.095" cy="20.908" r="1.079"/><circle cx="36.095" cy="20.908" r="1.079"/><circle cx="42.095" cy="20.908" r="1.079"/><circle cx="48.095" cy="20.908" r="1.079"/><circle cx="54.095" cy="20.908" r="1.079"/><circle cx="18.078" cy="51.026" r="1.079"/><circle cx="24.078" cy="51.026" r="1.079"/><circle cx="30.078" cy="51.026" r="1.079"/><circle cx="36.078" cy="51.026" r="1.079"/><circle cx="42.078" cy="51.026" r="1.079"/><circle cx="48.078" cy="51.026" r="1.079"/><circle cx="54.078" cy="51.026" r="1.079"/></g></svg>