<svg xmlns="http://www.w3.org/2000/svg" role="img" viewBox="5.72 5.84 60.32 60.20"><title>25D1.svg</title><path d="M35 44.2857V7c7.9565 0 15.5871 3.0553 21.2132 8.4939C61.8393 20.9325 65 28.3087 65 36s-3.1607 15.0675-8.7868 20.5061C50.5871 61.9447 42.9565 65 35 65V44.2857z"/><path fill="#fff" d="M36 45V9c-7.4261 0-14.548 2.95-19.799 8.201C10.95 22.452 8 29.5739 8 37s2.95 14.548 8.201 19.799C21.452 62.05 28.5739 65 36 65V45z"/><path fill="#3F3F3F" d="M35 44.2857V7c7.9565 0 15.5871 3.0553 21.2132 8.4939C61.8393 20.9325 65 28.3087 65 36s-3.1607 15.0675-8.7868 20.5061C50.5871 61.9446 42.9565 65 35 65V44.2857z"/><g fill="none" stroke="#000" stroke-width="2"><path stroke-linejoin="round" d="M36 64c15.464 0 28-12.536 28-28S51.464 8 36 8 8 20.536 8 36s12.536 28 28 28z"/><path stroke-linecap="round" d="M36 8v53"/></g></svg>