<svg xmlns="http://www.w3.org/2000/svg" role="img" viewBox="10.00 10.00 51.87 51.87"><title>25E8.svg</title><path d="M60 12H35v48h25V12z"/><path fill="#fff" d="M36 12H12v48h24V12z"/><path fill="#3F3F3F" d="M60 12H35v48h25V12z"/><g fill="none" stroke="#000" stroke-width="2"><path stroke-linejoin="round" d="M59.0349 60h-46.07a.96772.96772 0 0 1-.6815-.2836.96753.96753 0 0 1-.2834-.6815v-46.07a.96772.96772 0 0 1 .2836-.6815.96753.96753 0 0 1 .6815-.2834h46.07a.96772.96772 0 0 1 .6815.2836.96753.96753 0 0 1 .2834.6815v46.07a.96772.96772 0 0 1-.2836.6815.96753.96753 0 0 1-.6815.2834v0z"/><path stroke-linecap="round" d="M36 13v44"/></g></svg>