<svg xmlns="http://www.w3.org/2000/svg" role="img" viewBox="2.59 23.59 66.56 45.56"><title>E2D0.svg</title><path fill="#61B2E4" d="M68 44.7744c-8 0-11.1127 3-16.1127 3s-10-3-16-3-10 3-16 3-12.8873-3-15.8873-3V68h64V44.7744z"/><g fill="none" stroke="#000" stroke-linecap="round" stroke-width="2"><path stroke-linejoin="round" d="M4.8873 44.7744c3 0 9 3 15 3s10-3 16-3 11 3 16 3 7-3 15-3"/><path stroke-miterlimit="10" d="M18.922 39.556V26.493m-5.0005 4.6135L18.8 25.9256c.0397-.0421.106-.0441.1481-.0044a.14786.14786 0 0 1 .0056.0056l4.9678 5.4432m27.6165 8.186V26.493m-5.0001 4.6135l4.8786-5.1809c.0397-.0421.106-.0441.1481-.0044a.14786.14786 0 0 1 .0056.0056l4.9677 5.4432"/></g></svg>