<svg xmlns="http://www.w3.org/2000/svg" role="img" viewBox="13.72 5.84 44.31 60.19"><title>2B2E.svg</title><path d="M55.9999 35.9585C56.0349 51.4217 47.1089 63.9768 36.063 64c-11.0459.0231-20.0289-12.4943-20.0629-27.9585-.035-15.4632 8.891-28.0183 19.9369-28.04147C46.9829 7.97686 55.9659 20.4943 55.9999 35.9585z"/><path fill="#3F3F3F" d="M55.9999 35.9585C56.0349 51.4217 47.1089 63.9768 36.063 64c-11.0459.0231-20.0289-12.4943-20.0629-27.9585-.035-15.4632 8.891-28.0183 19.9369-28.04147C46.9829 7.97686 55.9659 20.4943 55.9999 35.9585z"/><path fill="none" stroke="#000" stroke-width="2" d="M56 36c0 15.4637-8.954 28-20 28S16 51.4637 16 36 24.954 8 36 8s20 12.5363 20 28z"/></svg>