<svg xmlns="http://www.w3.org/2000/svg" role="img" viewBox="14.34 5.71 43.20 60.45"><title>1F446.svg</title><path fill="#FCEA2B" d="M55.36 33.7297c-.38-1.44-1.66-2.53-3.23-2.6-1.67-.07-3.12 1.04-3.52 2.6h-.19c0 .02.01.05.01.08-.01-.03-.01-.06-.02-.08v-.0099-.01c-.11-.56-.35-1.06-.69-1.49-.06-.08-.1299-.16-.21-.2401-.17-.18-.35-.34-.56-.47-.07-.05-.14-.1-.21-.14-.17-.1-.34-.18-.52-.25-.1-.04-.2-.07-.3-.09-.12-.04-.25-.07-.38-.09l-.24-.03h-.06c-.09-.01-.17-.01-.26-.01-.12 0-.23 0-.34.02-.23.02-.44.06-.65.12-.43.13-.83.34-1.18.6201-.08.06-.16.1299-.24.21-.09.07-.16.15-.23.24-.07.08-.14.16-.2.25s-.12.18-.18.28c-.11.19-.2.39-.28.6-.05.16-.1.32-.12.49h-.13c-.12-1.72-1.49-3.12-3.26-3.23-1.74-.11-3.25 1.06-3.63 2.7v.58l-.09-.01v-22.37c0-.11-.01-.23-.02-.34-.17-1.78-1.65-3.16-3.48-3.16-1.93 0-3.5 1.56-3.5 3.5v24.27l.02.03-.02 1.25v-1.28l-.79-1.0699-1.35-1.83-.69.45c-.22-.23-.51-.48-.87-.71l-.01-.01c-1.8-1.28-5-2.58-6.16-1.46-1.35 1.3101-.56 4.23 4.86 11.3701.99 20.84 8.68 19.56 16.58 21.69 7.66.71 16.13-6.3101 16.25-18.14h.21V34.62c0-.3102-.04-.6002-.12-.8903zm-13.86.38h-.01c.01-.07.01-.14.03-.21-.01.0701-.02.14-.02.21z"/><g fill="none" stroke="#000" stroke-linecap="round" stroke-linejoin="round" stroke-miterlimit="10" stroke-width="2"><path d="M55.4792 47.6473c0 9.0883-7.3675 16.4558-16.4558 16.4558s-16.4558-7.3675-16.4558-16.4558m32.9114-.8733v-12m-6.9921-.2936c.081-1.9313 1.7123-3.4313 3.6436-3.3502 1.9313.081 3.4312 1.7123 3.3502 3.6436M41.49 34.2475c.081-1.9313 1.7123-3.4312 3.6436-3.3502s3.4313 1.7123 3.3502 3.6436"/><path d="M41.494 34.1136c.155-1.9268 1.8426-3.3631 3.7694-3.2081s3.3631 1.8426 3.2081 3.7694m-14.0191-.9057c.1237-1.929 1.7878-3.3925 3.7168-3.2688s3.3925 1.7878 3.2688 3.7168m-23.9394 1.7756c-1.3429-1.3904-1.3044-3.6061.086-4.949 1.3904-1.3429 3.6061-1.3044 4.949.086m4.9188-19.7329c0-1.933 1.567-3.5 3.5-3.5s3.5 1.567 3.5 3.5M34.452 33.732V11.397m-7 0v27.791m-2.96-5.845l-1.958-2.213m-3.2677 7.1825c1.9526 2.1439 3.3734 5.1677 3.3013 9.5218M17.499 35.993l1.821 2.38"/></g></svg>