<svg xmlns="http://www.w3.org/2000/svg" role="img" viewBox="8.83 9.46 54.21 52.46"><title>1F4F3.svg</title><g stroke-linecap="round" stroke-linejoin="round" stroke-miterlimit="10" stroke-width="2"><path fill="#9b9b9a" d="M49.7892 60H22.2108c-.4616 0-.8357-.3741-.8357-.8357V12.3645c0-.4616.3741-.8357.8357-.8357h27.5784c.4616 0 .8357.3741.8357.8357v46.7998c0 .4616-.3741.8357-.8357.8357z"/><path fill="#d0cfce" d="M46.0569 51.8398H25.9431c-.4459 0-.8074-.3614-.8074-.8074V17.5473c0-.4459.3614-.8074.8074-.8074h20.1137c.4459 0 .8074.3614.8074.8074v33.4851c0 .4459-.3614.8074-.8073.8074z"/><path fill="#FFF" d="M31.821 14.233h8.358-8.358z"/></g><path fill="none" stroke="#000" stroke-linecap="round" stroke-linejoin="round" stroke-miterlimit="10" stroke-width="2" d="M60.998 12l-5.999 8 5.999 8-5.999 7.999.007-.001L61 44.001l-6.003 7.996L60.991 60m-49.992 0l5.999-8-5.999-7.999 5.999-8-.007.001L10.997 28 17 20.003 11.006 12m38.7832 48H22.2108c-.4616 0-.8357-.3741-.8357-.8357V12.3645c0-.4616.3741-.8357.8357-.8357h27.5784c.4616 0 .8357.3741.8357.8357v46.7998c0 .4616-.3741.8357-.8357.8357z"/><path fill="none" stroke="#000" stroke-linecap="round" stroke-linejoin="round" stroke-miterlimit="10" stroke-width="2" d="M46.0569 51.8398H25.9431c-.4459 0-.8074-.3614-.8074-.8074V17.5473c0-.4459.3614-.8074.8074-.8074h20.1137c.4459 0 .8074.3614.8074.8074v33.4851c0 .4459-.3614.8074-.8073.8074z"/><circle cx="36" cy="56.018" r="1.671"/><path fill="none" stroke="#000" stroke-linecap="round" stroke-linejoin="round" stroke-miterlimit="10" stroke-width="2" d="M31.821 14.233h8.358-8.358z"/></svg>