<svg xmlns="http://www.w3.org/2000/svg" role="img" viewBox="10.00 12.00 51.87 47.87"><title>1F3CB.svg</title><path d="M16 31c0 .5498-.4502 1-1 1h-2c-.5498 0-1-.4502-1-1V15c0-.5498.4502-1 1-1h2c.5498 0 1 .4502 1 1v16zm44 0c0 .5498-.4502 1-1 1h-2c-.5498 0-1-.4502-1-1V15c0-.5498.4502-1 1-1h2c.5498 0 1 .4502 1 1v16z" fill="#3F3F3F"/><g fill="#FCEA2B"><circle cx="35.969" cy="18.094" r="3"/><path d="M41 39l5 2-2 17h-4V45h-8v13h-4l-2-17 5-2s-1.2812-6.3018-1.875-8.458c-.333-1.209-1.125-.834-1.459-.5-.125.125-1.79 3.166-3.624 3.166s-2.8174-.5254-3.292-1.291c-1.292-2.084-3.125-9.042-3.125-9.042l2.458-.5 1.959 7.333 1.416.875 3.125-3.6665L30.042 25.5l11.541-.2085 3.709 1.5 2.499 3.1255 1.667.5 1.375-4 1.417-3.667 1.958.3335s-1.624 7.5425-2.916 8.8335-3.584 1.75-4.792.583-1.542-1.875-2.333-2.583c-.2256-.2022-1.125-.709-1.334.542"/></g><g fill="none" stroke="#000" stroke-miterlimit="10" stroke-width="2"><circle cx="35.969" cy="18.094" r="3"/><path stroke-linecap="round" stroke-linejoin="round" d="M20 23l2.0518 6.1543c.5214 1.5654 1.7334 1.7471 2.6923.4043l1.5118-2.1172c.9589-1.3428 3.0839-2.2739 4.7207-2.0693l2.0468.2558c1.6368.2046 4.3164.2046 5.9532 0l2.0468-.2558c1.6368-.2046 3.7618.7265 4.7207 2.0693l1.5118 2.1172c.9589 1.3428 2.1709 1.1611 2.6923-.4043L52 23M41 39l3.1426 1.2568c1.0215.4092 1.7519 1.6368 1.624 2.7295l-1.5332 13.0274C44.1055 57.1064 43.0996 58 42 58h0c-1.0996 0-2-.9004-2-2v-9c0-1.0996-.4502-2-1-2h-3 0-3c-.5498 0-1 .9004-1 2v9c0 1.0996-.9004 2-2 2h0c-1.0996 0-2.1055-.8936-2.2334-1.9863l-1.5332-13.0274c-.1279-1.0927.6025-2.3203 1.624-2.7295L31 39"/><path stroke-linecap="round" stroke-linejoin="round" d="M31 39v-2c0-1.0996-.2246-3.125-.5-4.5S30 30 30 30m11 9v-2.1875c0-1.2031.2109-3.2285.4688-4.5.2578-1.2715.4687-2.3125.4687-2.3125M16 31c0 .5498-.4502 1-1 1h-2c-.5498 0-1-.4502-1-1V15c0-.5498.4502-1 1-1h2c.5498 0 1 .4502 1 1v16zm44 0c0 .5498-.4502 1-1 1h-2c-.5498 0-1-.4502-1-1V15c0-.5498.4502-1 1-1h2c.5498 0 1 .4502 1 1v16zm-18-9c4 0 14 1 14 1m-40 0s7-1 14-1"/></g></svg>