<svg xmlns="http://www.w3.org/2000/svg" role="img" viewBox="10.00 10.00 51.87 51.87"><title>E068.svg</title><path fill="#fcea2b" d="M59.0349 60h-46.07A.9679.9679 0 0 1 12 59.0349v-46.07A.9679.9679 0 0 1 12.9651 12h46.07a.9679.9679 0 0 1 .9649.9651v46.07a.9679.9679 0 0 1-.9651.9649z"/><g fill="none" stroke="#000" stroke-linejoin="round"><path stroke-width="2" d="M59.0349 60h-46.07A.9679.9679 0 0 1 12 59.0349v-46.07A.9679.9679 0 0 1 12.9651 12h46.07a.9679.9679 0 0 1 .9649.9651v46.07a.9679.9679 0 0 1-.9651.9649z"/><path stroke-linecap="round" stroke-miterlimit="10" stroke-width="4.453" d="M53.82 41.34c-.4564-1.777-2.429-3.11-4.793-3.11-2.703 0-4.893 1.743-4.893 3.896 0 2.151 2.191 3.896 4.893 3.896l-.1002.01336c2.703 0 4.893 1.745 4.893 3.896 0 2.153-2.191 3.896-4.893 3.896-2.364 0-4.337-1.336-4.793-3.112" clip-rule="evenodd"/><path stroke-linecap="round" stroke-miterlimit="10" stroke-width="4.456" d="M36.74 38.23v10.03c0 3.077-2.493 5.569-5.569 5.569-1.432 0-2.738-.5414-3.727-1.43" clip-rule="evenodd"/></g></svg>