<svg xmlns="http://www.w3.org/2000/svg" role="img" viewBox="21.99 7.37 27.89 58.89"><title>1F4CD.svg</title><path fill="#EA5A47" d="M35.9717 9.7197c-6.4217 0-11.6459 5.2242-11.6459 11.6459S29.55 33.0115 35.9717 33.0115c6.4216 0 11.6459-5.2242 11.6459-11.6459S42.3933 9.7197 35.9717 9.7197z"/><path fill="#D22F27" d="M39.1689 32.3818c1.7258-.6456 3.289-.8166 4.8143-2.212 2.1013-1.9223 3.9035-5.3398 3.9035-8.0238 0-2.4449-.578-5.3031-2.3421-7.6335-1.6276-2.15-4.3608-3.8416-6.3757-4.554 0 0 3.5175 5.6512 3.5175 11.3739s-3.5175 11.0494-3.5175 11.0494z"/><path fill="#D0CFCE" d="M35.837 63.4888l2.8467-7.6704s-.8248-19.5768-.3788-19.6775h-5.1693c.4459.1007-.2244 19.5589-.2244 19.5589l2.9258 7.789z"/><path fill="#9B9B9A" d="M35.9556 62.7376l2.649-7.0773s.1045-19.0577.0622-19.5266l-2.9331.0072.2219 26.5967z"/><g fill="none" stroke="#000" stroke-linecap="round" stroke-linejoin="round" stroke-miterlimit="10" stroke-width="2"><circle cx="35.971" cy="21.366" r="11.808"/><path d="M38.52 37.098v18.616l-2.584 8.505-3.015-8.505V37.098"/></g></svg>