<svg xmlns="http://www.w3.org/2000/svg" role="img" viewBox="11.00 11.00 49.87 51.87"><title>1F5E8.svg</title><path fill="#FFF" stroke-linecap="round" stroke-linejoin="round" stroke-miterlimit="10" stroke-width="2" d="M54.8808 49.1283C57.4746 45.405 59 40.8818 59 36c0-12.7026-10.2974-23-23-23S13 23.2974 13 36c0 12.7025 10.2974 23 23 23 3.7581 0 7.3021-.9071 10.4348-2.5054l4.8138 2.0528 5.7283 2.4428-1.0836-6.1324-1.0125-5.7295z"/><path fill="none" stroke="#000" stroke-linecap="round" stroke-linejoin="round" stroke-miterlimit="10" stroke-width="2" d="M54.8808 49.1283C57.4746 45.405 59 40.8818 59 36c0-12.7026-10.2974-23-23-23S13 23.2974 13 36c0 12.7025 10.2974 23 23 23 3.7581 0 7.3021-.9071 10.4348-2.5054l4.8138 2.0528 5.7283 2.4428-1.0836-6.1324-1.0125-5.7295z"/></svg>