<svg xmlns="http://www.w3.org/2000/svg" role="img" viewBox="10.99 8.24 49.90 52.65"><title>1F613.svg</title><path fill="#FCEA2B" d="M36 12c-13.2337 0-24 10.7663-24 24 0 13.2336 10.7663 24 24 24 13.2336 0 24-10.7664 24-24 0-13.2337-10.7664-24-24-24z"/><path fill="#92D3F5" d="M24.8117 10.5867c.1789.1789 4.3858 4.4369 4.3857 8.8871 0 2.7193-2.2652 4.9237-5.0594 4.9237s-5.0594-2.2044-5.0594-4.9237c-.0001-4.4502 4.2068-8.7082 4.3857-8.8871.3722-.3722.975-.372 1.347 0h.0004z"/><g fill="none" stroke="#000" stroke-miterlimit="10" stroke-width="2"><path stroke-linecap="round" stroke-linejoin="round" d="M28.5 45c1.5805-2.5575 4.9043-4.1349 8.4211-4.0038 3.2288.1204 6.1411 1.6633 7.5789 4.0038m-4-13.2747c.4132-.344 2.2456-1.7915 4.9091-1.6364 2.1608.1259 3.61 1.2333 4.0909 1.6364m-27 0c.4132-.344 2.2456-1.7915 4.9091-1.6364 2.1608.1259 3.61 1.2333 4.0909 1.6364"/><path stroke-linecap="round" d="M32.0757 13.3335C33.3509 13.1142 34.6621 13 36 13c12.7025 0 23 10.2975 23 23S48.7025 59 36 59 13 48.7025 13 36c0-4.2618 1.1591-8.2528 3.1793-11.675"/><path d="M24.8117 10.5867c.1789.1789 4.3858 4.4369 4.3857 8.8871 0 2.7193-2.2652 4.9237-5.0594 4.9237s-5.0594-2.2044-5.0594-4.9237c-.0001-4.4502 4.2068-8.7082 4.3857-8.8871.3722-.3722.975-.372 1.347 0h.0004z"/></g></svg>