<svg xmlns="http://www.w3.org/2000/svg" role="img" viewBox="3.63 3.76 64.48 64.36"><title>E380.svg</title><circle cx="36" cy="36" r="26" fill="#fff"/><path fill="#fcea2b" stroke="#fcea2b" stroke-linecap="round" stroke-width="1.819" d="M49.62 41.34c1.547-1.853 2.899-2.338 4.094-4.441 1.366-4.415-.789-11.76-6.759-12.59-1.138-.1574-1.125.0083-2.566.07323"/><path fill="#fcea2b" stroke="#fcea2b" stroke-linecap="round" stroke-width="1.819" d="M49.36 41.56c-1.18 1.237-13.81 8.461-13.81 7.436-1.677 1.234-6.19 2.201-5.501-1.159-.8938.3262-3.676.4815-2.809-2.512-2.224 1.082-4.121-.6114-3.828-2.517-1.969.3557-3.173-1.249-2.619-3.163-4.516-3.073-4.592-12.03.04338-14.89 1.75-1.332 2.351 3.159 5.196 2.133l9.713-3.012 5.474-1.356c1.171-.3074 2.245.2522 2.654 1.392.1604 3.828 7.468 16.76 5.489 17.65"/><path fill="#fcea2b" d="M39.08 47.74c-.6379-.8428-1.591-.9892-2.461-.4962-.813.4607-1.413 1.388-.8401 2.365 0 0 .613 1.031.7864 1.392.07344.1527.147.3053.2493.4404.6379.8428 1.838 1.009 2.681.3716.8428-.6376 1.009-1.838.3716-2.681.00005 0-.787-1.391-.787-1.391l-.00027-.00092"/><path fill="#fcea2b" d="M42.39 45.86c-.6379-.8428-1.591-.9892-2.461-.4962-.813.4607-1.413 1.388-.8401 2.365 0 0 .613 1.031.7864 1.392.07344.1527.147.3053.2493.4404.6379.8428 2.705 1.443 3.548.8053.8428-.6376 1.009-2.228.3716-3.071.5639-.08669-1.654-1.434-1.654-1.434l-.00027-.00092"/><path fill="#fcea2b" d="M45.7 43.99c-.6379-.8428-1.591-.9892-2.461-.4962-.813.4607-1.413 1.388-.8401 2.365 0 0 .613 1.031.7864 1.392.07344.1527.147.3053.2493.4404.6379.8428 1.838 1.009 2.681.3716.8428-.6376 1.009-1.838.3716-2.681.00005.00006-.787-1.391-.787-1.391l-.00027-.00092"/><path fill="#ea5a47" stroke-miterlimit="10" d="M36 7C19.98 7 7 19.98 7 36s12.98 29 29 29 29-12.98 29-29S52.02 7 36 7zM10.79 36.27c0-5.075 3.417-12.69 6.202-16.49l35.2 35.27c-3.805 2.784-10.93 5.904-16.01 5.904-12.7 0-25.39-11.98-25.39-24.68zm44.87 15.18L20.6 16.32c3.805-2.784 10.77-5.441 15.84-5.441 12.7 0 24.68 12.25 24.68 24.95 0 5.075-2.686 11.81-5.47 15.62z"/><g fill="none" stroke="#000" stroke-linecap="round" stroke-linejoin="round"><circle cx="36" cy="36" r="30" stroke-width="2"/><path stroke-width="2" d="M55.66 51.44A24.99 24.99 0 0 0 20.6 16.31zM16.99 19.77a24.99 24.99 0 0 0 35.2 35.27z"/><path stroke-width="2" d="M49.56 41.4s3.254-2.857 4.074-4.273c2.565-4.413-.5542-11.5-6.097-12.68M34.83 41.37l-7.53 4.08m10.36-1.29l-7.596 3.776M23.46 42.96l2.978-2.532 4.835-2.519"/><path stroke-width="2" d="M35.54 49.1c-5.007 3.176-6.302-.1717-5.482-1.159-1.597.9443-3.626-.3004-2.763-2.489-2.245 1.073-4.101-.6009-3.842-2.489-1.942.3434-3.151-1.245-2.59-3.133-3.925-2.664-4.518-9.921-1.516-13.6m7.81 7.928l-2.492 1.418c-1.468.9872-3.496 3.391-3.799 4.249"/><path stroke-width="2" d="M39.08 47.85c-.6475-.8584-1.597-.9872-2.46-.515-.8202.4721-1.424 1.373-.8633 2.361 0 0 .6475 1.03.8202 1.373.04317.1288.1295.3004.2158.4292.6475.8584 1.856.9872 2.676.3863.8633-.6438.9928-1.846.3885-2.661l-.777-1.373z"/><path stroke-width="2" d="M39.33 45.97c-.4456.4954-.6563 1.17-.2472 1.89 0 0 .6043.9872.777 1.373.08633.1288.1295.3004.259.4292.6043.8155 1.813.9872 2.676.3434a1.77565 1.77565 0 0 0 .2284-.1993"/><path stroke-width="1.819" d="M33.11 24.57l2.495-.774 5.474-1.356c1.171-.3074 2.383.3314 2.791 1.472.4391 1.636.9789 2.889 2.102 4.868.4255 1.038-.0612 2.225-1.093 2.666-1.114.277-1.623-.2243-2.605-.9799-1.282-1.221-1.535-1.741-2.222-2.658l-3.029.8602"/></g></svg>