<svg xmlns="http://www.w3.org/2000/svg" role="img" viewBox="2.72 14.72 66.43 42.43"><title>1F3F4-E0067-E0062-E0077-E006C-E0073-E007F.svg</title><path fill="#5c9e31" d="M5 17h62v38H5z"/><path fill="#fff" d="M5 17h62v19H5z"/><path fill="#d22f27" stroke="#d22f27" stroke-linecap="round" stroke-linejoin="round" stroke-width="2" d="M59 27.5V23l-2.769 3.462L59 27.5z"/><ellipse cx="53" cy="31" fill="none" stroke="#d22f27" stroke-linecap="round" stroke-linejoin="round" stroke-width="2" rx="1.5" ry="1"/><path fill="none" stroke="#d22f27" stroke-linecap="round" stroke-linejoin="round" stroke-width="2" d="M58 26c-1.2829 3.7235-2.7439 6-5 6m0 18l-2-1h-3l-3 1.5m3-1.5l-2-1m5 1l-3-9M38 50l-2-1h-3l-3 1.5m3-1.5l-2-1m-8 2l-2-1h-3l-3 1.5m3-1.5l-2-1m5 1l6-6m-6 6l3-6m-10-5l1-2v-3l-1.5-3m1.5 3l1-2m-1 5l6 5m-9-18a4 4 0 0 0 4 4m0 0h2"/><path fill="#d22f27" stroke="#d22f27" stroke-linecap="round" stroke-linejoin="round" stroke-width="2" d="M42 21l-6.5858 6.5858A5.565 5.565 0 0 0 34 31v1a3 3 0 0 1-3 3h-4V23h-5l-4 4h6c0 4.403-3 4.5428-3 10v6h13l3.3846 2.5385L36 49l5-5c-2.5-1.6186-1.1176-4.5 1-5 2.3383 2.447 6 3 9 3v-1.5L46 38h7v-2c-3.8571 0-5.1429-1-9-1a4 4 0 0 1 4-4c-2.7965-2.327-.2664-6.8723 3-9-3 2-4.5 3-6.5 3-1.7446 0-2.5-1.2969-2.5-4"/><path fill="none" stroke="#d22f27" stroke-linecap="round" stroke-linejoin="round" stroke-width="2" d="M41 44l2 1m8 4v-8.5m0 0l3 1.5m-1-6c2.5911 0 4.327-2.5526 3.3657-4.1623M53 30a4 4 0 0 1 0 8M27 23l1-1m6 21H21a2.1886 2.1886 0 0 1-1.5812-.8137L15 36"/><g><path fill="none" stroke="#000" stroke-linecap="round" stroke-linejoin="round" stroke-width="2" d="M5 17h62v38H5z"/></g></svg>