<svg xmlns="http://www.w3.org/2000/svg" role="img" viewBox="11.35 9.10 49.42 53.30"><title>E342.svg</title><path fill="#5c9e31" d="M38.23 15.46c-.05391-.9704 3.723-3.997 5.806-.8783.3947.3603 2.126-1.389 4.198-1.123 1.4.1795 1.977 2.648 3.377 3.33 1.36.5103 2.606 1.286 3.663 2.283.3635.4755.115 1.578.4757 3.044.3318 1.349 3.817 1.221 3.044 2.854-2.177 4.831-4.721 9.489-7.608 13.93-2.395 3.375-4.231 7.113-5.439 11.07 0 0-12.28-21.09-7.517-34.51z"/><path fill="#b1cc33" d="M13.37 19.06s.5756-2.126 4.428-2.923c.8819-1.102.7982-4.045 2.918-3.453 3.834.2536 4.765-1.352 8.137-.7087 1.404 1.531 5.977 1.341 6.438 1.327 3.925 5.378 9.018 30.07 7.855 32.25-1.163 2.18-16.35 6.706-16.35 6.706s-14.88-32.77-13.42-33.2z"/><path fill="#fff" d="M26.91 52.79l16.64-6.381 2.603 6.788a1.424 1.424 0 0 1-.82 1.84l-13.62 5.221a1.816 1.816 0 0 1-2.345-1.045z"/><g fill="none" stroke="#000" stroke-linecap="round" stroke-linejoin="round" stroke-width="2"><path d="M26.81 52.84l16.4-6.333 2.959 6.744c.3185.7259-.08601 1.57-.825 1.854l-13.7 5.262c-.9418.3618-1.998-.1096-2.359-1.053zM22.4 26.77c-1.102-3.313-2.039-8.034-4.299-9.815-.771-.6274-1.788-.8635-2.756-.6397-4.352 2.25.1619 9.156 1.219 12.29.8956 2.66 2.043 6.165 2.896 8.616 1.291 3.71 7.348 15.61 7.348 15.61"/><path d="M18.1 16.96c-.2327-4.612 4.101-6.323 6.053-3.535 1.646 2.492 4.171 11 4.171 11M24.34 13.43c.7753-.8783 1.184-1.734 2.307-2.063 1.876-.4919 3.014-.1346 4.041 2.829 1.027 2.964 3.123 9.961 3.123 9.961M30.69 14.2s2.407-2.769 4.881-.605c.8942 1.681 5.535 19.73 5.535 19.73s2.617 10.46 2.104 13.18M18.79 34.83s2.102 2.661 3.196 2.531c2.798-.3336 3.077-3.89 3.15-5.871.07328-1.981.5905-4.11 3.189-3.963 2.598.1468 3.99.5871 3.624 4.183-.3663 3.596-3.003 13.5-3.003 13.5l5.263 4.562M36.99 17.27s2.13-3.556 3.022-3.979c.9583-.4541 4.163.1159 4.112 2.638-.05132 2.522-3.619 8.345-3.619 8.345"/><path d="M44.12 15.93s1.683-2.82 3.258-2.961c2.068-.3008 3.843 1.477 3.543 3.549a6.97858 6.97858 0 0 1-.3487 1.256c-1.45 3.36-3.132 6.616-5.034 9.742M50.79 17.62s2.353-1.24 3.71-.1185a2.769 2.774 0 0 1 .7127 4.046c-.9842 1.768-5.122 9.663-5.122 9.663M55.03 22.19c.0095-.03558 4.244-.8609 3.749 2.792-.2663 1.964-13.84 25.29-13.84 25.29"/></g></svg>