<svg xmlns="http://www.w3.org/2000/svg" role="img" viewBox="5.84 5.84 60.19 60.19"><title>3297.svg</title><circle cx="36" cy="36" r="28" fill="#d0cfce" stroke-linejoin="round" stroke-miterlimit="10" stroke-width="2"/><circle cx="36" cy="36" r="28" fill="none" stroke="#000" stroke-linejoin="round" stroke-miterlimit="10" stroke-width="2"/><path d="M27.8789 24.5283c0-.2918-.2468-.5283-.5513-.5283h-1.3975c-.3044 0-.5513.2365-.5513.5283v2h-3.3674c-.3394 0-.6145.2636-.6145.5889v1.218c0 .3252.2751.5889.6145.5889h6.9021c-.7422 2.2732-2.7661 6.5282-7.5166 6.5282v2.3958c1.5178 0 2.8325-.3326 3.9819-.8681v9.4887c0 .2934.2482.5313.5544.5313h1.3912c.3062 0 .5544-.2379.5544-.5313v-9.7355c.6267.4781 1.4396.9211 2.4801 1.2422.3052.0942.6326-.09.7125-.3876l.3448-1.2838c.0737-.2743-.096-.5455-.3764-.6351-1.2618-.4031-1.8985-.988-2.2112-1.3975 1.7137-2.0718 2.6213-4.605 2.9218-6.3501l.2397-1.393h-4.1113v-2zm21.3163 15.5953h-1.0046c-.413 0-.7477.3429-.7477.7659v2.5168c0 .2351-.0854.4602-.2407.6332-.1704.1896-.4023.2971-.6538.3021-.2417.023-.4868-.0915-.7183-.3276-.1724-.1771-.2676-.4116-.2676-.6617v-9.8174h.2056c1.313 0 2.3809-1.0939 2.3809-2.4388V26.439c0-1.345-1.0679-2.4388-2.3809-2.4388h-7.6743c-1.313 0-2.3809 1.0939-2.3809 2.4388v4.6571c0 1.345 1.0679 2.4388 2.3809 2.4388h.2936c.126 2.5999-.1006 9.1154-5.2887 11.1521-.1655.065-.2617.2515-.2061.4204l.5833 1.7718c.0622.189.2764.2924.4621.2209 5.9949-2.3114 7.1952-9.1902 6.9696-13.5652h2.155v9.8174c0 .9338.355 1.8121 1.0527 2.5264.6465.6622 1.5 1.0244 2.4116 1.0244.0244 0 .0488-.0005.0737-.001 1.2753-.0272 2.4172-.7573 3.0295-2.0039.2226-.4533.3128-.9631.3128-1.4681v-2.5405c0-.4231-.3348-.766-.7477-.766zM38.2129 26.5609h7.436v4.413h-7.436v-4.413z"/></svg>