<svg xmlns="http://www.w3.org/2000/svg" role="img" viewBox="6.88 6.88 58.11 58.11"><title>1F956.svg</title><path fill="#f4aa41" d="M11.9307 45.9297c-3.9043 3.9043-3.9063 10.2363 0 14.1416 3.9043 3.9053 10.2382 3.9053 14.1425.001l33.9991-34.001c3.9043-3.9063 3.9043-10.2373 0-14.1416-3.9063-3.9063-10.2373-3.9063-14.1426-.001l-33.999 34.001z"/><path d="M11.9307 45.9297c-3.9043 3.9043-3.9063 10.2363 0 14.1416 3.9043 3.9053 10.2382 3.9053 14.1425.001l33.9991-34.001c3.9043-3.9063 3.9043-10.2373 0-14.1416-3.9063-3.9063-10.2373-3.9063-14.1426-.001l-33.999 34.001zm33.999-34.001c-3.9043 3.9053-3.9043 10.2373 0 14.1426m-8.5-5.6426c-3.9043 3.9053-3.9043 10.2373 0 14.1426m-8.5-5.6426c-3.9033 3.9063-3.9033 10.2383 0 14.1426m-8.499-5.6416c-3.9043 3.9053-3.9043 10.2373 0 14.1426" fill="none" stroke="#000" stroke-linecap="round" stroke-linejoin="round" stroke-miterlimit="10" stroke-width="2"/></svg>