<svg xmlns="http://www.w3.org/2000/svg" role="img" viewBox="14.13 6.75 44.50 58.50"><title>1FABF.svg</title><path fill="#fff" d="M46.205 37.484c-6.0538-4.0359-12.2998-3.9398-13.8373-5.189-1.057-.8648-1.6336-9.1288.0961-14.5099 2.7867-8.6483-3.171-10.2819-6.5343-7.9757l-4.5163 2.8828c-2.8828 2.8828-6.0538 2.8828-4.9968 3.9398.9609.9609 6.7265.1922 7.9757 1.5375 2.4023 2.5945-1.3453 15.3748-1.9218 20.2755-.8648 6.3421-.0961 9.0327 6.0538 12.3959 1.7297.9609 4.4202 1.6336 6.6304 2.114v4.4202h-8.7444l2.2101 2.8828h2.2101l2.2101 2.8828h4.4202l2.114-2.8828v-6.5343l4.7085.6726c7.0147.8648 12.1076.0961 12.1076.0961S54.0845 42.769 46.2049 37.484z"/><path fill="#e27022" stroke="#e27022" stroke-linecap="round" stroke-linejoin="round" stroke-width="1.922" d="M35.251 57.471h-8.649l2.21 2.883h4.421l2.018-2.883z"/><path fill="#f4aa41" stroke="#f4aa41" stroke-linecap="round" stroke-linejoin="round" stroke-width="1.922" d="M39.671 60.354h-8.745l2.21 2.883h4.421l2.114-2.883z"/><path fill="#f4aa41" stroke="#f4aa41" stroke-linecap="round" stroke-linejoin="round" stroke-width="1.922" d="M24.5842 18.2656c-1.2492-1.4414-7.0147-.5766-7.9757-1.5375-1.057-1.057 2.114-1.057 4.9968-3.9398 1.9218-1.9218 3.3632-.5766 3.3632 1.7297l-.3844 3.7476z"/><g fill="none" stroke="#000" stroke-linecap="round" stroke-width="1.922"><path stroke-linejoin="round" d="M24.8725 14.518c.0961-2.3062-1.4414-3.6515-3.3632-1.7297-2.8828 2.8828-6.0538 2.8828-4.9968 3.9398.9609.9609 6.7265.1922 7.9757 1.5375 2.4023 2.5945-1.3453 15.3748-1.9218 20.2755-.8648 6.3421-.0961 9.0327 6.0538 12.3959 3.4593 1.9218 11.0506 2.8828 11.0506 2.8828v6.5343"/><path stroke-linejoin="round" d="M26.1217 9.9055c3.2671-2.4023 9.2249-.7687 6.5343 7.9757-1.7297 5.3812-1.1531 13.6451-.0961 14.5099 1.5375 1.2492 7.6874 1.057 13.8373 5.189 7.8796 5.2851 10.1858 17.1044 10.1858 17.1044s-5.0929.7687-12.1076-.0961"/><path stroke-miterlimit="10" d="M30.7341 40.4629c2.3062 7.8796 12.5881 9.321 12.5881 9.321"/><path stroke-linejoin="round" d="M33.233 60.354h-4.421l-2.21-2.883h8.649v-4.42"/><path stroke-linejoin="round" d="M39.671 60.354h-8.745l2.21 2.883h4.421"/></g></svg>