<svg xmlns="http://www.w3.org/2000/svg" role="img" viewBox="7.57 4.94 53.48 61.36"><title>E31F.svg</title><path fill="#d0cfce" stroke="#d0cfce" stroke-linecap="round" stroke-linejoin="round" stroke-width="2" d="M58.9318 8.7773c-2.87 6.6957-11.9928 11.43-11.9566 13.87.04 2.701 1.2377 8.168 1.4348 11 .5262 6.366.5262 12.7647 0 19.1307-.1385 1.9079 2.1351 4.877 0 8.6087-1.1692.8368-5.7392-1.913-13.3914 0a23.08201 23.08201 0 0 1-7.26.278c-.9416-.1331-1.597-1.0043-1.4639-1.9458.0811-.5739.4455-1.0685.9697-1.316 2.131-.9925 4.9607-1.8741 6.7972-2.7556 2.8229-1.355 4.5793-2.71 5.5716-4.4676.1142-.2052.1851-.4317.2082-.6654.8149-7.6618-2.4679-19.3382-4.8232-24.52a7.72599 7.72599 0 0 1-.9566-3.8261c0-1.9131.9566-2.87 1.9131-4.7827 2.1454-4.2908 2.7235-6.8638 3.7575-9.0221.3408-.5882.9672-.9523 1.647-.9573a50.42823 50.42823 0 0 1 14.0182.652l3.5344.7192z"/><path fill="#fff" d="M47.0307 27.514H37.257c-1.4028 0-2.54 1.1372-2.54 2.54v21.4916c-7.1223 0-12.8961 0-12.8961 5.8813 0 5.2772 5.7738 5.8813 12.8961 5.8813h10.6924c2.2981 0 4.1611-1.863 4.1611-4.1611V30.0537c-.0002-1.4026-1.1372-2.5396-2.5398-2.5397z"/><path fill="#fff" d="M26.2252 52.1093c.1615 4.4998 2.4643 8.6513 6.1962 11.1707h6.457s-6.6184-6.3452-5.8793-11.7312a19.34691 19.34691 0 0 0-6.7739.5605zm8.4918-1.3023l14.853 5.232v-7.883l-10.219-3.072-4.634-1.393v7.116zM49.57 39.574l-7.426 6.349-7.427-2.232L49.57 31.9v7.674z"/><path fill="#fff" d="M42.1439 27.514l4.8337 6.4443-4.8337 3.837-7.0252-9.1068c.4666-.7297 1.2722-1.1721 2.1383-1.1745h4.8869zM35.9456 59.83l13.6249-3.79v3.1076s.3968 4.1611-5.1477 4.1611h-5.5444L35.9456 59.83z"/><g fill="none" stroke="#000" stroke-width="2"><g stroke-linecap="round" stroke-linejoin="round"><path d="M55.3981 8.06a50.31487 50.31487 0 0 0-14.02-.65c-.6785.0056-1.3045.3661-1.65.95-1.03 2.16-1.61 4.74-3.75 9.03-.96 1.91-1.92 2.87-1.92 4.78a7.82396 7.82396 0 0 0 .96 3.82c.26.58.54 1.23.82 1.95v.01M36.898 31v-.011M36.9281 61a.27902.27902 0 0 0-.09.01m10.72-33.45a39.7645 39.7645 0 0 1-.58-4.91c-.04-2.44 9.08-7.18 11.95-13.87m-9.6 51.91a.64522.64522 0 0 1-.09.08q0 .01-.01.02"/><path d="M39.8012 19.2991c-1.311 1.6165-1.7026 3.5095-.9565 4.7826.2352.3928.5638.7214.9565.9566"/></g><path stroke-miterlimit="10" d="M47.0307 27.514H37.257c-1.4028 0-2.54 1.1372-2.54 2.54h0v21.4916c-7.1223 0-12.8961 0-12.8961 5.8813 0 5.2772 5.7738 5.8813 12.8961 5.8813h10.6924c2.2981 0 4.1611-1.863 4.1611-4.1611V30.0537c-.0002-1.4026-1.1372-2.5396-2.5398-2.5397z"/><path stroke-linecap="round" stroke-linejoin="round" d="M26.2252 52.1093c.1615 4.4998 2.4643 8.6513 6.1962 11.1707h6.457s-6.6184-6.3452-5.8793-11.7312a19.34691 19.34691 0 0 0-6.7739.5605zm8.4918-.5633l14.853 4.493v-7.883l-10.219-3.072-4.634-1.393v7.855zM49.57 39.574l-7.426 6.349-7.427-2.232L49.57 31.9v7.674z"/><path stroke-linecap="round" stroke-linejoin="round" d="M42.1439 27.514l4.8337 6.4443-4.8337 3.837-7.0252-9.1068c.4666-.7297 1.2722-1.1721 2.1383-1.1745h4.8869zM35.9456 59.83l13.6249-3.79v3.1076s.3968 4.1611-5.1477 4.1611h-5.5444L35.9456 59.83zM25.886 48.613l-2.314-3.857 2.907-.534-2.908-4.845M9.765 62.244l4.378-1.03-.377 2.932 5.5-1.294m.009-10.184l-4.332-1.209.256 2.945-5.443-1.519"/></g><g fill="none" stroke="#d22f27" stroke-linecap="round" stroke-linejoin="round" stroke-width="2"><path d="M25.886 48.613l-2.314-3.857 2.907-.534-2.908-4.845M9.765 62.244l4.378-1.03-.377 2.932 5.5-1.294m.009-10.184l-4.332-1.209.256 2.945-5.443-1.519"/></g></svg>