<svg xmlns="http://www.w3.org/2000/svg" role="img" viewBox="2.72 14.47 66.56 45.19"><title>1F91B-1F3FD.svg</title><path fill="#c19a65" stroke-width="1.036" d="M63.85775 33.94205l-8.8809 1.8862c-1.05116.2456-2.03356.55015-3.29103 2.11217l-8.3111 9.64716c-.7761.93328-1.24766 1.48343-2.4953 1.87639l-20.53216 7.60377c-4.36186 1.11012-8.29146 0-7.30906-8.28163-4.26362 1.62096-8.32093.30455-8.0262-3.3991l-.00983-20.0999c.56979-4.18503 4.31273-6.1793 7.54483-6.51332l50.4266-2.04339c5.0004 4.50922 5.39337 12.21123.88415 17.21165z"/><g fill="none" stroke="#000" stroke-linecap="round" stroke-linejoin="round" stroke-miterlimit="10" stroke-width="2.036"><path d="M43.88 47.41l8.469-9.812c1.281-1.594 2.281-1.906 3.344-2.156l9.04-1.92c4.59-5.084 4.19-12.93-.8941-17.52l-51.33 2.083c-3.292.3333-7.099 2.364-7.682 6.622l.0156 20.46c-.3021 3.771 3.823 5.115 8.167 3.458-1 8.438 3 9.562 7.438 8.438l20.91-7.739" transform="matrix(.9826 0 0 .9823 .266 1.018)"/><path d="M15.31 29.17c0 4.062 4.892 4.344 10.94 4.344-.5 4.031-2.594 8.625-10.03 13" transform="matrix(.9826 0 0 .9823 .266 1.018)"/><path d="M43.88 47.41l8.469-9.812c1.281-1.594 2.281-1.906 3.344-2.156l9.04-1.92c4.59-5.084 4.19-12.93-.8941-17.52l-51.33 2.083c-3.292.3333-7.099 2.364-7.682 6.622l.0156 20.46c-.3021 3.771 3.823 5.115 8.167 3.458-1 8.438 3 9.562 7.438 8.438l20.91-7.739c1.296-.6802 1.853-1.293 2.531-1.917z" transform="matrix(.9826 0 0 .9823 .266 1.018)"/><path d="M15.31 29.17c0 4.062 4.892 4.344 10.94 4.344-.5 4.031-2.594 8.625-10.03 13" transform="matrix(.9826 0 0 .9823 .266 1.018)"/></g></svg>