<svg xmlns="http://www.w3.org/2000/svg" role="img" viewBox="9.77 9.89 57.59 52.09"><title>1F481-1F3FF.svg</title><path fill="#92d3f5" d="M11.9345 60.9431v-4.2187c0-4.9942 5.0078-9 10-9q9 7.5 18 0c1.3682 0 3.1221-.2784 4.3887.2607a11.8771 11.8771 0 0 1 3.2368 2.8125v10.1455"/><path d="M19.871 30.9851c0 9 4.9365 14 11 14 5.9365 0 11.0635-5 11.0635-14a12.1371 12.1371 0 0 0-1-5c-3-3-7-8-7-8-4 3-7 6-13 7 0 0-1.0635.9995-1.0635 6zm35.0635 29.958L52.997 46.6794l.9375-1.25 6-2 5-6a1.4142 1.4142 0 0 0-2-2l-3 3c-1 1-4 0-7 1s-5 3.2325-5 5v16.5137" fill="#6a462f"/><path d="M41.0832 26.0769c-2.6615-.8554-7.3666-7.9368-7.3666-7.9368-2.6614 3.2317-12.737 6.9863-12.737 6.9863-2.9941 2.9942-.0451 13.8587-.0451 13.8587-4 0-4-6-4-13s4-14 14-14 14 7 14 14 0 13-4 13c1.3247-2.2526.1487-12.9082.1487-12.9082z"/><path fill="none" stroke="#000" stroke-linecap="round" stroke-linejoin="round" stroke-width="2" d="M20.9345 38.9851c-4 0-4-6-4-13s4-14 14-14 14 7 14 14 0 13-4 13m-29 21v-3c0-4.9941 5.0078-9 10-9q9 7.5 18 0a10.2713 10.2713 0 0 1 4.0029.84"/><path d="M36.8075 29.9851a2 2 0 1 1-2-2 2 2 0 0 1 2 2m-8 0a2 2 0 1 1-2-2 2 2 0 0 1 2 2"/><path fill="none" stroke="#000" stroke-linejoin="round" stroke-width="2" d="M19.871 30.9851c0 9 4.9365 14 11 14 5.9365 0 11.0635-5 11.0635-14a12.1371 12.1371 0 0 0-1-5c-3-3-7-8-7-8-4 3-7 6-13 7 0 0-1.0635.9995-1.0635 6z"/><path fill="none" stroke="#000" stroke-linecap="round" stroke-linejoin="round" stroke-width="2" d="M27.9345 37.9851a6.5535 6.5535 0 0 0 6 0m21 22L52.997 46.6794l.9375-1.25 6-2 5-6a1.4142 1.4142 0 0 0-2-2l-3 3c-1 1-4 0-7 1s-5 3.2325-5 5v15.5557"/></svg>