<svg xmlns="http://www.w3.org/2000/svg" role="img" viewBox="14.44 7.44 47.12 55.12"><title>E151.svg</title><path fill="#fff" d="M47.281 29.927h.3973c4.5794 0 8.2973 3.7179 8.2973 8.2973v.2584c0 4.7263-3.8371 8.5634-8.5634 8.5634h-.1313V29.9269zM20.6878 19.7845h25.9889v5.5691H21.616l-4.6409-3.7127 3.7127-1.8564z"/><path fill="#a57939" fill-rule="evenodd" d="M46.6767 24.4253v32.4861c0 2.0504-1.6623 3.7127-3.7127 3.7127H24.4005c-2.0504 0-3.7127-1.6623-3.7127-3.7127V24.4253h25.9889z"/><path fill="#3f3f3f" d="M33.2182 9.5745c-1.7942 0-3.2486 1.4545-3.2486 3.2486 0 .4982.1121.9703.3126 1.3923h5.872c.2005-.422.3126-.894.3126-1.3923 0-1.7942-1.4545-3.2486-3.2486-3.2486z"/><path fill="#9b9b9a" d="M31.8259 19.3204h2.7845v9.7458l-2.7845-1.8564v-7.8895z"/><path fill="#3f3f3f" fill-rule="evenodd" d="M46.6767 20.2486v-1.3923c0-1.5379-1.2466-2.7845-2.7845-2.7845H23.4723c-1.5379 0-2.7845 1.2466-2.7845 2.7845v1.3923h25.9889z"/><path fill="#6a462f" fill-rule="evenodd" d="M46.6767 56.9115H20.6878c0 2.0504 1.6623 3.7127 3.7127 3.7127H42.964c2.0504 0 3.7127-1.6623 3.7127-3.7127z"/><path fill="#3f3f3f" fill-rule="evenodd" d="M46.6767 47.6297v3.7127c7.1766 0 12.9945-5.8178 12.9945-12.9945s-5.8178-12.9945-12.9945-12.9945v3.7127c5.1261 0 9.2818 4.1556 9.2818 9.2818s-4.1556 9.2818-9.2818 9.2818z"/><path fill="none" stroke="#3f3f3f" stroke-linecap="round" stroke-width="2" d="M33.2182 9.5745c-1.7942 0-3.2486 1.4545-3.2486 3.2486 0 .4982.1121.9703.3126 1.3923h5.872c.2005-.422.3126-.894.3126-1.3923 0-1.7942-1.4545-3.2486-3.2486-3.2486z"/><g><path fill="none" stroke="#000" stroke-linejoin="round" stroke-width="2" d="M20.6878 18.8563c0-1.5379 1.2466-2.7845 2.7845-2.7845h20.4199c1.5379 0 2.7845 1.2466 2.7845 2.7845v38.0552c0 2.0504-1.6623 3.7127-3.7127 3.7127H24.4005c-2.0504 0-3.7127-1.6623-3.7127-3.7127V24.8894l-4.1768-3.2486 4.1768-2.3204v-.4641z"/><path d="M46.6767 51.3424h-.9282v.9282h.9282v-.9282zm0-3.7127v-.9282h-.9282v.9282h.9282zm0-22.2762v-.9282h-.9282v.9282h.9282zm0 3.7127h-.9282v.9282h.9282v-.9282zm.9282 22.2762v-3.7127h-1.8564v3.7127h1.8564zM58.743 38.3479c0 6.664-5.4023 12.0663-12.0663 12.0663v1.8564c7.6893 0 13.9226-6.2333 13.9226-13.9226h-1.8564zM46.6767 26.2816c6.664 0 12.0663 5.4023 12.0663 12.0663h1.8564c0-7.6893-6.2333-13.9226-13.9226-13.9226v1.8564zm.9282 2.7845v-3.7127h-1.8564v3.7127h1.8564zm-.9282.9282c4.6136 0 8.3536 3.74 8.3536 8.3536h1.8564c0-5.6388-4.5712-10.2099-10.2099-10.2099v1.8564zm8.3536 8.3536c0 4.6136-3.74 8.3536-8.3536 8.3536v1.8564c5.6388 0 10.2099-4.5712 10.2099-10.2099h-1.8564z"/><path fill="none" stroke="#000" stroke-linecap="round" stroke-width="2" d="M20.6878 19.3204h23.2044m-13.61-5.105c-.2005-.422-.3126-.894-.3126-1.3923 0-1.7942 1.4545-3.2486 3.2486-3.2486s3.2486 1.4545 3.2486 3.2486c0 .4982-.1121.9703-.3126 1.3923m-4.3283 5.5691v7.4254M34.61 19.785v9.281m-12.994-3.712h7.425m8.354-.0005h9.2818"/></g></svg>