<svg xmlns="http://www.w3.org/2000/svg" role="img" viewBox="2.72 3.47 66.43 60.68"><title>1F382.svg</title><path fill="#fcea2b" d="M11 37c0 1.1045 50 2.1045 50 1v-7h-1V20c0-2.7612-2.2393-5-5-5H17c-2.7607 0-5 2.2388-5 5v11h-1v6z"/><path fill="#FFF" d="M12 21.9238c1.9443-1.3081 4.6025-1.1064 6.3213.6123 1.9531 1.9522 5.1191 1.9522 7.0723 0 1.9521-1.9521 5.1181-1.9521 7.0703 0 1.9531 1.9522 5.1191 1.9522 7.0722 0 1.9522-1.9521 5.1182-1.9521 7.0703 0 1.9532 1.9522 5.1192 1.9522 7.0723 0 1.7188-1.7187 4.377-1.9204 6.3213-.6123V20c0-2.7612-2.2393-5-5-5H17c-2.7607 0-5 2.2388-5 5v1.9238z"/><path fill="#fcea2b" d="M5 60c0 1.1045.8955 2 2 2h58c1.1045 0 2-.8955 2-2V41c0-2.7617-2.2393-5-5-5H10c-2.7607 0-5 2.2383-5 5v19z"/><circle cx="36" cy="12" r="3" fill="#ea5a47"/><path fill="#FFF" stroke-linecap="round" stroke-linejoin="round" stroke-miterlimit="10" stroke-width="2" d="M11.251 45.5361c1.9521 1.9522 5.1181 1.9522 7.0703 0 1.9531-1.9521 5.1191-1.9521 7.0723 0 1.9521 1.9522 5.1181 1.9522 7.0703 0 1.9531-1.9521 5.1191-1.9521 7.0722 0 1.9522 1.9522 5.1182 1.9522 7.0703 0 1.9532-1.9521 5.1192-1.9521 7.0723 0 1.9522 1.9522 5.1182 1.9522 7.0703 0 1.6992-1.6982 4.3135-1.915 6.251-.6591V41c0-2.7617-2.2393-5-5-5H10c-2.7607 0-5 2.2383-5 5v3.877c1.9375-1.2559 4.5518-1.0391 6.251.6591z"/><g fill="none" stroke="#000" stroke-linecap="round" stroke-linejoin="round" stroke-miterlimit="10" stroke-width="2"><circle cx="36" cy="12" r="3"/><path d="M36 10.75c0-2.7617 2.2383-5 5-5M11.251 45.5361c1.9521 1.9522 5.1181 1.9522 7.0703 0 1.9531-1.9521 5.1191-1.9521 7.0723 0 1.9521 1.9522 5.1181 1.9522 7.0703 0 1.9531-1.9521 5.1191-1.9521 7.0722 0 1.9522 1.9522 5.1182 1.9522 7.0703 0 1.9532-1.9521 5.1192-1.9521 7.0723 0 1.9522 1.9522 5.1182 1.9522 7.0703 0 1.6992-1.6982 4.3135-1.915 6.251-.6591V41c0-2.7617-2.2393-5-5-5H10c-2.7607 0-5 2.2383-5 5v3.877c1.9375-1.2559 4.5518-1.0391 6.251.6591z"/><path d="M5 44.877V60c0 1.1045.8955 2 2 2h58c1.1045 0 2-.8955 2-2V44.877"/><path d="M11.251 45.5361c1.9521 1.9522 5.1181 1.9522 7.0703 0 1.9531-1.9521 5.1191-1.9521 7.0723 0 1.9521 1.9522 5.1181 1.9522 7.0703 0 1.9531-1.9521 5.1191-1.9521 7.0722 0 1.9522 1.9522 5.1182 1.9522 7.0703 0 1.9532-1.9521 5.1192-1.9521 7.0723 0 1.9522 1.9522 5.1182 1.9522 7.0703 0 1.6992-1.6982 4.3135-1.915 6.251-.6591V41c0-2.7617-2.2393-5-5-5H10c-2.7607 0-5 2.2383-5 5v3.877c1.9375-1.2559 4.5518-1.0391 6.251.6591zM60 21.924V32M12 21.924V32m0-10.0762c1.9443-1.3081 4.6025-1.1064 6.3213.6123 1.9531 1.9522 5.1191 1.9522 7.0723 0 1.9521-1.9521 5.1181-1.9521 7.0703 0 1.9531 1.9522 5.1191 1.9522 7.0722 0 1.9522-1.9521 5.1182-1.9521 7.0703 0 1.9532 1.9522 5.1192 1.9522 7.0723 0 1.7188-1.7187 4.377-1.9204 6.3213-.6123V20c0-2.7612-2.2393-5-5-5H17c-2.7607 0-5 2.2388-5 5v1.9238z"/></g></svg>