<svg xmlns="http://www.w3.org/2000/svg" role="img" viewBox="9.22 8.97 53.45 53.82"><title>1F6D2.svg</title><g stroke-linecap="round" stroke-linejoin="round" stroke-miterlimit="10" stroke-width="2"><path fill="#D0CFCE" d="M51.903 18.602v23.755H15.015l-3.666-23.755z"/><circle cx="50.142" cy="58.463" r="2.375" fill="#D0CFCE"/><circle cx="14.035" cy="58.463" r="2.375" fill="#D0CFCE"/><path fill="#9B9B9A" d="M45.664 23.644v.79m0 12.319v.79m-5.376-13.899v.79m0 12.319v.79m-5.376-13.899v.79m0 12.319v.79m-5.375-13.899v.79m0 12.319v.79m-5.376-13.899v.79m0 12.319v.79m-5.376-13.899v.79m0 12.319v.79m26.879-7.544v.79m-5.376-.79v.79m-5.376-.79v.79m-5.375-.79v.79m-5.376-.79v.79m-5.376-.79v.79"/></g><g fill="none" stroke="#000" stroke-linecap="round" stroke-linejoin="round" stroke-miterlimit="10" stroke-width="2"><path d="M51.903 18.602v23.755H15.015l-3.666-23.755zm0 0l3.603-7.523h5.145M14.035 51.861h37.871"/><circle cx="50.142" cy="58.463" r="2.375"/><circle cx="14.035" cy="58.463" r="2.375"/><path d="M51.9033 42.3566s4.8415.3558 4.8415 4.7876c0 5.1219-4.5827 4.7121-4.5827 4.7121M45.664 23.644v.79m0 12.319v.79m-5.376-13.899v.79m0 12.319v.79m-5.376-13.899v.79m0 12.319v.79m-5.375-13.899v.79m0 12.319v.79m-5.376-13.899v.79m0 12.319v.79m-5.376-13.899v.79m0 12.319v.79m26.879-7.544v.79m-5.376-.79v.79m-5.376-.79v.79m-5.375-.79v.79m-5.376-.79v.79m-5.376-.79v.79"/></g></svg>