<svg xmlns="http://www.w3.org/2000/svg" role="img" viewBox="18.87 21.49 32.76 31.51"><title>E324.svg</title><path fill="#92d3f5" d="M48.8521 24.6873a4.7576 4.7576 0 0 0-6.7234-.2545L26.1505 39.2452c-1.336 1.2384-1.5632 4.9386-1.7681 5.1272l-3.1005 2.8552a2.3555 2.3555 0 0 0-.1371 3.3284l.1148.1246a2.3555 2.3555 0 0 0 3.3283.1371l3.1005-2.8552c.2642-.2432 3.7053-.6033 4.9309-1.7394l15.9783-14.8126a4.7574 4.7574 0 0 0 .2545-6.7232z"/><path fill="none" stroke="#000" stroke-linecap="round" stroke-linejoin="round" stroke-width="2" d="M48.8521 24.6873h0a4.7576 4.7576 0 0 0-6.7234-.2545L26.1505 39.2452c-1.336 1.2384-1.5632 4.9386-1.7681 5.1272l-3.1005 2.8552a2.3555 2.3555 0 0 0-.1371 3.3284l.1148.1246a2.3555 2.3555 0 0 0 3.3283.1371l3.1005-2.8552c.2642-.2432 3.7053-.6033 4.9309-1.7394l15.9783-14.8126a4.7574 4.7574 0 0 0 .2545-6.7232zM23.463 48.575l22.79-21.158"/><rect width="2.893" height="1.571" x="27.905" y="37.732" rx=".523" transform="rotate(45 29.352 38.517)"/><rect width="2.126" height="1.571" x="31.086" y="34.331" rx=".523" transform="rotate(45 32.15 35.116)"/><rect width="3.39" height="1.571" x="33.602" y="32.203" rx=".523" transform="rotate(45 35.297 32.988)"/><rect width="2.786" height="1.571" x="36.814" y="29.035" rx=".523" transform="rotate(45 38.207 29.82)"/><rect width="2.786" height="1.571" x="39.727" y="26.249" rx=".523" transform="rotate(45 41.12 27.034)"/></svg>