<svg xmlns="http://www.w3.org/2000/svg" role="img" viewBox="0.74 2.99 65.52 65.27"><title>1F970.svg</title><circle cx="36" cy="36" r="24" fill="#FCEA2B"/><path fill="#FFA7C0" d="M11.3186 34.66c-.0843.1747-.2943.2481-.4691.1637a.35123.35123 0 0 1-.1637-.1637c-.9703-2.0141-3.3896-2.8602-5.4036-1.8899-2.0141.9703-2.8602 3.3896-1.8899 5.4036.1063.2206.2323.4311.3766.6289l7.2333 9.2748 7.1911-9.218.232-.3422c1.1619-1.91.5554-4.4002-1.3545-5.562s-4.4002-.5554-5.562 1.3545a4.02918 4.02918 0 0 0-.1902.3503zm37-27c-.0843.1747-.2943.2481-.4691.1637a.35123.35123 0 0 1-.1637-.1637c-.9703-2.0141-3.3896-2.8602-5.4036-1.8899s-2.8602 3.3896-1.8899 5.4036c.1063.2206.2323.4311.3766.6289l7.2333 9.2748 7.1911-9.218.232-.3422c1.1619-1.91.5554-4.4002-1.3545-5.562-1.91-1.1619-4.4002-.5554-5.562 1.3545a4.02918 4.02918 0 0 0-.1902.3503zm8 45c-.0843.1747-.2943.2481-.4691.1637a.35123.35123 0 0 1-.1637-.1637c-.9703-2.0141-3.3896-2.8602-5.4036-1.8899-2.0141.9703-2.8602 3.3896-1.8899 5.4036.1063.2206.2323.4311.3766.6289l7.2333 9.2748 7.1911-9.218.232-.3422c1.1619-1.91.5554-4.4002-1.3545-5.562-1.91-1.1619-4.4002-.5554-5.562 1.3545a4.02918 4.02918 0 0 0-.1902.3503z"/><g fill="none" stroke="#000" stroke-linecap="round" stroke-width="2"><path stroke-linejoin="round" d="M45.815 44.8043c-5.6998 4.6988-13.9302 4.6988-19.63 0m25.855 5.5613c-2.2368.0001-4.0499 1.8135-4.0498 4.0502 0 .7409.2033 1.4677.5878 2.1011l.232.3422 7.1911 9.218 7.2333-9.2748c1.3204-1.8042.9281-4.3372-.8761-5.6576-1.8042-1.3204-4.3372-.9281-5.6576.8761-.147.2008-.2751.4148-.3828.6392-.0843.1747-.2943.2481-.4691.1637a.35123.35123 0 0 1-.1637-.1637c-.6684-1.4059-2.0884-2.2997-3.6451-2.2944zm-45-18c-2.2368.0001-4.0499 1.8135-4.0498 4.0502 0 .7409.2033 1.4677.5878 2.1011l.232.3422 7.1911 9.218 7.2333-9.2748c1.3204-1.8042.9281-4.3372-.8761-5.6576s-4.3372-.9281-5.6576.8761c-.147.2008-.2751.4148-.3828.6391-.0843.1747-.2943.2481-.4691.1637a.35123.35123 0 0 1-.1637-.1637c-.6684-1.4058-2.0884-2.2996-3.6451-2.2943zm37-27c-2.2368.0001-4.0499 1.8135-4.0498 4.0502 0 .7409.2033 1.4677.5878 2.1011l.232.3422 7.1911 9.218 7.2333-9.2748c1.3204-1.8042.9281-4.3372-.8761-5.6576-1.8042-1.3204-4.3372-.9281-5.6576.8761-.147.2008-.2751.4148-.3828.6392-.0843.1747-.2943.2481-.4691.1637a.35123.35123 0 0 1-.1637-.1637c-.6684-1.4059-2.0884-2.2997-3.6451-2.2944zm-1.2324 52.6102C40.6563 58.6415 38.37 59 36 59c-7.9391 0-14.9387-4.0224-19.072-10.1405m36.8199-27.4896C57.029 25.3456 59 30.4426 59 36c0 3.6035-.8287 7.0135-2.3059 10.0497M14.7323 27.2273C18.1806 18.8766 26.404 13 36 13"/><path stroke-miterlimit="10" d="M31.6941 32.4036c-1.0598-2.3854-3.8527-3.46-6.238-2.4002-1.0697.4752-1.9249 1.3305-2.4002 2.4002m25.8882 0c-1.0598-2.3854-3.8527-3.46-6.238-2.4002-1.0697.4752-1.9249 1.3305-2.4002 2.4002"/></g></svg>