<svg xmlns="http://www.w3.org/2000/svg" role="img" viewBox="10.01 8.26 51.35 50.85"><title>E183.svg</title><path fill="#3F3F3F" d="M59.4021 58.1357c.2986-.7321 0-1.5517 0-1.5517l-3.088-13.7131s-7.3053-4.4615-9.2725-5.1804l.022 9.259c.0069.3045-.4776 1.0719-.7119 1.2663l-.7823 3.0723-.0022 4.2743c-.0465.325-.1344 2.4349-.402 2.581l14.2369-.0077zM30.8577 56.236l-.5315-4.6736-.9703-3.6294c-.2646-.205-.1556-1.4775-.1312-1.8114l.1168-10.3628c-2.6716 1.1086-10.3764 4.284-11.7711 5.9-1.5683 1.8164-4.3451 9.9229-5.4818 14.3418-.0718.2787.1284 2.0113-.1054 2.1395l18.8675-.0073c-.2814-.1538.0394-1.5536.007-1.8968z"/><path fill="#EA5A47" d="M40.9296 44.3038c0-.4378-.3427-1.2023-.4095-1.6909-.2221-.0009-3.8447.0629-4.1998 0-.3101.2796-.988 2.4611-.988 3.0657 0 .9824.8923 2.6409 1.1677 3.0706.1367.2129-1.1677 7.5843-1.1677 7.5843-.0563.3096-.1549 1.6622-.4111 1.8022h6.4594l-1.7859-9.9945s1.3349-2.5416 1.3349-3.8374z"/><path fill="#FFF" d="M35.085 56.3667l1.1626-8.6584c-.3769-.6623-.9002-3.6951-.8975-3.7144.0336-.7801.6051-.8716.9702-1.381-1.2874-.6318-6.8126-6.6048-6.9788-6.8541 0 0-1.0739 13.3262-1.2517 13.1894l1.2413 2.709c-.0528-.5498 1.5973 6.4707 1.5973 6.4708l3.9697.0077c-.0735-.0406.1648-1.6462.1869-1.769z"/><path fill="#D22F27" d="M40.9739 55.8597l-1.3377-7.5169c-.0615-.2969.4211-.9308.6144-1.1642.3252-.3965.9543-1.447.9543-2.4168 0-.655-1.2784-1.9644-1.522-2.1744-.135.0051-.8911.3159-.9063.3159.0668.4886.2606 1.7083.2606 2.1461 0 1.2958-.8415 3.0354-.8415 3.0354l1.0875 10.0586 2.0974-.0077c-.2487-.136-.3449-1.9761-.4067-2.276zm.9411 2.1424z"/><path fill="#FFF" d="M46.2128 39.8204c-.271.2753-5.0554 2.9263-5.2475 2.9747.221.4385-.0473.9182-.0357 1.5087.0007.0095-.4714 2.9412-.949 3.6131l1.1591 7.7335c.0253.123.4713 2.4396.3873 2.4853l3.5612.0077s1.9313-6.8455 1.8542-6.2987l.9915-4.0777c-.1817.1513-1.7211-7.9466-1.7211-7.9466z"/><g><path fill="#FCEA2B" d="M54.2224 15.2928c-1.291.698-2.821.794-4.187.264-3.029-1.269-6.474-3.8199-10.58-4.834-2.849-.7-6.005-.811-8.979 1.267-2.518 1.754-5.229 8.09-4.641 13.479 0 0 .948-2.771 2.891-.291l.6 2.725c-.161-1.025-.237-2.062-.229-3.1.138-.815.387-.869 1.16-2.545 1.122-2.431.958-3.65.313-4.268.2.052.376.1.51.146 2.969.974 3.671 1.442 4.53 1.734 2.363.8012 7.6118 1.372 11.5294.9569-.0908.0775-.1676.131-.2184.1406.7543 2.2964 1.5889 5.5163 1.6794 7.9885.0219.4136 2.0251.1324 2.0251.1324.0364-1.0378.0032-4.9171-.2322-9.0099 2.5425-1.145 3.8287-4.7855 3.8287-4.7855z"/></g><g><path fill="#F1B31C" d="M44.7183 41.3559c2.2357-1.8806 3.6356-4.6241 3.8413-7.5386.2512-2.3396.3053-4.6771.1646-6.9865-.022-.5154-.0717-1.0247-.139-1.5296-.0513-.3741-.1238-.7427-.2003-1.1103-.0226-.1114-.039-.2243-.0639-.3351-.1056-.4598-.23-.9145-.3742-1.3636-.0027-.0089-.0049-.0179-.0078-.0266a17.27529 17.27529 0 0 0-.5106-1.3789c-.2572.0162-.5167.0283-.779.0382-.0505.0019-.101.0035-.1517.0051-.7925.0263-1.5993.0257-2.4083.0014a30.42382 30.42382 0 0 1-.1662-.0051c-.2648-.009-.5277-.0193-.791-.0329-.009-.0006-.0179-.0011-.0269-.0017-.4931-.0259-.98-.0601-1.4611-.1009-.1032-.0087-.2067-.0169-.3093-.0263a46.938 46.938 0 0 1-.6104-.0602c-.1453-.0153-.2877-.0316-.4305-.048-.2309-.0268-.4585-.0541-.6825-.0838-.2285-.03-.4543-.0609-.6743-.0937-.1329-.0199-.2609-.0406-.3901-.0615-.195-.0312-.3852-.0634-.5715-.0965-.1033-.0185-.2076-.0364-.3079-.0553-.2739-.0516-.5372-.105-.7873-.1601-.0591-.0131-.1129-.0265-.1706-.0398-.2054-.0472-.4009-.0951-.587-.1442-.0653-.0173-.1302-.0342-.1929-.0517-.2232-.0619-.436-.1247-.6243-.1886-.3487-.118-1.5024-.5024-1.9192-.6837a.07332.07332 0 0 1-.0039-.0018c-.4711-.1765-2.293-1.1458-2.3021-1.0598-.0077.0722-.9814 5.0891-1.1785 5.4448-.2284.4136-2.1478.6185-2.9326.3718-.028-.0088-.769.8671-.7898.8947-.0174.0227-.0344.0446-.0522.0703a2.52638 2.52638 0 0 0-.0978.1573c-.0025.0045-.0052.0091-.0077.0136-.0353.063-.0683.1275-.0959.1892 0 .0001-.0001.0002-.0001.0003v.002c-.0534.7374-.0088 1.4746.132 2.1929.0063.032.0182.0627.0249.0946.0679.3254.1503.6479.2577.9634.1202.3507.2626.6946.4304 1.0284.2598.4396.5933.6432.9798.8781.5089.3096 1.2072.734 1.4389 1.7474 1.3707 5.9742 5.5379 10.6871 9.4875 10.7282 2.1567.1451 4.2809-.4092 6.0413-1.5569z"/></g><g><path fill="none" stroke="#000" stroke-linecap="round" stroke-linejoin="round" stroke-width="2" d="M47.54 38.1889c1.8096.6235 6.2091 2.3107 8.3564 4.6279 2.9678 3.2048 3.4785 13.0241 3.5335 14.3202m-47.3413-.0002c.3035-1.1772 3.4064-13.0738 5.4818-15.478 1.938-2.246 10.925-5.9 10.925-5.9l1.5259.1812M45.952 51.704l-.769 5.433m-14.325 0l-.532-5.575m-10.011 5.575v-9.811m33.19 9.811v-8.921m-9.391-.89l2.91.607-.202-9.129"/><path fill="none" stroke="#000" stroke-linecap="round" stroke-linejoin="round" stroke-width="2" d="M31.14 47.326l-2.439.83.955-13.288m10.0269 7.7194s1.3145.7544 1.3145 2.3074-1.4027 3.2464-1.4027 3.2464l1.8508 8.9956m-6.4997 0l1.6239-8.981s-1.1499-1.7806-1.1499-3.284 1.5094-2.4668 1.5094-2.4668m13.4251-21.8293c.3527 3.5621.7042 8.4021.1151 8.7841-.3842.2494-.7696.5022-1.1479.7507"/><path fill="none" stroke="#000" stroke-linecap="round" stroke-linejoin="round" stroke-width="2" d="M46.9214 20.9673a16.02047 16.02047 0 0 1 1.469 6.0565c.131 2.145.081 4.297-.149 6.433-.207 2.934-1.604 5.655-3.865 7.534-1.789 1.182-3.917 1.744-6.057 1.6-4.079-.043-8.179-4.6-9.522-10.453-.23-1.006-1.316-.801-2.1-2.143-.703-1.398-1.002-2.966-.862-4.525"/><circle cx="43.199" cy="26.436" r="2"/><circle cx="35.149" cy="26.436" r="2"/><path fill="none" stroke="#000" stroke-linecap="round" stroke-linejoin="round" stroke-miterlimit="10" stroke-width="2" d="M50.0354 15.5568c-3.029-1.269-6.474-3.82-10.58-4.834-2.849-.7-6.005-.811-8.979 1.267-2.518 1.754-5.229 8.09-4.641 13.479 0 0 .948-2.771 2.891-.291l.6 2.725c-.161-1.025-.237-2.062-.229-3.1.138-.815.387-.869 1.16-2.545 1.122-2.431.958-3.65.313-4.268.2.052.376.1.51.146 2.969.974 3.671 1.442 4.53 1.734 3.088 1.047 11.113 1.707 14.641.277 2.639-1.068 3.971-4.854 3.971-4.854-1.291.698-2.821.794-4.187.264z"/><path fill="none" stroke="#000" stroke-linecap="round" stroke-linejoin="round" stroke-width="2" d="M39.7204 33.1368h0c.85.181 1.391 1.015 1.21 1.863l-.253 1.189c-.181.849-1.015 1.391-1.863 1.209h-.001c-.849-.18-1.391-1.015-1.21-1.863l.253-1.189c.181-.848 1.016-1.39 1.864-1.209z"/></g></svg>