<svg xmlns="http://www.w3.org/2000/svg" role="img" viewBox="13.72 2.72 54.43 66.43"><title>1F38F.svg</title><path fill="#61b2e4" d="M58.6923 19.1538c2.9231 0 7.3077-2.4615 7.3077-2.4615v9.8462s-2.9231-4.9231-7.3077-2.4616S47 26.5385 47 26.5385L45.5385 29h-7.3077l-1.4616-2.4615A20.7985 20.7985 0 0 1 28 24.0769v-3.6923s4.3846-3.5555 8.7692-3.5555v-2.4616s9.0433-3 17.5385 1.094v2.4616a7.0984 7.0984 0 0 0 4.3846 1.2307z"/><path fill="#d22f27" d="M56.6923 40.1538c2.9231 0 7.3077-2.4615 7.3077-2.4615v9.8462s-2.9231-4.9231-7.3077-2.4616S45 47.5385 45 47.5385L43.5385 50h-7.3077l-1.4616-2.4615A20.7985 20.7985 0 0 1 26 45.0769v-3.6923s4.3846-3.5555 8.7692-3.5555v-2.4616s9.0433-3 17.5385 1.094v2.4616a7.0984 7.0984 0 0 0 4.3846 1.2307z"/><g stroke="#000" stroke-linecap="round" stroke-linejoin="round" stroke-width="2"><path fill="none" d="M18 67V8"/><circle cx="18" cy="7" r="1"/><circle cx="18" cy="7" r="2"/><circle cx="36" cy="21.367" r="1"/><path fill="none" d="M42 20s3 0 4 2"/><circle cx="34" cy="42.367" r="1"/><path fill="none" d="M40 41s3 0 4 2M28 20.385L18 22l10 2.077m-2 17.308L18 43l8 2.077m32.6923-25.9232c2.9231 0 7.3077-2.4615 7.3077-2.4615v9.8462s-2.9231-4.9231-7.3077-2.4616S47 26.5385 47 26.5385L45.5385 29h-7.3077l-1.4616-2.4615A20.7985 20.7985 0 0 1 28 24.0769v-3.6923s4.3846-3.5555 8.7692-3.5555v-2.4616s9.0433-3 17.5385 1.094v2.4616a7.0984 7.0984 0 0 0 4.3846 1.2307z"/><path fill="none" d="M56.6923 40.1538c2.9231 0 7.3077-2.4615 7.3077-2.4615v9.8462s-2.9231-4.9231-7.3077-2.4616S45 47.5385 45 47.5385L43.5385 50h-7.3077l-1.4616-2.4615A20.7985 20.7985 0 0 1 26 45.0769v-3.6923s4.3846-3.5555 8.7692-3.5555v-2.4616s9.0433-3 17.5385 1.094v2.4616a7.0984 7.0984 0 0 0 4.3846 1.2307z"/></g></svg>