<svg xmlns="http://www.w3.org/2000/svg" role="img" viewBox="12.84 5.84 46.19 60.19"><title>1F95A.svg</title><path fill="#fff" d="M36 64c12.8581 0 20.9609-11.9773 20.9609-26.1572C56.9609 23.1911 48.5448 8 36 8S15.0391 23.1911 15.0391 37.8428C15.0391 52.0227 23.1419 64 36 64z"/><path fill="#d0cfce" d="M56.96 37.84C56.96 52.02 48.86 64 36 64S15.04 52.02 15.04 37.84c2.8265 16.4205 17.6473 18.9809 26.64 12.4926 9.6972-6.9967 12.8887-31.6694-.01-41.2326 9.34 3.73 15.29 16.4301 15.29 28.7401z"/><g><path fill="none" stroke="#000" stroke-linecap="round" stroke-linejoin="round" stroke-width="2" d="M36 64c12.8581 0 20.9609-11.9773 20.9609-26.1572C56.9609 23.1911 48.5448 8 36 8S15.0391 23.1911 15.0391 37.8428C15.0391 52.0227 23.1419 64 36 64z"/></g></svg>