<svg xmlns="http://www.w3.org/2000/svg" role="img" viewBox="9.91 7.03 52.06 56.81"><title>E048.svg</title><path fill="#8967AA" d="M34 9.14584L12 21.75v27.5l22 12.6042V9.14584z"/><path fill="#F4AA41" d="M38 9.14584L60 21.75v27.5L38 61.8542V9.14584z"/><path fill="#B399C8" d="M18 26.76L23 24l5 2.76V47l-5-2.76L18 47V26.76z"/><g><path d="M12 21.75l-.4971-.8677c-.311.1782-.5029.5092-.5029.8677h1zM34 9.14583h1c0-.35667-.19-.68634-.4986-.86519-.3085-.17885-.689-.1798-.9985-.00249L34 9.14583zM12 49.25h-1c0 .3585.1919.6895.5029.8677L12 49.25zm22 12.6042l-.4971.8677c.3095.1773.69.1763.9985-.0025.3086-.1789.4986-.5086.4986-.8652h-1zM60 49.25l.4971.8677c.311-.1782.5029-.5092.5029-.8677h-1zM38 61.8542h-1c0 .3566.19.6863.4986.8652.3085.1788.689.1798.9985.0025L38 61.8542zM60 21.75h1c0-.3585-.1919-.6895-.5029-.8677L60 21.75zM38 9.14583l.4971-.86768c-.3095-.17731-.69-.17636-.9985.00249-.3086.17885-.4986.50852-.4986.86519h1zM12.4971 22.6177l22-12.6042-.9942-1.73535-22 12.60415.9942 1.7354zM13 49.25v-27.5h-2v27.5h2zm21.4971 11.7365l-22-12.6042-.9942 1.7354 22 12.6042.9942-1.7354zm.5029.8677V9.14583h-2V61.8542h2zm24.5029-13.4719l-22 12.6042.9942 1.7354 22-12.6042-.9942-1.7354zM59 21.75v27.5h2v-27.5h-2zM37.5029 10.0135l22 12.6042.9942-1.7354-22-12.60415-.9942 1.73535zM37 9.14583V61.8542h2V9.14583h-2z"/><path fill="none" stroke="#000" stroke-linejoin="round" stroke-width="2" d="M18 26.76L23 24l5 2.76V47l-5-2.76L18 47V26.76z"/><path fill="none" stroke="#000" stroke-linecap="round" stroke-width="2" d="M31 16.0549c-4.1716.4612-7.4839 3.7735-7.9451 7.9451"/><circle cx="47" cy="28" r="2" fill="none" stroke="#000" stroke-width="2"/><circle cx="47" cy="42" r="2" fill="none" stroke="#000" stroke-width="2"/><circle cx="47" cy="20" r="2" fill="none" stroke="#000" stroke-width="2"/><circle cx="55" cy="41" r="2" fill="none" stroke="#000" stroke-width="2"/><circle cx="55" cy="33" r="2" fill="none" stroke="#000" stroke-width="2"/><circle cx="55" cy="25" r="2" fill="none" stroke="#000" stroke-width="2"/><path fill="none" stroke="#000" stroke-linecap="round" stroke-linejoin="round" stroke-width="2" d="M38 30h2l4 4h4l5 5"/><path fill="none" stroke="#000" stroke-width="2" d="M50.5 37.5L53 35m2-4v-4"/><path fill="none" stroke="#000" stroke-linecap="round" stroke-linejoin="round" stroke-width="2" d="M38 16h4l3 3"/><circle r="2" fill="none" stroke="#000" stroke-width="2" transform="matrix(1 0 0 -1 47 50)"/><path fill="none" stroke="#000" stroke-linecap="round" stroke-linejoin="round" stroke-width="2" d="M38 54h4l3-3"/><path fill="none" stroke="#000" stroke-width="2" d="M47 22v4m0 18v4"/></g></svg>