<svg xmlns="http://www.w3.org/2000/svg" role="img" viewBox="16.84 2.59 37.19 66.69"><title>1F3EE.svg</title><rect width="32.737" height="52.264" x="19.125" y="9.871" fill="#ea5a47" rx="11"/><path d="M46.4141 10.7429l-6.1863-.8719c7.6518 1.92 6.6782 13.5373 6.7861 15.7853 1.7573 36.6011-12.681 36.6353-13.409 36.6779L43.0106 62h.0607A9.1128 9.1128 0 0 0 52 52.9873V19.4727s-.6148-5.8198-5.5859-8.7298zM33.6038 62.41l-.05.0013s.018.0006.05-.0013z" fill="#d22f27"/><rect width="12.286" height="35.618" x="29.35" y="18.332" fill="#fff" rx="2"/><path fill="#3f3f3f" d="M26.84 8.018V4.972h17.306v3.046m0 56.166v2.866H26.84v-2.866"/><g fill="none" stroke="#000" stroke-linecap="round" stroke-linejoin="round"><path stroke-width="2" d="M26.84 7.481V4.972h17.306v2.509m0 57.176v2.393H26.84v-2.393"/><rect width="32.737" height="52.264" x="19.125" y="9.871" stroke-width="2" rx="11"/><path d="M31.34 31.689h8.307v8.934H31.34zm0 10.85h8.307v8.934H31.34zm0-21.699h8.307v8.934H31.34z" stroke-width="1.5"/></g></svg>