<svg xmlns="http://www.w3.org/2000/svg" role="img" viewBox="0.65 0.65 70.46 70.33"><title>1F942.svg</title><g fill="none" stroke="#000" stroke-linecap="round" stroke-linejoin="round" stroke-miterlimit="10"><path stroke-width="1.943" d="M26.51 14.13h-23"/><path stroke-width="1.974" d="M57.4035 12.0455L34.4427 17.485"/></g><path fill="#FCEA2B" d="M3.1295 13C3.9803 29.9708 8.97 43 15 43s11.0197-13.0292 11.8705-30H3.1295z"/><path fill="#F1B31C" d="M11.4042 13H3.1295C3.9803 29.9708 8.97 43 15 43c1.5552 0 3.0402-.8726 4.4039-2.4501C15.4642 35.5093 12.4703 25.3695 11.4042 13z"/><path fill="#FCEA2B" d="M34.1327 16.355c4.7545 16.3133 12.6235 27.8345 18.4899 26.4393s7.7059-15.2254 4.6069-31.9325L34.1327 16.355z"/><path fill="#F1B31C" d="M42.1829 14.4403l-8.0502 1.9146c4.7545 16.3133 12.6235 27.8345 18.4899 26.4393 1.513-.3599 2.7558-1.5524 3.7175-3.4026-4.9991-3.9922-10.258-13.1641-14.1572-24.9513z"/><g fill="none" stroke="#000" stroke-linecap="round" stroke-linejoin="round" stroke-miterlimit="10"><path stroke-width="2" d="M15 44v23M4 67h22"/><path stroke-width="1.974" d="M3.0427 5C3.0168 5.9411 3 6.8895 3 7.85 3 27.2628 8.3726 43 15 43S27 27.2628 27 7.85c0-.9605-.0168-1.9089-.0427-2.85"/><path stroke-width="2" d="M52.854 43.767l5.322 22.376m-10.702 2.545l21.403-5.09"/><path stroke-width="1.974" d="M32.1972 8.5922c.1926.9215.3957 1.8481.6179 2.7825 4.4918 18.886 13.3599 32.953 19.8074 31.4195s8.033-18.0867 3.5413-36.9727c-.2222-.9344-.4581-1.8532-.7009-2.7628"/></g></svg>