<svg xmlns="http://www.w3.org/2000/svg" role="img" viewBox="8.08 14.45 54.47 43.09"><title>1F426.svg</title><path fill="#6A462F" d="M40.203 22s3.1218-9 11.4467-4c0 0 8.585.75 8.9753 3.375 0 0-7.9346 1.625-10.0159 5.625s3.1218 7-5.3331 15.625c0 0-4.0324 4.375-10.276 4.375 0 0-22 3-25 0"/><path fill="#A57939" d="M10.125 46.875S35 24 43 25s2 13.25-5.5 17.625-27.375 4.25-27.375 4.25z"/><g><path fill="none" stroke="#000" stroke-linecap="round" stroke-linejoin="round" stroke-miterlimit="10" stroke-width="2" d="M32.625 55.625L37 54"/><path d="M42.8504 29.4692c-.7444-.1428-.9348.5114-.9348.5114h-.0005c-.6837 2.166-3.0652 7.1369-10.4871 10.0829l.006.0082s-.7619.2029-.443 1.0278c.2757.7122.9802.5552 1.1667.4988 8.3025-3.3272 10.7819-9.1109 11.4476-11.3398.0585-.197-.0154-.6477-.7549-.7893z"/><path fill="none" stroke="#000" stroke-linecap="round" stroke-linejoin="round" stroke-miterlimit="10" stroke-width="2" d="M31.625 40.875S40 39 43 29m-2-7s3-9 11-4c0 0 8.25.75 8.625 3.375C60.625 21.375 53 23 51 27s3 7-5.125 15.625C45.875 42.625 42 47 36 47l-1 2 2 5 6 1"/><path fill="none" stroke="#000" stroke-linecap="round" stroke-linejoin="round" stroke-miterlimit="10" stroke-width="2" d="M10.125 46.875S35 24 43 25s2 13.25-5.5 17.625-27.375 4.25-27.375 4.25z"/></g></svg>