<svg xmlns="http://www.w3.org/2000/svg" role="img" viewBox="14.16 11.79 43.55 41.67"><title>E31C.svg</title><g id="color"><ellipse cx="35.98" cy="39.971" fill="#fff" rx="19.297" ry="11.01"/><circle cx="36.144" cy="39.651" r="8.896" fill="#a57939"/></g><g id="line"><ellipse cx="36" cy="39.921" fill="none" stroke="#000" stroke-linecap="round" stroke-linejoin="round" stroke-width="2" rx="20" ry="11.737"/><circle cx="36.144" cy="39.651" r="4.85"/><circle cx="36.144" cy="39.651" r="4.85" fill="none"/><circle cx="36.144" cy="39.651" r="8.896" fill="none" stroke="#000" stroke-linecap="round" stroke-linejoin="round" stroke-width="2"/><path fill="none" stroke="#000" stroke-linecap="round" stroke-linejoin="round" stroke-width="2" d="M43.135 24.35L45.118 20.313 47.144 22.465 49.635 17.393M24.316 16.259L26.649 20.104 23.745 20.653 26.675 25.483M36.48 22.682L36.29 18.188 33.569 19.342 33.331 13.696"/></g><g id="color-foreground" fill="none" stroke="#d22f27" stroke-linecap="round" stroke-linejoin="round" stroke-width="2"><path d="M43.135 24.35L45.118 20.313 47.144 22.465 49.635 17.393M24.316 16.259L26.649 20.104 23.745 20.653 26.675 25.483M36.48 22.682L36.29 18.188 33.569 19.342 33.331 13.696"/></g></svg>