<svg xmlns="http://www.w3.org/2000/svg" role="img" viewBox="4.43 4.80 62.27 62.27"><title>1F4DB.svg</title><path fill="#ea5a47" d="M52.1576 7.41l-7.652 17.1477L36.1566 7l-8.2229 17.5572L19.45 7.4744S6.6522 23.6645 6.6522 38.8005 22.32 65 35.8392 65H36.6c13.52 0 27.9646-11.0636 27.9646-26.1995S52.1576 7.41 52.1576 7.41z"/><path fill="#d22f27" d="M25.452 31.01h26.506a2.9184 2.9184 0 0 1 2.9184 2.9184v17.133A2.9184 2.9184 0 0 1 51.958 53.98H20.8318a2.9184 2.9184 0 0 1-2.9184-2.9184V38.5485A7.5386 7.5386 0 0 1 25.452 31.01z"/><rect width="33.071" height="19.731" x="19.022" y="31.726" fill="#fff" rx="2.918" ry="2.918"/><g fill="none" stroke="#000" stroke-linecap="round" stroke-linejoin="round" stroke-width="2"><path d="M52.1576 7.41l-7.652 17.1477L36.1566 7l-8.2229 17.5572L19.45 7.4744S6.6522 23.6645 6.6522 38.8005 22.32 65 35.8392 65H36.6c13.52 0 27.9646-11.0636 27.9646-26.1995S52.1576 7.41 52.1576 7.41z"/><rect width="33.071" height="19.731" x="19.022" y="31.726" rx="2.918" ry="2.918"/></g></svg>