<svg xmlns="http://www.w3.org/2000/svg" role="img" viewBox="17.38 14.75 39.37 45.37"><title>1F33F.svg</title><path fill="#B1CC33" d="M36.8349 18.0781c1.7393 1.6583 1.6481 4.5775 1.6481 4.5775s-2.9114.2303-4.651-1.428c-1.7396-1.6582-1.6481-4.5775-1.6481-4.5775s2.9119-.2288 4.651 1.428z"/><path fill="#5C9E31" d="M42.0884 54.3627c-4.6114 1.465-9.3345-1.6943-9.3345-1.6943s2.7546-5.5346 7.3663-7.0003 9.3345 1.6943 9.3345 1.6943-2.7576 5.5342-7.3663 7.0003z"/><path fill="#B1CC33" d="M49.0484 35.6919c-3.6542 1.0489-7.2941-1.5366-7.2941-1.5366s2.2856-4.2862 5.9401-5.3357 7.2941 1.5366 7.2941 1.5366-2.288 4.2858-5.9401 5.3357z"/><path fill="#5C9E31" d="M27.0179 32.1509c3.0883 2.3003 3.5096 6.9616 3.5096 6.9616s-4.5864.9311-7.6753-1.3691c-3.0889-2.3002-3.5096-6.9616-3.5096-6.9616s4.5876-.9289 7.6753 1.3691z"/><g fill="none" stroke="#000" stroke-linecap="round" stroke-linejoin="round" stroke-width="2"><path d="M36.8349 18.0781c1.7393 1.6583 1.6481 4.5775 1.6481 4.5775s-2.9114.2303-4.651-1.428c-1.7396-1.6582-1.6481-4.5775-1.6481-4.5775s2.9119-.2288 4.651 1.428zm-9.817 14.0728c3.0883 2.3003 3.5096 6.9616 3.5096 6.9616s-4.5864.9311-7.6753-1.3691c-3.0889-2.3002-3.5096-6.9616-3.5096-6.9616s4.5876-.9289 7.6753 1.3691zm15.0705 22.2118c-4.6114 1.465-9.3345-1.6943-9.3345-1.6943s2.7546-5.5346 7.3663-7.0003 9.3345 1.6943 9.3345 1.6943-2.7576 5.5342-7.3663 7.0003zm6.96-18.6708c-3.6542 1.0489-7.2941-1.5366-7.2941-1.5366s2.2856-4.2862 5.9401-5.3357 7.2941 1.5366 7.2941 1.5366-2.288 4.2858-5.9401 5.3357zm-9.1438-9.9101c0 4.7785-2.8879 10.0608-4.8815 13.1378-.8136 1.2558-1.7383 2.4273-2.7031 3.5711-2.5753 3.0534-5.2237 8.2176-3.876 15.8715"/></g></svg>