<svg xmlns="http://www.w3.org/2000/svg" role="img" viewBox="12.88 10.00 45.99 51.87"><title>1F5D1.svg</title><path fill="#fff" d="M49.419 60.178l-27.01-.207-5.825-41.952h38.738l-5.903 42.159z"/><path fill="#d0cfce" d="M15.076 12.068v5.951h35.745l.644-5.951H15.076zm6.833 42.621l.5 5.282h21.518l.592-5.282h-22.61z"/><path fill="#9b9b9a" d="M42.096 60.178h7.323l.515-5.731h-7.238l-.6 5.731zm14.433-47.89h-7.59l-.628 5.613h8.218v-5.613z"/><g fill="none" stroke="#000"><path stroke-linecap="round" stroke-linejoin="round" stroke-width="2" d="M21.38 50.393l-3.607-28.381m36.49-.029l-3.757 28.395m-9.93-28.289l8.173 10.02M30.417 22.13l17.152 20.642M22.352 24.253l21.864 26.172M23.902 36.996L35.928 50.63m-10.611-1.234l1.363 1.357m-3.452-19.519l8.585-9.131M24.61 41.882L42.853 22.13m-15.968 28.5l22.497-23.915M36.574 50.63l11.543-11.946m-3.901 12.069l2.127-1.793M14.905 12.028H56.95v5.946H14.905z"/><path stroke-miterlimit="10" d="M42.853 54.404h7.271"/><path stroke-linecap="round" stroke-linejoin="round" stroke-width="2" d="M50.124 54.404l-.708 5.562H22.43l-.681-5.562h28.375"/></g></svg>