<svg xmlns="http://www.w3.org/2000/svg" role="img" viewBox="18.46 8.71 32.20 54.08"><title>1FA98.svg</title><path d="M29.625 35.9453a1 1 0 0 1-.8408-1.54l4.5527-7.1006-3.2949-4.0811a1 1 0 0 1 1.5566-1.2558l3.7471 4.6416a1 1 0 0 1 .0635 1.1679l-4.9414 7.7081a.9986.9986 0 0 1-.8428.4599zm-4.0098-.1053a1 1 0 0 1-.7578-.3476l-5.0537-5.8694a1.001 1.001 0 0 1-.0225-1.2783L24.959 21.89a1 1 0 0 1 1.5605 1.252l-4.6582 5.8066 4.5117 5.2393a1 1 0 0 1-.7578 1.6523zm3.1817 18.617a1.0007 1.0007 0 0 1-.9844-.8281l-2.6279-15.1016a1 1 0 1 1 1.9707-.3437l2.6279 15.1016a1 1 0 0 1-.8135 1.1572 1.0571 1.0571 0 0 1-.1728.0146z"/><path d="M30.5293 54.457a1 1 0 0 1-.9961-.9189L28.2959 38.373a1 1 0 0 1 1.9941-.1621l1.2373 15.1651a1.0007 1.0007 0 0 1-.916 1.0781c-.0273.002-.0547.0029-.082.0029zM39.51 35.9453a.9985.9985 0 0 1-.8428-.46l-4.9414-7.7081a1 1 0 0 1 .0635-1.1679l3.747-4.6416a1 1 0 0 1 1.5567 1.2558l-3.2949 4.0811 4.5527 7.1006a1 1 0 0 1-.8408 1.54zm4.0105-.1053a1 1 0 0 1-.7578-1.6523l4.5107-5.2393-4.6582-5.8066a1 1 0 0 1 1.5606-1.252l5.1777 6.4551a1.0009 1.0009 0 0 1-.0224 1.2783l-5.0528 5.8692a.9978.9978 0 0 1-.7578.3476zm-3.1816 18.617a1.0364 1.0364 0 0 1-.1719-.0146 1 1 0 0 1-.8145-1.1563L41.98 38.1846a1 1 0 1 1 1.9707.3418l-2.627 15.1015a1.0006 1.0006 0 0 1-.9848.8291z"/><path d="M38.6055 54.457c-.0274 0-.0547-.0009-.0821-.0029a1.0008 1.0008 0 0 1-.916-1.0781l1.2373-15.1651a1.0112 1.0112 0 0 1 1.0782-.916 1.0008 1.0008 0 0 1 .916 1.0781l-1.2373 15.1651a1 1 0 0 1-.9961.9189z"/><g><path fill="#d22f27" d="M43.3557 57.378C52.84 30.25 47.2842 15.58 45.4308 11.8305a1.7576 1.7576 0 0 0-1.5829-.9736H25.45a1.7576 1.7576 0 0 0-1.5829.9736c-1.8534 3.75-7.4094 18.42 2.0751 45.5475a5.2374 5.2374 0 0 0 4.9413 3.4968h7.5313a5.2373 5.2373 0 0 0 4.9409-3.4968z"/><path fill="#f1b31c" d="M21.725 18.112l-.772 4.399 27.39.085-.77-4.486-25.848.002zm3.146 35.345h19.643l-.863 3.067h-17.67l-1.11-3.067z"/><rect width="6" height="3" x="24.701" y="35.181" fill="#a57939" rx="1.29"/><rect width="6" height="3" x="38.434" y="35.181" fill="#a57939" rx="1.29" transform="rotate(180 41.434 36.681)"/><path fill="#a57939" d="M25.038 10.857h18.81l1.583.974.909 2.127H22.957l.91-2.127 1.171-.974z"/><path fill="#f1b31c" d="M29.625 35.9453a1 1 0 0 1-.8408-1.54l4.5527-7.1006-3.2949-4.0811a1 1 0 0 1 1.5566-1.2558l3.7471 4.6416a1 1 0 0 1 .0635 1.1679l-4.9414 7.7081a.9986.9986 0 0 1-.8428.4599zm-4.0098-.1053a1 1 0 0 1-.7578-.3476l-5.0537-5.8694a1.001 1.001 0 0 1-.0225-1.2783L24.959 21.89a1 1 0 0 1 1.5605 1.252l-4.6582 5.8066 4.5117 5.2393a1 1 0 0 1-.7578 1.6523zm3.1817 18.617a1.0007 1.0007 0 0 1-.9844-.8281l-2.6279-15.1016a1 1 0 1 1 1.9707-.3437l2.6279 15.1016a1 1 0 0 1-.8135 1.1572 1.0571 1.0571 0 0 1-.1728.0146z"/><path fill="#f1b31c" d="M30.5293 54.457a1 1 0 0 1-.9961-.9189L28.2959 38.373a1 1 0 0 1 1.9941-.1621l1.2373 15.1651a1.0007 1.0007 0 0 1-.916 1.0781c-.0273.002-.0547.0029-.082.0029zM39.51 35.9453a.9985.9985 0 0 1-.8428-.46l-4.9414-7.7081a1 1 0 0 1 .0635-1.1679l3.747-4.6416a1 1 0 0 1 1.5567 1.2558l-3.2949 4.0811 4.5527 7.1006a1 1 0 0 1-.8408 1.54zm4.0105-.1053a1 1 0 0 1-.7578-1.6523l4.5107-5.2393-4.6582-5.8066a1 1 0 0 1 1.5606-1.252l5.1777 6.4551a1.0009 1.0009 0 0 1-.0224 1.2783l-5.0528 5.8692a.9978.9978 0 0 1-.7578.3476zm-3.1816 18.617a1.0364 1.0364 0 0 1-.1719-.0146 1 1 0 0 1-.8145-1.1563L41.98 38.1846a1 1 0 1 1 1.9707.3418l-2.627 15.1015a1.0006 1.0006 0 0 1-.9848.8291z"/><path fill="#f1b31c" d="M38.6055 54.457c-.0274 0-.0547-.0009-.0821-.0029a1.0008 1.0008 0 0 1-.916-1.0781l1.2373-15.1651a1.0112 1.0112 0 0 1 1.0782-.916 1.0008 1.0008 0 0 1 .916 1.0781l-1.2373 15.1651a1 1 0 0 1-.9961.9189z"/></g><g fill="none" stroke="#000" stroke-miterlimit="10" stroke-width="2"><path d="M43.3557 57.378C52.84 30.25 47.2842 15.58 45.4308 11.8305a1.7576 1.7576 0 0 0-1.5829-.9736H25.45a1.7576 1.7576 0 0 0-1.5829.9736c-1.8534 3.75-7.4094 18.42 2.0751 45.5475a5.2374 5.2374 0 0 0 4.9413 3.4968h7.5313a5.2373 5.2373 0 0 0 4.9409-3.4968z"/><path stroke-linecap="round" d="M21.725 18.119h25.848m-24.302-4.161H46.34m-25.387 8.557h27.39"/><rect width="6" height="3" x="24.701" y="35.181" rx="1.328"/><path stroke-linecap="round" d="M24.648 53.457H44.61m-18.629 3.066h17.356"/><rect width="6" height="3" x="38.434" y="35.181" rx="1.328" transform="rotate(180 41.434 36.681)"/></g></svg>