<svg xmlns="http://www.w3.org/2000/svg" role="img" viewBox="2.72 14.72 66.43 42.43"><title>1F1F0-1F1EA.svg</title><path fill="#5c9e31" d="M5 17h62v38H5z"/><path d="M5 17h62v13H5z"/><path fill="#d22f27" stroke="#fff" stroke-miterlimit="10" stroke-width="2" d="M5 30.5h62v11H5z"/><path fill="#fff" stroke="#fff" stroke-linecap="round" stroke-linejoin="round" d="M29.25 47.6913l13.5-23.3826m-13.5 0l13.5 23.3826"/><path fill="#d22f27" d="M36.231 25.0566a.4958.4958 0 0 0-.4619 0A12.2986 12.2986 0 0 0 29.5 36a12.2988 12.2988 0 0 0 6.2671 10.9434.5.5 0 0 0 .231.0566h.0039a.5.5 0 0 0 .2309-.0566A12.2986 12.2986 0 0 0 42.5 36a12.2985 12.2985 0 0 0-6.269-10.9434z"/><path d="M41.7033 31.501A6.2884 6.2884 0 0 0 40 36a6.2883 6.2883 0 0 0 1.7037 4.4991 13.1042 13.1042 0 0 0 0-8.9979zm-11.4069 8.9979A6.2883 6.2883 0 0 0 32 36a6.2884 6.2884 0 0 0-1.7033-4.4988 13.1034 13.1034 0 0 0 0 8.9979z"/><path fill="#fff" stroke="#fff" stroke-linecap="round" stroke-linejoin="round" d="M36 27v18"/><g><path fill="none" stroke="#000" stroke-linecap="round" stroke-linejoin="round" stroke-width="2" d="M5 17h62v38H5z"/></g></svg>