<svg xmlns="http://www.w3.org/2000/svg" role="img" viewBox="2.98 19.60 66.17 36.05"><title>1F684.svg</title>d<path fill="#fff" d="M68 48l-61.78-.5026-1.131-3.958 31.76-21.02 31.15-.5784z"/><path fill="#9b9b9a" d="M68 48v5.5H12.65a1.004 1.004 0 0 1-.5031-1.873L18.4109 48z"/><path fill="#3f3f3f" d="M68 36.5H41.84a1.286 1.286 0 0 1-.69-2.37l7.259-4.62a12.86 12.86 0 0 1 6.903-2.01h12.68m-52.382 9h9.502a12.86 12.86 0 0 0 6.903-2.01l7.259-4.62a1.286 1.286 0 0 0-.69-2.37H29.11"/><path fill="#d22f27" d="M67.93 44H18.64a.5714.5714 0 0 1-.3068-1.054l3.227-2.053a5.714 5.714 0 0 1 3.068-.8934h43.3"/><g fill="none" stroke="#000" stroke-linecap="round" stroke-miterlimit="10" stroke-width="2"><path d="M67 36.5H41.84a1.286 1.286 0 0 1-.69-2.37l7.259-4.62a12.86 12.86 0 0 1 6.903-2.01h11.68m-51.382 9h9.502a12.86 12.86 0 0 0 6.903-2.01l7.259-4.62a1.286 1.286 0 0 0-.69-2.37H29.11"/><path d="M67 48H8.27a3 3 0 0 1-1.664-5.496l24.95-16.63a23.38 23.38 0 0 1 12.97-3.926h22.48M67 53.5H12.65a1.004 1.004 0 0 1-.5031-1.873L18.4109 48"/><path d="M66.93 44H18.64a.5714.5714 0 0 1-.3068-1.054l3.227-2.053a5.714 5.714 0 0 1 3.068-.8934h42.3"/></g></svg>