<svg xmlns="http://www.w3.org/2000/svg" role="img" viewBox="5.71 5.71 60.45 60.45"><title>1F16D.svg</title><circle cx="36" cy="36" r="26.68" fill="#fff" fill-rule="evenodd"/><g fill="none" stroke="#000" stroke-linecap="round" stroke-linejoin="round"><path stroke-miterlimit="10" stroke-width="5.84" d="M52.34 44.08c-1.288 1.142-2.984 1.837-4.845 1.837-4.03 0-7.301-3.268-7.301-7.301v-5.84 5.84-5.84c0-4.033 3.271-7.301 7.301-7.301 1.86 0 3.557.695 4.845 1.837M31.78 44.69c-1.288 1.142-2.984 1.837-4.845 1.837-4.03 0-7.301-3.268-7.301-7.301v-5.84 5.84-5.84c0-4.033 3.271-7.301 7.301-7.301 1.86 0 3.557.695 4.845 1.837" clip-rule="evenodd"/><circle cx="36" cy="36" r="26.68" stroke-width="4.74"/></g></svg>