<svg xmlns="http://www.w3.org/2000/svg" role="img" viewBox="10.00 10.00 51.87 51.87"><title>1F17F.svg</title><path fill="#d0cfce" stroke-linejoin="round" stroke-miterlimit="10" stroke-width="2" d="M59.0349 60H12.9651c-.5308 0-.9651-.4343-.9651-.9651V12.9651c0-.5308.4343-.9651.9651-.9651h46.0698c.5308 0 .9651.4343.9651.9651v46.0698c0 .5308-.4343.9651-.9651.9651z"/><g fill="none" stroke="#000" stroke-linejoin="round" stroke-miterlimit="10" stroke-width="2"><path d="M59.0349 60H12.9651c-.5308 0-.9651-.4343-.9651-.9651V12.9651c0-.5308.4343-.9651.9651-.9651h46.0698c.5308 0 .9651.4343.9651.9651v46.0698c0 .5308-.4343.9651-.9651.9651z"/><path stroke-linecap="round" d="M30.1098 47.0048v-22h8.3889c3.0263 0 5.4793 2.4533 5.4793 5.4796h0c0 3.0263-2.453 5.4793-5.4793 5.4793h-8.3889"/></g></svg>