<svg xmlns="http://www.w3.org/2000/svg" role="img" viewBox="10.00 10.00 51.87 51.87"><title>1F171.svg</title><g fill="none" stroke="#000" stroke-linejoin="round" stroke-width="2"><path d="M59.0349 60h-46.07A.9679.9679 0 0 1 12 59.0349v-46.07A.9679.9679 0 0 1 12.9651 12h46.07a.9679.9679 0 0 1 .9649.9651v46.07a.9679.9679 0 0 1-.9651.9649z"/><path stroke-linecap="round" d="M37.7628 35.2283h-8.42v-11h8.42a5.5 5.5 0 0 1 5.5 5.5h0a5.5 5.5 0 0 1-5.5 5.5zm0 11.0001h-8.42v-11h8.42a5.5 5.5 0 0 1 5.5 5.5h0a5.5 5.5 0 0 1-5.5 5.5z"/></g><path fill="#d22f27" d="M59.0349 60h-46.07A.9679.9679 0 0 1 12 59.0349v-46.07A.9679.9679 0 0 1 12.9651 12h46.07a.9679.9679 0 0 1 .9649.9651v46.07a.9679.9679 0 0 1-.9651.9649z"/><g fill="none" stroke="#fff" stroke-linejoin="round" stroke-width="2"><path d="M59.0349 60h-46.07A.9679.9679 0 0 1 12 59.0349v-46.07A.9679.9679 0 0 1 12.9651 12h46.07a.9679.9679 0 0 1 .9649.9651v46.07a.9679.9679 0 0 1-.9651.9649z"/><path stroke-linecap="round" d="M37.7628 35.2283h-8.42v-11h8.42a5.5 5.5 0 0 1 5.5 5.5h0a5.5 5.5 0 0 1-5.5 5.5zm0 11.0001h-8.42v-11h8.42a5.5 5.5 0 0 1 5.5 5.5h0a5.5 5.5 0 0 1-5.5 5.5z"/></g></svg>