<svg xmlns="http://www.w3.org/2000/svg" role="img" viewBox="10.00 10.00 51.88 52.00"><title>1F170.svg</title><g fill="none" stroke="#000" stroke-linejoin="round" stroke-width="2"><path d="M59.0349 60.1374h-46.07A.9679.9679 0 0 1 12 59.1723v-46.07a.9679.9679 0 0 1 .9651-.9651h46.07a.9679.9679 0 0 1 .9649.9653v46.07a.9679.9679 0 0 1-.9651.9649z"/><path d="M45.429 46.313l-9.429-22-9.429 22m3.143-5.267h12.572" stroke-linecap="round"/></g><path fill="#d22f27" d="M59.0349 60h-46.07A.9679.9679 0 0 1 12 59.0349v-46.07A.9679.9679 0 0 1 12.9651 12h46.07a.9679.9679 0 0 1 .9649.9651v46.07a.9679.9679 0 0 1-.9651.9649z"/><g fill="none" stroke="#fff" stroke-linejoin="round" stroke-width="2"><path d="M59.0349 60h-46.07A.9679.9679 0 0 1 12 59.0349v-46.07A.9679.9679 0 0 1 12.9651 12h46.07a.9679.9679 0 0 1 .9649.9651v46.07a.9679.9679 0 0 1-.9651.9649z"/><path d="M45.429 46.176l-9.429-22-9.429 22m3.143-5.268h12.572" stroke-linecap="round"/></g></svg>