<svg xmlns="http://www.w3.org/2000/svg" role="img" viewBox="10.00 10.00 51.87 51.87"><title>1F198.svg</title><path fill="#D22F27" stroke-miterlimit="10" stroke-width="2" d="M59.0349 60H12.9651c-.5308 0-.9651-.4343-.9651-.9651V12.9651c0-.5308.4343-.9651.9651-.9651h46.0698c.5308 0 .9651.4343.9651.9651v46.0698c0 .5308-.4343.9651-.9651.9651z"/><g fill="none" stroke="#000" stroke-miterlimit="10"><path stroke-width="2" d="M59.0349 60H12.9651c-.5308 0-.9651-.4343-.9651-.9651V12.9651c0-.5308.4343-.9651.9651-.9651h46.0698c.5308 0 .9651.4343.9651.9651v46.0698c0 .5308-.4343.9651-.9651.9651z"/><path stroke-linecap="round" stroke-linejoin="round" stroke-width="3.004" d="M36 42.01v0c-2.37 0-4.291-1.921-4.291-4.291v-3.433c0-2.37 1.921-4.291 4.291-4.291v0c2.37 0 4.291 1.921 4.291 4.291v3.433c0 2.37-1.921 4.291-4.291 4.291zm-9.79-9.62c-.3516-1.367-1.871-2.396-3.692-2.396v0c-2.082 0-3.769 1.344-3.769 3.001s1.687 3.001 3.769 3.001l-.0766.01111c2.082 0 3.769 1.344 3.769 3.001 0 1.657-1.687 3.001-3.769 3.001v0c-1.821 0-3.341-1.029-3.692-2.396M53.25 32.39c-.3516-1.367-1.871-2.396-3.692-2.396v0c-2.082 0-3.769 1.344-3.769 3.001s1.687 3.001 3.769 3.001l-.0766.01111c2.082 0 3.769 1.344 3.769 3.001 0 1.657-1.687 3.001-3.769 3.001v0c-1.821 0-3.341-1.029-3.692-2.396"/></g></svg>