<svg xmlns="http://www.w3.org/2000/svg" role="img" viewBox="10.00 10.00 51.87 51.87"><title>1F195.svg</title><path fill="#d0cfce" stroke-miterlimit="10" stroke-width="2" d="M59.0349 60H12.9651c-.5308 0-.9651-.4343-.9651-.9651V12.9651c0-.5308.4343-.9651.9651-.9651h46.0698c.5308 0 .9651.4343.9651.9651v46.0698c0 .5308-.4343.9651-.9651.9651z"/><g fill="none" stroke="#000" stroke-miterlimit="10" stroke-width="2"><path d="M59.0349 60H12.9651c-.5308 0-.9651-.4343-.9651-.9651V12.9651c0-.5308.4343-.9651.9651-.9651h46.0698c.5308 0 .9651.4343.9651.9651v46.0698c0 .5308-.4343.9651-.9651.9651z"/><path stroke-linecap="round" stroke-linejoin="round" d="M37.486 32.47h-4.572v8h4.572m-4.572-4h3.429M23 40.47v-8l5.714 8v-8m21.286 0l-2.286 8-2.285-8-2.286 8-2.286-8"/></g></svg>