<svg xmlns="http://www.w3.org/2000/svg" role="img" viewBox="10.00 10.00 51.87 51.87"><title>1F19A.svg</title><path fill="#d0cfce" stroke-linejoin="round" stroke-miterlimit="10" stroke-width="2" d="M59.0349 60H12.9651c-.5308 0-.9651-.4343-.9651-.9651V12.9651c0-.5308.4343-.9651.9651-.9651h46.0698c.5308 0 .9651.4343.9651.9651v46.0698c0 .5308-.4343.9651-.9651.9651z"/><g fill="none" stroke="#000" stroke-linejoin="round" stroke-miterlimit="10" stroke-width="2"><path d="M59.0349 60H12.9651c-.5308 0-.9651-.4343-.9651-.9651V12.9651c0-.5308.4343-.9651.9651-.9651h46.0698c.5308 0 .9651.4343.9651.9651v46.0698c0 .5308-.4343.9651-.9651.9651z"/><path stroke-linecap="round" d="M44.168 33.2439c-.2926-1.1381-1.5573-1.9943-3.0731-1.9943h0c-1.7325 0-3.1369 1.1182-3.1369 2.4977s1.4044 2.4977 3.1369 2.4977l-.0638.0093c1.7325 0 3.1369 1.1182 3.1369 2.4977s-1.4044 2.4977-3.1369 2.4977h0c-1.5159 0-2.7806-.8561-3.0731-1.9943m-2.726-7.9964l-2.854 9.991-2.855-9.991"/></g></svg>