<svg xmlns="http://www.w3.org/2000/svg" role="img" viewBox="10.00 10.00 51.87 51.87"><title>1F193.svg</title><path fill="#92d3f5" d="M59.0349 60h-46.07A.9679.9679 0 0 1 12 59.0349v-46.07A.9679.9679 0 0 1 12.9651 12h46.07a.9679.9679 0 0 1 .9649.9651v46.07a.9679.9679 0 0 1-.9651.9649z"/><g fill="none" stroke="#000" stroke-linejoin="round" stroke-width="2"><path d="M59.0349 60h-46.07A.9679.9679 0 0 1 12 59.0349v-46.07A.9679.9679 0 0 1 12.9651 12h46.07a.9679.9679 0 0 1 .9649.9651v46.07a.9679.9679 0 0 1-.9651.9649z"/><path stroke-linecap="round" d="M23.83 36.376h-3v3.5-7h4"/><path d="M29.0081 39.8759v-7h2.6692a1.7434 1.7434 0 0 1 1.7434 1.7435h0a1.7433 1.7433 0 0 1-1.7434 1.7434h-2.6692m2.6819.0002l1.517 3.513" stroke-linecap="round"/><path d="M42.83 32.876h-4v7h4m-4-3.5h3" stroke-linecap="round"/><path d="M51.83 32.876h-4v7h4m-4-3.5h3" stroke-linecap="round"/></g></svg>