<svg xmlns="http://www.w3.org/2000/svg" role="img" viewBox="10.00 10.00 51.87 51.87"><title>1F194.svg</title><g id="color"><path fill="#d0cfce" stroke-miterlimit="10" stroke-width="2" d="M59.0349,60H12.9651 C12.4343,60,12,59.5657,12,59.0349V12.9651C12,12.4343,12.4343,12,12.9651,12h46.0698C59.5657,12,60,12.4343,60,12.9651v46.0698 C60,59.5657,59.5657,60,59.0349,60z"/></g><g id="line" fill="none" stroke="#000" stroke-miterlimit="10" stroke-width="2"><path d="M59.0349,60H12.9651 C12.4343,60,12,59.5657,12,59.0349V12.9651C12,12.4343,12.4343,12,12.9651,12h46.0698C59.5657,12,60,12.4343,60,12.9651v46.0698 C60,59.5657,59.5657,60,59.0349,60z"/><path stroke-linecap="round" stroke-linejoin="round" d="M31.466 30.875L31.466 40.875M40.0646 40.8564h-3.6434v-9.9627h3.6434c1.1485 0 2.0796.9311 2.0796 2.0796v5.8035C42.1442 39.9253 41.2131 40.8564 40.0646 40.8564z"/></g></svg>