<svg xmlns="http://www.w3.org/2000/svg" role="img" viewBox="10.00 10.00 51.87 51.87"><title>1F191.svg</title><g fill="none" stroke="#000" stroke-linejoin="round" stroke-width="2"><path d="M59.0349 60h-46.07A.9679.9679 0 0 1 12 59.0349v-46.07A.9679.9679 0 0 1 12.9651 12h46.07a.9679.9679 0 0 1 .9649.9651v46.07a.9679.9679 0 0 1-.9651.9649z"/><path stroke-linecap="round" d="M32.07 42.5784a5.3144 5.3144 0 0 1-3.5383 1.3423h0a5.3343 5.3343 0 0 1-5.3342-5.3342v-4.2673a5.3343 5.3343 0 0 1 5.3342-5.3342h0a5.3131 5.3131 0 0 1 3.5383 1.3425m10.331-1.2785v14.936h6.401"/></g><path fill="#d22f27" d="M59.0349 60.4528h-46.07A.9679.9679 0 0 1 12 59.4877v-46.07a.9679.9679 0 0 1 .9651-.9651h46.07a.9679.9679 0 0 1 .9649.9653v46.07a.9679.9679 0 0 1-.9651.9649z"/><g fill="none" stroke="#fff" stroke-linejoin="round" stroke-width="2"><path d="M59.0349 60h-46.07A.9679.9679 0 0 1 12 59.0349v-46.07A.9679.9679 0 0 1 12.9651 12h46.07a.9679.9679 0 0 1 .9649.9651v46.07a.9679.9679 0 0 1-.9651.9649z"/><path stroke-linecap="round" d="M32.07 42.5784a5.3144 5.3144 0 0 1-3.5383 1.3423h0a5.3343 5.3343 0 0 1-5.3342-5.3342v-4.2673a5.3343 5.3343 0 0 1 5.3342-5.3342h0a5.3131 5.3131 0 0 1 3.5383 1.3425m10.331-1.2785v14.936h6.401"/></g></svg>