<svg xmlns="http://www.w3.org/2000/svg" role="img" viewBox="2.72 14.72 66.43 42.43"><title>1F1E7-1F1FE.svg</title><g id="color"><path fill="#d22f27" d="M5 17H67V55H5z"/><path fill="#5c9e31" d="M5 42H67V55H5z"/><path fill="#fff" d="M5 17H17V55H5z"/><path fill="none" stroke="#d22f27" stroke-linecap="round" stroke-linejoin="round" stroke-width="2" d="M9.025 19.525H13.975000000000001V24.474999999999998H9.025z" transform="rotate(-45 11.5 22)"/><path fill="none" stroke="#d22f27" stroke-linecap="round" stroke-linejoin="round" stroke-width="2" d="M9.025 26.525H13.975000000000001V31.474999999999998H9.025z" transform="rotate(-45 11.5 29)"/><path fill="none" stroke="#d22f27" stroke-linecap="round" stroke-linejoin="round" stroke-width="2" d="M9.025 33.525H13.975000000000001V38.475H9.025z" transform="rotate(-45 11.5 36)"/><path fill="none" stroke="#d22f27" stroke-linecap="round" stroke-linejoin="round" stroke-width="2" d="M9.025 40.525H13.975000000000001V45.475H9.025z" transform="rotate(-45 11.5 43)"/><path fill="none" stroke="#d22f27" stroke-linecap="round" stroke-linejoin="round" stroke-width="2" d="M9.025 47.525H13.975000000000001V52.475H9.025z" transform="rotate(-45 11.5 50)"/></g><g id="line"><path fill="none" stroke="#000" stroke-linecap="round" stroke-linejoin="round" stroke-width="2" d="M5 17H67V55H5z"/></g></svg>