<svg xmlns="http://www.w3.org/2000/svg" role="img" viewBox="2.72 14.72 66.43 42.43"><title>1F1E7-1F1F3.svg</title><path fill="#f1b31c" d="M5 17h62v38H5z"/><path fill="#fff" stroke="#fff" stroke-miterlimit="10" d="M5 19v5l62 23v-5z"/><path stroke="#000" stroke-miterlimit="10" d="M5 25v5l62 23v-5z"/><path d="M41.528 34.915c.30362.71783.47151 1.507.47151 2.3355 0 3.3137-2.6863 6-6 6s-6-2.6863-6-6c0-.82843.16789-1.6176.47151-2.3355M36 28v12.5m6 2.75c-3.7143 3.1429-8.1429 3.2143-12 0m-4-1.5V36l-2-4.25m22 10V36.5l2-4.75m-8.615-.158c-2.2775-.81785-4.6618-.75339-6.8641-.02937" fill="none" stroke="#d22f27" stroke-linecap="round" stroke-linejoin="round" stroke-width="2"/><g><path fill="none" stroke="#000" stroke-linecap="round" stroke-linejoin="round" stroke-width="2" d="M5 17h62v38H5z"/></g></svg>