<svg xmlns="http://www.w3.org/2000/svg" role="img" viewBox="5.84 5.84 60.19 60.19"><title>1F1E7.svg</title><circle cx="36.5" cy="36.5" r="27.5" fill="#fff"/><circle cx="36" cy="36" r="28" fill="none" stroke="#000" stroke-linejoin="round" stroke-width="2"/><path stroke="#000" stroke-linejoin="round" stroke-width="2" d="M46.8259 29.022c0-4.3979-3.5781-7.9761-7.9761-7.9761H28.174c-.5522 0-1 .4478-1 1v27.9082c0 .5522.4478 1 1 1h10.6758c4.3979 0 7.9761-3.5781 7.9761-7.9761 0-2.9995-1.666-5.6177-4.1216-6.978 2.4556-1.3604 4.1216-3.9785 4.1216-6.978zm-2 13.9561c0 3.2954-2.6807 5.9761-5.9761 5.9761H29.174V37.006h9.6758c3.2954 0 5.9761 2.6792 5.9761 5.9722h0zm-5.9761-7.9839c-.0206 0-.0378.0105-.058.0117h-9.6177v-11.96h9.6758c3.2954 0 5.9761 2.6807 5.9761 5.9761 0 3.293-2.6807 5.9722-5.9761 5.9722h-.0001z"/></svg>