<svg xmlns="http://www.w3.org/2000/svg" role="img" viewBox="2.72 14.72 66.43 42.43"><title>1F1EA-1F1ED.svg</title><path fill="#5c9e31" d="M5 17h62v38H5z"/><path fill="#fff" d="M5 30h62v12H5z"/><path d="M5 17h62v13H5z"/><path fill="#d22f27" d="M26 36L5 55V17l21 19z"/><path fill="#d22f27" stroke="#d22f27" stroke-linecap="round" stroke-linejoin="round" d="M35.1216 36A4.0529 4.0529 0 0 1 38.5 32.0764 4.3955 4.3955 0 0 0 37.6892 32a4.0043 4.0043 0 1 0 0 8 4.3955 4.3955 0 0 0 .8108-.0764A4.0529 4.0529 0 0 1 35.1216 36z"/><path fill="#d22f27" stroke="#d22f27" stroke-linecap="round" stroke-linejoin="round" d="M38.707 38l1.328-4 1.145 3.939L38 35.565l4-.098L38.707 38z"/><g><path fill="none" stroke="#000" stroke-linecap="round" stroke-linejoin="round" stroke-width="2" d="M5 17h62v38H5z"/></g></svg>