<svg xmlns="http://www.w3.org/2000/svg" role="img" viewBox="5.84 5.84 60.19 60.19"><title>1F1E6.svg</title><circle cx="36.5" cy="36.5" r="27.5" fill="#fff"/><circle cx="36" cy="36" r="28" fill="none" stroke="#000" stroke-linejoin="round" stroke-width="2"/><path stroke="#000" stroke-linejoin="round" stroke-width="2" d="M36.9189 21.6057c-.1572-.3677-.519-.606-.9189-.606s-.7617.2383-.9189.606l-12 28c-.2178.5078.0176 1.0957.5249 1.313.5083.2188 1.0962-.0176 1.313-.5249l2.6202-6.1138h16.9216l2.6202 6.1138c.1621.3789.5312.6064.9194.6064.1313 0 .2651-.0264.3936-.0815.5073-.2173.7427-.8052.5249-1.313l-12-28zM28.3963 42.28L36 24.5383 43.6037 42.28H28.3963z"/></svg>