<svg xmlns="http://www.w3.org/2000/svg" role="img" viewBox="2.72 14.72 66.43 42.43"><title>1F1E7-1F1F2.svg</title><path fill="#d22f27" d="M5 17h62v38H5z"/><path fill="#1e50a0" d="M5 17h31v19H5z"/><path fill="#fff" d="M9.887 18H6v2.332L32.113 36H36v-2.332L9.887 18z"/><path fill="#fff" d="M36 20.332V18h-3.887L6 33.668V36h3.887L36 20.332z"/><path fill="#fff" d="M6 24h30v6H6z"/><path fill="#fff" d="M18 18h6v18h-6z"/><path fill="#d22f27" d="M20 18h2v18h-2z"/><path fill="#d22f27" d="M6 26h30v2H6zm30 7.668L29.887 30H26l10 6v-2.332zM36 18h-3.887L24 22.868V24h2l10-6zM6 20.332L12.113 24H16L6 18v2.332zM6 36h3.887L18 31.132V30h-2L6 36z"/><path fill="#fff" d="M44 29h20v17H44z"/><path fill="#5c9e31" d="M43.9133 45v.4933a3.8071 3.8071 0 0 0 .1237 1.2247 3.8582 3.8582 0 0 0 .269.6564 4.561 4.561 0 0 0 .3533.5593 4.0657 4.0657 0 0 0 .399.4567 5.2435 5.2435 0 0 0 .56.4889c.2175.16.43.3255.6594.4672.2.1233.4038.2394.6066.3575.25.1455.5135.26.7682.3929.2874.1505.592.2574.8871.388.1621.0718.3281.1354.4954.1933.112.0388.2221.0881.3348.1181.1877.05.3638.134.5536.1776.1633.0376.3182.109.482.15.1116.0279.22.07.33.1027.1142.0333.2284.0688.3449.0912.13.025.2575.0616.3836.0962s.2539.0741.3807.0974c.1951.0358.3832.0989.5786.1336.1883.0334.3758.0774.5629.1192.0781.0174.1576.02.2334.0391a4.9463 4.9463 0 0 0 .6426.1149.305.305 0 0 0 .2166-.001 1.4022 1.4022 0 0 0 .1538-.0116c.1857-.0345.37-.0805.5563-.1055.0979-.0131.1939-.0371.29-.056.1657-.0328.3306-.0736.4958-.1114.0707-.0163.1438-.0237.2122-.0452.1471-.0463.2983-.0717.4472-.1089.1281-.0321.2591-.0541.3847-.0946.1728-.0557.35-.0944.5236-.1442a3.4119 3.4119 0 0 0 .3336-.0947 4.1273 4.1273 0 0 1 .4371-.1379c.1871-.0518.3675-.1233.5534-.1782.24-.0711.4728-.172.7076-.263.1879-.0729.3772-.1417.5607-.2272q.2709-.126.5451-.2443c.24-.1031.47-.225.7015-.344a4.6368 4.6368 0 0 0 .4491-.2594c.2123-.1413.2954-.4162.4545-.62.1833-.235.395-.4463.5779-.6818a5.3028 5.3028 0 0 0 .368-.5522c.1687-.2846.3237-.5771.4785-.87l.2008-.3793.369-.6969A1.2625 1.2625 0 0 0 63.9982 45z"/><circle cx="56.25" cy="31.75" r="1" fill="#d22f27"/><circle cx="51.75" cy="31.75" r="1" fill="#d22f27"/><rect width="6" height="8" x="51" y="31" fill="#d22f27" rx="2.5" ry="2.5"/><rect width="4" height="2" x="58" y="40" fill="#d22f27" rx="1" ry="1"/><rect width="4" height="2" x="56" y="46" fill="#d22f27" rx="1" ry="1" transform="rotate(45 58 47)"/><rect width="4" height="2" x="48" y="46" fill="#d22f27" rx="1" ry="1" transform="rotate(135 50 47)"/><rect width="4" height="2" x="46" y="40" fill="#d22f27" rx="1" ry="1"/><path fill="#92d3f5" d="M60 36c-2.5714 2.3636-6 0-6 0s-3.4286 2.3636-6 0v2.3636a2.0759 2.0759 0 0 1 0 2.3637S48.8571 49 54 49s6-8.2727 6-8.2727a2.0759 2.0759 0 0 1 0-2.3637z"/><path fill="none" stroke="#000" stroke-miterlimit="10" d="M53.75 28.5H43.5v15.04s0 7.52 10.25 8.46C64 51.06 64 43.54 64 43.54V28.5z"/><g><path fill="none" stroke="#000" stroke-linecap="round" stroke-linejoin="round" stroke-width="2" d="M5 17h62v38H5z"/></g></svg>