<svg xmlns="http://www.w3.org/2000/svg" role="img" viewBox="2.72 14.72 66.43 42.43"><title>1F1E6-1F1EE.svg</title><path fill="#1e50a0" d="M5 17h62v38H5z"/><path fill="#fff" d="M59 29v5c0 9-2.6667 13-8 15-5.3333-2-8-6-8-15v-5z"/><path fill="#fff" d="M9.887 18H6v2.332L32.113 36H36v-2.332L9.887 18z"/><path fill="#fff" d="M36 20.332V18h-3.887L6 33.668V36h3.887L36 20.332z"/><path fill="#fff" d="M6 24h30v6H6z"/><path fill="#fff" d="M18 18h6v18h-6z"/><path fill="#d22f27" d="M20 18h2v18h-2z"/><path fill="#d22f27" d="M6 26h30v2H6zm30 7.668L29.887 30H26l10 6v-2.332zM36 18h-3.887L24 22.868V24h2l10-6zM6 20.332L12.113 24H16L6 18v2.332zM6 36h3.887L18 31.132V30h-2L6 36z"/><path fill="none" stroke="#f1b31c" stroke-linecap="round" stroke-linejoin="round" stroke-width="2" d="M54.5 32.5c-2.204-.506-3.5006.187-4 2m-3.9641 1.4019c.6638 2.1617 1.9122 2.9381 3.732 2.4641m3.1962 2.7321c1.54-1.6557 1.5883-3.1251.268-4.4641"/><path fill="#92d3f5" d="M44.4545 43A10.67 10.67 0 0 0 51 49a10.67 10.67 0 0 0 6.5455-6z"/><path fill="none" stroke="#fcea2b" stroke-linecap="round" stroke-linejoin="round" stroke-width="2" d="M59 29v5c0 9-2.6667 13-8 15-5.3333-2-8-6-8-15v-5z"/><g><path fill="none" stroke="#000" stroke-linecap="round" stroke-linejoin="round" stroke-width="2" d="M5 17h62v38H5z"/></g></svg>