<svg xmlns="http://www.w3.org/2000/svg" role="img" viewBox="2.85 14.98 66.17 42.17"><title>1F1E9-1F1EC.svg</title><path fill="#fff" d="M5.197 17.245h61.606v37.759H5.197z"/><path fill="#fff" d="M66.8031 44.0739a42.30816 42.30816 0 0 1-6.1606.9936c-1.5593-.0491-4.6014-1.0427-6.1606-.9936s-4.6014 1.0427-6.1606.9936-4.6013-1.0427-6.1606-.9936-4.6013 1.0427-6.1606.9936-4.6014-1.0425-6.1606-.9936-4.6014 1.0414-6.1606.9936-4.6012-1.0349-6.1606-.9936-4.6006.9936-6.1606.9936a50.51724 50.51724 0 0 1-6.1606-.9936v-1.9873a50.501 50.501 0 0 0 6.1606.9936c1.56 0 4.6011-.9525 6.1606-.9936s4.6014.9459 6.1606.9936 4.6014-.9448 6.1606-.9936 4.6013.9446 6.1606.9936 4.6013-.9446 6.1606-.9936 4.6013.9446 6.1606.9936 4.6013-.9446 6.1606-.9936 4.6013.9446 6.1606.9936a42.3353 42.3353 0 0 0 6.1606-.9936v1.9873z"/><path fill="#1e50a0" d="M66.8031 46.0612a42.30816 42.30816 0 0 1-6.1606.9936c-1.5593-.0491-4.6014-1.0427-6.1606-.9936s-4.6014 1.0427-6.1606.9936-4.6013-1.0427-6.1606-.9936-4.6013 1.0427-6.1606.9936-4.6014-1.0425-6.1606-.9936-4.6014 1.0414-6.1606.9936-4.6012-1.0349-6.1606-.9936-4.6006.9936-6.1606.9936a50.51724 50.51724 0 0 1-6.1606-.9936v-1.9873a50.501 50.501 0 0 0 6.1606.9936c1.56 0 4.6011-.9525 6.1606-.9936s4.6014.9459 6.1606.9936 4.6014-.9448 6.1606-.9936 4.6013.9446 6.1606.9936 4.6013-.9446 6.1606-.9936 4.6013.9446 6.1606.9936 4.6013-.9446 6.1606-.9936 4.6013.9446 6.1606.9936a42.3353 42.3353 0 0 0 6.1606-.9936v1.9873z"/><path fill="#fff" d="M66.8031 48.0485a42.30816 42.30816 0 0 1-6.1606.9936c-1.5593-.0491-4.6014-1.0427-6.1606-.9936s-4.6014 1.0427-6.1606.9936-4.6013-1.0427-6.1606-.9936-4.6013 1.0427-6.1606.9936-4.6014-1.0425-6.1606-.9936-4.6014 1.0414-6.1606.9936-4.6012-1.0349-6.1606-.9936-4.6006.9936-6.1606.9936a50.51724 50.51724 0 0 1-6.1606-.9936v-1.9873a50.501 50.501 0 0 0 6.1606.9936c1.56 0 4.6011-.9525 6.1606-.9936s4.6014.9459 6.1606.9936 4.6014-.9448 6.1606-.9936 4.6013.9446 6.1606.9936 4.6013-.9446 6.1606-.9936 4.6013.9446 6.1606.9936 4.6013-.9446 6.1606-.9936 4.6013.9446 6.1606.9936a42.3353 42.3353 0 0 0 6.1606-.9936v1.9873z"/><path fill="#1e50a0" d="M66.8031 50.0358a42.30816 42.30816 0 0 1-6.1606.9936c-1.5593-.0491-4.6014-1.0427-6.1606-.9936s-4.6014 1.0427-6.1606.9936-4.6013-1.0427-6.1606-.9936-4.6013 1.0427-6.1606.9936-4.6014-1.0425-6.1606-.9936-4.6014 1.0414-6.1606.9936-4.6012-1.0349-6.1606-.9936-4.6006.9936-6.1606.9936a50.51724 50.51724 0 0 1-6.1606-.9936v-1.9873a50.501 50.501 0 0 0 6.1606.9936c1.56 0 4.6011-.9525 6.1606-.9936s4.6014.9459 6.1606.9936 4.6014-.9448 6.1606-.9936 4.6013.9446 6.1606.9936 4.6013-.9446 6.1606-.9936 4.6013.9446 6.1606.9936 4.6013-.9446 6.1606-.9936 4.6013.9446 6.1606.9936a42.3353 42.3353 0 0 0 6.1606-.9936v1.9873z"/><path fill="#1e50a0" d="M66.8031 55.004s-4.6013-.9446-6.1606-.9936-4.6014.9446-6.1606.9936-4.6014-.9446-6.1606-.9936-4.6013.9446-6.1606.9936-4.6013-.9446-6.1606-.9936-4.6014.9448-6.1606.9936-4.6014-.9459-6.1606-.9936-4.6012.9524-6.1606.9936-4.6006-.9936-6.1606-.9936a50.51724 50.51724 0 0 0-6.1606.9936v-3.9746a50.501 50.501 0 0 0 6.1606.9936c1.56 0 4.6011-.9525 6.1606-.9936s4.6014.9459 6.1606.9936 4.6014-.9448 6.1606-.9936 4.6013.9446 6.1606.9936 4.6013-.9446 6.1606-.9936 4.6013.9446 6.1606.9936 4.6013-.9446 6.1606-.9936 4.6013.9446 6.1606.9936a42.3353 42.3353 0 0 0 6.1606-.9936v3.9746z"/><path fill="#fff" d="M66.8031 52.0231a42.30816 42.30816 0 0 1-6.1606.9936c-1.5593-.0491-4.6014-1.0427-6.1606-.9936s-4.6014 1.0427-6.1606.9936-4.6013-1.0427-6.1606-.9936-4.6013 1.0427-6.1606.9936-4.6014-1.0425-6.1606-.9936-4.6014 1.0414-6.1606.9936-4.6012-1.0349-6.1606-.9936-4.6006.9936-6.1606.9936a50.51724 50.51724 0 0 1-6.1606-.9936v-1.9873a50.501 50.501 0 0 0 6.1606.9936c1.56 0 4.6011-.9525 6.1606-.9936s4.6014.9459 6.1606.9936 4.6014-.9448 6.1606-.9936 4.6013.9446 6.1606.9936 4.6013-.9446 6.1606-.9936 4.6013.9446 6.1606.9936 4.6013-.9446 6.1606-.9936 4.6013.9446 6.1606.9936a42.3353 42.3353 0 0 0 6.1606-.9936v1.9873z"/><path fill="#1e50a0" d="M66.8031 38.112a42.30816 42.30816 0 0 1-6.1606.9936c-1.5593-.0491-4.6014-1.0427-6.1606-.9936s-4.6014 1.0427-6.1606.9936-4.6013-1.0427-6.1606-.9936-4.6013 1.0427-6.1606.9936-4.6014-1.0425-6.1606-.9936-4.6014 1.0414-6.1606.9936-4.6012-1.0349-6.1606-.9936-4.6006.9936-6.1606.9936a50.51724 50.51724 0 0 1-6.1606-.9936v-1.9873a50.501 50.501 0 0 0 6.1606.9936c1.56 0 4.6011-.9525 6.1606-.9936s4.6014.9459 6.1606.9936 4.6014-.9448 6.1606-.9936 4.6013.9446 6.1606.9936 4.6013-.9446 6.1606-.9936 4.6013.9446 6.1606.9936 4.6013-.9446 6.1606-.9936 4.6013.9446 6.1606.9936a42.3353 42.3353 0 0 0 6.1606-.9936v1.9873z"/><path fill="#fff" d="M66.8031 40.0993a42.30816 42.30816 0 0 1-6.1606.9936c-1.5593-.0491-4.6014-1.0427-6.1606-.9936s-4.6014 1.0427-6.1606.9936-4.6013-1.0427-6.1606-.9936-4.6013 1.0427-6.1606.9936-4.6014-1.0425-6.1606-.9936-4.6014 1.0414-6.1606.9936-4.6012-1.0349-6.1606-.9936-4.6006.9936-6.1606.9936a50.51724 50.51724 0 0 1-6.1606-.9936V38.112a50.501 50.501 0 0 0 6.1606.9936c1.56 0 4.6011-.9525 6.1606-.9936s4.6014.9459 6.1606.9936 4.6014-.9448 6.1606-.9936 4.6013.9446 6.1606.9936 4.6013-.9446 6.1606-.9936 4.6013.9446 6.1606.9936 4.6013-.9446 6.1606-.9936 4.6013.9446 6.1606.9936a42.3353 42.3353 0 0 0 6.1606-.9936v1.9873z"/><path fill="#1e50a0" d="M66.8031 42.0866a42.30816 42.30816 0 0 1-6.1606.9936c-1.5593-.0491-4.6014-1.0427-6.1606-.9936s-4.6014 1.0427-6.1606.9936-4.6013-1.0427-6.1606-.9936-4.6013 1.0427-6.1606.9936-4.6014-1.0425-6.1606-.9936-4.6014 1.0414-6.1606.9936-4.6012-1.0349-6.1606-.9936-4.6006.9936-6.1606.9936a50.51724 50.51724 0 0 1-6.1606-.9936v-1.9873a50.501 50.501 0 0 0 6.1606.9936c1.56 0 4.6011-.9525 6.1606-.9936s4.6014.9459 6.1606.9936 4.6014-.9448 6.1606-.9936 4.6013.9446 6.1606.9936 4.6013-.9446 6.1606-.9936 4.6013.9446 6.1606.9936 4.6013-.9446 6.1606-.9936 4.6013.9446 6.1606.9936a42.3353 42.3353 0 0 0 6.1606-.9936v1.9873z"/><path fill="#fff" d="M66.8031 44.0739a42.30816 42.30816 0 0 1-6.1606.9936c-1.5593-.0491-4.6014-1.0427-6.1606-.9936s-4.6014 1.0427-6.1606.9936-4.6013-1.0427-6.1606-.9936-4.6013 1.0427-6.1606.9936-4.6014-1.0425-6.1606-.9936-4.6014 1.0414-6.1606.9936-4.6012-1.0349-6.1606-.9936-4.6006.9936-6.1606.9936a50.51724 50.51724 0 0 1-6.1606-.9936v-1.9873a50.501 50.501 0 0 0 6.1606.9936c1.56 0 4.6011-.9525 6.1606-.9936s4.6014.9459 6.1606.9936 4.6014-.9448 6.1606-.9936 4.6013.9446 6.1606.9936 4.6013-.9446 6.1606-.9936 4.6013.9446 6.1606.9936 4.6013-.9446 6.1606-.9936 4.6013.9446 6.1606.9936a42.3353 42.3353 0 0 0 6.1606-.9936v1.9873z"/><path fill="#1e50a0" d="M66.8031 30.1628a42.30816 42.30816 0 0 1-6.1606.9936c-1.5593-.0491-4.6014-1.0427-6.1606-.9936s-4.6014 1.0427-6.1606.9936-4.6013-1.0427-6.1606-.9936-4.6013 1.0427-6.1606.9936-4.6014-1.0425-6.1606-.9936-4.6014 1.0414-6.1606.9936-4.6012-1.0349-6.1606-.9936-4.6006.9936-6.1606.9936a50.51724 50.51724 0 0 1-6.1606-.9936v-1.9873a50.501 50.501 0 0 0 6.1606.9936c1.56 0 4.6011-.9525 6.1606-.9936s4.6014.9459 6.1606.9936 4.6014-.9448 6.1606-.9936 4.6013.9446 6.1606.9936 4.6013-.9446 6.1606-.9936 4.6013.9446 6.1606.9936 4.6013-.9446 6.1606-.9936 4.6013.9446 6.1606.9936a42.3353 42.3353 0 0 0 6.1606-.9936v1.9873z"/><path fill="#fff" d="M66.8031 32.1501a42.30816 42.30816 0 0 1-6.1606.9936c-1.5593-.0491-4.6014-1.0427-6.1606-.9936s-4.6014 1.0427-6.1606.9936-4.6013-1.0427-6.1606-.9936-4.6013 1.0427-6.1606.9936-4.6014-1.0425-6.1606-.9936c-1.5592.0489-4.6014 1.0414-6.1606.9936s-4.6012-1.0349-6.1606-.9936-4.6006.9936-6.1606.9936a50.51724 50.51724 0 0 1-6.1606-.9936v-1.9873a50.501 50.501 0 0 0 6.1606.9936c1.56 0 4.6011-.9525 6.1606-.9936s4.6014.9459 6.1606.9936 4.6014-.9448 6.1606-.9936 4.6013.9446 6.1606.9936 4.6013-.9446 6.1606-.9936 4.6013.9446 6.1606.9936 4.6013-.9446 6.1606-.9936 4.6013.9446 6.1606.9936a42.3353 42.3353 0 0 0 6.1606-.9936v1.9873z"/><path fill="#1e50a0" d="M66.8031 34.1374a42.30816 42.30816 0 0 1-6.1606.9936c-1.5593-.0491-4.6014-1.0427-6.1606-.9936s-4.6014 1.0427-6.1606.9936-4.6013-1.0427-6.1606-.9936-4.6013 1.0427-6.1606.9936-4.6014-1.0425-6.1606-.9936-4.6014 1.0414-6.1606.9936-4.6012-1.0349-6.1606-.9936-4.6006.9936-6.1606.9936a50.51724 50.51724 0 0 1-6.1606-.9936v-1.9873a50.501 50.501 0 0 0 6.1606.9936c1.56 0 4.6011-.9525 6.1606-.9936s4.6014.9459 6.1606.9936 4.6014-.9448 6.1606-.9936 4.6013.9446 6.1606.9936 4.6013-.9446 6.1606-.9936 4.6013.9446 6.1606.9936 4.6013-.9446 6.1606-.9936 4.6013.9446 6.1606.9936a42.3353 42.3353 0 0 0 6.1606-.9936v1.9873z"/><path fill="#fff" d="M66.8031 36.1247a42.30816 42.30816 0 0 1-6.1606.9936c-1.5593-.0491-4.6014-1.0427-6.1606-.9936s-4.6014 1.0427-6.1606.9936-4.6013-1.0427-6.1606-.9936-4.6013 1.0427-6.1606.9936-4.6014-1.0425-6.1606-.9936-4.6014 1.0414-6.1606.9936-4.6012-1.0349-6.1606-.9936-4.6006.9936-6.1606.9936a50.51724 50.51724 0 0 1-6.1606-.9936v-1.9873a50.501 50.501 0 0 0 6.1606.9936c1.56 0 4.6011-.9525 6.1606-.9936s4.6014.9459 6.1606.9936 4.6014-.9448 6.1606-.9936 4.6013.9446 6.1606.9936 4.6013-.9446 6.1606-.9936 4.6013.9446 6.1606.9936 4.6013-.9446 6.1606-.9936 4.6013.9446 6.1606.9936a42.3353 42.3353 0 0 0 6.1606-.9936v1.9873z"/><path fill="#1e50a0" d="M66.8031 22.2136a42.30816 42.30816 0 0 1-6.1606.9936c-1.5593-.0491-4.6014-1.0427-6.1606-.9936s-4.6014 1.0427-6.1606.9936-4.6013-1.0427-6.1606-.9936-4.6013 1.0427-6.1606.9936-4.6014-1.0425-6.1606-.9936-4.6014 1.0414-6.1606.9936-4.6012-1.0349-6.1606-.9936-4.6006.9936-6.1606.9936a50.51724 50.51724 0 0 1-6.1606-.9936v-1.9873a50.501 50.501 0 0 0 6.1606.9936c1.56 0 4.6011-.9525 6.1606-.9936s4.6014.9459 6.1606.9936 4.6014-.9448 6.1606-.9936 4.6013.9446 6.1606.9936 4.6013-.9446 6.1606-.9936 4.6013.9446 6.1606.9936 4.6013-.9446 6.1606-.9936 4.6013.9446 6.1606.9936a42.3353 42.3353 0 0 0 6.1606-.9936v1.9873z"/><path fill="#fff" d="M66.8031 24.2009a42.30816 42.30816 0 0 1-6.1606.9936c-1.5593-.0491-4.6014-1.0427-6.1606-.9936s-4.6014 1.0427-6.1606.9936-4.6013-1.0427-6.1606-.9936-4.6013 1.0427-6.1606.9936-4.6014-1.0425-6.1606-.9936-4.6014 1.0414-6.1606.9936-4.6012-1.0349-6.1606-.9936-4.6006.9936-6.1606.9936a50.51724 50.51724 0 0 1-6.1606-.9936v-1.9873a50.501 50.501 0 0 0 6.1606.9936c1.56 0 4.6011-.9525 6.1606-.9936s4.6014.9459 6.1606.9936 4.6014-.9448 6.1606-.9936 4.6013.9446 6.1606.9936 4.6013-.9446 6.1606-.9936 4.6013.9446 6.1606.9936 4.6013-.9446 6.1606-.9936 4.6013.9446 6.1606.9936a42.3353 42.3353 0 0 0 6.1606-.9936v1.9873z"/><path fill="#1e50a0" d="M66.8031 18.571c-2.0263.3215-4.0854.5428-6.1606.6622-1.5593-.0327-4.6014-.695-6.1606-.6622s-4.6014.695-6.1606.6622-4.6013-.695-6.1606-.6622-4.6013.695-6.1606.6622-4.6014-.6948-6.1606-.6622-4.6014.6941-6.1606.6622-4.6012-.6897-6.1606-.6622-4.6006.6622-6.1606.6622c-2.0721-.1359-4.1295-.3571-6.1606-.6622v-1.3245c2.0311.3052 4.0886.5263 6.1606.6622 1.56 0 4.6011-.6348 6.1606-.6622s4.6014.6304 6.1606.6622 4.6014-.6297 6.1606-.6622 4.6013.6295 6.1606.6622 4.6013-.6295 6.1606-.6622 4.6013.6295 6.1606.6622 4.6013-.6295 6.1606-.6622 4.6013.6295 6.1606.6622c2.0752-.1194 4.1343-.3407 6.1606-.6622v1.3245z"/><path fill="#fff" d="M66.8031 20.2263a42.30816 42.30816 0 0 1-6.1606.9936c-1.5593-.0491-4.6014-1.0427-6.1606-.9936s-4.6014 1.0427-6.1606.9936-4.6013-1.0427-6.1606-.9936-4.6013 1.0427-6.1606.9936-4.6014-1.0425-6.1606-.9936-4.6014 1.0414-6.1606.9936-4.6012-1.0349-6.1606-.9936-4.6006.9936-6.1606.9936a50.51724 50.51724 0 0 1-6.1606-.9936V18.239a50.501 50.501 0 0 0 6.1606.9936c1.56 0 4.6011-.9525 6.1606-.9936s4.6014.9459 6.1606.9936 4.6014-.9448 6.1606-.9936 4.6013.9446 6.1606.9936 4.6013-.9446 6.1606-.9936 4.6013.9446 6.1606.9936 4.6013-.9446 6.1606-.9936 4.6013.9446 6.1606.9936a42.3353 42.3353 0 0 0 6.1606-.9936v1.9873z"/><path fill="#1e50a0" d="M66.8031 26.1882a42.30816 42.30816 0 0 1-6.1606.9936c-1.5593-.0491-4.6014-1.0427-6.1606-.9936s-4.6014 1.0427-6.1606.9936-4.6013-1.0427-6.1606-.9936-4.6013 1.0427-6.1606.9936-4.6014-1.0425-6.1606-.9936-4.6014 1.0414-6.1606.9936-4.6012-1.0349-6.1606-.9936-4.6006.9936-6.1606.9936a50.51724 50.51724 0 0 1-6.1606-.9936v-1.9873a50.501 50.501 0 0 0 6.1606.9936c1.56 0 4.6011-.9525 6.1606-.9936s4.6014.9459 6.1606.9936 4.6014-.9448 6.1606-.9936 4.6013.9446 6.1606.9936 4.6013-.9446 6.1606-.9936 4.6013.9446 6.1606.9936 4.6013-.9446 6.1606-.9936 4.6013.9446 6.1606.9936a42.3353 42.3353 0 0 0 6.1606-.9936v1.9873z"/><path fill="#fff" d="M66.8031 28.1755a42.30816 42.30816 0 0 1-6.1606.9936c-1.5593-.0491-4.6014-1.0427-6.1606-.9936s-4.6014 1.0427-6.1606.9936-4.6013-1.0427-6.1606-.9936-4.6013 1.0427-6.1606.9936-4.6014-1.0425-6.1606-.9936-4.6014 1.0414-6.1606.9936-4.6012-1.0349-6.1606-.9936-4.6006.9936-6.1606.9936a50.51724 50.51724 0 0 1-6.1606-.9936v-1.9873a50.501 50.501 0 0 0 6.1606.9936c1.56 0 4.6011-.9525 6.1606-.9936s4.6014.9459 6.1606.9936 4.6014-.9448 6.1606-.9936 4.6013.9446 6.1606.9936 4.6013-.9446 6.1606-.9936 4.6013.9446 6.1606.9936 4.6013-.9446 6.1606-.9936 4.6013.9446 6.1606.9936a42.3353 42.3353 0 0 0 6.1606-.9936v1.9873z"/><path fill="#1e50a0" d="M5.197 17.245H36v18.879H5.197z"/><path fill="#fff" d="M10.053 18.239H6.191v2.317l25.947 15.569H36v-2.318L10.053 18.239z"/><path fill="#fff" d="M36 20.556v-2.317h-3.862L6.191 33.807v2.318h3.862L36 20.556z"/><path fill="#fff" d="M6.191 24.201H36v5.962H6.191z"/><path fill="#fff" d="M18.114 18.239h5.962v17.886h-5.962z"/><path fill="#d22f27" d="M20.102 18.239h1.987v17.886h-1.987z"/><path fill="#d22f27" d="M6.191 26.188H36v1.987H6.191zM36 33.807l-6.074-3.644h-3.862L36 36.125v-2.318zm0-15.568h-3.862l-8.062 4.837v1.125h1.988L36 18.239zM6.191 20.556l6.074 3.645h3.862l-9.936-5.962v2.317zm0 15.569h3.862l8.061-4.837v-1.125h-1.987l-9.936 5.962z"/><g><path fill="none" stroke="#000" stroke-linecap="round" stroke-linejoin="round" stroke-width="1.987" d="M5.197 17.245h61.606v37.759H5.197z"/></g></svg>