<svg xmlns="http://www.w3.org/2000/svg" role="img" viewBox="2.72 14.72 66.43 42.43"><title>1F1E7-1F1F4.svg</title><path fill="#f1b31c" d="M5 17h62v38H5z"/><path fill="#5c9e31" d="M5 42h62v13H5z"/><path fill="#d22f27" d="M5 17h62v13H5z"/><ellipse cx="38.5" cy="33.2" rx="2.2" ry="1.2" transform="rotate(-45 38.5 33.2)"/><ellipse cx="34.5" cy="33.2" rx="1.2" ry="2.2" transform="rotate(-45 34.5 33.2)"/><ellipse cx="36.5" cy="36.867" fill="#61b2e4" rx="2" ry="3.133"/><path fill="#d22f27" d="M40 41a1 1 0 0 1-.707-1.707 1.725 1.725 0 0 0-.0059-2.5918 1 1 0 0 1 1.42-1.4082 3.7206 3.7206 0 0 1 0 5.414A.9967.9967 0 0 1 40 41zm-7.1113 0a.9971.9971 0 0 1-.7071-.293 3.7208 3.7208 0 0 1 0-5.414 1 1 0 0 1 1.419 1.41 1.7242 1.7242 0 0 0-.0049 2.59 1 1 0 0 1-.707 1.707z"/><g><path fill="none" stroke="#000" stroke-linecap="round" stroke-linejoin="round" stroke-width="2" d="M5 17h62v38H5z"/></g></svg>