<svg xmlns="http://www.w3.org/2000/svg" role="img" viewBox="2.72 14.72 66.43 42.43"><title>1F1E6-1F1EB.svg</title><path fill="#d22f27" d="M5 17h62v38H5z"/><path d="M5 17h21v38H5z"/><path fill="#5c9e31" d="M46 17h21v38H46z"/><path fill="#fff" stroke-width=".845" d="M36 48.88a12.89 12.89 0 0 1-9.111-22 .845.845 0 0 1 1.195 1.195 11.2 11.2 0 1 0 15.83 0 .845.845 0 1 1 1.195-1.195 12.89 12.89 0 0 1-9.111 22z"/><path fill="#fff" stroke-width=".86" d="M39.38 34.52h-6.76a.845.875 0 0 1 0-1.75h6.76a.845.875 0 0 1 0 1.75z"/><circle cx="36" cy="30.3" r="1.69" fill="#fff" stroke-width=".845"/><path fill="#fff" stroke-width=".86" d="M41.07 44.76H30.93a.845.875 0 0 1 0-1.75h10.14a.845.875 0 0 1 0 1.75z"/><path stroke="#fff" stroke-linecap="round" stroke-linejoin="round" stroke-width="1.775" d="M32.58 28.68v15.07"/><path stroke="#fff" stroke-linecap="round" stroke-linejoin="round" stroke-width="1.766" d="M39.4 28.67v14.91"/><path fill="#fff" fill-rule="evenodd" stroke="#fff" stroke-linecap="round" stroke-linejoin="round" stroke-width=".771" d="M27.46134 37.65556l2.0805-3.60353 1.3917.8035-2.0805 3.60353z"/><path fill="#fff" fill-rule="evenodd" stroke="#fff" stroke-linecap="round" stroke-linejoin="round" stroke-width=".771" d="M42.464 34.0498l2.0805 3.60354-1.3917.8035-2.0805-3.60353z"/><g><path fill="none" stroke="#000" stroke-linecap="round" stroke-linejoin="round" stroke-width="2" d="M5 17h62v38H5z"/></g></svg>