<svg xmlns="http://www.w3.org/2000/svg" role="img" viewBox="2.72 14.72 66.43 42.43"><title>1F1EC-1F1E9.svg</title><path fill="#fcea2b" d="M5 17h62v38H5z"/><path fill="#5c9e31" d="M12 48l24-12-24-12v24zm48 0L36 36l24-12v24z"/><circle cx="36" cy="36" r="5" fill="#d22f27"/><path fill="#fcea2b" stroke="#fcea2b" stroke-linecap="round" stroke-linejoin="round" d="M36 33.5l1.545 5-4.045-3.09h5l-4.045 3.09 1.545-5z"/><path fill="#d22f27" d="M5 17v38h62V17zm55 31H12V24h48z"/><path fill="#fcea2b" stroke="#fcea2b" stroke-linecap="round" stroke-linejoin="round" d="M35.105 22.242l.919-2.695.792 2.653-2.2-1.598 2.768-.067-2.279 1.707zm10 0l.919-2.695.792 2.653-2.2-1.598 2.768-.067-2.279 1.707zm-20 0l.919-2.695.792 2.653-2.2-1.598 2.768-.067-2.279 1.707zm10 30l.919-2.695.792 2.653-2.2-1.598 2.768-.067-2.279 1.707zm10 0l.919-2.695.792 2.653-2.2-1.598 2.768-.067-2.279 1.707zm-20 0l.919-2.695.792 2.653-2.2-1.598 2.768-.067-2.279 1.707z"/><g stroke-linecap="round" stroke-linejoin="round"><path fill="#fcea2b" stroke="#fcea2b" d="M18.6308 37.9167a6.7812 6.7812 0 0 0-1.258-2.6215 6.7812 6.7812 0 0 0 2.6215 1.258 1.7666 1.7666 0 0 0-1.5618-2.1251c-.0249-.0023-.05-.0017-.0749-.003l.0025-.0022h-.0623c-.0284-.0005-.0566-.0012-.0849 0a5.7735 5.7735 0 0 1-2.09-.3772 5.7764 5.7764 0 0 1 .3771 2.0977c-.0008.0321-.0006.0642 0 .0963v.0428l.0018-.0021a1.7633 1.7633 0 0 0 2.1285 1.6363z"/><path fill="#d22f27" stroke="#d22f27" d="M18.8014 36.2773a1.77 1.77 0 0 1 .4464.8929 1.5782 1.5782 0 0 1-1.3393-1.3393 1.77 1.77 0 0 1 .8929.4464z"/></g><g><path fill="none" stroke="#000" stroke-linecap="round" stroke-linejoin="round" stroke-width="2" d="M5 17h62v38H5z"/></g></svg>