<svg xmlns="http://www.w3.org/2000/svg" role="img" viewBox="2.72 14.72 66.43 42.43"><title>1F1EA-1F1F8.svg</title><path fill="#f1b31c" d="M5 17h62v38H5z"/><path fill="#d22f27" d="M23 33v7a2.0059 2.0059 0 0 1-2 2h-4a2.0059 2.0059 0 0 1-2-2v-7M5 17h62v9H5zm0 29h62v9H5z"/><path fill="#f1b31c" d="M19 33h4v4h-4z"/><circle cx="19" cy="37" r="1.5" fill="#6a462f"/><path d="M27 33v9m-16-9v9m4-12a8.5678 8.5678 0 0 1 4-1m4 1a8.5678 8.5678 0 0 0-4-1m-4 4h8m0 0v7a2.0059 2.0059 0 0 1-2 2h-4a2.0059 2.0059 0 0 1-2-2v-7m-5 9h2m14 0h2" fill="none" stroke="#6a462f" stroke-linecap="round" stroke-linejoin="round" stroke-width="2"/><g><path fill="none" stroke="#000" stroke-linecap="round" stroke-linejoin="round" stroke-width="2" d="M5 17h62v38H5z"/></g></svg>