<svg xmlns="http://www.w3.org/2000/svg" role="img" viewBox="2.72 14.72 66.43 42.43"><title>1F1E9-1F1F2.svg</title><path fill="#186648" d="M5 17h62v38H5z"/><path fill="#fff" stroke-width="2" d="M38 17h4v38h-4z"/><path d="M5 34h62v4H5z"/><path fill="#fff" stroke-width="2" d="M5 38h62v4H5z"/><path fill="#fcea2b" d="M5 30h62v4H5z"/><path d="M34 17h4v38h-4z"/><path fill="#fcea2b" d="M30 17h4v38h-4z"/><circle cx="36" cy="36" r="13" fill="#d22f27"/><path d="M36.3668 34.9556a5.1 5.1 0 0 0 2.9144 3.5044.2572.2572 0 0 0 .3528-.1087.1829.1829 0 0 0-.0858-.2935 4.81 4.81 0 0 1-2.6927-3.1408.2261.2261 0 0 0-.2408-.1658.2317.2317 0 0 0-.2479.2044z"/><path fill="#8967aa" d="M38.76838 36.93089l-.04049-.07964c-.35042-.7003-.90086-1.24749-1.2795-1.92138-.3688-.65651.52363-1.40207 1.1527-1.76667.7351-.42582.5404-1.88368.18576-2.4322l-1.54162-1.9355s-.81115-1.15846-3.56853.20109c0 0-3.53924.85673-3.84606 1.5378 0 0 2.68344-.73296 2.95442.52094.27098 1.2539-1.4041 1.6992.24158 4.6899 0 0 1.39113 2.96867 3.11498 3.44688a6.2 6.2 0 0 1 2.54215.42307c-.22207-.588.1713-2.0633.08461-2.6843z"/><path d="M36.54606 40.35307a.76875.76875 0 0 1-.0716-.01608c-1.88033-.52194-3.87276-3.83577-4.09351-4.21181-1.15673-2.19319-.67745-3.0582-.0887-3.7585.19068-.22674.18909-.23443.17124-.3244-.0715-.3086-1.4658-.82568-2.94732-.97186a.7645.7645 0 0 1-.57536-.37013.7471.7471 0 0 1-.03515-.6835c.12594-.2812.4588-1.02184 5.18372-1.90885a3.1158 3.1158 0 0 1 3.03469-.71631c1.63221.6299 2.05676 2.90519 2.09999 3.1622a.75.75 0 0 1-1.47887.24938c-.07498-.43513-.44983-1.73974-1.16317-2.01326-.52147-.20304-1.22109.22132-1.71415.61102a.7464.7464 0 0 1-.32873.14878c-.81176.14991-1.69828.34656-2.46214.54554a2.5786 2.5786 0 0 1 1.85925 1.65967 1.7587 1.7587 0 0 1-.49626 1.57688c-.27606.32866-.51416.61242.25086 2.06422.75332 1.27864 2.25713 3.23855 3.18538 3.49625a.75.75 0 0 1-.33 1.4615zm-6.35924-9.5928z"/><path fill="#186648" d="M36.06444 37.75477c-.30154-2.4506 1.41502-5.90865 3.02075-4.27683 1.60573 1.63183.73659 11.19854.73659 11.19854s-3.45582-4.47102-3.75734-6.92171z"/><path d="M39.8924 45.38856a.75.75 0 0 1-.44788-.26043c-.38178-.4614-3.7451-4.58519-4.14907-7.15335l.00008-.0005c-.3017-1.92158.46378-4.6492 1.94018-5.4242a1.8249 1.8249 0 0 1 2.19332.38878c1.81922 1.72887 1.43697 10.09428 1.34263 11.75401a.75.75 0 0 1-.87926.6957zm-3.11591-7.64725c.19956 1.26385 1.48304 3.28646 2.5771 4.80369.08008-3.8904-.22085-7.81874-.95808-8.5194-.26316-.2507-.37794-.19062-.4628-.1476-.69501.36485-1.39472 2.34229-1.15524 3.86348z"/><circle cx="36" cy="25" r="1" fill="#186648"/><circle cx="50.285" cy="-3.036" r="1" fill="#186648" transform="rotate(36)"/><circle cx="45.363" cy="-34.113" r="1" fill="#186648" transform="rotate(72)"/><circle cx="23.113" cy="-56.363" r="1" fill="#186648" transform="rotate(108)"/><circle cx="-7.964" cy="-61.285" r="1" fill="#186648" transform="rotate(144)"/><circle cx="-36" cy="-47" r="1" fill="#186648" transform="scale(-1)"/><circle cx="-50.285" cy="-18.964" r="1" fill="#186648" transform="rotate(-144)"/><circle cx="-45.363" cy="12.113" r="1" fill="#186648" transform="rotate(-108)"/><circle cx="-23.113" cy="34.363" r="1" fill="#186648" transform="rotate(-72)"/><circle cx="7.964" cy="39.285" r="1" fill="#186648" transform="rotate(-36)"/><g><path fill="none" stroke="#000" stroke-linecap="round" stroke-linejoin="round" stroke-width="2" d="M5 17h62v38H5z"/></g></svg>