<svg xmlns="http://www.w3.org/2000/svg" role="img" viewBox="2.72 14.72 66.43 42.43"><title>1F1EE-1F1F4.svg</title><path fill="#fff" d="M5 17h62v38H5z"/><path fill="#fff" d="M67 44a42.5886 42.5886 0 0 1-6.2 1c-1.5693-.0494-4.6308-1.0494-6.2-1s-4.6308 1.0494-6.2 1-4.6307-1.0494-6.2-1-4.6307 1.0494-6.2 1-4.6308-1.0492-6.2-1-4.6308 1.0481-6.2 1-4.6306-1.0415-6.2-1-4.63 1-6.2 1A50.8361 50.8361 0 0 1 5 44v-2a50.8361 50.8361 0 0 0 6.2 1c1.57 0 4.6305-.9586 6.2-1s4.6308.9519 6.2 1 4.6308-.9508 6.2-1 4.6307.9506 6.2 1 4.6307-.9506 6.2-1 4.6307.9506 6.2 1 4.6307-.9506 6.2-1 4.6307.9506 6.2 1a42.5886 42.5886 0 0 0 6.2-1z"/><path fill="#1e50a0" d="M67 46a42.5886 42.5886 0 0 1-6.2 1c-1.5693-.0494-4.6308-1.0494-6.2-1s-4.6308 1.0494-6.2 1-4.6307-1.0494-6.2-1-4.6307 1.0494-6.2 1-4.6308-1.0492-6.2-1-4.6308 1.0481-6.2 1-4.6306-1.0415-6.2-1-4.63 1-6.2 1A50.8361 50.8361 0 0 1 5 46v-2a50.8361 50.8361 0 0 0 6.2 1c1.57 0 4.6305-.9586 6.2-1s4.6308.9519 6.2 1 4.6308-.9508 6.2-1 4.6307.9506 6.2 1 4.6307-.9506 6.2-1 4.6307.9506 6.2 1 4.6307-.9506 6.2-1 4.6307.9506 6.2 1a42.5886 42.5886 0 0 0 6.2-1z"/><path fill="#fff" d="M67 48a42.5886 42.5886 0 0 1-6.2 1c-1.5693-.0494-4.6308-1.0494-6.2-1s-4.6308 1.0494-6.2 1-4.6307-1.0494-6.2-1-4.6307 1.0494-6.2 1-4.6308-1.0492-6.2-1-4.6308 1.0481-6.2 1-4.6306-1.0415-6.2-1-4.63 1-6.2 1A50.8361 50.8361 0 0 1 5 48v-2a50.8361 50.8361 0 0 0 6.2 1c1.57 0 4.6305-.9586 6.2-1s4.6308.9519 6.2 1 4.6308-.9508 6.2-1 4.6307.9506 6.2 1 4.6307-.9506 6.2-1 4.6307.9506 6.2 1 4.6307-.9506 6.2-1 4.6307.9506 6.2 1a42.5886 42.5886 0 0 0 6.2-1z"/><path fill="#1e50a0" d="M67 50a42.5886 42.5886 0 0 1-6.2 1c-1.5693-.0494-4.6308-1.0494-6.2-1s-4.6308 1.0494-6.2 1-4.6307-1.0494-6.2-1-4.6307 1.0494-6.2 1-4.6308-1.0492-6.2-1-4.6308 1.0481-6.2 1-4.6306-1.0415-6.2-1-4.63 1-6.2 1A50.8361 50.8361 0 0 1 5 50v-2a50.8361 50.8361 0 0 0 6.2 1c1.57 0 4.6305-.9586 6.2-1s4.6308.9519 6.2 1 4.6308-.9508 6.2-1 4.6307.9506 6.2 1 4.6307-.9506 6.2-1 4.6307.9506 6.2 1 4.6307-.9506 6.2-1 4.6307.9506 6.2 1a42.5886 42.5886 0 0 0 6.2-1z"/><path fill="#1e50a0" d="M67 55s-4.6307-.9506-6.2-1-4.6308.9506-6.2 1-4.6308-.9506-6.2-1-4.6307.9506-6.2 1-4.6307-.9506-6.2-1-4.6308.9508-6.2 1-4.6308-.9519-6.2-1-4.6306.9585-6.2 1-4.63-1-6.2-1A50.8361 50.8361 0 0 0 5 55v-4a50.8361 50.8361 0 0 0 6.2 1c1.57 0 4.6305-.9586 6.2-1s4.6308.9519 6.2 1 4.6308-.9508 6.2-1 4.6307.9506 6.2 1 4.6307-.9506 6.2-1 4.6307.9506 6.2 1 4.6307-.9506 6.2-1 4.6307.9506 6.2 1a42.5886 42.5886 0 0 0 6.2-1z"/><path fill="#fff" d="M67 52a42.5886 42.5886 0 0 1-6.2 1c-1.5693-.0494-4.6308-1.0494-6.2-1s-4.6308 1.0494-6.2 1-4.6307-1.0494-6.2-1-4.6307 1.0494-6.2 1-4.6308-1.0492-6.2-1-4.6308 1.0481-6.2 1-4.6306-1.0415-6.2-1-4.63 1-6.2 1A50.8361 50.8361 0 0 1 5 52v-2a50.8361 50.8361 0 0 0 6.2 1c1.57 0 4.6305-.9586 6.2-1s4.6308.9519 6.2 1 4.6308-.9508 6.2-1 4.6307.9506 6.2 1 4.6307-.9506 6.2-1 4.6307.9506 6.2 1 4.6307-.9506 6.2-1 4.6307.9506 6.2 1a42.5886 42.5886 0 0 0 6.2-1z"/><path fill="#1e50a0" d="M67 38a42.5886 42.5886 0 0 1-6.2 1c-1.5693-.0494-4.6308-1.0494-6.2-1s-4.6308 1.0494-6.2 1-4.6307-1.0494-6.2-1-4.6307 1.0494-6.2 1-4.6308-1.0492-6.2-1-4.6308 1.0481-6.2 1-4.6306-1.0415-6.2-1-4.63 1-6.2 1A50.8361 50.8361 0 0 1 5 38v-2a50.8361 50.8361 0 0 0 6.2 1c1.57 0 4.6305-.9586 6.2-1s4.6308.9519 6.2 1 4.6308-.9508 6.2-1 4.6307.9506 6.2 1 4.6307-.9506 6.2-1 4.6307.9506 6.2 1 4.6307-.9506 6.2-1 4.6307.9506 6.2 1a42.5886 42.5886 0 0 0 6.2-1z"/><path fill="#fff" d="M67 40a42.5886 42.5886 0 0 1-6.2 1c-1.5693-.0494-4.6308-1.0494-6.2-1s-4.6308 1.0494-6.2 1-4.6307-1.0494-6.2-1-4.6307 1.0494-6.2 1-4.6308-1.0492-6.2-1-4.6308 1.0481-6.2 1-4.6306-1.0415-6.2-1-4.63 1-6.2 1A50.8361 50.8361 0 0 1 5 40v-2a50.8361 50.8361 0 0 0 6.2 1c1.57 0 4.6305-.9586 6.2-1s4.6308.9519 6.2 1 4.6308-.9508 6.2-1 4.6307.9506 6.2 1 4.6307-.9506 6.2-1 4.6307.9506 6.2 1 4.6307-.9506 6.2-1 4.6307.9506 6.2 1a42.5886 42.5886 0 0 0 6.2-1z"/><path fill="#1e50a0" d="M67 42a42.5886 42.5886 0 0 1-6.2 1c-1.5693-.0494-4.6308-1.0494-6.2-1s-4.6308 1.0494-6.2 1-4.6307-1.0494-6.2-1-4.6307 1.0494-6.2 1-4.6308-1.0492-6.2-1-4.6308 1.0481-6.2 1-4.6306-1.0415-6.2-1-4.63 1-6.2 1A50.8361 50.8361 0 0 1 5 42v-2a50.8361 50.8361 0 0 0 6.2 1c1.57 0 4.6305-.9586 6.2-1s4.6308.9519 6.2 1 4.6308-.9508 6.2-1 4.6307.9506 6.2 1 4.6307-.9506 6.2-1 4.6307.9506 6.2 1 4.6307-.9506 6.2-1 4.6307.9506 6.2 1a42.5886 42.5886 0 0 0 6.2-1z"/><path fill="#fff" d="M67 44a42.5886 42.5886 0 0 1-6.2 1c-1.5693-.0494-4.6308-1.0494-6.2-1s-4.6308 1.0494-6.2 1-4.6307-1.0494-6.2-1-4.6307 1.0494-6.2 1-4.6308-1.0492-6.2-1-4.6308 1.0481-6.2 1-4.6306-1.0415-6.2-1-4.63 1-6.2 1A50.8361 50.8361 0 0 1 5 44v-2a50.8361 50.8361 0 0 0 6.2 1c1.57 0 4.6305-.9586 6.2-1s4.6308.9519 6.2 1 4.6308-.9508 6.2-1 4.6307.9506 6.2 1 4.6307-.9506 6.2-1 4.6307.9506 6.2 1 4.6307-.9506 6.2-1 4.6307.9506 6.2 1a42.5886 42.5886 0 0 0 6.2-1z"/><path fill="#1e50a0" d="M67 30a42.5886 42.5886 0 0 1-6.2 1c-1.5693-.0494-4.6308-1.0494-6.2-1s-4.6308 1.0494-6.2 1-4.6307-1.0494-6.2-1-4.6307 1.0494-6.2 1-4.6308-1.0492-6.2-1-4.6308 1.0481-6.2 1-4.6306-1.0415-6.2-1-4.63 1-6.2 1A50.8361 50.8361 0 0 1 5 30v-2a50.8361 50.8361 0 0 0 6.2 1c1.57 0 4.6305-.9586 6.2-1s4.6308.9519 6.2 1 4.6308-.9508 6.2-1 4.6307.9506 6.2 1 4.6307-.9506 6.2-1 4.6307.9506 6.2 1 4.6307-.9506 6.2-1 4.6307.9506 6.2 1a42.5886 42.5886 0 0 0 6.2-1z"/><path fill="#fff" d="M67 32a42.5886 42.5886 0 0 1-6.2 1c-1.5693-.0494-4.6308-1.0494-6.2-1s-4.6308 1.0494-6.2 1-4.6307-1.0494-6.2-1-4.6307 1.0494-6.2 1-4.6308-1.0492-6.2-1-4.6308 1.0481-6.2 1-4.6306-1.0415-6.2-1-4.63 1-6.2 1A50.8361 50.8361 0 0 1 5 32v-2a50.8361 50.8361 0 0 0 6.2 1c1.57 0 4.6305-.9586 6.2-1s4.6308.9519 6.2 1 4.6308-.9508 6.2-1 4.6307.9506 6.2 1 4.6307-.9506 6.2-1 4.6307.9506 6.2 1 4.6307-.9506 6.2-1 4.6307.9506 6.2 1a42.5886 42.5886 0 0 0 6.2-1z"/><path fill="#1e50a0" d="M67 34a42.5886 42.5886 0 0 1-6.2 1c-1.5693-.0494-4.6308-1.0494-6.2-1s-4.6308 1.0494-6.2 1-4.6307-1.0494-6.2-1-4.6307 1.0494-6.2 1-4.6308-1.0492-6.2-1-4.6308 1.0481-6.2 1-4.6306-1.0415-6.2-1-4.63 1-6.2 1A50.8361 50.8361 0 0 1 5 34v-2a50.8361 50.8361 0 0 0 6.2 1c1.57 0 4.6305-.9586 6.2-1s4.6308.9519 6.2 1 4.6308-.9508 6.2-1 4.6307.9506 6.2 1 4.6307-.9506 6.2-1 4.6307.9506 6.2 1 4.6307-.9506 6.2-1 4.6307.9506 6.2 1a42.5886 42.5886 0 0 0 6.2-1z"/><path fill="#fff" d="M67 36a42.5886 42.5886 0 0 1-6.2 1c-1.5693-.0494-4.6308-1.0494-6.2-1s-4.6308 1.0494-6.2 1-4.6307-1.0494-6.2-1-4.6307 1.0494-6.2 1-4.6308-1.0492-6.2-1-4.6308 1.0481-6.2 1-4.6306-1.0415-6.2-1-4.63 1-6.2 1A50.8361 50.8361 0 0 1 5 36v-2a50.8361 50.8361 0 0 0 6.2 1c1.57 0 4.6305-.9586 6.2-1s4.6308.9519 6.2 1 4.6308-.9508 6.2-1 4.6307.9506 6.2 1 4.6307-.9506 6.2-1 4.6307.9506 6.2 1 4.6307-.9506 6.2-1 4.6307.9506 6.2 1a42.5886 42.5886 0 0 0 6.2-1z"/><path fill="#1e50a0" d="M67 22a42.5886 42.5886 0 0 1-6.2 1c-1.5693-.0494-4.6308-1.0494-6.2-1s-4.6308 1.0494-6.2 1-4.6307-1.0494-6.2-1-4.6307 1.0494-6.2 1-4.6308-1.0492-6.2-1-4.6308 1.0481-6.2 1-4.6306-1.0415-6.2-1-4.63 1-6.2 1A50.8361 50.8361 0 0 1 5 22v-2a50.8361 50.8361 0 0 0 6.2 1c1.57 0 4.6305-.9586 6.2-1s4.6308.9519 6.2 1 4.6308-.9508 6.2-1 4.6307.9506 6.2 1 4.6307-.9506 6.2-1 4.6307.9506 6.2 1 4.6307-.9506 6.2-1 4.6307.9506 6.2 1a42.5886 42.5886 0 0 0 6.2-1z"/><path fill="#fff" d="M67 24a42.5886 42.5886 0 0 1-6.2 1c-1.5693-.0494-4.6308-1.0494-6.2-1s-4.6308 1.0494-6.2 1-4.6307-1.0494-6.2-1-4.6307 1.0494-6.2 1-4.6308-1.0492-6.2-1-4.6308 1.0481-6.2 1-4.6306-1.0415-6.2-1-4.63 1-6.2 1A50.8361 50.8361 0 0 1 5 24v-2a50.8361 50.8361 0 0 0 6.2 1c1.57 0 4.6305-.9586 6.2-1s4.6308.9519 6.2 1 4.6308-.9508 6.2-1 4.6307.9506 6.2 1 4.6307-.9506 6.2-1 4.6307.9506 6.2 1 4.6307-.9506 6.2-1 4.6307.9506 6.2 1a42.5886 42.5886 0 0 0 6.2-1z"/><path fill="#1e50a0" d="M67 18a42.5886 42.5886 0 0 1-6.2 1c-1.5693-.0494-4.6308-1.0494-6.2-1s-4.6308 1.0494-6.2 1-4.6307-1.0494-6.2-1-4.6307 1.0494-6.2 1-4.6308-1.0492-6.2-1-4.6308 1.0481-6.2 1-4.6306-1.0415-6.2-1-4.63 1-6.2 1A50.8361 50.8361 0 0 1 5 18v-2a50.8361 50.8361 0 0 0 6.2 1c1.57 0 4.6305-.9586 6.2-1s4.6308.9519 6.2 1 4.6308-.9508 6.2-1 4.6307.9506 6.2 1 4.6307-.9506 6.2-1 4.6307.9506 6.2 1 4.6307-.9506 6.2-1 4.6307.9506 6.2 1a42.5886 42.5886 0 0 0 6.2-1z"/><path fill="#fff" d="M67 20a42.5886 42.5886 0 0 1-6.2 1c-1.5693-.0494-4.6308-1.0494-6.2-1s-4.6308 1.0494-6.2 1-4.6307-1.0494-6.2-1-4.6307 1.0494-6.2 1-4.6308-1.0492-6.2-1-4.6308 1.0481-6.2 1-4.6306-1.0415-6.2-1-4.63 1-6.2 1A50.8361 50.8361 0 0 1 5 20v-2a50.8361 50.8361 0 0 0 6.2 1c1.57 0 4.6305-.9586 6.2-1s4.6308.9519 6.2 1 4.6308-.9508 6.2-1 4.6307.9506 6.2 1 4.6307-.9506 6.2-1 4.6307.9506 6.2 1 4.6307-.9506 6.2-1 4.6307.9506 6.2 1a42.5886 42.5886 0 0 0 6.2-1z"/><path fill="#1e50a0" d="M67 26a42.5886 42.5886 0 0 1-6.2 1c-1.5693-.0494-4.6308-1.0494-6.2-1s-4.6308 1.0494-6.2 1-4.6307-1.0494-6.2-1-4.6307 1.0494-6.2 1-4.6308-1.0492-6.2-1-4.6308 1.0481-6.2 1-4.6306-1.0415-6.2-1-4.63 1-6.2 1A50.8361 50.8361 0 0 1 5 26v-2a50.8361 50.8361 0 0 0 6.2 1c1.57 0 4.6305-.9586 6.2-1s4.6308.9519 6.2 1 4.6308-.9508 6.2-1 4.6307.9506 6.2 1 4.6307-.9506 6.2-1 4.6307.9506 6.2 1 4.6307-.9506 6.2-1 4.6307.9506 6.2 1a42.5886 42.5886 0 0 0 6.2-1z"/><path fill="#fff" d="M67 28a42.5886 42.5886 0 0 1-6.2 1c-1.5693-.0494-4.6308-1.0494-6.2-1s-4.6308 1.0494-6.2 1-4.6307-1.0494-6.2-1-4.6307 1.0494-6.2 1-4.6308-1.0492-6.2-1-4.6308 1.0481-6.2 1-4.6306-1.0415-6.2-1-4.63 1-6.2 1A50.8361 50.8361 0 0 1 5 28v-2a50.8361 50.8361 0 0 0 6.2 1c1.57 0 4.6305-.9586 6.2-1s4.6308.9519 6.2 1 4.6308-.9508 6.2-1 4.6307.9506 6.2 1 4.6307-.9506 6.2-1 4.6307.9506 6.2 1 4.6307-.9506 6.2-1 4.6307.9506 6.2 1a42.5886 42.5886 0 0 0 6.2-1z"/><path fill="#1e50a0" d="M5 17h31v19H5z"/><path fill="#fff" d="M9.887 18H6v2.332L32.113 36H36v-2.332L9.887 18z"/><path fill="#fff" d="M36 20.332V18h-3.887L6 33.668V36h3.887L36 20.332z"/><path fill="#fff" d="M6 24h30v6H6z"/><path fill="#fff" d="M18 18h6v18h-6z"/><path fill="#d22f27" d="M20 18h2v18h-2z"/><path fill="#d22f27" d="M6 26h30v2H6zm30 7.668L29.887 30H26l10 6v-2.332zM36 18h-3.887L24 22.868V24h2l10-6zM6 20.332L12.113 24H16L6 18v2.332zM6 36h3.887L18 31.132V30h-2L6 36z"/><g><path fill="none" stroke="#000" stroke-linecap="round" stroke-linejoin="round" stroke-width="2" d="M5 17h62v38H5z"/></g></svg>