<svg xmlns="http://www.w3.org/2000/svg" role="img" viewBox="2.72 14.72 66.43 42.43"><title>1F1F3-1F1EB.svg</title><path fill="#fff" d="M5 17h62v38H5z"/><path fill="#186648" d="M5 17h21v38H5zm41 0h21v38H46z"/><g stroke="#186648" stroke-linecap="round" stroke-linejoin="round" stroke-width="2"><path fill="#186648" d="M36 26l-4 4 4-.8 4 .8-4-4zm0 4l-5 4 5-.8 5 .8-5-4zm0 4l-6 4 6-.8 6 .8-6-4zm0 4l-7 4 7-.8 7 .8-7-4z"/><path fill="none" d="M36 40v6"/></g><g><path fill="none" stroke="#000" stroke-linecap="round" stroke-linejoin="round" stroke-width="2" d="M5 17h62v38H5z"/></g></svg>