<svg xmlns="http://www.w3.org/2000/svg" role="img" viewBox="2.72 14.72 66.43 42.43"><title>1F1F8-1F1E7.svg</title><path fill="#5c9e31" d="M5 17h62v38H5z"/><path fill="#1e50a0" d="M5 17v38l62-38H5z"/><path fill="#fcea2b" d="M67 21v-4h-5L5 51v4h5l57-34z"/><path fill="#fff" stroke="#fff" stroke-linecap="round" stroke-linejoin="round" d="M9.384 25.5l1.66-5 1.431 4.923L8.5 22.457l5-.124L9.384 25.5zm12 0l1.66-5 1.431 4.923-3.975-2.966 5-.124-4.116 3.167zm-12 10l1.66-5 1.431 4.923L8.5 32.457l5-.124L9.384 35.5zm6-5l1.66-5 1.431 4.923-3.975-2.966 5-.124-4.116 3.167zm6 5l1.66-5 1.431 4.923-3.975-2.966 5-.124-4.116 3.167z"/><g><path fill="none" stroke="#000" stroke-linecap="round" stroke-linejoin="round" stroke-width="2" d="M5 17h62v38H5z"/></g></svg>