<svg xmlns="http://www.w3.org/2000/svg" role="img" viewBox="2.72 14.72 66.43 42.43"><title>1F1F2-1F1F5.svg</title><path fill="#61b2e4" d="M5 17h62v38H5z"/><ellipse cx="36" cy="36" fill="none" stroke="#fff" stroke-miterlimit="10" stroke-width="3" rx="10.466" ry="10.5"/><path fill="none" stroke="#fcea2b" stroke-linecap="round" stroke-linejoin="round" d="M46.4658 35.9315a10.4661 10.4661 0 1 1-20.9317.137"/><path fill="none" stroke="#d22f27" stroke-linecap="round" stroke-linejoin="round" d="M25.5343 36.0685a10.4661 10.4661 0 1 1 20.9317-.137"/><path fill="#9b9b9a" stroke="#9b9b9a" stroke-linecap="round" stroke-linejoin="round" d="M40.5 50h-9l3-18h3l3 18z"/><path fill="#9b9b9a" stroke="#9b9b9a" stroke-linecap="round" stroke-linejoin="round" d="M38.5 29h-5l1 4h3l1-4z"/><path fill="#fff" stroke="#fff" stroke-linecap="round" stroke-linejoin="round" d="M32.122 42l3.983-12 3.434 11.816L30 34.696l12-.296-9.878 7.6z"/><path fill="none" stroke="#5c9e31" stroke-linecap="round" stroke-linejoin="round" d="M25.7466 38.1161A10.6415 10.6415 0 0 1 25.7235 34m20.53 0a10.6388 10.6388 0 0 1 .023 4.1158"/><g><path fill="none" stroke="#000" stroke-linecap="round" stroke-linejoin="round" stroke-width="2" d="M5 17h62v38H5z"/></g></svg>