<svg xmlns="http://www.w3.org/2000/svg" role="img" viewBox="2.72 14.72 66.43 42.43"><title>1F1F1-1F1FE.svg</title><path fill="#5c9e31" d="M5 17h62v38H5z"/><path fill="#d22f27" d="M5 17h62v13H5z"/><path d="M5 30h62v12H5z"/><path fill="#fff" stroke="#fff" stroke-linecap="round" stroke-linejoin="round" d="M32.1358 36.125a4.0528 4.0528 0 0 1 3.3783-3.9236 4.3947 4.3947 0 0 0-.8108-.0764 4.0043 4.0043 0 1 0 0 8 4.3947 4.3947 0 0 0 .8108-.0764 4.0527 4.0527 0 0 1-3.3783-3.9236zm6.0572 1.041l1.328-4 1.145 3.939-3.18-2.373 4-.099-3.293 2.533z"/><g><path fill="none" stroke="#000" stroke-linecap="round" stroke-linejoin="round" stroke-width="2" d="M5 17h62v38H5z"/></g></svg>