<svg xmlns="http://www.w3.org/2000/svg" role="img" viewBox="2.72 14.72 66.43 42.43"><title>1F1F8-1F1F2.svg</title><path fill="#fff" d="M5 17h62v38H5z"/><path fill="#61b2e4" d="M5 36h62v19H5z"/><path fill="#61b2e4" d="M41 31a7.191 7.191 0 0 1 2 5 10.0442 10.0442 0 0 1-7 10 10.0442 10.0442 0 0 1-7-10 7.191 7.191 0 0 1 2-5"/><path fill="#61b2e4" d="M41 31a7.191 7.191 0 0 1 2 5 10.0442 10.0442 0 0 1-7 10 10.0442 10.0442 0 0 1-7-10 7.191 7.191 0 0 1 2-5"/><path fill="#fcea2b" stroke="#f1b31c" stroke-linecap="round" stroke-linejoin="round" stroke-width="2" d="M36 22v8"/><path fill="none" stroke="#f1b31c" stroke-linecap="round" stroke-linejoin="round" stroke-width="2" d="M36 28a3 3 0 0 1 3-3c1.6569 0 4.1391 1.4725 2 6H31c-2.1391-4.5275.3431-6 2-6a3 3 0 0 1 3 3"/><path fill="none" stroke="#6a462f" stroke-linecap="round" stroke-linejoin="round" stroke-width="2" d="M36 35v6"/><path fill="#5c9e31" d="M29.6694 40A10.0342 10.0342 0 0 0 36 46a10.0342 10.0342 0 0 0 6.3306-6z"/><path fill="none" stroke="#f1b31c" stroke-linecap="round" stroke-linejoin="round" stroke-width="2" d="M41 31a7.191 7.191 0 0 1 2 5 10.0442 10.0442 0 0 1-7 10 10.0442 10.0442 0 0 1-7-10 7.191 7.191 0 0 1 2-5"/><path fill="none" stroke="#186648" stroke-linecap="round" stroke-linejoin="round" stroke-width="2" d="M41 47c3.3484-1.7381 6-6.2282 6-11a12.9874 12.9874 0 0 0-1.066-5M31 47c-3.3484-1.7381-6-6.2282-6-11a12.9874 12.9874 0 0 1 1.066-5"/><path fill="none" stroke="#fff" stroke-linecap="round" stroke-linejoin="round" stroke-width="2" d="M43 49l-2-2H31l-2 2"/><g><path fill="none" stroke="#000" stroke-linecap="round" stroke-linejoin="round" stroke-width="2" d="M5 17h62v38H5z"/></g></svg>