<svg xmlns="http://www.w3.org/2000/svg" role="img" viewBox="2.72 14.72 66.43 42.43"><title>1F1F2-1F1F7.svg</title><path fill="#5c9e31" d="M5 17h62v38H5z"/><path fill="#d22f27" d="M5 17h62v7H5zm0 31h62v7H5z"/><path d="M36 40.8847a6.9294 6.9294 0 0 1-6.8663-5.4054A6.4559 6.4559 0 0 0 29 36.7766a7.0066 7.0066 0 0 0 14 0 6.4486 6.4486 0 0 0-.1337-1.2973A6.9294 6.9294 0 0 1 36 40.8847zm-1.293-6.3637l1.328-4 1.145 3.939L34 32.086l4-.099-3.293 2.534z" fill="#fcea2b" stroke="#fcea2b" stroke-linecap="round" stroke-linejoin="round"/><g><path fill="none" stroke="#000" stroke-linecap="round" stroke-linejoin="round" stroke-width="2" d="M5 17h62v38H5z"/></g></svg>