<svg xmlns="http://www.w3.org/2000/svg" role="img" viewBox="2.72 14.72 66.43 42.43"><title>1F1F5-1F1EB.svg</title><path fill="#fff" d="M5 17h62v38H5z"/><path fill="#d22f27" d="M5 17h62v9H5zm0 29h62v9H5z"/><path fill="#92d3f5" stroke="#92d3f5" stroke-linejoin="round" stroke-width=".933" d="M42 36a7 7 0 0 1-14 0"/><path fill="#f4aa41" stroke="#f4aa41" stroke-linejoin="round" stroke-width=".933" d="M28 36a7 7 0 0 1 14 0"/><path fill="#d22f27" stroke="#d22f27" stroke-linejoin="round" d="M36.5417 31s-3.1667 0-3.1667 2.1111v3.1667l3.1667 1.5833v-4.2222s-2.1111-.5278 0-2.6389z"/><path fill="none" stroke="#d22f27" stroke-linecap="round" stroke-linejoin="round" d="M33 39.5794s-1.0445.6963-1.7408 0l.05-4.8191m5.95 4.8191s1.0445.6963 1.7408 0l-.05-4.8194"/><g><path fill="none" stroke="#000" stroke-linecap="round" stroke-linejoin="round" stroke-width="2" d="M5 17h62v38H5z"/></g></svg>