<svg xmlns="http://www.w3.org/2000/svg" role="img" viewBox="2.72 14.72 66.43 42.43"><title>1F1F8-1F1EC.svg</title><path fill="#d22f27" d="M5 17h62v38H5z"/><path fill="#fff" d="M5 36h62v19H5z"/><circle cx="20" cy="22" r="1" fill="#fff"/><circle cx="18" cy="27" r="1" fill="#fff"/><circle cx="22" cy="27" r="1" fill="#fff"/><circle cx="17" cy="24" r="1" fill="#fff"/><circle cx="23" cy="24" r="1" fill="#fff"/><path fill="#fff" stroke="#fff" stroke-linecap="round" stroke-linejoin="round" d="M11.1987 24.9227A4.873 4.873 0 0 1 15 20.094a4.539 4.539 0 0 0-.9123-.094 4.9273 4.9273 0 0 0 0 9.8454 4.539 4.539 0 0 0 .9123-.094 4.873 4.873 0 0 1-3.8013-4.8287z"/><g><path fill="none" stroke="#000" stroke-linecap="round" stroke-linejoin="round" stroke-width="2" d="M5 17h62v38H5z"/></g></svg>