<svg xmlns="http://www.w3.org/2000/svg" role="img" viewBox="2.72 14.72 66.43 42.43"><title>1F1F9-1F1F0.svg</title><path fill="#1e50a0" d="M5 17h62v38H5z"/><path fill="#fff" stroke="#fff" stroke-linecap="round" stroke-linejoin="round" d="M19.75 21.972l1.236 4L17.75 23.5h4l-3.236 2.472 1.236-4zm0 14l1.236 4L17.75 37.5h4l-3.236 2.472 1.236-4zm-7.25-8l1.236 4L10.5 29.5h4l-3.236 2.472 1.236-4zm14-1l.927 3L25 28.118h3l-2.427 1.854.927-3z"/><path fill="#f1b31c" stroke="#f1b31c" stroke-linecap="round" stroke-linejoin="round" stroke-width="2" d="M56.4964 22.0042L22.5 47h32l2-.0008c-2.1713-3.7-5.4086-7.9629-5.4086-12.5009 0-4.5349 3.2359-8.7957 5.405-12.4941z"/><path fill="none" stroke="#f1b31c" stroke-linecap="round" stroke-linejoin="round" stroke-width="2" d="M22.5 50h36"/><g><path fill="none" stroke="#000" stroke-linecap="round" stroke-linejoin="round" stroke-width="2" d="M5 17h62v38H5z"/></g></svg>