<svg xmlns="http://www.w3.org/2000/svg" role="img" viewBox="2.72 14.72 66.43 42.43"><title>1F1F1-1F1E7.svg</title><path fill="#fff" d="M5 17h62v38H5z"/><path fill="#d22f27" d="M5 17h62v7H5zm0 31h62v7H5z"/><path fill="#5c9e31" stroke="#5c9e31" stroke-linecap="round" stroke-linejoin="round" stroke-width="2" d="M36 27l-7 5 7-1 7 1-7-5z"/><path fill="#5c9e31" stroke="#5c9e31" stroke-linecap="round" stroke-linejoin="round" stroke-width="2" d="M36 31l-8 5 8-1 8 1-8-5z"/><path fill="#5c9e31" stroke="#5c9e31" stroke-linecap="round" stroke-linejoin="round" stroke-width="2" d="M36 35l-9 5 9-1 9 1-9-5z"/><path fill="#5c9e31" d="M38 39v3.5a2.2272 2.2272 0 0 0 1.4231 1.9743l.1539.0514-.1539-.0514A11.1134 11.1134 0 0 0 36.5 44h-1a11.1126 11.1126 0 0 0-2.923.4743l-.1539.0514.1539-.0514A2.2271 2.2271 0 0 0 34 42.5V39"/><path fill="none" stroke="#5c9e31" stroke-linecap="round" stroke-linejoin="round" stroke-width="2" d="M38 39v3.5a2.2272 2.2272 0 0 0 1.4231 1.9743l.1539.0514h0l-.1539-.0514A11.1134 11.1134 0 0 0 36.5 44h-1a11.1126 11.1126 0 0 0-2.923.4743l-.1539.0514h0l.1539-.0514A2.2271 2.2271 0 0 0 34 42.5V39"/><g><path fill="none" stroke="#000" stroke-linecap="round" stroke-linejoin="round" stroke-width="2" d="M5 17h62v38H5z"/></g></svg>