<svg xmlns="http://www.w3.org/2000/svg" role="img" viewBox="2.72 14.72 66.43 42.43"><title>1F1F2-1F1F3.svg</title><path fill="#1e50a0" d="M5.227 17h62v38h-62z"/><path fill="#d22f27" d="M5.227 17h21v38h-21zm41 0h21v38h-21z"/><circle cx="16" cy="29" r="1" fill="#fcea2b" stroke="#fcea2b" stroke-linecap="round" stroke-linejoin="round" stroke-width="2"/><circle cx="16" cy="41" r="1" fill="#fcea2b" stroke="#fcea2b" stroke-linecap="round" stroke-linejoin="round" stroke-width="2"/><path fill="#fcea2b" stroke="#fcea2b" stroke-linecap="round" stroke-linejoin="round" stroke-width="2" d="M17 24a1 1 0 0 1-2 0l1-1zm-2 9h2l-1 1-1-1zm0 15h2l-1 1-1-1zm0-11h2m-2 8h2m-6-12h1v16h-1zm9 0h1v16h-1z"/><g><path fill="none" stroke="#000" stroke-linecap="round" stroke-linejoin="round" stroke-width="2" d="M5 17h62v38H5z"/></g></svg>