<svg xmlns="http://www.w3.org/2000/svg" role="img" viewBox="2.72 14.72 66.43 42.43"><title>1F1F2-1F1F4.svg</title><path fill="#186648" d="M5 17h62v38H5z"/><g stroke-linecap="round" stroke-linejoin="round"><path fill="none" stroke="#fff" d="M32.408 49.977h7m4.5-2h-16m-2.5-2h21"/><path fill="#f1b31c" stroke="#f1b31c" d="M34.467 27.023l1.66-5 1.43 4.923-3.974-2.966 5-.124-4.116 3.167zm8.526 1.284l-.638-3.096 2.221 2.129-2.955-.349 2.561-1.564-1.189 2.88zm3.101 4.74l.996-3 .859 2.954-2.385-1.78 3-.074-2.47 1.9zm-17.087-4.892l.638-3.096-2.221 2.129 2.955-.349-2.561-1.564 1.189 2.88zm-3.101 4.74l-.996-3-.859 2.954 2.385-1.78-3-.074 2.47 1.9z"/><g fill="#fff" stroke="#fff"><path d="M35.0066 41.34c1.3822 1.2555 4.0028 1.8321 6.8351 1.3326s5.0984-1.9379 5.9676-3.5908c-1.3821-1.2559-4.0031-1.8327-6.8359-1.3332s-5.0976 1.9374-5.9671 3.59z"/><path d="M24.0062 39.083c.8695 1.6525 3.1348 3.09 5.9671 3.59s5.4538-.0773 6.8358-1.3332c-.8691-1.6529-3.1347-3.0913-5.9675-3.5908s-5.4529.0771-6.8351 1.3326z"/><path d="M35.907 29.977c-1.4765 1.0443-2.4993 3.31-2.4993 5.9373s1.0232 4.8938 2.5 5.9378c1.4769-1.044 2.5-3.31 2.5-5.9378s-1.0228-4.893-2.4992-5.9373z"/></g></g><g><path fill="none" stroke="#000" stroke-linecap="round" stroke-linejoin="round" stroke-width="2" d="M5 17h62v38H5z"/></g></svg>