<svg xmlns="http://www.w3.org/2000/svg" role="img" viewBox="5.84 5.84 60.19 60.19"><title>1F1FA.svg</title><circle cx="36" cy="36" r="27.5" fill="#fff"/><path d="M46 21c-.5527 0-1 .4478-1 1v18c0 4.9624-4.0371 9-9 9s-9-4.0376-9-9V22c0-.5522-.4473-1-1-1s-1 .4478-1 1v18c0 6.0654 4.9346 11 11 11s11-4.9346 11-11V22c0-.5522-.4473-1-1-1z"/><g><circle cx="36" cy="36" r="28" fill="none" stroke="#000" stroke-linejoin="round" stroke-width="2"/><path fill="none" stroke="#000" stroke-linejoin="round" stroke-width="2" d="M46 21c-.5527 0-1 .4478-1 1v18c0 4.9624-4.0371 9-9 9s-9-4.0376-9-9V22c0-.5522-.4473-1-1-1s-1 .4478-1 1v18c0 6.0654 4.9346 11 11 11s11-4.9346 11-11V22c0-.5522-.4473-1-1-1z"/></g></svg>