<svg xmlns="http://www.w3.org/2000/svg" role="img" viewBox="15.20 15.20 41.47 41.47"><title>1F1FB-1F1E6.svg</title><path fill="#fff" d="M17 17h38v38H17z"/><path fill="#fcea2b" d="M17 17h19v38H17z"/><ellipse cx="44.727" cy="29.86" fill="#9b9b9a" rx="1.946" ry="2.703"/><path d="M43.612 28.745h2.23m-2.23 1.115h2.23m-2.23 1.115h2.23" fill="none" stroke="#fcea2b" stroke-linecap="round" stroke-linejoin="round" stroke-width=".91"/><path fill="none" stroke="#d22f27" stroke-linecap="round" stroke-linejoin="round" stroke-width="1.147" d="M40.2017 42.2844c2.54 2.54 6.8992 2.29 9.747-.5575"/><g fill="#9b9b9a"><path d="M47.9343 36.1387a3.2621 3.2621 0 1 0 3.9646 2.3588 3.2622 3.2622 0 0 0-3.9646-2.3588zm1.3 5.1189a2.0193 2.0193 0 1 1 1.46-2.4542 2.0193 2.0193 0 0 1-1.4601 2.4542z"/><rect width="1.469" height="8.811" x="42.845" y="30.369" rx=".416" ry=".416" transform="rotate(-48.848 43.58 34.774)"/><rect width="1.469" height="1.81" x="39.704" y="32.336" rx=".369" ry=".369" transform="rotate(41.152 40.438 33.24)"/><rect width="1.469" height="1.81" x="41.268" y="33.703" rx=".369" ry=".369" transform="rotate(41.152 42.002 34.607)"/></g><g fill="#fcea2b"><path d="M37.5178 38.8188a3.262 3.262 0 1 0 3.8347-2.5645 3.262 3.262 0 0 0-3.8347 2.5645zm1.2189.2419a2.0193 2.0193 0 1 1 1.5875 2.3739 2.0192 2.0192 0 0 1-1.5875-2.3739z"/><rect width="1.469" height="8.811" x="44.895" y="30.257" rx=".416" ry=".416" transform="rotate(-134.174 45.63 34.662)"/><rect width="1.469" height="1.81" x="47.951" y="32.06" rx=".369" ry=".369" transform="rotate(135.826 48.685 32.965)"/><rect width="1.469" height="1.81" x="46.462" y="33.507" rx=".369" ry=".369" transform="rotate(135.826 47.196 34.412)"/></g><g><path fill="none" stroke="#000" stroke-linecap="round" stroke-linejoin="round" stroke-width="2" d="M17 17h38v38H17z"/></g></svg>