<svg xmlns="http://www.w3.org/2000/svg" role="img" viewBox="2.72 14.72 66.43 42.43"><title>1F1F9-1F1EB.svg</title><path fill="#1e50a0" d="M5 17h62v38H5z"/><circle cx="46.859" cy="38.872" r=".503" fill="#fff" stroke="#fff" stroke-miterlimit="10" stroke-width="1.007"/><circle cx="58.944" cy="38.872" r=".503" fill="#fff" stroke="#fff" stroke-miterlimit="10" stroke-width="1.007"/><circle cx="56.93" cy="47.936" r=".503" fill="#fff" stroke="#fff" stroke-miterlimit="10" stroke-width="1.007"/><circle cx="48.874" cy="47.936" r=".503" fill="#fff" stroke="#fff" stroke-miterlimit="10" stroke-width="1.007"/><circle cx="52.902" cy="49.95" r=".503" fill="#fff" stroke="#fff" stroke-miterlimit="10" stroke-width="1.007"/><path fill="#fff" d="M58.4616 45.4768l-2.5193-4.3636a.8383.8383 0 0 0-1.1788 0l-1.0191 1.7649v-2.8892h1.05a.6653.6653 0 0 0 .6652-.6653v-.3843a.6653.6653 0 0 0-.6652-.6653h-1.05v-1.7149H56.45a.7248.7248 0 0 0 .7247-.7247v-.2655a.7248.7248 0 0 0-.7247-.7247h-7.125a.7248.7248 0 0 0-.7247.7247v.2655a.7248.7248 0 0 0 .7247.7247h2.705v6.61l-1.1872-2.0561a.8381.8381 0 0 0-1.1787 0l-2.5194 4.3636a.5336.5336 0 0 0 .1953.7289l.1932.1116a.5338.5338 0 0 0 .7291-.1953L48.84 45.12h2.826l.5783 1.0019a.7441.7441 0 0 0 1.1173 0L53.94 45.12h2.8256l.5786 1.0019a.5335.5335 0 0 0 .7289.1953l.193-.1116a.5335.5335 0 0 0 .1955-.7288zM49.5852 43.83l.6679-1.1567.6678 1.1567zm5.1 0l.668-1.1567.668 1.1567z"/><path fill="none" stroke="#fff" stroke-linecap="round" stroke-linejoin="round" d="M36.5 17.5v19h-31"/><path fill="#1e50a0" d="M5 17h11v19H5z"/><path fill="#fff" d="M16 17h10v19H16z"/><path fill="#d22f27" d="M26 17h10v19H26z"/><g><path fill="none" stroke="#000" stroke-linecap="round" stroke-linejoin="round" stroke-width="2" d="M5 17h62v38H5z"/></g></svg>