<svg xmlns="http://www.w3.org/2000/svg" role="img" viewBox="2.72 14.72 66.43 42.43"><title>1F1F1-1F1F7.svg</title><path fill="#fff" d="M5 17h62v38H5z"/><path fill="#d22f27" d="M5 17h62v5H5zm0 9h62v4H5zm0 8h62v4H5zm0 8h62v4H5zm0 8h62v5H5z"/><path fill="#1e50a0" d="M5 17h17v17H5z"/><path fill="#fff" stroke="#fff" stroke-linecap="round" stroke-linejoin="round" d="M14.455 26.09L16 24.91h-1.91L13.5 23l-.59 1.91H11l1.545 1.18-.59 1.91 1.545-1.18L15.045 28l-.59-1.91z"/><g><path fill="none" stroke="#000" stroke-linecap="round" stroke-linejoin="round" stroke-width="2" d="M5 17h62v38H5z"/></g></svg>