<svg xmlns="http://www.w3.org/2000/svg" role="img" viewBox="2.72 14.72 66.43 42.43"><title>1F1FF-1F1FC.svg</title><path d="M5 17h62v38H5z"/><path fill="#5c9e31" d="M5 49h62v6H5z"/><path fill="#f1b31c" d="M5 44h62v5H5z"/><path fill="#d22f27" d="M5 39h62v5H5z"/><path fill="#5c9e31" d="M5 17h62v6H5z"/><path fill="#f1b31c" d="M5 23h62v5H5z"/><path fill="#d22f27" d="M5 28h62v5H5z"/><path fill="#fff" stroke="#000" stroke-linecap="round" stroke-linejoin="round" d="M26 36L5 55V17l21 19z"/><path fill="#d22f27" stroke="#d22f27" stroke-linecap="round" stroke-linejoin="round" stroke-width=".54" d="M15.2661 35.6693L19 32.7964l-4.5363.1121-1.2981-4.4669-1.5056 4.5361-4.5369.112 3.6062 2.6918-.974 2.9344a2.2833 2.2833 0 0 1 1.0806.362l2.1222-1.6328 3.6063 2.6918z"/><path fill="#fcea2b" d="M10.7012 30.9391a.8847.8847 0 0 0-1.4242.7009v8.7433a.8848.8848 0 0 0 .8848.8848h6.0475a.8847.8847 0 0 0 .8847-.8848v-4.091a.8847.8847 0 0 0-.3453-.7013z"/><g><path fill="none" stroke="#000" stroke-linecap="round" stroke-linejoin="round" stroke-width="2" d="M5 17h62v38H5z"/></g></svg>