<svg xmlns="http://www.w3.org/2000/svg" role="img" viewBox="2.72 14.72 66.43 42.43"><title>1F1F2-1F1EA.svg</title><path fill="#d22f27" d="M5 17h62v38H5z"/><path fill="#f1b31c" stroke="#f1b31c" stroke-linecap="round" stroke-linejoin="round" stroke-width="2" d="M39 35c1.501 0 3.5084-3.5564 1.9248-7.3049A8 8 0 0 1 36 42m0 0l6 2m-9-9c-1.501 0-3.5084-3.5564-1.9248-7.3049A8 8 0 0 0 36 42m0 0l-6 2m6-1l-2 2.5 2 .5 2-.5-2-2.5z"/><path fill="none" stroke="#f1b31c" stroke-linecap="round" stroke-linejoin="round" stroke-width="2" d="M38 31c-2 0-2 2.4424-1 4m-3-4c2 0 2 2.4424 1 4"/><path fill="#5c9e31" stroke="#5c9e31" stroke-linecap="round" stroke-linejoin="round" stroke-width="2" d="M38 38c0 1.2-.6509 1.6174-2 2-1.3491-.3826-2-.8-2-2"/><path fill="#1e50a0" d="M33 34h6v4h-6z"/><path fill="none" stroke="#f1b31c" stroke-linecap="round" stroke-linejoin="round" stroke-width="2" d="M35 28h2"/><g><path fill="none" stroke="#000" stroke-linecap="round" stroke-linejoin="round" stroke-width="2" d="M5 17h62v38H5z"/></g></svg>