<svg xmlns="http://www.w3.org/2000/svg" role="img" viewBox="2.72 14.72 66.43 42.43"><title>1F1F2-1F1FE.svg</title><path fill="#fff" d="M5 17h62v38H5z"/><path fill="#d22f27" d="M5 17h62v5H5zm0 9h62v4H5zm0 8h62v4H5zm0 8h62v4H5zm0 8h62v5H5z"/><path fill="#1e50a0" d="M5 17h29v21H5z"/><g fill="#f1b31c" stroke="#f1b31c" stroke-linecap="round" stroke-linejoin="round"><path d="M13.8446 27.5a6.2149 6.2149 0 0 1 5.4054-5.8854 7.4868 7.4868 0 0 0-1.2973-.1146c-3.7018 0-6.7027 2.6863-6.7027 6s3.0009 6 6.7027 6a7.4868 7.4868 0 0 0 1.2973-.1146A6.2149 6.2149 0 0 1 13.8446 27.5z"/><path d="M24.612 25.969l2.097-3.418-1.451 3.723 3.409-2.192-2.964 2.74 4.047-.532-3.889 1.214 3.883 1.233-4.044-.552 2.949 2.755-3.398-2.209 1.433 3.73-2.079-3.428L24.236 33l-.348-3.969-2.097 3.418 1.451-3.723-3.409 2.192 2.964-2.74-4.047.532 3.889-1.214-3.883-1.233 4.044.552-2.949-2.755 3.398 2.209-1.433-3.73 2.079 3.428.369-3.967.348 3.969z"/></g><g><path fill="none" stroke="#000" stroke-linecap="round" stroke-linejoin="round" stroke-width="2" d="M5 17h62v38H5z"/></g></svg>