<svg xmlns="http://www.w3.org/2000/svg" role="img" viewBox="2.72 14.72 66.43 42.43"><title>1F1FA-1F1FF.svg</title><path fill="#b1cc33" d="M5 17h62v38H5z"/><path fill="#61b2e4" d="M5 17h62v13H5z"/><path fill="#fff" stroke="#d22f27" stroke-miterlimit="10" stroke-width="1.5" d="M5 30.25h62v11.5H5z"/><circle cx="29.25" cy="21" r="1" fill="#fff"/><circle cx="29.25" cy="24" r="1" fill="#fff"/><circle cx="29.25" cy="27" r="1" fill="#fff"/><circle cx="26.25" cy="21" r="1" fill="#fff"/><circle cx="26.25" cy="24" r="1" fill="#fff"/><circle cx="26.25" cy="27" r="1" fill="#fff"/><circle cx="23.25" cy="21" r="1" fill="#fff"/><circle cx="23.25" cy="24" r="1" fill="#fff"/><circle cx="23.25" cy="27" r="1" fill="#fff"/><circle cx="20.25" cy="24" r="1" fill="#fff"/><circle cx="20.25" cy="27" r="1" fill="#fff"/><circle cx="17.25" cy="27" r="1" fill="#fff"/><path fill="#fff" stroke="#fff" stroke-linecap="round" stroke-linejoin="round" d="M11.2973 24A3.4648 3.4648 0 0 1 14 20.5668a3.2286 3.2286 0 0 0-.6486-.0668 3.5033 3.5033 0 0 0 0 7A3.2286 3.2286 0 0 0 14 27.4332 3.4648 3.4648 0 0 1 11.2973 24z"/><g><path fill="none" stroke="#000" stroke-linecap="round" stroke-linejoin="round" stroke-width="2" d="M5 17h62v38H5z"/></g></svg>