<svg xmlns="http://www.w3.org/2000/svg" role="img" viewBox="2.72 14.72 66.43 42.43"><title>1F1F2-1F1E9.svg</title><path fill="#fcea2b" d="M5 17h62v38H5z"/><path fill="#1e50a0" d="M5 17h21v38H5z"/><path fill="#d22f27" d="M46 17h21v38H46z"/><path fill="#a57939" stroke="#a57939" stroke-linecap="round" stroke-linejoin="round" stroke-width="2" d="M34.6566 30.5657l-.4987 1.7043h-2.21a2.0412 2.0412 0 0 0-2.9479 0v8.1052l2.9474-2.9473h2.21L31.8283 44h8.4848l-2.471-6.572H40.79L43 40.3753V32.27a2.0412 2.0412 0 0 0-2.9474 0h-2.21l-.3573-1.7044v-1.4141a2.5259 2.5259 0 0 0-1.8481-2.6862 1.8866 1.8866 0 0 0-1.5806.2582l-1.5207 1.0139 2.1212 1.4141z"/><path fill="#d22f27" d="M32.219 31.5h7.764v4.529h-7.764z"/><path fill="#1e50a0" d="M32.2194 35.382h7.7641c.3235 4.5291-4.2056 6.47-4.2056 6.47s-4.8525-3.2349-3.5585-6.47z"/><path fill="#fcea2b" stroke="#fcea2b" stroke-linecap="round" stroke-linejoin="round" stroke-width="2" d="M35.454 35.25h1.294l-.647 1.95-.647-1.95z"/><path fill="none" stroke="#000" stroke-linecap="round" stroke-linejoin="round" d="M35.9936 41.8521s3.882-1.294 3.882-5.1761V31.5h-7.764v5.176c0 3.8821 3.882 5.1761 3.882 5.1761z"/><g><path fill="none" stroke="#000" stroke-linecap="round" stroke-linejoin="round" stroke-width="2" d="M5 17h62v38H5z"/></g></svg>