<svg xmlns="http://www.w3.org/2000/svg" role="img" viewBox="2.72 14.72 66.43 42.43"><title>1F1F0-1F1FF.svg</title><path fill="#61b2e4" d="M5 17h62v38H5z"/><path fill="#fcea2b" stroke="#fcea2b" stroke-linecap="round" stroke-linejoin="round" d="M44.8887 28.3866l-2.25299 2.65703 3.28704-1.16416-2.82822 2.0407 3.47193-.3424-3.23225 1.30797 3.45139.49306-3.4514.49306 3.23226 1.30796-3.47193-.3424 2.82822 2.0407-3.28704-1.16415 2.253 2.65702-2.9104-1.91744 1.55449 3.12269-2.3694-2.56115.76012 3.40345-1.6846-3.04736-.07534 3.48564-.91078-3.36922-.91078 3.36922-.07533-3.48564-1.68461 3.04736.76013-3.40345-2.36941 2.56115 1.5545-3.12269-2.9104 1.91744 2.25299-2.65702-3.28704 1.16416 2.82822-2.0407-3.47193.3424 3.23225-1.30797L31.72 33.3788l3.4514-.49306-3.23226-1.30796 3.47193.3424-2.82822-2.0407 3.28704 1.16415-2.253-2.65702 2.9104 1.91744-1.55449-3.12269 2.3694 2.56115-.76012-3.40345 1.6846 3.04736.07534-3.48564.91078 3.36922.91078-3.36922.07533 3.48564 1.68461-3.04736-.76013 3.40345 2.36941-2.56115-1.5545 3.12269z" stroke-width=".6848"/><path fill="none" stroke="#fcea2b" stroke-linecap="round" stroke-linejoin="round" stroke-width="2" d="M31.09 39.13s2.312 4.125 6.688 4.688c2.768.3559 1.376.6496-.04232 1.065-.8236.2413-1.676.5633-1.676.5633s1.315-.5202 3.443-.616c2.104-.09466 1.471-.06925.8339-.2106-.4556-.1011-1.57-.1957-1.263-.2675 4.083-.9558 7.427-2.98 8.33-5.222"/><path fill="none" stroke="#fcea2b" stroke-linecap="round" stroke-linejoin="round" stroke-width="3.995" d="M10.5 22.02v27.95"/><g><path fill="none" stroke="#000" stroke-linecap="round" stroke-linejoin="round" stroke-width="2" d="M5 17h62v38H5z"/></g></svg>