<svg xmlns="http://www.w3.org/2000/svg" role="img" viewBox="2.72 14.72 66.43 42.43"><title>1F1F8-1F1FD.svg</title><path fill="#d22f27" d="M5 17h62v38H5z"/><path fill="#1e50a0" d="M5 36h62v19H5z"/><path fill="#fff" d="M26 36L5 55V17l21 19z"/><circle cx="13" cy="31" r="2.5" fill="#fcea2b" stroke="#fcea2b" stroke-linecap="round" stroke-linejoin="round"/><path fill="#92d3f5" stroke="#d22f27" stroke-linecap="round" stroke-linejoin="round" d="M18 31.7758v4.6121C18 39.847 13.0417 41 13.0417 41s-4.9584-1.153-4.9584-4.6121v-4.6121a16.6778 16.6778 0 0 1 9.9167 0z"/><path fill="none" stroke="#fcea2b" stroke-linecap="round" stroke-linejoin="round" d="M19 39c0 1.933-2.6863 3.5-6 3.5S7 40.933 7 39"/><path fill="#fff" stroke="#fff" stroke-linecap="round" stroke-linejoin="round" stroke-width="2" d="M11 34h4v3h-4z"/><g><path fill="none" stroke="#000" stroke-linecap="round" stroke-linejoin="round" stroke-width="2" d="M5 17h62v38H5z"/></g></svg>