<svg xmlns="http://www.w3.org/2000/svg" role="img" viewBox="2.72 14.72 66.43 42.43"><title>1F1F8-1F1F0.svg</title><path fill="#d22f27" d="M5 17h62v38H5z"/><path fill="#fff" d="M5 17h62v13H5z"/><path fill="#1e50a0" d="M5 30h62v12H5z"/><path fill="#d22f27" stroke="#fff" stroke-linecap="round" stroke-linejoin="round" d="M23.8334 45s6.75-2.25 6.75-9v-9h-13.5v9c0 6.75 6.75 9 6.75 9z"/><path fill="none" stroke="#fff" stroke-linecap="round" stroke-linejoin="round" stroke-width="2" d="M23.833 29.5v12m-2-10h4m-5.5 3h7"/><circle cx="23.833" cy="41.5" r="3.167" fill="#1e50a0"/><path fill="#1e50a0" d="M19.25 39.3333a2.1457 2.1457 0 0 0-1.3265.465 9.5792 9.5792 0 0 0 2.7022 3.3628 2.158 2.158 0 0 0-1.3757-3.8278zm9.1667 0a2.158 2.158 0 0 0-1.3757 3.8278 9.5792 9.5792 0 0 0 2.7022-3.3628 2.1455 2.1455 0 0 0-1.3265-.465z"/><path fill="none" stroke="#fff" stroke-linecap="round" stroke-linejoin="round" d="M23.8334 45s6.75-2.25 6.75-9v-9h-13.5v9c0 6.75 6.75 9 6.75 9z"/><g><path fill="none" stroke="#000" stroke-linecap="round" stroke-linejoin="round" stroke-width="2" d="M5 17h62v38H5z"/></g></svg>