<svg xmlns="http://www.w3.org/2000/svg" role="img" viewBox="5.84 5.84 60.19 60.19"><title>1F1FD.svg</title><circle cx="36" cy="36" r="27.5" fill="#fff"/><circle cx="36" cy="36" r="28" fill="none" stroke="#000" stroke-linejoin="round" stroke-width="2"/><path stroke="#000" stroke-linejoin="round" stroke-width="2" d="M44.4951 21.122c-.4805-.2759-1.0918-.1074-1.3643.3721l-7.1371 12.4904-7.1246-12.4684c-.2734-.48-.8857-.6475-1.3643-.3721-.4795.2739-.6465.8848-.3721 1.3643L34.842 36l-7.7093 13.4917c-.2744.4795-.1074 1.0903.3721 1.3643a.99493.99493 0 0 0 .4951.1318c.3477 0 .6846-.1807.8691-.5039l7.1246-12.4684 7.1371 12.4904c.1846.3232.5215.5039.8691.5039.168 0 .3389-.0425.4951-.1318.4795-.2739.6465-.8848.3721-1.3643L37.1452 36l7.7218-13.5137c.2744-.4795.1074-1.0903-.3721-1.3643h.0002z"/></svg>