<svg xmlns="http://www.w3.org/2000/svg" role="img" viewBox="2.72 14.72 66.43 42.43"><title>1F1FA-1F1EC.svg</title><path d="M5 17h62v38H5z"/><path fill="#f1b31c" d="M5 42h62v6H5z"/><path fill="#d22f27" d="M5 30h62v6H5zm0 18h62v7H5z"/><path fill="#f1b31c" d="M5 24h62v6H5z"/><circle cx="36" cy="36" r="6" fill="#fff"/><circle cx="35.215" cy="32.664" r=".993" stroke="#000" stroke-miterlimit="10" stroke-width="1.335"/><circle cx="36.705" cy="36.14" r=".993" stroke="#000" stroke-miterlimit="10" stroke-width="1.668"/><path stroke="#000" stroke-linecap="round" stroke-linejoin="round" stroke-width="1.001" d="M32.732 33.161h2.98"/><path stroke="#000" stroke-linecap="round" stroke-linejoin="round" stroke-width="1.668" d="M35.712 36.14v-2.979"/><path stroke="#000" stroke-linecap="round" stroke-linejoin="round" stroke-width="1.001" d="M36.705 40.114v-2.98"/><path stroke="#000" stroke-linecap="round" stroke-linejoin="round" stroke-width=".334" d="M38.5822 34.9626c-1.2029-.676-2.5481-.5659-3.0044.246l4.3563 2.4483c.4559-.8118-.149-2.0182-1.3519-2.6943z"/><g><path fill="none" stroke="#000" stroke-linecap="round" stroke-linejoin="round" stroke-width="2" d="M5 17h62v38H5z"/></g></svg>