<svg xmlns="http://www.w3.org/2000/svg" role="img" viewBox="10.00 10.00 51.87 51.87"><title>1F202.svg</title><path fill="#d0cfce" stroke-miterlimit="10" stroke-width="2" d="M59.0349 60H12.9651c-.5308 0-.9651-.4343-.9651-.9651V12.9651c0-.5308.4343-.9651.9651-.9651h46.0698c.5308 0 .9651.4343.9651.9651v46.0698c0 .5308-.4343.9651-.9651.9651z"/><path fill="none" stroke="#000" stroke-miterlimit="10" stroke-width="2" d="M59.0349 60H12.9651c-.5308 0-.9651-.4343-.9651-.9651V12.9651c0-.5308.4343-.9651.9651-.9651h46.0698c.5308 0 .9651.4343.9651.9651v46.0698c0 .5308-.4343.9651-.9651.9651z"/><path d="M49.1406 29.8502h-5.4819v-4.7826c0-.2754-.2232-.4986-.4986-.4986h-1.7307c-.2753 0-.4985.2232-.4985.4986v4.7826h-9.1624v-4.7826c0-.2754-.2232-.4986-.4985-.4986h-1.7308c-.2753 0-.4985.2232-.4985.4986v4.7826h-6.1812c-.2753 0-.4985.2232-.4985.4985v1.7307c0 .2753.2232.4985.4985.4985h6.1812v7.5797c0 .2753.2232.4985.4985.4985H31.27c.2753 0 .4985-.2232.4985-.4985V32.578h9.1624v4.9091c0 2.9573-1.1118 5.7651-3.0502 7.7035-1.2888 1.2892-2.7015 2.003-4.2061 2.1261-.264.0216-.4726.2267-.4726.4916v1.736c0 .2834.2374.5209.5203.5042 2.2291-.1318 4.2745-1.1155 6.0875-2.9292 2.4459-2.4459 3.8489-5.9564 3.8489-9.6321V32.578h5.4819c.2753 0 .4985-.2232.4985-.4985v-1.7307c0-.2754-.2232-.4986-.4985-.4986z"/></svg>