<svg xmlns="http://www.w3.org/2000/svg" role="img" viewBox="10.00 10.00 51.87 51.87"><title>1F234.svg</title><path fill="#ea5a47" d="M59.0349 60h-46.07A.9679.9679 0 0 1 12 59.0349v-46.07A.9679.9679 0 0 1 12.9651 12h46.07a.9679.9679 0 0 1 .9649.9651v46.07a.9679.9679 0 0 1-.9651.9649z"/><g fill="none" stroke="#000" stroke-width="2"><path stroke-miterlimit="10" d="M59.0349 60h-46.07A.9679.9679 0 0 1 12 59.0349v-46.07A.9679.9679 0 0 1 12.9651 12h46.07a.9679.9679 0 0 1 .9649.9651v46.07a.9679.9679 0 0 1-.9651.9649z"/><path stroke-linecap="round" stroke-linejoin="round" d="M20 31c7 0 15-11 15-11s9.5 10.5 15.5 11.5m-22-1h14m-17 20v-13h20v13m-19-2h19"/></g><path d="M20 31c7 0 15-11 15-11s9.5 10.5 15.5 11.5m-22-1h14m-17 20v-13h20v13m-19-2h19" fill="none" stroke="#fff" stroke-linecap="round" stroke-linejoin="round" stroke-width="2"/></svg>