<svg xmlns="http://www.w3.org/2000/svg" role="img" viewBox="10.00 10.00 51.87 51.87"><title>1F235.svg</title><path fill="#ea5a47" d="M59.0349 60h-46.07A.9679.9679 0 0 1 12 59.0349v-46.07A.9679.9679 0 0 1 12.9651 12h46.07a.9679.9679 0 0 1 .9649.9651v46.07a.9679.9679 0 0 1-.9651.9649z"/><g fill="none" stroke="#000" stroke-width="2"><path stroke-miterlimit="10" d="M59.0349 60h-46.07A.9679.9679 0 0 1 12 59.0349v-46.07A.9679.9679 0 0 1 12.9651 12h46.07a.9679.9679 0 0 1 .9649.9651v46.07a.9679.9679 0 0 1-.9651.9649z"/><path stroke-linecap="round" stroke-linejoin="round" d="M20.95 21.5l3 3m-4 5l3 3m4.1-8.5h23m-16-3v8m10-8v8m-18 1h26"/><path stroke-linecap="round" stroke-linejoin="round" d="M39.053 31v14h5v-5m-10 0v7"/><path stroke-linecap="round" stroke-linejoin="round" d="M39.05 45h-4m-11-5s-1 7-4 9"/><path stroke-linecap="round" stroke-linejoin="round" d="M28.053 51V35h21v15h-5"/></g><g fill="none" stroke="#fff" stroke-linecap="round" stroke-linejoin="round" stroke-width="2"><path d="M20.95 21.5l3 3m-4 5l3 3m4.1-8.5h23m-16-3v8m10-8v8m-18 1h26"/><path d="M39.053 31v14h5v-5m-10 0v7"/><path d="M39.05 45h-4m-11-5s-1 7-4 9"/><path d="M28.053 51V35h21v15h-5"/></g></svg>