<svg xmlns="http://www.w3.org/2000/svg" role="img" viewBox="10.00 10.00 51.87 51.87"><title>1F233.svg</title><path fill="#92d3f5" d="M59.0349 60h-46.07A.9679.9679 0 0 1 12 59.0349v-46.07A.9679.9679 0 0 1 12.9651 12h46.07a.9679.9679 0 0 1 .9649.9651v46.07a.9679.9679 0 0 1-.9651.9649z"/><g fill="none" stroke="#000" stroke-width="2"><path stroke-miterlimit="10" d="M59.0349 60h-46.07A.9679.9679 0 0 1 12 59.0349v-46.07A.9679.9679 0 0 1 12.9651 12h46.07a.9679.9679 0 0 1 .9649.9651v46.07a.9679.9679 0 0 1-.9651.9649z"/><path stroke-linecap="round" stroke-linejoin="round" d="M23 30v-4h25v4m-12.5-7.5V26m-4 .5s2 8-9 10"/><path stroke-linecap="round" stroke-linejoin="round" d="M38.34 26l.16 8.5h5.5858a3.4142 3.4142 0 0 0 2.4142-1h0M25 41h21m-10.5.5v8h-13m27 0h-14"/></g></svg>