<svg xmlns="http://www.w3.org/2000/svg" role="img" viewBox="10.00 10.00 51.87 51.87"><title>1F238.svg</title><path fill="#d0cfce" d="M59.0349 60h-46.07A.9679.9679 0 0 1 12 59.0349v-46.07A.9679.9679 0 0 1 12.9651 12h46.07a.9679.9679 0 0 1 .9649.9651v46.07a.9679.9679 0 0 1-.9651.9649z"/><g stroke="#000" stroke-width="2"><path fill="none" stroke-miterlimit="10" d="M59.0349 60h-46.07A.9679.9679 0 0 1 12 59.0349v-46.07A.9679.9679 0 0 1 12.9651 12h46.07a.9679.9679 0 0 1 .9649.9651v46.07a.9679.9679 0 0 1-.9651.9649z"/><path fill="none" stroke-linecap="round" stroke-linejoin="round" d="M25.5 41.5h21m0-8h-21m22 10v-17h-23v17"/><path stroke-linecap="round" stroke-linejoin="round" d="M36.5 21.5v30"/></g></svg>