<svg xmlns="http://www.w3.org/2000/svg" role="img" viewBox="10.00 10.00 51.87 51.87"><title>1F232.svg</title><path fill="#d0cfce" d="M59.0349 60h-46.07A.9679.9679 0 0 1 12 59.0349v-46.07A.9679.9679 0 0 1 12.9651 12h46.07a.9679.9679 0 0 1 .9649.9651v46.07a.9679.9679 0 0 1-.9651.9649z"/><g stroke="#000" stroke-width="2"><path stroke-linecap="round" stroke-linejoin="round" d="M25 37h22m-25.5 4.5h29"/><path fill="none" stroke-linecap="round" stroke-linejoin="round" d="M36.5 43v7.5h-5M29 44s-3 5-7 6m21-6s3 5 7 6"/><path stroke-linecap="round" stroke-linejoin="round" d="M28 22v10m-7-7.426h12.5m-12 7.926s6-4 6-8m1.3517 0s1.6483 5 4.6483 6m10-8.5v10m7-7.426H38M50 32.5s-6-4-6-8m-1.3517 0S40.6454 30.75 37 32"/><path fill="none" stroke-miterlimit="10" d="M59.0349 60h-46.07A.9679.9679 0 0 1 12 59.0349v-46.07A.9679.9679 0 0 1 12.9651 12h46.07a.9679.9679 0 0 1 .9649.9651v46.07a.9679.9679 0 0 1-.9651.9649z"/></g></svg>