<svg xmlns="http://www.w3.org/2000/svg" role="img" viewBox="7.68 4.80 59.40 62.27"><title>1F300.svg</title><path fill="none" stroke="#000" stroke-linecap="round" stroke-linejoin="round" stroke-width="2" d="M35.9896 7C50.6146 7 65 18.5833 65 35.9583 65 51.9583 52.2489 65 35.9896 65 22.1451 65 9.923 55.6042 9.923 41.1162c0-10.4059 8.4357-18.8416 18.8416-18.8416 8.3247 0 15.0733 6.7485 15.0733 15.0733 0 6.6598-5.3988 12.0586-12.0586 12.0586-5.3278 0-9.6469-4.3191-9.6469-9.6469 0-4.2623 3.4552-7.7175 7.7175-7.7175 3.4098 0 6.174 2.7642 6.174 6.174 0 2.7278-2.2114 4.9392-4.9392 4.9392-2.1823 0-3.9578-1.7691-3.9514-3.9514.0053-1.8015 1.213-2.8736 2.8239-2.4426.2681.0717.6559.2764.9406.633.3572.4473.4259.9031.4636 1.3122"/></svg>