<svg xmlns="http://www.w3.org/2000/svg" role="img" viewBox="14.56 1.68 42.76 68.51"><title>1F31B.svg</title><path fill="#FCEA2B" d="M27.9578 51.4548s-5.0913-2.0786-1.8269-4.9398c-.9642-.7385-1.334-1.4501-.1731-2.7025 2.6458-2.8542-.5-3.4375-.5-3.4375s-7.9375-.5625-3.5625-5.375c2.595-2.8546 4.0848-6.1183 4.9173-8.5959.8125-2.4181.6538-5.0501-.4059-7.3704-2.2514-4.9298-5.4489-9.1764-9.4854-12.8921-.6151-.5663-.3024-1.597.5234-1.728C19.1465 4.1435 20.8913 4 22.6711 4c18.0768 0 32.7308 14.3269 32.7308 32S40.7478 68 22.6711 68c-1.78 0-3.5251-.1436-5.227-.4136-.9135-.145-1.1599-1.3244-.3778-1.8182 7.8492-4.9554 10.4589-9.9207 10.8915-14.3134"/><path fill="#F1B31C" d="M17.9615 4.3223C19.731 4.019 21.2157 4 23.0717 4c17.6731 0 32 14.3269 32 32s-14.3269 32-32 32c-1.719 0-3.4063-.1355-5.0518-.3965 0 0-.6874-.3097-.7793-1.1742 0 0 3.0381.3419 4.6022.3419 16.9944 0 30.7711-13.7767 30.7711-30.7711S38.8372 5.2289 21.8428 5.2289c-1.6727 0-3.3142.1335-4.9145.3903"/><g><circle cx="36" cy="27.25" r="3"/><path fill="none" stroke="#000" stroke-linecap="round" stroke-linejoin="round" stroke-miterlimit="10" stroke-width="2" d="M35.6964 46c-1.7512 1.9458-4.0751 2.277-5.7064 2.2156-1.3131-.0494-2.6027-.445-3.646-1.244-.9642-.7385-1.8491-1.9067-.6881-3.1591 2.7753-3.0819-.5-3.4375-.5-3.4375s-7.9375-.5625-3.5625-5.375c2.5981-2.8579 4.0883-6.126 4.9203-8.6047.8098-2.4127.6517-5.0381-.405-7.3533-2.1099-4.6228-5.0514-8.645-8.7365-12.192-.9229-.8884-.4162-2.431.8548-2.5905C19.5833 4.0893 20.9654 4 22.3692 4 40.4459 4 55.1 18.3269 55.1 36S40.4459 68 22.3691 68c-1.2874 0-2.5566-.0751-3.8043-.2188-1.3842-.1595-1.8611-1.9482-.7056-2.7269 7-4.717 9.3849-9.4177 9.7967-13.5995M25.829 46.515c-3.2644 2.8612 1.8269 4.9398 1.8269 4.9398m3.5629-31.5798s4.7812-3 9.5625 1.9062"/></g></svg>