<svg xmlns="http://www.w3.org/2000/svg" role="img" viewBox="5.84 5.84 60.32 60.20"><title>1F316.svg</title><path d="M55 35a28.001 28.001 0 0 1-26.5465 27.9626A27.9995 27.9995 0 1 0 36 8q-.7312 0-1.4535.0374A28.0059 28.0059 0 0 1 55 35z"/><circle cx="36" cy="36" r="28" fill="#fcea2b" stroke="#3f3f3f" stroke-linecap="round" stroke-linejoin="round" stroke-width="2"/><path fill="#3f3f3f" d="M55 35a28.001 28.001 0 0 1-26.5465 27.9626A27.9995 27.9995 0 1 0 36 8q-.7312 0-1.4535.0374A28.0059 28.0059 0 0 1 55 35z"/><g fill="none" stroke="#000" stroke-linecap="round" stroke-linejoin="round" stroke-width="2"><circle cx="36" cy="36" r="28"/><path d="M55 35a28.001 28.001 0 0 1-26.5465 27.9626A27.9995 27.9995 0 1 0 36 8q-.7312 0-1.4535.0374A28.0059 28.0059 0 0 1 55 35z"/></g></svg>