<svg xmlns="http://www.w3.org/2000/svg" role="img" viewBox="1.68 1.93 68.51 68.01"><title>1F31E.svg</title><path fill="#FCEA2B" d="M36 10l-4.552-5.678-2.777 6.724-5.97-4.16-.757 7.237-6.901-2.306 1.306 7.158-7.271-.279 3.264 6.502-7.053 1.785 4.973 5.312L4 36l6.262 3.705-4.973 5.312 7.054 1.786-3.264 6.502 7.271-.279-1.306 7.158 6.901-2.307.758 7.237 5.968-4.16 2.777 6.724L36 62l4.552 5.678 2.777-6.725 5.97 4.161.757-7.237 6.901 2.306-1.306-7.158 7.271.279-3.264-6.502 7.053-1.785-4.973-5.312L68 36l-6.262-3.705 4.973-5.312-7.054-1.786 3.264-6.502-7.271.279 1.306-7.158-6.9 2.307-.759-7.237-5.968 4.16-2.777-6.724z"/><path fill="none" stroke="#000" stroke-linecap="round" stroke-linejoin="round" stroke-miterlimit="10" stroke-width="2" d="M36 10l-4.552-5.678-2.777 6.724-5.97-4.16-.757 7.237-6.901-2.306 1.306 7.158-7.271-.279 3.264 6.502-7.053 1.785 4.973 5.312L4 36l6.262 3.705-4.973 5.312 7.054 1.786-3.264 6.502 7.271-.279-1.306 7.158 6.901-2.307.758 7.237 5.968-4.16 2.777 6.724L36 62l4.552 5.678 2.777-6.725 5.97 4.161.757-7.237 6.901 2.306-1.306-7.158 7.271.279-3.264-6.502 7.053-1.785-4.973-5.312L68 36l-6.262-3.705 4.973-5.312-7.054-1.786 3.264-6.502-7.271.279 1.306-7.158-6.9 2.307-.759-7.237-5.968 4.16-2.777-6.724z"/><circle cx="27.846" cy="33.789" r="3"/><circle cx="44.154" cy="33.789" r="3"/><path fill="none" stroke="#000" stroke-linecap="round" stroke-linejoin="round" stroke-miterlimit="10" stroke-width="2" d="M43.6763 46.3816c-2.1347 1.5846-4.8139 2.5518-7.6766 2.5518-2.9019 0-5.5262-.9282-7.6759-2.5523m3.451-23.3769S27 20.4039 22.2252 24.6565m18-1.6523S45 20.4039 49.7748 24.6565"/></svg>