<svg xmlns="http://www.w3.org/2000/svg" role="img" viewBox="5.06 4.81 61.49 61.62"><title>1F319.svg</title><path fill="#FCEA2B" d="M7.3634 42.4095c4.5525 6.1703 11.874 10.1726 20.1303 10.1726 13.8071 0 25-11.1929 25-25 0-8.5226-4.2646-16.0492-10.7763-20.5621 13.0383 2.8385 22.7812 14.4426 22.7812 28.3317 0 16.0163-12.9837 29-29 29-13.5877 0-24.9889-9.3288-28.1352-21.9422z"/><path fill="#F1B31C" d="M45.8373 9.2108c8.25 4.25 16.1946 11.8724 16.1946 24.6742 0 15.4494-12.5242 27.9735-27.9735 27.9735-9.2431 0-19.7524-4.8353-24.294-15.5436 0 0 4.3805 18.6568 25.7189 18.665 19.327.0074 28.0419-20.6218 28.0419-20.6218C70.033 12.3815 45.8373 9.2108 45.8373 9.2108z"/><g><path fill="none" stroke="#000" stroke-linecap="round" stroke-linejoin="round" stroke-miterlimit="10" stroke-width="2" d="M7.3634 42.4095c4.5525 6.1703 11.874 10.1726 20.1303 10.1726 13.8071 0 25-11.1929 25-25 0-8.5226-4.2646-16.0492-10.7763-20.5621 13.0383 2.8385 22.7812 14.4426 22.7812 28.3317 0 16.0163-12.9837 29-29 29-13.5877 0-24.9889-9.3288-28.1352-21.9422z"/></g></svg>