<svg xmlns="http://www.w3.org/2000/svg" role="img" viewBox="21.51 3.76 28.85 64.35"><title>1F32F.svg</title><path fill="#b1cc33" d="M23 23.5244v-7.6181l.8633-.002c.5-.5049 1.1777-.832 1.9326-.8838C25.3066 14.4863 25 13.7813 25 13c0-1.6562 1.3438-3 3-3 0-1.6562 1.3438-3 3-3 .8691 0 1.6465.376 2.1934.9668C33.6162 6.8213 34.708 6 36 6s2.3838.8213 2.8066 1.9668C39.3535 7.376 40.1309 7 41 7c1.6563 0 3 1.3438 3 3 1.6563 0 3 1.3438 3 3 0 .7813-.3066 1.4863-.7959 2.0205.7559.0518 1.4355.3799 1.9355.8858H49v8L36 34.5244l-13-11z"/><path fill="#ea5a47" d="M39 15c-.3232 0-.6377.0366-.9443.0952C37.1484 13.8311 35.6748 13 34 13c-2.1582 0-3.998 1.3672-4.6973 3.2827-.0136.0381-.6435-1.0088-.6572-.9702-.1699.5029-.4141 1.3784-.458 1.9375-.25 3.1563 3.0508 15.751 5.8125 15.751.3232 0 .6377-.0362.9443-.0947.9073 1.2646 2.3809 2.0947 4.0557 2.0947 2.7617 0 4.4063-12.1773 4.4063-14.9385 0-1.3428.375-3.1875-.7344-4.7812-.0117-.0171-.0918 1.2285-.1065 1.2138C41.6592 15.5723 40.3965 15 39 15z"/><path fill="#fcea2b" d="M43 61c-10.666-11.5977-10.666-30.4023 0-42h2c1.6563 0 3 1.3438 3 3v39c0 2.7617-2.2383 5-5 5H29c-2.7617 0-5-2.2383-5-5V22c0-1.6562 1.3438-3 3-3h2c3.4346 3.7344 5.7637 8.2168 6.9863 12.9648"/><g fill="none" stroke="#000" stroke-linecap="round" stroke-linejoin="round" stroke-miterlimit="10" stroke-width="2"><path d="M48.1396 15.9063c-.5-.5059-1.1796-.834-1.9355-.8858C46.6934 14.4863 47 13.7813 47 13c0-1.6562-1.3437-3-3-3 0-1.6562-1.3437-3-3-3-.8691 0-1.6465.376-2.1934.9668C38.3838 6.8213 37.292 6 36 6s-2.3838.8213-2.8066 1.9668C32.6465 7.376 31.8691 7 31 7c-1.6562 0-3 1.3438-3 3-1.6562 0-3 1.3438-3 3 0 .7813.3066 1.4863.7959 2.0205-.7549.0518-1.4326.3789-1.9326.8838m12.1172 32.1494C34.7578 52.7949 32.4297 57.2695 29 61"/><path d="M43 61c-10.666-11.5977-10.666-30.4023 0-42h2c1.6563 0 3 1.3438 3 3v39c0 2.7617-2.2383 5-5 5H29c-2.7617 0-5-2.2383-5-5V22c0-1.6562 1.3438-3 3-3h2c3.4346 3.7344 5.7637 8.2168 6.9863 12.9648m6.001-15.9707C41.1543 15.3706 40.1211 15 39 15c-.3232 0-.6377.0366-.9443.0952C37.1484 13.8311 35.6748 13 34 13c-1.9131 0-3.5605 1.0811-4.3975 2.6611"/></g></svg>