<svg xmlns="http://www.w3.org/2000/svg" role="img" viewBox="8.96 9.59 53.95 52.58"><title>1F329.svg</title><path fill="#FCEA2B" d="M31.0827 42.8817l-3.7893 6.7541c-.2732.2863-.0517.7346.3629.7346h8.4435l-5.845 9.2144c-.3172.5.3444 1.0389.7699.6271l13.669-13.2268c.2916-.2821.0737-.7475-.35-.7475h-8.1735l1.5388-3.3558-6.6263-.0001z"/><path fill="#d0cfce" d="M19.2787 22.469c-.031.3535-.3174.6396-.6721.6775C14.307 23.6072 11 27.8408 11 32.994c0 5.4608 3.7871 9.8877 8.4588 9.8877h32.248c5.1325 0 9.2932-4.6783 9.2932-10.4492 0-5.5305-3.8212-10.0575-8.6569-10.4251-.37-.0281-.67-.2871-.7406-.6494-1.0803-5.5472-6.0636-9.7159-11.9553-9.7159-3.829 0-7.2399 1.7335-9.4549 4.4912-.2164.2695-.5797.3929-.8992.2589-.8523-.3575-1.7525-.5304-2.7597-.5304-3.8062 0-6.9303 2.9047-7.2547 6.6072z"/><g fill="none" stroke="#000" stroke-linecap="round" stroke-linejoin="round" stroke-miterlimit="10"><path stroke-width="2" d="M19.2787 22.469c-.031.3535-.3174.6396-.6721.6775C14.307 23.6072 11 27.8408 11 32.994c0 5.4608 3.7871 9.8877 8.4588 9.8877h32.248c5.1325 0 9.2932-4.6783 9.2932-10.4492 0-5.5305-3.8212-10.0575-8.6569-10.4251-.37-.0281-.67-.2871-.7406-.6494-1.0803-5.5472-6.0636-9.7159-11.9553-9.7159-3.829 0-7.2399 1.7335-9.4549 4.4912-.2164.2695-.5797.3929-.8992.2589-.8523-.3575-1.7525-.5304-2.7597-.5304-3.8062 0-6.9303 2.9047-7.2547 6.6072z"/><path stroke-width="1.8" d="M31.0827 42.8817l-3.7893 6.7541c-.2732.2863-.0517.7346.3629.7346h8.4435l-5.845 9.2144c-.3172.5.3444 1.0389.7699.6271l13.669-13.2268c.2916-.2821.0737-.7475-.35-.7475h-8.1735l1.5388-3.3558-6.6263-.0001z"/></g></svg>