<svg xmlns="http://www.w3.org/2000/svg" role="img" viewBox="10.00 10.00 51.87 51.87"><title>1F32D.svg</title><path fill="#f4aa41" d="M48.6367 13.4648c-1.9512-1.9531-5.1172-1.9531-7.0703 0L13.4648 41.5645c-1.9531 1.9531-1.9531 5.1191-.0019 7.0712l9.9004 9.8995c1.9531 1.9531 5.1191 1.9531 7.0703 0l28.1035-28.0997c1.9512-1.9531 1.9512-5.1191 0-7.0712l-9.9004-9.8995z"/><path fill="#ea5a47" d="M20.5352 58.5352c-1.9532 1.9531-5.1192 1.9531-7.0723 0-1.9512-1.9522-1.9512-5.1182 0-7.0704l38.0019-38c1.9532-1.9531 5.1192-1.9531 7.0723 0 1.9512 1.9522 1.9512 5.1182 0 7.0704l-38.0019 38z"/><g fill="none" stroke="#000" stroke-linecap="round" stroke-linejoin="round" stroke-miterlimit="10" stroke-width="2"><path d="M27 45.001c0 1.6562-1.3437 3.001-3.001 3.001-1.6572 0-2.999 1.3437-3 3M39.002 33c0 1.6563-1.3438 3-3.002 3-1.6562 0-2.999 1.3438-3 3m0 0c0 1.6563-1.3418 3.001-3 3-1.6572 0-3 1.3447-3 3.001m18.002-18.003c0 1.6573-1.3418 3.002-3 3.001-1.6582 0-3 1.3448-3 3.001m12-12.002c0 1.6563-1.3418 3-3 3-1.6563 0-3 1.3448-3 3"/><path d="M20.5352 58.5352c-1.9532 1.9531-5.1192 1.9531-7.0723 0-1.9512-1.9522-1.9512-5.1182 0-7.0704l38.0019-38c1.9532-1.9531 5.1192-1.9531 7.0723 0 1.9512 1.9522 1.9512 5.1182 0 7.0704l-38.0019 38z"/><path d="M50.0508 14.8789l-1.4141-1.4141c-1.9512-1.9531-5.1172-1.9531-7.0703 0L13.4648 41.5645c-1.9531 1.9531-1.9531 5.1191-.0019 7.0712l1.416 1.4151m7.0703 7.0703l1.4141 1.4141c1.9531 1.9531 5.1191 1.9531 7.0703 0l28.1035-28.0997c1.9512-1.9531 1.9512-5.1191 0-7.0712l-1.4141-1.4151"/></g></svg>