<svg xmlns="http://www.w3.org/2000/svg" role="img" viewBox="0.64 5.02 70.59 61.34"><title>1F32A.svg</title><g id="color" fill="none" stroke="#d0cfce" stroke-linecap="round" stroke-linejoin="round" stroke-miterlimit="10"><path stroke-width="4" d="M36 15.5432c-17.6731 0-32-1.5881-32-3.5471M4 12.0067c0-1.959 14.3269-3.5471 32-3.5471s32 1.5881 32 3.5471v-.0106"/><path stroke-width="2" d="M66 17.0232c0 1.8366-13.4315 3.3254-30 3.3254S6 18.8598 6 17.0232M64 22.3986c0 1.7141-12.536 3.1037-28 3.1037S8 24.1127 8 22.3986M62 27.5023c0 1.5917-11.6406 2.882-26 2.882s-26-1.2903-26-2.882M58 33.3643c0 1.3468-9.8497 2.4386-22 2.4386s-22-1.0918-22-2.4386M54 38.803c0 1.1019-8.0589 1.9952-18 1.9952s-18-.8933-18-1.9952M50 43.7982c0 .8571-6.268 1.5519-14 1.5519s-14-.6948-14-1.5519M46 48.8601c0 .6122-4.4772 1.1085-10 1.1085s-10-.4963-10-1.1085M44 53.4685c0 .4897-3.5817.8868-8 .8868s-8-.397-8-.8868M40 58.3553c0 .2449-1.7909.4434-4 .4434s-4-.1985-4-.4434M38 62.7987c0 .1224-.8954.2217-2 .2217s-2-.0993-2-.2217"/></g><g id="line" fill="none" stroke="#000" stroke-linecap="round" stroke-linejoin="round" stroke-miterlimit="10" stroke-width="2"><path d="M36 15.5432c-17.6731 0-32-1.5881-32-3.5471M4 12.0067c0-1.959 14.3269-3.5471 32-3.5471s32 1.5881 32 3.5471v-.0106M66 18.0632c0 1.8366-13.4315 3.3254-30 3.3254S6 19.8998 6 18.0632M64 23.3886c0 1.7141-12.536 3.1037-28 3.1037S8 25.1027 8 23.3886M62 28.4923c0 1.5917-11.6406 2.882-26 2.882s-26-1.2903-26-2.882M58 34.3743c0 1.3468-9.8497 2.4386-22 2.4386s-22-1.0918-22-2.4386M54 39.813c0 1.1019-8.0589 1.9952-18 1.9952s-18-.8933-18-1.9952M50 44.8082c0 .8571-6.268 1.5519-14 1.5519s-14-.6948-14-1.5519M46 49.8601c0 .6122-4.4772 1.1085-10 1.1085s-10-.4963-10-1.1085M44 54.4685c0 .4897-3.5817.8868-8 .8868s-8-.397-8-.8868M40 59.3553c0 .2449-1.7909.4434-4 .4434s-4-.1985-4-.4434M38 63.7987c0 .1224-.8954.2217-2 .2217s-2-.0993-2-.2217"/></g></svg>