<svg xmlns="http://www.w3.org/2000/svg" role="img" viewBox="2.46 7.21 66.95 57.45"><title>1F324.svg</title><path fill="#fcea2b" d="M50.0652 42.7786l.0966-.3192c.9466-3.1267.787-7.2348-.3992-10.2787l4.7839-7.9243-9.3366.4142.17-10.1731-8.5672 5.3173-4.4187-9.1046-5.2924 9.1045-7.7357-5.2431-.6612 10.0984-8.6786-.6333 3.8228 9.0305-7.496 3.9345 7.4959 5.7766-4.1548 7.5762 9.6637-.2225-.8114 10.5292 8.5551-4.6302 22.9639-13.2524z"/><path fill="#fff" d="M34.791 46.6066c-.0241.2749-.2468.4973-.5226.5268-3.3432.3581-5.9145 3.65-5.9145 7.6568 0 4.2461 2.9447 7.6882 6.5771 7.6882h25.0744c3.9908 0 7.2259-3.6376 7.2259-8.1248 0-4.3002-2.9712-7.8202-6.7312-8.106-.2877-.0219-.521-.2232-.5758-.505-.84-4.3132-4.7148-7.5546-9.2958-7.5546-2.9773 0-5.6294 1.3479-7.3517 3.4921-.1683.2095-.4507.3055-.6992.2013-.6627-.2779-1.3626-.4124-2.1458-.4124-2.9594.0002-5.3886 2.2587-5.6408 5.1376z"/><g fill="none" stroke="#000" stroke-linecap="round" stroke-linejoin="round" stroke-width="2"><path d="M24.4645 53.5202c-6.1162-2.9451-10.3373-9.202-10.3373-16.4446 0-10.0744 8.1669-18.2414 18.2414-18.2414 9.0895 0 16.6262 6.648 18.013 15.347"/><path d="M24.547 56.982l-5.984 4.043.795-10.893-10.893.795 6.126-9.039-9.822-4.767 9.822-4.766-6.126-9.039 10.893.794-.794-10.892 9.038 6.126 4.767-9.823 4.767 9.823 9.039-6.126-.795 10.893 10.892-.795-6.126 9.039"/><path d="M34.791 46.6066c-.0241.2749-.2468.4973-.5226.5268-3.3432.3581-5.9145 3.65-5.9145 7.6568 0 4.2461 2.9447 7.6882 6.5771 7.6882h25.0744c3.9908 0 7.2259-3.6376 7.2259-8.1248 0-4.3002-2.9712-7.8202-6.7312-8.106-.2877-.0219-.521-.2232-.5758-.505-.84-4.3132-4.7148-7.5546-9.2958-7.5546-2.9773 0-5.6294 1.3479-7.3517 3.4921-.1683.2095-.4507.3055-.6992.2013-.6627-.2779-1.3626-.4124-2.1458-.4124-2.9594.0002-5.3886 2.2587-5.6408 5.1376z"/></g></svg>