<svg xmlns="http://www.w3.org/2000/svg" role="img" viewBox="8.96 9.59 53.95 52.70"><title>1F328.svg</title><path fill="#d0cfce" d="M19.2787 22.4402c-.031.3535-.3174.6396-.6721.6775C14.307 23.5783 11 27.8119 11 32.9652c0 5.4608 3.7871 9.8877 8.4588 9.8877h32.248c5.1325 0 9.2932-4.6783 9.2932-10.4492 0-5.5305-3.8212-10.0575-8.6569-10.4251-.37-.0281-.67-.2871-.7406-.6494-1.0803-5.5472-6.0636-9.7159-11.9553-9.7159-3.829 0-7.2399 1.7335-9.4549 4.4912-.2164.2695-.5797.3929-.8992.2589-.8523-.3575-1.7525-.5304-2.7597-.5304-3.8062 0-6.9303 2.9046-7.2547 6.6072z"/><g fill="none" stroke="#000" stroke-linecap="round" stroke-linejoin="round" stroke-miterlimit="10"><path stroke-width="2" d="M19.2787 22.4402c-.031.3535-.3174.6396-.6721.6775C14.307 23.5783 11 27.8119 11 32.9652c0 5.4608 3.7871 9.8877 8.4588 9.8877h32.248c5.1325 0 9.2932-4.6783 9.2932-10.4492 0-5.5305-3.8212-10.0575-8.6569-10.4251-.37-.0281-.67-.2871-.7406-.6494-1.0803-5.5472-6.0636-9.7159-11.9553-9.7159-3.829 0-7.2399 1.7335-9.4549 4.4912-.2164.2695-.5797.3929-.8992.2589-.8523-.3575-1.7525-.5304-2.7597-.5304-3.8062 0-6.9303 2.9046-7.2547 6.6072z"/><path stroke-width="1.8" d="M28.768 52.519v7.868m-3.36-1.967l6.719-3.935m0 3.935l-6.719-3.935m30.883-8.445v7.222m-3.083-1.805l6.166-3.612m0 3.612l-6.166-3.612m-36.25-.805v7.222m-3.084-1.805l6.167-3.612m0 3.612l-6.167-3.612m28.835-.769v12.007m-5.126-3.001l10.253-6.005m0 6.005l-10.253-6.005"/></g></svg>