<svg xmlns="http://www.w3.org/2000/svg" role="img" viewBox="12.59 9.09 46.69 53.69"><title>1F34C.svg</title><g stroke-linecap="round" stroke-linejoin="round" stroke-width=".75"><path fill="#fcea2b" stroke="#fcea2b" d="M50.46 50.44c-10.9856 12.9865-25.1263 11.6682-34.8931 6.8853-.3134-.1535-.4574-.5248-.5316-.8658h0c-.1926-.8861.4504-1.7241 1.3547-1.7915 5.1942-.3873 12.9572-2.15 21.7079-9.6086a21.4919 21.4919 0 0 0 3.023-3.1625c4.8861-6.2847 9.1044-14.3883 9.3487-20.9704.0191-.5158.4228-.9361.9386-.9522 3.1225-.0975 2.6958-.2368 2.9494.3666 4.1634 9.9069 2.5163 22.0073-3.8909 30.0972l-.0068.0019z"/><path fill="#f1b31c" stroke="#f1b31c" d="M53.21 19.66c3.7161-1.2359 6.0438 20.6414-1.9939 30.488-11.8 11.01-23.6641 12.652-36.2541 5.914 25.96 5.489 39.47-15.38 38.25-36.4l-.002-.002z"/></g><g fill="none" stroke="#000" stroke-linecap="round" stroke-linejoin="round" stroke-width="2"><path d="M52.09 15.49l-.57-4.29M25.79 56.55c16.7-2.905 24.45-11.14 26.67-27.09"/><path d="M47.54 54.03c-8.106 7.212-23.05 9.45-32.43 2.757l-.4132-1.901c18.42-2.206 32.78-13.96 35.36-35.55 1.105-.0041 4.645-.3957 4.645-.3957 5.599 15.1 1.754 27.15-7.164 35.08l.0022.0097z"/></g></svg>