<svg xmlns="http://www.w3.org/2000/svg" role="img" viewBox="19.77 6.65 38.33 57.20"><title>1F340.svg</title><path fill="#B1CC33" d="M48.8683 32.5567l-3.6904-3.0993 4.6308 1.3342c2.4301.4831 4.6846.3218 5.7975-1.7671 1.113-2.089.3218-4.6848-1.7671-5.7977l-1.8912-1.0076.3358-.6302.6718-1.2609c1.113-2.089.3217-4.6845-1.7672-5.7975-2.089-1.113-4.0135-.0094-5.7975 1.7671l-3.0993 3.6905 1.3342-4.6309c.4889-2.365.3217-4.6845-1.7672-5.7975s-4.6846-.3218-5.7975 1.7671l-1.0076 1.8912-.6304-.3359-1.2608-.6717c-2.089-1.113-4.6847-.3216-5.7976 1.7674s-.1912 4.1826 1.7672 5.7975l4.5599 3.5592.0131.0103-4.5529-1.4901c-.8837-.2891-1.7981-.4974-2.7272-.5326-1.6529-.0626-3.0631.3703-3.9169 1.7848-1.2833 2.126-.3442 4.934 1.8474 6.1016l1.6972.9042-.3359.6305-.5832 1.0946c-1.1477 2.1542-.3756 4.9596 1.816 6.034 2.0382.9996 3.9666.0256 5.6601-1.8373l3.0993-3.6905-1.3342 4.6309c-.5042 2.0202-.3217 4.6845 1.7672 5.7975 2.089 1.113 4.6846.3218 5.7975-1.7671l1.0077-1.8914.6304.3359 1.2608.6717c2.089 1.113 4.6846.3218 5.7975-1.7671 1.1129-2.0892.2515-4.066-1.7673-5.7978z"/><g fill="none" stroke="#000" stroke-linecap="round" stroke-linejoin="round" stroke-width="2"><path d="M30.3663 41.0292c-3.438 3.548-7.676 10.246-5.829 20.735"/><path stroke-miterlimit="10" d="M45.1016 29.3352l4.5993 1.439c2.4184.5383 4.6761.4281 5.8362-1.635s.4281-4.6761-1.635-5.8362l-1.8678-1.0503.3501-.6226.7002-1.2452c1.1601-2.0631.4281-4.6761-1.635-5.8362s-4.0122-.1006-5.8362 1.635l-3.1823 3.619m-6.8619 12.2031l-1.439 4.5993c-.5499 2.0082-.4281 4.6761 1.635 5.8362s4.6761.4281 5.8362-1.635l1.0503-1.8678.6226.3501 1.2452.7002c2.0631 1.1601 4.6761.4281 5.8362-1.635s.3439-4.059-1.635-5.8362l-3.619-3.1823m-11.3314-6.3719l-4.518-1.5931c-.8768-.3092-1.7863-.5383-2.7143-.5946-1.651-.1002-3.0707.3006-3.9564 1.6953-1.3313 2.0963-.4564 4.925 1.7081 6.1422l1.6762.9426-.3501.6226-.6079 1.0811c-1.1963 2.1275-.4881 4.9496 1.6785 6.0737 2.015 1.0455 3.965.1156 5.7005-1.7084l3.1823-3.619"/><path stroke-miterlimit="10" d="M42.4311 19.8028l1.439-4.5993c.5425-2.3533.4281-4.6761-1.635-5.8362s-4.6761-.4281-5.8362 1.635L35.3486 12.87l-.6226-.3501-1.2452-.7002c-2.0631-1.1601-4.6761-.4281-5.8362 1.635s-.2862 4.1772 1.635 5.8362l4.4907 3.6725"/></g></svg>