<svg xmlns="http://www.w3.org/2000/svg" role="img" viewBox="8.65 4.90 54.20 57.07"><title>1F345.svg</title><g stroke-linejoin="round" stroke-miterlimit="10"><ellipse cx="35.825" cy="37.597" fill="#EA5A47" stroke="#EA5A47" stroke-linecap="round" stroke-width="1.8" rx="25.015" ry="22.382"/><path fill="#D22F27" stroke="#D22F27" stroke-width="1.8" d="M60.5279 37.5975c0 12.3648-10.89 22.3817-24.703 22.3817 17.4001-4.1037 31.9603-32.9321 0-44.7634 5.0852 0 9.8164 1.3576 13.7651 3.6901 6.7774 4.0033 10.9379 10.8787 10.9379 18.6916z"/><path fill="#B1CC33" stroke-width="2" d="M46.3245 15.8489c-.384 1.3824-.9937 3.0311-2.4357 4.235C38 25 30.2513 23.2876 26.8173 20.0838c-1.3604-1.2836-2.0407-2.8525-2.4246-4.235-.6364-2.2821-.3621-4.1691-.3621-4.1691s2.2821-.3291 4.8384.5815c.8668.3072 1.7664.757 2.6222 1.4044.4827-3.3682 2.7319-5.6174 3.5547-6.3415l.3072-.2523.3072.2523c.8229.7242 3.0721 2.9733 3.5548 6.3415.8557-.6473 1.7554-1.0971 2.6221-1.4044 2.5564-.9106 4.8384-.5815 4.8384-.5815s.2853 1.8871-.3511 4.1692z"/></g><g fill="none" stroke="#000" stroke-linejoin="round" stroke-miterlimit="10" stroke-width="2"><path stroke-linecap="round" d="M50.3073 19.3462c6.3743 4.0565 10.5324 10.7195 10.5324 18.2513 0 12.3611-11.1995 22.3817-25.0149 22.3817S10.81 49.9586 10.81 37.5975c0-7.3745 3.9861-13.9159 10.1357-17.9936"/><path d="M46.3245 15.8489c-.384 1.3824-.9937 3.0311-2.4357 4.235C38 25 30.2513 23.2876 26.8173 20.0838c-1.3604-1.2836-2.0407-2.8525-2.4246-4.235-.6364-2.2821-.3621-4.1691-.3621-4.1691s2.2821-.3291 4.8384.5815c.8668.3072 1.7664.757 2.6222 1.4044.4827-3.3682 2.7319-5.6174 3.5547-6.3415l.3072-.2523.3072.2523c.8229.7242 3.0721 2.9733 3.5548 6.3415.8557-.6473 1.7554-1.0971 2.6221-1.4044 2.5564-.9106 4.8384-.5815 4.8384-.5815s.2853 1.8871-.3511 4.1692z"/></g></svg>