<svg xmlns="http://www.w3.org/2000/svg" role="img" viewBox="13.95 12.70 43.98 48.23"><title>1F34A.svg</title><circle cx="36" cy="39.073" r="21" fill="#f1b31c"/><circle cx="26" cy="46.346" r=".909"/><circle cx="26.909" cy="49.983" r=".909"/><circle cx="29.636" cy="47.255" r=".909"/><path fill="#e27022" d="M49.2942 22.8145a9.6511 9.6511 0 0 1-2.5425 1.5039 9.46 9.46 0 0 1-1.7473.503 20.9459 20.9459 0 0 1-15.4727 34.2125 20.9849 20.9849 0 0 0 19.7625-36.2194z"/><path fill="#b1cc33" d="M36 22.3263a7.2293 7.2293 0 0 1 4.2028.8654c3.5973 2.06 9.6312.0634 11.2842-5.3548a4.077 4.077 0 0 1-2.427-1.3621c-2.4795-2.9866-10.2472-3.2113-13.06 5.8515z"/><g fill="none" stroke="#000" stroke-linecap="round" stroke-linejoin="round" stroke-width="2"><path d="M36 22.3263a7.2293 7.2293 0 0 1 4.2028.8654c3.5973 2.06 9.6312.0634 11.2842-5.3548a4.077 4.077 0 0 1-2.427-1.3621c-2.4795-2.9866-10.2472-3.2113-13.06 5.8515zm13.8321 2.3016a19.9974 19.9974 0 1 1-17.9451-5.1311m-.5125-4.8726S36.4906 15.674 36 22.3263"/></g></svg>