<svg xmlns="http://www.w3.org/2000/svg" role="img" viewBox="13.36 4.98 45.16 52.91"><title>1F355.svg</title><path fill="#f4aa41" d="M52.2637 19.7373c.4765.4775.916.9775 1.3418 1.4854l2.9004-5.7286c-11.3252-11.3252-29.6875-11.3252-41.0118 0l2.9004 5.7286c.4258-.5079.8653-1.0079 1.3418-1.4854 8.9834-8.9834 23.544-8.9834 32.5274 0z"/><path fill="#fcea2b" d="M53.6055 21.2227c-.4258-.5079-.8653-1.0079-1.3418-1.4854-8.9834-8.9834-23.544-8.9834-32.5274 0-.4765.4775-.916.9775-1.3418 1.4854L36 56l17.6055-34.7773z"/><circle cx="31" cy="24" r="5" fill="#ea5a47"/><circle cx="44" cy="24" r="3" fill="#ea5a47"/><circle cx="37" cy="36" r="3" fill="#ea5a47"/><g fill="none" stroke="#000" stroke-linecap="round" stroke-linejoin="round" stroke-miterlimit="10" stroke-width="2"><path d="M52.2637 19.7373c.4765.4775.916.9775 1.3418 1.4854l2.9004-5.7286c-11.3252-11.3252-29.6875-11.3252-41.0118 0l2.9004 5.7286c.4258-.5079.8653-1.0079 1.3418-1.4854 8.9834-8.9834 23.544-8.9834 32.5274 0z"/><path d="M53.6055 21.2227c-.4258-.5079-.8653-1.0079-1.3418-1.4854-8.9834-8.9834-23.544-8.9834-32.5274 0-.4765.4775-.916.9775-1.3418 1.4854L36 56l17.6055-34.7773z"/><circle cx="31" cy="24" r="5"/><circle cx="44" cy="24" r="3"/><circle cx="37" cy="36" r="3"/></g></svg>