<svg xmlns="http://www.w3.org/2000/svg" role="img" viewBox="4.80 6.80 62.27 60.27"><title>1F35A.svg</title><path fill="#FFF" d="M8.1221 36v-3.5859c-.1543-.4287.8281-.9073.999-1.3672.126-.336.3379-.6114.5957-.8272-.4834-.5361-.666-1.3095-.3965-2.0332.3067-.8232 1.0986-1.3154 1.9307-1.292-.1895-.4521-.2188-.9736-.0342-1.4697.1865-.5.5537-.8769.998-1.0937-.2265-.4727-.2714-1.0332-.0742-1.5635.3291-.8809 1.2119-1.3867 2.1065-1.2822-.1446-.419-.1651-.8838.0029-1.3331.3857-1.0351 1.5381-1.5615 2.5723-1.1757.0947.0351.1787.083.2646.1308-.0654-.3467-.0469-.7129.085-1.0674.2099-.5625.6494-.9677 1.1699-1.165-.2647-.4902-.332-1.083-.1221-1.6465.3858-1.0342 1.5371-1.5605 2.5723-1.1758.3545.1328.6435.3594.8623.6348.0205-.0947.04-.1904.0752-.2852.3047-.8173 1.0889-1.3085 1.915-1.2929-.0908-.375-.0752-.7793.0694-1.168.3857-1.0351 1.5381-1.5615 2.5722-1.1758.3555.1319.6436.3584.8633.6348.0195-.0957.0391-.1914.0742-.2852.334-.8974 1.2461-1.4101 2.1563-1.2798C29.7432 9.3315 30.3311 9 31 9c.873 0 1.6074.563 1.8799 1.3428C33.2002 10.1265 33.585 10 34 10c.0898 0 .1768.0151.2627.0264C34.6055 9.417 35.251 9 36 9s1.3945.417 1.7373 1.0264C37.8232 10.0151 37.9102 10 38 10c.415 0 .7998.1265 1.1201.3428C39.3926 9.563 40.127 9 41 9c.6689 0 1.2568.3315 1.6201.8354.9102-.1303 1.8223.3824 2.1563 1.2798.0351.0938.0547.1895.0742.2852.2197-.2764.5078-.5029.8633-.6348 1.0341-.3857 2.1865.1407 2.5722 1.1758.1446.3887.1602.793.0694 1.168.8261-.0156 1.6103.4756 1.915 1.2929.0352.0948.0547.1905.0752.2852.2188-.2754.5078-.502.8623-.6348 1.0352-.3847 2.1865.1416 2.5723 1.1758.2099.5635.1426 1.1563-.1221 1.6465.5205.1973.96.6025 1.1699 1.165.1319.3545.1504.7207.085 1.0674.0859-.0478.1699-.0957.2646-.1308 1.0342-.3858 2.1866.1406 2.5723 1.1757.168.4493.1475.9141.0029 1.3331.8946-.1045 1.7774.4013 2.1065 1.2822.1972.5303.1523 1.0908-.0742 1.5635.4443.2168.8115.5937.998 1.0937.1846.4961.1553 1.0176-.0342 1.4697.8321-.0234 1.624.4688 1.9307 1.292.2695.7237.0869 1.4971-.3965 2.0332.2578.2158.4697.4912.5957.8272.1709.4599 1.1533.9385.999 1.3672V36M65 36c0 16.0156-12.9834 29-29 29S7 52.0156 7 36h58z"/><path fill="#d0cfce" d="M49 36c0 16.0156-4 29-13 29 16.0166 0 29-12.9844 29-29H49z"/><g fill="none" stroke="#000" stroke-linecap="round" stroke-linejoin="round" stroke-miterlimit="10" stroke-width="2"><path d="M62.8779 32.4141c.1543-.4287.1719-.9073.001-1.3672-.126-.336-.3379-.6114-.5957-.8272.4834-.5361.666-1.3095.3965-2.0332-.3067-.8232-1.0986-1.3154-1.9307-1.292.1895-.4521.2188-.9736.0342-1.4697-.1865-.5-.5537-.8769-.998-1.0937.2265-.4727.2714-1.0332.0742-1.5635-.3291-.8809-1.2119-1.3867-2.1065-1.2822.1446-.419.1651-.8838-.0029-1.3331-.3857-1.0351-1.5381-1.5615-2.5723-1.1757-.0947.0351-.1787.083-.2646.1308.0654-.3467.0469-.7129-.085-1.0674-.2099-.5625-.6494-.9677-1.1699-1.165.2647-.4902.332-1.083.1221-1.6465-.3858-1.0342-1.5371-1.5605-2.5723-1.1758-.3545.1328-.6435.3594-.8623.6348-.0205-.0947-.04-.1904-.0752-.2852-.3047-.8173-1.0889-1.3085-1.915-1.2929.0908-.375.0752-.7793-.0694-1.168-.3857-1.0351-1.5381-1.5615-2.5722-1.1758-.3555.1319-.6436.3584-.8633.6348-.0195-.0957-.0391-.1914-.0742-.2852-.334-.8974-1.2461-1.4101-2.1563-1.2798C42.2568 9.3315 41.6689 9 41 9c-.873 0-1.6074.563-1.8799 1.3428C38.7998 10.1265 38.415 10 38 10c-.0898 0-.1768.0151-.2627.0264C37.3945 9.417 36.749 9 36 9s-1.3945.417-1.7373 1.0264C34.1768 10.0151 34.0898 10 34 10c-.415 0-.7998.1265-1.1201.3428C32.6074 9.563 31.873 9 31 9c-.6689 0-1.2568.3315-1.6201.8354-.9102-.1303-1.8223.3824-2.1563 1.2798-.0351.0938-.0547.1895-.0742.2852-.2197-.2764-.5078-.5029-.8633-.6348-1.0341-.3857-2.1865.1407-2.5722 1.1758-.1446.3887-.1602.793-.0694 1.168-.8261-.0156-1.6103.4756-1.915 1.2929-.0352.0948-.0547.1905-.0752.2852-.2188-.2754-.5078-.502-.8623-.6348-1.0352-.3847-2.1865.1416-2.5723 1.1758-.2099.5635-.1426 1.1563.1221 1.6465-.5205.1973-.96.6025-1.1699 1.165-.1319.3545-.1504.7207-.085 1.0674-.0859-.0478-.1699-.0957-.2646-.1308-1.0342-.3858-2.1866.1406-2.5723 1.1757-.168.4493-.1475.9141-.0029 1.3331-.8946-.1045-1.7774.4013-2.1065 1.2822-.1972.5303-.1523 1.0908.0742 1.5635-.4443.2168-.8115.5937-.998 1.0937-.1846.4961-.1553 1.0176.0342 1.4697-.8321-.0234-1.624.4688-1.9307 1.292-.2695.7237-.0869 1.4971.3965 2.0332-.2578.2158-.4697.4912-.5957.8272-.1709.4599-.1533.9385.001 1.3672M65 36c0 16.0156-12.9834 29-29 29S7 52.0156 7 36h58z"/></g></svg>