<svg xmlns="http://www.w3.org/2000/svg" role="img" viewBox="9.35 9.35 53.17 53.17"><title>1F356.svg</title><path fill="#f4aa41" d="M51.6777 23.8569c.7129.418 1.3868.9239 2 1.5362 3.9043 3.9057 3.9043 10.2378-.0019 14.1421-.9317.9316-2.002 1.6347-3.1445 2.1211-.9532.4082-1.9825.5097-2.9727.7636-2.3955.6133-4.5059 2.6309-5.1338 5.0196-.291 1.1074-.3906 2.2656-.876 3.3261-.4824 1.0537-1.1455 2.0449-2.0136 2.9121-3.9053 3.9053-10.2364 3.9063-14.1426 0-.6113-.6113-1.1172-1.2871-1.5352-1.999-.4629-.79-.8164-1.626-1.0469-2.4892-.8632-.2305-1.6992-.584-2.4882-1.0469-.7129-.417-1.3887-.9238-2-1.5352-3.9063-3.9062-3.9053-10.2373 0-14.1426.8681-.8681 1.8593-1.5312 2.9131-2.0136 1.0605-.4854 2.2177-.585 3.3251-.876 2.3877-.6284 4.4063-2.7378 5.0196-5.1343.2539-.9902.3564-2.0205.7637-2.9746.4863-1.1406 1.1894-2.2129 2.121-3.1445 3.9053-3.9043 10.2364-3.9053 14.1407 0 .6113.6113 1.1191 1.2871 1.5371 2 .4629.789.8144 1.625 1.0449 2.4892.8633.2305 1.7012.583 2.4902 1.0459z"/><path fill="#FFF" d="M20.3223 48.1426l-3.7676 3.7676c-1.1719-1.1719-3.0723-1.1719-4.2432 0-1.1709 1.1718-1.1709 3.0703.001 4.2421.7383.7393 1.7656 1.0098 2.7188.8165-.1934.9531.0771 1.9804.8164 2.7187 1.1718 1.1719 3.0703 1.1719 4.2421.001 1.1719-1.1709 1.1719-3.0713 0-4.2432l3.7676-3.7666M51.6778 23.857l3.7676-3.7676c1.1719 1.1719 3.0723 1.1719 4.2432 0 1.1709-1.1718 1.1709-3.0703-.001-4.2421-.7383-.7393-1.7656-1.0098-2.7188-.8165.1934-.9531-.0771-1.9804-.8164-2.7187-1.1718-1.1719-3.0703-1.1719-4.2421-.001-1.1719 1.1709-1.1719 3.0713 0 4.2432l-3.7676 3.7666"/><g fill="none" stroke="#000" stroke-linecap="round" stroke-linejoin="round" stroke-miterlimit="10" stroke-width="2"><path d="M20.3223 48.1426l-3.7676 3.7676c-1.1719-1.1719-3.0723-1.1719-4.2432 0-1.1709 1.1718-1.1709 3.0703.001 4.2421.7383.7393 1.7656 1.0098 2.7188.8165-.1934.9531.0771 1.9804.8164 2.7187 1.1718 1.1719 3.0703 1.1719 4.2421.001 1.1719-1.1709 1.1719-3.0713 0-4.2432l3.7676-3.7666"/><path d="M20.3223 48.1426c.789.4629 1.625.8164 2.4882 1.0469.2305.8632.584 1.6992 1.0469 2.4892m27.8203-27.8218l3.7676-3.7675c1.1719 1.1718 3.0703 1.1718 4.2422 0 1.1719-1.1709 1.1719-3.0704 0-4.2422-.7383-.7383-1.7656-1.0098-2.7187-.8164.1933-.9532-.0782-1.9805-.8165-2.7188-1.1718-1.1719-3.0722-1.1719-4.2441 0-1.1699 1.1709-1.1719 3.0703 0 4.2422l-3.7656 3.7676m0 0c-.418-.7129-.9258-1.3887-1.5371-2-3.9043-3.9053-10.2354-3.9043-14.1407 0-.9316.9316-1.6347 2.0039-2.121 3.1445-.4073.9541-.5098 1.9844-.7637 2.9746-.6133 2.3965-2.6319 4.5059-5.0196 5.1343-1.1074.291-2.2646.3906-3.3251.876-1.0538.4824-2.045 1.1455-2.9131 2.0136-3.9053 3.9053-3.9063 10.2364 0 14.1426.6113.6114 1.2871 1.1182 2 1.5352m31.3554-24.2857c-.789-.4629-1.6269-.8154-2.4902-1.0459-.2305-.8642-.582-1.7002-1.0449-2.4892m3.5351 3.5351c.7129.418 1.3868.9239 2 1.5362 3.9043 3.9057 3.9043 10.2378-.0019 14.1421-.9317.9316-2.002 1.6347-3.1445 2.1211-.9532.4082-1.9825.5097-2.9727.7636-2.3955.6133-4.5059 2.6309-5.1338 5.0196-.291 1.1074-.3906 2.2656-.876 3.3261-.4824 1.0537-1.1455 2.0449-2.0136 2.9121-3.9053 3.9053-10.2364 3.9063-14.1426 0-.6113-.6113-1.1172-1.2871-1.5352-1.999"/></g></svg>