<svg xmlns="http://www.w3.org/2000/svg" role="img" viewBox="6.88 8.76 58.11 57.23"><title>1F35C.svg</title><path fill="#d22f27" d="M62.92 35.0029c.0686-1.0352-.7149-1.9301-1.7502-1.9988a1.89957 1.89957 0 0 0-.124-.0041H11.0529c-1.0895-.002-1.9743.8795-1.9764 1.969-.0001.0542.002.1083.0064.1623.857 9.7287 7.53 17.9843 16.7945 21.7238v5.4866c.0335.9444.8226 1.6848 1.7672 1.6583h16.7108c.9445.0264 1.7335-.714 1.767-1.6583v-4.8424C55.8344 54.121 62.1937 45.39 62.92 35.0029z"/><g fill="none" stroke="#000" stroke-linecap="round" stroke-linejoin="round"><path stroke-width="2" d="M61.434 21h-44m44-8h-44"/><path stroke-width="1.841" d="M34.277 10.813L34.434 33m-6.157-22.187L28.434 33m-6.157-22.187L22.434 33"/><path stroke-width="2" d="M62.92 35.0029c.0686-1.0352-.7149-1.9301-1.7502-1.9988a1.89957 1.89957 0 0 0-.124-.0041H11.0529c-1.0895-.002-1.9743.8795-1.9764 1.969-.0001.0542.002.1083.0064.1623.857 9.7287 7.53 17.9843 16.7945 21.7238v5.4866c.0335.9444.8226 1.6848 1.7672 1.6583h16.7108c.9445.0264 1.7335-.714 1.767-1.6583v-4.8424C55.8344 54.121 62.1937 45.39 62.92 35.0029z"/></g><path d="M34.277 10.813L34.434 33m-6.157-22.187L28.434 33m-6.157-22.187L22.434 33" fill="none" stroke="#f1b31c" stroke-linecap="round" stroke-linejoin="round" stroke-width="1.841"/></svg>