<svg xmlns="http://www.w3.org/2000/svg" role="img" viewBox="8.57 7.44 54.74 61.49"><title>1F35D.svg</title><path fill="#fcea2b" d="M45.8041 27.7451A13.8885 13.8885 0 0 0 36 31.7816c-.0415-.0411-.0876-.0773-.13-.1178V13.46a1.001 1.001 0 0 0-1-1.0031h-4.333a1.001 1.001 0 0 0-1 1.0031v14.7053A13.9287 13.9287 0 1 0 36 51.5791a13.934 13.934 0 1 0 9.8042-23.834z"/><path fill="#d0cfce" d="M47.2667 41.7489c0 13.88-3.4667 25.1334-11.2667 25.1334a25.1335 25.1335 0 0 0 25.1333-25.1334z"/><path fill="#fff" d="M10.8667 41.7489A25.1335 25.1335 0 0 0 36 66.8823c7.8 0 11.2667-11.2532 11.2667-25.1334z"/><g fill="none" stroke="#000" stroke-linecap="round" stroke-linejoin="round" stroke-width="2"><path d="M10.8667 41.7489a25.1333 25.1333 0 1 0 50.2666 0zm2.6-2.6a13.0019 13.0019 0 0 1 25.4778 0m-21.0083 0a8.6687 8.6687 0 0 1 16.5379 0m-11.7153 0a4.2946 4.2946 0 0 1 6.8944 0m8.9527-8.2333a13.0036 13.0036 0 0 1 19.9274 8.2333m-17.5127-4.6338a8.6692 8.6692 0 0 1 13.0432 4.6338m-11.1356-.6313a4.2871 4.2871 0 0 1 6.313.6313"/><path d="M61 15.5946l-19.4123-.554h0c-.7408 1.287-2.6022 2.191-5.5708 2.191-3.9478 0-8.1058-.1115-8.1058-.1115m.0002-7.3096s4.158-.1115 8.1058-.1115c2.9609 0 4.82.8993 5.565 2.1809h0L61 11.8605M27.911 13.465h9.585"/><path d="M34.87 13.522v18.537m-4.333-18.537v12.161"/></g></svg>