<svg xmlns="http://www.w3.org/2000/svg" role="img" viewBox="2.72 3.72 66.43 64.43"><title>1F359.svg</title><path fill="#FFF" d="M44 10c0-1.1045-.8955-2-2-2-.3779 0-.7275.1113-1.0303.2935C40.9854 8.1968 41 8.1006 41 8c0-1.1045-.8955-2-2-2-.6006 0-1.1338.2705-1.5.6899C37.1338 6.2705 36.6006 6 36 6s-1.1338.2705-1.5.6899C34.1338 6.2705 33.6006 6 33 6c-1.1045 0-2 .8955-2 2 0 .1006.0146.1968.0303.2935C30.7275 8.1113 30.3779 8 30 8c-1.1045 0-2 .8955-2 2 0 .1006.0146.1968.0303.2935C27.7275 10.1113 27.3779 10 27 10c-1.1045 0-2 .8955-2 2 0 .3779.1113.728.2939 1.0298C25.1963 13.0151 25.1006 13 25 13c-1.1045 0-2 .8955-2 2 0 .3779.1113.728.2939 1.0298C23.1963 16.0151 23.1006 16 23 16c-.873 0-1.6074.563-1.8799 1.3428C20.7998 17.1265 20.415 17 20 17c-1.1045 0-2 .8955-2 2 0 .3779.1113.728.2939 1.0298C18.1963 20.0151 18.1006 20 18 20c-1.1045 0-2 .8955-2 2 0 .1006.0146.1968.0303.2935C15.7275 22.1113 15.3779 22 15 22c-1.1045 0-2 .8955-2 2 0 .415.126.7998.3428 1.1191C12.5635 25.3926 12 26.127 12 27c0 .1006.0146.1973.0303.293C11.7275 27.1113 11.3779 27 11 27c-1.1045 0-2 .8955-2 2 0 .6006.2705 1.1328.6904 1.5C9.2705 30.8672 9 31.3994 9 32c0 .3779.1113.7285.2939 1.0293C9.1963 33.0156 9.1006 33 9 33c-1.1045 0-2 .8955-2 2 0 .4805.1807.9082.4639 1.25-.875.2139-1.5264.9971-1.5264 1.9375 0 .5664.2373 1.0742.6152 1.4385C6.2119 39.9844 6 40.4668 6 41c0 .5293.21 1.0078.5449 1.3652-.7871.2686-1.3574 1.0059-1.3574 1.8848 0 .7715.4414 1.4326 1.0811 1.7666C6.1025 46.3086 6 46.6406 6 47c0 .4902.1846.9326.4775 1.2803-.7207.3017-1.2275 1.0146-1.2275 1.8447 0 .9043.6045 1.6602 1.4287 1.9072C5.7285 52.1865 5 53.0059 5 54c0 .6445.3096 1.2109.7842 1.5771-.3682.3624-.5967.8663-.5967 1.4229 0 .8184.4932 1.5195 1.1963 1.8301C6.1436 59.1572 6 59.5605 6 60c0 1.0723.8467 1.9414 1.9072 1.9902-.1748.2979-.2822.6397-.2822 1.0098 0 1.1045.8955 2 2 2 .5537 0 1.0557-.2266 1.418-.5898C11.2314 65.3184 12.0361 66 13 66c.417 0 .8037-.1289 1.125-.3477.3213.2188.708.3477 1.125.3477.7393 0 1.3779-.4062 1.7236-1.002.0098 0 .0176.002.0264.002.415 0 .7998-.127 1.1201-.3428h35.7598C54.2002 64.873 54.585 65 55 65c.0088 0 .0166-.002.0264-.002.3457.5958.9843 1.002 1.7236 1.002.417 0 .8037-.1289 1.125-.3477.3213.2188.708.3477 1.125.3477.9639 0 1.7686-.6816 1.957-1.5898.3623.3632.8643.5898 1.418.5898 1.1045 0 2-.8955 2-2 0-.3701-.1074-.7119-.2822-1.0098C65.1533 61.9414 66 61.0723 66 60c0-.4395-.1436-.8428-.3838-1.1699.7031-.3106 1.1963-1.0117 1.1963-1.8301 0-.5566-.2285-1.0605-.5967-1.4229C66.6904 55.2109 67 54.6445 67 54c0-.9941-.7285-1.8135-1.6787-1.9678.8242-.247 1.4287-1.0029 1.4287-1.9072 0-.8301-.5068-1.543-1.2275-1.8447C65.8154 47.9326 66 47.4902 66 47c0-.3594-.1025-.6914-.2686-.9834.6397-.334 1.0811-.9951 1.0811-1.7666 0-.8789-.5703-1.6162-1.3574-1.8848C65.79 42.0078 66 41.5293 66 41c0-.5332-.2119-1.0156-.5527-1.374.3779-.3643.6152-.8721.6152-1.4385 0-.9404-.6514-1.7236-1.5264-1.9375.2832-.3418.4639-.7695.4639-1.25 0-1.1045-.8955-2-2-2-.1006 0-.1963.0156-.2939.0293C62.8887 32.7285 63 32.3779 63 32c0-.6006-.2705-1.1328-.6904-1.5.4199-.3672.6904-.8994.6904-1.5 0-1.1045-.8955-2-2-2-.3779 0-.7275.1113-1.0303.293.0157-.0957.0303-.1924.0303-.293 0-.873-.5635-1.6074-1.3428-1.8809C58.874 24.7998 59 24.415 59 24c0-1.1045-.8955-2-2-2-.3779 0-.7275.1113-1.0303.2935.0157-.0967.0303-.1929.0303-.2935 0-1.1045-.8955-2-2-2-.1006 0-.1963.0151-.2939.0298C53.8887 19.728 54 19.3779 54 19c0-1.1045-.8955-2-2-2-.415 0-.7998.1265-1.1201.3428C50.6074 16.563 49.873 16 49 16c-.1006 0-.1963.0151-.2939.0298C48.8887 15.728 49 15.3779 49 15c0-1.1045-.8955-2-2-2-.1006 0-.1963.0151-.2939.0298C46.8887 12.728 47 12.3779 47 12c0-1.1045-.8955-2-2-2-.3779 0-.7275.1113-1.0303.2935.0157-.0967.0303-.1929.0303-.2935 0-1.1045-.8955-2-2-2-.3779 0-.7275.1113-1.0303.2935C40.9854 8.1968 41 8.1006 41 8c0-1.1045-.8955-2-2-2-.6006 0-1.1338.2705-1.5.6899C37.1338 6.2705 36.6006 6 36 6s-1.1338.2705-1.5.6899C34.1338 6.2705 33.6006 6 33 6c-1.1045 0-2 .8955-2 2 0 .1006.0146.1968.0303.2935C30.7275 8.1113 30.3779 8 30 8c-1.1045 0-2 .8955-2 2"/><path fill="#3F3F3F" stroke-linecap="round" stroke-linejoin="round" stroke-miterlimit="10" stroke-width="2" d="M22 44h28v22H22z"/><g fill="none" stroke="#000" stroke-linecap="round" stroke-linejoin="round" stroke-miterlimit="10" stroke-width="2"><path d="M44 10c0-1.1045-.8955-2-2-2-.3779 0-.7275.1113-1.0303.2935C40.9854 8.1968 41 8.1006 41 8c0-1.1045-.8955-2-2-2-.6006 0-1.1338.2705-1.5.6899C37.1338 6.2705 36.6006 6 36 6s-1.1338.2705-1.5.6899C34.1338 6.2705 33.6006 6 33 6c-1.1045 0-2 .8955-2 2 0 .1006.0146.1968.0303.2935C30.7275 8.1113 30.3779 8 30 8c-1.1045 0-2 .8955-2 2 0 .1006.0146.1968.0303.2935C27.7275 10.1113 27.3779 10 27 10c-1.1045 0-2 .8955-2 2 0 .3779.1113.728.2939 1.0298C25.1963 13.0151 25.1006 13 25 13c-1.1045 0-2 .8955-2 2 0 .3779.1113.728.2939 1.0298C23.1963 16.0151 23.1006 16 23 16c-.873 0-1.6074.563-1.8799 1.3428C20.7998 17.1265 20.415 17 20 17c-1.1045 0-2 .8955-2 2 0 .3779.1113.728.2939 1.0298C18.1963 20.0151 18.1006 20 18 20c-1.1045 0-2 .8955-2 2 0 .1006.0146.1968.0303.2935C15.7275 22.1113 15.3779 22 15 22c-1.1045 0-2 .8955-2 2 0 .415.126.7998.3428 1.1191C12.5635 25.3926 12 26.127 12 27c0 .1006.0146.1973.0303.293C11.7275 27.1113 11.3779 27 11 27c-1.1045 0-2 .8955-2 2 0 .6006.2705 1.1328.6904 1.5C9.2705 30.8672 9 31.3994 9 32c0 .3779.1113.7285.2939 1.0293C9.1963 33.0156 9.1006 33 9 33c-1.1045 0-2 .8955-2 2 0 .4805.1807.9082.4639 1.25-.875.2139-1.5264.9971-1.5264 1.9375 0 .5664.2373 1.0742.6152 1.4385C6.2119 39.9844 6 40.4668 6 41c0 .5293.21 1.0078.5449 1.3652-.7871.2686-1.3574 1.0059-1.3574 1.8848 0 .7715.4414 1.4326 1.0811 1.7666C6.1025 46.3086 6 46.6406 6 47c0 .4902.1846.9326.4775 1.2803-.7207.3017-1.2275 1.0146-1.2275 1.8447 0 .9043.6045 1.6602 1.4287 1.9072C5.7285 52.1865 5 53.0059 5 54c0 .6445.3096 1.2109.7842 1.5771-.3682.3624-.5967.8663-.5967 1.4229 0 .8184.4932 1.5195 1.1963 1.8301C6.1436 59.1572 6 59.5605 6 60c0 1.0723.8467 1.9414 1.9072 1.9902-.1748.2979-.2822.6397-.2822 1.0098 0 1.1045.8955 2 2 2 .5537 0 1.0557-.2266 1.418-.5898C11.2314 65.3184 12.0361 66 13 66c.417 0 .8037-.1289 1.125-.3477.3213.2188.708.3477 1.125.3477.7393 0 1.3779-.4062 1.7236-1.002.0098 0 .0176.002.0264.002.415 0 .7998-.127 1.1201-.3428"/><path d="M28 10c0-1.1045.8955-2 2-2 .3779 0 .7275.1113 1.0303.2935C31.0146 8.1968 31 8.1006 31 8c0-1.1045.8955-2 2-2 .6006 0 1.1338.2705 1.5.6899C34.8662 6.2705 35.3994 6 36 6s1.1338.2705 1.5.6899C37.8662 6.2705 38.3994 6 39 6c1.1045 0 2 .8955 2 2 0 .1006-.0146.1968-.0303.2935C41.2725 8.1113 41.6221 8 42 8c1.1045 0 2 .8955 2 2 0 .1006-.0146.1968-.0303.2935C44.2725 10.1113 44.6221 10 45 10c1.1045 0 2 .8955 2 2 0 .3779-.1113.728-.2939 1.0298.0976-.0147.1933-.0298.2939-.0298 1.1045 0 2 .8955 2 2 0 .3779-.1113.728-.2939 1.0298.0976-.0147.1933-.0298.2939-.0298.873 0 1.6074.563 1.8799 1.3428C51.2002 17.1265 51.585 17 52 17c1.1045 0 2 .8955 2 2 0 .3779-.1113.728-.2939 1.0298.0976-.0147.1933-.0298.2939-.0298 1.1045 0 2 .8955 2 2 0 .1006-.0146.1968-.0303.2935C56.2725 22.1113 56.6221 22 57 22c1.1045 0 2 .8955 2 2 0 .415-.126.7998-.3428 1.1191C59.4365 25.3926 60 26.127 60 27c0 .1006-.0146.1973-.0303.293.3028-.1817.6524-.293 1.0303-.293 1.1045 0 2 .8955 2 2 0 .6006-.2705 1.1328-.6904 1.5.4199.3672.6904.8994.6904 1.5 0 .3779-.1113.7285-.2939 1.0293.0976-.0137.1933-.0293.2939-.0293 1.1045 0 2 .8955 2 2 0 .4805-.1807.9082-.4639 1.25.875.2139 1.5264.9971 1.5264 1.9375 0 .5664-.2373 1.0742-.6152 1.4385.3408.3584.5527.8408.5527 1.374 0 .5293-.21 1.0078-.5449 1.3652.7871.2686 1.3574 1.0059 1.3574 1.8848 0 .7715-.4414 1.4326-1.0811 1.7666.1661.292.2686.624.2686.9834 0 .4902-.1846.9326-.4775 1.2803.7207.3017 1.2275 1.0146 1.2275 1.8447 0 .9043-.6045 1.6602-1.4287 1.9072C66.2715 52.1865 67 53.0059 67 54c0 .6445-.3096 1.2109-.7842 1.5771.3682.3624.5967.8663.5967 1.4229 0 .8184-.4932 1.5195-1.1963 1.8301.2402.3271.3838.7304.3838 1.1699 0 1.0723-.8467 1.9414-1.9072 1.9902.1748.2979.2822.6397.2822 1.0098 0 1.1045-.8955 2-2 2-.5537 0-1.0557-.2266-1.418-.5898C60.7686 65.3184 59.9639 66 59 66c-.417 0-.8037-.1289-1.125-.3477-.3213.2188-.708.3477-1.125.3477-.7393 0-1.3779-.4062-1.7236-1.002-.0098 0-.0176.002-.0264.002-.415 0-.7998-.127-1.1201-.3428"/><path d="M22 44h28v22H22z"/></g></svg>