<svg xmlns="http://www.w3.org/2000/svg" role="img" viewBox="4.67 4.80 62.40 62.27"><title>1F369.svg</title><path fill="#fcea2b" d="M36 7C19.9834 7 7 19.9839 7 36c0 16.0156 12.9834 29 29 29s29-12.9844 29-29C65 19.9839 52.0166 7 36 7zm0 39c-5.5225 0-10-4.4775-10-10s4.4775-10 10-10 10 4.4775 10 10-4.4775 10-10 10z"/><path fill="none" d="M36 46c5.5225 0 10-4.4775 10-10s-4.4775-10-10-10-10 4.4775-10 10c0 2.7266 1.0947 5.1963 2.8652 7h.4786-.4786c1.8145 1.8496 4.3389 3 7.1348 3z"/><path fill="none" d="M46 36c0-5.5225-4.4775-10-10-10s-10 4.4775-10 10c0 2.7266 1.0947 5.1963 2.8652 7 1.8145 1.8496 4.3389 3 7.1348 3 5.5225 0 10-4.4775 10-10z"/><path fill="#f1b31c" d="M36 7C19.9834 7 7 19.9839 7 36c0 1.7061.1563 3.375.4385 5H10c2.7607 0 5 2.2383 5 5s2.2393 5 5 5 5-2.2383 5-5c0-1.6562 1.3428-3 3-3h.8652C27.0947 41.1963 26 38.7266 26 36c0-5.5225 4.4775-10 10-10s10 4.4775 10 10-4.4775 10-10 10c2.7607 0 5 2.2383 5 5s2.2393 5 5 5 5-2.2383 5-5c0-1.6562 1.3428-3 3-3s3 1.3438 3 3c0 1.2217.8418 2.3213 1.8945 2.7891C62.7168 48.877 65 42.707 65 36 65 19.9839 52.0166 7 36 7z"/><circle cx="14" cy="31" r="2" fill="#FFF" stroke-linecap="round" stroke-linejoin="round" stroke-miterlimit="10" stroke-width="2"/><circle cx="20" cy="39" r="2" fill="#FFF" stroke-linecap="round" stroke-linejoin="round" stroke-miterlimit="10" stroke-width="2"/><circle cx="52" cy="40" r="2" fill="#FFF" stroke-linecap="round" stroke-linejoin="round" stroke-miterlimit="10" stroke-width="2"/><circle cx="58" cy="32" r="2" fill="#FFF" stroke-linecap="round" stroke-linejoin="round" stroke-miterlimit="10" stroke-width="2"/><circle cx="50" cy="25" r="2" fill="#FFF" stroke-linecap="round" stroke-linejoin="round" stroke-miterlimit="10" stroke-width="2"/><circle cx="42" cy="14" r="2" fill="#FFF" stroke-linecap="round" stroke-linejoin="round" stroke-miterlimit="10" stroke-width="2"/><circle cx="33" cy="20" r="2" fill="#FFF" stroke-linecap="round" stroke-linejoin="round" stroke-miterlimit="10" stroke-width="2"/><circle cx="21" cy="20" r="2" fill="#FFF" stroke-linecap="round" stroke-linejoin="round" stroke-miterlimit="10" stroke-width="2"/><g fill="none" stroke="#000" stroke-linecap="round" stroke-linejoin="round" stroke-miterlimit="10" stroke-width="2"><circle cx="14" cy="31" r="2"/><circle cx="20" cy="39" r="2"/><circle cx="52" cy="40" r="2"/><circle cx="58" cy="32" r="2"/><circle cx="50" cy="25" r="2"/><circle cx="42" cy="14" r="2"/><circle cx="33" cy="20" r="2"/><circle cx="21" cy="20" r="2"/><circle cx="36" cy="36" r="29"/><circle cx="36" cy="36" r="10"/><path d="M8 41h2c2.7607 0 5 2.2383 5 5s2.2393 5 5 5 5-2.2383 5-5c0-1.6562 1.3428-3 3-3h.667m30.1582 10.7607C57.752 53.3047 57 52.2393 57 51c0-1.6562-1.3428-3-3-3s-3 1.3438-3 3c0 2.7617-2.2393 5-5 5s-5-2.2383-5-5-2.2393-5-5-5"/></g></svg>