<svg xmlns="http://www.w3.org/2000/svg" role="img" viewBox="9.86 9.61 59.41 59.41"><title>1F361.svg</title><circle cx="36.142" cy="35.999" r="10" fill="#FFF" transform="rotate(-45.001 36.14 36)"/><circle cx="22.142" cy="21.999" r="10" fill="#ea5a47" transform="rotate(-45.001 22.142 22)"/><path fill="#D22F27" d="M29.2129 14.9199c-2.5938-2.5947-6.2578-3.4551-9.5713-2.602 1.6748.4311 3.2607 1.291 4.5713 2.602 3.9062 3.9053 3.9062 10.2368.001 14.1426-1.3106 1.3105-2.8975 2.1699-4.5713 2.6016 3.3135.8525 6.9765-.0078 9.5713-2.6016 3.9052-3.9058 3.9052-10.2373-.001-14.1426z"/><ellipse cx="50.142" cy="49.999" fill="#b1cc33" rx="9.999" ry="10" transform="rotate(-45.001 50.139 49.999)"/><path fill="#5c9e31" d="M57.2129 42.9199c-2.5938-2.5937-6.2578-3.4551-9.5713-2.6015 1.6748.4316 3.2607 1.291 4.5713 2.6015 3.9062 3.9063 3.9062 10.2364.001 14.1426-1.3106 1.3105-2.8975 2.1699-4.5713 2.6016 3.3135.8535 6.9765-.0078 9.5713-2.6016 3.9052-3.9062 3.9052-10.2363-.001-14.1426z"/><circle cx="36.142" cy="35.999" r="10" fill="none" transform="rotate(-45.001 36.142 36)"/><path fill="#d0cfce" d="M43.2129 28.9199c-2.5938-2.5947-6.2578-3.4551-9.5713-2.602 1.6748.4311 3.2607 1.291 4.5713 2.602 3.9062 3.9053 3.9062 10.2364.001 14.1426-1.3106 1.3105-2.8975 2.1699-4.5713 2.6016 3.3135.8535 6.9765-.0078 9.5713-2.6016 3.9052-3.9062 3.9052-10.2373-.001-14.1426z"/><g fill="none" stroke="#000" stroke-linecap="round" stroke-linejoin="round" stroke-miterlimit="10" stroke-width="2"><circle cx="36.142" cy="35.999" r="10" transform="rotate(-45.001 36.14 36)"/><circle cx="22" cy="21.858" r="10" transform="rotate(-45.001 22 21.858)"/><circle cx="50.284" cy="50.142" r="10" transform="rotate(-45.001 50.284 50.142)"/><path d="M60.143 60l7 7"/></g></svg>