<svg xmlns="http://www.w3.org/2000/svg" role="img" viewBox="2.72 20.72 66.43 36.43"><title>1F363.svg</title><path fill="#FFF" d="M65.6572 47.1191c.2168-.3193.9098-1.271.9098-1.6861l-2-3.433S55.5142 32.9313 36 32.9313 7.433 42 7.433 42l-2.3117 3.7165c0 .415 1.0047 1.0833 1.2215 1.4026C5.5635 47.3926 5 48.127 5 49c0 1.1045.8955 2 2 2 .1006 0 .1963-.0156.2939-.0293C7.1113 51.2715 7 51.6221 7 52c0 1.1045.8955 2 2 2 .415 0 .7998-.127 1.1201-.3428C10.3926 54.4375 11.127 55 12 55s1.6074-.5625 1.8799-1.3428C14.2002 53.873 14.585 54 15 54s.7998-.127 1.1201-.3428C16.3926 54.4375 17.127 55 18 55s1.6074-.5625 1.8799-1.3428C20.2002 53.873 20.585 54 21 54s.7998-.127 1.1201-.3428C22.3926 54.4375 23.127 55 24 55s1.6074-.5625 1.8799-1.3428C26.2002 53.873 26.585 54 27 54s.7998-.127 1.1201-.3428C28.3926 54.4375 29.127 55 30 55s1.6074-.5625 1.8799-1.3428C32.2002 53.873 32.585 54 33 54s.7998-.127 1.1201-.3428C34.3926 54.4375 35.127 55 36 55s1.6074-.5625 1.8799-1.3428C38.2002 53.873 38.585 54 39 54s.7998-.127 1.1201-.3428C40.3926 54.4375 41.127 55 42 55s1.6074-.5625 1.8799-1.3428C44.2002 53.873 44.585 54 45 54s.7998-.127 1.1201-.3428C46.3926 54.4375 47.127 55 48 55s1.6074-.5625 1.8799-1.3428C50.2002 53.873 50.585 54 51 54s.7998-.127 1.1201-.3428C52.3926 54.4375 53.127 55 54 55s1.6074-.5625 1.8799-1.3428C56.2002 53.873 56.585 54 57 54s.7998-.127 1.1201-.3428C58.3926 54.4375 59.127 55 60 55s1.6074-.5625 1.8799-1.3428C62.2002 53.873 62.585 54 63 54c1.1045 0 2-.8955 2-2 0-.3779-.1113-.7285-.2939-1.0293.0976.0137.1933.0293.2939.0293 1.1045 0 2-.8955 2-2 0-.873-.5635-1.6074-1.3428-1.8809z"/><path fill="#ea5a47" stroke-linecap="round" stroke-linejoin="round" stroke-miterlimit="10" stroke-width="2" d="M7 42s16-4 29-4 29 4 29 4v-6C48.9834 18.665 23.0176 18.668 7 36v6z"/><g fill="none" stroke="#000" stroke-linecap="round" stroke-linejoin="round" stroke-miterlimit="10" stroke-width="2"><path d="M6 46c0 .415.126.7998.3428 1.1191C5.5635 47.3926 5 48.127 5 49c0 1.1045.8955 2 2 2 .1006 0 .1963-.0156.2939-.0293C7.1113 51.2715 7 51.6221 7 52c0 1.1045.8955 2 2 2 .415 0 .7998-.127 1.1201-.3428C10.3926 54.4375 11.127 55 12 55s1.6074-.5625 1.8799-1.3428C14.2002 53.873 14.585 54 15 54s.7998-.127 1.1201-.3428C16.3926 54.4375 17.127 55 18 55s1.6074-.5625 1.8799-1.3428C20.2002 53.873 20.585 54 21 54s.7998-.127 1.1201-.3428C22.3926 54.4375 23.127 55 24 55s1.6074-.5625 1.8799-1.3428C26.2002 53.873 26.585 54 27 54s.7998-.127 1.1201-.3428C28.3926 54.4375 29.127 55 30 55s1.6074-.5625 1.8799-1.3428C32.2002 53.873 32.585 54 33 54s.7998-.127 1.1201-.3428C34.3926 54.4375 35.127 55 36 55s1.6074-.5625 1.8799-1.3428C38.2002 53.873 38.585 54 39 54s.7998-.127 1.1201-.3428C40.3926 54.4375 41.127 55 42 55s1.6074-.5625 1.8799-1.3428C44.2002 53.873 44.585 54 45 54s.7998-.127 1.1201-.3428C46.3926 54.4375 47.127 55 48 55s1.6074-.5625 1.8799-1.3428C50.2002 53.873 50.585 54 51 54s.7998-.127 1.1201-.3428C52.3926 54.4375 53.127 55 54 55s1.6074-.5625 1.8799-1.3428C56.2002 53.873 56.585 54 57 54s.7998-.127 1.1201-.3428C58.3926 54.4375 59.127 55 60 55s1.6074-.5625 1.8799-1.3428C62.2002 53.873 62.585 54 63 54c1.1045 0 2-.8955 2-2 0-.3779-.1113-.7285-.2939-1.0293.0976.0137.1933.0293.2939.0293 1.1045 0 2-.8955 2-2 0-.873-.5635-1.6074-1.3428-1.8809C65.874 46.7998 66 46.415 66 46M7 42s16-4 29-4 29 4 29 4v-6C48.9834 18.665 23.0176 18.668 7 36v6z"/></g></svg>