<svg xmlns="http://www.w3.org/2000/svg" role="img" viewBox="10.00 10.00 51.87 51.87"><title>1F360.svg</title><path fill="#f4aa41" d="M32.667 22.0835C29.2109 23.5303 21 29 17 38c-2.291 5.1543-5 22-5 22s6.4395-3.0947 13-4.333c4.417-.834 7.4277-1.7178 9.417-2.5 7-2.751 16.25-10.667 18.833-16.334C56.0664 30.6543 60 12 60 12s-3.5 2.1665-11.75 5.1665c-5.2822 1.9209-12 3.417-15.583 4.917z"/><path fill="#e27022" d="M59.1748 12.4658c-.5635.8672-1.3867 1.5752-2.4307 1.9639-2.5898.9629-3.9062 3.8428-2.9414 6.4297.9639 2.5859-.3535 5.4658-2.9423 6.4277-2.5889.9639-3.9053 3.8418-2.9424 6.4297.9648 2.5879-.3535 5.4668-2.9395 6.4297-2.5898.9619-3.9072 3.8408-2.9424 6.4297.2481.667.3399 1.3535.3018 2.0215 4.8144-3.5352 9.248-8.1133 10.9121-11.7647C56.0664 30.6543 60 12 60 12s-.2734.168-.8252.4658z"/><g fill="none" stroke="#000" stroke-linecap="round" stroke-linejoin="round" stroke-miterlimit="10" stroke-width="2"><path d="M32.667 22.0835C29.2109 23.5303 21 29 17 38c-2.291 5.1543-5 22-5 22s6.4395-3.0947 13-4.333c4.417-.834 7.4277-1.7178 9.417-2.5 7-2.751 16.25-10.667 18.833-16.334C56.0664 30.6543 60 12 60 12s-3.5 2.1665-11.75 5.1665c-5.2822 1.9209-12 3.417-15.583 4.917zM50 22c1.1045 0 2 .8955 2 2m-11 0c1.1045 0 2 .8955 2 2m0 7c1.1045 0 2 .8955 2 2m-13-6c1.1045 0 2 .8955 2 2m1 10c1.1045 0 2 .8955 2 2m-12-6c1.1045 0 2 .8955 2 2"/></g></svg>