<svg xmlns="http://www.w3.org/2000/svg" role="img" viewBox="14.72 2.72 42.43 66.43"><title>1F366.svg</title><path fill="#FFF" d="M53.9354 36v4H18.3685v-4H19.37c-.02-.34.01-.68.1-1 .3-1.05 1.17-1.92 2.33-2.18l3.77-.87c-1.5.11-2.88-.84-3.21-2.3-.37-1.61.68-3.23 2.36-3.62l3.77-.87c-1.5.1-2.88-.85-3.21-2.3-.37-1.61.69-3.23 2.37-3.62l3.79-.87c-1.51.13-2.9-.82-3.23-2.29-.38-1.61.68-3.24 2.36-3.62l1.26-.29h.01C33.86 11.67 36 7 34 5h3c1.66 0 3 1.34 3 3s-1 2.52-2.69 2.9l2.77-.64c1.68-.39 3.34.61 3.71 2.22.34 1.45-.47 2.89-1.84 3.46L43 15.7c1.68-.39 3.35.6 3.72 2.22.33 1.44-.48 2.88-1.85 3.45l1.06-.24c1.68-.38 3.34.61 3.71 2.23.34 1.46-.5 2.92-1.9 3.48l1.11-.26c1.68-.39 3.34.61 3.71 2.22.38 1.62-.68 3.24-2.36 3.63l-2.39.55L50 33c1.31 0 2.42.83 2.82 2 .12.31 1.1154.65 1.1154 1z"/><path fill="#fcea2b" d="M17 40h38v10H17zm35 10l-4 12c-.873 2.6191-2.2393 5-5 5H29c-2.7607 0-4.127-2.3809-5-5l-4-12"/><path fill="#f1b31c" d="M42.333 40H55v10H42.333zm1.0234 10L40 63.0303c-.374 1.4541-.8408 2.8486-1.4678 3.9697H43c2.7607 0 4.127-2.3809 5-5l4-12h-8.6436z"/><g fill="none" stroke="#000" stroke-linecap="round" stroke-linejoin="round" stroke-miterlimit="10"><path stroke-width="2" d="M17 40h38v10H17zm36-4c0-1.6562-1.3428-3-3-3l-2.2187-.0156"/><path stroke-width="2.04" d="M30.5713 12.4556c-1.6797.3877-2.7383 2.0112-2.3662 3.6255.373 1.6142 2.0361 2.6084 3.7158 2.2207l9.5088-2.1954c1.6797-.3876 2.7383-2.0107 2.3652-3.625-.372-1.6142-2.0351-2.6088-3.7148-2.2211l-9.5088 2.1953z"/><path stroke-width="2.04" d="M27.6475 19.2402c-1.6797.3877-2.7383 2.0103-2.3653 3.6245.3721 1.6143 2.0352 2.6094 3.7149 2.2217l15.3554-3.5449c1.6788-.3877 2.7383-2.0112 2.3653-3.6255-.3721-1.6142-2.0362-2.6084-3.7158-2.2207l-15.3545 3.5449z"/><path stroke-width="2.04" d="M49.6406 23.3555c-.373-1.6143-2.0351-2.6094-3.7148-2.2212l-21.2012 4.8945c-1.6797.3877-2.7383 2.0112-2.3662 3.6255.373 1.6143 2.0361 2.6084 3.7158 2.2207l21.2012-4.8945c1.6797-.3877 2.7383-2.0108 2.3652-3.625z"/><path stroke-width="2.04" d="M35.9424 35.7168l14.2568-3.291c1.6787-.3877 2.7383-2.0108 2.3653-3.625-.3731-1.6143-2.0362-2.6094-3.7149-2.2217l-27.0478 6.2451c-1.5225.3506-2.5352 1.7168-2.4327 3.1729"/><path stroke-width="2" d="M34 5h3c1.6572 0 3 1.3433 3 3s-1 2.521-2.6875 2.896M34 5c2 2-.1455 6.6875-2.167 7.1665M52 50l-4 12c-.873 2.6191-2.2393 5-5 5H29c-2.7607 0-4.127-2.3809-5-5l-4-12"/></g></svg>