<svg xmlns="http://www.w3.org/2000/svg" role="img" viewBox="10.12 10.24 52.13 52.26"><title>1F37C.svg</title><path fill="#FCEA2B" d="M51.5334 37.3844L35.2339 21.0847c6.2853-6.2853 8.5839 1.4216 15.9401-5.9347l1.5737-1.5734c1.738-1.7383 4.5563-1.7383 6.2938 0 1.7383 1.7377 1.7383 4.5561.0005 6.2938l-1.5739 1.574c-7.3561 7.3561.3507 9.6545-5.9347 15.94z"/><path fill="#F1B31C" d="M53.2398 16.9676l1.6272-1.5189c.8839-.8249 1.3516-1.9262 1.4039-3.0457 1.1571.0258 2.303.4951 3.1547 1.4082 1.6774 1.7965 1.5802 4.6134-.2165 6.29l-1.6272 1.5189c-7.6054 7.098.0176 9.6608-6.4808 15.7258l-6.7713-7.1008c6.4984-6.0651 1.3046-6.1795 8.91-13.2775z"/><path fill="#92D3F5" d="M48.7995 41.2845L30.7371 58.9214c-2.0932 2.044-5.5182 2.044-7.6112 0l-10.0347-9.798c-2.0932-2.044-2.0932-5.3884 0-7.4321l4.5159-4.4095 4.5157-4.4093 4.5157-4.4091 4.5154-4.409c2.0934-2.0442 3.6396-3.5773 5.7328-1.5331l13.6583 14c2.0929 2.0438.3479 2.7192-1.7455 4.7632z"/><path fill="#61B2E4" d="M16.21 51.9378c2.0779 2.044 5.4782 2.044 7.5564 0l17.9322-17.637c2.0782-2.044 2.0782-5.3882.0003-7.432l-2.6876-2.6433.0002.0001 10.5518 11.2957c2.0779 2.0438 1.4881 3.8904-.5902 5.9343l-17.9322 17.637c-2.0781 2.044-5.4784 2.044-7.5564 0l-9.9623-9.798-.0009-.0012 2.6887 2.6444z"/><g fill="none" stroke="#000" stroke-miterlimit="10" stroke-width="2"><path stroke-linejoin="round" d="M51.5334 37.3844L35.2339 21.0847c6.2853-6.2853 8.5839 1.4216 15.9401-5.9347l1.5737-1.5734c1.738-1.7383 4.5563-1.7383 6.2938 0 1.7383 1.7377 1.7383 4.5561.0005 6.2938l-1.5739 1.574c-7.3561 7.3561.3507 9.6545-5.9347 15.94z"/><path d="M57.5208 12.5842c.0079.0032.0162.0042.024.0072.2369.0945.4637.218.6847.3549.034.021.0715.0332.105.0552.2499.1643.4872.3553.7069.5752.4346.4343.7605.9363.9778 1.472.3259.8036.4075 1.6832.2446 2.5248-.1629.8417-.5703 1.6453-1.2219 2.2969l-1.5739 1.5741c-2.2988 2.2987-3.1266 4.1036-3.3701 5.6906-.0487.3174-.074.6261-.0831.9282-.0181.6044.0289 1.1826.0843 1.7527.0692.7124.1515 1.4117.136 2.1326-.0062.2883-.028.5801-.0726.8774-.1337.8921-.472 1.8351-1.2065 2.8884-.2402.3442-.524.7008-.8555 1.0708-.0368 1.3615-.5595 2.7123-1.5927 3.7454L32.02 59.0186c-2.1425 2.1426-5.6482 2.1426-7.7905 0L13.9584 48.7478h0l-.1794-.1794c-2.1425-2.1426-2.1425-5.6484 0-7.7908l4.6223-4.6221 4.6221-4.6221 4.6221-4.6219 4.6217-4.6217c.9285-.9285 2.115-1.4297 3.3335-1.5535 6.0092-5.6279 8.3631 1.624 15.5734-5.5863l1.5737-1.5734c1.2906-1.2909 3.1759-1.6186 4.773-.9924z"/><path stroke-linecap="round" stroke-linejoin="round" d="M34.021 35.021l-7-7m2.5 11.5l-7-7m2 12l-7-7"/></g></svg>