<svg xmlns="http://www.w3.org/2000/svg" role="img" viewBox="2.72 14.72 66.43 42.43"><title>1F371.svg</title><path fill="#FFF" d="M5 19c0-1.1045.8955-2 2-2h58c1.1045 0 2 .8955 2 2v34c0 1.1045-.8955 2-2 2H7c-1.1045 0-2-.8955-2-2V19z"/><path fill="#d0cfce" d="M44.0713 21c1.9521 1.9521 1.9521 5.1182 0 7.0713-1.9522 1.9531-5.1182 1.9531-7.0713 0L44.0713 21zm12.5361 0c1.9522 1.9521 1.9522 5.1182 0 7.0713-1.9531 1.9531-5.1191 1.9531-7.0722 0L56.6074 21z"/><path fill="#ea5a47" d="M39 40c0-1.1045-.8955-2-2-2h-4c-1.1045 0-2 .8955-2 2v9c0 1.1045.8955 2 2 2h4c1.1045 0 2-.8955 2-2v-9zm12 0c0-1.1045-.8955-2-2-2h-4c-1.1045 0-2 .8955-2 2v9c0 1.1045.8955 2 2 2h4c1.1045 0 2-.8955 2-2v-9zm12 0c0-1.1045-.8955-2-2-2h-4c-1.1045 0-2 .8955-2 2v9c0 1.1045.8955 2 2 2h4c1.1045 0 2-.8955 2-2v-9z"/><path fill="#61b2e4" d="M12.998 42.213l-1 8.787 4-4 4 4-1.393-8.787"/><path fill="#92d3f5" d="M17.6045 43.2129c5.8574-5.8574 5.8574-15.355 0-21.2129H13.998c-5.8574 5.8579-5.8574 15.3555 0 21.2129h3.6065z"/><g fill="none" stroke="#000" stroke-linecap="round" stroke-linejoin="round" stroke-miterlimit="10" stroke-width="2"><path d="M5 19c0-1.1045.8955-2 2-2h58c1.1045 0 2 .8955 2 2v34c0 1.1045-.8955 2-2 2H7c-1.1045 0-2-.8955-2-2V19zm22-2v38m0-21h40"/><path d="M17.6064 43.2129c5.8575-5.8574 5.8575-15.355 0-21.2129H14c-5.8574 5.8579-5.8574 15.3555 0 21.2129h3.6064zM11 28h10"/><path d="M13 42.213L12 51l4-4h0l4 4-1.394-8.787M39 40c0-1.1045-.8955-2-2-2h-4c-1.1045 0-2 .8955-2 2v9c0 1.1045.8955 2 2 2h4c1.1045 0 2-.8955 2-2v-9zm12 0c0-1.1045-.8955-2-2-2h-4c-1.1045 0-2 .8955-2 2v9c0 1.1045.8955 2 2 2h4c1.1045 0 2-.8955 2-2v-9zm12 0c0-1.1045-.8955-2-2-2h-4c-1.1045 0-2 .8955-2 2v9c0 1.1045.8955 2 2 2h4c1.1045 0 2-.8955 2-2v-9zM44 21c1.9521 1.9521 1.9521 5.1182 0 7.0713s-5.1182 1.9531-7.0713 0L44 21zm12.5361 0c1.9522 1.9521 1.9522 5.1182 0 7.0713-1.9531 1.9531-5.1191 1.9531-7.0722 0L56.5361 21zM39 44.334c0 1.1035-.8955 2-2 2M39 40c0 1.1045-.8955 2-2 2m14 2.334c0 1.1035-.8955 2-2 2M51 40c0 1.1045-.8955 2-2 2m14 2.334c0 1.1035-.8955 2-2 2M63 40c0 1.1045-.8955 2-2 2"/></g></svg>