<svg xmlns="http://www.w3.org/2000/svg" role="img" viewBox="14.94 6.94 41.99 54.99"><title>1F37F.svg</title><path fill="#ea5a47" d="M22 27h28l-3 33H25z"/><path fill="#fcea2b" d="M50.6719 27.2432l2.8594-1.5469-.5284-.8711C54.167 24.4131 55.001 23.3037 55 21.999c-.001-1.4336-1.0107-2.6308-2.3574-2.9258.5947-1.1328.4306-2.5586-.5205-3.5078-.8487-.8496-2.0791-1.0732-3.1397-.6914-.0849-.9385-.6035-1.8232-1.4804-2.3291-.7989-.4609-1.7178-.5-2.5225-.207-.0859-1.2432-.9326-2.3516-2.2002-2.6904-.9639-.2588-1.9395-.0098-2.6602.5732C39.7725 10.0811 39.3965 10 39 10c-.2432 0-.4766.0371-.7031.0918C37.7461 9.4297 36.9277 9 36 9s-1.7471.4297-2.2969 1.0918C33.4766 10.0371 33.2432 10 33 10c-.3955 0-.7705.0811-1.1162.2197-.7207-.582-1.6963-.831-2.6592-.5722-1.4824.3974-2.3916 1.8388-2.1797 3.3213-.9385-.8829-2.3711-1.1006-3.5439-.4239-.8203.4737-1.3194 1.2774-1.4531 2.1465-.7842-.0137-1.5713.2754-2.169.8731-.9512.9511-1.1172 2.3779-.5244 3.5087-1.3457.2969-2.3545 1.4922-2.3535 2.9258.001 1.3106.8408 2.4239 2.0127 2.833l-.2949.9424 3.0937 1.9375"/><g fill="none" stroke="#000" stroke-linecap="round" stroke-linejoin="round" stroke-miterlimit="10" stroke-width="2"><path d="M53.0029 24.8252C54.167 24.4131 55.001 23.3037 55 21.999c-.001-1.4336-1.0107-2.6308-2.3574-2.9258.5947-1.1328.4306-2.5586-.5205-3.5078-.8487-.8496-2.0791-1.0732-3.1397-.6914-.0849-.9385-.6035-1.8232-1.4804-2.3291-.7989-.4609-1.7178-.5-2.5225-.207-.0859-1.2432-.9326-2.3516-2.2002-2.6904-.9639-.2588-1.9395-.0098-2.6602.5732C39.7725 10.0811 39.3965 10 39 10c-.2432 0-.4766.0371-.7031.0918C37.7461 9.4297 36.9277 9 36 9s-1.7471.4297-2.2969 1.0918C33.4766 10.0371 33.2432 10 33 10c-.3955 0-.7705.0811-1.1162.2197-.7207-.582-1.6963-.831-2.6592-.5722-1.4824.3974-2.3916 1.8388-2.1797 3.3213-.9385-.8829-2.3711-1.1006-3.5439-.4239-.8203.4737-1.3194 1.2774-1.4531 2.1465-.7842-.0137-1.5713.2754-2.169.8731-.9512.9511-1.1172 2.3779-.5244 3.5087-1.3457.2969-2.3545 1.4922-2.3535 2.9258.001 1.3106.8408 2.4239 2.0127 2.833M22 27h28l-3 33H25zm4-6c0-1.6572 1.3438-3 3-3m5 0c0-1.6572 1.3428-3 3-3"/></g></svg>