<svg xmlns="http://www.w3.org/2000/svg" role="img" viewBox="13.72 2.72 44.43 66.43"><title>1F377.svg</title><path fill="#ea5a47" d="M55 26H17V14h38v12z"/><path fill="#ea5a47" d="M56 24c0 11.0457-8.9543 20-20 20s-20-8.9543-20-20"/><path fill="#d22f27" d="M55 24V14h-7.5698c.5966 6.3347.293 21.2038-13.788 29.849.7747.0911 1.5587.151 2.3578.151 11.0457 0 20-8.9543 20-20h-1z"/><g fill="none" stroke="#000"><path stroke-linecap="round" stroke-linejoin="round" stroke-width="2" d="M20 67h32M36 44v23m20-43c0 3.265-.7824 6.3473-2.1699 9.0696C50.5236 39.557 43.7807 44 36 44c-11.0457 0-20-8.9543-20-20m0-19v19M56 5v19"/><path stroke-miterlimit="10" stroke-width="1.974" d="M16.539 14.5H55.5"/></g></svg>