<svg xmlns="http://www.w3.org/2000/svg" role="img" viewBox="24.93 13.68 23.01 49.01"><title>1F374.svg</title><g fill="#D0CFCE" stroke-miterlimit="10" stroke-width="2"><path d="M32.0706 26.2961c0-5.9431-5.1204-12.161-5.1204-10.2961s.9471 26.6324.9471 26.6324l-.9471 16.1963c0 1.1046.8954 2 2 2s2-.8954 2-2l-.5289-16.2893c-.0001 0 1.6493-10.3002 1.6493-16.2433z"/><path stroke-linecap="round" stroke-linejoin="round" d="M45.9384 16.7398s.1115 4.158.1115 8.1058c0 2.9609-.8993 4.8203-2.1809 5.565l.0285 28.4181c0 1.1046-.8954 2-2 2s-2-.8954-2-2l.8108-28.4123c-1.287-.7408-2.191-2.6022-2.191-5.5708 0-3.9478.1115-8.1058.1115-8.1058"/></g><g fill="none" stroke="#000" stroke-miterlimit="10" stroke-width="2"><path d="M32.0706 26.2961c0-5.9431-5.1204-12.161-5.1204-10.2961s.9471 26.6324.9471 26.6324l-.9471 16.1963c0 1.1046.8954 2 2 2s2-.8954 2-2l-.5289-16.2893c-.0001 0 1.6493-10.3002 1.6493-16.2433z"/><path stroke-linecap="round" stroke-linejoin="round" d="M45.9384 16.7398s.1115 4.158.1115 8.1058c0 2.9609-.8993 4.8203-2.1809 5.565h0l.0285 28.4181c0 1.1046-.8954 2-2 2s-2-.8954-2-2l.8108-28.4123h0c-1.287-.7408-2.191-2.6022-2.191-5.5708 0-3.9478.1115-8.1058.1115-8.1058m3.6542.0002v9.585"/></g></svg>