<svg xmlns="http://www.w3.org/2000/svg" role="img" viewBox="4.80 4.80 62.27 62.27"><title>1F372.svg</title><path fill="#FFF" d="M7 36c0 16.0166 12.9834 29 29 29s29-12.9834 29-29H7z"/><path fill="#d0cfce" d="M49 36c0 16.0156-4 29-13 29 16.0166 0 29-12.9844 29-29H49z"/><g fill="none" stroke="#000" stroke-linecap="round" stroke-linejoin="round" stroke-miterlimit="10" stroke-width="2"><path d="M7 36c0 16.0166 12.9834 29 29 29s29-12.9834 29-29H7zm0-10.859l7 7M29.043 7.8457c.1015 1.125.5605 2.2236 1.4209 3.084 1.9521 1.9512 1.9521 5.1172 0 7.0703-1.9522 1.9531-1.9522 5.1191 0 7.0703 1.9521 1.9512 1.9521 5.1172 0 7.0703m4.1064-25.1045c-.1006 1.3975.3613 2.8262 1.4297 3.8936 1.9521 1.9512 1.9521 5.1172 0 7.0703-1.9521 1.9531-1.9521 5.1191 0 7.0703 1.9521 1.9512 1.9521 5.1172 0 7.0703m4.0107-24.8574c-.0302 1.3164.4483 2.6426 1.4532 3.6465 1.9521 1.9512 1.9521 5.1172 0 7.0703-1.9522 1.9531-1.9522 5.1191 0 7.0703 1.9521 1.9512 1.9521 5.1172 0 7.0703"/></g></svg>