<svg xmlns="http://www.w3.org/2000/svg" role="img" viewBox="14.74 9.37 46.65 52.52"><title>1F37A.svg</title><path fill="#FCEA2B" d="M19 23.23h30v36.386H19z"/><path fill="#F1B31C" d="M40.526 23.23L33 59.616h16V23.23z"/><path fill="#FFF" d="M44.1933 15.3999c-1.304-.001-2.5018.4709-3.4585 1.2577-.9376-1.9375-2.8336-3.2665-5.0258-3.2682-.8005-.0006-1.5606.1771-2.2511.4952-1.1199-1.5208-2.8597-2.5031-4.819-2.5046-2.9465-.0023-5.4063 2.205-5.997 5.1492-.3479-.0874-.7061-.1448-1.0785-.1451-2.6033-.0021-4.7162 2.2396-4.7184 5.0059l-.0063 8.0154c-.0009 1.1021.847 2.0045 1.8842 2.0053l.9429.0007c1.0372.0008 1.8865-.9002 1.8873-2.0024l.0013-1.5991c.5711.3722 1.2338.5981 1.9494.5987l1.8546.0015c1.2022.0009 2.2653-.6144 2.9581-1.5517 1.0256 1.5428 2.7125 2.5581 4.6153 2.5596 3.1115.0025 5.6594-2.7007 5.662-6.0071l10.9214.0086c.2098-.627.3301-1.3002.3306-2.0036.0027-3.3203-2.5278-6.0135-5.6525-6.016z"/><path fill="#FFF" d="M19.8066 24.8075c.0022-2.6882 2.115-4.8665 4.7184-4.8646.3724.0003.7307.0561 1.0785.141.5907-2.861 3.0506-5.006 5.9971-5.0037 1.9593.0015 3.699.956 4.8189 2.4339.6904-.3091 1.4505-.4818 2.2511-.4812 2.1922.0017 4.0882 1.2932 5.0258 3.1759.9567-.7645 2.1545-1.2232 3.4585-1.2222.5297.0004 1.0401.0815 1.5261.2223-.7688-2.2807-2.8627-3.9207-5.3338-3.9226-1.304-.001-2.5018.4577-3.4585 1.2222-.9376-1.8828-2.8336-3.1742-5.0258-3.1759-.8005-.0006-1.5607.1721-2.2511.4812-1.1199-1.4778-2.8597-2.4324-4.8189-2.4339-2.9465-.0023-5.4064 2.1427-5.9971 5.0037-.3478-.085-.7061-.1407-1.0785-.141-2.6034-.002-4.7163 2.1764-4.7184 4.8646l-.0063 7.7891c-.0009 1.071.847 1.9479 1.8842 1.9487l.9429.0007c.3605.0003.6951-.1105.9824-.2934l.0045-5.7448z"/><g fill="none" stroke="#000" stroke-linecap="round" stroke-linejoin="round" stroke-miterlimit="10"><path stroke-width="2" d="M49.5 50.5h6c2.2 0 4-1.8 4-4v-14c0-2.2-1.8-4-4-4h-6"/><path stroke-width="2.018" d="M38.594 23.23H49V60H20V39.635"/><path stroke-width="2" d="M20.2515 31.3124c.753-.2628 1.3009-1.0182 1.3016-1.9033l.0013-1.5991c.5711.3722 1.2338.5981 1.9494.5987l1.8546.0015c1.2022.0009 2.2653-.6144 2.9581-1.5517 1.0256 1.5428 2.7125 2.5581 4.6153 2.5596 3.1115.0025 5.6594-2.7007 5.662-6.0071l10.9214.0086c.2098-.627.3301-1.3002.3306-2.0036.0026-3.3204-2.5278-6.0136-5.6525-6.016-1.304-.001-2.5018.4709-3.4585 1.2577-.9376-1.9375-2.8336-3.2665-5.0258-3.2682-.8005-.0006-1.5606.1771-2.2511.4952-1.1199-1.5208-2.8597-2.5031-4.819-2.5046-2.9465-.0023-5.4063 2.205-5.997 5.1492-.3479-.0874-.7061-.1448-1.0785-.1451-2.6033-.0021-4.7162 2.2396-4.7184 5.0059l-.0063 8.0154c-.0009 1.1021.847 2.0045 1.8842 2.0053l.9429.0007a1.7714 1.7714 0 0 0 .5857-.0991"/></g></svg>