<svg xmlns="http://www.w3.org/2000/svg" role="img" viewBox="1.42 15.92 69.16 40.78"><title>1F37B.svg</title><path fill="#FCEA2B" d="M37.16965 27.66936L58.333 24.76282l3.52522 25.66806-21.16334 2.90654z"/><path fill="#F1B31C" d="M52.352 25.582l-1.781 26.397 11.287-1.551-3.529-25.667z"/><path fill="#FFF" d="M54.1792 19.7033c-.92.1257-1.7192.5748-2.3177 1.2226-.8493-1.2758-2.3157-2.0295-3.8622-1.8181-.5648.0772-1.0837.2763-1.5399.5676-.9375-.9642-2.26-1.4884-3.6423-1.2995-2.0787.2841-3.5999 2.0797-3.731 4.2139-.2539-.0279-.5121-.0337-.7749.0022-1.8366.251-3.1097 2.0372-2.8429 3.9888l.7729 5.6548c.1063.7775.7919 1.3319 1.5236 1.2319l.6652-.0909c.7317-.1 1.2434-.818 1.1372-1.5955l-.1542-1.1281c.439.2071.9283.3023 1.4332.2333l1.3084-.1788c.8481-.1159 1.5384-.6531 1.9362-1.3814.8731.9888 2.1616 1.5414 3.5039 1.358 2.1952-.3 3.7303-2.454 3.4115-4.7866l7.705-1.0531c.0872-.4627.1068-.9492.0389-1.4454-.3203-2.3426-2.3665-3.997-4.5709-3.6957z"/><path fill="#FFF" d="M37.8887 28.7045c-.2592-1.8965 1.02-3.6381 2.8567-3.8891.2627-.0359.5209-.0313.7745-.0051.1393-2.0755 1.6664-3.8272 3.7452-4.1113 1.3822-.1889 2.7021.3157 3.6354 1.2496.4571-.285.9765-.4805 1.5413-.5578 1.5466-.2114 3.0093.5158 3.8533 1.753.6007-.6321 1.4012-1.0718 2.3211-1.1975.3737-.0511.7416-.0434 1.0981.0088-.7635-1.5343-2.3996-2.4881-4.143-2.2498-.9199.1257-1.7204.5655-2.3211 1.1975-.844-1.2372-2.3067-1.9644-3.8533-1.753-.5648.0772-1.0842.2728-1.5413.5578-.9333-.9339-2.2531-1.4385-3.6354-1.2496-2.0788.2842-3.6059 2.0358-3.7452 4.1113-.2536-.0262-.5118-.0308-.7745.0051-1.8367.2511-3.1159 1.9926-2.8567 3.8891l.7509 5.4952c.1032.7556.7864 1.2919 1.5181 1.1919l.6652-.0909c.2543-.0347.4796-.1454.6646-.3022l-.5539-4.053z"/><path fill="#FCEA2B" d="M10.26706 51.42666l3.5288-25.66756 21.16293 2.9095-3.5288 25.66756z"/><path fill="#F1B31C" d="M19.773 26.582l1.78 26.397-11.286-1.551 3.528-25.667z"/><path fill="#FFF" d="M17.9452 20.7033c.92.1257 1.7192.5748 2.3177 1.2226.8493-1.2758 2.3157-2.0295 3.8622-1.8181.5648.0772 1.0837.2763 1.5399.5676.9375-.9642 2.26-1.4884 3.6423-1.2995 2.0787.2841 3.5999 2.0797 3.731 4.2139.2539-.0279.5121-.0337.7749.0022 1.8366.251 3.1097 2.0372 2.8429 3.9888l-.7729 5.6548c-.1063.7775-.7919 1.3319-1.5236 1.2319l-.6652-.0909c-.7317-.1-1.2434-.818-1.1372-1.5955l.1542-1.1281c-.439.2071-.9283.3023-1.4332.2333l-1.3084-.1788c-.8481-.1159-1.5384-.6531-1.9362-1.3814-.8731.9888-2.1616 1.5414-3.5039 1.358-2.1952-.3-3.7303-2.454-3.4115-4.7866l-7.705-1.0531c-.0872-.4627-.1068-.9492-.0389-1.4454.3202-2.3426 2.3664-3.997 4.5709-3.6957z"/><path fill="#FFF" d="M34.2357 29.7045c.2592-1.8965-1.02-3.6381-2.8567-3.8891-.2627-.0359-.5209-.0313-.7745-.0051-.1393-2.0755-1.6664-3.8272-3.7452-4.1113-1.3822-.1889-2.7021.3157-3.6354 1.2496-.4571-.285-.9765-.4805-1.5413-.5578-1.5466-.2114-3.0093.5158-3.8533 1.753-.6007-.6321-1.4012-1.0718-2.3211-1.1975-.3737-.0511-.7416-.0434-1.0981.0088.7635-1.5343 2.3996-2.4881 4.143-2.2498.9199.1257 1.7204.5655 2.3211 1.1975.844-1.2372 2.3067-1.9644 3.8533-1.753.5648.0772 1.0842.2728 1.5413.5578.9333-.9339 2.2531-1.4385 3.6354-1.2496 2.0788.2842 3.6059 2.0358 3.7452 4.1113.2536-.0262.5117-.0308.7745.0051 1.8367.2511 3.1159 1.9926 2.8567 3.8891l-.7509 5.4952c-.1032.7556-.7864 1.2919-1.5181 1.1919l-.6652-.0909c-.2543-.0347-.4796-.1454-.6646-.3022l.5539-4.053z"/><g fill="none" stroke="#000" stroke-linecap="round" stroke-linejoin="round" stroke-miterlimit="10" stroke-width="2"><path d="M61.6211 44.0459l4.2325-.5819c1.5519-.2134 2.6471-1.6577 2.4338-3.2096l-1.3577-9.8759c-.2134-1.5519-1.6577-2.6471-3.2096-2.4338l-4.2325.5819M50.988 25.77l7.341-1.009 3.566 25.938-20.457 2.812-1.975-14.366m-3.3325-7.7178l.1105.8085c.1063.7775.7919 1.3319 1.5236 1.2319l.6652-.0909c.144-.0197.2796-.0633.4035-.1267"/><path d="M38.8333 33.25c.5057-.2584.8189-.8444.7336-1.4689l-.1542-1.1281c.439.2071.9283.3023 1.4332.2333l1.3084-.1788c.8481-.1159 1.5384-.6531 1.9362-1.3814.8731.9888 2.1616 1.5414 3.5039 1.358 2.1952-.3 3.7303-2.454 3.4115-4.7866l7.705-1.0531c.0872-.4627.1068-.9492.0389-1.4454-.3202-2.3425-2.3664-3.9969-4.5708-3.6956-.92.1257-1.7192.5748-2.3177 1.2226-.8493-1.2758-2.3157-2.0295-3.8622-1.8181-.5648.0772-1.0837.2763-1.5399.5676-.9375-.9642-2.26-1.4884-3.6423-1.2995-2.0787.2841-3.5999 2.0797-3.731 4.2139-.2539-.0279-.5121-.0337-.7749.0022-1.1479.1569-2.0756.9134-2.5449 1.9353M10.5032 45.0459l-4.2325-.5819c-1.5519-.2134-2.6471-1.6577-2.4338-3.2096l1.3577-9.8759c.2134-1.5519 1.6577-2.6471 3.2096-2.4338l4.2325.5819M21.136 26.77l-7.341-1.009-3.566 25.938 20.457 2.812 1.975-14.366"/><path d="M33.291 34.25c-.5057-.2584-.8189-.8444-.7336-1.4688l.1542-1.1281c-.439.2071-.9283.3023-1.4332.2333l-1.3084-.1788c-.8481-.1159-1.5384-.6531-1.9362-1.3814-.8731.9888-2.1616 1.5414-3.5039 1.358-2.1952-.3-3.7303-2.454-3.4115-4.7866l-7.705-1.0531c-.0872-.4627-.1068-.9492-.0389-1.4454.3202-2.3425 2.3664-3.9969 4.5708-3.6956.92.1257 1.7192.5748 2.3177 1.2226.8493-1.2758 2.3157-2.0295 3.8622-1.8181.5648.0772 1.0837.2763 1.5399.5676.9375-.9642 2.26-1.4884 3.6423-1.2995 2.0787.2841 3.5999 2.0797 3.731 4.2139.2539-.0279.5121-.0337.7749.0022 1.8366.251 3.1097 2.0372 2.8429 3.9888l-.7729 5.6548c-.1063.7775-.7919 1.3319-1.5236 1.2319l-.6652-.0909a1.26177 1.26177 0 0 1-.4035-.1268"/></g></svg>