<svg xmlns="http://www.w3.org/2000/svg" role="img" viewBox="1.59 13.34 66.69 49.69"><title>1F37D.svg</title><g fill="#D0CFCE" stroke-miterlimit="10" stroke-width="2"><path d="M66.1204 26.2961C66.1204 20.353 61 14.1351 61 16s.9471 26.6324.9471 26.6324L61 58.8287c0 1.1046.8954 2 2 2s2-.8954 2-2l-.5289-16.2893s1.6493-10.3002 1.6493-16.2433z"/><path stroke-linecap="round" stroke-linejoin="round" d="M11.4211 16.7398s.1115 4.158.1115 8.1058c0 2.9609-.8993 4.8203-2.1809 5.565l.0285 28.4181c0 1.1046-.8954 2-2 2s-2-.8954-2-2l.8108-28.4122C4.904 29.6757 4 27.8142 4 24.8456c0-3.9478.1115-8.1058.1115-8.1058m3.6545.0002v9.585"/><circle cx="36" cy="35.958" r="19.958" stroke-linecap="round" stroke-linejoin="round"/><circle cx="36.004" cy="36" r="12.149" stroke-linecap="round" stroke-linejoin="round"/></g><g fill="none" stroke="#000" stroke-miterlimit="10" stroke-width="2"><path d="M66.1204 26.2961C66.1204 20.353 61 14.1351 61 16s.9471 26.6324.9471 26.6324L61 58.8287c0 1.1046.8954 2 2 2s2-.8954 2-2l-.5289-16.2893s1.6493-10.3002 1.6493-16.2433z"/><path stroke-linecap="round" stroke-linejoin="round" d="M11.4211 16.7398s.1115 4.158.1115 8.1058c0 2.9609-.8993 4.8203-2.1809 5.565h0l.0285 28.4181c0 1.1046-.8954 2-2 2s-2-.8954-2-2l.8108-28.4122h0C4.904 29.6757 4 27.8142 4 24.8456c0-3.9478.1115-8.1058.1115-8.1058m3.6545.0002v9.585"/><circle cx="36" cy="35.958" r="19.958" stroke-linecap="round" stroke-linejoin="round"/><circle cx="36.004" cy="36" r="12.149" stroke-linecap="round" stroke-linejoin="round"/></g></svg>