<svg xmlns="http://www.w3.org/2000/svg" role="img" viewBox="10.76 2.88 58.24 58.12"><title>1F373.svg</title><path fill="#9b9b9a" d="M61.8789 5.8789L50.1348 17.8623c1.4922 1.166 2.8369 2.5098 4.0019 4.0029l11.9844-11.7441c1.1719-1.1719 1.1719-3.0713 0-4.2432-1.1719-1.1709-3.0703-1.1709-4.2422.001z"/><path fill="#d0cfce" d="M54.1367 21.8652c-1.164-1.4931-2.5097-2.8369-4.0019-4.0029C46.2344 14.8193 41.3311 13 36 13c-12.7031 0-23 10.2979-23 23s10.2969 23 23 23 23-10.2979 23-23c0-5.3311-1.8184-10.2344-4.8633-14.1348z"/><path fill="#FFF" d="M47.2246 37.5498c-.0723-.0352-.1435-.0703-.2168-.1016-.6338-.3359-1.0566-1.0869-1.0566-1.8535-.0039-.0888-.0205-.1748-.0264-.2636-.0146-.2247-.0361-.4473-.0654-.668-.0196-.1377-.0391-.2744-.0625-.4102-.043-.2402-.0957-.4756-.1543-.709-.0274-.1064-.0528-.2138-.0821-.3183-.0869-.3008-.1884-.5938-.3017-.8828-.0127-.0313-.0225-.0645-.0352-.0957-.7256-1.791-1.956-3.3213-3.5146-4.42-.4551-.373-.7666-.9658-.7666-1.5937C40.5732 23.8359 38.5 22 36 22c-2.2852 0-4.2129 1.5342-4.8086 3.6279-.0508.1778-.1182.4092-.1338.5957-.0488.5918-.2763 1.1143-.6826 1.4795-.1133.0762-.2187.1641-.3291.2451-.0127.0088-.0264.0166-.0381.0254-.0176.0127-.0322.0274-.0488.0401-.209.1572-.4111.3203-.6065.4931-.0254.0215-.0498.045-.0752.0674-.1982.1787-.3906.3643-.5752.5586-.0126.0127-.0244.0274-.0361.0401-1.6748 1.788-2.707 4.1845-2.707 6.8271 0 5.5225 4.4765 10 10 10 .3183 0 .6348-.0176.9453-.0479.2617-.0244.5176-.0654.7725-.1103.0341-.0059.0703-.0088.1045-.0156.6933-.128 1.3613-.3223 1.996-.585.5977-.1641 1.253-.0478 1.7637.3555.0606.0478.125.0918.1807.1474l-.0088.0108C42.5898 46.5273 43.7383 47 45 47c2.7617 0 5-2.2393 5-5 0-1.958-1.1367-3.6318-2.7754-4.4502z"/><circle cx="36" cy="35.875" r="5" fill="#fcea2b"/><g fill="none" stroke="#000" stroke-linecap="round" stroke-linejoin="round" stroke-miterlimit="10" stroke-width="2"><path d="M61.8789 5.8789L50.1348 17.8623c1.4922 1.166 2.8369 2.5098 4.0019 4.0029l11.9844-11.7441c1.1719-1.1719 1.1719-3.0713 0-4.2432-1.1719-1.1709-3.0703-1.1709-4.2422.001z"/><path d="M54.1367 21.8652c-1.164-1.4931-2.5097-2.8369-4.0019-4.0029C46.2344 14.8193 41.3311 13 36 13c-12.7031 0-23 10.2979-23 23s10.2969 23 23 23 23-10.2979 23-23c0-5.3311-1.8184-10.2344-4.8633-14.1348z"/><circle cx="36" cy="35.875" r="5"/><path d="M47.2246 37.5498c-.0723-.0352-.1435-.0703-.2168-.1016-.6338-.3359-1.0566-1.0869-1.0566-1.8535 0-.0009-.0117-.0224-.0147-.0293-.1377-3.1992-1.7715-6.0068-4.2275-7.7383-.4551-.373-.7666-.9658-.7666-1.5937C40.5732 23.8359 38.5 22 36 22c-2.2852 0-4.2129 1.5342-4.8086 3.6279-.0508.1778-.1182.4092-.1338.5957-.0488.5918-.2763 1.1143-.6826 1.4795C27.7109 29.5 25.959 32.5449 25.959 36c0 5.5225 4.4765 10 10 10 1.3525 0 2.6406-.2715 3.8183-.7588.5977-.1641 1.253-.0478 1.7637.3555.0606.0478.125.0918.1807.1474l-.0088.0108C42.5898 46.5273 43.7383 47 45 47c2.7617 0 5-2.2393 5-5 0-1.958-1.1367-3.6318-2.7754-4.4502z"/></g></svg>