<svg xmlns="http://www.w3.org/2000/svg" role="img" viewBox="9.71 2.21 53.58 67.08"><title>1F38B.svg</title><path fill="#B1CC33" d="M57.6963 32.9388c-.0972 0-.1942-.0187-.2886-.056-.58-.2286-14.0759-5.6686-21.5575-17.85-6.8325 3.0833-11.5895 10.2596-11.6642 10.375-.3334.5119-.935.5901-1.3459.1738-.41-.4163-.4717-1.1685-.1392-1.6804.1298-.1982 13.1054-19.7577 27.7987-9.8503 7.8693 5.3059 8.1448 17.1677 8.1532 17.6704.0056.3848-.1372.7497-.3839.9795-.1673.1565-.369.238-.5726.238z"/><path fill="#5C9E31" d="M23.9844 25.9945c1.9157-2.992 5.2798-7.3798 9.791-9.9801.6218-.3907 1.2601-.761 1.9261-1.083.0206.0323.0425.0629.0632.0952 3.6437-1.5269 7.9114-1.7803 12.6838.6358 7.7149 3.9057 9.912 14.0599 10.3039 16.2592.0769-.1857.1241-.3896.1162-.606-.0195-.5083-.5581-12.503-8.5431-17.6986C35.416 3.9156 22.8774 23.9885 22.752 24.1919c-.3211.5251-.2427 1.2848.1765 1.697.3152.3093.7316.3343 1.0559.1056z"/><path fill="#B1CC33" d="M28.7007 4.534H15.5409c-1.5335 0-2.6953.5828-2.3725 1.2062 1.0379 2.0035 1.6823 4.784 1.6823 7.8618 0 3.7561-.9596 8.0768-2.4233 10.0755v2.0151c1.4637 1.9986 2.4233 6.3192 2.4233 10.0755 0 3.756-.9596 8.0768-2.4233 10.0755v2.0151c1.4637 1.9986 2.4233 6.3192 2.4233 10.0755 0 3.0779-.6444 5.8583-1.6823 7.8618-.3231.6233.839 1.2062 2.3725 1.2062h13.1595c1.5335 0 2.6953-.5828 2.3725-1.2062-1.0379-2.0035-1.6823-4.7839-1.6823-7.8618 0-3.7561.9596-8.0769 2.4233-10.0755v-2.0151c-1.4637-1.9987-2.4233-6.3194-2.4233-10.0755s.9596-8.0769 2.4233-10.0755v-2.0151c-1.4637-1.9987-2.4233-6.3194-2.4233-10.0755 0-3.0778.6444-5.8583 1.6823-7.8618.3231-.6234-.839-1.2062-2.3722-1.2062z"/><path fill="#5C9E31" d="M22.8988 65.7955c1.3567-2.0035 2.1991-4.784 2.1991-7.8618 0-3.7561-1.2543-7.0694-3.1676-9.068v-4.0301c1.9133-1.9987 3.1676-5.3118 3.1676-9.068s-1.2543-7.0693-3.1676-9.0679v-4.0301c1.9133-1.9987 3.1676-5.3118 3.1676-9.068 0-3.0779-.8423-5.8583-2.1991-7.8618-.422-.623 1.0966-1.2058 3.1012-1.2058h-9.5028c-2.0046 0-3.5232.5828-3.1012 1.2062 1.3571 2.0035 2.1991 4.7839 2.1991 7.8618 0 3.7561-1.2543 8.0768-3.1676 10.0755v2.0151c1.9133 1.9986 3.1676 6.3192 3.1676 10.0755 0 3.756-1.2543 8.0768-3.1676 10.0755v2.0151c1.9133 1.9986 3.1676 6.3192 3.1676 10.0755 0 3.0778-.8423 5.8583-2.1991 7.8618-.4219.6232 1.0967 1.2062 3.1012 1.2062H26c-2.0046-.0005-3.5232-.5833-3.1012-1.2067z"/><path fill="#EA5A47" d="M40.445 27.9895l-5.4208 2.6931c-.6447.3203-.978 1.0867-.7746 1.8045 1.2382 4.368 5.9416 19.1975 15.1459 28.9456.5127.5431 1.346.5627 1.9107.0672l9.2458-8.1146c.7049-.6187.7032-1.763-.0138-2.3489-3.1252-2.5532-10.8734-9.6479-18.2871-22.4672-.3752-.6488-1.1502-.9056-1.8061-.5797z"/><path fill="#D22F27" d="M39.497 28.4598l-4.2734 2.123c-.6447.3203-.978 1.0867-.7746 1.8045 1.2382 4.368 5.9416 19.1975 15.1459 28.9456.5127.5431 1.346.5627 1.9107.0672l2.5674-2.2533c-8.8263-10.3646-13.3245-25.831-14.576-30.687z"/><path fill="#5C9E31" d="M31.5232 50.2071H12.4641c-.8053 0-1.4641-.6589-1.4641-1.4641v-4.294c0-.8052.6588-1.4641 1.4641-1.4641h19.0591c.8053 0 1.4641.6588 1.4641 1.4641v4.2939c0 .8053-.6588 1.4642-1.4641 1.4642zm0-22H12.4641c-.8053 0-1.4641-.6589-1.4641-1.4641v-4.294c0-.8052.6588-1.4641 1.4641-1.4641h19.0591c.8053 0 1.4641.6588 1.4641 1.4641v4.2939c0 .8053-.6588 1.4642-1.4641 1.4642z"/><path fill="#B1CC33" d="M31.5232 20.9849h-.2072L16.892 28.207h14.6311c.8053 0 1.4641-.6588 1.4641-1.4641V22.449c.0001-.8053-.6587-1.4641-1.464-1.4641zm0 22h-.2072L16.892 50.207h14.6311c.8053 0 1.4641-.6588 1.4641-1.4641V44.449c.0001-.8053-.6587-1.4641-1.464-1.4641z"/><g><path fill="none" stroke="#000" stroke-linecap="round" stroke-linejoin="round" stroke-miterlimit="10" stroke-width="2" d="M41 12c3.3439-.5011 6.7458-.4799 10.4994 2.0511 7.8693 5.3059 8.1448 17.1677 8.1532 17.6704.0056.3848-.1372.7497-.3839.9795-.167.1563-.3688.2379-.5724.2379-.0972 0-.1942-.0187-.2886-.056C57.8743 32.6727 46.6569 28.2104 39 18m1.445 9.9895l-5.4208 2.6931c-.6447.3203-.978 1.0867-.7746 1.8045 1.2382 4.368 5.9416 19.1975 15.1459 28.9456.5127.5431 1.346.5627 1.9107.0672l9.2458-8.1146c.7049-.6187.7032-1.763-.0138-2.3489-3.1252-2.5532-10.8734-9.6479-18.2871-22.4672-.3752-.6488-1.1502-.9056-1.8061-.5797z"/><path d="M15.9497 13.5739c.0132-2.9297-.5317-5.7065-1.5405-7.8848.2617-.0942.6865-.1973 1.2671-.1841l13.1597.0586c.5742.0024 1.0034.0991 1.2646.1953-1.0283 2.1694-1.5977 4.9414-1.6108 7.8711-.0059 1.3179.103 2.7412.3154 4.1152.1804 1.1668.4319 2.2573.733 3.2396H31.64c-.3561-1.0208-.6553-2.2333-.8583-3.5453-.1968-1.2715-.2974-2.5859-.292-3.8008.0127-2.8184.582-5.4443 1.603-7.394.2412-.4604.2256-.9814-.0439-1.4292-.5508-.915-2.0161-1.2466-3.2041-1.252L15.6855 3.505c-1.21.0195-2.6558.3125-3.2153 1.2227-.2734.4453-.2944.9658-.0576 1.4287 1.0039 1.959 1.5498 4.5903 1.5371 7.4087-.0114 2.6023-.5109 5.3911-1.2535 7.4198h2.1182c.6929-2.1552 1.1239-4.818 1.1353-7.411zm-.0991 22.166c.0116-2.53-.4008-5.3115-1.1029-7.5328H12.637c.0374.1025.0764.1989.1125.3057.7007 2.0723 1.1123 4.7705 1.1011 7.2183-.0111 2.5326-.4857 5.2396-1.1954 7.2538h2.1177c.6606-2.1242 1.0666-4.7207 1.0777-7.245zm14.54.0649c.0118-2.6768.5377-5.5574 1.316-7.5977h-2.119c-.728 2.1857-1.1853 4.9222-1.197 7.5889-.0113 2.4971.362 5.0714.9913 7.1888h2.1103c-.6751-2.0117-1.1129-4.6825-1.1016-7.18zm-1.8657 18.8438l.0005.0001c-.1509 1.1279-.2295 2.2431-.2339 3.3124-.0132 2.9307.5317 5.708 1.5405 7.8857-.2617.0938-.6904.1797-1.2671.1846l-13.1592-.0596c-.5742-.0029-1.0039-.0996-1.2651-.1953 1.0283-2.1699 1.5977-4.9414 1.6108-7.8711.0122-2.7077-.4344-5.4905-1.1622-7.6984h-2.1128c.7759 2.0511 1.2873 4.9786 1.275 7.6886-.0127 2.8193-.582 5.4453-1.603 7.3945-.2412.4609-.2256.9814.0439 1.4297.5508.915 2.0166 1.2471 3.2046 1.252l13.1592.0596h.0288c1.1821 0 2.6309-.3203 3.186-1.2236.2734-.4443.2944-.9658.0576-1.4287-1.0039-1.959-1.5498-4.5898-1.5371-7.4092.0044-.9844.0771-2.0127.2163-3.0557.0001-.0008-.0002-.0014-.0001-.0022.2372-1.7746.6535-3.4259 1.1619-4.705H29.537c-.4419 1.2899-.7925 2.7973-1.0121 4.4416z"/></g></svg>