<svg xmlns="http://www.w3.org/2000/svg" role="img" viewBox="9.76 10.13 51.61 51.61"><title>1F39B.svg</title><g id="color"><path fill="#D0CFCE" d="M13.8627,12.1552c-1.1508,0-2.0876,0.9362-2.0876,2.0876v43.5128c0,1.1508,0.9368,2.0876,2.0876,2.0876 h43.5139c1.1508,0,2.0876-0.9368,2.0876-2.0876V14.2428c0-1.1514-0.9368-2.0876-2.0876-2.0876H13.8627z"/><path fill="#9B9B9A" d="M18.3877 47.8604c0-.5528 1.4504 2.0709 1.4504 2.0709s2.3432 2.9292 4.5493 2.9292 5-2.794 5-5c0-2.2061-.7639-4.5707-2.97-4.5707-.5527 0-2.5849-1.4257-2.0346-1.4285-.0067 0-.0132-.0009-.0198-.0009-1.5741 0-3.002.6109-4.0723 1.6024l-1.2249 1.5816c-.4475.84-.703 1.7979-.703 2.8161M50.8994 43.6182c.3906.3906-1.0234.5113-1.414.1206-1.5118-1.5117-4.1456-1.7685-5.6573-.2568-.7558.7559-2.3559 2.969-2.3559 4.0374 0 1.0683.8929 3.1207 1.6487 3.8766 1.5586 1.5585 4.7518 1.8046 6.3124.2461.3906-.3907 1.8563.0683 1.4677.459.8179-.8186 1.3997-1.8728 1.6368-3.0517l.0579-1.9982c-.2074-1.5344-.9886-2.8865-2.128-3.8247C50.6166 43.3495 50.761 43.4797 50.8994 43.6182zM30.302 24.7566c-.1589-1.1738-.6542-2.2388-1.3899-3.095.2868.4086-.9581.4745-1.3262.0629-.7139-.7949-1.6947-1.0792-2.7611-1.1373-1.0722-.0499-2.9824.2682-3.7783.981-.7949.7139-1.6015 2.4796-1.6591 3.5465-.0586 1.0674-.1538 2.4763.5601 3.2713.7138.7954 3.157 2.3541 4.2244 2.4117 1.0576.0508 4.6217-1.235 4.2928-.8597.891-.8364 1.5295-1.9377 1.7797-3.1826L30.302 24.7566zM51.7237 22.3636l-1.3348-1.4893c-.9584-.7633-2.1552-1.235-3.4612-1.2935.5337.0405-1.3506 1.1086-1.3506 1.1086s-3.8299 2.4771-3.9168 4.6807c-.086 2.2031 2.6346 5.145 4.8387 5.2329 2.2002.0898 4.958-1.7837 5.0449-3.9873.0215-.5522 1.1056-1.3812 1.1023-.8443.0024-.0684.0104-.1352.0104-.2042C52.6566 24.3878 52.3115 23.2913 51.7237 22.3636z"/></g><g id="line" fill="none" stroke="#000" stroke-linecap="round" stroke-linejoin="round" stroke-miterlimit="10" stroke-width="2"><path d="M56.4636,59.8432h-41.688c-1.6569,0-3-1.3431-3-3v-41.688c0-1.6569,1.3431-3,3-3h41.688c1.6569,0,3,1.3431,3,3v41.688 C59.4636,58.5001,58.1205,59.8432,56.4636,59.8432z"/><path d="M51.6525 25.7643c-.1089 2.7593-2.434 4.9079-5.1932 4.799-2.7594-.1089-4.9079-2.434-4.799-5.1932.1089-2.7593 2.4339-4.9079 5.1932-4.799M27.7268 29.2886c-2.0552 1.8442-5.2165 1.6732-7.0608-.382-1.8442-2.0552-1.6732-5.2165.382-7.0608 2.0552-1.8442 5.2165-1.6732 7.0608.382M50.1919 51.396c-1.9526 1.9527-5.1184 1.9526-7.071 0-1.9527-1.9526-1.9527-5.1184 0-7.071 1.9526-1.9526 5.1184-1.9527 7.071 0M24.3874 42.8605c2.7614 0 5 2.2386 5 5 0 2.7615-2.2386 5-5 5-2.7614 0-5-2.2385-5-5M24.387 47.861L18.782 43.567M53.492 48.08L46.656 47.861M31.346 25.799L24.166 25.515M51.656 21.08L46.656 25.567"/></g></svg>