<svg xmlns="http://www.w3.org/2000/svg" role="img" viewBox="13.91 5.91 44.17 56.55"><title>1F390.svg</title><path fill="#92d3f5" d="M55.1767 38.6265a19.6726 19.6726 0 0 0 .4943-9.2146A19.9973 19.9973 0 0 0 16 33a19.7418 19.7418 0 0 0 .8242 5.63 2.0054 2.0054 0 0 0 1.9234 1.4292h34.5045a2.0071 2.0071 0 0 0 1.9246-1.4327z"/><path fill="#f1b31c" d="M39 41a3 3 0 0 1-6 0"/><path fill="#d0cfce" d="M16 54a14.4232 14.4232 0 0 0 14-4l4 6a14.4232 14.4232 0 0 1-14 4z"/><g><g fill="none" stroke="#000" stroke-width="2"><path stroke-miterlimit="10" d="M55.1767 38.6265a19.6726 19.6726 0 0 0 .4943-9.2146A19.9973 19.9973 0 0 0 16 33a19.7418 19.7418 0 0 0 .8242 5.63 2.0054 2.0054 0 0 0 1.9234 1.4292h34.5045a2.0071 2.0071 0 0 0 1.9246-1.4327z"/><path stroke-linecap="round" stroke-miterlimit="10" d="M36 13s.7889-4.1056-1-5"/><path stroke-miterlimit="10" d="M36 44s1 6-4 9m7-12a3 3 0 0 1-6 0"/><path stroke-linejoin="round" d="M16 54a14.4232 14.4232 0 0 0 14-4l4 6a14.4232 14.4232 0 0 1-14 4z"/></g></g></svg>