<svg xmlns="http://www.w3.org/2000/svg" role="img" viewBox="13.74 1.74 44.39 65.39"><title>1F392.svg</title><g stroke-linecap="round" stroke-linejoin="round" stroke-miterlimit="10" stroke-width="2"><path fill="#D22F27" d="M56 31.0833c0-11.0457-8.9543-20-20-20s-20 8.9543-20 20v33.875h40v-33.875z"/><path fill="#EA5A47" d="M51.6465 52.9649v7.6214h-31.293v-7.492 1.9266-24.416c0-8.6413 7.0052-15.6465 15.6465-15.6465s15.6465 7.0052 15.6465 15.6465v24.416"/></g><g fill="none" stroke="#000" stroke-linecap="round" stroke-linejoin="round" stroke-miterlimit="10" stroke-width="2"><path d="M56 31.0833c0-11.0457-8.9543-20-20-20s-20 8.9543-20 20v33.875h40v-33.875z"/><path d="M51.6465 52.9649v7.6214h-31.293v-7.492 1.9266-24.416c0-8.6413 7.0052-15.6465 15.6465-15.6465s15.6465 7.0052 15.6465 15.6465v24.416M23.904 49.455h22.994M31 9c0-2.7614 2.2386-5 5-5s5 2.2386 5 5"/></g></svg>