<svg xmlns="http://www.w3.org/2000/svg" role="img" viewBox="2.85 3.73 66.17 61.42"><title>1F3AE.svg</title><g id="color" fill="#9B9B9A" stroke-miterlimit="10" stroke-width="2"><path stroke="#9B9B9A" d="M34.3553,28.1713V9.1147c0,0,1.3139-2.3918,3,0 v19.0566"/><path d="M36.0455,53.8657l-10.4464,0 c-0.678,0-1.285,0.3865-1.6097,0.9818c-3.4584,6.3419-8.0837,7.8418-9.3408,8.0783c-0.1622,0.0305-0.3206,0.0576-0.4855,0.0624 C-0.2411,63.4131,7.0666,44.424,7.0666,44.424c2.0845-6.0901,7.1142-13.241,8.808-14.8908 c0.3487-0.3396,0.8102-0.5286,1.2969-0.5286h13.0964h11.4641h13.0964c0.4867,0,0.9483,0.189,1.2969,0.5286 c1.6938,1.6498,6.7235,8.8007,8.808,14.8908c0,0,7.3077,18.9891-7.0965,18.5642c-0.165-0.0049-0.3233-0.0319-0.4855-0.0624 c-1.2571-0.2365-5.8824-1.7364-9.3408-8.0783c-0.3246-0.5953-0.9316-0.9818-1.6097-0.9818l-10.4464,0"/></g><g id="line"><path fill="none" stroke="#000" stroke-miterlimit="10" stroke-width="2" d="M36.0455,53.8657l-10.4464,0 c-0.678,0-1.285,0.3865-1.6097,0.9818c-3.4584,6.3419-8.0837,7.8418-9.3408,8.0783c-0.1622,0.0305-0.3206,0.0576-0.4855,0.0624 C-0.2411,63.4131,7.0666,44.424,7.0666,44.424c2.0845-6.0901,7.1142-13.241,8.808-14.8908 c0.3487-0.3396,0.8102-0.5286,1.2969-0.5286h13.0964h11.4641h13.0964c0.4867,0,0.9483,0.189,1.2969,0.5286 c1.6938,1.6498,6.7235,8.8007,8.808,14.8908c0,0,7.3077,18.9891-7.0965,18.5642c-0.165-0.0049-0.3233-0.0319-0.4855-0.0624 c-1.2571-0.2365-5.8824-1.7364-9.3408-8.0783c-0.3246-0.5953-0.9316-0.9818-1.6097-0.9818l-10.4464,0"/><path stroke="#000" stroke-linecap="round" stroke-linejoin="round" stroke-miterlimit="10" stroke-width="2" d="M24.011 38.376L24.011 39.186 19.796 39.186 14.647 39.186 14.647 38.376 19.692 38.376z"/><path stroke="#000" stroke-linecap="round" stroke-linejoin="round" stroke-miterlimit="10" stroke-width="2" d="M18.924 34.099L19.734 34.099 19.734 38.313 19.734 43.462 18.924 43.462 18.924 38.417z"/><circle cx="30.25" cy="46" r="4"/><circle cx="41.75" cy="46" r="4"/><circle cx="48.612" cy="38.781" r="2"/><circle cx="57.081" cy="38.781" r="2"/><circle cx="52.847" cy="42.536" r="2"/><circle cx="52.847" cy="35.067" r="2"/><path fill="none" stroke="#000" stroke-linecap="round" stroke-linejoin="round" stroke-miterlimit="10" stroke-width="2" d="M34.3553,25.0834V7.0572c0,0,0.5049-0.8693,1.2903-0.9914c0.4816-0.0748,1.0688,0.1313,1.7097,0.9914v18.0262"/></g></svg>