<svg xmlns="http://www.w3.org/2000/svg" role="img" viewBox="10.37 7.75 47.13 52.13"><title>1F3AC.svg</title><circle cx="15.799" cy="30.967" r="1.511" fill="#FFF"/><path fill="#3F3F3F" d="M16.5878 37.3974V54.97c0 1.1026 1.8975 3 3 3l33.6372.2321c1.1025 0 2.2763-2.1295 2.2763-3.2321V37.3974H16.5878zM41.374 12.911l7.151 3.687 2.55-.98-7.152-3.688zm-1.412 7.218l-7.687-3.971-2.739 1.05 7.691 3.972zm-17.877-.062l-3.446 1.648 6.687 4.004 4.384-1.646zm7.173 11.248h-3.595l-5.109 5.735h3.595zm11.967-.348h-2.91l-5.728 6.43h2.909zm3.362 6.43h2.909l5.729-6.43h-2.91z"/><path fill="#FFF" d="M43.331 36.913l4.867-5.462h-5.717l-4.867 5.462zm6.361.077h5.367v-6.024z"/><circle cx="15.799" cy="30.967" r="2.512" fill="#3F3F3F"/><path fill="#FFF" d="M16.5271 33.8909v3.3443h3.2915l5.4403-6.1061h-6.5834c-.3506 1.169-1.1208 2.1474-2.1484 2.7618zM31.33 36.906l4.853-5.447h-5.701l-4.853 5.447zm14.6-25.711l3.647 1.88-1.099-2.859zm-5.917 2.201l-6.28 2.413 7.201 3.719 6.288-2.416zm-11.514 4.556l-5.434 2.089 6.835 3.591 5.501-2.115zm-10.9627 4.2589l-4.9559 1.9047 1.5446 4.0189c.3313-.0798.6724-.1334 1.0278-.1334.658 0 1.2769.155 1.8383.4148.0521-.0293.092-.0728.1495-.0949l6.9447-2.6689-6.549-3.4412z"/><g fill="none" stroke="#000" stroke-linecap="round" stroke-linejoin="round" stroke-miterlimit="10" stroke-width="2"><path d="M17.741 28.643l33.347-12.815-2.307-6.003-36.324 13.959 1.738 4.522m2.3928 9.0913V54.97c0 1.6569 1.3431 3 3 3h32.9135c1.6569 0 3-1.3431 3-3V37.3974l-38.9135-.0001zm2.3092-6.4313h36.604v6.431m-38.913-.347v-3.092"/><path d="M19.7 37.397h4.683l5.729-6.431h-4.683zm12 0h4.683l5.729-6.431h-4.683zm12 0h4.683l5.729-6.431h-4.683z"/><circle cx="15.799" cy="30.966" r="2.511"/><path d="M47.879 17.084l-7.655-3.947 4.371-1.68 6.002 3.094m-9.826 5.26l-4.372 1.678-7.653-3.953 4.373-1.677zM29.71 24.073l-4.384 1.646-7.625-4.006 4.384-1.646z"/></g></svg>