<svg xmlns="http://www.w3.org/2000/svg" role="img" viewBox="4.72 2.47 63.06 66.56"><title>1F3A1.svg</title><path fill="#61b2e4" d="M33.636 37.325L17.31 66.846h12.788l3.538-29.521zm2.75.281l16.261 29.24H39.859l-3.473-29.24z"/><path fill="#92d3f5" d="M46.53 55.464l-7.563-14.071-1.208.699 8.209 24.754h6.679l-5.442-10.127M31.703 42.584L24.001 66.24h6.182l3.304-23.424-1.784-.232z"/><path fill="none" stroke="#9b9b9a" stroke-linecap="round" stroke-linejoin="round" stroke-width="2" d="M38.327 29.961l12.272-12.272m-31.332 31.36L32.36 35.956m24.558-3.029H38.901m11.711 15.749L37.63 35.694m-6.481-2.748h-18.56m19.618-2.647L19.253 17.345m16.279 11.706V10.492"/><circle cx="34.734" cy="33.066" r="24.855" fill="none" stroke="#9b9b9a" stroke-miterlimit="10"/><circle cx="11.682" cy="20.785" r="4.588" fill="#f4aa41"/><circle cx="42.121" cy="9.418" r="4.588" fill="#f4aa41"/><circle cx="60.916" cy="32.206" r="4.64" fill="#f4aa41"/><circle cx="47.91" cy="55.464" r="4.64" fill="#f4aa41"/><circle cx="13.141" cy="47.132" r="4.588" fill="#f4aa41"/><g fill="none" stroke="#000" stroke-width="2"><path stroke-linecap="round" stroke-linejoin="round" d="M31.953 55.464l1.223-18.139m-2.484 25.309l-.594 4.212H17.31l5.268-9.802m10.098-19.719l-8.929 15.648m14.257 2.491l-1.912-18.371m3.197 25.711l.57 4.042h12.788L48.929 60M36.092 37.093l8.184 14.294m16.3702-14.5491c-.8781 6.0565-3.8539 11.6127-8.4087 15.7m-4.9564-42.4567c6.636 3.6279 11.3827 9.944 13.0219 17.3271M14.4392 16.5242c4.9676-6.1062 12.4233-9.6476 20.295-9.64.894-.0001 1.7875.045 2.6769.1352M10.4568 42.8873c-2.2471-5.5798-2.5139-11.7612-.7559-17.5139M43.7629 57.65c-9.864 3.6119-20.9316.9869-28.1229-6.67"/><path stroke-linecap="round" stroke-miterlimit="10" d="M37.1632 36.16c-1.7857 1.181-4.1906.6907-5.3716-1.095-1.181-1.7857-.6907-4.1906 1.095-5.3716 1.7857-1.181 4.1906-.6907 5.3716 1.095.4194.6342.6431 1.3777.6431 2.138"/><path stroke-linecap="round" stroke-linejoin="round" d="M37.969 29.602L50.24 17.331M18.909 48.69l13.093-13.092m-.153-4.941L18.895 17.703m31.359 31.332L37.271 36.052m-6.122-2.599h-18.56m43.687-.02H38.901m-3.876-4.382V10.492"/><circle cx="11.682" cy="20.785" r="4.588" stroke-miterlimit="10"/><circle cx="42.121" cy="9.418" r="4.588" stroke-miterlimit="10"/><path stroke-miterlimit="10" d="M65.5556 32.2058c0 2.5626-2.0774 4.64-4.64 4.64a4.7291 4.7291 0 0 1-.27-.0077c-2.5583-.1491-4.5113-2.3439-4.3621-4.9021s2.3439-4.5113 4.9021-4.3621c2.4536.143 4.3701 2.1745 4.37 4.6323v-.0003zM52.5492 55.4635c0 2.5626-2.0774 4.64-4.64 4.64s-4.64-2.0774-4.64-4.64 2.0774-4.64 4.64-4.64h0c2.5623.0008 4.6392 2.0777 4.64 4.64z"/><circle cx="13.141" cy="47.132" r="4.588" stroke-miterlimit="10"/></g></svg>