<svg xmlns="http://www.w3.org/2000/svg" role="img" viewBox="12.59 2.72 44.56 66.56"><title>1F3BD.svg</title><path fill="#92d3f5" d="M49.9661 4.9838v6s-.41 13 5 13v43h-38v-43c5.3228-.1787 4.9687-13.0312 4.9687-13.0312l.0313-5.9688h3.8363a10 10 0 0 0 20 0z"/><path fill="#61b2e4" d="M45.7971 5.0243a10 10 0 0 1-20 0s3.9632 5.0527 9.3243 5.19c5.4904.1409 10.6757-5.19 10.6757-5.19z"/><path fill="#fcea2b" d="M14.9583 52.0078v-4.9747c15.7925 0 30.8388-18.8652 30.8388-42.0331H50c0 25.9117-16.5064 47.0078-35.0417 47.0078z"/><g><g fill="none" stroke="#000" stroke-linecap="round" stroke-linejoin="round" stroke-width="2"><path d="M16.8914 46.4939V24.0162c5.3229-.1787 4.9687-13.0313 4.9687-13.0313l.0313-5.9687h3.8363a10 10 0 0 0 20 0h4.1637v6s-.41 13 5 13v43h-38v-14.75m24.776-43.9473a10.0055 10.0055 0 0 1-12.1495-.1159"/><path d="M14.9583 52.0078v-4.9747c15.7925 0 30.8388-18.8652 30.8388-42.0331H50c0 25.9117-16.5064 47.0078-35.0417 47.0078z"/></g></g></svg>