<svg xmlns="http://www.w3.org/2000/svg" role="img" viewBox="9.90 16.65 57.33 38.58"><title>1F3B0.svg</title><path fill="#fff" fill-rule="evenodd" d="M12.08 19.86h44.95v32.27H12.08V19.86z"/><path fill="none" stroke="#9b9b9a" stroke-linecap="round" stroke-linejoin="round" stroke-width="2.305" d="M13.23 22.52h42.64m-42.64 27.2h42.64"/><circle cx="62.73" cy="30.73" r="2.593" fill="#ea5a47"/><path fill="#d22f27" d="M64.01 28.68c.7732 1.2034.4244 2.8058-.7791 3.579-.8529.5479-1.947.5479-2.7999 0 .7695 1.2071 2.3719 1.5618 3.579.7923s1.5618-2.3719.7923-3.579a2.5927 2.5927 0 0 0-.7923-.7923z"/><g fill="none" stroke="#000"><path stroke-linecap="round" stroke-linejoin="round" stroke-width="2.305" d="M13.23 19.86h42.64"/><path stroke-linecap="round" stroke-linejoin="round" stroke-width="2" d="M12.08 52.14V19.86"/><path stroke-linecap="round" stroke-linejoin="round" stroke-width="4.007" d="M55.95 52.14h-42.8m0-32.28h42.8"/><path stroke-linecap="round" stroke-linejoin="round" stroke-width="2" d="M27.06 19.86v32.28m14.98-32.28v32.28"/><path stroke-linecap="round" stroke-linejoin="round" stroke-width="1.916" d="M57.273 47.67h5.637"/><path stroke-linecap="round" stroke-linejoin="round" stroke-width="2" d="M62.91 47.42V34"/><circle cx="62.91" cy="30.73" r="2.593" stroke-miterlimit="10" stroke-width="1.297"/><path stroke-linecap="round" stroke-linejoin="round" stroke-width="2" d="M17.3 35.69V33.7h4.54l-2.81 8.07m13.25-10.54v-1.99h4.54l-2.8 8.06m13.24-1.61V33.7h4.54L49 41.77m8.02-21.91v32.28"/></g><g fill="none" stroke="#d22f27" stroke-linecap="round" stroke-linejoin="round" stroke-width="2"><path d="M17.3 35.69V33.7h4.54l-2.81 8.07m13.25-10.54v-1.99h4.54l-2.8 8.06m13.24-1.61V33.7h4.54L49 41.77"/></g></svg>