<svg xmlns="http://www.w3.org/2000/svg" role="img" viewBox="7.09 14.97 60.32 42.20"><title>1F3BA.svg</title><g fill="#fcea2b"><path d="M64.7002 30.7641c-.0261 4.7412.0644 4.5732-2.3232 4.5732s-4.8232-1.6856-4.8232-4.0732 2.4356-4.5732 4.8232-4.5732 2.3462-.0957 2.3232 4.0732zm-11.4997 3.1975c-.1729-.2185-1.8227-2.1692-1.9919-2.3487-1.1848-1.2559-2.4592-1.3887-3.3-1.5459-.6822-.1161-12.9353.3153-13.2062.3154-.4038 0-5.4346.071-5.4346.071-.0658-.003-9.8931-1.5033-10.0487-1.5459-7.7496-2.1225-7.2259-11.2895-7.2206-11.4669l-2.5479-.1341.2846 28.9336 2.2-.0297c.0041-.3338.2735-6.5685 3.511-9.0619 1.0226-.6632 3.3734-2.0291 6.0873-2.5617.7612-.1245 7.8992-.9513 7.9127-.9522 4.7871-.1623 7.7451.0009 11.7434.0594 1.1927.0174 3.2374-.0484 4.1324 0 4.4632.2356 4.7727 4.8017 4.7866 4.9055.6519 4.1258-.7893 6.4384-.9497 6.7144-.6986 1.202-3.127 1.6883-3.7774 1.8776-1.3965.4082-14.6606 1.1363-16.8569.4459-1.2451-.3911-1.7561-.4736-3.0796-1.3706-.1671-.2389-1.3258-.7348-1.4691-3.1484-.1544-2.6006 1.9225-5.1252 2.1405-5.4108.1567-.2035-.0851-.9969.1487-1.0406l-4.6356.2507c.1848.0413-2.8983 6.1734-.8348 9.6792 1.6852 2.496 3.9451 3.6601 5.1433 3.9541.1475.0361 10.8751.546 12.011.5351.568-.0054 10.3163-.9216 10.3163-.9216s4.4666-1.3128 5.4109-4.846c.3059-1.1463.9027-9.6137-.4757-11.3569z"/><path d="M26.2811 36.6705c.0047-.007.0112-.016.0157-.0229l-.2013.0117c.0622-.0007.1239.0004.1856.0112zm31.1491-6.4345c0-.5527-3.6773-1.0075-3.1245-1.0075h-6.0492c.0293.0039-2.6167-.0103-2.5948-.0062 1.9121.3594 7.8915 4.3526 7.6473 4.3635-1.0337.0464 4.9366-.1542 4.9366-.1542s-.8154-2.6428-.8154-3.1956z"/></g><path d="M57.838 30.228h-3.532m9.504 5.205h1.465v-8.838h-1.461M30.972 37.492l.066 6.685m5.773 0l-.066-6.685m5.407 6.685l-.066-6.685m-.871-14.841h1.375m-6.716 0h1.375m-6.648 0h1.374m-5.8671 14.9916s-2.0417 2.6643-2.0417 4.7346c0 2.563 1.3796 4.0715 3.2173 4.6482 1.9612.6154 18.1289.202 19.3513-.154 1.3861-.4037 3.3121-1.1107 3.4554-5.9911.1433-4.8803-1.684-6.0478-2.571-6.7489-1.2532-.7731-19.4493-.1569-19.4493-.1569s-5.189.362-7.6574 1.0359c-9.1295 2.4924-8.0053 11.5071-8.0053 11.5071H9.2654V17.1103h3.0788s-1.6465 9.7107 8.4778 12.178c2.1637.5273 6.989.7823 6.989.7823s19.023-.0951 20.3492.1535c1.3263.2486 2.7594.8684 4.2257 2.7225 2.2131 2.7984 2.3729 7.8267 1.1911 12.2513-1.0834 4.0563-4.7447 5.0552-6.551 5.53-1.8491.4861-18.989.5285-20.9337 0-1.2837-.3489-3.3067-.5402-5.2377-3.8217-2.2431-3.8119-.4919-8.0208.5584-9.0312m38.4202-9.9826c-1.2323.5044-2.1005 1.7157-2.1005 3.1296 0 1.4065.859 2.6123 2.081 3.1215M31.288 26.256v.503m5.273 0v-.503m5.341.503v-.503M30.788 54.529v.546m5.773 0v-.546m5.841.546v-.546" fill="none" stroke="#000" stroke-linecap="round" stroke-linejoin="round" stroke-width="2"/></svg>