<svg xmlns="http://www.w3.org/2000/svg" role="img" viewBox="2.72 32.72 66.43 24.43"><title>1F3CE.svg</title><g id="color"><path fill="#d22f27" d="m5.8542,50.6944s-.4373,4.3055,1.1458,4.3055,13.5313-.0625,13.5313-.0625h40.083l1.8339-2h3.5872v-9.4375s0-7.5417,0-7.5417l-7.5598-.0331c-.7323-.0466-1.466.0649-2.1514.3269h0c-1.0873.4157-1.8217,1.4401-1.8662,2.6034h0s5.2285,5.0625,5.2285,5.0625l-3.9052.0195s-.9391-1.4902-3.0821-2.584c-6.5703-3.3535-11.167-2.417-11.167-2.417l-.5322,5.8888s-10.9347-.2853-14.3498.1747c-1.9697.2656-6.0826,1.0238-10.3648,2.0189-3.2286.75-6.1623,1.959-9.2854,2.9795l-1.1458.6961Z"/><path fill="#ea5a47" d="M10.2197 53.376s-5.7822 1.084-4.2197-.292c0 0 3.9688-2.6465 13.6123-2.8965l-2.7998 3.3906-4.0195 1.2158-2.5733-1.4179zM41.5625 43.6875l.4375-3.836 3.9629.6226c3.2865.5163 6.3508 1.9807 8.8169 4.2135l.3451.3125h-9.5l-4.0625-1.3125zM55.882 35.77L55.717 38 66.277 38 66.112 35.698 55.882 35.77z"/><circle cx="58.75" cy="52" r="2.828" fill="#d0cfce"/><circle cx="21.5" cy="52" r="2.828" fill="#d0cfce"/></g><g id="line"><circle cx="22" cy="52" r="3" fill="none" stroke="#000" stroke-linecap="round" stroke-linejoin="round" stroke-width="2"/><circle cx="39" cy="42" r="3"/><circle cx="59" cy="52" r="3" fill="none" stroke="#000" stroke-linecap="round" stroke-linejoin="round" stroke-width="2"/><path fill="none" stroke="#000" stroke-linecap="round" stroke-linejoin="round" stroke-width="2" d="M65.625 52L67 52 67 35 55 35 55 38 58.188 41.108M16 53l-1 1H5v-4s13-6 26-6h20M29 54L53 54M41 43v-4s10 0 14 5"/></g></svg>