<svg xmlns="http://www.w3.org/2000/svg" role="img" viewBox="17.27 10.90 38.58 50.83"><title>1F3C1.svg</title><g fill="#fff"><path d="M22.358 17.268h6.002v6.002h-6.002zm6.002 16.625l-6.002 1.38v-6.002h6.002v4.622zm0-10.623h6.002v6.002H28.36zm6.0015-6.0023h4.8184c.6536 0 1.1835.5299 1.1835 1.1835v4.8184h-6.0019v-6.0019zm-5.0228-2.2809h3.8864c.6276 0 1.1363.5088 1.1363 1.1363v1.1446h-6.0019V15.966c0-.5408.4384-.9792.9792-.9792z"/><path d="M40.363 35.273l-6.002-2.298v-3.704h6.002v6.002zm0-12.003h6.002v6.002h-6.002zm6.5924-3.0014h4.6796c.4044 0 .7322.3278.7322.7322v2.2688h-6.0019v-2.4109c0-.3259.2642-.5901.5901-.5901zm-.5904 9.0024h6.002v6.002h-6.002z"/><path d="M52.367 23.27h.734v6.002h-.734zM40.3634 35.2734h6.0019v1.9308l-5.2527-1.401c-.995 0-.5196-.3526-.7492-.4006v-.1292zm12.0036-.0004h.72V36.9l-.72.403v-2.03z"/></g><path d="M22.358 23.27h6.002v6.002h-6.002zm6.002-6.002h6.002v6.002H28.36z"/><path d="M28.3595 29.2715h6.0019v3.7038c0 .3524-.2856.638-.638.638h-4.8203c-.3002 0-.5436-.2434-.5436-.5436v-3.7982zm0-12.0038h-3.1253s1.3734-.5252 1.5837-.6208c1.2185-.5537 1.5417-.6208 1.5417-.6208v1.2415zm9.6382 0h-3.6362v-1.3946s.313-.1055 2.7394.8967c.1494.0617.8967.4978.8967.4978z"/><path d="M34.361 23.27h6.002v6.002h-6.002zm12.0043-.0004h-6.0019v-4.6237l5.2898 1.1647c.4159.0916.7121.4601.7121.8859v2.5731zM40.363 29.271h6.002v6.002h-6.002zm6.002-6.001h6.002v6.002h-6.002zm6.0022-2.9606c.9634 0 .7629.7409.7629 1.7043l-.0285.3562c0 .5429.1903.8845.027.8996h-.7614v-2.9602zm0 8.9621h.7762c.0589 0 .1066.1032.1066.2305v5.5584c0 .1177-.0441.213-.0985.213h-.7843v-6.0019zm-6.0019 6.0019h6.0019v1.9158c0 .7382-.6391 1.3365-1.4274 1.3365l-3.0775-.1935c-.8391 0-1.497-.4434-1.497-1.2291v-1.8298z"/><path fill="none" stroke="#000" stroke-linecap="round" stroke-linejoin="round" stroke-width="2" d="M23.0844 17.488C25.9694 15.6897 31.5062 13.2554 37.5 16c3.689 1.6892 5.6344 4.6976 15.0405 4.1142.7886-.0489 1.4595.5967 1.4595 1.4106v15.1253c0 .6226-.4235 1.0771-.9648 1.354C51.0882 39 45.7637 38.939 37.5 35c-3.3653-1.6041-8.5703-2.5683-14.4582 1.4425"/><path fill="none" stroke="#000" stroke-linecap="round" stroke-miterlimit="10" stroke-width="2" d="M19.327 12.875v46.96"/></svg>