<svg xmlns="http://www.w3.org/2000/svg" role="img" viewBox="4.51 5.76 64.48 63.10"><title>1F3C4-1F3FE.svg</title><path fill="#92D3F5" d="M34 66s5 1 8 0l5-2 5-6s2-3 3-6 2.0313-3.625 2.8281-3.625c.7969 0 1.8291.625 1.8291.625s.6914 2.1738.167 3c0 0-2.1103 3.2178-1.4736 2.4795 0 0 1.7744-.3545 2.6494-.3545s3.6689.3867 4 2.375c.125.75-.125 1.8242 1.125 2.9746 0 0 1.1221 4 .709 3.9697-.4131-.0302-4.583.543-5.834-.4013 0 0-2.751-3.0215-3.834-3.0215 0 0-2.3066 1.3506-5.167 3.4228C44.333 69 36.6445 68.0352 35 66.7754"/><g fill="#a57939" stroke="#a57939"><circle cx="35.969" cy="11.094" r="3"/><path d="M45 23v24l-2 13h-3V47l-2-8h-1l-6 8-4 10h-3l2-13 6-9 2-5v-5l-2.916-1.7495s-1.707-.5835-3.999.6245-5.584 1.958-7.084 2.125-6.6905 0-7.125 0C11.709 26 11 25.3335 11 24.042c0 0 8.584-.0425 10.25-.626s10.25-4.0835 10.25-4.0835L46.084 18l11.9707 6.7378 3.7803 1.6792s-.377 1.8745-2.8975 1.1143C56.6631 26.8452 52.667 25 49.0625 22.5c-.6504-.4507-3.125-1.0937-3.125.5"/></g><g fill="none" stroke="#000" stroke-miterlimit="10" stroke-width="2"><circle cx="35.969" cy="11.094" r="3"/><path stroke-linecap="round" stroke-linejoin="round" d="M11.875 24L17 23.9927c2.75-.0039 6.7998-1.1289 9-2.5 2.2002-1.3711 5.7998-2.7178 8-2.9927 2.2002-.2749 6.25-.5 9-.5h0c2.75 0 6.3496 1.125 8 2.5 1.6504 1.375 4.5752 3.1748 6.5 4 1.9248.8252 3.5 1.5 3.5 1.5"/><path stroke-linecap="round" stroke-linejoin="round" d="M45 23v22c0 1.0996-.1367 2.8896-.3037 3.9766l-1.3926 9.0468C43.1367 59.1104 42.3252 60 41.5 60s-1.5-.9004-1.5-2v-9c0-1.0996-.2187-2.873-.4854-3.9404l-1.0292-4.1192C38.2188 39.873 37.7754 39 37.5 39c-.2754 0-1.04.7197-1.7002 1.5996l-3.6006 4.8008c-.6601.8799-1.5342 2.4355-1.9424 3.457l-2.5146 6.2852C27.334 56.1641 26.3242 57 25.5 57s-1.3633-.8896-1.1953-1.9766l1.3906-9.0468c.168-1.087.8037-2.7256 1.4141-3.6407l3.7812-5.6718c.6104-.9151 1.4434-2.5 1.8516-3.5215l.5156-1.2852C33.666 30.8359 34 29.0996 34 28v-1c0-1.1001-.4502-2.4502-1-3l-1-1m24 30s0-4 2-4 2 2 1 3m-6 11.4443s1.1055-1.5527 2-2c2-1 3 0 3 0m4 1.2998s3.2686 2.3047 4.4209.67c.6445-.9141.9121-3.0284-2.1162-3.9395M6.8125 57.1875S9.166 58.4814 16 60c9 2 22.8125 3.1875 22.8125 3.1875M33 66c4 1 9 1 12-1 3.7207-2.4805 6-9 15-10"/></g></svg>