<svg xmlns="http://www.w3.org/2000/svg" role="img" viewBox="7.96 17.21 53.95 39.33"><title>1F3D6.svg</title><path fill="#F1B31C" d="M10 50c0-1 10.9255-10.6791 24-8.5.3311.0552.6606.1119.9885.17l5.5038 1.1217C49.5282 44.8554 59 49 60 49.4953c0 0 1.0586 1.1176.6667 2.4214C60.2708 53.2333 57.1563 54 57.1563 54h-5.601l-5.8296 1.2432L27.5833 55l-12.4981-1H11.75s-1.2199-.5756-1.75-1.8333C9.4688 50.9063 10 50 10 50z"/><path fill="#92D3F5" d="M12 55.5c1.7419-2.0295 4.3382-5.4262 7-5 2.888.4624 4.6471 4.065 6.4235 4.065 2.8824 0 4.5234-3.588 8.5765-4.065 3.6107-.4249 3.5938 2.2813 6.0156 3.6719.9737.5591 2.5983.3262 2.9844.3281 3.6617.0176 4.9681-3.9727 8-4 4.0625-.0366 7.4063 1.5625 8 5"/><path fill="#FFF" d="M52.2263 33.4883C53.3772 26.9616 48.7987 20.6988 42 19.5s-13.243 3.1204-14.3939 9.6471l24.6202 4.3412z"/><path fill="#EA5A47" d="M44.8403 32.1859C45.9911 25.6592 44.7195 19.9795 42 19.5s-5.857 4.4227-7.0078 10.9495l9.8481 1.7364z"/><g fill="none" stroke="#000" stroke-linecap="round" stroke-linejoin="round" stroke-miterlimit="10" stroke-width="2"><path d="M12 54.5c1.7419-2.0295 4.3382-4.4262 7-4 2.888.4624 3.3025 3.4841 6 4 3.091.5912 4.9469-3.523 9-4 3.6107-.4249 4.0565 2.411 6.6667 3.5456 1.0297.4476 1.9472.4525 2.3333.4544 3.6617.0176 4.9951-3.5954 8-4 1.3292-.179 3.3015.2273 6 3m-15.313-9.4199C50.7229 46.1438 56.7475 48.5 60 48.5M10 49c3.572-.3572 9.7488-8.8785 22.8233-6.6994.3311.0552.6606.1119.9885.17m18.4145-8.9823C53.3772 26.9616 48.7987 20.6988 42 19.5s-13.243 3.1204-14.3939 9.6471l24.6202 4.3412z"/><path d="M44.8403 32.1859C45.9911 25.6592 44.7195 19.9795 42 19.5s-5.857 4.4227-7.0078 10.9495l9.8481 1.7364zM37.312 46.09h0l2.604-14.772h0z"/></g></svg>