<svg xmlns="http://www.w3.org/2000/svg" role="img" viewBox="11.72 1.72 50.31 66.69"><title>1F3D3.svg</title><path fill="#a57939" d="M14.0839 33L45.545 49.8688S36.9166 53.5 26.2499 48.75c.0001 0-8.9166-5.4167-12.166-15.75z"/><path fill="#ea5a47" d="M50.1114 48.3225c-.1236.1086-.2469.217-.3769.3162-4.8051 3.6711-12.1026 3.2038-18.6455 1.6809l-.0783-.0091s-1.1392-.1871-1.6246.8975l-6.9608-3.7043c.6236-1.0115-.113-1.7932-.113-1.7932l-.0365-.0382c-7.2736-6.6788-10.9673-14.9122-5.7359-24.7998C22.6383 9.3458 34.4924-.9163 48.5632 6.5283c11.3007 5.9789 13.3979 16.7366 10.5849 26.4292 0 0-2.4914 9.6105-9.0367 15.365z"/><path fill="none" d="M45.545 49.869l-31.092-16.45"/><path fill="#a57939" d="M22.5813 65.7062l2.7018-7.7053 6.9586-14.445-5.0458-2.3745-7.7172 12.9939s-3.0385 4.7185-3.9735 7.0886c-.4641 1.1762-.6701.8429-.4353 1.9213.2519 1.1563 1.9568 2.5916 3.2969 3.1817.8832.4922 2.4686 1.025 3.6338.1301.1605-.1232.504-.6036.5806-.7908z"/><circle cx="54.822" cy="40.881" r="5" fill="#fff"/><g fill="none" stroke="#000" stroke-linecap="round" stroke-linejoin="round" stroke-width="2"><path d="M29.3861 51.208c.4854-1.0846 1.6246-.8975 1.6246-.8975l.0783.0091c6.7209 1.5643 13.0483 1.2476 18.0324-2.4671m-26.3732-.6704c.2448-.9303-.436-1.4716-.436-1.4716l-.0365-.0382c-7.2736-6.6788-10.9673-14.9122-5.7359-24.7998C22.6383 9.3458 34.4924-.9163 48.5632 6.5283c11.3007 5.9789 12.4779 16.3166 9.6649 26.0092M45.545 49.869L15.07 33.745"/><path d="M22.6023 65.8163l10.3603-22.6045-5.9312-3.138S15.4791 59.2476 14.4775 61.525c-.538 1.2234-.106 2.6457 1.0123 3.3774.6696.4381 1.5138.925 2.4863 1.3477"/><circle cx="54.822" cy="40.881" r="5"/></g></svg>