<svg xmlns="http://www.w3.org/2000/svg" role="img" viewBox="1.54 20.67 69.29 38.79"><title>1F3DC.svg</title><g stroke-linecap="round" stroke-linejoin="round" stroke-miterlimit="10" stroke-width="2"><path fill="#F1B31C" stroke="#F1B31C" d="M65 39s-3 0-6 1c-.8645.2882-2 0-2 0-8.4167 0-12-1.5833-12-1.5833s-5.8333-3.5-7.9167-4.4167C35 33.0833 33 29 33 29c-1-3-3.2795-5.9886-5-6-4.208-.0278-6.2539 5.836-11 9-3 2-3.3904 2.8141-6 4-2.2725 1.0328-3.4741 2.9802-4 4 0 0-2.9792 1.9375-3.0625 5.6875C3.8542 49.4375 7 52 7 52s5 6.75 13.75 3.875c9.1873-3.0187 10.2042-1.4848 13.6508-.7647 4.6036.9617 15.7242-.2978 19.1825 1.223C59.8946 59.1088 64.3621 53.8771 65 53c1.1878-1.6332.7901-4.1216 1.8333-5.5417C69.8333 43.375 68.875 42.375 65 39z"/><path fill="#5c9e31" stroke="#5c9e31" d="M48 49V26c0-1.6569-1.3431-3-3-3h0c-1.6569 0-3 1.3431-3 3v23h6z"/><path fill="#5C9E31" d="M41 35c-1.1046 0-2-.8954-2-2v-2c0-1.1046-.8954-2-2-2s-2 .8954-2 2v2c0 3.3137 2.6863 6 6 6m8 0c1.1046 0 2-.8954 2-2v-5c0-1.1046.8954-2 2-2s2 .8954 2 2v5c0 3.3137-2.6863 6-6 6"/></g><path d="M48 49V26c0-1.6569-1.3431-3-3-3h0c-1.6569 0-3 1.3431-3 3v23m-1-14c-1.1046 0-2-.8954-2-2v-2c0-1.1046-.8954-2-2-2h0c-1.1046 0-2 .8954-2 2v2c0 3.3137 2.6863 6 6 6m8 0c1.1046 0 2-.8954 2-2v-5c0-1.1046.8954-2 2-2h0c1.1046 0 2 .8954 2 2v5c0 3.3137-2.6863 6-6 6m16 10c-1 0-5.1773-.8355-6-1-5-1-9.1501-1.1937-15 1-8 3-8.9429 2.2591-10 2-2.1584-.5291-5.1975-3.8697-9-5-4.706-1.3989-6.1016-1.111-9-1-1.8477.0708-5.1262.5229-9 3m0-12c.5259-1.0198 1.7275-2.9672 4-4 2.6096-1.1859 3-2 6-4 4.7461-3.164 6.792-9.0278 11-9 1.7205.0114 4 3 5 6m32 10s-3 0-6 1c-.8645.2882-2 0-2 0" fill="none" stroke="#000" stroke-linecap="round" stroke-linejoin="round" stroke-miterlimit="10" stroke-width="2"/></svg>