<svg xmlns="http://www.w3.org/2000/svg" role="img" viewBox="3.76 18.76 64.74 39.87"><title>1F3DE.svg</title><g stroke-linecap="round"><path fill="#FFF" stroke-linejoin="round" stroke-width="2" d="M45 56.435V52m13 1.435V49"/><path fill="#9B9B9A" stroke="#9b9b9a" stroke-linejoin="round" stroke-miterlimit="10" stroke-width=".9" d="M37.922 35.109l2.469 6.566 5.359 5.55-35.5-.1 3.792-4.875 1.625-8.172 4.764-12.93 2.722 2.722 2.722 2.042 2.722 5.444H32l5.444 4.083"/><path fill="#92D3F5" stroke="#92D3F5" stroke-linejoin="round" stroke-miterlimit="10" stroke-width="1.9" d="M37 52c-2.6985-2.7727-4.6708-3.179-6-3-3.0049.4046-4.3383 4.0176-8 4-.3861-.0019-1.3036-.0068-2.3333-.4544C18.0565 51.411 17.6107 48.5751 14 49c-4.0531.477-4.909 4.5912-8 4h29.6875"/><path fill="#B1CC33" stroke="#B1CC33" stroke-miterlimit="10" stroke-width="1.9" d="M66.28 39.6464c0-1.586-1.6295-2.8743-3.6396-2.8743-.1679.0014-.3356.012-.5025.0318C61.2867 35.1493 59.4384 34 57.2891 34c-2.9556 0-5.3514 2.1685-5.3514 4.8432.0005.1768.0116.3535.0332.5288-1.3211.4311-2.2509 1.4576-2.2509 2.6564 0 1.5861 1.6295 2.8743 3.6396 2.8743.764.0066 1.5164-.1926 2.1825-.578.8599.7071 2.2359 1.1677 3.7918 1.1677 2.6069 0 4.7201-1.2869 4.7201-2.8743a1.77413 1.77413 0 0 0-.029-.3128c1.323-.4317 2.255-1.4588 2.255-2.6589z"/><path fill="#B1CC33" stroke-miterlimit="10" stroke-width="1.9" d="M52.898 42.9002c0-1.586-1.6295-2.8743-3.6396-2.8743-.1679.0014-.3356.012-.5025.0318-.8512-1.6546-2.6995-2.8039-4.8488-2.8039-2.9556 0-5.3514 2.1685-5.3514 4.8432.0005.1768.0116.3535.0332.5288-1.3211.4311-2.2509 1.4576-2.2509 2.6564 0 1.5861 1.6295 2.8743 3.6396 2.8743.764.0066 1.5164-.1926 2.1825-.578.8599.7071 2.2359 1.1677 3.7918 1.1677 2.6069 0 4.7201-1.2869 4.7201-2.8743a1.77413 1.77413 0 0 0-.029-.3128c1.323-.4317 2.255-1.4588 2.255-2.6589z"/></g><g fill="none" stroke="#000" stroke-linecap="round"><path stroke-linejoin="round" stroke-width="2" d="M45 56.435V52m13 1.435V49"/><path stroke-linejoin="round" stroke-miterlimit="10" stroke-width="2" d="M28.676 31.135l-2.703-5.405-2.703-2.027L20.568 21l-4.73 12.838-1.352 8.108L11.784 46"/><path stroke-linejoin="round" stroke-miterlimit="10" stroke-width="2" d="M24.622 25.054l.675 6.081h6.757l5.405 4.054"/><path stroke-linejoin="round" stroke-miterlimit="10" stroke-width="2" d="M32.054 31.135l2.027 4.054.676 4.054-2.703 4.057L28 46"/><path stroke-miterlimit="10" stroke-width="2" d="M55.5421 44.3247c.8599.7071 2.2359 1.1677 3.7918 1.1677 2.6069 0 4.7201-1.287 4.7201-2.8743a1.77413 1.77413 0 0 0-.029-.3128c1.323-.4317 2.255-1.4588 2.255-2.6589 0-1.586-1.6295-2.8743-3.6396-2.8743-.1679.0014-.3356.012-.5025.0318C61.2867 35.1493 59.4384 34 57.2891 34c-2.5086 0-4.6139 1.5621-5.1934 3.6701"/><path stroke-miterlimit="10" stroke-width="1.9" d="M52.898 42.9002c0-1.586-1.6295-2.8743-3.6396-2.8743-.1679.0014-.3356.012-.5025.0318-.8512-1.6546-2.6995-2.8039-4.8488-2.8039-2.9556 0-5.3514 2.1685-5.3514 4.8432.0005.1768.0116.3535.0332.5288-1.3211.4311-2.2509 1.4576-2.2509 2.6564 0 1.5861 1.6295 2.8743 3.6396 2.8743.764.0066 1.5164-.1926 2.1825-.578.8599.7071 2.2359 1.1677 3.7918 1.1677 2.6069 0 4.7201-1.2869 4.7201-2.8743a1.77413 1.77413 0 0 0-.029-.3128c1.323-.4317 2.255-1.4588 2.255-2.6589z"/><path stroke-linejoin="round" stroke-miterlimit="10" stroke-width="2" d="M6 53c3.091.5912 3.9469-3.523 8-4 3.6107-.4249 4.0565 2.411 6.6667 3.5456 1.0297.4476 1.9472.4525 2.3333.4544 3.6617.0176 4.9951-3.5954 8-4 1.3292-.179 3.3015.2273 6 3"/></g></svg>