<svg xmlns="http://www.w3.org/2000/svg" role="img" viewBox="4.67 4.67 62.40 62.40"><title>1F3D0.svg</title><circle cx="35.989" cy="35.958" r="29" fill="#D0CFCE"/><path fill="#9B9B9A" d="M50.738 10.9985c4.8254 5.1792 7.7822 12.1224 7.7822 19.7596 0 16.0162-12.9837 29-29 29-5.3519 0-10.3612-1.4558-14.6646-3.9839C20.1448 61.4195 27.6533 64.9583 36 64.9583c16.0162 0 29-12.9838 29-29 0-10.6313-5.7308-19.9113-14.262-24.9598z"/><g fill="none" stroke="#000" stroke-linecap="round" stroke-linejoin="round" stroke-miterlimit="10" stroke-width="2"><path d="M36 35.9583c0 10.7223-5.6044 19.9898-14.2923 24.9988M36 35.958c-8.9994-5.878-13.6673-15.7121-13.1101-25.7252m13.1034 25.7185c9.1533-5.6353 20.0795-5.5746 28.8998-.8024M33.0808 48.9141c9.1533-5.6353 20.2095-5.5746 29.0298-.8024M22.9297 60.6942c9.8471-6.0624 21.3595-6.6171 30.2812-2.4044M26.813 26.5626c.0229 10.7489-5.8045 19.8966-14.4818 24.9242m9.9289-40.1981c.0258 12.0976-5.7717 22.6704-14.4061 28.3264m41.4559-7.9799C39.6887 26.8423 33.8977 17.4239 33.288 7.4139m31.0441 26.4536C53.5037 28.4732 46.6464 18.9614 45.4557 8.7083"/><circle cx="35.989" cy="35.958" r="29"/></g></svg>