<svg xmlns="http://www.w3.org/2000/svg" role="img" viewBox="12.60 13.10 46.67 45.67"><title>1F3D8.svg</title><g id="color"><path fill="#fff" d="M14.5 41.5H37.5V57.5H14.5z"/><path fill="#fff" d="M34.61 26.9L56.61 26.9 57.423 42.999 34.345 42.795 34.61 26.9z"/><path fill="#92d3f5" d="M48.5 32H53.5V36H48.5z"/><path fill="#ea5a47" d="M57.5 26.327L35 26.182 46 15 57.5 25.537 57.5 26.327zM21 34.581L17 38.246 17 32 21 32 21 34.581zM41 19.581L37 23.246 37 17 41 17 41 19.581z"/><path fill="#a57939" d="M38 33H46V42.992000000000004H38zM19 47H25V57H19z"/><path fill="#92d3f5" d="M28.5 47H33.5V51H28.5z"/><path fill="#ea5a47" d="M37.5 42L14.5 42 14.5 40.537 26 30 37.5 40.537 37.5 42z"/></g><g id="line" fill="none" stroke="#000" stroke-linecap="round" stroke-linejoin="round" stroke-width="2"><path d="M48.5 32H53.5V36H48.5zM57.5 27L34.5 27M21 34.581L17 38.246 17 32 21 32 21 34.581zM41 19.581L37 23.246 37 17 41 17 41 19.581z"/><path d="M34.5 33L34.5 27 34.5 25.537 46 15 57.5 25.537 57.5 27 57.5 42 41.5 42"/><path d="M45 42L45 32 39 32 39 36.088M19 47H25V57H19zM28.5 47H33.5V51H28.5zM37.5 42L14.5 42 14.5 40.537 26 30 37.5 40.537 37.5 42z"/><path d="M14.5 42H37.5V57H14.5z"/></g></svg>