<svg xmlns="http://www.w3.org/2000/svg" role="img" viewBox="20.42 7.92 31.03 56.03"><title>1F3E9.svg</title><g stroke-linecap="round" stroke-linejoin="round" stroke-width="2"><path fill="#FFA7C0" stroke-miterlimit="10" d="M22.5 10h27v52h-27z"/><path fill="#92D3F5" stroke-miterlimit="10" d="M27 52h10v10H27z"/><path fill="none" stroke="#92D3F5" stroke-miterlimit="10" d="M35 42h2v5h-2zm8 0h2v5h-2zm0 11h2v5h-2zM27 42h2v5h-2zm8-11h2v5h-2zm8 0h2v5h-2zm-16 0h2v5h-2z"/><path fill="#EA5A47" d="M35.9997 25.8252l-4.8692-6.2438-.1569-.232c-.8207-1.3515-.3904-3.1124.9611-3.9331 1.3516-.8207 3.1125-.3904 3.9332.9611.0479.0789.092.1601.1321.2433.6865-1.4244 2.3978-2.0225 3.8222-1.336 1.4243.6866 2.0224 2.3979 1.3359 3.8222-.0761.158-.1666.3086-.2703.45l-4.8881 6.2683z"/></g><g fill="none" stroke="#000" stroke-linecap="round" stroke-linejoin="round" stroke-width="2"><path stroke-miterlimit="10" d="M22.5 10h27v52h-27z"/><path stroke-miterlimit="10" d="M27 52h10v10H27zm5 10V52"/><path d="M35.9997 25.8252l-4.8692-6.2438-.1569-.232c-.8207-1.3515-.3904-3.1124.9611-3.9331 1.3516-.8207 3.1125-.3904 3.9332.9611.0479.0789.092.1601.1321.2433.6865-1.4244 2.3978-2.0225 3.8222-1.336 1.4243.6866 2.0224 2.3979 1.3359 3.8222-.0761.158-.1666.3086-.2703.45l-4.8881 6.2683z"/><path stroke-miterlimit="10" d="M37 36h-2v-5m-6 5h-2v-5m18 5h-2v-5m-6 16h-2v-5m-6 5h-2v-5m18 5h-2v-5m2 16h-2v-5"/></g></svg>