<svg xmlns="http://www.w3.org/2000/svg" role="img" viewBox="11.04 12.04 49.79 49.79"><title>1F3E4.svg</title><path fill="#d0cfce" d="M13 14h46v46H13z"/><circle cx="37" cy="37" r="6" fill="#fcea2b"/><path fill="#92d3f5" d="M29.5 50h13v10h-13z"/><path fill="none" stroke="#92d3f5" stroke-linecap="round" stroke-linejoin="round" stroke-width="2" d="M51 30h2v5h-2zm0-10h2v5h-2zm-16 0h2v5h-2zm8 0h2v5h-2zm-16 0h2v5h-2zm24 20h2v5h-2zm0 10h2v5h-2zM19 30h2v5h-2zm0-10h2v5h-2zm0 20h2v5h-2zm0 10h2v5h-2z"/><circle cx="37" cy="37" r="3" fill="#d0cfce"/><path fill="#fcea2b" d="M31 34.5l-4.3 4.3L32 41l1-1-2-5.5zM47 37l-4 4-2-2 3.9-4 2.1 2z"/><path fill="#fcea2b" d="M43 41a8.89 8.89 0 0 1-6 2 8.89 8.89 0 0 1-6-2l2-2a10.7183 10.7183 0 0 0 4 1 10.7183 10.7183 0 0 0 4-1z"/><g fill="none" stroke="#000" stroke-linecap="round" stroke-linejoin="round" stroke-width="2"><path d="M13 14h46v46H13z"/><path d="M43 36.9L41 39a11.1844 11.1844 0 0 1-3.8 1 3 3 0 1 0-.4 0 9.2887 9.2887 0 0 1-3.8-1l-.3.3-1.5-4A6.027 6.027 0 0 1 43 36.9zM29.5 50h13v10h-13zM36 60V50"/><path d="M32.7 39.3l-1.4 1.4-4.6-1.9 4.3-4.3.2.8 1.5 4zM47 37l-4 4-2-2 2-2.1 1.9-1.9 2.1 2z"/><path d="M43 41a8.8127 8.8127 0 0 1-5.5 2h-.9a8.8792 8.8792 0 0 1-5.6-2l2-2a11.1844 11.1844 0 0 0 3.8 1h.4a9.2887 9.2887 0 0 0 3.8-1zM21 25h-2v-5m34 15h-2v-5m-6-5h-2v-5m10 5h-2v-5m-14 5h-2v-5m-6 5h-2v-5m-6 15h-2v-5m2 15h-2v-5m34 5h-2v-5m2 15h-2v-5m-30 5h-2v-5"/></g></svg>