<svg xmlns="http://www.w3.org/2000/svg" role="img" viewBox="7.40 3.28 57.07 53.70"><title>1F3ED.svg</title><g stroke-linecap="round" stroke-linejoin="round" stroke-miterlimit="10" stroke-width="2"><path fill="#EA5A47" d="M9.5 38h53v17h-53z"/><path fill="#D0CFCE" d="M14.5 43h13v12h-13z"/><path fill="#92D3F5" d="M32.5 43h5v5h-5zm5 0h5v5h-5zm5 0h5v5h-5zm5 0h5v5h-5zm5 0h5v5h-5z"/><path fill="#3F3F3F" d="M56 38h-6l1-16h4z"/><path fill="#D0CFCE" d="M14.497 31l.005 7h9.995zM25 31l.005 7H35zm10 0l.005 7H45z"/></g><g fill="none" stroke="#000" stroke-linecap="round" stroke-miterlimit="10" stroke-width="2"><path stroke-linejoin="round" d="M9.5 38h53v17h-53z"/><path stroke-linejoin="round" d="M14.5 43h13v12h-13zm0 4h13m-13 4h13m5-8h5v5h-5zm5 0h5v5h-5zm5 0h5v5h-5zm5 0h5v5h-5zm5 0h5v5h-5zm3.5-5h-6l1-16h4zm-41.503-7l.005 7h9.995zM25 31l.005 7H35zm10 0l.005 7H45z"/><path d="M54 19c.0435-1.9564-.3252-4.0019-2.0786-5.5659-1.4875-1.3268-3.042-1.0494-5.6192-2.1035C44.7835 10.7094 45 7 42.0854 5.4809M51 19c-.6452-1.8475-.8095-3.15-3-4-1.8583-.7211-6 0-7-2"/></g></svg>