<svg xmlns="http://www.w3.org/2000/svg" role="img" viewBox="2.73 14.73 65.91 42.41"><title>1F3E8.svg</title><g id="color"><path fill="#D0CFCE" d="M17 17H55V55H17zM55 20H66.5V55H55z"/><path fill="none" stroke="#92D3F5" stroke-linecap="round" stroke-linejoin="round" stroke-miterlimit="10" stroke-width="2" d="M60 25H62V30H60zM60 35H62V40H60zM60 45H62V50H60z"/><path fill="#D0CFCE" d="M5 20H17.5V55H5z"/><path fill="none" stroke="#92D3F5" stroke-linecap="round" stroke-linejoin="round" stroke-miterlimit="10" stroke-width="2" d="M10 25H12V30H10zM10 35H12V40H10zM10 45H12V50H10zM31 22H33V27H31zM39 22H41V27H39zM47 22H49V27H47zM23 22H25V27H23z"/><path fill="#9B9B9A" d="M23 41H49V55H23z"/><path fill="#FCEA2B" d="M21.5 32H50.5V41H21.5z"/><path fill="#92D3F5" d="M31.5 45H40.5V55H31.5z"/></g><g id="line" fill="none" stroke="#000" stroke-linecap="round" stroke-linejoin="round" stroke-miterlimit="10"><path stroke-width="2" d="M17 17H55V55H17zM55 20H66.5V55H55zM5 20H16.5V55H5z"/><path stroke-width="2" d="M23 41H49V55H23zM21.5 32H50.5V41H21.5zM27 55L27 41M45 55L45 41"/><path stroke-width="2" d="M31.5 45H40.5V55H31.5zM36 55L36 45M49 27L47 27 47 22M41 27L39 27 39 22M33 27L31 27 31 22M25 27L23 27 23 22M12 30L10 30 10 25M12 40L10 40 10 35M62 40L60 40 60 35M62 30L60 30 60 25M62 50L60 50 60 45M12 50L10 50 10 45"/><path d="M42.045 34.499L39.785 34.499 39.785 38.454 42.045 38.454M39.785 36.476L41.48 36.476M25.659 34.499L25.659 38.454M27.919 34.499L27.919 38.454M27.919 36.469L25.659 36.469M44.305 34.499L44.305 38.454 46 38.454M31.6882 38.454L31.6882 38.454c-.7801 0-1.4126-.6324-1.4126-1.4126v-1.13c0-.7801.6324-1.4126 1.4126-1.4126l0 0c.7801 0 1.4126.6324 1.4126 1.4126v1.13C33.1008 37.8216 32.4683 38.454 31.6882 38.454zM35.361 34.516L37.621 34.516M36.491 34.516L36.491 38.471"/></g></svg>