<svg xmlns="http://www.w3.org/2000/svg" role="img" viewBox="16.09 6.97 39.69 60.06"><title>1F3FA.svg</title><path fill="#f4aa41" d="M50.7246 24.0823l1.0772-1.8738A6.049 6.049 0 0 0 44.15 14.091a8.011 8.011 0 0 1 1.6285-2.3473 2.0619 2.0619 0 0 0 .4238-2.2745 2.1243 2.1243 0 0 0-1.959-1.3037H27.7571a2.1243 2.1243 0 0 0-1.959 1.3037 2.0619 2.0619 0 0 0 .4238 2.2745 8.0374 8.0374 0 0 1 1.6121 2.3147 6 6 0 0 0-1.9851-.3519 6.0732 6.0732 0 0 0-5.5635 8.502l1.0446 1.8176A15.2882 15.2882 0 0 0 17.3176 34.56c0 6.7949 4.2715 15.88 12.6953 27.0019a.9972.9972 0 0 0 .7969.3965H41.19a.9972.9972 0 0 0 .7969-.3965C50.41 50.44 54.6819 41.355 54.6819 34.56a15.3053 15.3053 0 0 0-3.9573-10.4777zm-24.8757-8.3758a3.9645 3.9645 0 0 1 1.417.2637c0 .0073.5861.2946.9658.4829-.3369 2.2935-3.0994 4.5443-4.1787 5.2407a10.8676 10.8676 0 0 0-1.27.9349l-.6861-1.27a4.0738 4.0738 0 0 1 3.752-5.6524zm20.3894 0a4.0736 4.0736 0 0 1 3.7517 5.6524l-.7126 1.3193a10.9887 10.9887 0 0 0-1.3018-.9668c-1.1008-.7062-3.8388-2.93-4.2-5.2185.37-.184 1.046-.5149 1.046-.5227a3.9645 3.9645 0 0 1 1.4167-.2637z"/><path fill="#e27022" d="M41.19 60.7988c6.2461-8.2467 12.4922-18.3771 12.4922-26.398a14.2921 14.2921 0 0 0-6.2462-12.0076s-4.7024-3.0146-4.7024-6.5527a7.3033 7.3033 0 0 1 2.3279-4.9536 1.0927 1.0927 0 0 0-.0488-1.5616h-5.2839a1.1162 1.1162 0 0 1 .8183 1.88 7.3029 7.3029 0 0 0-2.3279 4.9536c0 3.5381 4.7024 6.5527 4.7024 6.5527A14.2921 14.2921 0 0 1 49.1675 34.72c0 7.9189-6.0884 17.8906-12.2541 26.0791z"/><path fill="#3f3f3f" d="M45.8518 65.97H26.1477a.97.97 0 0 1-.97-.97c0-3.2041 4.5849-4.8047 5.1084-4.9766a.9682.9682 0 0 1 .3027-.0488H41.41a.9682.9682 0 0 1 .3027.0488c.5235.1719 5.1084 1.7725 5.1084 4.9766a.97.97 0 0 1-.9693.97zm.3506-56.5008a2.1243 2.1243 0 0 0-1.959-1.3037H27.7571a2.1243 2.1243 0 0 0-1.959 1.3037 2.0619 2.0619 0 0 0 .4238 2.2745 7.1713 7.1713 0 0 1 1.88 3.0488c.0085.0315.0308.0541.042.084a.9853.9853 0 0 0 .9541.7724h13.8075c.0137 0 .0249-.0072.0385-.0077a.9876.9876 0 0 0 .3123-.063.97.97 0 0 0 .1351-.0727.9943.9943 0 0 0 .1633-.11.9741.9741 0 0 0 .1142-.1225 1.0211 1.0211 0 0 0 .1746-.3162c.0076-.0232.0228-.0415.0288-.0656a7.08 7.08 0 0 1 1.9063-3.1474 2.0619 2.0619 0 0 0 .4238-2.2746zM53.76 40.5454a.9446.9446 0 0 0 .011-.14.9313.9313 0 0 0 .0271-.1343c0-.0209-.0106-.0383-.012-.0589a.9478.9478 0 0 0-.0407-.203.9737.9737 0 0 0-.0567-.1733.9572.9572 0 0 0-.105-.1557.6712.6712 0 0 0-.2734-.2478.9513.9513 0 0 0-.1834-.095c-.02-.007-.0339-.0224-.0544-.0282a1.1205 1.1205 0 0 1-.2744-.0381H19.2024a.9468.9468 0 0 0-.14.0281.9522.9522 0 0 0-.1357.01c-.0208.0059-.0349.0213-.0549.0285a.9527.9527 0 0 0-.1791.0928.8485.8485 0 0 0-.4364.5716.96.96 0 0 0-.043.2137c-.0012.0193-.0112.0356-.0112.0553a.9543.9543 0 0 0 .0254.1261.9372.9372 0 0 0 .0117.1483 38.3069 38.3069 0 0 0 1.8818 5.0723.9917.9917 0 0 0 .193.2776c.0188.02.0407.0341.0609.0523a.9911.9911 0 0 0 .2229.15.9419.9419 0 0 0 .09.0408.9943.9943 0 0 0 .3469.07h29.16a.9746.9746 0 0 0 .2368.1719 1.0015 1.0015 0 0 0 1.3252-.4951c.0412-.0908.077-.1792.1175-.27l.0158-.0353a38.1565 38.1565 0 0 0 1.87-5.0346z"/><g fill="none" stroke="#000" stroke-linecap="round" stroke-linejoin="round"><path stroke-width="2" d="M21.035 45.209h29.93m-31.763-4.938h33.596M41.19 60.9583c6.246-8.2466 12.492-18.3771 12.492-26.398a14.292 14.292 0 0 0-6.246-12.0075S42.7337 19.5382 42.7337 16a7.3026 7.3026 0 0 1 2.3279-4.9535 1.1163 1.1163 0 0 0-.8184-1.8806H27.7568a1.1163 1.1163 0 0 0-.8184 1.8806A7.3026 7.3026 0 0 1 29.2663 16c0 3.5382-4.7023 6.5528-4.7023 6.5528A14.292 14.292 0 0 0 18.318 34.56c0 8.0209 6.246 18.1514 12.492 26.398z"/><path stroke-width="1.939" d="M30.59 60.945S26.148 62.4053 26.148 65h19.704c0-2.5947-4.4415-4.055-4.4415-4.055"/><path stroke-width="2" d="M29.0976 14.6487a6.0723 6.0723 0 0 0-8.7885 7.6137l1.55 2.6817m21.0463-10.2954a6.0722 6.0722 0 0 1 8.7885 7.6137l-1.55 2.6817"/><path d="M18.547 37.338h5.296v-1.957h-2.044v-1.957h3.914v3.914h3.914v-2.044H27.67v-1.87h4.001v3.914h3.914v-1.957h-2.044v-1.957h3.914v3.914h3.914v-1.957h-1.957v-1.957h4.001v3.914h3.914v-1.957h-2.044v-1.957h3.914v3.914h4.256"/><path stroke-width="2" d="M32.723 14.649h10.182"/></g></svg>