<svg xmlns="http://www.w3.org/2000/svg" role="img" viewBox="2.72 14.72 66.43 42.43"><title>1F3F3-FE0F-200D-1F4CC-200D-2699-FE0F.svg</title><path fill="#9B9B9A" d="M67 17H5.31909v37.8044H67V17z"/><path fill="#fff" fill-rule="evenodd" d="M22.5601 32.198a.92212.92212 0 0 0-.1044.2452 13.89794 13.89794 0 0 0-.4356 2.7547c-.024.4249.2469.8055.648.9476l.7171.2539c.3817.1352.6403.4877.6833.8903.0424.3972.1042.7886.1845 1.1732.0826.3959-.0545.8104-.3754 1.0566l-.6019.4619c-.3376.2591-.4776.7048-.3235 1.1015.3413.8787.7669 1.7098 1.2655 2.4852.2303.3581.6733.507 1.0815.3861l.7309-.2165c.3877-.1148.8036.0178 1.0752.3175.2659.2934.5461.5737.8396.8396.2996.2715.4323.6874.3174 1.0752l-.2154.7272c-.1209.4085.0282.8517.3865 1.082.781.5021 1.6124.9274 2.4823 1.2674.3971.1551.8439.0154 1.1034-.3228l.4615-.6014c.2462-.3209.6606-.458 1.0565-.3754.3847.0802.776.1421 1.1732.1845.4026.043.7551.3016.8903.6833l.2533.7151c.1423.402.5242.673.9499.648.4596-.0269.9221-.0767 1.3863-.1503.4643-.0735.9195-.1691 1.3649-.2854.4126-.1078.6921-.4836.7033-.9099l.0198-.7559c.0106-.4044.2655-.759.6345-.9248.3626-.1629.7156-.3433 1.058-.5401.3511-.2018.7884-.1998 1.1221.0296l.6253.4297c.3514.2415.8194.2364 1.1491-.0339.7223-.5922 1.3816-1.2536 1.9692-1.9724.2696-.3298.2745-.7974.0332-1.1485l-.4284-.6234c-.2293-.3337-.2313-.7709-.0295-1.122.1967-.3424.3771-.6954.54-1.058.1658-.369.5204-.624.9248-.6346l.7587-.0199c.4256-.0111.8009-.2896.9092-.7013.2347-.8916.3826-1.8135.4357-2.7547.0239-.4249-.2469-.8055-.6481-.9476l-.7171-.254c-.3817-.1352-.6403-.4877-.6833-.8903a12.00349 12.00349 0 0 0-.1845-1.1731c-.0826-.3959.0545-.8103.3753-1.0565l.6021-.462c.3376-.2591.4776-.7048.3235-1.1015a13.88896 13.88896 0 0 0-1.2656-2.4852c-.2302-.3581-.6733-.507-1.0815-.3861l-.7309.2165c-.3877.1148-.8036-.0178-1.0752-.3175a12.08828 12.08828 0 0 0-.8395-.8395c-.2996-.2715-.4323-.6874-.3175-1.0752l.2155-.7273c.1209-.4084-.0282-.8517-.3865-1.082-.781-.5021-1.6124-.9274-2.4823-1.2674-.3971-.1551-.8439-.0154-1.1034.3228l-.4615.6015c-.2462.3208-.6607.4579-1.0566.3753a11.9686 11.9686 0 0 0-1.1731-.1845c-.4026-.043-.7551-.3016-.8903-.6833l-.2533-.7151c-.1423-.402-.5242-.673-.9499-.6481-.4596.027-.9221.0768-1.3864.1504-.4642.0735-.9194.169-1.3648.2854a.91843.91843 0 0 0-.2469.1048l.1552 2.6377 1.0506 1.14C34.2318 26.1183 35.1021 26 36 26c5.5228 0 10 4.4771 10 10 0 5.5228-4.4772 10-10 10-5.5229 0-10-4.4772-10-10 0-.8979.1183-1.7682.3403-2.5961l-1.14-1.0506-2.6402-.1553z" clip-rule="evenodd"/><path fill="#fff" d="M46.2141 44.8108l1.42 2.1299c.3031.4547-.2387.9965-.6934.6934l-2.1299-1.4199a.50352.50352 0 0 1-.0615-.0484L26.8782 29.6964a.49973.49973 0 0 0-.3095-.1315l-4.7207-.2777c-.4306-.0253-.6292-.5476-.3241-.8527l6.9106-6.9106c.3051-.3051.8274-.1065.8527.3241l.2777 4.7207a.49973.49973 0 0 0 .1315.3095l16.4694 17.8711a.4932.4932 0 0 1 .0483.0615z"/><g><path fill="none" stroke="#000" stroke-linecap="round" stroke-linejoin="round" stroke-width="2" d="M67 17H5v38h62V17z"/></g></svg>