<svg xmlns="http://www.w3.org/2000/svg" role="img" viewBox="2.72 14.72 66.43 42.43"><title>1F3F4-E0063-E0061-E0071-E0063-E007F.svg</title><path d="M5 40.5V55h26V40.5H5zm13.521 2.4785a.68564.68564 0 0 1 .68555.68555v4.8242h.20312c.0646-.48327.2712-.91288.58398-1.2344.36396-.3741.83888-.61685 1.3594-.77148a.51863.51863 0 0 1 .14648-.02148.51863.51863 0 0 1 .49805.37109.51863.51863 0 0 1-.34961.64453c-.39915.11858-.71132.29362-.91211.5-.14013.14403-.21782.31492-.26562.51172h.20508a.50285.50285 0 0 1 .50391.50195.50285.50285 0 0 1-.50391.5039h-1.4688v1.2988a.68564.68564 0 0 1-.68555.68556.68564.68564 0 0 1-.68555-.68555v-1.2988h-1.4707a.50285.50285 0 0 1-.50195-.50391.50285.50285 0 0 1 .50195-.50195h.20117c-.0478-.1968-.1255-.3677-.26562-.51172-.20079-.20638-.51296-.38142-.91211-.5a.51863.51863 0 0 1-.34961-.64453.51863.51863 0 0 1 .46484-.36914.51863.51863 0 0 1 .17969.01953c.5205.15463.99736.39739 1.3613.77148.31279.3215.51784.7511.58203 1.2344h.20898v-4.8242a.68564.68564 0 0 1 .68555-.68555zM41 40.5V55h26V40.5H41zm12.521 2.4785a.68564.68564 0 0 1 .68555.68555v4.8242h.20312c.0646-.48327.2712-.91288.58398-1.2344.36396-.3741.83888-.61685 1.3594-.77148a.51863.51863 0 0 1 .14648-.02148.51863.51863 0 0 1 .49805.37109.51863.51863 0 0 1-.34961.64453c-.39915.11858-.71132.29362-.91211.5-.14013.14403-.21782.31492-.26562.51172h.20508a.50285.50285 0 0 1 .50391.50195.50285.50285 0 0 1-.50391.5039h-1.4688v1.2988a.68564.68564 0 0 1-.68555.68556.68564.68564 0 0 1-.68555-.68555v-1.2988h-1.4707a.50285.50285 0 0 1-.50195-.50391.50285.50285 0 0 1 .50195-.50195h.20117c-.0478-.1968-.1255-.3677-.26562-.51172-.20079-.20638-.51296-.38142-.91211-.5a.51863.51863 0 0 1-.34961-.64453.51863.51863 0 0 1 .46484-.36914.51863.51863 0 0 1 .17969.01953c.5205.15463.99736.39739 1.3613.77148.31279.3215.51784.7511.58203 1.2344h.20898v-4.8242a.68564.68564 0 0 1 .68555-.68555zM5 17v14.5h26V17H5zm13.521 3.4785a.68564.68564 0 0 1 .68555.68555v4.8223h.20312c.0649-.48248.27161-.91135.58398-1.2324.36396-.3741.83888-.61685 1.3594-.77148a.51863.51863 0 0 1 .14648-.02148.51863.51863 0 0 1 .49805.37109.51863.51863 0 0 1-.34961.64453c-.39915.11858-.71132.29362-.91211.5-.1397.14359-.21768.31383-.26562.50977h.20508a.50285.50285 0 0 1 .50391.5039.50285.50285 0 0 1-.50391.50196h-1.4688v1.3008a.68564.68564 0 0 1-.68555.68555.68564.68564 0 0 1-.68555-.68555v-1.3008h-1.4707a.50285.50285 0 0 1-.50195-.50195.50285.50285 0 0 1 .50195-.50391h.20117c-.04795-.19594-.12593-.36618-.26562-.50977-.20079-.20638-.51296-.38142-.91211-.5a.51863.51863 0 0 1-.34961-.64453.51863.51863 0 0 1 .46484-.36914.51863.51863 0 0 1 .17969.01953c.5205.15463.99736.39739 1.3613.77148.31237.32107.51753.74994.58203 1.2324h.20898v-4.8223a.68564.68564 0 0 1 .68555-.68555zM41 17v14.5h26V17H41zm12.521 3.4785a.68564.68564 0 0 1 .68555.68555v4.8223h.20312c.0649-.48248.27161-.91135.58398-1.2324.36396-.3741.83888-.61685 1.3594-.77148a.51863.51863 0 0 1 .14648-.02148.51863.51863 0 0 1 .49805.37109.51863.51863 0 0 1-.34961.64453c-.39915.11858-.71132.29362-.91211.5-.1397.14359-.21768.31383-.26562.50977h.20508a.50285.50285 0 0 1 .50391.5039.50285.50285 0 0 1-.50391.50196h-1.4688v1.3008a.68564.68564 0 0 1-.68555.68555.68564.68564 0 0 1-.68555-.68555v-1.3008h-1.4707a.50285.50285 0 0 1-.50195-.50195.50285.50285 0 0 1 .50195-.50391h.20117c-.04795-.19594-.12593-.36618-.26562-.50977-.20079-.20638-.51296-.38142-.91211-.5a.51863.51863 0 0 1-.34961-.64453.51863.51863 0 0 1 .46484-.36914.51863.51863 0 0 1 .17969.01953c.5205.15463.99736.39739 1.3613.77148.31237.32107.51753.74994.58203 1.2324h.20898v-4.8223a.68564.68564 0 0 1 .68555-.68555z" stroke-width="1.849"/><path fill="#fff" d="M5 17h62v38H5z"/><path fill="#1e50a0" d="M5 40.5V55h26V40.5H5zm13.521 2.4785a.68564.68564 0 0 1 .68555.68555v4.8242h.20312c.0646-.48327.2712-.91288.58398-1.2344.36396-.3741.83888-.61685 1.3594-.77148a.51863.51863 0 0 1 .14648-.02148.51863.51863 0 0 1 .49805.37109.51863.51863 0 0 1-.34961.64453c-.39915.11858-.71132.29362-.91211.5-.14013.14403-.21782.31492-.26562.51172h.20508a.50285.50285 0 0 1 .50391.50195.50285.50285 0 0 1-.50391.5039h-1.4688v1.2988a.68564.68564 0 0 1-.68555.68556.68564.68564 0 0 1-.68555-.68555v-1.2988h-1.4707a.50285.50285 0 0 1-.50195-.50391.50285.50285 0 0 1 .50195-.50195h.20117c-.0478-.1968-.1255-.3677-.26562-.51172-.20079-.20638-.51296-.38142-.91211-.5a.51863.51863 0 0 1-.34961-.64453.51863.51863 0 0 1 .46484-.36914.51863.51863 0 0 1 .17969.01953c.5205.15463.99736.39739 1.3613.77148.31279.3215.51784.7511.58203 1.2344h.20898v-4.8242a.68564.68564 0 0 1 .68555-.68555zM41 40.5V55h26V40.5H41zm12.521 2.4785a.68564.68564 0 0 1 .68555.68555v4.8242h.20312c.0646-.48327.2712-.91288.58398-1.2344.36396-.3741.83888-.61685 1.3594-.77148a.51863.51863 0 0 1 .14648-.02148.51863.51863 0 0 1 .49805.37109.51863.51863 0 0 1-.34961.64453c-.39915.11858-.71132.29362-.91211.5-.14013.14403-.21782.31492-.26562.51172h.20508a.50285.50285 0 0 1 .50391.50195.50285.50285 0 0 1-.50391.5039h-1.4688v1.2988a.68564.68564 0 0 1-.68555.68556.68564.68564 0 0 1-.68555-.68555v-1.2988h-1.4707a.50285.50285 0 0 1-.50195-.50391.50285.50285 0 0 1 .50195-.50195h.20117c-.0478-.1968-.1255-.3677-.26562-.51172-.20079-.20638-.51296-.38142-.91211-.5a.51863.51863 0 0 1-.34961-.64453.51863.51863 0 0 1 .46484-.36914.51863.51863 0 0 1 .17969.01953c.5205.15463.99736.39739 1.3613.77148.31279.3215.51784.7511.58203 1.2344h.20898v-4.8242a.68564.68564 0 0 1 .68555-.68555zM5 17v14.5h26V17H5zm13.521 3.4785a.68564.68564 0 0 1 .68555.68555v4.8223h.20312c.0649-.48248.27161-.91135.58398-1.2324.36396-.3741.83888-.61685 1.3594-.77148a.51863.51863 0 0 1 .14648-.02148.51863.51863 0 0 1 .49805.37109.51863.51863 0 0 1-.34961.64453c-.39915.11858-.71132.29362-.91211.5-.1397.14359-.21768.31383-.26562.50977h.20508a.50285.50285 0 0 1 .50391.5039.50285.50285 0 0 1-.50391.50196h-1.4688v1.3008a.68564.68564 0 0 1-.68555.68555.68564.68564 0 0 1-.68555-.68555v-1.3008h-1.4707a.50285.50285 0 0 1-.50195-.50195.50285.50285 0 0 1 .50195-.50391h.20117c-.04795-.19594-.12593-.36618-.26562-.50977-.20079-.20638-.51296-.38142-.91211-.5a.51863.51863 0 0 1-.34961-.64453.51863.51863 0 0 1 .46484-.36914.51863.51863 0 0 1 .17969.01953c.5205.15463.99736.39739 1.3613.77148.31237.32107.51753.74994.58203 1.2324h.20898v-4.8223a.68564.68564 0 0 1 .68555-.68555zM41 17v14.5h26V17H41zm12.521 3.4785a.68564.68564 0 0 1 .68555.68555v4.8223h.20312c.0649-.48248.27161-.91135.58398-1.2324.36396-.3741.83888-.61685 1.3594-.77148a.51863.51863 0 0 1 .14648-.02148.51863.51863 0 0 1 .49805.37109.51863.51863 0 0 1-.34961.64453c-.39915.11858-.71132.29362-.91211.5-.1397.14359-.21768.31383-.26562.50977h.20508a.50285.50285 0 0 1 .50391.5039.50285.50285 0 0 1-.50391.50196h-1.4688v1.3008a.68564.68564 0 0 1-.68555.68555.68564.68564 0 0 1-.68555-.68555v-1.3008h-1.4707a.50285.50285 0 0 1-.50195-.50195.50285.50285 0 0 1 .50195-.50391h.20117c-.04795-.19594-.12593-.36618-.26562-.50977-.20079-.20638-.51296-.38142-.91211-.5a.51863.51863 0 0 1-.34961-.64453.51863.51863 0 0 1 .46484-.36914.51863.51863 0 0 1 .17969.01953c.5205.15463.99736.39739 1.3613.77148.31237.32107.51753.74994.58203 1.2324h.20898v-4.8223a.68564.68564 0 0 1 .68555-.68555z"/><g><path fill="none" stroke="#000" stroke-linecap="round" stroke-linejoin="round" stroke-width="2" d="M67 17H5v38h62z"/></g></svg>