<svg xmlns="http://www.w3.org/2000/svg" role="img" viewBox="2.72 14.72 66.43 42.43"><title>1F3F4-E0064-E0065-E0062-E0065-E007F.svg</title><path fill="#fff" d="M67 17H5.31909v37.8044H67V17z"/><path fill="#D22F27" d="M5 17h62v8H5zm0 30h62v8H5z"/><g stroke="#000" stroke-linecap="round"><path fill="none" stroke-linejoin="round" stroke-width="2" d="M67 17H5v38h62V17z"/><path fill="none" stroke-linejoin="bevel" d="M29 29h2.5"/><path fill-rule="evenodd" stroke-linejoin="round" d="M34.45 39.55c-.1988 1.895-.0059 2.834.5562 4.637-1.005 1.063-1.834 2.039-3.279 2.039l-.3433-1.028 1.62-.5105c-.9113-1.066-2.173-2.228-2.002-2.999-2.507.2343-2.746 1.631-3.661 3.763l-3.004-.9997.4613-1.107 1.698.8426c-.4406-2.904.9531-4.623 3.004-5.998-.8301-.6769-.949-1.62-.9503-2.607-2.516.6583-4.081.8835-5.557-1.391l.5006-.9997c1.766 3.186 2.875 1.521 5.084.2249-4.49-2.806-3.859-1.68-5.084-4.724l1.001-.4998c.5779 2.902 2.239 2.353 4.505 2.999l2.503-1.999c-.6635-2.516-2.985-.184-3.004-2.499h1.502c1.595-1.816 3.339-.361 4.505-.4998l-.5006.9997c.1421 1.168.003 1.993-.5006 2.999 1.237 1.851-.1047 2.506-.3807 4.573-.1109.8306 1.116 3.144 1.326 4.786z" clip-rule="evenodd"/></g></svg>