<svg xmlns="http://www.w3.org/2000/svg" role="img" viewBox="2.72 14.72 66.43 42.43"><title>1F3F4-E0066-E0072-E0062-E0072-E0065-E007F.svg</title><path fill="#fff" d="M5 17h62v38H5z"/><path d="M33 22h34v4H33zm0 8h34v4H33zM5 38h62v4H5zm0 8h62v4H5z"/><path d="M9 24h2l-1-3zm9 0h2l-1-3zm9 0h2l-1-3zm-13.5 5h2l-1-3zm9 0h2l-1-3zM9 34h2l-1-3zm9 0h2l-1-3zm9 0h2l-1-3z" stroke="#000" stroke-linejoin="round" stroke-width="2"/><g><path fill="none" stroke="#000" stroke-linecap="round" stroke-linejoin="round" stroke-width="2" d="M5 17h62v38H5z"/></g></svg>