<svg xmlns="http://www.w3.org/2000/svg" role="img" viewBox="2.72 14.72 66.43 42.43"><title>1F3F4-E0064-E0065-E0062-E0079-E007F.svg</title><path d="M63.81375 18H50.5425L66 52.2V54H53.5425L37.27125 18H24l16.27125 36H27L15 27.45l-9-2.295V36.9L13.72875 54H27L6 48.645V36.9l60 15.3V40.455L15 27.45 10.72875 18H24l42 10.71v-5.8725z"/><path fill="#fff" d="M5 17h62v38H5z"/><path fill="#61B2E4" d="M63.81375 18H50.5425L66 52.2V54H53.5425L37.27125 18H24l16.27125 36H27L15 27.45l-9-2.295V36.9L13.72875 54H27L6 48.645V36.9l60 15.3V40.455L15 27.45 10.72875 18H24l42 10.71v-5.8725z"/><g><path fill="none" stroke="#000" stroke-linecap="round" stroke-linejoin="round" stroke-width="2" d="M67 17H5v38h62V17z"/></g></svg>