<svg xmlns="http://www.w3.org/2000/svg" role="img" viewBox="8.95 22.95 54.60 34.73"><title>1F40C.svg</title><path fill="#6A462F" stroke="#6A462F" stroke-miterlimit="10" stroke-width="2" d="M23 39c2.2654-7.9289 10-3 10-3 6 5 1 15-8 13s-9-12-6-17 14-9 21-1c1.8184 2.0781 2 6 1 14l-1 5-9 1"/><path fill="#A57939" d="M11 54c18.4032 1.6003 30.4041.9994 34.4661.2956.9792-.1697 1.901-.575 2.6746-1.1989C64.912 39.5719 63 31 58 30c-3.1009-.6202-9.1515 10.3756-12 14-1.5905 2.0237-5 4-9 4"/><g fill="none" stroke="#000" stroke-linecap="round" stroke-linejoin="round" stroke-miterlimit="10" stroke-width="2"><path d="M55 27l2 3m1.833-.667L61 25M23.0007 39c2.2654-7.9289 10-3 10-3 6 5 1 15-8 13s-9-12-6-17 14-9 21-1c1.8184 2.0781 3 5 1 12"/><path d="M11 55c18.4032 1.6003 30.4041-.0006 34.4661-.7044.9792-.1697 1.901-.575 2.6746-1.1989C64.912 39.5719 63 31 58 30c-3.1009-.6202-9.1515 10.3756-12 14-1.5905 2.0237-5 5-9 5"/></g></svg>