<svg xmlns="http://www.w3.org/2000/svg" role="img" viewBox="3.01 16.13 64.74 42.99"><title>1F402.svg</title><path fill="#a57939" d="M16.9646 24.8077c-.5701-.2496-1.2316-.1617-1.7167.2281l-.9654.7757a11.24731 11.24731 0 0 0-2.637 3.0432l-2.2867 3.8665a3.33138 3.33138 0 0 0-.4639 1.6959c0 1.0171.6585 1.9172 1.6278 2.2252l2.0647.6559.9325.27c1.5572.4509 3.1998.522 4.7901.2072.8022-.1588 1.6015.2864 1.8888 1.052l.5898 1.5715a35.9028 35.9028 0 0 0 2.9058 5.9876c.2585.4267.6941.7156 1.1877.7877l1.5074.2202c.8843.1292 1.5104.9313 1.421 1.8205l-.4148 4.1257a4.546 4.546 0 0 0 .3863 2.3397c.3248.713 1.1014 1.1046 1.8678.9417 1.0611-.2254 1.8841-1.0642 2.0894-2.1293l1.356-7.034c.1703-.8835 1.0097-1.4735 1.8987-1.3346l1.8222.2847c.1224.0191.2464.0246.37.0163l4.2361-.2847c.1514-.0102.3035.0003.4521.0312l3.6657.7619c.3937.0818.8036.0189 1.1547-.1771l3.6721-2.0506c1.0169-.5679 2.2883.0528 2.466 1.2039l.4574 2.9634c.0315.204.0249.4121-.0194.6138l-.9116 4.1455a1.6713 1.6713 0 0 0 .005.7397c.1985.8479 1.0148 1.4012 1.8759 1.2714l.4287-.0646c.5727-.0863 1.0599-.463 1.2875-.9956l3.0984-7.2498c.0772-.1807.122-.3735.1322-.5697l.2203-4.2285c.0129-.2466.0802-.4873.1972-.7048l1.5188-2.8225a15.70814 15.70814 0 0 0 1.8502-6.5514l.0352-.6186a5.60652 5.60652 0 0 0-1.0542-3.6035c-.8806-1.2179-2.2267-2.0163-3.7177-2.2051l-4.858-.6151-16.591-1.9038a32.42247 32.42247 0 0 0-4.6637-.197l-8.4735.2526s-1.8196-.1165-3.194.8683c-1.0187.7299-2.3437.8762-3.4916.3735z"/><path fill="#6a462f" d="M61.5734 45.6889l.2844.6164c.0784.1699.1233.3532.1324.5401l.3719 7.6801c.0238.4911-.2016.961-.5995 1.2499l-1.0681.7755a1.4575 1.4575 0 0 1-1.0706.2622l-2.1211-.3154c-.8783-.1306-1.4366-1.0095-1.1817-1.8601l1.5456-5.1559.9778-3.5674c.3594-1.3111 2.1594-1.4597 2.7289-.2253z"/><g fill="none" stroke="#000" stroke-linecap="round" stroke-linejoin="round" stroke-width="2"><path d="M24.0233 24.6816l10.0644-1.1158 23.8541 2.2854s10.5908.5194 1.4847 16.3095l-.7918 4.9863-2.4367 7.4076c-.2592.7879-.98 1.3185-1.7912 1.3185h-.2512c-1.285 0-2.1955-1.2858-1.7972-2.538l1.3192-4.1467s-2.0648-10.9184-.9622-14.3491"/><path d="M32.4323 32.7074l1.4885 7.8836-2.4663 14.6161c-.1207.9503-.9011 1.6673-1.8359 1.6869l-.2986.0062c-1.2959.0271-2.2344-1.2538-1.8396-2.5192.8032-2.5747.955-6.7363-.2346-9.577-1.3586-3.2443-.7322-4.7911-.7322-4.7911M37 45.4174s5.3502-.0551 8.2171 1.4558c.6087.3208 1.3351.2268 1.8238-.2644 1.2335-1.2399 3.5655-3.2336 5.6744-3.0716m10.4063-12.2864s.2702 5.4232 1.2181 7.9479c1.5002 3.9958 1.2049 8.9352 1.2049 8.9352m-6.1705-5.6436l2.6024 3.9428v7.8293c0 .8895-.7036 1.6107-1.5715 1.6107h-1.2339M5.3125 23.2435c0 .2019.8049 3.1171 3.8281 3.0814 3.0818-.0364 4.5449-.4347 4.5449-.4347"/><path d="M17 18.375c.2542 2.2505 3 2.6264 3.5218 4.7126C20.9497 24.7984 19 26.0738 19 26.0738s-2.642-3.6507-5.3145-.1836l-2.0043 2.4153s-1.3483 3.2761-2.7864 5.2002c-.4001.5353-.437 1.2544-.0916 1.8284.6426 1.0677 2.0378 2.4193 4.8634 1.8262 0 0 2.2053 2.5593 5.5495-.0897 0 0 1.9069 1.033 3.0946 7.0322.6411 3.2383 2.8751 3.7326 4.962 3.4572"/></g></svg>