<svg xmlns="http://www.w3.org/2000/svg" role="img" viewBox="6.89 9.14 57.85 49.85"><title>1F407.svg</title><path fill="#fff" d="M26.5928 29.0932l-.4933 1.7216c-.8613 3.0059-3.3996 5.2313-6.4924 5.692l-3.2347.4819c-.8038.1197-1.3909.8193-1.3704 1.6316.0229.9083.0789 1.9668.2145 2.255.1626.3455 1.2826 2.0672 2.0458 3.2288.47.7152 1.0849 1.3237 1.8044 1.7871l2.4975 1.6085c.5163.3325.9903.7264 1.4117 1.173l.1011.1072c.4891.5184.5736 1.2988.207 1.9099l-.1152.192c-.334.5567-.8187.999-1.3915 1.3045-.6675.3561-1.5867 1.0325-2.1233 2.2201-.0869.1922.6226 1.168.8068 1.6365.0585.1489.1966.2462.3557.263l2.5316.2673c.8667.0915 1.7417-.0133 2.562-.3079.9297-.3339 1.6503-1.2285 1.6873-1.285.0364-.0555 1.7236-1.7258 2.5961-3.1305.533-.8582 1.4622-1.3985 2.4724-1.3983 1.0265.0002 2.2893.2299 3.1408 1.1741.3025.3354.8007.4001 1.1407.1029l.0534-.0466a13.52038 13.52038 0 0 0 4.3775-7.6174l.9662-5.0052c.2607-1.3507.0667-2.75-.5525-3.9784-.4547-.9022-.9038-1.8008-.919-1.862-.0191-.0766-1.9997-1.957-3.5302-3.4013-1.0817-1.0208-2.6296-1.3739-4.0479-.926l-1.9258.6082c-1.0188.3217-2.131-.0029-2.8167-.8222-.5835-.6971-1.709-.4585-1.9594.4154z"/><path fill="#fff" d="M14.4314 25.5661l-.3807.2232a4.8398 4.8398 0 0 0-1.6287 1.5663l-2.2375 3.4963c-.69 1.0781-.9256 2.3856-.653 3.6362.2292 1.0515.9984 1.5737 1.0466 1.5576.0682-.0228 3.6765 1.4054 5.9273 1.8836.9349.1986 1.9011.1146 2.7891-.239l.6572-.2617c2.4889-.9909 3.6993-3.8153 2.7002-6.3009l-1.2828-3.1916c-1.1028-2.7437-4.3867-3.8656-6.9377-2.3701z"/><path fill="#3f3f3f" d="M28.0536 20.793l1.0382-3.0105a4.90666 4.90666 0 0 0 .2121-2.3384l-.4182-2.7446c-.1088-.7138-.8617-1.1332-1.5258-.8499l-1.6014.683a5.347 5.347 0 0 0-.954.5279l-.018.0125c-.7347.5111-1.7263.3195-2.2587-.3999a5.76744 5.76744 0 0 0-.0315-.0422c-.797-1.0577-2.3872-1.0704-3.2441-.0605l-1.2039 1.4188a5.4178 5.4178 0 0 0-1.2128 2.6127l-.4981 2.9811c-.027.1615-.4091 4.2473-.4091 4.2473.1344.8854 1.0398.0882 1.5001.0075l-2.1215 1.1851c-.8867.4953-1.4855 1.3828-1.5909 2.393-.2658 2.5481-.0301 7.4187 4.8705 10.3194.3918.2319.8441.3566 1.2977.3956 1.5469.133 2.403.3129 3.8616-.7363.724-.5207 1.3041-1.2158 1.6917-2.019.8237-1.7067 1.8167-5.0685-.1465-9.2559-.028-.2242-.0581-.3881-.0581-.3881l1.6927-2.6205c.468-.7245.8466-1.5028 1.1278-2.3182zm3.7045 8.2173s12.7999 8.5621 4.8338 20.7335c-.4475.6837-.3198.5116-.5919 1.282l-.4899.7707c-.2776.786.0028 1.1921.4899 1.7597l.6966 1.3781c.1754.2044.8936.5799 1.1522.6552l3.933.7653a6.28975 6.28975 0 0 0 2.2799.2287l5.0646-.4194a4.01366 4.01366 0 0 0 2.0295-.7554l3.2354-1.6972a2.82987 2.82987 0 0 0 1.1465-1.9757l.2024-1.826a5.94074 5.94074 0 0 0-.0477-1.6491l-.6282-3.7003a7.42467 7.42467 0 0 0-.9088-2.5022l-2.0133-3.4471a13.24598 13.24598 0 0 0-1.3473-1.9006l-2.9636-3.485a8.29833 8.29833 0 0 0-2.0341-1.7291l-2.2365-1.3497a5.9928 5.9928 0 0 0-2.909-.8589l-8.8933-.2778z"/><path fill="#fff" d="M56.1403 48.221c.3426-.2442.7885-.2957 1.1918-.1761l.8374.2483c.5329.321 1.403.2521 1.7424.4217l1.2363.5067c.587.2935 1.0699.6209 1.0944 1.2768.0368.9879-.6132 1.7249-.5675 1.7835.0731.0938-1.5794 1.7075-1.6731 1.7632-.0742.044-.9511.7734-1.5513 1.0125-.1778.0708-.8251.352-1.1175.4189-.3466.0793-1.4416.0805-1.8576.0069-1.4049-.2486-1.988-1.0583-.7812-2.1395.352-.3154.5654-.7569.5939-1.2287l.1015-2.5402c.0336-.5557.3196-1.047.7504-1.354z"/><g fill="none" stroke="#000" stroke-linecap="round" stroke-linejoin="round" stroke-width="2"><path d="M23.886 35.5323c-2.3651 5.1127-13.2378 1.0229-13.2378 1.0229-.5968-.2704-1.0232-.816-1.1416-1.4603l-.3697-2.0127a1.9997 1.9997 0 0 1 .2543-1.394l1.9397-3.2171a9.43878 9.43878 0 0 1 3.9002-3.5877l3.7161-1.8372s3.5476-10.8515 9.3212-11.7558c0 0 4.591 4.6606-3.478 15.0252 0 0 2.0247 1.3871 3.6172 4.0345 0 0 15.2559-8.8797 24.9028 10.3646 8.946 17.8462-8.3356 16.735-14.2114 15.8977-1.4891-.2122-2.836-1.1028-3.4651-2.4691-.6568-1.4264-.5172-3.1231 3.347-3.6205"/><path d="M15 41.1641c.3333 2.9167 2.0746 6.1553 6.6667 6.8193 0 0 1.4608 1.8086 0 3.3389 0 0-1.351 1.1679-2.4473 2.2562C17.9523 54.8362 18.8443 57 20.6295 57h3.8928c.6864 0 1.3249-.352 1.6913-.9325l3.7193-5.8926 1.2571-3.965M59 47.9834s4.9053-.1041 3.375 3.8609-5.0417 3.6322-5.0417 3.6322M16.3125 20.2041c-.1542-3.0543.75-7.2275 4.0259-8.9138 0 0 1.9372-.233 3.1598 3.1876"/></g></svg>