<svg xmlns="http://www.w3.org/2000/svg" role="img" viewBox="21.51 13.82 27.36 45.17"><title>1F41A.svg</title><path fill="#FFA7C0" d="M30 31s-2 23 7 26 14-34 6-34c-6.2075 0-7-1-11.7099-.3422-1.3704.1913-3.3064.1024-5.2901 1.3422-8 5 5 29 8 31"/><path fill="#E67A94" d="M42 22s1-3-2-3h-7s-2.1402-.4205-1 3"/><path fill="#FFA7C0" d="M34 18c3.2-5.3333 5.1333.3333 5 0"/><g fill="none" stroke="#000" stroke-linecap="round" stroke-linejoin="round" stroke-miterlimit="10" stroke-width="2"><path d="M30 31s-2 23 7 26 14-34 6-34c-6.2075 0-7-1-11.7099-.3422-1.3704.1913-3.3064.1024-5.2901 1.3422-8 5 5 29 8 31m8-33s1-3-2-3h-7s-2.1402-.4205-1 3m2-4c3.2-5.3333 5.1333.3333 5 0"/></g></svg>