<svg xmlns="http://www.w3.org/2000/svg" role="img" viewBox="8.92 12.79 56.29 42.91"><title>1F41F.svg</title><path fill="#92d3f5" d="M16.1101 35.2112S11 30.4038 12.0442 24.1386s13.5746 1.0442 14.6188 6.2652c0 0 3.1326-5.221 8.3536-6.2652 0 0-1.0442-5.221 0-8.3536 0 0 11.4862-4.1768 15.663 6.2652 0 0 11.4862 2.0884 12.5304 11.4862l-3.1326 2.0884 2.741 2.3495s-.126 6.9813-11.8755 10.1474c0 0-2.3517 7.3429-10.7053 5.2545l1.0442-5.221s-6.2652 1.0442-14.6188-8.3536c0 0-3.1326 9.3978-15.663 7.3094 0 0-.2218-8.1366 5.1101-11.8998z"/><path fill="#61b2e4" d="M41.7805 28.6682s-7.8664 4.3435-.8652 11.0476"/><g fill="none" stroke="#000" stroke-linecap="round" stroke-linejoin="round" stroke-width="2"><path d="M16.1101 35.2112S11 30.4038 12.0442 24.1386s13.5746 1.0442 14.6188 6.2652c0 0 3.1326-5.221 8.3536-6.2652 0 0-1.0442-5.221 0-8.3536 0 0 11.4862-4.1768 15.663 6.2652 0 0 11.4862 2.0884 12.5304 11.4862l-3.1326 2.0884 2.741 2.3495s-.126 6.9813-11.8755 10.1474c0 0-2.3517 7.3429-10.7053 5.2545l1.0442-5.221s-6.2652 1.0442-14.6188-8.3536c0 0-3.1326 9.3978-15.663 7.3094 0 0-.2218-8.1366 5.1101-11.8998zM41 28.75s-6 4-1 11"/></g></svg>