<svg xmlns="http://www.w3.org/2000/svg" role="img" viewBox="10.23 9.98 51.53 52.91"><title>1F413.svg</title><path fill="#A57939" stroke="#A57939" stroke-linecap="round" stroke-linejoin="round" stroke-miterlimit="10" stroke-width="2" d="M46.6415 50.7282C43.4212 53.3084 35.6302 57.4758 24.441 50c0 0-6.503-2.9793-3.7706-12.8965a2.0599 2.0599 0 0 1 .0669-.2011l4.1436-10.5978A1.7347 1.7347 0 0 0 25 25.6729v-2.4312c0-1.3857 1.5443-2.2121 2.6972-1.4435h0c.1657.1105.3452.1906.5387.2375C28.9437 22.2073 31 23.2047 31 29c0 9.0554 8.4083 7 8.4083 6s.9355-12 10.29-10 13.1159 9.6753 7.4837 22.3333c0 0-2.6008 2.0855-4.182 3.6667-2 2-6 0-6 0"/><path fill="#EA5A47" stroke="#EA5A47" stroke-miterlimit="10" stroke-width="2" d="M25 27s1.7612 2.6418-2.1537 3.7936c-.5305.1561-.9858.5054-1.2736.9777C20.7301 33.1538 18.7811 35.6716 17 33c-1.087-1.6304-.6971-2.9655-.1146-3.8447.6122-.9239.4076-2.1807-.4585-2.8722C15.5863 25.612 14.4283 25 13 25c-1.9171 0 .6579-1.6335 2.7667-2.8128.8642-.4833 1.1619-1.482.9677-2.4528-.0469-.2344.1075-.4182.2656-.7344 1-2 1-4 2-5 1.5811-1.5811 2-3 7-1 5.4139 2.1656-.8333 6.1667-.8333 6.1667"/><path fill="#FCEA2B" d="M17 26.2831c-.9581-.8657-2.278-1.655-3.9059-1.655-2.1851 0 .7499-2.107 3.1534-3.6281"/><g fill="none" stroke="#000" stroke-linecap="round" stroke-linejoin="round" stroke-miterlimit="10" stroke-width="2"><path d="M55.311 42s0 10-4.6773 10c0 0 2.8064-6-.9355-9M32.2365 54.0833l-.7016 5.3333s-2.4166.5833-2.4166 1.5833M33.7956 60s0-1-1.8709-1m8.7309-4.9167l-.7016 5.3333s-2.4166.5833-2.4166 1.5833M42.2147 60s0-1-1.8709-1M26.3119 36s-3.7418 9 3.7418 13 14.9673 1 15.9028-3c.9355-4-2.0268-3.6667-5.223-5.8333m-15.5668-21S31.4139 15.1656 26 13c-5-2-5.4189-.5811-7 1-1 1-1 3-2 5-.1581.3162-.3125.5-.2656.7344.1942.9709-.1036 1.9696-.9677 2.4528C13.6579 23.3665 11.0829 25 13 25c1.4283 0 2.5863.612 3.4269 1.2831.8661.6915 1.0707 1.9483.4585 2.8722-.5825.8792-.9724 2.2143.1146 3.8447 1.7811 2.6716 3.7301.1538 4.5727-1.2287.2878-.4722.7431-.8216 1.2736-.9777C26.7612 29.6418 25 27 25 27"/><path d="M28 22s3 0 3 7c0 9.0554 8.4083 7 8.4083 6s.9355-12 10.29-10 13.0964 9.6667 7.4837 22.3333m-8.8869 1.8334S39.4083 60 24.441 50c0 0-6.5482-3-3.7418-13"/></g></svg>