<svg xmlns="http://www.w3.org/2000/svg" role="img" viewBox="12.09 6.97 47.69 53.69"><title>1F41E.svg</title><ellipse cx="36.46" cy="21.915" fill="#3f3f3f" rx="11.02" ry="11.097"/><ellipse cx="36.486" cy="40.683" fill="#d22f27" rx="16.529" ry="17.987"/><g><path fill="none" stroke="#000" stroke-linecap="round" stroke-linejoin="round" stroke-width="2" d="M18.9837 21.7274c0 3.3082 4.2257 5.9138 5.4833 6.6049m-10.3435 9.9243c0 .7364 3.9538 2.0393 5.8345 2.6284m-.9743 16.8124c0-2.8776 3.1948-4.69 4.8488-5.438M49.126 28.53s4.8614-3.8891 4.8614-6.806m-.9824 18.4133a8.4318 8.4318 0 0 0 4.8715-1.8807m-9.2332 14.6146c1.2575.1133 4.5656.7251 5.3473 3.8519M29.6784 9.0842c.759 3.0135 2.0958 3.6932 2.6623 3.8405m9.9793.0485s2.6586-2.3334 1.9939-3.889"/><ellipse cx="36.486" cy="40.683" fill="none" stroke="#000" stroke-linecap="round" stroke-linejoin="round" stroke-width="2" rx="16.529" ry="17.987"/><path fill="none" stroke="#000" stroke-linecap="round" stroke-linejoin="round" stroke-width="2" d="M36.486 23.668v34.03"/><circle cx="26.819" cy="35.28" r="2"/><circle cx="46.265" cy="35.28" r="2"/><circle cx="42.376" cy="41.114" r="2"/><circle cx="46.265" cy="46.947" r="2"/><circle cx="30.708" cy="41.114" r="2"/><circle cx="26.819" cy="46.947" r="2"/><path fill="none" stroke="#000" stroke-linecap="round" stroke-linejoin="round" stroke-width="2" d="M26.46 21.7237a10.004 10.004 0 0 1 20 0"/></g></svg>