<svg xmlns="http://www.w3.org/2000/svg" role="img" viewBox="4.72 10.85 59.80 48.42"><title>1F421.svg</title><path fill="#6A462F" d="M51 35c0 11.0457-8.9543 20-20 20s-20-8.9543-20-20 8.9543-20 20-20c3.2428 0 6.3053.7718 9.0139 2.1416C46.5315 20.4378 51 27.1971 51 35z"/><path fill="#6A462F" d="M39.5833 16.3333S48 14 49 14s.1667 5.3333-1.9167 8.1667m2.1966 7.4001s10.2483-7.369 12.3507-6.2343-.1773 20.0286-4.6971 22.7493c0 0-4.131.7224-8.3412-3.5419M46.498 48.182l1.951 7.362-7.624-3.141"/><path fill="#A57939" d="M12 40.9264S15 54.24 31.5 54.9797C48 55.7193 52 35.9955 50 35.9955s-5 6.9034-7 3.9448c-2.4807-3.6697-3-4.931-5-3.9448-1.2649.6237-3 7.8895-5 3.9448-1.8439-3.6369-3-3.9448-3-3.9448-4 0-3 4.931-6 4.931s-2-3.9448-5-4.931-7 4.9309-7 4.9309"/><g><path fill="none" stroke="#000" stroke-linecap="round" stroke-linejoin="round" stroke-miterlimit="10" stroke-width="3" d="M10.526 33.46l-3.052-1.92m2.819 4.888l-2.586 1.144"/><path fill="none" stroke="#000" stroke-linecap="round" stroke-linejoin="round" stroke-miterlimit="10" stroke-width="2" d="M14 46l-2 1m6 4l-1 1m20.179 2.87l.642 1.26m10.293-10.311l1.772 1.362m-1.18-21.609l2.164-1.235m-16.964-9.341l.188-1.992m-7.531 2.177l-.368-2.118m-6.047 4.848l-1.296-1.822M15 23l-2-2m17.614 34.802l-.228 1.396m-6.497-2.288l-.778 1.18m16.4723-39.7567S48 14 49 14s.1667 5.3333-1.9167 8.1667m3.2128 7.4643s9.4861-7.4171 11.4192-6.2931c1.933 1.124-.262 20.0233-4.4431 22.7653 0 0-3.8127.7425-7.6739-3.4998M46.498 48.182l1.951 7.362-7.624-3.141"/><path fill="none" stroke="#000" stroke-linecap="round" stroke-linejoin="round" stroke-miterlimit="10" stroke-width="2" d="M12 41s4-6 7-5 2 5 5 5 2-5 6-5c0 0 1.1561.3122 3 4 2 4 3.7351-3.3675 5-4 2-1 2.5193.279 5 4 2 3 5-4 7-4"/><path fill="none" stroke="#000" stroke-linecap="round" stroke-linejoin="round" stroke-miterlimit="10" stroke-width="2" d="M51 35c0 11.0457-8.9543 20-20 20s-20-8.9543-20-20 8.9543-20 20-20c3.2428 0 6.3053.7718 9.0139 2.1416C46.5315 20.4378 51 27.1971 51 35z"/><circle cx="34" cy="50" r="2"/><circle cx="40" cy="44" r="2"/><circle cx="22" cy="46" r="2"/><circle cx="30" cy="44" r="1"/><circle cx="17" cy="42" r="1"/><circle cx="27" cy="50" r="1"/><circle cx="40" cy="49" r="1"/></g></svg>