<svg xmlns="http://www.w3.org/2000/svg" role="img" viewBox="11.81 4.06 49.00 61.75"><title>1F427.svg</title><path fill="#3F3F3F" d="M45 12c.964-.9633 4.0386-2.304 4.3591-2.9468.1525-.3049-.6522-.8271-.964-.964-.9577-.4188-3.213 0-4.177-.1606-3.5341-1.7668-6.1043-2.0879-8.3527-1.1245-3.5341 1.6068-4.1764 5.7826-4.1764 7.3894 0 1.4488-.0815 4.3556-.3217 5.7826-.0971.5769-.4145 1.7114-.6422 2.2497-.6428 2.249-2.2497 4.4981-3.5348 6.1043-.9248 1.1569-8.6744 9.9602-9.9595 12.5303-1.1538 2.236-4.1764 7.3894-2.8913 9.3167 1.3106.1879 1.6062-4.1764 8.0447-9.3167C23.9415 39.4529 26.5249 36.8275 27 36c.2251-.3921.0085 1.548 0 2-.1486 7.8633 1 12 .9931 16.6751.4817 2.5702.5028 3.4918 0 4.4981-1.4463 2.8913-4.0164 2.8913-4.6586 4.0164 0 0 2.9989 2.09 9.8322-2.0498M45.3795 38.845c1.1031 1.1148 4.1969 3.2073 4.975 3.9433 1.942 1.8358 6.5844 8.3527 7.6235 7.3888.349-.3211.8874-1.9479.6954-2.5708-.8143-2.6416-4.3123-7.9998-7.1632-12.9309-2.8824-4.9856-4.9433-9.3882-4.9433-9.3882l-3.2527-3.5616m-6.5598 39.7193c5.3265 4.4657 12.0519.9147 12.0519.9147 0-.5748-3.9442-2.6363-8.0167-4.7347"/><path fill="#FFF" stroke-linecap="round" stroke-linejoin="round" stroke-miterlimit="10" stroke-width="2" d="M32 14c.0291 1.3236 7.2847 6.8282 11 1 0 0-1.0451 11.0186 1 15 2.3884 4.6498-.4794 22.871-5 29-1.5278 2.0714-7.151 5.2303-10-5s-2-9.8618-2-16 7.5308-19 5-24z"/><g fill="none" stroke="#000" stroke-linecap="round" stroke-linejoin="round" stroke-miterlimit="10" stroke-width="2"><path d="M32 14c.0291 1.3236 7.2847 6.8282 11 1 0 0-1.0451 11.0186 1 15 2.3884 4.6498-.4794 22.871-5 29-1.5278 2.0714-7.151 5.2303-10-5s-2-9.8618-2-16 7.5308-19 5-24z"/><path d="M45 12c.964-.9633 4.0386-2.304 4.3591-2.9468.1525-.3049-.6522-.8271-.964-.964-.9577-.4188-3.213 0-4.177-.1606-3.5341-1.7668-6.1043-2.0879-8.3527-1.1245-3.5341 1.6068-4.1764 5.7826-4.1764 7.3894 0 1.4488-.0815 4.3556-.3217 5.7826-.0971.5769-.4145 1.7114-.6422 2.2497-.6428 2.249-2.2497 4.4981-3.5348 6.1043-.9248 1.1569-8.6744 9.9602-9.9595 12.5303-1.1538 2.236-4.1764 7.3894-2.8913 9.3167 1.3106.1879 1.6062-4.1764 8.0447-9.3167C23.9415 39.4529 26.5249 36.8275 27 36c.2251-.3921.0085 1.548 0 2-.1486 7.8633 1 12 .9931 16.6751.4817 2.5702.5028 3.4918 0 4.4981-1.4463 2.8913-4.0164 2.8913-4.6586 4.0164 0 0 2.9989 2.09 9.8322-2.0498M47.9654 39.92c1.0227 1.1148 2.2772 2.1323 2.9986 2.8683 1.8004 1.8358 6.1043 8.3527 7.0676 7.3888.3236-.3211.8227-1.9479.6447-2.5708-1.9279-6.7465-9.0089-15.028-12.7614-21.5495m-6.0481 36.2089c4.7581 1.8332 8.5087.4778 8.5087.4778-.2625-.3716-2.9493-1.8113-4.4778-2.4"/></g></svg>