<svg xmlns="http://www.w3.org/2000/svg" role="img" viewBox="10.64 11.77 50.34 51.09"><title>1F438.svg</title><path fill="#B1CC33" stroke-linecap="round" stroke-linejoin="round" stroke-miterlimit="10" stroke-width="2" d="M39.3855 22.3566c.4635 0 .8719-.305.9938-.7522.5599-2.0537 2.5904-6.9293 7.6535-7.6044 7.8343-1.0446 10.968 4.1783 10.968 8.3565 0 5.0604-2.0891 5.2228-3.4152 7.597-.2637.4721-.4077 1.0587-.0342 1.4497 5.4428 5.697 8.1892 29.6023-19.5311 29.6023C10.9508 61.0057 9 41 16.4762 31.384c.333-.4283.391-1.0013.0259-1.4026-1.4705-1.6157-4.5595-5.6648-2.9399-9.7139 2.0891-5.2228 6.2674-6.2674 9.4011-6.2674 3.0031 0 7.9249 1.9186 9.2492 7.5947.1057.4531.5276.7619.9928.7619l6.1802-.0001z"/><path fill="none" stroke="#000" stroke-linecap="round" stroke-linejoin="round" stroke-miterlimit="10" stroke-width="2" d="M39.3855 22.3566c.4635 0 .8719-.305.9938-.7522.5599-2.0537 2.5904-6.9293 7.6535-7.6044 7.8343-1.0446 10.968 4.1783 10.968 8.3565 0 5.0604-2.0891 5.2228-3.4152 7.597-.2637.4721-.4077 1.0587-.0342 1.4497 5.4428 5.697 8.1892 29.6023-19.5311 29.6023C10.9508 61.0057 9 41 16.4762 31.384c.333-.4283.391-1.0013.0259-1.4026-1.4705-1.6157-4.5595-5.6648-2.9399-9.7139 2.0891-5.2228 6.2674-6.2674 9.4011-6.2674 3.0031 0 7.9249 1.9186 9.2492 7.5947.1057.4531.5276.7619.9928.7619l6.1802-.0001zM22.441 48.4708s13.5794 12.5348 28.2033 0"/><circle cx="22.441" cy="23.401" r="3.134"/><circle cx="49.6" cy="23.401" r="3.134"/><circle cx="31.842" cy="43.248" r="2.089"/><circle cx="40.199" cy="43.248" r="2.089"/></svg>