<svg xmlns="http://www.w3.org/2000/svg" role="img" viewBox="11.83 8.83 54.47 47.59"><title>1F433.svg</title><g stroke-linecap="round" stroke-linejoin="round" stroke-width="2"><path fill="#61b2e4" d="M22.3 44.828c.62116 2.6752 1.8697 5.2427 3.5273 7.752.90598 1.3714 2.5825.78665 2.9766-.8086.3406-.88089.54173-1.8991.63282-2.959"/><path fill="#61b2e4" stroke-miterlimit="10" d="M46.638 14.502c-.69375.20563-.99696 3.4163-.94922 4.5234.13123 3.0431 5.2776 3.0916 2.8477 6.4004-10.496 11.84-26.393-3.7844-34.527 3.6602-1.2447 11.436 16.858 27.45 30.99 17.914 8.2058-5.537 10.459-14.795 11.082-20.096.44063-1.1459 1.4648-1.4028 3.2832-1.8984 5.1933-1.4603 4.9047-4.3002 4.9531-8.127-2.3585 2.8572-4.9069 1.8006-6.8223 1.7285-1.1068-.004-2.1817 1.2444-2.8574 1.7949-.0901-.63086-.22618-1.4757-.83203-2.1777-1.5055-1.7445-4.947-.75965-6.4004-2.877-.2318-.53526-.43943-.79209-.62305-.84571-.0497-.0145-.0983-.0137-.14453 0z"/><path fill="#d0cfce" d="M57 26.054l-.21093.0645-.8086 1.4707c.005-.04.0143-.0893.0195-.12891v-.041c-.0185.0842-.0415.16082-.0605.24414l-1.4375 2.6152c-.32488 1.4765-.7974 3.0771-1.4277 4.7051-5.5366 8.8989-15.765 7.7844-22.539 3.2774-3.7744-2.5113-8.691-7.2733-11.914-7.6699-2.1209-.26099-4.4794 1.0163-4.0644 3.1387l-.73243 1.291c1.5312 4.4107 5.0009 8.6791 9.3711 11.699 6.3756 4.406 14.943 6.1214 22.389 1.0977 8.2808-5.5876 10.687-14.682 11.416-20.201v-1.5625z"/><path fill="#61b2e4" d="M35.89 40.827c.52212 5.6188 3.5252 9.756 8.0055 13.242 1.2972 1.0094 2.6965-.0816 2.5593-1.7191.18853-4.3613-2.6643-10.672-5.7064-10.677"/></g><g stroke-linecap="round" stroke-linejoin="round" stroke-width="2" color="#000"><path d="M19.455 13.84c-.60501-.05852-1.225.02574-1.8105.25195-1.1711.45243-2.2349 1.3801-3.2305 2.6895a1.0001 1.0001 0 1 0 1.5918 1.209c.84851-1.1159 1.687-1.7735 2.3594-2.0332.67236-.25974 1.1465-.21155 1.7051.1582 1.1171.73951 2.4316 3.3282 2.8516 8a1.0001 1.0001 0 1 0 1.992-.177c-.44453-4.9449-1.6394-8.1008-3.7383-9.4902-.52471-.34735-1.1157-.5489-1.7207-.60742zm12.027-1.233c-.58064-.042-1.1664.02885-1.7383.22852-2.2876.79867-3.91 3.4604-4.0977 7.8066a1.0001 1.0001 0 1 0 1.998.08594c.16828-3.8968 1.521-5.5714 2.7598-6.0039 1.2387-.43247 2.7986.18985 3.9043 1.9863a1.0001 1.0001 0 1 0 1.7031-1.0488c-1.095-1.78-2.787-2.928-4.529-3.054zm-7.861-2.7086a1.0001 1.0001 0 0 0-.9375 1.3086c.23434.75994.47877 1.3276.52344 2.291a1.0001 1.0001 0 1 0 1.998-.0918c-.05933-1.2798-.41693-2.1587-.61133-2.7891a1.0001 1.0001 0 0 0-.973-.7186zM47.197 39.408a1.0001 1.0001 0 0 0-.45312.10156c-1.8686.87872-3.8974 1.2318-5.9609 1.166a1.0005 1.0005 0 1 0-.0625 2c2.3349.07443 4.6887-.32934 6.875-1.3574a1.0001 1.0001 0 0 0-.39844-1.9102z"/><path d="M35.881 39.812a1.0001 1.0001 0 0 0-.98633 1.1074c.55062 5.9255 3.7748 10.351 8.3867 13.939.92395.71896 2.1822.74704 3.0117.1582.81921-.58152 1.2323-1.6077 1.1523-2.7109.0848-2.3988-.60528-5.1302-1.7383-7.3789-.573-1.136-1.258-2.147-2.066-2.918-.809-.772-1.785-1.332-2.891-1.334a1.0001 1.0001 0 1 0-.0039 2c.41508.00077.93767.22972 1.5137.7793.576.54958 1.1634 1.3891 1.6602 2.375.99351 1.9718 1.6211 4.5361 1.5371 6.4785a1.0001 1.0001 0 0 0 .002.12695c.04343.51845-.16406.83943-.32422.95312s-.25174.18498-.625-.10547c-4.349-3.384-7.13-7.236-7.623-12.548a1.0001 1.0001 0 0 0-1.006-.922z"/><path d="M18.742 29.598c-1.3102-.16123-2.6473.12971-3.6934.85742s-1.7749 2.0657-1.4648 3.5254a1.0004 1.0004 0 1 0 1.957-.41602c-.14637-.68904.08536-1.0751.64844-1.4668.56308-.39172 1.4832-.61719 2.3086-.51562 1.1912.14659 3.2104 1.3256 5.2793 2.8535s4.24 3.3501 6.2031 4.6562c1.6868 1.1223 3.5736 2.0425 5.5586 2.6719a1.0001 1.0001 0 1 0 .60547-1.9062c-1.7971-.56986-3.5214-1.4095-5.0547-2.4297-1.8113-1.2051-3.9857-3.0197-6.125-4.5996s-4.1909-2.9804-6.2227-3.2305z"/><path stroke-miterlimit="10" d="M47.088 13.537c-.22746-.06636-.48987-.06298-.70898.002a1.0001 1.0001 0 0 0-.56641.4355c-.05501.06363-.17767.10759-.21875.16797-.1475.2168-.23961.4286-.32031.65234-.16141.44749-.26733.94662-.35156 1.4668-.16847 1.0403-.23662 2.1166-.20703 2.8027.04492 1.0417.55371 1.8755 1.1172 2.4648.56348.58931 1.1829 1.0031 1.6367 1.3691.45379.36608.68125.65614.72656.82031.04379.15864.0323.43304-.42383 1.0723-2.4573 2.7517-5.1138 3.8598-7.9922 4.1543-2.8939.29613-6.0153-.27891-9.1367-1.0195-3.1214-.74062-6.2292-1.6434-9.1758-1.8887-2.9465-.24526-5.8277.21834-8.1094 2.3066a1.0001 1.0001 0 0 0-.31836.62891c-.53279 4.8955 2.0932 10.255 6.252 14.473 4.1587 4.218 9.9272 7.3313 16.002 7.4531a1.0002 1.0002 0 1 0 .03906-2c-5.411-.107-10.766-2.949-14.618-6.856-3.716-3.769-5.902-8.477-5.664-12.406 1.7232-1.4054 3.7526-1.8133 6.25-1.6055 2.6499.22057 5.6972 1.0888 8.8789 1.8438 3.1817.75494 6.5117 1.3995 9.8047 1.0625 3.293-.33696 6.5447-1.716 9.3242-4.8516a1.0001 1.0001 0 0 0 .05859-.07031c.70787-.96386.99617-1.9556.75586-2.8262-.24031-.87061-.85297-1.4057-1.3984-1.8457-.54547-.44004-1.0848-.8143-1.4473-1.1934-.36244-.37906-.54376-.69206-.56445-1.1719-.01815-.42098.03896-1.5033.18359-2.3965.02429-.14998.05926-.23374.08789-.37109.97887 1.0781 2.3142 1.4774 3.4375 1.6934 1.2548.24123 2.2067.45425 2.6523.9707.395.45773.50982 1.051.59766 1.666a1.0001 1.0001 0 0 0 1.623.63281c.42358-.34506.82902-.76705 1.2461-1.0898.4154-.32149.79355-.47788.9707-.47852.79079.03415 1.9603.32826 3.3242.23047.78247-.0561 1.6188-.35407 2.4473-.83203-.04598.94817-.1374 1.795-.4082 2.4316-.45912 1.0795-1.3264 1.9223-3.7559 2.6055-.90157.24561-1.6514.43093-2.3359.77344-.68673.34362-1.3068.93666-1.6113 1.7285a1.0001 1.0001 0 0 0-.05859.24219c-.50394 4.2894-2.1224 11.218-7.1543 16.445a1.0001 1.0001 0 1 0 1.4414 1.3867c5.4136-5.6241 7.1052-12.838 7.6621-17.381.12997-.32454.23922-.44467.61523-.63281.39013-.19521 1.0618-.38791 1.9746-.63672a1.0001 1.0001 0 0 0 .0078-.002c2.7639-.7772 4.3477-2.0838 5.0547-3.7461.707-1.6622.60312-3.445.62695-5.3301a1.0001 1.0001 0 0 0-1.7715-.64844c-1.0282 1.2456-1.9102 1.5322-2.877 1.6016-.96676.06931-2.0122-.19401-3.1367-.23633a1.0001 1.0001 0 0 0-.0332-.002c-.93055-.0034-1.6391.46234-2.2051.90039-.06379.04937-.08339.07703-.14453.12695-.15103-.35599-.28809-.71736-.58594-1.0625-1.0598-1.2281-2.5834-1.3952-3.7891-1.627-1.1963-.22998-2.0498-.46754-2.5293-1.1504-.23642-.55444-.44269-1.0362-1.1816-1.252z"/><path d="M22.281 43.816a1.0001 1.0001 0 0 0-.92773 1.2383c.65605 2.8254 1.9628 5.4979 3.666 8.0762.64539.97697 1.8281 1.4071 2.8027 1.1152.95991-.28745 1.6798-1.1245 1.959-2.1914.36882-.97988.58488-2.0531.67969-3.1562a1.0008 1.0008 0 1 0-1.9941-.17188c-.085.98918-.27348 1.921-.56836 2.6836a1.0001 1.0001 0 0 0-.03906.12109c-.12467.5047-.42268.74234-.61133.79883s-.298.0937-.55859-.30078c-1.612-2.4402-2.8024-4.9028-3.3887-7.4277a1.0001 1.0001 0 0 0-1.019-.785z"/></g></svg>