<svg xmlns="http://www.w3.org/2000/svg" role="img" viewBox="5.49 3.24 60.65 65.65"><title>1F430.svg</title><path fill="#fff" d="M30.921 28.0021s3.8009-4.523 10.1088.4052l-.6097 11.5103 3.9176 6.0845s4.5833 5.503 4.8333 6.2515 1.75 7.9151 1.5833 8.2485c-.1667.3333-4.5149 5.4097-4.5149 5.4097H26.0543l-3.3-4.8928.5833-11.1003 5.5833-5.1667 2.8333-7-.8332-9.7499z"/><path fill="#3f3f3f" d="M39.7544 27.7521s-4.8333 14.8333 4.6667 21.6667c0 0 8.3333 7.6667.1667 17L50.1212 65l3.2271-2.5623a3.90377 3.90377 0 0 0 1.2624-1.7828l1.2097-3.503c.1869-.5412.2771-1.1073.2651-1.6798-.0244-1.166-.1073-3.1664-.3878-3.9766-1.6508-4.7696-5.7766-8.5767-5.7766-8.5767s-2.8333-2.8333.1667-5.5l5.4319-6.7592c.3966-.4935.7615-1.0116 1.0926-1.5513l4.3088-7.0229 2.0447-7.2442.2096-8.0482-3.0876-1.041-5.6667 1-5.8333 5-4 6.1667-2.6667 6.3333-2.1668 3.4999zm-7.6462 0s4.8333 14.8333-4.6667 21.6667c0 0-8.3333 7.6667-.1667 17l-4.8289-1.4382a5.11398 5.11398 0 0 1-1.7835-.9472l-2.0427-1.6754a3.21452 3.21452 0 0 1-.8997-1.1815l-1.4937-3.3652c-.3046-.6863-.4222-1.438-.3412-2.1845.1361-1.2547.3649-3.1969.5584-4.0234.5508-2.3521 5.4979-8.6846 5.4979-8.6846s2.8333-2.8333-.1667-5.5l-6.1002-7.0634-4.7331-8.2699-2.0964-7.1858-.9278-8.1831 3.8575-.9644 5.6465 1.0693 5.8535 4.9307 4 6.1667 2.6667 6.3333 2.1668 3.4999z"/><g><path fill="none" stroke="#000" stroke-linecap="round" stroke-linejoin="round" stroke-width="2" d="M60.5693 9.8131s-12.4983-.3048-16.784 19.8578M41.03 50.553l-5.19 3.401-5.276-3.401m.813 10.466l4.42-2.032 4.623 2.032m-4.58-7.065l-.043 5.033"/><ellipse cx="45.121" cy="39.918" rx="1.646" ry="2.812"/><path fill="none" stroke="#000" stroke-linecap="round" stroke-linejoin="round" stroke-width="2" d="M22.3332 36.7338C5.6688 23.7275 7.9043 6.2824 7.9043 6.2824 23.959.7258 31.3767 27.9952 31.3767 27.9952s4.4135-3.561 9.0435 0c0 0 7.4177-27.2693 23.4724-21.7128 0 0 2.2355 17.4451-14.4289 30.4514M11.2275 9.8131s12.4983-.3048 16.784 19.8578M22.3332 43.745s-10.8725 8.2306-4.7758 17.9853c0 0 2.8451 5.2838 13.2096 4.979h10.2628c10.3644.3048 13.2095-4.979 13.2095-4.979 6.0967-9.7547-4.7758-17.9853-4.7758-17.9853"/><ellipse cx="26.879" cy="39.918" rx="1.646" ry="2.812"/></g></svg>