<svg xmlns="http://www.w3.org/2000/svg" role="img" viewBox="3.64 8.64 64.09 57.34"><title>1F437.svg</title><path fill="#ffa7c0" d="M28.2027 21.3266c-.707.093-1.3764-.2934-1.6465-.9533-.7644-1.867-3.1141-5.4625-10.0935-6.9127-9.625-2-8.556-1.5899-8.556-1.5899l-.4976.4092c-.4626.3804-.6667.9919-.5252 1.5739l1.9534 8.036c.0114.047.0207.0945.0277.1423l.9094 6.2054c.0184.1256.0521.2484.1002.3659l2.3674 5.7722c.0274.0668.0569.1276.0933.1899.2693.4604 1.5082 2.5335 2.2328 2.9752 1.0618.6471 2.8796.6222 4.2951.47 1.0198-.1096 1.873.7598 1.7251 1.7747l-.8229 5.6476a13.79175 13.79175 0 0 0 .0119 4.0576s.6462 4.1362.7526 4.5901c.2559 1.0915.7163 2.1231 1.3077 3.0755.6813 1.0972 1.6413 2.6032 2.1855 3.2794.9646 1.1988 2.2382 2.0986 3.6932 2.5991 3.7914 1.3043 12.5808 4.0655 18.3808-1.6158 8.0462-7.8817 5.9607-15.8196 5.9607-15.8196l-.8864-5.8108c-.1479-.9695.6247-1.8335 1.6046-1.7945l1.8976.0755c.2652.0105.5286-.0467.7655-.1663l1.8312-.9249c.3043-.1537.5499-.4028.6992-.7092l2.8262-5.7985c.0393-.0806.0715-.1644.0964-.2506l1.3359-4.6241c.0155-.0537.0281-.1083.0378-.1633l.6971-3.972 1.4906-6.6881.2433-1.2819c.1654-.8716-.4282-1.7057-1.3059-1.8348l-.7069-.104a1.56013 1.56013 0 0 0-.7408.0704l-5.4208 1.8898c-.0481.0168-.097.0312-.1465.0432l-6.2747 1.519a1.56054 1.56054 0 0 0-.6979.3762l-2.5742 2.4041a1.55833 1.55833 0 0 0-.3345.4505l-1.2642 2.5645c-.2919.5922-.9227.9358-1.5786.8601-2.7957-.3225-10.3635-1.0714-15.4487-.4028z"/><path fill="#e67a94" d="M35.324 42.5099l-6.7238 3.1518c-.4053.19-.7096.5449-.8353.9746l-1.1797 4.0305a1.55966 1.55966 0 0 0-.0101.8404l.6953 2.6075c.1216.4559.4429.8323.874 1.0239l1.0306.458c.3465.154.7373.1766 1.0992.0635l4.9717-1.5536c.3039-.095.6296-.0947.9333.0008l3.5673 1.1212c.2245.0706.4621.0894.6949.0552l2.8221-.415c.6456-.0949 1.164-.5816 1.2994-1.22l.567-2.6728c.0543-.256.0434-.5215-.0318-.7722l-1.1774-3.9247a1.5604 1.5604 0 0 0-.8716-.9823l-6.4397-2.8044a1.56012 1.56012 0 0 0-1.2853.0178zm26.0214-26.1153c-.17.126-.3639.216-.5699.2647l-6.1873 1.4624a1.56017 1.56017 0 0 0-.6665.3424l-4.2014 3.6628a1.5604 1.5604 0 0 0-.4958.8285l-.8411 3.6798c-.0308.1349-.044.2664-.0383.4046.0544 1.3251.4467 8.6932 2.4925 10.1707 1.7844 1.2887 5.0791.2383 6.3663-.2516.3384-.1288.6212-.3664.8026-.6798l3.6591-6.3233c.093-.1608.1566-.3369.1878-.5201L63.8125 17.91c.2356-1.3858-1.3376-2.3521-2.4672-1.5154zM7.296 14.0855l3.1173 2.3091c.17.126.3639.216.5699.2647l6.1873 1.4624c.2467.0583.4754.1758.6665.3424l4.2014 3.6628c.2487.2168.4223.5069.4958.8285l.8411 3.6798c.0308.1349.044.2664.0383.4046-.0544 1.3251-.4467 8.6932-2.4925 10.1707-1.7237 1.2449-3.6945 1.1691-4.5222 1.0655-.251-.0314-.4852-.1269-.6917-.2729l-2.3451-1.6584a1.56087 1.56087 0 0 1-.5393-.6735l-2.9438-7.06a1.5591 1.5591 0 0 1-.1049-.3828l-.7434-5.2745a1.5179 1.5179 0 0 0-.0264-.1402l-1.7077-7.245a1.55945 1.55945 0 0 1-.0405-.4164l.0399-1.0668z"/><g><path fill="none" stroke="#000" stroke-linecap="round" stroke-linejoin="round" stroke-width="2" d="M40.5348 55.6239l-3.9761-1.494a1.60064 1.60064 0 0 0-1.1261 0l-3.9761 1.494c-2.2002.8267-4.5486-.7996-4.5486-3.1499v-2.463c0-2.11 1.0916-4.0698 2.8856-5.1806l2.3807-1.4741c2.3414-1.4497 5.3015-1.4497 7.6429 0l2.3807 1.4741c1.794 1.1108 2.8856 3.0706 2.8856 5.1806v2.463c0 2.3504-2.3484 3.9767-4.5486 3.1499z"/><ellipse cx="32.183" cy="49.712" rx="2.611" ry="1.607" transform="rotate(-70.567 32.183 49.712)"/><ellipse cx="39.806" cy="49.706" rx="1.607" ry="2.611" transform="rotate(-19.433 39.806 49.705)"/><circle cx="26.083" cy="36.086" r="2"/><circle cx="46.042" cy="36.086" r="2"/><path fill="none" stroke="#000" stroke-linecap="round" stroke-linejoin="round" stroke-width="2" d="M25.8333 61.4188c-10.0833-6.5-5.1667-23.1667-5.1667-23.1667-7.7762 2.9161-9.0215-3.7404-10.9204-8.2062-.7452-1.7525-1.0738-3.6364-1.1634-5.5386C8.4229 21.11 6.9701 16.4312 6.089 13.868c-.47-1.3674.6215-2.7649 2.0621-2.6417 1.1647.0996 2.4527.5098 3.5792.9664 1.8985.7695 3.8733 1.3555 5.9082 1.591 8.4189.9743 9.2693 7.3018 9.2693 7.3018s10.5705-1.75 17.7588.25c0 0 .8287-6.9109 9.2476-7.8852 2.0349-.2355 4.0098-.8215 5.9082-1.591 1.1266-.4566 2.4145-.8668 3.5792-.9664 1.4406-.1231 2.5321 1.2744 2.0621 2.6417-.8811 2.5633-2.3339 7.242-2.4939 10.6394-.0896 1.9022-.4182 3.7862-1.1634 5.5386-1.8989 4.4657-3.1442 11.1222-10.9204 8.2062 0 0 4.9167 16.6667-5.1667 23.1667m-14.886-1.75s4.6667 4 10.6667 0"/><path fill="none" stroke="#000" stroke-linecap="round" stroke-linejoin="round" stroke-width="2" d="M23.0625 26.023s-1.375-6.4375-7.1875-8-5.5-2.1875-5.5-2.1875M47.8268 26.023s1.375-6.4375 7.1875-8 5.5-2.1875 5.5-2.1875"/></g></svg>