<svg xmlns="http://www.w3.org/2000/svg" role="img" viewBox="5.71 14.34 60.45 43.20"><title>1F448-1F3FD.svg</title><g fill="#c19a65" stroke="#c19a65"><path d="M45.6972 55.2881c11.975 0 18.3906-7.1612 18.3906-16.2494s-6.2758-19.273-31.1526-16.6172M46.758 55.495h-12m-.2929-6.9928c-1.9313.081-3.4313 1.7123-3.3502 3.6436.081 1.9313 1.7123 3.4313 3.6436 3.3502m-.5263-13.9908c-1.9313.081-3.4312 1.7123-3.3502 3.6436.081 1.9313 1.7123 3.4313 3.6436 3.3502"/><path d="M34.0984 41.5093c-1.9268.155-3.3631 1.8426-3.2081 3.7694.155 1.9268 1.8426 3.3631 3.7694 3.2081m-.9058-14.0191c-1.929.1237-3.3925 1.7878-3.2688 3.7168s1.7878 3.3925 3.7168 3.2688m8.8563-18.4989c-7.6195-5.8672-10.6867-6.7449-12.0296-5.3546-1.3429 1.3904.7837 5.6942 2.1741 7.0371m-21.8211 2.8308c-1.933 0-3.5 1.567-3.5 3.5s1.567 3.5 3.5 3.5m22.3354.0003H11.382m0-7h27.79m-5.844-2.961l-2.214-1.958m7.1832-3.2675c2.1439 1.9526 5.1677 3.3734 9.5218 3.3013M35.978 17.514l2.38 1.821"/><path d="M38.797 34.578l-1.967-7.063H11.047v6.953z"/><path d="M45.943 34.577v20.921H33.717V34.577z"/><path d="M36.938 27.468l-.995-2.656-3.186.509 2.93 2.164z"/></g><g fill="none" stroke="#000" stroke-linecap="round" stroke-linejoin="round" stroke-miterlimit="10" stroke-width="2"><path d="M47.6321 55.4945c9.0883 0 16.4558-7.3675 16.4558-16.4558s-7.3675-16.4558-16.4558-16.4558M46.758 55.495h-12m-.2929-6.9928c-1.9313.081-3.4313 1.7123-3.3502 3.6436.081 1.9313 1.7123 3.4313 3.6436 3.3502m-.5263-13.9908c-1.9313.081-3.4312 1.7123-3.3502 3.6436.081 1.9313 1.7123 3.4313 3.6436 3.3502"/><path d="M34.0984 41.5093c-1.9268.155-3.3631 1.8426-3.2081 3.7694.155 1.9268 1.8426 3.3631 3.7694 3.2081m-.9058-14.0191c-1.929.1237-3.3925 1.7878-3.2688 3.7168s1.7878 3.3925 3.7168 3.2688m1.7757-23.9394c-1.3904-1.3429-3.6061-1.3044-4.949.086-1.3429 1.3904-1.3044 3.6061.086 4.949m-19.733 4.9188c-1.933 0-3.5 1.567-3.5 3.5s1.567 3.5 3.5 3.5m22.3354.0003H11.382m0-7h27.79m-5.844-2.961l-2.214-1.958m7.1832-3.2675c2.1439 1.9526 5.1677 3.3734 9.5218 3.3013M35.978 17.514l2.38 1.821"/><path d="M47.6473 55.4792c9.0883 0 16.4558-7.3675 16.4558-16.4558s-7.3675-16.4558-16.4558-16.4558M46.774 55.479h-12m-.2936-6.9921c-1.9313.081-3.4313 1.7123-3.3502 3.6436.081 1.9313 1.7123 3.4312 3.6436 3.3502M34.2475 41.49c-1.9313.081-3.4312 1.7123-3.3502 3.6436.081 1.9313 1.7123 3.4313 3.6436 3.3502"/><path d="M34.1136 41.494c-1.9268.155-3.3631 1.8426-3.2081 3.7694.155 1.9268 1.8426 3.3631 3.7694 3.2081m-.9057-14.0191c-1.929.1237-3.3925 1.7878-3.2688 3.7168s1.7878 3.3925 3.7168 3.2688m1.7756-23.9394c-1.3904-1.3429-3.6061-1.3044-4.949.086-1.3429 1.3904-1.3044 3.6061.086 4.949m-19.7329 4.9188c-1.933 0-3.5 1.567-3.5 3.5s1.567 3.5 3.5 3.5m22.3351-.0004H11.397m0-7h27.791m-5.845-2.96l-2.213-1.958m7.1825-3.2677c2.1439 1.9526 5.1677 3.3734 9.5218 3.3013M35.993 17.499l2.38 1.821"/></g></svg>