<svg xmlns="http://www.w3.org/2000/svg" role="img" viewBox="4.24 2.49 63.02 65.52"><title>1F44F-1F3FF.svg</title><g fill="#6a462f"><path stroke="#6a462f" stroke-linecap="round" stroke-linejoin="round" stroke-miterlimit="10" stroke-width="2" d="M56.3522 43.9976l-1.0617-7.4771c-.5114-3.0215-.8271-7.288-1.9002-14.2739-2.4731-1.8145-5.4509 1.6502-6.2031 4.6336L44.4345 8.9599c-.5551-3.6134-7.1336-2.877-6.4499 1.5743l2.0868 14.0777-2.5293-16.9583c-.5976-3.8903-7.1342-4.2736-6.0641 2.6924-.5335-3.473-7.0838-3.4227-6.2808 1.8048l.7744 5.4314.1014.8084-.221-1.6979c-.4806-3.1286-6.0705-2.3774-5.4508 1.6573l1.0803 6.4311"/><path d="M22.7484 27.2535c-3.1923-3.1923 1.6882-7.6885 4.2795-5.0972l16.3092 16.3092-3.4575-3.4575c-1.1612-2.8574-.8089-7.4235 2.2659-7.4235 5.01 5.01 8.4731 8.9333 10.6782 11.0721 6.2265 6.2265 6.2265 16.3217 0 22.5483s-16.1868 6.2579-22.4133.0314L13.1717 43.9976c-2.8935-2.8935 1.1791-6.8155 3.4228-4.5718l9.8594 10.043-8.5742-8.7339-4.5079-4.5918c-3.7489-3.7489 1.5155-7.6739 4.0062-5.1832-4.9957-4.9957.5147-8.5621 3.3047-5.7722l13.3909 13.3909"/></g><path d="M20.36 18.341l.281 1.83m-5.233-7.261L14.06 6.624m-1.553 11.881l-5.915 2.521m7.061-5.506l-4.439-2.301m45.318 1.278l-.262-6.424m4.466 11.12l6.356.967m-8.21-3.572l3.725-3.336m-30.69 30.491L16.835 30.417m17.239 8.162L20.683 25.188m-7.5113 18.8096c-2.8935-2.8935 1.1791-6.8155 3.4228-4.5718l9.8594 10.043M13.3717 36.1431c-3.7489-3.7489 1.5155-7.6739 4.0062-5.1832m3.3047-5.7722c-2.79-2.79-8.3004.7764-3.3047 5.7722m35.4457 7.6968c-2.2051-2.1389-5.6682-6.0622-10.6782-11.0721-3.0748 0-3.4271 4.5661-2.2659 7.4235l3.4575 3.4575-16.3091-16.3092c-2.5914-2.5914-7.4718 1.9049-4.2795 5.0972M13.372 36.143l4.508 4.592m34.9436-2.0783c6.2265 6.2265 6.2265 16.3217 0 22.5483s-16.1868 6.2579-22.4133.0314M13.172 43.998L30.41 61.236m2.977-37.53L31.348 9.559m8.731 15.06l-2.536-17M20.3603 18.3415c-.6213-4.0446 4.9823-4.7977 5.4641-1.6614l.2215 1.702m-.878-6.2551c-.805-5.2403 5.7614-5.2907 6.2962-1.8092m6.079-2.699c-.5991-3.8999-7.1517-4.2841-6.079 2.6991m23.8708 26.2386c-.5127-3.0289-.8291-7.3059-1.9048-14.3089-2.4791-1.8189-5.4643 1.6542-6.2183 4.6449L44.4524 8.9283c-.5564-3.6223-7.1511-2.8841-6.4657 1.5781M25.168 12.127l.776 5.445m-5.584.769l.281 1.83m-5.233-7.261L14.06 6.624m-1.553 11.881l-5.915 2.521m7.061-5.506l-4.439-2.301m45.318 1.278l-.262-6.424m4.466 11.12l6.356.967m-8.21-3.572l3.725-3.336" fill="none" stroke="#000" stroke-linecap="round" stroke-linejoin="round" stroke-miterlimit="10" stroke-width="2"/></svg>