<svg xmlns="http://www.w3.org/2000/svg" role="img" viewBox="14.34 5.71 43.20 60.45"><title>1F447.svg</title><path fill="#FCEA2B" d="M54.42 40.9897c-1.16 1.12-4.36-.18-6.16-1.46l-.01-.01c-.36-.23-1.56-.26-1.56-.26l-1.35-1.83-.79-1.07v-1.28l-.02 1.25.02.03v24.27c0 1.94-1.57 3.5-3.5 3.5-1.83 0-3.31-1.38-3.48-3.16-.01-.11-.02-.23-.02-.34l-.09-21.8c-.38 1.64-1.89 2.81-3.63 2.7-1.77-.11-3.14-1.51-3.26-3.23h-.13c-.02.17-.07.33-.12.49-.04.1-.08.21-.13.3101-.08.2-.2.39-.33.5699-.06.09-.12.17-.2.25-.14.17-.3.32-.47.45-.07.06-.15.11-.22.17-.28.19-.6.35-.9399.44-.36.1201-.75.17-1.16.15h-.04c-.05 0-.11 0-.15-.01-.06-.01-.1-.01-.16-.02-.23-.03-.45-.09-.66-.16-.21-.08-.41-.17-.6-.28-.1-.06-.19-.1201-.28-.1801-.18-.1299-.34-.27-.49-.43-.08-.08-.15-.16-.21-.24-.28-.35-.4901-.75-.6201-1.18-.02-.06-.03-.12-.04-.18-.02-.05-.03-.1-.03-.15-.01-.03-.01-.05-.02-.08 0 .03.01.05.01.08h-.19c-.4 1.56-1.85 2.67-3.52 2.6-1.57-.07-2.85-1.16-3.23-2.6-.08-.29-.12-.58-.12-.89 0 0-.0088-6.3534 0-11.34-.306-8.6962 7.43-18.14 16.46-18.14 7.35 1.61 15.85 1.62 16.7 21.84 5.31 7.0301 6.08 9.9202 4.74 11.2201z"/><g fill="none" stroke="#000" stroke-linecap="round" stroke-linejoin="round" stroke-miterlimit="10" stroke-width="2"><path d="M16.5208 37.2567V24.3832c0-9.0883 7.3675-16.4558 16.4558-16.4558s16.4558 7.3675 16.4558 16.4558M23.5131 37.5501c-.081 1.9313-1.7123 3.4313-3.6436 3.3502s-3.4313-1.7123-3.3502-3.6436m13.9907.5264c-.081 1.9313-1.7123 3.4313-3.6436 3.3502s-3.4313-1.7123-3.3502-3.6436"/><path d="M30.506 37.9169c-.155 1.9268-1.8426 3.3631-3.7694 3.2081s-3.3631-1.8426-3.2081-3.7694m14.0191.9057c-.1237 1.929-1.7878 3.3925-3.7168 3.2688s-3.3925-1.7878-3.2688-3.7168m23.9394-1.7756c1.3429 1.3904 1.3044 3.6061-.086 4.949s-3.6061 1.3044-4.949-.086m-4.9188 19.733c0 1.933-1.567 3.5-3.5 3.5s-3.5-1.567-3.5-3.5m.0004-22.3357v22.336m7 0V32.843m2.96 5.844l1.958 2.214m3.2677-7.183c-1.9526-2.1439-3.3734-5.1677-3.3013-9.5218M54.501 36.038l-1.821-2.381"/></g></svg>