<svg xmlns="http://www.w3.org/2000/svg" role="img" viewBox="5.71 16.21 60.45 39.45"><title>1F444.svg</title><path fill="#ea5a47" stroke-width="1.226" d="M64.05 34.59c-4.56-2.963-9.963-9.286-15.69-14.31-1.328-1.169-2.925-2.567-5.85-1.169l-3.851 2.05c-.8882.5138-1.191.6898-2.663.6898s-1.775-.176-2.663-.6898l-3.851-2.05c-2.925-1.399-4.522 0-5.85 1.169-5.722 5.02-11.13 11.34-15.69 14.31l15.02 14.36c2.529 2.452 5.827 4.522 13.03 4.522s10.5-2.069 13.03-4.522z"/><path fill="#fff" stroke-width="1.226" d="M36 39.06c-7.667 0-9.791-4.905-13.87-4.292 6.763-5.096 10.48-.6131 13.87-.6131s7.108-4.483 13.87.6131c-4.081-.6131-6.204 4.292-13.87 4.292z"/><path fill="#fff" stroke-linecap="round" stroke-linejoin="round" stroke-miterlimit="10" stroke-width="2.452" d="M36 39.06c-7.667 0-9.791-4.905-13.87-4.292 6.763-5.096 10.48-.6131 13.87-.6131s7.108-4.483 13.87.6131c-4.081-.6131-6.204 4.292-13.87 4.292z"/><g fill="none" stroke="#000" stroke-linecap="round" stroke-linejoin="round" stroke-miterlimit="10" stroke-width="2.434"><path d="M8.167 34.6c4.981 1.66 6.255 1.889 14.07.1774M63.83 34.6c-4.981 1.66-6.255 1.889-14.07.1774M8.167 34.6c4.981 1.66 6.255 1.889 14.07.1774"/><path d="M8.167 34.6l14.91 14.25c2.51 2.434 5.782 4.487 12.93 4.487s10.42-2.053 12.93-4.487l14.91-14.25m-55.68 0c4.525-2.941 9.886-9.214 15.56-14.2 1.318-1.16 2.902-2.548 5.805-1.16l3.821 2.034c.8813.5098 1.182.6844 2.643.6844s1.761-.1746 2.643-.6844l3.821-2.034c2.902-1.388 4.487 0 5.805 1.16 5.678 4.981 11.04 11.25 15.56 14.2m.005 0c-4.981 1.66-6.255 1.889-14.07.1774"/><path d="M36 39.03c-7.608 0-9.715-4.867-13.76-4.259 6.711-5.057 10.4-.6084 13.76-.6084s7.053-4.449 13.76.6084c-4.049-.6084-6.156 4.259-13.76 4.259z"/></g></svg>