<svg xmlns="http://www.w3.org/2000/svg" role="img" viewBox="7.40 10.40 57.07 51.95"><title>1F445.svg</title><path fill="none" d="M15.625 21.75h41.75"/><path fill="#ea5a47" d="M56.9668 16.7774c0 6-41.7793 7.8191-41.3418 1.0066C5.9695 53.0227 24.9617 60.375 36.5 60.375s31.8952-6.0205 20.4668-43.5976z"/><g fill="none" stroke="#000" stroke-linecap="round" stroke-linejoin="round" stroke-miterlimit="10" stroke-width="2"><path d="M62.4167 12.5C56.2812 19.625 48.9688 22.1893 36 22.1875 23.0312 22.1893 15.7188 19.625 9.5833 12.5"/><path d="M62.4167 12.5C56.2812 19.625 48.9688 22.1893 36 22.1875 23.0312 22.1893 15.7188 19.625 9.5833 12.5"/><path d="M57.375 21.75C66.5 55.1875 48.0383 60.375 36.5 60.375s-30-5.1875-20.875-38.625M36.5 60.375V34.196"/></g></svg>