<svg xmlns="http://www.w3.org/2000/svg" role="img" viewBox="15.76 10.38 40.36 51.61"><title>1F443-1F3FE.svg</title><g fill="#a57939" stroke="#a57939"><path d="M46.0495 41.9032c-1.0781-3.8065-4.3718-14.867-3.1714-30.0282h-13.391c1.2004 15.1611-2.0933 26.2217-3.1714 30.0282"/><path d="M50.25 36.7078c7.5833 4.6667 2.8334 12.7522-1.6875 14.0214C44.6425 51.8296 46 60.0682 36 60.0417c-10 .0265-8.6425-8.212-12.5625-9.3125-4.5209-1.2691-9.2818-9.3547-1.6984-14.0214"/></g><g fill="none" stroke="#000" stroke-linecap="round" stroke-linejoin="round" stroke-miterlimit="10" stroke-width="2"><path d="M29.4871 12.875c1.2004 14.6562-2.0933 25.3484-3.1714 29.0282M42.8781 12.875c-1.2004 14.6562 2.0933 25.3484 3.1714 29.0282"/><path d="M50.25 37.7083c7.5833 4.6667 2.8334 11.7517-1.6875 13.0208C44.6425 51.8296 46 60.0682 36 60.0417c-10 .0265-8.6425-8.212-12.5625-9.3125-4.5209-1.2692-9.2708-8.3542-1.6875-13.0209"/></g></svg>