<svg xmlns="http://www.w3.org/2000/svg" role="img" viewBox="6.34 14.84 60.19 48.19"><title>1F45A.svg</title><path fill="#8967aa" stroke="#8967aa" stroke-miterlimit="10" stroke-width="2" d="M16.4116 16.7902L9.095 24.9094s1.3568 2.9628 7.282 5.0874l3.5563 1.3571"/><path fill="#8967aa" d="M16.4116 16.7902l-7.7891 7.7891s1.8293 3.2929 7.7545 5.4175"/><path fill="#8967aa" stroke="#8967aa" stroke-miterlimit="10" stroke-width="2" d="M56.5884 16.7902l7.2584 8.1598s-1.2986 2.9221-7.2238 5.0468l-3.3807 1.3017"/><path fill="#8967aa" d="M56.5884 16.7902l7.7891 7.7891s-1.8293 3.2929-7.7545 5.4175"/><path fill="#b399c8" d="M29.4793 16.747c0 1.4542 3.2125 2.6331 7.1753 2.6331s7.1752-1.1789 7.1752-2.6331h2.9358l-2.9358 13.6195-8.155 5.3237-8.8069-8.9978-1.6335-9.903 4.2449-.0424z"/><path fill="#8967aa" d="M36.3775 60.7083h-20s3.908-7.2615 3.908-21.9591-3.908-21.9591-3.908-21.9591h9.8889c0 6.0818 5.337 6.6033 5.337 6.6033l4.7741 10.2047h.245l4.7741-10.2047s5.3369-.5215 5.3369-6.6033h9.8889s-3.908 7.2615-3.908 21.9591 3.908 21.9591 3.908 21.9591h-20"/><g fill="none" stroke="#000" stroke-linecap="round" stroke-linejoin="round"><path stroke-width="2.096" d="M56.5884 17.0402l7.7891 7.7891s-1.8293 3.2929-7.7545 5.4175M16.4116 17.0402l-7.7891 7.7891s1.8293 3.2929 7.7545 5.4175"/><path stroke-width="2.096" d="M36.3775 60.9583h-20s3.908-7.2615 3.908-21.9591-3.908-21.9591-3.908-21.9591h9.8889c0 6.0818 5.337 6.6033 5.337 6.6033l4.7741 10.2047h.245l4.7741-10.2047s5.3369-.5215 5.3369-6.6033h9.8889s-3.908 7.2615-3.908 21.9591 3.908 21.9591 3.908 21.9591h-20"/><path stroke-width="2" d="M43.7978 17c0 1.3775-3.2125 2.4941-7.1753 2.4941S29.4473 18.3775 29.4473 17"/></g></svg>