<svg xmlns="http://www.w3.org/2000/svg" role="img" viewBox="8.68 17.06 55.51 38.76"><title>1F45D.svg</title><path fill="#A57939" stroke-linecap="round" stroke-linejoin="round" stroke-miterlimit="10" stroke-width="2" d="M56.2271 53.8787h-37.194c-3.4707 0-6.2227-2.9267-6.0092-6.3909l1.2581-20.4171c.1957-3.1753 2.8279-5.6503 6.0092-5.6503h34.6779c3.1813 0 5.8136 2.4751 6.0092 5.6503l1.2581 20.4171c.2134 3.4642-2.5386 6.3909-6.0093 6.3909z"/><g fill="none" stroke="#000" stroke-linecap="round" stroke-linejoin="round" stroke-miterlimit="10"><path stroke-width="2" d="M56.2271 53.8787h-37.194c-3.4707 0-6.2227-2.9267-6.0092-6.3909l1.2581-20.4171c.1957-3.1753 2.8279-5.6503 6.0092-5.6503h34.6779c3.1813 0 5.8136 2.4751 6.0092 5.6503l1.2581 20.4171c.2134 3.4642-2.5386 6.3909-6.0093 6.3909z"/><path stroke-width="1.863" d="M17.3646 30.0178c.1698-3.1753 1.4545-5.6503 4.2158-5.6503h32.0995c2.7613 0 4.046 2.4751 4.2158 5.6503"/><path stroke-width="2" d="M13.292 21.757l-2.54-2.54"/></g></svg>