<svg xmlns="http://www.w3.org/2000/svg" role="img" viewBox="1.68 8.68 68.51 52.51"><title>1F451.svg</title><path fill="#FFF" d="M4 51.624h64v7.267H4z"/><circle cx="35.996" cy="16.008" r="5" fill="#FFF"/><path fill="#F1B31C" d="M4 51.624h64v7.267H4z"/><path fill="#FCEA2B" d="M7 11c2.7614 0 5 2.2386 5 5s-2.2386 5-5 5m58 0c-2.7614 0-5-2.2386-5-5s2.2386-5 5-5"/><path fill="#FCEA2B" d="M64.9674 17.4945c0 9.0811-7.3617 16.4428-16.4428 16.4428h-.2866c-9.0811 0-11.4428-7.3617-11.4428-16.4428h-2.0738c0 9.0811-2.3617 16.4428-11.4428 16.4428h.1643c-5.3121 0-10.0359-2.519-13.0419-6.4277C8.2681 24.7363 7 21.2635 7 17.4945V11v40.624h58V11"/><circle cx="35.996" cy="16.008" r="5" fill="#FCEA2B"/><g fill="none" stroke="#000" stroke-linecap="round" stroke-linejoin="round" stroke-miterlimit="10" stroke-width="2"><path d="M4 51.624h64v7.267H4zM7 11v40.624h58V11"/><path d="M7 11c2.7614 0 5 2.2386 5 5s-2.2386 5-5 5"/><path d="M23.4428 33.9373c-5.3121 0-10.0359-2.519-13.0419-6.4277C8.2681 24.7363 7 21.2635 7 17.4945m57.9674 0c0 9.0811-7.3617 16.4428-16.4428 16.4428"/><circle cx="35.996" cy="16.008" r="5"/><path d="M65 21c-2.7614 0-5-2.2386-5-5s2.2386-5 5-5M4 51.624h64v7.267H4zM7 11c2.7614 0 5 2.2386 5 5s-2.2386 5-5 5"/><path d="M65 21c-2.7614 0-5-2.2386-5-5s2.2386-5 5-5"/><path d="M34.597 20.8744c-.5876 7.4597-3.3959 13.0629-11.3184 13.0629h.1643c-5.3121 0-10.0359-2.519-13.0419-6.4277C8.2681 24.7363 7 21.2635 7 17.4945V11v40.624h58V11"/><path d="M64.9674 17.4945c0 9.0811-7.3617 16.4428-16.4428 16.4428h-.2866c-7.9061 0-10.7191-5.5799-11.3147-13.0163"/><circle cx="35.996" cy="16.008" r="5"/></g></svg>