<svg xmlns="http://www.w3.org/2000/svg" role="img" viewBox="7.95 4.83 54.35 61.10"><title>1F454.svg</title><path fill="#61b2e4" stroke="#61b2e4" stroke-miterlimit="10" stroke-width="2" d="M16.1319 13.7776c-3.292 0-5.9607 2.6687-5.9607 5.9607v38.0785c0 3.292 2.6687 5.9607 5.9607 5.9607h38.0785c3.292 0 5.9607-2.6687 5.9607-5.9607V19.7383c0-3.292-2.6687-5.9607-5.9607-5.9607h-3.1635L40.696 7.9637l-8.528-.2269-8.2214 2.3051-4.029 3.7356h-3.7857z"/><path fill="#92d3f5" stroke="#92d3f5" stroke-miterlimit="10" stroke-width="2" d="M20.2061 12.8622s-4.1164 2.6922 7.013 16.4569l3.9887-7.0302-6.8234-8.4142-2.4456-1.9713m26.5922-.5352l-2.4093 2.4093-7.1732 8.52 4.6605 7.0331c11.1293-13.7647 6.0484-16.3786 6.0484-16.3786"/><path fill="#8967aa" d="M36.679 31.62h-3.007l-4.026 32.158h11.05L36.679 31.62zm0-6.957h-3.007l-1.504 3.478 1.504 3.479h3.007l1.504-3.479-1.504-3.478z"/><g fill="none" stroke="#000" stroke-linecap="round" stroke-linejoin="round" stroke-width="2"><path d="M16.1319 13.7776c-3.292 0-5.9607 2.6687-5.9607 5.9607v38.0785c0 3.292 2.6687 5.9607 5.9607 5.9607h38.0785c3.292 0 5.9607-2.6687 5.9607-5.9607V19.7383c0-3.292-2.6687-5.9607-5.9607-5.9607"/><path d="M24.3844 13.8748l7.8234 8.4142-4.9887 8.0302c-11.1293-13.7647-7.3184-17.5417-7.3184-17.5417s14.3783-13 30.6143 0c0 0 3.8109 3.7769-7.3184 17.5417l-4.9887-8.0302 7.9138-8.5115M36.679 31.62h-3.007l-4.026 32.158h11.05L36.679 31.62z"/><path d="M36.679 24.663h-3.007l-1.504 3.478 1.504 3.479h3.007l1.504-3.479-1.504-3.478z"/></g></svg>