<svg xmlns="http://www.w3.org/2000/svg" role="img" viewBox="14.81 5.94 55.12 54.12"><title>1F468-1F3FB-200D-1F33E.svg</title><path fill="#B1CC33" d="M54.9702 59.0416s2-13.9922-10-13.9922c-3.1919 2.1279-5.9264 3.5985-9 3.5922h.125c-3.0736.0063-5.8082-1.4643-9-3.5922-12 0-10 13.9922-10 13.9922"/><path fill="#5C9E31" d="M27.033 45.049l5.803 8.887 3.197-5.294m9-3.593l-5.804 8.887-3.196-5.294"/><path fill="#9B9B9A" d="M57.912 39.453h5.48v4.245h-5.48z"/><path fill="#A57939" d="M62.652 54.839v-11.1h-4v15.303h4.203v-4.203z"/><path fill="#61B2E4" d="M22.162 45.09h4.288v13.971h-4.288z"/><path fill="#61B2E4" d="M49.653 58.205l-27.491-.17v.978h27.491z"/><path fill="#61B2E4" d="M48.92 45.09h-4.289v13.942h4.289z"/><path fill="#F4AA41" d="M27.185 16.27V8.068l8.785 1.418 8.785-1.418v8.202"/><path fill="#E27022" d="M27.185 12.854h17.446v2.659H27.185z"/><g><path fill="#a57939" d="M24.724 24.9937c-.2098 1.0778-.321 2.2038-.321 3.3623 0 .7929.0521 1.5707.1523 2.3282l-.4737-.5234s-4.6525-6.8512 2.5534-13.8906h18.2132c7.206 7.0394 2.5535 13.8906 2.5535 13.8906l-5.6599-12.6244s-1.4782 3.8056-5.6542 3.4931c0 0 1.0645-4.7593-.2835-4.7593 0 0-5.1834 6.2171-11.0729 8.7249"/></g><g><path fill="#fadcbc" d="M41.7418 17.5364s-1.4782 3.8056-5.6542 3.4931c0 0 1.0645-4.7593-.2835-4.7593 0 0-5.1794 6.2122-11.0663 8.7219-.0145.0745-.0322.1473-.0458.2222-.0624.3441-.1099.6948-.1518 1.0479-.0198.1668-.0459.3309-.061.4996-.047.5239-.0762 1.0546-.0762 1.5942 0 .4494.0211.8925.0538 1.3311.0104.1393.0273.2761.0409.4142.6894 7.0025 5.4556 12.428 11.2439 12.428 5.9927 0 10.8871-5.8153 11.2983-13.1756l-5.2981-11.8173z"/></g><g><path d="M41.9703 26.9951c0 1.1045-.8965 2-2 2s-2-.8955-2-2c0-1.1035.8965-2 2-2s2 .8965 2 2m-8 0c0 1.1045-.8965 2-2 2s-2-.8955-2-2c0-1.1035.8965-2 2-2s2 .8965 2 2m1.9999 10.0025c-1.1519 0-2.3038-.2862-3.4473-.8579-.4942-.2471-.6943-.8477-.4473-1.3418.2466-.4937.8462-.6944 1.3418-.4473 1.7178.8594 3.3877.8594 5.1055 0 .4946-.2471 1.0947-.0464 1.3418.4473.2471.4941.0469 1.0947-.4473 1.3418-1.1435.5717-2.2954.8579-3.4472.8579z"/><path fill="none" stroke="#000" stroke-linecap="round" stroke-linejoin="round" stroke-miterlimit="10" stroke-width="2" d="M27.033 45.049l5.803 8.887 3.197-5.294m9-3.593l-5.804 8.887-3.196-5.294m17.4475-24.8469s-2.3766 15.4155 7.0845 15.6583V23.7951m7.0845 0s2.3767 15.4155-7.0845 15.6583V23.7951"/><path fill="none" stroke="#000" stroke-linecap="round" stroke-linejoin="round" stroke-miterlimit="10" stroke-width="2" d="M57.912 39.453h5.48v4.245h-5.48zm4.74 18.616v-14.33h-4v14.32m-3.6818-.0096s2-13-10-13c-3.1919 2.1279-5.9264 3.5985-9 3.5922h.125c-3.0736.0063-5.8082-1.4643-9-3.5922-12 0-10 13-10 13M22.162 46.001v12.034m27.491-12.034v12.063"/><path fill="none" stroke="#000" stroke-linecap="round" stroke-linejoin="round" stroke-miterlimit="10" stroke-width="2" d="M27.301 45.305v12.73l17.448-.014V45.284"/><path fill="none" stroke="#000" stroke-miterlimit="10" d="M24.724 24.9937c-.2098 1.0778-.321 2.2038-.321 3.3623 0 .7929.0521 1.5707.1523 2.3282l-.4737-.5234s-4.6525-6.8512 2.5534-13.8906h18.2132c7.206 7.0394 2.5535 13.8906 2.5535 13.8906l-5.6599-12.6244s-1.4782 3.8056-5.6542 3.4931c0 0 1.0645-4.7593-.2835-4.7593 0 0-5.1834 6.2171-11.0729 8.7249"/><path fill="none" stroke="#000" stroke-miterlimit="10" stroke-width="2" d="M24.9525 24.9937c-.2097 1.0778-.3209 2.2038-.3209 3.3623 0 7.8276 5.0764 14.1732 11.3386 14.1732 5.9698 0 10.8621-5.7671 11.3058-13.0874"/><path fill="none" stroke="#000" stroke-linecap="round" stroke-linejoin="round" stroke-miterlimit="10" stroke-width="2" d="M45.0768 16.2702c7.2059 7.0394 2.5534 13.8906 2.5534 13.8906l-5.6599-12.6244s-1.4782 3.8056-5.6542 3.4931c0 0 1.0646-4.7593-.2834-4.7593 0 0-5.1834 6.2171-11.0729 8.7249m-.6497 5.1657s-4.6525-6.8512 2.5534-13.8906m.3215-.0002V8.068l8.785 1.418 8.785-1.418v8.202m-17.57-3.505h17.57M19.513 16.27h32.568"/></g></svg>