<svg xmlns="http://www.w3.org/2000/svg" role="img" viewBox="6.88 14.88 58.11 47.11"><title>1F465.svg</title><path d="M63 61v-8c0-7-4-10-8-10H43c-2.7842 0-5.5645.5059-7 3.75-1.125-3.3125-4.2158-4.7031-7-4.7031-5 0-5 .9531-12 .9531-4 0-8 3-8 10v8m6-35c0 4 .876 6.3145 2 8 1.4316 2.1484 3.7061 3 6 3 2.3809 0 4.5664-.8516 6-3 1.123-1.6855 2-4 2-8 0-2.1484-1.0771-9-8-9s-8 5.4189-8 9zm26 0c0 4 .876 6.3145 2 8 1.4316 2.1484 3.7061 3 6 3 2.3809 0 4.5664-.8516 6-3 1.123-1.6855 2-4 2-8 0-2.1484-1.0771-9-8-9s-8 5.4189-8 9z" fill="#D0CFCE"/><g fill="none" stroke="#000" stroke-linejoin="round" stroke-width="2"><path stroke-linecap="round" d="M35 60v-7c0-7 4-10 8-10h12c4 0 8 3 8 10v7M9 60v-7c0-7 4-10 8-10h12c1.5313 0 3.0605.5313 4.3672 1.5488"/><path d="M15 26c0 4 .876 6.3145 2 8 1.4316 2.1484 3.7061 3 6 3 2.3809 0 4.5664-.8516 6-3 1.123-1.6855 2-4 2-8 0-2.1484-1.0771-9-8-9s-8 5.4189-8 9zm26 0c0 4 .876 6.3145 2 8 1.4316 2.1484 3.7061 3 6 3 2.3809 0 4.5664-.8516 6-3 1.123-1.6855 2-4 2-8 0-2.1484-1.0771-9-8-9s-8 5.4189-8 9z"/></g></svg>