<svg xmlns="http://www.w3.org/2000/svg" role="img" viewBox="14.75 8.75 42.13 52.00"><title>1F468-1F3FE-200D-2695-FE0F.svg</title><path fill="#FFF" d="M16.6483 58.8573s-2.1-14.9 9.9-14.9c3.1919 2.1279 6.0264 3.7984 9.1001 3.7921l.2749.1c3.0737.0063 5.9081-1.8642 9.1-3.9921 11.5646-.0346 9.509 14.8999 9.74 15"/><circle cx="24.614" cy="54.782" r="3" fill="#9B9B9A"/><path fill="#D0CFCE" d="M45.0771 43.8448c-3.1699 2.1133-5.275 3.5-9.3375 4.0886 13.0625.4114 12.9625 6.9114 13.7247 10.9114h5.1128s2.6144-15.0022-9.5-15z"/><path d="M31.4607 13.9422c-5.8264-2.362-9.8466 6.3904-6.9708 13.3079 1.8952-.7356 4.7204-7.028 4.7204-7.028s6.0436 4.0118 4.6066.9647c0 0 6.0003 3.9966 5.125.5757 0 0 5.42 5.8571 5.8039.4876 0 0 .5486 5.2658 2.3966 5 5.2618-10.6729-12.2535-22.0685-15.6817-13.3079z"/><g><path fill="#a57939" d="M47.1424 27.2501c-1.848.2657-2.3966-5-2.3966-5-.3839 5.3694-5.8039-.4876-5.8039-.4876.8753 3.4209-5.125-.5757-5.125-.5757 1.437 3.0471-4.6066-.9647-4.6066-.9647s-2.7309 6.0744-4.6239 6.9752c-.0135.2836-.0344.5648-.0344.8526 0 7.8277 5.0765 14.1733 11.3386 14.1733 6.2621 0 11.3386-6.3456 11.3386-14.1733 0-.3094-.0214-.6119-.037-.9164-.0186.0388-.0306.0778-.0498.1166z"/></g><g><path d="M41.9529 27.0468c0 1.1045-.8965 2-2 2s-2-.8955-2-2c0-1.1035.8965-2 2-2s2 .8965 2 2m-8 0c0 1.1045-.8965 2-2 2s-2-.8955-2-2c0-1.1035.8965-2 2-2s2 .8965 2 2m1.9998 10.0024c-1.1518 0-2.3037-.2861-3.4472-.8579-.4942-.2471-.6944-.8476-.4473-1.3418.2466-.4936.8462-.6943 1.3418-.4472 1.7178.8593 3.3877.8593 5.1055 0 .4946-.2471 1.0947-.0464 1.3418.4472.247.4942.0468 1.0947-.4473 1.3418-1.1436.5718-2.2954.8579-3.4473.8579z"/><path fill="none" stroke="#000" stroke-linecap="round" stroke-linejoin="round" stroke-miterlimit="10" stroke-width="2" d="M47.2315 26.9427c.0395.4816.0598.9703.0598 1.4649 0 7.8277-5.0765 14.1732-11.3386 14.1732s-11.3386-6.3455-11.3386-14.1732l-.1242-1.4575"/><path fill="none" stroke="#000" stroke-linecap="round" stroke-linejoin="round" stroke-miterlimit="10" stroke-width="2" d="M31.4607 13.9422c-5.8264-2.362-9.8466 6.3904-6.9708 13.3079 1.8952-.7356 4.7204-7.028 4.7204-7.028s6.0436 4.0118 4.6066.9647c0 0 6.0003 3.9966 5.125.5757 0 0 5.42 5.8571 5.8039.4876 0 0 .5486 5.2658 2.3966 5 5.2618-10.6729-12.2535-22.0685-15.6817-13.3079z"/><circle cx="24.614" cy="54.782" r="3" fill="none" stroke="#000" stroke-linecap="round" stroke-linejoin="round" stroke-miterlimit="10" stroke-width="2"/><path fill="none" stroke="#000" stroke-linecap="round" stroke-linejoin="round" stroke-miterlimit="10" stroke-width="2" d="M24.6141 51.7818s-1.3273-5.4596 2.2791-9.2021m23.0224 3.399c6.2065 3.1183 4.8522 11.9209 4.8522 11.9209M28.5935 45.9903c2.4969 1.5232 4.7846 2.5066 7.2993 2.5014h-.125c2.3664.0049 4.5318-.8657 6.8597-2.2377M16.8928 57.8996s-1.4346-9.3247 5.4161-12.1794m22.1487-3.1405c1.5847 1.6445 2.4274 5.3192 2.4274 5.3192-3.4246.1134-3.3095 3.8829-3.3095 3.8829s-.7793 5.5625 1.6548 5.4316l-.1645 1.6162.2835-2.963m1.942-7.9677c3.4246.1134 3.3096 3.8829 3.3096 3.8829s.7793 5.5625-1.6549 5.4316l.1645 1.6162-.2835-2.963M29.953 46.767L35.611 57.9m5.657-10.903L35.611 57.9"/></g></svg>