<svg xmlns="http://www.w3.org/2000/svg" role="img" viewBox="14.74 7.11 42.15 52.65"><title>1F468-1F3FD-200D-1F393.svg</title><path fill="#3F3F3F" d="M54.8621 58.8041s2-14-10-14c-3.1918 2.1279-5.9264 3.5984-9 3.5921h.125c-3.0736.0063-5.8081-1.4642-9-3.5921-12 0-10 14-10 14"/><path fill="#9B9B9A" d="M45.131 12.155l-9.31.91-9.07-.88-5.44-.53 13.88-2.53 15.13 2.53z"/><path fill="#3F3F3F" d="M45.1314 12.1554v7.97s-6.72-.26-9.19 2.64c-2.47-2.9-9.19-2.64-9.19-2.64v-7.94l9.07.88 9.31-.91z"/><path fill="#FFF" d="M35.9688 51.3809h-.1084v-.001c-3.1973-.0313-5.9854-1.4639-9.4278-3.7598-.4599-.3066-.584-.9277-.2773-1.3867.3056-.46.9248-.583 1.3867-.2773 3.1533 2.1025 5.6601 3.4101 8.3828 3.4248 2.7217-.0137 5.2285-1.3223 8.3828-3.4248.46-.3057 1.0811-.1827 1.3867.2773.3067.46.1827 1.0801-.2773 1.3867-3.4434 2.2959-6.2315 3.7285-9.4277 3.7598v.001h-.0205z"/><g fill="#6a462f"><path d="M26.5778 20.0977c-.6876 1.2066-1.2278 2.5535-1.5876 3.9997l-.0279.0694s3.9805.7845 7.961-3.0788l.0355-.1017c-2.8687-.9967-6.3327-.8611-6.3327-.8611m18.3858 0s-3.4076-.2012-6.3247.9044l.0275.0584c3.9805 3.8633 7.961 3.0788 7.961 3.0788l-.0102.0025c-.3597-1.4735-.9063-2.8451-1.6054-4.0716"/></g><g><path fill="#c19a65" d="M46.5413 24.1869c-.7043.0936-4.2608.3619-7.8265-3.0989l-.0275-.0584c.0073-.0027.0148-.0049.022-.0077-1.0909.3906-2.0895.9471-2.7678 1.7435-2.0695-2.4297-7.1041-2.6405-8.6871-2.6452 1.1271.0109 3.5778.1272 5.7045.8661l-.0355.1017c-3.5658 3.4608-7.1223 3.1925-7.8265 3.0989-.3976 1.4398-.6163 2.9834-.6163 4.5929 0 7.8276 5.0765 14.1732 11.3386 14.1732 6.2621 0 11.3386-6.3456 11.3386-14.1732-.0002-1.6096-.2189-3.1532-.6165-4.5929z"/></g><g><path d="M41.9416 26.9513c0 1.1045-.8965 2-2 2s-2-.8955-2-2c0-1.1035.8965-2 2-2s2 .8965 2 2m-8 0c0 1.1045-.8965 2-2 2s-2-.8955-2-2c0-1.1035.8965-2 2-2s2 .8965 2 2m1.9998 10.0024c-1.1518 0-2.3037-.2861-3.4472-.8579-.4942-.2471-.6944-.8477-.4473-1.3418.2466-.4937.8462-.6943 1.3418-.4473 1.7178.8594 3.3877.8594 5.1055 0 .4946-.247 1.0947-.0464 1.3418.4473.247.4941.0468 1.0947-.4473 1.3418-1.1436.5718-2.2954.8579-3.4473.8579z"/><path d="M46.13 19.7698c-.57-1.03-1.24-1.97-2-2.79v2.15c-.22 0-.48.01-.76.03.46.6.87 1.2599 1.23 1.96 1.06 2.07 1.6801 4.54 1.6801 7.19 0 7.27-4.64 13.18-10.34 13.18s-10.34-5.91-10.34-13.18c0-2.66.62-5.13 1.69-7.2.36-.7.77-1.35 1.22-1.95-.28-.02-.54-.03-.76-.03v-2.15c-.75.82-1.43 1.76-2 2.79-1.36 2.43-2.15 5.37-2.15 8.54 0 8.37 5.54 15.18 12.34 15.18 6.81 0 12.34-6.81 12.34-15.18-.0001-3.17-.7901-6.11-2.1501-8.54z"/><path fill="none" stroke="#000" stroke-linecap="round" stroke-linejoin="round" stroke-miterlimit="10" stroke-width="2" d="M21.311 11.655l5.44.53 9.07.88 9.31-.91 5.19-.5"/><path d="M36.74 23.3698c-.02.01-.03.03-.04.04-.13.16-.29.2599-.47.31-.04.02-.08.03-.12.03-.06.02-.11.02-.17.02s-.12 0-.17-.02c-.04 0-.08-.01-.12-.03-.13-.03-.25-.1-.36-.19-.06-.05-.11-.1-.15-.16-1.65-1.86-5.85-2.25-7.85-2.26-.19 0-.36.01-.5.01-.27.01-.54-.08-.73-.27-.2-.19-.31-.45-.31-.72v-8.47c0-.56.45-1 1-1s1 .44 1 1v7.47c.22 0 .48.01.76.03 2.04.12 5.36.5699 7.43 2.24.28.21.53.45.76.72.31.3599.32.88.04 1.25z"/><path d="M46.13 11.6598v8.47c0 .27-.11.53-.3.72-.2.18-.44.28-.74.28-.14-.01-.31-.01-.4901-.01-2.0099 0-6.22.38-7.86 2.25-.02.01-.03.03-.04.04-.13.16-.29.2599-.47.31-.04.02-.08.03-.12.03-.06.02-.11.02-.17.02s-.12 0-.17-.02c-.04 0-.08-.01-.12-.03-.13-.03-.25-.1-.36-.19-.06-.05-.11-.1-.15-.16-.28-.37-.27-.89.04-1.25.23-.27.48-.51.76-.72 2.07-1.67 5.39-2.12 7.43-2.24.28-.02.54-.03.76-.03v-7.47c0-.56.45-1 1-1s1.0001.44 1.0001 1z"/><path fill="none" stroke="#000" stroke-linecap="round" stroke-linejoin="round" stroke-miterlimit="10" stroke-width="2" d="M50.321 11.655l-15.13-2.53-13.88 2.53"/><path d="M21.3125 21.0005c-.5527 0-1-.4478-1-1v-8.1211c0-.5523.4473-1 1-1s1 .4477 1 1v8.1211c0 .5522-.4473 1-1 1z"/><path d="M19.2852 23.5801c-.2159 0-.4336-.0698-.6172-.2134-.4336-.3413-.5098-.9702-.168-1.4043l2.0264-2.5796c.3408-.4336.9677-.5102 1.4043-.1689.4336.3413.5097.9702.1679 1.4043l-2.0263 2.5796c-.1973.2509-.4903.3823-.7871.3823z"/><path d="M21.3125 25.1011c-.5527 0-1-.4478-1-1v-4.1006c0-.5523.4473-1 1-1s1 .4477 1 1v4.1006c0 .5522-.4473 1-1 1zm24.5811.1313c-1.5938 0-4.6875-.4511-7.753-3.4267-.3965-.3848-.4062-1.0181-.0215-1.4141.3858-.3965 1.0176-.4053 1.4141-.0215 3.5215 3.4185 6.9356 2.8418 7.0781 2.8145.5401-.0967 1.0635.2573 1.1651.7964.1025.54-.2461 1.061-.7852 1.1669-.0527.0108-.4531.0845-1.0976.0845zm-19.9043 0c-.6455 0-1.045-.0737-1.0977-.0845-.542-.1064-.8945-.6323-.7881-1.1743.1065-.5405.6289-.8911 1.169-.789.1611.0312 3.5664.5947 7.0771-2.8145.3965-.3838 1.0283-.375 1.4141.0215.3847.396.375 1.0293-.0215 1.4141-3.0654 2.9756-6.1592 3.4267-7.7529 3.4267zm28.7695 33.5703c-.0508 0-.1016-.0029-.1524-.0107-.5459-.084-.9209-.5938-.8378-1.1387.0087-.0576.8271-5.7412-2.129-9.1777-1.4755-1.7149-3.6894-2.6123-6.5859-2.669-3.3096 2.1856-6.0283 3.5459-9.126 3.5889-.0214.001-.0429.001-.0644.001h-.1084c-.0147 0-.0293 0-.044-.001-3.0996-.043-5.8164-1.4033-9.1259-3.5889-2.8965.0567-5.1104.9541-6.586 2.669-2.956 3.4365-2.1377 9.1201-2.1289 9.1777.083.5449-.292 1.0547-.8379 1.1387-.5351.084-1.0547-.29-1.1386-.8359-.0411-.2696-.9727-6.6329 2.581-10.7754 1.9229-2.2412 4.751-3.377 8.4072-3.377.1973 0 .3907.0586.5547.168 3.1533 2.1025 5.6602 3.4101 8.3828 3.4248 2.7217-.0137 5.2286-1.3223 8.3828-3.4248.1641-.1094.3575-.168.5547-.168 3.6563 0 6.4844 1.1358 8.4073 3.377 3.5537 4.1425 2.622 10.5058 2.581 10.7754-.0762.4941-.5019.8466-.9863.8466z"/></g></svg>