<svg xmlns="http://www.w3.org/2000/svg" role="img" viewBox="18.21 5.21 36.45 60.58"><title>1F469-1F3FB-200D-1F9AF.svg</title><g fill="#fadcbc"><path d="M51.3813 21.8414c-.116-2.3275-2.6853-4.16-4.9626-4.1825h-6.0729a4.68 4.68 0 0 0-1.4263.2642l-.296.0938a4.7155 4.7155 0 0 0-3.0918 3.8862l-.0355.195-.5487 4.3446-1.6875 1.1814-6.7484-6.2427s-1.4771 1.75-.4647 3.1424 3.835 5.39 5.9891 5.7993a4.2139 4.2139 0 0 0 4.429-1.4331 10.6877 10.6877 0 0 0 1.6777-4.1646l1.3162 1.4227-1.9969 11.1791-.82 24.9091c-.0325.3191.8251.6521 1.02.9035a.2454.2454 0 0 0 .1539.091c.2166 0 1.1515-.287 1.2315-.9945l2.0853-22.96a5.026 5.026 0 0 1 .31-1.2429l1.1925-.7458h1.6446l.996.6308a4.9891 4.9891 0 0 1 .3562 1.3579L48.2042 62.09c.08.7063.5283 1.1394.7449 1.1394a.2444.2444 0 0 0 .1538-.0912c.1946-.2515.8313-.5207.7983-.84l-.2534-20.9089 2.5 1.0525c-.0529-.12.8628-.7854.8569-.9171z"/><circle cx="43.787" cy="10.618" r="3.067"/></g><path fill="none" stroke="#000" stroke-linecap="round" stroke-linejoin="round" stroke-width="2.025" d="M38.3385 23.5453c2.3814 3.5766.6854 6.1825.0321 8.0989a33.7866 33.7866 0 0 0-.9086 5.683c-.6078 6.05-1.0149 24.3012-1.0149 24.3012-.0557 1.1136.5821 2.0247 1.4173 2.0247a2.1016 2.1016 0 0 0 1.75-2.0115l2.57-22.3034c.1275-1.1065.6874-2.0116 1.2442-2.0116s1.1136.9051 1.2442 2.0116l2.5742 22.3034a2.1016 2.1016 0 0 0 1.75 2.0115c.8352 0 1.473-.9111 1.4173-2.0247 0 0-.5291-18.0621-1.0864-24.0565a36.3223 36.3223 0 0 0-.8371-5.9277c-.6249-1.9259-2.4459-4.7977-.0291-8.0989"/><path fill="none" stroke="#000" stroke-linecap="round" stroke-linejoin="round" stroke-width="2.025" d="M52.5437 41.7679l-.8018-19.2349a5.3391 5.3391 0 0 0-5.2719-5.0618h-6.0747"/><path fill="none" stroke="#000" stroke-linecap="round" stroke-linejoin="round" stroke-width="2.025" d="M27.1857 22.0562l3.7528 4.29c1.834 2.0949 3.7084 1.5621 4.1662-1.1838L35.4645 23c.4578-2.7465 2.64-5.2417 4.8672-5.52"/><path fill="none" stroke="#000" stroke-linecap="round" stroke-miterlimit="10" stroke-width="2.025" d="M27.127 22.125l-4.52 40.061"/><circle cx="43.852" cy="10.786" r="2.954" fill="none" stroke="#000" stroke-miterlimit="10" stroke-width="1.97"/><path fill="none" stroke="#000" stroke-linecap="round" stroke-linejoin="round" stroke-width="2" d="M47.0922 7.5753s.5786-.27.9252.0177c.4081.3372.6856 1.5991 1.168 2.145a3.2605 3.2605 0 0 0 1.8128 1.072"/><g><path fill="none" stroke="#d0cfce" stroke-linecap="round" stroke-miterlimit="10" stroke-width="2" d="M25.196 21.698l-3.549 30.833"/><path fill="none" stroke="#d22f27" stroke-linecap="round" stroke-miterlimit="10" stroke-width="2" d="M21.647 52.531l-1.075 9.561"/><circle cx="20.572" cy="62.172" r="1.097" fill="#d0cfce"/><path fill="none" stroke="#000" stroke-linecap="round" stroke-miterlimit="10" stroke-width="2" d="M25.196 21.698l-.789 6.858"/></g></svg>