<svg xmlns="http://www.w3.org/2000/svg" role="img" viewBox="7.29 9.79 56.29 44.66"><title>1F468-1F3FF-200D-2764-FE0F-200D-1F48B-200D-1F468-1F3FC.svg</title><path fill="#EA5A47" d="M36 14.7c1.1-2.4 4-3.4 6.3-2.2s3.3 4 2.2 6.4c-.1.3-.3.5-.4.7L36 30l-8.1-10.4c-.2-.2-.3-.5-.4-.7-1.1-2.4-.1-5.2 2.2-6.4s5.2-.2 6.3 2.2z"/><path fill="#A57939" d="M42.3 28.7c0 .3 13.7-7 16.3 1.4 0 0 3.6 1.8 2.9 7.9-.1 1-.1 3.4-1.2 4.4l-2.9-7.3s-7.7 3-12.9-.6l-2.4 7.8s-.9-1.4-1-3.1c0 0-.4-4.1.5-5.7.2-.1 1.8-2.7.7-4.8z"/><path fill="#A57939" d="M9.5 35.8c.6-8.8 7.3-8.9 10.6-8.3.3.1 1.2 0 1.5 0 6.1-.8 9.1 6.1 9.1 9.1 0 1.1 0 3.8-1.5 5.3 0 0-3.5-4.2-3.6-6.6 0 0-11.5 4.4-12.3.6 0 0-.8 3-1.5 3.8v3c0-.1-2.6-3.2-2.3-6.9z"/><path fill="#debb90" d="M60.3 42.4l-2.9-7.3s-7.7 3-12.9-.6l-1.9863 6.4554C42.6584 47.3065 46.621 52.4 51.5 52.4c4.5337 0 8.2739-4.3997 8.8981-10.1176-.0346.0369-.0609.0839-.0981.1176z"/><path fill="#6a462f" d="M25.6 35.3s-11.5 4.4-12.3.6c0 0-.7353 2.7525-1.4128 3.6849-.0514.4968-.0872 1-.0872 1.5151 0 6.2408 3.8951 11.3 8.7 11.3 4.6063 0 8.3665-4.6531 8.6703-10.5361-.3004-.3651-3.475-4.2772-3.5703-6.5639z"/><g fill="none" stroke="#000" stroke-width="2"><path stroke-miterlimit="10" d="M60.5 39.7v.9c0 6.5-4 11.8-9 11.8s-9-5.3-9-11.8v-.7"/><path stroke-linecap="round" stroke-linejoin="round" d="M49.4 47.4c.6.7 1.4.7 2.1 0"/><path stroke-linecap="round" stroke-miterlimit="10" d="M46.2 41.8s1.5 1.5 3 0m4.3-.7s1.5 1.5 3 0"/><path stroke-linejoin="round" stroke-miterlimit="10" d="M42.3 28.7c0 .3 13.7-7 16.3 1.4 0 0 3.6 1.8 2.9 7.9-.1 1-.1 3.4-1.2 4.4l-2.9-7.3s-7.7 3-12.9-.6l-2.4 7.8s-.9-1.4-1-3.1c0 0-.4-4.1.5-5.7.2-.1 1.8-2.7.7-4.8z"/><path stroke-linecap="round" stroke-linejoin="round" d="M36 14.7c1.1-2.4 4-3.4 6.3-2.2s3.3 4 2.2 6.4c-.1.3-.3.5-.4.7L36 30l-8.1-10.4c-.2-.2-.3-.5-.4-.7-1.1-2.4-.1-5.2 2.2-6.4s5.2-.2 6.3 2.2h0z"/><path stroke-miterlimit="10" d="M29.2 40.2v.9c0 6.3-3.9 11.3-8.7 11.3s-8.7-5.1-8.7-11.3v-.7"/><path stroke-linecap="round" stroke-linejoin="round" d="M20.2 47.4c.6.7 1.4.7 2.1 0"/><path stroke-linecap="round" stroke-miterlimit="10" d="M22.5 41.8s1.5 1.5 3 0m-10.6-.7s1.5 1.5 3 0"/><path stroke-linecap="round" stroke-linejoin="round" d="M9.5 35.8c.6-8.8 7.3-8.9 10.6-8.3.3.1 1.2 0 1.5 0 6.1-.8 9.1 6.1 9.1 9.1 0 1.1 0 3.8-1.5 5.3 0 0-3.5-4.2-3.6-6.6 0 0-11.5 4.4-12.3.6 0 0-.8 3-1.5 3.8v3c0-.1-2.6-3.2-2.3-6.9z"/></g></svg>