<svg xmlns="http://www.w3.org/2000/svg" role="img" viewBox="14.55 7.05 53.52 55.90"><title>1F469-1F3FB-200D-1F4BC.svg</title><path fill="#9B9B9A" d="M16.8466 58.8567s-1.5465-13.8402 10.4535-13.8402c3.1919 2.1279 5.9264 3.5984 9 3.5922h-.125c3.0736.0062 5.1081-2.5643 8.3-4.6922 15.5705-.0001 11.1 14.9402 11.1 14.9402"/><path fill="#D0CFCE" d="M36.615 54.17l2.415 3.269 6.332-13.3 6.832 9.491-11.83 4.718"/><path fill="#FFF" d="M38.5091 57.73c-.5976 1.035-4.8914 1.035-5.4889 0l-1.8421-2.4345-3.3864-8.7387 7.9729 2.7 7.573-2.7-3.2865 8.7387-1.542 2.4345z"/><path fill="#3F3F3F" d="M33.4574 48.4979s-1.2064 6.0214 2.3072 6.0214 2.3073-6.0214 2.3073-6.0214"/><path fill="#3F3F3F" d="M35.0184 54.8429c.3249-.5627 1.137-.5627 1.4619 0l2.5499 4.0246h-6.6183l2.6065-4.0246z"/><path fill="#D0CFCE" d="M34.914 54.519l-2.415 3.355-5.672-12.985-3.957 8.444 9.458 4.541m33.7881.5751H50.6315V38.6467h15.2708c.1181 0 .2138.0957.2138.2138v19.5886z"/><path fill="#FFF" d="M62.6646 60.925H48.057V41.9732H58.81c2.1288 0 3.8546 1.7257 3.8546 3.8546V60.925z"/><g><path fill="#a57939" d="M17.2016 44.7296c.3924.644.8751 1.2364 1.4433 1.7322.4796.4185.9583.8137 1.4365 1.198 1.5671-1.5598 3.8624-2.6433 7.2188-2.6433 3.1714 2.1143 5.892 3.5762 8.9417 3.5889 3.0358-.0315 5.0649-2.5767 8.2333-4.6888 1.2472 0 2.365.0963 3.3664.2733l.2155-1.6545 2.6372.0162v-3.7255l5.0351.0022c-.2041-2.9537-1.4052-6.5718-3.7585-11.1585-.1305-6.5579-.9548-15.6853-8.5214-15.424-1.8536-4.3087-24.8434-9.6662-23.9289 15.7635-.0775 4.3858-5.13 10.3007-2.319 16.7203z"/></g><g><path fill="#fadcbc" d="M40.9975 15.8576c-2.0473 3.6729-11.675 8.6145-16.3735 10.7562l.0874.0102c-.078.6711-.1184 1.3574-.1184 2.0556 0 7.8276 5.0765 14.1732 11.3386 14.1732 6.2622 0 11.3386-6.3456 11.3386-14.1732 0-1.1582-.1111-2.2839-.3208-3.3614-.7817-4.0177-2.9333-7.3653-5.8015-9.2263"/></g><g><path fill="none" stroke="#000" stroke-linecap="round" stroke-linejoin="round" stroke-miterlimit="10" stroke-width="2" d="M18.1626 44.3604l-.5604-.9195c-2.6609-6.0766 2.4972-11.6756 2.5705-15.8271-.8655-24.0713 20.8962-19 22.6507-14.9215 7.1623-.2473 7.9426 8.3925 8.0662 14.6002 1.5104 2.9436 2.5194 5.4658 3.0728 7.6563"/><path fill="none" stroke="#000" stroke-linecap="round" stroke-linejoin="round" stroke-miterlimit="10" stroke-width="2" d="M40.9975 15.8576c-2.0473 3.6729-11.675 8.6145-16.3735 10.7562l.0874.0102c-.078.6711-.1184 1.3574-.1184 2.0556 0 7.8276 5.0765 14.1732 11.3386 14.1732 6.2622 0 11.3386-6.3456 11.3386-14.1732 0-1.1582-.1111-2.2839-.3208-3.3614-.7817-4.0177-2.9333-7.3653-5.8015-9.2263"/><path d="M41.9318 26.9963c0 1.1045-.8965 2-2 2s-2-.8955-2-2c0-1.1035.8965-2 2-2s2 .8965 2 2m-8 0c0 1.1045-.8965 2-2 2s-2-.8955-2-2c0-1.1035.8965-2 2-2s2 .8965 2 2m1.9998 10.0024c-1.1518 0-2.3037-.2861-3.4472-.8579-.4942-.247-.6944-.8476-.4473-1.3418.2466-.4936.8462-.6943 1.3418-.4472 1.7178.8593 3.3877.8593 5.1055 0 .4946-.2471 1.0947-.0464 1.3418.4472.247.4942.0468 1.0948-.4473 1.3418-1.1436.5718-2.2954.8579-3.4473.8579z"/><path fill="none" stroke="#000" stroke-linecap="round" stroke-linejoin="round" stroke-miterlimit="10" stroke-width="2" d="M33.4574 48.4979s-1.2064 6.0214 2.3072 6.0214 2.3073-6.0214 2.3073-6.0214m6.6301 7.0941l-5.74 2.288"/><path fill="none" stroke="#000" stroke-linecap="round" stroke-linejoin="round" stroke-miterlimit="10" stroke-width="2" d="M16.8271 57.8491s-2-13 10-13c3.1919 2.1279 5.9264 3.5984 9 3.5921h-.125c3.0736.0063 5.8082-1.4642 9-3.5921"/><path fill="none" stroke="#000" stroke-linecap="round" stroke-linejoin="round" stroke-miterlimit="10" stroke-width="2" d="M34.914 54.519l-2.415 3.355-5.672-12.985-3.957 8.444 9.458 4.541zm9.788-9.67L39.03 57.874l-2.415-3.355m26.05 6.406H48.057V42.289h11.825v2.112h2.783z"/><path fill="none" stroke="#000" stroke-linecap="round" stroke-linejoin="round" stroke-miterlimit="10" stroke-width="2" d="M51.261 38.826h14.826v18.636m-6.205-15.173l2.783 2.112m-11.663 4.097h8.432m-8.432 4.096h8.432m-8.432 3.584h8.432"/></g></svg>