<svg xmlns="http://www.w3.org/2000/svg" role="img" viewBox="9.04 11.79 38.17 50.05"><title>1F468-200D-1F467.svg</title><path fill="#92D3F5" d="M36.0004 38.9986h-6.5838c-4.0035 3.2895-7.9182 3.2895-11.8327 0-3.2918 0-6.5836 2.6671-6.5836 5.9566V61h25.0001V38.9986z"/><path fill="#B1CC33" d="M26.5004 61v-2.5333C26.5004 56 29.0022 54 31.504 54c2.9751 2.4667 5.9502 2.4667 8.9929 0 2.5017 0 5.0035 2 5.0035 4.4667V61"/><path d="M13.9286 21.3903c.5334-7.7347 6.4011-7.8236 9.335-7.3791.2667.0889 1.0669 0 1.3336 0 5.3343-.7112 8.0014 5.3343 8.0014 8.0014 0 .978.2255 3.3655-1.1081 4.6991 0 0-3.2483-3.7211-3.4261-5.8549 0 0-10.1352 3.8229-10.8464.5334 0 0-.7112 2.6671-1.3336 3.3784 0 0-.3288 2.0448-.3288 2.6671.0002.0002-1.8937-2.667-1.627-6.0454zm22.0718 19.3135c3.864 1.3703 5.567 5.8271 5.6943 9.6307 1.4225.308 2.8826-.3898 3.8057-1.461a7.1981 7.1981 0 0 1-2.1494-3.1356c.7369-5.7252-2.03-9.5793-7.3506-8.4862-5.3206-1.0931-8.0875 2.761-7.3506 8.4862a7.1981 7.1981 0 0 1-2.1494 3.1356c.923 1.0712 2.3833 1.769 3.8057 1.461.1273-3.8034 1.8302-8.2605 5.6943-9.6307z" fill="#A57939"/><path d="M28.0454 20.8569s-10.1351 3.8229-10.8464.5334c0 0-.7112 2.6672-1.3336 3.3784 0 0-.3185 1.9835-.3273 2.635.4585 5.148 3.8411 9.1996 7.9427 9.1996 4.2864 0 7.782-4.426 7.9809-9.9028-.1045-.1204-3.2414-3.7454-3.4163-5.8436zM41.5038 48.517c-.0138-.0543-.0171-.1106-.0324-.1646-.5499-3.1755-2.2374-6.5396-5.471-7.6487-3.2336 1.1091-4.9211 4.4731-5.471 7.6487-.0153.054-.0186.1102-.0324.1646.8397 2.7543 2.9947 4.3117 5.5034 4.3118 2.5087-.0001 4.6638-1.5575 5.5034-4.3118z" fill="#FCEA2B"/><g><path fill="none" stroke="#000" stroke-miterlimit="10" stroke-width="2" d="M31.5 25.5689v.6437c0 5.7012-3.5862 10.3908-8 10.3908s-8-4.6897-8-10.3908v-.6437"/><path fill="none" stroke="#000" stroke-linecap="round" stroke-linejoin="round" stroke-width="2" d="M13.9286 21.3903c.5334-7.7347 6.4011-7.8236 9.335-7.3791.2667.0889 1.0669 0 1.3336 0 5.3343-.7112 8.0014 5.3343 8.0014 8.0014 0 .978.2255 3.3655-1.1081 4.6991 0 0-3.2483-3.7211-3.4261-5.8549 0 0-10.1352 3.8229-10.8464.5334 0 0-.7112 2.6671-1.3336 3.3784 0 0-.3288 2.0448-.3288 2.6671.0002.0002-1.8937-2.667-1.627-6.0454z"/><path fill="none" stroke="#000" stroke-linecap="round" stroke-linejoin="round" stroke-miterlimit="10" stroke-width="2" d="M11.0003 60V44.9552c0-3.2895 3.2918-5.9566 6.5836-5.9566 2.6822 2.2539 5.3643 2.9634 8.0751 2.1288"/><path d="M22.25 26.5c0 .7143-.5357 1.25-1.25 1.25s-1.25-.5357-1.25-1.25.5357-1.25 1.25-1.25 1.25.5357 1.25 1.25m5 0c0 .7143-.5357 1.25-1.25 1.25s-1.25-.5357-1.25-1.25.5357-1.25 1.25-1.25 1.25.5357 1.25 1.25"/><path fill="none" stroke="#000" stroke-linecap="round" stroke-linejoin="round" stroke-width="2" d="M21.633 31.5332c1.1558.6223 2.5782.6223 3.734 0"/><path fill="none" stroke="#000" stroke-linecap="round" stroke-linejoin="round" stroke-width="1.6" d="M26.5003 60.2v-1.7333C26.5003 56 29.0021 54 31.5039 54c2.9751 2.4667 5.9502 2.4667 8.9929 0 2.5017 0 5.0035 2 5.0035 4.4667V60.2"/><path d="M38.5982 45.7015c.0333.4958-.3417.9247-.8377.958-.4959.0333-.9249-.3417-.9582-.8375s.3417-.9247.8377-.958a.86825.86825 0 0 1 .0604-.002c.4796-.0155.8813.3601.8978.8395z"/><path fill="none" stroke="#000" stroke-linecap="round" stroke-linejoin="round" stroke-width="1.6" d="M34.6642 49.1857c.7749.6425 1.8974.6425 2.6723 0"/><path fill="none" stroke="#000" stroke-miterlimit="10" stroke-width="1.6" d="M41.5441 48.407c-.8139 2.8267-3.0002 4.4219-5.5441 4.4219h.0006c-2.5439 0-4.7302-1.5952-5.5441-4.4219"/><path d="M34.3002 44.862a.9372.9372 0 0 1 .0604.002c.4959.0333.871.4622.8377.958s-.4623.8707-.9582.8375c-.4959-.0333-.871-.4622-.8377-.958.0165-.4794.4182-.855.8978-.8395z"/><path fill="none" stroke="#000" stroke-linecap="round" stroke-linejoin="round" stroke-width="1.6" d="M36.0003 40.7038c3.864 1.3703 5.567 5.8271 5.6943 9.6307 1.4225.308 2.8826-.3898 3.8057-1.461a7.1981 7.1981 0 0 1-2.1494-3.1356c.7369-5.7252-2.03-9.5793-7.3506-8.4862-5.3206-1.0931-8.0875 2.761-7.3506 8.4862a7.1981 7.1981 0 0 1-2.1494 3.1356c.923 1.0712 2.3833 1.769 3.8057 1.461.1273-3.8034 1.8302-8.2605 5.6943-9.6307z"/></g></svg>