<svg xmlns="http://www.w3.org/2000/svg" role="img" viewBox="8.96 11.21 54.08 50.70"><title>1F46A.svg</title><path fill="#92D3F5" d="M11.0003 61V44.9552c0-3.2895 3.2918-5.9566 6.5836-5.9566 3.9146 3.2895 7.8292 3.2895 11.8327 0h13.1673c3.9146 3.2895 7.8292 3.2895 11.8327 0 3.2918 0 6.5836 2.6671 6.5836 5.9566V61"/><path fill="#B1CC33" d="M26.5 61v-2.5333C26.5 56 29.0018 54 31.5036 54c2.9751 2.4667 5.9502 2.4667 8.9929 0 2.5017 0 5.0035 2 5.0035 4.4667V61"/><g fill="#A57939"><path d="M37.1268 38.9986h5.4571c3.9146 3.2895 7.8292 3.2895 11.8327 0 1.2701 0 2.538.4002 3.619 1.0768l.3439-.1638 1.7012-2.0374c1.956-2.2226 1.5774-5.9042.4216-8.6602-1.6003-3.734-2.0448-3.734-2.3115-8.5349-.0889-2.7561-2.2226-5.0676-4.9787-5.3343 0 0-1.6892-2.0448-5.3343-2.0448-4.2675 0-8.1792 2.3115-9.1572 5.9566-1.0668 3.734.1779 5.2453-.889 8.0903-.9335 2.4005-2.9313 3.7391-2.9105 6.6245.0068.9417.7955 3.0455 1.4623 4.0457l.7434.9815zM13.9286 21.3903c.5334-7.7347 6.4011-7.8236 9.335-7.3791.2667.0889 1.0669 0 1.3336 0 5.3343-.7112 8.0014 5.3343 8.0014 8.0014 0 .978.2255 3.3655-1.1081 4.6991 0 0-3.2483-3.7211-3.4261-5.8549 0 0-10.1352 3.8229-10.8464.5334 0 0-.7112 2.6671-1.3336 3.3784 0 0-.3288 2.0448-.3288 2.6671.0002.0002-1.8937-2.667-1.627-6.0454z"/><path d="M33.6355 42.2716c.4694 3.3631 4.487-.8706 4.487-.8706.5491 1.5737 4.4254 3.8674 4.4254 3.8674 1.0324-.9557.5259-2.8525.3721-3.5136-.5106-2.7127-3.0794-4.5325-5.8079-4.1144a6.44664 6.44664 0 0 1-1.0324 0c-2.2709-.3369-6.03-.1483-7.12 4.6433-.5317 2.3382.624 2.9844.624 2.9844s3.764-5.0588 4.0518-2.9965z"/></g><path d="M41.1209 26.8135c0 5.3343 3.3784 9.335 7.3791 9.335s7.3791-4.0007 7.3791-9.335c0-3.3784-1.3336-5.3343-4.0007-8.0014-2.6671 2.6671-10.6686 6.0455-10.6686 7.3791l-.0889.6223zm-13.0755-5.9566s-10.1351 3.8229-10.8464.5334c0 0-.7112 2.6672-1.3336 3.3784 0 0-.3185 1.9835-.3273 2.635.4585 5.148 3.8411 9.1996 7.9427 9.1996 4.2864 0 7.782-4.426 7.9809-9.9028-.1045-.1204-3.2414-3.7454-3.4163-5.8436zM38.1228 41.401s-4.0176 4.2337-4.487.8706c-.2576-1.8462-3.2933 2.0046-3.9283 2.834-.0739.3356-.1232.5668-.1232.5888-.1437 3.7311 2.7579 6.8753 6.4885 7.031 3.7306-.1557 6.6323-3.2999 6.4886-7.031 0-.0303-.0594-.2263-.15-.5089-.6787-.4149-3.7996-2.383-4.2886-3.7845z" fill="#FCEA2B"/><g><path fill="none" stroke="#000" stroke-miterlimit="10" stroke-width="2" d="M31.5 25.5689v.6437c0 5.7012-3.5862 10.3908-8 10.3908s-8-4.6897-8-10.3908v-.6437"/><path fill="none" stroke="#000" stroke-linecap="round" stroke-linejoin="round" stroke-width="2" d="M13.9286 21.3903c.5334-7.7347 6.4011-7.8236 9.335-7.3791.2667.0889 1.0669 0 1.3336 0 5.3343-.7112 8.0014 5.3343 8.0014 8.0014 0 .978.2255 3.3655-1.1081 4.6991 0 0-3.2483-3.7211-3.4261-5.8549 0 0-10.1352 3.8229-10.8464.5334 0 0-.7112 2.6671-1.3336 3.3784 0 0-.3288 2.0448-.3288 2.6671.0002.0002-1.8937-2.667-1.627-6.0454zM35.8408 33.634c-.0323-2.2288 1.1717-4.1809 1.9908-6.287 1.0669-2.845-.1778-4.3563.889-8.0903.978-3.6451 4.8898-5.9566 9.1572-5.9566 3.6451 0 5.3343 2.0448 5.3343 2.0448 2.7561.2667 4.8898 2.5782 4.9787 5.3343.2667 4.8009.7112 4.8009 2.3115 8.5349 1.0621 2.5328.7728 5.3659-.7991 7.5333"/><path fill="none" stroke="#000" stroke-linejoin="round" stroke-miterlimit="10" stroke-width="2" d="M41.1209 26.8135c0 5.3343 3.3784 9.335 7.3791 9.335s7.3791-4.0007 7.3791-9.335c0-3.3784-1.3336-5.3343-4.0007-8.0014-2.6671 2.6671-10.6686 6.0455-10.6686 7.3791l-.0889.6223h0z"/><path d="M47.25 26.5c0 .7143-.5357 1.25-1.25 1.25s-1.25-.5357-1.25-1.25.5357-1.25 1.25-1.25 1.25.5357 1.25 1.25m5 0c0 .7143-.5357 1.25-1.25 1.25s-1.25-.5357-1.25-1.25.5357-1.25 1.25-1.25 1.25.5357 1.25 1.25"/><path fill="none" stroke="#000" stroke-linecap="round" stroke-linejoin="round" stroke-width="2" d="M46.633 31.5332c1.1558.6223 2.5782.6223 3.734 0"/><path d="M22.25 26.5c0 .7143-.5357 1.25-1.25 1.25s-1.25-.5357-1.25-1.25.5357-1.25 1.25-1.25 1.25.5357 1.25 1.25m5 0c0 .7143-.5357 1.25-1.25 1.25s-1.25-.5357-1.25-1.25.5357-1.25 1.25-1.25 1.25.5357 1.25 1.25"/><path fill="none" stroke="#000" stroke-linecap="round" stroke-linejoin="round" stroke-width="2" d="M21.633 31.5332c1.1558.6223 2.5782.6223 3.734 0"/><path fill="none" stroke="#000" stroke-linecap="round" stroke-linejoin="round" stroke-width="1.6" d="M26.5003 60.2v-1.7333C26.5003 56 29.0021 54 31.5039 54c2.9751 2.4667 5.9502 2.4667 8.9929 0 2.5017 0 5.0035 2 5.0035 4.4667V60.2"/><path d="M38.7983 45.7015c.0333.4958-.3417.9247-.8377.958-.4959.0333-.9249-.3417-.9582-.8375s.3417-.9247.8377-.958a.86825.86825 0 0 1 .0604-.002c.4796-.0155.8813.3601.8978.8395z"/><path fill="none" stroke="#000" stroke-linecap="round" stroke-linejoin="round" stroke-width="1.6" d="M34.6642 49.1857c.7749.6425 1.8974.6425 2.6723 0"/><path d="M34.1001 44.862a.9372.9372 0 0 1 .0604.002c.4959.0333.871.4622.8377.958s-.4623.8707-.9582.8375c-.4959-.0333-.871-.4622-.8377-.958.0165-.4794.4182-.855.8978-.8395z"/><path fill="none" stroke="#000" stroke-miterlimit="10" stroke-width="1.6" d="M42.5496 45.2683c.0078.141.0117.283.0118.4261.1437 3.7311-2.758 6.8753-6.4886 7.031-3.7306-.1557-6.6322-3.2999-6.4885-7.031 0-.0952.0017-.1899.0052-.2841"/><path fill="none" stroke="#000" stroke-linecap="round" stroke-linejoin="round" stroke-width="1.6" d="M33.6358 42.2716c.4694 3.3631 4.487-.8706 4.487-.8706.5491 1.5737 4.4254 3.8674 4.4254 3.8674 1.0324-.9557.5259-2.8525.3721-3.5136-.5106-2.7127-3.0794-4.5325-5.8079-4.1144a6.44664 6.44664 0 0 1-1.0324 0c-2.2709-.3369-6.03-.1483-7.12 4.6433-.5317 2.3382.624 2.9844.624 2.9844s3.764-5.0588 4.0518-2.9965z"/><path fill="none" stroke="#000" stroke-linecap="round" stroke-linejoin="round" stroke-miterlimit="10" stroke-width="2" d="M46.2565 41.1188c2.6973.8481 5.4076.1413 8.1601-2.1202 3.2918 0 6.5836 2.6671 6.5836 5.9566V60m-49.9999 0V44.9552c0-3.2895 3.2918-5.9566 6.5836-5.9566 2.6822 2.2539 5.3643 2.9634 8.0751 2.1288"/></g></svg>