<svg xmlns="http://www.w3.org/2000/svg" role="img" viewBox="14.67 6.98 42.16 52.91"><title>1F468-1F3FF-200D-2708-FE0F.svg</title><g id="color"><path fill="#3F3F3F" d="M50.1739,16.1588c0.6,1.14,0.42,2.53-0.4,3.52l-2.24,2.72l-0.09,0.06c-1.02-1.56-2.34-2.5-2.34-2.5 l-0.04-0.05c0.49-0.35,0.93-0.76,1.31-1.21h-21.07c0.33,0.33,0.7,0.64,1.1,0.93l-0.02,0.03c0,0-1.2,0.91-2.17,2.4l-0.24-0.15 l-1.85-2.23c-0.82-0.99-1-2.38-0.4-3.52c1.37-2.58,4.98-6.72,14.23-7.28C45.2039,9.4388,48.8139,13.5788,50.1739,16.1588z"/><path fill="#3F3F3F" d="M33.8539,22.2588c-2.82-0.33-5.51-1.23-7.45-2.63c-0.4-0.29-0.77-0.6-1.1-0.93h21.07 c-0.38,0.45-0.82,0.86-1.31,1.21c-1.08,0.82-2.38,1.43-3.82,1.83C38.9639,22.3888,36.3639,22.5488,33.8539,22.2588z"/><path fill="#D0CFCE" d="M33.0232,18.1161c0-1.6553,1.3448-3,3-3c1.6553,0,3,1.3447,3,3"/><path fill="#FFF" d="M16.6742,58.8838c0,0-0.9644-3.8571-0.1756-7.6612c0.7007-3.3792,4.6186-7.2388,10.2087-7.2388 c3.1918,2.1279,5.5264,4.5985,8.6,4.5922h-0.125c3.0736,0.0063,6.308-1.5642,9.4999-3.6922c11.5647-0.0346,10.009,13.9,10.24,14"/><path fill="#D0CFCE" d="M44.5757,49.8784c4.2663,2.3224,4.3828,6.254,4.9068,9.004c4.2378,0,5.1128,0,5.1128,0 s1.6601-4.6027,0.1076-8.7835c-1.1542-3.1082-4.4418-6.1174-9.6076-6.1165"/><path fill="#3F3F3F" d="M35.721 50.206L39.496 58.883 35.721 58.883 31.746 58.883z"/><path fill="#3F3F3F" d="M33.3503,48.7604c0,0-1.2063,5.0369,2.3073,5.0369s2.3073-5.0369,2.3073-5.0369"/></g><g id="hair"><path d="M33.8539 22.2588c-7.05 1.08-9.38 7.7-9.38 7.7-2.46-3.11-1.54-5.98-.26-7.9.97-1.49 2.17-2.4 2.17-2.4l.02-.03C28.3439 21.0288 31.0339 21.9288 33.8539 22.2588zM47.4439 22.4588c1.18 1.83 1.94 4.51-.43 7.5 0 0-2.69-7.96-5.77-8.22 1.44-.4 2.74-1.01 3.82-1.83l.04.05C45.1039 19.9588 46.4239 20.8988 47.4439 22.4588z"/></g><g id="skin" fill="#6a462f"><path d="M36.3226 22.4588c0 0 7.7547-2.8806 10.9168 6.2998 0 7.8277-5.0765 14.1733-11.3386 14.1733s-11.3386-6.3456-11.3386-14.1733C30.7437 20.5482 36.3226 22.4588 36.3226 22.4588zM16.735 44.382H23.698999999999998V48.232H16.735zM47.685 44.382H54.649V48.232H47.685z"/></g><g id="line"><path d="M42.0234 26.8773c0 1.1045-.8965 2-2 2s-2-.8955-2-2c0-1.1035.8965-2 2-2S42.0234 25.7738 42.0234 26.8773M34.0234 26.8773c0 1.1045-.8965 2-2 2s-2-.8955-2-2c0-1.1035.8965-2 2-2S34.0234 25.7738 34.0234 26.8773M36.0232 36.8798c-1.1518 0-2.3037-.2862-3.4472-.858-.4942-.247-.6944-.8476-.4473-1.3418.2466-.4936.8462-.6943 1.3418-.4472 1.7178.8594 3.3877.8594 5.1055 0 .4946-.2471 1.0947-.0464 1.3418.4472.247.4942.0468 1.0948-.4473 1.3418C38.3269 36.5936 37.1751 36.8798 36.0232 36.8798zM47.6016 23.5176c-.2237 0-.4493-.0752-.6358-.229-.4258-.3521-.4863-.9824-.1338-1.4082l2.2481-2.7198c.5771-.6987.6885-1.6464.2832-2.414-1.2051-2.2847-4.5391-6.1944-13.3399-6.7505-8.7998.5561-12.1357 4.4658-13.3408 6.7505-.4053.7671-.2939 1.7148.2842 2.414l1.8457 2.2344c.3525.4253.292 1.0557-.1338 1.4077-.4267.3521-1.0566.2925-1.4072-.1342l-1.8457-2.2339c-1.0947-1.3238-1.2949-3.1377-.5127-4.6216 1.4053-2.6611 5.2275-7.2153 15.0488-7.8169.041-.0029.082-.0029.1231 0 9.8232.6016 13.6445 5.1558 15.0478 7.8174.7832 1.4839.582 3.2978-.5117 4.6216l-2.2481 2.7197C48.1758 23.394 47.8896 23.5176 47.6016 23.5176z"/><path d="M35.9395,43.4111c-6.417,0-11.6993-5.916-12.2862-13.7607l1.9942-0.1484c0.5,6.6777,5.0205,11.9091,10.292,11.9091 c5.2578,0,9.6728-5.0136,10.2705-11.6631c0.0449-0.4892,0.0673-0.997,0.0673-1.5097h2c0,0.5732-0.0253,1.1416-0.0752,1.6904 C47.5107,37.6143,42.2393,43.4111,35.9395,43.4111z"/><path d="M24.5498 31.0781c-.3027 0-.5928-.1377-.7842-.3799-1.4687-1.8569-2.0664-3.7729-1.7773-5.6948.4814-3.2016 3.2871-5.167 3.4062-5.2495.458-.3125 1.0782-.1968 1.3907.2564.3134.4541.1992 1.0751-.2539 1.3891l0 0c-.0215.0156-2.2227 1.5762-2.5674 3.9151-.1299.8847.0234 1.789.458 2.7026 1.248-2.2017 4.0664-5.7915 9.4287-6.5454.5596-.085 1.0527.3042 1.1299.8511.0771.5468-.3037 1.0527-.8506 1.1293-6.4873.9122-8.6133 6.8907-8.6348 6.9512-.1181.3457-.417.5987-.7773.6602C24.6621 31.0732 24.6055 31.0781 24.5498 31.0781zM47.0908 31.0781c-.0566 0-.1133-.0049-.1699-.0146-.3613-.0625-.6592-.3174-.7773-.6641-1.004-2.9599-3.2598-7.4038-4.9131-7.5415-.5508-.0459-.959-.5293-.9131-1.0796.0449-.5498.5205-.9668 1.0791-.9136 2.6748.2227 4.8086 4.3306 5.9082 6.9629.3682-.8491.4932-1.6894.3721-2.5131-.3448-2.3389-2.5459-3.8995-2.5674-3.9151-.4522-.3154-.5655-.938-.251-1.3906.3145-.4536.9355-.5659 1.3877-.2549.1191.0825 2.9248 2.0479 3.4062 5.2495.2891 1.9219-.3085 3.8379-1.7773 5.6948C47.6836 30.9404 47.3936 31.0781 47.0908 31.0781zM39.0234 19.1162c-.5527 0-1-.4477-1-1 0-1.103-.8974-2-2-2-1.1025 0-2 .897-2 2 0 .5523-.4472 1-1 1-.5527 0-1-.4477-1-1 0-2.2056 1.794-4 4-4 2.2061 0 4 1.7944 4 4C40.0234 18.6685 39.5762 19.1162 39.0234 19.1162zM35.6572 54.7969c-1.4111 0-2.2158-.6455-2.6426-1.1865-1.3828-1.753-.7167-4.7471-.6367-5.0831.1289-.5351.6612-.8671 1.2041-.7382.5362.1269.8682.666.7412 1.2031-.1435.6094-.4043 2.5391.2627 3.3818.1436.1817.4112.4229 1.0713.4229.6612 0 .9287-.2422 1.0733-.4248.6201-.7871.4443-2.6162.2617-3.3789-.1289-.5371.2031-1.0762.7402-1.2051.5362-.127 1.0762.2031 1.2051.7402.0801.335.7451 3.3291-.6367 5.0821C37.873 54.1514 37.0684 54.7969 35.6572 54.7969zM54.7373 58.9355c-.0508 0-.1016-.0029-.1523-.0107-.5459-.083-.9209-.5937-.8379-1.1387.0049-.0371.5361-3.6923-.7725-6.9131-.208-.5117.0391-1.0947.5508-1.3027.5078-.206 1.0937.0381 1.3027.5508 1.5205 3.7432.9219 7.7969.8955 7.9678C55.6475 58.583 55.2217 58.9355 54.7373 58.9355z"/><path d="M30.082 54.7314c-.0283 0-.0576-.0009-.0869-.0039-.3662-.0322-.6855-.2627-.831-.5996l-3.7745-8.748c-.1279-.2959-.1054-.6338.0596-.9102.166-.2763.4531-.456.7735-.4824l.5527-.0469c.2285-.0224.4512.0391.6396.1641 3.1534 2.1025 5.6602 3.4111 8.3829 3.4238 2.7207-.0127 5.2275-1.3213 8.3828-3.4238.1845-.1221.3994-.1768.624-.166l.6777.0469c.3281.0234.625.206.792.4902.167.2832.1846.6318.0449.9297l-4.0752 8.748c-.1562.336-.4853.5576-.8554.5772-.3682.0234-.7198-.17-.9092-.4864l-2.9072-4.8691c-.5469.0928-1.1006.1445-1.668.1523-.0147.001-.0293.004-.0439.001h-.003c-.0117 0-.0263-.001-.0381 0h-.0429c-.0127-.001-.0274 0-.0381 0h-.0029c-.0166.003-.0293 0-.044-.001-.5293-.0068-1.0478-.0527-1.5596-.1337l-3.2138 4.8877C30.7314 54.5635 30.417 54.7314 30.082 54.7314zM28.2773 47.0234l1.9883 4.6094 1.8155-2.7607C30.8389 48.4424 29.5947 47.8135 28.2773 47.0234zM39.5859 48.8467l1.6426 2.751 2.1475-4.6084C42.0615 47.7803 40.8223 48.4111 39.5859 48.8467zM16.8584 58.9355c-.4844 0-.9102-.3525-.9863-.8466-.0264-.169-.6172-4.1651.8613-7.8858.2051-.5136.7861-.7627 1.2988-.5605.5137.2041.7637.7861.5606 1.2988-1.2735 3.2031-.749 6.8086-.7442 6.8447.083.545-.292 1.0547-.8379 1.1387C16.96 58.9326 16.9092 58.9355 16.8584 58.9355z"/><path d="M31.8779 58.8936c-.1767 0-.3554-.0469-.5175-.1456-.4727-.2861-.6231-.9013-.336-1.373l2.2393-3.6895c.2861-.4736.9004-.624 1.373-.3359.4727.2861.6231.9014.336 1.3731l-2.2393 3.6894C32.5459 58.7227 32.2158 58.8936 31.8779 58.8936zM39.4375 58.8936c-.3379 0-.668-.1709-.8555-.4815l-2.2392-3.6894c-.2871-.4717-.1367-1.087.3359-1.3731.4736-.2871 1.0879-.1367 1.3731.3359l2.2392 3.6895c.2871.4717.1367 1.0869-.3359 1.373C39.793 58.8467 39.6143 58.8936 39.4375 58.8936zM23.6992 48.2715c-.5527 0-1-.4473-1-1v-1.9522c0-.5527.4473-1 1-1 .5528 0 1 .4473 1 1v1.9522C24.6992 47.8242 24.252 48.2715 23.6992 48.2715zM20.3037 48.2715c-.5527 0-1-.4473-1-1v-1.9522c0-.5527.4473-1 1-1s1 .4473 1 1v1.9522C21.3037 47.8242 20.8564 48.2715 20.3037 48.2715zM16.9072 48.2715c-.5527 0-1-.4473-1-1v-1.9522c0-.5527.4473-1 1-1 .5528 0 1 .4473 1 1v1.9522C17.9072 47.8242 17.46 48.2715 16.9072 48.2715zM47.7715 48.2715c-.5527 0-1-.4473-1-1v-1.9522c0-.5527.4473-1 1-1s1 .4473 1 1v1.9522C48.7715 47.8242 48.3242 48.2715 47.7715 48.2715zM51.167 48.2715c-.5527 0-1-.4473-1-1v-1.9522c0-.5527.4473-1 1-1s1 .4473 1 1v1.9522C52.167 47.8242 51.7197 48.2715 51.167 48.2715zM54.5625 48.2715c-.5527 0-1-.4473-1-1v-1.9522c0-.5527.4473-1 1-1s1 .4473 1 1v1.9522C55.5625 47.8242 55.1152 48.2715 54.5625 48.2715zM36.3428 23.5176c-4.6983 0-9.208-1.5288-11.6699-3.9951-.2852-.2862-.3702-.7163-.2159-1.0899.1553-.373.5196-.6167.9239-.6167h21.0683c.3897 0 .7442.2266.9072.5801.1641.3535.1075.77-.1455 1.0674-2.0312 2.3921-5.6777 3.8633-10.0048 4.0371C36.918 23.5122 36.6299 23.5176 36.3428 23.5176zM28.5176 19.8159c2.333 1.1797 5.4336 1.8174 8.6084 1.6861 2.5635-.1031 4.8261-.6978 6.5381-1.6861H28.5176z"/></g></svg>