<svg xmlns="http://www.w3.org/2000/svg" role="img" viewBox="15.22 6.97 53.56 52.44"><title>1F469-1F3FD-200D-1F3ED.svg</title><path fill="#D0CFCE" d="M17.4341 57.917S15.264 44.2469 27.264 44.2469c3.1919 2.1279 5.9264 3.5984 9 3.5922h-.125c3.0736.0062 4.7082-2.1643 7.9-4.2922 5.2722 0 8.818 1.4395 10.3884 3.6367C57.204 51.0687 55.539 57.917 55.539 57.917"/><path fill="#61B2E4" d="M51.1556 45.0999v12.8142H21.9525V44.8448l-.0033-.0058c1.3944-.797 3.2031-1.2921 5.5449-1.2921v9.2652h17.8378V43.717l.0007-.1684c2.3927.0347 4.4908.5958 5.8761 1.467"/><path fill="#9B9B9A" d="M35.6669 9.0596c.0293.0008.0557.0033.0845.0041.0293-.0008.0554-.0033.0844-.0041h-.1689zm.0845.0041c-12.6145.3537-10.76 9.6192-10.76 9.6192 6.4832-3.498 18.0292-2.5454 21.5202 0 0 0 1.8545-9.2655-10.7602-9.6192z"/><path fill="#E27022" d="M58.9129 32.3237c4.5772 3.7761 7.8592-1.1008 7.8592-1.1008s-3.2379-4.9716-7.7812-1.5403"/><path fill="#92D3F5" d="M31.971 9.508v3.088h7.264V9.508"/><path fill="#3F3F3F" d="M43.67679 56.41474l4.32365-15.38189 3.85077 1.0824-4.32365 15.3819z"/><path fill="none" d="M58.036 28.137l.382 6.127"/><path fill="#FCEA2B" d="M58.5002 31.7437c2.1562 1.7788 3.7022-.5186 3.7022-.5186s-1.5252-2.3419-3.6654-.7255"/><g fill="#6a462f"><path d="M25.0124 24.4735s-10.6339 2.5266-7.9128 15.7288c0 0 5.3626.1413 7.5363-2.4283 0 0 2.4867-2.2424 3.5184-8.1866 1.0317-5.9441-3.2501-5.1368-3.2501-5.1368"/><path d="M24.9 24.521c4.7415-.4991 11.7795-7.5645 11.7795-7.5645s8.5126 8.7362 10.8925 6.8972c.2163-2.3798-1.2982-4.7597-1.2982-4.7597s-8.8314-5.4799-19.9716-.3616c-3.0698 3.8232-1.6044 6.9598-1.6044 6.9598"/></g><g><path fill="#c19a65" d="M36.6795 16.9565S29.6415 24.0219 24.9 24.521l-.2022 1.1712s-.0659-.1473-.1402-.4043c-.043.5018-.0679 1.0103-.0679 1.5263 0 7.8276 5.0765 14.1732 11.3386 14.1732s11.3386-6.3455 11.3386-14.1732c0-.9328-.0767-1.8426-.2143-2.725-2.9655.3643-10.2731-7.1327-10.2731-7.1327z"/></g><g><path d="M41.9708 25.4081c0 1.1045-.8965 2-2 2s-2-.8955-2-2c0-1.1035.8965-2 2-2s2 .8965 2 2m-8 0c0 1.1045-.8965 2-2 2s-2-.8955-2-2c0-1.1035.8965-2 2-2s2 .8965 2 2m1.9999 10.0025c-1.1519 0-2.3038-.2862-3.4473-.858-.4941-.247-.6943-.8476-.4473-1.3418.2466-.4936.8462-.6943 1.3418-.4472 1.7178.8594 3.3877.8594 5.1055 0 .4946-.2471 1.0947-.0464 1.3418.4472.2471.4942.0469 1.0948-.4473 1.3418-1.1435.5718-2.2954.858-3.4472.858z"/><path d="M35.9707 41.9424c-6.8037 0-12.3389-6.8067-12.3389-15.1734 0-.874.0606-1.7504.1807-2.6044l1.9805.2773c-.1065.7632-.1612 1.5459-.1612 2.3271 0 7.2642 4.6377 13.1734 10.3389 13.1734s10.3389-5.9092 10.3389-13.1734c0-1.0727-.1016-2.1391-.3028-3.1699l1.9629-.3828c.2256 1.1567.3399 2.3521.3399 3.5527 0 8.3667-5.5352 15.1734-12.3389 15.1734zm3.2637-28.3467h-7.2637c-.5527 0-1-.4478-1-1V9.5083c0-.5522.4473-1 1-1s1 .4478 1 1v2.0874h5.2637V9.5083c0-.5522.4472-1 1-1 .5527 0 1 .4478 1 1v3.0874c0 .5522-.4473 1-1 1zm8.2158 3.063c-.5527 0-1-.4478-1-1v-2.6763c0-.5522.4473-1 1-1s1 .4478 1 1v2.6763c0 .5522-.4473 1-1 1zm-23.3975 0c-.5527 0-1-.4478-1-1v-2.6763c0-.5522.4473-1 1-1 .5528 0 1 .4478 1 1v2.6763c0 .5522-.4472 1-1 1zm31.3008 41.2602c-.0508 0-.1015-.0029-.1523-.0107-.5459-.083-.9209-.5937-.8379-1.1387.0068-.0449.6484-4.4785-1.2334-7.8838-.2676-.4834-.0918-1.0918.3916-1.3584.4853-.2685 1.0918-.0908 1.3584.3916 2.2178 4.0118 1.4922 8.9454 1.4599 9.1534-.0761.4941-.5019.8466-.9863.8466zm-37.8789 0c-.4844 0-.9101-.3525-.9863-.8466-.041-.2696-.9727-6.6328 2.581-10.7754 1.9229-2.2412 4.751-3.377 8.4073-3.377.1972 0 .3906.0586.5547.168 3.1542 2.1025 5.6611 3.4111 8.3828 3.4238 2.1523-.0097 4.2714-.7998 7.2929-2.7138.4668-.2959 1.084-.1563 1.3799.3095.2959.4668.1572 1.084-.3096 1.3799-2.4404 1.5459-5.1279 2.9785-8.2539 3.0234-.0156.001-.0312.0049-.0468.001h-.003a.24222.24222 0 0 0-.0381 0h-.0839c-.0157.0039-.0293 0-.044-.001-3.1006-.0419-5.8174-1.4023-9.1279-3.5878-2.8965.0566-5.1104.9541-6.5859 2.6689-2.9561 3.4365-2.1377 9.1201-2.129 9.1777.0831.545-.2919 1.0547-.8378 1.1387-.0508.0078-.1016.0107-.1524.0107z"/><path d="M41.707 54.8369H27.4766c-.5528 0-1-.4473-1-1v-9.917c0-.5527.4472-1 1-1 .5527 0 1 .4473 1 1v8.917H41.707c.5528 0 1 .4473 1 1s-.4472 1-1 1zm-19.7724 3.083c-.5528 0-1-.4472-1-1V45.2178c0-.5528.4472-1 1-1 .5527 0 1 .4472 1 1v11.7021c0 .5528-.4473 1-1 1zm3.0478-38.2368c-.4668 0-.8847-.3281-.9795-.8037-.0312-.1548-.7324-3.832 1.7246-6.9072 1.9434-2.4312 5.2393-3.7442 9.8008-3.9043.043-.0054.0869-.0083.1309-.0083h.1689c.044 0 .0879.0029.1309.0083 4.5615.1601 7.8584 1.4731 9.8008 3.9048 2.457 3.0747 1.7558 6.7519 1.7246 6.9072-.1094.5415-.6387.8887-1.1768.7837-.542-.1084-.8926-.6358-.7842-1.1773.0049-.0254.5401-2.9502-1.3408-5.2846-1.5849-1.9668-4.4238-3.023-8.4385-3.1397-4.0283.1172-6.872 1.1797-8.4541 3.1587-1.8818 2.3555-1.332 5.2373-1.3261 5.2661.1084.5415-.2422 1.0684-.7842 1.1768a1.0066 1.0066 0 0 1-.1973.0195zm26.3867 22.2974l-2.8886-.8125 2.0088-7.1465c.1796-.6309 1.1845-3.7149 3.6533-3.8067l3.8926-.5019.3847 2.9746-3.9726.5127c-.0645.0088-.128.0127-.1924.0127-.2022.1025-.6758.9307-.8799 1.6309l-2.0059 7.1367z"/><path d="M47.5283 58.4971c-.0898 0-.1806-.0117-.2715-.0371l-3.8515-1.0821c-.2549-.0722-.4717-.2422-.6016-.4736s-.1621-.5049-.0908-.7598l4.3242-15.3828c.0723-.2558.2422-.4717.4736-.6015.2305-.1299.503-.1622.7598-.0909l3.8506 1.083c.5322.1495.8418.7022.6924 1.2334l-4.3233 15.3819c-.124.4414-.5254.7295-.9619.7295zm-2.6191-2.7744l1.9258.541 3.7822-13.4561-1.9248-.542-3.7832 13.4571zm13.5078-20.459c-.5234 0-.9639-.4082-.9971-.9375l-.3818-6.127c-.0342-.5508.3848-1.0259.9355-1.06.5645-.0454 1.0264.3847 1.0606.936l.3818 6.126c.0342.5517-.3847 1.0263-.9355 1.0605-.0215.001-.043.002-.0635.002zM17.7432 40.54c-.4737 0-.8838-.332-.9795-.7978-2.0791-10.0869 4.2383-13.8545 6.7275-14.9253-.2764-1.3901-.3252-4.0234 2.043-6.9746.3476-.4302.9756-.499 1.4062-.1538.4307.3457.5.9751.1543 1.4057-2.6074 3.2481-1.5215 5.8125-1.4746 5.9204.1182.2671.1153.5782-.0107.8414-.127.2636-.3604.4633-.6426.5385-.332.0909-7.9619 2.295-6.4043 12.0713 1.4033-.1806 3.6338-.7129 4.7002-1.9736.3564-.4209.9863-.4727 1.4102-.1172.4209.3574.4736.9883.1171 1.4102-2.1767 2.5712-6.8183 2.748-7.0146 2.7539-.0108.0009-.0215.0009-.0322.0009z"/><path d="M24.9111 25.2573c-.5058 0-.9394-.3818-.9931-.8955-.0586-.5488.3398-1.041.8896-1.0991 3.5996-.3789 9.2871-5.3809 11.1748-7.2759.1895-.1899.4199-.3281.7149-.2944a.99738.99738 0 0 1 .7099.3022c3.9629 4.0655 7.8487 6.7652 9.1924 6.8794-.0889-1.792-1.1465-3.4897-1.1582-3.5088-.2939-.4663-.1553-1.0839.3106-1.3789.4658-.2949 1.083-.1572 1.3779.3067.0693.1089 1.6953 2.6987 1.4502 5.3877-.0254.2768-.1651.5307-.3848.7006-2.5713 1.9864-8.4678-3.2495-11.5195-6.2841-1.9697 1.8515-7.5 6.7168-11.6592 7.1548a1.09597 1.09597 0 0 1-.1055.0053zm22.6729-1.6675h.0098-.0098z"/><path d="M49.75 21.8184c-.2891 0-.5742-.1241-.7725-.3638-1.7724-2.1484-7.1289-3.7241-13.1494-3.895-6.0205.1709-11.3769 1.7466-13.1494 3.895-.3516.4248-.9805.4873-1.4082.1352-.4258-.3515-.4863-.9819-.1348-1.4077 2.4952-3.0239 8.7188-4.333 13.837-4.5893.0937-.0293.1933-.0449.2968-.0449h1.1172c.1035 0 .2031.0156.2969.0449 5.1182.2563 11.3418 1.5654 13.8369 4.5893.3516.4258.291 1.0562-.1348 1.4077-.1865.1539-.4121.2286-.6357.2286zm12.6406 12.9394c-1.3935 0-2.7734-.5576-4.1142-1.6631-.4258-.3515-.4864-.9814-.1348-1.4082.3516-.4248.9805-.4853 1.4082-.1347 1.125.9287 2.2305 1.3193 3.3008 1.1738 1.1816-.167 2.1162-.9629 2.6377-1.5166-.5313-.5938-1.5049-1.4746-2.7393-1.6865-1.0176-.1768-2.081.1474-3.1552.958-.4424.334-1.0684.2451-1.4004-.1953-.333-.4405-.2452-1.0674.1953-1.4004 1.5361-1.1617 3.1162-1.6114 4.7168-1.3306 2.7568.4824 4.4345 3.0151 4.5049 3.1226.2187.3369.2158.7714-.0079 1.1045-.0693.1025-1.7285 2.5253-4.4521 2.9218-.2539.0362-.5068.0547-.7598.0547z"/></g></svg>