<svg xmlns="http://www.w3.org/2000/svg" role="img" viewBox="14.76 4.51 53.37 58.24"><title>1F469-200D-2696-FE0F.svg</title><path fill="#3F3F3F" d="M16.9236 58.8171s-1.9134-14.9199 10.0866-14.9199c3.1919 2.1279 5.1403 3.5811 8.875 3.5921 3.7347.0111 5.7695-1.6492 8.9614-3.7771 14.0111 0 10.5476 15.0048 10.7785 15.1049"/><path fill="#FFF" d="M44.9687 44.4343l-3.8861 5.9728-2.5935 4.4989c-1.2071 2.0939-4.2282 2.0958-5.438.0036l-2.5994-4.4956-3.4576-5.9797c6.1416 5.2919 12.1328 5.2919 17.9746 0z"/><path fill="#A57939" d="M64.3691 41.2165c1.53.73 2.17 2.57 1.43 4.09l-1.63 3.39c-.74 1.52-2.58 2.16-4.1 1.43l-2.05-1.73.37-.44 3.4-7.05.04-.2 2.54.51z"/><path fill="#F1B31C" d="M61.829 40.706l-.04.201-3.4 7.049-.37.441-.53-.45-.02-.021-3.65-1.76h-.02l-.96-.21.13-.61 3.41-7.049.17-.201.84.69 3.64 1.761z"/><path fill="#A57939" d="M57.4691 47.9265l.02.02-.06.07-5.5 11.38c-.44.91-1.46 1.45-2.43 1.17-1.23-.37-1.8-1.72-1.26-2.83l5.54-11.48.02-.09h.02l3.65 1.76zm-2.85-11.42l1.93 1.59-.17.2-3.41 7.05-.13.61-2.52-.54c-1.53-.74-2.16-2.57-1.43-4.1l1.64-3.38c.73-1.53 2.57-2.17 4.09-1.43z"/><g><path fill="#6A462F" d="M37.2234 11.7771l.5588-.1182c0-2.7614-2.2386-5-5-5s-5 2.2386-5 5c0 .926.2516 1.2263.6905 1.9701l1.1746-.2486c-2.3704 1.1587-3.8224 2.7718-4.6282 4.4084-1.0558.6076-1.6146 1.8864-1.9294 3.1766-.2023.8296-.2426 1.3448-.1747 1.7267-1.383 1.4271-2.8912 3.4725-2.6534 5.4388.1133.9305.6738 2.2129 2.7041 3.037 1.042.4229 1.4883.7246 1.6729.8818-.1465.1475-.3936.3428-.5732.4844l-.1143.0908c-.4316.3438-.503.9727-.1592 1.4053.1973.248.4883.3769.7832.3769.2178 0 .4375-.0713.6221-.2177l.1093-.087c.6944-.5488 1.5577-1.2324 1.4053-2.2998-.1367-.9589-1.0039-1.6797-2.9941-2.4882-1.3654-.5538-1.4445-1.2085-1.4698-1.424-.1308-1.0787.9236-2.5735 2.0875-3.7914.6216.1447 1.368.1202 2.0051.1153 1.298-.0098 2.4836-.7118 3.1027-1.7689 1.5927-.7576 3.4738-1.8758 5.4493-3.5584 0 0 3.3915 4.9863 11.5584 5.9598 4.078.4862.8003-12.614-9.2275-13.0697z"/></g><g><path fill="#FCEA2B" d="M46.451 24.8469c-8.1669-.9734-11.5584-5.9598-11.5584-5.9598-3.4919 2.9742-6.7225 4.2277-8.5015 4.7346-.9025.2572-1.4315.3222-1.4315.3222l-.066-.4019c-.1754.1664-.3517.342-.5262.5234-.3464 1.4108-.5349 2.908-.5349 4.4606 0 .3002.0491.5972.1241.8914 1.813.7672 2.6245 1.4675 2.7553 2.3851.1524 1.0674-.7109 1.751-1.4053 2.2998l-.1093.087c-.1185.0939-.2527.1459-.3903.179 1.8529 5.2288 6.1561 8.6437 11.1744 8.6437 6.7096 0 12.1489-6.0991 12.1489-14.4861 0-1.4304-.1693-2.809-.465-4.1212-.2827.3368-.6857.5052-1.2143.4422z"/></g><g><path d="M28.4736 14.6289c-.3427 0-.6757-.1758-.8623-.4922l-.1367-.2295c-.3721-.6167-.6924-1.1494-.6924-2.2485 0-3.3086 2.6914-6 6-6s6 2.6914 6 6c0 .5522-.4472 1-1 1-.5527 0-1-.4478-1-1 0-2.2056-1.7939-4-4-4-2.206 0-4 1.7944-4 4 0 .5434.086.6865.4053 1.2173l.1465.2451c.2803.4756.1221 1.0889-.3535 1.3691-.1592.0943-.334.1387-.5069.1387zm13.5079 12.3294c0 1.1045-.8965 2-2 2s-2-.8955-2-2c0-1.1035.8965-2 2-2s2 .8965 2 2m-8 0c0 1.1045-.8965 2-2 2s-2-.8955-2-2c0-1.1035.8965-2 2-2s2 .8965 2 2m1.9999 10.0025c-1.1519 0-2.3037-.2862-3.4473-.858-.4941-.247-.6943-.8476-.4473-1.3418.2466-.4936.8462-.6943 1.3418-.4472 1.7178.8594 3.3877.8594 5.1055 0 .4946-.2471 1.0947-.0464 1.3418.4472.2471.4942.0469 1.0948-.4473 1.3418-1.1435.5718-2.2954.858-3.4472.858z"/><path d="M35.9814 43.4922c-3.7861 0-7.3076-2.0869-9.6621-5.7256-.2998-.4639-.167-1.083.2969-1.3828.4639-.2988 1.083-.167 1.3828.2969 1.9776 3.0576 4.8877 4.8115 7.9824 4.8115 5.7012 0 10.3389-5.9092 10.3389-13.1729 0-1.1469-.1162-2.2866-.3457-3.3877-.1133-.5405.2334-1.0703.7744-1.1831.5381-.1128 1.0703.2344 1.1826.7749.2579 1.2349.3887 2.5122.3887 3.7959 0 8.3662-5.5351 15.1729-12.3389 15.1729zM17.0449 58.8105c-.4844 0-.9101-.3525-.9863-.8466-.041-.2696-.9727-6.6328 2.581-10.7754 1.8799-2.1905 4.625-3.3252 8.1622-3.375.375-.1026.7724.0215 1.0214.3135 3.0489 2.0156 5.502 3.2626 8.1612 3.2763 2.7226-.0137 5.2295-1.3213 8.3828-3.4238.3887-.2588.9053-.2139 1.2441.1074.3379.3223.4092.836.169 1.2373-1.6524 2.7705-7.2334 11.8653-9.6407 12.5625-1.9521.5537-5.2001-3.4931-9.6611-12.0644-2.7627.1064-4.8857 1-6.3144 2.6611-2.9561 3.4365-2.1377 9.1201-2.1289 9.1777.083.545-.292 1.0547-.8379 1.1387-.0508.0078-.1016.0107-.1524.0107zM29.7393 47.623c2.3623 4.1709 4.9013 7.9219 5.9248 8.3086.9912-.4873 3.6464-4.1113 6.2314-8.1347-1.9502.998-3.7969 1.5771-5.8027 1.6054-.0215.001-.043.002-.0645.001h-.0664c-.0156-.001-.0283-.001-.042 0-.0146 0-.0293 0-.0439-.001-2.1211-.0293-4.0625-.6748-6.1367-1.7793z"/><path fill="none" stroke="#000" stroke-linecap="round" stroke-linejoin="round" stroke-miterlimit="10" stroke-width="2" d="M57.4291 48.0165l-5.5 11.38c-.44.91-1.46 1.45-2.43 1.17-1.23-.37-1.8-1.72-1.26-2.83l5.54-11.48"/><path fill="none" stroke="#000" stroke-linecap="round" stroke-linejoin="round" stroke-miterlimit="10" stroke-width="2" d="M56.5491 38.0965l-1.93-1.59c-1.52-.74-3.36-.1-4.09 1.43l-1.64 3.38c-.73 1.53-.1 3.36 1.43 4.1l2.52.54.96.21h.02l3.65 1.76.02.02.53.45 2.05 1.73c1.52.73 3.36.09 4.1-1.43l1.63-3.39c.74-1.52.1-3.36-1.43-4.09l-2.54-.51-.8-.16-3.64-1.76-.84-.69zm5.2399 2.8105l-3.4 7.049m-5.42-2.61l3.41-7.049"/><path d="M32.1602 54.4463c-.2081 0-.417-.0645-.5967-.1983-.4434-.33-.5342-.957-.2041-1.3994l3.7607-5.0429c.1924-.2559.5117-.3916.8135-.4024.3203.0039.6191.1602.8037.4209l3.3779 4.7598c.3194.4512.2139 1.0752-.2363 1.3945-.4512.3203-1.0742.2129-1.3945-.2363l-2.583-3.6397-2.9385 3.9414c-.1963.2637-.4981.4024-.8027.4024zm14.5009-28.5869a2.7842 2.7842 0 0 1-.3281-.0196c-6.5312-.7783-10.1699-3.9887-11.5801-5.5444-3.3906 2.6802-6.4824 3.8306-8.0879 4.2881-.9502.2705-1.5214.3452-1.583.353-.5556.065-1.0478-.3227-1.1142-.8706-.0674-.5473.3203-1.0454.8672-1.1142.0048-.0005.4804-.0635 1.2812-.2915 1.5742-.4488 4.7217-1.6333 8.1279-4.5342.2149-.1841.4942-.2691.7823-.23.2812.0381.5332.1938.6933.4287.0293.043 3.2783 4.627 10.8496 5.5288.2471.0293.3057-.039.3741-.1465.4658-.7343.2402-3.2309-1.3848-5.8242-1.0908-1.7422-4.2813-5.7139-10.1914-5.0454-8.3018.9453-9.8164 5.8052-10.082 7.272-.0987.5439-.6192.9052-1.1631.8052-.543-.0987-.9043-.6192-.8057-1.1626.3291-1.8096 2.1533-7.8003 11.8242-8.9019 7.0391-.8037 10.8203 3.9077 12.1133 5.9707 1.8496 2.9526 2.4297 6.2993 1.3789 7.957-.4424.6983-1.1494 1.0816-1.9717 1.0816z"/><path d="M25.1064 35.1719c-.1376 0-.2744-.0108-.4101-.0332-.544-.0908-.9121-.6065-.8213-1.1514.0918-.5439.6055-.917 1.1514-.8213.4131.0762 1.1338-.4502 1.3086-1.1435.167-.6582-.2471-1.1621-1.2305-1.4991-1.8125-.622-2.8057-1.561-2.9512-2.792-.2676-2.2695 2.6348-4.2353 3.2188-4.6064l.4336-.3149c.4482-.3223 1.0752-.2212 1.3964.227.3223.4478.2208 1.0728-.2265 1.396l-.4824.3477c-1.0713.685-2.4414 1.9814-2.3536 2.7168.0459.3789.6485.8027 1.6133 1.1337 2.377.815 2.8604 2.5396 2.5205 3.8824-.3857 1.5254-1.7783 2.6582-3.167 2.6582z"/></g></svg>