<svg xmlns="http://www.w3.org/2000/svg" role="img" viewBox="14.68 10.55 42.02 49.14"><title>1F468-1F3FD-200D-1F680.svg</title><g id="color"><path fill="#9b9b9a" d="M50.9022,27.5212c0,1.2253-0.1469,2.4164-0.4241,3.5564c-1.5969,6.5676-7.5169,11.4436-14.5759,11.4436 c-7.0588,0-12.9787-4.8758-14.5758-11.4431c-0.2772-1.1402-0.4242-2.3314-0.4242-3.5569c0-8.2843,6.7157-15,15-15 S50.9022,19.2369,50.9022,27.5212z"/><path fill="#d0cfce" d="M31.9312 12.9274c0 0-6.5188 2.2396-9.1842 7.3842-1.1602 2.1133-3.0061 3.5059-1.4206 10.7665 1.5855 7.2605 10.5604 11.0474 10.5604 11.0474 5.4844-1.2857 9.8095-5.5807 11.1387-11.0479.2773-1.1401.424-2.3311.424-3.5564C43.4495 20.4355 38.5367 14.4973 31.9312 12.9274zM16.7643 58.7383c0 0-2-13.5 10-13.5 3.1919 2.1279 5.9264 3.5984 9 3.5922h-.125c3.0736.0062 5.5082-2.1643 8.7-4.2922 15.5705 0 10.7 14.2 10.7 14.2"/><path fill="#9b9b9a" d="M28.45 52.893H44.010999999999996V58.717H28.45z"/><path fill="#9b9b9a" d="M44.7452,45.6655c-3.1699,2.1132-4.875,3-8.9375,3.5885c13.0625,0.4115,13.0625,5.4115,13.8246,9.4115 c4.2379,0,5.1129,0,5.1129,0S56.7452,45.6655,44.7452,45.6655z"/></g><g id="skin"><path fill="#c19a65" stroke="#c19a65" d="M47.1168,26.5485c-0.365-2.5625-13.943-8.544-22.2102-0.8061c0,0-0.3152,1.9842-0.3152,3.1318 c0,7.8276,5.0766,14.1732,11.3388,14.1732c6.262,0,11.3384-6.3456,11.3384-14.1732C47.2686,28.082,47.4817,29.111,47.1168,26.5485z"/></g><g id="line"><path d="M34.7953 58.7082c.0426-.1623.0653-.3327.0653-.5083 0-1.1035-.8965-2-2-2h.0068c-1.1035 0-2 .8965-2 2 0 .1756.0227.346.0653.5083M41.4973 58.7082c.0426-.1623.0653-.3327.0653-.5083 0-1.1035-.8965-2-2-2h.0068c-1.1035 0-2 .8965-2 2 0 .1756.0227.346.0653.5083"/><path fill="none" stroke="#000" stroke-linecap="round" stroke-linejoin="round" stroke-miterlimit="10" stroke-width="2" d="M16.8702 57.8071c0 0-2-13 10-13 3.1918 2.1279 5.9264 3.5984 9 3.5921h-.125c3.0736.0063 5.8081-1.4642 9-3.5921 12 0 10 13 10 13M47.7916 28.0765c-.2095-.3905-.4467-.7659-.7094-1.1234-1.1918-1.6212-2.9103-2.8724-4.9635-3.4745-2.1203-.6217-4.1294-.903-6.2164-.8438-2.0871-.0592-4.0963.2221-6.2165.8438-2.5057.7348-4.513 2.4362-5.6725 4.5972M53.864 25.456L53.864 30.227M17.751 25.456L17.751 30.227"/><path fill="none" stroke="#000" stroke-linecap="round" stroke-linejoin="round" stroke-miterlimit="10" stroke-width="2" d="M43.831 57.785L43.831 52.977 28.57 52.977 28.57 57.785"/><path d="M41.9302 26.9543c0 1.1045-.8965 2-2 2-1.1035 0-2-.8955-2-2 0-1.1035.8965-2 2-2C41.0337 24.9543 41.9302 25.8508 41.9302 26.9543M33.9302 26.9543c0 1.1045-.8965 2-2 2-1.1035 0-2-.8955-2-2 0-1.1035.8965-2 2-2C33.0337 24.9543 33.9302 25.8508 33.9302 26.9543M35.9301 36.9567c-1.1519 0-2.3037-.2861-3.4473-.8579-.4941-.2471-.6943-.8476-.4472-1.3418.2465-.4936.8462-.6943 1.3418-.4473 1.7177.8594 3.3877.8594 5.1054 0 .4947-.247 1.0948-.0463 1.3418.4473.2471.4942.0469 1.0947-.4472 1.3418C38.2338 36.6706 37.082 36.9567 35.9301 36.9567z"/><path fill="none" stroke="#000" stroke-miterlimit="10" stroke-width="2" d="M46.2349 34.2361c.6636-1.8017 1.0338-3.8073 1.0338-5.921 0-.3873-.0125-.771-.0368-1.1505M24.6342 27.0769c-.0283.408-.0427.821-.0427 1.2382 0 7.8277 5.0765 14.1732 11.3386 14.1732"/><path fill="none" stroke="#000" stroke-linecap="round" stroke-miterlimit="10" stroke-width="2" d="M36.5562,39.343 c0,0,7.0406-0.0053,9.5918-5.1389"/><path fill="none" stroke="#000" stroke-linecap="round" stroke-linejoin="round" stroke-miterlimit="10" stroke-width="2" d="M50.9022,27.5212c0,1.2253-0.1469,2.4164-0.4241,3.5564c-1.5969,6.5676-7.5169,11.4436-14.5759,11.4436 c-7.0588,0-12.9787-4.8758-14.5758-11.4431c-0.2772-1.1402-0.4242-2.3314-0.4242-3.5569c0-8.2843,6.7157-15,15-15 S50.9022,19.2369,50.9022,27.5212z"/></g></svg>