<svg xmlns="http://www.w3.org/2000/svg" role="img" viewBox="8.96 11.71 53.95 50.20"><title>1F468-200D-1F468-200D-1F466-200D-1F466.svg</title><g id="color"><path fill="#92D3F5" d="M11.0003,61V44.9552c0-3.2895,3.2918-5.9566,6.5836-5.9566c3.9146,3.2895,7.8292,3.2895,11.8327,0h13.1673 c3.9146,3.2895,7.8292,3.2895,11.8327,0c3.2918,0,6.5836,2.6671,6.5836,5.9566V61"/><path fill="#B1CC33" d="M17 61v-2.5333C17 56 19.5018 54 22.0036 54c2.9751 2.4667 5.9502 2.4667 8.9929 0C33.4982 54 36 56 36 58.4667V61M36.0003 61v-2.5333C36.0003 56 38.5021 54 41.0039 54c2.9751 2.4667 5.9502 2.4667 8.9929 0 2.5018 0 5.0036 2 5.0036 4.4667V61"/></g><g id="hair" fill="#A57939"><path d="M13.9286 21.3903c.5334-7.7347 6.4011-7.8236 9.335-7.3791.2667.0889 1.0669 0 1.3336 0 5.3343-.7112 8.0014 5.3343 8.0014 8.0014 0 .978.2255 3.3655-1.1081 4.6991 0 0-3.2483-3.7211-3.4261-5.8549 0 0-10.1352 3.8229-10.8464.5334 0 0-.7112 2.6671-1.3336 3.3784 0 0-.3288 2.0448-.3288 2.6671C15.5558 27.4359 13.6619 24.7687 13.9286 21.3903zM24.1355 42.2716c.4694 3.3631 4.487-.8706 4.487-.8706.5491 1.5737 4.4254 3.8674 4.4254 3.8674 1.0324-.9557.5259-2.8525.3721-3.5136-.5106-2.7127-3.0794-4.5325-5.8079-4.1144-.3436.0276-.6888.0276-1.0324 0-2.2709-.3369-6.03-.1483-7.12 4.6433-.5317 2.3382.624 2.9844.624 2.9844S23.8477 40.2093 24.1355 42.2716zM51.9888 45.2681c0 0 1.1557-.6462.624-2.9844-1.09-4.7916-4.8491-4.9802-7.12-4.6433-.3436.0276-.6888.0276-1.0324 0-2.7285-.4181-5.2973 1.4017-5.8079 4.1144-.1538.6611-.6603 2.5579.3721 3.5136 0 0 3.8763-2.2937 4.4254-3.8674 0 0 4.0176 4.2337 4.487.8706C48.2248 40.2093 51.9888 45.2681 51.9888 45.2681zM56.4444 27.4357c0-.6223-.3288-2.6671-.3288-2.6671-.6224-.7113-1.3336-3.3784-1.3336-3.3784-.7112 3.2895-10.8464-.5334-10.8464-.5334-.1778 2.1338-3.4261 5.8549-3.4261 5.8549-1.3336-1.3336-1.1081-3.7211-1.1081-4.6991 0-2.6671 2.6671-8.7126 8.0014-8.0014.2667 0 1.0669.0889 1.3336 0 2.9339-.4445 8.8016-.3556 9.335 7.3791C58.3381 24.7687 56.4442 27.4359 56.4444 27.4357z"/></g><g id="skin" fill="#FCEA2B"><path d="M28.0454 20.8569c0 0-10.1351 3.8229-10.8464.5334 0 0-.7112 2.6672-1.3336 3.3784 0 0-.3185 1.9835-.3273 2.635.4585 5.148 3.8411 9.1996 7.9427 9.1996 4.2864 0 7.782-4.426 7.9809-9.9028C31.3572 26.5801 28.2203 22.9551 28.0454 20.8569zM28.6225 41.401c0 0-4.0176 4.2337-4.487.8706-.2576-1.8462-3.2933 2.0046-3.9283 2.834-.0739.3356-.1232.5668-.1232.5888-.1437 3.7311 2.7579 6.8753 6.4885 7.031 3.7306-.1557 6.6323-3.2999 6.4886-7.031 0-.0303-.0594-.2263-.15-.5089C32.2324 44.7706 29.1115 42.8025 28.6225 41.401zM39.1618 45.1855c-.0906.2826-.15.4786-.15.5089-.1437 3.7311 2.758 6.8753 6.4886 7.031 3.7306-.1557 6.6322-3.2999 6.4885-7.031 0-.022-.0493-.2532-.1232-.5888-.635-.8294-3.6707-4.6802-3.9283-2.834-.4694 3.3631-4.487-.8706-4.487-.8706C42.9614 42.8025 39.8405 44.7706 39.1618 45.1855zM40.5382 26.7005c.1989 5.4768 3.6945 9.9028 7.9809 9.9028 4.1016 0 7.4842-4.0516 7.9427-9.1996-.0088-.6515-.3273-2.635-.3273-2.635-.6224-.7112-1.3336-3.3784-1.3336-3.3784-.7113 3.2895-10.8464-.5334-10.8464-.5334C43.7796 22.9551 40.6427 26.5801 40.5382 26.7005z"/></g><g id="line"><path fill="none" stroke="#000" stroke-miterlimit="10" stroke-width="2" d="M31.5,25.5689c0,0.1839,0,0.3678,0,0.6437 c0,5.7012-3.5862,10.3908-8,10.3908s-8-4.6897-8-10.3908c0-0.1839,0-0.3678,0-0.6437"/><path fill="none" stroke="#000" stroke-linecap="round" stroke-linejoin="round" stroke-width="2" d="M13.9286 21.3903c.5334-7.7347 6.4011-7.8236 9.335-7.3791.2667.0889 1.0669 0 1.3336 0 5.3343-.7112 8.0014 5.3343 8.0014 8.0014 0 .978.2255 3.3655-1.1081 4.6991 0 0-3.2483-3.7211-3.4261-5.8549 0 0-10.1352 3.8229-10.8464.5334 0 0-.7112 2.6671-1.3336 3.3784 0 0-.3288 2.0448-.3288 2.6671C15.5558 27.4359 13.6619 24.7687 13.9286 21.3903zM11.0003 60V44.9552c0-3.2895 3.2918-5.9566 6.5836-5.9566.541.4546 1.082.8464 1.6232 1.1754M52.6455 40.2424c.5886-.3426 1.1789-.7573 1.7711-1.2439 3.2918 0 6.5836 2.6671 6.5836 5.9566V60"/><path d="M22.25 26.5c0 .7143-.5357 1.25-1.25 1.25s-1.25-.5357-1.25-1.25.5357-1.25 1.25-1.25S22.25 25.7857 22.25 26.5M27.25 26.5c0 .7143-.5357 1.25-1.25 1.25s-1.25-.5357-1.25-1.25.5357-1.25 1.25-1.25S27.25 25.7857 27.25 26.5"/><path fill="none" stroke="#000" stroke-linecap="round" stroke-linejoin="round" stroke-width="2" d="M21.633,31.5332 c1.1558,0.6223,2.5782,0.6223,3.734,0"/><path fill="none" stroke="#000" stroke-linecap="round" stroke-linejoin="round" stroke-width="1.6" d="M44.1639 49.1857c.7749.6425 1.8974.6425 2.6723 0M17 60.2v-1.7333C17 56 19.5018 54 22.0036 54c2.9751 2.4667 5.9502 2.4667 8.9929 0C33.4982 54 36 56 36 58.4667V60.2M36.0003 60.2v-1.7333C36.0003 56 38.5021 54 41.0039 54c2.9751 2.4667 5.9502 2.4667 8.9929 0 2.5018 0 5.0036 2 5.0036 4.4667V60.2"/><path d="M29.298,45.7015c0.0333,0.4958-0.3417,0.9247-0.8377,0.958c-0.4959,0.0333-0.9249-0.3417-0.9582-0.8375 s0.3417-0.9247,0.8377-0.958c0.0201-0.0014,0.0402-0.002,0.0604-0.002C28.8798,44.8465,29.2815,45.2221,29.298,45.7015z"/><path fill="none" stroke="#000" stroke-linecap="round" stroke-linejoin="round" stroke-width="1.6" d="M25.1639,49.1857 c0.7749,0.6425,1.8974,0.6425,2.6723,0"/><path d="M24.5998 44.862c.0201 0 .0403.0007.0604.002.4959.0333.871.4622.8377.958s-.4623.8707-.9582.8375c-.4959-.0333-.871-.4622-.8377-.958C23.7185 45.2221 24.1202 44.8465 24.5998 44.862zM48.2984 45.7015c.0333.4958-.3417.9247-.8377.958-.4959.0333-.9249-.3417-.9582-.8375s.3417-.9247.8377-.958c.0201-.0014.0402-.002.0604-.002C47.8801 44.8465 48.2818 45.2221 48.2984 45.7015zM43.6002 44.862c.0201 0 .0403.0007.0604.002.4959.0333.871.4622.8377.958s-.4623.8707-.9582.8375c-.4959-.0333-.871-.4622-.8377-.958C42.7188 45.2221 43.1205 44.8465 43.6002 44.862z"/><path fill="none" stroke="#000" stroke-miterlimit="10" stroke-width="1.6" d="M33.0493,45.2683 c0.0078,0.141,0.0117,0.283,0.0118,0.4261c0.1437,3.7311-2.758,6.8753-6.4886,7.031c-3.7306-0.1557-6.6322-3.2999-6.4885-7.031 c0-0.0952,0.0017-0.1899,0.0052-0.2841"/><path fill="none" stroke="#000" stroke-linecap="round" stroke-linejoin="round" stroke-width="1.6" d="M24.1355,42.2716 c0.4694,3.3631,4.487-0.8706,4.487-0.8706c0.5491,1.5737,4.4254,3.8674,4.4254,3.8674c1.0324-0.9557,0.5259-2.8525,0.3721-3.5136 c-0.5106-2.7127-3.0794-4.5325-5.8079-4.1144c-0.3436,0.0276-0.6888,0.0276-1.0324,0c-2.2709-0.3369-6.03-0.1483-7.12,4.6433 c-0.5317,2.3382,0.624,2.9844,0.624,2.9844S23.8477,40.2093,24.1355,42.2716z"/><path fill="none" stroke="#000" stroke-miterlimit="10" stroke-width="1.6" d="M51.9833,45.4103 c0.0035,0.0942,0.0052,0.1889,0.0052,0.2841c0.1437,3.7311-2.7579,6.8753-6.4885,7.031c-3.7306-0.1557-6.6323-3.2999-6.4886-7.031 c0.0001-0.1431,0.004-0.2851,0.0118-0.4261"/><path fill="none" stroke="#000" stroke-linecap="round" stroke-linejoin="round" stroke-width="1.6" d="M51.9888,45.2681 c0,0,1.1557-0.6462,0.624-2.9844c-1.09-4.7916-4.8491-4.9802-7.12-4.6433c-0.3436,0.0276-0.6888,0.0276-1.0324,0 c-2.7285-0.4181-5.2973,1.4017-5.8079,4.1144c-0.1538,0.6611-0.6603,2.5579,0.3721,3.5136c0,0,3.8763-2.2937,4.4254-3.8674 c0,0,4.0176,4.2337,4.487,0.8706C48.2248,40.2093,51.9888,45.2681,51.9888,45.2681z"/><path fill="none" stroke="#000" stroke-linecap="round" stroke-linejoin="round" stroke-width="2" d="M46.633,31.5332 c1.1558,0.6223,2.5782,0.6223,3.734,0"/><path fill="none" stroke="#000" stroke-miterlimit="10" stroke-width="2" d="M56.5,25.5689c0,0.2759,0,0.4598,0,0.6437 c0,5.7011-3.5862,10.3908-8,10.3908s-8-4.6896-8-10.3908c0-0.2759,0-0.4598,0-0.6437"/><path fill="none" stroke="#000" stroke-linecap="round" stroke-linejoin="round" stroke-width="2" d="M56.4444,27.4357 c0-0.6223-0.3288-2.6671-0.3288-2.6671c-0.6224-0.7113-1.3336-3.3784-1.3336-3.3784c-0.7112,3.2895-10.8464-0.5334-10.8464-0.5334 c-0.1778,2.1338-3.4261,5.8549-3.4261,5.8549c-1.3336-1.3336-1.1081-3.7211-1.1081-4.6991c0-2.6671,2.6671-8.7126,8.0014-8.0014 c0.2667,0,1.0669,0.0889,1.3336,0c2.9339-0.4445,8.8016-0.3556,9.335,7.3791C58.3381,24.7687,56.4442,27.4359,56.4444,27.4357z"/><path d="M49.75 26.5c0-.7143.5357-1.25 1.25-1.25s1.25.5357 1.25 1.25-.5357 1.25-1.25 1.25S49.75 27.2143 49.75 26.5M44.75 26.5c0-.7143.5357-1.25 1.25-1.25s1.25.5357 1.25 1.25-.5357 1.25-1.25 1.25S44.75 27.2143 44.75 26.5"/></g></svg>