<svg xmlns="http://www.w3.org/2000/svg" role="img" viewBox="8.70 11.20 54.47 50.72"><title>1F469-200D-1F469-200D-1F467.svg</title><path fill="#92D3F5" d="M11.0003 61V44.9552c0-3.2895 3.2918-5.9566 6.5836-5.9566 3.9146 3.2895 7.8292 3.2895 11.8327 0h13.1673c3.9146 3.2895 7.8292 3.2895 11.8327 0 3.2918 0 6.5836 2.6671 6.5836 5.9566V61"/><path fill="#B1CC33" d="M26.5004 61v-2.5333C26.5004 56 29.0022 54 31.504 54c2.9751 2.4667 5.9502 2.4667 8.9929 0 2.5017 0 5.0035 2 5.0035 4.4667V61"/><g fill="#A57939"><path d="M36.0004 40.7038c3.864 1.3703 5.567 5.8271 5.6943 9.6307 1.4225.308 2.8826-.3898 3.8057-1.461a7.1981 7.1981 0 0 1-2.1494-3.1356c.7369-5.7252-2.03-9.5793-7.3506-8.4862-5.3206-1.0931-8.0875 2.761-7.3506 8.4862a7.1981 7.1981 0 0 1-2.1494 3.1356c.923 1.0712 2.3833 1.769 3.8057 1.461.1273-3.8034 1.8302-8.2605 5.6943-9.6307z"/><path d="M36 38.9986h6.5839c3.9146 3.2895 7.8292 3.2895 11.8327 0 1.2701 0 2.538.4002 3.619 1.0768l.3439-.1638 1.7012-2.0374c1.956-2.2226 1.5774-5.9042.4216-8.6602-1.6003-3.734-2.0448-3.734-2.3115-8.5349-.0889-2.7561-2.2226-5.0676-4.9787-5.3343 0 0-1.6892-2.0448-5.3343-2.0448-4.2675 0-8.1792 2.3115-9.1572 5.9566-1.0668 3.734-.2999 7.7047-3.6364 9.8337-.9335 2.4005-.1839 1.9957-.1631 4.8811.0068.9417 1.0789 5.0272 1.0789 5.0272z"/><path d="M36.1598 33.9714c.0208-2.8854-1.0579-4.224-1.9914-6.6245-1.0669-2.845.1778-4.3563-.889-8.0903-.978-3.6451-4.8897-5.9566-9.1572-5.9566-3.6451 0-5.3343 2.0448-5.3343 2.0448-2.7561.2667-4.8898 2.5782-4.9787 5.3343-.2667 4.8009-.7112 4.8009-2.3115 8.5349-1.1558 2.756-1.5344 6.4376.4216 8.6602l1.7012 2.0374.3439.1638c1.081-.6766 2.3489-1.0768 3.619-1.0768 4.0035 3.2895 7.9181 3.2895 11.8327 0H36s.153-4.0855.1598-5.0272z"/></g><path d="M41.1209 26.8135c0 5.3343 3.3784 9.335 7.3791 9.335s7.3791-4.0007 7.3791-9.335c0-3.3784-1.3336-5.3343-4.0007-8.0014-2.6671 2.6671-10.6686 6.0455-10.6686 7.3791l-.0889.6223zm.3829 21.7035c-.0138-.0543-.0171-.1106-.0324-.1646-.5499-3.1755-2.2374-6.5396-5.471-7.6487-3.2336 1.1091-4.9211 4.4731-5.471 7.6487-.0153.054-.0186.1102-.0324.1646.8397 2.7543 2.9947 4.3117 5.5034 4.3118 2.5087-.0001 4.6638-1.5575 5.5034-4.3118zM30.8927 26.8135l-.0889-.6223c0-1.3336-8.0015-4.712-10.6686-7.3791-2.6671 2.6671-4.0007 4.623-4.0007 8.0014 0 5.3343 3.3784 9.335 7.3791 9.335s7.3791-4.0007 7.3791-9.335z" fill="#FCEA2B"/><g><path fill="none" stroke="#000" stroke-linecap="round" stroke-linejoin="round" stroke-miterlimit="10" stroke-width="2" d="M46.2565 41.1188c2.6973.8481 5.4076.1413 8.1601-2.1202 3.2918 0 6.5836 2.6671 6.5836 5.9566V60m-49.9999 0V44.9552c0-3.2895 3.2918-5.9566 6.5836-5.9566 2.6822 2.2539 5.3643 2.9634 8.0751 2.1288"/><path fill="none" stroke="#000" stroke-linecap="round" stroke-linejoin="round" stroke-width="1.6" d="M26.5003 60.2v-1.7333C26.5003 56 29.0021 54 31.5039 54c2.9751 2.4667 5.9502 2.4667 8.9929 0 2.5017 0 5.0035 2 5.0035 4.4667V60.2"/><path d="M38.5982 45.7015c.0333.4958-.3417.9247-.8377.958-.4959.0333-.9249-.3417-.9582-.8375s.3417-.9247.8377-.958a.86825.86825 0 0 1 .0604-.002c.4796-.0155.8813.3601.8978.8395z"/><path fill="none" stroke="#000" stroke-linecap="round" stroke-linejoin="round" stroke-width="1.6" d="M34.6642 49.1857c.7749.6425 1.8974.6425 2.6723 0"/><path fill="none" stroke="#000" stroke-miterlimit="10" stroke-width="1.6" d="M41.5441 48.407c-.8139 2.8267-3.0002 4.4219-5.5441 4.4219h.0006c-2.5439 0-4.7302-1.5952-5.5441-4.4219"/><path d="M34.3002 44.862a.9372.9372 0 0 1 .0604.002c.4959.0333.871.4622.8377.958s-.4623.8707-.9582.8375c-.4959-.0333-.871-.4622-.8377-.958.0165-.4794.4182-.855.8978-.8395z"/><path fill="none" stroke="#000" stroke-linecap="round" stroke-linejoin="round" stroke-width="1.6" d="M36.0003 40.7038c3.864 1.3703 5.567 5.8271 5.6943 9.6307 1.4225.308 2.8826-.3898 3.8057-1.461a7.1981 7.1981 0 0 1-2.1494-3.1356c.7369-5.7252-2.03-9.5793-7.3506-8.4862-5.3206-1.0931-8.0875 2.761-7.3506 8.4862a7.1981 7.1981 0 0 1-2.1494 3.1356c.923 1.0712 2.3833 1.769 3.8057 1.461.1273-3.8034 1.8302-8.2605 5.6943-9.6307z"/><path fill="none" stroke="#000" stroke-linecap="round" stroke-linejoin="round" stroke-width="2" d="M35.0842 29.0903c3.4065-2.3411 2.5696-6.0996 3.6364-9.8336.978-3.6451 4.8898-5.9566 9.1572-5.9566 3.6451 0 5.3343 2.0448 5.3343 2.0448 2.7561.2667 4.8898 2.5782 4.9787 5.3343.2667 4.8009.7112 4.8009 2.3115 8.5349 1.0621 2.5328.7728 5.3659-.7991 7.5333"/><path fill="none" stroke="#000" stroke-linejoin="round" stroke-miterlimit="10" stroke-width="2" d="M41.1209 26.8135c0 5.3343 3.3784 9.335 7.3791 9.335s7.3791-4.0007 7.3791-9.335c0-3.3784-1.3336-5.3343-4.0007-8.0014-2.6671 2.6671-10.6686 6.0455-10.6686 7.3791l-.0889.6223h0z"/><path d="M47.25 26.5c0 .7143-.5357 1.25-1.25 1.25s-1.25-.5357-1.25-1.25.5357-1.25 1.25-1.25 1.25.5357 1.25 1.25m5 0c0 .7143-.5357 1.25-1.25 1.25s-1.25-.5357-1.25-1.25.5357-1.25 1.25-1.25 1.25.5357 1.25 1.25"/><path fill="none" stroke="#000" stroke-linecap="round" stroke-linejoin="round" stroke-width="2" d="M46.633 31.5332c1.1558.6223 2.5782.6223 3.734 0m-38.0702 5.2142c-1.5719-2.1674-1.8612-5.0005-.7991-7.5333 1.6003-3.734 2.0448-3.734 2.3115-8.5349.0889-2.7561 2.2226-5.0676 4.9787-5.3343 0 0 1.6892-2.0448 5.3343-2.0448 4.2674 0 8.1792 2.3115 9.1572 5.9566 1.0668 3.734-.1779 5.2453.889 8.0903.8191 2.1061 2.0231 4.0582 1.9908 6.287"/><path fill="none" stroke="#000" stroke-linejoin="round" stroke-miterlimit="10" stroke-width="2" d="M30.8791 26.8135l-.0889-.6223c0-1.3336-8.0015-4.712-10.6686-7.3791-2.6671 2.6671-4.0007 4.623-4.0007 8.0014 0 5.3343 3.3784 9.335 7.3791 9.335s7.3791-4.0007 7.3791-9.335h0z"/><path d="M24.75 26.5c0-.7143.5357-1.25 1.25-1.25s1.25.5357 1.25 1.25-.5357 1.25-1.25 1.25-1.25-.5357-1.25-1.25m-5 0c0-.7143.5357-1.25 1.25-1.25s1.25.5357 1.25 1.25-.5357 1.25-1.25 1.25-1.25-.5357-1.25-1.25"/><path fill="none" stroke="#000" stroke-linecap="round" stroke-linejoin="round" stroke-width="2" d="M21.633 31.5332c1.1558.6223 2.5782.6223 3.734 0"/></g></svg>