<svg xmlns="http://www.w3.org/2000/svg" role="img" viewBox="8.71 11.21 54.08 50.70"><title>1F469-200D-1F467-200D-1F466.svg</title><path fill="#92D3F5" d="M36.0004 38.9986h-6.5838c-4.0035 3.2895-7.9182 3.2895-11.8327 0-3.2918 0-6.5836 2.6671-6.5836 5.9566V61h25.0001V38.9986z"/><path fill="#B1CC33" d="M23 61v-2.5333C23 56 25.5018 54 28.0036 54c2.9751 2.4667 5.9502 2.4667 8.9929 0C39.4982 54 42 56 42 58.4667V61m.0003 0v-2.5333C42.0003 56 44.5021 54 47.0039 54c2.9751 2.4667 5.9502 2.4667 8.9929 0 2.5018 0 5.0036 2 5.0036 4.4667V61"/><g fill="#A57939"><path d="M51.5003 40.7038c3.864 1.3703 5.567 5.8271 5.6943 9.6307 1.4225.308 2.8826-.3898 3.8057-1.461a7.1981 7.1981 0 0 1-2.1494-3.1356c.7369-5.7252-2.03-9.5793-7.3506-8.4862-5.3206-1.0931-8.0875 2.761-7.3506 8.4862a7.1981 7.1981 0 0 1-2.1494 3.1356c.923 1.0712 2.3833 1.769 3.8057 1.461.1273-3.8034 1.8302-8.2605 5.6943-9.6307zm-21.3648 1.5678c.4694 3.3631 4.487-.8706 4.487-.8706.5491 1.5737 4.4254 3.8674 4.4254 3.8674 1.0324-.9557.5259-2.8525.3721-3.5136-.5106-2.7127-3.0794-4.5325-5.8079-4.1144a6.44664 6.44664 0 0 1-1.0324 0c-2.2709-.3369-6.03-.1483-7.12 4.6433-.5317 2.3382.624 2.9844.624 2.9844s3.764-5.0588 4.0518-2.9965z"/><path d="M37.1204 33.6878c.0208-2.8854-2.0185-3.9404-2.952-6.3409-1.0669-2.845.1778-4.3563-.889-8.0903-.978-3.6451-4.8897-5.9566-9.1572-5.9566-3.6451 0-5.3343 2.0448-5.3343 2.0448-2.7561.2667-4.8898 2.5782-4.9787 5.3343-.2667 4.8009-.7112 4.8009-2.3115 8.5349-1.1558 2.756-1.5344 6.4376.4216 8.6602l1.7012 2.0374.3439.1638c1.081-.6766 2.3489-1.0768 3.619-1.0768 4.0035 3.2895 7.9181 3.2895 11.8327 0H36s1.1205-2.6547 1.1204-5.3108z"/></g><path d="M34.6225 41.401s-4.0176 4.2337-4.487.8706c-.2576-1.8462-3.2933 2.0046-3.9283 2.834-.0739.3356-.1232.5668-.1232.5888-.1437 3.7311 2.7579 6.8753 6.4885 7.031 3.7306-.1557 6.6323-3.2999 6.4886-7.031 0-.0303-.0594-.2263-.15-.5089-.6787-.4149-3.7996-2.383-4.2886-3.7845zm22.3809 7.116c-.0138-.0543-.0171-.1106-.0324-.1646-.5499-3.1755-2.2374-6.5396-5.471-7.6487-3.2336 1.1091-4.9211 4.4731-5.471 7.6487-.0153.054-.0186.1102-.0324.1646.8397 2.7543 2.9947 4.3117 5.5034 4.3118 2.5087-.0001 4.6638-1.5575 5.5034-4.3118zM30.8927 26.8135l-.0889-.6223c0-1.3336-8.0015-4.712-10.6686-7.3791-2.6671 2.6671-4.0007 4.623-4.0007 8.0014 0 5.3343 3.3784 9.335 7.3791 9.335s7.3791-4.0007 7.3791-9.335z" fill="#FCEA2B"/><g><path d="M54.0979 45.7015c.0333.4958-.3417.9247-.8377.958-.4959.0333-.9249-.3417-.9582-.8375s.3417-.9247.8377-.958a.86825.86825 0 0 1 .0604-.002c.4796-.0155.8813.3601.8978.8395z"/><path fill="none" stroke="#000" stroke-linecap="round" stroke-linejoin="round" stroke-width="1.6" d="M50.1639 49.1857c.7749.6425 1.8974.6425 2.6723 0"/><path fill="none" stroke="#000" stroke-miterlimit="10" stroke-width="1.6" d="M57.0438 48.407c-.8139 2.8267-3.0002 4.4219-5.5441 4.4219h.0006c-2.5439 0-4.7302-1.5952-5.5441-4.4219"/><path d="M49.7999 44.862a.9372.9372 0 0 1 .0604.002c.4959.0333.871.4622.8377.958s-.4623.8707-.9582.8375c-.4959-.0333-.871-.4622-.8377-.958.0165-.4794.4182-.855.8978-.8395z"/><path fill="none" stroke="#000" stroke-linecap="round" stroke-linejoin="round" stroke-width="1.6" d="M23 60.2v-1.7333C23 56 25.5018 54 28.0036 54c2.9751 2.4667 5.9502 2.4667 8.9929 0C39.4982 54 42 56 42 58.4667V60.2m.0003 0v-1.7333C42.0003 56 44.5021 54 47.0039 54c2.9751 2.4667 5.9502 2.4667 8.9929 0 2.5018 0 5.0036 2 5.0036 4.4667V60.2"/><path d="M35.298 45.7015c.0333.4958-.3417.9247-.8377.958-.4959.0333-.9249-.3417-.9582-.8375s.3417-.9247.8377-.958a.86825.86825 0 0 1 .0604-.002c.4796-.0155.8813.3601.8978.8395z"/><path fill="none" stroke="#000" stroke-linecap="round" stroke-linejoin="round" stroke-width="1.6" d="M31.1639 49.1857c.7749.6425 1.8974.6425 2.6723 0"/><path d="M30.5998 44.862a.9372.9372 0 0 1 .0604.002c.4959.0333.871.4622.8377.958s-.4623.8707-.9582.8375c-.4959-.0333-.871-.4622-.8377-.958.0165-.4794.4182-.855.8978-.8395z"/><path fill="none" stroke="#000" stroke-linecap="round" stroke-linejoin="round" stroke-width="1.6" d="M51.5003 40.7038c3.864 1.3703 5.567 5.8271 5.6943 9.6307 1.4225.308 2.8826-.3898 3.8057-1.461a7.1981 7.1981 0 0 1-2.1494-3.1356c.7369-5.7252-2.03-9.5793-7.3506-8.4862-5.3206-1.0931-8.0875 2.761-7.3506 8.4862a7.1981 7.1981 0 0 1-2.1494 3.1356c.923 1.0712 2.3833 1.769 3.8057 1.461.1273-3.8034 1.8302-8.2605 5.6943-9.6307z"/><path fill="none" stroke="#000" stroke-miterlimit="10" stroke-width="1.6" d="M39.0493 45.2683c.0078.141.0117.283.0118.4261.1437 3.7311-2.758 6.8753-6.4886 7.031-3.7306-.1557-6.6322-3.2999-6.4885-7.031 0-.0952.0017-.1899.0052-.2841"/><path fill="none" stroke="#000" stroke-linecap="round" stroke-linejoin="round" stroke-width="1.6" d="M30.1355 42.2716c.4694 3.3631 4.487-.8706 4.487-.8706.5491 1.5737 4.4254 3.8674 4.4254 3.8674 1.0324-.9557.5259-2.8525.3721-3.5136-.5106-2.7127-3.0794-4.5325-5.8079-4.1144a6.44664 6.44664 0 0 1-1.0324 0c-2.2709-.3369-6.03-.1483-7.12 4.6433-.5317 2.3382.624 2.9844.624 2.9844s3.764-5.0588 4.0518-2.9965z"/><path fill="none" stroke="#000" stroke-linecap="round" stroke-linejoin="round" stroke-width="2" d="M12.2968 36.7474c-1.5719-2.1674-1.8612-5.0005-.7991-7.5333 1.6003-3.734 2.0448-3.734 2.3115-8.5349.0889-2.7561 2.2226-5.0676 4.9787-5.3343 0 0 1.6892-2.0448 5.3343-2.0448 4.2674 0 8.1792 2.3115 9.1572 5.9566 1.0668 3.734-.1779 5.2453.889 8.0903.8191 2.1061 2.0231 4.0582 1.9908 6.287"/><path fill="none" stroke="#000" stroke-linejoin="round" stroke-miterlimit="10" stroke-width="2" d="M30.8791 26.8135l-.0889-.6223c0-1.3336-8.0015-4.712-10.6686-7.3791-2.6671 2.6671-4.0007 4.623-4.0007 8.0014 0 5.3343 3.3784 9.335 7.3791 9.335s7.3791-4.0007 7.3791-9.335h0z"/><path d="M24.75 26.5c0-.7143.5357-1.25 1.25-1.25s1.25.5357 1.25 1.25-.5357 1.25-1.25 1.25-1.25-.5357-1.25-1.25m-5 0c0-.7143.5357-1.25 1.25-1.25s1.25.5357 1.25 1.25-.5357 1.25-1.25 1.25-1.25-.5357-1.25-1.25"/><path fill="none" stroke="#000" stroke-linecap="round" stroke-linejoin="round" stroke-width="2" d="M21.633 31.5332c1.1558.6223 2.5782.6223 3.734 0"/><path fill="none" stroke="#000" stroke-linecap="round" stroke-linejoin="round" stroke-miterlimit="10" stroke-width="2" d="M11.0003 60V44.9552c0-3.2895 3.2918-5.9566 6.5836-5.9566 1.4914 1.2532 2.9827 2.029 4.4789 2.3273"/></g></svg>