<svg xmlns="http://www.w3.org/2000/svg" role="img" viewBox="8.95 22.83 60.84 41.47"><title>1F461.svg</title><path fill="#6a462f" d="M11.044 30.533l-.25 28.425h8.878l2.753-22.217"/><path fill="#6a462f" d="M11.21 34.533l.5 24.175 7.089.25 2-18.425m38.2653 11.7768c2.7748.0391 5.9062-.1885 8.4416-1.171.7079 6.5249-.5933 8.2515-3.991 9.7438-5.6629 2.487-19.5676 1.2919-23.3356-1.4893-4.5676-3.3713-2.5607-3.9694-10.3496-14.656-6.1889-8.4912-18.7005-13.9286-18.7005-13.9286V25.039s20.7464 6.6699 25.0042 17.8349c.7983 2.0934 2.8151 3.4373 4.3049 4.8808 0 0 7.2775 4.3951 18.626 4.5551z"/><path fill="#a57939" d="M41.343 57.587l4.022-20.846 12.73 2.53-2.714 21.032"/><g fill="none" stroke="#000" stroke-linecap="round" stroke-linejoin="round" stroke-width="2"><path d="M11.21 34.533v24.425h7.839l2-18.425"/><path d="M59.497 53.1771c2.7511-.3643 5.4735-1.0558 8.0089-2.0383.7079 6.5249-.5933 8.2515-3.991 9.7438-5.6629 2.487-19.5676 1.2919-23.3356-1.4893-4.5676-3.3713-2.5607-3.9694-10.3496-14.656-6.1889-8.4912-18.7005-13.9286-18.7005-13.9286V25.039s20.7464 6.6699 25.0042 17.8349c.7983 2.0934 1.9924 3.8504 3.4823 5.2939"/><path d="M41.752 56.773l3.613-20.032 12.73 2.53-2.614 20.032"/></g></svg>