<svg xmlns="http://www.w3.org/2000/svg" role="img" viewBox="14.68 10.55 42.02 49.14"><title>1F469-1F3FE-200D-1F680.svg</title><path fill="#9B9B9A" d="M50.9032 27.5319c0 1.2253-.147 2.4163-.4242 3.5563-1.5968 6.5677-7.5169 11.4437-14.5758 11.4437-7.0588 0-12.9788-4.8758-14.5758-11.4432-.2773-1.1402-.4242-2.3314-.4242-3.5568 0-8.2843 6.7157-15 15-15 8.2842 0 15 6.7157 15 15z"/><path fill="#D0CFCE" d="M31.9322 12.938s-6.5189 2.2396-9.1843 7.3842c-1.1601 2.1133-3.006 3.5059-1.4205 10.7665s10.5603 11.0475 10.5603 11.0475c5.4844-1.2858 9.8096-5.5808 11.1387-11.048.2773-1.14.4241-2.3311.4241-3.5563 0-7.0858-4.9129-13.024-11.5183-14.5939zM16.7643 58.7757s-2-13.7267 10-13.7267c3.1919 2.1279 5.9264 3.5984 9 3.5921h-.125c3.0736.0063 5.5082-2.1642 8.7-4.2921 15.5705-.0001 10.7 14.4267 10.7 14.4267"/><path fill="#9B9B9A" d="M28.142 52.903h15.561v5.824H28.142z"/><path fill="#9B9B9A" d="M44.4374 45.6761c-3.1699 2.1133-4.875 3-8.9375 3.5886 13.0625.4114 13.0625 5.5163 13.8246 9.5163h5.1129s2-13.1049-10-13.1049z"/><g><path d="M33.8355 22.5789s-3.6548 5.3911-8.4626 8.0149l-.6458.4712c-.151-.9227-.2303-1.878-.2303-2.8564 0-.4172.0144-.8302.0426-1.2383l-.6209.999c1.1596-2.161 3.1669-3.8624 5.6726-4.5972m12.4328 0c2.0532.6021 3.7718 1.8532 4.9635 3.4744.2628.3575.4999.733.7094 1.1235l-.5597-.9119c.0244.3794.0368.7631.0368 1.1505 0 2.1136-.3701 4.1192-1.0338 5.921l.2613-.6973c-3.14 1.57-2.8941-9.1587-2.8941-9.1587"/></g><g><path fill="#a57939" d="M46.3562 33.4501c.0154-.0072.0297-.0099.0452-.0178l-.2614.6973c.0813-.2205.1439-.4531.2162-.6795-3.0911 1.4412-2.8489-9.1765-2.8489-9.1765l-1.4834-.9016-8.1884-.7932s-3.6548 5.3911-8.4626 8.0149l-.6458.4712c-.151-.9227-.2303-1.878-.2303-2.8564 0-.2066.0142-.4087.0211-.6132-.0451.4537-.0798.9156-.0798 1.2893 0 7.8276 5.0767 14.1732 11.3389 14.1732 5.9453 0 10.813-5.723 11.2911-13.0005-.1238 1.1849-.369 2.3188-.7119 3.3928z"/></g><g><path d="M34.4875 58.7188c.0426-.1623.0653-.3326.0653-.5082 0-1.1035-.8965-2-2-2h.0068c-1.1035 0-2 .8965-2 2 0 .1756.0227.3459.0653.5082m10.5646 0c.0426-.1623.0653-.3326.0653-.5082 0-1.1035-.8965-2-2-2h.0068c-1.1035 0-2 .8965-2 2 0 .1756.0227.3459.0653.5082"/><path fill="none" stroke="#000" stroke-linecap="round" stroke-linejoin="round" stroke-miterlimit="10" stroke-width="2" d="M43.523 57.796v-4.808H28.262v4.808"/><path d="M41.9302 26.9649c0 1.1045-.8965 2-2 2s-2-.8955-2-2c0-1.1035.8965-2 2-2s2 .8965 2 2m-8 0c0 1.1045-.8965 2-2 2s-2-.8955-2-2c0-1.1035.8965-2 2-2s2 .8965 2 2m1.9999 10.0025c-1.1519 0-2.3037-.2862-3.4473-.858-.4941-.247-.6943-.8476-.4472-1.3417.2465-.4937.8462-.6944 1.3418-.4473 1.7177.8594 3.3877.8594 5.1054 0 .4947-.2471 1.0948-.0464 1.3418.4473.2471.4941.0469 1.0947-.4472 1.3417-1.1436.5718-2.2954.858-3.4473.858z"/><path fill="none" stroke="#000" stroke-miterlimit="10" stroke-width="2" d="M46.2349 34.2468c.6636-1.8018 1.0338-3.8074 1.0338-5.9211 0-.3873-.0125-.771-.0368-1.1505m-22.5977-.0877c-.0283.4081-.0427.821-.0427 1.2382 0 7.8277 5.0765 14.1733 11.3386 14.1733"/><path fill="none" stroke="#000" stroke-linecap="round" stroke-linejoin="round" stroke-miterlimit="10" stroke-width="2" d="M16.8702 57.8177s-2-13 10-13c3.1918 2.1279 5.9264 3.5984 9 3.5922h-.125c3.0736.0062 5.8081-1.4643 9-3.5922 12 0 10 13 10 13m-3.843-30.2858c0 1.2253-.1469 2.4163-.4241 3.5563-1.5969 6.5677-7.5169 11.4437-14.5759 11.4437-7.0588 0-12.9787-4.8758-14.5758-11.4432-.2772-1.1402-.4242-2.3314-.4242-3.5568 0-8.2843 6.7157-15 15-15s15 6.7157 15 15z"/><path fill="none" stroke="#000" stroke-linecap="round" stroke-linejoin="round" stroke-miterlimit="10" stroke-width="2" d="M47.7916 28.0871a9.41924 9.41924 0 0 0-.7094-1.1234c-1.1918-1.6212-2.9103-2.8724-4.9635-3.4745-2.1203-.6217-4.1294-.903-6.2164-.8438-2.0871-.0592-4.0963.2221-6.2165.8438-2.5057.7348-4.513 2.4363-5.6725 4.5973M53.864 25.467v4.771m-36.113-4.771v4.771"/><path fill="none" stroke="#000" stroke-linecap="round" stroke-miterlimit="10" stroke-width="2" d="M46.148 34.2148c-2.5512 5.1336-9.5918 5.1389-9.5918 5.1389"/><path fill="none" stroke="#000" stroke-linecap="round" stroke-linejoin="round" stroke-miterlimit="10" stroke-width="2" d="M43.831 57.796v-4.808H28.57v4.808"/><path fill="none" stroke="#000" stroke-linecap="round" stroke-miterlimit="10" stroke-width="2" d="M43.6021 24.3907s-.2459 10.7288 2.8941 9.1588m-12.566-10.8534s-3.6548 5.391-8.4626 8.0149"/><path fill="none" stroke="#000" stroke-miterlimit="10" stroke-width="2" d="M46.2349 34.2468c.6636-1.8018 1.0338-3.8074 1.0338-5.9211 0-.3873-.0125-.771-.0368-1.1505m-22.5977-.0877c-.0283.4081-.0427.821-.0427 1.2382 0 7.8277 5.0765 14.1733 11.3386 14.1733"/><path fill="none" stroke="#000" stroke-linecap="round" stroke-linejoin="round" stroke-miterlimit="10" stroke-width="2" d="M47.7916 28.0871a9.41924 9.41924 0 0 0-.7094-1.1234c-1.1918-1.6212-2.9103-2.8724-4.9635-3.4745-2.1203-.6217-4.1294-.903-6.2164-.8438-2.0871-.0592-4.0963.2221-6.2165.8438-2.5057.7348-4.513 2.4363-5.6725 4.5973"/><path fill="none" stroke="#000" stroke-linecap="round" stroke-miterlimit="10" stroke-width="2" d="M43.6021 24.3907s-.2459 10.7288 2.8941 9.1588m-12.566-10.8534s-3.6548 5.391-8.4626 8.0149"/></g></svg>