<svg xmlns="http://www.w3.org/2000/svg" role="img" viewBox="8.58 3.95 56.47 60.84"><title>1F468-1F3FB-200D-1F3A8.svg</title><path fill="#3F3F3F" d="M22.843 18.5543s-1.175-.9644 0-1.8669c0 0-2.4338-1.4384-1.2589-2.5553.7295-.6933 7.2842-4.0617 14.2341-4.8293 4.2444-.4687 9.3808.0325 12.3426 2.7054 0 0 3.6155 2.8307.3425 4.2368 0 0 1.9302 1.9303 0 2.3499l-25.6603-.0406z"/><path fill="#FFF" d="M56.4341 59.2048s2.1786-15.0289-10.8927-15.0289c-3.4768 2.3083-6.4554 3.9036-9.8034 3.8968h.1362c-3.3481.0068-6.3267-1.5885-9.8034-3.8968-13.0713 0-10.8927 15.0289-10.8927 15.0289"/><path fill="#D0CFCE" d="M44.7757 44.0759c-3.8028 2.5353-5.8484 3.599-10.7221 4.3051 15.6708.4936 15.6708 6.022 16.5852 10.8207h6.1338s2.3993-15.1258-11.9969-15.1258z"/><path fill="#EA5A47" d="M50.0103 53.2624s-3.9.82-6.18-3.07l-.34-.59c.21-.37.34-.78.37-1.2h.01l1.04.15c4.49.75 5.1 4.71 5.1 4.71z"/><path fill="#EA5A47" d="M43.4903 49.6024c-.22.4-.53.74-.93 1.01-.1.07-.21.13-.33.19-.27.14-.56.23-.85.27-.19.04-.39.06-.58.04-1.06-.02-2.08-.62-2.6-1.64l-.48-1.09v-.01c1.85-.34 3.64-1.2 5.54-2.37v.01l.3.77c.26.52.36 1.08.3 1.62-.03.42-.16.83-.37 1.2z"/><path fill="#EA5A47" d="M43.2103 51.2024c2.87 3.06.43 6.44.43 6.44s-3.56-1.91-2.45-5.91l.19-.64v-.02c.29-.04.58-.13.85-.27.12-.06.23-.12.33-.19l.09.15.56.44zm-2.41-.09l-.02.34c-13.41 3.47-13.75-6.5-13.75-6.5 3.15 2.1 5.85 3.56 8.87 3.59h.13c.57-.01 1.13-.06 1.69-.17v.01l.48 1.09c.52 1.02 1.54 1.62 2.6 1.64z"/><path fill="#F1B31C" d="M16.2521 59.6661c-.4557-.3472-.8796-.7068-1.2731-1.0768-.2702-.2541-.526-.5131-.7679-.7764-3.3407-3.6362-4.0105-8.0778-3.0519-11.5453 1.1291-4.0839 5.4064-6.472 9.5509-5.3186 1.9615.5459 7.9171 1.6131 8.9643 11.5648 3.846-1.1751 7.7742 1.9024 5.029 5.9617-.4138.6119-.9792 1.246-1.7194 1.8913-3.7982 3.3112-11.6399 3.1785-16.7319-.7007z"/><path fill="#EA5A47" d="M17.8514 46.3434c-.2943 1.0646-1.397 1.6888-2.4606 1.3948-1.0636-.2941-1.6891-1.3961-1.3947-2.4607.294-1.0636 1.397-1.6888 2.4606-1.3947 1.0636.294 1.6888 1.397 1.3947 2.4606"/><path fill="#61B2E4" d="M23.6283 57.946c-.2943 1.0646-1.3971 1.6888-2.4607 1.3948-1.0636-.2941-1.689-1.3961-1.3947-2.4607.2941-1.0636 1.397-1.6888 2.4606-1.3947s1.6888 1.397 1.3948 2.4606"/><path fill="#3F3F3F" d="M60.275 44.1946l-3.8708 14.9676c-.2929 1.1327-1.4505 1.8146-2.5832 1.5217-.5615-.1452-1.0243-.5128-1.297-.9758-.2728-.4631-.3699-1.0459-.2247-1.6075L56.17 43.133l4.105 1.0616z"/><path fill="#9B9B9A" d="M61.154 40.796l-.879 3.399-4.105-1.062.879-3.398 1.036.268 2.052.53z"/><path fill="#A57939" d="M61.3082 31.8914s3.9546 4.359-.4411 8.0562l-.7299.5859-2.0525-.5308-.4802-.8989c-1.9641-5.4658 3.7037-7.2124 3.7037-7.2124z"/><path fill="#FCEA2B" d="M18.3218 53.2112c-.2943 1.0645-1.397 1.6888-2.4606 1.3947-1.0636-.294-1.6891-1.3961-1.3948-2.4606.2941-1.0636 1.3971-1.6888 2.4607-1.3948 1.0636.2941 1.6888 1.3971 1.3947 2.4607"/><g><path fill="#a57939" d="M29.3654 20.6521s6.0436 4.0119 4.6066.9647c0 0 6.0002 3.9967 5.125.5757 0 0 5.4199 5.8571 5.8039.4877 0 0 .5485 5.2657 2.3966 4.9999 1.122 0 3.1536-6.1121.3973-9.0852H24.6333s-3.3697 6.0539.0117 9.0852c1.8951-.7356 4.7204-7.028 4.7204-7.028z"/></g><g><path fill="#fadcbc" d="M44.9009 22.6802c-.384 5.3694-5.8039-.4877-5.8039-.4877.8752 3.421-5.125-.5757-5.125-.5757 1.437 3.0472-4.6066-.9647-4.6066-.9647s-2.7924 6.2159-4.6871 7.0098c-.0229.3678-.0449.7361-.0449 1.1112 0 7.8276 5.0764 14.1732 11.3385 14.1732s11.3385-6.3456 11.3385-14.1732c0-.3694-.022-.7319-.0442-1.0941-1.822.1998-2.3653-4.9988-2.3653-4.9988z"/></g><g><path d="M41.972 26.9445c0 1.1045-.8965 2-2 2s-2-.8955-2-2c0-1.1035.8965-2 2-2s2 .8965 2 2m-8 0c0 1.1045-.8965 2-2 2s-2-.8955-2-2c0-1.1035.8965-2 2-2s2 .8965 2 2m1.9999 10.0025c-1.1519 0-2.3038-.2862-3.4473-.8579-.4942-.2471-.6943-.8477-.4473-1.3418.2466-.4937.8462-.6944 1.3418-.4473 1.7178.8594 3.3877.8594 5.1055 0 .4946-.2471 1.0947-.0464 1.3418.4473.2471.4941.0469 1.0947-.4473 1.3418-1.1435.5717-2.2954.8579-3.4472.8579z"/><path d="M35.9717 43.4785c-6.8037 0-12.3389-6.8066-12.3389-15.1733 0-.2222.0039-.4434.0127-.6626l1.9981.0752c-.0069.1948-.0108.3906-.0108.5874 0 7.2641 4.6377 13.1733 10.3389 13.1733s10.3388-5.9092 10.3388-13.1733c0-.1983-.0039-.396-.0097-.5918l1.998-.0664c.0078.2182.0117.4375.0117.6582 0 8.3667-5.5351 15.1733-12.3388 15.1733zm12.5312-23.8838h-.0019l-25.6602-.0405a1.00185 1.00185 0 0 1-.6328-.2271c-.1504-.124-.9033-.7924-.8867-1.7851.0029-.1841.0332-.4043.124-.6406-.5224-.4561-1.082-1.1133-1.1699-1.8814-.0674-.5957.1523-1.1684.6201-1.6123 1.0254-.9756 7.9131-4.3369 14.8135-5.0991 2.6387-.2886 9.1963-.585 13.1221 2.9575.3349.2588 2.2597 1.8677 2.0234 3.6875-.0596.4585-.2744 1.0405-.8857 1.564.2939.5083.5078 1.1406.3232 1.769-.1104.376-.4619 1.043-1.5772 1.2852a.99724.99724 0 0 1-.2119.0229zm-25.1377-2.0395l24.9131.039c-.1123-.205-.3144-.4736-.4824-.6421-.2344-.2343-.3379-.5698-.2754-.8955.0625-.3256.2832-.5996.5879-.7304.2168-.0928.7246-.3404.7627-.6294.0654-.4976-.7441-1.4405-1.3281-1.9024-2.3584-2.125-6.6768-3.0434-11.6153-2.4975-6.7529.7456-13.0283 4.0371-13.6455 4.5527.1094.2427.6114.7061 1.0694.9771.2861.1689.4697.4687.4892.8003.0205.3315-.126.6513-.3887.8535-.038.0288-.0664.0542-.0869.0747z"/><path d="M35.8184 10.3027c-.5528 0-1-.4477-1-1V6.2173c0-.5523.4472-1 1-1 .5527 0 1 .4477 1 1v3.0854c0 .5523-.4473 1-1 1zm11.3437 18.3872c-.4355 0-.8545-.1489-1.2256-.4384-.6826-.5323-1.1474-1.5537-1.459-2.5791a2.27694 2.27694 0 0 1-.3291.146c-1.4677.5141-3.247-.6382-4.4902-1.7007a1.62072 1.62072 0 0 1-.166.1347c-1.0518.7452-2.9248.0518-4.6611-.9296a1.23187 1.23187 0 0 1-.0997.0952c-.3623.3134-1.1757 1.0112-4.9433-1.3072-1.0235 2.1202-3.0215 5.8184-4.7813 6.5015-.3525.1362-.749.064-1.0302-.1875-3.9297-3.5239-.3711-10.0405-.2178-10.3164.1767-.3169.5107-.5137.874-.5137h23.0615c.2784 0 .544.1162.7334.3203 2.3526 2.5371 1.7813 6.7232.8233 8.918-.5156 1.1816-1.1446 1.8018-1.8711 1.8447a1.92857 1.92857 0 0 1-.2178.0122zm.0234-2.0004c.004.0024.0088.0043.0137.0063.0459-.0063.0508-.0156.0977-.0156-.0401 0-.0781.0034-.1114.0093zm-2.2841-5.0088c.5107 0 .9414.3857.9941.8955.1836 1.7466.7549 3.6342 1.2051 4.0517.2998-.4336.8418-1.687.956-3.3457.0616-.8984.0235-2.5034-.833-3.6875H25.252c-.5948 1.2803-1.9141 4.6558-.4502 6.7637 1.0117-1.021 2.5761-3.7222 3.6513-6.1157.1201-.2681.3526-.4693.6348-.5508.2812-.082.5859-.0347.8301.1269 1.083.7183 2.2715 1.3736 3.0576 1.7081.0234-.252.1416-.4927.3428-.667.3398-.2945.8359-.3247 1.207-.0757 1.3418.8921 2.9101 1.6489 3.6309 1.7778-.0079-.0366-.0167-.0766-.0284-.1216-.1133-.4433.0889-.9067.4903-1.1255.4013-.2197.9013-.1372 1.2119.1978 1.331 1.4351 3.1035 2.604 3.6562 2.4185.1143-.0406.3496-.3687.418-1.3223.0371-.5171.4629-.9199.9805-.9282h.0166z"/><path fill="none" stroke="#000" stroke-linecap="round" stroke-linejoin="round" stroke-miterlimit="10" stroke-width="2" d="M42.2303 50.8024c.12-.06.23-.12.33-.19.4-.27.71-.61.93-1.01.21-.37.34-.78.37-1.2.06-.54-.04-1.1-.3-1.62l-.3-.77m-1.03 4.79c-.27.14-.56.23-.85.27-.19.04-.39.06-.58.04-1.06-.02-2.08-.62-2.6-1.64l-.48-1.09"/><path fill="none" stroke="#000" stroke-linecap="round" stroke-linejoin="round" stroke-miterlimit="10" stroke-width="2" d="M50.9303 46.5424c-1.45-.97-3.4-1.59-6.03-1.59-.56.37-1.1.72-1.64 1.05-1.9 1.17-3.69 2.03-5.54 2.37-.56.11-1.12.16-1.69.17h-.13c-2.7351-.0272-5.2076-1.2272-7.9897-3.0133m14.7397 5.2333l.56.44c2.87 3.06.43 6.44.43 6.44s-3.56-1.91-2.45-5.91l.19-.64M29.463 50.111c.3957.3631.8557.7006 1.3904.9935.5347.2929 1.144.5412 1.8384.7257.2081.0553.4237.1048.6474.1481 1.8713.3624 4.2969.2876 7.4412-.526m2.6899-1.8899l.02.04.34.59c2.28 3.89 6.18 3.07 6.18 3.07s-.61-3.96-5.1-4.71l-1.04-.15"/><path d="M25.6602 63.7158c-3.4844 0-7.1836-1.0976-10.0147-3.2539-.4746-.3623-.9297-.7471-1.3525-1.1445-.2871-.2715-.5606-.5469-.8184-.8281-3.2402-3.5264-4.4668-8.1954-3.2793-12.4883.6123-2.2158 2.0586-4.0635 4.0723-5.2022 2.0488-1.1592 4.4297-1.4463 6.7109-.8134l.3096.0839c2.1894.5791 7.8701 2.083 9.2422 11.2442 2.0898-.2569 4.1474.4951 5.2636 2.0068 1.1954 1.6182 1.0997 3.7012-.2626 5.7158-.4766.7061-1.1124 1.4073-1.8897 2.085-1.9961 1.7393-4.9053 2.5947-7.9814 2.5947zm-8.8018-4.8457c4.5586 3.4737 11.9326 3.8262 15.4687.7432.6465-.5635 1.167-1.1348 1.5479-1.6973.8711-1.289.9814-2.499.3096-3.4072-.8135-1.1006-2.5869-1.5352-4.2178-1.0391-.2861.0879-.5967.042-.8438-.122a1.00088 1.00088 0 0 1-.4423-.7295c-.9239-8.7686-5.8155-10.0625-7.9043-10.6153l-.334-.0898c-1.7647-.4912-3.6074-.2686-5.1895.626-1.5488.8759-2.6601 2.2949-3.1299 3.9951-1.0019 3.623.0538 7.5869 2.8243 10.6015.2265.2461.4648.4883.7168.7256.372.3496.7734.6895 1.1943 1.0088z"/><path fill="none" stroke="#000" stroke-linecap="round" stroke-linejoin="round" stroke-miterlimit="10" stroke-width="2" d="M58.0847 40.0027l-.4802-.8989c-1.9641-5.4658 3.7037-7.2124 3.7037-7.2124s3.9546 4.359-.4411 8.0562l-.7299.5859m.1378 3.6611l-3.8708 14.9676c-.2929 1.1327-1.4505 1.8146-2.5832 1.5217-.5615-.1452-1.0243-.5128-1.297-.9758-.2728-.4631-.3699-1.0459-.2247-1.6075L56.17 43.133"/><path fill="none" stroke="#000" stroke-linecap="round" stroke-linejoin="round" stroke-miterlimit="10" stroke-width="2" d="M60.275 44.195l.879-3.399-1.017-.263-2.052-.53-1.036-.268-.879 3.398z"/></g></svg>