<svg xmlns="http://www.w3.org/2000/svg" role="img" viewBox="10.92 4.92 50.03 56.03"><title>1F47F.svg</title><g id="color"><path fill="#D22F27" d="M48.8559 16c3-2 4-5 3-9 7 2 6 10 3 15M23.1441 16c-3-2-4-5-3-9-7 2-6 10-3 15"/><path fill="#EA5A47" d="M36,13c-12.6823,0-23,10.3177-23,23s10.3177,23,23,23c12.6822,0,23-10.3178,23-23 C59,23.3176,48.6822,13,36,13z"/></g><g id="line"><circle cx="36" cy="36" r="23" fill="none" stroke="#000" stroke-miterlimit="10" stroke-width="2"/><path d="M30 32.9252c0 1.6567-1.3448 3-3 3-1.6553 0-3-1.3433-3-3 0-1.6553 1.3447-3 3-3C28.6552 29.9252 30 31.27 30 32.9252M48 32.9252c0 1.6567-1.3447 3-3 3s-3-1.3433-3-3c0-1.6553 1.3447-3 3-3S48 31.27 48 32.9252"/><path fill="none" stroke="#000" stroke-linecap="round" stroke-linejoin="round" stroke-miterlimit="10" stroke-width="2" d="M23 25L30 29M49 25L42 29M48.8559 16c3-2 4-5 3-9 7 2 6 10 3 15M23.1441 16c-3-2-4-5-3-9-7 2-6 10-3 15M29.5 44c1.2841-.6376 3.9847-1.0308 6.8421-.9981 2.6235.03 4.9897.4146 6.1579.9981"/></g></svg>