<svg xmlns="http://www.w3.org/2000/svg" role="img" viewBox="4.99 2.74 62.27 65.39"><title>1F479.svg</title><path fill="#EA5A47" d="M51.7592 19.365a5.04757 5.04757 0 0 1-1.9644.3781c-4.3286.0022-8.078 1.8283-12.3377 2.1357-5.0235.3625-9.3729-1.7156-14.2656-2.062a5.33758 5.33758 0 0 1-1.6541-.3781 5.34788 5.34788 0 0 1-1.2549.2651c-8.8148 8.7879-8.8367 23.0578-.0487 31.8727s23.0578 8.8367 31.8727.0487 8.8367-23.0578.0487-31.8727c-.1305-.1308-.2625-.26-.396-.3875z"/><path fill="#6A462F" d="M57.7435 27.4528c2.0194-.5984 4.1984-.3024 5.985.813 0 0 .9579-6.6034-8.62-11.32l5.6-1.3534-6.43-4.2878c-1.8164-.4281-3.7106-.5449-5.943-.4239V16s-4 0-5-1l.9712-4.4568C38.4888 8.6781 33.1665 8.3444 28.45 10.6l-.1143 3.4c0 1-4 2-4 2l-1.9561-5.8942c-2.5773 0-4.179.6578-4.179.6578l-5.9226 4.8286c1.9768-.9884 6.4331.41 6.4331.41s-8.6206.9434-10.5361 13.207c0 0 3.8313-2.83 6.7047-2.83 0 0-10.536 3.7734-6.7047 20.7538 0 0 1.9155-4.7168 4.789-5.66 0 0-3.8313 8.49 5.7471 17.9237 0 0 1.5046-4.3139 2.4624-5.2572 0 0 1.3383 8.0873 7.0852 9.0306 0 0-.9272-1.8866.9885-4.7168C31.279 62.5699 35.2313 65.4009 39.7828 66c0 0-1.6543-6.9638 3.1349-7.9071 0 0 1.6543.36 1.6543 4.1337 0 0 5.2644-4.3139 5.2644-8.0873 2.1524.4806 3.8333 2.1614 4.314 4.3138 0 0 4.551-4.8542 3.5931-16.1745 0 0 4.0695-1.7492 6.9429 3.911 0 .0004 2.6354-10.2466-6.9429-18.7368zM58.3357 40c-3 10-11 18-20 18s-23-5-24-15-2-14 5-23c0 0 13 1 18 2 0 0 13-4 16-2 0 0 8 10 5 20z"/><path fill="#D22F27" d="M28.9889 12.2111C26.5852 10.6086 25.7841 8.2049 26.5857 5c-5.6086 1.6025-4.8074 8.0123-2.4037 12.0185 4.2466.8015 4.8069-4.8074 4.8069-4.8074zm18.1668 4.8074C49.5592 13.0123 50.3604 6.6025 44.7518 5c.8012 3.2049 0 5.6086-2.4037 7.2111-3.6055 2.4038.5603 5.6089 4.8076 4.8074z"/><g><path fill="none" stroke="#000" stroke-linecap="round" stroke-linejoin="round" stroke-width="2" d="M49.211 24.646l-7.644 2.253M18.208 11.6386c-4.9423 1.9768-6.2023 4.3636-6.2023 4.3636s3.8313-.9433 6.7048 0c0 0-8.62.9434-10.5361 13.207 0 0 3.8313-2.83 6.7048-2.83 0 0-10.5361 3.7735-6.7048 20.7538 0 0 1.9157-4.7167 4.7892-5.66 0 0-3.8314 8.49 5.7469 17.9237 0 0 1.5047-4.3138 2.4625-5.2572 0 0 1.3383 8.0873 7.0853 9.0306 0 0-.9273-1.8867.9883-4.7167 2.032 4.1168 5.9846 6.9478 10.5363 7.5466 0 0-1.6543-6.9638 3.1348-7.9071 0 0 1.6543.36 1.6543 4.1337 0 0 5.2644-4.3139 5.2644-8.0873 2.1524.4806 3.8333 2.1615 4.3139 4.3139 0 0 4.5511-4.8543 3.5932-16.1745 0 0 4.0694-1.7493 6.9429 3.9109 0 0 2.6354-10.2466-6.9429-18.7368 2.0194-.5984 4.1985-.3024 5.9851.813 0 0 .9578-6.6034-8.62-11.32 0 0 3.8313-1.8867 5.747-.9434 0 0-4.7318-3.3282-6.8869-3.8459"/><path fill="none" stroke="#000" stroke-linecap="round" stroke-miterlimit="2" stroke-width="2" d="M31.303 43.223l-.49 3.482m9.884-3.482l.49 3.482"/><path fill="none" stroke="#000" stroke-linecap="round" stroke-linejoin="round" stroke-width="2" d="M30.431 26.899l-7.643-2.253m8.9436-14.2155a13.33592 13.33592 0 0 1 8.2209 0M27.599 42.279h16.802"/><path fill="none" stroke="#000" stroke-linecap="round" stroke-miterlimit="10" stroke-width="2" d="M53.3796 20.8053c8.0928 9.599 6.8718 23.9409-2.7272 32.0337s-23.9409 6.8718-32.0337-2.7272c-7.2418-8.5896-7.1228-21.1812.2801-29.6325"/><path fill="none" stroke="#000" stroke-linecap="round" stroke-linejoin="round" stroke-width="2" d="M18.9034 20.4834s4.9777-1.2939 9.1885.0507a22.343 22.343 0 0 0 7.86 1.1339"/><path fill="none" stroke="#000" stroke-linecap="round" stroke-linejoin="round" stroke-width="2" d="M52.7543 20.4834s-4.9778-1.2939-9.1885.0507a22.343 22.343 0 0 1-7.86 1.1339m-6.7169-9.4569C26.5852 10.6086 25.7841 8.2049 26.5857 5c-5.6086 1.6025-4.8074 8.0123-2.4037 12.0185 4.2466.8015 4.8069-4.8074 4.8069-4.8074zm18.1668 4.8074C49.5592 13.0123 50.3604 6.6025 44.7518 5c.8012 3.2049 0 5.6086-2.4037 7.2111-3.6055 2.4038.5603 5.6089 4.8076 4.8074z"/><path d="M30 32c0 1.6568-1.3448 3-3 3-1.6553 0-3-1.3433-3-3 0-1.6552 1.3447-3 3-3 1.6552 0 3 1.3448 3 3m18 0c0 1.6568-1.3447 3-3 3s-3-1.3433-3-3c0-1.6552 1.3447-3 3-3s3 1.3448 3 3"/></g></svg>