<svg xmlns="http://www.w3.org/2000/svg" role="img" viewBox="15.74 7.37 42.15 52.52"><title>1F477-1F3FB-200D-2640-FE0F.svg</title><path fill="#92d3f5" d="M55.0085 58.8743s1.9935-13.7522-9.9672-13.7522c-3.1814 2.1124-5.907 3.5721-8.9705 3.5658h.1246c-3.0635.0063-5.7892-1.4534-8.97-3.5658-11.9607 0-9.9672 13.7522-9.9672 13.7522"/><path fill="#61b2e4" d="M44.1009 49.1247c5.4463 2.26 5.5866 6.8076 6.1478 9.7535h5.02s2.16-14.9254-9.6229-14.9254"/><path fill="#e27022" d="M50.08 58.8863V45.8331l-4.09-.726a115.9354 115.9354 0 0 1-6.825 13.7792zm-15.357 0a115.9411 115.9411 0 0 1-6.8251-13.7792l-4.3179.726v13.053z"/><path fill="#fcea2b" d="M45.41 58.938l3.483-13.205-1.933-.502-3.782 13.704 2.232.003zm-17.225 0l-3.483-13.205 1.932-.502 3.783 13.704-2.232.003z"/><path fill="#f1b31c" d="M47.9269 20.2821l-.04.1q-.57-.195-1.23-.39a30.4168 30.4168 0 0 0-8.56-1.16v-2.57h2.89l.06-5.96c6.84 1.21 6.88 9.98 6.88 9.98zm-9.83-4.02v2.57c-.34 0-.68.01-1.03.02h-.16c-.03 0-.06-.01-.08 0a31.1621 31.1621 0 0 0-9.5 1.13v.01c-.59.17-1.12.35-1.59.53l-.09-.24s.05-9.2 7.4-10.06l-.06 6.04z"/><path fill="#fcea2b" d="M41.0469 10.3021l-.06 5.96h-8l.06-6.04c1.59-2.81 7.37-2.07 8 0z"/><g><g fill="#a57939"><path d="M24 23v7l-1 3-1 3 1 3h4l1.132-1.441L28 36l-2.185-5.168-.114-3.8 1.026-4.652L27 21l-3 2zm26.132 0v7l1 3 1 3-1 3h-4L46 37.559 46.132 36l2.186-5.168.113-3.8-1.026-4.652-.273-1.38 3 2z"/><path d="M24 23v3l5-2 2-1 2-2v-1h-3l-3.431 1.287L24 22v1zm25 0v3l-5-2-2-1-2-2v-1h3l3.431 1.287L49 22v1z"/></g></g><g><path fill="#fadcbc" d="M48.0069 25.0321a17.6438 17.6438 0 0 1 .32 3.36c0 7.83-5.08 14.18-11.34 14.18s-11.34-6.35-11.34-14.18A10.4414 10.4414 0 0 1 26 25h1c1.457-.2256 8.1782-5.8346 9.9469-5.0378C36.4313 20.2006 45.3483 23.7405 46 25l3 1c.08.32-1.0531-1.2979-.9931-.9679zm-5.02 2a2 2 0 1 0-2 2 1.9994 1.9994 0 0 0 2-2zm-2.55 9.15a1.0108 1.0108 0 0 0 .45-1.34.9935.9935 0 0 0-1.34-.45 5.383 5.383 0 0 1-5.11 0 1 1 0 0 0-.89 1.79 7.33 7.33 0 0 0 6.89 0zm-5.45-9.15a2 2 0 1 0-2 2 1.9994 1.9994 0 0 0 2-2z"/></g><g><path d="M55.8066 58.8877a.9956.9956 0 0 1-.99-1.1494c.0088-.0576.8272-5.7412-2.1289-9.1778-1.4756-1.7148-3.69-2.6123-6.5859-2.6689-3.31 2.1846-6.0274 3.5449-9.126 3.5879-.0215.0019-.044.001-.0645.001h-.0673c-.0137-.001-.0274 0-.0411 0s-.0293 0-.0439-.001c-3.1006-.043-5.8174-1.4033-9.126-3.5879-2.8965.0566-5.11.9541-6.5859 2.6689-2.9561 3.4366-2.1377 9.12-2.1289 9.1778a1 1 0 0 1-1.9766.3027c-.041-.2695-.9726-6.6328 2.5811-10.7754 1.9228-2.2412 4.7509-3.3769 8.4072-3.3769a1.0015 1.0015 0 0 1 .5547.1679c3.1523 2.1016 5.6592 3.4092 8.3828 3.4239 2.7226-.0137 5.23-1.3213 8.3828-3.4239a1.0015 1.0015 0 0 1 .5547-.1679c3.6562 0 6.4844 1.1357 8.4072 3.3769 3.5537 4.1426 2.6221 10.5059 2.5811 10.7754a.9991.9991 0 0 1-.9866.8467z"/><path d="M34.7656 58.8887a.9975.9975 0 0 1-.8476-.4688 97.5708 97.5708 0 0 1-6.9073-13.1367 1 1 0 0 1 1.8379-.7891 95.7175 95.7175 0 0 0 6.7627 12.8633 1 1 0 0 1-.8457 1.5313zm4.4473 0a1 1 0 0 1-.8457-1.5313A95.6943 95.6943 0 0 0 45.13 44.4941a1 1 0 1 1 1.8379.7891A97.5708 97.5708 0 0 1 40.0605 58.42a.9975.9975 0 0 1-.8476.4687zm-15.6084 0a1 1 0 0 1-1-1V45.6152a1 1 0 0 1 2 0v12.2735a1 1 0 0 1-1 1zm26.541 0a1 1 0 0 1-1-1V45.6152a1 1 0 0 1 2 0v12.2735a1 1 0 0 1-1 1zm-9.1586-33.8566a2 2 0 1 1-2 2 1.9994 1.9994 0 0 1 2-2zm-.1 9.81a1.0108 1.0108 0 0 1-.45 1.34 7.33 7.33 0 0 1-6.89 0 1 1 0 0 1 .89-1.79 5.383 5.383 0 0 0 5.11 0 .9935.9935 0 0 1 1.34.45zm-7.9-9.81a2 2 0 1 1-2 2 1.9994 1.9994 0 0 1 2-2z"/><path fill="none" stroke="#000" stroke-miterlimit="10" stroke-width="2" d="M25.9591 25.1a17.2549 17.2549 0 0 0-.3122 3.292c0 7.83 5.08 14.18 11.34 14.18s11.34-6.35 11.34-14.18a17.6438 17.6438 0 0 0-.32-3.36"/><path fill="none" stroke="#000" stroke-linecap="round" stroke-linejoin="round" stroke-width="2" d="M27.3269 20.9921c-.59.17-1.12.35-1.59.53a15.0574 15.0574 0 0 0-2.65 1.22"/><path fill="none" stroke="#000" stroke-miterlimit="10" stroke-width="2" d="M27.327 20.982v.01"/><path fill="none" stroke="#000" stroke-linecap="round" stroke-linejoin="round" stroke-width="2" d="M50.8869 22.7421a15.9913 15.9913 0 0 0-3-1.36q-.57-.195-1.23-.39a30.4168 30.4168 0 0 0-8.56-1.16c-.34 0-.68.01-1.03.02h-.16c-.03 0-.06-.01-.08 0a31.1621 31.1621 0 0 0-9.5 1.13m13.72-9.68v-.08c-.63-2.07-6.41-2.81-8 0l-.06 6.04h8z"/><path fill="none" stroke="#000" stroke-miterlimit="10" stroke-width="2" d="M25.6469 21.2821s.05-9.2 7.4-10.06m14.88 10.06s-.04-8.77-6.88-9.98c-.16-.03-.34-.06-.51-.08"/><g fill="none" stroke="#000" stroke-linecap="round" stroke-width="2"><path stroke-linejoin="round" d="M28.1323 37.9718c-2.8064 1.7134-4.7476.7957-5.8883-.2888a1.53 1.53 0 0 1-.1494-2.07c1.9553-2.2983 2.0983-12.8706 2.0983-12.8706m25.5055-.0003s.143 10.5723 2.0983 12.8706a1.53 1.53 0 0 1-.1494 2.07c-1.1408 1.0845-3.0819 2.0022-5.8884.2888"/><path stroke-miterlimit="10" d="M33.8725 19.8954C32.48 23.0338 25 26 25 26m14-6.1046C40.5491 23.0338 48.8725 26 48.8725 26"/></g></g></svg>