<svg xmlns="http://www.w3.org/2000/svg" role="img" viewBox="15.10 14.98 41.80 46.67"><title>1F474-1F3FF.svg</title><path fill="#92d3f5" d="M55.1 60.89v-4c0-5-5-9-10-9q-9 7.5-18 0c-5 0-10 4-10 9v4z"/><path fill="#d0cfce" d="M25.41 35.72a1 1 0 0 1-.5664-.1757c-.3164-.2178-3.085-2.33-3.085-9.512a7.33 7.33 0 0 1 2.1-5.562 8.029 8.029 0 0 1 5.475-1.96 1.001 1.001 0 0 1 .9483.999v6.218a1 1 0 0 1-1 1c-1.764 0-2.756 4.79-2.872 8.027a.999.999 0 0 1-.999.9648zm20.92-.11a1.001 1.001 0 0 1-.55-.8584c-.1162-3.237-1.108-8.027-2.872-8.027a1 1 0 0 1-1-1v-6.218a1.001 1.001 0 0 1 .9483-.999 8.029 8.029 0 0 1 5.475 1.96 7.33 7.33 0 0 1 2.1 5.562c0 7.182-2.769 9.294-3.085 9.512a1.001 1.001 0 0 1-1.016.0693z"/><path fill="#6a462f" d="M43.42 18.53a11.58 11.58 0 0 0-14.54-.0063c.2579-.0091.4244-.0027.4507-.0011a1.001 1.001 0 0 1 .9483.9991v6.218a.9994.9994 0 0 1-1 1c-1.764 0-2.756 4.79-2.872 8.027a1 1 0 0 1-1.565.789 3.105 3.105 0 0 1-.3272-.2733v.0005c1.32 6.589 5.624 10.62 11.48 10.62 5.963 0 10.33-4.018 11.67-10.59a3.113 3.113 0 0 1-.3206.2672 1 1 0 0 1-1.565-.7891c-.1162-3.237-1.108-8.027-2.872-8.027a1 1 0 0 1-1-1v-6.218a1.001 1.001 0 0 1 .9483-.999"/><g><path fill="none" stroke="#000" stroke-linecap="round" stroke-linejoin="round" stroke-width="2" d="M17.1 59.89v-3c0-5 5-9 10-9q9 7.5 18 0c5 0 10 4 10 9v3M43.05 19.5a10.59 10.59 0 0 0-13.78-.02"/><path fill="none" stroke="#000" stroke-linejoin="round" stroke-width="2" d="M25.28 33.75c.85 6.528 4.67 11.14 10.72 11.14 6.243 0 10.09-4.64 10.93-11.2"/><path fill="none" stroke="#000" stroke-linecap="round" stroke-linejoin="round" stroke-width="2" d="M38.1 37.89a3.629 3.629 0 0 1-4 0m-3-2a3.491 3.491 0 0 1-1 2m11-2a3.491 3.491 0 0 0 1 2"/><path d="M42 28.89a2 2 0 1 1-2-2 2.006 2.006 0 0 1 2 2m-8 0a2 2 0 1 1-2-2 2.006 2.006 0 0 1 2 2"/><path fill="none" stroke="#000" stroke-linecap="round" stroke-linejoin="round" stroke-width="2" d="M29.28 25.72v-6.218s-6.523-.3406-6.523 6.523 2.652 8.687 2.652 8.687.3141-8.991 3.87-8.991zm13.63 0v-6.218s6.523-.3406 6.523 6.523-2.652 8.687-2.652 8.687-.3144-8.991-3.871-8.991z"/></g></svg>