<svg xmlns="http://www.w3.org/2000/svg" role="img" viewBox="13.03 7.90 45.70 57.07"><title>1F47D.svg</title><path fill="#d0cfce" d="M56.7269 32.3778c0 5.4783-2.5938 10.7782-5.1217 15.641-.6345 1.2206-1.6558 1.9659-2.3853 3.0844-.608.9322-.9846 2.239-1.6421 3.0841C43.5845 59.3205 39.811 63 35.9426 63c-3.8271 0-7.7665-3.3191-11.7333-8.3606-.6817-.8663-1.1468-2.4572-1.7765-3.4172-.5315-.8103-1.6251-2.4093-2.1087-3.2757-2.8522-5.1095-5.1658-9.6774-5.1658-15.5687C15.1583 17.417 25.5504 10 35.9426 10s20.7843 7.417 20.7843 22.3778z"/><path fill="#9b9b9a" d="M36.9426 62.25c6-5 11.8534-46.3572 11.9267-47.3036 3.1087 2.5414 7.1004 8.9255 7.725 13.0321 1.1644 7.6568-2.3965 17.7826-7.3743 23.1247C44.06 62.2123 36.9426 62.25 36.9426 62.25"/><path fill="#3f3f3f" d="M22.5696 42.348c1.9926 3.7 5.3442 5.7121 7.4861 4.4943 2.1418-1.2178 2.2628-5.2045.2702-8.9045s-5.3442-5.7121-7.4861-4.4943-2.2628 5.2046-.2702 8.9045zm26.4621 0c-1.9926 3.7-5.3442 5.7121-7.4861 4.4943-2.1418-1.2178-2.2628-5.2045-.2702-8.9045s5.3442-5.7121 7.4861-4.4943c2.1418 1.2179 2.2628 5.2046.2702 8.9045z"/><g fill="none" stroke="#000" stroke-width="2"><path stroke-linecap="round" stroke-linejoin="round" d="M30.7465 53.6689c.4295.4051 2.3337 2.11 5.1016 1.9273 2.2456-.1483 3.7515-1.4526 4.2513-1.9273"/><path stroke-miterlimit="10" d="M22.5696 42.348c1.9926 3.7 5.3442 5.7121 7.4861 4.4943 2.1418-1.2178 2.2628-5.2045.2702-8.9045s-5.3442-5.7121-7.4861-4.4943-2.2628 5.2046-.2702 8.9045z"/><path stroke-linecap="round" stroke-linejoin="round" d="M35.9426 63c-8.125 0-11.9655-7.7752-13.12-10.6909-.2705-.6831-.6645-1.3029-1.1743-1.8319-1.8804-1.9513-6.49-7.7864-6.49-18.0994C15.1583 17.417 25.5504 10 35.9426 10s20.7843 7.417 20.7843 22.3778c0 10.3722-4.1733 15.6905-6.2294 17.8189-.6696.6932-1.2358 1.4796-1.6556 2.3472C44.8143 60.8674 40.1089 63 35.9426 63z"/><path stroke-miterlimit="10" d="M49.0317 42.348c-1.9926 3.7-5.3442 5.7121-7.4861 4.4943-2.1418-1.2178-2.2628-5.2045-.2702-8.9045s5.3442-5.7121 7.4861-4.4943c2.1418 1.2179 2.2628 5.2046.2702 8.9045z"/></g></svg>