<svg xmlns="http://www.w3.org/2000/svg" role="img" viewBox="9.32 5.69 52.98 61.36"><title>1F472.svg</title><path fill="#ea5a47" d="M14.2 22.78l42.29-.1777s-3.513-15.66-22.58-14.65-19.7 14.83-19.7 14.83z"/><path fill="#d22f27" d="M12.83 23.13c14.66-2.151 31.54-2.378 46.17 0-.5201.965 2.919 7.022 1.004 7.903-16.2-3.621-31.88-1.554-48.18 0 1.078-1.432-1.526-6.867 1.004-7.903z"/><circle cx="36" cy="25.01" r="3.597" fill="#f1b31c"/><path fill="#5c9e31" d="M28.88 8.708c1.004.2433 8.503-1.764 13.79.2433v12.27h-13.5z"/><g><path fill="#fcea2b" d="M53.2 30.02c3.393.861 2.024 6.922 2.024 10.81 0 13.35-8.613 24.17-19.24 24.17s-19.24-10.82-19.24-24.17c-.01644-3.822.7184-7.609 2.163-11.15 0 0 26.49-1.638 34.29.3416z"/></g><g fill="#f1b31c"><path d="M13 31c-3 7 4.0909 11.853 2.476 11.0792L18 30zm40-1l2.9041 12.0792C54.2891 42.853 62 38 59 31z"/></g><g><path d="M32.03 40.84a2.839 2.839 0 1 1-2.839-2.839 2.847 2.847 0 0 1 2.839 2.839m13.62 0a2.839 2.839 0 1 1-2.839-2.839 2.847 2.847 0 0 1 2.839 2.839"/><path fill="none" stroke="#000" stroke-linecap="round" stroke-miterlimit="10" stroke-width="2" d="M31.19 52.74c-.0466.01 5.015 2.831 9.591 0M25.9 34.07a11.61 11.61 0 0 1 6.596 0m7.014 0a11.61 11.61 0 0 1 6.596 0"/><path fill="none" stroke="#000" stroke-linecap="round" stroke-linejoin="round" stroke-width="2" d="M56.99 22S54.054 7.95 35.74 7.95 14.66 22 14.66 22m28.01-1V9.596"/><path fill="none" stroke="#000" stroke-linecap="round" stroke-linejoin="round" stroke-width="2" d="M60 31.03c-23.55-4.592-48.21-.1832-48.18 0-.5085-2.755-.1064-5.38 1.004-7.903 29.86-4.891 45.62.1826 46.17 0 .5151 1.408.9492 2.817 1.144 4.225.1694 1.226.1575 2.452-.1401 3.678zM28.85 8.951V21.22M55.9 41.34c-.1719.0784 4.626-2.616 3.092-10.3"/><path fill="none" stroke="#000" stroke-linecap="round" stroke-linejoin="round" stroke-width="2" d="M18.63 30.03c-.8024 1.569-1.333 3.262-1.568 5.008-.3463 1.91-.5173 3.847-.5107 5.788v.34c.1699 13.28 8.682 23.83 19.25 23.83s19.08-10.56 19.25-23.83v-.34c.0066-1.941-.1644-3.878-.5107-5.788-.2355-1.746-.7658-3.439-1.568-5.008m-40.3626 1c-1.534 7.687 3.264 10.38 3.092 10.3"/><circle cx="36" cy="24.98" r="3.953" fill="none" stroke="#000" stroke-miterlimit="10" stroke-width="2"/></g></svg>