<svg xmlns="http://www.w3.org/2000/svg" role="img" viewBox="10.06 4.44 51.13 55.38"><title>1F470-1F3FE-200D-2640-FE0F.svg</title><path d="M56.8796 51.9735c7 0-7.4648-26.2858-7.4648-26.2858H21.0776S6.6128 51.9735 13.6128 51.9735h43.2668zm-6.5035 6.8867c-5.4754-7.6615-12.4403-2.7078-14.4394-1.4018-1.9991-1.306-8.9639-6.2597-14.4393 1.4018" fill="#FFF"/><circle cx="35.734" cy="11.446" r="5.082"/><path d="M50.8631 25.7672c0 3.2423-.8358 5.6961-2.2824 7.5154-2.9998-2.6292-22.2248-3.4287-25.524.1695-1.551-1.8407-2.4526-4.3491-2.4526-7.6849 0-8.3558 6.7737-15.1295 15.1295-15.1295s15.1295 6.7737 15.1295 15.1295z"/><path d="M35.9367 57.4584c1.9984-1.3055 8.9591-6.2561 14.4338 1.3944h4.8175c-.231-.1 1.3247-14.4346-10.2399-14.4-3.1709 2.1139-6.3835 3.6741-9.4389 3.6884-3.0474-.0143-5.7666-1.4755-8.9361-3.5884-12 0-10 14.3-10 14.3h4.9299c5.4747-7.6505 12.4353-2.7 14.4337-1.3944zM25.0938 31.5186c1.1737 6.2639 5.6711 10.9285 11.0401 10.9285 5.2521 0 9.6701-4.4636 10.9587-10.5216l-.0086.0191c-3.4939-1.7469.122-6.0516.122-6.0516-2.2447-.4311-4.8094-2.6289-6.9016-4.8433l-.0451-.2859c-1.2647.1992-2.7309.3347-4.3793.3347-1.5215 0-2.8878-.1154-4.0839-.2898l-.0352.241c-2.0922 2.2144-4.657 4.4122-6.9017 4.8433 0 0 3.616 4.3047.1221 6.0516" fill="#a57939"/><g><path d="M41.9888 27c0 1.1045-.8965 2-2 2s-2-.8955-2-2c0-1.1035.8965-2 2-2s2 .8965 2 2m-8 0c0 1.1045-.8965 2-2 2s-2-.8955-2-2c0-1.1035.8965-2 2-2s2 .8965 2 2m1.9998 10.0024c-1.1518 0-2.3037-.2861-3.4472-.8579-.4942-.2471-.6944-.8477-.4473-1.3418.2466-.4936.8462-.6943 1.3418-.4473 1.7178.8594 3.3877.8594 5.1055 0 .4946-.247 1.0947-.0463 1.3418.4473.247.4941.0468 1.0947-.4473 1.3418-1.1436.5718-2.2954.8579-3.4473.8579z"/><path fill="none" stroke="#000" stroke-miterlimit="10" stroke-width="2" d="M24.9486 31.6055c1.1736 6.2639 5.671 10.9285 11.04 10.9285 5.2521 0 9.6702-4.4636 10.9587-10.5216"/><path fill="none" stroke="#000" stroke-linecap="round" stroke-linejoin="round" stroke-miterlimit="10" stroke-width="2" d="M16.9287 57.8528s-2-13 10-13c3.1919 2.1279 5.9264 3.5984 9 3.5921h-.125c3.0736.0063 5.8082-1.4642 9-3.5921 12 0 10 13 10 13"/><path fill="none" stroke="#000" stroke-linecap="round" stroke-linejoin="round" stroke-miterlimit="10" stroke-width="2" d="M50.3761 57.8528c-5.4754-7.6615-12.4403-1.6678-14.4394-.3618-1.9991-1.306-8.9639-7.2997-14.4393.3618m24.0835-38.9969s-3.6254 1.9295-9.8462 1.9295-9.8484-1.9295-9.8484-1.9295m5.7293 2.2807c-2.0922 2.2144-4.6569 4.4122-6.9016 4.8433 0 0 3.6159 4.3047.122 6.0516-3.4939 1.747-2.5533 4.9134-1.0247 5.2409m16.3478-16.1358c2.0922 2.2144 4.6569 4.4122 6.9016 4.8433 0 0-3.6159 4.3047-.122 6.0516 3.4939 1.747 2.5533 4.9134 1.0247 5.2409"/><path fill="none" stroke="#000" stroke-linecap="round" stroke-linejoin="round" stroke-miterlimit="10" stroke-width="2" d="M21.4974 25s.5545-13.4055 14.3666-13.4055 14.2706 13.9461 14.2706 13.9461M30.816 11.5253c0-2.7614 2.2386-5 5-5s5 2.2386 5 5M14.0326 51.2858c-7 0 7.4648-26.2858 7.4648-26.2858s-.4777 3.23.4 4.9148"/><path fill="none" stroke="#000" stroke-linecap="round" stroke-linejoin="round" stroke-miterlimit="10" stroke-width="2" d="M57.2994 51.2858c7 0-7.2248-26.2858-7.2248-26.2858s.4778 3.23-.4 4.9148"/></g></svg>