<svg xmlns="http://www.w3.org/2000/svg" role="img" viewBox="14.59 -0.03 42.44 60.06"><title>1F482-1F3FD.svg</title><path fill="#EA5A47" d="M54.9199 58.9415s4.011-14.0016-10.3-14.8974c-3.1919 2.1193-5.9264 3.5838-9 3.5775h.125c-3.0736.0063-5.8082-1.4582-9-3.5775-12 0-10 14.8974-10 14.8974"/><path fill="#D22F27" d="M45.3616 44.0895c-3.1127 2.0751-4.9834 3.2404-8.9725 3.8183 12.8266.404 12.8266 7.1094 13.5749 11.0371h5.0206s2.1602-14.8554-9.623-14.8554z"/><path fill="#FFF" d="M38 52.061h-4.183l.3 6.882H37.8z"/><path fill="#3F3F3F" d="M24.8721 23.026h21.2725V9.5862c0-4.0604-3.2916-7.3521-7.352-7.3521h-6.5685c-4.0604 0-7.352 3.2917-7.352 7.3521V23.026zm19.9438 21.9173c1.19 0 2.24.13 3.17.36-7.49 9.31-18.82 7.44-24.21 0 .93-.23 1.97-.36 3.16-.36 3.16 2.09 5.86 3.55 8.88 3.59h.12c3.02-.04 5.73-1.5 8.88-3.59z"/><g><path fill="#c19a65" d="M47.2076 28.8665c0-2.234-.4439-4.3435-1.2315-6.2084l-20.5866.3675c-.694 1.7727-1.082 3.7525-1.082 5.841 0 .949.0801 1.8756.2326 2.7704 1.0677 6.2642 5.4904 10.9764 11.5946 10.9764s10.2669-5.1983 10.8175-10.8467c.1674-.935.2554-1.9053.2554-2.9002z"/></g><g><path d="M41.8801 27.0871c0 1.1045-.8965 2-2 2s-2-.8955-2-2c0-1.1035.8965-2 2-2s2 .8965 2 2m-8 0c0 1.1045-.8965 2-2 2s-2-.8955-2-2c0-1.1035.8965-2 2-2s2 .8965 2 2M35.88 37.0895c-1.1519 0-2.3037-.2861-3.4473-.8579-.4941-.2471-.6943-.8477-.4472-1.3418.2466-.4937.8462-.6943 1.3418-.4473 1.7177.8594 3.3877.8594 5.1054 0 .4947-.247 1.0948-.0464 1.3418.4473.2471.4941.0469 1.0947-.4472 1.3418-1.1436.5718-2.2954.8579-3.4473.8579z"/><path fill="none" stroke="#000" stroke-linecap="round" stroke-linejoin="round" stroke-miterlimit="10" stroke-width="2" d="M16.9359 57.9433s-1.62-10.56 6.84-12.64c.93-.23 1.97-.36 3.16-.36 3.16 2.09 5.86 3.55 8.88 3.59h.12c3.02-.04 5.73-1.5 8.88-3.59 1.19 0 2.24.13 3.17.36 8.45 2.09 6.83 12.64 6.83 12.64m-31.04-12.64c5.39 7.44 16.72 9.31 24.21 0"/><path d="M34.2207 58.9531c-.5527 0-1-.4472-1-1v-6.4013c0-.5528.4473-1 1-1s1 .4472 1 1v6.4013c0 .5528-.4473 1-1 1zm3.5586 0c-.5527 0-1-.4472-1-1v-6.4326c0-.5527.4473-1 1-1s1 .4473 1 1v6.4326c0 .5528-.4473 1-1 1zm8.665-34.9272H25.1719c-.5528 0-1-.4478-1-1V9.5864c0-4.6054 3.747-8.3525 8.3525-8.3525h6.5684c4.6054 0 8.3515 3.7471 8.3515 8.3525v13.4395c0 .5522-.4472 1-1 1zm-20.2724-2h19.2724V9.5864c0-3.5029-2.8496-6.3525-6.3515-6.3525h-6.5684c-3.5029 0-6.3525 2.8496-6.3525 6.3525v12.4395zm15.7039 5.0533c0 1.1045-.8965 2-2 2s-2-.8955-2-2c0-1.1035.8965-2 2-2s2 .8965 2 2m-8 0c0 1.1045-.8965 2-2 2s-2-.8955-2-2c0-1.1035.8965-2 2-2s2 .8965 2 2m1.9999 10.0025c-1.1519 0-2.3037-.2862-3.4473-.8579-.4941-.2471-.6943-.8477-.4472-1.3418.2465-.4937.8461-.6944 1.3418-.4473 1.7177.8594 3.3876.8594 5.1054 0 .4947-.2471 1.0947-.0464 1.3418.4473.2471.4941.0469 1.0947-.4472 1.3418-1.1436.5717-2.2955.8579-3.4473.8579z"/><path d="M35.876 43.6133c-6.8037 0-12.3389-6.8067-12.3389-15.1734 0-1.8813.2764-3.7172.8203-5.4565.1651-.5264.7227-.8203 1.253-.6558.5263.1651.8203.7261.6552 1.2535-.4834 1.5454-.7285 3.1801-.7285 4.8588 0 7.2642 4.6377 13.1734 10.3389 13.1734 5.7002 0 10.3379-5.9092 10.3379-13.1734 0-1.0756-.1016-2.142-.3018-3.1699-.1094-.563-.251-1.1255-.4209-1.6723-.1641-.5274.1309-1.0879.6582-1.252.5313-.165 1.0889.1314 1.252.6582.1914.6167.3506 1.2505.4736 1.8843.2246 1.1528.3389 2.3481.3389 3.5517 0 8.3667-5.5352 15.1734-12.3379 15.1734z"/><path fill="none" stroke="#000" stroke-linecap="round" stroke-linejoin="round" stroke-miterlimit="10" stroke-width="2" d="M17.7153 44.4632c1.5814-1.107 3.6505-1.9636 6.3522-2.3986m30.2172 2.3986c-1.5814-1.107-3.6505-1.9636-6.3522-2.3986"/></g></svg>