<svg xmlns="http://www.w3.org/2000/svg" role="img" viewBox="21.01 3.76 31.10 64.35"><title>1F484.svg</title><g id="color"><path fill="#d0cfce" d="M22.71 47.807H50V67H22.71z"/><path fill="#9b9b9a" d="M41 42.609L41 67 50 67 50 43 41 42.609z"/><path fill="#d0cfce" d="M22.71 42.609H50V47.807H22.71z"/><path fill="#ea5a47" d="m26.9084,42.4109h17.8936V15.3193s-1-10.396-17.8936-9.0965v36.1881Z"/><path fill="#d22f27" d="m41,37V10c1.8396,2.088,2.5722,2.5014,3.3283,4.8809l.7672,22.9155-.0435,4.6145h-4.0544l.0024-5.4109Z"/><path fill="#d22f27" d="m44.0352,15.4425c-1.0629,1.6832-5.3483.8857-9.5717-1.7813-4.0879-2.5814-5.6047-4.5634-5.5892-6.8031.0015-.2225.1644-.4295.3857-.4523.4209-.0435,1.0407.2614,1.7039.2287,2.5443-.3157,5.8424.5623,8.0345,1.892,4.2233,2.6671,5.0539,5.65,5.0367,6.916Z"/><path fill="none" stroke="#fff" stroke-linecap="round" stroke-miterlimit="10" stroke-width="2" d="M32.5 18.5L32.5 31"/></g><g id="line" fill="none" stroke="#000" stroke-width="2"><path stroke-linecap="round" stroke-linejoin="round" d="M23.328 66L23.328 42.609 29.12 42.609 50 42.609 50 66M27.9084 38.5121V6.2228c15.4216-1.9106 17.0916 9.0965 17.0916 9.0965l-.1033 23.0667"/><path stroke-miterlimit="10" d="M23.328 48.327L50 48.327"/><path stroke-linecap="round" stroke-linejoin="round" d="m32,11c2.3074,2.6871,5.4995,4.4605,9,5"/></g></svg>