<svg xmlns="http://www.w3.org/2000/svg" role="img" viewBox="10.75 8.38 51.49 51.87"><title>1F489.svg</title><g id="color"><path fill="#fff" fill-rule="evenodd" stroke-linecap="round" stroke-linejoin="round" stroke-miterlimit="10" stroke-width=".1" d="m45.25-20.36h9.591v19.33h-9.591z" transform="rotate(45)"/><path fill="#d22f27" d="m48.52 10.64h3.608v3.691h-3.608z" transform="rotate(45)"/><path fill="#d0cfce" d="M47.94 -29.98H52.583V-19.79H47.94z" transform="rotate(45)"/><path fill="#d22f27" d="m32.77 31.37 6.738 6.681-8.252 8.252-6.782-6.782z"/></g><g id="line" fill="none" stroke="#000" stroke-linecap="round" stroke-linejoin="round" stroke-width="2"><path d="m45.25-20.36h9.591v31.01h-9.591z" transform="rotate(45)"/><path d="M48.52 10.64H52.128V14.331H48.52z" transform="rotate(45)"/><path d="M58.61 15.46l-7.123 7.123-3.283-3.283 7.108-7.108M24.95 46.21L12.8 58.37M41.07 32.29L43.16 34.37M43.93 27.18L47.14 30.39"/><path d="m45.25-1.03h9.591v11.67h-9.591z" transform="rotate(45)"/><path d="m53.57 10.43 6.744 6.744"/></g></svg>