<svg xmlns="http://www.w3.org/2000/svg" role="img" viewBox="14.76 3.88 42.48 58.11"><title>1F486-1F3FC-200D-2640-FE0F.svg</title><path fill="#92d3f5" d="M16.9925 61v-3.2508c0-5.4116 5.0078-9.7524 10-9.7524q9 8.127 18 0c4.9941 0 10 4.3408 10 9.7524V61"/><g fill="#debb90"><path d="M44.6946 23.3576a9.2239 9.2239 0 0 0 1.3607 5.3614 16.57 16.57 0 0 1 .9372 5.2778c0 5-5.127 11-11.0635 11-6.0635 0-11-6-11-11a7.6381 7.6381 0 0 1 1.0635-4c1-2 1.1426-5.5969 1.4658-6.6594l3.2471-2.1117a15.453 15.453 0 0 1 2.9292-1.9757c2.1993-1.228 3.2524-1.098 4.8139-.159a20.2154 20.2154 0 0 1 3.1015 2.3775z"/><path d="M54.9925 4.9968c0 3-1 11-1 11v12c-1 4-4 4-4 4 0-6-3-12-3-12a14.6523 14.6523 0 0 0-3.3408 4.1714c-1.4863 2.4067-3.6592.8286-2.6592-1.1714.8379-1.6758 3.0469-5.62 4-7a7.4948 7.4948 0 0 1 4-3v-8m-32 0c0 3 1 11 1 11v12c1 4 4 4 4 4 0-6 3-12 3-12a14.6523 14.6523 0 0 1 3.3408 4.1714c1.4863 2.4067 3.6592.8286 2.6592-1.1714-.8379-1.6758-3.0469-5.62-4-7a7.4948 7.4948 0 0 0-4-3v-8"/></g><path fill="#fcea2b" d="M52.3289 30.98s-2.4686 2.1946-3.8364-7.625l-1.8712-2.6867-4.7557 3.479s-1.138-4.5181 4.2231-9.172l-.2407-.75c-4.0625-3.1455-6.0342-2.77-9.8867-2.77s-6.49-.104-9.6563 2.7085l.1878 1.38c6.905 7.2 3.3728 8.844 3.3728 8.844l-4.72-3.7075-3.3683 10.9042L19.98 31.01c-3.62 1.5193-6.5943 15.9684 2.3277 18.6461l4.6847-1.6594 9.1367 4.0684 8.8633-4.0684 4.3552 1.0019c2.0033 2.195 10.6843-11.9978 2.9813-18.0186zM37.16 44.91s-15.4342 2.0677-10.3023-17.3216a7.348 7.348 0 0 1 2.19-3.32s3.118 1.793 2.4273-2.7153a11.4 11.4 0 0 1 2.877-2.0621l1.64-1.7918 1.6622 1.6684a8.7577 8.7577 0 0 1 3.0836 2.4031s-1.4465 2.8 2.3712 2.7637a6.2761 6.2761 0 0 1 2.0939 3.4624S50.9154 43.2536 37.16 44.91z"/><path d="M41.8655 29.9968a2 2 0 1 1-2-2 2 2 0 0 1 2 2m-8 0a2 2 0 1 1-2-2 2 2 0 0 1 2 2"/><path fill="none" stroke="#000" stroke-linecap="round" stroke-linejoin="round" stroke-width="2" d="M29.1517 13.3967a15.8 15.8 0 0 1 6.8408-1.4 15.9714 15.9714 0 0 1 6.5928 1.2847M16.9925 59.9968v-3c0-4.9941 5.0078-9 10-9q9 7.5 18 0c4.9941 0 10 4.0059 10 9v3"/><path d="M41.8655 29.9968a2 2 0 1 1-2-2 2 2 0 0 1 2 2m-8 0a2 2 0 1 1-2-2 2 2 0 0 1 2 2"/><path fill="none" stroke="#000" stroke-linecap="round" stroke-linejoin="round" stroke-width="2" d="M35.9925 17.9963a10.6183 10.6183 0 0 0-2.457.8594m-7.543 8.249a40.3135 40.3135 0 0 0-1.0635 6.8921c0 5 4.9365 11 11 11 5.9365 0 11.0635-6 11.0635-11a35.9127 35.9127 0 0 0-1-6.8921m-13 10.8921a6.5535 6.5535 0 0 0 6 0"/><path fill="none" stroke="#000" stroke-linecap="round" stroke-linejoin="round" stroke-width="2" d="M16.9925 5.9968c0 3 1 10 1 10v12c1 4 4 4 4 4 0-6 3-12 3-12l4 4c1 1 3 0 2-2a66.7658 66.7658 0 0 0-4-6 7.4948 7.4948 0 0 0-4-3v-7m32.2734 0c0 3-1 10-1 10v12c-1 4-4 4-4 4 0-6-3-12-3-12l-4 4c-1 1-3 0-2-2a66.7658 66.7658 0 0 1 4-6 7.4952 7.4952 0 0 1 4-3v-7m-13.2734 11.999a7.2883 7.2883 0 0 1 2.334.6675m15.4487 15.3305a11.5986 11.5986 0 0 1-1.4463 11.6631m-33.5673.2022c-3.0013-4.7215-1.5714-8.3817.0427-12.0568"/></svg>