<svg xmlns="http://www.w3.org/2000/svg" role="img" viewBox="1.68 12.68 68.51 45.01"><title>1F48C.svg</title><path fill="#FFF" d="M65.0856 55.5H6.8775C5.2883 55.5 4 54.2117 4 52.6225V17.2483C4 16.0066 5.0066 15 6.2483 15h59.4459C66.9677 15 68 16.0323 68 17.3058v35.2799c0 1.6095-1.3048 2.9143-2.9144 2.9143z"/><path fill="#EA5A47" d="M47.0637 33.5518c0-3.2502-2.6348-5.885-5.885-5.885-2.2378 0-4.1835 1.2493-5.1788 3.0883-.9952-1.839-2.9409-3.0883-5.1788-3.0883-3.2502 0-5.885 2.6348-5.885 5.885 0 1.3982.4898 2.6808 1.3043 3.6905l-.002.0016L36 49.3421l9.7615-12.0983-.002-.0016c.8144-1.0097 1.3042-2.2922 1.3042-3.6904z"/><g><path fill="none" stroke="#000" stroke-linecap="round" stroke-linejoin="round" stroke-miterlimit="10" stroke-width="2" d="M65.0856 55.5H6.8775C5.2883 55.5 4 54.2117 4 52.6225V17.2483C4 16.0066 5.0066 15 6.2483 15h59.4459C66.9677 15 68 16.0323 68 17.3058v35.2799c0 1.6095-1.3048 2.9143-2.9144 2.9143z"/><path fill="none" stroke="#000" stroke-linecap="round" stroke-miterlimit="10" stroke-width="2" d="M5 16l15 16m47-16L52 32"/><path fill="none" stroke="#000" stroke-linejoin="round" stroke-miterlimit="10" stroke-width="2" d="M47.0637 33.5518c0-3.2502-2.6348-5.885-5.885-5.885-2.2378 0-4.1835 1.2493-5.1788 3.0883-.9952-1.839-2.9409-3.0883-5.1788-3.0883-3.2502 0-5.885 2.6348-5.885 5.885 0 1.3982.4898 2.6808 1.3043 3.6905l-.002.0016L36 49.3421l9.7615-12.0983-.002-.0016c.8144-1.0097 1.3042-2.2922 1.3042-3.6904z"/></g></svg>