<svg xmlns="http://www.w3.org/2000/svg" role="img" viewBox="10.13 13.38 51.61 45.11"><title>1F48B.svg</title><path fill="#D22F27" d="M59.5568 52.3009c.0023-.0038.0034-.008.0058-.0118.0024-.004.0038-.0086.0063-.0126.3557-.5929.3272-1.306-.0084-1.8614-2.3758-5.3476-2.4708-10.5429-2.5386-14.7272-.0692-4.2642-.1243-7.6324-2.4436-9.7216-1.5084-1.3593-3.6639-1.866-6.7806-1.5912-2.0898.1883-2.3516.4517-3.3919-.1941s-.9204-.9973-1.6799-2.9566c-1.1463-2.9441-2.5625-4.6637-4.4577-5.4131-2.8893-1.1421-5.9077.3033-9.7293 2.1327-3.7707 1.8059-8.4563 4.0366-14.325 4.2904-.6841-.0849-1.3929.1982-1.7732.8108-.5718.921-.1461 2.0778.599 2.5454.4679.6741.9501 3.2438 1.3393 5.3361 1.2839 6.8908 3.2244 17.3045 11.7939 22.6244s18.7632 2.4391 25.5084.5326c2.0479-.5794 4.5646-1.2873 5.3764-1.167.8709.5349 1.9975.192 2.4991-.6158z"/><path fill="#FFF" d="M38.3683 33.7525s-1.0207-2.2751-2.3856-3.1224c-1.522-.9448-2.7501-.6102-4.5924.0536-1.2572.4516-2.6185.9414-4.2992.7309-.5597-.0701-.8772.6307-.4723 1.0234 3.4626 3.3568 5.1926 7.5546 5.8325 9.4125.0932.2708.2895.502.4996.6284.2065.1323.5008.2056.7848.169 1.949-.2507 6.4785-.5625 11.023 1.0515.5316.1887 1.0188-.4068.7077-.8773-.9343-1.4129-1.0992-2.8502-1.2522-4.1772-.2224-1.9456-.4673-3.1946-1.9893-4.1395-1.3649-.8474-3.8566-.7529-3.8566-.7529z"/><g fill="none" stroke="#000" stroke-miterlimit="10" stroke-width="2"><path d="M59.5568 52.3009c.0023-.0038.0034-.008.0058-.0118.0024-.004.0038-.0086.0063-.0126.3557-.5929.3272-1.306-.0084-1.8614-2.3758-5.3476-2.4708-10.5429-2.5386-14.7272-.0692-4.2642-.1243-7.6324-2.4436-9.7216-1.5084-1.3593-3.6639-1.866-6.7806-1.5912-2.0898.1883-2.3516.4517-3.3919-.1941s-.9204-.9973-1.6799-2.9566c-1.1463-2.9441-2.5625-4.6637-4.4577-5.4131-2.8893-1.1421-5.9077.3033-9.7293 2.1327-3.7707 1.8059-8.4563 4.0366-14.325 4.2904-.6841-.0849-1.3929.1982-1.7732.8108-.5718.921-.1461 2.0778.599 2.5454.4679.6741.9501 3.2438 1.3393 5.3361 1.2839 6.8908 3.2244 17.3045 11.7939 22.6244s18.7632 2.4391 25.5084.5326c2.0479-.5794 4.5646-1.2873 5.3764-1.167.8709.5349 1.9975.192 2.4991-.6158z"/><path d="M38.3683 33.7525s-1.0207-2.2751-2.3856-3.1224c-1.522-.9448-2.7501-.6102-4.5924.0536-1.2572.4516-2.6185.9414-4.2992.7309-.5597-.0701-.8772.6307-.4723 1.0234 3.4626 3.3568 5.1926 7.5546 5.8325 9.4125.0932.2708.2895.502.4996.6284.2065.1323.5008.2056.7848.169 1.949-.2507 6.4785-.5625 11.023 1.0515.5316.1887 1.0188-.4068.7077-.8773-.9343-1.4129-1.0992-2.8502-1.2522-4.1772-.2224-1.9456-.4673-3.1946-1.9893-4.1395-1.3649-.8474-3.8566-.7529-3.8566-.7529z"/></g></svg>