<svg xmlns="http://www.w3.org/2000/svg" role="img" viewBox="10.44 10.44 55.38 50.13"><title>1F49D.svg</title><path fill="#EA5A47" d="M60.5 25c0-7.4438-6.0557-13.5-13.5-13.5-4.4033 0-8.4844 2.1377-11 5.6724C33.4844 13.6377 29.4038 11.5 25 11.5c-7.4438 0-13.5 6.0562-13.5 13.5 0 2.7285.8403 5.4082 2.3833 7.6504l-.0347.0273 20.866 25.8619h2.5708l20.2273-25.0695.668-.8369-.0352-.0244C59.6699 30.3755 60.5 27.7119 60.5 25z"/><path fill="#FCEA2B" d="M60.3388 24.5366c-2.9255 0-8.1155 2.8499-10.701 5.6249.4932.5277.7996 1.2567.7996 2.0591-.0285 3.7067.0671 3.8492-.093 4.4872 6.8388 2.1218 8.5475 7.3849 11.9167 2.9132 3.8447-5.1031 1.694-15.0844-1.9223-15.0844z"/><path fill="#F1B31C" d="M50.4356 32.4892c2.7474-2.5023 7.2539-4.8396 9.9033-4.8396 1.9801 0 3.5207 2.9925 3.8784 6.5382.4857-4.7077-1.3334-9.6513-3.8784-9.6513-2.9255 0-8.1155 2.8499-10.701 5.6249.4932.5277.7996 1.2567.7996 2.0591-.0008.092-.0014.1811-.0019.2687z"/><path fill="#FCEA2B" d="M32.4731 39.621c3.3692 4.4717 5.0779-.7915 11.9167-2.9132-.1601-.6379-.0645-.7804-.093-4.4872 0-.8024.3064-1.5315.7996-2.0591-2.5855-2.7751-7.7755-5.6249-10.701-5.6249-3.6162 0-5.767 9.9813-1.9223 15.0844z"/><path fill="#F1B31C" d="M44.2987 32.4892c-2.7474-2.5023-7.2539-4.8396-9.9033-4.8396-1.9801 0-3.5207 2.9925-3.8784 6.5382-.4857-4.7077 1.3334-9.6513 3.8784-9.6513 2.9255 0 8.1155 2.8499 10.701 5.6249-.4932.5277-.7996 1.2567-.7996 2.0591.0007.092.0013.1811.0019.2687z"/><path fill="#FCEA2B" d="M44.2245 37.1334c-.7336.2654-1.3985.5799-2.0064.9181-1.3036 1.734-3.6129 5.2131-6.0849 10.7513-.197.4413.1046.9701.5041.8828l2.8449-.622c.4127-.0902.8258.1557 1.0284.6122l1.2813 2.8876c.2242.5053.8301.4045.9396-.1564.5556-2.8469 1.8298-8.9941 3.3739-13.1395-.9105-.1938-1.6445-1.0381-1.8809-2.1341zm8.1718.9517c-.627-.3591-1.3017-.6873-2.0316-.9518-.2364 1.096-.9705 1.9404-1.881 2.134 1.5442 4.1454 2.8184 10.2926 3.374 13.1395.1095.5609.7154.6617.9396.1564l1.2814-2.8876c.2026-.4564.6157-.7024 1.0284-.6122l2.8449.622c.3996.0873.7011-.4415.5041-.8828-2.4562-5.5027-4.7518-8.9723-6.0598-10.7175z"/><path fill="#FCEA2B" d="M47.4948 28.8121h-.9906c-1.318 0-2.3902 1.4052-2.3902 3.1326v3.9211c0 1.7274 1.0722 3.1327 2.3902 3.1327h.9906c1.318 0 2.3902-1.4053 2.3902-3.1327v-3.9211c0-1.7274-1.0722-3.1326-2.3902-3.1326z"/><path fill="#F1B31C" d="M47.0547 35.8659v-3.9211c0-1.3004-.6077-2.4179-1.4703-2.8911.2833-.1554.594-.2416.9198-.2416h.9906c1.318 0 2.3902 1.4052 2.3902 3.1326v3.9211c0 1.7274-1.0722 3.1327-2.3902 3.1327h-.9906c-.3258 0-.6365-.0862-.9198-.2416.8626-.4731 1.4703-1.5906 1.4703-2.891z"/><path fill="none" d="M15.556 32.264h16.89"/><g><path fill="none" stroke="#000" stroke-miterlimit="10" stroke-width="2" d="M49.8349 36.7943c6.8388 2.1218 8.5475 7.3849 11.9167 2.9132 3.4589-4.591 2.0652-13.1305-.8826-14.798-.3288-.186-.6769-.2865-1.0397-.2865-1.3081 0-3.069.5698-4.8473 1.4479h-.0001c-2.1988 1.0857-4.4243 2.6428-5.8537 4.177"/><path fill="none" stroke="#000" stroke-linecap="round" stroke-linejoin="round" stroke-miterlimit="10" stroke-width="2" d="M44.2245 36.7942c-.7336.2654-1.3985.5799-2.0064.9181-1.3036 1.734-3.6129 5.2131-6.0849 10.7513-.197.4413.1046.9701.5041.8828l2.8449-.622c.4127-.0902.8258.1557 1.0284.6122l1.2813 2.8876c.2242.5053.8301.4045.9396-.1564.5556-2.8469 1.8298-8.9941 3.3739-13.1395-.9105-.1938-1.6445-1.0381-1.8809-2.1341zm7.642.9519c-.627-.3591-1.3017-.6873-2.0316-.9518-.2364 1.096-.9705 1.9404-1.881 2.134 1.5442 4.1454 2.8184 10.2926 3.374 13.1395.1095.5609.7154.6617.9396.1564l1.2814-2.8876c.2026-.4564.6157-.7024 1.0284-.6122l2.8449.622c.3996.0873.7011-.4415.5041-.8828-2.4562-5.5027-4.7518-8.9723-6.0598-10.7175z"/><path fill="none" stroke="#000" stroke-miterlimit="10" stroke-width="2" d="M47.4948 28.8121h-.9906c-1.318 0-2.3902 1.4052-2.3902 3.1326v3.9211c0 1.7274 1.0722 3.1327 2.3902 3.1327h.9906c1.318 0 2.3902-1.4053 2.3902-3.1327v-3.9211c0-1.7274-1.0722-3.1326-2.3902-3.1326z"/><path fill="none" stroke="#000" stroke-miterlimit="10" stroke-width="2" d="M44.3718 29.8908c-2.5855-2.7751-7.2347-5.3542-10.1602-5.3542-3.6163 0-5.767 9.9814-1.9223 15.0845 3.3692 4.4717 5.0779-.7915 11.9167-2.9132"/><path fill="none" stroke="#000" stroke-linecap="round" stroke-linejoin="round" stroke-miterlimit="10" stroke-width="2" d="M58.6477 20.4541C56.8293 15.7982 52.2998 12.5 47 12.5c-4.7533 0-8.8861 2.6536-11 6.5598C33.8861 15.1536 29.7533 12.5 25 12.5c-6.9036 0-12.5 5.5964-12.5 12.5 0 2.9699 1.0403 5.6942 2.7703 7.8387l-.0043.0034L36 58.5397l3.1014-3.8438"/></g></svg>