<svg xmlns="http://www.w3.org/2000/svg" role="img" viewBox="8.45 13.45 54.60 49.48"><title>1F494.svg</title><g fill="#EA5A47"><path d="M49.5657 15.6092c-4.3218 0-8.187 2.3611-10.1887 6.1814L36 29.678l7 6.0169-6 8.4238L42 51l-3.5852 9.1622 20.462-26.2371c1.4419-1.9653 2.2134-4.3222 2.2134-6.7934 0-6.3535-5.17-11.5225-11.5245-11.5225z"/><path d="M37.0994 50.9843l-5.0534-6.9615 5.9387-8.0457-7.0457-5.9463s1.6215-7.5485 1.455-7.8939c-1.9444-4.0263-5.9185-6.5278-10.3711-6.5278-6.3535 0-11.5225 5.169-11.5225 11.5225 0 2.1167.5776 4.185 1.6714 5.9814l.6602.9737 20.4624 26.2299.3502-.449 3.4548-8.8833z"/></g><g fill="none" stroke="#000" stroke-miterlimit="10" stroke-width="2"><path stroke-linecap="round" stroke-linejoin="round" d="M49.5657 15.6092c-4.3218 0-8.187 2.3611-10.1887 6.1814L36 29.678l7 6.0169-6 8.4238L42 51l-3.5852 9.1622 20.462-26.2371c1.4419-1.9653 2.2134-4.3222 2.2134-6.7934 0-6.3535-5.17-11.5225-11.5245-11.5225z"/><path d="M37.0994 50.9843l-5.0534-6.9615 5.9387-8.0457-7.0457-5.9463s1.6215-7.5485 1.455-7.8939c-1.9444-4.0263-5.9185-6.5278-10.3711-6.5278-6.3535 0-11.5225 5.169-11.5225 11.5225 0 2.1167.5776 4.185 1.6714 5.9814l.6602.9737 20.4624 26.2299.3502-.449 3.4548-8.8833z"/></g></svg>