<svg xmlns="http://www.w3.org/2000/svg" role="img" viewBox="4.86 1.36 65.53 65.65"><title>1F498.svg</title><path fill="#FFA7C0" d="M60.5 25c0-7.4438-6.0557-13.5-13.5-13.5-4.4033 0-8.4844 2.1377-11 5.6724C33.4844 13.6377 29.4038 11.5 25 11.5c-7.4438 0-13.5 6.0562-13.5 13.5 0 2.7285.8403 5.4082 2.3833 7.6504l-.0347.0273 20.866 25.8619h2.5708l20.2273-25.0695.668-.8369-.0352-.0244C59.6699 30.3755 60.5 27.7119 60.5 25z"/><path fill="#61B2E4" d="M19.821 52.179l.275 6.725-5.989 5.989-.275-6.725 5.989-5.989"/><path fill="#92D3F5" d="M7.882 57.668h6.45l5.989-5.989h-6.45l-5.989 5.989M68.18 3.628L66.924 8.48l-1.255 4.851-3.596-3.596-3.596-3.596 4.851-1.255z"/><g><path fill="none" stroke="#000" stroke-linecap="round" stroke-linejoin="round" stroke-miterlimit="10" stroke-width="2" d="M28.2632 48.9508L36 58.5397l20.7339-25.6975-.0043-.0034C58.4597 30.6942 59.5 27.9699 59.5 25c0-6.9036-5.5964-12.5-12.5-12.5-4.7533 0-8.8861 2.6536-11 6.5598C33.8861 15.1536 29.7533 12.5 25 12.5c-6.9036 0-12.5 5.5964-12.5 12.5 0 2.9699 1.0403 5.6942 2.7703 7.8387l-.0043.0034 7.8527 9.7326"/><path fill="none" stroke="#000" stroke-linecap="round" stroke-linejoin="round" stroke-miterlimit="10" stroke-width="2" d="M34.5 37.5L21 51M62.092 9.908L58 14M20.596 51.454h-6.95l-6.453 6.453h6.95v6.95l6.453-6.453zM68.18 3.628L66.924 8.48l-1.255 4.851-3.596-3.596-3.596-3.596 4.851-1.255z"/></g></svg>