<svg xmlns="http://www.w3.org/2000/svg" role="img" viewBox="16.72 2.72 38.43 66.43"><title>1F492.svg</title><path fill="#D0CFCE" d="M44 34V19.4352l-7.2941-5.2163c-.4081-.2919-1.0039-.2919-1.412 0L28 19.4352V34"/><path fill="#FFF" stroke-linecap="round" stroke-linejoin="round" stroke-miterlimit="10" stroke-width="2" d="M53 41.4945v24.5087c0 .5505-.4006.9968-.8947.9968H19.8947c-.4941 0-.8947-.4463-.8947-.9968V41.4945c0-.2897.1131-.565.3098-.7543l16.1053-15.4978c.3359-.3232.8338-.3232 1.1698 0l16.1053 15.4978c.1967.1893.3098.4646.3098.7543z"/><path fill="#A57939" stroke-linecap="round" stroke-miterlimit="10" stroke-width="2" d="M41 58.943c0-3.8509-3.3484-6.1256-4.5649-6.8249-.274-.1575-.5962-.1575-.8702 0C34.3483 52.8174 31 55.0921 31 58.943v7.0894c0 .5344.4092.9676.914.9676h8.172c.5048 0 .914-.4332.914-.9676V58.943z"/><path fill="#EA5A47" stroke-linecap="round" stroke-linejoin="round" stroke-width="2" d="M35.9997 45.8252l-4.8692-6.2438-.1569-.232c-.8207-1.3515-.3904-3.1124.9611-3.9331 1.3516-.8207 3.1125-.3904 3.9332.9611.0479.0789.092.1601.1321.2433.6865-1.4244 2.3978-2.0225 3.8222-1.336 1.4243.6866 2.0224 2.3979 1.3359 3.8222-.0761.158-.1666.3086-.2703.45l-4.8881 6.2683z"/><g fill="none" stroke="#000" stroke-linecap="round" stroke-width="2"><path stroke-linejoin="round" stroke-miterlimit="10" d="M53 41.4945v24.5087c0 .5505-.4006.9968-.8947.9968H19.8947c-.4941 0-.8947-.4463-.8947-.9968V41.4945c0-.2897.1131-.565.3098-.7543l16.1053-15.4978c.3359-.3232.8338-.3232 1.1698 0l16.1053 15.4978c.1967.1893.3098.4646.3098.7543z"/><path stroke-linejoin="round" stroke-miterlimit="10" d="M43 27v-8.5648l-6.3823-5.2163c-.3571-.2919-.8784-.2919-1.2355 0L29 18.4352V27"/><path stroke-miterlimit="10" d="M36 13V5m-3.5 3h7M41 58.943c0-3.8509-3.3484-6.1256-4.5649-6.8249-.274-.1575-.5962-.1575-.8702 0C34.3483 52.8174 31 55.0921 31 58.943v7.0894c0 .5344.4092.9676.914.9676h8.172c.5048 0 .914-.4332.914-.9676V58.943z"/><path stroke-linejoin="round" d="M35.9997 45.8252l-4.8692-6.2438-.1569-.232c-.8207-1.3515-.3904-3.1124.9611-3.9331 1.3516-.8207 3.1125-.3904 3.9332.9611.0479.0789.092.1601.1321.2433.6865-1.4244 2.3978-2.0225 3.8222-1.336 1.4243.6866 2.0224 2.3979 1.3359 3.8222-.0761.158-.1666.3086-.2703.45l-4.8881 6.2683z"/></g></svg>