<svg xmlns="http://www.w3.org/2000/svg" role="img" viewBox="8.66 7.03 56.81 55.94"><title>1F4AE.svg</title><g fill="none" stroke="#000" stroke-linecap="round" stroke-linejoin="round" stroke-width="2"><path d="M46.92 17.2654a16.53957 16.53957 0 0 0-2.1057-7.1454l-2.1438 1.3618-1.333-2.256a16.54152 16.54152 0 0 0-5.2922 5.2433M14.2585 30.41a16.53907 16.53907 0 0 1-3.4311-6.6126l2.4895-.5028-.6013-2.55a16.5401 16.5401 0 0 1 7.4489.116m17.4724 35.6369a16.54028 16.54028 0 0 0 5.9559 4.475L44.5 58.6l2.4163 1.0138A16.5403 16.5403 0 0 0 48.03 52.248m9.9822-13.4858a16.53955 16.53955 0 0 0 5.4532-5.0757l-2.176-1.31 1.4232-2.2a16.53828 16.53828 0 0 0-7.0549-2.3932M21.4294 53.4844a16.54013 16.54013 0 0 1-7.4489.1165l.662-2.452-2.55-.601a16.5377 16.5377 0 0 1 3.4306-6.613M29.5691 32.7c-3.2222-2.6532-6.5311-7.3063-3.5375-15.3336l2.3115.9849h0"/><path d="M28.24 18.393h0l.9849-2.3115c7.7195 3.716 8.5562 9.364 8.07 13.51l.206-.0829c1.25-3.7348 4.334-7.9683 12.6227-8.1919l-.098 2.4333h0l2.4333.098c-.3168 5.736-4.122 10.6894-9.5825 12.474M29.5691 32.7c-3.4885-1.8278-8.5424-2.7863-14.6753 2.7938l1.7562 1.6874h0l-1.6872 1.7562c4.2018 3.9178 10.3775 4.8547 15.5522 2.3593"/><path d="M30.412 41.3381c-4.4006 3.4813-6.2347 9.2934-4.6293 14.67l2.3492-.706h0l.706 2.3492c12.1151-4.3965 8.8766-14.8233 8.8766-14.8233l.7211-.29s5.0513 9.5776 16.7732 4.5012l-1.015-2.2248h0l2.1833-1.118c-2.5966-4.9604-7.9238-7.8703-13.5007-7.3744"/></g><g fill="none" stroke="#D22F27" stroke-linecap="round" stroke-linejoin="round" stroke-width="2"><path d="M46.92 17.2654a16.53957 16.53957 0 0 0-2.1057-7.1454l-2.1438 1.3618-1.333-2.256a16.54152 16.54152 0 0 0-5.2922 5.2433M14.2585 30.41a16.53907 16.53907 0 0 1-3.4311-6.6126l2.4895-.5028-.6013-2.55a16.5401 16.5401 0 0 1 7.4489.116m17.4724 35.6369a16.54028 16.54028 0 0 0 5.9559 4.475L44.5 58.6l2.4163 1.0138A16.5403 16.5403 0 0 0 48.03 52.248m9.9822-13.4858a16.53955 16.53955 0 0 0 5.4532-5.0757l-2.176-1.31 1.4232-2.2a16.53828 16.53828 0 0 0-7.0549-2.3932M21.4294 53.4844a16.54013 16.54013 0 0 1-7.4489.1165l.662-2.452-2.55-.601a16.5377 16.5377 0 0 1 3.4306-6.613M29.5691 32.7c-3.2222-2.6532-6.5311-7.3063-3.5375-15.3336l2.3115.9849h0"/><path d="M28.24 18.393h0l.9849-2.3115c7.7195 3.716 8.5562 9.364 8.07 13.51l.206-.0829c1.25-3.7348 4.334-7.9683 12.6227-8.1919l-.098 2.4333h0l2.4333.098c-.3168 5.736-4.122 10.6894-9.5825 12.474M29.5691 32.7c-3.4885-1.8278-8.5424-2.7863-14.6753 2.7938l1.7562 1.6874h0l-1.6872 1.7562c4.2018 3.9178 10.3775 4.8547 15.5522 2.3593"/><path d="M30.412 41.3381c-4.4006 3.4813-6.2347 9.2934-4.6293 14.67l2.3492-.706h0l.706 2.3492c12.1151-4.3965 8.8766-14.8233 8.8766-14.8233l.7211-.29s5.0513 9.5776 16.7732 4.5012l-1.015-2.2248h0l2.1833-1.118c-2.5966-4.9604-7.9238-7.8703-13.5007-7.3744"/></g></svg>