<svg xmlns="http://www.w3.org/2000/svg" role="img" viewBox="2.58 9.21 67.21 53.46"><title>1F4A8.svg</title><path fill="#61B2E4" d="M55.0226 24.3487c-.3898.0001-.7744.0223-1.1547.0586-1.0062-3.2881-4.0639-5.6796-7.6814-5.6788-1.3943.0003-2.705.3568-3.8475.982-1.6049-4.7693-6.1041-8.2084-11.4143-8.2072-6.6537.0015-12.0464 5.3965-12.0449 12.0502.0001.5504.05 1.088.1216 1.6188L4 31.4967v11l14.8887 5.8841c-.0001.0239-.0035.047-.0035.071.0015 6.6537 5.3965 12.0464 12.0502 12.0449 4.8176-.001 8.962-2.8365 10.8885-6.9231 1.2585.8182 2.7574 1.2979 4.3704 1.2975 3.9024-.0009 7.1514-2.7856 7.8764-6.4755.3167.0249.634.0482.9571.0482 6.6537-.0015 12.0464-5.3965 12.0449-12.0502s-5.3964-12.0463-12.0501-12.0449z"/><path fill="#92D3F5" d="M55.4863 24.3487c-.3898.0001-.7744.0223-1.1547.0586-1.0062-3.2881-4.0639-5.6796-7.6814-5.6788-1.3943.0003-2.705.3568-3.8475.982-1.6049-4.7693-6.1041-8.2084-11.4143-8.2072-6.6537.0015-12.0464 5.3965-12.0449 12.0502.0001.5504.05 1.088.1216 1.6188l-3.9779 1.6927c2.7356 1.4296 4.8538 3.8796 5.8519 6.8455 1.1426-.6252 2.4532-.9817 3.8475-.982 3.6175-.0008 6.6752 2.3907 7.6814 5.6788.3804-.0363.7649-.0585 1.1547-.0586 6.6537-.0014 12.0487 5.3913 12.0502 12.045.0004 1.5325-.2968 2.9927-.8183 4.3412.457.0814.9229.1364 1.4035.1363 3.9024-.0009 7.1514-2.7856 7.8764-6.4755.3167.0249.634.0482.9571.0482 6.6537-.0015 12.0464-5.3965 12.0449-12.0502S62.14 24.3473 55.4863 24.3487z"/><g fill="none" stroke="#000" stroke-linecap="round" stroke-linejoin="round" stroke-miterlimit="10" stroke-width="2"><path d="M5 42.2734l14.3524 6.1074c-.0001.0239-.0035.047-.0035.071.0014 6.6537 5.3965 12.0464 12.0501 12.0449 4.8176-.001 8.962-2.8365 10.8885-6.9231 1.2585.8182 2.7574 1.2979 4.3704 1.2975 3.9024-.0009 7.1514-2.7856 7.8764-6.4755.3167.0249.634.0482.9571.0482 6.6537-.0015 12.0464-5.3965 12.0449-12.0502s-5.3963-12.0463-12.05-12.0449c-.3898.0001-.7744.0223-1.1547.0586-1.0062-3.2881-4.0639-5.6796-7.6814-5.6788-1.3943.0003-2.705.3568-3.8475.982-1.6049-4.7693-6.1041-8.2084-11.4143-8.2072-6.6537.0015-12.0464 5.3965-12.0449 12.0502.0001.5504.05 1.088.1216 1.6188L5 31.3276m0-5.8309l9-4s-1-5 4-8m-13 34l9 4s-1 5 4 8"/></g></svg>