<svg xmlns="http://www.w3.org/2000/svg" role="img" viewBox="7.84 11.34 53.69 49.19"><title>1F4A6.svg</title><path fill="#61B2E4" d="M34.7197 47.7793c-1.5285 3.0359-4.1723 5.4814-7.6302 6.6234-3.4578 1.142-7.0381.7521-10.0626-.7418-2.9899-1.5053-5.4468-4.1837-6.5888-7.6416-1.8044-5.4634 1.9518-14.5273 4.6645-21.0607.4406-1.1043.8696-2.128 1.2407-3.0943.8737.5552 1.8279 1.1221 2.8281 1.7121 6.0702 3.6327 14.4743 8.6422 16.2901 14.1402 1.142 3.4579.7521 7.0382-.7418 10.0627zm23.6391-28.6435c1.2807 2.4715 1.6342 5.3998.732 8.2423s-2.8796 5.031-5.3227 6.3207c-2.4341 1.2613-5.3907 1.6058-8.2333.7036-4.4913-1.4254-8.7024-8.2688-11.7352-13.2051-.5212-.8225-.9946-1.5985-1.4575-2.3086.7878-.3132 1.622-.6742 2.4937-1.0546 5.3244-2.2839 12.6826-5.4555 17.2023-4.0211 2.8425.9023 5.031 2.8797 6.3207 5.3228zm.7567 31.8949c-.0551 2.0123-.8567 3.9888-2.4228 5.4715-1.5662 1.4827-3.5836 2.1751-5.581 2.1357-1.9818-.0542-3.9732-.8715-5.4559-2.4377-2.3427-2.4745-2.611-8.2791-2.8016-12.4644-.0418-.7029-.0696-1.3597-.1139-1.9711.6081.0777 1.2624.1413 1.9471.2058 4.1686.4192 9.935.9889 12.2925 3.4791 1.4826 1.5662 2.175 3.5837 2.1356 5.5811z"/><path fill="#92D3F5" d="M20.3726 24.2963c-.4083-.2454-.8099-.4857-1.2012-.7198-1.0002-.59-1.9545-1.157-2.8281-1.7121-.3712.9662-.8001 1.99-1.2407 3.0942-2.7128 6.5334-6.4689 15.5974-4.6646 21.0607 1.142 3.4578 3.5989 6.1363 6.5889 7.6415 3.0245 1.4939 6.6048 1.8839 10.0626.7418 1.6939-.5594 3.1891-1.4351 4.4569-2.5363 2.1178-7.0326-5.3287-19.3595-11.1738-27.57zm15.507-6.9092c-.3553.1517-.704.3013-1.0439.4471-.8717.3804-1.7059.7415-2.4937 1.0546.463.7101.9363 1.4861 1.4575 2.3087 3.0329 4.9363 7.244 11.7797 11.7352 13.2051 2.8426.9022 5.7993.5576 8.2333-.7036 2.4431-1.2897 4.4205-3.4781 5.3227-6.3207.836-2.6343.5829-5.3372-.4763-7.6868-4.7486-2.6696-15.3447-2.683-22.7348-2.3044zM55.376 57.5027c.2383-6.0273-7.4263-12.5152-11.6592-15.627-.3361-.0347-.6629-.0709-.9766-.111.0443.6115.0721 1.2682.1138 1.9711.1906 4.1853.4589 9.9899 2.8016 12.4644 1.4827 1.5662 3.4741 2.3834 5.4559 2.4377 1.4743.029 2.958-.3435 4.2645-1.1352z"/><g fill="none" stroke="#000" stroke-linecap="round" stroke-linejoin="round" stroke-miterlimit="10" stroke-width="2"><path d="M34.7197 47.7793c-1.5285 3.0359-4.1723 5.4814-7.6302 6.6234-3.4578 1.142-7.0381.7521-10.0626-.7418-2.9899-1.5053-5.4468-4.1837-6.5888-7.6416-1.8044-5.4634 1.9518-14.5273 4.6645-21.0607.4406-1.1043.8696-2.128 1.2407-3.0943.8737.5552 1.8279 1.1221 2.8281 1.7121 6.0702 3.6327 14.4743 8.6422 16.2901 14.1402 1.142 3.4579.7521 7.0382-.7418 10.0627zm19.3227-33.0981c1.8757 1.0513 3.3489 2.6219 4.3163 4.4546 1.2807 2.4715 1.6342 5.3998.732 8.2423s-2.8796 5.031-5.3227 6.3207c-2.4341 1.2613-5.3907 1.6058-8.2333.7036-4.4913-1.4254-8.7024-8.2688-11.7352-13.2051-.5212-.8225-.9946-1.5985-1.4575-2.3086.7878-.3132 1.622-.6742 2.4937-1.0546 2.3743-1.0184 5.1529-2.2134 7.904-3.0977m9.6448-.8069c.5824.2066 1.1357.459 1.6579.7517m-2.0044-.8681c.1166.037.2321.0758.3465.1164m-2.3751-.4619c.722.0365 1.4026.1469 2.0287.3456m-2.4678-.3588c.148.0015.2944.0059.4391.0132m-1.5129.0222c.3657-.0267.7241-.039 1.0738-.0354m-2.1291.1481c.3576-.0495.7097-.0875 1.0553-.1127m-1.7366.2195c.229-.0399.4562-.0757.6813-.1068m-2.2299.4315c.5232-.1267 1.0405-.2361 1.5486-.3247m-2.4127.5476c.2895-.0791.5777-.1536.8641-.2229m-1.2977.3445c.1448-.0416.2894-.0822.4336-.1216m-1.6075.4795c.3923-.1261.784-.2459 1.1739-.3579m15.2019 36.6522c-.0551 2.0123-.8567 3.9888-2.4228 5.4715-1.5662 1.4827-3.5836 2.1751-5.581 2.1357-1.9818-.0542-3.9732-.8715-5.4559-2.4377-2.3427-2.4745-2.611-8.2791-2.8016-12.4644-.0418-.7029-.0696-1.3597-.1139-1.9711.6081.0777 1.2624.1413 1.9471.2058 4.1686.4192 9.935.9889 12.2925 3.4791 1.4826 1.5662 2.175 3.5837 2.1356 5.5811z"/></g></svg>