<svg xmlns="http://www.w3.org/2000/svg" role="img" viewBox="13.68 1.68 44.51 68.51"><title>1F4A7.svg</title><path fill="#92D3F5" d="M56.0001 46.7065c0 11.7749-8.9543 21.2965-20 21.2965s-20-9.5455-20-21.3204c0 0-.2191-14.3086 16.6559-40.1878 0 0 3.1666-5.3703 6.3541-.3523 16.875 25.8791 16.99 40.564 16.99 40.564"/><path fill="#61B2E4" d="M36 3.9991C48.875 14.375 55.875 44.8744 55.875 44.8744c0 15.0006-8.8293 23.1265-19.875 23.1265 0 0 22-18.1265 0-64.0018"/><g><path fill="none" stroke="#000" stroke-linecap="round" stroke-linejoin="round" stroke-miterlimit="10" stroke-width="2" d="M56.0001 46.7065c0 11.7749-8.9543 21.2965-20 21.2965s-20-9.5455-20-21.3204c0 0-.2191-14.3086 16.6559-40.1878 0 0 3.1666-5.3703 6.3541-.3523 16.875 25.8791 16.99 40.564 16.99 40.564"/></g></svg>