<svg xmlns="http://www.w3.org/2000/svg" role="img" viewBox="9.87 10.99 52.26 46.01"><title>1F4AF.svg</title><path d="M59.183 46.059h-46m46 8h-46m19.8003-17.0544h0c-3.4677 0-6.2789-2.8112-6.2789-6.2789V20.3382c0-3.4677 2.8112-6.2792 6.2789-6.2792h0c3.4681 0 6.2792 2.8115 6.2792 6.2792v10.3875c0 3.4677-2.8112 6.2789-6.2792 6.2789zm19.9259 0h0c-3.4677 0-6.2789-2.8112-6.2789-6.2789V20.3382c0-3.4677 2.8112-6.2792 6.2789-6.2792h0c3.4681 0 6.2792 2.8115 6.2792 6.2792v10.3875c0 3.4677-2.8111 6.2789-6.2792 6.2789zM12.984 18.885l6.353-4.759v22.946" fill="none" stroke="#000" stroke-linecap="round" stroke-linejoin="round" stroke-miterlimit="10" stroke-width="4"/><path d="M59.183 46.059h-46m46 8h-46m19.8003-17.0544h0c-3.4677 0-6.2789-2.8112-6.2789-6.2789V20.3382c0-3.4677 2.8112-6.2792 6.2789-6.2792h0c3.4681 0 6.2792 2.8115 6.2792 6.2792v10.3875c0 3.4677-2.8112 6.2789-6.2792 6.2789zm19.9259 0h0c-3.4677 0-6.2789-2.8112-6.2789-6.2789V20.3382c0-3.4677 2.8112-6.2792 6.2789-6.2792h0c3.4681 0 6.2792 2.8115 6.2792 6.2792v10.3875c0 3.4677-2.8111 6.2789-6.2792 6.2789zM12.984 18.885l6.353-4.759v22.946" fill="none" stroke="#D22F27" stroke-linecap="round" stroke-linejoin="round" stroke-miterlimit="10" stroke-width="4.1"/></svg>