<svg xmlns="http://www.w3.org/2000/svg" role="img" viewBox="8.98 9.98 52.91 51.91"><title>1F4A2.svg</title><path d="M36 16.54c-8.293 0-16.662-4.3137-16.662-4.3137-.9777-.504-1.3268-.1374-.7757.8146 0 0 5.9136 10.2144 17.4377 10.1261 11.5242.0883 17.4377-10.1261 17.4377-10.1261.5512-.952.2021-1.3186-.7757-.8146 0 0-8.3689 4.3137-16.662 4.3137zm0 38.92c8.2931 0 16.662 4.3137 16.662 4.3137.9778.504 1.3269.1374.7757-.8145 0 0-5.9135-10.2145-17.4377-10.1262-11.5241-.0883-17.4377 10.1262-17.4377 10.1262-.5511.9519-.202 1.3185.7757.8145 0 0 8.369-4.3137 16.662-4.3137zM55.46 36c0-8.293 4.3137-16.662 4.3137-16.662.504-.9777.1374-1.3268-.8146-.7756 0 0-10.2144 5.9135-10.1261 17.4376-.0883 11.5242 10.1261 17.4377 10.1261 17.4377.952.5512 1.3186.2021.8146-.7756 0-.0002-4.3137-8.369-4.3137-16.6621zm-33.293-.0001c.0971-12.6769-8.1349-16.2848-10.1261-17.4376-.952-.5512-1.3186-.2021-.8146.7756 0 0 5.0637 8.369 5.0637 16.662s-5.0637 16.6619-5.0637 16.6621c-.504.9777-.1374 1.3268.8146.7756 1.9912-1.1528 10.2232-4.7607 10.1261-17.4377" fill="#ea5a47"/><path d="M36 16.54c-8.293 0-16.662-4.3137-16.662-4.3137-.9777-.504-1.3268-.1374-.7757.8146 0 0 5.9136 10.2144 17.4377 10.1261 11.5242.0883 17.4377-10.1261 17.4377-10.1261.5512-.952.2021-1.3186-.7757-.8146 0 0-8.3689 4.3137-16.662 4.3137zm0 38.92c8.2931 0 16.662 4.3137 16.662 4.3137.9778.504 1.3269.1374.7757-.8145 0 0-5.9135-10.2145-17.4377-10.1262-11.5241-.0883-17.4377 10.1262-17.4377 10.1262-.5511.9519-.202 1.3185.7757.8145 0 0 8.369-4.3137 16.662-4.3137zM55.46 36c0-8.293 4.3137-16.662 4.3137-16.662.504-.9777.1374-1.3268-.8146-.7756 0 0-10.2144 5.9135-10.1261 17.4376-.0883 11.5242 10.1261 17.4377 10.1261 17.4377.952.5512 1.3186.2021.8146-.7756 0-.0002-4.3137-8.369-4.3137-16.6621zM11.2263 52.662c-.504.9777.6126 1.3268 1.5646.7756 0 0 9.9644-5.9135 9.8761-17.4377.0883-11.5241-9.8761-17.4376-9.8761-17.4376-.952-.5512-1.3186-.2021-.8146.7756 0 0 4.3137 8.369 4.3137 16.662s-5.0637 16.6619-5.0637 16.6621z" fill="none" stroke="#000" stroke-linecap="round" stroke-miterlimit="10" stroke-width="2"/></svg>