<svg xmlns="http://www.w3.org/2000/svg" role="img" viewBox="7.20 6.95 57.47 60.97"><title>1F4AD.svg</title><g fill="#fff"><path d="M9.49 29.7c.5837-5.492 5.509-9.471 11-8.887.881.0936 1.717.3098 2.508.6113 1.407-7.636 8.471-13.02 16.32-12.19 6.705.7126 11.91 5.74 13.14 12.03.3856-.0038.7741.0084 1.167.0501 5.492.5836 9.471 5.509 8.887 11-.3337 3.141-2.091 5.782-4.558 7.363.0659.8881.066 1.792-.0314 2.709-.8755 8.238-8.263 14.21-16.5 13.33-3.578-.3802-6.725-1.991-9.072-4.364-.8268.6583-1.757 2.187-2.758 2.559-5.451 1.263-10.61-.9425-13.1-5.334-1.042-1.779-.5444-3.895-.3098-6.103.0786-.7397.2418-1.449.4687-2.126-4.569-1.322-7.676-5.758-7.156-10.65z"/><path d="M21.49 52.77c2.206 0 4 1.794 4 4s-1.794 4-4 4-4-1.794-4-4 1.794-4 4-4zm-9.13 9.74c.6255 0 1.135.5088 1.135 1.135 0 .6259-.5093 1.135-1.135 1.135s-1.135-.5088-1.135-1.135c0-.626.5092-1.135 1.135-1.135z"/></g><path d="M21.49 62.77c3.309 0 6-2.691 6-6s-2.691-6-6-6-6 2.691-6 6 2.691 6 6 6zm0-10c2.206 0 4 1.794 4 4s-1.794 4-4 4-4-1.794-4-4 1.794-4 4-4zm-9.13 14.01c1.728 0 3.135-1.406 3.135-3.135s-1.406-3.135-3.135-3.135-3.135 1.406-3.135 3.135 1.406 3.135 3.135 3.135zm0-4.27c.6255 0 1.135.5088 1.135 1.135 0 .6259-.5093 1.135-1.135 1.135s-1.135-.5088-1.135-1.135c0-.626.5092-1.135 1.135-1.135z"/><path fill="none" stroke="#000" stroke-linecap="round" stroke-linejoin="round" stroke-miterlimit="10" stroke-width="2" d="M17.49 48.58c-1.042-1.779-1.544-3.895-1.31-6.103.0786-.7397.2418-1.449.4687-2.126-4.569-1.322-7.676-5.758-7.156-10.65.5836-5.492 5.509-9.471 11-8.887.881.0936 1.717.3098 2.508.6113 1.407-7.636 8.471-13.02 16.32-12.19 6.706.7126 11.91 5.74 13.14 12.03.3856-.0038.7741.0084 1.167.0501 5.492.5836 9.471 5.509 8.887 11-.3338 3.141-2.091 5.782-4.558 7.363.0658.8881.066 1.792-.0315 2.709-.8755 8.238-8.263 14.21-16.5 13.33-3.578-.3802-6.725-1.991-9.072-4.364-.8269.6584-1.757 1.187-2.758 1.559"/></svg>