<svg xmlns="http://www.w3.org/2000/svg" role="img" viewBox="8.96 19.21 53.95 35.58"><title>1F4B3.svg</title><g stroke-miterlimit="10" stroke-width="2"><path fill="#92D3F5" d="M59.9589 52.7943H12.0411c-.5523 0-1-.4477-1-1v-29.547c0-.5523.4477-1 1-1h47.9178c.5523 0 1 .4477 1 1v29.547c0 .5523-.4477 1-1 1z"/><path fill="#3F3F3F" d="M60 31H12c-.5523 0-1-.4477-1-1v-2.8c0-.5523.4477-1 1-1h48c.5523 0 1 .4477 1 1V30c0 .5523-.4477 1-1 1z"/><path fill="#FCEA2B" stroke-linecap="round" stroke-linejoin="round" d="M20.9984 47.8h-1.9471c-1.6645 0-3.0264-1.3619-3.0264-3.0264v-1.9471c0-1.6645 1.3619-3.0265 3.0264-3.0265h1.9471c1.6645 0 3.0264 1.3619 3.0264 3.0265v1.9471c.0001 1.6645-1.3618 3.0264-3.0264 3.0264z"/></g><g fill="none" stroke="#000" stroke-miterlimit="10" stroke-width="2"><path d="M59.9589 52.7943H12.0411c-.5523 0-1-.4477-1-1v-29.547c0-.5523.4477-1 1-1h47.9178c.5523 0 1 .4477 1 1v29.547c0 .5523-.4477 1-1 1z"/><path d="M60 31H12c-.5523 0-1-.4477-1-1v-2.8c0-.5523.4477-1 1-1h48c.5523 0 1 .4477 1 1V30c0 .5523-.4477 1-1 1z"/><path stroke-linecap="round" stroke-linejoin="round" d="M20.9984 47.8h-1.9471c-1.6645 0-3.0264-1.3619-3.0264-3.0264v-1.9471c0-1.6645 1.3619-3.0265 3.0264-3.0265h1.9471c1.6645 0 3.0264 1.3619 3.0264 3.0265v1.9471c.0001 1.6645-1.3618 3.0264-3.0264 3.0264z"/></g></svg>