<svg xmlns="http://www.w3.org/2000/svg" role="img" viewBox="8.96 8.84 53.95 54.08"><title>1F4BD.svg</title><path fill="#3F3F3F" stroke-linecap="round" stroke-linejoin="round" stroke-miterlimit="10" stroke-width="2" d="M11 10.958h50v50H11z"/><path fill="#D0CFCE" stroke-linecap="round" stroke-linejoin="round" stroke-miterlimit="10" stroke-width="2" d="M52.5498 47.1172c-3.5867 5.309-9.6606 8.7994-16.5498 8.7994-11.0227 0-19.9583-8.9356-19.9583-19.9583S24.9773 16 36 16c6.8569 0 12.9061 3.4578 16.4992 8.7249"/><circle cx="35.927" cy="35.887" r="19.958" fill="#D0CFCE"/><path fill="#D0CFCE" d="M17.5128 26.3859c3.078-5.9375 8.9544-10.2898 16.0975-11.1214 11.4289-1.3305 21.7725 6.8558 23.103 18.2847 1.3305 11.4289-6.8558 21.7725-18.2847 23.103-7.1096.8277-13.7992-2.0274-18.1604-7.0549"/><path fill="#D0CFCE" stroke-linecap="round" stroke-linejoin="round" stroke-miterlimit="10" stroke-width="2" d="M52.5498 47.0458c-3.5867 5.309-9.6606 8.7994-16.5498 8.7994-11.0227 0-19.9583-8.9356-19.9583-19.9583S24.9773 15.9286 36 15.9286c6.8569 0 12.9061 3.4578 16.4992 8.7249"/><circle cx="36" cy="35.958" r="5" fill="#3F3F3F" stroke-linecap="round" stroke-linejoin="round" stroke-miterlimit="10" stroke-width="2"/><path fill="#D0CFCE" stroke-linecap="round" stroke-linejoin="round" stroke-miterlimit="10" stroke-width="2" d="M44 36.501v5.474l17 2.458V28.5l-17 2.458v5.475"/><g fill="none" stroke="#000" stroke-linecap="round" stroke-linejoin="round" stroke-miterlimit="10" stroke-width="2"><path d="M11 10.958h50v50H11z"/><path d="M52.5498 47.0458c-3.5867 5.309-9.6606 8.7994-16.5498 8.7994-11.0227 0-19.9583-8.9356-19.9583-19.9583S24.9773 15.9286 36 15.9286c6.8569 0 12.9061 3.4578 16.4992 8.7249"/><circle cx="36" cy="35.958" r="5"/><path d="M44 36.501v5.474l17 2.458V28.5l-17 2.458v5.475z"/></g></svg>