<svg xmlns="http://www.w3.org/2000/svg" role="img" viewBox="10.39 11.02 51.09 49.84"><title>1F4B1.svg</title><path fill="#fff" d="M11.424 12.002h30.991v19.737H11.424z"/><path fill="#ea5a47" d="M14.689 14.805h23.904v14.051H14.689z"/><path fill="#d0cfce" d="M27.9556 13.4112v17.0122c-.0839.2554-.3293.4222-.5976.4064h-9.1432a.71988.71988 0 0 1-.5976-.4064V13.237c.084-.2553.3293-.4222.5976-.4064h9.1432a.71988.71988 0 0 1 .5976.4064v.1742z"/><ellipse cx="44.881" cy="49.88" fill="#5c9e31" stroke="#5c9e31" stroke-miterlimit="10" stroke-width="1.5" rx="9.681" ry="5.806"/><path fill="#5c9e31" d="M30.4791 40.84L30.3 59.3613h29.5209V40.84H30.4791zm27.6087 14.3816h-.239c-1.2722-.0297-2.3468.938-2.45 2.2063H34.7219c-.0945-1.2485-1.1379-2.2117-2.39-2.2063h-.2391V44.8281h.2391c1.26.026 2.3154-.9483 2.39-2.2064h20.617c.1032 1.2684 1.1778 2.2361 2.45 2.2064h.2391v10.3931l.0598.0004z"/><path fill="#5c9e31" d="M35.917 56.847h18.585v1.684H35.917zm-1.494-15.328h18.585v1.684H34.423z"/><path fill="#d0cfce" d="M50.08 41.5766V58.763c-.084.2553-.3293.4222-.5976.4064h-9.1431a.71988.71988 0 0 1-.5976-.4064V41.4024c.084-.2553.3293-.4222.5976-.4064h9.1432a.71988.71988 0 0 1 .5976.4064v.1742z"/><ellipse cx="33.214" cy="20.727" fill="#fff" rx="3.526" ry="3.426"/><g fill="none" stroke="#000" stroke-width="1.5"><path stroke-linecap="round" stroke-linejoin="round" d="M48.485 26.717l-2.36-3.983 4.1-2.293m-3.1532 2.447c5.5014 1.3892 9.7128 5.8192 10.822 11.3838M23.094 45.255l2.359 3.983-4.099 2.292m3.1531-2.4463C19.0057 47.6946 15.0443 43.7645 13.935 38.2"/><ellipse cx="33.214" cy="20.727" stroke-miterlimit="10" rx="3.526" ry="3.426"/><path stroke-linecap="round" stroke-linejoin="round" d="M27.9556 13.4112v17.0122c-.0839.2554-.3293.4222-.5976.4064h-9.1432a.71988.71988 0 0 1-.5976-.4064V13.237c.084-.2553.3293-.4222.5976-.4064h9.1432a.71988.71988 0 0 1 .5976.4064v.1742z"/><path stroke-linecap="round" stroke-linejoin="round" d="M22.876 24.443v-2.264l1.554-2.962-1.554 2.962-1.494-2.962m.06 2.613h2.928m-9.4419 9.0579h-2.1514c-.3067.0229-.5738-.2072-.5966-.5139a.54994.54994 0 0 1-.001-.0667V13.3531c-.014-.3072.2237-.5676.5309-.5816a.54994.54994 0 0 1 .0667.001h2.1514m15.7167.0581l10.3981-.0581c.3066-.0229.5737.2071.5966.5137.0017.0223.002.0446.001.0669v16.9542c.0141.3071-.2235.5675-.5307.5816a.55293.55293 0 0 1-.0669-.001L30.6448 30.83"/><path stroke-linecap="round" stroke-linejoin="round" d="M30.645 15.269h8.247v13.122h-8.247m-15.717.116V15.269M52.4705 42.68h2.9282c.1032 1.2683 1.1778 2.236 2.45 2.2063h.239v10.393h-.239c-1.2722-.0297-2.3468.938-2.45 2.2063h-2.9282m-14.88-.0581h-2.8686c-.0945-1.2485-1.1379-2.2117-2.39-2.2063h-.2391V44.8281h.2391c1.26.026 2.3154-.9483 2.39-2.2064h2.6294M50.08 41.5766V58.763c-.084.2553-.3293.4222-.5976.4064h-9.1431a.71988.71988 0 0 1-.5976-.4064V41.4024c.084-.2553.3293-.4222.5976-.4064h9.1432a.71988.71988 0 0 1 .5976.4064v.1742z"/><path stroke-linecap="round" stroke-linejoin="round" d="M37.59 59.1113h-6.6927c-.3066.0229-.5737-.2071-.5966-.5137a.55324.55324 0 0 1-.001-.0669V41.5766c-.0141-.3071.2235-.5675.5307-.5816a.55293.55293 0 0 1 .0669.001h6.454m14.9996 0h6.8724c.3066-.0229.5737.2071.5966.5137.0017.0223.002.0446.001.0669v16.9541c.0141.3071-.2235.5675-.5307.5816a.55293.55293 0 0 1-.0669-.001h-6.8724"/><path stroke-linecap="round" stroke-miterlimit="10" d="M51.7533 45.7571c1.7331 1.0451 2.8685 2.4966 2.8685 4.1224s-1.1354 3.0773-2.8685 4.1224m-14.402-.5226c-1.2556-.8101-2.0536-2.1668-2.1513-3.6579.1245-1.6216 1.0413-3.0772 2.45-3.89"/><path stroke-linecap="round" stroke-linejoin="round" d="M46.3152 48.4279c-.2095-.5669-.7723-.9236-1.3744-.8709h0c-.6747-.0825-1.2886.3975-1.3711 1.0723a1.0666 1.0666 0 0 0-.0034.0307c.0856.6783.6938 1.1664 1.3745 1.1032h0c.6747-.0825 1.2885.3975 1.371 1.0722.0013.0103.0024.0206.0034.0309-.1057.6669-.7004 1.1445-1.3744 1.1037h0c-.6021.0527-1.165-.3039-1.3745-.8709m1.3147-3.5421v-1.045m0 6.445v-1.045"/></g></svg>