<svg xmlns="http://www.w3.org/2000/svg" role="img" viewBox="11.56 10.19 48.01 48.88"><title>1F4B8.svg</title><path fill="#fff" d="M21.67548 33.903l12.72793-12.72793 20.20981 20.20982L41.8853 54.1128z"/><path fill="#fff" d="M13.9792 56.7778c.3645.3645.8533.5189 1.325.4674 0 0 8.9017.0515 13.9615-4.8025.0643-.0557.1243-.1157.1843-.1758 1.8352-1.8352 1.8309-4.8068 0-6.6377-1.831-1.831-4.8025-1.8352-6.6377 0l-8.8331 8.8331c-.6389.639-.6389 1.6766 0 2.3155z"/><path fill="#fff" d="M22.1465 53.0191c.12.81-.36 1.98-1.31 2.98-.29.3-.59.56-.9.76m-1.97-1.1c-.08.58-.36 1.11-.8 1.49"/><path fill="#5c9e31" d="M33.4807 23.3837c.9091-.9091.82-.9109 1.7292-.0018s1.7731 1.5059.864 2.415-2.3831.9091-3.2923 0-.21-1.5041.6991-2.4132zm16.9492 16.3314c.9091-.9091 1.3987.0753 2.3078.9844s.54.6901-.3692 1.5993-1.0296 1.6177-1.9387.7086-.9091-2.3831 0-3.2923zM23.4233 33.364c.9091-.9091 1.6321-1.6594 2.5412-.7503s.9091 2.3831 0 3.2923-1.6254-.2646-2.5346-1.1737-.9158-.4591-.0066-1.3683zm16.5095 16.5103c.9091-.9091 2.3831-.9091 3.2923 0s-.0749 1.3982-.984 2.3074-.327 1.1598-1.2362.2507-1.9812-1.6489-1.0721-2.558z"/><path fill="#5c9e31" d="M53.486 41.658l-.681.431-19.324-19.325.68-.43 19.325 19.324zM42.241 52.182l-.662.662-18.844-18.806.688-.674 18.818 18.818z"/><path fill="#5c9e31" d="M34.672 22.351l.694.695L23.43 34.732l-.695-.694 11.937-11.687zM52.738 40.7l.974.001-12.125 12.143-.487-.489L52.738 40.7z"/><ellipse cx="38.101" cy="37.468" fill="#5c9e31" rx="5.742" ry="9.277" transform="rotate(-45 38.1 37.468)"/><path fill="#fff" d="M47.425 35.1923L35.6923 46.925c-.0422.0422-.0886.0725-.1392.0987-.2062.1007-.4716.0578-.6501-.1206l-6.2227-6.2227c-.1785-.1785-.2214-.4439-.1206-.6501.0262-.0505.0565-.097.0987-.1392L40.391 28.1583c.0422-.0422.0887-.0725.1392-.0987.2062-.1007.4716-.0578.6501.1206l6.2227 6.2227c.1785.1785.2214.4439.1206.6501-.0262.0506-.0564.0971-.0986.1393zm9.7606-21.6209c.3645.3645.5189.8533.4674 1.325 0 0 .0515 8.9017-4.8025 13.9615-.0557.0643-.1158.1243-.1758.1844-1.8352 1.8352-4.8068 1.8309-6.6377 0-1.831-1.831-1.8352-4.8025 0-6.6377l8.8331-8.8331c.639-.639 1.6766-.639 2.3155 0z"/><path fill="#fff" d="M53.4268 21.7387c.81.12 1.98-.36 2.98-1.31.3-.29.56-.59.76-.9m-1.1-1.97c.58-.08 1.11-.36 1.49-.8"/><g fill="none" stroke="#000" stroke-linecap="round" stroke-width="2"><path stroke-miterlimit="10" d="M13.9792 56.7778c.3645.3645.8533.5189 1.325.4674 0 0 8.9017.0515 13.9615-4.8025.0643-.0557.1243-.1157.1843-.1758 1.8352-1.8352 1.8309-4.8068 0-6.6377-1.831-1.831-4.8025-1.8352-6.6377 0l-8.8331 8.8331c-.6389.639-.6389 1.6766 0 2.3155zm3.2568.3612l-.009-.01"/><path stroke-miterlimit="10" d="M22.1465 53.0191c.12.81-.36 1.98-1.31 2.98-.29.3-.59.56-.9.76m-1.97-1.1c-.08.58-.36 1.11-.8 1.49"/><path stroke-linejoin="round" d="M41.0551 53.3579L22.4424 34.7451c-.3905-.3905-.3905-1.0237 0-1.4142l11.2424-11.2424c.3905-.3905 1.0237-.3905 1.4142 0l18.6127 18.6127c.3905.3905.3905 1.0237 0 1.4142L42.4693 53.3579c-.3905.3905-1.0237.3905-1.4142 0z"/><path stroke-linejoin="round" d="M47.425 35.1923L35.6923 46.925c-.0422.0422-.0886.0725-.1392.0987-.2062.1007-.4716.0578-.6501-.1206l-6.2227-6.2227c-.1785-.1785-.2214-.4439-.1206-.6501.0262-.0505.0565-.097.0987-.1392L40.391 28.1583c.0422-.0422.0887-.0725.1392-.0987.2062-.1007.4716-.0578.6501.1206l6.2227 6.2227c.1785.1785.2214.4439.1206.6501-.0262.0506-.0564.0971-.0986.1393z"/><path stroke-miterlimit="10" d="M57.1856 13.5714c.3645.3645.5189.8533.4674 1.325 0 0 .0515 8.9017-4.8025 13.9615-.0557.0643-.1158.1243-.1758.1844-1.8352 1.8352-4.8068 1.8309-6.6377 0-1.831-1.831-1.8352-4.8025 0-6.6377l8.8331-8.8331c.639-.639 1.6766-.639 2.3155 0zm.3614 3.2576l-.01-.01"/><path stroke-miterlimit="10" d="M53.4268 21.7387c.81.12 1.98-.36 2.98-1.31.3-.29.56-.59.76-.9m-1.1-1.97c.58-.08 1.11-.36 1.49-.8"/></g></svg>