<svg xmlns="http://www.w3.org/2000/svg" role="img" viewBox="8.97 18.85 53.43 35.18"><title>1F4B4.svg</title><path fill="#fff" d="M10.104 20.134h51.242v32.634H10.104z"/><path fill="#ea5a47" d="M15.33 24.4h40.032v24.2H15.33z"/><path fill="#f4aa41" d="M55.82 20.62h4.63v.19h-4.63z"/><circle cx="46.302" cy="34.578" r="5.933" fill="#fff"/><path fill="#d0cfce" d="M37.4939 21.9515v29.097c0 .1047-.02.1998-.05.295-.13.3806-.51.6565-.95.6565h-15.34c-.44 0-.82-.276-.95-.6565-.03-.0952-.05-.1903-.05-.295v-29.097c0-.1047.02-.1998.05-.295.13-.3806.51-.6565.95-.6565h15.34c.44 0 .82.2759.95.6565.03.0952.05.1904.05.295z"/><g fill="none" stroke="#000" stroke-width="2"><circle cx="46.302" cy="34.578" r="5.933" stroke-miterlimit="10"/><path stroke-linecap="round" stroke-linejoin="round" d="M37.4939 21.9515v29.097c0 .1047-.02.1998-.05.295-.13.3806-.51.6565-.95.6565h-15.34c-.44 0-.82-.276-.95-.6565-.03-.0952-.05-.1903-.05-.295v-29.097c0-.1047.02-.1998.05-.295.13-.3806.51-.6565.95-.6565h15.34c.44 0 .82.2759.95.6565.03.0952.05.1904.05.295z"/><path stroke-linecap="round" stroke-linejoin="round" d="M29.037 41v-3.87l2.58-5.16-2.58 5.16-2.58-5.16m.131 4.498h4.863M15.7058 52.079h-3.6296c-.5523 0-1-.4477-1-1V21.8782c0-.5523.4477-1 1-1h3.6296M42 21l17.4462-.1218c.5523 0 1 .4477 1 1V51.079c0 .5523-.4477 1-1 1L42 52"/><path stroke-linecap="round" stroke-linejoin="round" d="M42 25.156h13.817V47.83H42M15.706 48V25.156"/></g></svg>