<svg xmlns="http://www.w3.org/2000/svg" role="img" viewBox="8.97 18.72 53.56 35.31"><title>1F4B6.svg</title><path fill="#fff" d="M10.058 19.946h51.553v32.877H10.058z"/><path fill="#b1cc33" d="M34.375 19.884h22.563v32.625H34.375z"/><path fill="#d0cfce" d="M36.5686 21.8042v29.2855c0 .1053-.02.2011-.05.2969-.13.383-.51.6608-.95.6608h-15.34c-.44 0-.82-.2778-.95-.6608-.03-.0958-.05-.1915-.05-.2969V21.8042c0-.1053.02-.2011.05-.2969.13-.3831.51-.6608.95-.6608h15.34c.44 0 .82.2777.95.6608.03.0958.05.1916.05.2969z"/><g fill="none" stroke="#000" stroke-linecap="round" stroke-linejoin="round" stroke-width="2"><path d="M41.7094 20.8465h17.8015c.5523 0 1 .4477 1 1v29.2008c0 .5523-.4477 1-1 1H41.7094m-5.1408-30.2431v29.2855c0 .1053-.02.2011-.05.2969-.13.383-.51.6608-.95.6608h-15.34c-.44 0-.82-.2778-.95-.6608-.03-.0958-.05-.1915-.05-.2969V21.8042c0-.1053.02-.2011.05-.2969.13-.3831.51-.6608.95-.6608h15.34c.44 0 .82.2777.95.6608.03.0958.05.1916.05.2969zM13.75 52.0473h-1.609c-.5523 0-1-.4477-1-1V21.8465c0-.5523.4477-1 1-1h1.609"/><path d="M30.5176 39.7733c-.5113.4535-1.1843.7289-1.9215.7289h0c-1.3834 0-2.8967-1.3396-2.8967-2.8967v-2.3173 2.3173-2.3173c0-1.5998 1.2969-2.8967 2.8967-2.8967h0c.7373 0 1.4102.2754 1.9215.729M23.973 36.432h4.367M54.0986 32h0c-1.0579 0-1.9155-.8576-1.9155-1.9155v-3.1689c0-1.0579.8576-1.9156 1.9155-1.9156h0c1.058 0 1.9156.8577 1.9156 1.9156v3.1689c0 1.0579-.8576 1.9155-1.9156 1.9155zm-6.6679 0h0c-1.0579 0-1.9155-.8576-1.9155-1.9155v-3.1689c0-1.0579.8576-1.9156 1.9155-1.9156h0c1.058 0 1.9156.8577 1.9156 1.9156v3.1689c0 1.0579-.8576 1.9155-1.9156 1.9155zM40.74 26.452L42.678 25v7"/></g></svg>