<svg xmlns="http://www.w3.org/2000/svg" role="img" viewBox="10.85 19.35 53.43 35.18"><title>1F4B5.svg</title><path fill="#fff" d="M14.639 23.038h46.414v27.88H14.639z"/><path fill="#5c9e31" d="M22.285 48.715h31.11v2.938h-31.11zm-2.508-26.379h31.11v2.938h-31.11z"/><path fill="#5c9e31" d="M12.94 21.1704v31.45h49.37v-31.14l-49.37-.31zm46.42 24.74c-.13-.01-.28-.01-.43-.01-2.15 0-3.95 1.68-4.05 3.81H20.33c-.09-2.13-1.88-3.81-4.05-3.81-.14 0-.27 0-.39.01v-17.91c.12.01.25.01.39.01 2.16 0 3.94-1.65 4.05-3.76h34.55c.13 2.11 1.91 3.76 4.05 3.76.15 0 .3 0 .43-.01v17.91z"/><ellipse cx="37.34" cy="36.676" fill="#5c9e31" stroke="#5c9e31" stroke-miterlimit="10" stroke-width="2" rx="16.171" ry="10.009"/><path fill="#d0cfce" d="M46.0276 22.3781v29.2855c0 .1053-.02.2011-.05.2969-.13.383-.51.6608-.95.6608h-15.34c-.44 0-.82-.2778-.95-.6608-.03-.0958-.05-.1915-.05-.2969V22.3781c0-.1053.02-.2011.05-.2969.13-.3831.51-.6608.95-.6608h15.34c.44 0 .82.2777.95.6608.0301.0957.05.1915.05.2969z"/><path fill="#5c9e31" d="M48.7533 29.5853c2.939 1.8123 4.7578 4.3199 4.7578 7.0905 0 2.7944-1.8502 5.3213-4.8338 7.137m-23.9374-.8629c-2.2338-1.7164-3.5709-3.8986-3.5709-6.2741 0-2.5704 1.5655-4.9145 4.1386-6.687"/><g fill="none" stroke="#000" stroke-linecap="round" stroke-width="2"><path stroke-linejoin="round" d="M50.0275 24.2504H54.88c.13 2.11 1.91 3.76 4.05 3.76.15 0 .3 0 .43-.01v17.91c-.13-.01-.28-.01-.43-.01-2.15 0-3.95 1.68-4.05 3.81h-4.8525m-24.9199 0H20.33c-.09-2.13-1.88-3.81-4.05-3.81-.14 0-.27 0-.39.01v-17.91c.12.01.25.01.39.01 2.16 0 3.94-1.65 4.05-3.76h4.385m21.3126-1.8723v29.2855c0 .1053-.02.2011-.05.2969-.13.383-.51.6608-.95.6608h-15.34c-.44 0-.82-.2778-.95-.6608-.03-.0958-.05-.1915-.05-.2969V22.3781c0-.1053.02-.2011.05-.2969.13-.3831.51-.6608.95-.6608h15.34c.44 0 .82.2777.95.6608.0301.0957.05.1915.05.2969z"/><path stroke-linejoin="round" d="M25.1075 52.6212H13.94c-.5523 0-1-.4477-1-1V22.4204c0-.5523.4477-1 1-1h10.8375m24.9944 0H61.31c.5523 0 1 .4477 1 1v29.2008c0 .5523-.4477 1-1 1H49.7724"/><path stroke-miterlimit="10" d="M48.7533 29.5853c2.939 1.8123 4.7578 4.3199 4.7578 7.0905 0 2.7944-1.8502 5.3213-4.8338 7.137m-23.9374-.8629c-2.2338-1.7164-3.5709-3.8986-3.5709-6.2741 0-2.5704 1.5655-4.9145 4.1386-6.687"/><path stroke-linejoin="round" d="M39.6628 34.2208c-.2188-.8514-1.1649-1.4919-2.2989-1.4919h0c-1.296 0-2.3466.8366-2.3466 1.8685s1.0506 1.8685 2.3466 1.8685l-.0476.0069c1.296 0 2.3466.8366 2.3466 1.8685s-1.0506 1.8685-2.3466 1.8685h0c-1.134 0-2.0802-.6404-2.299-1.4919M37.34 32.729v-1.781m0 11.043V40.21"/></g></svg>