<svg xmlns="http://www.w3.org/2000/svg" role="img" viewBox="20.23 6.61 29.78 59.28"><title>1F4CC.svg</title><path fill="#ea5a47" d="M46.288 34.3932c-.8205-1.4005-3.5756-2.5592-3.5756-2.5592l-1.0343-4.1975-2.2282-13.0482-9.1051-.6051-2.184 16.6293c-.0635.3545-1.4459 1.7772-1.7857 1.8963-2.8213.9893-3.0856 3.5212-3.57 4.5505l24.1657.0322c-.0304-.143.0226-1.494-.6828-2.6983z"/><path fill="#ea5a47" d="M31.008 8.599l-1.424 5.989 10.698-.46-.455-5.339-8.819-.19z"/><path fill="#d22f27" d="M39.827 8.789h-2.979l.292 5.799h3.687l-1-5.799z"/><path fill="#d0cfce" d="M33.051 40.2346s-.0242 2.6808-.0242 3.2335l.3163 12.4946 2.5241 5.8434 1.67-4.2589.7783-17.2953-5.2645-.0173z"/><path fill="#9b9b9a" d="M35.864 61.526l2.109-5.777.336-14.052.011-1.46-2.659.009.203 21.28z"/><path fill="#d22f27" d="M38.0116 31.834s1.4394 1.1587 2.2599 2.5592c.7054 1.2043 1.238 2.5553 1.2684 2.6983l5.2498-.6511c-.4834-1.0264-.2141-2.6709-3.0383-3.6611-.3398-.1191-.6609-.5908-.7244-.9453 0 0-2.712-14.0382-2.5498-13.5879l-.6956-4.1179-2.6415.4601.8499 15.3903.0216 1.8554z"/><g fill="none" stroke="#000" stroke-linecap="round" stroke-linejoin="round" stroke-width="2"><path d="M33.069 41.231l.006 14.784 2.861 7.858 2.318-7.882-.006-14.756m-7.9293-22.659l-2.3773 13.26c-5.2242 1.8318-5.4803 5.4953-5.4803 5.4953h25.4502s-.2561-3.6635-5.4803-5.4953l-2.3773-13.26m.7733-3.988H29.584l1-5.799h9.243l1 5.799z"/></g></svg>