<svg xmlns="http://www.w3.org/2000/svg" role="img" viewBox="9.81 6.56 52.13 55.51"><title>1F4C5.svg</title><path fill="#fff" d="M12 28.1224l-.003 31.9694 31.6594-.0054 16.0898-12.0482c-.0072-.0488.2538-3.9464.2538-3.9464l-.003-16L12 28.1224z"/><path fill="#ea5a47" d="M12.1937 28.2921l47.8033-.2003L60 11.6224s-6.5361.0002-5.9834.0002h-3.5569l.0526 5.272c1.7272.4562 2.1504 3.0869 2.1504 3.0874-.0225 2.1919-2.6783 2.5299-2.6907 2.5274-1.8479-.3787-2.4888-1.2828-2.4683-2.8021.0144-1.0682.046-1.3296.8087-2.0781.5122-.5019.6338-.6085 1.3107-.7802l-.0279-5.2264h-3.5395-23.7119l.071 5.2264c1.7272.4562 2.2925.8529 2.2752 2.7188-.0205 2.1929-2.706 3.2811-2.7187 3.2811-2.2051-.0215-2.9918-1.0379-2.9713-3.243.0098-1.0683.8766-1.8637 1.6393-2.6122.5122-.5019.6989-.822 1.3758-.9937l-.2395-4.3774h-3.7434L12 11.6224l.1937 16.6697z"/><path fill="#d0cfce" d="M59.997 48.0382H43.1384s-.8989 6.1042-.9709 5.6225v5.4255l1.4889 1.0002L59.997 48.0382z"/><g fill="none" stroke="#000" stroke-linecap="round" stroke-linejoin="round" stroke-width="2"><circle cx="22.002" cy="19.849" r="3"/><path d="M26.006 12.122h20.05m7.96 0H60v16H12v-16h6.032m3.983-3.434v10.31"/><circle cx="50.003" cy="19.847" r="3"/><path d="M50.016 8.688v10.31M34.3355 38.092c.5248-2.5644 2.7937-4.4936 5.5134-4.4936h0c1.5539 0 2.9609.63 3.9793 1.6484 1.5843 1.5842 1.438 4.2167-.0484 5.8928l-9.5586 10.7799h4.7601M23.276 37.398l5.073-3.8v18.321"/><path d="M11.997 28.092v32l31.659-.006 16.341-12.048V28.092"/><path d="M59.746 48.038H43.138v5.479"/></g></svg>