<svg xmlns="http://www.w3.org/2000/svg" role="img" viewBox="10.00 9.88 51.88 52.00"><title>1F4C8.svg</title><path fill="#fff" d="M12.05 59.91h47.9v-47.9h-47.9z"/><path fill="#ea5a47" d="M30.5525 40.1841l-7.9964 12.6134 3.3386 2.2033 5.4904-8.9049c.2539-.4121 8.8517 2.5407 8.8517 2.5407l10.8677-25.8022-3.6863-1.5526-9.3903 21.5299c-.2148.5098-7.4754-2.6276-7.4754-2.6276z"/><g fill="none" stroke="#000" stroke-linecap="round" stroke-linejoin="round" stroke-miterlimit="10" stroke-width="2"><path d="M47.418 21.282l-9.303 22.087-7.563-3.185-7.996 12.613 3.339 2.204 6.005-9.74 4.65 1.823 3.687 1.553 10.868-25.803z"/><path d="M12.052 12.015h47.897v47.897H12.052zm38.017 24.07h9.736m-47.066 0h24.44m7.845 11.908h14.659m-46.944 0h8.08m27.314-7.549l.118 18.926m-.218-47.311l.004 5.123M36.184 51.65v7.923m0-47.243v25.501M24.225 58.613v.96m0-47.61v31.136m30.959-18.922h4.042m-46.962 0h29.487"/></g></svg>