<svg xmlns="http://www.w3.org/2000/svg" role="img" viewBox="5.30 4.67 62.27 62.40"><title>1F4C0.svg</title><path fill="#FFF" d="M64.59 28.71c-.2401-.92-.52-1.83-.85-2.71-.32-.89-.69-1.77-1.1-2.61-2.85-5.92-7.65-10.72-13.57-13.57-.84-.41-1.72-.78-2.61-1.1-.88-.33-1.79-.61-2.71-.85-2.32-.59-4.75-.91-7.25-.91-.44 0-.88.01-1.32.04-.11-.01-.22 0-.32.01-.32.01-.64.04-.95.07-.14.01-.28.02-.42.04-.33.03-.65.07-.98.12-.33.04-.65.09-.98.15-.64.11-1.28.24-1.91.4-.3.07-.6.15-.9.23-.03 0-.0699.01-.1.03-.6.16-1.2.35-1.78.57-.27.09-.54.19-.81.3-.07.01-.13.04-.2.08-.56.2-1.11.44-1.65.71-.29.14-.57.28-.85.42-.57.29-1.13.6-1.67.92l.017.015c-5.3333 3.1692-9.5612 7.9852-11.957 13.775-.18.43-.35.86-.5099 1.3-.32.87-.6 1.77-.82 2.68-.15.56-.27 1.12-.37 1.69-.17.83-.29 1.68-.37 2.53C7.55 34 7.5 34.98 7.5 35.96c0 2.5.32 4.9301.91 7.2401.2401.93.52 1.83.85 2.72.48 1.33 1.07 2.62 1.74 3.86 1.34 2.47 3.03 4.72 5 6.68.99 1 2.04 1.91 3.16 2.73.7401.57 1.51 1.09 2.3 1.57h.01c.79.49 1.61.93 2.46 1.34 3.8 1.83 8.06 2.86 12.57 2.86.42 0 .84-.0099 1.26-.03.15 0 .31-.01.47-.03.32-.0099.63-.03.94-.07.47-.03.93-.09 1.39-.16.26-.03.53-.07.79-.12.63-.1 1.25-.23 1.87-.38.28-.06.5601-.13.84-.21.66-.17 1.31-.37 1.95-.61.28-.09.55-.19.81-.29.59-.21 1.16-.46 1.73-.73.28-.1299.56-.2599.84-.4.55-.28 1.09-.57 1.63-.88l-.0128-.0112c5.3691-3.0992 9.6674-7.8692 12.1328-13.6188.01-.01.01-.01.01-.02.38-.87.71-1.77 1-2.68.14-.46.28-.93.4-1.4.1-.38.19-.77.28-1.16.13-.56.23-1.13.32-1.71.08-.4901.14-.98.19-1.48.04-.36.0699-.73.09-1.1.05-.63.07-1.27.07-1.91 0-2.5001-.32-4.9301-.91-7.2501zM41.5 35.96c0 2.76-2.24 5-5 5s-5-2.24-5-5c0-2.7599 2.24-5 5-5s5 2.24 5 5z"/><path fill="#FCEA2B" d="M9.7201 24.8379C8.2918 28.2645 7.4995 32.02 7.4995 35.958c0 15.991 13.0095 29.001 29.0005 29.001 5.288 0 10.2454-1.4296 14.5186-3.9123L9.7201 24.8379zM63.1362 47.415C64.6546 43.8983 65.5 40.0256 65.5 35.958c0-15.9905-13.009-29-29-29-5.4189 0-10.4929 1.4977-14.8368 4.0953l41.473 36.3617z"/><g><path fill="none" stroke="#000" stroke-linecap="round" stroke-linejoin="round" stroke-miterlimit="10" stroke-width="2" d="M64.59 28.71c-.2401-.92-.52-1.83-.85-2.71-.32-.89-.69-1.77-1.1-2.61-2.85-5.92-7.65-10.72-13.57-13.57-.84-.41-1.72-.78-2.61-1.1-.88-.33-1.79-.61-2.71-.85-2.32-.59-4.75-.91-7.25-.91-.44 0-.88.01-1.32.04-.11-.01-.22 0-.32.01-.32.01-.64.04-.95.07-.14.01-.28.02-.42.04-.33.03-.65.07-.98.12-.33.04-.65.09-.98.15-.64.11-1.28.24-1.91.4-.3.07-.6.15-.9.23-.03 0-.0699.01-.1.03-.6.16-1.2.35-1.78.57-.27.09-.54.19-.81.3-.07.01-.13.04-.2.08-.56.2-1.11.44-1.65.71-.29.14-.57.28-.85.42-.57.29-1.13.6-1.67.92l.017.015c-5.3333 3.1692-9.5612 7.9852-11.957 13.775-.18.43-.35.86-.5099 1.3-.32.87-.6 1.77-.82 2.68-.15.56-.27 1.12-.37 1.69-.17.83-.29 1.68-.37 2.53C7.55 34 7.5 34.98 7.5 35.96c0 2.5.32 4.9301.91 7.2401.2401.93.52 1.83.85 2.72.48 1.33 1.07 2.62 1.74 3.86 1.34 2.47 3.03 4.72 5 6.68.99 1 2.04 1.91 3.16 2.73.7401.57 1.51 1.09 2.3 1.57h.01c.79.49 1.61.93 2.46 1.34 3.8 1.83 8.06 2.86 12.57 2.86.42 0 .84-.0099 1.26-.03.15 0 .31-.01.47-.03.32-.0099.63-.03.94-.07.47-.03.93-.09 1.39-.16.26-.03.53-.07.79-.12.63-.1 1.25-.23 1.87-.38.28-.06.5601-.13.84-.21.66-.17 1.31-.37 1.95-.61.28-.09.55-.19.81-.29.59-.21 1.16-.46 1.73-.73.28-.1299.56-.2599.84-.4.55-.28 1.09-.57 1.63-.88l-.0128-.0112c5.3691-3.0992 9.6674-7.8692 12.1328-13.6188.01-.01.01-.01.01-.02.38-.87.71-1.77 1-2.68.14-.46.28-.93.4-1.4.1-.38.19-.77.28-1.16.13-.56.23-1.13.32-1.71.08-.4901.14-.98.19-1.48.04-.36.0699-.73.09-1.1.05-.63.07-1.27.07-1.91 0-2.5001-.32-4.9301-.91-7.2501zM41.5 35.96c0 2.76-2.24 5-5 5s-5-2.24-5-5c0-2.7599 2.24-5 5-5s5 2.24 5 5z"/></g></svg>