<svg xmlns="http://www.w3.org/2000/svg" role="img" viewBox="11.31 7.94 49.38 55.38"><title>1F4CF.svg</title><g id="color"><path fill="#D0CFCE" d="M13.5626,18.7338l34.6292,42.2421l10.5838-8.1699L24.0535,10.1925L13.5626,18.7338z"/><path fill="#9B9B9A" d="M23.888 10.428L21.287 12.458 55.848 55.137 58.268 52.59z"/><path fill="#d0cfce" stroke-linecap="round" stroke-linejoin="round" stroke-miterlimit="10" stroke-width="2" d="M19.727 20.938L21.279 19.676"/></g><g id="line" fill="none" stroke="#000" stroke-linecap="round" stroke-linejoin="round" stroke-miterlimit="10" stroke-width="2"><path d="M29.217 8.234H42.903V63.166000000000004H29.217z" transform="rotate(141.04 36.059 35.698)"/><path d="M47.49 55.073L49.041 53.811M44.966 51.97L46.517 50.708M42.442 48.867L43.993 47.605M37.394 42.66L38.946 41.398M34.87 39.557L36.422 38.295M32.346 36.454L33.898 35.192M29.823 33.351L31.374 32.089M24.775 27.144L26.326 25.882M22.251 24.041L23.802 22.779M19.727 20.938L21.279 19.676M39.812 45.85L42.46 43.696M27.193 30.334L29.84 28.18"/></g></svg>