<svg xmlns="http://www.w3.org/2000/svg" role="img" viewBox="14.22 9.84 53.82 51.95"><title>1F4DD.svg</title><path fill="#fff" d="M16.405 11.378H55.97v49.066H16.405z"/><path fill="#f4aa41" d="M39.931 40.222l11.294-11.294 5.631 7.431-10.5 10.512"/><path fill="#a57939" d="M37.941 46.819l1.961-5.649 6.454 6.454-5.648 1.961"/><path fill="#ea5a47" d="M55.322 25.58l3.978-3.979 6.735 6.584-3.945 3.945"/><path fill="#d0cfce" d="M50.494 29.659l4.608-4.607 6.682 6.739-4.569 4.568"/><g><path d="M38.07 47.191l2.386 2.386-3.464 1.28 1.078-3.666z"/><path fill="none" stroke="#000" stroke-linecap="round" stroke-linejoin="round" stroke-width="2" d="M22.322 19.875h27m-27 8h25.6m-25.6 8h17.109m-17.109 8h12.206m-12.206 8h10.146"/><path d="M38.07 47.191l2.386 2.386-3.464 1.28 1.078-3.666z"/><path fill="none" stroke="#000" stroke-linecap="round" stroke-linejoin="round" stroke-width="2" d="M40.692 49.591l5.664-1.967 15.59-15.59-6.454-6.454-15.59 15.59-1.974 5.671 2.764 2.75zm17.394-26.605l1.555-1.555 6.454 6.454-1.632 1.632M40.279 40.793l6.454 6.454"/><path fill="none" stroke="#000" stroke-linecap="round" stroke-linejoin="round" stroke-width="2" d="M37.932 46.828l-1.383 4.149 4.159-1.392m10.594-19.428l5.893 5.893"/><path fill="none" stroke="#000" stroke-linecap="round" stroke-linejoin="round" stroke-width="2.021" d="M55.322 44.228v15.647h-39v-48h39v8.456"/></g></svg>