<svg xmlns="http://www.w3.org/2000/svg" role="img" viewBox="4.88 8.88 58.24 54.12"><title>1F4D2.svg</title><path fill="#FCEA2B" d="M60.1001 57.0799c.5632 0 1.0198-.4576 1.0198-1.0222V12.0344c0-.5645-.4566-1.0222-1.0198-1.0222h-43.922c-.5632 0-1.0198.4576-1.0198 1.0222V39.163L51.2191 57.08h8.881z"/><path fill="#FCEA2B" d="M60.1214 56.0122c.5514 0 .9985-.447.9985-.9985v-43.003c0-.5514-.447-.9985-.9985-.9985h-43.003c-.5514 0-.9985.447-.9985.9985v44.0015h44.0015z"/><path fill="#FCEA2B" stroke-linecap="round" stroke-linejoin="round" stroke-miterlimit="10" stroke-width="2" d="M16.1199 12.0107c0-.5514.447-.9985.9985-.9985h43.003c.5514 0 .9985.447.9985.9985v43.003c0 .5514-.447.9985-.9985.9985"/><path fill="#F1B31C" stroke-linecap="round" stroke-linejoin="round" stroke-miterlimit="10" stroke-width="2" d="M55.1336 61h-43.003c-.5514 0-.9985-.447-.9985-.9985v-43.003c0-.5514.447-.9985.9985-.9985h43.003c.5514 0 .9985.447.9985.9985v43.003c0 .5515-.4471.9985-.9985.9985z"/><g fill="none" stroke="#000" stroke-linecap="round" stroke-linejoin="round" stroke-miterlimit="10" stroke-width="2"><path d="M16.1199 12.0107c0-.5514.447-.9985.9985-.9985h43.003c.5514 0 .9985.447.9985.9985v43.003c0 .5514-.447.9985-.9985.9985"/><path d="M55.1336 61h-43.003c-.5514 0-.9985-.447-.9985-.9985v-43.003c0-.5514.447-.9985.9985-.9985h43.003c.5514 0 .9985.447.9985.9985v43.003c0 .5515-.4471.9985-.9985.9985zM7 23.411h8.712M7 29.447h8.712M7 35.482h8.712m0 6.036H7m0 6.035h8.712M7 53.589h8.712"/></g></svg>