<svg xmlns="http://www.w3.org/2000/svg" role="img" viewBox="10.02 4.90 55.95 57.20"><title>1F4D4.svg</title><path fill="#fcea2b" d="M17.563 12h42.438v47.5H17.563z"/><path fill="#f1b31c" d="M12 12h5.948v47.5H12z"/><path fill="#fff" d="M17.573 23.876H59.99v13.813H17.573z"/><g fill="none" stroke="#000" stroke-linecap="round" stroke-linejoin="round" stroke-width="2"><path d="M17 13v46m45.9087-4.1851A1.986 1.986 0 0 0 64 53.0467V9.0833A2.0833 2.0833 0 0 0 61.9167 7H16.4591a4.7714 4.7714 0 0 0-3.9733 2.13h0a1.889 1.889 0 0 0 1.573 2.9349h3.8086l2.1331-.0177h39.9162v48H14.0583a1.8905 1.8905 0 0 1-1.8916-1.85V10.575"/><path d="M47.734 27.438h-3.826v6.695h3.826m-3.826-3.348h2.87"/><path d="M22.57 34.133v-6.695l4.782 6.695v-6.695m5.2603 6.6948h0a2.391 2.391 0 0 1-2.3909-2.391v-1.9127a2.391 2.391 0 0 1 2.3909-2.391h0a2.391 2.391 0 0 1 2.391 2.391v1.9127a2.391 2.391 0 0 1-2.391 2.391zm21.8571-5.3645a2.0432 2.0432 0 0 0-2.0594-1.3364h0a1.9249 1.9249 0 0 0-2.102 1.6737 1.9249 1.9249 0 0 0 2.102 1.6736l-.0427.0063a1.9249 1.9249 0 0 1 2.102 1.6736 1.9249 1.9249 0 0 1-2.102 1.6737h0a2.0431 2.0431 0 0 1-2.0593-1.3364"/><path d="M37.235 27.438h3.825m-1.912 0v6.695"/></g></svg>