<svg xmlns="http://www.w3.org/2000/svg" role="img" viewBox="8.98 9.98 52.91 52.91"><title>1F4D5.svg</title><path fill="#fff" d="M15.0085 57.9906l41.8485-.3812c1.6527-.0052 2.9897-1.0964 2.9897-2.7491V15.1491c0-1.6564-1.3427-2.9991-2.9991-2.9991H16.9535a2.9991 2.9991 0 0 0-2.1712.9302l-1.9544 2.051A2.99917 2.99917 0 0 0 12 17.2001v37.7914c0 1.66 1.3485 3.0043 3.0085 2.9991z"/><path fill="#d22f27" d="M55.0015 61h-43.003C11.447 61 11 60.553 11 60.0015v-43.003c0-.5515.447-.9985.9985-.9985h43.003c.5515 0 .9985.447.9985.9985v43.003c0 .5515-.447.9985-.9985.9985z"/><g fill="none" stroke="#000" stroke-linecap="round" stroke-linejoin="round" stroke-width="2"><path d="M11.164 16.4512L15.9985 12h43.003c.5515 0 .9985.447.9985.9985v43.003c0 .5515-.447.9985-.9985.9985"/><path d="M55.0015 61h-43.003C11.447 61 11 60.553 11 60.0015v-43.003c0-.5515.447-.9985.9985-.9985h43.003c.5515 0 .9985.447.9985.9985v43.003c0 .5515-.447.9985-.9985.9985z"/></g></svg>