<svg xmlns="http://www.w3.org/2000/svg" role="img" viewBox="8.96 8.96 53.95 53.95"><title>1F4DC.svg</title><path fill="#F4AA41" d="M15.023 16.283h41.954V57.26H15.023z"/><path fill="#E27022" stroke-linecap="round" stroke-linejoin="round" stroke-miterlimit="10" stroke-width="2" d="M16 55.748l-5 .2v5.042h50v-7.042l-5 .2m0-37.865l5-.2v-5.041H11v7.041l5-.2"/><g fill="none" stroke="#000" stroke-linecap="round" stroke-linejoin="round" stroke-miterlimit="10" stroke-width="2"><path d="M16 55.748l-5 .2v5.042h50v-7.042l-5 .2m0-37.865l5-.2v-5.041H11v7.041l5-.2m40-1.6l-21.374.855L16 17.883m0 37.865l40-1.6M16 22.002V50.06m40-28.058V50.06M20.852 24.903h11.009m-11.009 5.248h31.167M20.852 35.4h31.167m-31.167 5.248h31.167m-31.167 5.248h31.167"/></g></svg>