<svg xmlns="http://www.w3.org/2000/svg" role="img" viewBox="1.68 13.68 68.51 49.51"><title>1F4D6.svg</title><g stroke-linecap="round" stroke-linejoin="round" stroke-miterlimit="10" stroke-width="2"><path fill="#9b9b9a" d="M41 56c0 2.7614-2.2386 5-5 5s-5-2.2386-5-5"/><path fill="#d0cfce" d="M67.0015 56H4.9985C4.447 56 4 55.553 4 55.0015v-38.003C4 16.447 4.447 16 4.9985 16h62.003c.5515 0 .9985.447.9985.9985v38.003c0 .5515-.447.9985-.9985.9985z"/><path fill="#FFF" d="M64.0015 51.625H7.9985c-.5515 0-.9985-.447-.9985-.9985v-29.253c0-.5514.447-.9985.9985-.9985h56.003c.5515 0 .9985.447.9985.9985v29.253c0 .5515-.447.9985-.9985.9985z"/></g><g fill="none" stroke="#000" stroke-linecap="round" stroke-linejoin="round" stroke-miterlimit="10" stroke-width="2"><path d="M41 56c0 2.7614-2.2386 5-5 5s-5-2.2386-5-5m36.0015 0H4.9985C4.447 56 4 55.553 4 55.0015v-38.003C4 16.447 4.447 16 4.9985 16h62.003c.5515 0 .9985.447.9985.9985v38.003c0 .5515-.447.9985-.9985.9985z"/><path d="M64.0015 51.625H7.9985c-.5515 0-.9985-.447-.9985-.9985v-29.253c0-.5514.447-.9985.9985-.9985h56.003c.5515 0 .9985.447.9985.9985v29.253c0 .5515-.447.9985-.9985.9985zM36 17v38M11 27h20m-20 6h20m-20 6h20m-20 6h20m10-18h20m-20 6h20m-20 6h20m-20 6h20"/></g></svg>