<svg xmlns="http://www.w3.org/2000/svg" role="img" viewBox="3.52 21.52 63.83 27.83"><title>1F4E8.svg</title><rect width="37.511" height="23.454" x="27.599" y="23.819" fill="#d0cfce" rx="1.563"/><path fill="#9b9b9a" d="M65.1522 24.5967v19.9955a4.1748 4.1748 0 0 1-.3759 1.729l-8.4943-7.8178-.7517.0751-3.082-2.8565z"/><g fill="none" stroke="#000" stroke-linecap="round" stroke-linejoin="round" stroke-width="2"><path d="M5.797 41.904h16.31m-12.815-6.99h12.815m14.405 3.6645l-8.4192 7.7427a3.9028 3.9028 0 0 1-.451-1.729v-19.92M57.5383 39.399L64.83 46.11a3.5861 3.5861 0 0 0 .3226-1.4841V24.5967"/><path d="M55.4551 37.7517l9.2461 8.4943a1.6075 1.6075 0 0 1-1.3531.9772H29.3707a1.78 1.78 0 0 1-1.3531-.902l9.0957-8.344"/><path d="M65.1522 24.5967l-12.0274 11.05-3.3827 3.1572c-.15.15-.3759.3006-.5262.451a4.6338 4.6338 0 0 1-5.7882 0c-.15-.15-.3758-.3007-.5262-.451l-3.3827-3.0819-11.877-11.05c0-.0752.0751-.0752.0751-.15a1.5333 1.5333 0 0 1 1.2031-.752h34.9543a1.6558 1.6558 0 0 1 1.2027.6766c0 .0749.0752.0749.0752.1501z"/></g></svg>