<svg xmlns="http://www.w3.org/2000/svg" role="img" viewBox="11.27 10.52 49.33 50.83"><title>1F4EC.svg</title><path fill="#61b2e4" d="M58.7 27.6c0-5.4-2.9627-10.4219-7.3-11.6-3.4284-.9312-15.4-.6-15.4-.6l-11.8036-.0976c-.7 0 3.5036 6.2976 3.5036 12.2976v11.7a2.338 2.338 0 0 1-2.1226 2.3964L58.7 41.6z"/><path fill="#3f3f3f" d="M34.6 27.6v11.8a2.1631 2.1631 0 0 1-2.1 2.3H15.3a2.15 2.15 0 0 1-2-2.3V26.6a12.27 12.27 0 0 1 4.6-9.1 9.5025 9.5025 0 0 1 6.1-2.2 13.5523 13.5523 0 0 1 2 .2c4.9 1.1 8.6 6.1 8.6 12.1z"/><path fill="#ea5a47" d="M41.2 33h.9a1.12 1.12 0 0 0 1.2-1V22h2.1a1.12 1.12 0 0 0 1.2-1v-7.4a1.1256 1.1256 0 0 0-1.2-1h-4.2a1.12 1.12 0 0 0-1.2 1V32a1.1256 1.1256 0 0 0 1.2 1z"/><rect width="11.257" height="14.298" x="23.027" y="25.462" fill="#d0cfce" rx="1.563"/><path fill="#fff" d="M39.3 59.4V41.6533l-6.813.0082L32.5 46.4v13"/><g fill="none" stroke="#000" stroke-width="2"><path stroke-linecap="round" stroke-linejoin="round" d="M40 15.3463c-7.5-.1255-15.804-.0439-15.804-.0439m1.3814 26.394L58.7 41.6v-14c0-5.4-2.9627-10.4219-7.3-11.6a30.0066 30.0066 0 0 0-4.8008-.4629"/><path stroke-linejoin="round" d="M41.2 33h.9a1.12 1.12 0 0 0 1.2-1V22h2.1a1.12 1.12 0 0 0 1.2-1v-7.4a1.1256 1.1256 0 0 0-1.2-1h-4.2a1.12 1.12 0 0 0-1.2 1V32a1.1256 1.1256 0 0 0 1.2 1z"/><path stroke-miterlimit="10" d="M34.6 27.6v11.8a2.1631 2.1631 0 0 1-2.1 2.3H15.3a2.15 2.15 0 0 1-2-2.3V26.6a12.27 12.27 0 0 1 4.6-9.1 9.5025 9.5025 0 0 1 6.1-2.2 13.5523 13.5523 0 0 1 2 .2h0c4.9 1.1 8.6 6.1 8.6 12.1z"/><path stroke-linecap="round" stroke-linejoin="round" d="M39.3 59.4V41.6533l-6.813.0082L32.5 46.4v13m-4.2134-24.94l-4.9684 4.72a2.44 2.44 0 0 1-.2662-1.054V25.9823"/><path stroke-linecap="round" stroke-linejoin="round" d="M34.2526 39.73h-10.18a1.0489 1.0489 0 0 1-.7985-.55l5.3677-5.0866m5.5293-8.661h-10.365a.9014.9014 0 0 0-.71.4582c0 .0458-.0444.0458-.0444.0917l7.0091 6.7363 1.9963 1.8788c.0887.0916.2218.1833.31.2749a2.8492 2.8492 0 0 0 1.8032.6117"/></g></svg>