<svg xmlns="http://www.w3.org/2000/svg" role="img" viewBox="11.08 8.96 49.46 54.21"><title>1F4EB.svg</title><path fill="#FFF" d="M27.815 13.7636c-.6841 0-1.3577.0737-2.0103.221h-.0105c-.642-.1474-1.3051-.221-1.9891-.221h4.0099z"/><path fill="#FFF" stroke="#FFF" stroke-miterlimit="10" stroke-width="1.8" d="M32.4985 57.778V35.8865h6.7358V57.778c0 1.8523-1.5156 3.3679-3.3679 3.3679-.9262 0-1.7682-.3789-2.3786-.9893-.6104-.6105-.9893-1.4524-.9893-2.3786z"/><path fill="#61B2E4" stroke="#61B2E4" stroke-linejoin="round" stroke-miterlimit="10" stroke-width="1.8" d="M58.6049 25.9766v10.1458c0 2.0313-1.3472 3.7152-3.0733 3.9468-.1368.0211-.2736.0315-.4209.0315l-29.5639-.0315c1.1367 0 2.0523-1.0419 2.0523-2.3154V25.9766c0-5.957-4.2099-12.2086-3.5257-12.2086h23.8174c.6841 0 1.3471.0737 1.9891.221h.0105c4.9572 1.063 8.7145 6.0307 8.7145 11.9876z"/><path fill="#92D3F5" d="M34.5192 25.9722v11.7771c0 1.2735-.9156 2.3154-2.0523 2.3154H15.1748c-1.1367 0-2.0418-1.0419-2.0418-2.3154V25.0356c.242-3.7679 1.9892-7.0621 4.5782-9.1039 1.7155-1.3577 3.831-2.1681 6.0938-2.1681.6841 0 1.3471.0737 1.9891.221h.0105c4.9573 1.063 8.7146 6.0307 8.7146 11.9876z"/><path fill="#EA5A47" d="M41.0868 31.3539h.9347c.6427 0 1.1684-.4404 1.1684-.9786v-9.9812h2.1031c.6426 0 1.1684-.4404 1.1684-.9786v-7.437c0-.5383-.5258-.9786-1.1684-.9786h-4.2061c-.6426 0-1.1684.4403-1.1684.9786v18.3968c-.0001.5382.5257.9786 1.1683.9786z"/><path fill="#FFF" d="M39.23 44.875V57.78c0 1.85-1.51 3.37-3.36 3.37-.93 0-1.77-.38-2.38-.99s-.99-1.46-.99-2.38V44.8438"/><g fill="none" stroke="#000" stroke-miterlimit="10" stroke-width="2"><path d="M27.815 13.7636c-.6841 0-1.3577.0737-2.0103.221h-.0105c-.642-.1474-1.3051-.221-1.9891-.221h4.0099z"/><path stroke-linecap="round" stroke-linejoin="round" d="M35.87 13.7698h-11.8m27.28.66c4.22 1.63 7.25 6.19 7.25 11.55v10.14c0 2.03-1.34 3.72-3.07 3.95-.14.02-.27.03-.42.03l-29.56-.03c.07 0 .14 0 .21-.01"/><path d="M34.5192 25.9722v11.7771c0 1.2735-.9156 2.3154-2.0523 2.3154H15.1748c-1.1367 0-2.0418-1.0419-2.0418-2.3154V25.0356c.242-3.7679 1.9892-7.0621 4.5782-9.1039 1.7155-1.3577 3.831-2.1681 6.0938-2.1681.6841 0 1.3471.0737 1.9891.221h.0105c4.9573 1.063 8.7146 6.0307 8.7146 11.9876z"/><path stroke-linecap="round" d="M21.5528 17.4051v3.1153c0 .5789.4736 1.0525 1.0525 1.0525h2.1049c.5789 0 1.0525-.4736 1.0525-1.0525V17.342"/><path stroke-linejoin="round" d="M41.0868 31.3539h.9347c.6427 0 1.1684-.4404 1.1684-.9786v-9.9812h2.1031c.6426 0 1.1684-.4404 1.1684-.9786v-7.437c0-.5383-.5258-.9786-1.1684-.9786h-4.2061c-.6426 0-1.1684.4403-1.1684.9786v18.3968c-.0001.5382.5257.9786 1.1683.9786z"/><path stroke-linecap="round" d="M39.23 44.875V57.78c0 1.85-1.51 3.37-3.36 3.37-.93 0-1.77-.38-2.38-.99s-.99-1.46-.99-2.38V44.8438"/></g></svg>