<svg xmlns="http://www.w3.org/2000/svg" role="img" viewBox="10.52 12.02 51.22 51.09"><title>1F4EA.svg</title><path fill="#FFF" stroke="#FFF" stroke-miterlimit="10" stroke-width="1.8" d="M32.4985 57.778V35.8865h6.7358V57.778c0 1.8523-1.5156 3.3679-3.3679 3.3679-.9262 0-1.7682-.3789-2.3786-.9893-.6104-.6105-.9893-1.4524-.9893-2.3786z"/><path fill="#FFF" d="M39.23 44.875V57.78c0 1.85-1.51 3.37-3.36 3.37-.93 0-1.77-.38-2.38-.99s-.99-1.46-.99-2.38V44.8438"/><path fill="#61B2E4" stroke="#61B2E4" stroke-linejoin="round" stroke-miterlimit="10" stroke-width="1.8" d="M56.541 25.8265v9.8247c0 1.967-1.3046 3.5976-2.976 3.8218-.1324.0204-.2649.0305-.4076.0305l-28.6282-.0305c1.1007 0 1.9874-1.009 1.9874-2.2422V25.8265c0-5.7684-4.0766-11.8222-3.4142-11.8222H46.166c.6624 0 1.3045.0713 1.9262.214h.0102c4.8002 1.0293 8.4386 5.8398 8.4386 11.6082z"/><path fill="#EA5A47" d="M40.0996 29.0166v.9051c0 .6223.4264 1.1314.9476 1.1314h9.6653v2.0365c0 .6222.4264 1.1314.9476 1.1314h7.2016c.5212 0 .9476-.5091.9476-1.1314v-4.073c0-.6222-.4264-1.1314-.9476-1.1314H41.0472c-.5212.0001-.9476.5092-.9476 1.1314z"/><path fill="#92D3F5" d="M33.2176 25.8222v11.4044c0 1.2332-.8867 2.2422-1.9874 2.2422H14.4855c-1.1007 0-1.9772-1.009-1.9772-2.2422V24.9152c.2344-3.6486 1.9262-6.8386 4.4333-8.8158C18.6029 14.7848 20.6514 14 22.8426 14c.6624 0 1.3045.0713 1.9262.214h.0102c4.8002 1.0293 8.4386 5.8398 8.4386 11.6082z"/><g fill="none" stroke="#000" stroke-miterlimit="10" stroke-width="2"><path stroke-linecap="round" d="M39.23 44.875V57.78c0 1.85-1.51 3.37-3.36 3.37-.93 0-1.77-.38-2.38-.99s-.99-1.46-.99-2.38V44.8438"/><path stroke-linecap="round" stroke-linejoin="round" d="M23.09 14.0098l.01-.01h23.07c.66 0 1.3.08 1.92.22h.01c3.97.85 7.14 4.28 8.12 8.7m-31.69 16.55l28.63.03c.14 0 .27-.01.4-.03.84-.11 1.58-.57 2.12-1.25"/><path stroke-linejoin="round" d="M40.0996 29.0166v.9051c0 .6223.4264 1.1314.9476 1.1314h9.6653v2.0365c0 .6222.4264 1.1314.9476 1.1314h7.2016c.5212 0 .9476-.5091.9476-1.1314v-4.073c0-.6222-.4264-1.1314-.9476-1.1314H41.0472c-.5212.0001-.9476.5092-.9476 1.1314z"/><path d="M33.2176 25.8222v11.4044c0 1.2332-.8867 2.2422-1.9874 2.2422H14.4855c-1.1007 0-1.9772-1.009-1.9772-2.2422V24.9152c.2344-3.6486 1.9262-6.8386 4.4333-8.8158C18.6029 14.7848 20.6514 14 22.8426 14c.6624 0 1.3045.0713 1.9262.214h.0102c4.8002 1.0293 8.4386 5.8398 8.4386 11.6082z"/><path stroke-linecap="round" d="M20.6616 17.5263v3.0167c0 .5605.4586 1.0192 1.0192 1.0192h2.0383c.5605 0 1.0192-.4586 1.0192-1.0192v-3.0779"/></g></svg>