<svg xmlns="http://www.w3.org/2000/svg" role="img" viewBox="11.26 13.13 51.48 48.23"><title>1F4ED.svg</title><path fill="#61b2e4" d="M58.7 27.6c0-5.4-2.9627-10.4219-7.3-11.6-3.4284-.9312-15.4-.6-15.4-.6l-11.8036-.0976c-.7 0 3.5036 6.2976 3.5036 12.2976v11.7a2.338 2.338 0 0 1-2.1226 2.3964L58.7 41.6z"/><path fill="#3f3f3f" d="M34.6 27.6v11.8a2.1631 2.1631 0 0 1-2.1 2.3H15.3a2.15 2.15 0 0 1-2-2.3V26.6a12.27 12.27 0 0 1 4.6-9.1 9.5025 9.5025 0 0 1 6.1-2.2 13.5523 13.5523 0 0 1 2 .2c4.9 1.1 8.6 6.1 8.6 12.1z"/><path fill="#ea5a47" d="M40.3773 31.53v.9a1.12 1.12 0 0 0 1 1.2h10v2.1a1.12 1.12 0 0 0 1 1.2h7.4a1.1256 1.1256 0 0 0 1-1.2v-4.2a1.12 1.12 0 0 0-1-1.2h-18.4a1.1256 1.1256 0 0 0-1 1.2z"/><path fill="#fff" d="M39.3 59.4V41.6533l-6.813.0082L32.5 46.4v13"/><g fill="none" stroke="#000" stroke-width="2"><path stroke-linecap="round" stroke-linejoin="round" d="M58.7 30.2954V27.6c0-5.4-3.0287-10.2014-7.3-11.6-3.4695-1.1361-27.2036-.6976-27.2036-.6976m1.381 26.394L58.7 41.6v-4.6283"/><path stroke-linejoin="round" d="M40.3773 31.53v.9a1.12 1.12 0 0 0 1 1.2h10v2.1a1.12 1.12 0 0 0 1 1.2h7.4a1.1256 1.1256 0 0 0 1-1.2v-4.2a1.12 1.12 0 0 0-1-1.2h-18.4a1.1256 1.1256 0 0 0-1 1.2z"/><path stroke-miterlimit="10" d="M34.6 27.6v11.8a2.1631 2.1631 0 0 1-2.1 2.3H15.3a2.15 2.15 0 0 1-2-2.3V26.6a12.27 12.27 0 0 1 4.6-9.1 9.5025 9.5025 0 0 1 6.1-2.2 13.5523 13.5523 0 0 1 2 .2h0c4.9 1.1 8.6 6.1 8.6 12.1z"/><path stroke-linecap="round" stroke-linejoin="round" d="M39.3 59.4V41.6533l-6.813.0082L32.5 46.4v13"/></g></svg>