<svg xmlns="http://www.w3.org/2000/svg" role="img" viewBox="8.71 15.09 54.08 41.70"><title>1F4E9.svg</title><path fill="#d0cfce" d="M20.28 23.563H52v3.125H20.28zm7.9472 17.2199l-3.2868 3.2264-2.2014-.9-11.3415 10.4474c-.35-.6201-.57-1.44-.57-2.32v-26.51l17.3997 16.0562z"/><path fill="#9b9b9a" d="M60.7675 24.6767v26.56c0 .86-.2 1.65-.55 2.27L48.7783 43.0324l-1.5232.1969-3.4731-2.8072 3.9748-3.7456 13.0107-11.9998z"/><path fill="#d0cfce" d="M26.7475 39.4167l4.47 4.13c.24.22.48.41.72.57 2.4301 1.8 5.26 1.8 7.6801-.01.23-.16.47-.36.69-.56l4.5-4.15"/><path fill="#d0cfce" stroke="#d0cfce" stroke-linecap="round" stroke-linejoin="round" stroke-width="1.8" d="M26.7475 39.4167l4.47 4.13c.24.22.48.41.72.57 2.4301 1.8 5.26 1.8 7.6801-.01.23-.16.47-.36.69-.56l4.5-4.15 15.41 14.11c-.42.77-1.07 1.27-1.79 1.27h-45.26c-.7 0-1.34-.47-1.77-1.22l15.3499-14.14"/><path fill="#d0cfce" d="M47.872 42.2026l12.3455 11.304c-.42.77-1.07 1.27-1.79 1.27h-45.26c-.7 0-1.34-.47-1.77-1.22l12.0782-11.126"/><path fill="#d0cfce" d="M49.5942 23.5667h9.46c.59 0 1.16.35 1.57.91.05.06.1.13.14.2l-15.96 14.72-4.5 4.15c-.22.2-.46.4-.69.56-2.42 1.81-5.25 1.81-7.68.01-.24-.16-.48-.35-.72-.57l-4.47-4.13-15.92-14.69c.04-.06.09-.13.14-.2.42-.6.99-.96 1.61-.96h8.48"/><path fill="#ea5a47" d="M29.9493 23.5974h1.5889c.5519 0 .9994-.4474.9994-.9994v-4.4112c0-.5519.4474-.9994.9994-.9994h4.3313c.5519 0 .9994.4474.9994.9994v4.6612c0 .5519.4474.7494.9994.7494h1.5788c.8109 0 1.2842.1649.8157.8268l-5.7482 8.1208c-.3983.5627-1.2331.5627-1.6314 0l-5.7482-7.8708c-.4687-.6619.0046-1.0768.8155-1.0768z"/><g fill="none" stroke="#000" stroke-linecap="round" stroke-width="2"><path stroke-linejoin="round" d="M22.739 43.1093L11.3975 53.5567c-.35-.6201-.57-1.44-.57-2.32v-26.51l17.3997 16.0562m15.5548-.3608l3.9748-3.7456 13.0107-11.9998v26.56c0 .86-.2 1.65-.55 2.27L48.7783 43.0324"/><path stroke-linejoin="round" d="M26.7475 39.4167l4.47 4.13c.24.22.48.41.72.57 2.4301 1.8 5.26 1.8 7.6801-.01.23-.16.47-.36.69-.56l4.5-4.15"/><path stroke-linejoin="round" d="M47.872 42.2026l12.3455 11.304c-.42.77-1.07 1.27-1.79 1.27h-45.26c-.7 0-1.34-.47-1.77-1.22l12.0782-11.126"/><path stroke-linejoin="round" d="M49.5942 23.5667h9.46c.59 0 1.16.35 1.57.91.05.06.1.13.14.2l-15.96 14.72-4.5 4.15c-.22.2-.46.4-.69.56-2.42 1.81-5.25 1.81-7.68.01-.24-.16-.48-.35-.72-.57l-4.47-4.13-15.92-14.69c.04-.06.09-.13.14-.2.42-.6.99-.96 1.61-.96h8.48"/><path stroke-miterlimit="10" d="M29.9493 23.5974h1.5889c.5519 0 .9994-.4474.9994-.9994v-4.4112c0-.5519.4474-.9994.9994-.9994h4.3313c.5519 0 .9994.4474.9994.9994v4.4112c0 .5519.4474.9994.9994.9994h1.5788c.8109 0 1.2842.4149.8157 1.0768l-5.7482 8.3708c-.3983.5627-1.2331.5627-1.6314 0l-5.7482-8.3708c-.4687-.6619.0046-1.0768.8155-1.0768z"/></g></svg>