<svg xmlns="http://www.w3.org/2000/svg" role="img" viewBox="5.01 10.01 51.74 50.87"><title>1F4F2.svg</title><g stroke-linecap="round" stroke-linejoin="round" stroke-miterlimit="10" stroke-width="2"><path fill="#9B9B9A" d="M54.0698 59H27.6801c-.4447 0-.8052-.3605-.8052-.8052V12.8052c0-.4447.3605-.8052.8052-.8052h26.3897c.4446 0 .8051.3605.8051.8052v45.3896c0 .4447-.3605.8052-.8051.8052z"/><path fill="#D0CFCE" d="M50.5937 52.053H31.1561c-.4314 0-.7812-.3498-.7812-.7812V18.8342c0-.4315.3498-.7812.7812-.7812h19.4376c.4315 0 .7812.3497.7812.7812v32.4376c0 .4314-.3497.7812-.7812.7812z"/><path fill="#FFF" d="M37 15h8-8z"/></g><g stroke="#000" stroke-miterlimit="10"><path fill="none" stroke-linecap="round" stroke-linejoin="round" stroke-width="2" d="M54.0698 59H27.6801c-.4447 0-.8052-.3605-.8052-.8052V12.8052c0-.4447.3605-.8052.8052-.8052h26.3897c.4446 0 .8051.3605.8051.8052v45.3896c0 .4447-.3605.8052-.8051.8052z"/><path fill="none" stroke-linecap="round" stroke-linejoin="round" stroke-width="2" d="M50.5937 52.053H31.1561c-.4314 0-.7812-.3498-.7812-.7812V18.8342c0-.4315.3498-.7812.7812-.7812h19.4376c.4315 0 .7812.3497.7812.7812v32.4376c0 .4314-.3497.7812-.7812.7812z"/><circle cx="41" cy="55.5" r="1.5"/><path fill="none" stroke-linecap="round" stroke-linejoin="round" stroke-width="2" d="M37 15h8-8z"/><path d="M16.5297 42.7513L17.6409 44 25.5 35.5029 17.6351 27 16.53 28.2401l5.1655 5.55c.1464.1573.1693.4427.051.6374-.0646.1065-.1621.1685-.265.1685H6.5v1.813h14.9675c.1882.0001.3407.203.3407.4534 0 .1369-.0466.2664-.1267.3525l-5.1518 5.5364z"/></g></svg>