<svg xmlns="http://www.w3.org/2000/svg" role="img" viewBox="6.86 8.74 59.15 49.27"><title>1F4F0.svg</title><path fill="#9B9B9A" d="M58.9041 56h2.4417C63.0344 56 64 54.9933 64 53.3365V10.9583H13.0408v13.2772"/><path fill="#9B9B9A" d="M59 56h2.3957C63.0526 56 64 54.9933 64 53.3365V10.9583H14v16.1541"/><path fill="#9B9B9A" stroke-linecap="round" stroke-linejoin="round" stroke-miterlimit="10" stroke-width="2" d="M59 56h2.3957C63.0526 56 64 54.9933 64 53.3365V10.9583H14"/><path fill="#D0CFCE" stroke-linecap="round" stroke-linejoin="round" stroke-miterlimit="10" stroke-width="2" d="M9 16h50v40H9z"/><g fill="none" stroke="#000" stroke-linecap="round" stroke-linejoin="round" stroke-miterlimit="10" stroke-width="2"><path d="M59 56h2.3957C63.0526 56 64 54.9933 64 53.3365V10.9583H14"/><path d="M9 16h50v40H9z"/><path d="M14 27.112h20.004v20.004H14zm0-5.113h40m-14.432 6.113H54m-14.432 6.367H54m-14.432 6.367H54m-14.432 6.367H54"/></g></svg>