<svg xmlns="http://www.w3.org/2000/svg" role="img" viewBox="6.91 13.91 56.81 44.06"><title>1F4FD.svg</title><path fill="#d0cfce" d="M42.6389 31.8639l-12.371-.3152-13.8725 11.1591.4431 13.2445 31.7828-.7021-.0516-4.1134-5.425-1.0927c-.5527 0-.5058-18.1802-.5058-18.1802zm5.3071 8.3621h7.066v4.556h-7.066z"/><path fill="#9b9b9a" d="M47.943 44.069l.107 2.425h6.857l.105-2.425h-7.069z"/><path fill="#d0cfce" d="M60.7265 44.3793c0-1.7945.065-2.6512.1481-3.6536h-5.863v4.8024h5.7347s-.0198-.4653-.0198-1.1488z"/><path fill="#d0cfce" d="M60.5723 45.494c-.0056-.052-.0103-.1144-.0155-.1698.0053.0646.0105.1227.0155.1698z"/><path fill="#9b9b9a" d="M55.0116 44.0688l-.1051 2.4251h6.856c-.0391-.3668-.2797-2.3728-.2797-2.3728l-6.4712-.0523zm-21.368-15.6181c.0036.0166.0153.0285.0197.0447-.0312-.1137-.042-.1455-.0197-.0447zm6.586-.0538c-.0002.0045.0003.0089 0 .0135.0001-.0045-.0003-.009 0-.0135zm7.0697 8.2496l-.2467.0274c.0081.0002.0155.0038.0236.0038.0744 0 .1487-.0138.2231-.0312z"/><path fill="#9b9b9a" d="M52.3867 21.4277c-2.1435-4.4756-8.5711-6.0514-13.2689-3.0185-4.3839 3.3671-5.3156 10.597-5.4545 10.0862.13.4756.8648 2.6605.8648 2.6605l5.1432.1189 2.7164-3.9992c.4883-.812 2.268-1.7955 2.8187-1.3907 1.253.9214-1.6947 7.2765-1.6947 7.2765l.1377 3.8894 3.4032-.3769c-.4261-.0105-.5357-1.4421.6401-2.0983 1.7236-.9639 3.4569-2.0367 4.5257-3.7835 1.7269-2.8225 1.5726-6.4323.1683-9.3644z"/><path fill="#9b9b9a" d="M45.7668 30.0366c-.0149.007-.0302.0125-.0454.0186.0154-.0065.0303-.0113.0454-.0186zm-15.947 2.3676c.1748-.1367.2202-1.4755.4429-1.4765l-.5565-1.7307c.0545.4878-1.5581.4131-1.6948-.1221-.8066-3.1538-3.7063-5.4551-6.847-6.294-4.7968-1.2827-9.3783 2.1105-10.5237 4.8668-.941 1.2724-1.7668 6.7659 1.3938 10.2806.4873.2607 2.0774 1.8287 2.4374 2.4736 0 0 .7204.3893.5916.6928l1.3529 1.0333c.3734.255.2732 1.1737.4221 1.0566l5.5177-4.7492-3.1692-3.2331-.4974-.3296c-.6143-.7217-1.1222-1.0329-.9992-2.0036.0967-.7667.0609-1.1753.6195-1.5689 1.2744-.8935 1.7364-.7536 2.8497.5579l1.0812.8509c.0157.0174.4983.8929.5126.911 0-.0002 2.8677 1.9541 2.8677 1.9541l4.1987-3.1699z"/><path fill="#d0cfce" d="M23.5283 33.0065c-.5374-.086-.4709-.4919-.863-.1374-.4092.3721-.3022.3185-.6723-.0897l-1.1997-1.1322c-.4659-.5488-2.3953-.1518-2.4207.0445-.0518.4092-.2705 1.6342 0 1.9526l.2098 1.558c.3427.4336 1.0781.6189.6455.9617-.1846.1455-.1927.7569-.39.5079l2.0237 2.3191 4.775-3.7469-2.1083-2.2376zm19.1106-1.1426l1.0028 1.4762 2.4474-3.5369s-.0003-.005-.0003-.0052c-.1923.2162.964-3.5686-1.1614-4.1405-2.1253-.5718-4.7971 2.8435-4.6277 2.4111l-1.6134 2.8159v.9794c.2725.0029 3.9516-.2656 3.9526 0zM40.646 27.464z"/><g fill="none" stroke="#000" stroke-linecap="round" stroke-linejoin="round" stroke-width="2"><path d="M45.3461 29.1377l.3297-.5876c.6377-1.0595.444-2.2743-.3788-2.879-.8227-.6047-2.2838-.09-2.9215.9694l-1.1633 1.7874m7.3958-6.9999l-.969 1.026m-5.992-1.997l.881 1.255m4.37 10.313l.045.161m-9.296-6.66l1.198.263m11.807 2.164l-1.288-.443M21.956 43.993h12.307m-12.307 4h12.307m-12.307 4h12.307m-12.307-8h12.307m-12.307 4h12.307m-12.307 4h12.307m8.415-1.65v-5.61h-.013l-.026-12.869-12.371.064-13.43 10.537v13.487h32.485v-5.609h-6.645zm19.0845-3.8491h-6.856v-6.5555h6.856s-.2947.8214-.2947 3.2778.2947 3.2777.2947 3.2777z"/><path d="M56.059 46.494H48.05v-6.556h8.009m-41.7446.6571c-4.003-2.1406-6.1592-6.8223-4.937-11.3972 1.4254-5.3358 6.9064-8.5057 12.2421-7.0803 3.6206.9672 6.244 3.8018 7.1111 7.1913"/><path d="M22.7534 33.62l-1.5938-1.7619c-.8012-.9419-2.0144-1.1452-2.8497-.5579-.8352.5873-.8128 2.1362-.0117 3.0781l1.3238 1.6721M18.235 25.54l.15 1.404m-5.413 3.255l1.526.145m-.275 6.19l.979-.74m9.32-7.564l-1.174.69m23.7288 6.7581c.6124-.1736 1.3634-.466 2.4997-1.1004 1.9943-1.1134 2.9915-2.7252 2.9915-2.7252 2.0117-2.8624 2.46-6.6986.8411-10.0784-2.3858-4.9809-8.3577-7.0847-13.3387-4.6989-4.2707 2.0456-6.4262 6.7276-5.4503 11.1608"/></g></svg>