<svg xmlns="http://www.w3.org/2000/svg" role="img" viewBox="15.87 9.49 38.89 52.39"><title>1F4F4.svg</title><path fill="#9b9b9a" d="M44.07 25h3v26h-3z"/><path fill="#9b9b9a" d="M47.1249 46.3066v12.8577c0 .4616-.3741.8357-.8357.8357H18.7108c-.4616 0-.8357-.3741-.8357-.8357V12.3645c0-.4616.3741-.8357.8357-.8357h27.5784c.4616 0 .8357.3741.8357.8357v14.0542"/><path fill="#d0cfce" d="M41.23 25h3v26h-3z"/><path fill="#d0cfce" d="M43.3642 46.3066v4.7258c0 .4459-.3614.8074-.8074.8074H22.4431c-.4459 0-.8074-.3614-.8074-.8074V17.5473c0-.4459.3614-.8074.8074-.8074h20.1137c.4459 0 .8074.3614.8074.8074v8.8714"/><g><path fill="none" stroke="#000" stroke-linecap="round" stroke-linejoin="round" stroke-width="2" d="M47.1249 46.3066v12.8577c0 .4616-.3741.8357-.8357.8357H18.7108c-.4616 0-.8357-.3741-.8357-.8357V12.3645c0-.4616.3741-.8357.8357-.8357h27.5784c.4616 0 .8357.3741.8357.8357v14.0542"/><path fill="none" stroke="#000" stroke-linecap="round" stroke-linejoin="round" stroke-width="2" d="M43.3642 46.3066v4.7258c0 .4459-.3614.8074-.8074.8074H22.4431c-.4459 0-.8074-.3614-.8074-.8074V17.5473c0-.4459.3614-.8074.8074-.8074h20.1137c.4459 0 .8074.3614.8074.8074v8.8714"/><circle cx="32.5" cy="56.018" r="1.671"/><path fill="none" stroke="#000" stroke-linecap="round" stroke-linejoin="round" stroke-width="2" d="M28.321 14.233h8.358-8.358zM43.83 36.47h-3v3.5-7h4m7 3.5h-3v3.5-7h4M33.5 39.9699h0c-1.3807 0-2.5-1.1193-2.5-2.5v-2c0-1.3807 1.1193-2.5 2.5-2.5h0c1.3807 0 2.5 1.1193 2.5 2.5v2c0 1.3807-1.1193 2.5-2.5 2.5z"/></g></svg>