<svg xmlns="http://www.w3.org/2000/svg" role="img" viewBox="10.11 9.48 51.78 52.78"><title>1F4FB.svg</title><g id="color"><path fill="#d0cfce" d="M13.2227,59.3477h45.7451V32.7764H13.2227V59.3477z"/><path fill="#9B9B9A" d="M18.7401,38.2841l36.479,0.177l0.4075-2.1818H16.6237v11.1684l2.0825,0.336L18.7401,38.2841z"/><path fill="#d0cfce" d="M59.968 23.793L12.223 23.793 12.223 26.621 59.968 26.606z"/><circle cx="22.268" cy="13.569" r="1" fill="#d0cfce"/><circle cx="22.49" cy="41.984" r="2" fill="#3f3f3f"/></g><g id="line" fill="none" stroke="#000" stroke-linecap="round" stroke-linejoin="round" stroke-miterlimit="10" stroke-width="2"><path d="M47.434 27.214L55.219 31.428M24.028 14.546L34.665 20.303"/><circle cx="22.267" cy="13.569" r="2"/><path d="M12.223 31.777H59.967999999999996V60.348H12.223zM16.546 52.237L55.118 52.237M16.546 56.237L55.118 56.237"/><path d="M16.624 36.279H55.218999999999994V47.783H16.624z"/><circle cx="22.491" cy="41.985" r="2"/><path d="M12.223 26.946L12.223 23.793 59.968 23.793 59.968 26.946M38.294 41.697L38.294 42.364M42.294 41.697L42.294 42.364M46.294 41.697L46.294 42.364"/></g></svg>