<svg xmlns="http://www.w3.org/2000/svg" role="img" viewBox="10.27 3.89 52.84 64.22"><title>1F4FF.svg</title><circle cx="40.467" cy="54" r="1.95"/><path fill="#F1B31C" d="M37.304 56.926l1.303-3.658 3.798.242.317 4.418z"/><path fill="#F1B31C" d="M41.562 55.217l.843 10.775-7.124-1.185 3.784-9.81"/><circle cx="40.467" cy="54" r="2" fill="#FCEA2B"/><path fill="#F1B31C" d="M41.783 58.045l.622 7.947-7.124-1.185 2.843-7.37"/><g fill="none" stroke="#000" stroke-linecap="round" stroke-linejoin="round"><path stroke-miterlimit="10" stroke-width="2" d="M41.783 58.045l.622 7.947-7.124-1.185 2.843-7.37"/><path stroke-dasharray="0 6.735 0 0 0 0" stroke-width="4" d="M47.6095 12.8474c1.1383 11.1934-2.5564 14.3792 7.9682 15.4424 10.5246 1.0632.6967 20.0417-13.9754 20.0417S25.2386 38.0801 29.4125 33.9062c4.1738-4.1738-3.1185-6.2607-4.3102-4.1738s-17.9028.1524-9.9347-10.6242S46.4711 1.654 47.6095 12.8474z"/></g><g><path fill="none" stroke="#D22F27" stroke-dasharray="0 6.735 0 0 0 0" stroke-linecap="round" stroke-linejoin="round" stroke-width="4" d="M47.6095 12.8474c1.1383 11.1934-2.5564 14.3792 7.9682 15.4424 10.5246 1.0632.6967 20.0417-13.9754 20.0417S25.2386 38.0801 29.4125 33.9062c4.1738-4.1738-3.1185-6.2607-4.3102-4.1738s-17.9028.1524-9.9347-10.6242S46.4711 1.654 47.6095 12.8474z"/></g></svg>