<svg xmlns="http://www.w3.org/2000/svg" role="img" viewBox="2.98 14.73 66.04 42.41"><title>1F4FC.svg</title><path fill="#D0CFCE" d="M5.2797 17.0587v34.841c0 1.1026 1.8975 3 3 3H63.843c1.1025 0 3-1.8974 3-3v-34.841H5.2797z"/><path fill="none" d="M11 28.115v-7.039h49.983v7.039"/><path fill="#FFF" d="M49.1871 42.833c2.0872 0 3.7793-1.6921 3.7793-3.7793 0-2.0873-1.6921-3.7794-3.7793-3.7794v7.5587z"/><path fill="#FCEA2B" d="M27.402 31.876h17.227v13.58H27.402z"/><path fill="#FFF" d="M51.9668 39.0537c0-1.1797-.7393-2.1904-1.7793-2.5937v5.1875c1.04-.4034 1.7793-1.4141 1.7793-2.5938zm-32.0625 0c0 1.1797.7393 2.1904 1.7793 2.5938V36.46c-1.04.4033-1.7793 1.414-1.7793 2.5937z"/><path fill="#D0CFCE" d="M13.4614 39.3423c0 4.0913 5.0779 7.9026 9.2223 8.4176V42.833c-2.3654-.4828-3.7793-1.3807-3.7793-3.7793 0-2.3985 1.4139-3.2966 3.7793-3.7794v-4.9268s-4.0828 1.2914-5.5313 1.9847c-1.3174.6305-3.691 7.0101-3.691 7.0101zm40.6525-7.4663c-1.5628-1.1186-4.1301-1.4925-4.1301-1.4925l.2037 5.0282s2.4418 1.3699 2.4418 3.4104c0 1.9308-1.5522 2.962-3.1237 4.0109l-.3185 5.1634c3.7497-1.3535 9.0277-4.0938 8.5777-9.7128-.45-5.6189-3.156-6.0533-3.6509-6.4076z"/><path fill="#9B9B9A" d="M22.6837 32.6647l-.7888-2.3172c-3.7783.4922-8.1744 5.1224-6.9174 8.7062 0 0 .5725-1.6479 1.2564-2.7343.6839-1.0865 1.7737-2.2682 2.9748-2.8709 1.3205-.6625 3.475-.7838 3.475-.7838zm29.2844 14.5219c-.5646.2192-2.1616.7291-2.781.8098l.3185-5.1634c.6524-.1396 1.9366-.0236 2.4612-.3997l.0013 4.7533zm4.4758-10.7282c1.3479-2.0593-4.358-5.7333-7.2568-6.1109v4.4879c.5391.1154 2.0453.8634 2.5007 1.1438l.0621-3.2199s1.3258.4776 2.525 1.4021c1.1992.9246 2.169 2.297 2.169 2.297zm3.5385-13.1241v-1.2581H12v6.039c0 .4141-.2512.7688-.6094.9207 0 0 1.823.2259 1.823-.9206v-4.781M61.982 21.076z"/><g fill="none" stroke="#000" stroke-linecap="round" stroke-linejoin="round" stroke-miterlimit="10" stroke-width="2"><path d="M63.843 54.8997H8.2797c-1.6569 0-3-1.3431-3-3v-34.841H66.843v34.841c0 1.6569-1.3432 3-3 3z"/><path d="M22.6837 30.3475c-4.8083 0-8.7062 3.8979-8.7062 8.7062s3.8979 8.7062 8.7062 8.7062V30.3475zm26.5034 17.4124c4.8083 0 8.7062-3.8979 8.7062-8.7062s-3.8979-8.7062-8.7062-8.7062v17.4124z"/><path d="M22.6837 35.2743c-2.0873 0-3.7793 1.6921-3.7793 3.7794 0 2.0872 1.692 3.7793 3.7793 3.7793v-7.5587zm4.3903-3.3983H44.63v13.58H27.074zM11 28.115v-7.039h49.983v7.039M49.1871 42.833c2.0872 0 3.7793-1.6921 3.7793-3.7793 0-2.0873-1.6921-3.7794-3.7793-3.7794v7.5587zM16.783 25.812h39.339"/></g></svg>