<svg xmlns="http://www.w3.org/2000/svg" role="img" viewBox="9.57 9.32 54.99 48.62"><title>1F4F9.svg</title><path fill="#D0CFCE" d="M55.281 53.184l1.561-.001v-.003z"/><path fill="#D0CFCE" d="M56.9266 51.1826l-.0868-18.9756-6.0229.0034.0839-9.2465s-11.988.852-11.988.2998l-.3192-2.7549-23.3022.2012-.1605 35.4266 35.4702-.1364.0255-2.8145 5.7991-.006c-.5485-.0028.5009-1.9971.5009-1.9971z"/><path fill="#3F3F3F" d="M62.588 24.313L54.32 11.442l-2.921 5.403-8.519 6.419 7.257.5.866 6.554 5.797-4.576z"/><path fill="#9B9B9A" d="M45.3017 49.7968V32.5206c0-1.2146-.9887-2.2032-2.2032-2.2032H23.7052V52h19.3933c1.2145 0 2.2032-.9887 2.2032-2.2032z"/><circle cx="34.259" cy="43.337" r="5" fill="#D0CFCE"/><path fill="#3F3F3F" d="M11.838 20.597h3.453v18.74h-3.453z"/><g fill="none" stroke="#000" stroke-linecap="round" stroke-linejoin="round" stroke-miterlimit="10" stroke-width="2"><path d="M57.577 25.129l-6.574 5.189m-7.105-7.354l7.113-5.402m0 .011l6.581 7.556 4.996-.816-8.268-12.871zm-35.72 21.852v16.551h35.31V23.264H38.594v-2.755H15.521m39.258 12.704l2.063-.006v18.972l-2.063.006"/><path d="M42.3054 52H23.7011V30.3178h18.6043c1.6569 0 3 1.3431 3 3V49c0 1.6569-1.3431 3-3 3z"/><circle cx="34.258" cy="43.337" r="5"/><path d="M11.666 20.509h3.626v18.916h-3.626z"/></g></svg>