<svg xmlns="http://www.w3.org/2000/svg" role="img" viewBox="9.48 9.35 52.55 53.17"><title>1F507.svg</title><g stroke-miterlimit="10"><path fill="#d0cfce" stroke="#d0cfce" stroke-linecap="round" stroke-linejoin="round" stroke-width="2" d="M33.7701 47.4133l16.436 13.128-.001-49.166-16.435 13.346m-.0551.0797v21.25"/><path fill="#9b9b9a" stroke="#9b9b9a" stroke-width="1.938" d="M32.7926 24.7213H20.8553c-1.554.005-2.8125 1.3452-2.8172 3v16.692c.0047 1.6548 1.2632 2.995 2.8172 3h11.9373"/></g><path d="M50.2195 45.4881l-.0007-34.1129-16.435 13.346h-4.1277m-9.4267.1222c-1.2445.3664-2.1535 1.5155-2.1576 2.8778v16.692c.005 1.6548 1.3452 2.995 3 3h12.712l16.436 13.128-.0001-5.659M33.784 25.333V29m0 10v8.051M11.605 11.783l48.5 48.499" fill="none" stroke="#000" stroke-linecap="round" stroke-linejoin="round" stroke-width="2"/></svg>