<svg xmlns="http://www.w3.org/2000/svg" role="img" viewBox="8.90 9.27 57.46 53.34"><title>1F50A.svg</title><path fill="#9b9b9a" d="M12.0791 44.4113v-16.694c0-1.1046.8955-2 2-2h11.712v20.692h-11.712c-1.1037 0-1.9988-.8942-2-1.998z"/><path fill="#d0cfce" d="M42.2681 58.4333l-14.5-11.579a.9744.9744 0 0 0 .061-.3v-21.25a.91949.91949 0 0 0-.024-.117l14.459-11.74.004 44.986z"/><g fill="none" stroke="#000" stroke-linecap="round" stroke-width="2"><path stroke-linejoin="round" d="M43.2188 11.3752l-16.435 13.346h-12.712c-1.6548.005-2.995 1.3452-3 3v16.692c.005 1.6548 1.3452 2.995 3 3h12.712l16.436 13.128-.001-49.166zM26.784 25.333v21.25"/><path stroke-miterlimit="10" d="M54.6738 24.6122c5.0427 6.7235 5.0427 15.9684 0 22.692m-4.3049-18.5217c3.1892 4.2523 3.1892 10.0991 0 14.3514m8.5-23.3514c7.1892 9.5856 7.1892 22.7658 0 32.3514"/></g></svg>