<svg xmlns="http://www.w3.org/2000/svg" role="img" viewBox="8.44 12.19 54.99 41.74"><title>1F50F.svg</title><g id="color"><g id="_1F50F"><path fill="#fcea2b" d="M37.48 34.315L37.48 52.009 10.561 52.009 10.561 34.315 11.907 34.315 36.134 34.315 37.48 34.315"/><path fill="#f1b31c" d="M37.48 34.365L23.879 51.878 37.551 51.878 37.48 34.365z"/><path fill="none" stroke="#9b9b9a" stroke-linejoin="round" stroke-width="3.625" d="M14.9071,33.8116c0-6.6518,2.1867-13.6858,8.9363-13.6858,6.8717,0,9.0737,5.5584,9.3486,13.6858"/><path fill="#d0cfce" stroke="#d0cfce" stroke-linecap="round" stroke-linejoin="round" stroke-width="1.563" d="M42.923 41.776L40.042 46.616 34.701 47.873 34.12 42.889 38.097 38.739"/><path fill="#9b9b9a" d="M61.4392,17.0306,59.2519,15.68l-2.16-1.386s-7.1483,5.7268-11.3965,11.7417a109.0153,109.0153,0,0,0-7.9309,12.4935l2.8285,1.78,2.6586,1.6735a138.8534,138.8534,0,0,0,10.09-11.1344A63.4177,63.4177,0,0,0,61.4392,17.0306Z"/><path fill="#3f3f3f" d="M43.3,29.7721a60.7017,60.7017,0,0,0-5.6274,8.6992l2.8285,1.78,2.6586,1.6735A63.8691,63.8691,0,0,0,50.336,34.201Z"/></g></g><g id="line"><g id="_1F50F-2" fill="none" stroke="#000" stroke-linejoin="round" stroke-width="2"><path d="M13.6972,34.3068c0-7.5322,2.9241-15.2583,10.1189-15.2583,6.899,0,10.2745,6.0553,10.5858,15.2583"/><path stroke-linecap="round" d="M37.48 50.39L37.48 51.944 10.561 51.944 10.561 34.3 11.907 34.3 36.134 34.3 37.48 34.3"/><path stroke-linecap="round" d="M41.799 44.313L40.113 46.606 34.701 47.873 34.106 42.825 35.863 40.522M37.088 44.702L35.402 46.995M61.4392 17.0306L59.2519 15.68l-2.16-1.386s-7.1483 5.7268-11.3965 11.7417a109.0153 109.0153 0 0 0-7.9309 12.4935l2.8285 1.78 2.6586 1.6735a138.8534 138.8534 0 0 0 10.09-11.1344A63.4177 63.4177 0 0 0 61.4392 17.0306z"/><path d="M43.208 29.643L50.613 34.301"/></g></g></svg>