<svg xmlns="http://www.w3.org/2000/svg" role="img" viewBox="12.49 6.12 45.63 58.76"><title>1F514.svg</title><circle cx="35.61" cy="57.772" r="5" fill="#f1b31c" stroke="#f1b31c" stroke-miterlimit="10" stroke-width="2"/><path fill="#fcea2b" d="M56.1048 56.7825s-2.0587-3.7664-3.254-9.5855c-1.3523-6.5836-1.8795-15.5146-2.246-19.4145-.7752-8.2479-6.7157-15-15-15h-.5c-8.2843 0-14.2248 6.7521-15 15-.3665 3.8999-.8937 12.8309-2.246 19.4145-1.1953 5.8191-3.254 9.5855-3.254 9.5855h41.5z"/><g fill="none" stroke="#000" stroke-linecap="round" stroke-linejoin="round"><path stroke-width="2" d="M30.1048 13.2825c0-2.7614 2.2386-5 5-5s5 2.2386 5 5m-.0176 46.718c-.8174 1.6487-2.5176 2.782-4.4824 2.782-1.9659 0-3.6667-1.1345-4.4836-2.7845"/><path stroke-miterlimit="10" stroke-width="1.818" d="M56.1048 56.7825s-2.0587-3.7664-3.254-9.5855c-1.3523-6.5836-1.8795-15.5146-2.246-19.4145-.7752-8.2479-6.7157-15-15-15h-.5c-8.2843 0-14.2248 6.7521-15 15-.3665 3.8999-.8937 12.8309-2.246 19.4145-1.1953 5.8191-3.254 9.5855-3.254 9.5855h41.5z"/></g></svg>