<svg xmlns="http://www.w3.org/2000/svg" role="img" viewBox="21.13 12.13 30.11 45.11"><title>1F51D.svg</title><path fill="#3f3f3f" d="M35.991 14L23 28.516h9.527L32.69 40h6.793l-.027-11.484h9.526L35.991 14"/><g fill="none" stroke="#000" stroke-linecap="round" stroke-linejoin="round" stroke-width="2"><path d="M35.991 14L23 28.516h9.527L32.69 40h6.793l-.027-11.484h9.526L35.991 14m.339 41.47h0a3.5714 3.5714 0 0 1-3.5714-3.5714v-2.8573A3.5714 3.5714 0 0 1 36.33 45.47h0a3.5714 3.5714 0 0 1 3.5714 3.5714v2.8572A3.5714 3.5714 0 0 1 36.33 55.47z"/><path d="M24.143 45.5h5.714M27 45.5v10"/><path d="M43.1422 55.47v-10h3.8132a2.49 2.49 0 0 1 2.4905 2.4907h0a2.49 2.49 0 0 1-2.4905 2.4906h-3.8132"/></g></svg>