<svg xmlns="http://www.w3.org/2000/svg" role="img" viewBox="14.90 10.40 41.82 50.57"><title>1F512.svg</title><path fill="#D0CFCE" stroke="#D0CFCE" stroke-linecap="round" stroke-linejoin="round" stroke-miterlimit="10" stroke-width="2" d="M21.3751 31.1747c-.3501-8.7708 6.4491-18.5395 14.387-18.7794 8.0047-.2419 16.5412 10.9698 14.333 19.052h-4.0394s1.5619-7.922-2.2164-11.2535c-1.8494-1.6307-5.2556-4.771-8.6396-4.2922-2.2829.323-6.8677 3.4518-7.9271 5.4209-2.0643 3.8367-1.7248 9.8169-1.7248 9.8169l-4.1727.0353z"/><path fill="#FCEA2B" d="M53 32.297h1.875v26.875h-38V32.297h1.875z"/><path fill="#F1B31C" d="M54.43 32.493L35.66 58.994h19.308z"/><g fill="none" stroke="#000" stroke-linecap="round" stroke-linejoin="round" stroke-miterlimit="10" stroke-width="2"><path d="M53 32.25h1.875v26.875h-38V32.25h1.875zm-31.6249-3.3354c0-8.3786 6.4151-16.2744 14.3184-16.523 7.9697-.2507 15.4098 7.2847 14.7416 16.523"/><path d="M25.5478 28.9146c0-6.3352 4.5755-12.3054 10.2123-12.4934 5.6843-.1896 10.9908 5.5081 10.5142 12.4934"/></g></svg>