<svg xmlns="http://www.w3.org/2000/svg" role="img" viewBox="7.72 8.47 46.69 53.69"><title>1F52D.svg</title><path fill="#3f3f3f" d="M52.3814 18.772l-3.5781-8.2122-6.837 3.3699c.2373-.1073 3.2886 7.6306 3.2886 7.6306.1093.2534 7.1265-2.7883 7.1265-2.7883z"/><path fill="#9b9b9a" d="M29.095 27.698l3.8277-1.665c-.0619.0172 12.4053-4.5587 12.4053-4.5587l-3.1999-7.6428-15.205 7.5593 2.1719 6.3072z"/><path fill="#9b9b9a" d="M14.6585 27.9833l1.7596 3.9323 13.2103-4.4182-2.4411-6.2384-4.0234 2.1377c.2375-.0993-8.5054 4.5866-8.5054 4.5866z"/><g><path fill="none" stroke="#000" stroke-linecap="round" stroke-linejoin="round" stroke-width="2" d="M16.019 56.662l13.13-20.623h2.475l12.271 20.617M30.462 36.741v23.516M9.748 32.575l2.087-.863m33.798-19.533l3.17-1.619 3.578 8.212-3.179 1.141m-22.38.011l3.531 11.437"/><circle cx="30.353" cy="31.361" r="2"/><path fill="none" stroke="#000" stroke-linecap="round" stroke-linejoin="round" stroke-width="2" d="M25.028 28.533l-8.831 3.199-1.538-3.558 8.887-4.617m7.376-3.776l11.206-5.699 3.127 7.228-12.599 4.519"/></g></svg>