<svg xmlns="http://www.w3.org/2000/svg" role="img" viewBox="10.00 10.00 51.87 51.87"><title>1F524.svg</title><path fill="#d0cfce" stroke-linejoin="round" stroke-miterlimit="10" stroke-width="2" d="M59.0349 60H12.9651c-.5308 0-.9651-.4343-.9651-.9651V12.9651c0-.5308.4343-.9651.9651-.9651h46.0698c.5308 0 .9651.4343.9651.9651v46.0698c0 .5308-.4343.9651-.9651.9651z"/><g fill="none" stroke="#000" stroke-linejoin="round" stroke-miterlimit="10" stroke-width="2"><path d="M59.0349 60H12.9651c-.5308 0-.9651-.4343-.9651-.9651V12.9651c0-.5308.4343-.9651.9651-.9651h46.0698c.5308 0 .9651.4343.9651.9651v46.0698c0 .5308-.4343.9651-.9651.9651z"/><path stroke-linecap="round" d="M47.5663 40.8709c-.4413.3914-1.022.6291-1.6583.6291h0c-1.3807 0-2.5-1.1193-2.5-2.5v-2 2-2c0-1.3807 1.1193-2.5 2.5-2.5h0c.6363 0 1.217.2377 1.6583.6292M36.3633 41.75h0c1.3807 0 2.5-1.1193 2.5-2.5v-2c0-1.3807-1.1193-2.5-2.5-2.5h0c-1.3807 0-2.5 1.1193-2.5 2.5v2c0 1.3807 1.1193 2.5 2.5 2.5zm-2.5003-2.97v-9M23.4337 39.9583h0c0 .9895.8523 1.7917 1.9036 1.7917h1.5229c1.0513 0 1.9036-.8022 1.9036-1.7917h0c0-.9895-.8523-1.7917-1.9036-1.7917h-1.5229c-1.0513.0001-1.9036.8022-1.9036 1.7917z"/><path stroke-linecap="round" d="M23.8369 35.5208c.4185-.5629 1.1625-.9374 2.0105-.9374h.8291c1.3083 0 2.3689.8913 2.3689 1.9907h0V41.75"/></g></svg>