<svg xmlns="http://www.w3.org/2000/svg" role="img" viewBox="20.70 11.33 31.48 54.60"><title>1F527.svg</title><path fill="#D0CFCE" d="M41 64.9049V36.4955l1.3665-.5232c4.0791-1.5617 7.0017-5.2461 7.6335-9.623.601-4.2688-.4505-7.5594-3-10.1462 0 0-1.3928-1.4132-3.5973-2.4706-.6527-.3131-1.4027.1966-1.4027.929v7.6293l-2 3.0439h-7l-2-3.0439v-7.6293c0-.7324-.75-1.2421-1.4026-.929C27.3928 14.7899 26 16.2031 26 16.2031c-2.5495 2.5868-3.601 5.8774-3 10.1462.005.0356.0102.0712.0154.1068.6494 4.3916 3.72 8.0239 7.815 9.5916L32 36.4955v28.4094"/><path fill="none" stroke="#000" stroke-linecap="round" stroke-linejoin="round" stroke-miterlimit="10" stroke-width="2" d="M41 63.9064v-28l1.3665-.5157c4.0791-1.5392 7.0017-5.1705 7.6335-9.4843v0c.601-4.2073-.4505-7.4505-3-10 0 0-1.3928-1.3928-3.5973-2.435-.6527-.3085-1.4027.1939-1.4027.9157v7.5193l-2 3h-7l-2-3v-7.5193c0-.7219-.75-1.2242-1.4026-.9157C27.3928 14.5136 26 15.9064 26 15.9064c-2.5495 2.5495-3.601 5.7927-3 10 .005.0351.0102.0702.0154.1052.6494 4.3283 3.72 7.9082 7.815 9.4534L32 35.9064v28"/></svg>