<svg xmlns="http://www.w3.org/2000/svg" role="img" viewBox="10.00 10.00 51.87 51.87"><title>1F523.svg</title><path fill="#d0cfce" stroke-linejoin="round" stroke-miterlimit="10" stroke-width="2" d="M59.0349 60H12.9651c-.5308 0-.9651-.4343-.9651-.9651V12.9651c0-.5308.4343-.9651.9651-.9651h46.0698c.5308 0 .9651.4343.9651.9651v46.0698c0 .5308-.4343.9651-.9651.9651z"/><path fill="none" stroke="#000" stroke-linejoin="round" stroke-miterlimit="10" stroke-width="2" d="M59.0349 60H12.9651c-.5308 0-.9651-.4343-.9651-.9651V12.9651c0-.5308.4343-.9651.9651-.9651h46.0698c.5308 0 .9651.4343.9651.9651v46.0698c0 .5308-.4343.9651-.9651.9651z"/><path d="M23.441 27.048h4.485v7.175h1.75v-7.175h4.484v-1.786H23.441zm0-5.272H34.16v1.769H23.441zm9.8051 22.389l.0146-.2642h-1.665l-.0098.2397c-.0391.9561-.2207 1.5845-.627 2.1655l-2.5195-3.0054.8701-.6021c.8765-.6035 1.2847-1.2803 1.2847-2.1299 0-1.5815-1.1738-2.6865-2.8545-2.6865-1.7578 0-2.939 1.0728-2.939 2.6699 0 1.1372.748 2.0034 1.2437 2.5771-1.1489.7559-2.3726 1.7046-2.3726 3.3896 0 2.2075 1.4878 3.5791 3.8828 3.5791 1.8452 0 2.8398-.8608 3.3198-1.2788l.9751 1.1772h2.2236l-2.0107-2.3994c.7228-.8444 1.0987-1.9352 1.1837-3.4318zm-5.5064-4.768c.7007 0 1.1899.4893 1.1899 1.1895 0 .5713-.4194.9341-.8726 1.2412l-.5688.3857c-.6113-.7153-.9219-1.1665-.9219-1.6445.0001-.712.4606-1.1719 1.1734-1.1719zm-.7436 4.8222l2.8418 3.3779c-.7246.6455-1.4077.9209-2.2832.9209-1.2563 0-2.1685-.855-2.1685-2.0332 0-1.1498.8179-1.7172 1.6099-2.2656zm19.085-.6811c-1.3115 0-2.2275 1.0493-2.2275 2.5513v1.6978c0 1.5024.916 2.5518 2.2275 2.5518 1.3125 0 2.2285-1.0493 2.2285-2.5518v-1.6978c0-1.502-.916-2.5513-2.2285-2.5513zm.6406 2.602v1.5967c0 .959-.4658.959-.6406.959s-.6396 0-.6396-.959v-1.5967c0-.9595.4648-.9595.6396-.9595.1582.0001.6406.0001.6406.9595zM44.555 37.76l-4.946 12.461h1.697l4.931-12.461zm-2.5472 4.1296v-1.6963c0-1.5024-.916-2.5518-2.2285-2.5518-1.3115 0-2.2275 1.0493-2.2275 2.5518v1.6963c0 1.4932.916 2.5356 2.2275 2.5356 1.3125.0001 2.2285-1.0424 2.2285-2.5356zm-2.8682-.0502v-1.5957c0-.9595.4648-.9595.6396-.9595.1582 0 .6406 0 .6406.9595v1.5957c0 .9429-.4658.9429-.6406.9429-.1913-.0001-.6396-.0001-.6396-.9429zm2.3887-7.5137c1.4463 0 2.6357-1.1763 2.6553-2.6533v-8.3828h1.1523v.8457c0 .2759.2246.5.5.5h.5391c.2754 0 .5-.2241.5-.5v-1.1494c0-.6812-.5537-1.2354-1.2344-1.2354h-1.7607c-.6816 0-1.2354.5542-1.2354 1.2354V29.27c-.3486-.165-.7275-.251-1.1162-.251-1.4629 0-2.6533 1.1904-2.6533 2.6533s1.1904 2.6534 2.6533 2.6534zm0-3.7695c.6152 0 1.1162.501 1.1162 1.1162 0 .6157-.501 1.1162-1.1162 1.1162s-1.1162-.5005-1.1162-1.1162c0-.6153.501-1.1162 1.1162-1.1162z"/></svg>