<svg xmlns="http://www.w3.org/2000/svg" role="img" viewBox="10.00 10.00 51.87 51.87"><title>1F522.svg</title><path fill="#d0cfce" stroke-linejoin="round" stroke-miterlimit="10" stroke-width="2" d="M59.0349 60H12.9651c-.5308 0-.9651-.4343-.9651-.9651V12.9651c0-.5308.4343-.9651.9651-.9651h46.0698c.5308 0 .9651.4343.9651.9651v46.0698c0 .5308-.4343.9651-.9651.9651z"/><g fill="none" stroke="#000" stroke-linejoin="round" stroke-miterlimit="10" stroke-width="2"><path d="M59.0349 60H12.9651c-.5308 0-.9651-.4343-.9651-.9651V12.9651c0-.5308.4343-.9651.9651-.9651h46.0698c.5308 0 .9651.4343.9651.9651v46.0698c0 .5308-.4343.9651-.9651.9651z"/><path stroke-linecap="round" d="M39.4907 24.9226c.2864-1.3997 1.5249-2.4527 3.0093-2.4527h0c.8481 0 1.6161.3439 2.172.8997.8647.8647.7849 2.3016-.0264 3.2164l-5.2173 5.8839h6.1434M27.7088 46.4738c.263 1.1393 1.3999 1.9961 2.7626 1.9961h0c1.5574 0 2.8199-1.1193 2.8199-2.5s-1.2624-2.5-2.8199-2.5c1.5574 0 2.8199-1.1193 2.8199-2.5s-1.2624-2.5-2.8199-2.5h0c-1.3627 0-2.4996.857-2.7626 1.9961m.4072-15.922l2.768-2.074v10m12.407 6l-3.716 8.401h5.85m-.964-3.097v4.696"/></g></svg>