<svg xmlns="http://www.w3.org/2000/svg" role="img" viewBox="14.91 11.66 40.93 50.18"><title>1F52C.svg</title><g id="color"><path fill="#d0cfce" d="m34.8755,39.625c-.1825.0002-.3616-.0498-.5176-.1445l-7.6992-4.6592c-.4708-.285-.623-.8967-.3408-1.3692l11.1172-18.5849c.2839-.4741.8983-.6283,1.3724-.3444.0012.0007.0024.0014.0035.0021l7.7,4.6592c.4722.2862.6234.9008.3379,1.3735,0,0-6.8455,11.3672-7.1267,11.8424l-3.9864,6.7349c-.1357.2299-.3581.3957-.6172.46-.0795.0201-.1611.0303-.2431.0301Z"/><path fill="#3f3f3f" d="M42.244 13.68L45.666 15.751 43.622 19.152 40.199 17.081 42.244 13.68z"/><path fill="#d0cfce" d="M16.976 54.983H53.976V59.983H16.976zM51.8325 50.9092c-.1612 0-.3199-.0389-.4629-.1133l-3.5947-1.8789c-.4332-.2264-.6393-.7327-.4873-1.1973l.2451-.75c3.0068-9.1933-1.9766-14.56-5.2148-16.9409-.4318-.3178-.536-.9196-.2364-1.3642l2.2032-3.2706c.1524-.2266.3909-.381.66-.4272.2692-.0448.545.0213.7647.1831 4.59 3.4067 11.67 11.0142 7.5263 23.6851l-.453 1.385c-.1346.4108-.5177.6889-.95.6895l-.0002-.0003z"/><circle cx="42.138" cy="26.325" r="3" fill="#3f3f3f"/><path fill="#3f3f3f" d="m53.2089,54.4834c-.2814-2.5162-1.8644-5.8122-6.318-5.81-4.4505.0022-8.0577,1.8595-8.06,6.31l14.378-.5Z"/></g><g id="line" fill="none" stroke="#000" stroke-linecap="round" stroke-linejoin="round" stroke-width="2"><path d="M32.2654 37.5809c-.6333.6763-1.663.7951-2.4337.2808-.7827-.4739-1.1443-1.4183-.8782-2.2937M38.862 31.891L34.876 38.625 27.176 33.966 38.293 15.38 45.993 20.039 45.114 21.492"/><path d="M26.696 35.952H28.696V56.949H26.696z" transform="rotate(-65.855 27.696 46.45)"/><path d="M16.976 54.983H53.976V59.983H16.976z"/><path d="M41.474 14.114H44.738V18.114H41.474z" transform="rotate(-58.825 43.106 16.114)"/><path d="M41.1821 50.7991c2.3112-3.1549 6.7422-3.8388 9.8971-1.5277 1.8205 1.3337 2.8964 3.4552 2.8965 5.712M37.261 50.799L41.182 50.799"/><path d="m48.2379,48.03l.245-.75c3.2038-9.7964-2.1223-15.52-5.572-18.0572"/><path d="m45.114,25.9524c4.3016,3.1934,11.1343,10.4529,7.1716,22.572l-.4532,1.3847"/><circle cx="42.138" cy="26.325" r="3"/></g></svg>