<svg xmlns="http://www.w3.org/2000/svg" role="img" viewBox="1.73 27.35 66.04 14.66"><title>1F52A.svg</title><g id="color" stroke-miterlimit="10" stroke-width="2"><path fill="#3F3F3F" stroke="#3F3F3F" d="M24.2722,30.1081 c-3.5449-0.2675-13.7369-0.8052-18.6563,0c0,0-1.3857,0.7557,0,4.6293c0,0,1.2566,0.5474,3,0.5474 c1.491,0,12.8699,1.5386,15.6563,1.1077"/><path fill="#3F3F3F" stroke-linecap="round" stroke-linejoin="round" d="M20.4825,30.1081c-3.5449-0.2675-10.9472-0.8052-15.8666,0c0,0-1.3857,1.7557,0,5.6293c0,0,2.2566-0.4526,4-0.4526 c1.491,0,9.4455,1.1901,12.2319,0.7592"/><path fill="#D0CFCE" stroke-linecap="round" stroke-linejoin="round" d="M24.2722,39.8493h9.3437c32,0,31.9499-9.7411,31.9499-9.7411H33.6159h-9.3437V39.8493"/></g><g id="line" fill="none" stroke="#000" stroke-linecap="round" stroke-linejoin="round" stroke-miterlimit="10" stroke-width="2"><path d="M20.4825 30.1081c-3.5449-.2675-10.9472-.8052-15.8666 0 0 0-1.3857 1.7557 0 5.6293 0 0 2.2566-.4526 4-.4526 1.491 0 9.4455 1.1901 12.2319.7592M24.2722 39.8493h9.3437c32 0 31.9499-9.7411 31.9499-9.7411H33.6159h-9.3437V39.8493z"/></g></svg>