<svg xmlns="http://www.w3.org/2000/svg" role="img" viewBox="20.05 9.18 35.77 55.77"><title>1F528.svg</title><path fill="#a57939" d="M37.877 21.43l-.029 22.122 1.202 3.623-.025 15.706-1.208.002-3.624.006-1.209.002.025-15.706 1.214-3.627.029-22.122 3.625-.006z"/><path fill="#9b9b9a" d="M29.7035 11.6v9.9h12.7279v-5.6576s8.4853 0 11.3137 2.8284A15.1442 15.1442 0 0 0 42.4314 11.6a60.523 60.523 0 0 0-12.7279 0z"/><path fill="#d0cfce" d="M25.89 12.4785l-.0319 8.02a3.3363 3.3363 0 0 1-3.7013.0147l.0319-8.0195a2.6172 2.6172 0 0 1 3.7013-.0147z"/><g fill="none" stroke="#000" stroke-linecap="round" stroke-linejoin="round" stroke-width="2"><path d="M37.877 21.5l-.029 22.052 1.202 3.623-.025 15.706-1.208.002-3.624.006-1.209.002.025-15.706 1.214-3.627.029-22.058h3.625zm-8.1735-9.9v9.9h12.7279v-5.6576s8.4853 0 11.3137 2.8284A15.1442 15.1442 0 0 0 42.4314 11.6a60.523 60.523 0 0 0-12.7279 0zm-3.8135.8785l-.0319 8.02h0a3.3363 3.3363 0 0 1-3.7013.0147h0l.0319-8.0195h0a2.6172 2.6172 0 0 1 3.7013-.0147z"/></g></svg>