<svg xmlns="http://www.w3.org/2000/svg" role="img" viewBox="14.34 2.34 43.33 66.95"><title>1F525.svg</title><path fill="#FCEA2B" d="M51.3344 58.3018c7.563-9.7894 4.0318-21.8721 2.4461-25.5688-.1799-.4193-.9302-.5566-.982-.1006-.1225 1.0797-.4061 2.3611-2.0041 1.9736-.8203-.1989-1.3479-.556-1.3479-1.8802.511-15.0494-10.5109-25.2968-14.3463-28.5356-.5103-.4309-1.2668.0293-1.1587.7039 2.456 15.3348-1.6079 14.2846-3.0986 13.8192-.2593-.081-.5408.0546-.6603.3074-4.5882 9.7014-3.4112 14.2653-3.519 17.4455v.9581c0 1.746-1.4154 2.5822-2.5607 2.0714-2.0545-.9163-2.4047-6.3729-2.4134-7.8235-.0041-.6828-.8094-.8791-1.202-.332-8.8048 12.267-2.3251 23.1974-.0822 26.3171.6459.8984.9025 2.0748.5354 3.1298-.0412.1183-.0896.2352-.1465.349-.3988.7981.6707 1.4.6707 1.4 1.3155 1.2339 5.4651 5.1806 14.2817 5.1805 7.1344-.0001 11.9478-3.0595 13.8297-4.7247.8829-.7812 1.2761-.8594 1.2732-1.6827-.0036-.9849-.0257-2.5026.4849-3.0074"/><path fill="#F1B31C" d="M36.2938 32.5579c-.2946 1.4609-1.3196 4.0019-4.2072 8.3499-.0592.1064-.1172.2104-.1764.3168-.3088.6893-1.3555 3.3414-1.0617 7.0514v.0001c-.0002.0018-.573 4.337-2.977 3.9757-.5095-.0766-.9214-.2506-1.2541-.4772-.6105-.4159-1.4234.1082-1.3489.8525.3195 3.1924 1.6034 8.0822 6.1526 11.6721 0 0 1.2832 1.0598 1.4415 1.9748.0052.0303.029.0506.0591.0506h5.2741c.1832 0 .2083-.024.2135-.0594.0356-.2402.3643-1.2504 3.2024-3.7732 1.9966-1.7748 3.1652-3.898 3.7424-5.3482.2048-.5145-.101-1.1173-.6389-1.2068-.3438-.0572-.7127-.3603-1.0133-1.1841-.0003-.001-.0003-.0009-.0007-.0019-.0063-.0235-.2167-.8383.6013-2.5595.3805-.8006.4242-1.6645.36-2.3655-.0579-.6322-.7233-.998-1.2816-.7156-.7839.3965-1.8694.5304-2.5993-1.0753 0 0-.6584-1.5662-.0859-5.4515.437-2.9656-1.0106-7.8615-2.8279-10.3747-.4486-.6202-1.4219-.4057-1.574.349z"/><g fill="none" stroke="#000" stroke-linecap="round" stroke-linejoin="round" stroke-miterlimit="10" stroke-width="2"><path d="M21.6298 61.5562c3.479 3.6108 8.6702 5.4754 13.9925 5.4754 5.0546 0 10.7077-1.9624 14.2409-5.4677m-28.3524-4.1082s-10.5321-11.2011-.4546-25.9791c0 0 .1969 4.0589 1.2551 6.5816.4834 1.0362 1.2122 1.9569 2.3487 1.9569 1.3355 0 2.4181-.8972 2.4181-2.5708v-.9184c.105-3.0996-.5251-7.6659 3.5708-17.19 0 0 7.0365 3.7835 3.9909-14.6122 0 0 14.8798 10.4421 14.2762 28.217 0 1.2693.9678 2.2983 2.1617 2.2983s2.1617-1.029 2.1617-2.2983c.075.1341 6.3219 13.078-2.514 24.515M22.8203 22.9729c.198-1.0358.7082-2.2802 1.9228-3.3185 0 0 1.9021-1.6355 1.5953-3.8305"/></g></svg>