<svg xmlns="http://www.w3.org/2000/svg" role="img" viewBox="12.00 5.88 44.88 52.00"><title>1F54C.svg</title><path fill="#d0cfce" d="M54.9748 35h-26a.9994.9994 0 0 0-1 1v5.42h-5.5V16a1 1 0 0 0-1-1h-5a1 1 0 0 0-1 1v40a.9994.9994 0 0 0 1 1h38.5a.9994.9994 0 0 0 1-1V36a1 1 0 0 0-1-1z"/><circle cx="41.967" cy="20.008" r="2" fill="#f4aa41"/><path fill="#9b9b9a" d="M41.9746 41l-3.4962 5.2442a3 3 0 0 0-.5038 1.6641V56h8v-8.0917a3 3 0 0 0-.5038-1.6641zM21.9084 28.1924H16a1 1 0 0 1-.9483-.6817l-1.9746-5.8764a1.001 1.001 0 0 1 .9482-1.3184h9.8987a1.0008 1.0008 0 0 1 .946 1.3241l-2.0157 5.8765a1.0009 1.0009 0 0 1-.9459.6759zm0 14.2129H16a1 1 0 0 1-.9483-.6816l-1.9746-5.8765a1.001 1.001 0 0 1 .9482-1.3184h9.8987a1.0008 1.0008 0 0 1 .9463 1.3243L22.8546 41.73a1.0009 1.0009 0 0 1-.9462.6753z"/><path fill="#f4aa41" d="M53.4347 37h-22.92a1.0015 1.0015 0 0 1-.877-.5186A9.3465 9.3465 0 0 1 28.4748 32c0-6.0654 6.0556-11 13.5-11s13.5 4.9346 13.5 11a9.3466 9.3466 0 0 1-1.1631 4.4814 1.0014 1.0014 0 0 1-.877.5186zM21.4748 17.0005c-.4278 0-4.7647.1177-5.294-.0444a1.0007 1.0007 0 0 1-.6621-1.25l2.5-8.1367a1 1 0 0 1 1.9121 0l2.5 8.1367a1.0006 1.0006 0 0 1-.6621 1.25 1.0132 1.0132 0 0 1-.2939.0444z"/><g fill="none" stroke="#000"><rect height="3" x="41.967" y="15.008" stroke-miterlimit="10"/><path stroke-linecap="round" stroke-linejoin="round" stroke-width="2" d="M54.4746 32a8.2793 8.2793 0 0 1-1.04 4h-22.92a8.2793 8.2793 0 0 1-1.04-4c0-5.52 5.6-10 12.5-10s12.5 4.48 12.5 10zm.5 24h-38.5m12.5-3.0757V36h26v16.9243m-33.5-11.5043h7.5"/><circle cx="41.967" cy="20.008" r="2" stroke-linecap="round" stroke-linejoin="round" stroke-width="2"/><rect height="3" x="41.967" y="15.008" stroke-linecap="round" stroke-linejoin="round" stroke-width="2"/><path stroke-linecap="round" stroke-linejoin="round" stroke-width="2" d="M45.9746 47.91V56h-8v-8.09a3.11 3.11 0 0 1 .5-1.67l2.84-4.25.66-.99.66.99 2.84 4.25a3.11 3.11 0 0 1 .5 1.67zM16.475 52.924V41.42m5 0v11.504m-5-31.608V16h5v5.316m.433 5.877H16l-1.975-5.877h9.899l-2.016 5.877zm0 14.212H16l-1.975-5.876h9.899l-2.016 5.876zM16.475 16l2.5-8.137 2.5 8.137m-5 11.193v8.336m5-8.336v8.336"/></g></svg>