<svg xmlns="http://www.w3.org/2000/svg" role="img" viewBox="5.88 18.88 58.11 43.11"><title>1F54D.svg</title><g stroke-miterlimit="10" stroke-width="2"><path fill="#F4AA41" d="M52 33.7806V60H18V33.7806c0-.3181.1513-.6173.4076-.8057l15.9731-11.744c.3555-.3077.8831-.3077 1.2386 0l15.9731 11.744c.2563.1885.4076.4876.4076.8057z"/><path fill="#F4AA41" stroke-linecap="round" stroke-linejoin="round" d="M8 39h10v21H8zm44 0h10v21H52z"/><path fill="#A57939" stroke-linecap="round" stroke-linejoin="round" d="M39 60h-8v-6c0-1.6569 1.3431-3 3-3h2c1.6569 0 3 1.3431 3 3v6z"/><path fill="#3F3F3F" stroke-linecap="round" stroke-linejoin="round" d="M57 30l-5 9h10zm-44 0l-5 9h10z"/><path fill="#FFF" stroke-linecap="round" stroke-linejoin="round" d="M35 27l-8.66 15h17.32z"/><path fill="#D0CFCE" stroke-linecap="round" stroke-linejoin="round" d="M35 47l8.66-15H26.34z"/><path fill="#D0CFCE" stroke-linecap="round" stroke-linejoin="round" d="M35 27l-8.66 15h17.32z"/></g><g fill="none" stroke="#000" stroke-miterlimit="10" stroke-width="2"><path d="M52 33.7806V60H18V33.7806c0-.3181.1513-.6173.4076-.8057l15.9731-11.744c.3555-.3077.8831-.3077 1.2386 0l15.9731 11.744c.2563.1885.4076.4876.4076.8057z"/><path stroke-linecap="round" stroke-linejoin="round" d="M8 39h10v21H8zm44 0h10v21H52zM39 60h-8v-6c0-1.6569 1.3431-3 3-3h2c1.6569 0 3 1.3431 3 3v6z"/><path stroke-linecap="round" stroke-linejoin="round" d="M14 47h-2v-3c0-.5523.4477-1 1-1h0m45 4h-2v-3c0-.5523.4477-1 1-1h0M35 60v-9m22-21l-5 9h10zm-44 0l-5 9h10zm22-3l-8.66 15h17.32z"/><path stroke-linecap="round" stroke-linejoin="round" d="M35 47l8.66-15H26.34z"/><path stroke-linecap="round" stroke-linejoin="round" d="M35 27l-8.66 15h17.32z"/><path stroke-linecap="round" stroke-linejoin="round" d="M35 47l8.66-15H26.34z"/></g></svg>