<svg xmlns="http://www.w3.org/2000/svg" role="img" viewBox="26.61 6.10 17.16 59.54"><title>1F56F.svg</title><path fill="#FFF" d="M41.67 32.658l-12.894-.062v31.008h12.506z"/><path fill="#d0cfce" d="M37.343 63.604h4.327V32.548l-4.327-.019z"/><path fill="#FCEA2B" d="M30.1387 15.9997c0 1.9786-.0131 4.8604.4283 6.3199.1599.5277 1.1604 2.2097.6331 2.3708h8.558c-.0363-.0092-.1364.0063-.1087-.02.8117-.7725.8117-.7725 1.007-1.2891.584-1.5449.5181-4.3205.1158-6.5612-.5205-2.8999-3.9503-7.1748-5.1651-8.5166-1.4073 1.4751-5.4684 4.664-5.4684 7.6962z"/><path fill="#FFF" stroke-linecap="round" stroke-linejoin="round" stroke-miterlimit="10" stroke-width="2" d="M35.372 23.735v4.041"/><g fill="none" stroke="#000" stroke-linecap="round" stroke-linejoin="round" stroke-miterlimit="10" stroke-width="2"><path d="M30.9079 23.735c-.4263-1.4112-.7692-3.6894-.7692-5.9495 0-4.4164 5.4684-9.482 5.4684-9.482s4.4065 4.2924 5.1651 8.5166c.4329 2.4099-.1251 5.209-.769 6.9149M28.776 63.604H41.67V32.596l-12.894-.067zm6.596-39.869v4.041"/></g></svg>