<svg xmlns="http://www.w3.org/2000/svg" role="img" viewBox="11.80 4.80 48.27 62.27"><title>1F579.svg</title><g id="color"><path fill="#ea5a47" d="M17 55L17 52 24 52 24 55"/><circle cx="36" cy="17" r="10" fill="#ea5a47"/><path fill="#3f3f3f" d="m27,55c0-3.866,4.0294-7,9-7s9,3.134,9,7"/><path fill="#9b9b9a" stroke="#9b9b9a" stroke-linecap="round" stroke-linejoin="round" stroke-width="2" d="M33 27H39V48H33z"/><path fill="#9b9b9a" d="M14 55H58V65H14z"/><path fill="#d22f27" d="m41,8.75l-6.7801,17.6767,2.6882-.1985c1.9946-.1473,3.8699-1.0063,5.2842-2.4205l.8544-.8544c1.26-1.26,2.0244-2.9314,2.1536-4.7086l.0747-1.0284c.1337-1.8403-.4324-3.6632-1.585-5.104l-2.6899-3.3624Z"/></g><g id="line" fill="none" stroke="#000" stroke-width="2"><path stroke-linecap="round" stroke-linejoin="round" d="M14 55H58V65H14z"/><path stroke-miterlimit="10" d="m27,55c0-3.866,4.0294-7,9-7s9,3.134,9,7"/><path stroke-linecap="round" stroke-linejoin="round" d="M17 55L17 52 24 52 24 55M39 44.703L39 44 39 27 33 27 33 44.705"/><circle cx="36" cy="17" r="10" stroke-miterlimit="10"/></g></svg>