<svg xmlns="http://www.w3.org/2000/svg" role="img" viewBox="1.16 20.16 69.55 31.55"><title>1F573.svg</title><ellipse cx="36" cy="36" fill="#3F3F3F" rx="32.5" ry="13.5"/><path fill="#9B9B9A" d="M36 32.5c13.5192 0 25.1072 3.3025 30.0053 8 1.6051-1.5394 2.4947-3.228 2.4947-5 0-7.1797-14.5507-13-32.5-13s-32.5 5.8203-32.5 13c0 1.772.8896 3.4606 2.4947 5 4.8981-4.6975 16.4861-8 30.0053-8z"/><g fill="none" stroke="#000" stroke-miterlimit="10" stroke-width="2"><ellipse cx="36" cy="36" rx="32.5" ry="13.5"/><path d="M36 32.5c13.5192 0 25.1072 3.3025 30.0053 8 1.6051-1.5394 2.4947-3.228 2.4947-5 0-7.1797-14.5507-13-32.5-13s-32.5 5.8203-32.5 13c0 1.772.8896 3.4606 2.4947 5 4.8981-4.6975 16.4861-8 30.0053-8z"/></g></svg>