<svg xmlns="http://www.w3.org/2000/svg" role="img" viewBox="14.55 5.18 47.27 55.77"><title>1F575-1F3FD.svg</title><path fill="#a57939" d="M55.1833 58.8542s3.8111-14.0016-10.5-14.8974c-3.1918 2.1193-5.9264 3.5838-9 3.5775h.125c-3.0736.0063-5.8081-1.4582-9-3.5775-12 0-10 14.8974-10 14.8974"/><path fill="#d0cfce" d="M38.662 58.919h-6.053v-7.513l-3-3.436h11.513l-2.46 3.383z"/><path fill="#6a462f" d="M44.771 44.7969l-5.89 7.35c5.97-4.93 6.33 4.28 6.33 4.28l8.93-7.08c-1.24-2.76-3.81-5.19-9-5.19-.19.12-.37.24-.55.36l.18.28z"/><circle cx="54.765" cy="45.502" r="5" fill="#d0cfce" transform="rotate(-69.071 54.77 45.503)"/><path fill="#6a462f" d="M35.7358 8.696c13.63 1.52 13.4 11 11.15 15.53h-.01c-.16-.67-.36-1.32-.59-1.94l-.8-.2c.62-.13.92-.82 1.27-1.28-.68-.93-1.55-1.69-2.54-2.31l.06-.09c-1.76-4.76-6.05-9.05-8.54-9.71z"/><path fill="#a57939" d="M25.8858 22.056c-.55-.18-.84-.82-1.17-1.25.68-.93 1.55-1.69 2.54-2.31.02-.01.05-.03.07-.04 2.36-1.44 5.4-2.01 8.41-1.89 3.01-.12 6.05.45 8.41 1.89.02.01.05.03.07.04.99.62 1.86 1.38 2.54 2.31-.35.46-.65 1.15-1.27 1.28-2.96.62-6.3.94-9.51.9h-.48c-3.2.04-6.55-.28-9.51-.9-.04-.01-.07-.02-.1-.03z"/><path fill="#a57939" d="M44.2758 18.406l-.06.09c-.02-.01-.05-.03-.07-.04-2.36-1.44-5.4-2.01-8.41-1.89-3.01-.12-6.05.45-8.41 1.89-.02.01-.05.03-.07.04l-.06-.09c1.76-4.76 6.05-9.05 8.54-9.71 2.49.66 6.78 4.95 8.54 9.71z"/><path fill="#6a462f" d="M35.7358 8.696c-2.49.66-6.78 4.95-8.54 9.71l.06.09c-.99.62-1.86 1.38-2.54 2.31.33.43.62 1.07 1.17 1.25-.37.92-.66 1.9-.86 2.93-2.61-4.13-3.73-14.68 10.71-16.29zm-8.89 36.16l5.89 7.35c-5.97-4.93-6.33 3.48-6.33 3.48l-8.19-6.37h-.01c1.36-2.45 3.92-4.46 8.64-4.46z"/><path fill="#FFF" d="M54.7959 40.2042l3.6824 6.5849c.7532 1.3469.2717 3.0494-1.0754 3.8023l-.1799.1006-5.0459-9.0234"/><g><path fill="#c19a65" stroke="#c19a65" d="M47.0558 24.996c.21 1.08.32 2.21.32 3.36 0 7.83-5.08 14.18-11.34 14.18s-11.34-6.35-11.34-14.18c0-1.16.11-2.28.33-3.36v-.01c.2-1.03.49-2.01.86-2.93.03.01.06.02.1.03 2.96.62 6.31.94 9.51.9h.48c3.21.04 6.55-.28 9.51-.9l.8.2c.23.62.43 1.27.59 1.94.07.25.13.51.18.77zm-5.02 2c0-1.1-.9-2-2-2s-2 .9-2 2c0 1.11.9 2 2 2s2-.89 2-2zm-2.55 9.15c.49-.25.69-.85.44-1.34-.24-.5-.84-.7-1.34-.45-1.72.86-3.39.86-5.1 0-.5-.25-1.1-.05-1.34.45-.25.49-.05 1.09.44 1.34 1.15.57 2.3.86 3.45.86 1.15 0 2.3-.29 3.45-.86zm-5.45-9.15c0-1.1-.9-2-2-2s-2 .9-2 2c0 1.11.9 2 2 2s2-.89 2-2z"/></g><g><path d="M54.7275 58.8516c-.0507 0-.1015-.003-.1523-.0108-.5459-.083-.9209-.5928-.8379-1.1387.002-.0126.1836-1.246.082-2.8984-.0341-.5517.3858-1.0254.9366-1.0596.5732-.0234 1.0263.3858 1.0595.9366.1153 1.8798-.0927 3.2656-.1015 3.3232-.0762.4951-.502.8477-.9864.8477zm-5.1123 1.1191c-.1191 0-.2392-.0215-.3574-.0664-.5156-.1973-.7734-.7744-.5762-1.291l3.3643-8.7988c.1973-.5166.7754-.7735 1.291-.5762.5156.1972.7735.7744.5762 1.291l-3.3643 8.7988c-.1513.3985-.5312.6426-.9336.6426zM40.0358 24.996c1.1 0 2 .9 2 2 0 1.11-.9 2-2 2s-2-.89-2-2c0-1.1.9-2 2-2zm-.11 9.81c.25.49.05 1.09-.44 1.34-1.15.57-2.3.86-3.45.86-1.15 0-2.3-.29-3.45-.86-.49-.25-.69-.85-.44-1.34.24-.5.84-.7 1.34-.45 1.71.86 3.38.86 5.1 0 .5-.25 1.1-.05 1.34.45zm-7.89-9.81c1.1 0 2 .9 2 2 0 1.11-.9 2-2 2s-2-.89-2-2c0-1.1.9-2 2-2z"/><path fill="none" stroke="#000" stroke-linecap="round" stroke-linejoin="round" stroke-miterlimit="10" stroke-width="2" d="M25.0258 24.986c.2-1.03.49-2.01.86-2.93v-.01m20.4.24c.23.62.43 1.27.59 1.94.07.25.13.51.18.77.21 1.08.32 2.21.32 3.36 0 7.83-5.08 14.18-11.34 14.18s-11.34-6.35-11.34-14.18c0-1.16.11-2.28.33-3.36"/><path fill="none" stroke="#000" stroke-linecap="round" stroke-linejoin="round" stroke-miterlimit="10" stroke-width="2" d="M35.7358 16.566c-3.01-.12-6.05.45-8.41 1.89-.02.01-.05.03-.07.04-.99.62-1.86 1.38-2.54 2.31.33.43.62 1.07 1.17 1.25.03.01.06.02.1.03 2.96.62 6.31.94 9.51.9"/><path fill="none" stroke="#000" stroke-linecap="round" stroke-linejoin="round" stroke-miterlimit="10" stroke-width="2" d="M27.1958 18.406c1.76-4.76 6.05-9.05 8.54-9.71-14.44 1.61-13.32 12.16-10.71 16.29v.01m10.71-8.43c3.01-.12 6.05.45 8.41 1.89.02.01.05.03.07.04.99.62 1.86 1.38 2.54 2.31-.35.46-.65 1.15-1.27 1.28-2.96.62-6.3.94-9.51.9"/><path fill="none" stroke="#000" stroke-linecap="round" stroke-linejoin="round" stroke-miterlimit="10" stroke-width="2" d="M44.2758 18.406c-1.76-4.76-6.05-9.05-8.54-9.71 13.63 1.52 13.4 11 11.15 15.53M35.736 8.696v-1.42"/><path d="M38.5986 58.9707c-.5527 0-1-.4473-1-1v-5.7676c0-.2988.1328-.581.3633-.7715 1.9912-1.6425 3.7324-2.1494 5.1768-1.5078 1.542.6856 2.2334 2.4971 2.5429 3.9073l2.3536-1.8282c.4355-.3418 1.0664-.2597 1.4023.1758.3398.4356.2607 1.0635-.1758 1.4024l-3.7187 2.8906c-.294.2304-.6953.2734-1.0323.1181-.3388-.1562-.5625-.4892-.58-.8623-.0498-1.0879-.5088-3.4902-1.6055-3.9765-.6113-.2686-1.5684.0605-2.7266.9355v5.2842c0 .5527-.4472 1-1 1z"/><path fill="none" stroke="#000" stroke-linecap="round" stroke-linejoin="round" stroke-miterlimit="10" stroke-width="2" d="M46.4358 45.026c-.7-.11-.89-.17-1.71-.17-3.15 2.09-5.86 3.55-8.88 3.59h-.12c-3.02-.04-5.72-1.5-8.88-3.59-4.72 0-7.28 2.01-8.64 4.46-2.1 3.76-1.36 8.54-1.36 8.54"/><path fill="none" stroke="#000" stroke-linecap="round" stroke-linejoin="round" stroke-miterlimit="10" stroke-width="2" d="M32.7358 57.966v-5.76c-5.97-4.93-6.33 3.48-6.33 3.48l-8.19-6.37m14.5202 2.89l-5.89-7.35"/><path d="M38.5977 53.2031c-.2256 0-.4522-.0761-.6397-.2314-.4238-.3545-.4814-.9844-.1279-1.4092l6.1269-7.3506c.3545-.4238.9834-.4814 1.4092-.1279.4238.3545.4815.9844.1279 1.4092l-6.1269 7.3506c-.1983.2373-.4824.3593-.7695.3593zm16.1611-1.7011c-.7109 0-1.4336-.127-2.1367-.3965-1.4971-.5723-2.6807-1.6934-3.335-3.1563-.6543-1.4638-.6992-3.0937-.126-4.5908.5723-1.4971 1.6934-2.6807 3.1563-3.335 1.4629-.6513 3.0947-.6982 4.5908-.125 1.4971.5723 2.6816 1.6934 3.335 3.1563.6543 1.4639.6992 3.0937.1259 4.5908-.9121 2.3867-3.1943 3.8565-5.6103 3.8565zm.0039-10.002c-.5547 0-1.1074.1172-1.6299.3496-.9746.4365-1.7226 1.2256-2.1045 2.2236-.3808.9981-.3515 2.084.085 3.0596.4355.9756 1.2256 1.7236 2.2236 2.1055.9981.3799 2.084.3496 3.0606-.084.9746-.4365 1.7226-1.2256 2.1045-2.2236.3808-.9981.3515-2.085-.084-3.0596-.4366-.9756-1.2256-1.7236-2.2246-2.1055-.4639-.1767-.9473-.2656-1.4307-.2656z"/></g></svg>