<svg xmlns="http://www.w3.org/2000/svg" role="img" viewBox="12.39 11.14 49.97 51.09"><title>1F58A.svg</title><path fill="#9b9b9a" d="M18.637 51.107l5.036 5.036-5.359 2.042-1.699-1.799 2.022-5.279z"/><path fill="#d0cfce" stroke="#d0cfce" stroke-miterlimit="10" stroke-width="2" d="M18.033 59.0699c7.3107-1.7183 14.4552-7.1937 18.0334-10.0996 5.2841-4.2911 15.6814-15.0196 22.0242-21.6934 2.9813-3.137 3.1752-7.8102.4421-10.5434h0l-.4873-.4873h0c-2.7332-2.7333-7.4063-2.5395-10.5434.4419-6.6738 6.3428-17.4023 16.7401-21.6934 22.0243-2.7631 3.4024-7.8498 10.0295-9.8201 16.9581-.1883.662.0198 1.3745.5065 1.8612l1.5382 1.5382"/><g fill="none" stroke="#000" stroke-linecap="round" stroke-linejoin="round"><path stroke-width="2" d="M16.887 57.924l-2.422 2.423m33.45-43.194l9.651 9.65M44.7513 14.022h0c-1.1564-1.1563-3.1433-1.0441-4.4381.2507L27.8096 26.7763M18.033 59.0699c7.3107-1.7183 14.4552-7.1937 18.0334-10.0996 5.2841-4.2911 15.6814-15.0196 22.0242-21.6934 2.9813-3.137 3.1752-7.8102.4421-10.5434h0l-.4873-.4873h0c-2.7332-2.7333-7.4063-2.5395-10.5434.4419-6.6738 6.3428-17.4023 16.7401-21.6934 22.0243-2.9058 3.5781-8.3813 10.7225-10.0996 18.0333l2.3242 2.3242"/><path stroke-width="1.961" d="M24.474 55.747l-5.686-5.686"/></g></svg>