<svg xmlns="http://www.w3.org/2000/svg" role="img" viewBox="15.09 5.59 41.33 60.58"><title>1F595-1F3FE.svg</title><g fill="#a57939" stroke="#a57939"><path d="M40.3256 34.2618c.081-1.9313 1.7123-3.4312 3.6436-3.3502s3.4313 1.7123 3.3502 3.6436"/><path d="M23.2702 34.1649c-1.3429-1.3904-3.1309-1.4767-4.5213-.1338s-1.4288 3.5586-.086 4.949c1.7701 1.875 2.8123 4.5144 2.7402 8.8686v-.187c0 9.0883 7.3675 16.4558 16.4558 16.4558S54.3148 56.75 54.3148 47.6617l.0016-12.8736"/><path d="M54.3164 34.7881c.081-1.9313-1.4189-3.5626-3.3502-3.6436s-3.5626 1.4189-3.6436 3.3502l-.0155.1945c.155-1.9268-1.2813-3.6144-3.2081-3.7694-1.9268-.155-3.6144 1.2813-3.7694 3.2081l-.0487.4272v-23.144l-.0073.1121c.1237-1.929-1.3398-3.5931-3.2688-3.7168-1.929-.1237-3.5931 1.3398-3.7168 3.2688v22.6712c0-1.933-1.567-3.5-3.5-3.5s-3.5 2.9146-3.5 4.8476"/></g><g fill="none" stroke="#000" stroke-linecap="round" stroke-linejoin="round" stroke-miterlimit="10" stroke-width="2"><path d="M40.3256 34.2618c.081-1.9313 1.7123-3.4312 3.6436-3.3502s3.4313 1.7123 3.3502 3.6436m6.9966.2328l-.001 12.874M23.0111 34.7881c-1.3429-1.3904-3.4627-1.3429-4.853 0-1.3904 1.3429-.9608 3.2735.3821 4.6639 1.7701 1.875 2.935 4.0425 2.863 8.3966v-.187c0 9.0883 7.3675 16.4558 16.4558 16.4558S54.3148 56.75 54.3148 47.6617"/><path d="M54.3164 34.7881c.081-1.9313-1.4189-3.5626-3.3502-3.6436s-3.5626 1.4189-3.6436 3.3502l-.0155.1945c.155-1.9268-1.2813-3.6144-3.2081-3.7694-1.9268-.155-3.6144 1.2813-3.7694 3.2081l-.0487.4272v-23.144l-.0073.1121c.1237-1.929-1.3398-3.5931-3.2688-3.7168-1.929-.1237-3.5931 1.3398-3.7168 3.2688v22.6712c0-1.933-1.567-3.5-3.5-3.5s-3.5 1.567-3.5 3.5"/></g></svg>