<svg xmlns="http://www.w3.org/2000/svg" role="img" viewBox="2.80 1.30 66.39 68.64"><title>1F590-1F3FE.svg</title><path fill="#a57939" d="M66 38c-1.3062-3.5-7.0171-2.7539-11.3713.06-1.7618 1.1387-3.2292 1.8673-7.4167 2.7215-1.8333 0-2.2391-1.9534-1.8836-3.8665l4.199-23.441c1.195-5.9529-6.1175-8.14-7.5747-2.0134l-3.6565 20.4129c-1.8394 5.0852-2.515 0-2.515 0L34.7665 9.8858c0-7.9583-7.82-8.4583-7.82 0l.9266 20.08c.4115 7.9309-1.512 3.4622-1.512 2.8356l-3.677-17.8734c-1.7743-7.5312-8.8056-5.5938-7.54 1.2692l3.4159 15.935c.5643 3.6861-2.3321 1.9393-2.8394 1.0535L12.3787 25.48c-2.7812-5.8647-8.75-3.521-6.8125 2.2915L11.17 42.0524a28.32217 28.32217 0 0 1 1.2083 4.75c0 4 2.584 12.2077 4.7282 14.3519 7.695 7.695 20.1711 7.695 27.8661 0 5.1557-5.7893 7.6245-8.2154 9.6557-12.6529L67 40l-1-2z"/><path fill="none" stroke="#000" stroke-linecap="round" stroke-linejoin="round" stroke-width="2" d="M47.9476 40.8241C49 41 53.97 38.2016 56.0954 36.7986c.1078-.0712.2223-.1421.3474-.213 4.0767-2.3119 7.0259-3.05 9.5563.3959.9708 1.3945 1.6556 4.3672-.0631 4.7371C58 44 52 52 52 52c-2.0073 2.3086-4.9867 6.8747-7.027 9.1543-7.2576 8.1088-22.24 9.3151-27.8661 0-2.5855-4.28-4.28-14.3835-5.9365-19.1019C9.9 38.4336 5.5662 27.7712 5.5662 27.7712c-1.9375-5.8125 4.0313-8.1562 6.8125-2.2912l3.1633 7.2935c.9192 2.1543 3.5826 3.0451 3.0183-.641l-3.4165-15.9358c-1.2651-6.863 5.7662-8.8 7.5405-1.2692l3.677 17.8734c0 .6266 1.9235 5.0953 1.512-2.8356l-.9266-20.0795c0-8.4583 7.82-7.9583 7.82 0l1.0147 21.9877s.6756 5.0852 2.515 0l3.6565-20.4127c1.4572-6.127 8.77-3.94 7.5747 2.0134l-4.199 23.441c-.3555 1.9131.05 3.8665 1.8836 3.8665l.7354.0424z"/></svg>