<svg xmlns="http://www.w3.org/2000/svg" role="img" viewBox="2.18 2.68 68.51 67.51"><title>1F5A8.svg</title><path fill="#9B9B9A" d="M56.5 57.039h12v-41.11h-64v41.11h12z"/><path fill="#9B9B9A" d="M16.5 56h-12V15.929h64V56h-12"/><path fill="#D0CFCE" d="M5.393 15.929h7.141V56H5.393zm54.743 0h7.918V56h-7.918zm-44.635-.517V4.992h41.998v10.937"/><path fill="#D0CFCE" stroke-linecap="round" stroke-linejoin="round" stroke-miterlimit="10" stroke-width="2" d="M16.5 12.503V4.992h40v7.883"/><path fill="#3F3F3F" d="M52.54 44.433V68H20.46V44.433"/><path fill="#3F3F3F" stroke-linecap="round" stroke-linejoin="round" stroke-miterlimit="10" stroke-width="2" d="M51.586 50.587V68H21.414V50.587"/><path fill="#FFF" stroke-linecap="round" stroke-linejoin="round" stroke-miterlimit="10" stroke-width="2" d="M61.145 20.335v31.95m-14.362-7.832v19.303H26.217V44.453M11.5 20.335v31.95"/><g fill="none" stroke="#000" stroke-linecap="round" stroke-linejoin="round" stroke-miterlimit="10" stroke-width="2"><path d="M16.5 12.503V4.992h40v7.883m-4.914 37.712V68H21.414V50.587m39.731-30.252v31.95"/><path d="M46.783 44.453v19.303H26.217V44.453m3.311 3.925h13.944m-13.944 4.827h13.944m-13.944 5.299h13.944M11.5 20.335v31.95"/><path d="M16.5 52.2851v-3.1353c0-2.6048 2.1116-4.7164 4.7164-4.7164h30.5672c2.6048 0 4.7164 2.1116 4.7164 4.7164v3.1353"/><path d="M56.5 56h12V15.929h-64V56h12"/></g></svg>