<svg xmlns="http://www.w3.org/2000/svg" role="img" viewBox="10.00 10.00 51.87 51.87"><title>1F5BC.svg</title><g stroke-linecap="round" stroke-linejoin="round" stroke-miterlimit="10" stroke-width="2"><path fill="#A57939" d="M12 12h48v48H12z"/><path fill="#92D3F5" d="M18 18h36v36H18z"/><circle cx="26" cy="30" r="4" fill="#FCEA2B"/><path fill="#5C9E31" stroke="#5C9E31" d="M50 35c-2.8958-.8542-6.2795-7.9886-8-8-4.208-.0278-6.254 5.836-11 9-3 2-3.3745 2.8497-6 4-2.2824 1-3 3-3.25 3.6406-.3031.7766-1.4751 2.5214-.9583 3.1094 1.2083 1.375 2.4583 1.5 5 .7179 2.147-.6606 4.9769-4.8074 6.875-6.2179 2.2708-1.6875 4.6458-2.5 8.0833-2 2.4795.3606 6.66 3.1723 7.8125 3.0625 1.3125-.125-1.5937-2.5625-.5312-4.1875 1.1327-1.7325 2.9102.1529 3.6354-1.0833C51.9844 36.5 50.632 35.1864 50 35z"/></g><g fill="none" stroke="#000" stroke-linecap="round" stroke-linejoin="round" stroke-miterlimit="10" stroke-width="2"><path d="M12 12h48v48H12z"/><path d="M18 18h36v36H18z"/><circle cx="26" cy="30" r="4"/><path d="M18 18h36v36H18z"/><path d="M22 43c.5259-1.0198.7275-1.9672 3-3 2.6096-1.1859 3-2 6-4 4.746-3.164 6.792-9.0278 11-9 1.7205.0114 5 7 8 8"/></g></svg>