<svg xmlns="http://www.w3.org/2000/svg" role="img" viewBox="9.63 13.00 52.00 48.63"><title>1F5C3.svg</title><g id="color"><path fill="#d0cfce" d="M11.8799,59.8837h47.6538V42.6789H11.8799V59.8837z"/><path fill="#9B9B9A" d="M59.6815,21.8342L11.9367,21.738v18.5113l5.2011-0.2299c1.2388-0.8432,0.42-5.6695,0.4861-5.803 c-0.0022-0.8421-0.0826-4.8571,0.0607-5.1954c0.2868-0.6767,9.9393-0.0789,9.935-0.0607l1.3976,4.132 c0.1213-0.1646,10.0877-1.8389,10.0877-1.8389c0.1342,0,2.8583,5.5594,2.8583,5.5594c0.0507-0.055,12.5417,2.7334,12.5088,2.8326 l1.7071,0.1676l3.4293,0.0551L59.6815,21.8342z"/><path fill="#d0cfce" d="M55.7592,38.8215c-0.0253,0.0764-3.9509-0.8774-6.2834-0.8984 c-9.4883-0.0856-32.1134,0.8027-32.5203,0.6987c-0.4173-0.1066-1.8096,0.2996-1.8837,0.1519 c0.0041,0.5459-0.1171,1.5355-0.0912,2.4913l40.7035,0.0372L55.7592,38.8215z"/><path fill="#3f3f3f" d="M16.3455,38.8196c-0.0255-0.0511-0.04-0.1049-0.0566-0.1605l-4.2857,0.0538l-0.0912,2.9775l4.4966,0.4861 C16.3835,41.249,16.3514,39.3873,16.3455,38.8196z"/><path fill="#d0cfce" d="M16.4982 33.8659c.0329-.0362.0706-.0638.1084-.0949.0544-.0457.1121-.0849.1754-.1182.0358-.0183.0694-.0365.1076-.0505.1075-.0406.2206-.0691.3428-.0691h.1123 11.1739v-.2734c0-.4477.114-.8656.3001-1.2423 0-.0001 0-.0002 0-.0002.0117-.0232.0245-.0456.0371-.0681.0445-.0842.0837-.1716.1361-.2505-.0271.042-.0536.0843-.0837.1332-.0051.0132-.0141.0261-.0164.0394-.0001.0005-.007.0009-.0084.0014-.0418.0694-2.2119-1.3979-2.2261-1.3609 0 0-4.0156-1.191-8.5344.2555-.1652.0529-1.2189 1.2375-1.361 1.16h-.0001c-.017-.0093-.0292-.021-.0454-.0306-.1397-.0865-.2534-.2014-.336-.3438-.0136-.0231-.0329-.0417-.0445-.066v2.6199c.0001-.0004.0004-.0006.0006-.001C16.3786 34.0178 16.434 33.9378 16.4982 33.8659zM16.6149 37.6112c.0517-.0429.1062-.0801.1659-.1119.0369-.019.0718-.0374.1113-.0518.1066-.0403.2189-.0686.3403-.0686h.2041 23.9307v-.1523c0-.1708.0197-.3366.0536-.4977.021-.1034.0577-.2005.091-.2993.0171-.049.0289-.1.049-.1477.0535-.1308.1208-.2536.1946-.3736.0055-.0087.0099-.0179.0154-.0266.0819-.1296.1753-.2499.2787-.3642.0016-.0027.0083-.013.0083-.013l-1.3591-1.9881-8.3805.556-2.8078 1.4664c.1137 0 .2171-.0288.3161-.0677-.0248.0081-.0521.0095-.0778.0157-.0758.0186-.1484.0464-.2301.0464l0 0H17.3447h-.1123c-.1203 0-.2314-.0281-.3369-.068-.041-.0148-.0776-.0334-.1158-.0532-.0545-.0293-.1043-.0637-.1521-.1025-.1126-.0878-.2056-.1933-.2721-.3209-.0002-.0003-.0005-.0005-.0006-.0007.0089.7905-.0067 2.1071-.0116 2.9536.0411-.0833.0932-.1601.1542-.2289C16.5328 37.6737 16.5739 37.6442 16.6149 37.6112z"/><path fill="#9B9B9A" d="M28.589 47.449H42.81V53.879999999999995H28.589z"/><path fill="#d0cfce" d="M28.8647 28.1003c-.0117-.0149-.0222-.0299-.0347-.0448-.0172-.0206-.0414-.0381-.061-.0578.0157.0144.0284.0307.0428.0459C28.8298 28.0625 28.8485 28.0804 28.8647 28.1003zM28.926 29.303c.0738-.1033.1195-.2172.1493-.3332v-.0225c-.0289.1242-.0805.2453-.1593.3554-.1606.2242-.3967.3621-.649.404C28.523 29.6667 28.7632 29.53 28.926 29.303z"/><path fill="#fcea2b" d="M54.1422,39.3788c-0.4698,0,0.4545-2.0977,0.4545-2.0977c0-0.3555-1.1415-1.7131-1.5907-1.7131 l-8.8721,0.0547c-0.2244,0-1.4766,1.4823-1.4766,1.6584l-0.9439,1.1013c0,0.4518-0.2533,0.5925-0.6643,0.7167l1.5575,0.2707 C42.6066,39.3698,54.1804,39.3788,54.1422,39.3788z"/><path fill="#92d3f5" d="M42.0212,35.5046l-0.0547-3.1313c-0.0071-0.0147-0.0197-0.0325-0.0276-0.0476 c0.0121,0.0872-1.1648,0.308-1.4079-0.1871c-0.1407-0.2871-0.8955-0.7655-1.2158-0.7655l-7.8576-0.135 c-0.457,0-1.6886,0.7136-1.6886,1.1707l-0.4953,2.1614c0,0.5527-1.1133,0.9682-1.6661,0.9682L42.0212,35.5046z"/><path fill="#3f3f3f" d="M59.411 38.663L54.94 38.69 54.963 41.93 59.365 41.849z"/><path fill="#d0cfce" d="M11.742 15.113H59.658V21.634999999999998H11.742zM17.6263 31.979c.0202-.0089.0346-.0261.0541-.0364C17.6608 31.9526 17.6466 31.9703 17.6263 31.979zM19.0715 29.3801h7.9687c-.0004 0-.0007-.0002-.0011-.0002h-7.9776c-.1963 0-.3694.0785-.5116.193C18.695 29.4578 18.8726 29.3801 19.0715 29.3801zM18.4786 29.621c-.0215.0213-.0326.0506-.0516.0741C18.4462 29.6718 18.4569 29.6421 18.4786 29.621z"/><path fill="#ea5a47" d="M29.0717,31.5764l0.0136-2.6288c-0.0289,0.1241-0.9471-0.3725-1.3982-0.6928 c-0.1407-0.1006-8.566-0.0374-8.566-0.0374c-0.4571,0-2.0761,2.0573-2.0761,2.0573s0.6088,1.7768,0.0561,1.7768 c-0.4336,0,11.6885-0.0069,11.6885-0.0069C28.8323,31.9337,29.0717,31.5764,29.0717,31.5764z"/></g><g id="line" fill="none" stroke="#000" stroke-linecap="round" stroke-linejoin="round" stroke-miterlimit="10" stroke-width="2"><path d="M11.751 21.619L11.763 42.312 59.749 42.312 59.737 21.619"/><path d="M11.726 15.003H59.737V21.62H11.726zM11.763 42.312H59.748999999999995V59.67399999999999H11.763z"/><path d="M28.61 47.061H43.036V53.909H28.61zM28.1027 28.7207c-.2997-.2145-.6669-.3408-1.0635-.3408h-7.9776c-1.0102 0-1.829.8189-1.829 1.829v.8521M40.9698 32.4574c-.2972-.6082-.9219-1.0271-1.6444-1.0271h-7.9775c-1.0101 0-1.8291.8189-1.8291 1.829v1.2736H17.2326M54.0031 38.3785v-1.1524c0-.914-.8188-1.655-1.829-1.655h-7.9776c-1.0101 0-1.829.741-1.829 1.655v1.1524H17.2326"/></g></svg>