<svg xmlns="http://www.w3.org/2000/svg" role="img" viewBox="16.04 11.04 37.79 49.79"><title>1F5DC.svg</title><path fill="#9B9B9A" d="M43 36.166h3v3.383h-3zm.001 10h3v12h-3zm-2.001-24h8v3h-8z"/><path fill="#D0CFCE" d="M47 45.7774H22.6774C20.0942 45.7774 18 43.6833 18 41.1V22.3904c0-5.1665 4.1883-9.3548 9.3548-9.3548h14.9678c2.5833 0 4.6774 2.0942 4.6774 4.6774v4.0092h-4.9714c0-1.6976-1.3762-3.0737-3.0737-3.0737h-9.836c-3.3952 0-6.1475 2.7523-6.1475 6.1475v12.2949c0 1.6976 1.3762 3.0737 3.0737 3.0737H47v5.6128z"/><g fill="none" stroke="#000" stroke-linecap="round" stroke-linejoin="round" stroke-miterlimit="10" stroke-width="2"><path d="M47 45.7774H22.6774C20.0942 45.7774 18 43.6833 18 41.1V22.3904c0-5.1665 4.1883-9.3548 9.3548-9.3548h14.9678c2.5833 0 4.6774 2.0942 4.6774 4.6774v4.0092h-4.9714c0-1.6976-1.3762-3.0737-3.0737-3.0737h-9.836c-3.3952 0-6.1475 2.7523-6.1475 6.1475v12.2949c0 1.6976 1.3762 3.0737 3.0737 3.0737H47v5.6128zm-5 .1296h5v13h-5z"/><path d="M40 21.907h10v3.643H40zm2 14.8116v3.1878h5v-3.1878c0-.4485-.4545-.8122-1.0152-.8122h-2.9696c-.5607.0001-1.0152.3637-1.0152.8122zM41 52.166h-4m15 0h-4"/></g></svg>