<svg xmlns="http://www.w3.org/2000/svg" role="img" viewBox="11.95 7.45 47.97 54.34"><title>1F5E3.svg</title><path d="M58 60.8857s0-3-1-7c-1.2109-4.8457-4-8-10-8H25c-6 0-8.7891 3.1543-10 8-1 4-1 7-1 7m35-30.289c-1-3 3-3 2-5s-3-2.7642-3-5c0-3-1-11-9-11-12.0039 0-15 7.3437-15 12 0 4.1094 2.5908 7.1806 4 10 2 4 5.1533 7.3955 7 8.0107 4.2422 1.4141 13 2.3467 13-1.0107 0-2 1-3.0137 1-4l-3-2 3-2z" fill="#D0CFCE"/><g fill="none" stroke="#000" stroke-linejoin="round" stroke-width="2"><path d="M49.2725 31.2139c-.0957-.7959-.7422-2.1094-.6172-3.1016 0 0 3.9052-.7129 2.3584-2.7266-.8653-1.1279-2.5801-3.3496-2.4766-4.3437C49 16.5967 47 9.5967 38 9.5967c-11 0-14 7-14 12 0 5.8086 2.9883 8 4 11 1.4414 4.2724 5 7 11 8 3.9443.6572 10 1 9.3975-3-.1602-1.0645.3759-2.417.499-3.3965l-2.8506-1.377 3.2266-1.6093z"/><path stroke-linecap="round" d="M54 28.597l2-2m0 4.885h2M54 34l2 2m2 23.8857s0-2-1-6c-1.2109-4.8457-6-8-12-8H28c-6 0-11.7891 3.1543-13 8-1 4-1 6-1 6"/></g></svg>