<svg xmlns="http://www.w3.org/2000/svg" role="img" viewBox="2.72 3.72 66.43 65.43"><title>1F5FC.svg</title><path fill="#d22f27" d="M36.118 7h.999v9.498h-.999z"/><path fill="#ea5a47" d="M35.068 7h1.05v9.498h-1.05z"/><path fill="#d0cfce" d="M41.824 22.646h-5.682v-4.252h4.918l.764 4.252z"/><path fill="#ea5a47" d="M36.16 48.84l-.0185 2.6071s-3.0975.077-5.3547 3.6929a14.1107 14.1107 0 0 0-1.6149 6.5818l-10.541-.2452s6.8354-3.1377 8.8827-6.7536a50.8353 50.8353 0 0 0 2.5209-5.712"/><path fill="#d22f27" d="M36.121 49.1779l-.0026 2.2692s3.0974.077 5.3547 3.6929a14.1113 14.1113 0 0 1 1.6148 6.5818l10.541-.2452s-6.8354-3.1377-8.8826-6.7536a48.79 48.79 0 0 1-2.3983-5.3975"/><path fill="#b1cc33" d="M5.96 63.413h30.041V66H5.96z"/><path fill="#5c9e31" d="M36 63.413h30.041V66H36z"/><path fill="#ea5a47" d="M36.111 42.5H30.13l2.673-18.413 3.308.109V42.5z"/><path fill="#d22f27" d="M40.931 42.5h-4.82V24.196h4.232l.588 18.304z"/><path fill="#d0cfce" d="M43.031 47.984h-6.853v-4.077h7.862l-1.009 4.077z"/><g fill="none" stroke="#000" stroke-width="2"><path stroke-linecap="round" stroke-linejoin="round" d="M27.44 43.196h17.12l-1.041 5.5H28.385l-.945-5.5zM5.019 62.5h61.962V67H5.019z"/><path stroke-miterlimit="10" d="M29.7858 62c0-5.314 2.8457-9.6218 6.3561-9.6218s6.356 4.3078 6.356 9.6218"/><path stroke-linecap="round" stroke-linejoin="round" d="M42.8775 49.5a17.0418 17.0418 0 0 0 3.03 5.8265A25.6341 25.6341 0 0 0 54.5692 62M40.2545 34.5912c-.0995-.9287-.2542-2.5213-.3586-4.5274-.1773-3.4091-.1-6.1179-.0849-6.14a104.18 104.18 0 0 0 1.61 19.158m-12.589 6.2436a17.8744 17.8744 0 0 1-3.3641 7.0014 18.5363 18.5363 0 0 1-7.6913 5.5376m14.1708-27.2732c.1-.9287.2542-2.5213.3585-4.5274.1774-3.4091.1-6.1179.085-6.14a104.18 104.18 0 0 1-1.61 19.158M36.182 17.5h-5.437l-.543 5.886h11.96l-.543-5.886h-5.437m-1.738-.5V6h3.348v11"/></g></svg>