<svg xmlns="http://www.w3.org/2000/svg" role="img" viewBox="11.04 11.04 49.79 49.79"><title>1F60F.svg</title><path fill="#FCEA2B" d="M36 13c-12.6823 0-23 10.3177-23 23 0 12.6822 10.3177 23 23 23 12.6822 0 23-10.3178 23-23 0-12.6823-10.3178-23-23-23z"/><circle cx="36" cy="36" r="23" fill="none" stroke="#000" stroke-width="2"/><path fill="none" stroke="#000" stroke-linecap="round" stroke-linejoin="round" stroke-miterlimit="10" stroke-width="2" d="M29.94 46.66c8.505.7027 16.67.4269 16.98-4.128M41.93 26.77c.4667-.25 2.52-1.1 5.042-.5743 2.118.3921 2.421.8283 3.73 1.725M22.29 28.7c.3266-.4271 1.792-2.245 4.424-2.685 2.135-.3566 3.794.4017 4.352.688"/><path d="M32 33c0 1.6568-1.3448 3-3 3-1.6553 0-3-1.3433-3-3 0-1.6552 1.3447-3 3-3 1.6552 0 3 1.3448 3 3m18 0c0 1.6568-1.3447 3-3 3s-3-1.3433-3-3c0-1.6552 1.3447-3 3-3s3 1.3448 3 3"/></svg>