<svg xmlns="http://www.w3.org/2000/svg" role="img" viewBox="11.04 11.04 49.79 49.79"><title>1F60B.svg</title><circle cx="36" cy="36" r="24" fill="#FCEA2B"/><path fill="#EA5A47" d="M50.5707 44.471s6.3864 4.2101 6.3864 7.6241c0 2.4671-1.5752 4.5107-4.2717 4.5107-3.7214 0-7.6844-6.2448-7.6844-6.2448"/><g fill="none" stroke="#000" stroke-miterlimit="10" stroke-width="2"><path stroke-linecap="round" stroke-linejoin="round" d="M57.2506 44.8137C58.3778 42.0992 59 39.1222 59 36c0-12.7031-10.2978-23-23-23-12.7031 0-23 10.2969-23 23 0 12.7022 10.2969 23 23 23 3.3707 0 6.5721-.7251 9.4566-2.0279"/><path stroke-linecap="round" d="M31.6941 33.4036c-1.0598-2.3854-3.8527-3.46-6.238-2.4002-1.0697.4752-1.9249 1.3305-2.4002 2.4002m25.8882 0c-1.0598-2.3854-3.8527-3.46-6.238-2.4002-1.0697.4752-1.9249 1.3305-2.4002 2.4002"/><path d="M50.5707 44.471s6.3864 4.2101 6.3864 7.6241c0 2.4671-1.5752 4.5107-4.2717 4.5107-3.7214 0-7.6844-6.2448-7.6844-6.2448"/><path stroke-linecap="round" stroke-linejoin="round" d="M20.1657 41.3575C22.3985 47.9591 28.644 52.7116 36 52.7116c7.3561 0 13.6024-4.7533 15.8349-11.3559"/></g></svg>