<svg xmlns="http://www.w3.org/2000/svg" role="img" viewBox="11.04 11.04 49.79 49.79"><title>1F622.svg</title><path fill="#FCEA2B" d="M36.2002 13.3163c-12.5719 0-22.7998 10.2279-22.7998 22.7998 0 12.5718 10.2279 22.7998 22.7998 22.7998C48.772 58.9159 59 48.6879 59 36.1161c0-12.5719-10.228-22.7998-22.7998-22.7998z"/><path fill="#92D3F5" d="M22.7747 33.8245c-1.0767 1.1019-3.115 3.4878-3.2924 5.9164-.1111 1.521 1.1185 2.9431 2.6365 3.0534 1.5693.1143 2.9388-1.0681 3.0546-2.6364.1769-2.4292-1.4936-5.0861-2.3987-6.3334z"/><g><circle cx="36" cy="36" r="23" fill="none" stroke="#000" stroke-miterlimit="10" stroke-width="2"/><path fill="none" stroke="#000" stroke-linecap="round" stroke-linejoin="round" stroke-miterlimit="10" stroke-width="2" d="M26.5 48c1.8768-3.8326 5.8239-6.1965 10-6 3.8343.1804 7.2926 2.4926 9 6"/><path fill="none" stroke="#000" stroke-miterlimit="10" stroke-width="2" d="M20.3869 41.6299c-.5326-.5326-.8258-1.2405-.8256-1.9936 0-2.4789 2.3433-4.8508 2.443-4.9505.2074-.2074.5431-.2072.7503 0 .0998.0998 2.4432 2.4718 2.4437 4.9512l.0002.0002c-.0007 1.5535-1.2653 2.8177-2.8189 2.8175-.7523.0009-1.4601-.2923-1.9927-.8248z"/><path d="M30 31c0 1.6568-1.3448 3-3 3-1.6553 0-3-1.3433-3-3 0-1.6552 1.3447-3 3-3 1.6552 0 3 1.3448 3 3m18 0c0 1.6568-1.3447 3-3 3s-3-1.3433-3-3c0-1.6552 1.3447-3 3-3s3 1.3448 3 3"/></g></svg>