<svg xmlns="http://www.w3.org/2000/svg" role="img" viewBox="11.04 11.04 49.79 49.79"><title>1F62D.svg</title><path d="M52 52.38c.8775-1.631 1-5.38 1-7.38 0-4-4-11-4-11m-5 2s3 6.728 3 10c0 3.065-1 8-1 10m-26-3.6c-.8775-1.631-1-5.4-1-7.4 0-4 4-11 4-11m5 2s-3 6.728-3 10c0 3.065 1 8 1 10" fill="none" stroke="#000" stroke-linecap="round" stroke-linejoin="round" stroke-width="2"/><path fill="#fcea2b" d="M36.2 13.32c-12.57 0-22.8 10.23-22.8 22.8s10.23 22.8 22.8 22.8S59 48.69 59 36.12s-10.23-22.8-22.8-22.8z"/><path fill-rule="evenodd" d="M35.93 51.58c-2.461 0-4.742-2.368-4.742-4.987s2.444-4.66 4.905-4.66 4.701 2.205 4.701 4.823-2.403 4.823-4.864 4.823v.001z"/><path fill="#fff" d="M31.37 45.29c2.025 1.288 7.318 1.288 9.26 0L36 41.285l-4.63 4.005z"/><path fill="#92d3f5" d="M29.7 32.02c-5.762 9.541-3.86 14.27-3.696 23.98 0 1.803-5.146-2.412-6-4-2.17-5.92-.3989-13.81 2.5-19.18 2.887-1.622 6.992-2.084 7.196-.8031v.0031zm12.6.38c5.762 9.541 3.86 13.27 3.696 22.98 0 1.803 5.396-2.412 6.25-4 2.17-5.92.1489-12.81-2.75-18.18-2.887-1.622-6.992-2.084-7.196-.8031V32.4z"/><g fill="none" stroke="#000" stroke-width="2"><path stroke-linecap="round" stroke-linejoin="round" d="M40.5 32.82c.4132-.344 2.246-1.792 4.909-1.636 2.161.1259 3.61 1.233 4.091 1.636m-27 0c.4132-.344 2.246-1.792 4.909-1.636 2.161.1259 3.61 1.233 4.091 1.636"/><circle cx="36" cy="36" r="23" stroke-miterlimit="10"/><circle cx="36" cy="46.6" r="4.759" stroke-linecap="round" stroke-linejoin="round"/></g></svg>