<svg xmlns="http://www.w3.org/2000/svg" role="img" viewBox="11.04 11.04 49.79 49.79"><title>1F623.svg</title><path fill="#fcea2b" d="M36.2002 13.3163c-12.5719 0-22.7998 10.2279-22.7998 22.7998 0 12.5718 10.2279 22.7998 22.7998 22.7998C48.772 58.9159 59 48.6879 59 36.1161c0-12.5719-10.228-22.7998-22.7998-22.7998z"/><path fill="#FFF" d="M28 51c.2704-.3562 3.3099-8.2177 8.4211-8.0038C41.0265 43.1889 43.6499 50.5372 44 51H28z"/><g fill="none" stroke="#000" stroke-miterlimit="10" stroke-width="2"><circle cx="36" cy="36" r="23"/><path stroke-linecap="round" stroke-linejoin="round" d="M44.536 21.439l6.385 3.277m-24-3.277l-6.385 3.277M24 28c2.3334 1.3333 4.6666 2.6667 7 4-2.3334 1.3333-4.6666 2.6667-7 4m24-8c-2.3334 1.3333-4.6666 2.6667-7 4 2.3334 1.3333 4.6666 2.6667 7 4M28 51c.2704-.3562 1-8 8.4211-8.0038C43 42.9929 43.6499 50.5372 44 51H28z"/></g></svg>