<svg xmlns="http://www.w3.org/2000/svg" role="img" viewBox="10.91 10.91 49.92 49.92"><title>1F628.svg</title><path d="M42.8472 45.6583c0-2.592-3.834-4.694-6.869-4.694s-6.869 2.101-6.869 4.694 3.659.9248 6.694.9248 7.044 1.6669 7.044-.9248z"/><path fill="#fcea2b" d="M35.9772 12.9583a23 23 0 1 0 23 23 23.026 23.026 0 0 0-23-23z"/><path fill="#92d3f5" d="M35.9772 24.7689a23.0392 23.0392 0 0 1 22.2281 17.0947 23 23 0 1 0-44.4561 0 23.0389 23.0389 0 0 1 22.228-17.0947z"/><path d="M42.8472 45.6583c0-2.592-3.834-4.694-6.869-4.694s-6.869 2.101-6.869 4.694 3.659.9248 6.694.9248 7.044 1.6669 7.044-.9248z"/><g><path fill="none" stroke="#000" stroke-linecap="round" stroke-linejoin="round" stroke-width="2" d="M29.3564 22.669a8.44 8.44 0 0 0-9.0659 4.4981m31.3735 0a8.44 8.44 0 0 0-9.0659-4.4981"/><circle cx="35.977" cy="35.958" r="23" fill="none" stroke="#000" stroke-miterlimit="10" stroke-width="2"/><path fill="none" stroke="#000" stroke-miterlimit="10" stroke-width="2" d="M42.8472 45.6583c0-2.592-3.834-4.694-6.869-4.694s-6.869 2.101-6.869 4.694 3.659.9248 6.694.9248 7.044 1.6669 7.044-.9248z"/><path d="M29.9772 32.9583a3 3 0 1 1-3-3 3.0011 3.0011 0 0 1 3 3m18 0a3 3 0 1 1-3-3 3.0011 3.0011 0 0 1 3 3"/></g></svg>