<svg xmlns="http://www.w3.org/2000/svg" role="img" viewBox="7.83 4.08 56.22 60.97"><title>1F63E.svg</title><path fill="#F4AA41" d="M58.6655 48.9736c-3.5976 9.1169-12.6313 15.0129-23.2072 15.0129-9.1173 0-19.256-5.7059-22.8536-14.8228l-.1262-.3127c-1.1415-2.8597-.9573-6.3599-.9573-9.6324l3.6669-32.3712 10.2281 10.0799c2.9226-1.2477 6.137-1.9388 9.5103-1.9388H35.99c3.3733 0 6.5877.6911 9.5103 1.9388L56.7285 5.8474l3.7223 33.8758c0 3.2725-.6283 6.3969-1.7707 9.2566"/><path fill="#E27022" d="M35.4583 63.9865c10.6088.3425 20.3541-5.8622 23.9517-14.9791l.1109-.231c1.1415-2.8597.9579-6.8965.9579-10.169l-3.7503-32.76"/><path fill="#FFF" d="M55.1059 33.769S41.2 39.6474 41.854 40.3939c13.3058 12.1032 14.3498-4.939 13.2519-6.6249zm-38.2118 0S29.76 40.6874 30.146 40.3939c-12.8447 12.7379-14.5489-3.8594-13.2519-6.6249z"/><g><path fill="none" stroke="#000" stroke-linecap="round" stroke-linejoin="round" stroke-miterlimit="10" stroke-width="2" d="M40.16 52.08L36 46.88m-4.16 5.2l4.16-5.2m-4.16 0h8.32m14.9459-13.1583S41.2 39.6001 41.854 40.3466c13.3058 12.1032 14.3498-4.939 13.2519-6.6249zM62 54.16l-9.36-5.2m5.2 10.4l-9.36-5.2"/><path fill="none" stroke="#000" stroke-linecap="round" stroke-linejoin="round" stroke-miterlimit="10" stroke-width="2" d="M13.2916 48.0317c-1.1172-2.7655-1.7316-5.787-1.7316-8.9517L15.2 6.32l10.9799 10.7149c2.858-1.2066 6.0013-1.8749 9.3001-1.8749h1.04c3.2988 0 6.4411.6683 9.3011 1.8749L56.8 6.3201l3.64 32.76c0 3.1647-.6144 6.1862-1.7316 8.9517M22.8253 59.3824C26.4968 61.6757 30.8335 63 35.48 63h1.04c4.6465 0 8.9842-1.3243 12.6547-3.6176"/><path fill="none" stroke="#000" stroke-linecap="round" stroke-linejoin="round" stroke-miterlimit="10" stroke-width="2" d="M16.8941 33.7217S29.76 40.6401 30.146 40.3466c-12.8447 12.7379-14.5489-3.8594-13.2519-6.6249zM10 54.16l9.36-5.2m-5.2 10.4l9.36-5.2"/><circle cx="23.52" cy="38.56" r="2.08"/><circle cx="48.48" cy="38.56" r="2.08"/></g></svg>