<svg xmlns="http://www.w3.org/2000/svg" role="img" viewBox="7.83 4.08 56.22 60.97"><title>1F638.svg</title><path fill="#F4AA41" d="M58.6655 48.8321c-3.5977 9.1169-12.6313 15.1547-23.2072 15.1547-9.1173 0-19.256-5.8476-22.8537-14.9645l-.1262-.3127c-1.1415-2.8597-1.9573-6.3599-1.9573-9.6324L14.188 5.7059l11.2282 11.0799c2.9226-1.2477 6.137-1.9388 9.5103-1.9388H35.99c3.3734 0 6.5877.6911 9.5103 1.9388L56.7285 5.7059l3.7223 33.8758c0 3.2725-.6283 6.3969-1.7707 9.2566"/><path fill="#E27022" d="M35.4583 63.9868c10.6088.3424 20.3541-6.004 23.9517-15.1209l.1109-.231c1.1415-2.8597 1.9579-6.8965 1.9579-10.169l-4.7503-32.76"/><path fill="#EA5A47" d="M25.6 48.5238s7.8 4.16 10.4-3.12c2.6 7.28 10.805 3.0701 10.805 3.0701s-2.6936 4.3812-3.4875 5.2337c-4.0173 4.3139-9.4006 4.0538-13.6716.1167-.9352-.8621-4.0459-5.3005-4.0459-5.3005z"/><g fill="none" stroke="#000" stroke-linecap="round" stroke-linejoin="round" stroke-miterlimit="10" stroke-width="2"><path d="M62 54.128l-9.36-5.2m5.2 10.4l-9.36-5.2m-35.1884-6.1285c-1.1172-2.7655-1.7316-5.787-1.7316-8.9517l3.64-32.76 10.9799 10.7149c2.858-1.2066 6.0013-1.8749 9.3001-1.8749h1.04c3.2988 0 6.4421.6683 9.3001 1.8749L56.8 6.2878l3.64 32.76c0 3.1647-.6144 6.1862-1.7316 8.9517M10 54.128l9.36-5.2m-5.2 10.4l9.36-5.2m8.117-8.662h8.321"/><path d="M25.3975 48.5857s7.8 4.16 10.4-3.12c2.6 7.28 10.805 3.0701 10.805 3.0701s-2.6936 4.3812-3.4875 5.2337c-4.0173 4.3139-9.4006 4.0538-13.6716.1167-.9352-.8621-4.0459-5.3005-4.0459-5.3005zM22.851 59.3894C26.5154 61.6782 30.8436 63 35.4811 63h1.038c4.6375 0 8.9677-1.3218 12.6301-3.6106m6.0538-21.6309c-3.1139-4.1519-9.3418-4.1519-11.4177 0m-26.9873 0c3.1139-4.1519 9.3418-4.1519 11.4177 0"/></g></svg>