<svg xmlns="http://www.w3.org/2000/svg" role="img" viewBox="11.04 10.91 49.80 49.92"><title>1F635-200D-1F4AB.svg</title><path fill="#fcea2b" d="M36 12.9583a23 23 0 1 0 23 23 23.026 23.026 0 0 0-23-23z"/><g stroke="#000" stroke-miterlimit="10"><circle cx="36" cy="35.958" r="23" fill="none" stroke-width="2"/><path stroke-width="2.51" d="M35.7778 43.6811a4.1686 4.1686 0 1 0 .0005 0z"/><g fill="none" stroke-linecap="round" stroke-width="2"><path d="M41.27 30.9367a5.4893 5.4893 0 1 1 10.9786 0m-7.3186 0a1.83 1.83 0 0 1 3.66 0"/><path d="M41.27 30.9367a7.3149 7.3149 0 0 0 7.3107 7.3191h.0084M44.93 30.9367a3.66 3.66 0 0 0 7.319.121q.001-.06 0-.121"/></g><g fill="none" stroke-linecap="round" stroke-width="2"><path d="M19.3155 30.9367a5.4893 5.4893 0 0 1 10.9786 0m-7.3191 0a1.83 1.83 0 0 1 3.66 0"/><path d="M19.3155 30.9367a7.3149 7.3149 0 0 0 7.3107 7.3191h.0084m-3.6596-7.3191a3.66 3.66 0 1 0 7.3191.1148q.0009-.0573 0-.1148"/></g></g></svg>