<svg xmlns="http://www.w3.org/2000/svg" role="img" viewBox="7.09 10.96 53.95 49.95"><title>1F630.svg</title><circle cx="36" cy="36" r="24" fill="#FCEA2B"/><path fill="#92D3F5" d="M9.2458 27.724c-.2538-1.041-.087-2.1185.4698-3.0339 1.8322-3.0136 6.4342-4.1651 6.629-4.2126.4053-.0988.8134.1495.9122.5546.0476.1952 1.1432 4.8107-.6888 7.8253l.0001.0004c-1.1491 1.888-3.6208 2.4902-5.5094 1.3416-.9153-.5549-1.5591-1.4344-1.8129-2.4754z"/><g><path d="M30 31c0 1.6568-1.3448 3-3 3-1.6553 0-3-1.3433-3-3 0-1.6552 1.3447-3 3-3 1.6552 0 3 1.3448 3 3m18 0c0 1.6568-1.3447 3-3 3s-3-1.3433-3-3c0-1.6552 1.3447-3 3-3s3 1.3448 3 3"/><path fill="none" stroke="#000" stroke-linecap="round" stroke-linejoin="round" stroke-miterlimit="10" stroke-width="2" d="M26.5 48c1.8768-3.8326 5.8239-6.1965 10-6 3.8343.1804 7.2926 2.4926 9 6M23.1483 24.2501c.4872.2275 2.6277 1.1608 5.1639.3327 2.0576-.6718 3.1771-2.1117 3.5396-2.6239m16.9999 2.2912c-.4872.2275-2.6277 1.1608-5.1639.3327-2.0576-.6718-3.1771-2.1117-3.5396-2.6239"/><path fill="none" stroke="#000" stroke-miterlimit="10" stroke-width="2" d="M9.2458 27.724c-.2538-1.041-.087-2.1185.4698-3.0339 1.8322-3.0136 6.4342-4.1651 6.629-4.2126.4053-.0988.8134.1495.9122.5546.0476.1952 1.1432 4.8107-.6888 7.8253l.0001.0004c-1.1491 1.888-3.6208 2.4902-5.5094 1.3416-.9153-.5549-1.5591-1.4344-1.8129-2.4754z"/><path fill="none" stroke="#000" stroke-linecap="round" stroke-miterlimit="10" stroke-width="2" d="M21.9967 17.7451c3.8787-2.9798 8.7341-4.7512 14.0033-4.7512 12.7059 0 23.0061 10.3002 23.0061 23.0061S48.7059 59.0061 36 59.0061 12.9939 48.7059 12.9939 36c0-.396.01-.7896.0298-1.1807"/></g></svg>