<svg xmlns="http://www.w3.org/2000/svg" role="img" viewBox="15.00 9.88 41.88 52.00"><title>1F64D-1F3FC.svg</title><path fill="#92d3f5" d="M17 60.9583v-4c0-4.9941 5.0078-9 10-9q9 7.5 18 0c4.9941 0 10 4.0059 10 9v4"/><path fill="#debb90" d="M24.9365 30.9583c0 9 4.9365 14 11 14 5.9365 0 11.0635-5 11.0635-14 0-3-1-4-1-4a76.84 76.84 0 0 0-7-6c-4 3-7 4-13 5 0 0-1.0635 0-1.0635 5z"/><path fill="#fcea2b" d="M46.7535 28.74c.2007-2.1675-9.874-10.3959-7.9072-8.2284s-10.0748 4.0944-12.6838 6.0612S26 38.9583 26 38.9583c-4 0-4-6-4-13s4-14 14-14 14 7 14 14 0 13-4 13c.4105-.0976.5529-8.0505.7535-10.2183z"/><path fill="none" stroke="#000" stroke-linecap="round" stroke-linejoin="round" stroke-width="2" d="M26 38.9583c-4 0-4-6-4-13s4-14 14-14 14 7 14 14 0 13-4 13m-29 21v-3c0-4.9941 5.0078-9 10-9q9 7.5 18 0c4.9941 0 10 4.0059 10 9v3"/><path d="M42 30.9583c0 1.1045-.8955 1-2 1s-2 .1045-2-1a3.1184 3.1184 0 0 1 1-2c1.1045 0 3 .8955 3 2m-8 0c0 1.1045-.8955 1-2 1s-2 .1045-2-1c0-1 2.0225-2 3.127-2a3.2627 3.2627 0 0 1 .873 2"/><path fill="none" stroke="#000" stroke-linecap="round" stroke-linejoin="round" stroke-width="2" d="M38 38.7083a3.0417 3.0417 0 0 0-4 0"/><path fill="none" stroke="#000" stroke-linejoin="round" stroke-width="2" d="M24.9365 30.9583c0 9 4.9365 14 11 14 5.9365 0 11.0635-5 11.0635-14 0-3-1-4-1-4a76.84 76.84 0 0 0-7-6c-4 3-9 5-13 5 0 0-1.0635 0-1.0635 5z"/></svg>