<svg xmlns="http://www.w3.org/2000/svg" role="img" viewBox="12.13 10.00 48.00 52.00"><title>1F647-1F3FC.svg</title><path fill="#92d3f5" d="M21.1668 33.0423a23.705 23.705 0 0 0-3.665 2.333c-2.2159 1.7734-3.918 16.334-3.834 17.667s1.583 7.916 2.25 7.916H56.25s2.166-3.333 2.083-4.333.25-14.749-1.166-16.583-1.5459-4.1895-2.418-4.833a28.5671 28.5671 0 0 0-3.582-2.167"/><path d="M39.1668 36.0423c0 4-14 2-14 6s4.873 8 10.9365 8c5.9365 0 11.0635-4 11.0635-10 0-2-7-2-8-4m-5 22a1.92 1.92 0 0 1-2 1.9414c-1.1025 0-6 .0586-6 .0586h-6s0-4 5-4h7a1.9588 1.9588 0 0 1 2 2zm4 0a1.92 1.92 0 0 0 2 1.9414c1.1025 0 6 .0586 6 .0586h6s0-4-5-4h-7a1.9588 1.9588 0 0 0-2 2z" fill="#debb90"/><path fill="#fcea2b" d="M39.0074 36.42c-2.1433 3.3257-14.7022 1.6463-13.8406 6.6223-2 0-3-3-3-10s4-14 14-14 14 7 14 14-1 10-3 10c2.321-4.9808-8.1594-6.6223-8.1594-6.6223z"/><g fill="none" stroke="#000" stroke-linecap="round" stroke-width="2"><path stroke-linejoin="round" d="M25.1668 43.0423c-2 0-3-3-3-10s4-14 14-14 14 7 14 14-1 10-3 10"/><path stroke-linejoin="round" d="M39.1668 36.0423c0 4-14 2-14 6h0c0 4 4.873 8 10.9365 8 5.9365 0 11.0635-4 11.0635-10h0c0-2-7-2-8-4m-5 22a1.92 1.92 0 0 1-2 1.9414c-1.1025 0-6 .0586-6 .0586h-6s0-4 5-4h7a1.9588 1.9588 0 0 1 2 2zm4 0a1.92 1.92 0 0 0 2 1.9414c1.1025 0 6 .0586 6 .0586h6s0-4-5-4h-7a1.9588 1.9588 0 0 0-2 2zm-20-22s-4 3-4 12v4c0 3 0 6 2 8m38-24s4 3 4 12v5c0 3 0 5-2 7M23.167 15.042l3 3m5-3l-2-3m20 3l-3 3m-5-3l2-3m-4.0002 24.0003v-7"/><path stroke-miterlimit="10" d="M33.1668 43.0423a2.7822 2.7822 0 0 1-3 0m9 0a2.9662 2.9662 0 0 0 3 0"/></g></svg>