<svg xmlns="http://www.w3.org/2000/svg" role="img" viewBox="8.06 5.06 55.76 62.01"><title>1F640.svg</title><path fill="#F4AA41" d="M58.3627 49.2828c-3.5496 8.9951-12.4626 14.8105-22.8972 14.8105-8.9955 0-18.9987-5.6278-22.5483-14.6229l-.1245-.3085c-1.1262-2.8215-.9311-6.2749-.9311-9.5037l3.6179-31.9254 10.0781 9.9318c2.8836-1.231 6.055-1.9129 9.3833-1.9129h1.0493c3.3283 0 6.4997.6818 9.3833 1.9129L56.4516 6.7328l3.6726 33.4233c0 3.2288-.6199 6.3115-1.7471 9.1329"/><path fill="#E27022" d="M35.4655 64.0933c10.4671.3379 20.0822-5.782 23.6318-14.7771l.1094-.2279c1.1262-2.8215.9317-6.8043.9317-10.0331L56.4516 6.7328"/><ellipse cx="36" cy="51.719" fill="#EA5A47" rx="6.452" ry="7.751"/><ellipse cx="24.456" cy="34.194" fill="#FFF" rx="7.751" ry="6.452" transform="rotate(-70.494 24.456 34.194)"/><ellipse cx="46.84" cy="34.195" fill="#FFF" rx="6.452" ry="7.751" transform="rotate(-19.507 46.839 34.196)"/><path fill="#F4AA41" d="M15.2952 65h9.0343s1.3738-13.3688 0-15.8101c-.9984-1.7742-2.5479-5.2709-6.8527-5.1379-1.5576.0481-6.0111 1.347-4.7097 5.2514 1.8131 5.4394 3.4222 4.5051 4.2929 6.1777C18.2042 57.6789 15.2952 65 15.2952 65zm41.029 0h-9.0343s-1.3738-13.3688 0-15.8101c.9984-1.7742 2.5479-5.2709 6.8527-5.1379 1.5577.0481 6.0111 1.347 4.7097 5.2514-1.8131 5.4394-3.4222 4.5051-4.2929 6.1777C53.4152 57.6789 56.3242 65 56.3242 65z"/><g fill="none" stroke="#000" stroke-linecap="round" stroke-linejoin="round" stroke-miterlimit="10" stroke-width="2"><path d="M61.65 54.45l-4.04-2.25m-.06 7.38l-3.21-1.78M12.92 46.4798s-.01-.01 0-.01c-.67-2.19-1.03-4.5-1.03-6.9l3.59-32.32 10.83 10.57c2.82-1.19 5.92-1.85 9.18-1.85h1.02c3.26 0 6.36.66 9.18 1.85l10.83-10.57 3.59 32.32c0 2.59-.41 5.07-1.19 7.4m-34.22 13.59c3.23 1.67 6.9 2.61 10.79 2.61h1.02c3.75 0 7.28-.87 10.43-2.42M14.1 52.36l-3.75 2.09m6.9 3.57l-2.8 1.56"/><ellipse cx="36" cy="51.719" rx="6.452" ry="7.751"/><ellipse cx="24.456" cy="34.194" rx="7.751" ry="6.452" transform="rotate(-70.494 24.456 34.194)"/><ellipse cx="46.84" cy="34.195" rx="6.452" ry="7.751" transform="rotate(-19.507 46.839 34.196)"/><path d="M15.2952 65h9.0343s1.3738-13.3688 0-15.8101c-.9984-1.7742-2.5479-5.2709-6.8527-5.1379-1.5576.0481-6.0111 1.347-4.7097 5.2514 1.8131 5.4394 3.4222 4.5051 4.2929 6.1777C18.2042 57.6789 15.2952 65 15.2952 65zm41.029 0h-9.0343s-1.3738-13.3688 0-15.8101c.9984-1.7742 2.5479-5.2709 6.8527-5.1379 1.5577.0481 6.0111 1.347 4.7097 5.2514-1.8131 5.4394-3.4222 4.5051-4.2929 6.1777C53.4152 57.6789 56.3242 65 56.3242 65z"/></g></svg>