<svg xmlns="http://www.w3.org/2000/svg" role="img" viewBox="12.13 10.00 48.00 52.00"><title>1F647-1F3FE-200D-2642-FE0F.svg</title><path fill="#92d3f5" d="M21.1668 33.0423a23.705 23.705 0 0 0-3.665 2.333c-2.2159 1.7734-3.918 16.334-3.834 17.667s1.583 7.916 2.25 7.916H56.25s2.166-3.333 2.083-4.333.25-14.749-1.166-16.583-1.5459-4.1895-2.418-4.833a28.5671 28.5671 0 0 0-3.582-2.167"/><path d="M28.0273 32.8064c0 4-3.3024 4.9077-2.8605 9.2359 0 4 4.873 8 10.9365 8 5.9365 0 11.0635-4 11.0635-10-1.8908-9.0673-18.0411-1.6116-19.0019-6.9607m6.0019 24.9607a1.92 1.92 0 0 1-2 1.9414c-1.1025 0-6 .0586-6 .0586h-6s0-4 5-4h7a1.9588 1.9588 0 0 1 2 2zm4 0a1.92 1.92 0 0 0 2 1.9414c1.1025 0 6 .0586 6 .0586h6s0-4-5-4h-7a1.9588 1.9588 0 0 0-2 2z" fill="#a57939"/><path d="M27.9814 32.4853c-.2564 1.2272-4.04 9.9921-2.8146 10.557-2 0-3-3-3-10s4-14 14-14 14 7 14 14-1 10-3 10c0 0 2.28-9.869-13.59-6.75-4.6843.9207-5.5954-3.807-5.5954-3.807z"/><g fill="none" stroke="#000" stroke-linecap="round" stroke-width="2"><path stroke-linejoin="round" d="M25.1668 43.0423c-1.6017-1.6179-3-3-3-10s4-14 14-14 14 7 14 14-2.0506 8.6946-3.3079 9.888"/><path stroke-linejoin="round" d="M28.1264 34.5862c-2.0432 1.2648-2.8054 4.0007-2.96 7.4561h0c0 4 4.873 8 10.9365 8 5.9365 0 11.0635-4 11.0635-10h0c-.5544-9.64-19.5669.0482-19.0526-7.5431l.2264-3.6809m5.8266 29.224a1.92 1.92 0 0 1-2 1.9414c-1.1025 0-6 .0586-6 .0586h-6s0-4 5-4h7a1.9588 1.9588 0 0 1 2 2zm4 0a1.92 1.92 0 0 0 2 1.9414c1.1025 0 6 .0586 6 .0586h6s0-4-5-4h-7a1.9588 1.9588 0 0 0-2 2zm-20-22s-4 3-4 12v4c0 3 0 6 2 8m38-24s4 3 4 12v5c0 3 0 5-2 7M23.167 15.042l3 3m5-3l-2-3m20 3l-3 3m-5-3l2-3"/><path stroke-miterlimit="10" d="M33.1668 43.0423a2.7822 2.7822 0 0 1-3 0m9 0a2.9662 2.9662 0 0 0 3 0"/></g></svg>