<svg xmlns="http://www.w3.org/2000/svg" role="img" viewBox="14.88 9.88 42.00 52.00"><title>1F645-1F3FB-200D-2642-FE0F.svg</title><path fill="#92d3f5" d="M16.9872 60.9583v-4c0-4.9941 2.7617-7.12 6.9844-9.4121 5.3633-2.458 16.5615-2.918 23.9482-.13 3.3184 1.4609 7.0674 4.5479 7.0674 9.542v4"/><g fill="#fadcbc"><path d="M25.82 30.2923c0 9 4.04 14.666 10.1035 14.666 5.9365 0 10.1055-5.9307 10.1055-14.9307 0-3 .0694-4.1025.0694-4.1025-1.2455-3.5288-2.2834-6.1582-2.2834-6.1582-4.4284.83-12.524 2.2142-15.9837 1.5222a22.2068 22.2068 0 0 0-2.0113 9.0032z"/><path d="M42.5429 38.4026l8-7a1.4142 1.4142 0 0 1 2 2l-5 6m2.4443 21.5137l-16-17-3.5557-4-1-1-6-4.5557a1.4142 1.4142 0 0 0-2 2l3 3.5557a39.3264 39.3264 0 0 0 2 6c.6328 1.2647 3.5557 2 3.5557 2l2 2 8 11"/><path d="M21.9872 60.9163l16-17 3.5557-4 1-1 6-4.5557a1.4142 1.4142 0 0 1 2 2l-3 3.5557a39.3264 39.3264 0 0 1-2 6c-.6328 1.2647-3.5557 2-3.5557 2l-2 2-8 11m-2.5557-22.5137l-8-7a1.4142 1.4142 0 0 0-2 2l5 6"/></g><path fill="#a57939" d="M43.8152 19.7669c.1744.9826-13.5955.7245-15.4988 1.7056S25.8783 30.23 25.8783 30.23a28.57 28.57 0 0 0 .3878 4.764l-5.0339-3.75a48.8842 48.8842 0 0 1-.245-5.2236c0-7 5-14.0625 15-14.0625s15 7.0625 15 14.0625c0 1.7359-.0615 3.4065-.215 4.9374l-5.1891 3.9026a16.7243 16.7243 0 0 0 .3348-4.5617l.6717-2.3408z"/><path fill="none" stroke="#000" stroke-linecap="round" stroke-linejoin="round" stroke-width="2" d="M21.99 27.9583c-.0029-.6543-.0029-1.3223-.0029-2 0-7 5-14 14-14a13.75 13.75 0 0 1 14 14c0 .6.0039 1.1318.0049 1.666"/><path d="M41.86 29.9583a2 2 0 1 1-2-2 2 2 0 0 1 2 2m-8 0a2 2 0 1 1-2-2 2 2 0 0 1 2 2"/><path fill="none" stroke="#000" stroke-linecap="round" stroke-linejoin="round" stroke-width="2" d="M33.9872 37.9583h4M47.92 48.4075c3.85 1.1778 7.0674 4.5469 7.0674 8.5508v3m-38.0002 0v-3c0-3.9756 3.1719-7.3242 6.9844-8.5244m18.5713-10.0313l8-7a1.4142 1.4142 0 0 1 2 2l-5 6m-18.1114-1l-8-7a1.4142 1.4142 0 0 0-2 2l5 6M35.989 54.906l-4.002 5.052"/><path fill="none" stroke="#000" stroke-linecap="round" stroke-linejoin="round" stroke-width="2" d="M35.956 45.4935l5.5869-6.0909 1-1 6-4.5556a1.4142 1.4142 0 0 1 2 2l-3 3.5556a39.3264 39.3264 0 0 1-2 6c-.6328 1.2647-3.5557 2-3.5557 2l-2.127 2M21.987 59.958l10-10.555"/><path fill="none" stroke="#000" stroke-linecap="round" stroke-linejoin="round" stroke-width="2" d="M49.9872 59.9583l-16-16.5557-3.5557-4-1-1-6-4.5556a1.4142 1.4142 0 0 0-2 2l3 3.5556a39.3264 39.3264 0 0 0 2 6c.6328 1.2647 3.5557 2 3.5557 2l2 2 8 10.5557m6.8883-29.784c-.3017-4.803-2.9724-10.1444-2.9724-10.1444-8 0-10 3-16 1a23.8144 23.8144 0 0 0-3.0418 9.3945"/></svg>