<svg xmlns="http://www.w3.org/2000/svg" role="img" viewBox="13.04 9.04 49.79 44.79"><title>1F68E.svg</title><path fill="#3f3f3f" d="M31 21h14v3H31z"/><path fill="#d0cfce" d="M18 48h-.0853A2.9232 2.9232 0 0 1 15 45.0853V26.9147A2.9232 2.9232 0 0 1 17.9147 24h40.1706A2.9232 2.9232 0 0 1 61 26.9147v18.1706A2.9232 2.9232 0 0 1 58.0853 48H58"/><path fill="#61b2e4" d="M15 38h45v9H15z"/><path fill="#92d3f5" d="M17 27h8v9h-8zm13 0h7v7h-7zm10 0h7v7h-7zm10 0h7v7h-7z"/><path fill="#fff" d="M16 38h5v3h-5z"/><circle cx="54" cy="48" r="4" fill="#d0cfce"/><circle cx="22" cy="48" r="4" fill="#d0cfce"/><g fill="none" stroke="#000" stroke-linecap="round" stroke-linejoin="round" stroke-width="2"><path d="M50 48H26.121m4.788-24v-3H46v3m-7.545-3L47 11"/><circle cx="22" cy="48" r="4"/><circle cx="54" cy="48" r="4"/><path d="M18 36h7v-8.1m5.875 6.1H37v-6.125M40.875 34H47v-6.125M50.875 34H57v-6.125"/><path d="M18 48h-.0853A2.9232 2.9232 0 0 1 15 45.0853V26.9147A2.9232 2.9232 0 0 1 17.9147 24h40.1706A2.9232 2.9232 0 0 1 61 26.9147v18.1706A2.9232 2.9232 0 0 1 58.0853 48H58"/><path d="M17 41h4v-2"/></g></svg>