<svg xmlns="http://www.w3.org/2000/svg" role="img" viewBox="0.66 13.66 69.42 44.55"><title>1F68B.svg</title><g id="color"><path fill="#fff" d="M22.645 27.793L22.645 35.244 65 36 65.118 27.867 22.645 27.793z"/><path fill="#ea5a47" d="M21.526 35.564H66.804V47.589H21.526z"/><rect width="6.341" height="10.646" x="34.358" y="32.235" fill="#92d3f5" rx="1.058" ry="1.058"/><rect width="6.341" height="10.646" x="21.402" y="32.235" fill="#92d3f5" rx="1.058" ry="1.058"/><rect width="6.341" height="10.646" x="47.368" y="32.235" fill="#92d3f5" rx="1.058" ry="1.058"/><rect width="6.341" height="10.646" x="60.379" y="32.235" fill="#92d3f5" rx="1.058" ry="1.058"/><path fill="#d0cfce" d="M33.749 51.1115c-.0114 2.3441-1.921 4.2352-4.2652 4.2237-2.328-.0114-4.2124-1.8958-4.2237-4.2237M62.7161 51.1115c-.0114 2.3441-1.921 4.2352-4.2652 4.2237-2.328-.0114-4.2124-1.8958-4.2237-4.2237"/><path fill="#3f3f3f" d="M22.196 47.049H66.134V51.112H22.196z"/></g><g id="line" fill="none" stroke="#000" stroke-linecap="round"><path stroke-linejoin="round" stroke-width="2" d="M3 56L67 56M21 16L67 16M34.358 26.392L40 21 34 16"/><path stroke-miterlimit="10" stroke-width="2.074" d="M23.149 50.1115h-.819c-.4901-.0014-.887-.3983-.8884-.8884v-20.9343c.003-1.0463.8505-1.8938 1.8968-1.8968h41.4841c1.0463.003 1.8938.8505 1.8968 1.8968v20.9347c-.0014.4898-.3982.8866-.888.888h-.8291M51.971 50.111L35.845 50.111M33.749 51.3635c.0114 2.3441-1.8796 4.2537-4.2237 4.2652-2.3441.0114-4.2537-1.8796-4.2652-4.2237 0-.0138 0-.0276 0-.0414M62.7161 51.1115c-.0114 2.3441-1.921 4.2352-4.2652 4.2237-2.328-.0114-4.2124-1.8958-4.2237-4.2237"/><rect width="6.341" height="10.646" x="34.358" y="32.245" stroke-miterlimit="10" stroke-width="2.074" rx="1.058" ry="1.058"/><rect width="6.341" height="10.646" x="21.402" y="32.245" stroke-miterlimit="10" stroke-width="2.074" rx="1.058" ry="1.058"/><rect width="6.341" height="10.646" x="47.196" y="32.324" stroke-miterlimit="10" stroke-width="2.074" rx="1.058" ry="1.058"/><rect width="6.341" height="10.646" x="60.379" y="32.324" stroke-miterlimit="10" stroke-width="2.074" rx="1.058" ry="1.058"/><path stroke-miterlimit="10" stroke-width="1.97" d="M20.384 47.031L67.752 47.031"/></g></svg>