<svg xmlns="http://www.w3.org/2000/svg" role="img" viewBox="10.98 8.85 49.91 53.04"><title>1F68D.svg</title><rect width="16.946" height="4.941" x="27.689" y="10.958" fill="#fcea2b" rx="2.47" ry="2.47"/><path fill="#fcea2b" d="M24.23 13.9583h23.5395A7.2305 7.2305 0 0 1 55 21.1888v26.2695a1.5 1.5 0 0 1-1.5 1.5h-35a1.5 1.5 0 0 1-1.5-1.5v-26.27a7.23 7.23 0 0 1 7.23-7.23z"/><path fill="#f4aa41" d="M17 38.958h38v10H17z"/><path fill="#92d3f5" d="M20 20.958h31v13H20z"/><path fill="#fff" d="M20 41.958h7v3h-7zm24 0h7v3h-7z"/><rect width="40" height="8" x="16" y="48.958" fill="#3f3f3f" rx="2.621" ry="2.621"/><rect width="10.911" height="2.866" x="30.044" y="13.217" fill="#3f3f3f" rx="1.433" ry="1.433"/><g><rect width="40" height="8" x="16" y="48.958" fill="none" stroke="#000" stroke-linecap="round" stroke-linejoin="round" stroke-width="2" rx="2.621" ry="2.621"/><rect width="6" height="4" x="18" y="56.958" rx="2" ry="2"/><rect width="6" height="4" x="48" y="56.958" rx="2" ry="2"/><path fill="none" stroke="#000" stroke-linecap="round" stroke-linejoin="round" stroke-width="2" d="M16 25.958h-3m0-3v6m43-3h3m0-3v6M44.1556 13.9583H47.77A7.2518 7.2518 0 0 1 55 21.1888v26.27a1.5044 1.5044 0 0 1-1.5 1.5h-35a1.5044 1.5044 0 0 1-1.5-1.5v-26.27a7.2515 7.2515 0 0 1 7.23-7.23h2.6142"/><path fill="none" stroke="#000" stroke-linecap="round" stroke-linejoin="round" stroke-width="2" d="M51 21.9583v11.8H21m0 11.1997h6v-2m18 2h6v-2"/><path fill="none" stroke="#000" stroke-linecap="round" stroke-miterlimit="10" stroke-width="2" d="M32 41.958h9m-9 3h9"/><path fill="none" stroke="#000" stroke-linecap="round" stroke-linejoin="round" stroke-width="2" d="M26.8444 13.9583v-.4791a2.5283 2.5283 0 0 1 2.5209-2.5209h12.2694a2.5283 2.5283 0 0 1 2.5209 2.5209v.4791"/></g></svg>