<svg xmlns="http://www.w3.org/2000/svg" role="img" viewBox="1.40 6.78 70.07 63.57"><title>1F689.svg</title><g id="color"><path fill="#fff" d="M17.003 20.119L16.836 51.387 53.454 51.721 53.775 18.792 17.003 20.119z"/><path fill="#d0cfce" d="M53.775 42.583L53.775 18.792 60.781 18.792 60.781 42.583M34.438 62.519L3.781 62.519 3.781 50.929 34.813 50.929"/><path fill="#3f3f3f" d="m35.0781,22.5h-18c-.5522,0-1,.4477-1,1v10c0,.5522.4478,1,1,1h18c.5523,0,1-.4478,1-1v-10c0-.5523-.4477-1-1-1Z"/><path fill="#9b9b9a" d="m31.7449,25.5h-11.3335c-.5523,0-1,.4477-1,1v4c0,.5522.4477,1,1,1h11.3335c.5522,0,1-.4478,1-1v-4c0-.5523-.4478-1-1-1Z"/><path fill="#d0cfce" d="M3.781 9.167H68.25V18.792H3.781zM14.813 51.911L10.781 51.911 10.781 18.792 15.587 18.792 15.587 51.911 14.813 51.911M55.2813 38.7689s-13.6875-1-23.75 5.625-16.25 11.625-16.25 11.625c0 0-1.7671 1.7819-1.875 3.875-.1563 3.0312 6.875 3.9375 6.875 3.9375l15.4187 1.0884c.3458.0244.6923.0366 1.0389.0366h32.4798s-.1874-26.1875 0-26.1875c0 0-13.9374 0-13.9374 0z"/><path fill="#3f3f3f" d="m30.4063,50.1439l3.0313,3.0312h32.7187v-6.9687c0-.5523-.4478-1-1-1h-17s-8.5625-.25-18.125,4.125"/><path fill="none" stroke="#ea5a47" stroke-linecap="round" stroke-linejoin="round" stroke-width="2" d="m17.7813,59.5189s12.375-2.125,47.375-1"/></g><g id="line"><path fill="none" stroke="#000" stroke-linecap="round" stroke-linejoin="round" stroke-width="2" d="M54.875 34.917L54.875 18.792 59.681 18.792 59.681 34.917"/><circle cx="57.934" cy="66.021" r="2"/><path fill="none" stroke="#000" stroke-linecap="round" stroke-linejoin="round" stroke-width="2" d="M7.438 61.536L3.781 61.536 3.781 51.911 14.813 51.911M35.0781 22.5h-18c-.5522 0-1 .4477-1 1v10c0 .5522.4478 1 1 1h18c.5523 0 1-.4478 1-1v-10c0-.5523-.4477-1-1-1z"/><path fill="none" stroke="#000" stroke-linecap="round" stroke-linejoin="round" stroke-width="2" d="M31.7449 25.5h-11.3335c-.5523 0-1 .4477-1 1v4c0 .5522.4477 1 1 1h11.3335c.5522 0 1-.4478 1-1v-4c0-.5523-.4478-1-1-1zM3.781 9.167H68.25V18.792H3.781z"/><path fill="none" stroke="#000" stroke-linecap="round" stroke-linejoin="round" stroke-width="2.077" d="M14.813 51.911L10.781 51.911 10.781 18.792 15.587 18.792 15.587 51.911 14.813 51.911"/><circle cx="44.872" cy="66.021" r="2"/><path fill="none" stroke="#000" stroke-linecap="round" stroke-linejoin="round" stroke-width="2" d="M6.094 68.019L68 68.019M55.2813 38.7689s-13.6875-1-23.75 5.625-16.25 11.625-16.25 11.625c0 0-1.7671 1.7819-1.875 3.875-.1563 3.0312 6.875 3.9375 6.875 3.9375l15.4187 1.0884c.3458.0244.6923.0366 1.0389.0366h32.4798s-.1874-26.1875 0-26.1875c0 0-13.9374 0-13.9374 0z"/><path fill="none" stroke="#000" stroke-linecap="round" stroke-linejoin="round" stroke-width="2" d="M30.406 50.144L33.438 53.175 65.156 53.175"/></g></svg>