<svg xmlns="http://www.w3.org/2000/svg" role="img" viewBox="4.80 25.43 62.27 31.39"><title>1F691.svg</title><path fill="none" stroke="#000" stroke-linecap="round" stroke-linejoin="round" stroke-miterlimit="10" stroke-width="2" d="M57 32v6m-2.6-4.5l5.2 3m-5.2 0l5.2-3"/><path d="M32 40h33v4H32z"/><path fill="#FFF" d="M65 28.67v21.08c0 .55-.45 1.9583-1 1.9583h-6.67c0-2.76-1.24-5.9583-4-5.9583s-4 3.1983-4 5.9583H32.17V27.67H64c.55 0 1 .44 1 1zm-32.83-1v24.08l-11.9318-.0176c-.12-2.65-2.1582-5.9824-4.8382-5.9824-2.61 0-4.76 3.01-4.97 5.57L7 51.25v-5.67c0-.12 0-.23.01-.34 0-.11.01-.21.02-.31.05-.62.18-1.11.34-1.48.1-.25.21-.44.32-.6v-.01c.06-.07.11-.14.16-.2.04-.06.09-.11.14-.15.03-.02.05-.05.07-.07.02-.02.04-.03.06-.05.03-.03.05-.03.05-.03l4.5-3.13c.94-1.04 1.84-1.99 2.72-2.85.28-.29.57-.57.85-.84.55-.54 1.1-1.04 1.62-1.51s1.02-.9 1.51-1.3c1.45-1.2 2.74-2.12 3.85-2.81.38-.24.73-.44 1.06-.63.33-.19.65-.35.94-.5.29-.15.56-.27.82-.38.18-.08.36-.15.53-.22l.24-.09c1-.37 1.52-.41 1.52-.41h3.84z"/><circle cx="53.33" cy="50.75" r="3" fill="#d0cfce"/><path fill="#d0cfce" d="M18.4 50.75c0 1.66-1.34 3-3 3s-3-1.34-3-3c0-.13.01-.26.03-.39.18-1.47 1.44-2.61 2.97-2.61 1.57 0 2.85 1.2 2.98 2.73.02.09.02.18.02.27z"/><path fill="none" stroke="#92d3f5" stroke-linecap="round" stroke-linejoin="round" stroke-miterlimit="10" stroke-width="2" d="M57 32v6m-2.6-4.5l5.2 3m-5.2 0l5.2-3"/><path fill="#92d3f5" d="M26.9434 33.1235l-.1517 5.3559c0 .1598-2.101 1.3501-2.2604 1.3607l-6.3812-.0017c-.9195.0608-1.4213-1.0409-.7717-1.6946l4.7033-5.0286c.1877-.1889.4431-.2952.7094-.2952h3.8488c.1676 0 .3035.1359.3035.3035z"/><path fill="#ea5a47" d="M32 40h33v4H32z"/><g><path fill="none" stroke="#000" stroke-linecap="round" stroke-linejoin="round" stroke-miterlimit="10" stroke-width="2" d="M61.5 50.75H64c.5523 0 1-.4477 1-1V28.6667c0-.5523-.4477-1-1-1H28.3333s-5.5833.4166-15.6666 11.5416l-4.5 3.125S7 43.0625 7 45.5833V50.25h.9167m14.8333.5h22.833"/><path d="M53.33 45.75c-2.76 0-5 2.24-5 5s2.24 5 5 5 5-2.24 5-5-2.24-5-5-5zm0 8c-1.66 0-3-1.34-3-3s1.34-3 3-3 3 1.34 3 3-1.34 3-3 3zm-32.94-3.23c-.12-2.65-2.31-4.77-4.99-4.77-2.61 0-4.76 2.01-4.97 4.57-.02.14-.03.28-.03.43 0 2.76 2.24 5 5 5s5-2.24 5-5c0-.08 0-.16-.01-.23zm-4.99 3.23c-1.66 0-3-1.34-3-3 0-.13.01-.26.03-.39.18-1.47 1.44-2.61 2.97-2.61 1.57 0 2.85 1.2 2.98 2.73.02.09.02.18.02.27 0 1.66-1.34 3-3 3z"/><path fill="none" stroke="#000" stroke-linecap="round" stroke-linejoin="round" stroke-miterlimit="10" stroke-width="2" d="M26.75 33.8333v2.1459c0 1.6569-1.3431 3-3 3H18M32.167 27.667V50.75"/></g></svg>