<svg xmlns="http://www.w3.org/2000/svg" role="img" viewBox="13.64 18.14 44.59 38.59"><title>1F696.svg</title><path fill="#f4aa41" d="M22.647 27.358l4.808-2.504 17.533-.042 5.222 4.049 2.612 9.184 2.031 1.753-.456 12.356-37.013.377v-13.48l1.03-.54 4.233-11.153z"/><path fill="#92d3f5" d="M23.192 37.462l25.564-.019-2.91-9.288H26.314l-3.122 9.307z"/><path fill="#fcea2b" d="M19.978 41.33h5v3.51h-5zm26 0h5v3.51h-5zm-13.46-20.797h-5.301v4.306h17.67v-4.306H32.518z"/><rect width="37.242" height="4.236" x="17.641" y="47.844" fill="#3f3f3f" rx="2.118" ry="2.118"/><g><path fill="none" stroke="#000" stroke-linecap="round" stroke-linejoin="round" stroke-width="2" d="M24.095 37.443h24.661l-2.878-8.591"/><path fill="none" stroke="#000" stroke-linecap="round" stroke-miterlimit="10" stroke-width="2" d="M32 42.161h9m-9 2.632h9"/><path fill="none" stroke="#000" stroke-linecap="round" stroke-linejoin="round" stroke-width="2" d="M21 44.793h4v-2.632m22 2.632h4v-2.632"/><rect width="6" height="3.51" x="18" y="52.49" rx="1.755" ry="1.755"/><rect width="6" height="3.51" x="48" y="52.49" rx="1.755" ry="1.755"/><rect width="4.965" height="3.274" x="52.478" y="35.502" rx="1.637" ry="1.637"/><rect width="4.965" height="3.274" x="14.504" y="35.686" rx="1.637" ry="1.637"/><path fill="none" stroke="#000" stroke-linecap="round" stroke-linejoin="round" stroke-width="2" d="M26.3876 24.3126h0c0-2.3685 1.18-4.3064 2.6216-4.3064h13.9816c1.4419 0 2.6216 1.9379 2.6216 4.3064h0M19.598 38.3373l2.0507-6.9637c1.1278-3.83 4.8183-6.9636 8.201-6.9636H36m16.4019 13.9271l-2.0506-6.9635c-1.1279-3.83-4.8183-6.9636-8.201-6.9636H36m.2624 28.08h-16.349a2.9458 2.9458 0 0 1-2.9267-2.9474v-7.0373c0-1.5965.89-4.0754 2.4927-4.0754"/><path fill="none" stroke="#000" stroke-linecap="round" stroke-linejoin="round" stroke-width="2" d="M35.6851 52.49h16.349a2.9458 2.9458 0 0 0 2.9267-2.9474v-7.0373c0-1.5965-.89-4.0754-2.4927-4.0754"/></g></svg>