<svg xmlns="http://www.w3.org/2000/svg" role="img" viewBox="4.56 25.31 62.01 33.13"><title>1F692.svg</title><path fill="#ea5a47" d="M54.4688 53.625l4.2812-.9167 5.9167-2.625V35l-2.4584-2.4583H20.5s-7.9167 0-9.75.5c-1.8333.5-4.5417 7.9166-3.5833 17.5833l5.9036 2h11.888v.0833l17.073.9167"/><path fill="#3f3f3f" d="M23.0625 36.625v4.3591c0 .5523.395 1 .8822 1l7.4991-.6091c.4873 0 .8823-.4477.8823-1l.5697-3.79c0-.5523-.395-1-.8822-1l-8.0689.04c-.4872 0-.8822.4477-.8822 1z"/><path fill="#92d3f5" stroke-linecap="round" stroke-linejoin="round" stroke-miterlimit="10" stroke-width="2" d="M12.9052 32.0047s-.1443-2.0991 2.375-2.1875c2.375-.0833 2.375 2.1875 2.375 2.1875"/><circle cx="19" cy="53.333" r="3" fill="#9b9b9a" stroke-miterlimit="10" stroke-width="2"/><path fill="#3f3f3f" d="M16.7577 35.0777h-3.1014c-1.6569 0-3 1.3432-3 3l-.3674 2.995 5.8357-1.12.6331-4.875z"/><circle cx="48.208" cy="53.333" r="3" fill="#9b9b9a" stroke-miterlimit="10" stroke-width="2"/><path fill="#3f3f3f" stroke-linecap="round" stroke-linejoin="round" stroke-miterlimit="10" stroke-width="2" d="M24.0208 41.375H31.25c.5523 0 1-.4477 1-1v-3.75"/><path fill="#d0cfce" stroke-linecap="round" stroke-linejoin="round" stroke-miterlimit="10" stroke-width="1.916" d="M60.71 36.55v11.84c0 .31-.26.57-.57.57h-6.3199c-.3101 0-.5701-.26-.5701-.57v-1.22h-9.46v1.22c0 .31-.26.57-.57.57h-6.3101c-.3198 0-.5798-.26-.5798-.57V36.55c0-.51.4199-.92.9299-.92h22.52c.51 0 .93.41.93.92z"/><path fill="#d0cfce" d="M9.9241 45.4881h1.9542c.2667.2828-.5473.5778-.5473 1.2905v1.4115c0 .7128-.5726 1.2906-1.2788 1.2906h-.001c-.6614 0-1.2136-.509-1.2735-1.1737l-.1272-1.4116c-.0681-.7557.5216-1.4073 1.2736-1.4073z"/><g fill="none" stroke="#000" stroke-miterlimit="10"><path stroke-linecap="round" stroke-linejoin="round" stroke-width="2" d="M24.792 51.625v1.083h17"/><path stroke-linecap="round" stroke-linejoin="round" stroke-width="2" d="M54.5833 52.7083h4l5.9167-2.625V35l-2.4583-2.4583H20.3333s-7.9166 0-9.75.5C8.75 33.5417 6.0417 41.9583 7 51.625h5.9037m.0015-19.6203s-.1443-2.0991 2.375-2.1875c2.375-.0833 2.375 2.1875 2.375 2.1875"/><circle cx="19" cy="53.333" r="3" stroke-width="2"/><circle cx="48.208" cy="53.333" r="3" stroke-width="2"/><path stroke-linecap="round" stroke-linejoin="round" stroke-width="2" d="M11.2825 40.8835l4.3681-.6897c.4706-.0743.8235-.4704.8431-.9465l.1315-3.1817m7.3956 5.3094H31.25c.5523 0 1-.4477 1-1v-3.75"/><path stroke-linecap="round" stroke-linejoin="round" stroke-width="1.916" d="M60.71 36.55v11.84c0 .31-.26.57-.57.57h-6.3199c-.3101 0-.5701-.26-.5701-.57v-1.22h-9.46v1.22c0 .31-.26.57-.57.57h-6.3101c-.3198 0-.5798-.26-.5798-.57V36.55c0-.51.4199-.92.9299-.92h22.52c.51 0 .93.41.93.92z"/><path stroke-linecap="round" stroke-linejoin="round" stroke-width="2" d="M61.25 32.542h-40m40-5h-40m5 5v-5m6 5v-5m6 5v-5m18 5v-5m-6 5v-5m-6 5v-5M11.7454 46.4375v1.0938c0 .5522-1.4477 1-2 1h-.0007"/></g></svg>