<svg xmlns="http://www.w3.org/2000/svg" role="img" viewBox="10.91 5.91 49.93 56.68"><title>1F6A8.svg</title><path fill="#ea5a47" d="M21.4 51V36a14.9585 14.9585 0 0 1 14.9-15 15.0887 15.0887 0 0 1 14.9 15v15"/><path fill="#d0cfce" d="M21.4 51h30a4.9514 4.9514 0 0 1 5 5 4.9514 4.9514 0 0 1-5 5h-30a4.9514 4.9514 0 0 1-5-5 4.9514 4.9514 0 0 1 5-5z"/><path fill="#d22f27" d="M51.4 36a14.9381 14.9381 0 0 0-14.8-15 14.7059 14.7059 0 0 0-4.2.6c9.4 3.8 10.3 23.2 10.4 29.4h8.7V36z"/><g fill="none" stroke="#000" stroke-linecap="round" stroke-linejoin="round" stroke-width="2"><path d="M17.8 23.5l-4.7-4.7m41 4.7l4.7-4.7M36.4 14V8m-15 43V36a14.9585 14.9585 0 0 1 14.9-15h0a15.0887 15.0887 0 0 1 14.9 15v15m-30.1 0h30.5a4.8011 4.8011 0 0 1 4.8 4.8h0a4.8011 4.8011 0 0 1-4.8 4.8H21.1a4.8011 4.8011 0 0 1-4.8-4.8h0a4.9353 4.9353 0 0 1 4.8-4.8z"/></g></svg>