<svg xmlns="http://www.w3.org/2000/svg" role="img" viewBox="2.72 31.22 66.43 38.93"><title>1F6A4.svg</title><path fill="#FFF" d="M25.7191 37.219s-18.6574.1092-18.8835 3.2051c-.226 3.0959 12.1477 8.6395 12.1477 8.6395s.7809.7927 11.6472 1.303c10.8662.5103 28.1411 1.0924 28.1411 1.0924l4.6809-4.3851c.088-.0825.1418-.2035.1476-.3325l.0661-1.4563c.0099-.2177-.1173-.4093-.3023-.4554l-1.9028-.4743-5.017-3.2687c-.0459-.0299-.0968-.0487-.1496-.0553L25.7191 37.219z"/><path fill="#92D3F5" d="M45.7345 39.7147s-6.8479-5.3894-15.0213-6.2024c-.0867-.0086-.1747.0159-.2494.0692l-5.1414 3.6651 20.4121 2.4681z"/><path fill="none" stroke="#EA5A47" stroke-linecap="round" stroke-linejoin="round" stroke-miterlimit="10" stroke-width="1.86" d="M13.8717 41.0478s24.9872 2.43 42.3914 5.4447"/><path fill="#92D3F5" d="M68 47v22H4V47h1c3 0 9 3 15 3s10-3 16-3 11 3 16 3 7-3 15-3h1z"/><path fill="none" d="M68 39.021v16H4v-16"/><g fill="none" stroke="#000" stroke-linecap="round" stroke-linejoin="round" stroke-miterlimit="10"><path stroke-width="1.86" d="M63.4525 47.0739c.088-.0825.1418-.2035.1476-.3325l.0661-1.4563c.0099-.2177-.1173-.4093-.3023-.4554l-1.9028-.4743-5.017-3.2687c-.0459-.0299-.0968-.0487-.1496-.0553L25.7191 37.219s-18.6574.1092-18.8835 3.2051c-.226 3.0959 12.1477 8.6395 12.1477 8.6395s.3095.3142 3.25.6743"/><path stroke-width="1.86" d="M45.7345 39.7147s-6.8479-5.3894-15.0213-6.2024c-.0867-.0086-.1747.0159-.2494.0692l-5.1414 3.6651 20.4121 2.4681z"/><path stroke-width="2" d="M5 47c3 0 9 3 15 3s10-3 16-3 11 3 16 3 7-3 15-3"/></g></svg>