<svg xmlns="http://www.w3.org/2000/svg" role="img" viewBox="1.68 30.18 68.51 14.26"><title>1F6AC.svg</title><g id="color" stroke-linecap="round" stroke-linejoin="round" stroke-miterlimit="10" stroke-width="2"><path fill="#FFF" d="M66.9875,42.1803H5.0124C4.4556,42.1803,4,41.7247,4,41.1678v-7.6418c0-0.5568,0.4556-1.0124,1.0124-1.0124h61.9751 c0.5568,0,1.0125,0.4556,1.0125,1.0124v7.6418C68,41.7247,67.5444,42.1803,66.9875,42.1803z"/><path fill="#f4aa41" d="M67,42.1803H50.125c-0.55,0-1-0.45-1-1v-7.6667c0-0.55,0.45-1,1-1H67c0.55,0,1,0.45,1,1v7.6667 C68,41.7303,67.55,42.1803,67,42.1803z"/><path fill="#9b9b9a" d="M10.0068,42.1803H4.9932C4.4469,42.1803,4,41.7333,4,41.1871v-7.6803c0-0.5463,0.4469-0.9932,0.9932-0.9932h5.0136 c0.5463,0,0.9932,0.4469,0.9932,0.9932v7.6803C11,41.7333,10.5531,42.1803,10.0068,42.1803z"/></g><g id="line" fill="none" stroke="#000" stroke-linecap="round" stroke-linejoin="round" stroke-miterlimit="10" stroke-width="2"><path d="M66.9875,42.1803H5.0124C4.4556,42.1803,4,41.7247,4,41.1678v-7.6418c0-0.5568,0.4556-1.0124,1.0124-1.0124h61.9751 c0.5568,0,1.0125,0.4556,1.0125,1.0124v7.6418C68,41.7247,67.5444,42.1803,66.9875,42.1803z"/><path d="M67 42.1803H50.125c-.55 0-1-.45-1-1v-7.6667c0-.55.45-1 1-1H67c.55 0 1 .45 1 1v7.6667C68 41.7303 67.55 42.1803 67 42.1803zM10.0068 42.1803H4.9932C4.4469 42.1803 4 41.7333 4 41.1871v-7.6803c0-.5463.4469-.9932.9932-.9932h5.0136c.5463 0 .9932.4469.9932.9932v7.6803C11 41.7333 10.5531 42.1803 10.0068 42.1803z"/></g></svg>