<svg xmlns="http://www.w3.org/2000/svg" role="img" viewBox="8.96 8.96 53.95 53.95"><title>1F6AE.svg</title><path fill="#61b2e4" stroke-linecap="round" stroke-linejoin="round" stroke-miterlimit="10" stroke-width="2" d="M60 61H12c-.5523 0-1-.4477-1-1V12c0-.5523.4477-1 1-1h48c.5523 0 1 .4477 1 1v48c0 .5523-.4477 1-1 1z"/><path fill="#FFF" d="M33.963 43.459l-1.067 14.944h-8l-1.068-14.944"/><path fill="#FFF" stroke-linecap="round" stroke-linejoin="round" stroke-miterlimit="10" stroke-width="1.827" d="M31.231 41.1948s-5.6067.3386-5.7333.411c-.1267.0725 1.1619-1.6144.9723-3.4846 0 0 3.0416 1.0383 5.8834-.5198l-1.1224 3.5934z"/><path fill="#FFF" d="M42.6258 25.6433s-.5443 3.9503-2.9983 6.9077c-.5911.7122-2.7561 2.0885-3.3567 2.34-2.25.9423-4.4827-.1479-4.4827-.1479l5.9378-3.6298 1.8399-5.32 3.06-.15z"/><path fill="#FFF" d="M52.6764 41.2839l-.6535-16.0414c-.0946-1.8972-1.6166-3.3911-3.4733-3.4092h-4.9512c-1.8567.0181-3.3787 1.512-3.4733 3.4092l1.1038 2.0442c-.0048.1074.1508.6019.1076.6998l.4657 11.9296-.7693 18.2453c-.0269.2599.2184.5377.377.7427.0313.0399.076.0664.1255.0743.1765 0 .5421-.3529.6073-.9287l2.0977-18.5953c.0442-.3814.1421-.7542.2904-1.1069l.812-.5142h1.341l.5979.6645c.1269.325.2916.6363.3324.9838l2.3919 18.5698c.0652.5766.43.9287.6065.9287.0494-.0079.0942-.0344.1255-.0743.1587-.2049.2328-.4652.2063-.7253l-.5889-18.2644 2.4208 1.7283a.83997.83997 0 0 1-.0998-.3605z"/><circle cx="45.992" cy="16.51" r="2.375" fill="#FFF"/><g fill="none" stroke="#000"><path stroke-linecap="round" stroke-linejoin="round" stroke-miterlimit="10" stroke-width="2" d="M60 61H12c-.5523 0-1-.4477-1-1V12c0-.5523.4477-1 1-1h48c.5523 0 1 .4477 1 1v48c0 .5523-.4477 1-1 1z"/><path stroke-linecap="round" stroke-linejoin="round" stroke-miterlimit="10" stroke-width="2" d="M33.896 44.403l-1 14h-8l-1-14"/><path stroke-linecap="round" stroke-linejoin="round" stroke-miterlimit="10" stroke-width="1.827" d="M31.231 41.1948s-5.6067.3386-5.7333.411c-.1267.0725 1.1619-1.6144.9723-3.4846 0 0 3.0416 1.0383 5.8834-.5198l-1.1224 3.5934z"/><circle cx="45.992" cy="16.51" r="2.375" stroke-miterlimit="10" stroke-width="2"/><path stroke-linecap="round" stroke-linejoin="round" stroke-width="2" d="M50.0173 26.8606l1.52 30.4c.044.88-.46 1.6-1.12 1.6-.7812-.1321-1.3603-.7976-1.3832-1.5896l-2.0312-17.6248c-.1008-.8744-.5431-1.5896-.9832-1.5896-.44 0-.88.7152-.9832 1.5896L43.0029 57.271c-.0228.792-.602 1.4575-1.3832 1.5896-.66 0-1.1639-.72-1.12-1.6l1.52-30.4"/><path stroke-linecap="round" stroke-linejoin="round" stroke-width="2" d="M32.1458 33.8333s3.9208-1.4164 5-3c1.0447-1.5328 4.2447-8.9751 6.4715-9h4.8c2.2268.0249 4.0509 1.7761 4.1664 4l.6336 15.2"/></g></svg>