<svg xmlns="http://www.w3.org/2000/svg" role="img" viewBox="3.63 3.76 64.48 64.36"><title>1F6AF.svg</title><circle cx="36" cy="36" r="26" fill="#fff"/><path fill="#fcea2b" d="M44.37 51.95a20.26 20.26 0 0 1-.3614-3.468c.012-1.251.2252-2.51-.4312-3.632a1.501 1.501 0 0 0-2.59 1.514c.2483.4244.03 1.397.024 1.871-.0074.5543-.0152 1.11.0006 1.664a22.69 22.69 0 0 0 .4655 2.847c.2932 1.902 3.184 1.094 2.893-.7975zm-7.16.34c-.0548-3.709 1.254-7.461.7625-11.19-.2487-1.887-3.252-1.911-3 0 .4912 3.725-.8174 7.467-.7625 11.19a1.501 1.501 0 0 0 3 0zm-3.51-15.3c.2941-.9753.1408-1.363-.7802-1.307-.9233.08491-1.901.915-2.22 1.885l-.4297 1.034c-.2941.9753.857 1.741 1.778 1.685 1.526-.5964 1.387-1.846 1.652-3.297z"/><path fill="#ea5a47" stroke-miterlimit="10" d="M36 7C19.98 7 7 19.98 7 36s12.98 29 29 29 29-12.98 29-29S52.02 7 36 7zM10.79 36.27c0-5.075 3.417-12.69 6.202-16.49l35.2 35.27c-3.805 2.784-10.93 5.904-16.01 5.904-12.7 0-25.39-11.98-25.39-24.68zm44.87 15.18L20.6 16.32c3.805-2.784 10.77-5.441 15.84-5.441 12.7 0 24.68 12.25 24.68 24.95 0 5.075-2.686 11.81-5.47 15.62z"/><path fill="#fcea2b" d="M42.26 38.41c.9522.9074 3.635-.05086 3.667-1.366-.101-2.951-1.172-7.742-1.25-10.69-.0609-2.306-.8246-3.727-3.114-4.646-1.622-.651-4.874-1.277-6.385-.2623-2.127 1.429-1.65 6.398-1.883 8.601 4.596.8426 7.325 6.671 8.964 8.368zm-3.38-20.6a1.501 1.501 0 0 0 0-3 1.501 1.501 0 0 0 0 3z"/><g stroke="#000" stroke-linecap="round" stroke-linejoin="round" stroke-width="2"><circle cx="36" cy="36" r="30" fill="none"/><path fill="none" d="M55.66 51.44A24.99 24.99 0 0 0 20.6 16.31zM16.99 19.77a24.99 24.99 0 0 0 35.2 35.27z"/><circle cx="26.75" cy="40.25" r=".75"/><circle cx="25.25" cy="45.5" r=".75"/><circle cx="27.5" cy="52.25" r=".75"/><circle cx="20.75" cy="51.5" r=".75"/><circle cx="20.75" cy="46.25" r=".75"/><path fill="none" d="M35.04 37.83l-.7718 14.38s0 1.789.5964 1.789 1.193 0 1.789-1.193c.4051-.8102 1.085-7.394 1.48-11.54M40.26 43.24c.3452 4.234 1.164 9.57 1.164 9.57 0 1.59 2.386 1.59 2.386 0l-.2833-6.092M32.11 35.57L31 39"/><circle cx="39.04" cy="16.54" r="1.789" fill="none"/><path fill="none" d="M45 37.09s0-8.946-.5964-12.52-2.982-3.578-2.982-3.578h-4.772c-1.661-.03537-3.017 1.321-2.982 2.982 0 0-.2956 2.3-.4356 4.642m9.158 9.024l-.8574-12.54M36.15 31.74l.307-6.63"/></g></svg>