<svg xmlns="http://www.w3.org/2000/svg" role="img" viewBox="3.63 3.76 64.48 64.36"><title>1F6B1.svg</title><circle cx="36" cy="36" r="26" fill="#fff"/><path fill="#ea5a47" stroke-miterlimit="10" d="M36 7C19.98 7 7 19.98 7 36s12.98 29 29 29 29-12.98 29-29S52.02 7 36 7zM10.79 36.27c0-5.075 3.417-12.69 6.202-16.49l35.2 35.27c-3.805 2.784-10.93 5.904-16.01 5.904-12.7 0-25.39-11.98-25.39-24.68zm44.87 15.18L20.6 16.32c3.805-2.784 10.77-5.441 15.84-5.441 12.7 0 24.68 12.25 24.68 24.95 0 5.075-2.686 11.81-5.47 15.62z"/><path fill="#92d3f5" d="M21.49 46.64a7.587 7.587 0 0 1 2.571-.3889 10.73 10.73 0 0 1 2.387.9613c1.516.5435 2.555-.1053 4.039-.3428 1.901-.3044 1.094-3.196-.7975-2.893-.7938.1271-1.547.6219-2.36.3722-.6923-.2127-1.286-.6967-2.001-.8938a9.103 9.103 0 0 0-4.638.2921c-1.872.4693-1.079 3.363.7975 2.893z"/><path fill="#d0cfce" d="M45.61 31.29c.0145-.9879.2071-2.161-.7683-2.775-3.077 2.065-14.22-2.928-11.86-.07128 4.152 3.275 6.358 10.11 12.63 6.967zm5.7685.8755l1.5364-.85a5.2828 5.2828 0 0 1 1.3582-.728l-1.694-.6893q-.1713-1.0542-.2054-.1515-.055.4191-.1122.838c-.0545.4077-.111.8152-.1606 1.2236a26.5212 26.5212 0 0 0-.2085 2.8965l2.9464-.3988c-.53-1.3262-2.0882-3.3641-3.7255-3.1935-1.9011.1982-1.9214 3.2 0 3q-.479-.2652-.174-.031.2185.189.439.3757a1.88 1.88 0 0 1 .5677.6463 1.5078 1.5078 0 0 0 2.9464-.3987 29.5 29.5 0 0 1 .2893-3.5219c.1158-.8787.49-1.985-.0121-2.7989a1.5636 1.5636 0 0 0-1.694-.6893 5.8318 5.8318 0 0 0-1.6908.818l-1.92 1.0623c-1.69.9348-.1782 3.5266 1.5142 2.59zM41.2077 20.5386c-1.0992-.0034-2.251-.4694-3.3808-.5375-1.371-.0828-2.7451-.1305-4.1171-.1957-1.93-.0917-1.9252 2.9085 0 3 1.37.0651 2.7488.0946 4.1171.1957 1.1525.0851 2.2276.5339 3.3808.5375a1.5009 1.5009 0 0 0 0-3z"/><path fill="#d0cfce" d="M42.04 23.25c2.104-.1026 4.191-.3221 6.274-.6309a1.512 1.512 0 0 0 1.048-1.845 1.537 1.537 0 0 0-1.845-1.048c-1.817.2693-3.643.4344-5.477.5238-1.922.0937-1.933 3.094 0 3z"/><path fill="#92d3f5" fill-rule="evenodd" stroke="#92d3f5" stroke-linecap="round" stroke-linejoin="round" d="M21.08 45.98h8.634v7.024H21.08z"/><path fill="#d0cfce" d="M28 37c-.7533-1.756 3.063-2.084 2.289-2.498 1.005 1.046-.01809-2.755-1.884-1.806-.7639-.2756-4.488 2.551-4.405 4.304z"/><g fill="none" stroke="#000" stroke-width="2"><path stroke-miterlimit="10" d="M49.22 32.9v-3.664a3.753 3.753 0 0 0 3.264-1.973h3.264v8.901h-3.264a3.753 3.753 0 0 0-3.264-1.973v-3.664M38.91 19.92s-3.15-.6766-4.747-.89c-2.374-.2971-2.374 1.483-2.374 2.67s.89 2.077 2.67 1.78a10.0971 10.0971 0 0 1 2.967-.2967 3.46926 3.46926 0 0 1 2.374.5934v1.484h1.78v-1.484c.6928-.4796 1.537-.6905 2.374-.5934a10.0934 10.0934 0 0 1 2.967.2967c1.78.2967 2.67-.5934 2.67-1.78s0-2.967-2.374-2.67c-1.597.2134-4.747.89-4.747.89z"/><path stroke-linecap="round" stroke-linejoin="round" d="M25.53 53h-4.45L19 39.65h12.76l-.93 5.98L29.68 53h-4.45"/><circle cx="36" cy="36" r="30" stroke-linecap="round" stroke-linejoin="round"/><path stroke-linecap="round" stroke-linejoin="round" d="M55.66 51.44A24.99 24.99 0 0 0 20.6 16.31zM16.99 19.77a24.99 24.99 0 0 0 35.2 35.27z"/><path stroke-linecap="round" stroke-linejoin="round" d="M32.5 28H46v8l-5.136.165M28.87 31.86c-2.468.1054-5.076 2.69-4.869 5.139h4c-.5578-.2505.7514-2.916 3.264-2.666"/></g></svg>