<svg xmlns="http://www.w3.org/2000/svg" role="img" viewBox="24.09 5.71 23.70 60.45"><title>1F6B6-1F3FB-200D-2640-FE0F.svg</title><g fill="#fadcbc"><circle cx="34.37" cy="10.73" r="3"/><path d="M31.19 19.48l-4.872 42.77 1.689 2.021 2.016-2.205 3.646-15.09 8.79 14.17 3.414-.8954-6.826-14.91-.7835-26.22-5.001-2.252z"/></g><g fill="none" stroke="#000" stroke-width="2"><ellipse cx="34.44" cy="10.67" stroke-miterlimit="10" rx="2.702" ry="2.719"/><path stroke-linecap="round" stroke-linejoin="round" stroke-miterlimit="10" d="M26.32 62.25c-.09673.992.5172 1.804 1.365 1.804.8479 0 1.756-.7868 2.016-1.749l4.941-18.23c.2604-.9619.9394-2.417 1.508-3.233l1.981-2.845c.5682-.8159.9939-2.299.9464-3.295l-.4498-9.289-.2873-4.827c-.1187-1.99-1.837-3.656-3.819-3.656h-.04666c-1.982 0-3.783 1.659-4.005 3.64l-.4987 4.506z"/><path stroke-linecap="round" stroke-linejoin="round" stroke-miterlimit="10" d="M38.2 37.9l1.64 10.44c.1539.985.7019 2.488 1.216 3.339l4.345 7.196c.5137.8514.3272 1.957-.416 2.455s-1.832.2505-2.421-.5522l-4.745-6.466c-.5884-.8027-1.364-2.219-1.724-3.147l-1.984-5.123M34.62 21.46l.04927 5.664c.0087.9969-.1768 2.604-.4117 3.573l-2.562 10.55"/><path stroke-linecap="round" stroke-linejoin="round" d="M37.86 8.885s.5706-.3283.9522-.0639c.4492.31.8462 1.582 1.39 2.1a3.363 3.363 0 0 0 1.958.94"/></g></svg>