<svg xmlns="http://www.w3.org/2000/svg" role="img" viewBox="8.41 19.91 56.55 38.30"><title>1F6B2.svg</title><g id="line"><g><path d="M31 45c-.5209-.0314-.9686.3653-1 .8862-.0023.0379-.0023.0759 0 .1138 0 5.081-4.119 9.2-9.2 9.2-5.081 0-9.2-4.119-9.2-9.2 0-5.081 4.119-9.2 9.2-9.2h0l.2-2h-.2c-6.1856 0-11.2 5.0144-11.2 11.2s5.0144 11.2 11.2 11.2 11.2-5.0144 11.2-11.2c.0314-.5209-.3653-.9686-.8862-1-.0379-.0023-.0759-.0023-.1138 0zM52.8 34.8c-1.3293.0205-2.6465.2569-3.9.7l.9 1.8c.9703-.3117 1.981-.4802 3-.5 5.0808-.0477 9.2383 4.0324 9.286 9.1132s-4.0324 9.2383-9.1132 9.286c-4.9198.0462-9.0051-3.7865-9.2728-8.6992l-2-.1c.2461 6.1555 5.4356 10.9461 11.5912 10.7 6.1555-.2461 10.9461-5.4356 10.7-11.5912-.2399-6-5.1865-10.7334-11.1912-10.7088z"/><path d="m48,38.2l-.9-1.8c-2.8634,1.7037-4.8094,4.6043-5.3,7.9l2,.1c.478-2.5604,1.9995-4.8065,4.2-6.2Z"/><path fill="none" stroke="#000" stroke-linecap="round" stroke-linejoin="round" stroke-width="2" d="M23 22L27 22M42 25.7L48 25.7"/></g><g fill="none" stroke="#000" stroke-linecap="round" stroke-linejoin="round" stroke-width="2"><path d="M21.1 46L22.8 24.6M36 45L23 30M45 30L53 46M23 30L44 30M46 28.4L36 45M36 45L53 46"/></g></g><g id="color" fill="#fff"><circle cx="53.262" cy="45.918" r="8.563"/><circle cx="20.806" cy="46.131" r="8.563"/><path d="M30.912 33.246L38.536 33.377 35.776 39.556 30.912 33.246z"/></g><g id="color-foreground" fill="none" stroke="#ea5a47" stroke-linecap="round" stroke-linejoin="round" stroke-width="2.1"><path d="M21.1 46L22.8 24.6M36 45L23 30M45 30L53 46M23 30L44 30M46 28.4L36 45M36 45L53 46"/></g></svg>