<svg xmlns="http://www.w3.org/2000/svg" role="img" viewBox="8.31 8.31 55.25 55.13"><title>1F6B8.svg</title><path fill="#fcea2b" d="M59.474 32.4733a5.0709 5.0709 0 0 1 0 7.1632l-20.047 20.047a5.0709 5.0709 0 0 1-7.1632 0l-20.0469-20.047a5.0709 5.0709 0 0 1 0-7.1632l20.0469-20.047a5.071 5.071 0 0 1 7.1633 0l20.0469 20.047"/><path d="M59.0351 32.456a4.9434 4.9434 0 0 1 0 6.9833L39.4916 58.9828a4.9435 4.9435 0 0 1-6.9833 0L12.9649 39.4393a4.9434 4.9434 0 0 1 0-6.9833l19.5434-19.5435a4.9437 4.9437 0 0 1 6.9834 0L59.0351 32.456zm1.4738-1.4737L40.9654 11.4388a7.0222 7.0222 0 0 0-9.9308 0L11.4911 30.9823a7.0222 7.0222 0 0 0 0 9.9307l19.5436 19.5436a7.0221 7.0221 0 0 0 9.9307 0L60.5089 40.913a7.0222 7.0222 0 0 0 0-9.9307z"/><circle cx="29.821" cy="25.573" r="2.31" fill="none" stroke="#000" stroke-miterlimit="10" stroke-width="2"/><path fill="none" stroke="#000" stroke-linecap="round" stroke-linejoin="round" stroke-width="2" d="M25.8191 46.3319l3.4833-7.0075c-1.1148-2.5068-.9061-7.9142 0-8.8008.231-.2994 1.5794-1.4679 1.8826 2.0967l.8543 5.3663m.8767 8.4344l-.952-5.095m-3.442-8.082l-3.058 2.893"/><circle cx="42.179" cy="25.573" r="2.31" fill="none" stroke="#000" stroke-miterlimit="10" stroke-width="2"/><path fill="none" stroke="#000" stroke-linecap="round" stroke-linejoin="round" stroke-width="2" d="M38.178 46.3319l3.4833-7.0075c-1.1148-2.5068-.9061-7.9142 0-8.8008.231-.2994 1.5794-1.4679 1.8826 2.0967l.8543 5.3663m.8768 8.4344l-.952-5.095m-3.442-8.082l-3.058 2.893"/></svg>