<svg xmlns="http://www.w3.org/2000/svg" role="img" viewBox="2.72 11.72 66.43 58.68"><title>1F6B5-1F3FD.svg</title><path fill="#d0cfce" d="M40 26.095L56 16l12 13.46V69H4V29.46l14-8.412 10 6.73 12-1.683z"/><circle cx="19.1" cy="57" r="10.2" fill="#fff"/><circle cx="51.1" cy="57" r="10.2" fill="#fff"/><g fill="#c19a65"><circle cx="33.4" cy="16.1" r="3"/><path d="M33.4 26.9l2-2.9 3.8.1 6.3 14.1-2.1 3.8-2.5 2.5-3.1 11.2-3.4 6.7-2.4-2 .9-7.1-3.8-7 .1-3.3 8-5-2.8-7.5"/></g><g fill="none" stroke="#000" stroke-width="2"><circle cx="33.4" cy="17.1" r="3" stroke-miterlimit="10"/><path stroke-linecap="round" stroke-linejoin="round" d="M25.3 34.1l4.3-2.9a12.3989 12.3989 0 0 0 2.8-2.8l1.9-2.7a4.1348 4.1348 0 0 1 3.1-1.6 3.2054 3.2054 0 0 1 2.7 1.9l4.6 10.5a4.9741 4.9741 0 0 1-.1 3.6l-.1.2a6.1632 6.1632 0 0 1-2.8 2.5l-5.5 2.4a2.03 2.03 0 0 0-1.1 2.6l2.6 6.4A2.3967 2.3967 0 0 1 37 57a1.8149 1.8149 0 0 1-2.5-.8L30.1 48a9.0731 9.0731 0 0 1-.9-3.4 3.8459 3.8459 0 0 1 1.7-2.7l4.6-2.9a2.9209 2.9209 0 0 0 1.2-3l-1.5-6"/><circle cx="19.1" cy="58" r="10.2" stroke-miterlimit="10"/><circle cx="51.1" cy="58" r="10.2" stroke-miterlimit="10"/><path stroke-linecap="round" stroke-linejoin="round" d="M19.2 58l2-24H25"/><path stroke-miterlimit="10" d="M37 57l-1 3.1a2.791 2.791 0 0 1-2.4 1.9 1.7018 1.7018 0 0 1-1.6-2l.9-6.7m8.5-10.4l-3.6 11.5"/><path stroke-linecap="round" stroke-miterlimit="10" d="M5 29.46l10.3624-7.2646a3.2617 3.2617 0 0 1 3.3291-.0809L25 26.0952m19-2.5238l10.3085-6.5042a2.3261 2.3261 0 0 1 2.9571.4814L67 29.46"/></g></svg>