<svg xmlns="http://www.w3.org/2000/svg" role="img" viewBox="8.84 8.96 54.08 53.95"><title>1F6BB.svg</title><path fill="#61b2e4" stroke-linecap="round" stroke-linejoin="round" stroke-miterlimit="10" stroke-width="2" d="M59.92 61h-48c-.5523 0-1-.4477-1-1V12c0-.5523.4477-1 1-1h48c.5523 0 1 .4477 1 1v48c0 .5523-.4477 1-1 1z"/><path fill="#fff" d="M52.9 40.76l-.6409-15.31c-.0917-1.839-1.369-3.742-3.169-3.759l-6.159-.1083c-1.8.0175-3.688 1.917-3.78 3.756l-.6511 15.42c-.0047.1041.4262.8047.3844.8997l2.713-2.115-.7458 17.69c-.026.252.2117.5213.3655.72.0304.0387.0737.0644.1216.0721.1712 0 .5256-.3422.5888-.9004l2.034-18.03 3.271.0264 2.319 18c.0632.5591.4168.9004.588.9004.0479-.0077.0912-.0333.1216-.072.1539-.1987.2257-.451.2-.7031l-.5709-17.71 2.482 2.026c-.058-.1074.5342-.6882.5285-.8108z"/><circle cx="45.68" cy="16.01" r="2.375" fill="#fff"/><path fill="#fff" d="M33.5 40.76l-.6593-15.5c-.0917-1.839-1.111-3.489-2.911-3.507l-6.537-.1605c-1.8.0175-3.51 1.617-3.601 3.456l-.6906 15.71c-.0047.1041.3547.7432.3129.8381l1.976-.8318-.2002 16.52c-.0261.252.4771.4648.6308.6635.0303.0387.0737.0644.1216.0721.1711 0 .5255-.3422.5886-.9004l2.033-18.03h3.555l1.648 18.14c.0632.559.802.7859.9731.7859a.19345.19345 0 0 0 .1216-.072c.1539-.1987.8316-.4618.8059-.7139l-.1949-16.52 1.684.9198c-.058-.1074.3499-.7567.3443-.8792z"/><circle cx="26.35" cy="16.01" r="2.375" fill="#fff"/><g fill="none" stroke="#000" stroke-width="2"><path stroke-linecap="round" stroke-linejoin="round" stroke-miterlimit="10" d="M59.92 61h-48c-.5523 0-1-.4477-1-1V12c0-.5523.4477-1 1-1h48c.5523 0 1 .4477 1 1v48c0 .5523-.4477 1-1 1z"/><circle cx="45.68" cy="16.01" r="2.375" stroke-miterlimit="10"/><path stroke-linecap="round" stroke-linejoin="round" d="M49.7 26.36l1.52 30.4c.044.88-.46 1.6-1.12 1.6-.7812-.1321-1.36-.7976-1.383-1.59l-2.031-17.62c-.1008-.8744-.5432-1.59-.9832-1.59s-.88.7152-.9832 1.59l-2.034 17.62c-.0229.792-.602 1.458-1.383 1.59-.66 0-1.164-.72-1.12-1.6l1.52-30.4"/><circle cx="26.36" cy="16.01" r="2.375" stroke-miterlimit="10"/><path stroke-linecap="round" stroke-linejoin="round" d="M30.33 26.67c-1.882 2.826-.5416 4.886-.0253 6.4.3669 1.076.6043 3.36.718 4.491.4803 4.781.802 19.2.802 19.2.044.88-.46 1.6-1.12 1.6-.7812-.1321-1.36-.7976-1.383-1.59l-2.031-17.62c-.1008-.8744-.5432-1.59-.9832-1.59s-.88.7152-.9832 1.59l-2.034 17.62c-.0229.792-.602 1.458-1.383 1.59-.66 0-1.164-.72-1.12-1.6 0 0 .4181-14.27.8585-19.01.1095-1.178.2965-3.559.6615-4.684.4939-1.522 1.933-3.791.0229-6.4M38.5 40.76l.6336-15.2c.1155-2.224 1.94-3.975 4.166-4h4.8c2.227.0249 4.051 1.776 4.166 4l.6336 15.2"/><path stroke-linecap="round" stroke-linejoin="round" d="M19.1 40.76l.6336-15.2c.1155-2.224 1.94-3.975 4.166-4h4.8c2.227.0249 4.051 1.776 4.166 4l.6336 15.2"/></g></svg>