<svg xmlns="http://www.w3.org/2000/svg" role="img" viewBox="9.34 9.72 47.44 53.56"><title>1F6C3.svg</title><path fill="#92d3f5" d="M16.274 61.8992s-1.8-13.9 10.2-13.9c3.2 2.1 5.9 3.6 9 3.6h-.1c3.1 0 6.3-1.6 9.5-3.7 11.6 0 9.6 13.9 9.8 14"/><path fill="#61b2e4" d="M44.8437 47.2852a18.2739 18.2739 0 0 1-8.87 3.514c13.1.4 13.1 7.1 13.8 11.1h5.1s1.97-14.614-10.03-14.614z"/><path fill="#92d3f5" d="M50.074 19.4992c1.2.3.4 2.5-.4 3.5l-2.2 2.7h-.1a8.6253 8.6253 0 0 0-1.9-2l-.6-.4a15.38 15.38 0 0 0 1.3-1.2h-21.1a9.8318 9.8318 0 0 0 1.5 1.2l-.8.5a8.2919 8.2919 0 0 0-1.8 1.8l-.1-.1-2-2.4c-.8-1-1.6-3.2-.4-3.5 5.7-1.5 6-7.9 14.3-7.9s8.6 6.3 14.3 7.8zm-14.2.4c2.1 0 2.5-3.9 2.5-3.9a4.3093 4.3093 0 0 0-5-.1c-.1 0 .3 4 2.5 4z"/><path fill="#fcea2b" d="M35.874 19.8992c-2.1 0-2.5-3.9-2.5-3.9a4.01 4.01 0 0 1 5 .1c0-.1-.4 3.8-2.5 3.8z"/><path fill="#61b2e4" d="M42.674 13.7992s.9 8.2-2.6 8.2l5.3.3 1.7 3s3.7-1.9 3.6-5.2c.1 0-7.2-4.2-8-6.3z"/><path fill="#3f3f3f" d="M33.774 25.5992a16.1734 16.1734 0 0 1-7.2-2.4c-.6-.4-1-.8-1.5-1.2h21.1a4.8944 4.8944 0 0 1-1.3 1.2 11.5838 11.5838 0 0 1-3.7 1.8 18.3268 18.3268 0 0 1-7.4.6z"/><g fill="#92d3f5"><path d="M44.474 48.0992l-3.7 8.8-2.6-2.7-2.5-2.6h.1c2.9-.1 5.6-1.5 8.7-3.5zm-8.9 3.5l-2.6 2.7-2.6 2.6-3.6-8.9c3.1 2.1 5.8 3.5 8.8 3.6z"/></g><path fill="#fcea2b" d="M47.03 48.1689L41.5472 62h5.4768l5.1686-11.6454s-2.7675-2.6976-5.1628-2.186"/><g><path fill="#6a462f" d="M24.681 47.797h7.507V61.56h-7.507z"/><path fill="#a57939" d="M11.335 47.797h13.346V61.56H11.335z"/></g><g><path fill="#fcea2b" d="M46.874 33.2992l.1-.1c-.7 7-5.5 12.5-11.3 12.5-5.9 0-10.6-5.5-11.3-12.6a12.5615 12.5615 0 0 1 9.3-7.4 18.3268 18.3268 0 0 0 7.4-.6c3.1.3 5.8 8.2 5.8 8.2zm-5.1-3.2a2 2 0 1 0-2 2 2.0059 2.0059 0 0 0 2-2zm-8 0a2 2 0 1 0-2 2 2.0059 2.0059 0 0 0 2-2z"/></g><g fill="#f4aa41"><path d="M46.974 33.1992l-.1.1s-2.7-8-5.8-8.2a10.6431 10.6431 0 0 0 3.7-1.8l.7.5a8.6253 8.6253 0 0 1 1.9 2c1.2 1.7 2 4.3-.4 7.4zm-22.5-.2a.774.774 0 0 0-.1.3c-2.6-3.3-1.6-6-.3-7.7a8.6414 8.6414 0 0 1 1.8-1.8l.8-.6a16.1734 16.1734 0 0 0 7.2 2.4 12.5729 12.5729 0 0 0-9.4 7.4z"/></g><g><path fill="none" stroke="#000" stroke-linecap="round" stroke-linejoin="round" stroke-width="2" d="M46.99 48.521l-5.216 12.45m9.837-10.29l-4.549 10.316"/><g fill="none" stroke="#000" stroke-linecap="round" stroke-linejoin="round" stroke-width="2"><path d="M32.08 50.86a11.22 11.22 0 0 0 3.59.74h.1c3 0 5.6-1.4 8.7-3.5.1 0 .1-.1.2-.1 12 0 10 13 10 13"/><path d="M32.053 55.349l1.021-1.15 2.5-2.6m2.6 2.6l-2.6-2.6m8.9-3.6v.1l-3.7 8.8-2.6-2.7"/></g><path d="M35.774 40.0992a6.9211 6.9211 0 0 1-3.4-.9.9618.9618 0 0 1 .9-1.7 5.1542 5.1542 0 0 0 5.1 0 .9618.9618 0 1 1 .9 1.7 7.5936 7.5936 0 0 1-3.5.9zm6-10a2 2 0 1 1-2-2 2.0059 2.0059 0 0 1 2 2zm-8 0a2 2 0 1 1-2-2 2.0059 2.0059 0 0 1 2 2z"/><path d="M35.774 46.6992c-6.4 0-11.7-5.9-12.3-13.8l2-.2c.5 6.7 5 11.9 10.3 11.9s9.7-5 10.3-11.7c0-.5.1-1 .1-1.5h2a9.702 9.702 0 0 1-.1 1.7c-.7 7.8-6 13.6-12.3 13.6z"/><path d="M24.374 34.2992a.91.91 0 0 1-.8-.4 7.2313 7.2313 0 0 1-1.8-5.7 8.31 8.31 0 0 1 3.4-5.2l.7-.5a1 1 0 0 1 1.2 1.6l-.8.6a6.1633 6.1633 0 0 0-2.6 3.9 4.3671 4.3671 0 0 0 .5 2.7 13.1189 13.1189 0 0 1 9.5-6.6.9033.9033 0 0 1 1.1.9.9449.9449 0 0 1-.9 1.1 10.8536 10.8536 0 0 0-8.7 7 .8711.8711 0 0 1-.8.6z"/><path d="M36.074 26.7992c-4.7 0-9.2-1.5-11.7-4a.9128.9128 0 0 1-.2-1.1.961.961 0 0 1 .9-.6h21.1a.961.961 0 0 1 .9.6 1.073 1.073 0 0 1-.1 1.1c-2 2.4-5.7 3.9-10 4zm-7.8-3.7a17.89 17.89 0 0 0 8.6 1.7 13.8357 13.8357 0 0 0 6.5-1.7z"/><path d="M47.474 26.7992a1.4213 1.4213 0 0 1-.6-.2.972.972 0 0 1-.1-1.4l2.2-2.7a4.0613 4.0613 0 0 0 .8-1.9c-2.6-.7-4.1-2.3-5.6-3.8-2-2-3.9-4-8.3-4-4.5 0-6.3 1.9-8.3 4-1.5 1.5-3 3.1-5.6 3.8a3.7014 3.7014 0 0 0 .8 1.9l2 2.4a.9925.9925 0 0 1-1.5 1.3l-2-2.4c-.7-.8-1.6-2.6-1.2-3.9a1.7644 1.7644 0 0 1 1.3-1.2 10.9076 10.9076 0 0 0 4.8-3.3c2.1-2.1 4.4-4.6 9.7-4.6s7.7 2.4 9.7 4.6c1.4 1.4 2.7 2.8 4.8 3.3a1.9517 1.9517 0 0 1 1.3 1.2c.4 1.3-.5 3.1-1.2 3.9l-2.2 2.7a1.9093 1.9093 0 0 1-.8.3z"/><path d="M46.974 34.2992h-.2a.9689.9689 0 0 1-.8-.7c-1-3-3.3-7.4-4.9-7.5a.9033.9033 0 0 1-.9-1.1.9547.9547 0 0 1 1.1-.9c2.7.2 4.8 4.3 5.9 7a4.418 4.418 0 0 0 .4-2.5 6.1633 6.1633 0 0 0-2.6-3.9l-.7-.6a.9925.9925 0 0 1 1.3-1.5l.7.5a7.9473 7.9473 0 0 1 3.3 5.2 7.2313 7.2313 0 0 1-1.8 5.7 1.1355 1.1355 0 0 1-.8.3zm-11.1-13.4c-2.9 0-3.5-4.3-3.5-4.8a1.0858 1.0858 0 0 1 .4-.9c2-1.5 5-1.2 6.3.1a1.1355 1.1355 0 0 1 .3.8c-.1.5-.6 4.8-3.5 4.8zm0-2c.8 0 1.2-1.5 1.4-2.4a3.3974 3.3974 0 0 0-2.8 0c.2 1 .7 2.4 1.4 2.4zm3.9 9.2a2 2 0 1 1-2 2 2.0059 2.0059 0 0 1 2-2zm-8 0a2 2 0 1 1-2 2 2.0059 2.0059 0 0 1 2-2z"/><g fill="none" stroke="#000" stroke-linecap="round" stroke-linejoin="round" stroke-width="2"><path d="M15.797 47.834h-4.319v13.439h4.807"/><path d="M14.937 47.834h13.789v13.439H14.937z"/><path d="M24.681 47.819l7.423.022-.119 13.439-2.36-.022m-.083.015h-4.027"/><path d="M18.4246 47.6005V45.908a1.7563 1.7563 0 0 1 1.9662-1.6926h2.6215"/><path d="M25.0977 47.6005V45.908a1.7563 1.7563 0 0 0-1.9662-1.6926H20.51"/></g></g></svg>