<svg xmlns="http://www.w3.org/2000/svg" role="img" viewBox="8.96 12.46 53.95 49.58"><title>1F6D7.svg</title><g id="color"><path fill="none" stroke="#d0cfce" stroke-linecap="round" stroke-linejoin="round" stroke-width="2" d="M29.525 60.042L44.562 60.045"/><path fill="none" stroke="#fff" stroke-linecap="round" stroke-linejoin="round" stroke-width="2" d="M34.669 60.06L37.27 60.06"/><path fill="#d0cfce" d="M20.179 27.62H51.821V59.168H20.179z"/><path fill="#61b2e4" d="m33.8625,22.6494h-10.4425c-.5523.0001-1.0001-.4475-1.0002-.9998,0-.2122.0674-.4189.1926-.5902l5.2207-7.1553c.359-.446,1.0116-.5166,1.4576-.1576.058.0467.1109.0995.1576.1576l5.2217,7.1559c.3258.4459.2285,1.0716-.2174,1.3974-.1713.1252-.378.1926-.5902.1926v-.0006Z"/><path fill="#ea5a47" d="m43.8547,22.6494h0c-.3192,0-.6193-.1522-.8077-.41l-5.2207-7.1554c-.3258-.4459-.2285-1.0716.2174-1.3974.1713-.1252.3781-.1927.5903-.1926h10.4423c.5523-.0002,1.0001.4474,1.0003.9997,0,.2122-.0674.419-.1926.5903l-5.2217,7.1553c-.1883.2578-.4884.4101-.8076.4101Z"/><path fill="#9b9b9a" d="M20.1791 27.62h10.3492v30.4319c0 .5328-.4598.9647-1.0269.9647h-9.3223v-31.3966h0zM41.4717 27.62h10.3492v31.4719h-9.3223c-.5671 0-1.0269-.4329-1.0269-.967h0v-30.5049h0z"/><circle cx="35.87" cy="42.228" r="2" fill="#fff"/><path fill="#fff" d="m36.5078,59.8911l-1.4269-.0176c-.2795-.0114-.3347-.0176-1.0569-.0881-.5989.1585-.5061.4238-.4906.1472l.2041-5.375-1.62-.2012c-.5364-.0663-.923-.5468-.873-1.0849l.4766-5.1113c.1331-1.5,1.393-2.6481,2.8989-2.6416h2.665c1.5057-.0058,2.7654,1.1417,2.8997,2.6414l.4756,5.1113c.0496.5363-.334,1.0157-.8681,1.0849l-1.53.1963.2041,5.4522c-.7254-.1312-.3673-.0988-.9192-.0783-.0123.0005-.5867-.0176-.5989-.0176l-.4404-.0176Z"/></g><g id="line" fill="none" stroke="#000" stroke-linecap="round" stroke-linejoin="round" stroke-width="2"><path d="M28.641 14.494L23.42 21.649 33.862 21.649M49.076 14.494L38.634 14.494 43.855 21.649M20.179 60.042L20.179 27.62 51.821 27.62 51.821 60.042M34.5319 60.0422l.24-6.293M37.231 53.7492l.2361 6.293"/><path d="m39.6643,53.3639l-.4757-5.111c-.0915-.9829-.9163-1.7345-1.9034-1.7345h-2.6652c-.9871,0-1.8119.7516-1.9034,1.7345l-.4758,5.111"/><circle cx="35.905" cy="42.193" r="2.035"/><path d="M29.525 31.34L29.525 60.042 11 60.042M42.471 31.34L42.471 60.042 60.995 60.042"/></g></svg>