<svg xmlns="http://www.w3.org/2000/svg" role="img" viewBox="5.19 10.31 61.62 50.12"><title>1F6DD.svg</title><g id="color"><path fill="#fff" d="M17.419 28.499L9.931 52.603 19.815 52.539 25.186 34.359 21.746 27.031 17.419 28.499z"/><path fill="#d22f27" d="m29.2434,22.9412l1.7632-6.88.0151-.07c.2801-1.3514,1.154-2.5048,2.3793-3.14,1.9853-.88,4.13.52,4.8041,3.14l1.8186,7.09,13.8743,22.58c1.3552,2.4993,3.919,4.1076,6.759,4.24h2.3641c1.018.1605,1.7273,1.0966,1.6065,2.12l-.0753,4.7872c0,1.1046-.6589,2.4829-1.7635,2.4829h-2.8241l-.0793-4.7948h-.5164c-3.7218,0-7.1777-1.9292-9.1309-5.0973l-13.791-22.3684h-9.2884l1.1244-4.373.9603.2834Z"/><path fill="#d0cfce" d="m42.0947,48.9733l-3.1581-3.7356-9.9992-16.2734v-1.9335h7.51s9.4916,13.5437,12.46,18.3579c1.9184,3.1115,2.9723,5.03,4.7426,6.25,1.0031.8894,1.9461,1.8442,2.823,2.8582h3.4129v4.7908h-12.4068l2.4471-2.9847v-4.402c0-1.1046-.8954-2-2-2l-5.8315-.9277Z"/><path fill="#ea5a47" d="m21.7457,27.0308h-8.2518l2.8112-10.97.0152-.07c.2801-1.3514,1.154-2.5048,2.3793-3.14,1.9853-.88,4.13.52,4.8041,3.14l1.8186,7.09,13.8743,22.58c1.3552,2.4993,3.919,4.1076,6.759,4.24h3.0448c.5113,0,.9258.4145.9258.9258v6.5502c0,.5113-.4145.9258-.9258.9258l-.9839.9329h-6.5551L21.7457,27.0308Z"/></g><g id="line" fill="none" stroke="#000" stroke-linecap="round" stroke-linejoin="round" stroke-width="2"><path d="M24.861 37.751L18.52 58.303M16.03 30.243L7.372 58.303M22.138 33.84L15.426 33.84M23.595 40.276L13.441 40.276M21.61 46.711L11.455 46.711M19.625 53.147L9.47 53.147M48.119 45.962L36.447 27.031 28.115 27.031M53.2028 58.3026h6.6826v-3.8061h-.5164c-1.9375.0002-3.8388-.5245-5.5019-1.5185"/><path d="m29.2434,22.9412l1.7632-6.88.0151-.07c.2801-1.3514,1.154-2.5048,2.3793-3.14,1.9853-.88,4.13.52,4.8041,3.14l1.8186,7.09,13.8743,22.58c1.3552,2.4993,3.919,4.1076,6.759,4.24h1.9706c1.1046,0,2,.8954,2,2v4.4018c0,1.1046-.8954,2-2,2h-2.7422"/><path d="m21.7457,27.0308h-8.2518l2.8112-10.97.0152-.07c.2801-1.3514,1.154-2.5048,2.3793-3.14,1.9853-.88,4.13.52,4.8041,3.14l1.8186,7.09,13.8743,22.58c1.3552,2.4993,3.919,4.1076,6.759,4.24h1.9706c1.1046,0,2,.8954,2,2v4.4018c0,1.1046-.8954,2-2,2h-6.9044l-19.2761-31.2718Z"/></g></svg>