<svg xmlns="http://www.w3.org/2000/svg" role="img" viewBox="2.08 23.71 67.21 26.34"><title>1F6EB.svg</title><path fill="#9b9b9a" d="M24 39.5L8.119 34.508l-4.437 1.375L13.3 45"/><path fill="#d0cfce" d="M42.5887 30.5l13.6352-4.637s13.4999-.2289 10.3294 3.2551c-3.1706 3.484-25.4249 12.196-32.0018 14.6509-6.5769 2.455-14.7118 3.7502-20.337 3.8592-4.9236.0953.5896-2.8912.5896-2.8912s6.2557-3.55 9.0249-4.7568l2.6347-1.9489"/><path fill="#9b9b9a" d="M48.2 35l-25.755-2.359-2.093 1.493L38 40.5"/><g fill="none" stroke="#000" stroke-linecap="round" stroke-linejoin="round" stroke-miterlimit="10" stroke-width="2"><path d="M19.974 39.139L7.542 34.736l-3.067 1.073 8.169 7.322m34.407-8.438l-24.606-2.052-2.093 1.493 16.754 5.979"/><path d="M43.174 31.3231l11.1493-4.4864c1.3266-.5338 2.7434-.7839 4.1727-.74 3.6995.1136 10.3898.6672 8.0573 3.2304-3.1706 3.4839-25.4249 12.196-32.0018 14.6509s-14.7118 3.7502-20.337 3.8591c-4.9236.0953.5896-2.8912.5896-2.8912s6.2557-3.55 9.0249-4.7568l2.7841-1.2132"/></g></svg>