<svg xmlns="http://www.w3.org/2000/svg" role="img" viewBox="9.87 15.00 52.13 41.88"><title>1F6E3.svg</title><g id="color"><path fill="#fff" d="M24.519 29.058L24.519 33.842 47.989 34.097 47.925 29.314 24.519 29.058z"/><path fill="#b1cc33" d="M11 35.474L11 54.974 32.154 35.474 11 35.474zM61 35.474L39.846 35.474 61 54.974 61 35.474"/><path fill="#5c9e31" d="M40.808 35.474L61 35.474 61 41.632 46.865 41.632 40.808 35.474zM32.154 35.474L11 35.474 11 41.632 25.808 41.632 32.154 35.474z"/><path fill="#d0cfce" d="M11.962 56L60.038 56 39.846 36.5 33.115 36.5 11.962 56z"/><path fill="#3f3f3f" d="M26.293 40.605L46.737 40.605 39.846 36.5 33.115 36.5 26.293 40.605z"/><path fill="#5c9e31" d="M26.674 19.053H45.447V27.263H26.674z"/></g><g id="line" fill="none" stroke="#000" stroke-linecap="round" stroke-linejoin="round" stroke-width="1.987"><path d="M11.962 54.974L33.115 35.475M60.038 54.974L39.846 35.475M23.115 39.485L23.115 17M49.365 39.485L49.365 17"/><rect width="19.712" height="9.123" x="26.385" y="18.483" rx="3.053" ry="3.053"/><path d="M30.986 48.794L29.269 54.523M33.654 39.827L32.274 44.431M41.552 48.794L43.269 54.523M38.885 39.827L40.265 44.431M11.962 35.475L60.038 35.475M23.115 18.483L28.741 18.483M23.115 27.605L28.741 27.605M43.308 18.483L48.933 18.483M43.308 27.605L48.933 27.605"/></g></svg>