<svg xmlns="http://www.w3.org/2000/svg" role="img" viewBox="21.90 13.65 29.82 44.07"><title>1F6E2.svg</title><path fill="#d0cfce" d="M25 17h24v39H25z"/><path fill="none" stroke="#3f3f3f" stroke-miterlimit="10" d="M42.3907 16.67c-1.4057 1.3429-1.7607 3.6963-1.7607 6.376 0 2.937.125 5.4819 1.7607 6.734m0 0c-1.4057 1.3429-1.7607 3.6963-1.7607 6.376 0 2.937.125 5.4819 1.7607 6.734m0 0c-1.4057 1.3429-1.7607 3.6963-1.7607 6.376 0 2.937.125 5.4819 1.7607 6.734"/><path fill="#3f3f3f" d="M41.002 17h8.118v39h-8.118z"/><g fill="none" stroke="#000" stroke-linecap="round" stroke-miterlimit="10" stroke-width="2"><path d="M50 16.67H23.78m0 13.11H50M23.78 42.89H50M23.78 56H50M38.445 15.485h4.37M23.78 16.67c1.4057 1.3429 1.7607 3.6963 1.7607 6.376 0 2.937-.125 5.4819-1.7607 6.734m0 0c1.4057 1.3429 1.7607 3.6963 1.7607 6.376 0 2.937-.125 5.4819-1.7607 6.734m0 0c1.4057 1.3429 1.7607 3.6963 1.7607 6.376 0 2.937-.125 5.4819-1.7607 6.734M50 16.67c-1.4057 1.3429-1.7607 3.6963-1.7607 6.376 0 2.937.125 5.4819 1.7607 6.734m0 0c-1.4057 1.3429-1.7607 3.6963-1.7607 6.376 0 2.937.125 5.4819 1.7607 6.734m0 0c-1.4057 1.3429-1.7607 3.6963-1.7607 6.376 0 2.937.125 5.4819 1.7607 6.734"/></g></svg>