<svg xmlns="http://www.w3.org/2000/svg" role="img" viewBox="6.73 12.73 59.41 36.53"><title>1F6EC.svg</title><path fill="#d0cfce" d="M43.1374 33.3l11.8622 4.1237c1.2058.4192 2.3293 1.0434 3.315 1.8546 2.8064 2.3099 8.0677 7.0692 4.5695 7.67-4.6427.7974-27.5488-6.0191-34.2446-8.128-6.6959-2.1089-13.9071-6.0905-18.4098-9.464-3.941-2.9528 2.243-1.9173 2.243-1.9173s7.116 1.0479 10.0418 1.7994l3.2761.0835"/><path fill="#9b9b9a" d="M23.5 29.423l-8.81-13.314-4.345-1.645L11.4 27.956M44 40.2L26.105 22.62l-2.57-.11L33.4 38.4"/><g><path fill="none" stroke="#000" stroke-linecap="round" stroke-linejoin="round" stroke-miterlimit="10" stroke-width="2" d="M20.382 26.398l-6.288-10.464-3.078-1.041 1.131 10.145m32.098 14.333L26.105 22.62l-2.57-.11 9.535 15.019"/><circle cx="32.453" cy="44.192" r="2"/><circle cx="37.772" cy="45.77" r="2"/><path fill="none" stroke="#000" stroke-linecap="round" stroke-linejoin="round" stroke-miterlimit="10" stroke-width="2" d="M43.2603 34.3292l11.4341 3.2856c1.4513.417 2.7953 1.1264 3.9549 2.0935 2.86 2.3851 7.6527 6.8448 4.2739 7.425-4.6427.7974-27.5488-6.0191-34.2447-8.128-6.6958-2.109-13.907-6.0905-18.4097-9.4641-3.941-2.9527 2.243-1.9172 2.243-1.9172s7.116 1.0479 10.0418 1.7994l2.9414.7554"/></g></svg>