<svg xmlns="http://www.w3.org/2000/svg" role="img" viewBox="9.90 15.77 57.46 40.84"><title>1F6FA.svg</title><path fill="#fff" d="M21.1281 18.9106s1.3542 23.9889 7.4804 25.4076l34.7581-1.2897.0645-22.1833s-.2579-1.5477-1.8056-1.8056-40.4974-.129-40.4974-.129z"/><path fill="#6a462f" d="M20.2992 19s-1.1617 18.5109 9.2929 25.5631H19S11.9026 37.4081 20.2992 19zM44 38h20.22v5.514H43V38h1z"/><circle cx="17.082" cy="49.563" r="5" fill="#d0cfce"/><circle cx="54.609" cy="49.563" r="5" fill="#d0cfce"/><g><path fill="none" stroke="#000" stroke-linecap="round" stroke-linejoin="round" stroke-width="2" d="M23.718 37h3.87l.801-7.425"/><path fill="none" stroke="#000" stroke-linecap="round" stroke-linejoin="round" stroke-width="2.087" d="M64.22 44.5631H19L17.4022 41.6A11.70194 11.70194 0 0 1 16 36.0458v-.7653a13.87654 13.87654 0 0 1 .6-4.4805L19 22c0-1.4712 1.5288-4 3-4l39.5557.3893c1.4712-.0003 2.664 1.1921 2.6643 2.6633v23.5105z"/><path fill="none" stroke="#000" stroke-linecap="round" stroke-linejoin="round" stroke-width="2" d="M45.798 48.471h-20.58"/><circle cx="17.082" cy="49.563" r="5" fill="none" stroke="#000" stroke-linecap="round" stroke-linejoin="round" stroke-width="2"/><circle cx="54.609" cy="49.563" r="5" fill="none" stroke="#000" stroke-linecap="round" stroke-linejoin="round" stroke-width="2"/><path fill="none" stroke="#000" stroke-linecap="round" stroke-linejoin="round" stroke-width="2.087" d="M43 19v25m1-9h20.219M44 38h20.22v5.514H43V38h1zm17-1l1-5"/><path fill="none" stroke="#000" stroke-linecap="round" stroke-linejoin="round" stroke-width="2" d="M20.2992 19s-1.1617 18.5109 9.2929 25.5631M25.642 37v2.785"/><path d="M60.072 44.5631c0-.5795.4697-1.0492 1.0492-1.0492h4.1967c.5794 0 1.0491.4698 1.0492 1.0492 0 .5795-.4697 1.0492-1.0492 1.0492h-4.1967c-.5794 0-1.0491-.4696-1.0492-1.049v-.0002z"/><path fill="none" stroke="#000" stroke-linecap="round" stroke-linejoin="round" stroke-width="2" d="M18 42.5319c-2.4819-1.901-4.8514.3691-5 .4681"/></g></svg>