<svg xmlns="http://www.w3.org/2000/svg" role="img" viewBox="10.49 12.36 52.65 49.27"><title>1F6FC.svg</title><g id="color"><path fill="#61b2e4" d="M42.9146,32.98a1,1,0,0,1,.8169,1.5784l-5.8132,8.2129H58.4365a1,1,0,0,0,.9795-.7979,9.8383,9.8383,0,0,0-1.6006-7.3291c-1.6728-2.2109-4.41-3.4668-8.1377-3.7343C35.1484,29.8662,35.37,15.09,35.3867,14.4609a1.0006,1.0006,0,0,0-1-1.0273H17.6651a1,1,0,0,0-.9991.9648c-.0049.13-.4853,13.11-2.27,17.3047a21.4372,21.4372,0,0,0-1.4893,6.8858v3.1826a1,1,0,0,0,1,1h8.301l6.6307-9.3692a1,1,0,0,1,.8168-.4221h4.5049a1,1,0,0,1,.816,1.5784l-5.8124,8.2129H31l6.6315-9.3692a1,1,0,0,1,.8166-.4221Z"/><path fill="#b399c8" d="M58.4434,46.4258H14.3574a2.8272,2.8272,0,0,1,0-5.6543h44.086a2.8272,2.8272,0,0,1,0,5.6543Z"/><path fill="#d0cfce" d="M18.11 51.919L13.564 45.393 55.769 45.393 51.349 51.919 42.915 51.871 40.34 50.184 29.418 50.184 27.059 51.919 18.11 51.919z"/><path fill="#3f3f3f" d="M57.4155,45.3934l-4.0437,5.8909a1.0981,1.0981,0,0,0,.2726,1.2548l2.7335,2.2347,4.8551-6.4156Z"/><path fill="#fcea2b" d="M22.416 60.709a6 6 0 1 1 6-6A6.0066 6.0066 0 0 1 22.416 60.709zM46.669 60.709a6 6 0 1 1 6-6A6.0066 6.0066 0 0 1 46.669 60.709z"/></g><g id="line" fill="none" stroke="#000" stroke-linecap="round" stroke-linejoin="round" stroke-width="2"><path d="M58.4243 38.5883c-.468-2.7025-2.34-6.2155-8.8182-6.6811C33.9172 30.78 34.3869 14.4334 34.3869 14.4334H17.6646s-.47 13.2463-2.3486 17.6617a20.2037 20.2037 0 0 0-1.4092 6.494M34.795 18.453L32.373 18.453M35.799 22.129L33.377 22.129M37.663 25.633L35.241 25.633M40.135 28.566L37.714 28.566M24.097 41.772L29.656 33.98M28.602 41.772L34.161 33.98M32.889 41.772L38.448 33.98M37.356 41.772L42.915 33.98M21.2191 41.7715H58.4438a1.8324 1.8324 0 0 1 1.827 1.8271h0a1.8324 1.8324 0 0 1-1.827 1.8271H14.3572A1.8325 1.8325 0 0 1 12.53 43.5986h0a1.8325 1.8325 0 0 1 1.8271-1.8271H16.416M29.089 49.188L40.34 49.188M56.869 45.426L61.233 48.528 57.117 54.091 54.275 51.748"/><circle cx="22.416" cy="54.709" r="5"/><circle cx="46.669" cy="54.709" r="5"/><path d="M16.486 47.82L17.2 48.869M52.917 47.82L52.204 48.869"/></g></svg>