<svg xmlns="http://www.w3.org/2000/svg" role="img" viewBox="7.16 21.66 56.81 36.69"><title>1F6F5.svg</title><path fill="#ea5a47" d="M39.222 36.977s-5.9629 17.859-15.6839-4.1085c-1.2636-2.8555-1.6273-7.5414-1.5838-6.9559L16.0542 38.049c-.3763.782-1.2391 1.4836-.4093 1.747 9.8168 3.1162 10.5619 9.6178 10.5214 11.7569-.0074.394 15.7484.3425 15.7974 0 .4531-3.1672 3.4645-17.5662 19.8563-6.2237.9994.6916-2.5161-11.2087-3.9506-11.2087 0 0-17.6354.4864-17.6354 1.1235l-1.012 1.733"/><circle cx="16.156" cy="50.893" r="5.476" fill="#d0cfce" stroke-miterlimit="10" stroke-width="2" transform="rotate(-1.335 16.175 50.952)"/><circle cx="51.398" cy="50.893" r="5.476" fill="#d0cfce" stroke-miterlimit="10" stroke-width="2"/><path fill="#a57939" stroke-linecap="round" stroke-linejoin="round" stroke-miterlimit="10" stroke-width="2" d="M40.436 29.516h18.426v5.67H40.436z"/><g fill="none" stroke="#000" stroke-miterlimit="10" stroke-width="2"><circle cx="16.156" cy="50.893" r="5.476" transform="rotate(-1.335 16.175 50.952)"/><circle cx="51.398" cy="50.893" r="5.476"/><path stroke-linecap="round" stroke-linejoin="round" d="M26.2624 50.7765a9.93538 9.93538 0 0 0-.1044-1.4022c-.2986-2.0411-1.2365-4.0074-2.8138-5.5781-3.8908-3.8746-10.1993-3.8746-14.0904.0001m52.4434 6.9802c0-5.4798-4.4421-9.9218-9.9218-9.9218-5.4795 0-9.9216 4.442-9.9216 9.9218M40.436 29.516h18.426v5.67H40.436z"/><path stroke-linecap="round" stroke-linejoin="round" d="M14.923 40.855l8.505-17.009h5.669m-2.835 27.047h15.592m-1.4176-15.7079s-5.6696 21.2609-17.0087 0m35.4348 0s4.2521 7.0871 2.8347 15.5914"/></g></svg>