<svg xmlns="http://www.w3.org/2000/svg" role="img" viewBox="2.72 7.22 66.43 61.93"><title>1F6F3.svg</title><path fill="none" d="M68.007 47.866L68 68H4V48.235"/><path fill="#92d3f5" d="M68 47v21H4V47h1c3 0 9 3 15 3s10-3 16-3 11 3 16 3 7-3 15-3h1z"/><path fill="#3f3f3f" d="M37.5 10.5v5h-4v-5c0-.5523.4477-1 1-1h2c.5523 0 1 .4477 1 1z"/><path fill="#fff" d="M48.9045 31h-26.809l5.9312-14.8705c.1516-.3801.5196-.6295.9288-.6295h13.089c.4092 0 .7772.2494.9288.6295L48.9045 31z"/><path fill="#3f3f3f" d="M55 34.7485c-8.6667 3.6647-7.2222 21.9045-10.1111 24.653-2.0799 1.9789-6.4133 3.4815-8.6667 4.1686-.2743.0825-.52.1557-.7222.2199-.2022-.0642-.4479-.1374-.7222-.2199-2.2534-.6871-6.5868-2.1897-8.6667-4.1686C23.2222 56.653 24.6667 38.4132 16 34.7485h39z"/><path fill="#ea5a47" d="M55 32v2.7485H16V32c0-.5523.4477-1 1-1h37c.5523 0 1 .4477 1 1z"/><g fill="none" stroke="#000" stroke-linecap="round" stroke-linejoin="round" stroke-width="2"><path d="M47.4115 49.3367C48.9598 49.7227 50.4799 50 52 50c5 0 7-3 15-3M5 47c3 0 9 3 15 3 1.292 0 2.4913-.1391 3.6378-.3574M37.5 10.5v5h-4v-5c0-.5523.4477-1 1-1h2c.5523 0 1 .4477 1 1zM48.9045 31h-26.809l5.9312-14.8705c.1516-.3801.5196-.6295.9288-.6295h13.089c.4092 0 .7772.2494.9288.6295L48.9045 31z"/><path d="M23.6377 49.6421c-1.0449-5.989-2.7008-12.806-7.6377-14.8936h39c-8.6667 3.6647-7.2222 21.9045-10.1111 24.653-2.0799 1.9789-6.4133 3.4815-8.6667 4.1686-.2743.0825-.52.1557-.7222.2199-.2022-.0642-.4479-.1374-.7222-.2199-2.2534-.6871-6.5868-2.1897-8.6667-4.1686-1.2433-1.1828-1.6839-5.2348-2.4734-9.7594M55 32v2.7485H16V32c0-.5523.4477-1 1-1h37c.5523 0 1 .4477 1 1zM35.5 63.79V32M30 21h11m-13 5h15"/></g></svg>