<svg xmlns="http://www.w3.org/2000/svg" role="img" viewBox="11.71 7.96 50.58 54.08"><title>1F6F4.svg</title><circle cx="18.825" cy="55.057" r="5" fill="#D0CFCE"/><circle cx="55.342" cy="55.057" r="5" fill="#D0CFCE"/><path fill="#EA5A47" d="M27.7376 52.0572h22.6042v.5833c0 1.6568-1.2226 3-2.7307 3H30.4683c-1.5081 0-2.7307-1.3432-2.7307-3v-.5833z"/><path fill="#D0CFCE" d="M28.1981 17.3755l-1.0583-.2316c-.5395-.118-.8812-.6511-.7631-1.1906l.4453-2.0352c.118-.5395.6511-.8812 1.1906-.7631l1.0583.2315c.5395.1181.8812.6511.7631 1.1907l-.4453 2.0351c-.118.5396-.6511.8812-1.1906.7632z"/><path fill="#EA5A47" d="M41.0482 15.8642l-.2506 1.3235c-.0974.5142-.5977.8553-1.1119.7579l-4.132-.7824c-.5141-.0974-.8552-.5978-.7578-1.1119l.2506-1.3236c.0974-.5141.5977-.8552 1.1119-.7578l4.132.7824c.5142.0974.8552.5978.7578 1.1119zM21.548 11.9126l-.2511 1.3257c-.0972.5136-.597.8542-1.1106.757l-4.12-.7802c-.5136-.0973-.8542-.597-.7569-1.1106l.251-1.3257c.0972-.5136.597-.8542 1.1106-.757l4.12.7802c.5136.0973.8542.597.757 1.1106z"/><g fill="none" stroke="#000" stroke-miterlimit="10"><path stroke-linecap="round" stroke-linejoin="round" stroke-width="2" d="M29.915 14.262l4.864.954M21.903 12.69l4.93.967"/><circle cx="18.825" cy="55.057" r="5" stroke-width="2"/><circle cx="55.342" cy="55.057" r="5" stroke-width="2"/><path stroke-linecap="round" stroke-linejoin="round" stroke-width="2" d="M27.529 17.318l-7.113 30.84-1.591 6.899"/><path stroke-linecap="round" stroke-linejoin="round" stroke-width="1.908" d="M27.7376 52.0572h22.6042v.5833c0 1.6568-1.2226 3-2.7307 3H30.4683c-1.5081 0-2.7307-1.3432-2.7307-3v-.5833z"/><path stroke-linecap="round" stroke-linejoin="round" stroke-width="2" d="M29.8508 14.2491c.0123.1067.0074.2173-.0168.3281l-.4453 2.0351c-.118.5396-.6511.8812-1.1906.7632l-1.0583-.2316c-.5395-.118-.8812-.6511-.7631-1.1906l.4453-2.0352a.99755.99755 0 0 1 .0885-.2458"/><path stroke-linecap="round" stroke-linejoin="round" stroke-width="2" d="M26.9105 13.6723c.2027-.3924.6502-.6162 1.1021-.5173l1.0583.2315c.4287.0938.7325.4497.7799.8626M22.654 39.917l5.084 12.14"/><path stroke-linecap="round" stroke-linejoin="round" stroke-width="1.908" d="M41.0482 15.8642l-.2506 1.3235c-.0974.5142-.5977.8553-1.1119.7579l-4.132-.7824c-.5141-.0974-.8552-.5978-.7578-1.1119l.2506-1.3236c.0974-.5141.5977-.8552 1.1119-.7578l4.132.7824c.5142.0974.8552.5978.7578 1.1119zM21.548 11.9126l-.2511 1.3257c-.0972.5136-.597.8542-1.1106.757l-4.12-.7802c-.5136-.0973-.8542-.597-.7569-1.1106l.251-1.3257c.0972-.5136.597-.8542 1.1106-.757l4.12.7802c.5136.0973.8542.597.757 1.1106z"/></g></svg>