<svg xmlns="http://www.w3.org/2000/svg" role="img" viewBox="7.99 2.62 51.14 65.39"><title>1F919-1F3FD.svg</title><path fill="#c19a65" stroke="#c19a65" d="M41.7188 53.1875l3.4339 1.7393c3.6875 1.2188 5.4784-6.7014-.4496-9.3474l-1.8747-1.2578 3.1326 1.2578c3.5282 1.6578 7.6417-6.2371.4894-9.6956l-2.8458-.5622 4.9913.5622c3.1056 1.8351 3.6609-6.0827-1.2092-8.3927L31.5 24.3125c1.125-10.875 2-17.875-6.0625-19.3125-2.4622-.375-5.5 0-4.875 2.5 3.25 14.625-3.125 22.6042-4.8966 24.4548-7.1985 7.1985-7.1985 18.8695 0 26.068 3.1257 2.9355 6.1596 2.7272 13.7716 2.7272 1.4375 0 19.6007 4.4807 19.6007 4.4807 6.875 1.8125 10.648-5.5724 6.023-7.1349l-1.53-1.0489"/><g fill="none" stroke="#000" stroke-linecap="round" stroke-linejoin="round" stroke-width="2"><path d="M45.5271 36.5453c5.8565 1.4749 9.2792-7.5763.8148-9.3306L31.5 24.3125c1.125-10.875 2-17.875-6.0625-19.3125-2.4622-.375-5.5 0-4.875 2.5 3.25 14.625-3.125 22.6042-4.8966 24.4548-7.1985 7.1985-7.1985 18.8695 0 26.068 3.1257 2.9355 6.1596 2.7272 13.7716 2.7272 1.4375 0 20.6327 4.7314 20.6327 4.7314 6.875 1.8125 8.9705-5.5167 4.3455-7.0792l-4.3455-1.5669M44.703 45.5795c5.8255 1.5323 8.0626-7.4024.8241-9.0342m-2.1152 18.2333c5.8275 1.5711 7.1882-7.5953 1.2911-9.1992"/><path stroke-miterlimit="10" d="M43.412 54.779l-5.693-1.583m6.984-7.616l-5.028-1.433m5.852-7.602l-4.133-.843"/></g></svg>