<svg xmlns="http://www.w3.org/2000/svg" role="img" viewBox="11.04 11.04 49.79 49.79"><title>1F913.svg</title><circle cx="36" cy="36" r="23" fill="#FCEA2B"/><path fill="#FFF" d="M32.1434 47.3742c-.282 1.7234-.4344 5.4883 3.8566 4.64v-4.3697m3.8566-.2703c.282 1.7234.4344 5.4883-3.8566 4.64v-4.3697"/><g><circle cx="36" cy="36" r="23" fill="none" stroke="#000" stroke-linecap="round" stroke-linejoin="round" stroke-miterlimit="10" stroke-width="2"/><path fill="none" stroke="#000" stroke-linecap="round" stroke-linejoin="round" stroke-miterlimit="10" stroke-width="2" d="M19.074 30.4073s-.953 8.5508 6.8608 7.9185c2.6197-.212 7.8164-.6507 7.867-8.3427.0046-.6979-.0078-1.5989-.8108-2.6298-1.0647-1.3669-3.5716-1.9711-9.9446-1.422.0001.0001-3.4462-.099-3.9724 4.476z"/><path fill="none" stroke="#000" stroke-linecap="round" stroke-linejoin="round" stroke-miterlimit="10" stroke-width="2" d="M19.145 29.874l-.433-3.371 3.833-.528m30.3875 4.4323s.953 8.5508-6.8608 7.9185c-2.6197-.212-7.8164-.6507-7.867-8.3427-.0046-.6979.0078-1.5989.8108-2.6298 1.0647-1.3669 3.5716-1.9711 9.9446-1.422 0 .0001 3.4463-.099 3.9724 4.476zm-21.2363-4.048s4.1241 2.5339 8.6569 0m-6.5509 4.9021s2.1275-3.7509 4.383 0"/><path fill="none" stroke="#000" stroke-linecap="round" stroke-linejoin="round" stroke-miterlimit="10" stroke-width="2" d="M52.855 29.877l.433-3.372-3.833-.527m-15.3087 3.9926s1.7954-3.7509 3.6988 0"/><path fill="none" stroke="#000" stroke-miterlimit="10" stroke-width="2" d="M32.1434 47.3742c-.282 1.7234-.4344 5.4883 3.8566 4.64v-4.3697"/><path d="M30 31c0 1.6568-1.3448 3-3 3-1.6553 0-3-1.3433-3-3 0-1.6552 1.3447-3 3-3 1.6552 0 3 1.3448 3 3m18 0c0 1.6568-1.3447 3-3 3s-3-1.3433-3-3c0-1.6552 1.3447-3 3-3s3 1.3448 3 3"/><path fill="none" stroke="#000" stroke-miterlimit="10" stroke-width="2" d="M39.8566 47.3742c.282 1.7234.4344 5.4883-3.8566 4.64v-4.3697"/><path fill="none" stroke="#000" stroke-linecap="round" stroke-linejoin="round" stroke-miterlimit="10" stroke-width="2" d="M45.8148 44.8055c-6.574 3.5248-14.0454 3.6576-19.6295 0"/></g></svg>