<svg xmlns="http://www.w3.org/2000/svg" role="img" viewBox="11.04 11.04 49.79 49.79"><title>1F915.svg</title><circle cx="36" cy="36" r="24" fill="#FCEA2B"/><path fill="#FFF" d="M37.9763 26.7191c6.7831.247 13.8395.8443 19.6935 2.1435l.2159.0451C54.8961 19.6755 46.2274 13 36 13c-12.7031 0-23 10.2969-23 23 0 2.8816.5299 5.6395 1.4977 8.1814l-.0013-.0023s3.79-3.84 9.95-8.55c1.21-.93 2.52-1.89 3.91-2.86 2.8899-2.04 6.13-4.12 9.6199-6.05"/><g><path fill="none" stroke="#000" stroke-linecap="round" stroke-linejoin="round" stroke-miterlimit="10" stroke-width="2" d="M44.9164 27.1091c.56.97 1.38 1.78 2.38 2.34 1.29.89 2.87 1.27 4.43 1.07"/><path d="M48 35c0 1.6568-1.3447 3-3 3s-3-1.3433-3-3c0-1.6552 1.3447-3 3-3s3 1.3448 3 3"/><path fill="none" stroke="#000" stroke-linecap="round" stroke-linejoin="round" stroke-miterlimit="10" stroke-width="2" d="M33.1081 46.8878s5.7328-1.0685 11.6633 2.0944m-30.2751-4.8031s3.79-3.84 9.95-8.55c1.21-.93 2.52-1.89 3.91-2.86 2.89-2.04 6.13-4.12 9.62-6.05"/><path d="M28.7005 32.5324c-.1125.0787-.2327.158-.3442.2367-1.39.97-2.7 1.93-3.91 2.86-.104.0795-.2018.1566-.3044.2357C24.5153 37.0969 25.6472 38 27 38c1.6552 0 3-1.3432 3-3 0-1.0234-.5158-1.926-1.2995-2.4676z"/><path fill="none" stroke="#000" stroke-linecap="round" stroke-linejoin="round" stroke-miterlimit="10" stroke-width="2" d="M57.6698 28.8626c-15.9396-3.5376-41.9481-1.9371-41.9481-1.9371m3.644-6.6459s21.5837-1.5544 34.954 1.9832"/><path fill="none" stroke="#000" stroke-linecap="round" stroke-linejoin="round" stroke-miterlimit="10" stroke-width="2" d="M57.8857 28.9077C54.8961 19.6755 46.2274 13 36 13c-12.7031 0-23 10.2969-23 23 0 2.8816.5299 5.6395 1.4977 8.1814m1.587 3.3321C20.0633 54.3807 27.4919 59 35.9999 59c12.7022 0 23-10.2978 23-23 0-1.243-.0986-2.4629-.2884-3.6525"/></g></svg>