<svg xmlns="http://www.w3.org/2000/svg" role="img" viewBox="11.01 11.01 51.48 49.85"><title>1F912.svg</title><path fill="none" stroke="#000" stroke-linecap="round" stroke-linejoin="round" stroke-miterlimit="10" stroke-width="2" d="M47.7437 38.6413c.1-.1.3-.2.5-.3 2-.6 3.9 1.4 3.3 3.4-.1.3-.2.6-.5.8"/><circle cx="36" cy="36" r="24" fill="#FCEA2B"/><path fill="#FFF" d="M40 49.2l-.7-.8c-.7-.9-.6-2.2.2-2.9l17-14.4c.9-.7 2.2-.6 2.9.2l.7.8c.7.9.6 2.2-.2 2.9l-17 14.4c-.8.8-2.1.7-2.9-.2z"/><path fill="#EA5A47" d="M39.8 49l-.2-.3c-.6-.7-.5-1.7.2-2.3l8.6-7.3c.7-.6 1.7-.5 2.3.2l.2.3c.6.7.5 1.7-.2 2.3l-8.6 7.3c-.7.6-1.7.5-2.3-.2z"/><g><path fill="none" stroke="#000" stroke-linecap="round" stroke-linejoin="round" stroke-miterlimit="10" stroke-width="2" d="M50.975 27.2c-1.6-2.8-4.8-4.1-7.9-3.4m13.9163 2.8594C53.3755 18.6245 45.3406 13 36 13c-12.655 0-23 10.2445-23 23 0 12.655 10.2445 23 23 23 10.6463 0 19.5852-7.2314 22.1965-16.9738"/><path d="M30 33c0 1.6568-1.3448 3-3 3-1.6553 0-3-1.3433-3-3 0-1.6552 1.3447-3 3-3 1.6552 0 3 1.3448 3 3m18 0c0 1.6568-1.3447 3-3 3s-3-1.3433-3-3c0-1.6552 1.3447-3 3-3s3 1.3448 3 3"/><path fill="none" stroke="#000" stroke-linecap="round" stroke-linejoin="round" stroke-miterlimit="10" stroke-width="2" d="M21.025 27.2c.7-1.4 1.9-2.4 3.4-3 1.4-.7 3-.8 4.5-.4"/><path fill="none" stroke="#000" stroke-miterlimit="10" d="M40 49.3l-.7-.8c-.7-.9-.6-2.2.2-2.9l17-14.4c.9-.7 2.2-.6 2.9.2l.7.8c.7.9.6 2.2-.2 2.9l-17 14.4c-.8.8-2.1.7-2.9-.2z"/><path fill="none" stroke="#000" stroke-linecap="round" stroke-linejoin="round" stroke-miterlimit="10" stroke-width="2" d="M29.6 50.7c4.3-2.3 9.1-2.4 12.8 0"/><path fill="none" stroke="#000" stroke-miterlimit="10" stroke-width="2" d="M40 49.3l-.7-.8c-.7-.9-.6-2.2.2-2.9l17-14.4c.9-.7 2.2-.6 2.9.2l.7.8c.7.9.6 2.2-.2 2.9l-17 14.4c-.8.8-2.1.7-2.9-.2z"/></g></svg>