<svg xmlns="http://www.w3.org/2000/svg" role="img" viewBox="11.04 11.04 49.79 49.79"><title>1F910.svg</title><circle cx="36" cy="35.643" r="23" fill="#FCEA2B"/><path fill="#9B9B9A" d="M58.2965 54.1981l-1.9462 1.9462c-.9381.9381-2.459.9381-3.397 0l-4.8606-4.8606c-.9381-.9381-.9381-2.459 0-3.397l1.9462-1.9462c.9381-.9381 2.459-.9381 3.397 0l4.8606 4.8606c.938.938.938 2.4589 0 3.397z"/><path fill="#D0CFCE" d="M50.3547 47.7874l-.5122.5122c-.2878.2878-.7544.2878-1.0421 0l-1.6157-1.6157c-.2878-.2878-.2878-.7544 0-1.0421l.5122-.5122c.2878-.2878.7544-.2878 1.0421 0l1.6157 1.6157c.2878.2877.2878.7543 0 1.0421z"/><g><path fill="none" stroke="#000" stroke-linecap="round" stroke-linejoin="round" stroke-miterlimit="10" stroke-width="2" d="M47.705 45.684l-23.665-.089m.521.27v3.303m1.911-7.142v3.303m1.941.536v3.303m1.912-7.142v3.303m1.928.536v3.303m1.911-7.142v3.303m1.941.536v3.303m1.912-7.142v3.303m1.915.536v3.303m1.912-7.142v3.303m1.969.536v3.303m1.887-7.142v3.303"/><path fill="none" stroke="#000" stroke-linecap="round" stroke-miterlimit="10" stroke-width="2" d="M50.9177 45.3276c.8493-.3076 1.8373-.121 2.5182.56l4.8606 4.8606c.938.938.938 2.4589 0 3.397l-1.9462 1.9462c-.9381.9381-2.459.9381-3.397 0l-4.8606-4.8606c-.6461-.6461-.8472-1.5687-.6033-2.3869"/><path fill="none" stroke="#000" stroke-linecap="round" stroke-linejoin="round" stroke-miterlimit="10" stroke-width="2" d="M57.4811 44.2366C58.4623 41.6794 59 38.9025 59 36c0-12.7031-10.2979-23-23-23-12.7023-.0001-23 10.2969-23 23 0 12.7022 10.2978 23 23 23 4.0701 0 7.8933-1.0574 11.21-2.9123"/><path d="M30 31c0 1.6568-1.3448 3-3 3-1.6553 0-3-1.3433-3-3 0-1.6552 1.3447-3 3-3 1.6552 0 3 1.3448 3 3m18 0c0 1.6568-1.3447 3-3 3s-3-1.3433-3-3c0-1.6552 1.3447-3 3-3s3 1.3448 3 3"/></g></svg>