<svg xmlns="http://www.w3.org/2000/svg" role="img" viewBox="8.83 10.96 54.21 49.96"><title>1F929.svg</title><circle cx="36" cy="36" r="24" fill="#FCEA2B"/><path fill="#F1B31C" d="M25.042 21.237l7.987-1.201-3.905 7.07 3.609 7.224-7.929-1.529-5.755 5.665-.997-8.014-7.166-3.723 7.314-3.424 1.326-7.966zm21.84 0l-7.986-1.201 3.905 7.07-3.61 7.224 7.93-1.529 5.755 5.665.996-8.014 7.167-3.723-7.314-3.424-1.326-7.966z"/><path fill="#EA5A47" d="M49.7371 46.356c-1.79 4.27-6.35 7.23-13.7 7.23-7.41 0-12.03-3.03-13.8-7.36 2.03.46 14.98 3.1699 27.5.13z"/><path fill="#FFF" d="M50.6071 41.866c0 1.6-.29 3.11-.87 4.49-12.52 3.04-25.47.33-27.5-.13-.55-1.35-.83-2.82-.83-4.36h.11s14.81 3.59 28.89.07l.2-.07z"/><g fill="none" stroke="#000" stroke-linejoin="round" stroke-miterlimit="10" stroke-width="2"><path stroke-linecap="round" d="M50.6071 41.866c0 1.6-.29 3.11-.87 4.49-12.52 3.04-25.47.33-27.5-.13-.55-1.35-.83-2.82-.83-4.36h.11s14.81 3.59 28.89.07l.2-.07z"/><path d="M49.7371 46.356c-1.79 4.27-6.35 7.23-13.7 7.23-7.41 0-12.03-3.03-13.8-7.36 2.03.46 14.98 3.1699 27.5.13zm.49-.12c-.16.04-.33.08-.49.12m-27.5-.13c-.19-.05-.28-.07-.28-.07"/><path stroke-linecap="round" d="M46.5542 15.5591C43.3932 13.9237 39.8045 13 36 13c-3.9546 0-7.676.9979-10.9261 2.7556-.0502.0271-.1002.0544-.1501.0819M13.1945 32.9954c-.1283.9833-.1944 1.9862-.1944 3.0046 0 12.7022 10.2969 23 23 23 12.7022 0 23-10.2978 23-23 0-1.0073-.0648-1.9995-.1903-2.9726"/><path stroke-linecap="round" d="M25.118 21.237l7.986-1.201-3.905 7.07 3.61 7.224-7.93-1.529-5.755 5.665-.996-8.014-7.167-3.723 7.314-3.424 1.326-7.966zm21.764 0l-7.986-1.201 3.905 7.07-3.61 7.224 7.93-1.529 5.755 5.665.996-8.014 7.167-3.723-7.314-3.424-1.326-7.966z"/></g></svg>