<svg xmlns="http://www.w3.org/2000/svg" role="img" viewBox="11.04 11.04 49.79 49.79"><title>1F92C.svg</title><path fill="none" stroke="#000" stroke-linecap="round" stroke-linejoin="round" stroke-width="2" d="M44.96 44.374v4.471"/><circle cx="44.926" cy="51.647" r="1"/><path fill="none" stroke="#000" stroke-linecap="round" stroke-linejoin="round" stroke-width="2" d="M28.147 44.081l-1.101 7.238m4.323-7.238l-1.101 7.238m-4.48-5.222l7.321-.007m-7.803 3.193l7.322-.007m7.5898-3.5572a1.5322 1.5322 0 0 0-1.4173-.8272 1.5714 1.5714 0 0 0-1.6771 1.3525s-.2434 1.3691 1.8124 1.4336c0 0 1.4607.2435 1.4607 1.4607 0 1.3337-1.4337 1.38-1.4337 1.38s-1.3707.1039-1.752-.732m1.5942-5.1474v-1.005m0 8.144v-1.005"/><g><path fill="#ea5a47" d="M36 13a23 23 0 1 0 23 23 23.026 23.026 0 0 0-23-23z"/><rect width="32.264" height="13.575" x="19.518" y="41.076" fill="#3f3f3f" rx="4.077"/><path fill="none" stroke="#fff" stroke-linecap="round" stroke-linejoin="round" stroke-width="2" d="M44.96 44.374v4.471"/><circle cx="44.926" cy="51.647" r="1" fill="#fff"/><path fill="none" stroke="#fff" stroke-linecap="round" stroke-linejoin="round" stroke-width="2" d="M28.147 44.081l-1.101 7.238m4.323-7.238l-1.101 7.238m-4.48-5.222l7.321-.007m-7.803 3.193l7.322-.007m7.5898-3.5572a1.5322 1.5322 0 0 0-1.4173-.8272 1.5714 1.5714 0 0 0-1.6771 1.3525s-.2434 1.3691 1.8124 1.4336c0 0 1.4607.2435 1.4607 1.4607 0 1.3337-1.4337 1.38-1.4337 1.38s-1.3707.1039-1.752-.732m1.5942-5.1474v-1.005m0 8.144v-1.005"/></g><g><circle cx="36" cy="36" r="23" fill="none" stroke="#000" stroke-miterlimit="10" stroke-width="2"/><path d="M30 33.9252a3 3 0 1 1-3-3 3.0012 3.0012 0 0 1 3 3m18 0a3 3 0 1 1-3-3 3.0011 3.0011 0 0 1 3 3"/><path fill="none" stroke="#000" stroke-linecap="round" stroke-linejoin="round" stroke-width="2" d="M23 25.113l7 4m19-4l-7 4"/><rect width="32.264" height="13.575" x="19.868" y="41.076" fill="none" stroke="#000" stroke-miterlimit="2" stroke-width="2" rx="4.077"/></g></svg>