<svg xmlns="http://www.w3.org/2000/svg" role="img" viewBox="10.99 10.99 50.01 52.26"><title>1F924.svg</title><circle cx="36" cy="36" r="24" fill="#FCEA2B"/><path fill="#EA5A47" d="M48.16 44.41c0 3.569-3.975 6.406-11.94 6.406-7.967 0-11.99-2.846-11.99-6.406h.0939s12.14 3.063 23.68.066l.1606-.066z"/><path fill="#92D3F5" d="M43.04 55.78c0 .7332-.558 1.328-1.246 1.328-.6883 0-1.246-.5943-1.246-1.328v-4.387l3.261-1.223 2.739-1.63v11.48c0 .8658-.7832 1.568-1.749 1.568s-1.749-.7019-1.749-1.568v-4.703"/><g fill="none" stroke="#000" stroke-linecap="round" stroke-linejoin="round" stroke-miterlimit="10" stroke-width="2"><path d="M21.19 27.2c.7207-1.386 1.928-2.454 3.391-3 1.405-.7002 3.02-.8486 4.53-.4209M50.8 27.2c-1.582-2.772-4.804-4.17-7.909-3.431"/><path d="M50.24 54.07c5.338-4.212 8.764-10.74 8.764-18.07 0-12.7-10.3-23-23-23s-23 10.3-23 23 10.3 23 23 23c.3675 0 .7329-.0086 1.096-.0257"/><path d="M25.07 34.8c.621-.6976 1.406-1.414 2.452-1.773 1.059-.3638 2.116-.3638 3.275-.2488M46.95 34.8c-.621-.6976-1.406-1.414-2.452-1.773-1.059-.3638-2.116-.3638-3.275-.2488M47.89 44.69c0 3.569-3.975 6.406-11.94 6.406-7.967 0-11.99-2.846-11.99-6.406h.0939s12.14 3.063 23.68.066z"/><path d="M42.85 55.56c0 .7332-.558 1.328-1.246 1.328v0c-.6883 0-1.246-.5943-1.246-1.328v-4.387m6-2.853V59.8c0 .8658-.7832 1.568-1.749 1.568v0c-.9661 0-1.749-.7019-1.749-1.568v-4.703"/></g></svg>