<svg xmlns="http://www.w3.org/2000/svg" role="img" viewBox="10.88 11.01 51.48 49.85"><title>1F925.svg</title><g fill="#FCEA2B"><path d="M36 12c-13.2337 0-24 10.7663-24 24s10.7663 24 24 24 24-10.7664 24-24c.0001-13.2337-10.7663-24-24-24z"/><path d="M37.4298 44.1622s8.7363-.0809 12.075.5893c3.3387.6701 6.7322 2.0667 9.1412.9499 1.1362-.5267 1.6476-1.6404 1.7222-2.7085.1014-1.0659-.2206-2.2484-1.255-2.9542-2.1935-1.4965-5.7742-.6235-9.1776-.5096s-12.0084-1.3976-12.0084-1.3976"/></g><path fill="none" stroke="#000" stroke-linecap="round" stroke-linejoin="round" stroke-miterlimit="10" stroke-width="2" d="M20.9493 27.2768c.851-1.3097 2.1554-2.2567 3.6642-2.659 1.4662-.5614 3.0882-.5534 4.5496.0179m21.3956 1.6365c-1.3537-2.8907-4.4525-4.543-7.6074-4.056"/><path fill="none" stroke="#000" stroke-linecap="round" stroke-linejoin="round" stroke-miterlimit="10" stroke-width="2" d="M58.9634 34.6991C58.289 22.6013 48.2654 13 35.9998 13 23.2968 13 13 23.2968 13 35.9998c0 12.7021 10.2968 22.9998 22.9998 22.9998 7.0803 0 13.4135-3.1996 17.6326-8.2316"/><path d="M30 31c0 1.6568-1.3448 3-3 3-1.6553 0-3-1.3433-3-3 0-1.6552 1.3447-3 3-3 1.6552 0 3 1.3448 3 3m18 0c0 1.6568-1.3447 3-3 3s-3-1.3433-3-3c0-1.6552 1.3447-3 3-3s3 1.3448 3 3"/><path fill="none" stroke="#000" stroke-linecap="round" stroke-linejoin="round" stroke-miterlimit="10" stroke-width="2" d="M39.7224 50.6354s-5.7186-1.8346-8.8718 1.5503m6.5792-8.0235s8.7363-.0809 12.075.5893c3.3387.6701 6.7322 2.0667 9.1412.9499 1.1362-.5267 1.6476-1.6404 1.7222-2.7085.1014-1.0659-.2206-2.2484-1.255-2.9542-2.1935-1.4965-5.7742-.6235-9.1776-.5096s-12.0084-1.3976-12.0084-1.3976"/></svg>