<svg xmlns="http://www.w3.org/2000/svg" role="img" viewBox="11.04 11.04 49.79 49.79"><title>1F922.svg</title><circle cx="36.003" cy="36" r="23" fill="#B1CC33"/><path fill="none" stroke="#000" stroke-linecap="round" stroke-linejoin="round" stroke-miterlimit="10" stroke-width="2" d="M27.2671 22.3665c-.2383 1.5436-1.039 2.9427-2.2496 3.9289-1.1065 1.1138-2.5889 1.7724-4.156 1.8514m23.8714-5.7803c.2383 1.5436 1.039 2.9427 2.2496 3.9289 1.1065 1.1138 2.5889 1.7724 4.156 1.8514"/><circle cx="36.003" cy="36" r="23" fill="none" stroke="#000" stroke-linecap="round" stroke-linejoin="round" stroke-miterlimit="10" stroke-width="2"/><path fill="none" stroke="#000" stroke-linecap="round" stroke-linejoin="round" stroke-miterlimit="10" stroke-width="2" d="M30.0432 46.0186c1.2832-.8191 3.8698-1.0381 5.9568-1.0381s4.6737.219 5.9568 1.0381M28.669 42.8384c1.8323 1.6694 1.8323 4.2345 0 5.9854m14.6618-5.9854c-1.8323 1.6694-1.8323 4.2345 0 5.9854"/><path d="M30 33c0 1.6568-1.3448 3-3 3-1.6553 0-3-1.3433-3-3 0-1.6552 1.3447-3 3-3 1.6552 0 3 1.3448 3 3m18 0c0 1.6568-1.3447 3-3 3s-3-1.3433-3-3c0-1.6552 1.3447-3 3-3s3 1.3448 3 3"/></svg>