<svg xmlns="http://www.w3.org/2000/svg" role="img" viewBox="9.20 10.83 60.84 50.84"><title>1F923.svg</title><circle cx="36" cy="35.999" r="24" fill="#fcea2b"/><path fill="#fff" d="M51.58 34.554a11.5549 11.5549 0 0 1 1.2192 4.408c-9.8367 8.2722-22.6217 11.6222-24.6756 12.118a11.4345 11.4345 0 0 1-2.6837-3.535l.0985-.0489S40.39 44.1243 51.4407 34.7013z"/><path fill="#ea5a47" d="M52.799 38.962c.2974 4.6205-2.4688 9.3006-9.0418 12.5673-6.6357 3.2978-12.1214 2.6407-15.6335-.4493 2.0538-.4959 14.8389-3.846 24.6753-12.118z"/><path fill="#92d3f5" d="M67.6926 32.9089a4.2419 4.2419 0 0 1-5.3735 2.6717c-3.9838-1.3386-6.68-6.6869-6.7069-6.74.213-.0912 5.4464-2.637 9.41-1.3052a4.241 4.241 0 0 1 2.6706 5.3737zM14.395 59.3977a4.2421 4.2421 0 0 1-2.6718-5.3736c1.3387-3.9837 6.6869-6.68 6.74-6.7068.0912.213 2.6369 5.4464 1.3052 9.41a4.2411 4.2411 0 0 1-5.3737 2.6707z"/><g fill="none" stroke="#000" stroke-linejoin="round" stroke-width="2"><path stroke-linecap="round" d="M55.2766 23.4489q-.0459-.0708-.0924-.1411a23.0031 23.0031 0 0 0-40.9689 20.0787c.0343.1023.1046.2972.14.3993M25.0368 56.22a23.5311 23.5311 0 0 0 21.1991.3755 23.3425 23.3425 0 0 0 12.4859-17.0227M51.58 34.554a11.5549 11.5549 0 0 1 1.2192 4.408c-9.8367 8.2722-22.6217 11.6222-24.6756 12.118a11.4345 11.4345 0 0 1-2.6837-3.535l.0985-.0489S40.39 44.1243 51.4407 34.7013z"/><path stroke-linecap="round" d="M52.799 38.962c.2974 4.6205-2.4688 9.3006-9.0418 12.5673-6.6357 3.2978-12.1214 2.6407-15.6335-.4493 2.0538-.496 14.8388-3.8459 24.6753-12.118z"/><path d="M67.6926 32.9089a4.2419 4.2419 0 0 1-5.3735 2.6717c-3.9838-1.3386-6.68-6.6869-6.7069-6.74.213-.0912 5.4464-2.637 9.41-1.3052a4.241 4.241 0 0 1 2.6706 5.3737zM14.395 59.3977a4.2421 4.2421 0 0 1-2.6718-5.3736c1.3387-3.9837 6.6869-6.68 6.74-6.7068.0912.213 2.6369 5.4464 1.3052 9.41a4.2411 4.2411 0 0 1-5.3737 2.6707z"/><path stroke-linecap="round" d="M22.478 33.13l7.685.663-4.235 6.279m15.95-16.584l-4.112 6.526 7.562.416"/></g></svg>