<svg xmlns="http://www.w3.org/2000/svg" role="img" viewBox="1.65 2.53 70.07 67.69"><title>1F932-1F3FC.svg</title><path d="M27.1667 68H4V56.3333l15-7.5C16.3966 57.37 26.4551 63.3903 31.5 60.5L27.1667 68zm19.125 0h23.1667V56.3333l-15-7.5c2.6034 8.5367-7.4551 14.557-12.5 11.6667l4.3333 7.5z" fill="#92d3f5"/><path d="M29.8302 61.109c-6.1759 0-11.1733-4.7888-11.1733-10.7068 6.625-4.0208 7.2806-13.8397 7.9681-19.4647.5-2.8906 1.7917-2.8906 2.25-5.7812L31.5 7.3474C32.125 4 36.079 4.3418 36.7292 7v46.9167c0 1.9346-2.8958 3.5-3.8958 3.5-.8126 0-3.0032 3.0295-3.0032 3.6923zm13.7979 0c6.1759 0 11.1733-4.7888 11.1733-10.7068-6.625-4.0208-7.2806-13.8397-7.9681-19.4647-.5-2.8906-1.7917-2.8906-2.25-5.7812l-2.625-17.8088C41.3333 4 37.3794 4.3418 36.7292 7v46.9167c0 1.9346 2.8958 3.5 3.8958 3.5.8125 0 3.0031 3.0295 3.0031 3.6923z" fill="#debb90" stroke="#debb90"/><g fill="none" stroke="#000" stroke-linecap="round" stroke-linejoin="round" stroke-miterlimit="10" stroke-width="2"><path d="M27.1667 68H4V56.3333l15-7.5C16.3966 57.37 26.4551 63.3903 31.5 60.5L27.1667 68z"/><path d="M29.8302 61.109c0-.6628 2.1906-3.6923 3.0031-3.6923 1 0 3.8958-1.5654 3.8958-3.5V7c-.6501-2.6582-4.6041-3-5.2291.3474l-2.625 17.8088c-.4583 2.8906-1.75 2.8906-2.25 5.7812-.6875 5.625-1.3431 15.4439-7.9681 19.4647M46.2917 68h23.1667V56.3333l-15-7.5c2.6034 8.5367-7.4551 14.557-12.5 11.6667l4.3333 7.5z"/><path d="M43.6281 61.109c0-.6628-2.1906-3.6923-3.0031-3.6923-1 0-3.8958-1.5654-3.8958-3.5V7c.6502-2.6582 4.6042-3 5.2292.3474l2.625 17.8088c.4583 2.8906 1.75 2.8906 2.25 5.7812.6875 5.625 1.3431 15.4439 7.9681 19.4647M16.381 19.608l-6.424.261m11.119-4.465l.968-6.357m-3.573 8.21l-3.335-3.725m40.484 6.076l6.424.261m-11.12-4.465l-.967-6.357m3.572 8.21l3.336-3.725"/></g></svg>