<svg xmlns="http://www.w3.org/2000/svg" role="img" viewBox="9.78 5.91 56.68 55.80"><title>1F93E-1F3FB.svg</title><circle cx="14.969" cy="19.094" r="3" fill="#92D3F5"/><circle cx="14.969" cy="19.094" r="3" fill="#ea5a47" stroke-miterlimit="10" stroke-width="2"/><g fill="#fadcbc" stroke="#fadcbc"><circle cx="39.969" cy="11.094" r="3"/><path d="M33.834 22l1.161 2.763-.026-.597z"/><path d="M39.6807 17.916L25.083 18.9814l-7.583-.9658s-1.3682.6846.4688 2.0274c1.5458 1.1308 5.3251 2.541 7.3652 2.541 3.5 0 6.333-2.0835 7.668-.3623.7666.9887 1.9931 2.541 1.9931 2.541L35.1357 28l-3 7-2 6-10.1738 4 .4238 3 13.75-2 3.5616-5.3418L37.1357 42v7l-6.1669 9 3 2 8.1669-9 3-13s1.0909-13.1929 1.2706-16c.1357-2.125 4.7255.146 8.1425 1.0625 1.8731.5024 4.4512 1.562 7.4512 2.187 2.1816.4546 2.8438-1.937 2.8438-1.937l-18.2793-6.3726-6.8838.9761z"/></g><g fill="none" stroke="#000" stroke-miterlimit="10" stroke-width="2"><circle cx="39.969" cy="11.094" r="3"/><circle cx="14.969" cy="19.094" r="3"/><path stroke-linecap="round" stroke-linejoin="round" d="M40.1357 37l-4.8906 7.3359c-.6103.9151-2 1.794-3.0888 1.9522l-9.7911 1.4238c-1.0888.1582-2.0752-.3867-2.1914-1.2119-.1162-.8252.626-1.8291 1.6494-2.2314l6.4512-2.5372c1.0235-.4023 2.1455-1.5849 2.4942-2.6289l.7343-2.205c.3487-1.044.9873-2.7246 1.4209-3.7354l1.4239-3.3242c.4336-1.0108.7509-2.7002.705-3.7549-.0468-1.0542-.3388-2.4038-.6513-3-.3125-.5957-.5674-1.083-.5674-1.083"/><path stroke-linecap="round" stroke-linejoin="round" d="M37 42v5c0 1.0996-.4414 2.7422-1.0625 3.6494l-3.8721 5.7012c-.622.9072-.4384 2.0996.3867 2.6494.8252.5498 2.1124.334 2.8516-.4814l5.4844-6.0372c.7392-.8154 1.5478-2.3584 1.7959-3.4306l2.1006-9.1016c.248-1.0722.4707-2.8486.4961-3.9482L45.4316 22M15.875 16l7.293 3.1973c1.0078.4414 2.6855.518 3.7295.1704l2.205-.7354c1.044-.3476 2.7959-.6924 3.8926-.7651l11.0098-.7344c1.0967-.0727 2.8486.1519 3.8926.4995L64 23"/></g></svg>