<svg xmlns="http://www.w3.org/2000/svg" role="img" viewBox="7.88 7.51 42.11 51.61"><title>1F938-1F3FE-200D-2640-FE0F.svg</title><g fill="#a57939"><circle cx="32.698" cy="49.57" r="2.86"/><path d="M22.593 44.8991c-1.2393 1.9065-.953 5.1476-.953 10.5809 0 1.8112.0953 2.6691 2.2878 2.6691a41.4923 41.4923 0 0 1 0-8.77c.4767-5.72 3.6225-5.3383 7.4356-6.3869s7.6261 1.8112 8.77 3.3365.9533 11.8205.9533 11.8205c3.05 0 2.1925-2.4785 2.1925-2.4785 0 2.4785 1.2393-9.7233-.7626-12.2018a34.2846 34.2846 0 0 0-3.4318-3.4318l-1.9068-1.9063.6606-8.2772s3.6825-5.0295 5.7664-7.589l5.0123-12.7319h-2.86L39.0845 20.972l-5.72 4.7663-2.0285.27-10.364-2.1763-10.486-4.7664-.9533 2.86 9.5328 5.72 7.4679 2.8893 1.5834 4.5938s-1.4461 2.9371-2.2526 4.6959c-.7794 1.6999-1.746 2.596-3.2712 5.0745z"/></g><g fill="none" stroke="#000" stroke-width="2"><circle cx="32.698" cy="49.57" r="3" stroke-miterlimit="10"/><path stroke-linecap="round" stroke-linejoin="round" d="M26.937 39.63l1.469-4.3173c.1907-1.0486-.9018-4.1506-1.76-4.7225l-15.4926-7.712a2.286 2.286 0 0 1-1.1434-2.3829 1.5908 1.5908 0 0 1 2.1925-.6673l9.7119 3.96c.8685.4338 7.2783 1.9962 7.2783 1.9962 1.0486.286 4.84-.7131 5.6023-1.38 0 0 4.6711-4.29 5.1477-5.1476l4.7663-8.1028a3.2328 3.2328 0 0 1 2.383-1.6211c.7626 0 1.1439.7626.7626 1.8112 0 0-3.2563 8.39-3.7244 9.4031-.6234 1.35-4.4518 5.711-5.6233 7.6691a14.269 14.269 0 0 0-1.3089 3.5966 26.6874 26.6874 0 0 0-.6005 3.6625 12.17 12.17 0 0 0 .5481 3.5977M23.8322 57.1963V49.57c0-3.2411 1.7159-5.243 3.8131-5.72a16.2448 16.2448 0 0 1 9.5327 0c2.0972.4766 3.8131 2.5738 3.8131 5.72v7.6262"/><path stroke-linecap="round" stroke-linejoin="round" d="M27.3863 54.6458s.6582-.0084.8517-.43c.2284-.4959-.0785-1.7926.1255-2.5157a3.3622 3.3622 0 0 1 1.2049-1.8068"/></g></svg>