<svg xmlns="http://www.w3.org/2000/svg" role="img" viewBox="14.70 7.33 42.23 54.60"><title>1F936-1F3FF.svg</title><path fill="#D0CFCE" d="M46.9799 21.4051s15 22.8504 0 22.8504h-22c-15 0 0-22.8504 0-22.8504"/><path fill="#EA5A47" d="M25.4342 19.9935c0-5.8242 4.7215-10.5457 10.5457-10.5457s10.5457 4.7215 10.5457 10.5457m8.3293 40.9966s2-13.985-10-13.985c-3.1919 2.128-5.9264 3.5985-9 3.5922h.125c-3.0736.0063-5.8081-1.4642-9-3.5922-12 0-10 13.985-10 13.985"/><path fill="#D22F27" d="M44.8549 47.0051c-3.1699 2.1133-4.875 3-8.9375 3.5886 13.0625.4114 13.0625 6.4098 13.8246 10.4098h5.1129s2-13.9984-10-13.9984z"/><path fill="#FFF" d="M39.6005 55.0472c5.1878-.4859 8.9539-2.9065 10.3535-6.9774-1.3294-.6591-2.9951-1.0647-5.0991-1.0647-3.1699 2.1133-5.8895 3.5747-8.9375 3.5886-3.048-.0139-5.7676-1.4753-8.9375-3.5886-2.0474 0-3.6792.3847-4.991 1.0124 2.3627 3.939 5.8207 6.1638 10.3565 6.8708.4155.0648.8336.09 1.254.0954.9342.012 2.8034.0403 4.7616.0941.4119.0114.8292.0078 1.2395-.0306zM28.9799 31.4051c0 1.6569 1.3431 3 3 3s3-1.3431 3-3h2c0 1.6569 1.3431 3 3 3s3-1.3431 3-3M45.099 17.545c-.8798 0-1.6738.3416-2.2798.8875-.606-.5459-1.3999-.8875-2.2798-.8875-.8798 0-1.6737.3416-2.2797.8875-.606-.5459-1.4-.8875-2.2798-.8875s-1.6738.3416-2.2798.8875c-.606-.5459-1.3999-.8875-2.2797-.8875-.8799 0-1.6738.3416-2.2798.8875-.606-.5459-1.4-.8875-2.2798-.8875-1.8886 0-3.4196 1.5311-3.4196 3.4197s1.531 3.4196 3.4196 3.4196c.8798 0 1.6738-.3416 2.2798-.8874.606.5458 1.3999.8874 2.2798.8874.8798 0 1.6737-.3416 2.2797-.8874.606.5458 1.4.8874 2.2798.8874s1.6738-.3416 2.2798-.8874c.606.5458 1.3999.8874 2.2797.8874.8799 0 1.6738-.3416 2.2798-.8874.606.5458 1.4.8874 2.2798.8874 1.8886 0 3.4196-1.531 3.4196-3.4196s-1.531-3.4197-3.4196-3.4197z"/><g><path fill="#6a462f" d="M46.9971 27.041l-.0172.0033c-5 .6392-13-3.7038-13-3.7038s-4 4.3429-9 3.7038l-.0173-.0033c-.21 1.0783-.3213 2.205-.3213 3.3641 0 7.8277 5.0765 14.1733 11.3386 14.1733s11.3386-6.3456 11.3386-14.1733c0-1.1591-.1113-2.2858-.3214-3.3641zm-15.0172 7.3641c-1.6569 0-3-1.3431-3-3h6c0 1.6569-1.3431 3-3 3zm8 0c-1.6569 0-3-1.3431-3-3h6c0 1.6569-1.3431 3-3 3z"/></g><g><path fill="none" stroke="#000" stroke-linecap="round" stroke-linejoin="round" stroke-miterlimit="10" stroke-width="2" d="M25.66 17.7698c1.03-4.76 5.26-8.32 10.32-8.32s9.29 3.56 10.32 8.32m8.5549 42.2353s2-13-10-13c-3.1919 2.128-5.9264 3.5985-9 3.5922h.125c-3.0736.0063-5.8081-1.4642-9-3.5922-12 0-10 13-10 13"/><path fill="none" stroke="#000" stroke-linecap="round" stroke-linejoin="round" stroke-miterlimit="10" stroke-width="2" d="M39.6005 55.0472c5.1878-.4859 8.9539-2.9065 10.3535-6.9774-1.3294-.6591-2.9951-1.0647-5.0991-1.0647-3.1699 2.1133-5.8895 3.5747-8.9375 3.5886-3.048-.0139-5.7676-1.4753-8.9375-3.5886-2.0474 0-3.6792.3847-4.991 1.0124 2.3627 3.939 5.8207 6.1638 10.3565 6.8708.4155.0648.8336.09 1.254.0954.9342.012 2.8034.0403 4.7616.0941.4119.0114.8292.0078 1.2395-.0306zM23.9407 23.0308c-3.1231 5.0885-11.4641 20.3743 1.0392 20.3743m22 0c12.4833 0 4.1889-15.237 1.0542-20.3499M47 27.0398c.21 1.08.32 2.21.32 3.37 0 7.82-5.08 14.17-11.34 14.17s-11.34-6.35-11.34-14.17c0-1.16.11-2.29.32-3.37h.02c2.95.38 5.55-1.3 7.19-2.75m4.89-.1c2.78 1.47 6.9 3.24 9.92 2.85"/><path d="M41.98 29.0443c0 1.1045-.8965 2-2 2s-2-.8955-2-2c0-1.1035.8965-2 2-2s2 .8965 2 2m-8 0c0 1.1045-.8965 2-2 2s-2-.8955-2-2c0-1.1035.8965-2 2-2s2 .8965 2 2m1.9999 10.0025c-1.1519 0-2.3037-.2862-3.4473-.858-.4941-.247-.6943-.8476-.4472-1.3417.2465-.4937.8462-.6944 1.3418-.4473 1.7177.8594 3.3877.8594 5.1054 0 .4947-.2471 1.0948-.0464 1.3418.4473.2471.4941.0469 1.0947-.4472 1.3417-1.1436.5718-2.2954.858-3.4473.858z"/><path fill="none" stroke="#000" stroke-linecap="round" stroke-linejoin="round" stroke-miterlimit="10" stroke-width="2" d="M28.9799 31.4051c0 1.6569 1.3431 3 3 3s3-1.3431 3-3h2c0 1.6569 1.3431 3 3 3s3-1.3431 3-3M45.099 17.545c-.8798 0-1.6738.3416-2.2798.8875-.606-.5459-1.3999-.8875-2.2798-.8875-.8798 0-1.6737.3416-2.2797.8875-.606-.5459-1.4-.8875-2.2798-.8875s-1.6738.3416-2.2798.8875c-.606-.5459-1.3999-.8875-2.2797-.8875-.8799 0-1.6738.3416-2.2798.8875-.606-.5459-1.4-.8875-2.2798-.8875-1.8886 0-3.4196 1.5311-3.4196 3.4197s1.531 3.4196 3.4196 3.4196c.8798 0 1.6738-.3416 2.2798-.8874.606.5458 1.3999.8874 2.2798.8874.8798 0 1.6737-.3416 2.2797-.8874.606.5458 1.4.8874 2.2798.8874s1.6738-.3416 2.2798-.8874c.606.5458 1.3999.8874 2.2797.8874.8799 0 1.6738-.3416 2.2798-.8874.606.5458 1.4.8874 2.2798.8874 1.8886 0 3.4196-1.531 3.4196-3.4196s-1.531-3.4197-3.4196-3.4197z"/></g></svg>