<svg xmlns="http://www.w3.org/2000/svg" role="img" viewBox="2.53 9.28 63.44 52.06"><title>1F93D-1F3FB-200D-2642-FE0F.svg</title><g fill="#fadcbc"><path d="M45.185 42.8973s-3.5271-7.4355-4.29-9.914l-1.7159 8.9608-4.8616-1.0486-4.8617.286-1.8112-10.486-.9533-.858c-.572-1.5252-5.815-1.8112-8.1028-3.7177-1.6206-1.43-3.05-6.4823-3.6224-8.77l1.2392-1.5253 3.7178 6.8636 8.3888 3.05 11.1535 1.3349 2.7646 2.0019 5.3383 11.63.7626 2.9552z"/><circle cx="33.505" cy="19.021" r="3"/></g><path fill="#92d3f5" d="M64.8224 41.2768c0-1.8112-11.3439 2.86-16.11 2.86s-9.5327-2.86-15.2523-2.86-9.5327 2.86-15.2523 2.86-14.3947-4.6712-14.3947-2.9553c0 5.0523-.286 7.15 1.6205 10.6766s9.5328 3.5271 12.4879 6.5776c2.2878 2.3831 6.7682 1.7158 9.7234 1.7158 2.0972 0 4.385.0954 8.5794.0954 3.6224 0 10.0093-1.2393 12.6785-1.2393 2.1925 0 5.529-3.2411 6.1963-4.5757 1.9065-3.8131 6.2916-.9533 7.8168-3.9084 2.0972-3.8135 1.9065-4.0035 1.9065-9.2467z"/><circle cx="14.299" cy="14.395" r="2.86" fill="#ea5a47"/><g fill="none" stroke="#000" stroke-width="2"><path stroke-linecap="round" stroke-linejoin="round" d="M4.7667 40.9908c2.86 0 8.5794 2.86 14.299 2.86s9.5327-2.86 15.2524-2.86 10.4859 2.86 15.2523 2.86 6.6729-2.86 14.2991-2.86M43.8508 48.617a19.97 19.97 0 0 0 5.72.9533c2.5738 0 4.385-.858 6.6729-1.6206m-44.0415.572a26.5085 26.5085 0 0 0 6.8635 1.0483c5.72 0 9.5327-2.86 15.2524-2.86m-9.5328 8.58c3.05-.858 5.91-2.0019 9.5328-2.0019 4.1943 0 7.9121 1.5252 11.4392 2.3832"/><circle cx="14.299" cy="14.395" r="2.86" stroke-miterlimit="10"/><circle cx="33.364" cy="19.161" r="3" stroke-miterlimit="10"/><path stroke-linecap="round" stroke-linejoin="round" d="M28.5981 40.9908v-6.6729a11.7283 11.7283 0 0 0-.4766-3.3364c-.286-.7627-.4766-1.43-.4766-1.43m12.3925 3.8131l-.9533 7.6262M17.0636 15.2525l2.3831 6.7682a4.1985 4.1985 0 0 0 2.4785 2.2879l3.9084.9532a16.7367 16.7367 0 0 0 3.7178.572l8.5794.6673a6.0312 6.0312 0 0 1 3.2412 1.5252l.1906.1907a11.0074 11.0074 0 0 1 2.0019 3.1458l.7626 2.0972c.3813.9532.9533 2.5738 1.3346 3.5271l2.7645 6.3869"/></g></svg>