<svg xmlns="http://www.w3.org/2000/svg" role="img" viewBox="14.88 10.00 42.13 52.00"><title>1F935-200D-2642-FE0F.svg</title><path fill="#f4aa41" d="M26 38c-3 0-4-7-4-14 0-6 5-12 14-12s14 6 14 12c0 7-1 14-4 14"/><path fill="#fcea2b" d="M24.8422 30.5c-.1015 7.999 4.0635 14 11 14 7.0635 0 11.0635-6 11.0635-14 0-5-3-10-3-10-8 0-10 3-16 1a17.0768 17.0768 0 0 0-3.0635 9z"/><path fill="#fff" d="M54.9375 60.9063s2-13.7973-10-13.7973c-3.1919 2.1192-5.9264 3.5837-9 3.5775h.125c-3.0736.0062-5.8082-1.4583-9-3.5775-12 0-10 13.7973-10 13.7973"/><path d="M27.0625 47.109c-12 0-10 13.9674-10 13.9674h15.8934s-4.4214-3.2647-5.8934-13.9674m17.875 0c12 0 10 13.9674 10 13.9674H39.19s5.4224-7.4433 5.748-13.9674" fill="#3f3f3f"/><path d="M33.6927 50.5983S32.4864 56.62 36 56.62s2.3072-6.0214 2.3072-6.0214"/><path fill="#3f3f3f" d="M35.15 56.8023L32.7344 60.44c-3.63-1.7539-5.6719-12.9622-5.6719-12.9622l-5.1046 6.9347 2.974 1.842-.9985 3.1134 8.8689 1.0721m4.0477-3.6377l2.4155 3.6377c3.63-1.7539 5.672-12.9622 5.672-12.9622l5.1045 6.9347-2.974 1.842.9985 3.1134-8.8689 1.0721"/><path d="M36 55.569l-4.353 5.507h8.641L36 55.569z"/><g><path d="M41.873 30a2 2 0 1 1-2-2 2 2 0 0 1 2 2m-8 0a2 2 0 1 1-2-2 2 2 0 0 1 2 2"/><path fill="none" stroke="#000" stroke-linecap="round" stroke-linejoin="round" stroke-width="2" d="M32.873 38.25a8.2737 8.2737 0 0 0 6 0M26 38c-3 0-4-7-4-14 0-6 5-12 14-12s14 6 14 12c0 7-1 14-4 14"/><path d="M41.873 30a2 2 0 1 1-2-2 2 2 0 0 1 2 2m-8 0a2 2 0 1 1-2-2 2 2 0 0 1 2 2"/><path fill="none" stroke="#000" stroke-linejoin="round" stroke-width="2" d="M24.9365 31c-.1015 7.999 4.9365 14 11 14C41.873 45 47 39 47 31c0-5-3-11-3-11-8 0-10 3-16 1 0 0-3 5-3.0635 10z"/><path fill="none" stroke="#000" stroke-linecap="round" stroke-linejoin="round" stroke-width="2" d="M32.873 38.25a8.2737 8.2737 0 0 0 6 0m-5.1803 12.1619S32.4864 56.4334 36 56.4334s2.3072-6.0215 2.3072-6.0215"/><path fill="none" stroke="#000" stroke-linecap="round" stroke-linejoin="round" stroke-width="2" d="M35.15 56.4334l-2.4152 3.6377c-3.63-1.7538-5.6719-12.9621-5.6719-12.9621l-5.1046 6.9346 2.974 1.842-.9985 3.1134 8.8689 1.0721zm1.7 0l2.4151 3.6377c3.63-1.7538 5.672-12.9621 5.672-12.9621l5.1045 6.9346-2.974 1.842.9985 3.1134-8.8689 1.0721z"/><path fill="none" stroke="#000" stroke-linecap="round" stroke-linejoin="round" stroke-width="2" d="M17.0625 60.109s-2-13 10-13c3.1918 2.1279 5.9264 3.5984 9 3.5921h-.125c3.0736.0063 5.8081-1.4642 9-3.5921 12 0 10 13 10 13"/></g></svg>