<svg xmlns="http://www.w3.org/2000/svg" role="img" viewBox="14.54 3.92 42.29 56.29"><title>1F934-1F3FE.svg</title><path fill="#FFA7C0" d="M54.5509 58.8718s2-13.7973-10-13.7973c-3.1918 2.1192-5.9264 3.5837-9 3.5775h.125c-3.0736.0062-5.8081-1.4583-9-3.5775-12 0-10 13.7973-10 13.7973"/><path fill="#FFF" d="M35.832 57.664l-2.906-5.035-2.907-5.034h11.626l-2.906 5.034z"/><path fill="none" d="M47.6172 27.8152c0-1.1581-.1111-2.2838-.3208-3.3613-.7817-4.0178-2.9333-7.3654-5.8015-9.2263-1.5615-1.0131-3.3354-1.5856-5.2163-1.5856-6.2621 0-11.3385 6.3456-11.3385 14.1732 0 7.8277 5.0764 14.1733 11.3385 14.1733 6.2622 0 11.3386-6.3456 11.3386-14.1733zm-8.1933-9.4107c-.0034-.463-3.2918 6.1828-13.917 2.8403"/><path fill="#FCEA2B" d="M31.47 16.638l.001-9.743 3.116 2.651 1.415-3.545L37.47 9.41l2.845-2.515v9.743z"/><path fill="#E67A94" d="M26.7074 45.5127s8.353 8.1081 9.1847 12.6615l-.0009-.0399-1.1954.0321c-7.9884 0-5.061-4.7397-5.061-4.7397-8.7662 0-2.8498-8.2603-2.8498-8.2603"/><path fill="#E67A94" d="M44.9413 45.5127s-8.353 8.1081-9.1847 12.6615l.0009-.0399 1.1954.0321c7.9884 0 5.0609-4.7397 5.0609-4.7397 8.7663 0 2.8499-8.2603 2.8499-8.2603"/><g><path d="M30.836 10.0039c-2.1058.8958-3.9799 2.6516-5.6162 4.2515 0 0-2.2375 3.282-3.3208 4.9348 0 0-1.687-.2842-3.2671-1.7638 0 0-.4349 6.6434 7.5762 7.5773 0 0 2.8585.0224 6.1913-2.8192l1.5839-.5867c.0505.0004.0996.0028.1504.0028 3.5746 0 6.4724-1.0792 6.4724-2.4105 0-.0146-.0052-.0287-.0059-.0433l.0827-.0306s1.8004-.3126 3.5826-3.5399c1.0088-1.8269-.5858-4.5801-3.7686-5.9411l.0153 7.3184-9.6546-.0311-.0216-6.9186z"/><path d="M42.0901 15.2276c4.1993.1683 5.4644 3.9222 5.2347 9.2263l-.0027.0005c-2.7022 2.0473-7.303-6.0499-7.303-6.0499l2.071-3.1769z"/></g><g><path fill="#a57939" d="M35.9652 21.5023c8.3683-4.5936 8.1936 3.2838 10.7847 2.6929.3595 1.3815.5538 2.8562.5538 4.3876 0 7.8277-5.0764 14.1733-11.3385 14.1733s-11.3385-6.3456-11.3385-14.1733c0-1.3929.1607-2.7388.4603-4.0104 5.2644.1714 5.7304-3.0701 10.8782-3.0701z"/></g><g><path d="M41.8791 27.0302c0 1.1045-.8965 2-2 2s-2-.8955-2-2c0-1.1035.8965-2 2-2s2 .8965 2 2m-8 0c0 1.1045-.8965 2-2 2s-2-.8955-2-2c0-1.1035.8965-2 2-2s2 .8965 2 2m1.9999 10.0024c-1.1519 0-2.3037-.2861-3.4473-.8579-.4941-.2471-.6943-.8476-.4472-1.3418.2466-.4936.8462-.6943 1.3418-.4473 1.7177.8594 3.3877.8594 5.1054 0 .4947-.247 1.0948-.0463 1.3418.4473.2471.4942.0469 1.0947-.4472 1.3418-1.1436.5718-2.2954.8579-3.4473.8579z"/><path fill="none" stroke="#000" stroke-miterlimit="10" stroke-width="2" d="M24.9194 24.7438c-.2472 1.1637-.379 2.3862-.379 3.6472 0 7.8277 5.0765 14.1732 11.3386 14.1732s11.3386-6.3455 11.3386-14.1732c0-1.1581-.1111-2.2838-.3208-3.3613"/><path fill="none" stroke="#000" stroke-linecap="round" stroke-linejoin="round" stroke-miterlimit="10" stroke-width="2" d="M16.8191 57.883s-2-13 10-13c3.1918 2.1279 5.9264 3.5984 9 3.5921h-.125c3.0736.0063 5.8081-1.4642 9-3.5921 12 0 10 13 10 13M31.47 16.638l.001-9.743 3.116 2.651 1.415-3.545L37.47 9.41l2.845-2.515v9.743z"/><path fill="none" stroke="#000" stroke-linecap="round" stroke-linejoin="round" stroke-miterlimit="10" stroke-width="2" d="M26.7074 45.5127s8.353 8.1081 9.1847 12.6615l-.0009-.0399-1.1954.0321c-7.9884 0-5.061-4.7397-5.061-4.7397-8.7662 0-2.8498-8.2603-2.8498-8.2603"/><path fill="none" stroke="#000" stroke-linecap="round" stroke-linejoin="round" stroke-miterlimit="10" stroke-width="2" d="M44.9413 45.5127s-8.353 8.1081-9.1847 12.6615l.0009-.0399 1.1954.0321c7.9884 0 5.0609-4.7397 5.0609-4.7397 8.7663 0 2.8499-8.2603 2.8499-8.2603m-.68-29.347c2.6323 2.029 4.1215 5.5213 4.1007 8.3759l-.0026.0005c-2.7022 2.0473-6.7361-4.9161-6.7361-4.9161l2.638-3.4603zm-15.5108-3.4702c-1.1387.7329-2.1947 1.5972-3.1667 2.5476 0 0-2.8375 2.382-3.9208 4.0348 0 0-1.687-.2843-3.2671-1.7638 0 0-.435 6.6434 7.5762 7.5773 0 0 2.8585.3058 6.1913-2.5357m9.7151-3.2131c-.0034-.463-4.7091 5.3323-15.3343 1.9899m17.7171-5.1668s.7576-1.7372-1.1344-3.4702"/></g></svg>