<svg xmlns="http://www.w3.org/2000/svg" role="img" viewBox="5.20 8.82 61.23 53.23"><title>1F937-1F3FD-200D-2640-FE0F.svg</title><path fill="#92d3f5" d="M22.8717 39.0005s-4 1-4 3l2 2a35.36 35.36 0 0 1 1 6c0 2-1 11-1 11h30s-2-15-1-16l3-3c0-2-4-3-4-3"/><g fill="#c19a65"><path d="M24.8717 31.0005c0 9 4.9365 14 11 14 5.9365 0 11.0635-5 11.0635-14a12.1332 12.1332 0 0 0-1-5C43.6887 22.8028 40.7434 19 40.7434 19c-4 3-7.255 5.9946-13.1492 8.4027 0-.0005-2.7225-1.4022-2.7225 3.5978zm-11.0317 30l2.937-12.3057-.9375-1.25-4-3-4-6a1.4142 1.4142 0 1 1 2-2l4 4c1 1 2 1 5 2s3.1308 3.2373 3 5c-.666 8.9727-1 13.5557-1 13.5557"/><path d="M19.8629 42.89S18.8395 40 17.7457 37c-.4316-1.1816-1.9062-1.0312-1.9062-.166v3.69m42.0644 20.4765l-2.9375-12.3057.9375-1.25 4-3 4-6a1.4142 1.4142 0 0 0-2-2l-4 4c-1 1-2 1-5 2s-3.1308 3.2373-3 5c.667 8.9727 1 13.5557 1 13.5557"/><path d="M51.8815 42.89S52.9039 40 53.9977 37c.4306-1.1816 1.9062-1.0312 1.9062-.166v3.69"/></g><path fill="#6a462f" d="M54.0641 33.4987c-1.5667-.7289-4.1927-8.9038-4.1927-8.9038.3093-10.3035-7.4984-10.27-7.4984-10.27-1.6565-3.5694-8.6283-2.6173-8.6283-2.6173-12.24-.2651-13.6019 12.49-13.6019 12.49 2.0872 2.3522-1.9546 9.1108-1.9546 9.1108l-1.1265 2.1534 2.7 4.9723c1.8684-1.557 6.3619-2.1681 6.3619-2.1681.4173.5534.8294 1.05 1.2389 1.521a23.5766 23.5766 0 0 1-2.447-9.7862c1.2917-2.7882 15.76-10.7785 15.76-10.7785 3.6094 1.4314 6.0685 9.5155 6.0685 9.5155a23.9989 23.9989 0 0 1-1.3872 9.6794c4.5278.1711 6.667 2.0694 6.667 2.0694L54.789 35.39z"/><path d="M41.7447 30.0005a2 2 0 1 1-2-2 2 2 0 0 1 2 2m-8 0a2 2 0 1 1-2-2 2 2 0 0 1 2 2"/><path fill="none" stroke="#000" stroke-linecap="round" stroke-linejoin="round" stroke-width="2" d="M33.9557 38.0005a11.5 11.5 0 0 0 3.9365 0m-24.0522 22l2.937-11.3057-.9375-1.25-4-3-4-6a1.4142 1.4142 0 1 1 2-2l4 4c1 1 2 1 5 2s3.1308 3.2373 3 5c-.666 8.9727-1 12.5557-1 12.5557"/><path fill="none" stroke="#000" stroke-linecap="round" stroke-linejoin="round" stroke-width="2" d="M19.8629 42.89S18.8395 40 17.7457 37c-.4316-1.1816-1.9062-1.0312-1.9062-.166v3.69m42.0644 19.4765l-2.9375-11.3057.9375-1.25 4-3 4-6a1.4142 1.4142 0 0 0-2-2l-4 4c-1 1-2 1-5 2s-3.1308 3.2373-3 5c.667 8.9727 1 12.5557 1 12.5557"/><path fill="none" stroke="#000" stroke-linecap="round" stroke-linejoin="round" stroke-width="2" d="M51.8815 42.89S52.9039 40 53.9977 37c.4306-1.1816 1.9062-1.0312 1.9062-.166v3.69m-33.0319-.523l3-1m19.901-.182l3.543 1.182m-30.3768-6.0891c.2784-.633.5537-1.2686.8042-1.9124 1.6357-4.2-.209-6.4512 1.291-12.0342C22.5139 14.4653 28.3117 11 34.7434 11c5.4 0 8 3 8 3a8.1321 8.1321 0 0 1 7.4052 8.0371c.3639 6.756.95 7.1305 3.0212 11.8753"/><path fill="none" stroke="#000" stroke-linejoin="round" stroke-width="2" d="M24.7434 31c0 8 5 14 11 14s11-6 11-14c0-5-2-8-6-12-4 4-16 9-16 11z"/></svg>