<svg xmlns="http://www.w3.org/2000/svg" role="img" viewBox="2.84 6.84 60.58 60.20"><title>1F93A.svg</title><g fill="#FCEA2B"><circle cx="44.969" cy="12.094" r="3"/><path d="M52.5 25L54 37l1.1172 16.083L56.7002 65h-3.2998L49.791 53 48 42h-2l-6.8379 8.3535L40.5996 65h-3.2998l-3.4014-15.25L42 37l-1.5-12s-.458-1.042-.625-.75-.542 5-3.125 7.375c-2.0586 1.8936-5.416 1.084-7.125-.208s-.542-2.875-.542-2.875l3.375 1.167 2.334-.375 1.708-4.667 2.167-3.292 6.041-2.083 5.834.458 5.583 3.0835 2.667 4.375 1.25-9.1665s2.374-.333 2.291 1.75c0 0-.209 7.3838-.958 8.583-.833 1.333-3.209 3-5.375.542l-2.833-4.667"/></g><g fill="none" stroke="#000" stroke-miterlimit="10" stroke-width="2"><circle cx="44.969" cy="12.094" r="3"/><path stroke-linecap="round" stroke-linejoin="round" d="M60 19l-.6133 7.0112c-.1445 1.6441-.9297 1.8155-1.7461.3819l-2.1562-3.7862c-.8164-1.4336-2.8262-2.7558-4.4658-2.938l-3.0372-.3378c-1.6396-.1822-4.2793.04-5.8662.4931l-1.2304.3516c-1.5869.4531-3.2871 2.1128-3.7793 3.6875l-1.336 4.2734c-.4922 1.5752-1.9912 2.4131-3.332 1.8633C31.0967 29.4502 30 29 30 29"/><path stroke-linecap="round" stroke-linejoin="round" d="M52.5 25l1.252 10.0156c.1367 1.0918.3105 2.8819.3867 3.9795l.8398 12.0928c.0762 1.0976.2569 2.8877.4024 3.9775l1.0556 7.9522C56.582 64.1074 55.958 65 55.0508 65c-.9082 0-1.9092-.8623-2.2266-1.915l-2.457-8.17c-.3174-1.0527-.7207-2.8037-.8975-3.8886l-1.1484-7.0528C48.1445 42.8887 47.5498 42 47 42s-1.5703.6963-2.2666 1.5479l-4.3047 5.2578c-.6963.8515-1.1787 2.4433-1.0713 3.5381l1.0469 10.666C40.5117 64.1045 39.8574 65 38.9492 65c-.9072 0-1.8457-.8789-2.0849-1.9521L34.334 51.7021c-.2393-1.0732.0469-2.7119.6367-3.6406l5.957-9.373c.5899-.9287.961-2.5811.8243-3.6729L40.5 25M28 25l-2 4M5 15l22 12"/></g></svg>