<svg xmlns="http://www.w3.org/2000/svg" role="img" viewBox="10.00 26.00 51.87 42.87"><title>1F943.svg</title><g id="line-supplement"><path id="xx" fill="none" stroke="#000" stroke-linecap="round" stroke-linejoin="round" stroke-miterlimit="10" stroke-width="2" d="M36.8 37L58.4 37"/></g><g id="color"><path fill="#F4AA41" d="M12.9 36L16.5 67 55.5 67 59.1 36z"/><path fill="#E27022" d="M45.1 36L41.5 67 55.5 67 59.1 36z"/><path fill="#FFF" d="M38.214 48.514H51.513999999999996V62.114000000000004H38.214z" transform="rotate(-80.967 44.864 55.314)"/><path fill="#FFF" d="M18.808 35.891H33.309V48.590999999999994H18.808z" transform="rotate(-17.547 26.057 42.24)"/></g><g id="line" fill="none" stroke="#000" stroke-linecap="round" stroke-linejoin="round" stroke-miterlimit="10"><path stroke-width="2" d="M60 28L55.5 67 16.5 67 12 28"/><path stroke-width="1.792" d="M38.214 48.514H51.513999999999996V62.114000000000004H38.214z" transform="rotate(-80.967 44.864 55.314)"/><path stroke-width="1.808" d="M18.808 35.891H33.309V48.590999999999994H18.808z" transform="rotate(-17.547 26.057 42.24)"/></g></svg>