<svg xmlns="http://www.w3.org/2000/svg" role="img" viewBox="10.68 1.68 50.52 68.64"><title>1F949.svg</title><path fill="#e27022" d="M28.028 22.427V17h15.944v5.427"/><circle cx="36" cy="45.021" r="23" fill="#e27022" stroke-linecap="round" stroke-linejoin="round" stroke-miterlimit="10" stroke-width="2"/><path fill="#92d3f5" stroke="#92d3f5" stroke-linecap="round" stroke-linejoin="round" stroke-miterlimit="10" stroke-width="1.8" d="M54.999 4.022L43 16.021h-7l-5.042-5.042 6.963-6.962h17.078"/><path fill="#ea5a47" stroke="#ea5a47" stroke-linecap="round" stroke-linejoin="round" stroke-miterlimit="10" stroke-width="1.8" d="M23.983 4.004L36 16.021h-7L16.968 3.988h7.015"/><g fill="none" stroke="#000" stroke-miterlimit="10" stroke-width="2"><circle cx="36" cy="45.021" r="23"/><circle cx="36" cy="45.021" r="23" stroke-linecap="round" stroke-linejoin="round"/><path stroke-linecap="round" stroke-linejoin="round" d="M29 19v-2.979M43 19v-2.979m-14 0h14M25.99 13.01l-9.022-9.022M31.99 12.01l-8.007-8.006M34 8l3.921-3.983M46 13l8.999-8.978m-38.031-.034h7.015m13.938.029h17.078M28.8327 52.81c.6838 2.9621 3.6397 5.19 7.1827 5.19h0c4.0493 0 7.3316-2.9101 7.3316-6.5S40.0647 45 36.0154 45c4.0493 0 7.3316-2.9101 7.3316-6.5S40.0647 32 36.0154 32h0c-3.543 0-6.4989 2.2282-7.1827 5.19"/></g></svg>