<svg xmlns="http://www.w3.org/2000/svg" role="img" viewBox="10.00 15.00 51.87 41.62"><title>1F94C.svg</title><path fill="#d22f27" d="M30 17h16v3H30zm-2 0h2v6h-4v-4a2 2 0 0 1 2-2zm-4 8h25v3H24z"/><path fill="#9b9b9a" d="M15.0235 45.3165l43.7822-.014A5.12 5.12 0 0 1 59 47.9306a6.665 6.665 0 0 1-3 3.8994 12.842 12.842 0 0 1-4.46 2.1093c-6.4185 1.5916-14.5788.9581-22.54.815-1.5659-.0281-3.9957-.053-7 0a11.7664 11.7664 0 0 1-6-2.9243c-1.9575-1.84-3.823-5.0163-2.8989-6.1266.4139-.4976 1.2965-.4705 1.9224-.3869zM59 40H13a5.281 5.281 0 0 1-1-3.3854c.2236-2.9774 3.4077-5.7207 8-6.7707 4.2214-.4553 8.91-.7783 14-.8463a149.3349 149.3349 0 0 1 18 .8463c4.98 1.5891 8.1729 4.6559 8 7.6171A4.6653 4.6653 0 0 1 59 40z"/><path fill="#3f3f3f" d="M47.1538 28A14.0551 14.0551 0 0 0 41 29.42a13.3317 13.3317 0 0 1 0 24.16A14.0551 14.0551 0 0 0 47.1538 55a13.5043 13.5043 0 1 0 0-27z"/><path fill="#9b9b9a" d="M60 42.5a14.3243 14.3243 0 0 0-.2271-2.5H48.446a13.8981 13.8981 0 0 1 0 5h11.3269A14.3252 14.3252 0 0 0 60 42.5z"/><g fill="none" stroke="#000" stroke-linecap="round" stroke-linejoin="round" stroke-width="2"><path d="M26 17h4v7h-4z"/><rect width="48" height="25.6" x="12" y="29.067" rx="12"/><rect width="48" height="5" x="12" y="40" rx="2.5"/><rect width="26" height="4" x="23" y="25" rx="2"/><path d="M44.5 20H30v-3h14.5a1.5 1.5 0 0 1 0 3z"/></g></svg>