<svg xmlns="http://www.w3.org/2000/svg" role="img" viewBox="9.97 8.22 51.82 53.82"><title>1F941.svg</title><path fill="#EA5A47" d="M58.7568 59.0674V37.2188H13.0186v21.8486h45.7382z"/><path fill="#a57939" d="M23.9005 30.2761c.29.3853.7142.6346 1.1935.7018.4827.0603.9547-.0583 1.3402-.3482v-.0018c.7974-.5995.9565-1.7382.3554-2.5346-.3554-.4713-.8982-.7197-1.4463-.7197-.3802 0-.762.1186-1.0874.3643-.7974.6011-.9565 1.7407-.3554 2.5382zm22.623.2631c.6857-.8679.5369-2.1317-.3291-2.8185-.3683-.2909-.8073-.432-1.2443-.432-.5917 0-1.1793.2617-1.5752.7613-.6857.8669-.5389 2.1307.3293 2.8185.4231.331.9502.4897 1.4772.4193.5329-.0628 1.009-.3293 1.3421-.7486z"/><path fill="#D22F27" d="M47.6811 54.4482l-.0571 4.6192h11.1328V37.2188H47.894l-.0804 6.5125.08-.0038c.5527 0 1 .4473 1 1v8.7442c0 .5527-.4473 1-1 1l-.2125-.0235z"/><g fill="none" stroke="#000" stroke-linecap="round" stroke-linejoin="round" stroke-miterlimit="10" stroke-width="2"><path d="M35.815 44.728v8.744m-12.079-8.744v8.744m24.158-8.744v8.744"/><circle cx="25.34" cy="29.179" r="2" transform="rotate(-37.022 25.341 29.181)"/><path d="M38.775 19.046l11.518-8.687M26.937 27.975l5.041-3.802"/><circle cx="44.944" cy="29.234" r="2" transform="rotate(-51.655 44.946 29.234)"/><path d="M21.337 10.562l22.038 17.431m-31.357 8.226h47.739v23.849H12.018z"/></g></svg>