<svg xmlns="http://www.w3.org/2000/svg" role="img" viewBox="29.74 10.11 15.71 52.72"><title>1F944.svg</title><path fill="#D0CFCE" stroke-linecap="round" stroke-linejoin="round" stroke-miterlimit="10" stroke-width="2" d="M43.4573 21.3227c0-5.0582-2.6112-9.1586-5.8323-9.1586s-5.8323 4.1004-5.8323 9.1586c0 4.6982 1.3551 8.5665 4.257 9.0938l-.8108 28.4123c0 1.1046.8954 2 2 2s2-.8954 2-2l-.0285-28.4181c2.8967-.5347 4.2469-4.3954 4.2469-9.088z"/><path fill="none" stroke="#000" stroke-linecap="round" stroke-linejoin="round" stroke-miterlimit="10" stroke-width="2" d="M43.4573 21.3227c0-5.0582-2.6112-9.1586-5.8323-9.1586s-5.8323 4.1004-5.8323 9.1586c0 4.6982 1.3551 8.5665 4.257 9.0938h0l-.8108 28.4123c0 1.1046.8954 2 2 2s2-.8954 2-2l-.0285-28.4181h0c2.8967-.5347 4.2469-4.3954 4.2469-9.088z"/></svg>