<svg xmlns="http://www.w3.org/2000/svg" role="img" viewBox="7.38 13.88 58.50 44.50"><title>1F94F.svg</title><ellipse cx="36" cy="30.5" fill="#92d3f5" rx="11.533" ry="27.882" transform="rotate(-70 36 30.5)"/><path fill="#61b2e4" d="M62.2 40.0361c-2.1785 5.9856-15.6748 6.5684-30.1447 1.3018s-17.22-8.3093-14.0934-12.5391c.9582-1.2961 5.2447 4.3094 21.9827 10.0928 14.5543 5.0289 24.434-4.8411 22.2554 1.1445z"/><g fill="none" stroke="#000" stroke-linecap="round" stroke-linejoin="round" stroke-width="2"><ellipse cx="36" cy="30.5" rx="6.799" ry="21.979" transform="rotate(-69.796 36 30.5)"/><ellipse cx="36" cy="30.5" rx="11.533" ry="27.882" transform="rotate(-70 36 30.5)"/><path d="M39.8023 52.363c2.8865 1.5925 21.926 6.78 23.98 1.8M37.778 48.8451c2.3577 1.41 18.0633 6.2843 19.919 2.1969"/></g></svg>