<svg xmlns="http://www.w3.org/2000/svg" role="img" viewBox="5.84 5.84 60.19 60.19"><title>1F94E.svg</title><g id="color"><circle cx="36" cy="36" r="28" fill="#fcea2b"/></g><g id="line" fill="none" stroke-width="2"><path stroke-linecap="round" stroke-linejoin="round" d="M23.111 58.006L21.594 53.799 17.319 52.488M27.658 51.94L25.199 48.205 20.736 47.93M30.692 45.113L27.415 42.069 23.014 42.864M31.997 37.918L28.076 35.767 24.003 37.613M31.295 29.888L26.963 28.777 23.475 31.576M28.666 21.957L24.194 21.938 21.496 25.505M24.457 15.353L20.109 16.399 18.336 20.505M49.889 58.006L51.406 53.799 55.681 52.488M45.342 51.94L47.801 48.205 52.264 47.93M42.308 45.113L45.585 42.069 49.986 42.864M41.003 37.918L44.924 35.767 48.997 37.613M41.705 29.888L46.037 28.777 49.525 31.576M44.334 21.957L48.806 21.938 51.504 25.505M48.543 15.353L52.891 16.399 54.664 20.505"/><path stroke="#000" stroke-linecap="round" stroke-miterlimit="10" d="M18 14.5579a27.9882 27.9882 0 0 1 0 42.8842M54.5 14.991a27.98 27.98 0 0 0 0 42.018"/><path stroke="#000" stroke-linecap="round" stroke-linejoin="round" d="M23.111 58.006L21.594 53.799 17.319 52.488M27.658 51.94L25.199 48.205 20.736 47.93"/><path stroke="#000" stroke-linecap="round" stroke-linejoin="round" d="M27.658 51.94L25.199 48.205 20.736 47.93M30.692 45.113L27.415 42.069 23.014 42.864M31.997 37.918L28.076 35.767 24.003 37.613M31.295 29.888L26.963 28.777 23.475 31.576M28.666 21.957L24.194 21.938 21.496 25.505M24.457 15.353L20.109 16.399 18.336 20.505M49.889 58.006L51.406 53.799 55.681 52.488M45.342 51.94L47.801 48.205 52.264 47.93M42.308 45.113L45.585 42.069 49.986 42.864M41.003 37.918L44.924 35.767 48.997 37.613M41.705 29.888L46.037 28.777 49.525 31.576M44.334 21.957L48.806 21.938 51.504 25.505M48.543 15.353L52.891 16.399 54.664 20.505"/><circle cx="36" cy="36" r="28" stroke="#000" stroke-miterlimit="10"/></g><g id="color-foreground" fill="none" stroke="#d22f27" stroke-linecap="round" stroke-linejoin="round" stroke-width="2"><path d="M23.111 58.006L21.594 53.799 17.319 52.488M27.658 51.94L25.199 48.205 20.736 47.93M30.692 45.113L27.415 42.069 23.014 42.864M31.997 37.918L28.076 35.767 24.003 37.613M31.295 29.888L26.963 28.777 23.475 31.576M28.666 21.957L24.194 21.938 21.496 25.505M24.457 15.353L20.109 16.399 18.336 20.505M49.889 58.006L51.406 53.799 55.681 52.488M45.342 51.94L47.801 48.205 52.264 47.93M42.308 45.113L45.585 42.069 49.986 42.864M41.003 37.918L44.924 35.767 48.997 37.613M41.705 29.888L46.037 28.777 49.525 31.576M44.334 21.957L48.806 21.938 51.504 25.505M48.543 15.353L52.891 16.399 54.664 20.505"/></g></svg>