<svg xmlns="http://www.w3.org/2000/svg" role="img" viewBox="13.59 8.96 47.45 53.95"><title>1F955.svg</title><path fill="#F4AA41" stroke="#f4aa41" stroke-linecap="round" stroke-linejoin="round" stroke-miterlimit="10" stroke-width="2" d="M43.8744 19.1062c-2.3448.8863-5.1547 3.1861-7.338 6.2834L18.5417 50.9171c-6.5373 9.2739-.804 13.9743 7.0082 5.7457l21.504-22.6504c4.2279-4.4533 6.0798-10.1092 3.8963-11.8994l-3.5093-2.8771c-.836-.6854-2.1117-.6796-3.5665-.1297"/><path fill="#d22f27" stroke="#d22f27" stroke-linejoin="round" stroke-miterlimit="10" stroke-width="2" d="M51.735 23.36c-.13-.46-.34-.85-.66-1.14"/><path fill="#E27022" stroke="#E27022" stroke-linecap="round" stroke-linejoin="round" stroke-width="2" d="M51.695 26c-.1.46-.24.94-.42 1.44-.05.15-.11.31-.1801.46-.06.17-.1299.34-.21.5-.09.21-.19.41-.29.62-.43.86-.96 1.75-1.59 2.6201-.12.18-.25.35-.39.53-.13.18-.28.37-.42.55-.36.44-.74.87-1.14 1.29l-21.51 22.65c-3.66 3.86-6.86 4.87-8.56 3.9 6.4143.1209 35.7538-37.3765 34.09-40.16.0001-.0001 1.3313 3.8811.6201 5.5999z"/><path fill="#B1CC33" stroke="#B1CC33" stroke-linejoin="round" stroke-miterlimit="10" stroke-width="2" d="M48.3844 13.6361c.926-1.558 2.003-2.5905 2.003-2.5905s1.8608 1.0058 1.8355 3.6491c2.357-2.2668 4.8651-2.6375 4.8651-2.6375s-.0095 2.5317-1.913 5.1908c.6025-.094 1.1372-.0757 1.5959.0135 1.5347.2795 2.2838 1.2805 2.2838 1.2805s-2.2545 3.1413-5.3876 4.0649c-.6449.194-1.2192.2554-1.7259.2386-1.9705-.0642-5.2636-2.639-4.804-5.8863.1736-1.2266.6823-2.3726 1.2472-3.3231"/><path fill="#5C9E31" d="M59.05 18.54s-2.25 3.14-5.38 4.07c-.65.19-1.22.25-1.73.24-.92-.04-2.14-.62-3.11-1.56l8.26-9.23s-.01 2.53-1.92 5.19c.61-.1 1.14-.08 1.6.01 1.54.28 2.28 1.28 2.28 1.28z"/><g fill="none" stroke="#000" stroke-linejoin="round" stroke-miterlimit="10" stroke-width="2"><path stroke-linecap="round" d="M42.2577 19.8977c-1.9435 1.1541-4.0222 3.0815-5.7213 5.4919L18.5417 50.9171c-6.5373 9.2739-.804 13.9743 7.0082 5.7457l21.504-22.6504c1.9941-2.1004 3.4596-4.4682 4.2225-6.5719"/><path d="M48.3844 13.6361c.926-1.558 2.003-2.5905 2.003-2.5905s1.8608 1.0058 1.8355 3.6491c2.357-2.2668 4.8651-2.6375 4.8651-2.6375s-.0095 2.5317-1.913 5.1908c.6025-.094 1.1372-.0757 1.5959.0135 1.5347.2795 2.2838 1.2805 2.2838 1.2805s-2.2545 3.1413-5.3876 4.0649c-.6449.194-1.2192.2554-1.7259.2386-1.9705-.0642-5.2636-2.639-4.804-5.8863.1736-1.2266.6823-2.3726 1.2472-3.3231"/></g></svg>