<svg xmlns="http://www.w3.org/2000/svg" role="img" viewBox="8.83 14.96 54.21 31.96"><title>1F950.svg</title><g fill="#f4aa41"><path d="M59.1074 36.1123l-8.0185 4.7686C51.5059 43.2207 53.541 45 56 45c2.7617 0 5-2.2393 5-5 0-1.5801-.748-2.9717-1.8926-3.8877zM42 17c1.1045 0 2 .8955 2 2l-3 15c0 1.1045-.8955 2-2 2h-6c-1.1045 0-2-.8955-2-2l-3-15c0-1.1045.8955-2 2-2h12z"/><path d="M53.4961 23.5762l-9.2051-3.9063c-.1308-.0556-.2656-.0947-.4004-.122L41 34c0 .8818-.5742 1.6221-1.3672 1.8877.2012.2539.459.4668.7774.6025l3.6816 1.5625c1.0176.4317 2.1914-.0429 2.623-1.0595l7.8418-10.794c.4317-1.0166-.0429-2.1914-1.0605-2.623z"/><path d="M60.4121 32.4785l-5.7558-5.5566c-.125-.1211-.2637-.2158-.4092-.2969l-7.5323 10.3682c-.1826.4316-.5039.7578-.8867.9668-.1308.6464.0567 1.3437.5664 1.8349l1.4395 1.3897c.7949.7675 2.0605.7451 2.8281-.0498l9.7988-5.8282c.7676-.7949.7452-2.0605-.0488-2.8281zm-47.5195 3.6338l8.0185 4.7686C20.4941 43.2207 18.459 45 16 45c-2.7617 0-5-2.2393-5-5 0-1.5801.748-2.9717 1.8926-3.8877zm5.6113-12.5361l9.2051-3.9063c.1308-.0556.2656-.0947.4004-.122L31 34c0 .8818.5742 1.6221 1.3672 1.8877-.2012.2539-.459.4668-.7774.6025l-3.6816 1.5625c-1.0176.4317-2.1914-.0429-2.623-1.0595l-7.8418-10.794c-.4317-1.0166.0429-2.1914 1.0605-2.623z"/><path d="M11.5879 32.4785l5.7559-5.5566c.125-.1211.2636-.2158.4091-.2969l7.5323 10.3682c.1826.4316.5039.7578.8867.9668.1308.6464-.0567 1.3437-.5664 1.8349l-1.4395 1.3897c-.7949.7675-2.0605.7451-2.8281-.0498l-9.7988-5.8282c-.7676-.7949-.7452-2.0605.0488-2.8281z"/></g><g fill="none" stroke="#000" stroke-linecap="round" stroke-linejoin="round" stroke-miterlimit="10" stroke-width="2"><path d="M59.1074 36.1123l-8.0185 4.7686C51.5059 43.2207 53.541 45 56 45c2.7617 0 5-2.2393 5-5 0-1.5801-.748-2.9717-1.8926-3.8877zM42 17c1.1045 0 2 .8955 2 2l-3 15c0 1.1045-.8955 2-2 2h-6c-1.1045 0-2-.8955-2-2l-3-15c0-1.1045.8955-2 2-2h12z"/><path d="M53.4961 23.5762l-9.2051-3.9063c-.1308-.0556-.2656-.0947-.4004-.122L41 34c0 .8818-.5742 1.6221-1.3672 1.8877.2012.2539.459.4668.7774.6025l3.6816 1.5625c1.0176.4317 2.1914-.0429 2.623-1.0595l7.8418-10.794c.4317-1.0166-.0429-2.1914-1.0605-2.623z"/><path d="M60.4121 32.4785l-5.7558-5.5566c-.125-.1211-.2637-.2158-.4092-.2969l-7.5323 10.3682c-.1826.4316-.5039.7578-.8867.9668-.1308.6464.0567 1.3437.5664 1.8349l1.4395 1.3897c.7949.7675 2.0605.7451 2.8281-.0498l9.7988-5.8282c.7676-.7949.7452-2.0605-.0488-2.8281zm-47.5195 3.6338l8.0185 4.7686C20.4941 43.2207 18.459 45 16 45c-2.7617 0-5-2.2393-5-5 0-1.5801.748-2.9717 1.8926-3.8877zm5.6113-12.5361l9.2051-3.9063c.1308-.0556.2656-.0947.4004-.122L31 34c0 .8818.5742 1.6221 1.3672 1.8877-.2012.2539-.459.4668-.7774.6025l-3.6816 1.5625c-1.0176.4317-2.1914-.0429-2.623-1.0595l-7.8418-10.794c-.4317-1.0166.0429-2.1914 1.0605-2.623z"/><path d="M11.5879 32.4785l5.7559-5.5566c.125-.1211.2636-.2158.4091-.2969l7.5323 10.3682c.1826.4316.5039.7578.8867.9668.1308.6464-.0567 1.3437-.5664 1.8349l-1.4395 1.3897c-.7949.7675-2.0605.7451-2.8281-.0498l-9.7988-5.8282c-.7676-.7949-.7452-2.0605.0488-2.8281z"/></g></svg>