<svg xmlns="http://www.w3.org/2000/svg" role="img" viewBox="6.23 11.98 59.41 47.91"><title>1F96F.svg</title><g stroke-width="1.447"><path fill="#6a462f" d="M62.08 27.87q-.05948-.2026-.1342-.4107c-2.15-6.021-7.764-9.784-13.55-11.87a40.48 40.48 0 0 0-13.68-2.282c-.9065 0-1.818.03198-2.731.08683a39.63 39.63 0 0 1 11.45 2.195c5.787 2.083 11.4 5.847 13.55 11.87q.07453.2085.134.4107a4.409 4.409 0 0 1-1.557 5.012 17.33 17.33 0 0 1-5.465 2.953 56.24 56.24 0 0 1-17.84 2.983q1.228.03198 2.451.03198a59.52 59.52 0 0 0 20.35-3.015 17.33 17.33 0 0 0 5.465-2.953 4.409 4.409 0 0 0 1.557-5.012z"/><path fill="#a57939" d="M9.008 41.9q.05962.2334.1344.4739c2.156 6.947 7.784 11.29 13.59 13.69a35.81 35.81 0 0 0 13.72 2.633 33.34 33.34 0 0 0 19.5-5.818 20.2 20.2 0 0 0 7.601-9.872 8.818 8.818 0 0 0 .4687-3.731 5.495 5.495 0 0 0-2.076-3.524 19.45 19.45 0 0 0-6.427-3.57 55.16 55.16 0 0 0-19.07-2.954 52.51 52.51 0 0 0-20.4 3.479 21.82 21.82 0 0 0-3.415 1.756 12.6 12.6 0 0 0-2.063 1.651 5.549 5.549 0 0 0-1.562 5.783z"/><path fill="#fff" d="M8.14 31.26a4.311 4.311 0 0 0 .8959 4.128 3.72 3.72 0 0 0 3.249 1.255 7.3 7.3 0 0 0 2.872 7.592 6.265 6.265 0 0 0 8.082-.9586 4.261 4.261 0 0 0 2.646 3.207 4.29 4.29 0 0 0 3.451-.5726 6.589 6.589 0 0 0 6.004 5.031 6.495 6.495 0 0 0 6.527-5.112 3.539 3.539 0 0 0 3.775 1.275 4.157 4.157 0 0 0 2.726-2.294 6.221 6.221 0 0 0 7.605 1.14 7.42 7.42 0 0 0 3.339-7.917c1.3.4735 2.204-.4847 3.301-1.572.9599-.9511-1.364-4.515-1.447-5.789"/><path fill="#a57939" d="M63.74 27.87q-.05977-.2026-.1342-.4109c-2.15-6.021-7.764-9.784-13.55-11.87a40.48 40.48 0 0 0-13.68-2.282 36.95 36.95 0 0 0-19.45 5.042 18.17 18.17 0 0 0-7.772 9.044 4.659 4.659 0 0 0 1.793 5.8 20.39 20.39 0 0 0 6.411 3.094 62.67 62.67 0 0 0 19.02 2.561 59.52 59.52 0 0 0 20.35-3.015 17.34 17.34 0 0 0 5.465-2.953 4.409 4.409 0 0 0 1.557-5.012z"/><ellipse cx="36.37" cy="20.08" fill="#6a462f" rx="11.17" ry="2.234"/></g><path fill="none" stroke="#000" stroke-linecap="round" stroke-linejoin="round" stroke-miterlimit="7" stroke-width="2" d="M10.6 37.96q-.2063.162-.4043.334a4.407 4.407 0 0 0-1.557 5.01q.05945.2025.1339.4107c2.149 6.018 7.761 9.779 13.55 11.86a40.47 40.47 0 0 0 13.68 2.281 36.93 36.93 0 0 0 19.44-5.039 18.16 18.16 0 0 0 7.769-9.039 4.465 4.465 0 0 0-.8647-4.949"/><ellipse cx="35.99" cy="20.91" fill="none" stroke="#000" stroke-miterlimit="7" stroke-width="2" rx="11.17" ry="2.233"/><path fill="none" stroke="#000" stroke-miterlimit="7" stroke-width="2" d="M63.35 28.7c-2.149-6.018-7.895-10.19-13.68-12.27-4.395-1.542-9.023-2.313-13.68-2.281-6.821-.1483-13.55 1.596-19.44 5.039-3.533 2.053-6.27 5.238-7.769 9.039-.9166 2.11-.1548 4.574 1.793 5.798 1.938 1.398 4.107 2.445 6.408 3.092a62.6402 62.6402 0 0 0 19.01 2.559c6.904.1835 13.79-.8363 20.34-3.014 1.984-.6472 3.834-1.647 5.462-2.952 1.769-1.716 2.195-3.205 1.56-5.009z"/><circle cx="23.18" cy="28.33" r=".827" stroke-width="1.446"/><circle cx="31.45" cy="28.33" r=".827" stroke-width="1.446"/><circle cx="19.87" cy="23.37" r=".827" stroke-width="1.446"/><circle cx="29.79" cy="33.29" r=".827" stroke-width="1.446"/><circle cx="14.91" cy="28.33" r=".827" stroke-width="1.446"/><circle cx="39.71" cy="31.63" r=".827" stroke-width="1.446"/><circle cx="39.71" cy="26.67" r=".827" stroke-width="1.446"/><circle cx="44.67" cy="34.94" r=".827" stroke-width="1.446"/><circle cx="47.98" cy="26.67" r=".827" stroke-width="1.446"/><circle cx="51.28" cy="29.98" r=".827" stroke-width="1.446"/><circle cx="52.94" cy="21.71" r=".827" stroke-width="1.446"/><circle cx="56.24" cy="26.67" r=".827" stroke-width="1.446"/><path fill="none" stroke="#000" stroke-linecap="round" stroke-linejoin="round" stroke-miterlimit="7" stroke-width="2" d="M16.01 44.42a6.232 6.232 0 0 0 7.656-.8294 3.874 3.874 0 0 0 2.515 2.846 4.296 4.296 0 0 0 3.269-.4988 6.19 6.19 0 0 0 5.702 4.47 6.052 6.052 0 0 0 6.173-4.511 3.501 3.501 0 0 0 3.581 1.138 3.855 3.855 0 0 0 2.578-2.025 6.211 6.211 0 0 0 7.209 1.028"/><circle cx="22.56" cy="33.29" r=".827" stroke-width="1.446"/></svg>