<svg xmlns="http://www.w3.org/2000/svg" role="img" viewBox="2.72 14.72 66.43 42.43"><title>1F969.svg</title><path fill="#FFF" d="M26 27h-7c-7.7334 0-14 6.2666-14 14s6.2666 14 14 14h29c10.4951 0 19-8.5049 19-19s-8.5049-19-19-19c-5.6934 0-10.79 2.5137-14.2695 6.4805C31.8965 25.6514 29.0645 27 26 27z"/><path fill="#ea5a47" d="M29 31c2.5 0 4.5029-1.4141 6.8164-3.7266C39.2695 23.8213 42.9746 21 48 21c8.2842 0 15 6.7158 15 15s-6.7158 15-15 15H19c-5.5234 0-10-4.4775-10-10s4.4766-10 10-10l.0313-.9756 10.0312-.0312L29 31z"/><circle cx="48" cy="36" r="5" fill="#FFF"/><g fill="none" stroke="#000" stroke-linecap="round" stroke-linejoin="round" stroke-miterlimit="10" stroke-width="2"><path d="M29 31c2.5 0 4.5029-1.4141 6.8164-3.7266C39.2695 23.8213 42.9746 21 48 21c8.2842 0 15 6.7158 15 15s-6.7158 15-15 15H19c-5.5234 0-10-4.4775-10-10s4.4766-10 10-10"/><path d="M26 27h-7c-7.7334 0-14 6.2666-14 14s6.2666 14 14 14h29c10.4951 0 19-8.5049 19-19s-8.5049-19-19-19c-5.6934 0-10.79 2.5137-14.2695 6.4805C31.8965 25.6514 29.0645 27 26 27z"/><circle cx="48" cy="36" r="5"/></g></svg>