<svg xmlns="http://www.w3.org/2000/svg" role="img" viewBox="16.86 2.86 38.15 59.15"><title>1F96B.svg</title><path fill="#d0cfce" d="M19 49h34v11H19z"/><path fill="#fff" d="M19 21h34v28H19z"/><path fill="#d0cfce" d="M19 4h34v16.795H19z"/><ellipse cx="36" cy="36.651" fill="#ea5a47" rx="8" ry="6.349"/><ellipse cx="36" cy="30.623" fill="#5c9e31" rx="3" ry="1.836"/><path fill="#9b9b9a" d="M47 4h6.5v17H47zm0 45h6v11h-6z"/><path fill="#d0cfce" d="M47 21h6v28h-6z"/><g fill="none" stroke="#000" stroke-linejoin="round" stroke-width="2"><path stroke-linecap="round" d="M40.67 31.4908a6.311 6.311 0 0 1 3.3679 5.3886c0 3.6514-3.5924 6.596-8.0188 6.596S28 40.5308 28 36.8794a6.3159 6.3159 0 0 1 3.24-5.3"/><path d="M39.3868 30.46a2.38 2.38 0 0 1-.77 1.2368 4.6141 4.6141 0 0 1-5.4849 0 2.63 2.63 0 0 1-.77-1.2368 3.5288 3.5288 0 0 1-.1283-1.2367 3.9547 3.9547 0 0 1 1.54.1767 3.1031 3.1031 0 0 1 .8339.4122 3.4064 3.4064 0 0 1 1.1548-1.8551l.0962-.0883.0962.0883a3.2333 3.2333 0 0 1 1.1547 1.8551 4.4355 4.4355 0 0 1 .834-.4122 3.98 3.98 0 0 1 1.54-.1767 2.5244 2.5244 0 0 1-.0966 1.2367z"/><path stroke-linecap="round" d="M23 5h26M19 21h34M19 49h34M19.895 5H19v55h34V5h-.895"/></g></svg>