<svg xmlns="http://www.w3.org/2000/svg" role="img" viewBox="10.66 15.91 50.18 42.68"><title>1F960.svg</title><path fill="#d0cfce" d="M12.12318 35.83178l4.57498-7.20763 14.50813 9.20891-4.57499 7.20763z"/><path fill="#fcea2b" d="M38.0889 37.0473a25.4023 25.4023 0 0 0-5.68 1.2274 29.259 29.259 0 0 0-10.8 7.09l-.005.0055c-.0782.0857-.236.26-.242.269a14.5063 14.5063 0 0 0 2.3722 2.8561A19.3988 19.3988 0 1 0 25.5228 23.95a20.1316 20.1316 0 0 0-4.1612 4.5053c.006.0091.1638.1832.242.269l.005.0055A43.3575 43.3575 0 0 0 33 37"/><path fill="#f1b31c" d="M49.8957 20.9907a19.2835 19.2835 0 0 0-12.2606-2.9385 19.1877 19.1877 0 0 1 8.5782 2.9385 19.3518 19.3518 0 0 1-8.668 35.6183 19.3707 19.3707 0 0 0 12.35-35.6183z"/><g fill="none" stroke="#000" stroke-linecap="round" stroke-linejoin="round" stroke-width="2"><path d="M38.0889 37.0473a25.4023 25.4023 0 0 0-5.68 1.2274 29.259 29.259 0 0 0-10.8 7.09l-.005.0055c-.0782.0857-.236.26-.242.269a14.5063 14.5063 0 0 0 2.3722 2.8561A19.3988 19.3988 0 1 0 25.5228 23.95a20.1316 20.1316 0 0 0-4.1612 4.5053c.006.0091.1638.1832.242.269l.005.0055C26.1318 33.6782 34 37 34 37"/><path d="M17.847 38.124l-5.117-3.248 3.386-5.335 8.178 5.191"/></g></svg>