<svg xmlns="http://www.w3.org/2000/svg" role="img" viewBox="3.78 4.78 63.31 63.31"><title>1F96A.svg</title><path fill="#b1cc33" d="M15.3906 65l.7657.543c.5126.4072 1.1523.6601 1.8574.6601 1.1484 0 2.1347-.6523 2.6386-1.6006.8516 1.543 2.0977-.665 5.3165-1.8525.2841.5352 1.3476 1.5547 4.1982 2.7822l.456-.8808c.003.0019.3877.1757.5918.2314.0313.0088.0616.0205.0928.0283.2237.0537.4541.0889.6944.0889.1826 0 .3593-.0225.5332-.0537.0537-.0098.1054-.0215.1582-.0342.124-.0293.2441-.0674.3623-.1123.0498-.0185.1015-.0342.1513-.0557.1328-.0586.2588-.1289.3809-.207.085-.0527.1631-.1123.2422-.1728.0371-.0303.0742-.0606.1103-.0918.2862-.2442.5225-.5381.7002-.8731 0 0 0 .001.001.001.2998.543.6924 1.0195 1.165 1.416.0538.0459.1084.0918.1641.1357.1328.1016.2666.2002.4092.2881.1592.1006.3271.1885.498.2705.1201.0567.2403.1075.3653.1543.1982.0762.4013.1397.6113.1905.0869.0205.1738.039.2627.0556.2871.0518.5801.0889.8828.0889h.0029c.3047 0 .5987-.0371.8877-.0898.086-.0157.1699-.0342.2549-.0538.2149-.0517.4238-.1162.627-.1953.1054-.04.2089-.08.3105-.1269.1885-.0889.3721-.1865.5479-.2979.1377-.0849.2656-.1797.3945-.2773.0625-.0498.123-.1006.1846-.1524.4638-.3916.8505-.8613 1.1474-1.3964.002-.003.0039-.0069.0069-.0098.1787.3359.417.6318.705.876.0332.0293.0664.0566.1016.084.0811.0634.1611.124.248.1787.1202.0761.2461.1455.378.205.0508.0215.1035.0372.1562.0567.1153.0439.2344.081.3565.1113.0537.0127.1064.0244.1611.0342.1719.0312.3477.0537.5293.0537h.0029c.1836 0 .3604-.0225.5342-.0537.0518-.0098.1016-.0215.1533-.0332.128-.0303.252-.0693.3731-.1162.0469-.0176.0947-.0313.1396-.0508.1358-.0606.2657-.1328.3897-.2119.0801-.0498.1533-.1055.2275-.1631.044-.0342.0879-.0703.1309-.1074.2763-.2383.5058-.5244.6806-.8487.003-.0048.0069-.0097.0088-.0146.3008.5439.6944 1.0215 1.168 1.417.0537.0459.1064.0908.1621.1347.1328.1016.2656.1993.4082.2881.1641.1026.3359.1934.5117.2774.1143.0537.2295.1015.3487.1465.1992.0771.4052.1406.6162.1914.0869.0205.1728.039.2607.0556.2871.0518.5801.0889.8838.0889h.0029c.3067 0 .6045-.0371.8955-.0898.0625-.0118.1241-.0215.1856-.0352.2607-.0586.5137-.1367.7568-.2344.0899-.0361.1758-.0771.2637-.1181.167-.0791.3281-.167.4844-.2627.1591-.0967.3086-.2041.456-.3174.0908-.0713.1797-.1426.2656-.2197.2305-.2041.4375-.4288.627-.6719.0205-.0264.0449-.0508.0654-.0781.2393.1816.4893.3349.751.4677.0107.0059.0225.0117.0332.0176.249.124.5029.2246.7647.3037.0332.0098.0664.0196.0996.0293.2431.0684.4863.1192.7353.1504.0635.0078.126.0127.1895.0186.2246.0185.4463.0283.6709.0175.0967-.0048.1933-.0185.29-.0283.1943-.0205.3867-.0429.5781-.0859.1319-.0293.2598-.0752.3907-.1162.1562-.0489.3134-.0928.4658-.1582.1689-.0713.3271-.166.4892-.2569.1094-.0625.2237-.1123.3291-.1836.2637-.1767.5166-.3789.75-.6123 1.9522-1.9531 1.9512-5.1191-.0009-7.0713-.2471-.247-.5137-.4609-.794-.6455.2041-.1494.4082-.2998.5928-.4843 1.708-1.709 1.9209-4.3467.6396-6.2871-.1836-.2774-.3964-.5401-.6406-.7842-.2148-.2149-.4482-.3965-.6894-.5635-.0733-.0508-.1485-.0986-.2237-.1455a4.96476 4.96476 0 0 0-.5713-.2998c-.1123-.0508-.2246-.0986-.3408-.1406-.1875-.0674-.3769-.125-.5703-.169-.1601-.0381-.3203-.0625-.4834-.084-.0762-.0088-.1514-.0156-.2275-.0215-.6075-.0517-1.2159.0059-1.8057.1748-.0029.001-.0068.002-.0107.003.1552-.5088.1767-1.0459.0566-1.5615-.0049-.0196-.0127-.0381-.0176-.0586-.0547-.2129-.1347-.418-.2363-.6172-.0264-.0518-.0518-.1026-.0811-.1533-.1269-.2149-.2714-.4219-.456-.6065l-.001-.001c-.001-.0009-.0019-.0009-.0029-.0019-.1826-.1826-.3877-.3262-.6006-.4522-.0527-.0302-.1055-.0566-.1592-.084-.1963-.0996-.3984-.1787-.6084-.2324-.0224-.0058-.0439-.0146-.0664-.0195-.5137-.1201-1.0478-.0977-1.5547.0557-.001.0009-.0029.0009-.0039.0009.1729-.5966.2315-1.2119.1778-1.8261-.0059-.0713-.0118-.1416-.0206-.212-.0214-.166-.0468-.3281-.0849-.4912-.043-.1914-.1006-.3789-.167-.5654-.042-.1152-.0889-.2275-.1397-.3398-.0878-.1973-.1884-.3897-.3037-.5762-.0459-.0752-.0918-.1475-.1425-.2207-.1661-.2402-.3477-.4736-.5625-.6885-.001 0-.001-.001-.002-.0019l-.001-.001c-.2148-.2149-.4492-.3975-.6904-.5635-.0684-.0478-.1377-.0928-.208-.1367-.1983-.1221-.4014-.2305-.6104-.3213-.1367-.0605-.2744-.1084-.415-.1563-.1397-.0468-.2793-.0917-.4219-.125-.1709-.0419-.3418-.0732-.5166-.0966-.0263-.003-.0537-.0049-.0801-.0078-.664-.0791-1.333-.0235-1.9785.163.2344-.7695.1543-1.6074-.2431-2.3242-.0186-.0332-.0332-.0664-.0528-.0986-.122-.2031-.2627-.3984-.4384-.5742l-.001-.001c-.0742-.0742.2832-1.0205.2002-1.0791-.792-.6445-1.7969-.7012-2.7598-.5391-11.1133 1.8692-9.3223-7.6006-9.0117-8.6279.2851-.9434-.2656-3.5757-.876-4.729l-.7285-.1899c-.0322-.0616-.165.6923-.1992.6318-.0694-.1172-.1358-.2344-.2158-.3477-.1622-.2363-.3399-.4648-.5508-.6757-.2168-.2168-.4532-.3995-.6963-.5674-.0684-.0479-.1377-.0918-.208-.1358-.1934-.1191-.3916-.2236-.5967-.3134-.0918-.0411-.1826-.0821-.2764-.1172-.2041-.0762-.4121-.1377-.624-.1856-.1553-.0361-.3105-.0596-.4678-.081-.083-.0098-.166-.0166-.249-.0235-.6035-.0508-1.208.0088-1.7939.1768-.003.001-.0069.001-.0098.0019.1553-.5078.1777-1.0439.0566-1.5595-.0048-.0215-.0136-.042-.0195-.0645-.0537-.209-.1318-.4111-.2324-.6074-.0274-.0547-.0537-.1084-.085-.1621-.124-.209-.2656-.4102-.4453-.5908-.0029-.0039-.0049-.0088-.0088-.0127-.0049-.0049-.0107-.0069-.0146-.0118-.1797-.1767-.3789-.3183-.5869-.4404-.0547-.0332-.1114-.0605-.168-.0888-.1914-.0967-.3887-.1739-.5918-.2266-.0283-.0068-.0537-.0176-.082-.0244-.5098-.1182-1.0401-.0957-1.543.0556-.0039.001-.0078.001-.0117.002.4902-1.6924.0898-3.5879-1.2442-4.9219-1.9531-1.9531-5.1191-1.9531-7.0703 0-.1855.1846-.3349.3877-.4853.5928-.1846-.2813-.3985-.5469-.6455-.794C14.5625 7.4883 13.2832 7 12.0029 7c-1.2793 0-2.5586.4883-3.5341 1.4648-.2344.2344-.4366.4873-.6133.751-.0674.1006-.1153.209-.1748.3125-.0948.167-.1924.333-.2676.5088-.0615.1445-.1026.293-.1494.4424-.044.1387-.0928.2754-.1241.416-.041.1826-.0625.3662-.083.5518-.0107.1064-.0263.2119-.0302.3193-.0108.2148-.001.4287.0166.6436.0068.0732.0117.1455.0205.2177.0303.2403.0801.4756.1455.711.0117.042.0244.083.0371.125.0771.2539.1748.5.2939.7412.0098.0195.0205.039.0313.0586.1289.2539.2783.497.4541.7295.001.0019.0019.0048.0039.0068-.2764.2061-.5273.4404-.7559.6973-.0713.08-.1377.164-.2041.249-.1201.1533-.2314.3105-.333.4785-.0927.1514-.1777.3066-.2539.4678-.0429.0908-.0849.1787-.122.2715a4.99777 4.99777 0 0 0-.2334.7519c-.0137.0625-.0235.127-.0352.1904-.0527.2901-.0898.587-.0898.8936 0 .3037.0371.5977.0888.8857.0166.0889.0352.1748.0557.2608.0508.2099.1142.414.1904.6133.0469.124.0986.2451.1543.3652.082.1699.1699.3369.2695.4961.0899.1445.1885.2793.292.4131.042.0537.085.1054.1289.1572.3975.4746.876.8691 1.4209 1.1699-.3369.1797-.6337.418-.8789.7071-.0273.0322-.0537.0644-.0791.0976-.0644.0811-.1269.1631-.1816.252-.0762.1201-.1455.2451-.2041.3759-.0225.0508-.0381.1055-.0586.1582-.0439.1153-.0811.2334-.1104.3555-.0127.0528-.0244.1065-.0341.1602-.0323.1728-.0537.3496-.0537.5322s.0214.3594.0537.5322c.0097.0537.0214.1074.0341.1602.0293.1221.0665.2402.1104.3555.0205.0527.0361.1074.0586.1582.0586.1308.1279.2558.2041.3759.0547.0889.1172.1709.1816.252.0254.0332.0518.0654.0791.0976.2452.2891.542.5274.8789.7071-1.0937.6035-1.7314 1.0761-2.1337 2.2734-.0215.0625-.9346-.4287-.9532-.3652-.1279.4375-.1963.9004-.1963 1.3808C5.3193 33.8154 6.957 37.1484 8.5 38c-.6797.3613.5068.791.2344 2.2188-.1074.5644-1.8281 2.4531-1.8281 2.4531s1.4707.0976 1.3623.1689c-.6211.4072-1.1456.9453-1.5323 1.584-.0976.1572-.1855.3203-.2646.4873-.0479.1045-.0908.209-.1309.3164-.0898.2305-.167.4668-.2217.7129-.0107.0498-.0166.1006-.0253.1514-.0557.2939-.0918.5957-.0918.9072 0 .3047.0371.5986.0898.8867.0156.0879.0342.1729.0547.2588.0508.2119.1142.417.1914.6172.0449.1191.0937.2353.1475.3506.0839.1758.1738.3467.2763.5097.0889.1426.1875.2764.2901.4102.042.0547.0869.1074.1318.1602.3965.4736.875.8671 1.4189 1.1679-.3369.1797-.6337.418-.8789.7071-.0273.0322-.0537.0644-.0791.0976-.0644.0811-.1269.1631-.1816.252-.0762.1201-.1455.2451-.2041.3759-.0225.0508-.0381.1055-.0586.1582-.0439.1153-.0811.2334-.1104.3555-.0127.0528-.0244.1065-.0341.1602-.0323.1728-.0537.3496-.0537.5322s.0214.3594.0537.5322c.0097.0537.0214.1074.0341.1602.0293.1221.0665.2402.1104.3555.0205.0527.0361.1074.0586.1582.0586.1308.1279.2558.2041.3759.0547.0889.1172.1709.1816.252.0254.0332.0518.0654.0791.0976.2452.2891.542.5274.8799.7071-.5449.2998-1.0215.6933-1.418 1.167-.0459.0537-.0917.1074-.1347.1631-.1016.1328-.2002.2656-.2881.4082-.1025.1621-.1924.332-.2754.5068-.0547.1162-.1035.2334-.1494.3545-.0772.1992-.1406.4043-.1914.6162-.0205.0859-.0391.1709-.0547.2588-.0527.289-.0898.582-.0898.8867 0 .3457.0351.6826.1015 1.0078C6.5703 64.2861 8.5859 66 11.002 66c.3046 0 .5986-.0371.8867-.0898.0879-.0157.1728-.0342.2578-.0547.2139-.0508.4209-.1153.6221-.1924.1113-.043.2207-.0869.3281-.1367.1836-.0869.3613-.1807.5312-.2881.1397-.0869.2705-.1826.4004-.2822.0596-.0469.1172-.0957.1748-.1456.4688-.3935 1.1875.1895 1.1875.1895"/><path fill="#fcea2b" d="M21.5479 65.2715c-.9415.375-2.0079-.082-2.3829-1.0235l-.4814-1.0341-.9023.4111-9.5-23.7812.9687-.2872-1.3135-3.4101c-.376-.9434.0811-2.0098 1.0225-2.3867L8.7939 32.75l23.6856-9.437.418.9199 4.166-1.7002c.9424-.3745 2.0068.083 2.3847 1.0254l4.7657 11.9907.9521-.2256 5.6289 14.0909c.376.9414-.2041 4.2539-1.1445 4.6308L27.6875 64.1406l-.3711-.9267-5.7685 2.0576z"/><path fill="#f4aa41" d="M59.6826 55.6826l-1.3652-1.3652-40.6338-40.6338-1.3672-1.3672C15.918 12.1201 15.4746 12 15 12c-1.6562 0-3 1.3438-3 3v43c0 1.1045.8965 2 2 2h43c1.6563 0 3-1.3437 3-3 0-.4746-.1201-.918-.3174-1.3174z"/><g fill="none" stroke="#000" stroke-linecap="round" stroke-linejoin="round" stroke-miterlimit="10" stroke-width="2"><path d="M59.6826 55.6826l-1.3652-1.3652-40.6338-40.6338-1.3672-1.3672C15.918 12.1201 15.4746 12 15 12c-1.6562 0-3 1.3438-3 3v43c0 1.1045.8965 2 2 2h43c1.6563 0 3-1.3437 3-3 0-.4746-.1201-.918-.3174-1.3174zM23 53l10-10m-15 5l10-10m-11 1l7-7m8 23l7-7"/><path d="M34.5137 19.7676c-.2266-.4317-.5157-.8389-.8789-1.2031-1.334-1.334-3.2285-1.7344-4.9219-1.2452.3144-1.0263.0781-2.1845-.7344-2.997s-1.9707-1.0479-2.9961-.7344c.4883-1.6924.0879-3.5879-1.2461-4.9219-1.9531-1.9531-5.1172-1.9531-7.0703 0-.1836.1846-.3359.3887-.4844.5938-.1855-.2813-.4003-.5479-.6464-.795-1.9532-1.9531-5.1192-1.9531-7.0704 0C6.6777 10.252 6.5449 13.041 8.0273 15 6.8027 15.9111 6 17.3564 6 19c0 1.8867 1.0566 3.5098 2.5996 4.3613C7.6523 23.8652 7 24.8516 7 26s.6523 2.1348 1.5996 2.6387c-.9297.5136-1.6777 1.3105-2.1308 2.2734m42.0878 5.9453c.2032-.958-.0351-1.9912-.7793-2.7363-.1347-.1348-.289-.2295-.4414-.332m-39.58 9.4472C6.6875 44.1484 6 45.4844 6 47c0 1.8877 1.0566 3.5098 2.5996 4.3613C7.6523 51.8652 7 52.8516 7 54s.6523 2.1348 1.5996 2.6387C7.0566 57.4902 6 59.1133 6 61c0 2.7617 2.2383 5 5 5 1.8867 0 3.5098-1.0576 4.3613-2.6006.1934.3662.4629.6865.7832.9444m14.4746.3076C31.0313 64.8701 31.498 65 32 65c1.1484 0 2.1348-.6523 2.6387-1.6006C35.4883 64.9424 37.1133 66 39 66c1.8867 0 3.5098-1.0576 4.3613-2.6006C43.8652 64.3477 44.8516 65 46 65s2.1348-.6523 2.6387-1.6006C49.4902 64.9424 51.1113 66 53 66c1.6426 0 3.0879-.8037 4-2.0273 1.959 1.4814 4.75 1.3496 6.5371-.4366 1.9512-1.9531 1.9512-5.1191-.0019-7.0713-.2461-.247-.5137-.4619-.795-.6464.2051-.1495.4102-.2998.5938-.4844 1.9531-1.9531 1.9512-5.1192 0-7.0703-1.336-1.335-3.2305-1.7344-4.9238-1.2461.3144-1.0264.0781-2.1856-.7344-2.9981-.8106-.8105-1.9707-1.0468-2.9961-.7334.4883-1.6933.0898-3.5879-1.2461-4.9228-1.2988-1.2998-3.1289-1.7061-4.7852-1.2754m-9.2002-13.5298l4.7657 11.9907h0l-4.7657-11.9917c-.2753-.6894-.9296-1.1152-1.6289-1.1299.6993.0157 1.3536.4405 1.6289 1.1309z"/><path d="M32.8975 24.2329l4.2207-1.6777c.2304-.0918.4687-.1328.7011-.128.6993.0157 1.3536.4405 1.6289 1.1309l4.7657 11.9907M18.6836 63.2139l.5156 1.2968c.3653.92 1.4072 1.3672 2.3281 1.0039l5.7891-2.3007M9.25 33.625l-.3691.1465c-.92.3672-1.3692 1.4082-1.0039 2.3301l1.373 3.455"/></g></svg>