<svg xmlns="http://www.w3.org/2000/svg" role="img" viewBox="13.38 9.38 45.10 51.48"><title>1F962.svg</title><path d="M53.7603 58.9583L18.829 20.2998c-.781-.781-2.0474-.781-2.8284 0-.781.781-.781 2.0474 0 2.8284zm2.8249-1.5307L30.512 12.3181c-.6004-.9271-1.8388-1.192-2.7659-.5916s-1.192 1.8388-.5916 2.7659z" fill="#D22F27" stroke-linecap="round" stroke-linejoin="round" stroke-miterlimit="10" stroke-width="2"/><path d="M53.7603 58.9583L18.829 20.2998c-.781-.781-2.0474-.781-2.8284 0-.781.781-.781 2.0474 0 2.8284zm2.8249-1.5307L30.512 12.3181c-.6004-.9271-1.8388-1.192-2.7659-.5916s-1.192 1.8388-.5916 2.7659z" fill="none" stroke="#000" stroke-linecap="round" stroke-linejoin="round" stroke-miterlimit="10" stroke-width="2"/></svg>