<svg xmlns="http://www.w3.org/2000/svg" role="img" viewBox="10.65 3.65 57.96 63.96"><title>1F973.svg</title><circle cx="36" cy="36" r="23" fill="#FCEA2B"/><path fill="#F4AA41" d="M15.063 6.447l2 15 16-6z"/><path fill="#E27022" d="M26.984 12.406l6.079 3.041-13.151 4.931"/><path fill="#EA5A47" d="M15.396 10.835l5.225-2.017 2.833 1.761-7.891 3.368z"/><path fill="#D22F27" d="M25.421 12.393l1.142-.446 4 1-6.5 2.785"/><path fill="#EA5A47" d="M24.063 15.732l-7.504 3.215-.163-3.035 9.025-3.519"/><g><g fill="none" stroke="#000" stroke-linecap="round" stroke-linejoin="round" stroke-width="2"><path d="M36.4495 42.1182s10.5509 3.1081.0462 5.5636c0 0 10.4821 2.9013.0408 4.9123M21.0196 27.355c.7084-1.3911 1.9076-2.4701 3.3656-3.028a6.3038 6.3038 0 0 1 4.5266-.4585m21.7171 3.2407c-1.6054-2.7593-4.838-4.1297-7.9374-3.3648M23.4538 34.3787c2.5075-1.2805 5.4716-1.3051 8-.0664m9.249-.0768c2.5075-1.2805 5.4716-1.3051 8-.0665"/><path d="M45.9475 15.294c11.4492 5.5027 16.2698 19.2449 10.7671 30.694s-19.2449 16.2698-30.694 10.7671-16.2698-19.2448-10.7671-30.694a23.0139 23.0139 0 0 1 1.2907-2.3296m18.4122-10.6794c.2775-.0123.5563-.0196.8362-.0219a22.90656 22.90656 0 0 1 10.1549 2.2638"/></g><path d="M17.384 20.98l-2.821-15m19 9.266l-19-9.266m2.821 15l16.179-5.734" fill="none" stroke="#000" stroke-linecap="round" stroke-linejoin="round" stroke-width="2"/><path fill="none" stroke="#000" stroke-linecap="round" stroke-linejoin="round" stroke-width="2" d="M61.9463 11.6129a4.87641 4.87641 0 0 1-.4556 1.484c-1.2886 2.5208-4.3362 3.5763-6.9079 2.3925m11.8437 27.8597a4.87905 4.87905 0 0 1-1.4418-.5754c-2.4074-1.4903-3.2103-4.6144-1.82-7.0809m-1.2184 27.2753a4.87641 4.87641 0 0 0-.4556-1.484c-1.2886-2.5208-4.3362-3.5763-6.9079-2.3925M24.7394 55.925a4.87622 4.87622 0 0 0-1.1578-1.0341c-2.4073-1.4907-5.562-.8167-7.15 1.5276"/><path d="M62.2115 25.4594c.8284-.0287 1.4767-.7235 1.448-1.552-.0273-.7881-.6599-1.4207-1.448-1.448-.8284.0287-1.4767.7235-1.448 1.552.0273.7881.6599 1.4207 1.448 1.448zm0 25c.8284-.0287 1.4767-.7235 1.448-1.552-.0273-.7881-.6599-1.4207-1.448-1.448-.8284.0287-1.4767.7235-1.448 1.552.0273.7881.6599 1.4207 1.448 1.448zm-33 16c.8284-.0287 1.4767-.7235 1.448-1.552-.0273-.7881-.6599-1.4207-1.448-1.448-.8284.0287-1.4767.7235-1.448 1.552.0273.7881.6599 1.4207 1.448 1.448zm-9-18c.8284-.0287 1.4767-.7235 1.448-1.552-.0273-.7881-.6599-1.4207-1.448-1.448-.8284.0287-1.4767.7235-1.448 1.552.0273.7881.6599 1.4207 1.448 1.448zm24 16c.8284-.0287 1.4767-.7235 1.448-1.552-.0273-.7881-.6599-1.4207-1.448-1.448-.8284.0287-1.4767.7235-1.448 1.552.0273.7881.6599 1.4207 1.448 1.448z"/><path fill="none" stroke="#000" stroke-linecap="round" stroke-linejoin="round" stroke-width="2" d="M38.5628 47.9801h5.5s5.5 0 5.5-3c0-2.2319-1.5221-2.8033-3.4339-2.95"/></g><g><path fill="#8967AA" d="M62.2115 25.457c.8284-.0287 1.4767-.7235 1.448-1.552-.0273-.7881-.6599-1.4207-1.448-1.448-.8284.0287-1.4767.7235-1.448 1.552.0273.7881.6599 1.4207 1.448 1.448zm-18 39c.8284-.0287 1.4767-.7235 1.448-1.552-.0273-.7881-.6599-1.4207-1.448-1.448-.8284.0287-1.4767.7235-1.448 1.552.0273.7881.6599 1.4207 1.448 1.448z"/><path fill="#F4AA41" d="M29.2115 66.457c.8284-.0287 1.4767-.7235 1.448-1.552-.0273-.7881-.6599-1.4207-1.448-1.448-.8284.0287-1.4767.7235-1.448 1.552.0273.7881.6599 1.4207 1.448 1.448z"/><path fill="#D22F27" d="M20.2115 48.457c.8284-.0287 1.4767-.7235 1.448-1.552-.0273-.7881-.6599-1.4207-1.448-1.448-.8284.0287-1.4767.7235-1.448 1.552.0273.7881.6599 1.4207 1.448 1.448zm42 2c.8284-.0287 1.4767-.7235 1.448-1.552-.0273-.7881-.6599-1.4207-1.448-1.448-.8284.0287-1.4767.7235-1.448 1.552.0273.7881.6599 1.4207 1.448 1.448z"/></g></svg>