<svg xmlns="http://www.w3.org/2000/svg" role="img" viewBox="11.04 11.04 49.79 49.79"><title>1F974.svg</title><circle cx="36" cy="36" r="23" fill="#FCEA2B"/><circle cx="36" cy="36" r="23" fill="none" stroke="#000" stroke-miterlimit="10" stroke-width="2"/><path fill="none" stroke="#000" stroke-linecap="round" stroke-linejoin="round" stroke-width="2" d="M21.2638 27.6286a7.17347 7.17347 0 0 1 4.47-2.6062 7.07679 7.07679 0 0 1 4.3392.7648M41 27.0774c1.3758 1.1372 3.1261 1.7207 4.9091 1.6364A7.07787 7.07787 0 0 0 50 27.0774M24 40.9991C23.7435 40.795 23.52 49 29 49c5 0 4-8.0009 9-5.6007"/><path fill="none" stroke="#000" stroke-linecap="round" stroke-linejoin="round" stroke-width="2" d="M49 40.9991s-.8892 6.146-5 6.4007c-3.7688.2335-5.1617-6.1179-9-4.0005"/><path d="M30 33c0 1.6568-1.3448 3-3 3-1.6553 0-3-1.3433-3-3 0-1.6552 1.3447-3 3-3 1.6552 0 3 1.3448 3 3m18-2c0 1.6568-1.3447 3-3 3s-3-1.3433-3-3c0-1.6552 1.3447-3 3-3s3 1.3448 3 3"/></svg>