<svg xmlns="http://www.w3.org/2000/svg" role="img" viewBox="3.76 23.64 64.35 22.73"><title>1F97F.svg</title><path fill="#ffa7c0" stroke="#ffa7c0" stroke-miterlimit="10" stroke-width="2" d="M27.2945 41.6824c.0425 1.86 5.8332 2.5639 8.711 2.4895 28.0063-.7235 30.06-2.3123 29.3884-8.65-.3686-3.4781-9.1188-6.3021-17.1146-5.4966-.73.0736-1.352 1.8762-2.082 2.0023-10.7675 1.8608-27.8342 2.56-35.93-6.0744-1.3221-.1986-4.8873 9.1692-3.5427 15.351z"/><path fill="#3f3f3f" d="M6.427 40.77h13.912v3.417H6.427z"/><g fill="none" stroke="#000" stroke-linecap="round" stroke-linejoin="round" stroke-width="2"><path d="M6.4266 40.77c-1.6929-8.08 2.5186-15.0156 3.84-14.8167 8.0961 8.6347 25.0328 7.9741 35.8 6.1134.8436-.1458 1.5456-2.1011 2.3879-2.1769 7.8729-.7088 15.0151 1.6183 16.6208 4.7477 3.0354 5.916-.5294 10.9388-36.6264 9.27a38.6434 38.6434 0 0 1-3.7006-1.4289"/><path d="M6.427 40.77h13.912v3.417H6.427z"/></g></svg>