<svg xmlns="http://www.w3.org/2000/svg" role="img" viewBox="8.34 4.21 54.70 60.58"><title>1F976.svg</title><g id="color"><path fill="#92D3F5" d="m36 12c-13.25 1e-4 -24 10.75-24 24s10.75 24 24 24 24-10.75 24-24c-0.0149-13.25-10.75-23.99-24-24z"/><path fill="#fff" d="M11.65 36.29c-.7568 1.745-1.128 3.633-1.089 5.535.1645 4.748 1.26 9.418 3.224 13.74.2737.5758.7167.5752.99 0 1.964-4.327 3.06-8.997 3.225-13.75v-.0005c-.0009-4.313-1.67-7.822-3.72-7.822-.9925-.0025-1.926.8115-2.629 2.29zM54.65 36.29c-.7568 1.745-1.128 3.633-1.089 5.535.1645 4.748 1.26 9.418 3.224 13.74.2737.5758.7167.5752.99 0 1.964-4.327 3.06-8.997 3.225-13.75v-.0005c-.0009-4.313-1.67-7.822-3.72-7.822-.9925-.0025-1.926.8115-2.629 2.29zM21.36 52.22c-.5411.8848-.8175 1.906-.7965 2.943.1523 2.597.9634 5.112 2.357 7.308.094.1999.3323.2857.5322.1917.0843-.0396.152-.1074.1917-.1917 1.394-2.197 2.205-4.712 2.358-7.309-.0007-2.294-1.221-4.16-2.72-4.16-.8076.0481-1.534.508-1.922 1.218zM47.36 52.22c-.5411.8848-.8175 1.906-.7965 2.943.1523 2.597.9634 5.112 2.357 7.308.094.1999.3323.2857.5322.1917.0843-.0396.152-.1074.1917-.1917 1.394-2.197 2.205-4.712 2.358-7.309-.0007-2.294-1.221-4.16-2.72-4.16-.8076.0481-1.534.508-1.922 1.218zM44.5 49.27h-17c-2.206-.0065-3.994-1.794-4-4 .0065-2.206 1.794-3.994 4-4h17c2.206.0065 3.994 1.794 4 4-.0065 2.206-1.794 3.994-4 4zM48.34 16.8c.795-.1657 1.522-.8843 1.665-2.799.2987-3.989-9-4-9-4s-3 0-9-3-12 7-12 7-3 6-5 5-5 2-3 6c0 0 1 7 6 2s3-8 10-7 11 0 11-2 5-4 7-2c.5946.6418 1.472.942 2.335.7993"/></g><g id="line"><path fill="none" stroke="#000" stroke-linecap="round" stroke-miterlimit="10" stroke-width="2" d="M43.82 57.64c-4.716 1.696-9.854 1.813-14.64.3351M50.91 18.49c3.818 3.249 6.469 7.657 7.55 12.55M13.56 30.92c.1547-.6824.3382-1.351.549-2.004"/><path fill="none" stroke="#000" stroke-miterlimit="10" stroke-width="2" d="M11.65 36.29c-.7568 1.745-1.128 3.633-1.089 5.535.1645 4.748 1.26 9.418 3.224 13.74.2737.5758.7167.5752.99 0 1.964-4.327 3.06-8.997 3.225-13.75v-.0005c-.0009-4.313-1.67-7.822-3.72-7.822-.9925-.0025-1.926.8115-2.629 2.29zM54.65 36.29c-.7568 1.745-1.128 3.633-1.089 5.535.1645 4.748 1.26 9.418 3.224 13.74.2737.5758.7167.5752.99 0 1.964-4.327 3.06-8.997 3.225-13.75v-.0005c-.0009-4.313-1.67-7.822-3.72-7.822-.9925-.0025-1.926.8115-2.629 2.29zM21.36 52.22c-.5411.8848-.8175 1.906-.7965 2.943.1523 2.597.9634 5.112 2.357 7.308.094.1999.3323.2857.5322.1917.0843-.0396.152-.1074.1917-.1917 1.394-2.197 2.205-4.712 2.358-7.309-.0007-2.294-1.221-4.16-2.72-4.16-.8076.0481-1.534.508-1.922 1.218zM47.36 52.22c-.5411.8848-.8175 1.906-.7965 2.943.1523 2.597.9634 5.112 2.357 7.308.094.1999.3323.2857.5322.1917.0843-.0396.152-.1074.1917-.1917 1.394-2.197 2.205-4.712 2.358-7.309-.0007-2.294-1.221-4.16-2.72-4.16-.8076.0481-1.534.508-1.922 1.218z"/><path fill="none" stroke="#000" stroke-miterlimit="2" stroke-width="2" d="m44.5 49.27h-17c-2.206-0.0065-3.994-1.794-4-4 0.0065-2.206 1.794-3.994 4-4h17c2.206 0.0065 3.994 1.794 4 4-0.0065 2.206-1.794 3.994-4 4z"/><path fill="none" stroke="#000" stroke-linecap="round" stroke-linejoin="round" stroke-width="2" d="M28 41.77L28 48.77M33 41.77L33 48.77M38 41.77L38 48.77M43 41.77L43 48.77"/><path fill="none" stroke="#000" stroke-miterlimit="10" stroke-width="2" d="m48.34 16.8c0.795-0.1657 1.522-0.8843 1.665-2.799 0.2987-3.989-9-4-9-4s-3 0-9-3-12 7-12 7-3 6-5 5-5 2-3 6c0 0 1 7 6 2s3-8 10-7 11 0 11-2 5-4 7-2c0.5946 0.6418 1.472 0.942 2.335 0.7993"/><path d="M30 31c0 1.657-1.345 3-3 3-1.655 0-3-1.343-3-3 0-1.655 1.345-3 3-3 1.655 0 3 1.345 3 3M48 31c0 1.657-1.345 3-3 3s-3-1.343-3-3c0-1.655 1.345-3 3-3s3 1.345 3 3"/></g></svg>