<svg xmlns="http://www.w3.org/2000/svg" role="img" viewBox="9.65 14.02 57.20 43.70"><title>1F97E.svg</title><path fill="#a57939" d="M11.8858 52.4674c-.3688-6.2627 1.5818-16.9916 2.1224-18.043l.0374-13.5109s10.6921-.1226 13.854-1.591c1.3724-.6373 3.6348-1.9031 5.1773-2.7855a1.0709 1.0709 0 0 1 1.6044.95c-.0684 3.6668-.0626 11.5241 1.1608 13.682 1.1185 1.9729 4.3469 4.1119 6.3355 5.6121 5.3352 4.0247 13.07 4.3073 16.4858 5.0048 5.3308 1.0883 5.9 5.6343 5.9 7.9125 0 7.2931-17.9438 4.8129-17.9438 4.8129-3.1249-.1703-7.2828-1.7713-10.764-1.9613"/><path fill="#6a462f" d="M11.84 53.209c-.0636-1.08 0-6.2566 0-6.2566 12.1743 1.4221 38.3753 4.8793 52.6567.7787a5.4179 5.4179 0 0 1-2.7282 6.1262c-2.5564 1.4219-8.0734.6116-15.1487.4647-3.1288-.0649-7.27-.8124-10.7508-1.0025"/><path fill="#3f3f3f" d="M11.84 52.278h17.221v3.435H11.84z"/><g fill="none" stroke="#000" stroke-linecap="round" stroke-linejoin="round" stroke-width="2"><path d="M11.8858 52.2778c-.3688-6.2626 1.5818-16.9916 2.1224-18.043l.0374-13.5109s10.6921-.1226 13.854-1.591c1.3724-.6373 3.6348-1.9031 5.1773-2.7855a1.0709 1.0709 0 0 1 1.6044.95c-.0684 3.6668-.0626 11.5241 1.1608 13.682 1.1185 1.9729 4.3469 4.1119 6.3355 5.6121 5.3352 4.0248 13.0351 4.5045 16.4858 5.0048 7.7281 1.12 6.928 9.9315 4.5453 11.5757-3.7407 2.5814-16.5893 1.15-16.5893 1.15-3.1247-.1707-9.9086-1.571-13.39-1.7611"/><path d="M11.84 52.278h17.221v3.435H11.84z"/><path d="M32.218 25.885l-2.837-.014"/><path d="M32.74 30.994l-2.758.662"/><path d="M35.09 34.754l-2.35 1.59"/><path d="M16.5226 48.3745s30.323 2.903 34.496 2.0077"/></g></svg>