<svg xmlns="http://www.w3.org/2000/svg" role="img" viewBox="11.04 11.04 49.79 49.79"><title>1F975.svg</title><circle cx="36" cy="36" r="23" fill="#ea5a47"/><path stroke-width=".852" d="M32.47 49h-3.617c-1.856-.0056-3.36-1.546-3.365-3.448.0055-1.902 1.509-3.442 3.365-3.448h14.3c1.856.0056 3.36 1.546 3.365 3.448-.0055 1.902-1.509 3.442-3.365 3.448h-1.785"/><path d="M40.87 49h-.506m2.016 0h-1.505"/><path fill="#92D3F5" d="M50.39 40.63c-.5305-.5275-.8278-1.246-.8256-1.994 0-2.479 2.343-4.851 2.443-4.95.2068-.2071.5424-.2073.7495-.0005l.0005.0005c.1.1 2.443 2.472 2.444 4.951-.0013 1.557-1.265 2.818-2.822 2.817a2.82 2.82 0 0 1-1.99-.8243z"/><path fill="#ffa7c0" d="M41.66 44.82c0 6.075-2.532 11-5.656 11s-5.656-4.925-5.656-11c4.014-1.7 7.761-1.537 11.31 0z"/><g><circle cx="36" cy="36" r="23" fill="none" stroke="#000" stroke-miterlimit="10" stroke-width="2"/><path d="M30 30.92c-.0014 1.657-1.346 2.999-3.002 2.998S23.999 32.572 24 30.916s1.346-2.999 3.002-2.998C28.659 27.92 30 29.264 30 30.92m18 .02c-.0014 1.657-1.346 2.999-3.002 2.998S41.999 32.592 42 30.936s1.346-2.999 3.002-2.998C46.659 27.9399 48 29.284 48 30.94"/><path fill="none" stroke="#000" stroke-linecap="round" stroke-linejoin="round" stroke-width="2" d="M20.88 25.89c1.714.4976 3.552.3383 5.155-.4469 1.341-.6851 2.429-1.78 3.105-3.126m22 3.5729a7.17263 7.17263 0 0 1-5.155-.4469c-1.341-.6851-2.429-1.78-3.105-3.126"/><path fill="none" stroke="#000" stroke-linecap="round" stroke-linejoin="round" stroke-miterlimit="10" stroke-width="2" d="M41.66 44.82c0 6.075-2.532 11-5.656 11s-5.656-4.925-5.656-11c5.141-1.979 8.198-.9474 11.31 0zm8.73-4.19c-.5305-.5275-.8278-1.246-.8256-1.994 0-2.479 2.343-4.851 2.443-4.95.2068-.2071.5424-.2073.7495-.0005l.0005.0005c.1.1 2.443 2.472 2.444 4.951-.0013 1.557-1.265 2.818-2.822 2.817a2.82 2.82 0 0 1-1.99-.8243z"/><path fill="none" stroke="#000" stroke-miterlimit="2" stroke-width="1.737" d="M31.56 49.05h-2.739c-1.865-.0058-3.375-1.601-3.381-3.571.0055-1.97 1.516-3.566 3.381-3.571h14.37c1.865.0058 3.375 1.601 3.381 3.571-.0055 1.97-1.516 3.566-3.381 3.571h-2.649"/></g></svg>