<svg xmlns="http://www.w3.org/2000/svg" role="img" viewBox="9.35 2.85 53.17 66.30"><title>1F98A.svg</title><path fill="#E27022" d="M17.1228 5.3057L13.7993 9.348l-2.1112 12.8954 2.5003 11.9161-2.5003 5.0356.4829 11.3882 2.2344 4.5S21.3377 51.75 23.171 59l12.9023 3.8333 13.216-4.25.715-2.439 3.5745-2.2785 3.5235.5481 2.5725-6.1293L60.3119 42l-1.7215-6.5752-.7776-1.2636 1.4468-4.7673.2177-8.9431-.9631-9.823-1.7047-3.8692-2.6385-2.0919-5.1846 6.5784-5.482 6.707H42.171l-5.1591-1.4108-9.1742.5805-4.75-5.0384-3.2746-5.1667-2.6903-1.611"/><path fill="#FFF" d="M11.3377 45.0833c6.0422-.6554 11.9908 4.5417 15.9913 10.0022l6.0087 2.2478 2.6566.7608 3.0517-.8441 5.7089-2.0836s5.0827-11.2498 15.9161-10.1392l-2.0833 8.2542L56.9002 55l-3.1875-.8438-3.0625 1.3865-1.5173 3.0909s-3.5452 4.4554-12.8684 4.4497c-5.8283-.0036-12.2601-1.375-13.473-4.484-.8609-2.2069-3.8288-5.0369-3.8288-5.0369l-4.493.3564-3.132-8.8355z"/><path fill="#d0cfce" d="M28.796 60.9583S28.4265 64.5 30.1738 66c1.7472 1.5 6.4139 1.7083 6.4139 1.7083l5.9583-1.7917s1.7083-1.6667.875-5l-2.75.7917-6.4972.2083-5.3778-.9583z"/><path fill="#FFF" d="M57.671 7.375l-3.0417 2.0417-4.4583 5.9583-1.5416 7.125.2083 1.9583s5 8.375 11.25.2917l-.5833-8.5833-.9167-7.25-.9167-1.5417zm-43.3996 0l3.0417 2.0417 4.4583 5.9583 1.5417 7.125-.2083 1.9583s-5 8.375-11.25.2917l.5833-8.5833.9167-7.25.9166-1.5417z"/><g><path d="M29.0454 41.681s-3.0393 1.5997-4.5092 1.0171c-1.4698-.5826-2.2313-2.14-1.7007-3.4785.5306-1.3386 2.1522-1.9514 3.622-1.3688 1.4699.5826 2.5879 3.8302 2.5879 3.8302z"/><path fill="none" stroke="#000" stroke-linecap="round" stroke-linejoin="round" stroke-miterlimit="10" stroke-width="2" d="M35.9943 56.9292c-1.513-.2346-2.7355-.9125-3.641-2.075v-.698M16.9156 10.2884s7.7517 5.915 5.3244 13.6668"/><path fill="none" stroke="#000" stroke-linecap="round" stroke-linejoin="round" stroke-miterlimit="10" stroke-width="2" d="M23.6069 58.0941c-1.4877-3.2886-4.481-4.3848-5.1857-4.2282l-3.5235.5481c-2.6622-2.6622-3.132-10.1791-3.132-10.1791-.4337-4.7705 1.0302-8.0757 2.4227-10.0754l-.3869-.7301c-2.5056-6.1857-1.0179-15.6601-.4698-21.6892.3975-4.3723 2.6068-5.9162 3.7911-6.4345.4153-.1818.8959-.0599 1.1789.2943 1.2956 1.6213 5.3162 6.5744 9.1241 10.4468 1.6822 1.7107 2.4508 3.2218 2.748 4.4518"/><path d="M42.9546 41.681s3.0393 1.5997 4.5092 1.0171c1.4698-.5826 2.2313-2.14 1.7007-3.4785s-2.1522-1.9514-3.622-1.3688c-1.4699.5826-2.5879 3.8302-2.5879 3.8302z"/><path fill="none" stroke="#000" stroke-linecap="round" stroke-linejoin="round" stroke-miterlimit="10" stroke-width="2" d="M36.0733 61.7083v-4.7791c1.513-.2346 2.7355-.9125 3.641-2.075v-.698"/><path fill="none" stroke="#000" stroke-linecap="round" stroke-linejoin="round" stroke-miterlimit="10" stroke-width="2" d="M43.7468 50.1562l1.1745 5.8367s0 6.6555-7.4385 6.1074H34.585c-7.4385.5481-7.4385-6.1074-7.4385-6.1074l1.1745-5.8367m26.7634-39.8678s-7.7517 5.915-5.3244 13.6668"/><path fill="none" stroke="#000" stroke-linecap="round" stroke-linejoin="round" stroke-miterlimit="10" stroke-width="2" d="M48.3931 58.0941c1.4877-3.2886 4.481-4.3848 5.1857-4.2282l3.5235.5481c2.6622-2.6622 3.132-10.1791 3.132-10.1791.4336-4.7691-1.0294-8.0739-2.4216-10.0737l.3858-.7317c2.5056-6.1857 1.0179-15.6601.4698-21.6892-.3975-4.3723-2.6068-5.9162-3.7911-6.4345-.4153-.1819-.8958-.06-1.1789.2942-1.2956 1.6213-5.3162 6.5744-9.1241 10.4468-1.7324 1.7618-2.4958 3.3118-2.7734 4.5611m-.1336 44.8415c-3.804 2.0509-7.418 2.0886-10.8055 0m-1.8439-47.4973s6.0552-3.1842 13.7809-.1044"/></g></svg>