<svg xmlns="http://www.w3.org/2000/svg" role="img" viewBox="2.45 16.08 67.34 44.97"><title>1F98F.svg</title><path fill="#9B9B9A" d="M24.421 22.0855l-3.5 2.8333-1.8333-.8333-3.6667 4.1667-2.5 2.1667-1 3.8333-2.1667-.1667s-1.8333-1.5-.3333-6.1667l-3 2.1667-.3333 7.8333-1.5 4.5 3.8333 2.5 3.8333.1667 5-.3333 3.6667-4.3333h2.8333l1.6667 1.8333 4.3333.6667 4.1667 6.8333s.8333 4.5 1 5c.1667.5-.5 3.6667-.5 3.6667s1.5.6667 2.1667.6667 3.6667-1.1667 3.6667-1.1667l-1-10.5s7.229 4.5277 13.0623-2.4723l2.1044-2.6943 2.5 4-.1667 3 1 2.8333-2.3333 3.6667.3333 1.1667 6.3333.6667 2.1667-7.1667-.6667-5.5 3.6667-6.8333s3.3333-10.8333-8.3333-18.5c0 0-6.1667-1.5-6.6667-1.3333s-6.8333 2.1667-6.8333 2.1667l-7.6667.1667-4-1.1667-9.3334 2.6664z"/><path fill="#3F3F3F" d="M24.3176 41.273l1.5625 5.875 3 3.5.5625 3.625s-1.6875 3.5-1.5 3.6875 2.875 1.5 2.875 1.5h4.375l-1.0625-2.75 1.0625-3s-1.25-2.625-1.25-2.8125-2.3125-4.375-2.3125-4.375l-2.2708-3.6042s-2.8542.6042-5.0417-1.6458z"/><g fill="none" stroke="#000" stroke-linecap="round" stroke-linejoin="round" stroke-miterlimit="10" stroke-width="2"><path d="M29.7551 43.0942l4.2252 7.1483 1.057 4.6127-.5631 1.9861c-.2869 1.0119.4346 2.0286 1.4396 2.0286h2.8741c.9019 0 1.6005-.8291 1.491-1.7697l-1.1762-10.1038s8.4451 5.7747 15.7737-5.2106M18.9041 31.7483c5.1224-1.908 1.7838-7.7242 1.7838-7.7242-3.3336-.3844-4.7764 4.5933-4.7764 4.5933l-3.1805 1.9114-.0941 2.8007s-.5627 2.5656-2.9388 1.7696"/><path d="M20.0425 36.1389s1.7684 2.6797-.5488 6.342c-2.7309 4.3161-7.7917 2.4656-7.7917 2.4656-2.6019.9823-6.22-1.324-6.22-1.324-1.992-2.3918.8537-5.7232.8537-5.7232S4.1403 31.6209 8.531 27.8197m12.9795-1.7145s5.5993-8.1508 13.7485-6.1869h0c.671.4595 1.4575.7136 2.2704.7375 2.5141.0742 8.1558.0726 11.4125-1.2355 1.418-.5695 2.9023-.9803 4.4303-.9653 1.4896.0146 3.3543.2847 5.3462 1.176 3.7001 1.6555 6.3883 4.9459 7.6749 8.7898 1.2832 3.8339 2.1646 9.523-1.4753 13.963l-1.7481 2.5626s-6.5046 4.9544-8.2934-3.1606c0 0-.6911-5.4897 1.3416-11.5859"/><path d="M37.8424 29.6135c2.878 4.6869 3.018 8.9749.497 13.4807-2.0407-2.6033-5.4975-1.2656-5.4975-1.2656l-3.3336 1.3667c-4.3093.1708-5.285-3.246-5.285-3.246l2.8458-12.8131 3.9028-2.3918m26.6719 24.6798l.1597 2.9965-1.8365 2.7749c-.752 1.1363.0219 2.692 1.3393 2.692h3.5225c.7152 0 1.3469-.4894 1.5583-1.2072l1.9211-6.5234-1.1383-5.2106m-36.0601 1.9824l2.6832 4.0533-.2033 3.7023-1.0413 2.6797c-.2318.5966.1859 1.2497.7992 1.2497h1.3804"/></g></svg>