<svg xmlns="http://www.w3.org/2000/svg" role="img" viewBox="7.51 5.63 56.86 64.61"><title>1F981.svg</title><path fill="#A57939" d="M18.921 25.5021c-.75.25-8.5 9.3333-9.25 15.0833s-.3333 8.0833-.3333 8.0833 2.8333 8.75 11.1667 13.0833c0 0 13.0833 13.1667 30.0833.25 0 0 8.3333-2.8333 12-14.5833l-.3333-9.6667-2.4167-6.1667s-4.5-4.3333-4.6667-4.75c-.1667-.4167-5.4167-4-5.4167-4l-1.9167-.5833-23.9166.4168-5 2.8333z"/><path fill="#F4AA41" d="M60.0877 21.2105l.25-5.75-1.125-3.875-5.625-.75-5.25 2.5-3.125 2.625-3.25-5.375-5.875-2.75-10.125 2-1.125.25s-2.375 1.75-2.25 2.5c0 0-6.75-3-9.625-.375 0 0-3.75 6.875.375 11.375l4 3.5s-9.5 8.625 1.25 19.5c0 0-2.6198 5.6214 1.1127 11.9173l3.2206 6.666c6 5.3333 19.4167 5.0833 25.4167-.25l2.3253-4.8129c.9155-1.0835 4.6646-5.941 3.6747-11.7704 0 0 8.5-8.125 1.625-20.75l-1.625-1.5 3-1.625 2.75-3.25z"/><path fill="#A57939" d="M22.3377 12.398s1-1.9375 3.875-3 5.8125-1.6875 5.8125-1.6875 6.4375.9375 6.9375 1 6 6.3125 6 6.3125l.4375 2.4375s-1.8125 1.875-6.5625-.5625-5.8125-2.375-6-2.25-5.625 2.3125-5.625 2.3125l-2.0625-1.6875-2.8125-2.875z"/><path fill="#FFF" d="M47.671 42.3355c.0834-.2084 1.5-8.6667 1.5-8.6667h-.1666s-2.6667 4.7917-5.625 5.6667l-.5 1.5416.0937 1.5181c-.6256-.0616-1.2596-.024-1.6979.2527-1.1875.75-2.375.5-2.375.5l-1.8125 1.6875-.5625.875-1.6875-.5625s-.6875-2-.875-2.0625-2.0625-.75-2.0625-.75l-1.1875.4375s-.9572-.3216-1.9857-.1018l.1107-1.7941-.5-1.5416c-2.9583-.875-5.625-5.6667-5.625-5.6667h-.1667s1.4167 8.4583 1.5 8.6667c.0643.1606 1.7091 1.8027 2.4614 2.5486-.7147 2.222.2053 4.6389.2053 4.6389l2.25 2.8125 5.25-.75 1.9375-1.5625 1.8125.9375 3.9375 1.5 2.5-1.3125s1.6875-4.5 1.75-4.6875c.0327-.098-.2592-1.0667-.5452-1.9694.8204-.8178 2.0116-2.0194 2.066-2.1555z"/><path fill="#f4aa41" d="M27.046 18.0855s.4583 2.875-2.2917 5.7083c0 0-4.3333.9167-4.5417 1.0417-.2083.125-2.3333 1.3333-2.6667 1.5-.3333.1667-1.7083-.2917-2.0417-.5417s-3.4583-5.5-3.4583-5.5l.1667-3.625 1.0417-4.375 4.6667-.5833 4 1.0417 3.8333 3.0417 1.2917 2.2916zm17.987-.8334s-.4583 2.875 2.2917 5.7083c0 0 4.3333.9167 4.5417 1.0417.2083.125 2.3333 1.3333 2.6667 1.5s1.7083-.2917 2.0417-.5417c.3333-.25 3.4583-5.5 3.4583-5.5l-.1667-3.625-1.0417-4.375-4.6667-.5833-4 1.0417-3.8333 3.0417-1.2917 2.2916z"/><path fill="#FFF" d="M27.671 51.3355l2 4.5 2.5833 1.5833 5.75.4167 4.4167-1.5833 2.4167-5.25-2.9375 1.4583-4.3958-1.4583-1.5-1.3333-3.0833 1.6667s0 1.3333-1.75.9167c-1.7501-.4168-3.5001-.9168-3.5001-.9168z"/><g><circle cx="28.778" cy="31.566" r="2" transform="rotate(-58.962 28.78 31.567)"/><circle cx="43.463" cy="31.566" r="2" transform="rotate(-31.038 43.462 31.566)"/><path fill="none" stroke="#000" stroke-linecap="round" stroke-linejoin="round" stroke-miterlimit="10" stroke-width="2" d="M40.3928 43.0656s-1.8705-1.3333-2.9394 2.0833l-1.4252 1.0833-1.4252-1.0833c-1.0689-3.4167-2.9394-2.0833-2.9394-2.0833"/><path fill="none" stroke="#000" stroke-linecap="round" stroke-linejoin="round" stroke-miterlimit="10" stroke-width="2" d="M42.9467 39.9822l2.1482 3.519c.1941.3179.3227.6662.3793 1.0272l.326 2.0779c.0856.5453.0042 1.1018-.235 1.6067l-1.1399 2.407c-.4169.8804-1.2717 1.5195-2.2925 1.7141h0c-.6475.1234-1.3206.0597-1.9273-.1826l-1.3016-.5197c-.3174-.1267-.6105-.2999-.868-.5128l-1.3748-1.1369H35.395l-1.3748 1.1369c-.2575.2129-.5505.3861-.868.5128l-1.3016.5197c-.6067.2423-1.2798.306-1.9273.1826h0c-1.0208-.1946-1.8756-.8337-2.2925-1.7141l-1.1399-2.407c-.2391-.505-.3205-1.0614-.235-1.6067l.326-2.0779c.0566-.361.1853-.7093.3793-1.0272l2.1482-3.519m6.9186 6.2498v2.75m-5.4914 6.5419l.7708.7941a4.67458 4.67458 0 0 0 3.1446 1.4142l3.0167.1356a4.67518 4.67518 0 0 0 3.1868-1.0657l.8644-.714M17.7391 26.8288c-9.9983-4.0396-4.7942-14.1799-4.7942-14.1799 7.5833-4.5833 13.833 4.75 13.833 4.75s4.8857-4.6468 12.3055-1.3781m-15.0552 7.1281s-17.3333 6.0833-13.75 25m9.1778-2.9616c-2.6014 3.7405-3.5847 9.9899 4.4889 19.4616m.0833-36.9167s-5.6115 8.4105 2.1526 17.7886m-.8203-34.6021s12.7053-9.5 19.8616 5.3333m0 .2383s6.2497-9.3333 13.833-4.75c0 0 5.2041 10.1403-4.7942 14.1799m-6.2891-3.6799s17.3333 6.0833 13.75 25m-8.0987-1.0061c1.6075 3.8321 1.2349 9.5252-5.5679 17.5062m-.0834-36.9167s5.6115 8.4105-2.1526 17.7886"/></g></svg>