<svg xmlns="http://www.w3.org/2000/svg" role="img" viewBox="21.45 2.58 29.85 67.60"><title>1F991.svg</title><path fill="#FFF" d="M43.5 42.5c0 3.866-3.134 4-7 4s-7-.134-7-4 3.134-7 7-7 7 3.134 7 7z"/><path fill="none" stroke="#FFF" stroke-linecap="round" stroke-linejoin="round" stroke-miterlimit="10" stroke-width="2" d="M25.2835 62.4614C29.1914 59.6942 32.9108 47.2868 32 45m0 13s3-7 2-13m3 0s1 9.5-1.7449 14.0283c0 0 .7449 5.0725.7449 6.3118M38 62V47m.7413-1.3482s5.0712 17.5829 1.3744 22.1837M40.116 45l5.032 17m3.1601.915c-2.276 0-7.1197-14.2912-7.6003-15.915"/><path fill="#FFF" d="M31 44.385h11V56H31z"/><path fill="#F4AA41" stroke="#F4AA41" stroke-miterlimit="10" stroke-width="2" d="M34.3784 10c-5.79 12.9984-4.5556 22.9931-4.1231 25.429.0639.3599.3185.6466.6698.7476 1.4744.4242 5.7267 1.3672 10.8636-.0046.3743-.1.6502-.4197.6987-.8041.37-2.934 1.4-15.6638-6.1921-29.3488-.2941-.5301-1.0076-.6542-1.4644-.2558-1.5776 1.3762-5.0568 4.4713-8.7078 8.1138-.0849.0847-.1513.1793-.1999.2889C25.4067 15.3311 22.68 22.34 30 26"/><path fill="#E27022" stroke="#E27022" stroke-miterlimit="10" d="M41.4704 22s5.5151-4.1668 2.7575-8.3336l-1.2444-2.1155a.3639.3639 0 0 1-.0237-.0476C41.986 9.1324 40.079 4.797 37.3341 4.5c-1.4972-.162-2.0674-.0963-1.8384.3119L36.4149 6.5"/><g><path fill="none" stroke="#000" stroke-linecap="round" stroke-linejoin="round" stroke-miterlimit="10" stroke-width="2" d="M32.6875 49.6875S33 54 31 57m11-2l1.813 7.5M38 48s4 18 1 20m-2-10v4m-1-14s-1 8-2 10 1 8 1 8"/><circle cx="32.222" cy="42" r="1.222"/><circle cx="40.778" cy="42" r="1.222"/><path fill="none" stroke="#000" stroke-linecap="round" stroke-linejoin="round" stroke-miterlimit="10" stroke-width="2" d="M34.3784 10c-6.6815 15-4.0089 26-4.0089 26s5.3452 2 12.0268 0c0 0 2.6726-15-6.6816-31C35.7147 5 31 9 26 14c0 0-5.6816 6 1 10"/><path fill="none" stroke="#000" stroke-linecap="round" stroke-linejoin="round" stroke-miterlimit="10" stroke-width="2" d="M42 22s6-4 3-8l-4-6m-9.9375 29.3125s-1.6875 4.0625-.375 6.875S25 62 24 62m18-24.6875s1.6875 4.0625.375 6.875S48.0625 62 49.0625 62"/></g></svg>