<svg xmlns="http://www.w3.org/2000/svg" role="img" viewBox="4.26 20.01 64.35 37.23"><title>1F994.svg</title><path fill="#9B9B9A" d="M13.5877 35.5855S9.421 40.7522 9.921 43.9188l-2.8333 2.5v1.5s6.8333 2.8333 13.3333.8333v2.5l.1667 2.5 3.3333 1.3333s3.8333-.6667 4.8333-6c0 0 4 1.5 5.6667 5.8333l4.6667-.3333s.6667-2.5-.1667-4.1667l20.5-.3333 2 1.8333v2l1 1.1667h2.1667l1.6667-1.8333-1.8333-6.5 1.5-4.6667s-17.3333 10.5-41.3333-3.1667l-1.8333-3.8333s-3.8333.6667-3.6667 1.6667c-.0001 0-.8334-2.6666-5.5001-1.1666z"/><path fill="#6A462F" d="M18.5877 30.5021l-3.5 5.5s4.0833.1667 4 1.5833c-.0833 1.4167 2.5 2.4167-.4167 6.5833l2.1667 1 1.4167-1.0833 1.5833-3.5.75-1.6667S43.671 53.3354 65.921 42.0854l1.5833-3-5-5-.5833-2.1667-.6667-2.8333-3.9167-.75-3.5-4-7.9167-1.3333-4.25-1.5833-3.8333 2.75-3.8333-.9167-4.1667 2.9167-1.9167.0833-3.4167-.3333-2.25 4.8333-2.3333.0833-1.3332-.3333z"/><g fill="none" stroke="#000" stroke-linecap="round" stroke-linejoin="round" stroke-miterlimit="10" stroke-width="2"><path d="M24.4626 26.6384c-.856 2.25-1.8321 3.2941-2.6133 4.0861-.5593.567-1.4467.6356-2.0742.1451l-1.1842-.9257-3.4235 5.054c-.4522.6675-1.2059 1.0673-2.0121 1.0673h0s-2.6719 3.2711-3.6021 6.8056c-.2609.9913-.8825 1.8494-1.7039 2.4625l-.3813.2847s-2.3508 1.9617.455 2.8147c0 0 9.623 3.0391 14.9564-1.2109m18.4991-24.9167s-1.8239 1.2266-3.1987 1.4888c-.591.1127-1.1626.2298-1.7154.3508l-3.1685-.6729c-1.5711 1.7948-3.7536 2.6499-5.291 3.3242m31.9577 2.0091c-1.9853 0-2.5489-.1535-3.6695-1.0568-.8687-.7003-1.6041-1.5463-2.172-2.5068l-.4085-.6909c-2.6409 0-5.4664-.3191-8.0477-.7441m20.5895 14.6942c-3.0964-1.1547-3.5341-4.4159-4.5581-5.7359M20.8181 51.7455l-.2275.4726c-.639 1.3278.3286 2.8673 1.8022 2.8673h1.6275c.7345 0 1.41-.4027 1.7593-1.0488l2.8454-5.2629s3.5011 1.4508 4.7542 5.0364c.2731.7814 1.0483 1.2753 1.876 1.2753h2.0227c1.1869 0 2.121-1.028 1.9899-2.2077-.1031-.9279-.2908-1.8895-.633-2.3128 0 0 15.1566.4371 20.0075-.6121 1.0237-.2214 2.0438.3984 2.2698 1.4212.1096.4959.1747 1.0522.1418 1.6371-.0641 1.1392.8536 2.0744 1.9946 2.0744h.3886c1.1246 0 2.0006-.7999 2.0742-1.842.1232-1.7442-.0146-4.3923-1.5486-6.4315 0 0 1.1334-.9919 1.1126-4.0873"/><path d="M19.2107 37.2177s2.1233-3.3264 4.0191-.3412c1.2792 2.0143-.3073 5.0412-1.4745 6.797-.5543.8338-1.618 1.1557-2.5445.7763h0m8.2102-9.8528l5-4.125m-.875 9.648l6-2.058m-.625-5.297l6.047-2.793m-3.024 13.5l6.852-.747m2-6.092l6.875 1.232m-8.727-5.375l5.454-2.503m.642 13.782l6.261 1.677"/></g></svg>