<svg xmlns="http://www.w3.org/2000/svg" role="img" viewBox="3.76 14.64 64.35 48.85"><title>1F993.svg</title><path fill="#FFF" d="M10.2544 20.6688l1.75 1.4167s-7.6667 8-5.3333 13.5l4.1667-.1667s1.8333-3.75 6.3333-4.75l1 3.3333s4.1667 3.6667 4.3333 3.9167c.1667.25 2.6667 4.1667 2.6667 4.1667l3.4167 1.6667.75 7.25-1.1667 10 2.5.75 1.25-.6667 2.0833-16.5 3.75.3333 9.25-1.75 2.5833-3.4167 3.4167 4.75 1.9167 4.6667-.3333 6.25-1.25 3.25-.8333 2 1.5.75 1.6667-.25 1.6667-3.5833 2.1667-9.25-2.0833-4.3333 2.6667-4s2.3333-7.5-1.5833-11.6667-8-3.5-8-3.5l-7.8333 1.75s-6.5833-.0833-6.8333-.0833-4.9167-.9167-4.9167-.9167.5833-2.3333-1.75-4.0833-13.3333-4.9167-13.3333-4.9167-4.1671.5833-5.5837 4.0833z"/><path fill="#d0cfce" d="M49.5877 39.7521l-2.5833 3.4167 1.25 6.25-4.5 10.6667s2.75 1.0833 3.0833 1.0833 5.25-8.1667 5.25-8.1667 2.4167-4.8333.9167-8.5c-1.5-3.6666-3.4167-4.75-3.4167-4.75zM13.2752 22.5855s3.4375-4.4375 17.0625 4.1667l.5833-1.1667-1.75-4.0833-12.5-4.8333s-7.1149.8377-5.75 4.25c.0417.1041 2.3542 1.6666 2.3542 1.6666z"/><g fill="none" stroke="#000" stroke-linecap="round" stroke-linejoin="round" stroke-miterlimit="10" stroke-width="2"><path d="M18.1544 25.4082s1.3961 4.9702-2.513 6.0871-4.8585 3.7416-4.8585 3.7416-3.9092 1.8987-4.691-1.8987 3.6858-8.3768 3.6858-8.3768l2.5689-2.5689-1.9546-1.6754s2.8768-5.4202 8.2748-3.2422 10.6667 4.3604 10.6667 4.3604 2.0563 1.7299 1.6654 4.1871c0 0 8.068 2.0936 17.8564-.7505 1.3381-.3888 2.7579-.3941 4.1104-.0589 2.3706.5875 5.6294 2.1206 7.0727 6.1147 2.4013 6.6456-3.0156 12.6768-3.0156 12.6768l1.9546 4.6351-1.5078 8.9911-1.8002 3.0923c-.1983.3657-.581.5935-.997.5935h-1.0495c-.8724 0-1.4182-.9437-.9831-1.6999l1.3675-2.3768c1.2584-2.9501 1.3444-6.2662.2583-9.2841-1.5204-4.2249-4.335-8.5601-4.335-8.5601s-3.0715 7.2894-12.7125 4.4197"/><path d="M19.0934 33.6473s.8495 1.464 2.0882 2.5242c1.1976 1.025 2.1398 2.3157 2.8434 3.7263.8153 1.6348 2.2451 3.4701 4.6282 3.8275l.6143 7.204s-.0317 6.342-.943 9.2166c-.1843.5813.237 1.1707.8468 1.1706h1.9491c.4895 0 .8879-.3939.8935-.8834l.4368-9.2245.7312-6.6456s-.3909-4.4118.7818-6.0871m13.1434 4.4754s-.9404 1.4675 1.153 6.7496c-.8139 3.3558-1.8987 6.9806-4.4676 9.9404-.3367.5956.2093 1.3403.8935 1.3403h1.3615c.7774 0 1.4913-.4289 1.8564-1.1152l.8029-1.5095 2.4297-5.4235m11.2926-25.6823s4.9702-1.452 3.1832 14.5756M40.5017 26.6978s5.665 4.3043 1.9983 14.3043m-5.4086 2.8298s2.5452-6.7005.4651-12.6171m9.8569-5.557s3.6699 5.5943 1.0033 10.511m-23.4291 4.6553s2.8881-8.4483 0-13.9483"/></g></svg>