<svg xmlns="http://www.w3.org/2000/svg" role="img" viewBox="2.71 7.59 67.08 55.58"><title>1F995.svg</title><path fill="#A57939" d="M5 52s15-3 17-10 14.6667-11.1667 20.8333-8.5833c0 0 6.3333.5833 8.25-7.4167C53 18 55 9 62 10s6.1667 6.3333 4.0833 7.1667C64 18 61 18 60 19.5s-2.1667 16.1667-6.5833 19.8333c0 0-4.9167 6.5-4.6667 9.5833C49 52 50.5833 61.25 47 61c-3.6293-.2532-3-7-3-8s-8-3-11-1-2.1667 8-4.5833 8.5-4.9167.3333-5.6667-.5833c-.75-.9167.5994-6.6877-.5-8.6667"/><path fill="none" stroke="#000" stroke-linecap="round" stroke-linejoin="round" stroke-width="2" d="M5 52s15-3 17-10 14.6667-11.1667 20.8333-8.5833c0 0 6.3333.5833 8.25-7.4167C53 18 55 9 62 10s6.1667 6.3333 4.0833 7.1667C64 18 61 18 60 19.5s-2.1667 16.1667-6.5833 19.8333c0 0-4.9167 6.5-4.6667 9.5833C49 52 50.5833 61.25 47 61c-3.6293-.2532-3-7-3-8s-8-3-11-1-2.1667 8-4.5833 8.5-4.9167.3333-5.6667-.5833c-.75-.9167.5994-6.6877-.5-8.6667"/></svg>