<svg xmlns="http://www.w3.org/2000/svg" role="img" viewBox="6.87 4.62 65.52 58.65"><title>1F9AF.svg</title><path fill="#3f3f3f" d="M54.26 17.4722l6.5031-6.5031a1.2343 1.2343 0 0 0 0-1.7455l-.7191-.7192a1.2259 1.2259 0 0 0-1.7335 0l-6.5091 6.5091z"/><path fill="#d0cfce" d="M19.95642 46.85868l31.84455-31.84455 2.45861 2.4586L22.41503 49.3173z"/><path fill="#ea5a47" d="M9.842 56.973l10.114-10.115 2.459 2.459-9.909 9.909-2.664-2.253z"/><path fill="#d0cfce" d="M9.6356 57.0559l.206-.0831 2.664 2.2532-.0426.1656c-.1756 1.1215-2.8462 1.9481-3.3242 1.47l-.7233-.7232c-.4803-.4804-.0092-2.4678 1.2201-3.0825z"/><g fill="none" stroke="#000"><path stroke-linecap="round" stroke-linejoin="round" stroke-width="2" d="M54.26 17.4722L12.5056 59.226l-.0426.1656c-.1756 1.1215-2.8462 1.9481-3.3242 1.47M54.26 17.4722l6.5031-6.5031a1.2343 1.2343 0 0 0 0-1.7455l-.7191-.7192"/><path stroke-miterlimit="10" d="M61.6354 8.867s1.2293-2.4586 4.9172-2.4586 4.9172 7.3758 3.6879 8.6051-3.6879-2.4586-4.9172-3.6879a17.684 17.684 0 0 0-3.6879-2.4586z"/></g></svg>