<svg xmlns="http://www.w3.org/2000/svg" role="img" viewBox="7.25 15.25 58.63 41.51"><title>1F9A6.svg</title><path fill="#a57939" d="M30.5206 30.6956c.8556.3943 1.7036 1.1046 2.45 3.1629m5.5086 4.5483a17.5846 17.5846 0 0 1-5.5482.86 3.33 3.33 0 0 1-2.1582-.8086c-.14-.1166-.2537-.21-.2836-.2311a9.7692 9.7692 0 0 1-2.2671-3.6693c-.3573-.7-.7263-2.6367-.0554-3.4371a1.967 1.967 0 0 1 2.3539-.425c.8556.3943 1.675.7294 2.4215 2.7877M20.5775 47.2816a17.5835 17.5835 0 0 0 3.5147-4.3782 3.3294 3.3294 0 0 0 .3767-2.2737c-.0311-.18-.0552-.3245-.0586-.3611a9.77 9.77 0 0 0-2.0477-3.7961c-.4281-.6589-1.9222-1.9456-2.9506-1.7638a1.9669 1.9669 0 0 0-1.5433 1.8275c-.0855.9382.1067 2.0276 1.5175 3.702"/><g fill="#6a462f"><ellipse cx="21.899" cy="29.17" rx="10.324" ry="8.514" transform="rotate(-25.413 21.899 29.17)"/><path d="M23.0873 19.5839a2.254 2.254 0 1 1 4.363 1.1022zM11.3274 29.8272a2.254 2.254 0 1 1 1.3326-4.2983z"/><path d="M62.4588 34.6236a2.3772 2.3772 0 0 0-1.2617-.2893l.1934-.4758a24.4589 24.4589 0 0 0-1.705-12.5578 4.2881 4.2881 0 0 0-3.57-2.1529 4.0869 4.0869 0 0 0-3.0907.91 4.3548 4.3548 0 0 0-1.6869 4.3913c.1626.7685 1.4726 5.2522 1.917 6.9218a2.5492 2.5492 0 0 0-.4658-.9673l-2.3575-2.9895a2.3717 2.3717 0 1 0-3.7047 2.9249 29.1457 29.1457 0 0 0 2.5241 2.3779c-4.375 1.7342-4.5891 4.5765-4.2728 6.2336-2.7986.3372-6.5353.1352-8.34-1.8727a15.8512 15.8512 0 0 0-5.7829-5.0272L16.933 37.9339l2.361 7.7682c3.1814 5.119 9.024 10.6091 24.8243 8.3766a18.0218 18.0218 0 0 0 12.2577-8.0814l.8662-1.1787c.2078-.3356.8645-1.1355 1.2591-1.1253a3.4341 3.4341 0 0 0 2.7957-1.61l2.0439-3.6767a2.7536 2.7536 0 0 0-.8821-3.783zm-9.1408-3.0122l-.0044.0022c-.0017-.0105-.0012-.02-.0031-.0307z"/><path d="M63.3409 38.4068c-.1313.2364-.3156.5735-.4941.9zm-.4941.8997l-.4111.7487c.1043-.1882.2557-.4645.4111-.7487zM50.4314 27.4141c.1479.1873.3587.4509.564.7077zm.564.7077l.4968.6233c-.1241-.1572-.3082-.3875-.4968-.6233z"/><g><path d="M54.0832 36.1775c-.083-.322-1.0457-5.4586-1.2943-5.7739l-2.3575-2.9895a2.3717 2.3717 0 1 0-3.7047 2.9249 29.1457 29.1457 0 0 0 2.5241 2.3779c-4.375 1.7342-4.5891 4.5765-4.2728 6.2336m8.34-7.3391l-.0044.0022c-.0017-.0105-.0012-.02-.0031-.0307zm10.0229 6.7954c-.1313.2364-.3156.5735-.4941.9zm-.4941.8997l-.4111.7487c.1043-.1882.2557-.4645.4111-.7487z"/><path d="M50.4314 27.4141c.1479.1873.3587.4509.564.7077zm.564.7077l.4968.6233c-.1241-.1572-.3082-.3875-.4968-.6233z"/></g></g><path fill="#a57939" d="M44.978 38.95l4.718-1.009 4.073-1.432"/><g><path d="M50.4313 27.4141l2.3576 2.9895a3.1084 3.1084 0 0 1 .3692 2.8964c-.1462.3259.2927 1.1534.5005 1.444l1.5433 2.9341m-5.9511-4.9611c-4.3719 1.7329-4.591 4.5765-4.2757 6.234m5.4562-11.5369a2.3717 2.3717 0 1 0-3.7046 2.9249 29.163 29.163 0 0 0 2.5241 2.378m2.2414-3.9719c-.2593-.3284-.7772-.9717-1.0609-1.331" fill="none" stroke="#000" stroke-linecap="round" stroke-miterlimit="10" stroke-width="2.079"/><path fill="none" stroke="#000" stroke-miterlimit="10" stroke-width="2.079" d="M17.8515 37.7311q-.3114-.0795-.6129-.1785a8.9761 8.9761 0 0 1-1.03-.4092 7.4746 7.4746 0 0 1-3.6354-3.5429c-2.0178-4.247.5215-9.6735 5.6716-12.12s10.9609-.9875 12.9787 3.2595a7.6817 7.6817 0 0 1 .1171 6.1127m-3.1151 4.2901a12.3479 12.3479 0 0 1-2.6732 1.7172 12.4971 12.4971 0 0 1-2.0086.7521"/><path fill="none" stroke="#000" stroke-miterlimit="10" stroke-width="2.079" d="M23.0873 19.5839a2.5318 2.5318 0 0 1 2.8527-2.1057 2.5318 2.5318 0 0 1 1.51 3.2079m-16.1226 9.1411A2.4637 2.4637 0 0 1 9.48 26.8987a2.4637 2.4637 0 0 1 3.18-1.37m35.4367 13.2192c-2.3193.7787-8.2338-.3219-11.4588-1.67 0 0-1.5714-.57-3.6671-3.2193m21.4245 14.7326a18.0605 18.0605 0 0 1-10.277 5.4875c-12.2062 1.7247-17.6019-.699-21.6257-4.4164a16.5206 16.5206 0 0 1-2.3359-2.6781 28.2524 28.2524 0 0 1-3.3387-10.0458"/><path fill="none" stroke="#000" stroke-linecap="round" stroke-miterlimit="10" stroke-width="2.079" d="M53.3181 31.6115c-.3679-1.4325-1.8094-6.3545-1.98-7.1624a4.3551 4.3551 0 0 1 1.6869-4.3914 4.0876 4.0876 0 0 1 3.0907-.91 4.2885 4.2885 0 0 1 3.57 2.1529h0a24.4578 24.4578 0 0 1 1.705 12.5578m-6.9954 14.7328c.695-.8544 2.1121-2.6545 3.2123-4.3146"/><g fill="none" stroke="#000" stroke-linecap="round" stroke-miterlimit="10" stroke-width="2.079"><path d="M63.3409 38.4068l-2.0439 3.6768a3.4343 3.4343 0 0 1-2.7957 1.61c-.3946-.01-1.0513.79-1.2591 1.1252l-1.81 2.463m1.9995-7.8202c-5.3622-5.4962-9.335-.7137-9.335-.7137a4.53 4.53 0 0 0-.7979 2.75"/><path d="M57.4317 39.4616a32.24 32.24 0 0 1 1.3495-3.5862 2.62 2.62 0 1 1 4.56 2.5314m-.9055 1.6484c.2244-.4042.66-1.2061.9052-1.6484"/></g><path fill="none" stroke="#000" stroke-linecap="round" stroke-miterlimit="10" stroke-width="2.079" d="M32.9708 33.8585c-1.3922-1.5145-1.6012-2.9507-2.4568-3.345a2.2086 2.2086 0 0 0-2.4655.6538c-.6709.8-.1837 2.6906.1736 3.39h0a9.7692 9.7692 0 0 0 2.2671 3.6693c.03.0213.1434.1145.2836.2311a3.33 3.33 0 0 0 2.1582.8086m-13.5448.709c-1.4108-1.6743-1.603-2.7637-1.5175-3.7019a1.9669 1.9669 0 0 1 1.5433-1.8275c1.0284-.1818 2.5225 1.1049 2.9506 1.7638h0a9.77 9.77 0 0 1 2.0474 3.7961c.0034.0366.0275.1814.0586.3611a3.3294 3.3294 0 0 1-.3767 2.2737 22.219 22.219 0 0 1-1.3 1.94"/><path d="M24.7733 29.0777a1.0411 1.0411 0 0 1 .1694 1.0933l-.677 1.3941a.8315.8315 0 0 1-.8857.4769l-1.2983-.1762a1.4475 1.4475 0 0 1-1.1577-1.1782.7255.7255 0 0 1 .4259-.7625l2.2389-1.1635a.9762.9762 0 0 1 1.1845.3161z"/><circle cx="17.852" cy="28.745" r="1"/><circle cx="23.913" cy="25.391" r="1"/></g><g><path fill="#a57939" d="M44.4448 44.628c-.03 2.4345-7.8851 5.1128-12.0379 3.2973-4.4271-1.9353-6.3237-6.284-5.1153-8.1263a1.9065 1.9065 0 0 1 2.985-.3947 3.9137 3.9137 0 0 0 3.2617.7079s1.382.2874 2.1685.4875c4.6912 1.1929 8.765 1.8654 8.738 4.0283z"/></g></svg>