<svg xmlns="http://www.w3.org/2000/svg" role="img" viewBox="11.38 10.00 49.12 51.87"><title>1F9B9-200D-2642-FE0F.svg</title><path fill="#F4AA41" d="M26 38.0959c-3 0-4-7-4-14 0-6 5-12 14-12s14 6 14 12c0 7-1 14-4 14"/><path fill="#FCEA2B" d="M24.9623 30.4706c-.1015 8.299 4.0635 14.5251 11 14.5251 7.0635 0 11.0635-6.225 11.0635-14.5251 0-5.1875-3-10.3751-3-10.3751-8 0-10 3.1125-16 1.0375-1.8525 2.7489-2.9148 5.9869-3.0635 9.3376z"/><path fill="#3F3F3F" d="M35.9935 45c-2.7523 0-5.2888-1.2704-7.2341-3.4094l-15.3682-.0076c1.694 2.6777 4.6436 8.9425 5.1442 10.7899h34.9291c.4994-1.8426 3.4345-8.0783 5.1306-10.7675l-15.3727-.0076C41.2778 43.7329 38.7431 45 35.9935 45z"/><path fill="#5C9E31" d="M36 32.706c-.4906.9134-2.9358 2.556-5.8905 2.566-2.4937.0084-5.3503-1.146-7.7007-4.8833-.8499-1.3361-2.4223-5.0381-2.4223-8.0675 1.9916 6.7499 6.304 3.5056 10.6368 3.5306 1.848.0107 3.6998.6161 5.3767 2.8456 1.6769-2.2294 3.5286-2.8349 5.3767-2.8456 4.3328-.025 8.6452 3.2193 10.6368-3.5306 0 3.0294-1.5724 6.7314-2.4223 8.0675-2.3504 3.7372-5.207 4.8917-7.7007 4.8833-2.9547-.01-5.3999-1.6526-5.8905-2.566z"/><path fill="#B1CC33" d="M17 61v-4c0-4.9941 5.0078-9 10-9 6 5 12 5 18 0 4.9941 0 10 4.0059 10 9v4"/><path fill="#3F3F3F" d="M47.392 61c-.2717-1.0124-.6203-3.1588-1.0429-4.118a21.01594 21.01594 0 0 0-4.2926-6.2814h-12.113a21.01594 21.01594 0 0 0-4.2926 6.2814c-.4226.9592-.7712 3.1056-1.0429 4.118"/><g><path fill="none" stroke="#000" stroke-linecap="round" stroke-linejoin="round" stroke-width="2" d="M39 38.9729c-1.875-1-4.125-1-6 0"/><path d="M42 29.9729c0 1.1046-.8954 2-2 2s-2-.8954-2-2 .8954-2 2-2 2 .8954 2 2m-8 0c0 1.1046-.8954 2-2 2s-2-.8954-2-2 .8954-2 2-2 2 .8954 2 2"/><path fill="none" stroke="#000" stroke-linecap="round" stroke-linejoin="round" stroke-width="2" d="M28.4297 41.6054l-15.0384-.0224c1.694 2.6777 4.6436 8.9425 5.1442 10.7899"/><path fill="none" stroke="#000" stroke-linecap="round" stroke-miterlimit="10" stroke-width="2" d="M20.5496 53.6671a11.89382 11.89382 0 0 1 4.048-3.3589 11.74754 11.74754 0 0 1 3.3071-1.088m1.3038.4864c-3.4125 1.1596-5.9768 4.0098-6.7705 7.5255m7.5055-6.6315a21.01594 21.01594 0 0 0-4.2926 6.2814c-.4226.9592-.7712 2.1056-1.0429 3.118"/><path fill="none" stroke="#000" stroke-linecap="round" stroke-linejoin="round" stroke-width="2" d="M46.53 26.5543c-.8517-3.5967-2.5042-6.4587-2.5042-6.4587-8 0-10 3.1125-16 1.0375-1.1138 1.6528-1.9359 3.4845-2.4515 5.4092m-.4494 6.9574c.8301 6.7393 4.7748 11.496 10.8375 11.496 6.1623 0 9.9912-4.7392 10.8683-11.4594M17 60v-3c0-4.9941 5.0078-9 10-9 6 5 12 5 18 0 4.9941 0 10 4.0059 10 9v3"/><path fill="none" stroke="#000" stroke-linecap="round" stroke-linejoin="round" stroke-width="2" d="M53.4646 52.3729c.5006-1.8474 3.4502-8.1122 5.1442-10.7899l-15.0685.0224"/><path fill="none" stroke="#000" stroke-linecap="round" stroke-miterlimit="10" stroke-width="2" d="M44.0953 49.2202c1.1503.1964 2.2649.5631 3.3071 1.088a11.89382 11.89382 0 0 1 4.048 3.3589m-1.8884 3.565c-.7937-3.5157-3.358-6.3659-6.7705-7.5255M47.392 60c-.2717-1.0124-.6203-2.1588-1.0429-3.118a21.01594 21.01594 0 0 0-4.2926-6.2814"/><path fill="none" stroke="#000" stroke-linejoin="round" stroke-width="2" d="M36 32.706c-.4906.9134-2.9358 2.556-5.8905 2.566-2.4937.0084-5.3503-1.146-7.7007-4.8833-.8499-1.3361-2.4223-5.0381-2.4223-8.0675 1.9916 6.7499 6.304 3.5056 10.6368 3.5306 1.848.0107 3.6998.6161 5.3767 2.8456 1.6769-2.2294 3.5286-2.8349 5.3767-2.8456 4.3328-.025 8.6452 3.2193 10.6368-3.5306 0 3.0294-1.5724 6.7314-2.4223 8.0675-2.3504 3.7372-5.207 4.8917-7.7007 4.8833-2.9547-.01-5.3999-1.6526-5.8905-2.566z"/><path fill="none" stroke="#000" stroke-linecap="round" stroke-linejoin="round" stroke-width="2" d="M46 38.0959c2.1009 0 3.2185-3.4368 3.7012-7.8987-.0357.06-.0764.1387-.11.1915m-27.1824 0c-.0336-.0528-.0743-.1315-.11-.1915.4827 4.4619 1.6003 7.8987 3.7012 7.8987m23.9761-12.2667c.0143-.5757.0239-1.1537.0239-1.7333 0-6-5-12-14-12s-14 6-14 12c0 .5797.0096 1.1577.0239 1.7333"/></g></svg>