<svg xmlns="http://www.w3.org/2000/svg" role="img" viewBox="11.35 8.85 49.16 53.04"><title>1F9B9-1F3FE-200D-2640-FE0F.svg</title><path d="M18.0392 47.4084a24.0526 24.0526 0 0 0 3.6331 2.7193 10.46449 10.46449 0 0 1 5.361-2.09c6.209 5.0127 12.4951 5.0127 18.7 0a8.34303 8.34303 0 0 1 4.2087 1.5136 22.78654 22.78654 0 0 0 2.972-2.33c1.1884-.7148 3.125-8.2822.3916-13.0254a23.74038 23.74038 0 0 1-1.1573-2.6328c-1.4726-3.27-2.0234-4.4927-2.3486-10.5239.0273-3.6929-3.794-6.7842-7.4746-7.0928a1.00165 1.00165 0 0 1-.6885-.3433c-.0928-.1-2.4082-2.6547-7.2432-2.6547-6.2 0-11.4413 3.3818-12.743 8.226a18.51822 18.51822 0 0 0-.5645 6.1758 13.31733 13.31733 0 0 1-.7607 5.9609 6.80345 6.80345 0 0 1-1.1192 2.0879c-3.7723 4.4196-.9745 14.3024-1.1668 14.0094z"/><path fill="#a57939" d="M25.1846 29.878v.9912C25.1846 38.7924 29.9144 45 35.9532 45S46.722 38.7921 46.722 30.8693c0-4.8198-1.8249-7.784-5.4224-11.5327-2.9045 2.2482-5.9896 4.248-9.2235 5.9785-2.7158 1.5684-6.4186 3.697-6.8915 4.5629z"/><path fill="#3F3F3F" d="M35.9935 45c-2.7523 0-5.2888-1.2704-7.2341-3.4094l-15.3682-.0076c1.694 2.6777 4.6436 8.9425 5.1442 10.7899h34.9291c.4994-1.8426 3.4345-8.0783 5.1306-10.7675l-15.3727-.0076C41.2778 43.7329 38.7431 45 35.9935 45z"/><path fill="#5C9E31" d="M36 32.706c-.4906.9134-2.9358 2.556-5.8905 2.566-2.4937.0084-5.3503-1.146-7.7007-4.8833-.8499-1.3361-2.4223-5.0381-2.4223-8.0675 1.9916 6.7499 6.304 3.5056 10.6368 3.5306 1.848.0107 3.6998.6161 5.3767 2.8456 1.6769-2.2294 3.5286-2.8349 5.3767-2.8456 4.3328-.025 8.6452 3.2193 10.6368-3.5306 0 3.0294-1.5724 6.7314-2.4223 8.0675-2.3504 3.7372-5.207 4.8917-7.7007 4.8833-2.9547-.01-5.3999-1.6526-5.8905-2.566z"/><path fill="#B1CC33" d="M17 61v-4c0-4.9941 5.0078-9 10-9 6 5 12 5 18 0 4.9941 0 10 4.0059 10 9v4"/><path fill="#3F3F3F" d="M47.392 61c-.2717-1.0124-.6203-3.1588-1.0429-4.118a21.01594 21.01594 0 0 0-4.2926-6.2814h-12.113a21.01594 21.01594 0 0 0-4.2926 6.2814c-.4226.9592-.7712 3.1056-1.0429 4.118"/><g><path fill="none" stroke="#000" stroke-linecap="round" stroke-linejoin="round" stroke-width="2" d="M54.7803 40.7757a11.58606 11.58606 0 0 0-.8736-5.9435c-2.4043-5.67-3.042-5.6425-3.4287-12.8222-.0322-4.1856-3.2362-7.6631-7.4052-8.0371 0 0-2.6-3-8-3-6.4317 0-12.23 3.4658-13.709 8.9658-1.5 5.583.3447 7.834-1.291 12.0342-1.2173 3.1275-3.0181 6.0642-2.928 9.4371"/><path fill="none" stroke="#000" stroke-linejoin="round" stroke-width="2" d="M25.1846 33.6654C26.1526 40.2963 30.6811 45 35.9935 45c5.3363 0 9.8817-4.7461 10.8219-11.4242"/><path fill="none" stroke="#000" stroke-linecap="round" stroke-linejoin="round" stroke-width="2" d="M46.2879 26.1914c-.9234-2.519-2.6619-4.665-5.2154-7.2185-2.117 2.117-7.282 4.8159-10.9157 6.9M39 38.9729c-1.875-1-4.125-1-6 0"/><path d="M42 29.9729c0 1.1046-.8954 2-2 2s-2-.8954-2-2 .8954-2 2-2 2 .8954 2 2m-8 0c0 1.1046-.8954 2-2 2s-2-.8954-2-2 .8954-2 2-2 2 .8954 2 2"/><path fill="none" stroke="#000" stroke-linecap="round" stroke-linejoin="round" stroke-width="2" d="M28.773 41.6054l-15.3817-.0224c1.694 2.6777 4.6436 8.9425 5.1442 10.7899"/><path fill="none" stroke="#000" stroke-linecap="round" stroke-miterlimit="10" stroke-width="2" d="M20.5496 53.6671a11.89382 11.89382 0 0 1 4.048-3.3589 11.74754 11.74754 0 0 1 3.3071-1.088m1.3038.4864c-3.4125 1.1596-5.9768 4.0098-6.7705 7.5255m7.5055-6.6315a21.01594 21.01594 0 0 0-4.2926 6.2814c-.4226.9592-.7712 2.1056-1.0429 3.118"/><path fill="none" stroke="#000" stroke-linejoin="round" stroke-width="2" d="M36 32.706c-.4906.9134-2.9358 2.556-5.8905 2.566-2.4937.0084-5.3503-1.146-7.7007-4.8833-.8499-1.3361-2.4223-5.0381-2.4223-8.0675 1.9916 6.7499 6.304 3.5056 10.6368 3.5306 1.848.0107 3.6998.6161 5.3767 2.8456 1.6769-2.2294 3.5286-2.8349 5.3767-2.8456 4.3328-.025 8.6452 3.2193 10.6368-3.5306 0 3.0294-1.5724 6.7314-2.4223 8.0675-2.3504 3.7372-5.207 4.8917-7.7007 4.8833-2.9547-.01-5.3999-1.6526-5.8905-2.566z"/><path fill="none" stroke="#000" stroke-linecap="round" stroke-linejoin="round" stroke-width="2" d="M17 60v-3c0-4.9941 5.0078-9 10-9 6 5 12 5 18 0 4.9941 0 10 4.0059 10 9v3"/><path fill="none" stroke="#000" stroke-linecap="round" stroke-linejoin="round" stroke-width="2" d="M53.4646 52.3729c.5006-1.8474 3.4502-8.1122 5.1442-10.7899l-15.3818.0224"/><path fill="none" stroke="#000" stroke-linecap="round" stroke-miterlimit="10" stroke-width="2" d="M44.0953 49.2202c1.1503.1964 2.2649.5631 3.3071 1.088a11.89382 11.89382 0 0 1 4.048 3.3589m-1.8884 3.565c-.7937-3.5157-3.358-6.3659-6.7705-7.5255M47.392 60c-.2717-1.0124-.6203-2.1588-1.0429-3.118a21.01594 21.01594 0 0 0-4.2926-6.2814"/></g></svg>