<svg xmlns="http://www.w3.org/2000/svg" role="img" viewBox="11.99 9.87 45.63 45.76"><title>1F9BD.svg</title><g id="color"><path fill="#fff" d="m26.307,29.4551s-2.6641-.6524-4.0777.5981-3.0991,10.2758-3.2622,11.2545,2.3923,3.534,2.3923,3.534l2.9903-1.1961s.2718-11.472,1.9573-14.1905Z"/><path fill="#ea5a47" d="m50.33,11.0293c.9038-.1443,1.4512.6169,1.2165,1.6916l-3.5293,16.16c-.2482,1.0838-1.2989,1.7857-2.3952,1.6l-21.1332-3.8018c-.6015.001-1.09-.4859-1.091-1.0874-.0005-.3166.1368-.6178.3761-.8251l.073-.0908c.8156-.9055,2.0157-1.3653,3.2275-1.2367l15.6617,2.5533c1.1146.1582,2.1753-.5295,2.4857-1.6116l2.9532-11.1557c.2783-1.0622,1.0982-1.8976,2.155-2.1958Z"/><circle cx="40.893" cy="38.817" r="14.962" fill="#d0cfce"/><circle cx="22.52" cy="50.13" r="3.897" fill="#d0cfce"/></g><g id="line" fill="none" stroke="#000" stroke-linecap="round" stroke-linejoin="round"><path stroke-width="2" d="M19.247 45.289L13.941 45.289M51.759 11.748L48.742 25.563M30.35 27.3077l-5.7455-.9827c-2.2158-.1266-4.229 1.284-4.8664 3.41 0 0-4.2077 9.749-2.3324 17.2505"/><circle cx="40.893" cy="38.817" r="14.962" stroke-width="2"/><circle cx="22.52" cy="50.13" r="3.897" stroke-width="1.6"/><path stroke-width="2" d="M17.182 43.032L20.214 46.233"/></g></svg>