<svg xmlns="http://www.w3.org/2000/svg" role="img" viewBox="13.68 1.68 45.01 68.51"><title>1F9BA.svg</title><path fill="#e27022" d="M15.52 11.4v49.2a7.4 7.4 0 0 0 7.4 7.4H48.8a7.4 7.4 0 0 0 7.4-7.4V11.4A7.4 7.4 0 0 0 48.8 4L36.2773 5.47q-.2772.01-.5546 0L23.2 4h-.28a7.4 7.4 0 0 0-7.4 7.4z"/><path fill="none" stroke="#fcea2b" stroke-miterlimit="10" stroke-width="2" d="M51.36 4.038L43.076 48.8M20.64 4.038L28.32 48.8m9.68 0h18.48m-40.96 0H34m4 10.24h18.48m-40.96 0H34"/><path fill="#ea5a47" d="M25.24 6l9.24 15.694v42.29L33.085 67h6.299L38 63.984v-42.19L47.24 6h-22z"/><g fill="none" stroke="#000" stroke-linecap="round" stroke-width="2"><path stroke-linejoin="round" d="M44.0325 68H48.97a7.51 7.51 0 0 0 7.51-7.51V9.5156C56.48 5 52.2 4 50.92 4h-1.4106a1.28 1.28 0 0 0-1.0854.6016l-9.81 16.2647a4.2317 4.2317 0 0 0-.5984 1.8988l-.0063.0915Q38 23 38 23.1437v38.8238A6.0326 6.0326 0 0 0 44.0325 68z"/><path stroke-miterlimit="10" d="M48 5S38 6 36 6 25 5 25 5m7 62s3.2571.1077 4.38.1c1.06-.0073 4.12-.1 4.12-.1"/><path stroke-linejoin="round" d="M28.4475 68H23.51A7.51 7.51 0 0 1 16 60.49V9.5156C16 5 20.28 4 21.56 4h1.4106a1.28 1.28 0 0 1 1.0854.6016l9.81 16.2647a4.2317 4.2317 0 0 1 .5984 1.8988l.0062.0915q.01.1434.01.2871v38.8238A6.0326 6.0326 0 0 1 28.4475 68z"/></g></svg>