<svg xmlns="http://www.w3.org/2000/svg" role="img" viewBox="10.06 11.06 45.75 48.75"><title>1F9B6-1F3FC.svg</title><path fill="#debb90" d="M38 13s2 18 2 23c0 4.1231-2.1716 7.5858-5 9-4 2-14 7-19 7h-3.4a4.8944 4.8944 0 0 0-.6 2.5 3.5 3.5 0 0 0 3.5 3.5H49a5 5 0 0 0 5-5c0-6-3-11-3-17s3-23 3-23v-1H38z"/><path fill="#c19a65" d="M45.5 58H49a5 5 0 0 0 5-5c0-6-3-11-3-17s3-23 3-23v-1h-4s-3 17-3 23 3 11 3 17a5 5 0 0 1-5 5z"/><g fill="none" stroke="#000" stroke-linecap="round" stroke-width="2"><path stroke-linejoin="round" d="M38 13s2 18 2 23c0 4.1231-2.1716 7.5858-5 9-4 2-14 7-19 7h-3.4a4.8944 4.8944 0 0 0-.6 2.5 3.5 3.5 0 0 0 3.5 3.5H49a5 5 0 0 0 5-5c0-6-3-11-3-17s3-23 3-23"/><path stroke-miterlimit="10" d="M48 47a4 4 0 0 1-4 4"/></g></svg>