<svg xmlns="http://www.w3.org/2000/svg" role="img" viewBox="14.18 4.31 52.01 55.51"><title>1F9CC.svg</title><path fill="#e27022" d="M50.63 15.6a1.2 1.2 0 0 1-1.73 1.18c-1.08-.56-2.98-1.24-3.92-.35a.3039.3039 0 0 1-.07.05c-1.52-2.09-4.21-3.79-8.91-3.79a3.7944 3.7944 0 0 1 3.56-4.24 8.4848 8.4848 0 0 0 4.73-2.06 5.0935 5.0935 0 0 1 .65 3.96l.49.01c3.72 0 4.97 3.05 5.2 5.24z"/><path fill="#b1cc33" d="M36.0022 42.0333c-15.2776 0-10.5548-6.0794-10.5548-12.7628 0-3.5808-.3769-3.4016-.3769-5.9038s.6328-10.681 10.9317-10.681 10.9317 8.1789 10.9317 10.681-.3769 2.323-.3769 5.9038c0 6.6834 4.723 12.7628-10.5548 12.7628z"/><path fill="#b1cc33" d="M46.9339 23.3667c2.137-2.8369 5.3093-2.0623 8.8-4.36-.548 3.5228-1.6172 12.3056-8.9959 12.787zm-21.6717 8.4274c-7.3787-.4814-8.4479-9.2642-8.9959-12.787 3.49 2.2973 6.6628 1.5227 8.8 4.36zm-8.1997 26.0236s-2-13 10-13c3.1918 2.1279 5.9264 3.5984 9 3.5922h-.125c3.0736.0062 5.8081-1.4643 9-3.5922 12 0 10 13 10 13l.0076 1h-37.909z"/><path fill="#5c9e31" d="M36 58.8164c8.1262-10.7061 8.3828-14.831 8.3828-14.831a1.0008 1.0008 0 0 1 .5547-.168c3.6563 0 6.4844 1.1357 8.4072 3.3769C56.8984 51.3369 55.9668 57.7 55.9258 57.97a.9991.9991 0 0 1-.9863.8467z"/><path fill="#a57939" d="M44.9635 57.8182a47.8735 47.8735 0 0 1 6.4665-6.8788c4.4058-3.4682 6.7662-3.56 10.948-8.9061 2.0629-2.6374 2.6374-7.2817 0-9.3447s-6.354-1.2434-8.878 1.8278c-4.681 5.6962-3.8249 8.713-6.1991 13.1933a102.5608 102.5608 0 0 1-6.8037 10.1063v1h4.4654z"/><path fill="#fff" d="M31.0551 31.4981a2.6068 2.6068 0 0 1 2.6068 2.6068v.651h-2.6068v-3.2578z"/><path fill="#fff" d="M41.0041 34.7559h-2.6068v-.651a2.6068 2.6068 0 0 1 2.6068-2.6068v3.2578z"/><g><path fill="none" stroke="#000" stroke-linecap="round" stroke-linejoin="round" stroke-width="2" d="M54.7288 52.4471a16.7057 16.7057 0 0 1 .2087 5.3706m-37.875 0s-2-13 10-13c3.1918 2.1279 5.9264 3.5984 9 3.5922h-.125c3.0736.0062 5.8081-1.4643 9-3.5922M44.287 12.09a5.0267 5.0267 0 0 0 0-5.7006 8.4359 8.4359 0 0 1-4.7251 2.0561 3.7937 3.7937 0 0 0-3.56 4.24m10.932 10.6812c2.137-2.8369 5.3093-2.0623 8.8-4.36-.548 3.5228-1.6172 12.3056-8.9959 12.787m-21.4758.0004c-7.3787-.4814-8.4479-9.2642-8.9959-12.787 3.49 2.2973 6.6628 1.5227 8.8 4.36"/><path fill="none" stroke="#000" stroke-linecap="round" stroke-linejoin="round" stroke-width="2" d="M36.0022 42.0333c-15.2776 0-10.5548-6.0794-10.5548-12.7628 0-3.5808-.3769-3.4016-.3769-5.9038s.6328-10.681 10.9317-10.681 10.9317 8.1789 10.9317 10.681-.3769 2.323-.3769 5.9038c0 6.6834 4.723 12.7628-10.5548 12.7628z"/><path d="M42.0023 26.4993a2 2 0 1 1-2-2 2 2 0 0 1 2 2m-8 0a2 2 0 1 1-2-2 2 2 0 0 1 2 2"/><path fill="none" stroke="#000" stroke-linecap="round" stroke-linejoin="round" stroke-width="2" d="M38.039 23.0265a5.4257 5.4257 0 0 1 5.0488-1.2713m-14.1178 0a5.4256 5.4256 0 0 1 5.0488 1.2713m10.9447 34.7917a47.8735 47.8735 0 0 1 6.4665-6.8788c4.4058-3.4682 6.7662-3.56 10.948-8.9061 2.0629-2.6374 2.6374-7.2817 0-9.3447s-6.354-1.2434-8.878 1.8278c-4.681 5.6962-3.8249 8.713-6.1991 13.1933a102.5608 102.5608 0 0 1-6.8037 10.1063m9.8758-21.743l3.143 1.901m2.956 7.238l1.927 3.128m.962-18.907l-.309 3.66m-27.997-.597v2.776m11.194 0H29.808m11.195-2.776v2.776m6.2437-20.1639a9.3183 9.3183 0 0 1 2.754 1.1523s0-5.21-4.4936-5.21"/></g></svg>