<svg xmlns="http://www.w3.org/2000/svg" role="img" viewBox="2.59 30.72 66.69 27.44"><title>1F9C8.svg</title><path fill="#fcea2b" d="M19 33a3.416 3.416 0 0 0-3.3141 2.9835l-1.3718 13.033A2.65 2.65 0 0 0 17 52h38a2.65 2.65 0 0 0 2.6859-2.9835l-1.3718-13.033A3.416 3.416 0 0 0 53 33z"/><path fill="#fff" d="M12.251 52h47.938L58 56H13.616l-1.365-4"/><g fill="none" stroke="#000" stroke-linecap="round" stroke-linejoin="round" stroke-width="2"><path d="M19 33a3.416 3.416 0 0 0-3.3141 2.9835l-1.3718 13.033A2.65 2.65 0 0 0 17 52h38a2.65 2.65 0 0 0 2.6859-2.9835l-1.3718-13.033A3.416 3.416 0 0 0 53 33zm-7.62 19H36"/><path d="M36 56H15a2.4394 2.4394 0 0 1-1.82-.5833l-.2389-.2381L9.0074 47.17 4.88 47.1514M60.62 52H36m0 4h21a2.4394 2.4394 0 0 0 1.82-.5833l.2389-.2381 3.934-8.0083 4.1271-.0189"/></g></svg>