<svg xmlns="http://www.w3.org/2000/svg" role="img" viewBox="16.72 2.72 45.43 66.43"><title>1F9C3.svg</title><path fill="#f4aa41" d="M19.895 17H19v50h34V17h-.895"/><path fill="#fcea2b" d="M27.7162 49.891a2.1678 2.1678 0 0 1-.4029-2.4062c-1.6843-3.3029-.6629-8.0165 2.7517-11.4312s8.1282-4.436 11.4312-2.7518a2.1747 2.1747 0 0 1 2.8828 2.8828c1.688 3.3068.6629 8.0165-2.7518 11.4312s-8.1244 4.44-11.4312 2.7518a2.1681 2.1681 0 0 1-2.4434-.4394l-.0364-.0372"/><path fill="#f4aa41" d="M41.3775 47.5468c-3.4152 3.4152-8.1253 4.44-11.4332 2.7529 13.7235 0 14.3781-13.9067 14.3781-13.9067 1.6909 3.3042.4665 7.7387-2.9449 11.1538z"/><path fill="#f4aa41" d="M33.4236 51.4942a16.5715 16.5715 0 0 1-4.1366-1.1825l-.9892-.4077h1.6465c5.535 0 9.568-2.27 11.9873-6.7456a17.7932 17.7932 0 0 0 1.9954-6.7838l.07-1.4858.6778 1.3241c1.7663 3.4516.5819 8.0105-3.0175 11.6138a11.9469 11.9469 0 0 1-8.2337 3.6675zm-1.395-.9112a10.6268 10.6268 0 0 0 9.0691-3.3158c2.8038-2.8073 4.0589-6.3314 3.4028-9.2245-.6446 3.5009-3.1334 11.5-12.4719 12.5403z"/><path fill="#f4aa41" d="M43.9121 33.6536a5.77 5.77 0 0 1 .3828 2.8624l-1.6226-1.6226 1.24-1.24M27.7707 50.36a5.77 5.77 0 0 0 2.8868-.0817l-1.8621-1.3413-1.0247 1.423"/><g fill="none" stroke="#000" stroke-linecap="round" stroke-width="2"><path stroke-linejoin="round" d="M23 17h26M19 28h34M19 56h34M19.895 17H19v50h34V17h-.895M40 14l2.7655-4.9779A7.82 7.82 0 0 1 49.6011 5H60"/><path stroke-miterlimit="10" d="M27.7162 49.891a2.1678 2.1678 0 0 1-.4029-2.4062c-1.6843-3.3029-.6629-8.0165 2.7517-11.4312s8.1282-4.436 11.4312-2.7518a2.1747 2.1747 0 0 1 2.8828 2.8828c1.688 3.3068.6629 8.0165-2.7518 11.4312s-8.1244 4.44-11.4312 2.7518a2.1681 2.1681 0 0 1-2.4434-.4394l-.0364-.0372"/></g></svg>