<svg xmlns="http://www.w3.org/2000/svg" role="img" viewBox="15.16 6.54 39.80 56.42"><title>1F9CB.svg</title><path fill="#f4aa41" d="M42.9778 61.958H27.1451a4.0845 4.0845 0 0 1-3.9351-3.5817l-4.1184-27.2269A1 1 0 0 1 20.08 30h29.9842a.9994.9994 0 0 1 .9883 1.15l-4.1752 27.4567a3.9444 3.9444 0 0 1-3.8995 3.3513z"/><path fill="#b399c8" d="M39.0727 32.0166l-1.3786 15.1667a1 1 0 0 1-.9756.7851.5574.5574 0 0 1-.1564 0l-4.546-.0926a1.11 1.11 0 0 1-.7631-.4643.998.998 0 0 1-.1338-.7588L32.1 32.0166zm-5.2507-6.6221l.2588-1.1523c1.336-5.9443 3.0879-8.4473 8.1514-11.6426l7.4844-4.77a.9983.9983 0 0 1 1.3721.293l2.6142 3.9687a.9987.9987 0 0 1-.293 1.39l-8.0156 5.1709A10.5358 10.5358 0 0 0 40.8 25.2373l-.043.195z"/><path fill="#92d3f5" d="M52.9021 32.0166H17.25a1 1 0 0 1-1-1v-2.1133a3.513 3.513 0 0 1 3.5088-3.5088h30.6345a3.513 3.513 0 0 1 3.5088 3.5088v2.1133a.9994.9994 0 0 1-1 1z"/><g><path fill="none" stroke="#000" stroke-linecap="round" stroke-linejoin="round" stroke-width="2" d="M49.55 34.1934l-3.6476 24.1557a3.0671 3.0671 0 0 1-3.0324 2.6092H27.25a3.0672 3.0672 0 0 1-3.0336-2.6083l-3.6538-24.1566"/><circle cx="28.806" cy="55.731" r="2"/><circle cx="39.117" cy="56.566" r="2"/><circle cx="27.877" cy="47.217" r="2"/><circle cx="42.267" cy="43.979" r="2"/><circle cx="25.877" cy="41.002" r="2"/><circle cx="34.404" cy="52.052" r="2"/><circle cx="42.267" cy="50.452" r="2"/><path fill="none" stroke="#000" stroke-linecap="round" stroke-linejoin="round" stroke-width="2" d="M52.9022 28.9037a2.5163 2.5163 0 0 0-2.5089-2.5089H19.7587a2.5162 2.5162 0 0 0-2.5087 2.5089v2.1127h35.6522zm-18.2616-2.5089l.76-3.3468c1.2233-4.62 2.9271-6.8011 7.3659-9.6029l7.4875-4.7737 2.614 3.9693-8.0154 5.1712a11.5951 11.5951 0 0 0-4.3971 5.2362l-.7969 3.3467M38.371 16.968l3.649 3.425m-.875-5.862l2.585 4.105m-7.338 1.473l4.466 2.084m-7.918 12l-.843 12.682m5.774-12.682L36.71 46.98"/></g></svg>