<svg xmlns="http://www.w3.org/2000/svg" role="img" viewBox="8.18 21.93 55.51 35.38"><title>1F9C7.svg</title><path fill="none" stroke="#000" stroke-linecap="round" stroke-linejoin="round" stroke-width="2" d="M17.534 26.878L49.178 38.01M32.361 24.15l26.532 9.333m-36.219-8.119l31.48 11.151m-41.457-6.327l25.722 9.048m13.445-13.178L19.949 37.285m21.214-12.569l-27.402 9.64m44.211-5.436L29.363 38.984"/><path d="M41.1875 29.7323c-2.4421-1.3366-4.6916-2.63-8.0178-1.3488-2.4131.93-3.365 1.8461-3.4348 2.6691h-.0115l.0027.093c0 .0194.0007.0387.0017.0581l.0264.9179c-.4688 2.0237 4.5068 3.5277 6.9087 3.351 1.1667-.0859 5.0561-1.6 5.31-3.1837v-1.35a1.3972 1.3972 0 0 0-.7854-1.2066z"/><path d="M33.1638 28.3835c3.3262-1.2815 5.5758.0122 8.0178 1.3488 2.9283 1.94-3.0306 4.3928-4.5247 4.5027-3.326.245-11.5869-2.7334-3.4931-5.8515z"/><path fill="none" stroke="#000" stroke-linecap="round" stroke-linejoin="round" stroke-width="2" d="M49.179 43.442l-17.173 6.124m22.059-7.446l4.977 1.707m-38.647 4.284l11.232-3.497m-10.854-1.64l-6.604 2.161m30.495-.983l8.935 3.254m-25.541-3.182l15.216 5.353"/><g><path fill="#a57939" d="M60.4877 41.6427c-1.0474-5.1255-13.1523-7.8836-24.5806-7.8836a64.6014 64.6014 0 0 0-13.4433 1.3227.9967.9967 0 0 0-.6543.478l-1.1758 2.042-2.7666-.9731a1.0046 1.0046 0 0 0-.7.0137c-4.3706 1.7284-5.6545 3.7026-5.88 5.204a5.3278 5.3278 0 0 0-1.3408 6.5967c2.5264 4.7945 12.6846 7.8926 25.88 7.8926h.3506c13.1953 0 23.3525-3.0981 25.8564-7.8535a5.3669 5.3669 0 0 0-1.5456-6.8395z"/><path fill="none" stroke="#6a462f" stroke-linecap="round" stroke-linejoin="round" stroke-width="2" d="M49.179 43.442l-17.173 6.124m22.059-7.446l4.977 1.707"/><path fill="#a57939" d="M60.4877 30.96c-1.0474-5.1255-13.1523-7.8836-24.5806-7.8836a64.5944 64.5944 0 0 0-13.4433 1.3228.9964.9964 0 0 0-.6543.478l-1.1758 2.042-2.7666-.9731a1.0052 1.0052 0 0 0-.7.0136c-4.3706 1.7284-5.6545 3.7027-5.88 5.2041A5.3278 5.3278 0 0 0 9.9462 37.76c2.5264 4.7944 12.6846 7.8926 25.88 7.8926h.3506c13.1953 0 23.3525-3.0982 25.8564-7.8535a5.3671 5.3671 0 0 0-1.5455-6.8391z"/><path fill="#6a462f" d="M21.6 25.244l32.255 11.94-2.188 2.732-2.489-1.946-28.935-10.139 1.357-2.587z"/><path fill="none" stroke="#6a462f" stroke-linecap="round" stroke-linejoin="round" stroke-width="2" d="M17.534 26.878L49.178 38.01M32.361 24.15l26.532 9.333m-36.219-8.119l31.48 11.151m-41.457-6.327l25.722 9.048m13.445-13.178L19.949 37.285m21.214-12.569l-27.402 9.64m44.211-5.436L29.363 38.984"/><path fill="#f1b31c" d="M40.6358 29.7323c-2.4422-1.3366-4.6917-2.63-8.0179-1.3488-2.4131.93-3.365 1.8461-3.4348 2.6691h-.0115l.0027.093c0 .0194.0008.0387.0017.0581l.0264.9179c-.4687 2.0237 4.5068 3.5277 6.9087 3.351 1.1667-.0859 5.0561-1.6 5.31-3.1837v-1.35a1.3974 1.3974 0 0 0-.7853-1.2066z"/><path fill="#fcea2b" d="M32.612 28.3835c3.3263-1.2815 5.5759.0122 8.0178 1.3488 2.9283 1.94-3.0306 4.3928-4.5247 4.5027-3.326.245-11.5867-2.7334-3.4931-5.8515z"/><path fill="none" stroke="#6a462f" stroke-linecap="round" stroke-linejoin="round" stroke-width="2" d="M20.395 48.111l11.232-3.497m-10.854-1.64l-6.604 2.161m30.495-.983l8.935 3.254m-25.541-3.182l15.216 5.353"/></g><g fill="none" stroke="#000" stroke-linecap="round" stroke-linejoin="round"><path stroke-width="2" d="M21.0847 28.1268l1.59-2.7624a63.5552 63.5552 0 0 1 13.2319-1.3c13.0682 0 23.6621 3.4057 23.6621 7.6069 0 1.84-2.0324 3.5277-5.4149 4.8433l-2.4868 3.4016-2.4885-1.9462a63.4878 63.4878 0 0 1-13.2721 1.3084c-13.0682 0-23.6621-3.4058-23.6621-7.607 0-1.8173 1.9823-3.4858 5.29-4.7941"/><path stroke-width="2.054" d="M12.2443 31.6717a4.36 4.36 0 0 0-1.39 5.5979c2.1367 4.0564 11.1794 7.3447 24.97 7.3447h.3508a65.915 65.915 0 0 0 13.0035-1.1723 45.2446 45.2446 0 0 0 4.8861-1.322c3.5717-1.3737 6.1014-2.9914 7.0806-4.85a4.36 4.36 0 0 0-1.39-5.5979"/><path stroke-width="2" d="M13.4861 39.9162a3.42 3.42 0 0 0-1.2418 2.4385c0 1.84 2.0323 3.5276 5.4148 4.8432a28.7656 28.7656 0 0 0 4.9752 1.4553 66.4254 66.4254 0 0 0 13.2721 1.3084c13.0682 0 23.6621-3.4057 23.6621-7.6069a3.3306 3.3306 0 0 0-1.1276-2.327"/><path stroke-width="2.054" d="M12.2443 42.3547a4.36 4.36 0 0 0-1.39 5.5978c2.1367 4.0564 11.1794 7.3448 24.97 7.3448h.3508a65.915 65.915 0 0 0 13.0035-1.1723s2.9172-.6432 4.8861-1.3223c3.6176-1.2476 6.1014-2.9913 7.0806-4.85a4.36 4.36 0 0 0-1.39-5.5978"/></g></svg>