<svg xmlns="http://www.w3.org/2000/svg" role="img" viewBox="11.95 7.19 50.36 54.86"><title>1F9D9-200D-2640-FE0F.svg</title><g id="hair"><path fill="#D0CFCE" d="M41.4163,13.561c-0.0928-0.1-2.4082-2.6547-7.2432-2.6547c-6.2,0-11.4413,3.3818-12.743,8.226 c-0.534,2.0122,0.2752,4.1001,0.4355,6.1758c0.2039,2.019-0.0563,4.0578-0.7607,5.9609c-0.2481,0.7561-0.6269,1.4627-1.1192,2.0879 c-3.7725,4.42-0.9237,14.1072-1.1159,13.8144c1.1226,1.0189,1.288,2.125,2.5821,2.9149c1.5566-1.1839,3.4138-1.908,5.361-2.09 c6.209,5.0127,12.4951,5.0127,18.7,0c1.5145,0.1121,2.9697,0.6354,4.2087,1.5136c1.0534-0.6931,2.0475-1.4724,2.972-2.33 c1.1884-0.7148,4.6164-8.3882,1.883-13.1314c-0.4386-0.8534-0.8251-1.7326-1.1573-2.6328 c-0.5702-1.1775-1.0541-2.3948-1.4479-3.6424c-0.6-2.0685-0.1322-2.4675-0.6672-3.7278c-0.5729-1.2495-3.0276-2.1732-4.2363-2.8278"/></g><g id="skin"><path fill="#FCEA2B" d="M25.9065,25.7998C25.3022,27.3152,25,28.9565,25,30.9c0,8,5,14,11,14s11-6,11-14 c0-1.9435-0.3022-3.5848-0.9065-5.1002"/></g><g id="color"><path fill="#92D3F5" d="M17,60.949v-4c0-4.9941,5.0078-9,10-9c6,5,12,5,18,0c4.9941,0,10,4.0059,10,9v4"/><path fill="#61B2E4" d="M45.6624,60.949v-4.0122c-0.1404-2.631-1.5943-5.2619-3.6479-6.9125 c0.9952-0.5542,1.9904-1.246,2.9855-2.0753c4.9941,0,10,4.0059,10,9v4"/><path fill="#92D3F5" d="M14,25.685h44l-11.851-4.85c-0.2182-4.2512-2.23-11.3493-10.9108-11.5669 c-12.97,0-15.2347,13.47-15.2347,13.47"/><path fill="#61B2E4" d="M20.0701 31.9327c-.72 1.87-1.66 3.68-2.28 5.55l-1.15-4.23c-.1404-.6378-.0593-1.3045.23-1.89l1.59-5.68h2.29C21.0011 27.7906 20.7685 29.928 20.0701 31.9327zM53.3683 40.539c-2.5437-1.0747-3.7346-4.008-2.6599-6.5517s4.008-3.7346 6.5517-2.6599 3.7346 4.008 2.6599 6.5517c-.4479 1.0601-1.2477 1.9332-2.2646 2.4721"/><path fill="#92D3F5" d="M55.3145,32.4717c-0.8786,0.137-1.6948,0.5381-2.34,1.15c1.5407-0.3467,3.1393-0.3467,4.68,0 C57.0093,33.0098,56.1931,32.6087,55.3145,32.4717z"/><path fill="#A57939" d="M57.314 61L57.314 40.539 53.314 40.539 53.314 61"/></g><g id="line"><path fill="none" stroke="#000" stroke-linecap="round" stroke-linejoin="round" stroke-width="2" d="M53.3683 40.59c-2.5437-1.0747-3.7346-4.008-2.6599-6.5517s4.008-3.7346 6.5517-2.6599 3.7346 4.008 2.6599 6.5517c-.4479 1.0601-1.2477 1.9332-2.2646 2.4721M57.314 60.051L57.314 40.605 53.314 40.605 53.314 60.051"/><path fill="none" stroke="#000" stroke-linecap="round" stroke-linejoin="round" stroke-width="2" d="M17 60v-3c0-4.9941 5.0078-9 10-9 6 5 12 5 18 0 3.2121 0 6.4292 1.6572 8.316 4.1687M19.0858 25.8L16.9 31.4c-.3115.5831-.3832 1.2648-.2 1.9l1.425 5.4454M26.9 17.5c-.4245 1.0967-.7263 2.2369-.9 3.4l0 0-12 4.9h44l-11.9-4.9c-.2-4.3-2.2-11.3-10.9-11.6C22.2 9.3 20 22.8 20 22.8M50.7171 25.8c.1484 1.2016.3347 2.1097.587 2.9501"/><path fill="none" stroke="#000" stroke-linecap="round" stroke-linejoin="round" stroke-width="2" d="M19.6646,46.6 c-3.7-5.9-0.6-10.1,1.2-14.7c0.8867-2.3275,0.7292-4.0715,0.6678-6.1"/><path d="M42 29.9c0 1.1-.9 2-2 2s-2-.9-2-2 .9-2 2-2S42 28.8 42 29.9M34 29.9c0 1.1-.9 2-2 2-1.1 0-2-.9-2-2s.9-2 2-2C33.1 27.9 34 28.8 34 29.9"/><path fill="none" stroke="#000" stroke-linecap="round" stroke-linejoin="round" stroke-width="2" d="M25.9065 25.7998C25.3022 27.3152 25 28.9565 25 30.9c0 8 5 14 11 14s11-6 11-14c0-1.9435-.3022-3.5848-.9065-5.1002M33 38.1c1.9 1 4.1 1 6 0"/></g></svg>