<svg xmlns="http://www.w3.org/2000/svg" role="img" viewBox="14.56 7.43 53.51 55.51"><title>1F9D1-1F3FE-200D-1F4BC.svg</title><g id="color"><path fill="#9B9B9A" d="M17.298,58.8535c0,0-2-13.8,10-13.8c3.1918,2.1279,5.9264,3.5984,9,3.5921h-0.125 c3.0736,0.0063,5.3081-2.6642,8.5-4.7921c13.3136,0,10.9,15,10.9,15"/><path fill="#D0CFCE" d="M36.613 54.207L39.028 58.752 45.4 44.136 51.857 53.92 40.7 58.051"/><path fill="#FFF" d="M38.507,57.7426c-0.5976,1.0349-4.8914,1.0349-5.489,0l-1.842-2.4101l-3.3864-8.7387l7.9729,2.7l7.573-2.7 l-3.2865,8.7387L38.507,57.7426z"/><path fill="#D0CFCE" d="M65.729,58.4861H50.2443V38.6837h15.2709c0.1181,0,0.2138,0.0957,0.2138,0.2138V58.4861z"/><path fill="#FFF" d="M62.6179,60.9619H48.0103V42.0102h10.753c2.1288,0,3.8546,1.7257,3.8546,3.8545 C62.6179,45.8647,62.6179,60.9619,62.6179,60.9619z"/><path fill="#3F3F3F" d="M33.4552,48.5348c0,0-1.2063,6.0215,2.3073,6.0215s2.3073-6.0215,2.3073-6.0215"/><path fill="#3F3F3F" d="M35.0163,54.8799c0.3249-0.5627,1.137-0.5627,1.4619,0l1.1645,2.0171l1.8956,1.9831h-3.7911h-3.791 l1.8955-1.9831L35.0163,54.8799z"/><path fill="#D0CFCE" d="M34.912 54.556L32.497 57.801 26.825 44.886 22.868 53.37 32.325 57.801"/></g><g id="hair"><path d="M26,36.5808c-4,0-4-6-4-13s4-14,14-14s14,7,14,14s0,13-4,13"/></g><g id="skin"><path fill="#a57939" d="M24.9365,28.5808c0,9,4.9365,14,11,14c5.9365,0,11.0635-5,11.0635-14c0.0245-1.7187-0.3164-3.4229-1-5 c-3-3-7-8-7-8c-4,3-7,6-13,7.0005C26,22.5808,24.9365,23.58,24.9365,28.5808z"/></g><g id="line"><path fill="none" stroke="#000" stroke-linecap="round" stroke-linejoin="round" stroke-miterlimit="10" stroke-width="2" d="M62.618 60.962L48.01 60.962 48.01 42.326 59.836 42.326 59.836 44.438 62.618 44.438z"/><path fill="none" stroke="#000" stroke-linecap="round" stroke-linejoin="round" stroke-miterlimit="10" stroke-width="2" d="M51.214 38.863L66.04 38.863 66.04 57.499M59.836 42.326L62.618 44.438M50.955 48.535L59.388 48.535M50.955 52.631L59.388 52.631M50.955 56.215L59.388 56.215M33.4552 48.5348c0 0-1.2063 6.0215 2.3073 6.0215s2.3073-6.0215 2.3073-6.0215M44.7 55.629L38.96 57.807"/><path fill="none" stroke="#000" stroke-linecap="round" stroke-linejoin="round" stroke-miterlimit="10" stroke-width="2" d="M16.825,57.8861c0,0-2-13,10-13c3.1919,2.1279,5.9264,3.5984,9,3.5921H35.7c3.0736,0.0063,5.8081-1.4642,9-3.5921"/><path fill="none" stroke="#000" stroke-linecap="round" stroke-linejoin="round" stroke-miterlimit="10" stroke-width="2" d="M34.912 54.556L32.497 57.801 26.825 44.886 22.868 53.37 32.325 57.801zM44.7 44.886L39.028 57.801 36.613 54.556"/><path d="M41.9529 27.0468c0 1.1046-.8954 2-2 2s-2-.8954-2-2 .8954-2 2-2C41.0573 25.0472 41.9525 25.9424 41.9529 27.0468M33.9529 27.0468c0 1.1046-.8954 2-2 2s-2-.8954-2-2 .8954-2 2-2C33.0573 25.0472 33.9525 25.9424 33.9529 27.0468M35.9527 37.0492c-1.2005-.0116-2.3813-.3055-3.4472-.8579-.494-.247-.6943-.8477-.4473-1.3418.247-.4941.8477-.6943 1.3418-.4473 1.5934.8593 3.5121.8593 5.1055 0 .494-.247 1.0947-.0468 1.3418.4473s.0468 1.0947-.4473 1.3418C38.3341 36.7437 37.1532 37.0376 35.9527 37.0492z"/><path fill="none" stroke="#000" stroke-linecap="round" stroke-linejoin="round" stroke-width="2" d="M26,36.5808c-4,0-4-6-4-13 s4-14,14-14s14,7,14,14s0,13-4,13"/><path fill="none" stroke="#000" stroke-linejoin="round" stroke-width="2" d="M24.9365,28.5808c0,9,4.9365,14,11,14 c5.9365,0,11.0635-5,11.0635-14c0.0245-1.7187-0.3164-3.4229-1-5c-3-3-7-8-7-8c-4,3-7,6-13,7.0005 C26,22.5808,24.9365,23.58,24.9365,28.5808z"/></g></svg>