<svg xmlns="http://www.w3.org/2000/svg" role="img" viewBox="14.66 9.66 42.18 50.18"><title>1F9D5-1F3FB.svg</title><g id="color"><path fill="#8967aa" d="M54.7199,58.8222c0.1516-0.0159,0.763-2.2457,0.771-4.982c0.012-4.1237-2.2823-9.4153-11.271-9.9154 c-3.1919,2.1193-5.9264,3.5838-9,3.5775h0.125c-3.0736,0.0063-5.8082-1.4582-9-3.5775c-3.5464,0-5.9701,1.3012-7.484,3.1344 c-3.6085,4.3699-2.516,11.763-2.516,11.763"/><path fill="#B399C8" d="M36.8316,56.6756l-0.5001-0.3c-7.932,0-14.3622-7.1302-14.3622-15.0622l-1-8.5973v-6.6879 c0-7.932,7.4302-14.3622,15.3622-14.3622h0.0001c7.932,0,15.2622,6.4302,15.2622,14.3622l0.1,13.2852 c0,0.9045-0.6953,3.7895-0.876,4.6477c2.2612,2.4635,1.8051,4.9002-2.7703,8.9835C45.2578,55.4343,40.6923,56.6756,36.8316,56.6756 z"/><path fill="#B399C8" d="M31.627 52.801H47.402V58.842H31.627z"/></g><g id="skin"><path fill="#fadcbc" stroke="#fadcbc" d="M47.283,30.0923c-2.2979-6.6293-6.1527-9.2106-11.3386-12.7732 c-4.0003,3.8404-7.7972,4.8124-11.3385,12.7732c0,7.8277,5.0764,12.5733,11.3385,12.5733 C42.2066,42.6656,47.283,37.92,47.283,30.0923z"/></g><g id="line"><path d="M41.9446 27.0395c0 1.1045-.8965 2-2 2s-2-.8955-2-2c0-1.1035.8965-2 2-2S41.9446 25.936 41.9446 27.0395M33.9446 27.0395c0 1.1045-.8965 2-2 2-1.1035 0-2-.8955-2-2 0-1.1035.8965-2 2-2C33.0481 25.0395 33.9446 25.936 33.9446 27.0395M35.9444 37.0419c-1.1518 0-2.3037-.2861-3.4472-.8579-.4942-.2471-.6944-.8477-.4473-1.3418.2466-.4937.8462-.6944 1.3418-.4473 1.7178.8594 3.3877.8594 5.1055 0 .4946-.2471 1.0947-.0464 1.3418.4473.247.4941.0469 1.0947-.4473 1.3418C38.2482 36.7558 37.0963 37.0419 35.9444 37.0419z"/><path fill="none" stroke="#000" stroke-linecap="round" stroke-linejoin="round" stroke-miterlimit="10" stroke-width="2" d="M54.2595 51.3922c1 3.25.5 6.5.5 6.5M16.8845 57.8922c0 0-1.0975-7.1337 3.2115-10.8322M36.0666 17.6112H35.822c0 0-13.231 7.4283-10.187 16.678 0 0 2.3335 8.2843 10.3096 8.2843 7.9755 0 10.309-8.2843 10.309-8.2843C49.2976 25.0395 36.0666 17.6112 36.0666 17.6112z"/><path fill="none" stroke="#000" stroke-linecap="round" stroke-linejoin="round" stroke-miterlimit="10" stroke-width="2" d="M35.9444 11.6696c0 0-13.6893-.6317-14.8096 14.7821-1.1203 15.4137 2.0357 18.9522 2.0357 18.9522s3.9019 10.1328 13.6485 11.3073 15.5895-8.7886 15.5895-8.7886 1.9145-4.864-5.7-5.3491c-1.5975 1.0065-6.1982 4.2466-10.7639 0M36.1583 11.6696c0 0 13.6894-.6317 14.8096 14.7821.3086 4.2458.2928 7.5905.1078 10.2085l-.365 2.8404M31.944 55.233L31.944 57.88M47.402 53.471L47.402 57.88"/><path fill="none" stroke="#000" stroke-linecap="round" stroke-linejoin="round" stroke-miterlimit="10" stroke-width="2" d="M48.6023,46.3423c0,0-3.4695,5.6659-10.8426,4.7052c-5.8156-0.7577-15.8085-8.0759-16.8587-17.521"/></g></svg>