<svg xmlns="http://www.w3.org/2000/svg" role="img" viewBox="11.35 8.85 49.16 53.04"><title>1F9DB-200D-2640-FE0F.svg</title><path fill="#3F3F3F" d="M17.6583 47.37a24.0526 24.0526 0 0 0 3.6331 2.7193 10.46449 10.46449 0 0 1 5.361-2.09c6.209 5.0127 12.4951 5.0127 18.7 0a8.34303 8.34303 0 0 1 4.2087 1.5136 22.78654 22.78654 0 0 0 2.972-2.33c1.1884-.7148 3.125-8.2822.3916-13.0254a23.74038 23.74038 0 0 1-1.1573-2.6328C50.295 28.2544 49.7442 27.0312 49.419 21c.0273-3.6929-3.794-6.7842-7.4746-7.0928a1.00165 1.00165 0 0 1-.6885-.3433c-.0928-.1-2.4082-2.6547-7.2432-2.6547-6.2 0-11.4413 3.3818-12.743 8.226a18.51822 18.51822 0 0 0-.5645 6.1758 13.31733 13.31733 0 0 1-.7607 5.9609 6.80445 6.80445 0 0 1-1.1192 2.0881c-3.7725 4.42-.9747 14.3026-1.167 14.01z"/><path fill="#FCEA2B" d="M25 30.9341c0 8 5 14 11 14s11-6 11-14c0-5-2-8-6-12-4 4-16 9-16 11v1z"/><path fill="#D22F27" d="M35.65 45.1c-3.4-.1-8.6-5.7-8.6-5.7h-13.6a82.94797 82.94797 0 0 1 4.3 8.4 48.59625 48.59625 0 0 1 2.8 9.9h30.9a48.59625 48.59625 0 0 1 2.8-9.9 82.94797 82.94797 0 0 1 4.3-8.4h-13.9c.1 0-5.5 5.7-9 5.7z"/><path fill="#3F3F3F" d="M17 61v-3.8c0-5 5-9 10-9 6 5 12 5 18 0 5 0 10 4 10 9V61H17z"/><path d="M31.45 61h9c3.6-2.9 5.6-13.5 5.6-13.5-5.7672 5-14.3328 5-20.1 0 0-.1 2 10.5 5.5 13.5z"/><g><path fill="none" stroke="#000" stroke-linejoin="round" stroke-width="2" d="M25 30.9341c0 8 5 14 11 14s11-6 11-14c0-5-2-8-6-12-4 4-16 9-16 11v1z"/><path fill="none" stroke="#000" stroke-linecap="round" stroke-linejoin="round" stroke-width="2" d="M17.2483 39.1383c.4948-2.4807 1.7853-4.7854 2.7268-7.2042 1.6357-4.2-.209-6.4512 1.291-12.0342 1.4795-5.5 7.2773-8.9658 13.709-8.9658 5.4 0 8 3 8 3 4.169.374 7.373 3.8515 7.4052 8.0371.3867 7.18 1.0244 7.1523 3.4287 12.8222.5667 1.3101.8863 2.7137.9427 4.14"/><path fill="none" stroke="#000" stroke-linejoin="round" stroke-width="2" d="M26.5 39.4H13.4a55.45576 55.45576 0 0 1 4.3 8.4 34.2869 34.2869 0 0 1 1.3 3.8m34-.2c.4-1.2.8-2.4 1.3-3.6a51.12837 51.12837 0 0 1 4.3-8.4H44.7"/><path d="M42 30.1c0 1.1046-.8954 2-2 2s-2-.8954-2-2 .8954-2 2-2c1.1032.0032 1.9968.8968 2 2m-8 0c0 1.1046-.8954 2-2 2s-2-.8954-2-2 .8954-2 2-2c1.1032.0032 1.9968.8968 2 2"/><path fill="none" stroke="#000" stroke-linecap="round" stroke-linejoin="round" stroke-width="2" d="M33 39c1.875-1 4.125-1 6 0"/><path fill="none" stroke="#000" stroke-linecap="round" stroke-linejoin="round" d="M38 38.5c.2408.0816.4748.1819.7.3"/><path fill="none" stroke="#000" stroke-linecap="round" stroke-linejoin="round" stroke-width="2" d="M17 60v-3c0-5 5-9 10-9 6 5 12 5 18 0 5 0 10 4 10 9v3"/><path stroke="#000" stroke-linecap="round" stroke-linejoin="round" d="M34 38.7l.3 2.4.8-2.3-.1-.1zm3.9 0l-.2 2.4-.8-2.3-.1-.1z"/></g></svg>