<svg xmlns="http://www.w3.org/2000/svg" role="img" viewBox="14.69 7.07 51.87 54.99"><title>1F9D1-1F3FD-200D-1F527.svg</title><path fill="#92D3F5" d="M17.1347 58.8989s-2-13.5 10-13.5c3.1918 2.1279 5.9264 3.5984 9 3.5922h-.125c3.0736.0062 5.4081-2.1643 8.6-4.2922 15.5705 0 10.8 14.2 10.8 14.2"/><path fill="#61B2E4" d="M49.297 58.861V45.986l-4.491-.784v7.245H26.929l.002-7.245-4.666.784v12.875zM36.9313 9.2258h-1.8034C23.8327 9.261 25.083 20.5397 25.083 20.5397c12.8913-5.6569 21.8933 0 21.8933 0S48.2265 9.261 36.9313 9.2258z"/><path fill="#9B9B9A" d="M54.7242 38.1713c.5179-2.1527 2.3562-3.642 4.4486-3.8149l-1.1314 4.637c.0817.0154 2.7265.6496 2.8079.6692l1.1311-4.7124c1.9373 1.0552 3.007 3.313 2.4664 5.5601-.4768 1.9822-2.0758 3.3943-3.9596 3.7416l-3.4226 14.2269c-.2616 1.0876-1.3553 1.7572-2.443 1.4956-1.0876-.2617-1.757-1.3555-1.4954-2.4431l3.4226-14.2269c-1.5196-1.166-2.3014-3.1509-1.8246-5.1331z"/><path fill="#FFF" d="M33.1159 18.2555v-2.3118c0-1.6568 1.3431-3 3-3s3 1.3432 3 3v2.3295"/><g><path fill="#6a462f" d="M25.4782 20.4703c.5452-.1169 10.5986-5.3959 21.5581.3394l-.0361.1447c1.5074 5.4986.1748 6.2727.1748 6.2727l-5.2599-6.3244s-1.4782 2.8056-5.6542 2.4931c0 0 .6471-2.293.2934-3.5679 0 0-6.8103 4.4728-11.6497 6.5335l-.0073-.0014-.1214.0037c-.4592.1263-.7052-4.1554.8544-5.824"/></g><g><path fill="#c19a65" d="M36.2609 23.3958c2.1125.0278 4.1416-.5155 6.0263-2.0457l5.1256 6.6847c0 7.8277-5.0765 14.1733-11.3386 14.1733s-11.3386-6.3456-11.3386-14.1733c0-3.2033 11.8187-8.2069 11.8187-8.2069l-.2934 3.5679z"/></g><g><path d="M41.9743 27.0348c0 1.1045-.8965 2-2 2s-2-.8955-2-2c0-1.1035.8965-2 2-2s2 .8965 2 2m-8 0c0 1.1045-.8965 2-2 2s-2-.8955-2-2c0-1.1035.8965-2 2-2s2 .8965 2 2m1.9999 10.0024c-1.1519 0-2.3037-.2861-3.4473-.8579-.4941-.2471-.6943-.8477-.4473-1.3418.2466-.4937.8462-.6943 1.3418-.4473 1.7178.8594 3.3877.8594 5.1055 0 .4946-.247 1.0947-.0464 1.3418.4473.2471.4941.0469 1.0947-.4473 1.3418-1.1435.5718-2.2954.8579-3.4472.8579z"/><path fill="none" stroke="#000" stroke-linecap="round" stroke-miterlimit="10" stroke-width="2" d="M24.7535 26.3437c-.0777.6699-.1179 1.355-.1179 2.0519 0 7.8277 5.0764 14.1732 11.3386 14.1732 6.2621 0 11.3386-6.3455 11.3386-14.1732 0-.3957-.013-.7876-.0385-1.1751"/><path fill="none" stroke="#000" stroke-linecap="round" stroke-linejoin="round" stroke-miterlimit="10" stroke-width="2" d="M51.7457 47.1887c-1.5129-1.3672-3.7235-2.3011-6.9399-2.3011-3.1918 2.1279-5.9264 3.5984-9 3.5921h.125c-3.0736.0063-5.8081-1.4642-9-3.5921-12 0-10 13-10 13m37.7934-19.7163c.5179-2.1527 2.3562-3.642 4.4486-3.8149l-1.1314 4.637c.0817.0154 2.7265.6496 2.8079.6692l1.1311-4.7124c1.9373 1.0552 3.007 3.313 2.4664 5.5601-.4768 1.9822-2.0758 3.3943-3.9596 3.7416l-3.4226 14.2269c-.2616 1.0876-1.3553 1.7572-2.443 1.4956-1.0876-.2617-1.757-1.3555-1.4954-2.4431l3.4226-14.2269c-1.5196-1.166-2.3014-3.1509-1.8246-5.1331z"/><path fill="none" stroke="#000" stroke-linecap="round" stroke-miterlimit="10" stroke-width="2" d="M33.1159 18.2555v-2.3118c0-1.6568 1.3431-3 3-3s3 1.3432 3 3v2.3295"/><path fill="none" stroke="#000" stroke-linecap="round" stroke-linejoin="round" stroke-miterlimit="10" stroke-width="2" d="M44.806 44.888v7.245H26.929l.002-7.245m22.366.784v12.195m-27.032-12.11v12.11m10.339-1.089h-5.675m20.0473-36.2383S48.2265 9.261 36.9313 9.2258h-1.8034C23.8327 9.261 25.083 20.5397 25.083 20.5397"/><path fill="none" stroke="#000" stroke-linecap="round" stroke-linejoin="round" stroke-miterlimit="10" stroke-width="2" d="M49.8089 22.4082c-6.1883-4.9827-16.9721-5.4838-24.0306-2.1379-1.2509.593-2.3848 1.3068-3.3554 2.1379"/><path fill="none" stroke="#000" stroke-linecap="round" stroke-linejoin="round" stroke-miterlimit="10" stroke-width="2" d="M25.4782 20.4703c.5452-.1169 10.5986-5.3959 21.5581.3394l-.0361.1447c1.5074 5.4986.1748 6.2727.1748 6.2727l-5.2599-6.3244s-1.4782 2.8056-5.6542 2.4931c0 0 .6471-2.293.2934-3.5679 0 0-6.8103 4.4728-11.6497 6.5335l-.0073-.0014-.1214.0037c-.4592.1263-.7052-4.1554.8544-5.824"/></g></svg>