<svg xmlns="http://www.w3.org/2000/svg" role="img" viewBox="15.00 10.00 41.87 51.87"><title>1F9D1-1F3FB-200D-1F9B0.svg</title><path fill="#92D3F5" d="M17 61v-4c0-4.9941 5.0078-9 10-9 6 5 12 5 18 0 4.9941 0 10 4.0059 10 9v4"/><path fill="#E27022" d="M26 39c-4 0-4-6-4-13s4-14 14-14 14 7 14 14 0 13-4 13"/><path fill="#fadcbc" d="M24.9365 31c0 9 4.9365 14 11 14C41.873 45 47 40 47 31c0-3-1-5.0005-1-5.0005-3-2.9995-7-8-7-8-4 3-7 6-13 7.0005 0 0-1.0635.9995-1.0635 6z"/><path fill="none" stroke="#000" stroke-linecap="round" stroke-linejoin="round" stroke-width="2" d="M26 39c-4 0-4-6-4-13s4-14 14-14 14 7 14 14 0 13-4 13M17 60v-3c0-4.9941 5.0078-9 10-9 6 5 12 5 18 0 4.9941 0 10 4.0059 10 9v3"/><path d="M41.873 30c0 1.1045-.8955 2-2 2-1.1044 0-2-.8955-2-2s.8956-2 2-2c1.1045 0 2 .8955 2 2m-8 0c0 1.1045-.8955 2-2 2-1.1044 0-2-.8955-2-2s.8956-2 2-2c1.1045 0 2 .8955 2 2"/><path fill="none" stroke="#000" stroke-linejoin="round" stroke-width="2" d="M24.9365 31c0 9 4.9365 14 11 14C41.873 45 47 40 47 31c0-3-1-5.0005-1-5.0005-3-2.9995-7-8-7-8-4 3-7 6-13 7.0005 0 0-1.0635.9995-1.0635 6z"/><path fill="none" stroke="#000" stroke-linecap="round" stroke-linejoin="round" stroke-width="2" d="M33 38c1.9385.9385 4 1 6 0"/></svg>