<svg xmlns="http://www.w3.org/2000/svg" role="img" viewBox="14.66 2.78 42.55 63.18"><title>1F9DE-200D-2640-FE0F.svg</title><path fill="#ffa7c0" d="M45.511 50.67l.797 2.48-1.1339 4.9948-5.1813 5.6752A23.9672 23.9672 0 0 0 54.93 59.7071s2-13-10-13c-3.1918 2.1279-5.9264 3.5984-9 3.5921h.125c-3.0736.0063-5.8081-1.4642-9-3.5921-12 0-10 13-10 13 9.9776 6.0208 14.368 3.708 28.1188-1.5619l.6171-3.5208-24.0677 1.35 5.3094-.9076"/><path fill="#ffa7c0" d="M54.9151 59.7071s2-13-10-13c-3.1919 2.1279-5.9264 3.5984-9 3.5921h.125c-3.0736.0063-5.8081-1.4642-9-3.5921-12 0-10 13-10 13"/><path fill="#e67a94" d="M45.1974 46.7071a18.0129 18.0129 0 0 1-8.9374 3.5885c13.0625.4115 13.0625 5.4115 13.8247 9.4115h5.1128s1.9999-13-10.0001-13z"/><path fill="#e67a94" d="M55.1974 59.7071S43.4412 68.733 34.4606 62.67l10.7135-4.5251L46.308 53.15s8.977-2.4637 8.8894 6.5571z"/><ellipse cx="35.993" cy="30.207" fill="#ffa7c0" rx="11.339" ry="14.173"/><path fill="#fcea2b" d="M45.174 58.145l-4.412 1.832v-5.246h5.029l-.617 3.414zm-8.8768-45.3791c-1.6576 0-3.0015-.4749-3.0015-1.0607V9.5837c0-.5858 1.3439-1.0607 3.0015-1.0607 1.6577 0 3.0015.4749 3.0015 1.0607v2.1215c0 .5858-1.3438 1.0607-3.0015 1.0607z"/><path fill="#3f3f3f" d="M38.1991 20.0215C38.96 22.32 47.314 21.94 48.3483 30.4081c0 0 5.5792-18.1618-12.2859-17.2715s-12.2859 15.55-12.2859 15.55c1.7657-8.2879 9.8525-5.3417 10.09-8.3093-.0001.0003 1.6024-8.6058 4.3326-.3558z"/><ellipse cx="36.327" cy="7.691" fill="#3f3f3f" rx="4.253" ry="2.213"/><path fill="#fcea2b" d="M35.874 24.8735a2 2 0 0 1-2-2v-4a2 2 0 0 1 2-2 2 2 0 0 1 2 2v4a2 2 0 0 1-2 2z"/><g><path fill="none" stroke="#000" stroke-linecap="round" stroke-linejoin="round" stroke-width="2" d="M39.9928 63.82A23.9672 23.9672 0 0 0 54.93 59.7071s2-13-10-13c-3.1918 2.1279-5.9264 3.5984-9 3.5921h.125c-3.0736.0063-5.8081-1.4642-9-3.5921-12 0-10 13-10 13 9.9776 6.0208 14.368 3.708 28.1188-1.5619l.6171-3.5208-24.0677 1.35"/><path fill="none" stroke="#000" stroke-linecap="round" stroke-linejoin="round" stroke-width="2" d="M45.511 50.67l.797 2.48-1.1339 4.9948"/><path d="M41.9928 28.8463a2 2 0 1 1-2-2 2.0007 2.0007 0 0 1 2 2m-8 0a2 2 0 1 1-2-2 2.0007 2.0007 0 0 1 2 2m1.9999 10.0024a7.6528 7.6528 0 0 1-3.4473-.8579 1 1 0 0 1 .8946-1.7891 5.3772 5.3772 0 0 0 5.1054 0 1 1 0 0 1 .8946 1.7891 7.6528 7.6528 0 0 1-3.4473.8579z"/><path fill="none" stroke="#000" stroke-linecap="round" stroke-linejoin="round" stroke-width="2" d="M40.762 55.024v4.749m-6.9329-39.0766c-2.9676 3.9172-8.2893.2-9.097 7.6924a17.83 17.83 0 0 0-.0949 1.8417c0 7.8276 5.0765 14.1732 11.3386 14.1732s11.3386-6.3456 11.3386-14.1732a17.8264 17.8264 0 0 0-.101-1.9c-1.4014-7.134-7.5085-4.5481-9.289-7.9906m1.9096-10.1033s3.7378-5.1462-3.5483-5.184l-.0316.0077c-7.2861.0378-3.5482 5.184-3.5482 5.184m-.0741 1.7207c-1.1446-3.7662 8.4185-4.1724 7.2 0M24.7109 31.7423C18.5374 19.706 27.0713 12.86 36.02 12.86m11.4547 18.8428C49.84 30.2834 53.25 13.1766 36.2255 12.86"/><path fill="none" stroke="#000" stroke-linecap="round" stroke-linejoin="round" stroke-width="2" d="M35.9046 24.72h0a2 2 0 0 1-2-2v-4a2 2 0 0 1 2-2h0a2 2 0 0 1 2 2v4a2 2 0 0 1-2 2z"/></g></svg>