<svg xmlns="http://www.w3.org/2000/svg" role="img" viewBox="14.70 5.07 52.48 54.86"><title>1F9D1-1F3FD-200D-1F692.svg</title><path fill="#A57939" d="M16.725 58.8812s-2-13.5 10-13.5c3.1919 2.1279 5.9264 3.5984 9 3.5922H35.6c3.0736.0062 5.7081-2.5643 8.9-4.6922 10.0682-.5859 11.8023 7.479 11.4489 10.8872-.1964 1.8934-1.1178 3.683-1.049 3.7128"/><path fill="#3F3F3F" d="M39.701 52.703l-3.89 5.871-3.83-5.871z"/><path fill="#D22F27" d="M51.8005 21.8785c-1.2424-1.0275-3.1754-1.2844-5.0366-1.156-1.9375.1336-3.8314.7472-5.5122 1.7728-1.6872 1.0295-3.5154 1.5017-5.2726 1.5234-1.7569-.0217-3.585-.4939-5.2722-1.5234-1.6809-1.0256-3.5747-1.6392-5.5122-1.7728-1.8615-.1284-3.7943.1285-5.0366 1.156 0 0-4.4856 3.4441.6199 7.4121 10.1343 4.2267 20.2683 4.2267 30.4025.0001 5.1056-3.9681.62-7.4122.62-7.4122z"/><path fill="#EA5A47" d="M35.7608 7.2c.0691 0 .1399.0052.2092.006.0694-.0008.1402-.006.2093-.006h-.4185zm.2092.006c-5.4277.062-11.719 2.5726-11.8034 12.5426l-.2803.8992c.5991-.0556 1.2175-.0608 1.8293-.0208 1.8726.1224 3.7029.6843 5.3274 1.6236 1.6307.9427 3.3975 1.3752 5.0955 1.3951 1.6982-.0199 3.4651-.4524 5.0957-1.3951 1.6245-.9393 3.4548-1.5012 5.3274-1.6236.5063-.0331 1.0171-.0342 1.5183-.0035l-.3064-.8749C47.689 9.7786 41.3978 7.268 35.97 7.206z"/><path fill="#9B9B9A" d="M63.6613 38.5923l1.43 1.72c-2.29 1.78-6.58 7.24-6.58 7.24l-3.03-3.65s5.93-3.25 8.18-5.31z"/><path fill="#9B9B9A" d="M52.6679 46.23532l2.80844-2.33135 3.03012 3.65019-2.80843 2.33135z"/><path fill="#3F3F3F" d="M52.6713 46.2323l3.03 3.65s-6.98 5.92-6.65 9.01h-5.21c-.97-6.13 8.83-12.66 8.83-12.66z"/><path fill="#FCEA2B" d="M31.6701 17.8821v-4.6824l4.1171-5.8178 4.4789 5.8962v4.604c-2.535 1.8666-6.3765 1.1811-8.596 0z"/><g fill="#c19a65"><path d="M44.6607 45.0435l.06.09-5.02 7.57h-7.72l-5.06-7.75c3.15 2.1 5.86 3.56 8.88 3.59h.12c2.98-.03 5.65-1.45 8.74-3.5zm-8.8999-21.3978c2.8407 0 9.4021-3.0962 9.4021-3.0962 1.2226 2.2621 1.9365 4.989 1.9365 7.9244 0 7.8276-5.0765 14.1732-11.3386 14.1732s-11.3386-6.3456-11.3386-14.1732c0-2.915.704-5.6244 1.911-7.8772 0 0 6.5869 3.049 9.4276 3.049z"/></g><g fill="#6a462f"><path d="M30.9807 22.4223c-1.4187 1.9337-3.748 4.4784-4.013.7735 0 0-.5485 5.2657-2.3966 4.9999-.9568-.0001-2.1388-4.4453-.7565-7.5979m23.8924 0c1.3823 3.1526.2003 7.5978-.7565 7.5979-1.848.2658-2.3966-4.9999-2.3966-4.9999-.2649 3.7049-2.5943 1.1602-4.013-.7735"/></g><g><path d="M41.9832 27.0189c0 1.1045-.8965 2-2 2s-2-.8955-2-2c0-1.1035.8965-2 2-2s2 .8965 2 2m-8 0c0 1.1045-.8965 2-2 2s-2-.8955-2-2c0-1.1035.8965-2 2-2s2 .8965 2 2m1.9999 10.0024c-1.1519 0-2.3037-.2861-3.4473-.8579-.4941-.2471-.6943-.8476-.4472-1.3418.2466-.4936.8462-.6943 1.3418-.4473 1.7177.8594 3.3877.8594 5.1054 0 .4947-.247 1.0948-.0463 1.3418.4473.2471.4942.0469 1.0947-.4472 1.3418-1.1436.5718-2.2954.8579-3.4473.8579z"/><path d="M35.9834 43.5527c-6.8037 0-12.3389-6.8066-12.3389-15.1728 0-.5523.4473-1 1-1 .5528 0 1 .4477 1 1 0 7.2637 4.6377 13.1728 10.3389 13.1728 5.7002 0 10.3379-5.9091 10.3379-13.1728 0-.5523.4473-1 1-1s1 .4477 1 1c0 8.3662-5.5352 15.1728-12.3379 15.1728zM16.9209 58.8711c-.4844 0-.9102-.3525-.9863-.8467-.041-.2695-.9727-6.6328 2.581-10.7754 1.9229-2.2412 4.751-3.3769 8.4073-3.3769.1972 0 .3906.0586.5546.1679 3.1534 2.1016 5.6602 3.4092 8.3829 3.4239 2.7236-.0137 5.2304-1.3213 8.3828-3.4239a1.0013 1.0013 0 0 1 .5547-.1679c1.2753 0 2.4638.1406 3.5332.4179.5341.1387.8554.6836.7168 1.2188-.1387.5342-.6846.8584-1.2188.7168-.8242-.2129-1.7422-.3311-2.7344-.3506-3.3086 2.1846-6.0254 3.5449-9.1259 3.5879-.0215.001-.043.001-.0645.001h-.0664a.29428.29428 0 0 0-.042 0c-.0146 0-.0293 0-.0439-.001-3.0987-.043-5.8165-1.4033-9.126-3.5879-2.8965.0566-5.1104.9541-6.586 2.6689-2.956 3.4366-2.1377 9.1202-2.1289 9.1778.083.5449-.292 1.0547-.8379 1.1387-.0507.0078-.1015.0107-.1523.0107zm19.418-38.8252c-1.8516 0-3.708-.52-5.1387-1.2808-.3262-.1733-.5303-.5131-.5303-.8828v-4.6826c0-.207.0645-.4087.1836-.5776l4.1172-5.8179c.1846-.2603.4814-.417.7998-.4224.3242-.0151.6211.1416.8125.3951l4.4785 5.8964a.99805.99805 0 0 1 .2041.605v4.604c0 .3179-.1513.6167-.4072.8052-1.3125.9668-2.9141 1.3584-4.5195 1.3584zm-3.669-2.79c1.9932.8754 4.7315 1.1489 6.5957.0854v-3.7261l-3.4502-4.5424-3.1455 4.4448v3.7383z"/><path d="M47.5 45.0698v6.6c-1.57 1.72-2.79 3.76-2.56 5.84-.15.04-.3.04-.45 0-.45-.11-.77-.51-.77-.97v-8.3l-7.08 10.21c-.19.27-.5.43-.83.43s-.64-.16-.82-.44l-7.07-10.33v9.81c0 .55-.44 1-1 1h-1.78c-.55 0-1-.45-1-1v-12.87c0-.55.45-1 1-1 .36 0 .67.18.85.46.11-.28.34-.5.64-.59.41-.13.87.03 1.12.39l8.07 11.81 8.08-11.64c.25-.36.7-.52 1.12-.39.26.09.48.27.59.51.17-.3101.5-.53.89-.53.55 0 1 .45 1 1z"/><path d="M39.7021 53.2217h-7.7187c-.5527 0-1-.4473-1-1 0-.5528.4473-1 1-1h7.7187c.5528 0 1 .4472 1 1 0 .5527-.4472 1-1 1zm7.9161-32.4732c-.5489 0-.9952-.4419-1-.9917-.0801-9.4179-5.8692-11.499-10.8037-11.5556-4.9346.0566-10.7237 2.1377-10.8038 11.5556-.0048.5523-.4658 1.0127-1.0087.9917-.5518-.0048-.9961-.456-.9913-1.0083.0997-11.6723 8.3428-13.3999 12.461-13.5312.0439-.0059.0888-.0088.1338-.0088h.4179c.045 0 .0899.0029.1338.0088 4.1182.1313 12.3614 1.8589 12.461 13.5312.0048.5523-.4395 1.0035-.9912 1.0083h-.0088z"/><path d="M47.0371 29.2061c-.4355 0-.8545-.1495-1.2256-.439-.7226-.5635-1.2011-1.6753-1.5127-2.7598a2.54431 2.54431 0 0 1-.0537.0161c-1.1855.3457-2.5097-.5849-4.2881-3.0097-.3261-.4453-.2304-1.0713.2149-1.398.4463-.3261 1.0713-.2295 1.3984.2154 1.1192 1.5258 1.7744 2.0249 2.0576 2.1855.0518-.1519.1172-.4253.1514-.8921.0361-.5171.4619-.9194.9805-.9282h.0166c.5107 0 .9414.3857.9941.8955.1807 1.7124.7334 3.561 1.1787 4.0254.4903-.8779 1.0645-3.8364.0645-6.1182-.2217-.5058.0088-1.0957.5146-1.3174.5098-.2197 1.0957.0098 1.3174.5147 1.2461 2.8442.665 6.6509-.2998 8.1279-.4365.6675-.9277.8457-1.2891.8692-.0732.0078-.1464.0127-.2197.0127zm.0234-2.001c.004.0024.0088.0044.0137.0063.0459-.0063.0508-.0156.0977-.0156a.65422.65422 0 0 0-.1114.0093zm-3.5078-3.023zm.2412-.0918zm-18.8652 5.1158c-.0732 0-.1465-.0049-.2197-.0127-.3613-.0235-.8526-.2017-1.2881-.8692-.9658-1.4775-1.5469-5.2846-.2998-8.1284.2217-.5054.8076-.7358 1.3174-.5142.5058.2222.7363.8121.5146 1.3179-1.0078 2.2974-.417 5.2827.0752 6.1367.416-.4174.9863-2.3017 1.168-4.0439.0527-.5103.4824-.8965.9941-.8965h.0166c.5176.0088.9444.4116.9805.9287.0342.4663.0986.7402.1514.8916.2832-.1606.9384-.6597 2.0576-2.1855.3271-.4444.9521-.542 1.3984-.2144.4453.3267.541.9526.2149 1.398-1.7793 2.4243-3.1026 3.352-4.2891 3.0092-.0176-.0053-.0361-.0107-.0537-.0166-.3106 1.085-.79 2.1968-1.5127 2.7603-.3711.2895-.79.439-1.2256.439zm3.4854-5.024zm-.2422-.0918z"/><path d="M50.6758 29.4746c-.3076 0-.6104-.1416-.8067-.4072-.3271-.4448-.2324-1.0708.2129-1.3985 1.294-.9531 1.9512-1.9043 1.9532-2.8276.0019-1.3271-1.3409-2.3398-1.3536-2.3501-.8769-.687-2.3632-.9897-4.2099-.8662-1.7061.1113-3.3975.627-4.8916 1.4912-1.6914.9776-3.6221 1.5064-5.585 1.5298-1.9863-.0234-3.917-.5522-5.6084-1.5298-1.4951-.8638-3.1865-1.3799-4.8916-1.4912-1.8447-.1216-3.334.1802-4.1865.8477-.0371.0288-1.3799 1.0415-1.377 2.3681.002.9234.6592 1.8745 1.9532 2.8277.4453.3276.54.9536.2129 1.3979-.3272.4453-.9532.5381-1.3985.2129-1.8408-1.356-2.7715-2.8545-2.7676-4.4541.0069-2.3457 2.084-3.8838 2.1729-3.9482 1.5605-1.2232 3.8672-1.3545 5.5215-1.2481 2.0097.1318 4.0019.7388 5.7617 1.7559 1.3945.8061 2.9883 1.2422 4.6074 1.2612 1.5957-.019 3.1895-.4551 4.583-1.2612 1.7598-1.0171 3.752-1.6241 5.7627-1.7559 1.6543-.1094 3.961.0234 5.5498 1.2695.0596.043 2.1367 1.5811 2.1446 3.9268.0039 1.6001-.9268 3.0986-2.7676 4.4541-.1787.1318-.3858.1953-.5918.1953zm5.1543 21.4102c-.2881 0-.5733-.1231-.7705-.3623l-3.0283-3.6543c-.17-.2041-.251-.4668-.2266-.7315.0254-.2637.1543-.5068.3584-.6758l1.5996-1.3261-6.0029-2.8369c-.4991-.2364-.7119-.8321-.4766-1.3321.2363-.498.8291-.7138 1.332-.4765l6.958 3.289c1.4024-.7881 5.7569-3.2871 7.5479-4.9219.2021-.1845.4707-.2744.7432-.2597.2724.0195.5263.1494.7002.3603l1.4218 1.7159c.1729.208.2539.4775.2246.746-.0293.2686-.166.5147-.3798.6807-2.1045 1.6387-6.1407 6.7383-6.3936 7.0596-.0381.0498-.082.0976-.1309.1416l-.0009.001c-.0108.0097-.0215.0185-.0332.0283l-2.8057 2.3242c-.1865.1553-.4121.2305-.6367.2305zm-1.6211-4.5225l1.7519 2.1143 1.2696-1.0518-1.752-2.1143-1.2695 1.0518zm2.9365-2.1748l1.4805 1.7861c1.1758-1.4482 3.4511-4.1728 5.1943-5.7812l-.1543-.1865c-1.915 1.4961-4.9306 3.2744-6.5205 4.1816z"/><path d="M53.29 47.0998c-.06.03-3.34 1.91-5.79 4.5699-1.57 1.72-2.79 3.76-2.56 5.84 0 .07.01.15.02.22.09.55-.28 1.06-.83 1.15-.05.01-.1.01-.16.01-.48 0-.9-.35-.98-.84-.24-1.52.08-3 .73-4.36.86-1.83 2.3101-3.47 3.78-4.81 2.28-2.08 4.61-3.41 4.81-3.52.48-.27 1.09-.1 1.36.38.27.4801.1 1.0901-.38 1.3601zm-4.1084 11.8191c-.5048 0-.9384-.3808-.9931-.8935-.374-3.4951 5.8174-8.0742 7.0625-8.9561.4511-.3203 1.0752-.2148 1.3935.2373.3194.4502.2139 1.0743-.2373 1.3936-2.6982 1.915-6.415 5.3867-6.2304 7.1123.0586.5498-.3389 1.042-.8877 1.1006a1.0066 1.0066 0 0 1-.1075.0058zm5.7168-.0478c-.0507 0-.1015-.0029-.1523-.0107-.5459-.084-.9209-.5938-.8379-1.1387 0-.0049.0723-.4854.1006-1.2393l.0088-.2998c.0068-.2988.0049-.626-.0078-.9775l.0117-.6953c.0107-.5528.4707-.9571 1.0195-.9805.5528.0107.9912.4678.9805 1.0195l-.0127.6387c.0137.3379.0156.7041.0088 1.0342l-.0108.3359c-.0332.8789-.1181 1.4434-.122 1.4668-.0762.4942-.502.8467-.9864.8467z"/></g></svg>