<svg xmlns="http://www.w3.org/2000/svg" role="img" viewBox="5.64 8.64 64.22 55.34"><title>1F9DA-1F3FC-200D-2640-FE0F.svg</title><path fill="#fcea2b" d="M18.1548 47.3779a24.0526 24.0526 0 0 0 3.6331 2.7193 10.46449 10.46449 0 0 1 5.361-2.09c6.209 5.0127 12.4951 5.0127 18.7 0a8.34271 8.34271 0 0 1 4.2087 1.5128 22.78654 22.78654 0 0 0 2.972-2.33c1.1884-.7148 3.125-8.2822.3916-13.0253a23.72324 23.72324 0 0 1-1.1573-2.6329c-1.4726-3.27-2.0234-4.4927-2.3486-10.5238.0273-3.6929-3.794-6.7843-7.4746-7.0928a1.00165 1.00165 0 0 1-.6885-.3433c-.0928-.1-2.4082-2.6548-7.2432-2.6548-6.2 0-11.4413 3.3818-12.743 8.2261a18.51822 18.51822 0 0 0-.5645 6.1758 13.31776 13.31776 0 0 1-.7607 5.961 6.80294 6.80294 0 0 1-1.1192 2.0878c-3.7725 4.4203-.9747 14.3031-1.1668 14.0101z"/><path d="M25.5748 29.4834v.957c0 7.6494 4.6093 13.6426 10.4941 13.6426S46.5628 38.09 46.5628 30.44c0-4.6533-1.7784-7.5151-5.2842-11.1343a64.1432 64.1432 0 0 1-8.9883 5.772c-2.6465 1.5146-6.2549 3.5697-6.7155 4.4057zM17 61v-4c0-4.9941 5.0078-9 10-9 6 5 12 5 18 0 4.9941 0 10 4.0059 10 9v4" fill="#debb90"/><path fill="#B1CC33" d="M64.2206 31.343c-.28 1.27.3061 2.9919-.1539 5.4719-.46 2.52-.6695 4.4305-1.0495 7.7605-.67 6.01-1.0319 6.9518-1.0219 7.9518-.042 1.0297-1.5076 5.1479-1.7648 6.1458a2.7196 2.7196 0 0 1-.2.52 1.99336 1.99336 0 0 1-.17.24 11.9602 11.9602 0 0 1-2.23 1.57L55 61v-3.8327c0-4.99-4.9294-9.0043-9.9294-9.0043a15.07876 15.07876 0 0 1-7.54 3.65 20.58992 20.58992 0 0 1 4.51-7.2c1.35-1.35 6.54-4.33 16.87-10.25 2.2199-1.27 4.06-2.32 5.31-3.02zm-29.6 20.4701a15.02602 15.02602 0 0 1-7.55-3.65c-4.99 0-10 4.01-10 9v3.84h-2.55a11.80872 11.80872 0 0 1-2.24-1.57 2.81067 2.81067 0 0 1-.16-.24 1.77021 1.77021 0 0 1-.2-.52 14.33459 14.33459 0 0 1-.46-3.05c.02-1-.38-4-1.05-10.01-.37-3.33-.85-5.98-1.32-8.5-.46-2.48-.88-4.5-1.16-5.77 1.24.7 3.08 1.75 5.3 3.02 10.33 5.92 15.52 8.9 16.87 10.25a20.6742 20.6742 0 0 1 4.37 6.81l.15.39z"/><path fill="#FCEA2B" d="M61.951 50.163L59.8 46.514l-4.225-.296 2.805-3.173-1.024-4.11 3.885 1.687 3.592-2.244-.404 4.216 3.244 2.723-4.134.919z"/><path fill="#A57939" d="M24.7 61c.1979-1.9479.3825-5.3371.3971-6.6899.0484-4.4969-.7975-5.8392-.7975-5.8392.904-.2618 1.8406-.4026 2.7767-.4026 6 5 12 5 18 0a10.6406 10.6406 0 0 1 2.5139.3363l.0006.0002s-.7422 1.4085-.6938 5.9054c.0146 1.3528.1992 4.742.3971 6.6899"/><g><path fill="none" stroke="#000" stroke-linecap="round" stroke-linejoin="round" stroke-width="2" d="M54.3448 36.2334a11.59413 11.59413 0 0 0-.5105-1.4316c-2.4043-5.67-3.042-5.6426-3.4287-12.8223-.0322-4.1856-3.2362-7.6631-7.4052-8.0371 0 0-2.6-3-8-3-6.4317 0-12.23 3.4658-13.709 8.9658-1.5 5.583.3447 7.834-1.291 12.0342-.622 1.5982-1.3964 3.1465-1.993 4.7286"/><path d="M42.0003 29.9424c0 1.1046-.8954 2-2 2s-2-.8954-2-2 .8954-2 2-2 2 .8954 2 2m-8 0c0 1.1046-.8954 2-2 2s-2-.8954-2-2 .8954-2 2-2 2 .8954 2 2"/><path fill="none" stroke="#000" stroke-linejoin="round" stroke-width="2" d="M25.0003 30.9424c0 8 5 14 11 14s11-6 11-14c0-5-2-8-6-12-4 4-16 9-16 11v1z"/><path fill="none" stroke="#000" stroke-linecap="round" stroke-linejoin="round" stroke-width="2" d="M33.0003 38.1924c1.875 1 4.125 1 6 0m-1.2074 13.2564a24.54167 24.54167 0 0 1 4.2495-6.8331c1.983-2.2291 2.9034-2.25 16.8669-10.2481 2.2246-1.2743 4.0655-2.3206 5.3082-3.0253-.2364 1.0767-.5789 2.685-.9563 4.6577m-4.1319 22.7552c.0972-.1878.7619-1.5115.9072-1.88.4825-1.1863.8064-2.4301.9641-3.6992m-47.9851 5.5792c-.0973-.1878-.7619-1.5115-.9072-1.88-1.5871-4.025-.647-6.9374-3.0149-19.7594-.4587-2.4838-.8866-4.5-1.1662-5.7736 1.2428.7047 3.0837 1.751 5.3083 3.0253 13.9634 7.998 14.8839 8.019 16.8668 10.2481a24.44747 24.44747 0 0 1 4.15 6.5979M59.434 47.742l-8.429 14.141"/><path fill="none" stroke="#000" stroke-linecap="round" stroke-linejoin="round" stroke-width="2" d="M61.951 50.163L59.8 46.514l-4.225-.296 2.805-3.173-1.024-4.11 3.885 1.687 3.592-2.244-.404 4.216 3.244 2.723-4.134.919zm-44.8747 9.9053v-3c0-4.9941 5.0078-9 10-9 6 5 12 5 18 0 3.1629.0432 6.1254 1.4887 8.1051 3.915"/><path fill="none" stroke="#000" stroke-linecap="round" stroke-linejoin="round" stroke-width="2" d="M24.41 48.6432s.7355 1.17.6871 5.6669c-.0146 1.3528-.1992 3.742-.3971 5.6899m22.8908-11.5953s-.7422 1.4085-.6938 5.9054c.0146 1.3528.1992 3.742.3971 5.6899"/></g></svg>