<svg xmlns="http://www.w3.org/2000/svg" role="img" viewBox="8.71 7.46 54.08 53.45"><title>1F9D1-1F3FD-200D-1F3EB.svg</title><g id="color"><path fill="#5C9E31" d="M13.886 52.097L10.83 52.097 10.83 16.914 19.822 16.914 36.328 16.914 52.039 16.914 60.766 16.914 60.766 52.097 56.681 52.097"/><path fill="#6A462F" d="M53.8795,58.9993c0,0,2.7-14.1375-9.3-14.1375c-3.1919,2.1192-5.9264,3.5837-9,3.5775h0.125 c-3.0736,0.0062-5.8082-1.4583-9-3.5775c-12,0-10,14.1375-10,14.1375"/><path fill="#3F3F3F" d="M44.58 45.364L47.15 54.404 41.53 54.164 41.62 58.955 35.74 57.355 35.83 57.325 35.74 57.194z"/><path fill="#D0CFCE" d="M44.4804,45.2145l0.1,0.15l-8.84,11.83l-8.85-11.83l0.16-0.24c3.08,2.05,5.75,3.46,8.72,3.49 c0.01,0,0.02,0,0.03,0h0.09C38.8204,48.5845,41.4504,47.2145,44.4804,45.2145z"/><path fill="#3F3F3F" d="M35.74 57.194L35.64 57.325 35.74 57.355 29.85 58.955 29.94 54.164 24.32 54.404 26.89 45.364z"/></g><g id="hair"><path fill="#6a462f" d="M26,36.5808c-4,0-4-6-4-13s4-14,14-14s14,7,14,14s0,13-4,13"/></g><g id="skin"><path fill="#c19a65" d="M24.9365,28.5808c0,9,4.9365,14,11,14c5.9365,0,11.0635-5,11.0635-14c0.0245-1.7187-0.3164-3.4229-1-5 c-3-3-7-8-7-8c-4,3-7,6-13,7.0005C26,22.5808,24.9365,23.58,24.9365,28.5808z"/></g><g id="line"><path d="M22.9654 17.9098H11.83v32.29h2.06c.55 0 1 .44 1 1 0 .55-.45 1-1 1h-3.06c-.55 0-1-.45-1-1v-34.29c0-.55.45-1 1-1l13.0581 0L22.9654 17.9098zM48.15 15.9098h12.62c.55 0 1 .4499 1 1v34.29c0 .55-.45 1-1 1h-2.59c-.55 0-1-.45-1-1 0-.56.45-1 1-1h1.59v-32.29H49.0303L48.15 15.9098zM47.15 27.2997h-1.96v1.24c0 2.11-1.71 3.82-3.81 3.82h-2.01c-1.55 0-2.88-.93-3.48-2.25-.6 1.32-1.94 2.25-3.48 2.25H30.4c-2.11 0-3.82-1.71-3.82-3.82v-1.24h-.69c-.45 0-.83-.3-.95-.71.23-.38.44-.8.62-1.23.1-.04.21-.06.33-.06h1.69c.05 0 .1 0 .15.01.49.08.85.49.85.99v2.24c0 1 .82 1.82 1.82 1.82h2.01c1 0 1.81-.82 1.81-1.82v-1.1c0-.55.45-1 1-1h1.33c.56 0 1 .45 1 1v1.1c0 1 .82 1.82 1.82 1.82h2.01c1 0 1.81-.82 1.81-1.82v-2.24c0-.55.45-1 1-1h2.406L47.15 27.2997z"/><path fill="none" stroke="#000" stroke-linecap="round" stroke-linejoin="round" stroke-miterlimit="10" stroke-width="2" d="M16.8904,58.0245c0,0-2-13,10-13c0.05,0.04,0.11,0.07,0.16,0.1c3.08,2.05,5.75,3.46,8.72,3.49c0.01,0,0.02,0,0.03,0h0.09 c2.93-0.03,5.56-1.4,8.59-3.4c0.1-0.06,0.19-0.12,0.29-0.19c3.99,0,6.43,1.44,7.92,3.36l0.78,1.26"/><path fill="none" stroke="#000" stroke-linecap="round" stroke-linejoin="round" stroke-miterlimit="10" stroke-width="2" d="M35.74 57.194L35.83 57.325 35.74 57.355 29.85 58.955 29.94 54.164 24.32 54.404 26.89 45.364z"/><path fill="none" stroke="#000" stroke-linecap="round" stroke-linejoin="round" stroke-miterlimit="10" stroke-width="2" d="M35.74 57.194L35.64 57.325 35.74 57.355 41.62 58.955 41.53 54.164 47.15 54.404 44.58 45.364z"/><path d="M53.0441,58.7525c-0.5096,0-0.9023-0.4491-0.8345-0.9541l3.3718-26.5033L54.1676,57.967 C54.1379,58.4091,53.4872,58.7525,53.0441,58.7525L53.0441,58.7525z"/><path d="M53.0439 59.5029c-.4599 0-.8964-.1982-1.1982-.5439-.3027-.3467-.4404-.8057-.3789-1.2608l3.3701-26.498c.0508-.3994.3975-.6895.8115-.6523.4014.0361.7032.3837.6817.7871L54.917 58.0068C54.8506 58.9746 53.7676 59.5029 53.0439 59.5029zM53.7539 51.6025l-.7998 6.2911.0898.1093c.1153 0 .3028-.0859.379-.1572L53.7539 51.6025zM41.9529 27.0468c0 1.1046-.8954 2-2 2s-2-.8954-2-2 .8954-2 2-2C41.0573 25.0472 41.9525 25.9424 41.9529 27.0468M33.9529 27.0468c0 1.1046-.8954 2-2 2-1.1046 0-2-.8954-2-2s.8954-2 2-2C33.0573 25.0472 33.9525 25.9424 33.9529 27.0468M35.9527 37.0492c-1.2005-.0116-2.3813-.3055-3.4472-.8579-.494-.247-.6943-.8477-.4473-1.3418s.8477-.6943 1.3418-.4473c1.5934.8593 3.5121.8593 5.1055 0 .494-.247 1.0947-.0468 1.3418.4473s.0468 1.0947-.4473 1.3418C38.3341 36.7437 37.1532 37.0376 35.9527 37.0492z"/><path fill="none" stroke="#000" stroke-linecap="round" stroke-linejoin="round" stroke-width="2" d="M26,36.5808c-4,0-4-6-4-13 s4-14,14-14s14,7,14,14s0,13-4,13"/><path fill="none" stroke="#000" stroke-linejoin="round" stroke-width="2" d="M24.9365,28.5808c0,9,4.9365,14,11,14 c5.9365,0,11.0635-5,11.0635-14c0.0245-1.7187-0.3164-3.4229-1-5c-3-3-7-8-7-8c-4,3-7,6-13,7.0005 C26,22.5808,24.9365,23.58,24.9365,28.5808z"/></g></svg>