<svg xmlns="http://www.w3.org/2000/svg" role="img" viewBox="10.00 10.88 51.87 49.87"><title>1F9EE.svg</title><path fill="#fff" d="M13.331 20.892l.192 18.397 44.887-.192-.193-17.724-44.886-.481z"/><circle cx="20.197" cy="19.736" r="2.724" fill="#ea5a47"/><path fill="#d22f27" d="M21.2765 17.0572c.8111 1.2649.4432 2.9478-.8216 3.7589-.895.5739-2.0423.5739-2.9373 0 .8086 1.2674 2.4915 1.6394 3.7589.8309s1.6394-2.4915.8309-3.7589a2.7229 2.7229 0 0 0-.8309-.8309z"/><circle cx="30.834" cy="19.736" r="2.724" fill="#ea5a47"/><path fill="#d22f27" d="M31.9139 17.0572c.8111 1.2649.4432 2.9478-.8216 3.7589-.895.5739-2.0423.5739-2.9373 0 .8086 1.2674 2.4915 1.6394 3.7589.8309s1.6394-2.4915.8309-3.7589a2.7229 2.7229 0 0 0-.8309-.8309z"/><circle cx="37.697" cy="19.736" r="2.724" fill="#ea5a47"/><path fill="#d22f27" d="M38.7767 17.0572c.8111 1.2649.4432 2.9478-.8216 3.7589-.895.5739-2.0423.5739-2.9373 0 .8086 1.2674 2.4915 1.6394 3.7589.8309s1.6394-2.4915.8309-3.7589a2.7229 2.7229 0 0 0-.8309-.8309z"/><circle cx="45.246" cy="19.736" r="2.724" fill="#ea5a47"/><path fill="#d22f27" d="M46.3258 17.0572c.8111 1.2649.4432 2.9478-.8216 3.7589-.895.5739-2.0423.5739-2.9373 0 .8086 1.2674 2.4915 1.6394 3.7589.8309s1.6394-2.4915.8309-3.7589a2.7229 2.7229 0 0 0-.8309-.8309z"/><circle cx="23.931" cy="30.374" r="2.724" fill="#fcea2b"/><path fill="#f1b31c" d="M25.0105 27.6946c.8111 1.2648.4434 2.9477-.8214 3.7588-.895.574-2.0424.574-2.9374 0 .8086 1.2673 2.4915 1.6392 3.7588.8307s1.6392-2.4915.8307-3.7588a2.7227 2.7227 0 0 0-.8307-.8307z"/><circle cx="31.137" cy="30.374" r="2.724" fill="#fcea2b"/><path fill="#f1b31c" d="M32.2165 27.6946c.8112 1.2648.4435 2.9476-.8213 3.7588-.8951.5741-2.0426.5741-2.9376 0 .8085 1.2675 2.4914 1.6396 3.7588.8311 1.2675-.8085 1.6396-2.4914.8311-3.7588a2.722 2.722 0 0 0-.8311-.8311z"/><circle cx="47.264" cy="30.374" r="2.724" fill="#fcea2b"/><path fill="#f1b31c" d="M48.3441 27.6946c.8111 1.2648.4434 2.9477-.8214 3.7588-.895.574-2.0424.574-2.9374 0 .8086 1.2673 2.4915 1.6392 3.7588.8307s1.6392-2.4915.8307-3.7588a2.7227 2.7227 0 0 0-.8307-.8307z"/><circle cx="54.814" cy="30.374" r="2.724" fill="#fcea2b"/><path fill="#f1b31c" d="M55.8933 27.6946c.8112 1.2648.4435 2.9476-.8213 3.7588-.8951.5741-2.0426.5741-2.9376 0 .8085 1.2675 2.4914 1.6396 3.7588.8311 1.2675-.8085 1.6396-2.4914.8311-3.7588a2.722 2.722 0 0 0-.8311-.8311z"/><circle cx="23.931" cy="41.011" r="2.724" fill="#f4aa41"/><path fill="#e27022" d="M25.0106 38.332c.8112 1.2648.4435 2.9476-.8213 3.7588-.8951.5741-2.0426.5741-2.9376 0 .8085 1.2675 2.4914 1.6396 3.7588.8311s1.6396-2.4914.8311-3.7588a2.722 2.722 0 0 0-.8311-.8311z"/><circle cx="31.137" cy="41.011" r="2.724" fill="#f4aa41"/><path fill="#e27022" d="M32.2165 38.332c.8112 1.2648.4435 2.9476-.8213 3.7588-.8951.5741-2.0426.5741-2.9376 0 .8085 1.2675 2.4914 1.6396 3.7588.8311s1.6396-2.4914.8311-3.7588a2.722 2.722 0 0 0-.8311-.8311z"/><circle cx="41.088" cy="41.011" r="2.724" fill="#f4aa41"/><path fill="#e27022" d="M42.1676 38.332c.8112 1.2648.4435 2.9476-.8213 3.7588-.8951.5741-2.0426.5741-2.9376 0 .8085 1.2675 2.4914 1.6396 3.7588.8311s1.6396-2.4914.8311-3.7588a2.722 2.722 0 0 0-.8311-.8311z"/><circle cx="51.423" cy="41.011" r="2.724" fill="#f4aa41"/><path fill="#e27022" d="M52.5024 38.332c.8112 1.2648.4435 2.9476-.8213 3.7588-.8951.5741-2.0426.5741-2.9376 0 .8085 1.2675 2.4914 1.6396 3.7588.8311s1.6396-2.4914.8311-3.7588a2.722 2.722 0 0 0-.8311-.8311z"/><g fill="none" stroke="#000"><path stroke-linecap="round" stroke-linejoin="round" stroke-width="2" d="M12.092 58.874v-46m36.559 6.863l10.895-.001m-18.523.001h.869m-7.748 0h.263m-10.821 0h3.887m-14.614 0h4.032m43.017 39.137v-46"/><circle cx="20.197" cy="19.736" r="2.724" stroke-miterlimit="10" stroke-width="1.362"/><circle cx="30.834" cy="19.736" r="2.724" stroke-miterlimit="10" stroke-width="1.362"/><circle cx="37.697" cy="19.736" r="2.724" stroke-miterlimit="10" stroke-width="1.362"/><circle cx="45.246" cy="19.736" r="2.724" stroke-miterlimit="10" stroke-width="1.362"/><path stroke-linecap="round" stroke-linejoin="round" stroke-width="2" d="M58.075 30.374h.784m-8.302 0h.985m-17.062 0h9.442m-16.739 0h.702m-15.026 0h7.775"/><circle cx="23.931" cy="30.374" r="2.724" stroke-miterlimit="10" stroke-width="1.362"/><circle cx="31.137" cy="30.374" r="2.724" stroke-miterlimit="10" stroke-width="1.362"/><circle cx="47.264" cy="30.374" r="2.724" stroke-miterlimit="10" stroke-width="1.362"/><circle cx="54.814" cy="30.374" r="2.724" stroke-miterlimit="10" stroke-width="1.362"/><path stroke-linecap="round" stroke-linejoin="round" stroke-width="2" d="M54.76 41.011h4.099m-14.419 0h3.631m-13.613 0h3.333m-10.539 0h.56m-14.953 0h7.747"/><circle cx="23.931" cy="41.011" r="2.724" stroke-miterlimit="10" stroke-width="1.362"/><circle cx="31.137" cy="41.011" r="2.724" stroke-miterlimit="10" stroke-width="1.362"/><circle cx="41.088" cy="41.011" r="2.724" stroke-miterlimit="10" stroke-width="1.362"/><circle cx="51.423" cy="41.011" r="2.724" stroke-miterlimit="10" stroke-width="1.362"/></g></svg>