<svg xmlns="http://www.w3.org/2000/svg" role="img" viewBox="12.34 5.84 54.08 53.95"><title>1F9E9.svg</title><path fill="#92d3f5" d="M39.7792 57.8819H52.77V44.851c5.2976 0 11.6314 1.4 11.6314-6.1934 0-6.7613-6.3338-5.8535-11.6314-5.8535V19.5133H39.7792c1.8239-5.8157 1.8239-11.6314-4.9774-11.6314s-6.73 6.3338-6.73 11.6314H14.4016v14.0106c4.2433-1.5715 11.6314-4.4184 11.6314 5.1737s-8.48 6.5814-11.6314 5.1737v14.0106h11.9713c0-5.2976 0-12.383 7.213-12.3112 6.7827.0675 6.1933 7.0136 6.1933 12.3112z"/><path fill="#61b2e4" d="M39.0542 51.0992c1.7359 1.7359 1.11 4.1339 1.11 6.7827H52.77V43.8713c5.8157 1.0357 10.9968 3.6045 10.9968-5.2137 0-5.2976-4.9743-6.1934-10.2719-6.1934V19.8154h-4.1161"/><g fill="none" stroke="#000" stroke-linecap="round" stroke-linejoin="round" stroke-width="2"><path d="M14.402 33.524V19.513h15.226M28 57.882H14.402V43.871m38.368 0v14.011H38.348m1.628-38.369H52.77v14.011"/><path d="M14.4016 33.5239c2.6813-2.3413 11.6314-3.2873 11.6314 5.1737m-11.6314 5.1737c2.6813 2.3413 11.6314 3.2873 11.6314-5.1737"/><path d="M28.0005 57.8819c-2.3414-2.6814-3.2873-11.6314 5.1737-11.6314m5.1737 11.6314c2.3413-2.6814 3.2873-11.6314-5.1737-11.6314"/><path d="M29.6281 19.5133c-2.3414-2.6814-3.2873-11.6314 5.1737-11.6314m5.1737 11.6314c2.3413-2.6814 3.2873-11.6314-5.1737-11.6314"/><path d="M52.77 43.8713c2.6813 2.3413 11.6314 3.2873 11.6314-5.1737M52.77 33.5239c2.6813-2.3413 11.6314-3.2873 11.6314 5.1737"/></g></svg>