<svg xmlns="http://www.w3.org/2000/svg" role="img" viewBox="7.53 14.78 56.81 42.44"><title>1F9E4.svg</title><g fill="#ea5a47"><path d="M33.76 32.4295c-1.5816-1.582-4.1121.5854-4.9849 2.6526l.0014-10.4373a7.29 7.29 0 0 0-2.6321-5.6982c-6.617-5.3284-15.4657.4108-15.7323 7.0178-.2336 5.79-.0016 11.5886-.0025 17.383 0 3.0637 1.4989 10.5377 1.4989 10.5377s6.3562 1.1788 9.5168 1.32c3.38.1506 6.7166-.0164 8.9268-2.1929 2.1361-2.1035 3.2031-6.1585 3.2036-9.3933-.0342-2.235.2032-6.0348.2043-11.1894z"/><path d="M38.0406 32.5248c1.5815-1.5821 4.1121.5853 4.9849 2.6525L43.024 24.74a7.29 7.29 0 0 1 2.6322-5.6982c6.6169-5.3284 15.4656.4109 15.7322 7.0179.2336 5.79.0017 11.5886.0025 17.3829 0 3.0638-1.4988 10.5378-1.4988 10.5378s-6.3563 1.1788-9.5169 1.32c-3.38.1506-6.7166-.0165-8.9268-2.1929-2.1361-2.1035-3.2031-6.1585-3.2036-9.3933.0338-2.235-.2035-6.0348-.2042-11.1894z"/></g><g fill="none" stroke="#000" stroke-linecap="round" stroke-linejoin="round" stroke-width="2"><path d="M12.9834 55.1505h15.5327c4.6471-3.7963 6.7794-10.2411 5.5558-21.5825a1.6534 1.6534 0 0 0-2.1567-1.4435 5.79 5.79 0 0 0-2.9407 3.0528L28.976 24.74a7.3549 7.3549 0 0 0-2.8-5.8308c-6.5977-5.0987-15.0386.6151-15.564 7.1505-.8356 10.3878-2.482 23.688 2.3714 29.0908z"/><path d="M59.0166 55.1505H43.4839c-4.6471-3.7963-6.7794-10.2411-5.5558-21.5825a1.6534 1.6534 0 0 1 2.1567-1.4435 5.79 5.79 0 0 1 2.9407 3.0528L43.024 24.74a7.3549 7.3549 0 0 1 2.8-5.8308c6.5977-5.0987 15.0386.6151 15.564 7.1505.8356 10.3878 2.482 23.688-2.3714 29.0908z"/><path d="M43.484 41.882l-.458-6.705m-14.51 6.705l.458-6.705"/></g></svg>