<svg xmlns="http://www.w3.org/2000/svg" role="img" viewBox="8.30 14.43 55.77 43.52"><title>1F9E0.svg</title><path fill="#ea5a47" d="M16 35h9.875m0 0c3.4167 0 4.75-2.9167 4.75-6.1667M16 45.5h3.75m15.55 0v-6.062m-.0003-.0005c0-2.2455 1.2003-5.25 5.0756-5.25m18.0827.3545h-8.583"/><path fill="#FFA7C0" d="M40.375 45.5S40.5392 56 32.4167 56H16c-7.2083 0-7.6667-10.5 0-10.5-7.2083 0-7.6667-10.5 0-10.5-8.1667-7.25 1.875-13.5625 6.5-8.6875-4.799-6.625 5.375-10.3125 8.875-5-.4123-5.3125 4.8472-6.2708 9.7253-2.2885l-.4336.351c2.375-2.375 10.1776-1.0833 10.1776 5.3141l-2.2192 1.6234c6.8646-6.8646 14.2083 4.1875 8.5 8.2292h1.3333c4.75 0 5.2917 10.9583-1.3333 10.9583H29.2917"/><path fill="#ea5a47" d="M40.6667 19.375c-2.4167 2.4167-.2822 3.1782-4.2707 7.1667"/><g fill="none" stroke="#000" stroke-linecap="round" stroke-linejoin="round" stroke-miterlimit="10" stroke-width="2"><path d="M16 35h9.875m0 0c3.4167 0 4.75-2.9167 4.75-6.1667M16 45.5h3.75m15.55 0v-6.062m-.0003-.0005c0-2.2455 1.2003-5.25 5.0756-5.25m18.0827.3545h-8.583"/><path d="M40.375 45.5S40.5392 56 32.4167 56H16c-7.2083 0-7.6667-10.5 0-10.5-7.2083 0-7.6667-10.5 0-10.5-8.1667-7.25 1.875-13.5625 6.5-8.6875-4.799-6.625 5.375-10.3125 8.875-5-.4123-5.3125 4.8472-6.2708 9.7253-2.2885l-.4336.351c2.375-2.375 10.1776-1.0833 10.1776 5.3141l-2.2192 1.6234c6.8646-6.8646 14.2083 4.1875 8.5 8.2292h1.3333c4.75 0 5.2917 10.9583-1.3333 10.9583H29.2917m11.375-26.125c-2.4167 2.4167-.2822 3.1782-4.2707 7.1667"/></g></svg>