<svg xmlns="http://www.w3.org/2000/svg" role="img" viewBox="14.72 2.72 42.43 66.43"><title>1F9E7.svg</title><path fill="#d22f27" d="M17 5h38v62H17z"/><circle cx="36" cy="27" r="10" fill="#f1b31c"/><g><g fill="none" stroke="#000"><g stroke-linecap="round" stroke-linejoin="round"><path d="M31.887 21.413v2.454m-1.9628-.0001h3.8493A12.01 12.01 0 0 1 29.7 28.85"/><path d="M33.5868 28.2638a5.2377 5.2377 0 0 1-1.7-1.4514v5.7744M34.812 22.148H41.7m-5.72 1.692h4.488v2.01H35.98zm-.61 8.697v-4.922h5.796v4.922m-5.796-2.87h5.796m-5.796 2.049h5.796m-2.937 0v-4.101"/></g><g stroke-linecap="round" stroke-miterlimit="10" stroke-width="2"><circle cx="36" cy="27" r="10"/><path d="M55 18a25.4 25.4 0 0 1-9.2886 6.6522m-19.4228 0A25.4 25.4 0 0 1 17 18"/></g><path stroke-linejoin="round" stroke-width="2" d="M17 5h38v62H17z"/></g></g></svg>