<svg xmlns="http://www.w3.org/2000/svg" role="img" viewBox="17.13 7.63 41.74 58.37"><title>1F9EF.svg</title><path fill="#d22f27" d="M44.75 28.1191V64H26.47V28.1191a8.9827 8.9827 0 0 1 5.93-8.7063 6.3683 6.3683 0 0 1 .65-.176h.01a7.4867 7.4867 0 0 1 1.66-.1868h1.78c4.56 0 8.25 4.0564 8.25 9.0691z"/><path fill="#ea5a47" d="M38.33 26.723V64H26.47V28.1191a8.9827 8.9827 0 0 1 5.93-8.7063 6.3683 6.3683 0 0 1 .65-.176h.01a7.4867 7.4867 0 0 1 1.66-.1868h.15a9.844 9.844 0 0 1 3.46 7.673zM33.518 9.977h4.186v8.704h-4.186z"/><path fill="#d0cfce" d="M44.75 12.717v3.187h-7.046v-3.187z"/><path fill="#d0cfce" d="M33.52 12.7167h-4.6409a4.5108 4.5108 0 0 0-3.7455 1.9973L19.63 22.9146a1.5943 1.5943 0 0 0 .6751 2.34 1.6527 1.6527 0 0 0 2.0226-.6418l4.475-6.7034a4.5109 4.5109 0 0 1 3.7516-2.0062H33.52zm11.231-.3047v3.833l12.093 2.619V9.793l-12.093 2.619z"/><path fill="#fff" d="M30.913 29.284h9.395v5.674h-9.395z"/><g fill="none" stroke="#000" stroke-linecap="round" stroke-linejoin="round" stroke-width="2"><path d="M35.611 19.0521h0a9.14 9.14 0 0 1 9.14 9.14v34.9132a.8909.8909 0 0 1-.8909.8909H27.3624a.8909.8909 0 0 1-.8909-.8909V28.1916a9.14 9.14 0 0 1 9.1395-9.1395zM33.518 9.977h4.186v8.704h-4.186z"/><path d="M44.75 12.717v3.187h-7.046v-3.187z"/><path d="M33.52 12.7167h-4.6409a4.5108 4.5108 0 0 0-3.7455 1.9973L19.63 22.9146a1.5943 1.5943 0 0 0 .6751 2.34 1.6527 1.6527 0 0 0 2.0226-.6418l4.475-6.7034a4.5109 4.5109 0 0 1 3.7516-2.0062H33.52zm11.231-.3047v3.833l12.093 2.619V9.793l-12.093 2.619zM30.913 29.284h9.395v5.674h-9.395z"/></g></svg>