<svg xmlns="http://www.w3.org/2000/svg" role="img" viewBox="12.66 10.29 46.55 49.92"><title>1F9FA.svg</title><g id="color" fill="#a57939"><path d="M36 35.129L17.213 35.084 22.09 58.34 36 58.34 49.91 58.34 54.787 35.084 36 35.129z"/><path d="M15.092 27.478L15.092 35.15 56.608 35.15 57.357 27.478 15.092 27.478z"/><path d="M31.6746,32.2975,22.4853,17.56c-1.1159-1.79-.83-3.9827.638-4.8982h0c1.4682-.9156,3.5631-.207,4.6791,1.5827L38.9357,32.2975Z"/></g><g id="line"><path fill="none" stroke="#000" stroke-linecap="round" stroke-linejoin="round" stroke-width="2" d="M36 35.129L17.213 35.084 22.09 58.34 36 58.34 49.91 58.34 54.787 35.084 36 35.129zM31.6746 32.2975L22.4853 17.56c-1.1159-1.79-.83-3.9827.638-4.8982h0c1.4682-.9156 3.5631-.207 4.6791 1.5827L38.9357 32.2975z"/><g fill="none" stroke="#000" stroke-linecap="round" stroke-linejoin="round" stroke-width="2"><path d="M39.176 37.792L47.889 47.37M28.915 37.65L44.735 55.264M23.845 41.502L36.383 55.7M25.283 54.099L26.667 55.477M24.564 46.465L32.575 37.792M26.876 55.352L43.394 37.792M36.383 55.7L48.445 43.216M44.735 55.264L46.896 53.442"/></g><circle cx="33.874" cy="29.837" r=".886"/><path fill="none" stroke="#000" stroke-linecap="round" stroke-linejoin="round" stroke-width="2" d="M36.383 27.427L57.357 27.427 57.357 35.092 14.643 35.092 14.643 27.427 27.849 27.427"/></g></svg>