<svg xmlns="http://www.w3.org/2000/svg" role="img" viewBox="8.84 5.71 54.20 60.45"><title>1F9FB.svg</title><g id="color"><path fill="#fff" d="m11.41 56.6c8.303 12.49 32.7 6.093 39.05 3.446l0.7008-44.25c-0.9537-3.003-22.19-15.83-39.75-0.3751z"/><path fill="#d0cfce" d="m47.37 61.41c4.514-3.053 13.23-9.667 13.23-9.667v-38.44c-2.321 2.072-9.972 5.775-13.23 6.769"/><ellipse cx="30.85" cy="15.3" fill="#fff" rx="4.666" ry="2.13"/></g><g id="line" fill="none" stroke="#000" stroke-width="2"><ellipse cx="31.23" cy="15.32" stroke-miterlimit="10" rx="20.18" ry="7.368"/><path stroke-linecap="round" stroke-linejoin="round" stroke-miterlimit="10" d="m11.05 14.93 1e-6 41.76c0 4.074 9.037 7.363 20.18 7.363 6.02 0 10.53-0.6946 14.26-1.873 8.515-2.892 15.46-10.42 15.46-10.42v-38.98c-3.73 3.326-13.38 6.865-13.38 6.865"/><path stroke-linecap="round" stroke-linejoin="round" d="M31.23 22.69L31.23 26.01"/><path stroke-dasharray="5.213 5.213" stroke-linecap="round" stroke-linejoin="round" d="M31.23 32.96L31.23 57.25"/><path stroke-linecap="round" stroke-linejoin="round" d="M31.23 60.72L31.23 64.05"/><ellipse cx="30.79" cy="15.31" stroke-linecap="round" stroke-linejoin="round" rx="4.739" ry="2.16"/></g></svg>