<svg xmlns="http://www.w3.org/2000/svg" role="img" viewBox="21.95 12.20 27.97 47.97"><title>1F9F4.svg</title><path fill="#61b2e4" d="M48.0312 34.43v18.7113a5.2419 5.2419 0 0 1-5.2493 5.24H29.905a5.24 5.24 0 0 1-5.24-5.24V34.43a9.5463 9.5463 0 0 1 8.7611-9.5137c.2509-.0186.5111-.0279.7712-.0279h4.3016a9.542 9.542 0 0 1 9.5323 9.5416z"/><path fill="#92d3f5" d="M42.1781 34.43v18.7113a5.24 5.24 0 0 1-5.24 5.24H29.905a5.24 5.24 0 0 1-5.24-5.24V34.43a9.5463 9.5463 0 0 1 8.7611-9.5137 9.5383 9.5383 0 0 1 8.752 9.5137z"/><path fill="#ea5a47" d="M36.0746 17.7765a3.7 3.7 0 0 1 3.7 3.7v3.1971h-7.4v-3.1971a3.7 3.7 0 0 1 3.7-3.7z"/><ellipse cx="36.348" cy="41.635" fill="#ea5a47" rx="6.834" ry="10.561"/><g><path d="M38.97 14.268h-5.5828c-.1475-.1475 2.7839 4.4322 2.7916 4.42.0076.012 2.9391-4.5675 2.7912-4.42z"/><path fill="none" stroke="#000" stroke-linecap="round" stroke-linejoin="round" stroke-width="2" d="M23.96 17.1731c.0775-.0278 5.1429-2.9513 5.1429-2.9513H42.18m-7.2521 10.669h2.8388a10.2649 10.2649 0 0 1 10.2649 10.2649V52.74a5.6461 5.6461 0 0 1-5.6461 5.6461H30.309a5.6461 5.6461 0 0 1-5.6461-5.6461V35.1557a10.2649 10.2649 0 0 1 10.265-10.2649zm1.1467-7.1143h0a3.7 3.7 0 0 1 3.7 3.7v3.1971h0-7.4 0v-3.1971a3.7 3.7 0 0 1 3.7-3.7z"/><ellipse cx="36.348" cy="41.635" fill="none" stroke="#000" stroke-miterlimit="10" stroke-width="2" rx="6.834" ry="10.561"/></g></svg>