<svg xmlns="http://www.w3.org/2000/svg" role="img" viewBox="10.00 10.63 51.87 51.62"><title>1FA79.svg</title><path fill="#e67a94" d="M21.50431 37.56066l15.55635-15.55635 13.43503 13.43503-15.55635 15.55635z"/><path fill="#ffa7c0" d="M13.92831 45.13666l7.67706-7.67706L35.0404 50.89463l-7.67706 7.67706z"/><rect width="19" height="19" x="12.105" y="41.395" fill="#ffa7c0" rx="8.821" ry="8.821" transform="rotate(-45 21.605 50.895)"/><path fill="#ffa7c0" d="M58.0724 27.86263l-7.67706 7.67706L36.9603 22.10466l7.67706-7.67706z"/><rect width="19" height="19" x="40.895" y="12.605" fill="#ffa7c0" rx="9.5" ry="9.5" transform="rotate(135 50.395 22.105)"/><circle cx="19.974" cy="44.465" r=".679" fill="#e67a94"/><circle cx="22.661" cy="47.152" r=".679" fill="#e67a94"/><circle cx="25.348" cy="49.839" r=".679" fill="#e67a94"/><circle cx="28.035" cy="52.526" r=".679" fill="#e67a94"/><circle cx="17.095" cy="47.344" r=".679" fill="#e67a94"/><circle cx="19.782" cy="50.031" r=".679" fill="#e67a94"/><circle cx="22.469" cy="52.718" r=".679" fill="#e67a94"/><circle cx="25.156" cy="55.405" r=".679" fill="#e67a94"/><circle cx="46.844" cy="17.595" r=".679" fill="#e67a94"/><circle cx="49.531" cy="20.282" r=".679" fill="#e67a94"/><circle cx="52.218" cy="22.969" r=".679" fill="#e67a94"/><circle cx="54.905" cy="25.656" r=".679" fill="#e67a94"/><circle cx="43.965" cy="20.474" r=".679" fill="#e67a94"/><circle cx="46.652" cy="23.161" r=".679" fill="#e67a94"/><circle cx="49.339" cy="25.848" r=".679" fill="#e67a94"/><circle cx="52.026" cy="28.535" r=".679" fill="#e67a94"/><g><path stroke="#000" stroke-miterlimit="10" stroke-width="2" d="M43.677 15.388L14.888 44.177"/><path fill="none" stroke="#000" stroke-miterlimit="10" stroke-width="2" d="M21.605 37.46L35.04 50.895m22.0722-22.0722a9.5 9.5 0 0 0-13.435-13.435M28.3228 57.6122a9.5 9.5 0 0 1-13.435-13.435M36.96 22.105L50.395 35.54M28.323 57.612l28.789-28.789"/><circle cx="19.974" cy="44.465" r=".679"/><circle cx="22.661" cy="47.152" r=".679"/><circle cx="25.348" cy="49.839" r=".679"/><circle cx="28.035" cy="52.526" r=".679"/><circle cx="17.095" cy="47.344" r=".679"/><circle cx="19.782" cy="50.031" r=".679"/><circle cx="22.469" cy="52.718" r=".679"/><circle cx="25.156" cy="55.405" r=".679"/><circle cx="46.844" cy="17.595" r=".679"/><circle cx="49.531" cy="20.282" r=".679"/><circle cx="52.218" cy="22.969" r=".679"/><circle cx="54.905" cy="25.656" r=".679"/><circle cx="43.965" cy="20.474" r=".679"/><circle cx="46.652" cy="23.161" r=".679"/><circle cx="49.339" cy="25.848" r=".679"/><circle cx="52.026" cy="28.535" r=".679"/></g></svg>