<svg xmlns="http://www.w3.org/2000/svg" role="img" viewBox="26.14 3.89 21.96 64.09"><title>1FA7C.svg</title><g fill="#61b2e4"><path d="M37.8086 65.8265c0-2.3872-1.0786-4.3224-2.4092-4.3224s-2.4092 1.9352-2.4092 4.3224h4.8184zM46.31 26.29c-.52.18-1.09-.1-1.27-.63l-.27-.81-6.88 2.38-1.89.66-.65-1.89-5.5699-16.11c-.1801-.52.1-1.09.62-1.27.52-.18 1.09.1 1.27.62l5.57 16.1 7.83-2.71c.25-.09.53-.07.77.05.24.12.42.32.5099.58l.59 1.77c.18.52-.1 1.09-.63 1.2599z"/><path d="M28.44765 8.93217l7.39912-2.5509c1.97493-.68087 4.131.36977 4.81184 2.3446.68087 1.97493-.36977 4.131-2.3446 4.81184l-7.39913 2.5509-2.46723-7.15644z"/></g><g fill="none" stroke="#000" stroke-width="2"><path stroke-miterlimit="10" d="M35.399 29.098v32.406"/><path stroke-linecap="round" stroke-linejoin="round" d="M37.8086 65.8265c0-2.3872-1.0786-4.3224-2.4092-4.3224s-2.4092 1.9352-2.4092 4.3224h4.8184z"/><path stroke-linecap="round" stroke-linejoin="round" d="M28.44765 8.93217l7.39912-2.5509c1.97493-.68087 4.131.36977 4.81184 2.3446h0c.68087 1.97493-.36977 4.131-2.3446 4.81184l-7.39913 2.5509-2.46723-7.15644h0z"/><path stroke-linecap="round" stroke-linejoin="round" d="M45.993 25.44L35.41 29.098 28.448 8.954"/></g></svg>