<svg xmlns="http://www.w3.org/2000/svg" role="img" viewBox="8.93 8.30 55.77 52.65"><title>1FA80.svg</title><path fill="#8967aa" d="M18.9173 32.8733a13.3293 13.3293 0 1 1 17.706 19.2585"/><circle cx="24.328" cy="45.662" r="13.328" fill="#b399c8"/><path fill="#fcea2b" d="M24.969 54.8l-3.234-4.978-5.934-.157 3.734-4.614-1.684-5.692 5.542 2.126 4.893-3.361-.309 5.928 4.708 3.615-5.733 1.538-1.983 5.595z"/><g fill="none" stroke="#000" stroke-linecap="round" stroke-linejoin="round"><path stroke-width="2" d="M24.969 54.8l-3.234-4.978-5.934-.157 3.734-4.614-1.684-5.692 5.542 2.126 4.893-3.361-.309 5.928 4.708 3.615-5.733 1.538-1.983 5.595z"/><circle cx="24.328" cy="45.662" r="13.328" stroke-width="2"/><path stroke-width="2" d="M18.9173 32.8733a13.3293 13.3293 0 1 1 17.706 19.2585m16.9706-39.3364c1.2762 3.059 5.5809 2.7469 5.5809 2.7469a3.1806 3.1806 0 0 0 3.5015-3.1043 4.1684 4.1684 0 0 0-4.4128-1.9115s-10.0687.39-12.2819 13.4416c-1.5124 8.9187-4.5094 9.7773-8.8623 9.3163-1.6194-.1716-2.9128-.9946-5.7844-2.2653a9.93 9.93 0 0 0-2.5408-.724s-3.3942-.2966-4.4659.4574"/><path stroke-width=".5" d="M16.57 35.0107a13.3293 13.3293 0 1 1 17.7056 19.2585M15.8011 35.5411A13.3293 13.3293 0 1 1 33.5071 54.8M15.0074 36.3346a13.3293 13.3293 0 1 1 17.7061 19.2585"/></g></svg>