<svg xmlns="http://www.w3.org/2000/svg" role="img" viewBox="10.29 6.41 51.30 56.55"><title>1FA85.svg</title><rect width="8.232" height="4.958" x="24.8" y="56" fill="#8967aa" rx="2.02"/><rect width="8.232" height="4.958" x="40.466" y="56" fill="#8967aa" rx="2.02"/><path fill="#f1b31c" d="M25.309 58.031h7.428l.596-8.109h-8.858l.834 8.109zm22.749 0h-6.704l-1.716-7.927h9.156l-.736 7.927z"/><path fill="#b1cc33" d="M24.52 53.271h8.593l.839-3.167h5.686l.84 3.167h8.143l1.06-10.039h-25.9l.739 10.039z"/><path fill="#e67a94" d="M49.344 46.692h-8.1l-1.864-3.036-1.563 2.032h-2.419l-1.507-2.032-1.781 2.032h-1.915l-1.745-2.032-1.564 3.036h-2.62l-1.564-8.887h27.426l-.784 8.887z"/><path fill="#fcea2b" d="M49.713 37.805l.15 2.998-3.846.031-1.745-3.029-1.564 2.031h-2.362l-1.745-2.031-1.563 2.031H34.62l-1.508-2.031-1.808 3.057h-7.728l-1.342-3.456-8.081-1.646-1.673-2.802v-2.817h21.043v2.09l2.533 1.753 10.553.25 3.104 3.571z"/><path fill="#61b2e4" d="M33.523 31.045l.813 3.404h-4.31l-1.833-3.064-1.563 2.031h-2.419l-1.507-2.031-1.781 2.031h-1.915l-1.745-2.031-1.728 3.064h-2.394l-.325-6.152 5.285-3.897 13.792.426 1.63 6.219z"/><path fill="#ea5a47" d="M32.661 27.269l.483 1.005h-7.653l-1.616-3.037-1.77 3.037h-8.964l10.116-7.226.253-3.646h6.559l.4 4.208 2.192 5.659z"/><path fill="#f1b31c" d="M30.469 21.121h-1.134l-1.508-2.031-1.781 3.034h-4.295l1.848-1.622.26-8.114h5.316l1.294 8.733z"/><path fill="#fcea2b" d="M29.735 14.974h-6.16l.914-4.853 1.832-1.873 2.068 2.013 1.346 4.713z"/><g fill="none" stroke="#000" stroke-linecap="round" stroke-linejoin="round" stroke-width="2"><path d="M33.0447 28.718a50.9486 50.9486 0 0 0-2.6571-7.7831.7613.7613 0 0 1-.065-.2757c-.058-1.3759-.6253-12.2818-4.0433-12.1226-3.23.15-2.8123 9.65-2.6741 11.8245a.758.758 0 0 1-.3477.6864l-9.3459 6.0771a2.9579 2.9579 0 0 0-1.4316 2.5338v2.9936a3.7251 3.7251 0 0 0 3.217 3.69l5.7258.7884c2.1713.21 2.3663 3.5306 2.3676 6.1408 0 .0184.0007.0363.0022.0546l1.255 15.78A1.8525 1.8525 0 0 0 26.9 60.9583h4.0044a1.8524 1.8524 0 0 0 1.8524-1.8525l.4347-8.3377a.7672.7672 0 0 1 .76-.6641h5.6861a.7672.7672 0 0 1 .7584.6513l.6069 8.3505a1.8525 1.8525 0 0 0 1.8525 1.8525h3.2322a1.8525 1.8525 0 0 0 1.8524-1.8525l2.1836-19.9222a4.97 4.97 0 0 0-4.9117-5.1686l-9.63-.1064a1.9555 1.9555 0 0 1-1.9019-1.7567 28.4052 28.4052 0 0 0-.6348-3.4339"/><path d="M30.469 21.121h-1.134l-1.508-2.031-1.781 2.031m1.754 6.148h-2.418l-1.507-2.032-1.781 2.032h-1.915M15.7 33.416l1.563-2.031 1.745 2.031h1.915l1.781-2.031 1.507 2.031h2.419l1.563-2.031 1.745 2.031m1.393 6.42l1.781-2.031 1.508 2.031h2.418l1.563-2.031 1.745 2.031h2.362l1.564-2.031 1.745 2.031m-19.131 5.852l1.564-2.032 1.745 2.032h1.915l1.781-2.032 1.507 2.032h2.419l1.563-2.032 1.745 2.032m18.3994-1.1221a10.0043 10.0043 0 0 1-6.75-9.46m6.7501 15.3117a10.0171 10.0171 0 0 1-6.5469-7.4447"/></g></svg>