<svg xmlns="http://www.w3.org/2000/svg" role="img" viewBox="13.99 5.24 47.65 52.65"><title>1FA84.svg</title><path fill="#fff" d="M46.684 24.074l6.956-6.928 1.168 1.25-6.819 6.738-1.305-1.06zM16.617 54.208l6.955-6.928 1.168 1.249-6.819 6.739-1.304-1.06z"/><path fill="#3f3f3f" d="M46.423 23.785l1.553 1.618L25.435 48.36l-1.727-1.575 22.715-23z"/><circle cx="47.575" cy="10.958" r="2" fill="#fcea2b"/><circle cx="56" cy="28.31" r="2" fill="#fcea2b"/><g fill="none" stroke="#000" stroke-miterlimit="10" stroke-width="2"><rect width="53.525" height="3.385" x="9.193" y="34.347" rx=".44" ry=".44" transform="rotate(-45.07 35.956 36.04)"/><path d="M45.881 24.448l1.754 1.637M23.441 46.194l2.397 2.39"/><path stroke-linecap="round" d="M47.575 8.958V7.293m0 7.331v-1.666m-2-2H43.91m7.33 0h-1.665M56 26.31v-1.665m0 7.331V30.31m-2-2h-1.665m7.33 0H58"/></g></svg>