<svg xmlns="http://www.w3.org/2000/svg" role="img" viewBox="13.71 5.59 44.33 60.45"><title>1FA86.svg</title><path fill="#d22f27" d="M53.36 39.58a15.6 15.6 0 0 0-.6-1.661c-.6888-1.623-1.416-3.154-2.16-4.551a7.693 7.693 0 0 1-1.009-4.783q.1512-1.134.2949-2.27c.1609-1.251.3218-2.503.4974-3.752a13.85 13.85 0 0 0-7.318-14.2 16.91 16.91 0 0 0-8.934-1.371 13.43 13.43 0 0 0-12.6 14.28c.07 1.358.2681 2.711.4586 4.019.1091.747.2182 1.494.3042 2.242l.0138.123a7.932 7.932 0 0 1-.2394 4.196c-.6269 1.399-1.306 2.746-1.885 3.879a20.83 20.83 0 0 0-1.553 3.856.9467.9467 0 0 0 .8784 1.204c1.286.0453 12.68.3329 16.27-3.138a4.397 4.397 0 0 0 .3319-.3559c.074.0813.1535.1627.2376.2441 1.595 1.541 5.28 3.292 13.78 3.292q1.12 0 2.355-.0425a.9468.9468 0 0 0 .8755-1.215z"/><path fill="#92d3f5" d="M56.95 43.31a1 1 0 0 0-.9961-.917l-39.9.0039a.9994.9994 0 0 0-.9961.9141 15.12 15.12 0 0 0 .5811 5.664c.9531 3.176 2.018 6.368 3.049 9.455.6533 1.957 1.307 3.914 1.936 5.879a1 1 0 0 0 .9522.6943h.0038l28.83-.1015a1 1 0 0 0 .9434-.68l.5966-1.764c1.478-4.366 3.005-8.881 4.375-13.37a15.35 15.35 0 0 0 .6222-5.778zm-32.8.0864h22v2.83a11 11 0 0 1-22 0zm26.26 20.5l-28.83.1015-1.54-4.904h32z"/><circle cx="36" cy="21.75" r="10" fill="#ffa7c0"/><path fill="#61b2e4" d="M21.58 64l-1.54-4.9h32l-1.64 4.8-28.82.1"/><path d="M26 22.68s10-.93 9.996-8.328c0 0 .7634 7.818 9.979 8.096 0 0 .9722-10.7-9.976-10.7-11.35 0-10 10.93-10 10.93z"/><path fill="#fff" stroke="#fff" stroke-linejoin="round" stroke-width="2" d="M19.54 41.85l-1.107 1.549h6.769v3.85l3.761 6.756 7.652 2.096 6.659-4.01 1.834-4.941.0005-3.854 8.378-.0005-1.032-1.445c-6.67-.1353-13.61.03025-16.34-4.548-1.645 3.968-10.53 4.594-16.57 4.548z"/><g><path fill="none" stroke="#000" stroke-linecap="round" stroke-linejoin="round" stroke-width="2" d="M48.7 39.87C36 39.5607 36 35.053 36 35.053c0 3.742-8.025 4.595-12.87 4.769m-3.59.0237a20.18 20.18 0 0 1 1.484-3.682c.6633-1.294 1.313-2.597 1.907-3.924a8.948 8.948 0 0 0 .3018-4.814c-.2359-2.07-.65-4.128-.7566-6.203a12.46 12.46 0 0 1 11.73-13.29 16.13 16.13 0 0 1 8.449 1.28 12.94 12.94 0 0 1 6.791 13.21c-.2826 2.007-.5261 4.02-.7929 6.029a8.69 8.69 0 0 0 1.112 5.352c.7755 1.456 1.479 2.957 2.124 4.476a14.78 14.78 0 0 1 .5636 1.561M55.95 43.39a14.31 14.31 0 0 1-.5829 5.404c-1.545 5.068-3.266 10.08-4.962 15.11l-28.83.1014c-1.638-5.112-3.436-10.17-4.979-15.31a14.04 14.04 0 0 1-.5432-5.291z"/><circle cx="36" cy="21.75" r="10" fill="none" stroke="#000" stroke-linecap="round" stroke-linejoin="round" stroke-width="2"/><path fill="none" stroke="#000" stroke-linecap="round" stroke-linejoin="round" stroke-width="2" d="M23.76 60.11h24.48m-3.13-12.96a10 10 0 0 1-19.91.1M46 21.75a10.11 10.11 0 0 1-10.07-9.999h0a10.17 10.17 0 0 1-9.934 9.997"/><circle cx="32.83" cy="23.61" r="2"/><circle cx="38.98" cy="23.61" r="2"/></g></svg>