<svg xmlns="http://www.w3.org/2000/svg" role="img" viewBox="8.12 12.37 52.39 45.14"><title>1FA83.svg</title><path fill="#a57939" d="M56.2572 56.5079a3.6438 3.6438 0 0 1-1.8248-.12 4.12 4.12 0 0 1-2.537-2.5472c-.1745-.4688-.8453-2.3951-1.7366-4.9545-2.0524-5.8964-5.8741-16.8724-6.4614-18.0656a7.6229 7.6229 0 0 0-7.3731-4.3817c-5.2377-.0228-20.3535.0763-22.8461.1041a4.2774 4.2774 0 0 1-3.3968-1.4521 3.8181 3.8181 0 0 1-.7478-3.2645 4.1547 4.1547 0 0 1 .3579-.9635c.0462-.0968.0925-.1935.1336-.2913l.0955-.1776a4.2413 4.2413 0 0 1 2.9806-1.72c1.904-.3271 4.4137-.7626 7.1784-1.2426 12.1-2.1007 22.2222-3.8469 23.5236-3.9344a10.0771 10.0771 0 0 1 10.7184 8.48c1.42 8.1167 4.853 28.01 5.1405 29.7239a3.9712 3.9712 0 0 1-1.7366 4.2 4.0343 4.0343 0 0 1-1.4683.607z"/><path fill="#fcea2b" d="M18.108 25.507l-2.684-5.736 4.075-.729 2.883 6.163-4.274.302z"/><path fill="#d22f27" d="M24.964 26.476l-3.532-7.599 4.08-.718 3.853 8.288-4.401.029z"/><path fill="#fcea2b" d="M51.167 50.764l6.232 1.128-.337-4.125-6.695-1.212.8 4.209z"/><path fill="#d22f27" d="M48.589 44.382l8.139 1.473-.349-4.127-9.311-1.685 1.521 4.339z"/><g fill="none" stroke="#000" stroke-width="2"><path stroke-linecap="round" stroke-miterlimit="10" d="M48.4022 40.8228c-1.7382-4.9513-3.41-9.6347-3.8074-10.4437a8.6038 8.6038 0 0 0-8.2664-4.94c-1.7794-.0078-4.6533-.0018-7.78.0107"/><path stroke-miterlimit="10" d="M25.6211 25.4632c-5.4429.0268-10.8706.0656-12.1543.08-2.1544.0241-3.5618-1.5206-3.1534-3.5158a6.14 6.14 0 0 1 .4354-1.0723 3.2263 3.2263 0 0 1 2.322-1.2948c8.4613-1.4536 28.8507-5.0473 30.5994-5.1652a9.0219 9.0219 0 0 1 9.6663 7.654c1.4457 8.2642 4.8648 28.0768 5.1394 29.7168a2.986 2.986 0 0 1-1.301 3.2 2.85 2.85 0 0 1-4.3429-1.5744c-.2771-.7445-1.8107-5.18-3.4878-9.9791"/><path stroke-linecap="round" stroke-linejoin="round" d="M19.203 25.5l-1.611-3.444m8.029 3.418L24.01 22.03m27.523 27.8l3.743.666m-5.929-6.984l3.744.666"/></g></svg>