<svg xmlns="http://www.w3.org/2000/svg" role="img" viewBox="4.05 15.30 62.53 42.78"><title>1FA94.svg</title><path fill="#a57939" d="M6.5 34.5s4 2.5 4.35 4.1815C12.2991 43.0449 17.7225 56 37.6875 56 61.0625 56 64.5 35.5 64.5 35.5H11z"/><path fill="#6a462f" d="M50.21 37.0055S49.5 51.5 44.5 54.5s18-2 20-19z"/><path fill="#ea5a47" d="M5.8906 30s0-11.2658 1.6094-12.8752S9.1094 30 9.1094 30z"/><path fill="#f1b31c" d="M6.6953 30.5s0-5.6329.8047-6.4376.8047 6.4376.8047 6.4376z"/><path fill="#fcea2b" d="M7.1286 30s0-1.6.3714-1.9712S7.8714 30 7.8714 30z"/><g fill="none" stroke="#000" stroke-linecap="round" stroke-linejoin="round"><path stroke-width="2" d="M6.5 34.5s4 2.5 4.35 4.1815C12.2991 43.0449 17.7225 56 37.6875 56 61.0625 56 64.5 35.5 64.5 35.5s-20.85 1.01-27.8063 1C30.2654 36.4905 11 35.5 11 35.5z"/><path d="M7.5 34.5V32m-1.6713-1.5s0-11.6991 1.6713-13.37S9.1713 30.5 9.1713 30.5z"/></g></svg>