<svg xmlns="http://www.w3.org/2000/svg" role="img" viewBox="18.08 8.83 36.21 54.21"><title>1FA9C.svg</title><path fill="#fff" d="M37.759 20.229h6.093l-1.649 4.372h-5.232l.788-4.372zm-3.225 11.97l5.662-.143-1.863 4.444-5.018-.358 1.219-3.943zM30.95 44.456l4.802-.071-1.433 3.225-4.158-.072.789-3.082z"/><path fill="#6a462f" d="M22.2648 62.0342h-2.0576c-.5942-.0001-1.0758-.4819-1.0757-1.0761 0-.1124.0177-.2241.0523-.3311l16.164-49.94c.1433-.4441.5568-.7451 1.0235-.7451H38.43c.5942 0 1.0758.4818 1.0758 1.076 0 .1124-.0177.2242-.0523.3312l-16.1653 49.94c-.1433.4441-.5567.7452-1.0234.7451z"/><path fill="#a57939" d="M36.09 62.0342h-2.0576c-.5942-.0001-1.0758-.4819-1.0757-1.0761 0-.1124.0177-.2241.0523-.3311l16.1641-49.94c.1433-.4441.5567-.7452 1.0234-.7451h2.0586c.5942.0001 1.0758.4819 1.0757 1.0761 0 .1124-.0177.2241-.0523.3311l-16.165 49.94c-.1433.4442-.5568.7452-1.0235.7451z"/><path fill="#a57939" d="M47.9377 18.6777H34.12c-.5523 0-1-.4478-.9999-1.0001 0-.1214.0221-.2418.0653-.3553l.6387-1.6778c.1476-.3881.5197-.6446.9349-.6445h13.8173c.5523 0 1 .4478.9999 1.0001a.9989.9989 0 0 1-.0653.3554l-.6387 1.6777c-.1476.388-.5194.6444-.9345.6445zm-3.8018 11.6389H30.3185c-.5523 0-.9999-.4479-.9998-1.0002 0-.1214.0222-.2418.0653-.3553l.6386-1.6777c.1475-.388.5195-.6446.9346-.6446h13.8174c.5523 0 1 .4478.9999 1.0001a.9989.9989 0 0 1-.0653.3554l-.6387 1.6777c-.1475.388-.5195.6446-.9346.6446zM40.4338 42H26.6164c-.5523 0-1-.4478-.9999-1.0001a.9989.9989 0 0 1 .0653-.3554l.6387-1.6777c.1475-.388.5195-.6446.9346-.6446h13.8174c.5523 0 .9999.4479.9998 1.0002 0 .1214-.0222.2418-.0653.3553l-.6386 1.6778c-.1477.3879-.5195.6443-.9346.6445zm-3.7853 11.6528H22.8311c-.5523 0-.9999-.4479-.9998-1.0002 0-.1214.0222-.2418.0653-.3553l.6386-1.6777c.1475-.388.5195-.6446.9346-.6446h13.8174c.5523 0 1 .4478.9999 1.0001a.9989.9989 0 0 1-.0653.3554l-.6387 1.6777c-.1475.388-.5195.6446-.9346.6446z"/><g fill="none" stroke="#000" stroke-linecap="round" stroke-linejoin="round" stroke-width="2"><path d="M20.207 60.958l16.164-49.94m-2.347 49.94l16.165-49.94M34.759 16h13.817M30.985 27.658h13.818m-7.547 23.316H23.439m3.773-11.658h13.817"/></g></svg>