<svg xmlns="http://www.w3.org/2000/svg" role="img" viewBox="3.50 20.88 64.87 31.50"><title>1FAAB.svg</title><path fill="#d0cfce" d="M60.8136 42.8021a1.0384 1.0384 0 0 1 1.0343-1.0421h4.285v-9.5731h-4.285a1.0383 1.0383 0 0 1-1.0343-1.0424m0 0v-7.4629H5.6769v26.0746h55.1367v-6.9541"/><path fill="#d22f27" d="M11.501 45.784h9.119V27.7714h-9.119z"/><g fill="none" stroke="#000" stroke-linecap="round" stroke-linejoin="round" stroke-width="2"><path d="M61.081 31.3475v-7.159a1 1 0 0 0-1-1H6.772a1 1 0 0 0-1 1v25.016a1 1 0 0 0 1 1h53.313a1 1 0 0 0 1-1v-6.674h5.143v-11.183z"/><path d="M11 27.36h10.121v19.007H11z"/></g></svg>