<svg xmlns="http://www.w3.org/2000/svg" role="img" viewBox="8.83 9.83 54.21 52.21"><title>1FAA6.svg</title><path d="M54.84015 51.27165L54.0596 59.881l-4.4969-4.3105 2.9591 4.3105h5.1027l3.25035-7.1065-4.55515 7.1065zm-37.6761.01165l.78055 8.60935 4.50855-4.29885-2.97075 4.29885h-5.1027l-3.25035-7.1065 4.5668 7.1065z" fill="none" stroke="#000" stroke-linejoin="round" stroke-width="2.33"/><path fill="#9b9b9a" d="M55.21 59.88H16.79a1.164 1.164 0 0 1-1.165-1.165v-27.39a20.38 20.38 0 0 1 40.75 0v27.39a1.165 1.165 0 0 1-1.165 1.165z"/><path fill="#3f3f3f" d="M36 10.95a20.37 20.37 0 0 0-3.935.3893 20.4 20.4 0 0 1 16.44 19.99v28.55h6.706a1.165 1.165 0 0 0 1.165-1.165v-27.39a20.4 20.4 0 0 0-20.38-20.38z"/><path fill="#5c9e31" d="M56.31 61.04h-3.787a1.167 1.167 0 0 1-.9591-.5028l-2.971-4.301a1.165 1.165 0 0 1 1.763-1.505l2.759 2.635.5642-6.2a1.165 1.165 0 0 1 1.115-1.058 1.142 1.142 0 0 1 1.193.968l.9647 5.641 2.936-4.574a1.165 1.165 0 0 1 2.04 1.114l-3.254 7.103a1.165 1.165 0 0 1-1.059.6802h-1.305zm-40.62.01h-1.305a1.165 1.165 0 0 1-1.059-.6803l-3.253-7.103a1.165 1.165 0 0 1 2.04-1.114l2.936 4.576.9648-5.644a1.165 1.165 0 0 1 2.308.09098l.5643 6.2 2.758-2.634a1.165 1.165 0 0 1 1.763 1.504l-2.971 4.301a1.167 1.167 0 0 1-.959.5028h-1.524a.036.036 0 0 0-.01596 0z"/><g fill="none" stroke="#000" stroke-linecap="round" stroke-linejoin="round" stroke-width="2.33"><path d="M16.79 47.51V31.32A19.21 19.21 0 0 1 36 12.11v0a19.21 19.21 0 0 1 19.21 19.21v16.19M25.99 30.35h20.02m-20.02 5.22h20.02m-15.26 8.82h10.5"/></g></svg>