<svg xmlns="http://www.w3.org/2000/svg" role="img" viewBox="13.81 6.81 44.12 55.12"><title>1FAA3.svg</title><path fill="#92d3f5" d="M44.01 60.96H27.44c-1.9631-.0096-3.6058-1.4922-3.816-3.444l-2.695-23.7h29.83l-2.936 23.74c-.2307 1.9334-1.864 3.393-3.811 3.406l-.002-.002z"/><path fill="#61b2e4" d="M45.04 33.81l-2.937 23.74c-.2307 1.9334-1.864 3.393-3.811 3.406h5.716c1.947-.013 3.5803-1.4726 3.811-3.406l2.936-23.74H45.04z"/><path fill="#61b2e4" d="M50.97 35.87H20.95c-1.1976-.0088-2.1621-.9854-2.156-2.183v-.7919c-.015-3.0095 2.4085-5.4634 5.418-5.486h23.5c3.0095.0226 5.433 2.4765 5.418 5.486v.7919c.0061 1.1972-.9578 2.1736-2.155 2.183h-.005z"/><path fill="#fff" d="M40.73 8.888v5.155h-9.552V8.888h9.552z"/><g fill="none" stroke="#000" stroke-linecap="round" stroke-linejoin="round" stroke-width="2"><path d="M49.18 38.23l-2.374 19.19c-.1677 1.4225-1.3697 2.4967-2.802 2.504h-16.57c-1.443-.0075-2.6503-1.0973-2.805-2.532l-2.179-19.17m28.52-3.382c.6324-.0038 1.1419-.5196 1.138-1.152v-.7936c.0155-2.4455-1.9544-4.4405-4.3998-4.456H24.208c-2.4455.0154-4.4154 2.0104-4.4 4.4558v.7928c-.0039.6324.5056 1.1481 1.138 1.152h0l30.024.001zM31.178 8.887h9.552v5.155h-9.552zm9.532 2.653C49.8349 14.0098 56.1274 22.3476 56 31.8M31.18 11.57C22.1097 14.0787 15.8731 22.39 16 31.8m.008.023h1.084m37.825.074h1.085"/></g></svg>