<svg xmlns="http://www.w3.org/2000/svg" role="img" viewBox="10.27 10.27 51.22 51.22"><title>1FAAF.svg</title><path fill="#b399c8" d="M11.896 12.336h47.236v47.236H11.896z"/><g fill="none" stroke="#000" stroke-width="1.968"><path stroke-linecap="round" stroke-linejoin="round" d="M12.29 12.336h47.236v47.236H12.29zm23.618 42.611V45.106"/><path stroke-linecap="round" stroke-linejoin="round" d="M40.4343 46.2866c.5904 1.1809 2.2634 4.5268 2.9522 5.9045 4.5268-3.8379 9.5456-9.152 9.5456-14.1708s-2.2634-9.644-5.8061-12.5962c1.5745 2.165 2.3618 4.7236 2.3618 7.5774v.3936c-.2952 4.1331-4.5268 8.7583-8.2663 11.9074-.2952.2952-.5904.492-.7873.6889l-4.0347 3.1491-.1968.1968-4.0347 3.2475"/><path stroke-linejoin="round" d="M38.171 30.2461c-.0984 3.7395 0 6.6918.3936 9.644.0984.492.0984.8857.1968 1.3777.0984.6889.1968 1.3777.2952 1.9682-1.8698 1.2793-3.0507 2.0666-3.0507 2.0666s-1.1809-.7873-2.8538-2.0666c.0984-.6889.1968-1.3777.2952-1.9682.0984-.3936.0984-.8857.1968-1.2793.2952-2.8538.492-5.9045.3936-9.644-.0984-3.4443-.3936-5.2156-.7873-7.2822-.0984-.2952-.0984-.6889-.1968-.9841-.1968-.6889-.2952-1.3777-.492-2.165l3.5427-2.3618 3.5427 2.3618c-.1968.7873-.3936 1.5745-.492 2.165-.0984.3936-.1968.6889-.1968.9841-.492 1.8698-.6889 3.7395-.7873 7.1838z"/><path stroke-linecap="round" stroke-miterlimit="10" d="M33.9394 30.2461c.0984 3.7395 0 6.7902-.3936 9.644-3.7395-1.0825-6.4949-4.4284-6.4949-8.5615 0-3.9363 2.5586-7.1838 6.0029-8.3647.492 1.9682.7873 3.8379.8857 7.2822zm10.9233 1.0825c0 4.0347-2.657 7.3806-6.2981 8.4631-.2952-2.8538-.492-5.9045-.3936-9.644.0984-3.4443.3936-5.314.7873-7.1838 3.4443 1.2793 5.9045 4.5268 5.9045 8.3647z"/><path stroke-linecap="round" stroke-linejoin="round" d="M39.6471 52.388l-4.0347-3.2475-.1968-.1968-4.0347-3.1491c-.2952-.1968-.5904-.3936-.7873-.6889-3.6411-3.1491-7.9711-7.7742-8.2663-11.9074v-.3936c0-2.8538.7873-5.4125 2.3618-7.5774-3.4443 3.0507-5.8061 7.5774-5.8061 12.5962s5.0188 10.3329 9.5456 14.1708c.6889-1.3777 2.3618-4.6252 2.9522-5.9045"/></g></svg>