<svg xmlns="http://www.w3.org/2000/svg" role="img" viewBox="2.72 14.72 66.43 42.43"><title>1FAAA.svg</title><path d="M9.915 22.002h16.698m8.248 0h27.171m-27.098 7.554h19.174m-19.174 3.998h19.174m-19.174 3.998h19.174" fill="none" stroke="#000" stroke-linecap="round" stroke-linejoin="round" stroke-width="2"/><rect width="62" height="38" x="5" y="17" fill="#d0cfce" rx="3.508"/><path fill="#fff" stroke="#fff" stroke-linecap="round" stroke-linejoin="round" stroke-width="2" d="M10 29.544h16.528v19.462H10z"/><path fill="#fcea2b" d="M26.6131 51l-1.1526-4.5626a4.3 4.3 0 0 0-4.209-4.1314h-6a4.3 4.3 0 0 0-4.209 4.1314L9.9148 51z"/><circle cx="18.331" cy="34.8" r="3" fill="#fcea2b"/><g fill="none" stroke="#000" stroke-width="2"><path stroke-linecap="round" stroke-linejoin="round" d="M34.474 50.0058l4.706-7.1323 1.255 6.2152 3.1695-4.1457.77 3.4347c4.7928-2.6426 9.5335 1.4738 13.2683.1157"/><rect width="62" height="38" x="5" y="17" stroke-linecap="round" stroke-linejoin="round" rx="3.508"/><circle cx="18.331" cy="34.8" r="3" stroke-miterlimit="10"/><path stroke-linecap="round" stroke-linejoin="round" d="M26.6131 50.0058l-.1776-3.2675a5.274 5.274 0 0 0-5.2075-5H15.3a5.274 5.274 0 0 0-5.208 5l-.1776 3.2674"/></g><g fill="none" stroke="#9b9b9a" stroke-linecap="round" stroke-linejoin="round" stroke-width="2"><path d="M9.915 22.002h16.698m8.248 0h27.171m-27.098 7.554h19.174m-19.174 3.998h19.174m-19.174 3.998h19.174"/></g></svg>