<svg xmlns="http://www.w3.org/2000/svg" role="img" viewBox="13.90 7.40 44.07 57.07"><title>1FAAC.svg</title><path fill="#fcea2b" d="M48.0056 34.1314l-.0008 5.0108.0038-23.6357c.0006-3.7005-7.4368-4.0258-7.6548.3919-.0032.0655-.0374 18.5258-.0374 18.5934v-20c0-3.7329-2.29-4.8444-4.1235-4.9836h-.3859c-1.8333.1392-4.1238 1.2507-4.1234 4.9836v20c0-.0676-.0342-18.5279-.0374-18.5934-.218-4.4177-7.6554-4.0924-7.6548-.3919l.0038 23.6357-.0008-5.0108c-1.3859-2.9117-5.4041-5.9646-7.9155-3.7363a73.2708 73.2708 0 0 0 2.0768 18.0967C21.473 57.32 25.8632 62.2879 35.6293 62.474v.0178c.0973 0 .1857-.008.282-.0089.0962.0009.1845.0089.2817.0089v-.0177c9.7729-.186 14.3341-5.1542 17.6514-13.9823a74.5043 74.5043 0 0 0 2.0768-18.0967c-2.5112-2.2283-6.5297.8249-7.9156 3.7363z"/><path fill="#fff" d="M36.1257 40.9548c6.1218 0 11.0845 6.505 11.0845 6.505s-4.9627 6.505-11.0845 6.505S25.0412 47.46 25.0412 47.46s4.9627-6.5052 11.0845-6.5052z"/><circle cx="36.205" cy="47.31" r="5.845" fill="#61b2e4"/><g><path fill="none" stroke="#000" stroke-linecap="round" stroke-linejoin="round" stroke-width="2" d="M48.0056 34.1314l-.0008 5.0108.0038-23.6357c.0006-3.7005-7.4368-4.0258-7.6548.3919-.0032.0655-.0374 18.5258-.0374 18.5934v-20c0-3.7329-2.29-4.8444-4.1235-4.9836h-.3859c-1.8333.1392-4.1238 1.2507-4.1234 4.9836v20c0-.0676-.0342-18.5279-.0374-18.5934-.218-4.4177-7.6554-4.0924-7.6548-.3919l.0038 23.6357-.0008-5.0108c-1.3859-2.9117-5.4041-5.9646-7.9155-3.7363a73.2708 73.2708 0 0 0 2.0768 18.0967C21.473 57.32 25.8632 62.2879 35.6293 62.474v.0178c.0973 0 .1857-.008.282-.0089.0962.0009.1845.0089.2817.0089v-.0177c9.7729-.186 14.3341-5.1542 17.6514-13.9823a74.5043 74.5043 0 0 0 2.0768-18.0967c-2.5112-2.2283-6.5297.8249-7.9156 3.7363z"/><path fill="none" stroke="#000" stroke-linecap="round" stroke-linejoin="round" stroke-width="1.998" d="M36.1257 40.4278c6.6178 0 11.9826 7.032 11.9826 7.032s-5.3648 7.032-11.9826 7.032S24.1431 47.46 24.1431 47.46s5.3648-7.0322 11.9826-7.0322z"/><circle cx="36.205" cy="47.31" r="2.688"/><circle cx="36.205" cy="47.31" r="5.845" fill="none" stroke="#000" stroke-linecap="round" stroke-linejoin="round" stroke-width="1.998"/></g></svg>