<svg xmlns="http://www.w3.org/2000/svg" role="img" viewBox="9.48 17.36 52.91 39.78"><title>1FAB9.svg</title><path fill="#a57939" d="M11.5905 31.688c0-6.7958 10.9285-12.3048 24.41-12.3048s24.41 5.509 24.41 12.3048v1.0556c0 5.6918-2.0093 12.49-5.0625 16.3445C52.2593 52.9859 45.7545 55.242 36 55.242s-15.8538-1.8262-19.347-6.1539c-3.0884-3.8263-5.0625-9.6808-5.0625-16.3445z"/><path fill="#6a462f" d="M56.616 47.215c0 2.1079-7.3333 8.027-17.6307 8.027S20.34 53.5331 20.34 51.4252s7.4581.6442 19.3909-1.3738c10.1535-1.7171 16.8851-4.9443 16.8851-2.8364z"/><ellipse cx="36" cy="33.754" fill="#6a462f" rx="17.341" ry="7.084"/><g><path fill="none" stroke="#000" stroke-linecap="round" stroke-linejoin="round" stroke-width="2" d="M23.1564 36.8075c0-1.6922 5.7726-4.0639 12.8436-4.0639 7.0163 0 12.8436 2.3717 12.8436 4.0639"/><path fill="none" stroke="#000" stroke-linecap="round" stroke-linejoin="round" stroke-width="2" d="M52.3244 33.688c0 3.8911-7.3087 7.0454-16.3244 7.0454s-16.3244-3.1543-16.3244-7.0454m33.6259 8.8407c-1.5841 2.241-5.687 4.008-10.885 4.6863M36 24.6426a28.5707 28.5707 0 0 1 12.4738 2.5"/><path fill="none" stroke="#000" stroke-linecap="round" stroke-linejoin="round" stroke-width="2" d="M11.5905 31.688c0-6.7958 10.9285-12.3048 24.41-12.3048s24.41 5.509 24.41 12.3048v1.0556c0 5.6918-2.0093 12.49-5.0625 16.3445C52.2593 52.9859 45.7545 55.242 36 55.242s-15.8538-1.8262-19.347-6.1539c-3.0884-3.8263-5.0625-9.6808-5.0625-16.3445z"/><ellipse cx="36.188" cy="36.923" rx="13.031" ry="4.179"/></g></svg>