<svg xmlns="http://www.w3.org/2000/svg" role="img" viewBox="14.09 14.34 43.58 47.45"><title>1FABB.svg</title><circle cx="42.955" cy="36.24" r="4.658" fill="#8967aa"/><circle cx="37.121" cy="31.119" r="4.658" fill="#b399c8"/><circle cx="51.149" cy="26.905" r="4.658" fill="#8967aa"/><circle cx="45.315" cy="21.784" r="4.658" fill="#b399c8"/><circle cx="50.794" cy="20.396" r="4.076" fill="#b399c8"/><g><circle cx="47.052" cy="31.573" r="6.21" fill="#b399c8"/><path fill="#8967aa" d="M36.083 22.9575c.1417-.2076.2975-.4089.4675-.6026 2.2626-2.5778 6.1865-2.8333 8.7642-.5707 2.5778 2.2626 2.8333 6.1865.5707 8.7642s-6.1865 2.8333-8.7642.5707c-2.3841-2.0926-2.7817-5.6061-1.0381-8.1616"/></g><circle cx="42.853" cy="31.502" r="4.076" fill="#8967aa"/><path fill="#b1cc33" d="M24.3025 37.0053c2.7895 3.4142 1.96 8.708 1.96 8.708s-5.3525-.2425-8.1427-3.6566c-2.7902-3.4142-1.96-8.708-1.96-8.708s5.3532.2453 8.1427 3.6566z"/><g fill="none" stroke="#000" stroke-linecap="round" stroke-linejoin="round" stroke-width="2"><path d="M24.3025 36.7998c2.7895 3.4142 1.96 8.708 1.96 8.708s-5.3525-.2425-8.1427-3.6566c-2.7902-3.4142-1.96-8.708-1.96-8.708s5.3532.2453 8.1427 3.6566z"/><path d="M39.7837 34.9422c-1.7171 1.1979-4.0912 1.1205-5.7352-.3225-1.4478-1.2708-1.9189-3.2403-1.3515-4.9614m13.7258-12.3991c.7054.1721 1.3809.5123 1.9644 1.0244.4245.3726.7651.8053 1.0201 1.2742m3.0192-2.8972c.3751.1641.7317.3879 1.0559.6724 1.6917 1.4848 1.8593 4.0599.3745 5.7515-.5568.6344-1.2669 1.0544-2.0263 1.2534m.0972 3.3863c1.8246 2.3061 1.8009 5.6563-.2082 7.9452-1.9392 2.2093-5.0987 2.7128-7.5852 1.3871M35.1695 25.037c.2244-.9633.6828-1.8868 1.3809-2.6821 2.2626-2.5778 6.1865-2.8333 8.7642-.5707.6585.578 1.1654 1.2643 1.5175 2.0089m-10.7097 6.2114c-1.1339-1.6236-1.4123-3.6882-.7921-5.5338m8.359 3.0419c.6654.1388 1.3051.4462 1.8524.9266 1.6917 1.4848 1.8593 4.0599.3745 5.7515"/><path d="M54.2215 23.4046c-.1262-.1108-.2668-.1915-.401-.2862.0113-.0126.0252-.0212.0364-.0339 1.4848-1.6917 1.3171-4.2667-.3745-5.7515s-4.2667-1.3171-5.7515.3745c-.0197.0225-.0318.0485-.0509.0713-1.89-1.1185-4.3643-.7779-5.8659.9328-.4082.4651-.701.9904-.8928 1.541-1.6232.0778-3.2142.7845-4.3708 2.1023-1.1567 1.3178-1.6512 2.987-1.5178 4.6066-.5211.2615-1.0039.6199-1.4121 1.085-1.697 1.9333-1.5053 4.8762.428 6.5732 1.2191 1.0701 2.8387 1.3856 4.2952.9905-.2028 1.4954.32 3.0604 1.5391 4.1304 1.9333 1.697 4.8763 1.5053 6.5732-.428.4082-.4651.701-.9904.8928-1.541 1.6232-.0778 3.2142-.7845 4.3709-2.1023s1.6511-2.9871 1.5178-4.6066c.5211-.2615 1.0039-.6199 1.4122-1.085 1.6969-1.9333 1.5053-4.8762-.428-6.5732zM35.26 39.1706c-3.438 3.548-7.676 10.246-5.829 20.735"/></g></svg>