<svg xmlns="http://www.w3.org/2000/svg" role="img" viewBox="14.88 10.00 42.24 51.87"><title>1FABD.svg</title><path fill="#d0cfce" stroke="#d0cfce" stroke-linecap="round" stroke-linejoin="round" stroke-width="2" d="M51.21 22.55C53 25 53 31 49 33c.57 1.33.81 2.51.81 3.56 0 4.49-4.34 6.59-5.81 7.44 1.39 3.14.04 7.24-3 9l-13 7-10-18c-2.09-3.63-1.16-8.37 2.47-10.46L54 12c1.05 1.81 3 7-2.79 10.55z"/><path fill="#fff" d="M18 42l6.6635 11.983C28 54 32.284 52.0381 34 49c10 1 12-8 10-13 4-2 4-10 3-11 4-3 2.4207-8.8948 2-10L20 32c-3.63 2.1-4.09 6.37-2 10z"/><g fill="none" stroke="#000" stroke-linecap="round" stroke-linejoin="round" stroke-width="2"><path d="M51.2095 22.5533C53 25 53 31 49 33l-9 5"/><path d="M41 53c3.043-1.7569 4.3855-5.8565 3-9h0c1.814-1.0473 8-4 5-11M32 51c6-3 1.1532-9.7849-3.9425-6.3168C32 42 33 38 30.8353 34.3163l20.3742-11.7631C57 18.9999 55.0473 13.8139 54 11.9999L20.4684 31.5386C16.8405 33.6332 15.9054 38.3721 18 42l10 18"/></g></svg>