<svg xmlns="http://www.w3.org/2000/svg" role="img" viewBox="18.98 12.73 33.91 46.41"><title>1FAC0.svg</title><path fill="#EA5A47" d="M38.4637 14.703l.4123 3.1273.4026.0536 1.3674-2.5648 2.1561.7613c-.14 1.558-1.74 4.2311 1.07 5.2588-1.8372.6183-2.8115 1.2422-4.6323-.0152-1.0481-.7238-2.6272.0793-3.2418.34-.7542.3194-1.6364.6586-1.4836 1.9346.0415.3472.3816.6836-.4217 1.7189-1.5952 1.7894-2.73 1.6071-4.7259 5.196-2.4475-3.2363-1.1789-9.924 2.9149-12.305l-.49-1.9423 2.1061-.9195 1.6493 2.594.9318-3.2377h1.9848z"/><path fill="#D22F27" d="M37.8998 51.32a22.85699 22.85699 0 0 0 2.06-12.0093c-.373-3.5982-.1758-3.3065.2164-4.8872 2.8469 2.2791 6.409 1.884 9.318 1.1694a5.87684 5.87684 0 0 1 .7434 4.4582c-.8779 5.4941-3.4286 10.5839-7.3045 14.5756-3.2158 3.3068-6.4358 3.6325-10.0807.84-5.1314-3.9312-9.4576-8.54-11.1637-15.0556-.9274-3.5419 1.941-9.1041 5.3541-10.403.804-.3333 1.7304-.1321 2.3237.5047a15.85641 15.85641 0 0 1 4.04 6.237c.63 1.5616 1.1643 3.162 1.7837 4.8607-2.9374-8.3031-4.2141-9.7578-5.8242-11.0977 1.0163-2.4606 3.844-4.3388 4.7259-5.196.3453-.3726.5242-.8698.4954-1.377-.3277-.8162.0684-1.7435.8846-2.0711.0632-.0254.128-.0467.1939-.0638 1.3584-.5673 2.6541-1.3366 4.1841-.076.7944.3875 1.7136.4293 2.54.1157 2.1936-.7009 4.3193-1.6147 6.1987-2.3393l2.5141 5.0831c-1.536 1.0656-3.4246 2.2905-5.215 3.6452a32.7237 32.7237 0 0 0-3.94 3.4173c-1.8063 1.8081-2.5944 4.3964-2.1024 6.9043a20.3464 20.3464 0 0 1-1.7253 12.14c-.0911.2005-.1474.4164-.2202.6248z"/><path fill="#EA5A47" d="M29.3665 30.5131c-2.992-2.5794-6.4657 3.0321-7.4105 5.7544-.9813-1.6903-1.2951-3.6863-.88-5.5962 1.0887-3.9847 2.2593-7.947 3.3529-11.7657h6.8686a8.3225 8.3225 0 0 0-1.6755 1.9869c-1.4543 2.3994-1.8507 5.2937-1.0953 7.9958.2144.573.4963 1.1185.8398 1.6248zm16.5218-2.2792c1.4569 1.4613 2.284 3.4348 2.3043 5.4982.0014.4065.1122 2.1329-.2474 2.1884-1.8919.3935-3.8538.285-5.6907-.3148-2.3888-.8793-2.0959-1.7839-1.0364-3.09a26.69336 26.69336 0 0 1 4.6702-4.2818z"/><g><g fill="none" stroke="#000" stroke-linecap="round" stroke-linejoin="round" stroke-width="2"><path d="M38.4637 14.703l.4123 3.1273.4026.0536 1.3674-2.5648 2.1561.7613c-.14 1.558-1.74 4.2311 1.07 5.2588-1.8372.6183-2.8115 1.2422-4.6323-.0152-1.0481-.7238-2.6272.0793-3.2418.34-.7542.3194-1.6364.6586-1.4836 1.9346.0415.3472.3816.6836-.4217 1.7189-1.5952 1.7894-2.73 1.6071-4.7259 5.196-2.4475-3.2363-1.1789-9.924 2.9149-12.305l-.49-1.9423 2.1061-.9195 1.6493 2.594.9318-3.2377h1.9848z"/><path d="M37.8998 51.32a22.85699 22.85699 0 0 0 2.06-12.0093c-.373-3.5982-.1758-3.3065.2164-4.8872 2.8469 2.2791 6.409 1.884 9.318 1.1694a5.87684 5.87684 0 0 1 .7434 4.4582c-.8779 5.4941-3.4286 10.5839-7.3045 14.5756-3.2158 3.3068-6.4358 3.6325-10.0807.84-5.1314-3.9312-9.4576-8.54-11.1637-15.0556-.9274-3.5419 1.941-9.1041 5.3541-10.403.804-.3333 1.7304-.1321 2.3237.5047a15.85641 15.85641 0 0 1 4.04 6.237c.63 1.5616 1.1643 3.162 1.7837 4.8607-2.9374-8.3031-4.2141-9.7578-5.8242-11.0977 1.0163-2.4606 3.844-4.3388 4.7259-5.196.3453-.3726.5242-.8698.4954-1.377-.3277-.8162.0684-1.7435.8846-2.0711.0632-.0254.128-.0467.1939-.0638 1.3584-.5673 2.6541-1.3366 4.1841-.076.7944.3875 1.7136.4293 2.54.1157 2.1936-.7009 4.3193-1.6147 6.1987-2.3393l2.5141 5.0831c-1.536 1.0656-3.4246 2.2905-5.215 3.6452a32.7237 32.7237 0 0 0-3.94 3.4173"/><path d="M29.3665 30.5131c-2.992-2.5794-6.4657 3.0321-7.4105 5.7544-.9813-1.6903-1.2951-3.6863-.88-5.5962 1.0887-3.9847 2.2593-7.947 3.3529-11.7657h6.8686a8.3225 8.3225 0 0 0-1.6755 1.9869c-1.4543 2.3994-1.8507 5.2937-1.0953 7.9958.2144.573.4963 1.1185.8398 1.6248zm16.5218-2.2792c1.4569 1.4613 2.284 3.4348 2.3043 5.4982.0014.4065.1122 2.1329-.2474 2.1884-1.8919.3935-3.8538.285-5.6907-.3148-2.3888-.8793-2.0959-1.7839-1.0364-3.09a26.69336 26.69336 0 0 1 4.6702-4.2818z"/></g></g></svg>