<svg xmlns="http://www.w3.org/2000/svg" role="img" viewBox="14.84 1.46 42.20 60.58"><title>1FAC5-1F3FC.svg</title><path fill="#fcea2b" d="M31.44 14.337l.002-9.743 3.115 2.652L35.972 3.7l1.469 3.409 2.844-2.515v9.743H31.44z"/><path fill="#92d3f5" d="M17 61v-4c0-4.9941 5.0078-9 10-9 6 5 12 5 18 0 4.9941 0 10 4.0059 10 9v4"/><path fill="#debb90" d="M24.9365 31c0 9 4.9365 14 11 14C41.873 45 47 40 47 31a12.1371 12.1371 0 0 0-1-5c-3-3-7-8-7-8-4 3-7 6-13 7 0 0-1.0635 1-1.0635 6z"/><path fill="#fcea2b" d="M31.44 11.5854C24.7638 13.45 22 19.4844 22 25.5185 22 32.7778 22 39 26 39l-.7854-5.7856.5528-7.7389 8.43-4.0077 5.2515-2.9712L46 26l.9772 6L46 39c4 0 4-6.2222 4-13.4815 0-6.1163-2.84-12.2326-9.715-14.007v2.8257H31.44v-2.7518z"/><g><path fill="none" stroke="#000" stroke-linecap="round" stroke-linejoin="round" stroke-width="2" d="M44.0974 14.0887C48.2289 16.6842 50 21.3421 50 26c0 7 0 13-4 13m-20 0c-4 0-4-6-4-13 0-4.6575 1.7708-9.3149 5.9014-11.9106M17 60v-3c0-4.9941 5.0078-9 10-9 6 5 12 5 18 0 4.9941 0 10 4.0059 10 9v3"/><path d="M41.873 30c0 1.1046-.8954 2-2 2s-2-.8954-2-2 .8954-2 2-2 2 .8954 2 2m-8 0c0 1.1046-.8954 2-2 2s-2-.8954-2-2 .8954-2 2-2 2 .8954 2 2"/><path fill="none" stroke="#000" stroke-linejoin="round" stroke-width="2" d="M24.9365 31c0 9 4.9365 14 11 14C41.873 45 47 40 47 31a12.1371 12.1371 0 0 0-1-5c-3-3-7-8-7-8-4 3-7 6-13 7 0 0-1.0635 1-1.0635 6z"/><path fill="none" stroke="#000" stroke-linecap="round" stroke-linejoin="round" stroke-width="2" d="M33 38c1.8826.9693 4.1174.9693 6 0m-7.56-23.663l.002-9.743 3.115 2.652L35.972 3.7l1.469 3.409 2.844-2.515v9.743H31.44z"/></g></svg>