<svg xmlns="http://www.w3.org/2000/svg" role="img" viewBox="15.35 2.60 33.43 66.43"><title>1FAC2.svg</title><g fill="#FCEA2B"><circle cx="35.287" cy="7.96" r="2.966"/><circle cx="29.571" cy="9.632" r="4.009"/><path d="M32.6612 16.1385s-.212-.047-.4178 6.8478c-.1781 5.9669-2.1611 19.5525-2.1611 19.5525l-3.0754 9.6646-3.6164 8.3941-3.3842 5.9721-2.422-1.1612 2.4552-11.3802 1.294-6.1048.7963-11.0484-.5972-2.9197-.1659-.8626.0332-7.5978 1.7253-6.0716 2.6211-2.8202 6.9149-.4646z"/><path d="M32.0375 18.7672s-.1656-2.2178 2.0582-2.9843c2.2238-.7665 3.676-.3515 5.7507-.1737 2.4304.0889 2.6024 3.0795 2.6024 3.0795l.1882 15.3089-1.2159 4.8378 3.0871 16.558 2.0206 8.9806-1.6839 2.3574-2.6381-4.8271-4.1535-12.0677-1.9645-.1123-4.0974 15.8284-2.3574 1.2348-1.4032-1.7961 2.3013-19.6451 1.5054-26.5791z"/></g><g fill="none" stroke="#000" stroke-miterlimit="10" stroke-width="2"><circle cx="35.287" cy="7.96" r="3"/><path stroke-linecap="round" stroke-linejoin="round" d="M30.1802 12.5736c-1.6165.3562-3.2188-.6661-3.5753-2.2841-.3565-1.6179.6676-3.2191 2.2841-3.5753m3.6472 23.9197l-4.2231 34.2468c-.1346 1.0917.5256 1.985 1.4671 1.985s1.9487-.8683 2.2382-1.9295l5.4865-20.1156c.2895-1.0612 1.0427-2.6666 1.6738-3.5675l2.199-3.1389c.6311-.9009 1.1039-2.537 1.0505-3.6357l-.4918-10.1196"/><path stroke-linecap="round" stroke-linejoin="round" d="M41.4531 38.0063l1.8199 11.5255c.1716 1.0865.5237 2.8503.7826 3.9194l2.4228 10.0071c.2588 1.0691-.2044 2.3938-1.0294 2.9438-.825.55-1.7732.1425-2.1072-.9056l-2.8929-9.0797c-.3339-1.0481-.934-2.7442-1.3335-3.7691l-2.2034-5.6531m5.025-22.6356l-.457-5.385m-4.3325 1.0679l-3.9599 4.8358c-.6969.8511-2.1344 1.788-3.1943 2.082l-10.6769 2.9616m3.0826-4.3554l.8961-5.377c.3616-2.1701 1.8617-3.7621 3.3334-3.5378 1.4718.2243 4.4529.1209 6.6248-.2298l9.1168-1.4721M22.172 39.734l.186-6.951m-.1858 6.9509l-1.0602 9.7592c-.066 1.6999-.6165 3.3668-1.0124 5.0214l-2.3812 9.9499c-.265 1.1074.5267 2.188 1.6625 2.2691h0c.7861.0562 1.521-.3933 1.8291-1.1187l4.8722-13.7563"/></g></svg>