<svg xmlns="http://www.w3.org/2000/svg" role="img" viewBox="3.75 7.88 64.87 57.24"><title>1FAE8.svg</title><g id="color"><circle cx="36" cy="36" r="22" fill="#fcea2b" stroke-width="0"/></g><g id="line"><ellipse cx="36" cy="36" fill="none" stroke="#000" stroke-linecap="round" stroke-linejoin="round" stroke-width="2" rx="22.087" ry="22"/><circle cx="42" cy="45" r="3" stroke-width="0"/><path fill="none" stroke="#000" stroke-linecap="round" stroke-linejoin="round" stroke-width="2" d="M9.5 30.5s-4.5 24.5 20.5 32.5M6 44s2 11 12.0172 16.9583M62.4488 43.4695s5.4049-24.3164-19.2814-33.2375M66.4474 29.0714s-1.5909-11.0666-11.3804-17.392"/><ellipse cx="26.485" cy="36.052" stroke-width="0" rx="2.308" ry="4.155" transform="rotate(-31.607 26.484 36.052)"/><ellipse cx="37.769" cy="27.323" stroke-width="0" rx="2.308" ry="4.155" transform="rotate(-39.583 37.77 27.323)"/><path fill="none" stroke="#000" stroke-linecap="round" stroke-linejoin="round" stroke-width="2" d="M40.5143 21.6618s2.9765 1.1883 3.7112 4.6672M20.683 36.2431s.1761 3.2001 3.2384 5.0068"/></g></svg>