<svg xmlns="http://www.w3.org/2000/svg" role="img" viewBox="10.00 10.00 51.87 51.87"><title>1FAE7.svg</title><g fill="none" stroke="#000" stroke-linecap="round" stroke-linejoin="round"><path stroke-width="4" d="M40 47.091c.243-.4392.5461-.8404.8984-1.1926.3522-.3523.7534-.6554 1.1926-.8984"/><path stroke-width="3" d="M48.5 25.5c.1162-.21.2612-.4019.4296-.5704.1685-.1684.3604-.3134.5704-.4296"/><path stroke-width="4" d="M18 21.3456c.3888-.7027.8738-1.3447 1.4374-1.9082.5635-.5636 1.2055-1.0486 1.9082-1.4374"/></g><path fill="#92D3F5" d="M24.5 39C31.9558 39 38 32.9558 38 25.5S31.9558 12 24.5 12 11 18.0442 11 25.5 17.0442 39 24.5 39zm26.7987-3.2998c4.3591 0 7.8929-3.5337 7.8929-7.8929 0-4.3591-3.5338-7.8929-7.8929-7.8929-4.3592 0-7.8929 3.5338-7.8929 7.8929 0 4.3592 3.5337 7.8929 7.8929 7.8929zM44 60c5.5228 0 10-4.4772 10-10s-4.4772-10-10-10-10 4.4772-10 10 4.4772 10 10 10z"/><path fill="none" stroke="#61B2E4" stroke-linecap="round" stroke-linejoin="round" stroke-width="10" d="M32 25.5c0 3.5899-2.9101 6.5-6.5 6.5"/><path fill="none" stroke="#61B2E4" stroke-linecap="round" stroke-linejoin="round" stroke-width="6" d="M50 50c0 2.7614-2.2386 5-5 5"/><path fill="none" stroke="#61B2E4" stroke-linecap="round" stroke-linejoin="round" stroke-width="5" d="M55.5 28.5c0 1.6569-1.3431 3-3 3"/><path fill="none" stroke="#fff" stroke-linecap="round" stroke-linejoin="round" stroke-width="4" d="M40 47.091c.243-.4392.5461-.8404.8984-1.1926.3522-.3523.7534-.6554 1.1926-.8984"/><path fill="none" stroke="#fff" stroke-linecap="round" stroke-linejoin="round" stroke-width="3" d="M48.5 25.5c.1162-.21.2612-.4019.4296-.5704.1685-.1684.3604-.3134.5704-.4296"/><path fill="none" stroke="#fff" stroke-linecap="round" stroke-linejoin="round" stroke-width="4" d="M18 21.3456c.3888-.7027.8738-1.3447 1.4374-1.9082.5635-.5636 1.2055-1.0486 1.9082-1.4374"/><g fill="none" stroke="#000" stroke-linecap="round" stroke-linejoin="round" stroke-width="2"><path d="M25.5 39C32.9558 39 39 32.9558 39 25.5S32.9558 12 25.5 12 12 18.0442 12 25.5 18.0442 39 25.5 39zM52 36c4.4183 0 8-3.5817 8-8s-3.5817-8-8-8-8 3.5817-8 8 3.5817 8 8 8zm-7 24c5.5228 0 10-4.4772 10-10s-4.4772-10-10-10-10 4.4772-10 10 4.4772 10 10 10z"/><path d="M45 60c5.5228 0 10-4.4772 10-10s-4.4772-10-10-10-10 4.4772-10 10 4.4772 10 10 10z"/></g></svg>