<svg xmlns="http://www.w3.org/2000/svg" role="img" viewBox="5.84 20.34 60.19 36.69"><title>1FAE6.svg</title><path fill="#fff" d="M17 33h45v11H17z"/><path fill="#D22F27" d="M23.5 36.5H20L14.5 38 8 37.5C18 47 40 55.5 50.5 55S64 37 64 37c-3.8333 2-12.6 6-17 6s-10.1667-3.6667-12.5-5.5h-11v-1z"/><path fill="#D22F27" fill-rule="evenodd" d="M36.2503 23.9974c-1.6946-.036-2.8342-.4355-3.6488-.8767-.4344-.2353-.7933-.4917-1.1148-.7401-.0833-.0644-.173-.1357-.2654-.2091-.2236-.1777-.463-.368-.6663-.5036a1.00018 1.00018 0 0 0-.5547-.1679c-5.2896 0-10.7438 2.4976-14.9632 5.5663-2.1203 1.542-3.9644 3.2534-5.35193 4.9185-1.36216 1.6346-2.35861 3.3129-2.66164 4.8a.99332.99332 0 0 0-.0221.2682c.01596.2969.16444.5767.40933.7551a.99503.99503 0 0 0 .23627.1276C8.62077 38.3208 11.2027 39 14.5003 39c1.2214 0 2.2572-.3876 3.3148-.8721.3299-.1511.6596-.3101 1.0023-.4755.7886-.3805 1.6464-.7944 2.7355-1.2214C24.6051 35.234 29.3531 34 38.0003 34c5.9042 0 12.3304.9859 17.3038 1.9806 2.4816.4963 4.5909.9926 6.0786 1.3645.7437.186 1.3316.3407 1.7326.4486.2005.054.3541.0963.4572.1249l.116.0324.02.0057a.99488.99488 0 0 0 .2508.0427.99316.99316 0 0 0 .3535-.0494c.2683-.0885.4949-.2891.6094-.5625a.99575.99575 0 0 0 .0775-.3467.99601.99601 0 0 0-.0231-.2581c-.3009-1.4749-1.2561-3.1474-2.572-4.7843-1.3392-1.6659-3.1203-3.3791-5.1793-4.9234-4.0983-3.0737-9.4308-5.575-14.725-5.575a.9997.9997 0 0 0-.5547.1679c-.2033.1356-.4427.3258-.6663.5035-.0922.0733-.1823.145-.2655.2092-.3215.2484-.6804.5048-1.1148.7401-.8145.4412-1.9542.8407-3.6487.8767z" clip-rule="evenodd"/><path fill="none" stroke="#EA5A47" stroke-linecap="round" stroke-width="2" d="M22 41c11 0 14.5 7.5 25.5 7.5"/><path fill="none" stroke="#D22F27" stroke-linecap="round" stroke-width="2" d="M64 37c0 5.5-3 18-13.5 18C24 55 8 37 8 37"/><path fill="none" stroke="#D22F27" stroke-linecap="round" stroke-width="2" d="M33 37.5c4 0 7.5 6 15.5 5.5 6.4-.4 13-4 15.5-6"/><g><path fill="none" stroke="#000" stroke-linecap="round" stroke-width="2" d="M64 37c0 5.5-3 18-13.5 18-18.7181 0-32.1975-8.9805-38.5-14.255"/><path fill="none" stroke="#000" stroke-linecap="round" stroke-width="2" d="M64 37c-2.5 2-9.1 5.6-15.5 6-4.4055.2753-7.4463-1.4205-9.9575-3M8 37c.83333.3333 3.3 1 6.5 1 4 0 6-5 23.5-5 12 0 26 4 26 4"/><path d="M7.01942 36.8039c-.10831.5415.2429 1.0684.78446 1.1767.54156.1083 1.06839-.2429 1.1767-.7845l-1.96116-.3922zM30 22.5l.5547-.8321A1.00018 1.00018 0 0 0 30 21.5v1zm6.5 3.5c.5523 0 1-.4477 1-1s-.4477-1-1-1v2zM8.98058 37.1961c.20163-1.0081.9525-2.385 2.24072-3.9309 1.2687-1.5224 2.9872-3.1235 4.9919-4.5815C20.2438 25.7524 25.2896 23.5 30 23.5v-2c-5.2896 0-10.7438 2.4976-14.9632 5.5663-2.1203 1.542-3.9643 3.2534-5.3519 4.9185-1.36798 1.6416-2.36711 3.3272-2.66548 4.8191l1.96116.3922zm20.46472-13.864c.2127.1418.4158.3201.8183.6311.366.2828.8195.6097 1.3851.9161C32.7948 25.5001 34.3334 26 36.5 26v-2c-1.8334 0-3.0448-.4167-3.8987-.8793-.4344-.2353-.7934-.4917-1.1149-.7401-.285-.2203-.6444-.5211-.9317-.7127l-1.1094 1.6642z"/><path d="M64.9806 36.8039c.1083.5415-.2429 1.0684-.7845 1.1767-.5415.1083-1.0684-.2429-1.1767-.7845l1.9612-.3922zM42.5 22.5l-.5547-.8321c.1643-.1095.3573-.1679.5547-.1679v1zM36 26c-.5523 0-1-.4477-1-1s.4477-1 1-1v2zm27.0194 11.1961c-.204-1.0199-.9335-2.4017-2.1738-3.9445-1.2232-1.5216-2.8797-3.1209-4.8206-4.5766C52.1233 25.7487 47.2058 23.5 42.5 23.5v-2c5.2942 0 10.6267 2.5013 14.725 5.575 2.0591 1.5443 3.8401 3.2575 5.1794 4.9234 1.3222 1.6447 2.2802 3.3254 2.5762 4.8055l-1.9612.3922zm-19.9647-13.864c-.2127.1418-.4158.3201-.8183.6311-.366.2828-.8195.6097-1.3851.9161C39.7052 25.5001 38.1666 26 36 26v-2c1.8334 0 3.0448-.4167 3.8987-.8793.4344-.2353.7934-.4917 1.1149-.7401.285-.2203.6444-.5211.9317-.7127l1.1094 1.6642z"/><path fill="none" stroke="#000" stroke-linecap="round" stroke-width="2" d="M28 36c0 .5.3 1.5 1.5 1.5h5c.5 0 1.5-.3 1.5-1.5m0 0c0 .5.3 1.5 1.5 1.5h5c.5 0 1.5-.3 1.5-1.5m0 0c0 .5.3 1.5 1.5 1.5h5M28 36c0 .5-.3 1.5-1.5 1.5H23"/></g></svg>