<svg xmlns="http://www.w3.org/2000/svg" role="img" viewBox="3.02 4.77 61.46 63.96"><title>1FAF8.svg</title><path fill="#92d3f5" d="M45.6019 66.6568H5.2026V51.6245l36.0775-3.3729c-2.4334 8.0705 1.5032 15.5866 8.0799 18.4052h-3.7581z"/><path fill="#61b2e4" d="M45.6019 66.6568H5.2026v-4.6976l37.5807-.9395q1.879 2.8186 6.5766 5.6371h-3.7581z"/><path fill="#fcea2b" d="M47.481 64.7778c-7.5161-2.8186-6.5766-9.4891-6.5766-15.0323 6.229-3.7581 6.8397-13.0029 7.5161-18.2924.4698-2.7152 1.6817-2.7152 2.1139-5.4304l2.5085-16.7422c.1159-1.3701 1.3206-2.3869 2.6907-2.271 1.089.0921 1.9906.8837 2.223 1.9516v23.8732h2.6776l1.879 4.6976-3.7581 15.9718c0 1.8133-4.6976 5.6371-5.6371 5.6371-.7422 0-5.6371 5.0264-5.6371 5.6371z"/><g><path fill="none" stroke="#000" stroke-linecap="round" stroke-linejoin="round" stroke-width="1.879" d="M5.2026 66.6568V51.6245l36.0775-3.3729c-2.4334 8.0705 1.5032 15.5866 8.0799 18.4052H5.2026z"/><path fill="none" stroke="#000" stroke-linecap="round" stroke-linejoin="round" stroke-width="1.879" d="M47.481 64.7778c0-.6201 3.7581-5.6371 5.6371-5.6371 2.8186 0 6.4639-5.1674 6.5766-7.5161 0 0 .1221-4.0024.9395-5.6371 1.879-3.7581 2.8186-12.2137 0-13.1533s-4.6976.9395-4.6976 5.6371c0 2.8186-3.7581 4.6976-3.7581 8.4557"/><path fill="none" stroke="#000" stroke-linecap="round" stroke-linejoin="round" stroke-width="1.879" d="M57.9566 29.123V8.961c-.2923-1.3436-1.6185-2.1959-2.9621-1.9035-1.0679.2323-1.8595 1.134-1.9516 2.223L50.572 26.0133c-.4322 2.7152-1.6442 2.7152-2.1139 5.4304-.6483 5.2895-1.259 14.5437-7.488 18.3018"/></g></svg>