<svg xmlns="http://www.w3.org/2000/svg" role="img" viewBox="2.72 20.60 66.43 30.68"><title>1FAF6-1F3FF.svg</title><path fill="#6a462f" d="M67.78 41.1742l-4.3796 8.5757-.7829-.6583-3.7984-2.7816c-1.8538-1.3017-4.2648-1.5045-6.31-.5307a11.18726 11.18726 0 0 1-6.1221.3585c-2.1081-.3243-7.41 1.8141-8.7174 2.3879-.4024.1767-1.6482-1.0665-1.673-1.5052-.0786-1.3937 1.9451-3.7005 6.9023-6.1505 6.0509-2.99 6.3355-6.6919 5.1255-11.0343S41.4752 27.7 41.4752 27.7l-4.5066 3.4628a.62485.62485 0 0 1-.6368-.0209c-.2911-.1856-.3766-.572-.1911-.8631.8969-1.389 2.1828-4.1342 3.4128-4.9279a31.72542 31.72542 0 0 1 3.9364-2.0565 4.37573 4.37573 0 0 1 3.32-.1121l6.0945 2.2677a4.3499 4.3499 0 0 1 2.237 1.8719c1.021 1.7335 2.8641 4.85 4.431 7.43 1.411 2.3236 7.1542 5.9107 7.3163 5.9648l.8913.4575z"/><path fill="#6a462f" d="M5.1057 40.7167c.1621-.0541 5.9053-3.6412 7.3163-5.9648 1.5669-2.58 3.41-5.6965 4.431-7.43A4.3499 4.3499 0 0 1 19.09 25.45l6.0945-2.2677a4.37573 4.37573 0 0 1 3.32.1121 31.72542 31.72542 0 0 1 3.9364 2.0565c1.23.7937 2.5159 3.5389 3.4128 4.9279.1856.2911.1.6775-.1911.8631a.62532.62532 0 0 1-.6368.0209L30.5192 27.7S25.18 25.4933 23.97 29.8357 23.0446 37.88 29.0955 40.87c4.9572 2.45 6.9809 4.7568 6.9023 6.1505-.0248.4387-1.2706 1.6819-1.673 1.5052-1.3074-.5738-6.6093-2.7122-8.7174-2.3879a11.18726 11.18726 0 0 1-6.1221-.3585c-2.0452-.9738-4.4562-.771-6.31.5307l-3.7984 2.7816-.7829.6583-4.3796-8.5757.8913-.4575z"/><g><path d="M66.8943 40.7167c-.1621-.0541-5.9053-3.6412-7.3163-5.9648-1.5669-2.58-3.41-5.6965-4.431-7.43A4.3499 4.3499 0 0 0 52.91 25.45l-6.0945-2.2677a4.37573 4.37573 0 0 0-3.32.1121 31.72542 31.72542 0 0 0-3.9364 2.0565c-1.23.7937-2.5159 3.5389-3.4128 4.9279-.1856.2911-.1.6775.1911.8631a.62532.62532 0 0 0 .6368.0209L41.4808 27.7s4.4922-1.8756 6.5491 2.1356c2.2451 4.3781.9255 8.044-5.1254 11.0338-4.9572 2.45-6.3787 4.4689-6.3 5.8626.0248.4387 1.2707 1.6818 1.673 1.5052 1.3074-.5739 6.0071-2.4243 8.1152-2.1 2.0343.4531 4.1546.3289 6.1221-.3585 2.0452-.9738 4.4562-.771 6.31.5307l3.7986 2.7821M5.1057 40.7167c.1621-.0541 5.9053-3.6412 7.3163-5.9648 1.5669-2.58 3.41-5.6965 4.431-7.43A4.3499 4.3499 0 0 1 19.09 25.45l6.0945-2.2677a4.37573 4.37573 0 0 1 3.32.1121 31.72542 31.72542 0 0 1 3.9364 2.0565c1.23.7937 2.5159 3.5389 3.4128 4.9279.1856.2911.1.6775-.1911.8631a.62532.62532 0 0 1-.6368.0209L30.5192 27.7s-4.4922-1.8755-6.5492 2.1357c-2.2451 4.3781-.9255 8.044 5.1254 11.0338 4.9572 2.45 6.3787 4.4689 6.3 5.8626-.0248.4387-1.2707 1.6818-1.673 1.5052-1.3074-.5739-6.0071-2.4243-8.1152-2.1a11.18726 11.18726 0 0 1-6.1221-.3585c-2.0452-.9738-4.4562-.771-6.31.5307l-3.7982 2.7821" fill="none" stroke="#000" stroke-linecap="round" stroke-linejoin="round" stroke-width="2"/></g></svg>