<svg xmlns="http://www.w3.org/2000/svg" role="img" viewBox="11.67 9.67 49.54 56.29"><title>21AA.svg</title><path fill="#3F3F3F" d="M34.3447 12.8414h15.9208v3.4189H34.3447c-7.3628 0-16.1395 3.214-16.1395 18.5264 0 11.6068 5.3478 17.4921 15.8958 17.4921h17.8248l-5.5427-5.0903 2.0293-2.21 9.8013 9.0097-9.8013 8.9927-2.0293-2.209 5.5248-5.0743H34.101c-12.4552 0-19.3146-7.4262-19.3146-20.911-.0001-13.9463 7.1289-21.9452 19.5583-21.9452z"/><path d="M12.7864 34.7866c0 14.5605 7.769 22.9116 21.3145 22.9116h12.6724L45.03 59.2988c-.3906.3584-.6226.8574-.645 1.3877s.1665 1.0469.5254 1.4385l2.0293 2.209c.394.4287.9326.6465 1.4731.6465.4834 0 .9678-.1738 1.3516-.5264l9.8013-8.9922c.4126-.3784.6475-.9126.6479-1.4727s-.2344-1.0942-.6465-1.4736l-9.8013-9.0098c-.3906-.3589-.9141-.5493-1.438-.5254-.5303.0225-1.0298.2544-1.3887.6455l-2.0293 2.21c-.7471.8135-.6934 2.0786.1201 2.8257l1.7612 1.6172H34.1008c-9.48 0-13.8955-4.9229-13.8955-15.4922 0-10.9663 4.7573-16.5264 14.1396-16.5264h15.9204c1.1045 0 2-.8955 2-2v-3.4189c0-1.1045-.8955-2-2-2H34.345c-13.4995 0-21.5586 8.9517-21.5586 23.9453zm1.9999.0001c0-13.9464 7.129-21.9453 19.5584-21.9453h15.9208v3.4189H34.3447c-7.3628 0-16.1395 3.214-16.1395 18.5264 0 11.6068 5.3478 17.4921 15.8958 17.4921h17.8248l-5.5427-5.0903 2.0293-2.21 9.8013 9.0097-9.8013 8.9927-2.0293-2.209 5.5248-5.0743H34.101c-12.4552.0001-19.3147-7.4261-19.3147-20.9109z"/></svg>