<svg xmlns="http://www.w3.org/2000/svg" role="img" viewBox="10.00 15.00 51.87 41.87"><title>23EF.svg</title><path fill="#fff" d="M14.736 54.1869c.4103.1658.8719.2763 1.3336.2763.7181 0 1.4362-.2763 2.0518-.7185l25.39-14.8661.2565-.2763c.6668-.7184 1.0258-1.6027 1.0258-2.5974s-.359-1.9342-1.0258-2.5974l-.2565-.2763-25.39-14.9767c-.9233-.7737-2.2569-.9395-3.3854-.4422-1.2823.5527-2.103 1.9343-2.103 3.4264v29.6217c0 1.4922.8207 2.8738 2.103 3.4265z"/><path d="M14.1579 54.7165c.421.1701.8947.2835 1.3684.2835.7368 0 1.4737-.2835 2.1053-.7372l26.0526-15.2541.2632-.2835C44.6316 37.988 45 37.0807 45 36.06s-.3684-1.9847-1.0526-2.6652l-.2632-.2835-26.0526-15.3675c-.9474-.7939-2.3158-.964-3.4737-.4537C12.8421 17.8572 12 19.2749 12 20.8059v30.3947c0 1.5311.8421 2.9488 2.1579 3.5159zM60 17v38m-8-38v38" fill="none" stroke="#000" stroke-linecap="round" stroke-linejoin="round" stroke-width="2"/></svg>