<svg xmlns="http://www.w3.org/2000/svg" role="img" viewBox="15.14 15.20 41.60 41.54"><title>23F9.svg</title><rect width="36.441" height="36.441" x="17.885" y="17.784" fill="#fff" rx="5.039" ry="5.039"/><path d="M49.2614 18C51.8743 18 54 20.1257 54 22.7386v26.5229C54 51.8743 51.8743 54 49.2614 54H22.7386C20.1257 54 18 51.8743 18 49.2614V22.7386C18 20.1257 20.1257 18 22.7386 18h26.5228m0-2H22.7386C19.017 16 16 19.017 16 22.7386v26.5229C16 52.983 19.017 56 22.7386 56h26.5229C52.983 56 56 52.983 56 49.2614V22.7386C56 19.017 52.983 16 49.2614 16z"/></svg>