<svg xmlns="http://www.w3.org/2000/svg" role="img" viewBox="10.00 10.00 51.87 51.87"><title>25EA.svg</title><path d="M59 11.5L60 59H11.5L59 11.5z"/><path fill="#fff" d="M12 12h48L12 60V12z"/><path fill="#3F3F3F" d="M59 11.5L60 59H11.5L59 11.5z"/><g fill="none" stroke="#000" stroke-width="2"><path stroke-linejoin="round" d="M59.0349 60h-46.07a.96772.96772 0 0 1-.6815-.2836.96753.96753 0 0 1-.2834-.6815v-46.07a.96772.96772 0 0 1 .2836-.6815.96753.96753 0 0 1 .6815-.2834h46.07a.96772.96772 0 0 1 .6815.2836.96753.96753 0 0 1 .2834.6815v46.07a.96772.96772 0 0 1-.2836.6815.96753.96753 0 0 1-.6815.2834v0z"/><path stroke-linecap="round" d="M59 13L15 57"/></g></svg>