<svg xmlns="http://www.w3.org/2000/svg" role="img" viewBox="3.76 15.01 64.35 41.85"><title>2601.svg</title><path fill="#D0CFCE" d="M15.9345 30.2552c-.0372.4242-.3809.7675-.8065.8131C9.9685 31.621 6 36.7013 6 42.8852c0 6.553 4.5445 11.8652 10.1505 11.8652h38.6977c6.159 0 11.1518-5.6139 11.1518-12.539 0-6.6366-4.5855-12.069-10.3883-12.5101-.4439-.0337-.804-.3445-.8887-.7793-1.2963-6.6567-7.2763-11.659-14.3464-11.659-4.5948 0-8.6879 2.0802-11.3459 5.3894-.2597.3234-.6956.4715-1.079.3107-1.0228-.4289-2.103-.6365-3.3117-.6365-4.5673 0-8.3163 3.4856-8.7055 7.9286z"/><path fill="none" stroke="#000" stroke-linecap="round" stroke-linejoin="round" stroke-miterlimit="10" stroke-width="2" d="M15.9345 30.2552c-.0372.4242-.3794.7675-.8028.8127C9.9704 31.6186 6 36.6998 6 42.8852c0 6.553 4.5445 11.8652 10.1505 11.8652h38.6977c6.159 0 11.1518-5.6139 11.1518-12.539 0-6.6379-4.5872-12.0711-10.3916-12.5103-.4421-.0335-.8008-.3444-.8855-.7796-1.2964-6.6564-7.2763-11.6585-14.3462-11.6585-4.5964 0-8.6908 2.0817-11.3486 5.3929-.2582.3217-.6903.4696-1.0705.3097-1.0245-.4306-2.1065-.639-3.3175-.639-4.5674 0-8.3164 3.4856-8.7056 7.9286z"/></svg>