<svg xmlns="http://www.w3.org/2000/svg" role="img" viewBox="12.43 12.43 49.14 46.89"><title>2604.svg</title><ellipse cx="20.767" cy="48.407" fill="#ea5a47" rx="6.586" ry="7.025" transform="rotate(-25.837 20.767 48.407)"/><path fill="#d22f27" d="M24.98 42.1607c-.0356-.0345.1043 1.5.1135 1.5474a9.4682 9.4682 0 0 1-.5592 4.4086c-.7529 2.3217-2.1159 5.892-3.1642 5.9543-2.2311.1328 4.1662.0938 4.1662.0938s.4376-.0957.8781-.8781c.1784-.3167 1.24-.1983 1.4184-.8131.1719-.5921.4429-.4843.7019-.7406.6742-.6671.544-.5776.5141-1.0807-.0415-.6963 0-4.3906 0-4.3906z"/><g><path fill="none" stroke="#000" stroke-linecap="round" stroke-linejoin="round" stroke-width="1.49" d="M28.0542 44.3144l1.0332 2.7421.3112 2.0492-1.0159 2.793-.9785 1.1713-1.6.7034-1.0825.5953-2.4946.6928-.7573-.165-1.9634-.025-2.03-.9106-1.6125-2.0421-.7486-2.0038-.974-2.0116.448-1.2854.3246-1.2306.5009-2.3322 3.8089-2.0374L21.56 41s.9362.4209 1.2579.56c.1121.0485 1.0541.38 1.1731.4077z"/><path fill="none" stroke="#000" stroke-linecap="round" stroke-linejoin="round" stroke-width="2" d="M26.841 36.759l19.435-19.436M31.782 37.982l23.6-23.6M35.171 40.229l15.964-15.964m-10.964-6.036L43.7 14.7M25.171 33.229L28.7 29.7m4.471 16.529L36.7 42.7m19.471-23.471L59.7 15.7"/><path d="M22.6083 30.4963a1.1257 1.1257 0 0 0 0-2.25 1.1257 1.1257 0 0 0 0 2.25zm8 28a1.1257 1.1257 0 0 0 0-2.25 1.1257 1.1257 0 0 0 0 2.25z"/><path fill="none" stroke="#000" stroke-linecap="round" stroke-linejoin="round" stroke-width="2" d="M40 41h2l.75-2.25.75 2.25h2L44 42.25l.5 2L42.75 43 41 44.25l.75-2L40 41zM28 20h2l.75-2.25.75 2.25h2L32 21.25l.5 2L30.75 22 29 23.25l.75-2L28 20z"/><path d="M53.6083 28.4963a1.1257 1.1257 0 0 0 0-2.25 1.1257 1.1257 0 0 0 0 2.25z"/></g></svg>