<svg xmlns="http://www.w3.org/2000/svg" role="img" viewBox="20.24 12.99 32.65 39.52"><title>2611.svg</title><path fill="#D0CFCE" stroke="#D0CFCE" stroke-linecap="round" stroke-linejoin="round" stroke-miterlimit="10" stroke-width="2" d="M45 29.0772V50.318c0 .2541-.2059.46-.46.46H22.46c-.254 0-.46-.2059-.46-.46v-22.08c0-.254.2059-.46.46-.46H45v1.2992z"/><g fill="none" stroke="#000" stroke-linecap="round" stroke-linejoin="round" stroke-miterlimit="10" stroke-width="2"><path d="M51.2308 14.778c-15.2308 18-18 30.4615-18 30.4615s-2.7692-6.9231-5.5385-9.6923"/><path d="M45 29.0772V50.318c0 .2541-.2059.46-.46.46H22.46c-.254 0-.46-.2059-.46-.46v-22.08c0-.254.2059-.46.46-.46h14.3914"/></g></svg>