<svg xmlns="http://www.w3.org/2000/svg" role="img" viewBox="17.94 1.94 37.74 67.99"><title>261D-1F3FE.svg</title><g fill="#a57939" stroke="#a57939"><path d="M20.2385 52.0665c1.0756 8.6001 8.0438 14.9847 16.215 14.857 9.106 0 16.8546-6.833 16.8546-16.878l-.0019.251-.6189-11.213c-.1679-2.1944-1.9158-3.8708-3.9892-3.826h-9.4197c-5.6339-3.2226-18.8644 6.5869-18.8644 8.5099"/><path d="M23.6714 48.4689c-1.9056-.1527-4.0021-1.6337-3.8889-3.6995l.0538-14.7823c-.2381-1.933 3.3124-3.8158 5.0972-4.0736 1.7848-.2578 2.473 2.9834 2.7111 4.9164.9887-5.0982.2472-.932-.7415 6.639v7c.1132 2.0658-1.3261 3.8473-3.2317 4z"/><path d="M31.5339 53.2379c-1.9056-.1527-3.345-1.9342-3.2317-4l-.029-19.7702c-.6874-1.8063-5.2848-1.2272 2.9078-3.2917 1.7538-.4419 2.9939.7177 3.2319 2.6507.0382.3099.3909 5.1012.3528 5.4111v15c.1132 2.0659-1.3262 3.8474-3.2318 4.0001z"/><path d="M33.7593 37.9333v-7.3098c-.0213-1.9167 2.1944-5.08 4.2141-5.3379 2.0197-.2578 6.9202 1.697 7.1896 3.63.0432.3099.0171 1.1216-.0261 1.4314l-2.0281 5.8444"/><path d="M43.1089 37.6294l.366-29.2067c0-6.175 9.417-5.3884 9.417.283l1.0547 30.9545"/></g><g fill="none" stroke="#000" stroke-linecap="round" stroke-width="2"><path stroke-linejoin="round" d="M24.3121 40.8979c-2.0638-.1527-3.6226-1.9342-3.5-4v-7c-.2578-1.933 1.1001-3.709 3.0331-3.9669 1.933-.2578 3.709 1.1001 3.9669 3.0331.0413.3099.0413.6239 0 .9337v7c.1226 2.0659-1.4362 3.8474-3.5 4.0001z"/><path stroke-miterlimit="10" d="M53.3092 51.072V40.7288c-.1631-2.228-1.7835-4.5373-4.8134-4.5373m0 .0067h-8.2889c-1.7123-.1206-3.189 1.4125-3.3155 3.4423.1509 2.0752 1.5455 3.7158 3.2957 3.877l.8695.1151c1.8128.238 3.2957 1.3199 3.2957 2.4018v2.3997c-1.7849.4502-3.4373 1.4541-4.7885 2.9093"/><path stroke-miterlimit="10" d="M20.7807 53.0597c1.058 8.4584 7.9121 14.7378 15.9497 14.6122 8.957 0 16.5788-6.7204 16.5788-16.5999l-.001-.001M44.308 8.372v14.989M52.683 8.58v24.819M44.3083 8.372c0-5.875 8.375-5.1875 8.375.2083"/><path stroke-linejoin="round" d="M32.7489 40.7605c-3.322 1.2271-4.997-1.9342-4.8744-4v-7c-.2578-1.933 1.1001-3.709 3.0331-3.9669 1.933-.2578 3.709 1.1001 3.9669 3.0331.0413.3099.0413.6239 0 .9337"/><path stroke-linejoin="round" d="M34.9369 34.1256v-5.3175c-.2578-1.933 1.1001-3.709 3.0331-3.9669 1.933-.2578 3.709 1.1001 3.9669 3.0331.0413.3099.0413.6239 0 .9337l.031 3.5043"/><path stroke-miterlimit="10" d="M20.7807 53.0597c-.08-1.5115 0-8.9394 0-8.9394"/></g></svg>