<svg xmlns="http://www.w3.org/2000/svg" role="img" viewBox="11.04 11.04 49.79 49.79"><title>2623.svg</title><circle cx="36" cy="36" r="23" fill="#f4aa41"/><circle cx="36" cy="36.001" r="23" fill="none" stroke="#000" stroke-linecap="round" stroke-linejoin="round" stroke-width="2"/><path d="M22.5907 41.1451a6.0024 6.0024 0 0 1 10.9607-3.3825l.7513-.4278a1.83 1.83 0 0 1 1.2793-2.3489l.0263-.6637a6.0029 6.0029 0 0 1-.2683-11.9553l-.2169-1.02a7.9866 7.9866 0 0 0-6.342 11.3411 7.9956 7.9956 0 0 0-7.3549 7.97 8.73 8.73 0 0 0 .6394 3.1379l.9623-.3974a5.9839 5.9839 0 0 1-.4372-2.2534zm23.8123 5.1791a6.0025 6.0025 0 0 1-8.393-7.8186l-.6394-.4984a1.8278 1.8278 0 0 1-2.6252.0421l-.775.4267a6.0029 6.0029 0 0 1-10.1972 6.2465l-.7719.7a7.9617 7.9617 0 0 0 12.9852-.253 7.9957 7.9957 0 0 0 10.5744 2.4068 8.7313 8.7313 0 0 0 2.4023-2.1177l-.824-.6364a5.9848 5.9848 0 0 1-1.7362 1.502zm3.107-9.6626a7.9855 7.9855 0 0 0-6.2342-3.9821 7.9314 7.9314 0 0 0-3.2428-10.2958 8.7274 8.7274 0 0 0-3.0336-1.026l-.1406 1.0316a6.0032 6.0032 0 0 1-.4233 11.93l.0547.666a1.83 1.83 0 0 1 1.2814 2.35l.6481.4522a6.0029 6.0029 0 0 1 10.4962 5.73l.9919.32a7.9834 7.9834 0 0 0-.3978-7.1759z"/><path d="M29.0425 36.8469a7.04 7.04 0 0 1 .05-.8377l-1.56-.0632q-.0423.4216-.0426.8549a8.4721 8.4721 0 0 0 4.9161 7.6911l.8945-1.221a6.9739 6.9739 0 0 1-4.258-6.4241zm11.9033-6.8956a8.4742 8.4742 0 0 0-9.9093-.0437l.8148 1.3462a6.9741 6.9741 0 0 1 8.3346.0062zm3.4486 6.0493h-1.4588a7.0563 7.0563 0 0 1 .0508.8463 6.974 6.974 0 0 1-4.25 6.4208l.8291 1.2011a8.4718 8.4718 0 0 0 4.8664-7.6679q-.0002-.4048-.0375-.8003z"/></svg>