<svg xmlns="http://www.w3.org/2000/svg" role="img" viewBox="8.96 8.96 51.33 53.95"><title>262A.svg</title><g fill="#B399C8" stroke-linecap="round" stroke-linejoin="round" stroke-miterlimit="10" stroke-width="2"><path d="M45.0001 57c1.9749 0 3.9-.275 5.7124-.8C46.5875 59.2249 41.5 61 36 61c-13.8124 0-25-11.1875-25-25s11.1876-25 25-25c5.5 0 10.5875 1.775 14.7125 4.8-1.8124-.525-3.7375-.8-5.7124-.8C33.4001 15 24 24.4 24 36s9.4001 21 21.0001 21z"/><path d="M50.652 27.896l2.372 4.807 5.306.771-3.839 3.742.906 5.284-4.745-2.495-4.745 2.495.906-5.284-3.839-3.742 5.305-.771z"/></g><g fill="none" stroke="#000" stroke-linecap="round" stroke-linejoin="round" stroke-miterlimit="10" stroke-width="2"><path d="M45.0001 57c1.9749 0 3.9-.275 5.7124-.8C46.5875 59.2249 41.5 61 36 61c-13.8124 0-25-11.1875-25-25s11.1876-25 25-25c5.5 0 10.5875 1.775 14.7125 4.8-1.8124-.525-3.7375-.8-5.7124-.8C33.4001 15 24 24.4 24 36s9.4001 21 21.0001 21z"/><path d="M50.652 27.896l2.372 4.807 5.306.771-3.839 3.742.906 5.284-4.745-2.495-4.745 2.495.906-5.284-3.839-3.742 5.305-.771z"/></g></svg>