<svg xmlns="http://www.w3.org/2000/svg" role="img" viewBox="18.94 8.81 33.99 55.12"><title>2640.svg</title><ellipse cx="36.128" cy="25.98" fill="#fff" rx="10.479" ry="10.229"/><path fill="#9b9b9a" d="M51 25.9684c0-8.2843-6.7158-15-15-15s-15 6.7157-15 15c0 7.429 5.4133 13.5966 12.5027 14.7909v7.1515L32 47.9105h-6v5h6l1.5027.0002v8.9998l4.9974.0444v-9.0445H46v-5h-6l-1.4999-.0002v-7.1493h-.0007c.0506-.0085.1011-.0172.1515-.0262C45.6708 39.4829 51 33.348 51 25.9683zm-15 10c-5.5229 0-10-4.4772-10-10s4.4771-10 10-10 10 4.4771 10 10-4.4772 10-10 10z"/><g fill="none" stroke="#000" stroke-linecap="round" stroke-linejoin="round" stroke-width="2"><path d="M38.5001 40.7611v7.1492L40 47.9105h6v5h-6l-1.4999-.0002v9.0445l-4.9974-.0443v-8.9998L32 52.9105h-6v-5h6l1.5027.0003v-7.1515C26.4134 39.565 21 33.3973 21 25.9684c0-8.2843 6.7157-15 15-15s15 6.7157 15 15c0 7.3797-5.3292 13.5147-12.3491 14.7665-.0504.009-.1009.0177-.1515.0262"/><circle cx="36" cy="25.968" r="10"/></g></svg>