<svg xmlns="http://www.w3.org/2000/svg" role="img" viewBox="10.00 10.00 51.87 51.87"><title>264D.svg</title><path fill="#b399c8" d="M12 12h48v48H12z"/><g fill="none" stroke="#000" stroke-linecap="round" stroke-linejoin="round"><path stroke-width="2" d="M12 12h48v48H12z"/><path stroke-width="3" d="M35.23 44.91l.125-13.68M26.31 44.91V30.88c-.1453-1.558-.6264-3.32-2.212-5.754"/><path stroke-width="3" d="M26.31 31.22s.766-6.485 4.523-6.437 4.405 4.103 4.523 6.437c.1828-2.264.9161-6.54 4.478-6.544 3.562-.0042 4.31 3.958 4.478 6.544l.00012 13.68c.3653 2.829 2.394 5.11 3.829 5.112"/><path stroke-width="3" d="M48.141 50.012c3.042.4881 3.964-9.966 1.124-10.73-3.348-.5788-5.387 7.691-7.545 13.16"/></g></svg>