<svg xmlns="http://www.w3.org/2000/svg" role="img" viewBox="10.00 10.00 51.87 51.87"><title>2652.svg</title><path fill="#b399c8" d="M12 12h48v47.83H12z"/><g fill="none" stroke="#000" stroke-linecap="round"><path stroke-linejoin="round" stroke-width="2" d="M12 12h48v48H12z"/><path stroke-miterlimit="10" stroke-width="3" d="M52.05 41.23s-.0772-3.854-3.211-3.802c0 0-3.21-.0224-3.21 3.622s-3.211 3.622-3.211 3.622c-3.133.0508-3.21-3.763-3.21-3.763.0001-3.683-3.21-3.66-3.21-3.66-3.134-.0517-3.211 3.75-3.211 3.75-.0001 3.669-3.211 3.647-3.211 3.647-3.134.0508-3.211-3.776-3.211-3.776 0-3.695-3.209-3.673-3.209-3.673-3.135-.0508-3.211 3.802-3.211 3.802M52.05 31.36s-.0772-3.854-3.211-3.802c0 0-3.21-.0224-3.21 3.622s-3.211 3.622-3.211 3.622c-3.133.0508-3.21-3.763-3.21-3.763.0001-3.683-3.21-3.66-3.21-3.66-3.134-.0517-3.211 3.75-3.211 3.75-.0001 3.669-3.211 3.647-3.211 3.647-3.134.0508-3.211-3.776-3.211-3.776 0-3.695-3.209-3.673-3.209-3.673-3.135-.0508-3.211 3.802-3.211 3.802"/></g></svg>