<svg xmlns="http://www.w3.org/2000/svg" role="img" viewBox="14.77 4.90 42.33 57.20"><title>265F.svg</title><path fill="#3f3f3f" d="M53.533 60.1H16.928L27.58 48.157l3.22-12.794 10.352 1.716 3.835 11.003L53.533 60.1z"/><path d="M43.531 45.449L53.533 60.1H40.586"/><path fill="#3f3f3f" d="M20.662 29.337h32.256v3.726H20.662z"/><circle cx="36" cy="17" r="10" fill="#3f3f3f"/><path d="M41.381 8.58a9.9888 9.9888 0 0 1-13.8006 13.8A9.994 9.994 0 1 0 41.381 8.58z"/><g fill="none" stroke="#000" stroke-linecap="round" stroke-linejoin="round" stroke-width="2"><circle cx="36" cy="17" r="10"/><path d="M21.5338 29.3371a2.0189 2.0189 0 0 0 0 4M30.8 35.6464C30.8 46.6134 18.9431 59.22 16.9277 60.1H36m5.25-23.2031C42.0826 47.55 53.1331 59.2536 55.0723 60.1H36m16.0466-26.7629a2.0189 2.0189 0 0 0 0-4M21.534 29.337h30.513m-30.513 4h30.513"/></g></svg>