<svg xmlns="http://www.w3.org/2000/svg" role="img" viewBox="8.96 8.96 53.95 53.95"><title>267F.svg</title><g stroke-miterlimit="10"><path fill="#61b2e4" stroke-linecap="round" stroke-linejoin="round" stroke-width="2" d="M60 61H12c-.5523 0-1-.4477-1-1V12c0-.5523.4477-1 1-1h48c.5523 0 1 .4477 1 1v48c0 .5523-.4477 1-1 1z"/><path fill="#fff" d="M39.01 36.8l5.888.9834c.9375.1566 2.057.5144 2.8 1.107.589.4701 1.112 1.099 1.112 1.848 0 1.567-.7362 11.44-1.112 12-1.116 1.661-2.582.6676-2.839-.2416-.3292-1.165.144-10.27.144-10.27l-10.27.5681s-1.633-.0018-1.712-1.712c-.07931-1.707-2.534-10.12 2.28-14.55 2.568-4.28 5.992-.856 4.28 2.568s-.5682 7.704-.5682 7.704z"/><circle cx="41.69" cy="19.51" r="3" fill="#fff"/><path fill="none" stroke="#fff" stroke-linecap="round" stroke-linejoin="round" stroke-width="2" d="M35.62 27.41c-8.597 1.765-5.715-.8486-7.291 8.242"/></g><g fill="none" stroke="#000" stroke-linecap="round" stroke-linejoin="round" stroke-miterlimit="10" stroke-width="2"><path d="M60 61H12c-.5523 0-1-.4477-1-1V12c0-.5523.4477-1 1-1h48c.5523 0 1 .4477 1 1v48c0 .5523-.4477 1-1 1z"/><circle cx="41.69" cy="19.51" r="3"/><path d="M42.19 45.49c0 5.617-4.631 10.15-10.28 9.996-5.218-.1446-9.568-4.495-9.712-9.713-.09441-3.416 1.525-6.46 4.063-8.333"/><path d="M28.33 35.65l-.8567-7.322c-.1012-.4138.0709-.8463.4288-1.078l8.204-1.978c3.123-1.161 4.688.9946 3.47 3.821-1.712 3.424-.5682 7.704-.5682 7.704l5.888.9834c.9375.1566 2.057.5144 2.8 1.107.589.4701 1.112 1.099 1.112 1.848 0 1.567-.7362 11.44-1.112 12-1.116 1.661-2.582.6676-2.839-.2416-.3292-1.165.144-10.27.144-10.27-3.056.3001-11.3 3.138-11.98-2.011-.01906-1.266-.554-6.648 1.117-10.78"/></g></svg>