<svg xmlns="http://www.w3.org/2000/svg" role="img" viewBox="9.74 11.49 52.39 48.89"><title>2692.svg</title><g id="color"><g id="_2692"><path fill="#d0cfce" d="M45.4575,14.6959,40.69,22.18l9.6,6.1162s6.4676,1.63,9.9388,2.3534l-5.1229-9.9128Z"/><path fill="#6a462f" d="M27.112 24.743L37.585 41.499 40.302 43.594 47.787 55.511 46.88 56.089 44.159 57.822 43.252 58.4 35.691 46.532 34.864 43.233 24.391 26.476 27.112 24.743z"/><path fill="#a57939" d="M47.522 26.476L36.926 43.268 36.175 46.616 28.538 58.436 27.631 57.858 24.91 56.124 24.003 55.547 31.564 43.678 34.204 41.535 44.801 24.743 47.522 26.476z"/><path fill="#9b9b9a" d="M37.5652,14.9432a13.4631,13.4631,0,0,0-11.9614.0747A50.0827,50.0827,0,0,0,16.0515,21.21l1.3323,2.0913-1.8766,1.1373-.9392-1.4742a2.3813,2.3813,0,0,0-2.797,1.7819l3.8527,6.0475a2.8253,2.8253,0,0,0,2.797-1.7818l-.9875-1.55L19.3,26.3093l1.5189,2.3842L30.42,22.5774l-2.7451-4.3089S34.1,14.175,37.5652,14.9432Z"/></g></g><g id="line"><g id="_2692-2" fill="none" stroke="#000" stroke-linecap="round" stroke-linejoin="round" stroke-width="2"><path d="M37.893 41.736L40.302 43.594 47.787 55.511 46.88 56.089 44.159 57.822 43.252 58.4 37.507 49.384 35.958 46.952M33.934 41.754L32.335 39.214 24.391 26.476 27.112 24.743 34.258 36.212 35.908 38.834M37.5652 14.9432a13.4631 13.4631 0 0 0-11.9614.0747A50.0827 50.0827 0 0 0 16.0515 21.21l1.3323 2.0913-1.8766 1.1373-.9392-1.4742a2.3813 2.3813 0 0 0-2.797 1.7819l3.8527 6.0475a2.8253 2.8253 0 0 0 2.797-1.7818l-.9875-1.55L19.3 26.3093l1.5189 2.3842L30.42 22.5774l-2.7451-4.3089S34.1 14.175 37.5652 14.9432zM45.4575 14.6959L40.69 22.18l9.6 6.1162s6.4676 1.63 9.9388 2.3534l-5.1229-9.9128z"/><path d="M35.908 38.834L44.801 24.743 47.522 26.476 36.926 43.268 36.175 46.616 28.538 58.436 27.631 57.858 24.91 56.124 24.003 55.547 31.564 43.678 34.204 41.535 35.908 38.834"/></g></g></svg>