<svg xmlns="http://www.w3.org/2000/svg" role="img" viewBox="10.65 14.40 50.57 43.07"><title>2697.svg</title><ellipse cx="32.369" cy="32.724" fill="#fff" rx="15.616" ry="15.304"/><path fill="#fff" d="M44.0986 22.2548s10.663 7.561 13.1834 12.4079l-.6786.8724-7.8519-5.5254s-.369-1.3571-.4753 2.3265-4.1777-10.0814-4.1777-10.0814z"/><path fill="#92d3f5" d="M17.9744 37.97c2.3079 5.3821 8.3214 10.7641 14.7 10.7641s11.9117-5.6449 14.7-10.7641h-29.4z"/><path fill="#61b2e4" d="M41.749 37.97c-2.46 4.5156-6.9725 9.914-12.4 10.6176.735.0965 1.4755.1454 2.2169.1465 6.3789 0 14.1287-5.6449 16.9172-10.7641H41.749z"/><g><g fill="none" stroke="#000" stroke-linecap="round" stroke-linejoin="round" stroke-width="2"><path d="M49.3016 32.5878l7.6734 5.4653 2.3028-2.2361S46.8365 16.4416 32.6746 16.4416c-9.0493-.1308-16.4923 7.097-16.627 16.1462.1348 9.0492 7.5777 16.2769 16.627 16.1461 9.0493.1308 16.4922-7.0969 16.627-16.1461"/><path d="M12.722 55.558l5.543-10.764h28.82l5.542 10.764M32.675 44.794v10.764"/></g></g></svg>