<svg xmlns="http://www.w3.org/2000/svg" role="img" viewBox="16.53 4.15 38.82 63.57"><title>26B1.svg</title><g id="color"><g id="_26B1"><path fill="#f4aa41" stroke="#000" stroke-linecap="round" stroke-linejoin="round" stroke-width="2" d="m44.7967,15.1753l3.3621-2.9411c.8792-.7739.9645-2.114.1906-2.9932-.2032-.2308-.4542-.4147-.7355-.5389-3.5708-1.574-7.4353-2.3711-11.3375-2.3387-3.9022-.0324-7.7667.7647-11.3375,2.3387-1.0715.473-1.5568,1.7251-1.0838,2.7966.1242.2813.3081.5323.5389.7355l3.6591,3.2009c-4.8465,3.0433-9.1842,8.3556-9.1842,14.4156,0,10.7391,8.5614,35.7859,8.5614,35.7859h17.1397s8.5611-25.0466,8.5611-35.7859c-.0018-6.0177-3.1671-11.5913-8.3344-14.6754Z"/><path fill="none" stroke="#e27022" stroke-linecap="square" stroke-linejoin="round" stroke-width="2" d="m28.0531,15.4351c5.4513-1.6237,11.2446-1.7136,16.7436-.26"/><path fill="#e27022" d="M40.1 61.289L27.043 61.289 25.793 57.217 41.02 57.217 40.1 61.289z"/><path fill="none" stroke="#e27022" stroke-linecap="round" stroke-linejoin="round" stroke-width="2" d="M19.645 29.522L52.355 29.522M19.645 34.088L51.821 34.088"/><path fill="#e27022" d="m44.7967,15.1753h-1.1416c0,1.0928,2.6269,8.4364,2.6269,14.6754,0,10.7391-8.5613,35.7859-8.5613,35.7859h6.8493s8.5611-25.0466,8.5611-35.7859c-.0018-6.0177-3.1671-11.5913-8.3344-14.6754Z"/><path fill="#e27022" d="m44.7967,8.1159c2.4548,3.0045.4662,2.303-1.1416,7.0594,3.5167,2.5048,5.2063-4.7835,5.2063-4.7835,0,0-1.875-2.8456-4.0647-2.2759Z"/></g></g><g id="line"><path id="_26B1-2" fill="none" stroke="#000" stroke-linecap="round" stroke-linejoin="round" stroke-width="2" d="m44.7967,15.1753l3.3621-2.9411c.8792-.7739.9645-2.114.1906-2.9932-.2032-.2308-.4542-.4147-.7355-.5389-3.5708-1.574-7.4353-2.3711-11.3375-2.3387-3.9022-.0324-7.7667.7647-11.3375,2.3387-1.0715.473-1.5568,1.7251-1.0838,2.7966.1242.2813.3081.5323.5389.7355l3.6591,3.2009c-4.8465,3.0433-9.1842,8.3556-9.1842,14.4156,0,10.7391,8.5614,35.7859,8.5614,35.7859h17.1397s8.5611-25.0466,8.5611-35.7859c-.0018-6.0177-3.1671-11.5913-8.3344-14.6754Z"/></g></svg>