<svg xmlns="http://www.w3.org/2000/svg" role="img" viewBox="4.80 4.67 62.27 62.40"><title>26BE.svg</title><circle cx="36" cy="35.958" r="29" fill="#fff"/><path fill="none" stroke="#d0cfce" stroke-miterlimit="10" stroke-width="3" d="M54.8295 55.7853c-5.2796-5.2522-6.8833-10.7914-6.8833-18.8269 0-8.0081 3.2459-15.2581 8.4939-20.5061m-40.907-.0001c5.248 5.248 8.4939 12.498 8.4939 20.5061 0 8.0287-2.409 14.4908-7.6808 19.7419"/><path fill="#d0cfce" d="M50.738 10.9985c4.8254 5.1792 7.7822 12.1224 7.7822 19.7596 0 16.0162-12.9837 29-29 29-5.3519 0-10.3612-1.4558-14.6646-3.9839C20.1448 61.4195 27.6533 64.9583 36 64.9583c16.0162 0 29-12.9838 29-29 0-10.6313-5.7308-19.9113-14.262-24.9598z"/><g fill="none" stroke="#000" stroke-linecap="round" stroke-linejoin="round" stroke-width="2"><circle cx="36" cy="35.958" r="29"/><path d="M56.494 56.5182c-5.2796-5.2522-8.5478-12.5243-8.5478-20.5598 0-8.0081 3.2459-15.2581 8.4939-20.5061m-40.907-.0001c5.248 5.248 8.4939 12.498 8.4939 20.5061 0 8.0287-3.2455 15.2768-8.5172 20.5279"/><path d="M45.946 35.458l2 1 2-1m-23.919 1l-2-1-2 1m3.176 6.874l-1.779-1.356-2.151.61m1.728 6.869l-1.478-1.678-2.229.176m.304 6.694l-.773-2.099-2.143-.64m3.588-34.112l-2.15.615-.798 2.089m6.166 3.043l-2.199.109-1.286 1.854m5.472 4.249l-2.205-.374-1.622 1.539m25.123-2.336l1.778 1.356 2.152-.61m-1.729-6.869l1.478 1.678 2.229-.176m-.18-6.845l.773 2.098 2.143.64m-3.87 34.056l2.149-.615.798-2.089m-6.01-2.779l2.234-.111 1.251-1.853m-5.468-4.304l2.204.374 1.622-1.539"/></g></svg>