<svg xmlns="http://www.w3.org/2000/svg" role="img" viewBox="2.33 9.45 67.47 52.97"><title>26C5.svg</title><path fill="#FCEA2B" d="M17.889 41.528l-6.167 3.404.729-8.537-8.064-1.162 6.036-5.472-5.841-5.682 8.103-.877-1.393-8.031 7.072 4.057 3.595-7.318 3.336 7.437 7.209-3.804-1.666 7.976 8.888 1.81-6.602 5.366 5.873 5.835-8.123.676 1.195 8.064-6.971-4.221-4.658 7.559z"/><path fill="#FFF" stroke-linecap="round" stroke-linejoin="round" stroke-miterlimit="10" stroke-width="2" d="M25.2943 39.547c-.0314.3586-.3219.6487-.6817.6872-4.3612.4672-7.7156 4.7614-7.7156 9.9884 0 5.539 3.8413 10.0293 8.5799 10.0293h32.7098c5.206 0 9.4262-4.7453 9.4262-10.5988 0-5.6097-3.8759-10.2015-8.7809-10.5744-.3752-.0285-.6796-.2912-.7512-.6587-1.0957-5.6267-6.1504-9.855-12.1265-9.855-3.8839 0-7.3436 1.7583-9.5903 4.5555-.2195.2733-.588.3986-.9121.2627-.8645-.3626-1.7776-.538-2.7992-.538-3.8605 0-7.0293 2.9462-7.3584 6.7018z"/><g fill="none" stroke="#000" stroke-linecap="round" stroke-linejoin="round" stroke-miterlimit="10"><path stroke-width="1.9" d="M14.291 42.414l-3.199 1.796 1.666-7.977-8.065-1.161 6.036-5.473-5.841-5.682 8.104-.877-1.394-8.031 7.073 4.057 3.594-7.318 3.336 7.437 7.209-3.804-1.666 7.976 8.064 1.162-2.924 2.383"/><path stroke-width="1.9" d="M17.2816 39.517c-3.6168-1.7402-6.1131-5.4394-6.1131-9.7216 0-5.9549 4.8274-10.7822 10.7822-10.7822 5.59 0 10.1864 4.2539 10.7287 9.7012"/><path stroke-width="2" d="M25.2943 39.547c-.0314.3586-.3219.6487-.6817.6872-4.3612.4672-7.7156 4.7614-7.7156 9.9884 0 5.539 3.8413 10.0293 8.5799 10.0293h32.7098c5.206 0 9.4262-4.7453 9.4262-10.5988 0-5.6097-3.8759-10.2015-8.7809-10.5744-.3752-.0285-.6796-.2912-.7512-.6587-1.0957-5.6267-6.1504-9.855-12.1265-9.855-3.8839 0-7.3436 1.7583-9.5903 4.5555-.2195.2733-.588.3986-.9121.2627-.8645-.3626-1.7776-.538-2.7992-.538-3.8605 0-7.0293 2.9462-7.3584 6.7018z"/></g></svg>