<svg xmlns="http://www.w3.org/2000/svg" role="img" viewBox="25.63 3.76 19.23 64.61"><title>26D3.svg</title><ellipse cx="35.253" cy="15.34" fill="#fff" rx="3.848" ry="4.664"/><ellipse cx="35.338" cy="36.02" fill="#fff" rx="3.848" ry="4.664"/><ellipse cx="35.508" cy="57.039" fill="#fff" rx="3.848" ry="4.664"/><path fill="#d0cfce" d="M42.6346 12.4476C42.1772 8.8038 39.0678 5.985 35.3 5.985c-4.0828 0-7.3925 3.3097-7.3925 7.3925v3.8019c0 4.0828 3.3098 7.3925 7.3925 7.3925s7.3925-3.3097 7.3925-7.3925v-3.8019c0-.315-.0197-.6253-.0579-.9299zm-3.0878 3.9228c0 2.3455-1.9014 4.2468-4.2468 4.2468s-4.2468-1.9014-4.2468-4.2468v-2.184c0-2.3455 1.9014-4.2467 4.2468-4.2467 2.1645 0 3.9507 1.6191 4.2135 3.7124.022.175.0333.3533.0333.5343v2.184zm3.0878 16.8912c-.4574-3.6438-3.5668-6.4625-7.3346-6.4625-4.0828 0-7.3925 3.3097-7.3925 7.3925v3.8019c0 4.0828 3.3098 7.3925 7.3925 7.3925s7.3925-3.3097 7.3925-7.3925v-3.8019c0-.315-.0197-.6253-.0579-.93zm-3.0878 3.9228c0 2.3455-1.9014 4.2468-4.2468 4.2468s-4.2468-1.9014-4.2468-4.2468v-2.184c0-2.3455 1.9014-4.2467 4.2468-4.2467 2.1645 0 3.9507 1.6191 4.2135 3.7124.022.175.0333.3533.0333.5343v2.184zm3.0878 16.8912c-.4574-3.6438-3.5668-6.4625-7.3346-6.4625-4.0828 0-7.3925 3.3097-7.3925 7.3925v3.8019c0 4.0828 3.3098 7.3925 7.3925 7.3925s7.3925-3.3097 7.3925-7.3925v-3.8019c0-.315-.0197-.6253-.0579-.93zm-3.0878 3.9228c0 2.3455-1.9014 4.2468-4.2468 4.2468s-4.2468-1.9014-4.2468-4.2468v-2.184c0-2.3455 1.9014-4.2467 4.2468-4.2467 2.1645 0 3.9507 1.6191 4.2135 3.7124.022.175.0333.3533.0333.5343v2.184z"/><g fill="none" stroke="#000" stroke-linecap="round" stroke-linejoin="round" stroke-width="2"><path d="M39.5468 57.9985c0 2.3454-1.9013 4.2468-4.2468 4.2468s-4.2468-1.9013-4.2468-4.2468v-2.184c0-2.3454 1.9013-4.2468 4.2468-4.2468 2.1645 0 3.9507 1.6193 4.2135 3.7125.022.175.0333.3533.0333.5342v2.1841z"/><path d="M42.6925 58.8074c0 4.0828-3.3097 7.3925-7.3925 7.3925s-7.3925-3.3097-7.3925-7.3925v-3.8019c0-4.0828 3.3097-7.3925 7.3925-7.3925 3.7678 0 6.8772 2.8188 7.3346 6.4625.0382.3046.0579.615.0579.93v3.8019zm-3.1457-21.6229c0 2.3454-1.9013 4.2468-4.2468 4.2468s-4.2468-1.9013-4.2468-4.2468v-2.184c0-2.3454 1.9013-4.2468 4.2468-4.2468 2.1645 0 3.9507 1.6193 4.2135 3.7125.022.175.0333.3533.0333.5342v2.1841z"/><path d="M42.6925 37.9934c0 4.0828-3.3097 7.3925-7.3925 7.3925s-7.3925-3.3097-7.3925-7.3925v-3.8019c0-4.0828 3.3097-7.3925 7.3925-7.3925 3.7678 0 6.8772 2.8188 7.3346 6.4625.0382.3046.0579.615.0579.93v3.8019zm-3.1457-21.6229c0 2.3454-1.9013 4.2468-4.2468 4.2468s-4.2468-1.9013-4.2468-4.2468v-2.184c0-2.3454 1.9013-4.2468 4.2468-4.2468 2.1645 0 3.9507 1.6193 4.2135 3.7125.022.175.0333.3533.0333.5342v2.1841z"/><path d="M42.6925 17.1794c0 4.0828-3.3097 7.3925-7.3925 7.3925s-7.3925-3.3097-7.3925-7.3925v-3.8019c0-4.0828 3.3097-7.3925 7.3925-7.3925 3.7678 0 6.8772 2.8188 7.3346 6.4625.0382.3046.0579.615.0579.93v3.8019zM35.5 38.892V54m0-36.069v15.108"/></g></svg>