<svg xmlns="http://www.w3.org/2000/svg" role="img" viewBox="16.76 3.76 38.35 64.35"><title>26EA.svg</title><path fill="#D0CFCE" d="M44 36V20.4917l-7.2941-5.2706c-.4081-.2948-1.0039-.2948-1.412 0L28 20.4917V36"/><path fill="#FFF" d="M18.947 66L19 42.102l17.045-15.117 16.963 15.128L53 66z"/><path fill="#A57939" stroke-linecap="round" stroke-miterlimit="10" stroke-width="2" d="M41 57.943c0-3.8509-3.3484-6.1256-4.5649-6.8249-.274-.1575-.5962-.1575-.8702 0C34.3483 51.8174 31 54.0921 31 57.943v7.0894c0 .5344.4092.9676.914.9676h8.172c.5048 0 .914-.4332.914-.9676V57.943z"/><circle cx="36" cy="42" r="5" fill="#92D3F5" stroke-miterlimit="10" stroke-width="2"/><g><path d="M36 28.3609l16 14.1949V65H20V42.5558l16-14.1949M35.9999 26c-.2207 0-.4415.0789-.6193.2367L18.3281 41.3654c-.2084.1848-.3281.4536-.3281.7363V66.027c0 .5374.4241.973.9474.973h34.1052c.5233 0 .9474-.4356.9474-.973V42.1017c0-.2827-.1197-.5515-.3281-.7363L36.6193 26.2367c-.1779-.1578-.3986-.2367-.6194-.2367z"/><path fill="none" stroke="#000" stroke-linecap="round" stroke-linejoin="round" stroke-miterlimit="10" stroke-width="2" d="M43 29v-8.5083l-6.3823-5.2706c-.3571-.2948-.8784-.2948-1.2355 0L29 20.4917V29"/><path fill="none" stroke="#000" stroke-linecap="round" stroke-miterlimit="10" stroke-width="2" d="M36 14V6m-3.5 4h7M41 57.943c0-3.8509-3.3484-6.1256-4.5649-6.8249-.274-.1575-.5962-.1575-.8702 0C34.3483 51.8174 31 54.0921 31 57.943v7.0894c0 .5344.4092.9676.914.9676h8.172c.5048 0 .914-.4332.914-.9676V57.943z"/><circle cx="36" cy="42" r="5" fill="none" stroke="#000" stroke-miterlimit="10" stroke-width="2"/></g></svg>