<svg xmlns="http://www.w3.org/2000/svg" role="img" viewBox="4.46 13.21 53.95 53.95"><title>2708.svg</title><g id="color"><path fill="#9B9B9A" d="M43.2237 23.5985L37.7003 22.78l-21.3-3.547c-2.5478-.4214-5.1427.4102-6.971 2.234l-3.579 3.573c-.3903.3907-.3901 1.0238.0005 1.4142.114.1139.2538.1986.4075.2468l20.929 6.568 3.8119 1.1561M36.1513 37.924l2.394 6.663 6.575 20.954c.1654.527.7266.8201 1.2535.6548.1538-.0482.2936-.1329.4075-.2468l3.578-3.578c1.8248-1.8278 2.6569-4.4229 2.235-6.971l-3.549-21.311-.893-5.915L36.1513 37.924z"/><path fill="#D0CFCE" d="M9.3413,49.6l8.619,3.716c0.2418,0.1044,0.4326,0.2998,0.531,0.544l3.5481,8.8l3.9609-4.01l-0.691-5.951 c-0.0351-0.3033,0.0702-0.606,0.286-0.822l28.8-28.794c1.0236-1.2048,1.3221-2.8662,0.782-4.352l0,0l-0.157-0.585 c-0.1859-0.6966-0.7258-1.2433-1.42-1.438l-0.579-0.159c-1.4628-0.5363-3.102-0.2238-4.265,0.813l-28.856,28.812 c-0.2199,0.2198-0.5297,0.3248-0.838,0.284l-5.846-0.776L9.3413,49.6z"/></g><g id="line" fill="none" stroke="#000" stroke-linejoin="round" stroke-width="2"><path stroke-linecap="round" d="M48.3723 36.082l3.243 19.472c.3715 2.2297-.3566 4.5016-1.955 6.1l-3.578 3.578-6.534-20.824M27.2233 32.2l-20.659-6.482 3.578-3.578c1.5985-1.5984 3.8703-2.3265 6.1001-1.955l19.472 3.243"/><path d="M56.1423,18.469l-0.158-0.585 c-0.2797-1.0374-1.0847-1.8511-2.119-2.142l-0.579-0.159c-1.8103-0.6506-3.8324-0.2362-5.241,1.074l-28.853,28.808l-6.339-0.842 l-5.253,5.312l9.964,4.3l0,0l4.1171,10.206l5.371-5.428l-0.747-6.428l28.8-28.795C56.3978,22.3393,56.7954,20.2989,56.1423,18.469z"/></g></svg>