<svg xmlns="http://www.w3.org/2000/svg" role="img" viewBox="15.35 2.85 41.30 66.30"><title>270C-1F3FB.svg</title><path fill="#fadcbc" stroke="#fadcbc" stroke-width="2" d="M52.24 37.4l1.906-29.01-1.397-2.065-3.985.2361-1.837 4.735-2.375 17.38-1.906 2.125-2.656-2.312-2.5-21.12-2.155-1.694-2.137.07921-1.989 3.188 2.943 24.83h-2.557c-2.036-5.827-6.417-2.234-7.105 1.084-4.414-2.323-4.892-.5945-6.62 2.234l-.2205 8.076c.2641 2.848.5205 4.681.873 6.947l1.697 5.274 6 6.917 8.333 2.666 7.583-.916 6.917-4.594 3.48-5.344c1.194-6.675 1.056-12.23-.292-18.71z"/><g fill="none" stroke="#000" stroke-linecap="round" stroke-width="2"><path stroke-linejoin="round" d="M52.62 31.13l1.8-22.18c-.3427-4.964-6.779-5.02-7.227-.026l-2.42 17.36c-.3 2.179-1.278 3.962-2.166 3.962s-1.845-1.785-2.126-3.967L38.25 8.939c-.8196-5.278-7.439-4.322-7.037.0011l2.527 21.03M53.63 50.08c0 9.872-8.02 16.88-17.89 16.88"/><path stroke-linejoin="round" d="M43.74 47.29v-2.333c0-1.1-1.789-2.2-3.976-2.441l-1.049-.117c-2.187-.242-3.976-1.851-3.976-3.774s1.8-3.334 4-3.334h10c2.201-.0448 4.057 1.632 4.235 3.826l.657 11.21m-15.671.033c1.63-1.48 3.624-2.5 5.777-2.958"/><path stroke-miterlimit="10" d="M18.53 52.1c1.142 8.6 8.539 14.98 17.21 14.86 9.667 0 17.89-6.833 17.89-16.88"/><path stroke-linejoin="round" d="M31.75 49.72c0 1.258-.6709 2.42-1.76 3.048s-2.431.6288-3.52 0-1.76-1.791-1.76-3.048V33.76c0-1.258.6709-2.42 1.76-3.048s2.431-.6288 3.52 0 1.76 1.791 1.76 3.049z"/><path stroke-linejoin="round" d="M24.71 44.94c0 1.262-.6709 2.427-1.76 3.058s-2.431.6308-3.52 0-1.76-1.796-1.76-3.058v-7.937c0-1.262.6709-2.427 1.76-3.058 1.089-.6308 2.431-.6308 3.52 0s1.76 1.796 1.76 3.058z"/></g></svg>