<svg xmlns="http://www.w3.org/2000/svg" role="img" viewBox="16.71 8.96 38.45 53.95"><title>271D.svg</title><path fill="#B399C8" stroke-linecap="round" stroke-linejoin="round" stroke-miterlimit="10" stroke-width="2" d="M53.13 28.38v2.91c0 1.6569-1.3431 3-3 3h-6.68c-1.6569 0-3 1.3431-3 3v20.72c0 1.6569-1.3431 3-3 3h-2.9c-1.6569 0-3-1.3431-3-3V37.29c0-1.6569-1.3431-3-3-3h-6.68c-1.6569 0-3-1.3431-3-3v-2.91c0-1.6569 1.3431-3 3-3h6.6799c1.6569 0 3-1.3431 3-3v-8.39c0-1.6569 1.3431-3 3-3h2.9c1.6569 0 3 1.3431 3 3v8.39c0 1.6569 1.3431 3 3 3H50.13c1.6569 0 3 1.3432 3 3z"/><path fill="none" stroke="#000" stroke-linecap="round" stroke-linejoin="round" stroke-miterlimit="10" stroke-width="2" d="M53.13 28.38v2.91c0 1.6569-1.3431 3-3 3h-6.68c-1.6569 0-3 1.3431-3 3v20.72c0 1.6569-1.3431 3-3 3h-2.9c-1.6569 0-3-1.3431-3-3V37.29c0-1.6569-1.3431-3-3-3h-6.68c-1.6569 0-3-1.3431-3-3v-2.91c0-1.6569 1.3431-3 3-3h6.6799c1.6569 0 3-1.3431 3-3v-8.39c0-1.6569 1.3431-3 3-3h2.9c1.6569 0 3 1.3431 3 3v8.39c0 1.6569 1.3431 3 3 3H50.13c1.6569 0 3 1.3432 3 3z"/></svg>