<svg xmlns="http://www.w3.org/2000/svg" role="img" viewBox="8.96 8.84 53.95 54.08"><title>2734.svg</title><path fill="none" stroke="#000" stroke-miterlimit="10" stroke-width="2" d="M42.976 39.0753l5.8858 9.2947a.4945.4945 0 0 1-.6956.6737l-8.9076-6.0479a.4946.4946 0 0 0-.7636.3165L36.4868 53.841a.4946.4946 0 0 1-.9716 0l-2.01-10.5287a.4946.4946 0 0 0-.7637-.3164l-8.9056 6.0479a.4946.4946 0 0 1-.6959-.6738l5.884-9.2948a.4946.4946 0 0 0-.33-.7512l-10.1454-1.8363a.4946.4946 0 0 1 0-.9733l10.146-1.8384a.4946.4946 0 0 0 .33-.7511L23.14 23.63a.4946.4946 0 0 1 .6957-.6737l8.9056 6.0479a.4946.4946 0 0 0 .7637-.3164l2.01-10.5287a.4946.4946 0 0 1 .9716 0l2.0084 10.5285a.4946.4946 0 0 0 .7636.3165l8.9076-6.0479a.4945.4945 0 0 1 .6956.6737l-5.8859 9.2949a.4945.4945 0 0 0 .33.7512l10.1459 1.8384a.4946.4946 0 0 1 0 .9733l-10.1461 1.8364a.4945.4945 0 0 0-.3297.7512z"/><path fill="#f4aa41" d="M60 60.9583H12a.9448.9448 0 0 1-1-1v-48a.9448.9448 0 0 1 1-1h48a.9448.9448 0 0 1 1 1v48a.9448.9448 0 0 1-1 1z"/><path fill="#fff" stroke="#fff" stroke-miterlimit="10" stroke-width="2" d="M42.976 39.0336l5.8858 9.2948a.4945.4945 0 0 1-.6956.6737l-8.9076-6.0479a.4946.4946 0 0 0-.7636.3165l-2.0082 10.5286a.4946.4946 0 0 1-.9716 0l-2.01-10.5287a.4946.4946 0 0 0-.7637-.3164l-8.9056 6.0479a.4946.4946 0 0 1-.6957-.6737l5.884-9.2948a.4946.4946 0 0 0-.33-.7512L18.5486 36.446a.4946.4946 0 0 1 0-.9733l10.1461-1.8384a.4946.4946 0 0 0 .33-.7511l-5.8847-9.295a.4946.4946 0 0 1 .6957-.6737l8.9056 6.0479a.4946.4946 0 0 0 .7637-.3164l2.01-10.5287a.4946.4946 0 0 1 .9716 0l2.0084 10.5286a.4946.4946 0 0 0 .7636.3165l8.9076-6.0479a.4945.4945 0 0 1 .6956.6737l-5.8859 9.2949a.4945.4945 0 0 0 .33.7512l10.1459 1.8384a.4946.4946 0 0 1 0 .9733l-10.1461 1.8364a.4945.4945 0 0 0-.3297.7512z"/><g><path fill="none" stroke="#000" stroke-linecap="round" stroke-linejoin="round" stroke-width="2" d="M60 60.9583H12a.9448.9448 0 0 1-1-1v-48a.9448.9448 0 0 1 1-1h48a.9448.9448 0 0 1 1 1v48a.9448.9448 0 0 1-1 1z"/></g></svg>