<svg xmlns="http://www.w3.org/2000/svg" role="img" viewBox="21.16 6.91 29.55 56.42"><title>2754.svg</title><g fill="#fff" stroke-miterlimit="10"><path d="M48.72 20.15c.3051 9.298-8.021 12.75-10.82 19.21v7.565c0 1.39-1.11 2.5-2.5 2.5-1.38 0-2.5-1.11-2.5-2.5V37.06c3.493-6.142 10.38-7.469 10.67-17.06 0-5.66-6.543-6.151-7.988-6.175h-.05c-5.767 1.187-6.135 4.99-7.289 9.549-.6671 1.521-1.564 2.045-2.9 2.03-1.36-.2401-2.26-1.54-2.02-2.9.5877-2.752.758-6.639 2.35-8.502 2.71-3.14 4.819-4.957 9.179-5.167.24 0 .49-.01.73-.01.09 0 .18 0 .27.01 8.27.2401 12.6 2.992 12.87 11.32z"/><circle cx="34.95" cy="58.84" r="3"/></g><circle cx="35.3" cy="58.84" r="2.625" fill="none" stroke="#000" stroke-linecap="round" stroke-linejoin="round" stroke-miterlimit="10" stroke-width="1.75"/><path d="M35.67 10.07c6.57 0 12.03 3.431 12.03 10.21 0 3.671-.48 6.526-3.71 9.755-3.956 3.956-7.184 6.346-7.208 8.549-.0651 5.826-.005 8.278-.0044 8.36a1.476 1.476 0 0 1-1.464 1.487h-.0115a1.476 1.476 0 0 1-1.476-1.464c-.0005-.0819-.0607-2.561.0044-8.416.0358-3.231 3.63-6.127 8.385-10.88 2.178-2.174 2.474-4.716 2.474-7.127 0-3.282-2.965-7.587-8.984-7.587-5.338 0-8.499 3.467-8.499 9.552a1.434 1.434 0 0 1-1.395 1.587 1.552 1.552 0 0 1-1.505-1.759c0-9.882 7.291-12.27 11.36-12.27m0-2c-4.964 0-13.36 3.005-13.36 14.27a3.519 3.519 0 0 0 3.505 3.759 3.418 3.418 0 0 0 3.395-3.587c0-3.445 1.128-7.552 6.499-7.552 4.817 0 6.984 3.267 6.984 5.587 0 2.364-.3155 4.144-1.886 5.712-.7515.75-1.474 1.454-2.157 2.12-3.933 3.833-6.775 6.602-6.815 10.15-.055 4.946-.0218 7.539-.005 8.424a3.476 3.476 0 1 0 6.952-.0248l-.0012-.075c-.0164-.8595-.0488-3.384.0056-8.248.0092-.8384 2.102-2.822 3.948-4.572.8091-.767 1.726-1.636 2.675-2.585 3.577-3.577 4.296-6.926 4.296-11.17 0-7.301-5.638-12.21-14.03-12.21z"/></svg>