<svg xmlns="http://www.w3.org/2000/svg" role="img" viewBox="18.01 10.13 35.87 51.74"><title>2763.svg</title><path fill="#FFA7C0" d="M52 20.65c0-4.7003-3.8103-8.5106-8.5106-8.5106-3.2363 0-6.0501 1.8067-7.4894 4.4662-1.4392-2.6595-4.2531-4.4662-7.4894-4.4662C23.8103 12.1394 20 15.9497 20 20.65c0 2.0221.7083 3.8769 1.8862 5.337l-.0029.0023L36 43.4855l14.1167-17.4962-.0029-.0023C51.2917 24.5268 52 22.672 52 20.65z"/><circle cx="36.022" cy="55.007" r="5" fill="#FFA7C0"/><g><circle cx="36.022" cy="55.007" r="5" fill="none" stroke="#000" stroke-miterlimit="10" stroke-width="2"/><path fill="none" stroke="#000" stroke-linejoin="round" stroke-miterlimit="10" stroke-width="2" d="M52 20.65c0-4.7003-3.8103-8.5106-8.5106-8.5106-3.2363 0-6.0501 1.8067-7.4894 4.4662-1.4392-2.6595-4.2531-4.4662-7.4894-4.4662C23.8103 12.1394 20 15.9497 20 20.65c0 2.0221.7083 3.8769 1.8862 5.337l-.0029.0023L36 43.4855l14.1167-17.4962-.0029-.0023C51.2917 24.5268 52 22.672 52 20.65z"/></g></svg>