<svg xmlns="http://www.w3.org/2000/svg" role="img" viewBox="17.41 5.54 36.92 56.55"><title>2764-FE0F-200D-1F525.svg</title><path fill="#fcea2b" d="M18.629 32.33c.1652-3.6387 1.89-7.3368 3.8645-10.5555.3726 5.0515 2.7617 5.2415 4.132 5.2415a2.6076 2.6076 0 0 0 2.194-2.6642c.0709-1.8961.5482-3.0035 3.4863-7.6968a1.8858 1.8858 0 0 0 .8226.1982c1.151 0 3.004-1.0749 1.4831-9.1284 0 0 11.3024 6.5754 10.8772 17.4629a1.4253 1.4253 0 0 0 1.4413 1.4091h.0178a1.7886 1.7886 0 0 0 .2071-.002 4.1813 4.1813 0 0 0 3.1888-1.8491c1.1984 2.0805 2.7433 4.5031 2.6821 6.826 1.6978 13.285-4.6306 16.3244-16.885 28.9311a.1908.1908 0 0 1-.2578.023C23.8059 48.6091 17.9349 47.6206 18.629 32.33z"/><path fill="#f1b31c" d="M37.0662 21.1478c-.307 1.0194-1.3305 2.7184-4.2988 5.6408-.1023.0679-.1023.1359-.2047.2039a4.7606 4.7606 0 0 0-1.6545 3.2764 3.1742 3.1742 0 0 0 .5287 1.5489A4.1463 4.1463 0 0 1 29 32.85c-.5977 0-1.8494-.4916-1.9461-1.2591a3.1109 3.1109 0 0 0-1.3628 2.5383c0 3.0341 1.6156 6.3085 6.3238 8.7552 0 0 1.3664.6226 1.4687 1.2343 0 0 0 .068.1023.068h5.4251c.2047 0 .2047 0 .2047-.068 0-.1359.4094-.8835 3.2752-2.5825a10.4424 10.4424 0 0 0 3.7871-3.602.573.573 0 0 0-.3872-.774.7864.7864 0 0 0-.2269-.0415 1.5464 1.5464 0 0 1-1.0232-.8156s-.2048-.5438.6141-1.7671a2.9946 2.9946 0 0 0 .6737-1.6311 1.0119 1.0119 0 0 0-1.2319-.511 1.0437 1.0437 0 0 0-.0987.0353 2.5017 2.5017 0 0 1-2.9255-.7476s-.7164-1.0873-.1023-3.7378c.4094-2.0389-1.0235-5.369-2.8659-7.0681-.5121-.4076-1.5356-.2717-1.638.2721z"/><path fill="#ea5a47" d="M52.0066 38.55a8.2608 8.2608 0 0 0-8.4989-8 8.6741 8.6741 0 0 0-6.764 3.1565.91.91 0 0 1-1.43 0A8.6743 8.6743 0 0 0 28.55 30.55a8.2607 8.2607 0 0 0-8.4989 8 8.3857 8.3857 0 0 0 1.6157 5.1966L34.65 59.7928c.363.4235 2.2357.661 2.6589.1471 2.6445-3.2111 13.1279-16.2238 13.1279-16.2238l.0242-.0325a7.729 7.729 0 0 0 1.5456-5.1336z"/><path fill="#fcea2b" d="M29.6627 45.1479c-.4856-.1059.71 2.3744-.3283 4.1533-1.1264 1.93-2.0578 2.9-1.5336 4.8814.5386 2.0351 3.7443 3.7842 3.8745 3.2175a1.5336 1.5336 0 0 0-.0495-.5452 3.469 3.469 0 0 1 .836-2.6247 4.4581 4.4581 0 0 0 .9262-3.8142c-.2438-1.9196-1.758-4.8389-3.7253-5.2681zm16.5603-8.8768c.5993-.225-.5392 2.8218 1.0472 4.5927 1.721 1.9211 3.0491 2.8077 2.6857 5.1473-.3733 2.4033-4.1707 5.068-4.4218 4.46a1.5572 1.5572 0 0 1-.02-.6231 3.5041 3.5041 0 0 0-1.4585-2.7652 4.5134 4.5134 0 0 1-1.7537-4.0813c.0172-2.2092 1.4922-5.8185 3.9211-6.7304z"/><g fill="none" stroke="#000" stroke-width="2"><path stroke-linecap="round" stroke-linejoin="round" d="M51.0551 38.55a8.0007 8.0007 0 0 0-15.04-3.8018 7.9991 7.9991 0 1 0-13.267 8.8185l-.0028.0022 2.946 3.6513M34.4615 58.09l1.5536 1.9255 6.2851-7.79"/><path stroke-linecap="round" stroke-linejoin="round" d="M19.63 32.1845A20.7728 20.7728 0 0 1 22.7537 21.75c.3726 5.0516 2.7617 5.2416 4.132 5.2416 1.0236 0 2.3016-1.906 2.4353-4.0118a10.2418 10.2418 0 0 1 3.245-6.35 1.883 1.883 0 0 0 .8226.1982c1.151 0 3.004-1.0749 1.4831-9.1283 0 0 11.3024 6.5754 10.8772 17.4629a1.4254 1.4254 0 0 0 1.4411 1.4093h.0176a1.813 1.813 0 0 0 .2072-.002 4.1811 4.1811 0 0 0 3.1887-1.85 12.724 12.724 0 0 1 1.7315 6.7043"/><path stroke-miterlimit="10" d="M32.4618 54.23a4.4581 4.4581 0 0 0 .9262-3.8142c-.2438-1.92-1.7576-4.8389-3.7253-5.2681-.4856-.1059.71 2.3744-.3283 4.1533-1.1264 1.93-2.0578 2.9-1.5336 4.8814.5386 2.0351 3.7443 3.7842 3.8745 3.2175a1.5336 1.5336 0 0 0-.0495-.5452 3.469 3.469 0 0 1 .836-2.6247zM46.223 36.2711c.5993-.225-.5392 2.8218 1.0472 4.5927 1.721 1.9211 3.0491 2.8077 2.6857 5.1473-.3733 2.4033-4.1707 5.068-4.4218 4.46a1.5572 1.5572 0 0 1-.02-.6231 3.5041 3.5041 0 0 0-1.4585-2.7652 4.5134 4.5134 0 0 1-1.7537-4.0813c.0172-2.2092 1.4922-5.8185 3.9211-6.7304z"/></g></svg>