<svg xmlns="http://www.w3.org/2000/svg" role="img" viewBox="16.75 10.00 39.37 51.87"><title>2934.svg</title><path fill="#3F3F3F" stroke-linecap="round" stroke-linejoin="round" stroke-miterlimit="10" stroke-width="2" d="M40.1841 12L26.1294 26.8587l3.7285 3.413 7.5107-7.9438v16.4924c0 10.5232-5.7598 15.6386-17.6094 15.6386h-1V60h1c14.9902 0 23.2461-7.522 23.2461-21.1797V22.3331l7.5078 7.9386 3.7275-3.413L40.1841 12z"/><path fill="none" stroke="#000" stroke-linecap="round" stroke-linejoin="round" stroke-miterlimit="10" stroke-width="2" d="M40.1841 12L26.1294 26.8587l3.7285 3.413 7.5107-7.9438v16.4924c0 10.5232-5.7598 15.6386-17.6094 15.6386h-1V60h1c14.9902 0 23.2461-7.522 23.2461-21.1797V22.3331l7.5078 7.9386 3.7275-3.413L40.1841 12z"/></svg>