<svg xmlns="http://www.w3.org/2000/svg" role="img" viewBox="8.69 5.06 54.50 61.75"><title>2B21.svg</title><path fill="#FFF" d="M35 7.577c.619-.357 1.381-.357 2 0l23.115 13.346c.619.357 1 1.017 1 1.732v26.69c0 .715-.381 1.375-1 1.732L37 64.423c-.619.357-1.381.357-2 0L11.885 51.077c-.619-.357-1-1.017-1-1.732v-26.69c0-.715.381-1.375 1-1.732L35 7.577z"/><path fill="none" stroke="#000" stroke-width="2" d="M35 7.577c.619-.357 1.381-.357 2 0l23.115 13.346c.619.357 1 1.017 1 1.732v26.69c0 .715-.381 1.375-1 1.732L37 64.423c-.619.357-1.381.357-2 0L11.885 51.077c-.619-.357-1-1.017-1-1.732v-26.69c0-.715.381-1.375 1-1.732L35 7.577z"/></svg>