<svg xmlns="http://www.w3.org/2000/svg" role="img" viewBox="9.21 5.71 53.45 60.45"><title>2B21-FE0F-200D-1F308.svg</title><g fill-rule="evenodd" clip-rule="evenodd"><path fill="#B399C8" d="M33.7447 63l-15.9304-9.1978h36.3714L38.2553 63h-4.5106z"/><path fill="#92D3F5" d="M17.8142 53.8022l-5.3487-3.0882c-.604-.3484-.9759-.9925-.9759-1.6903v-4.1226h49.0207v4.1226c0 .6978-.3718 1.3419-.9759 1.6903l-5.3487 3.0882H17.8142z"/><path fill="#B1CC33" d="M11.4896 44.9011V36h49.0207v8.9011H11.4896z"/><path fill="#FCEA2B" d="M11.4896 36v-8.9011h49.0207V36H11.4896z"/><path fill="#F4AA41" d="M11.4896 27.0989v-4.1226c0-.6978.3719-1.3419.9759-1.6903l5.3487-3.0882h36.3715l5.3487 3.0882c.6041.3484.9759.9925.9759 1.6903v4.1226H11.4896z"/><path fill="#EA5A47" d="M17.8142 18.1978L33.7446 9h4.5107l15.9304 9.1978H17.8142z"/></g><path fill="none" stroke="#000" stroke-width="2" d="M35.024 8.2613c.6041-.3484 1.3478-.3484 1.9519 0L59.5344 21.286c.6041.3484.9759.9925.9759 1.6903v26.0474c0 .6978-.3718 1.3419-.9759 1.6903L36.9759 63.7387c-.6041.3484-1.3478.3484-1.9519 0L12.4655 50.714c-.604-.3484-.9759-.9925-.9759-1.6903V22.9763c0-.6978.3719-1.3419.9759-1.6903L35.024 8.2613z"/></svg>