<svg xmlns="http://www.w3.org/2000/svg" role="img" viewBox="9.34 5.71 53.33 60.45"><title>2B22.svg</title><path d="M35.0344 8.2613c.6041-.3484 1.3478-.3484 1.9519 0L59.5448 21.286c.6041.3484.9759.9925.9759 1.6903v26.0474c0 .6978-.3718 1.3419-.9759 1.6903L36.9863 63.7387c-.6041.3484-1.3478.3484-1.9519 0L12.4759 50.714c-.6041-.3484-.9759-.9925-.9759-1.6903V22.9763c0-.6978.3718-1.3419.9759-1.6903L35.0344 8.2613z"/><path fill="#3F3F3F" d="M35.0344 8.2613c.6041-.3484 1.3478-.3484 1.9519 0L59.5448 21.286c.6041.3484.9759.9925.9759 1.6903v26.0474c0 .6978-.3718 1.3419-.9759 1.6903L36.9863 63.7387c-.6041.3484-1.3478.3484-1.9519 0L12.4759 50.714c-.6041-.3484-.9759-.9925-.9759-1.6903V22.9763c0-.6978.3718-1.3419.9759-1.6903L35.0344 8.2613z"/><path fill="none" stroke="#000" stroke-width="2" d="M35.0344 8.2613c.6041-.3484 1.3478-.3484 1.9519 0L59.5448 21.286c.6041.3484.9759.9925.9759 1.6903v26.0474c0 .6978-.3718 1.3419-.9759 1.6903L36.9863 63.7387c-.6041.3484-1.3478.3484-1.9519 0L12.4759 50.714c-.6041-.3484-.9759-.9925-.9759-1.6903V22.9763c0-.6978.3718-1.3419.9759-1.6903L35.0344 8.2613z"/></svg>