<svg xmlns="http://www.w3.org/2000/svg" role="img" viewBox="5.71 9.34 60.45 53.20"><title>2B23.svg</title><path d="M8.2613 36.976c-.3484-.6041-.3484-1.3477 0-1.9518L21.286 12.4657c.3484-.6041.9925-.976 1.6903-.976h26.0474c.6978 0 1.3419.3719 1.6903.976l13.0247 22.5585c.3484.6041.3484 1.3477 0 1.9518L50.714 59.5345c-.3484.6041-.9925.9759-1.6903.9759H22.9763c-.6978 0-1.3419-.3718-1.6903-.9759L8.2613 36.976z"/><path fill="#3F3F3F" d="M8.2613 36.976c-.3484-.6041-.3484-1.3477 0-1.9518L21.286 12.4657c.3484-.6041.9925-.976 1.6903-.976h26.0474c.6978 0 1.3419.3719 1.6903.976l13.0247 22.5585c.3484.6041.3484 1.3477 0 1.9518L50.714 59.5345c-.3484.6041-.9925.9759-1.6903.9759H22.9763c-.6978 0-1.3419-.3718-1.6903-.9759L8.2613 36.976z"/><path fill="none" stroke="#000" stroke-width="2" d="M8.2613 36.976c-.3484-.6041-.3484-1.3477 0-1.9518L21.286 12.4657c.3484-.6041.9925-.976 1.6903-.976h26.0474c.6978 0 1.3419.3719 1.6903.976l13.0247 22.5585c.3484.6041.3484 1.3477 0 1.9518L50.714 59.5345c-.3484.6041-.9925.9759-1.6903.9759H22.9763c-.6978 0-1.3419-.3718-1.6903-.9759L8.2613 36.976z"/></svg>