<svg xmlns="http://www.w3.org/2000/svg" role="img" viewBox="3.63 3.76 64.48 64.36"><title>2B24.svg</title><path stroke="#000" stroke-linejoin="round" stroke-width="2" d="M36 66.0001c16.5685 0 30-13.4314 30-30C66 19.4316 52.5685 6.00012 36 6.00012S6 19.4316 6 36.0001c0 16.5686 13.4315 30 30 30z"/><path fill="#3F3F3F" stroke="#000" stroke-linejoin="round" stroke-width="2" d="M36 66.0001c16.5685 0 30-13.4314 30-30C66 19.4316 52.5685 6.00012 36 6.00012S6 19.4316 6 36.0001c0 16.5686 13.4315 30 30 30z"/><path fill="none" stroke="#000" stroke-linejoin="round" stroke-width="2" d="M36 66.0001c16.5685 0 30-13.4314 30-30C66 19.4316 52.5685 6.00012 36 6.00012S6 19.4316 6 36.0001c0 16.5686 13.4315 30 30 30z"/></svg>