<svg xmlns="http://www.w3.org/2000/svg" role="img" viewBox="7.92 7.92 56.03 56.03"><title>2BC3.svg</title><path d="M24.6621 10.5685c.364-.364.8576-.5685 1.3723-.5685h19.9314c.5147 0 1.0084.2045 1.3724.5685l14.0936 14.0936c.364.364.5685.8576.5685 1.3723v19.9314c0 .5147-.2045 1.0084-.5685 1.3724L47.3382 61.4318c-.364.364-.8577.5685-1.3724.5685H26.0344c-.5147 0-1.0083-.2045-1.3723-.5685L10.5685 47.3382A1.94094 1.94094 0 0 1 10 45.9658V26.0344c0-.5147.2045-1.0083.5685-1.3723l14.0936-14.0936z"/><path fill="#3F3F3F" d="M24.6621 10.5685c.364-.364.8576-.5685 1.3723-.5685h19.9314c.5147 0 1.0084.2045 1.3724.5685l14.0936 14.0936c.364.364.5685.8576.5685 1.3723v19.9314c0 .5147-.2045 1.0084-.5685 1.3724L47.3382 61.4318c-.364.364-.8577.5685-1.3724.5685H26.0344c-.5147 0-1.0083-.2045-1.3723-.5685L10.5685 47.3382A1.94094 1.94094 0 0 1 10 45.9658V26.0344c0-.5147.2045-1.0083.5685-1.3723l14.0936-14.0936z"/><path fill="none" stroke="#000" stroke-width="2" d="M24.6621 10.5685c.364-.364.8576-.5685 1.3723-.5685h19.9314c.5147 0 1.0084.2045 1.3724.5685l14.0936 14.0936c.364.364.5685.8576.5685 1.3723v19.9314c0 .5147-.2045 1.0084-.5685 1.3724L47.3382 61.4318c-.364.364-.8577.5685-1.3724.5685H26.0344c-.5147 0-1.0083-.2045-1.3723-.5685L10.5685 47.3382A1.94094 1.94094 0 0 1 10 45.9658V26.0344c0-.5147.2045-1.0083.5685-1.3723l14.0936-14.0936z"/></svg>