<svg xmlns="http://www.w3.org/2000/svg" role="img" viewBox="4.84 25.97 60.19 22.32"><title>3030.svg</title><path fill="#3F3F3F" d="M16 37.1661c1 3 2.2386 5 5 5 2.7495 0 3.9892-1.9827 4.987-4.9611.0043-.013.0087-.0259.013-.0389l.0172-.0514c1.797-5.3715 4.0281-8.9486 8.9828-8.9486 4.9706 0 7.2 3.6 9 9l.0382.1138c1.1198 2.906 2.2354 4.8862 4.9618 4.8862 2.7614 0 4-2 5-5l.0209-.0625.023-.0684c1.7925-5.3272 4.0259-8.8691 8.9562-8.8691V33.1661c-2.6345.3308-4.2753 1.8259-5 4l-.0814.242c-1.7862 5.2653-4.0227 8.758-8.9186 8.758-4.9463 0-7.1782-3.5649-8.9736-8.921l-.1149-.34c-.9456-2.8536-2.2311-4.739-4.9116-4.739-2.7614 0-4 2-5 5l-.06.1788c-1.7897 5.3005-4.0245 8.8212-8.94 8.8212-4.9706 0-7.2-3.6-9-9l-.0302-.0888C11.2303 34.9514 9.5985 33.4925 7 33.1661V28.1661c4.9706 0 7.2 3.6 9 9"/><path fill="none" stroke="#000" stroke-linecap="round" stroke-linejoin="round" stroke-width="2" d="M16 37.1661c1 3 2.2386 5 5 5 2.7495 0 3.9892-1.9827 4.987-4.9611.0043-.013.0087-.0259.013-.0389l.0172-.0514c1.797-5.3715 4.0281-8.9486 8.9828-8.9486 4.9706 0 7.2 3.6 9 9l.0382.1138c1.1198 2.906 2.2354 4.8862 4.9618 4.8862 2.7614 0 4-2 5-5h0l.0209-.0625.023-.0684c1.7925-5.3272 4.0259-8.8691 8.9562-8.8691V33.1661c-2.6345.3308-4.2753 1.8259-5 4l-.0814.242c-1.7862 5.2653-4.0227 8.758-8.9186 8.758-4.9463 0-7.1782-3.5649-8.9736-8.921l-.1149-.34c-.9456-2.8536-2.2311-4.739-4.9116-4.739-2.7614 0-4 2-5 5l-.06.1788c-1.7897 5.3005-4.0245 8.8212-8.94 8.8212-4.9706 0-7.2-3.6-9-9l-.0302-.0888C11.2303 34.9514 9.5985 33.4925 7 33.1661V28.1661c4.9706 0 7.2 3.6 9 9"/></svg>