<svg xmlns="http://www.w3.org/2000/svg" role="img" viewBox="5.84 5.84 60.19 60.19"><title>3299.svg</title><circle cx="36" cy="36" r="28" fill="#d0cfce" stroke-linejoin="round" stroke-miterlimit="10" stroke-width="2"/><circle cx="36" cy="36" r="28" fill="none" stroke="#000" stroke-linejoin="round" stroke-miterlimit="10" stroke-width="2"/><path d="M35.3341 33.4407l-.6632-.0353v-.0002l-.0001.0002-.6768-.036c-.3212-.0171-.5928.2257-.6167.5465-.0815 1.0914-.238 2.3781-.4571 3.5486-.8815-1.3236-2.0402-2.6079-2.6952-3.2968h2.3179c.1716 0 .3107-.1391.3107-.3107v-1.8953c0-.1716-.1391-.3107-.3107-.3107H30.051l-.0297-3.772c.8814-.2435 1.7432-.5234 2.4752-.8512.1605-.0719.2223-.2648.1456-.423l-.8218-1.6944c-.0756-.1558-.254-.2212-.4126-.1517-2.204.9664-5.9578 1.5451-7.0423 1.6978-.1692.0238-.2841.1781-.263.3476l.2 1.5999c.0408.3264.3353.557.6609.5096.5661-.0826 1.493-.2319 2.5458-.4429l.0251 3.1803H24.159c-.1716 0-.3107.1391-.3107.3107v1.8953c0 .1716.1391.3107.3107.3107h2.8901c-.6784 1.8816-1.928 4.9747-3.4249 6.939-.1916.2515-.1661.6026.073.8094l.523.4526.4923.4259c.2512.2174.6391.1913.8424-.0714.7562-.9772 1.4426-2.1705 2.0399-3.3755l.0653 8.2967c.0014.1716.1415.3095.3131.3082l1.8954-.0148c.1715-.0013.3095-.1415.3082-.313l-.0769-9.7653c.2673.3413.5283.6945.76 1.0466.1689.2568.5142.329.7797.1741l.5941-.3466.0001.0001c0-.0001-.0001-.0001-.0001-.0002l.4748-.2769c-.1692.7107-.3626 1.3369-.5813 1.7705-.1252.2482-.0666.5427.1485.7187l.5777.4728v.0001l.0001-.0001.4723.3865c.282.2306.706.1582.886-.1585 1.1607-2.0416 1.5578-5.9253 1.6779-7.583.0237-.3281-.2271-.6054-.5556-.6229zm3.5225-6.9818c1.0233.6545 3.0896 2.1028 3.969 3.2564.0995.1306.2721.1664.4106.0783.3997-.2542 1.1874-.7553 1.6041-1.0203.1499-.0953.1964-.2961.0921-.4399-1.2244-1.6886-3.8566-3.4452-4.748-4.0129-.1468-.0935-.338-.0487-.429.0996-.2541.4139-.741 1.2071-.9932 1.618-.0882.1435-.0477.3299.0944.4208z"/><path d="M47.6392 32.1353c-.046-.094-.1175-.1617-.1975-.2159.9863-2.7267 1.4288-4.8836 1.5634-5.666.0296-.1719-.0897-.3268-.2623-.3524l-1.877-.2788c-.166-.0247-.3205.0863-.3511.2514-.2414 1.3012-1.4128 6.6694-4.7567 11.8837v-7.6765c0-.1716-.1391-.3107-.3107-.3107H39.552c-.1716 0-.3107.1391-.3107.3107v11.0364c-1.2019 1.362-2.5877 2.6437-4.1908 3.7533-.1382.0957-.1765.2823-.0827.4218l1.0572 1.5732c.0975.1451.2983.1837.4424.0848 1.0215-.7016 1.9406-1.4732 2.8055-2.274.1597 1.657 1.5398 2.9573 3.2387 2.9573h2.5845c1.4989 0 2.7667-1.1086 2.9666-2.5941l.3342-2.484c.0229-.1701-.0964-.3265-.2665-.3493l-1.8782-.2525c-.17-.0229-.3264.0964-.3493.2664l-.3342 2.4833c-.0319.2369-.2341.4137-.4731.4137h-2.8608c-.2622 0-.4768-.2146-.4768-.4768v-2.591c1.8926-2.2852 3.3249-4.7137 4.3851-6.9827.4209 1.165.8224 2.6361.843 4.0805.0024.1663.13.3003.2964.3041l1.8972.0438c.1753.004.3247-.1384.3233-.3138-.0239-2.9499-1.2868-5.8654-1.8638-7.0459z"/></svg>