<svg xmlns="http://www.w3.org/2000/svg" role="img" viewBox="4.80 21.80 62.27 28.27"><title>E000.svg</title><path fill="#F1B31C" d="M7 24c0 4.5035 1.4885 8.6593 4.0003 12.0024l-.0056.0027C8.4863 39.3469 7 43.4999 7 48c5.7457-.9598 10.2971-4.5961 11.6138-9.2434l.0066-.0057C21.0555 44.0525 30.375 48 41.5 48 54.4787 48 65 42.6274 65 36S54.4787 24 41.5 24c-11.127 0-20.4478 3.9489-22.8809 9.252l.0089.0042C17.3466 28.6438 12.8817 25.0183 7.2187 24"/><path fill="#E27022" d="M33.5741 47.3004C36.0503 47.7533 38.7187 48 41.5 48 54.4787 48 65 42.6274 65 36c0-5.4539-7.1253-10.0581-16.8818-11.5175L33.5741 47.3004z"/><g><path fill="none" stroke="#000" stroke-linecap="round" stroke-linejoin="round" stroke-miterlimit="10" stroke-width="2" d="M7 24c0 4.5035 1.4885 8.6593 4.0003 12.0024l-.0056.0027C8.4863 39.3469 7 43.4999 7 48c5.7457-.9598 10.2971-4.5961 11.6138-9.2434l.0066-.0057C21.0555 44.0525 30.375 48 41.5 48 54.4787 48 65 42.6274 65 36S54.4787 24 41.5 24c-11.127 0-20.4478 3.9489-22.8809 9.252l.0089.0042C17.3466 28.6438 12.8817 25.0183 7.2187 24z"/><circle cx="53" cy="34" r="2"/></g></svg>