<svg xmlns="http://www.w3.org/2000/svg" role="img" viewBox="3.36 7.73 65.78 54.91"><title>E001.svg</title><path fill="#9b9b9a" d="M57.63 26.17v6.052l-.1816 9.726c.7836 2.203 3.635 10.68 9.632 9.014l-2.08-1.961-1-2s-.7087-7.71-.7014-8.107c.0073-.3975-.6129-6.672-.6129-6.672l-2.138-4.543zm-12.21 13.4l2.375 6.916-1.708 5.821-2.916 5.092.5595 1.822 2.339.08633 2.903-1.645 4.044-10.13-.3066-1.341s-2.295-6.365-3.485-8.242z"/><path fill="#d0cfce" d="M10 11l1.31 4.145c-1.752 3.865-3.739 7.616-5.623 11.42.6705 1.348 1.54 2.649 3.204 2.205 1.984.6069 2.247-1.583 3.315-2.739 1.805.11 3.454-1.772 4.179.7548.7257 2.527 3.196 3.488 3.526 6.032.5046 2.556.4774 5.554 2.163 7.637 1.045 2.084 4.09 2.407 4.45 4.775.9437 3.618 2.043 7.198 2.901 10.84-.9267 1.922-.2105 5.793 2.482 3.707 1.488-2.017 1.106-4.229.4183-6.445-.3097-2.292-.6345-4.576-.3681-6.887.06374-1.28.1275-2.56.1912-3.84l7.759 3.765c3.27-1.203 6.841-1.355 9.937-2.94 7.28 9.074 5.599 7.407 5.002 9.597l-.6871 4.305c-2.418.6647-.5457 3.999 1.45 2.375 1.481-1.944 1.71-4.81 2.912-7.03.9828-2.047 1.329-4.546.06681-6.54l-1.99-4.475c4.963-2.284 4.866-9.681 1.926-15.22-2.47-.6383-4.897-1.92-7.516-1.308-3.586.01145-7 1.424-10.57 1.352-3.476-.2993-7.09.08479-10.41-1.166-2.153-2.069-3.635-4.884-5.964-6.754-2.728-1.784-5.67-3.149-8.7-4.305-1.599-.8737-2.978-2.083-4.359-3.257"/><path fill="#9b9b9a" d="M21.87 41l.6502 6.214 1.508 3.036-1.133 6.472-1.025.903 1.079 1.571 2.258-.6175s1.876-1.641 1.876-2.016 2-4.188 2-4.188l-1.938-6.902-1.669-2.66-3.606-1.812z"/><g fill="none" stroke="#000" stroke-linecap="round" stroke-linejoin="round" stroke-miterlimit="10" stroke-width="2"><path d="M16.31 22.62c-.264 3.606-4.312 4.375-4.312 4.375l-1 1c-1.304 2.826-5.312.625-5.312-1.438 1.508-3.415 3.062-5.75 3.062-5.75-.125-2.792 3.312-4.625 3.312-4.625l-1.278-1.772c-.4364-.5685-2.498-4.348-1.785-4.416 1.253-.1186 6.042 2.815 7 4.938 0 0 8.865.9329 13.96 10.43.238.4441 9.877 2.308 16.07.4421 4.284-1.29 17.05-2.062 17.28 10.5.117 6.406-.5624 9.268 3.688 13.69"/><path d="M59.19 37.02c-.4424 1.631-1.221 3.426-2.589 4.642 0 0 1.096 4.786 3.172 6.804l-2.71 9.167-1.062 1.927c-.3055.5545-.8885.8989-1.522.8989v0c-1.252 0-2.096-1.276-1.594-2.423.968-2.212 2.16-2.956 2.389-8.301 0 0-6.612-3.939-5.632-9.837M17.78 27.49l2.668 5.633s-1.153 6.343 3.287 9.168l2.422 1.557 2.513 9.234.9167 3.833-.4839 1.213c-.4446 1.114.3761 2.325 1.576 2.325v0c.7126 0 1.349-.4454 1.594-1.115l.7465-2.045c.2401-.6576.2986-1.368.1694-2.056l-1.331-4.089-.1597-8.684c.0001.0001 7.634 6.18 15.02 2.145M23.51 47.21l.6035 4.42-1.74 4.287-.3672.9192c-.482 1.207.4068 2.519 1.706 2.519h0c.7335 0 1.397-.4362 1.687-1.11l.7899-1.831M48.07 57.22l-1.459 1.647c-.4197.4739-1.064.682-1.682.5431v0c-1.221-.2748-1.764-1.705-1.023-2.714 1.43-1.946 2.756-2.41 4.153-7.574"/></g></svg>