<svg xmlns="http://www.w3.org/2000/svg" role="img" viewBox="10.22 4.85 55.93 59.93"><title>E004.svg</title><path fill="#3f3f3f" d="M30.488 54.618c.40316 1.0322 1.1544 4.1685.56439 4.5874-.0393.0283-.0851.0437-.13677.0467-.19108.009-.47061-.16726-.86303-.59882-2.0599-1.5336-4.9982.51116-6.9868-.6529-.80032-.46845-1.2022-1.2239-1.4915-1.7917-.46148.7394-1.075 2.2683-2.1236 2.6224-1.8358.5511-4.5889.37522-5.8969 3.8416-1.1916-3.6368-2.3829-6.2308 2.0593-9.292 1.5604-1.057 3.9738-2.9534 4.04-4.4242-.016-2.082.215-16.534 11.348-23.956 0 0 24-15 33 9 0 0 2 4-16 4 0 0-2 5-9 5 0 0-2 0 1-5 0 0-12.846 1.3245-16.145 11.339-1.0633 4.0723 5.5319 2.4578 6.6335 5.2783z"/><path fill="#fff" d="M52.984 33.612c-1.0181-.0458-2.2292.0491-3.7988.41406-4.1857.9733-3.1856.97461-3.1856.97461l2.9863 2.9863c9.9552-.0888 13.402-1.4506 14.531-2.5625l-.51758-.42383s-3.5-.16739-5.75-.58399c-1.4062-.26043-2.5688-.72836-4.2656-.80468z"/><g><path fill="none" stroke="#000" stroke-linecap="round" stroke-linejoin="round" stroke-miterlimit="10" stroke-width="2" d="M40 16l-3-9m6.571 9.947s-.8919-8.1978 1.8078-5.8079M38.268 18.596s-5.2012-6.399-5.4005-2.799"/><circle cx="47" cy="13" r="1"/><path fill="none" stroke="#000" stroke-linecap="round" stroke-linejoin="round" stroke-miterlimit="10" stroke-width="2" d="M63 35s-3.5-.167-5.75-.583c-2.25-.417-3.879-1.364-8.064-.39C45 35 46 35 46 35l3 3"/><path fill="none" stroke="#000" stroke-linecap="round" stroke-linejoin="round" stroke-miterlimit="10" stroke-width="2" d="M30.488 54.618c.40316 1.0322 1.1544 4.1685.56439 4.5874v0c-.0393.0283-.0851.0437-.13677.0467-.19108.009-.47061-.16726-.86303-.59882-2.0599-1.5336-4.9982.51116-6.9868-.6529-.80032-.46845-1.2022-1.2239-1.4915-1.7917-.46148.7394-1.075 2.2683-2.1236 2.6224-1.8358.5511-4.5889.37522-5.8969 3.8416-1.1916-3.6368-2.3829-6.2308 2.0593-9.292 1.5604-1.057 3.9738-2.9534 4.04-4.4242-.016-2.082.215-16.534 11.348-23.956 0 0 24-15 33 9 0 0 2 4-16 4 0 0-2 5-9 5 0 0-2 0 1-5 0 0-12.846 1.3245-16.145 11.339-1.0633 4.0723 5.5319 2.4578 6.6335 5.2783z"/></g></svg>