<svg xmlns="http://www.w3.org/2000/svg" role="img" viewBox="6.43 13.55 55.64 51.27"><title>E005.svg</title><path fill="#3f3f3f" d="M27 25s1-5-2-8 6.3333-.8333 8.6667 6.0833c0 0 19.333-2.083 26.333 10.917 0 0 2 4-16 4 0 0-2 5-9 5 0 0-2 0 1-5 0 0-10-.5-15.5 9.75-.29517.57883-.50441 1.2045-.62771 1.7365-1.0477 4.0472 5.5475 2.4327 6.6491 5.2532.40316 1.0322 1.1544 4.1685.56439 4.5874-.0393.0283-.0851.0437-.13677.0467-.19108.009-.47061-.16726-.86303-.59882-2.0599-1.5336-4.9982.51116-6.9868-.6529-.80032-.46845-1.2022-1.2239-1.4915-1.7917-.46148.7394-1.075 2.2683-2.1236 2.6224-1.8358.5511-4.5889.37522-5.8969 3.8416-1.1916-3.6368-2.3829-6.2308 2.0593-9.292 1.5604-1.057 3.9503-2.6878 4.0085-4.1251.013-.227-.646-16.38 11.347-24.376z"/><path fill="#fff" d="M48.984 33.613c-1.0181-.0458-2.2292.0491-3.7988.41406-4.1857.9733-3.1856.97266-3.1856.97266l2.9863 2.9863c9.8869-.0882 13.355-1.4313 14.508-2.5391l-.494-.447s-3.5-.16739-5.75-.58399c-1.4062-.26044-2.5688-.72641-4.2656-.80273z"/><g fill="none" stroke="#000" stroke-linecap="round" stroke-linejoin="round" stroke-miterlimit="10" stroke-width="2"><path d="M59 35s-3.5-.167-5.75-.583c-2.25-.417-3.879-1.364-8.064-.39C41 35 42 35 42 35l3 3"/><path d="M27 25s1-5-2-8 6.3333-.8333 8.6667 6.0833c0 0 19.333-2.083 26.333 10.917 0 0 2 4-16 4 0 0-2 5-9 5 0 0-2 0 1-5 0 0-10-.5-15.5 9.75-.29517.57883-.50441 1.2045-.62771 1.7365-1.0477 4.0472 5.5475 2.4327 6.6491 5.2532.40316 1.0322 1.1544 4.1685.56439 4.5874-.0393.0283-.0851.0437-.13677.0467-.19108.009-.47061-.16726-.86303-.59882-2.0599-1.5336-4.9982.51116-6.9868-.6529-.80032-.46845-1.2022-1.2239-1.4915-1.7917-.46148.7394-1.075 2.2683-2.1236 2.6224-1.8358.5511-4.5889.37522-5.8969 3.8416-1.1916-3.6368-2.3829-6.2308 2.0593-9.292 1.5604-1.057 3.9503-2.6878 4.0085-4.1251.013-.227-.646-16.38 11.347-24.376z"/></g></svg>