<svg xmlns="http://www.w3.org/2000/svg" role="img" viewBox="6.57 25.07 61.23 35.23"><title>E007.svg</title><path fill="#9b9b9a" fill-rule="evenodd" d="M17.154 41.67c-4.0967 4.4017-2.5874 7.4296-2.3357 10.281.23887 2.7069 3.7445 1.5681 5.7063 1.0804 2.9004-.74737 1.5269-2.2741 1.1444-5.7928"/><path fill="#d0cfce" d="M8.7655 31.025c.81988-.56729 2.1438-.99955 3.9648-1.2383 2.185-1.6533 5.0324-2.9503 7.7129-2.2637 2.3505.6749 4.1384 3.5761 6.6612 5.4019 13.747 2.7251 12.211 10.811 21.843 9.1025 3.9363-.69814.85426-4.6415 3.0901-6.6835.81827-.74732 3.4747-2.5759 4.0777-2.1759.0402.0266.072.0635.0928.11082.0768.17521.0132.49928-.24849 1.0206-.69049 2.4736 2.2739 4.4802 1.9027 6.7544-.1494.91522-.70981 1.5619-1.1357 2.0359.85589.1648 2.5031.18754 3.2106 1.0387 1.1743 1.5149 2 4.1472 5.7048 4.1214-2.9652 2.4194-6.159 3.1053-10.613.0607-1.495-.885-2.964-1.359-4.258-.934-8.148 3.164-28.134 7.516-36.241-5.196-4.7141-2.292-4.7638-6.448-5.7655-11.155z"/><path fill="#d0cfce" fill-rule="evenodd" d="M22.114 47.287c-3.5057 5.0051-.48733 6.5736 2.4521 9.9594 1.7815 2.052 3.0762.28324 4.0269-.39377 2.0174-2.2137 1.3539-5.4-.89321-8.1346"/><g fill="none" stroke="#000" stroke-linecap="round" stroke-linejoin="round" stroke-width="2"><path d="M9.5749 32.081c4.7119 1.5933 4.0971 5.3457 9.4696 5.4394"/><path stroke-miterlimit="10" d="M21.39 48.322c-2.775-1.34-5.026-3.266-6.859-6.142-4.7141-2.292-4.7638-6.448-5.7655-11.155.81988-.56729 2.1438-.99955 3.9648-1.2383 2.185-1.6533 5.0324-2.9503 7.7129-2.2637 2.3505.6749 4.1384 3.5761 6.6612 5.4019 13.747 2.7251 12.211 10.811 21.843 9.1025 3.9363-.69814.85426-4.6415 3.0901-6.6835.81827-.74732 3.4747-2.5759 4.0777-2.1759.0402.0266.072.0635.0928.11082.0768.17521.0132.49928-.24849 1.0206-.69049 2.4736 2.2739 4.4802 1.9027 6.7544-.1494.91522-.70981 1.5619-1.1357 2.0359.85589.1648 2.5031.18754 3.2106 1.0387 1.1743 1.5149 2 4.1472 5.7048 4.1214-2.9652 2.4194-6.159 3.1053-10.613.0607-1.4945-.88589-2.9636-1.3599-4.2574-.93508-4.8275 1.8746-13.601 4.1664-21.807 3.0792"/><path d="M22.114 47.287c-3.5057 5.0051-.48733 6.5736 2.4521 9.9594 1.7815 2.052 3.0762.28324 4.0269-.39377 2.0174-2.2137 1.3539-5.4-.89321-8.1346"/><path d="M15.6 43.667c-2.0954 3.3619-.99341 5.8859-.7817 8.2851.23887 2.7069 3.7445 1.5681 5.7063 1.0804.18502-.04768.18104-.09852.33264-.15286"/></g></svg>