<svg xmlns="http://www.w3.org/2000/svg" role="img" viewBox="2.59 13.34 66.56 43.81"><title>E047.svg</title><path fill="#B1CC33" fill-rule="evenodd" d="M20.653 28.0593C11.3028 33.3972 5 43.4626 5 55c0 .3346.0053.668.01582 1H66.9842c.0105-.332.0158-.6654.0158-1 0-11.5374-6.3028-21.6028-15.653-26.9407l4.853-8.4057c.5523-.9566.2245-2.1798-.7321-2.7321-.9565-.5522-2.1797-.2245-2.732.7321l-4.9928 8.6478C44.1212 24.8179 40.1561 24 36 24s-8.1212.8179-11.743 2.3014l-4.9929-8.6478c-.5523-.9566-1.7755-1.2844-2.732-.7321-.9566.5523-1.2844 1.7755-.7321 2.7321l4.853 8.4057z" clip-rule="evenodd"/><path d="M20.653 27.0593l.4958.8684a.99942.99942 0 0 0 .4695-.6072 1.00008 1.00008 0 0 0-.0992-.7612l-.8661.5zM5.01582 55l-.99949.0317c.0171.5397.45954.9683.99949.9683v-1zm61.96838 0v1c.5399 0 .9824-.4286.9995-.9683L66.9842 55zM51.347 27.0593l-.8661-.5c-.133.2304-.1687.5043-.0992.7612a.99978.99978 0 0 0 .4695.6072l.4958-.8684zm4.853-8.4057l.866.5-.866-.5zm-.7321-2.7321l.5-.866-.5.866zm-2.732.7321l-.866-.5.866.5zm-4.9928 8.6478l-.3791.9254c.463.1897.9949.008 1.2451-.4254l-.866-.5zm-23.4861 0l-.8661.5c.2502.4333.7821.6151 1.2451.4254l-.379-.9254zm-4.9929-8.6478l-.866.5.866-.5zm-2.732-.7321l-.5-.866.5.866zM15.8 18.6536l-.866.5.866-.5zM6 54c0-11.164 6.0976-20.905 15.1488-26.0723l-.9915-1.7369C10.508 31.6995 4 42.0891 4 54h2zm.01532.9683A30.56545 30.56545 0 0 1 6 54H4c0 .3452.00547.6891.01633 1.0317l1.99899-.0634zM66.9842 54H5.01582v2H66.9842v-2zM66 54c0 .324-.0051.6468-.0153.9683l1.999.0634C67.9945 54.6891 68 54.3452 68 54h-2zM50.8512 27.9277C59.9024 33.095 66 42.836 66 54h2c0-11.9109-6.508-22.3005-16.1573-27.8091l-.9915 1.7368zm4.4828-9.7741l-4.8531 8.4057 1.7321 1 4.853-8.4057-1.732-1zm-.3661-1.366c.4783.2761.6422.8877.3661 1.366l1.732 1c.8285-1.4349.3368-3.2697-1.0981-4.0981l-1 1.7321zm-1.366.366c.2762-.4783.8878-.6422 1.366-.366l1-1.7321c-1.4348-.8284-3.2696-.3368-4.098 1.0981l1.732 1zm-4.9928 8.6478l4.9928-8.6478-1.732-1-4.9929 8.6478 1.7321 1zM36 24c4.0239 0 7.8603.7917 11.364 2.2268l.7581-1.8507C44.382 22.8441 40.2883 22 36 22v2zm-11.364 2.2268C28.1397 24.7917 31.9761 24 36 24v-2c-4.2883 0-8.382.8441-12.1221 2.3761l.7581 1.8507zm.487-1.4254l-4.9929-8.6478-1.732 1 4.9928 8.6478 1.7321-1zm-4.9929-8.6478c-.8284-1.4349-2.6632-1.9265-4.098-1.0981l.9999 1.7321c.4783-.2762 1.0899-.1123 1.3661.366l1.732-1zm-4.098-1.0981c-1.4349.8284-1.9266 2.6632-1.0981 4.0981l1.732-1c-.2761-.4783-.1122-1.0899.3661-1.366l-1-1.7321zm-1.0981 4.0981l4.853 8.4057 1.7321-1-4.8531-8.4057-1.732 1z"/><circle cx="22.5" cy="42.5" r="2.5"/><circle cx="49.5" cy="42.5" r="2.5"/></svg>