<svg xmlns="http://www.w3.org/2000/svg" role="img" viewBox="7.72 5.84 56.31 60.19"><title>E052.svg</title><path fill="#EA5A47" fill-rule="evenodd" d="M36 64c14.3594 0 26-12.536 26-28S50.3594 8 36 8 10 20.536 10 36s11.6406 28 26 28zm0-7c8.8366 0 16-9.402 16-21s-7.1634-21-16-21-16 9.402-16 21 7.1634 21 16 21z" clip-rule="evenodd"/><path fill="#D22F27" fill-rule="evenodd" d="M38.766 63.8434C51.8249 62.3562 62 50.4578 62 36 62 21.5422 51.8249 9.64374 38.766 8.15657c-2.7876.39304-5.4125 1.51327-7.766 3.21573C24.4484 16.1117 20 25.3632 20 36c0 14.4578 8.2183 26.3562 18.766 27.8434zM52 36c0 11.598-7.1634 21-16 21s-16-9.402-16-21 7.1634-21 16-21 16 9.402 16 21z" clip-rule="evenodd"/><path fill="#EA5A47" d="M38.766 63.8434l-.1397.9902.1262.0178.1266-.0144-.1131-.9936zm0-55.68683l.1131-.99358-.1266-.01441-.1262.01778.1397.99021zM31 11.3723l-.5861-.8102.5861.8102zM61 36c0 14.0032-9.8452 25.4261-22.3472 26.8498l.2263 1.9872C52.4951 63.2864 63 50.9124 63 36h-2zM38.6528 9.15015C51.1548 10.5739 61 21.9968 61 36h2C63 21.0876 52.4951 8.7136 38.8791 7.16299l-.2263 1.98716zm-.0265-1.98379c-2.9649.41805-5.7408 1.60782-8.2124 3.39574l1.1722 1.6205c2.2354-1.6171 4.7093-2.6678 7.3195-3.03582l-.2793-1.98042zm-8.2124 3.39574C23.5508 15.5268 19 25.1118 19 36h2c0-10.3854 4.346-19.3034 10.5861-23.8175l-1.1722-1.6204zM19 36c0 14.7323 8.392 27.2496 19.6263 28.8336l.2793-1.9804C29.0446 61.4629 21 50.1833 21 36h-2zm17 22c4.7969 0 9.0689-2.5544 12.1091-6.5447C51.1488 47.4657 53 41.9982 53 36h-2c0 5.5998-1.7305 10.6322-4.4817 14.2432C43.7677 53.8533 40.0397 56 36 56v2zM19 36c0 5.9982 1.8512 11.4657 4.8909 15.4553C26.9311 55.4456 31.2031 58 36 58v-2c-4.0397 0-7.7677-2.1467-10.5183-5.7568C22.7305 46.6322 21 41.5998 21 36h-2zm17-22c-4.7969 0-9.0689 2.5544-12.1091 6.5447C20.8512 24.5343 19 30.0018 19 36h2c0-5.5998 1.7305-10.6322 4.4817-14.2432C28.2323 18.1467 31.9603 16 36 16v-2zm17 22c0-5.9982-1.8512-11.4657-4.8909-15.4553C45.0689 16.5544 40.7969 14 36 14v2c4.0397 0 7.7677 2.1467 10.5183 5.7568C49.2695 25.3678 51 30.4002 51 36h2z"/><g fill="none" stroke="#000" stroke-width="2"><ellipse cx="36" cy="36" rx="26" ry="28"/><ellipse cx="36" cy="36" rx="26" ry="28"/><path stroke-linecap="round" d="M29 17.1111C31.1144 15.7588 33.4897 15 36 15c8.8366 0 16 9.402 16 21s-7.1634 21-16 21c-2.5103 0-4.8856-.7588-7-2.1111"/><path stroke-linecap="round" d="M31 11.3723C24.4484 16.1117 20 25.3632 20 36c0 10.6368 4.4484 19.8883 11 24.6277"/></g></svg>