<svg xmlns="http://www.w3.org/2000/svg" role="img" viewBox="5.97 10.85 59.93 55.93"><title>E059.svg</title><path fill="#f1b31c" d="M12.231 33.089l-4.22 11.054L35.645 64.14 12.231 33.089zm23.816 31.352l27.935-20.7-3.718-9.948-24.217 30.648z"/><path fill="#ea5a47" d="M25.496 32.888l-6.231-19.796-7.536 19.997 13.767-.201zm20.8.402h14.169l-7.436-20.097-6.733 20.097zm-20.298-.201l9.948 30.548 10.853-30.246-20.801-.302z"/><path fill="#e27022" d="M12.131 32.888l13.867.201 9.948 30.649-23.815-30.85zm34.467.201l-9.747 29.845 23.112-29.543-13.365-.302z"/><g fill="none" stroke="#000" stroke-linecap="round" stroke-width="2"><path stroke-linejoin="round" d="M8.28 43.3818l9.731-29.5131a1.1007 1.1007 0 0 1 2.0964.018l5.9675 19.2065 20.2165-.0016 5.7173-19.2323a1.1006 1.1006 0 0 1 2.0947-.0216l9.6344 28.8251a1.2305 1.2305 0 0 1-.4247 1.3714l-27.2549 20.62L8.7247 44.7621a1.2307 1.2307 0 0 1-.4447-1.3803z"/><path stroke-miterlimit="10" d="M11.673 33.092h14.952m18.961 0h14.953"/><path stroke-linejoin="round" d="M60.337 33.079L36.245 64.617 11.79 33.079"/><path stroke-linejoin="round" d="M46.7818 33.5822c-.2592.9938-10.5371 31.0347-10.5371 31.0347.0794-.3042-9.9348-30.7256-9.9348-30.7256"/></g></svg>