<svg xmlns="http://www.w3.org/2000/svg" role="img" viewBox="8.96 14.96 54.21 41.96"><title>E061.svg</title><path fill="#fff" fill-rule="evenodd" d="M28.7611 32.9949c1.5474.3952 2.679 1.5216 3.2665 3.2517.321.9448.321 2.2694 0 3.2141-.5553 1.6353-1.5396 2.7051-2.9637 3.2213-1.053.3816-2.0345.3102-3.1466-.2293-3.0961-1.5017-3.6532-6.11-1.0256-8.4856 1.0818-.9782 2.4751-1.3282 3.8694-.9722zm16.6761-.0044c.7256.1854 1.0966.3748 1.7116.8742 1.5591 1.266 2.1397 3.5642 1.6098 5.4786-.3297 1.1912-1.2044 2.3906-2.145 2.941-1.0918.6388-2.4236.853-3.6197.364-1.9525-.7984-3.0746-2.7041-3.0756-4.7573-.0006-1.0964.1173-1.5978.6084-2.5882.3696-.7453 1.2861-1.6642 1.9986-2.0037.9528-.4541 1.9348-.5581 2.9119-.3086z" clip-rule="evenodd"/><path fill="#B399C8" fill-rule="evenodd" d="M28.1258 17.154c-3.364.7033-6.7201 1.7507-8.983 2.8037-.147.0684-.2556.1159-.3542.179-.3187.2038-.5337.5698-1.6062 2.327-1.4398 2.359-2.9698 5.5223-3.7297 7.7111-.1167.3359-.2828.7957-.3694 1.0218-.2404.6284-1.026 3.5134-1.2323 4.5257-.1579.7748-.3163 1.7614-.6411 3.9955-.1725 1.1861-.2445 3.2395-.1942 5.5313.0628 2.8538.1037 3.3181.306 3.4726.3157.2411 1.9053 1.3074 2.6094 1.7502 2.7672 1.7404 5.7377 3.1212 9.1979 4.2757.3603.1202.685.2186.7217.2186.2214 0 1.9761-2.6217 2.0634-2.7524l.0076-.0114 1.8639-2.8255c.6081.17 1.2109.3282 1.7625.4619 3.4613.839 7.9964.9401 11.8276.2638.8543-.1508 1.9834-.4143 3.128-.7257l2.1102 2.8319 2.1449 2.7574s0 .0735.8312-.2186c1.7346-.7478 7.2065-3.3697 8.4416-4.1523.8228-.5215 2.5424-1.679 2.7492-1.8506.1974-.1639.207-.2072.2942-1.328.1734-2.228.0917-6.1804-.1622-7.8484-.0407-.2672-.1421-.9568-.2253-1.5323-.0834-.5756-.2344-1.4837-.3358-2.0182-.1941-1.0236-1.0452-4.1968-1.3132-4.8959-.0867-.2261-.2512-.6802-.3657-1.0091-.9333-2.6825-2.7489-6.2509-4.6841-9.2063-.1747-.2668-.2834-.4387-.4239-.5788-.2732-.2725-.6662-.4249-1.8962-.9207-2.2181-.8942-4.4961-1.5735-7.2986-2.1766-.3911-.0842-.8291-.1715-.9732-.194-.1562-.0244-.3104.0545-.382.1955l-.3445.6788c-.2555.5034-.5494 1.1109-.6531 1.35l-.06.1383c-.076.1753-.2592.2788-.4486.2535-3.2739-.4383-7.1861-.4662-10.2663-.073-.4887.0623-.8942.1033-.9012.091-.0071-.0123-.3114-.6194-.6762-1.349-.3649-.7297-.7005-1.3244-.7457-1.3215-.0453.0029-.4023.0722-.7934.154zm3.9021 19.0881c-.5876-1.7301-1.7192-2.8566-3.2666-3.2518-1.3943-.356-2.7876-.0059-3.8694.9722-2.6276 2.3757-2.0705 6.984 1.0256 8.4856 1.1121.5395 2.0936.6109 3.1466.2293 1.4241-.5161 2.4084-1.586 2.9638-3.2212.3209-.9448.3209-2.2694 0-3.2141zm15.1211-2.3819c-.615-.4995-.986-.6889-1.7116-.8743-.9771-.2495-1.9591-.1454-2.9119.3087-.7125.3395-1.629 1.2583-1.9986 2.0036-.4911.9904-.6089 1.4918-.6083 2.5883.0009 2.0531 1.123 3.9588 3.0755 4.7573 1.1961.4889 2.5279.2747 3.6198-.3641.9405-.5504 1.8153-1.7498 2.1449-2.941.5299-1.9143-.0507-4.2125-1.6098-5.4785z" clip-rule="evenodd"/><path fill="#8967AA" d="M26.4998 49c.6081.17 2.498.7085 3.0497.8422 3.4612.839 7.9964.9402 11.8275.2639.8543-.1509 1.9835-.4143 3.1281-.7258l2.1101 2.8319 2.145 2.7574s0 .0736.8311-.2185c1.7346-.7479 7.2065-3.3697 8.4416-4.1524.8229-.5214 2.5424-1.6789 2.7493-1.8506.1974-.1638.2069-.2072.2941-1.3279.1734-2.2281.0917-6.1805-.1622-7.8485-.0406-.2672-.142-.9567-.2253-1.5323-.0833-.5755-.2344-1.4837-.3357-2.0181-.1941-1.0236-1.0453-4.1969-1.3133-4.896-.0867-.2261-.2512-.6802-.3657-1.009-.821-2.36-2.325-5.4056-3.9925-8.1163-.6289-1.0222-.6522-1.2461-.8751 0-1.0575 5.9129-2.9029 10.5071-5.1544 14.0807.3553 1.047.3986 2.2119.1081 3.2615-.3297 1.1912-1.2044 2.3906-2.145 2.941-1.0919.6388-2.4236.853-3.6198.364-.0179-.0073-.0358-.0148-.0537-.0223-5.8811 4.8538-13.6114 5.4244-16.4419 5.7347-1.3537.1484-2.1331.1366 0 .6404z"/><g><path fill="none" stroke="#000" stroke-linecap="round" stroke-width="2" d="M25.9175 52.2133s-1.8398 2.7574-2.0668 2.7574c-.0367 0-.3614-.0983-.7217-.2185-3.4602-1.1545-6.4307-2.5354-9.1979-4.2758-.7041-.4428-2.2937-1.5091-2.6094-1.7502-.2023-.1545-.2432-.6187-.306-3.4726-.0503-2.2917.0217-4.3452.1942-5.5313.3248-2.2341.4832-3.2207.6411-3.9955.2063-1.0122.9919-3.8973 1.2323-4.5256.0866-.2261.2527-.686.3694-1.0219.7599-2.1888 2.2899-5.3521 3.7297-7.711 1.4045-2.3011 1.3384-2.2166 1.9604-2.5061 2.2629-1.0529 5.619-2.1004 8.983-2.8037.3911-.0817.7481-.151.7934-.1539.0452-.003.3808.5917.7457 1.3214.3648.7297.6691 1.3368.6762 1.349.007.0124.4125-.0287.9012-.091 3.0802-.3932 6.9924-.3653 10.2663.073v0c.1894.0254.3726-.0781.4486-.2534l.06-.1384c.1037-.239.3976-.8465.6531-1.3499l.3445-.6788c.0716-.141.2258-.22.382-.1955v0c.1441.0225.5821.1098.9732.1939 2.8025.6032 5.0805 1.2825 7.2986 2.1767 1.8627.7507 1.8058.714 2.3201 1.4995 1.9352 2.9554 3.7508 6.5237 4.6841 9.2062.1145.3289.279.783.3657 1.0091.268.6991 1.1191 3.8724 1.3132 4.896.1014.5344.2524 1.4426.3358 2.0181.0832.5756.1846 1.2651.2253 1.5323.2539 1.668.3356 5.6204.1622 7.8485-.0872 1.1207-.0968 1.1641-.2942 1.3279-.2068.1716-1.9264 1.3292-2.7492 1.8506-1.2351.7827-6.707 3.4045-8.4416 4.1524-.2809.1211-.4669.1859-.5901.2185v0c-.1589.0421-.2976-.0727-.3986-.2025l-1.9874-2.5549m-23.0722-4.2774c1.0419.5286 3.8979 1.3964 6.0064 1.9074 3.4613.839 7.9964.9402 11.8276.2639 2.0799-.3673 5.7892-1.4021 7.3831-2.1713m-19.9975-14.941c1.5474.3952 2.679 1.5216 3.2666 3.2517.3209.9448.3209 2.2694 0 3.2141-.5554 1.6353-1.5397 2.7051-2.9637 3.2212-1.0531.3817-2.0346.3102-3.1467-.2292-3.0961-1.5017-3.6532-6.11-1.0256-8.4857 1.0818-.9781 2.4751-1.3281 3.8694-.9721zm16.6761-.0044c.7256.1853 1.0966.3748 1.7116.8742 1.5591 1.266 2.1397 3.5642 1.6098 5.4786-.3296 1.1912-1.2044 2.3905-2.1449 2.941-1.0919.6388-2.4237.853-3.6198.364-1.9525-.7984-3.0746-2.7041-3.0755-4.7573-.0006-1.0964.1172-1.5978.6083-2.5882.3696-.7453 1.2861-1.6642 1.9986-2.0037.9528-.4541 1.9348-.5581 2.9119-.3086z"/></g></svg>