<svg xmlns="http://www.w3.org/2000/svg" role="img" viewBox="9.88 10.00 52.00 51.88"><title>E06A.svg</title><path d="M12.96 12c-.5321.0017-.9631.4327-.9648.9648v46.07c.0017.5321.4327.9631.9648.9648h46.07c.5321-.0017.9631-.4327.9648-.9648v-46.07c-.0017-.5321-.4327-.9631-.9648-.9648h-16.8c-1.801.3379-1.804.3453-2.472 2.173-.7515 1.3-2.157 2.175-3.767 2.175-1.531 0-2.877-.7908-3.652-1.986-.7905-2.049-.7823-2.055-2.743-2.362z" fill="#b399c8"/><g fill="none" stroke="#000" stroke-linecap="round" stroke-linejoin="round"><path stroke-width="2" d="M12.96 12a.9679.9679 0 0 0-.9648.9648v46.07a.9679.9679 0 0 0 .9648.9648h46.07a.9679.9679 0 0 0 .9648-.9648v-46.07A.9679.9679 0 0 0 59.03 12H40.34c0 2.401-1.946 4.348-4.348 4.348S31.644 14.402 31.644 12h-18.69z"/><path stroke-miterlimit="10" stroke-width="4.456" d="M38.55 38.23l-4.455 15.59-4.458-15.6-4.455 15.59-4.456-15.59" clip-rule="evenodd"/><g fill-rule="evenodd" stroke-miterlimit="10" stroke-width="2" clip-rule="evenodd"><path d="M0 0h4" transform="matrix(2.138 0 0 2.239 43.22 50.051)"/><path d="M0 7l-3-7-3 7" transform="matrix(2.138 0 0 2.239 53.91 38.14)"/></g></g></svg>