<svg xmlns="http://www.w3.org/2000/svg" role="img" viewBox="4.42 8.30 62.66 55.16"><title>E088.svg</title><path fill="#92d3f5" d="M52.501 10.564l-10.328 7.859v13.453h4.78v-9.231l5.583-4.311 5.597 4.311v9.231h4.781V18.435l-10.413-7.871z"/><g fill="#fcea2b"><path d="M25.2665 39.4412v2.2139l4.1608 5.1243a6.6219 6.6219 0 0 1 .7557 2.7049l.4056 9.1511c.0862 1.78-.8241 2.72-1.7359 2.72-.97 0-1.72-.9124-1.8839-2.6317l-1.053-8.6589L19 44.1708a3.216 3.216 0 0 1-1.1132-2.3657 5.4174 5.4174 0 0 1 .7648-2.5813l3.2935-5.9464c1.1409-2.2818 2.2558-3.0919 3.7618-3.0919a2.7143 2.7143 0 0 1 2.681 2.7675zM16.1149 45.99l-2.2285 3.3709L7.5546 52.43a1.42 1.42 0 0 0-.8361 1.7419 1.2362 1.2362 0 0 0 1.6025.8177l6.0345-1.85a5.3721 5.3721 0 0 0 2.1873-1.3919L19.83 48.42z"/><circle cx="31.383" cy="26.116" r="3.266"/></g><g fill="none" stroke="#000" stroke-linecap="round" stroke-width="2"><path stroke-miterlimit="10" d="M46.327 15.263v-4.175"/><path stroke-linejoin="round" d="M42.173 31.546V18.423m20.741.012v13.111M40.193 19.839l12.308-9.275 12.393 9.275"/><path stroke-linejoin="round" d="M46.954 31.216v-8.571l5.582-4.311 5.597 4.311v8.571m-22.899 8.356h-5.298l-4.647-5.332m-.2461-3.9955s-5.7852 1.3531-7.0881 2.2863c-1.6642 1.1918-5.6737 7.1623-5.6737 7.1623m3.8338 6.2969l-2.2285 3.3709L7.5546 52.43a1.42 1.42 0 0 0-.8361 1.7419 1.2362 1.2362 0 0 0 1.6025.8177l6.0345-1.85a5.3721 5.3721 0 0 0 2.1873-1.3919l5.1124-5.1747"/><path stroke-linejoin="round" d="M25.2665 39.4412v2.2139l4.1608 5.1243a6.6219 6.6219 0 0 1 .7557 2.7049l.4056 9.1511c.0862 1.78-.8241 2.72-1.7359 2.72-.97 0-1.72-.9124-1.8839-2.6317l-1.053-8.6589L19 44.1708a3.216 3.216 0 0 1-1.1132-2.3657 5.4174 5.4174 0 0 1 .7648-2.5813l3.2935-5.9464c1.1409-2.2818 2.2558-3.0919 3.7618-3.0919a2.7143 2.7143 0 0 1 2.681 2.7675m-.2707-6.8365a3.2656 3.2656 0 1 1 3.2656 3.2656"/></g></svg>