<svg xmlns="http://www.w3.org/2000/svg" role="img" viewBox="6.56 4.93 58.38 62.01"><title>E092.svg</title><g id="color"><path fill="#fff" d="M13.065 34.044L9.635 40.37 61.687 40.206 58.428 33.962 13.065 34.044zM28.1285 9.9293l-.2112 8.8107s4.9278-2.1539 6.9327-1.8172 10.2426 6.4103 10.9407 6.4103 4.9566.0698 5.3057-.0698.5225-.0105.5225-.0105l-.11-11.6902s-.9352.4401-2.3931.3576-6.7116-1.3753-7.3992-1.8704-4.8136-1.9805-5.1987-1.9805-2.3242-.7635-8.3894 1.86z"/><path fill="#92d3f5" d="M13.046 40.779H58.652V61.432H13.046z"/><path fill="#a57939" d="M18.355 46.012H30.628V61.432H18.355z"/><path fill="#fff" d="M35.927 44.87H42.394V57.431999999999995H35.927zM47.013 44.87H53.48V57.431999999999995H47.013z"/><path fill="#d0cfce" d="M27.9173 18.74c2.1054-1.2182 4.5004-1.846 6.9327-1.8172 4.5419 0 8.4377 6.247 14.3339 6.247.8691 0 1.3042-.3913 2.1813-.3913.7275 0 1.018.52 1.018 1.4385v1.5653c0 .7168-.783 1.531-3.0816 1.531-6.91 0-10.8056-3.9084-14.8143-3.9084-2.3907.0452-4.7105.8194-6.6492 2.219v-4.2672l.0792-2.6167zM8.831 61.432H62.867000000000004V64.851H8.831z"/></g><g id="line" fill="none" stroke="#000" stroke-linecap="round" stroke-width="2"><path stroke-linejoin="round" d="M13.046 61.432L13.046 45.399M8.831 64.852L62.867 64.852M62.867 61.432L8.831 61.432M19.991 33.303L12.461 33.303 8.831 40.779 62.867 40.779 59.238 33.303 28.828 33.303M58.652 61.432L58.652 45.399M26.452 55.114L26.452 52.33M22.534 55.114L22.534 52.33M18.356 46.012H30.629V61.432H18.356zM27.9173 9.34c2.0697-1.3393 4.4684-2.0824 6.9327-2.1478 4.5419 0 8.4377 3.9373 14.3339 3.9373.8691 0 1.3042-.3912 2.1813-.3912.7275 0 1.018.52 1.018 1.4384v13.6056c0 .7168-.783 1.531-3.0816 1.531-6.91 0-10.8056-3.9084-14.8143-3.9084-2.3907.0452-4.7105.8194-6.6492 2.219v-4.2672"/><path stroke-miterlimit="10" d="M24.579 7.347L24.579 40.779"/><path stroke-linejoin="round" d="M35.927 44.87H42.394V57.431999999999995H35.927zM47.013 44.87H53.48V57.431999999999995H47.013z"/></g></svg>