<svg xmlns="http://www.w3.org/2000/svg" role="img" viewBox="6.19 4.31 58.49 61.62"><title>E099.svg</title><circle cx="23.575" cy="14.817" r="4.558" fill="#9b9b9a"/><circle cx="31.9" cy="14.393" r="5.923" fill="#3f3f3f"/><circle cx="36.505" cy="35.688" r="3.724" fill="#9b9b9a"/><circle cx="51" cy="22.028" r="5.064" fill="#9b9b9a"/><circle cx="40.101" cy="10.971" r="4.391" fill="#9b9b9a"/><circle cx="40.571" cy="22.005" r="7.821" fill="#3f3f3f"/><path fill="#9b9b9a" d="M7.948 64.288L21.46 44.389l9.749-7.234 6.263 1.473 5.316-1.473 5.128 6.412 8.347 5.824 6.556 14.897H7.948z"/><path fill="#d0cfce" d="M7.948 64.288L21.46 44.389l3.917-2.908 1.654 3.531-1.614 6.284 1.893 12.992H7.948z"/><path fill="#3f3f3f" d="M62.819 64.288H43.646l3.881-12.137-3.116-2.505 3.505-6.079 8.347 5.824 6.556 14.897z"/><circle cx="35.835" cy="28.595" r="5.643" fill="#9b9b9a"/><g fill="none" stroke="#000" stroke-linecap="round" stroke-linejoin="round" stroke-width="2"><path d="M8.406 63.629l13.054-19.24 9.749-7.234 6.263 1.473 5.316-1.473 5.128 6.412 8.347 5.824 6.356 14.388"/><path d="M25.377 41.481l1.654 3.531-1.614 6.284.916 7.313m21.583-15.042l-3.505 6.079 3.116 2.505-1.673 5.173M32.952 23.7506a5.6368 5.6368 0 0 0-.2644 9.5271m11.8047-22.3066a4.3859 4.3859 0 0 0-8.6582-.9971 5.9116 5.9116 0 0 0-9.1162 1.5535 4.5489 4.5489 0 0 0-7.7 3.2892m37.0467 7.2116a5.0642 5.0642 0 0 0-7.8906-4.2022m-9.6308 15.7187a5.6492 5.6492 0 0 0 2.8056-3.7577 7.8122 7.8122 0 0 0 5.8059-3.5711m-14.2824-5.5983a7.8234 7.8234 0 0 1 14.6259-2.2467"/></g></svg>