<svg xmlns="http://www.w3.org/2000/svg" role="img" viewBox="5.95 5.95 60.97 58.84"><title>E09A.svg</title><g id="color"><path fill="#fff" d="m45.1178,11.8696l6.2509-1.6625c.174-.0463.3501-.0839.5277-.1139.3741-.063,1.0113-.1736,1.4833-.2429.3184-.0467.6385-.0524.9585-.0182l9.6491.5112c.6839,0,1.5128,1.806,1.11,2.3587l-4.5786,4.8561c-.7631.2081-.5147,1.6756-.2081,2.1506l4.648,5.4804c.4489.6954.7015,1.8328.2081,2.4974l-5.2809,4.9783c-.3067.4131-.296.9812.0259,1.3826l4.7694,4.9469c.5442.6786.2485,1.9327-.3469,2.5668l-4.2976,4.2465c-.2227.2371-.233.6032-.0242.8526l5.2236,4.6131c.6207.7595-.1858,2.3127-.9018,2.983l-6.7645,5.1668-19.1809-25.3543,6.8093-21.4042c.0031-.1572-.2357-.772-.0801-.7951Z"/><path fill="#9b9b9a" d="M7.785 63.268L21.297 43.369 31.046 36.135 37.309 37.608 42.625 36.135 47.753 42.546 56.1 48.371 62.656 63.268 7.785 63.268z"/><circle cx="22.706" cy="18.608" r="5.064" fill="#3f3f3f"/><circle cx="40.738" cy="13.016" r="4.879" fill="#9b9b9a"/><circle cx="53.07" cy="25.946" r="4.879" fill="#9b9b9a"/><circle cx="32.039" cy="15.709" r="6.581" fill="#9b9b9a"/><circle cx="43.951" cy="21.655" r="7.821" fill="#9b9b9a"/><circle cx="36.245" cy="26.265" r="5.643" fill="#3f3f3f"/><path fill="#d0cfce" d="M62.656 63.268L43.483 63.268 47.364 51.131 44.249 48.626 47.753 42.546 56.1 48.371 62.656 63.268z"/></g><g id="line"><path fill="none" stroke="#000" stroke-linecap="round" stroke-miterlimit="10" stroke-width="2" d="M8.244 62.609L21.297 43.369 31.046 36.135 37.309 37.608 42.625 36.135 47.753 42.546 56.1 48.371 62.456 62.759"/><path fill="none" stroke="#000" stroke-linecap="round" stroke-linejoin="round" stroke-width="2" d="M25.214 40.46L26.868 43.992 25.254 50.276 26.17 57.589M47.753 42.546L44.249 48.626 47.364 51.131 45.786 56.065M32.2514 22.279c-2.2011 2.206-2.1971 5.7786.009 7.9797 2.206 2.2011 5.7786 2.197 7.9797-.009.3786-.3794.7012-.8109.958-1.2813.8793.3341 1.8118.5061 2.7524.5077M40.7382 8.1368c-1.8281.0044-3.4991 1.0343-4.3248 2.6653-2.7037-2.4199-6.8572-2.1899-9.2772.5138-.7911.8838-1.3281 1.9654-1.5541 3.1298-2.2956-1.5917-5.4469-1.021-7.0386 1.2746-.5881.8482-.9026 1.856-.9014 2.8882M43.9506 13.8337c4.3195 0 7.8212 3.5018 7.8212 7.8213"/><path fill="none" stroke="#000" stroke-linecap="round" stroke-linejoin="round" stroke-width="2" d="m51.7575,21.2458c2.5982-.7225,5.2902.7981,6.0127,3.3963.1181.4247.1781.8634.1785,1.3042"/><circle cx="64.01" cy="11.748" r="1.48"/><circle cx="58.679" cy="18.6" r="1.48"/><circle cx="46.448" cy="18.6" r="1.48"/><circle cx="64.34" cy="26.451" r="1.48"/><circle cx="58.679" cy="32.963" r="1.48"/><circle cx="64.01" cy="40.145" r="1.48"/><circle cx="58.679" cy="45.996" r="1.48"/><circle cx="64.01" cy="52.518" r="1.48"/><circle cx="57.359" cy="60.359" r="1.48"/><circle cx="52.916" cy="11.748" r="1.48"/><circle cx="41.514" cy="11.748" r="1.48"/><circle cx="52.916" cy="26.451" r="1.48"/><circle cx="47.448" cy="32.963" r="1.48"/><circle cx="52.916" cy="40.145" r="1.48"/><circle cx="52.256" cy="52.518" r="1.48"/><circle cx="48.108" cy="60.359" r="1.48"/><circle cx="41.514" cy="40.145" r="1.48"/></g></svg>