<svg xmlns="http://www.w3.org/2000/svg" role="img" viewBox="7.02 10.15 57.33 55.45"><title>E09E.svg</title><g id="color"><circle cx="51.492" cy="23.819" r="3.305" fill="#fff"/><path fill="#fff" d="m9,41.8738l8.8939-21.3649,5.13-1.4831h1.0095l4.9666,1.8131,10.807,23.7527c1.0632-1.5314,2.8317-2.4176,4.6948-2.3528,2.8726-.099,5.298,2.1154,5.46,4.9852l1.0382,2.776c1.2527-.5984,2.6131-.9385,4-1,3.8396-.1399,7.0657,2.8593,7.2056,6.699.0046.1275.0058.2551.0034.3826.1449,3.9884-2.9709,7.3391-6.9593,7.484-.1471.0053-.2943.0062-.4415.0025H9v-21.6943Z"/><path fill="#9b9b9a" d="M21.068 36.792L17.707 35.095 10.932 37.564 8.745 42.189 8.745 63.568 18.583 63.568 33.766 63.578 21.068 36.792z"/></g><g id="line" fill="none" stroke="#000" stroke-linecap="round" stroke-width="2"><path stroke-miterlimit="10" d="M49.9619 47.224c-.162-2.8698-2.5874-5.0842-5.46-4.9852-2.8558-.178-5.3153 1.9928-5.4933 4.8486-.0028.0455-.0051.091-.0067.1366M48.8145 54.9534c.0107-3.3007 2.6951-5.9677 5.9957-5.957.0633.0002.1266.0014.1898.0036 3.8396-.1399 7.0657 2.8593 7.2056 6.699.0046.1275.0058.2551.0034.3826.1449 3.9884-2.9709 7.3391-6.9593 7.484-.1471.0053-.2943.0062-.4415.0025h-14.2488"/><path stroke-linejoin="round" d="M11.409 37.343L17.707 35.095 21.703 37.608 25.95 34.86"/><path stroke-miterlimit="10" d="M37.562 55.873L28.911 37.673M39.807 44.592L29 20.839 24.034 19.026 23.024 19.026 17.894 20.509 9.138 41.874M33.436 62.918L23.935 42.706M53.727 12.329L53.512 20.5 60.464 16.271M42.704 16.271L49.728 20.571 49.513 12.329M40.912 27.939L48.079 23.998 40.912 20.056M49.513 35.666L49.728 27.424 42.704 31.724M60.464 31.724L53.512 27.496 53.727 35.666M62.328 20.056L55.16 23.998 62.328 27.939"/></g></svg>