<svg xmlns="http://www.w3.org/2000/svg" role="img" viewBox="9.70 12.08 52.34 54.47"><title>E0A1.svg</title><circle cx="35.939" cy="29.281" r="3.15" fill="#3f3f3f"/><path fill="#d0cfce" d="M46.439 64.56L36.838 32.3h-1.797l-9.602 32.26"/><g stroke="#000" stroke-width="2"><path fill="none" stroke-linecap="round" stroke-miterlimit="10" d="M18.8627 46.3572a24.1519 24.1519 0 0 1-1.7821-32.1636m37.7174 0a24.1519 24.1519 0 0 1-1.7821 32.1636m-4.7775-26.916a15.7512 15.7512 0 0 1-1.1622 20.9763m-22.2738 0A15.7511 15.7511 0 0 1 23.64 19.4413"/><circle cx="35.939" cy="29.281" r="3.15" fill="none" stroke-miterlimit="10"/><path stroke-linecap="round" stroke-linejoin="round" d="M28.589 55.477h14.7m-11.55-11.864h8.4"/><path fill="none" stroke-linecap="round" stroke-linejoin="round" d="M35.041 32.3l-9.602 32.26m21 0L36.838 32.3"/></g></svg>