<svg xmlns="http://www.w3.org/2000/svg" role="img" viewBox="9.88 10.00 52.00 51.88"><title>E0A3.svg</title><path fill="#B1CC33" d="M58.9991 59.9991h-46c-.5518-.0012-.9988-.4482-1-1v-46c.0012-.5518.4482-.9988 1-1h46c.5518.0012.9988.4482 1 1v46c.0314.5209-.3653.9686-.8862 1a.9393.9393 0 0 1-.1138 0z"/><path fill="none" stroke="#000" stroke-miterlimit="10" stroke-width="2" d="M58.9991 59.9991h-46c-.5518-.0012-.9988-.4482-1-1v-46c.0012-.5518.4482-.9988 1-1h46c.5518.0012.9988.4482 1 1v46c.0314.5209-.3653.9686-.8862 1a.9393.9393 0 0 1-.1138 0z"/><path d="M39.0988 41.5991c-.5519.0004-.9996-.4467-1-.9986v-9.4014c0-.5523.4477-1 1-1s1 .4477 1 1v9.4c.0003.552-.4468.9997-.9988 1h-.0012zm7.2246-1.6441l-3.7143-4.4109 3.2045-3.6887c.3624-.4168.3184-1.0485-.0984-1.4109s-1.0485-.3184-1.4109.0984l-2.9125 3.3526v3.3075l3.4025 4.0411c.356.4223.9869.4761 1.4092.1201.4223-.356.4761-.9869.1201-1.4092h-.0002z"/><path d="M29.863 39.504c-1.042-.2781-1.7635-1.2265-1.7535-2.3049v-2.7c-.01-1.0782.7116-2.0263 1.7535-2.3039v-2.0324c-2.1656.2922-3.7748 2.1512-3.7535 4.3363v2.7c-.0216 2.1854 1.5876 4.0448 3.7535 4.3371V39.504zm1.2925-9.3412v2.0324c1.042.2776 1.7637 1.2256 1.7538 2.3039v2.7c.0097 1.0784-.7118 2.0266-1.7538 2.3047v2.0324c2.166-.2921 3.7754-2.1516 3.7538-4.3371v-2.7c.0213-2.1852-1.588-4.0442-3.7538-4.3363z"/></svg>