<svg xmlns="http://www.w3.org/2000/svg" role="img" viewBox="14.06 7.43 52.63 55.51"><title>E0AD-200D-2640-FE0F.svg</title><path fill="#f1b31c" d="M53.1709 33.3355a23.75 23.75 0 0 1-1.1573-2.6329C50.541 27.4331 49.99 26.21 49.665 20.1787c.0273-3.6929-3.794-6.7842-7.4746-7.0928a1.0019 1.0019 0 0 1-.6885-.3433c-.0928-.0995-2.4082-2.6546-7.2432-2.6546-6.2 0-11.4412 3.3817-12.743 8.2259a18.5212 18.5212 0 0 0-.5645 6.1759 13.3169 13.3169 0 0 1-.7607 5.9608 38.8785 38.8785 0 0 1-3.12 4.7343l.1909 4.4519a11.0715 11.0715 0 0 0 8.78 10.4462 3.8581 3.8581 0 0 0 .8575.0943c4.953 1.2891 10.8956 2.9162 18.7 0a8.343 8.343 0 0 1 4.209 1.5135c1.0535-.6931 2.0475-4.4725 2.972-5.33 1.1875-.7146 3.1244-8.2822.391-13.0253zm-18.1935 12.3C24.39 45.6351 24.39 28.2766 24.39 28.2766c2.3135-2.5393 15.9777-9.8 15.9777-9.8 6.0806 2.0742 6.3829 11.64 6.3829 11.64s-2.1774 15.0683-11.7732 15.5185z"/><path fill="#fcea2b" d="M24.39 29.1228v1.042c0 8.3286 4.8509 14.8539 11.0441 14.8539S46.478 38.4934 46.478 30.1648c0-5.0665-1.8716-8.1824-5.5611-12.1229a67.2781 67.2781 0 0 1-9.4594 6.2845c-2.7852 1.6486-6.5827 3.8862-7.0675 4.7964z"/><path fill="#92d3f5" d="M47.1813 46.4687c-4.9473 7.4285-9.7692 5.8349-14.06 3.5476l-6.7135-10.8142-8.41 4.992-.5249 2.19-.4339-.0808-.2111 2.7712-.5792 2.4165.3995-.0566-.2467 3.239a12.764 12.764 0 0 0-.1528 2.0052v4.28h38v-4.28c0-5.3438-3.7487-8.6468-7.0674-10.2099z"/><path fill="#fcea2b" d="M26.408 39.202l5.672 10.167L54.249 37.09l4.159-3.565 3.481 1.859 2.253-1.327.811-2.928-6.398-4.093H56.16l-2.511.633-2.086 2.367-1.419 2.488-23.736 6.678z"/><g fill="none" stroke="#000" stroke-linecap="round" stroke-width="2"><path stroke-linejoin="round" d="M47.1813 46.9848c3.85 1.1778 7.0674 4.5469 7.0674 8.5508v5.4226"/><path stroke-miterlimit="10" d="M54.1605 37.0356l-14.433 9.0118a58.4589 58.4589 0 0 1-11.937 5.69c-2.4385.8393-4.6463 1.5969-4.6463 1.5969"/><path stroke-miterlimit="10" d="M58.73 33.6221l1.8149 1.1067a2.7369 2.7369 0 0 0 3.2106-.2627h0a2.7321 2.7321 0 0 0 .3381-3.8073 12.1519 12.1519 0 0 0-5.3648-3.5348 6.1469 6.1469 0 0 0-4.9344.377h0a3.3866 3.3866 0 0 0-.6987.4977l-.5025.4643a3.3845 3.3845 0 0 0-.73.9721l-.5832 1.1668a4.7 4.7 0 0 1-1.97 2.0334h0A80.9152 80.9152 0 0 0 35.3764 36.69l-13.5121 5.0544a8.1235 8.1235 0 0 0-5.2372 6.6187 91.6836 91.6836 0 0 0-.4671 11.6725m12.92-30.5391s2.53 1.5112 4.0415 0m4.2906-.2274s2.53 1.5112 4.0415 0M29.08 42.5106s-.0059 2.5532 2.0208 3.4468"/><path stroke-linejoin="round" d="M36.1883 51.0828q5.2653.7349 10.5305-3.6528m7.6244-7.6447a11.5887 11.5887 0 0 1-2.2532 5.2334m-34.8286-5.3819c-.3891-3.6368 1.748-7.3585 2.4415-9.14 1.6357-4.2-.209-6.4512 1.291-12.0342 1.48-5.5 7.2773-8.9658 13.709-8.9658 5.4 0 8 3 8 3a8.1323 8.1323 0 0 1 7.4052 8.0371 32.04 32.04 0 0 0 .7464 6.2436"/><path stroke-linejoin="round" d="M45.9485 30.4886q.0172-.4016.0173-.81c0-5-2-8-6-12-4 4-16 9-16 11v1a17.8993 17.8993 0 0 0 .5738 4.55"/></g></svg>