<svg xmlns="http://www.w3.org/2000/svg" role="img" viewBox="9.69 7.19 56.49 61.62"><title>E0AE.svg</title><g id="color"><path fill="#d0cfce" d="M11.888 33.851L49.753 9.409 64.019 31.776 26.256 56.404 11.888 33.851z"/><path fill="#92d3f5" d="M46.35,38.5154l-.1515-16.1778,0,.665c-.0005-3.0516,5.629-3.873,5.63.72l.0523,5.5746L51.98,39.9007l-.1142-12.1926c0-2.7491,4.8971-2.8421,4.8976.7032l.003,20.6909c.0007,4.6779-.1322,9.5924-3.468,11.8561-2.0455,1.3881-5.5544,1.1924-10.2128,1.063-10.4229-.2895-8.9278-3.0279-11.7523-8.452a43.66,43.66,0,0,1-2.4857-5.9813c-.7839-2.2764-2.59-5.1116-2.5909-9.8859,1.8834-1.8839,6.4834,1.0582,7.5227,3.52l1.1174,2.2832-.0029-19.9825c0-3.1749,5.7438-3.4111,5.7444.5l0-2.5311c-.0005-3.4183,5.56-4.61,5.5609,1.5109"/><path fill="#fff" d="M35.638 61.723H53.766V66.744H35.638z"/></g><g id="line"><path fill="none" stroke="#000" stroke-linecap="round" stroke-linejoin="round" stroke-width="2" d="M28.256 54.586L26.154 55.927 11.888 33.561 49.753 9.409 64.019 31.776 60.217 34.201"/><path fill="none" stroke="#000" stroke-linecap="round" stroke-linejoin="round" stroke-width="1.733" d="M40.64 39.901L40.637 24.023"/><path fill="none" stroke="#000" stroke-linecap="round" stroke-linejoin="round" stroke-width="2" d="M46.35 38.5154l-.1515-16.1778 0 .665c-.0005-3.0516 5.629-3.873 5.63.72l.0523 5.5746L51.98 39.9007l-.1142-12.1926c0-2.7491 4.8971-2.8421 4.8976.7032l.0031 21.1213c.0006 4.1454-.5144 6.8717-2.68 10.3392v2.2133H35.0317V59.8694c-1.8558-2.1982-3.0311-5.3354-4.2739-9.0062-.815-2.5337-2.5332-6.7293-4.5016-12.5434 1.18-2.3882 4.8619-.9094 6.6355 1.0892l2.0046 4.0962-.0029-19.9825c0-3.1749 5.7438-3.4111 5.7444.5l0-2.5311c-.0005-3.4183 5.56-4.61 5.5609 1.5109M40.64 39.901L40.637 24.023"/><circle cx="27.766" cy="10.958" r="2"/><circle cx="37.085" cy="10.958" r="2"/><circle cx="15.128" cy="16" r="2"/><circle cx="19.128" cy="20" r="2"/><circle cx="15.383" cy="25.338" r="2"/><circle cx="23.362" cy="24.669" r="2"/><circle cx="28.256" cy="20.669" r="2"/><circle cx="23.766" cy="16" r="2"/><circle cx="31.808" cy="16" r="2"/><circle cx="19.128" cy="10.958" r="2"/><path fill="none" stroke="#000" stroke-linecap="round" stroke-linejoin="round" stroke-width="2" d="M35.032 62.085L35.032 66.706 54.086 66.745 54.086 62.085"/></g></svg>