<svg xmlns="http://www.w3.org/2000/svg" role="img" viewBox="13.79 5.66 43.30 56.55"><title>E0B1.svg</title><path fill="#92d3f5" d="M32.088 60.1489H15.8129V30.6956H23.8a105.34996 105.34996 0 0 1 7.2549 9.6081c3.1125 4.9454 1.0331 19.8452 1.0331 19.8452z"/><path fill="#ea5a47" d="M32.157 43.944h-9.615l.064 13.453h9.583"/><path fill="#fff" d="M23.8 30.6956c.4632-1.2933.7-2.6568.7-4.0306V22.84l8.4869-3.1131V16h-8.844c-5.918 0-8.33 6.4915-8.33 6.4915v8.2041"/><path fill="#fff" d="M27.9347 22.5106c-.3521 2.1438 3.8126 8.5738 3.8126 8.5738l.4227-.1161c.6574-.176 1.0477-.8516.8717-1.509a1.47055 1.47055 0 0 0-.0117-.041 38.27468 38.27468 0 0 1-.94-7.477l.1662-1.6927"/><g><path fill="#d0cfce" d="M31.2128 22.0638s-2.6171 1.6117-1.8511 5.9761L27.33 22.83l-.2022-1.0392 4.0851-1.4134v1.6864z"/><path fill="#61b2e4" d="M21.7819 31.0844s7.2394 8.1232 8.7181 12.86l.7606-.841c.2928-.3238.3179-.8087.0601-1.1609L23.6396 31.448l-1.8577-.3636z"/><path fill="#d22f27" d="M30.1931 43.7694s.3192 11.5213-.4787 13.2128l.4919.0377c1.3276.1019 2.4579-.9544 2.4461-2.2859l-.0764-8.6029c-.0116-1.3078-1.0751-2.3619-2.383-2.3618z"/><path fill="#61b2e4" d="M30.702 57.553l-.893 2.075.579.0451c.7889.0614 1.463-.5622 1.463-1.3535v-.6066l-1.149-.16z"/></g><g><path fill="none" stroke="#000" stroke-linecap="round" stroke-linejoin="round" stroke-width="2" d="M32.1972 60.1489H15.9221V30.6956h7.9866a105.34996 105.34996 0 0 1 7.2549 9.6081c3.113 4.9454 1.0336 19.8452 1.0336 19.8452z"/><path fill="none" stroke="#000" stroke-linecap="round" stroke-linejoin="round" stroke-width="2" d="M32.266 43.944h-9.615l.064 13.453h9.583M15.9221 30.6956v-7.605c0-.4267.0912-.8435.2759-1.2282.7825-1.6297 3.2749-5.8623 8.0537-5.8623h8.844v3.7266l-8.4869 3.1134v5.6479c0 .1677-.0289.3342-.0855.4921l-.6145 1.7159"/><path fill="none" stroke="#000" stroke-linecap="round" stroke-linejoin="round" stroke-width="2" d="M27.3511 22.5106c-.3522 2.1438 3.8125 8.5738 3.8125 8.5738l.4227-.1161c.6574-.176 1.0477-.8516.8717-1.509a1.47055 1.47055 0 0 0-.0117-.041 38.27468 38.27468 0 0 1-.94-7.477l.1662-1.6927"/><rect width="2.978" height="5.601" x="32.271" y="15.012" rx=".951" ry=".951"/><circle cx="54.043" cy="17.791" r="2"/><circle cx="54.043" cy="8.791" r="2"/><circle cx="47.836" cy="13.791" r="2"/><circle cx="47.836" cy="21.791" r="2"/><circle cx="54.043" cy="26.956" r="2"/><circle cx="40.87" cy="17.791" r="2"/></g></svg>