<svg xmlns="http://www.w3.org/2000/svg" role="img" viewBox="11.64 14.02 51.22 42.97"><title>E0B4.svg</title><path d="M55.822 48.103H41.891l-1.631-6.27-.867-3.301V21.809l2.825-1.075 1.186-2.653h2.912l1.291-1.375 3.946.576.192 1.335 2.991.638-.001 15.256 1.733-5.362 4.085-1.27.447 2.545-5.178 17.679zm-38.354-.191l11.936.191 2.311-6.566.798-3.254-.157-16.323-1.467-1.226h-1.163l-1.292-2.945h-2.723l-2.617-1.782-2.498 2.227-2.942.058-.186 2.442v8.071l-3.816 7.876v3.128l2.47 8.103h1.346z" fill="#92d3f5"/><path d="M18.5012 37.7421a13.0459 13.0459 0 0 0 3.18 3.4068s-1.6079-3.3829-1.2766-5.4255-1.0331-6.5745-1.4681-6.5745-.4353 8.5932-.4353 8.5932zm36.9312-3.9485C54.0384 36.2844 52 39.2979 52 39.8723a9.6877 9.6877 0 0 1 2.2979-6.4468c1.4567-1.5559 1.782-1.9747 1.782-1.9747a7.6211 7.6211 0 0 1-.6475 2.3428z" fill="#61b2e4"/><g fill="none" stroke="#000" stroke-linecap="round" stroke-linejoin="round" stroke-width="2"><path d="M21.223 26.275l-.001-6.519m-4.0291 4.5206v-4.8717c0-2.2272 4.0293-2.3929 4.03.3508v-1.7755c0-2.398 3.9-3.234 3.9009 1.06"/><path d="M25.2294 29.9222l-.1063-11.3486v.4664c0-2.1406 3.9487-2.7168 3.9492.5053l.0366 3.9106.07 7.4381-.08-8.5531c0-1.9284 3.4353-1.9937 3.4356.4933l.0022 14.8165a9.671 9.671 0 0 1-.62 3.426l-.375.8582S29.02 51.59 28.2967 54.9043H17.4821c-.6786-2.9558-3.2444-12.9694-3.2444-12.9694l-.3223-1.3533a9.68 9.68 0 0 1 .3974-5.7547c.6211-1.5962 1.3919-3.5908 2.3775-5.9179 1.01-.4091 1.8534.2683 2.38 1.2759a4.3081 4.3081 0 0 1 .0523 3.6583l-.13.307a6.2041 6.2041 0 0 0-.4913 2.42v1.1719M50.707 19.947l-.002 11.138m4.285 4.3079l1.3574-4.911a2.5373 2.5373 0 0 1 .6383-1.128c1.0907-1.0881 2.7824-1.8343 3.7489-1.0268a.7978.7978 0 0 1 .2416.7934c-.9673 3.983-1.8539 6.889-2.2486 8.6529l-1.0368 4.353s-2.1847 8.3854-3.1087 12.3744a.77.77 0 0 1-.7537.595H44.24a.7675.7675 0 0 1-.751-.5834c-.8994-3.6557-3.1014-12.386-3.1014-12.386l-.375-.8582a9.6687 9.6687 0 0 1-.62-3.426l.0021-14.8165c0-2.487 3.436-2.4218 3.4357-.4933l-.08 8.553.07-7.438.0367-3.9106c0-3.2222 3.9494-2.646 3.9491-.5053v-.4664L46.7 30.1137"/><path d="M46.8057 19.2315c.0006-4.2938 3.9013-3.4578 3.9009-1.06v1.7755c0-2.7437 4.03-2.578 4.03-.3508v5.68M29.726 47.912H16.122m39.7.191H42.218"/></g></svg>