<svg xmlns="http://www.w3.org/2000/svg" role="img" viewBox="14.72 5.84 42.31 60.19"><title>E0C6.svg</title><ellipse cx="36" cy="36" fill="#a57939" rx="19" ry="28"/><path fill="#6a462f" fill-rule="evenodd" d="M36.3126 64c-.0151 0-.0187-.0215-.0043-.0264 8.3256-2.8339 14.553-14.2593 14.553-27.9228 0-13.6712-6.2343-25.1017-14.567-27.9276-.0669-.0227-.0522-.1232.0183-.1232C46.6334 8 55 20.536 55 36s-8.3667 28-18.6874 28z"/><g fill="#6a462f"><path fill-rule="evenodd" d="M36 60.9996s-6-11.1929-6-25C30 22.2397 35.9591 11.0761 35.9998 11 35.9711 11.0538 33 16.6294 33 23.4996c0 6.9036 3 12.5 3 12.5s3 5.5964 3 12.5-3 12.5-3 12.5z"/><path d="M36 60.9996l-.8814.4725c.1742.3248.5128.5275.8814.5275s.7072-.2027.8814-.5275L36 60.9996zM35.9998 11l.8819.4713c.2603-.487.0766-1.0928-.4104-1.3532-.487-.2603-1.0928-.0767-1.3533.4102l.8818.4717zM36 35.9996l.8814-.4725-.8814.4725zm-7 0c0 7.0426 1.529 13.4025 3.0508 17.9924.7618 2.2976 1.5242 4.1589 2.098 5.4493.2869.6453.5269 1.1484.6963 1.4923.0848.172.1519.3043.1984.3947.0233.0452.0415.08.0541.104.0063.012.0113.0214.0148.028.0018.0033.0032.006.0042.0079.0005.001.001.0018.0013.0025.0002.0003.0004.0006.0004.0008L36 60.9996q.8814-.4725.8815-.4721s-.0002-.0002-.0004-.0006c-.0004-.0008-.0012-.0022-.0023-.0043-.0022-.0043-.0059-.0112-.0109-.0208a11.28606 11.28606 0 0 1-.0463-.089c-.0413-.0803-.1031-.202-.1825-.363-.1586-.3221-.3874-.8014-.663-1.4211-.5512-1.2398-1.2888-3.0397-2.027-5.2661-1.4782-4.4584-2.9492-10.5985-2.9492-17.363h-2zm6.118-25.4713C35.0545 10.6471 29 21.9887 29 35.9996h2c0-13.509 5.8636-24.4944 5.8816-24.5279l-1.7636-.9434zM34 23.4996c0-3.2967.714-6.2986 1.4387-8.4923.7236-2.1906 1.4474-3.5442 1.443-3.536l-1.7639-.9427C35.0663 10.6251 32 16.3787 32 23.4996h2zm2 12.5q.8814-.4725.8816-.4721v.0003h.0001s-.0003-.0004-.0007-.0012c-.0008-.0015-.0023-.0043-.0045-.0085a7.3648 7.3648 0 0 1-.0212-.0408c-.0194-.0376-.0489-.0958-.0873-.1736-.0766-.1556-.1882-.3892-.3231-.6927-.27-.6073-.6326-1.4918-.9958-2.5873-.7282-2.1963-1.4492-5.2113-1.4492-8.5241h-2c0 3.5908.779 6.8257 1.5508 9.1535.3868 1.1667.7742 2.1127 1.0667 2.7705.1463.3291.2691.5865.3565.764.0438.0887.0787.1575.1032.2052.0123.0239.0221.0425.029.0558.0035.0066.0063.0119.0084.0158.001.002.0019.0036.0026.0049.0003.0006.0006.0011.0008.0016.0002.0002.0003.0005.0004.0007l.8816-.472zm0 0q-.8814.4725-.8816.4721v-.0003h-.0001s.0003.0004.0007.0012c.0008.0015.0023.0043.0045.0085.0044.0084.0115.022.0212.0408.0194.0376.0489.0958.0873.1736.0766.1556.1882.3892.3231.6927.27.6073.6326 1.4918.9958 2.5873.7282 2.1963 1.4492 5.2113 1.4492 8.5241h2c0-3.5908-.779-6.8257-1.5508-9.1535-.3868-1.1666-.7742-2.1127-1.0667-2.7705-.1463-.3291-.2691-.5865-.3565-.764-.0438-.0887-.0786-.1575-.1032-.2052a6.96757 6.96757 0 0 0-.029-.0558c-.0035-.0066-.0063-.0119-.0084-.0158-.001-.002-.0019-.0036-.0025-.0049a.00894.00894 0 0 1-.0009-.0016c-.0002-.0002-.0003-.0005-.0004-.0006l-.8816.4719zm2 12.5c0 3.3128-.721 6.3278-1.4492 8.5241-.3632 1.0955-.7258 1.98-.9958 2.5873-.1349.3035-.2465.5371-.3231.6927-.0384.0778-.0679.136-.0873.1736a7.3648 7.3648 0 0 1-.0212.0408c-.0022.0042-.0037.007-.0045.0085a.00915.00915 0 0 1-.0007.0013h.0001v-.0004l.8816.4721q.8814.4725.8816.472s.0002-.0005.0004-.0007a.00894.00894 0 0 1 .0009-.0016c.0006-.0013.0015-.0029.0025-.0049.0021-.0039.0049-.0092.0084-.0158.0069-.0133.0167-.0319.029-.0558.0245-.0477.0594-.1165.1032-.2052.0874-.1775.2102-.4349.3565-.764.2925-.6578.6799-1.6038 1.0667-2.7705.7718-2.3278 1.5508-5.5627 1.5508-9.1535h-2z"/></g><g fill="none" stroke="#000" stroke-width="2"><ellipse cx="36" cy="36" rx="19" ry="28"/><path stroke-linecap="round" stroke-linejoin="round" d="M36 36s-3-5.5964-3-12.5S36 11 36 11m0 25s3 5.5964 3 12.5S36 61 36 61"/></g></svg>