<svg xmlns="http://www.w3.org/2000/svg" role="img" viewBox="9.94 6.94 51.99 54.99"><title>E0C7.svg</title><circle cx="38.5" cy="15" r="2" fill="#ea5a47"/><circle cx="33.5" cy="15" r="2" fill="#ea5a47"/><circle cx="36" cy="11" r="2" fill="#ea5a47"/><path fill="#FFF" stroke-linecap="round" stroke-linejoin="round" stroke-miterlimit="10" stroke-width="2" d="M60 57c0 1.6563-1.3428 3-3 3H15c-1.6572 0-3-1.3437-3-3v-1h48v1z"/><path fill="#fcea2b" d="M55.7666 34.4141L58 56H14l2.2334-21.5859L17 27c0-5.5229 4.4775-10 10-10h18c5.5225 0 10 4.4771 10 10l.7666 7.4141z"/><path fill="#a57939" d="M55.5332 34.4141c-.4961.3632-1.1035.5859-1.7666.5859-1.6572 0-3-1.3437-3-3v-2c0-1.6567-1.3428-3-3-3s-3 1.3433-3 3v2c0 1.6563-1.3428 3-3 3s-3-1.3437-3-3v-2c0-1.6567-1.3428-3-3-3s-3 1.3433-3 3v2c0 1.6563-1.3428 3-3 3s-3-1.3437-3-3v-2c0-1.6567-1.3428-3-3-3s-3 1.3433-3 3v2c0 1.6563-1.3428 3-3 3-.6631 0-1.2705-.2227-1.7666-.5859L16.7666 27c0-5.5229 4.4775-10 10-10h18c5.5225 0 10 4.4771 10 10l.7666 7.4141z"/><g fill="none" stroke="#000" stroke-linecap="round" stroke-linejoin="round" stroke-miterlimit="10" stroke-width="2"><path d="M60 57c0 1.6563-1.3428 3-3 3H15c-1.6572 0-3-1.3437-3-3v-1h48v1z"/><circle cx="38.5" cy="15" r="2"/><circle cx="33.5" cy="15" r="2"/><circle cx="36" cy="11" r="2"/><path d="M16.2334 34.4141L17 27c0-5.5229 4.4775-10 10-10h18c5.5225 0 10 4.4771 10 10l.7666 7.4141"/><path d="M16.233 34.414L14 56h44l-2.233-21.586"/><path d="M16.2334 34.4141C16.7295 34.7773 17.3369 35 18 35c1.6572 0 3-1.3437 3-3v-2c0-1.6567 1.3428-3 3-3s3 1.3433 3 3v2c0 1.6563 1.3428 3 3 3s3-1.3437 3-3v-2c0-1.6567 1.3428-3 3-3s3 1.3433 3 3v2c0 1.6563 1.3428 3 3 3s3-1.3437 3-3v-2c0-1.6567 1.3428-3 3-3s3 1.3433 3 3v2c0 1.6563 1.3428 3 3 3 .6631 0 1.2705-.2227 1.7666-.5859"/></g></svg>