<svg xmlns="http://www.w3.org/2000/svg" role="img" viewBox="5.84 14.84 60.19 42.19"><title>E0CA.svg</title><path fill="none" stroke="#000" stroke-linecap="round" stroke-linejoin="round" stroke-width="2" d="M46.1875 18.3669C42.9707 23.2635 41 31.0078 41 34c0-2.408 3.1199-7.6374 7.3961-12m-14.1957-4.9626C30.9759 21.7332 29 29.2993 29 32.8947c0-3.019 3.4056-8.5578 7.9774-12.8776m-16.0873.3069C18.449 24.9305 17 30.9211 17 34c0-3.0476 3.4704-8.663 8.1076-13"/><path fill="#6A462F" d="M64 41c0 10.4934-12.536 14-28 14S8 51.4934 8 41s8-24 28-24 28 13.5066 28 24z"/><path fill="#A57939" d="M46.1875 18.3669c1.5456.4533 2.9802 1.0088 4.3079 1.6502C45.1803 24.6449 41 31.2126 41 34c0-2.9922 1.9707-10.7365 5.1875-15.6331zm-5.83-1.1397C38.9732 17.0782 37.5213 17 36 17c-.611 0-1.2109.0126-1.7996.0373C30.9759 21.7332 29 29.2993 29 32.8947c0-3.727 5.1903-11.2944 11.3575-15.6675zm-10.761.2791C22.9018 21.6846 17 30.0257 17 34c0-3.0789 1.449-9.0695 3.8901-13.676 2.4969-1.2884 5.3897-2.2664 8.7064-2.8177z"/><path fill="none" stroke="#A57939" stroke-linejoin="round" stroke-width="2" d="M46.1875 18.3669c1.5456.4533 2.9802 1.0088 4.3079 1.6502C45.1803 24.6449 41 31.2126 41 34c0-2.9922 1.9707-10.7365 5.1875-15.6331zm-5.83-1.1397C38.9732 17.0782 37.5213 17 36 17c-.611 0-1.2109.0126-1.7996.0373C30.9759 21.7332 29 29.2993 29 32.8947c0-3.727 5.1903-11.2944 11.3575-15.6675zm-10.761.2791C22.9018 21.6846 17 30.0257 17 34c0-3.0789 1.449-9.0695 3.8901-13.676 2.4969-1.2884 5.3897-2.2664 8.7064-2.8177z"/><g><path fill="none" stroke="#000" stroke-width="2" d="M64 41c0 10.4934-12.536 14-28 14S8 51.4934 8 41s8-24 28-24 28 13.5066 28 24z"/></g></svg>