<svg xmlns="http://www.w3.org/2000/svg" role="img" viewBox="13.43 0.68 43.65 68.77"><title>E100.svg</title><g id="color"><circle cx="30.337" cy="13.859" r="10.216" fill="#fff"/><path fill="#fcea2b" d="M54.6252 48.8242c0 11.975-7.1612 18.3906-16.2494 18.3906-10.1295-1.8157-18.5019-4.0812-16.6172-31.1527M47.8393 37.5921c.081-1.9313 1.7123-3.4313 3.6436-3.3502s3.4313 1.7123 3.3502 3.6436M40.8423 37.3592c.081-1.9313 1.7123-3.4313 3.6436-3.3502s3.4313 1.7123 3.3502 3.6436"/><path fill="#fcea2b" d="M40.8463 37.2253c.155-1.9268 1.8426-3.3631 3.7694-3.2081 1.9268.155 3.3631 1.8426 3.2081 3.7694M33.8047 36.8809c.1237-1.929 1.7878-3.3925 3.7168-3.2688s3.3925 1.7878 3.2688 3.7168M22.2915 46.1851c-5.8672-7.6195-6.7449-10.6867-5.3546-12.0296s5.6942.7837 7.0371 2.1741M26.8047 14.5086c0-1.933 1.567-3.5 3.5-3.5s3.5 1.567 3.5 3.5"/><path fill="none" d="M23.844 36.455L21.886 34.242"/><path fill="#fcea2b" d="m18.6186,41.4242c1.9526,2.1439,3.3734,5.1677,3.3013,9.5218"/><path fill="none" d="M16.851 39.105L18.672 41.485"/><path fill="#fcea2b" d="M33.915 41.924L26.852 39.957 26.852 14.174 33.805 14.174 33.915 41.924zM33.915 36.844H54.836V49.07H33.915zM26.805 40.065L24.149 39.07 24.658 35.884 26.822 38.814 26.805 40.065z"/></g><g id="line" fill="none" stroke="#000" stroke-linecap="round" stroke-linejoin="round" stroke-width="2"><path d="M33.79 23.7098c4.13-1.45 7.09-5.39 7.09-10.02 0-5.87-4.75-10.63-10.62-10.63s-10.62 4.76-10.62 10.63c0 4.65 2.99 8.6 7.15 10.04M54.8163 50.7743c0 9.0883-7.3675 16.4558-16.4558 16.4558s-16.4558-7.3675-16.4558-16.4558M54.816 49.901L54.816 37.901M47.824 37.6074c.081-1.9313 1.7123-3.4313 3.6436-3.3502s3.4313 1.7123 3.3502 3.6436M40.827 37.3745c.081-1.9313 1.7123-3.4313 3.6436-3.3502s3.4313 1.7123 3.3502 3.6436"/><path d="M40.8311 37.2406c.155-1.9268 1.8426-3.3631 3.7694-3.2081s3.3631 1.8426 3.2081 3.7694M33.7895 36.8962c.1237-1.929 1.7878-3.3925 3.7168-3.2688s3.3925 1.7878 3.2688 3.7168M16.8357 39.1198c-1.3429-1.3904-1.3044-3.6061.086-4.949s3.6061-1.3044 4.949.086M26.7895 14.5239c0-1.933 1.567-3.5 3.5-3.5s3.5 1.567 3.5 3.5M33.789 36.859L33.789 14.524M26.79 14.524L26.79 42.315M23.829 36.471L21.871 34.257M18.6034 41.4395c1.9526 2.1439 3.3734 5.1677 3.3013 9.5218M16.836 39.12L18.657 41.5M54.8315 50.7591c0 9.0883-7.3675 16.4558-16.4558 16.4558s-16.4557-7.3675-16.4557-16.4558"/></g></svg>