<svg xmlns="http://www.w3.org/2000/svg" role="img" viewBox="8.85 6.85 49.18 59.93"><title>E105.svg</title><circle cx="39.882" cy="38.895" r="2.14" fill="#fcea2b"/><circle cx="46.083" cy="38.895" r="2.14" fill="#fcea2b"/><circle cx="52.042" cy="39.45" r="2.14" fill="#fcea2b"/><circle cx="33" cy="12" r="4" fill="#92d3f5"/><circle cx="34" cy="19" r="3" fill="#fcea2b"/><path fill="#fcea2b" d="M33.7797 19.0447c1.3229 0 2.3953 1.4015 2.3953 3.1303v16.6947c0 1.7288-1.0724 3.1303-2.3953 3.1303-1.3229 0-2.3953-1.4015-2.3953-3.1303V22.175c0-1.7288 1.0724-3.1303 2.3953-3.1303zm-4.9884 37.6265l2.5261 3.4366c.1487.2023.3312.3765.5392.5147l3.971 2.6383c.2896.1924.6212.3101.9658.3429l5.6192.5341c.3288.0312.6602-.0157.968-.1371l5.2341-2.0645c.3736-.1474.6985-.3989.9372-.7257l3.5647-4.8799c.2028-.2776.3369-.6007.3909-.9419l.2547-1.609c.21-1.3272-.815-2.5236-2.1395-2.4973l-21.5335.4284c-1.3157.0262-2.2918 1.2472-2.0456 2.5588s.3856 1.6191.3856 1.6191c.0674.283.1906.5491.3621.7825zm.0871-7.5503a1.91998 1.91998 0 0 1-1.3559-.868L23.0471 41.25l-1.2197-1.9365c-.4826-.7661-.3642-1.7653.284-2.3974l.3018-.2943a1.91992 1.91992 0 0 1 1.6148-.5257l3.6312.5245c.4342.0627.8338.2722 1.1323.5937l1.6337 1.7593c.2332.2511.3949.56.4683.8947l.5459 2.4868c.0428.1948.0549.3951.036.5936l-.4241 4.4524c-.1035 1.0868-1.0913 1.8686-2.1728 1.7198z"/><path fill="#fcea2b" d="M31.323 40.3402v.1061c0 1.0093-.8647 1.8276-1.9314 1.8276s-1.9314.8182-1.9314 1.8276v9.071c0 1.0093.8647 1.8276 1.9314 1.8276h22.7909c1.0667 0 1.9314-.8182 1.9314-1.8276V40.3403c0-1.0093-.8647-1.8276-1.9314-1.8276H33.2544c-1.0667 0-1.9314.8182-1.9314 1.8276z"/><g stroke="#000" stroke-linecap="round" stroke-linejoin="round" stroke-width="2"><path d="M40.5684 11.5949s7.2102 0 14.4203 4.8068m-28.8406-4.8068s-7.2102 0-14.4203 4.8068"/><path fill="none" d="M54.624 10l1.307 7.239m-7.239 1.307l7.239-1.307M12.343 10l-1.307 7.239m7.239 1.307l-7.239-1.307m43.9847 33.3075c0 7.8067-6.3285 14.1352-14.1352 14.1352s-14.1352-6.3285-14.1352-14.1352m28.2707-.7505V39.488m-6.0065-.2516c.0696-1.659 1.4708-2.9474 3.1298-2.8778 1.6589.0696 2.9474 1.4708 2.8778 3.1298m-12.0178-.4521c.0696-1.6589 1.4708-2.9474 3.1298-2.8778 1.6589.0696 2.9474 1.4708 2.8778 3.1298"/><path fill="none" d="M43.0077 38.9213c.1331-1.6551 1.5828-2.8888 3.2378-2.7557 1.6551.1331 2.8888 1.5828 2.7557 3.2378m-12.0421-.7779c.1063-1.657 1.5357-2.9141 3.1927-2.8079 1.657.1063 2.9141 1.5357 2.8079 3.1927m-20.5636 1.5252c-1.1535-1.1943-1.1205-3.0976.0738-4.2511s3.0976-1.1205 4.2511.0738m4.2253-16.9501c0-1.6604 1.346-3.0064 3.0064-3.0064s3.0064 1.346 3.0064 3.0064M36.959 38.594V19.408m-6.013 0V43.28m-2.543-5.02l-1.682-1.902m-2.8064 6.1701c1.6773 1.8416 2.8977 4.4389 2.8358 8.1791M22.396 40.535l1.565 2.045m11.5656-28.9618C35.8262 13.1514 36 12.596 36 12c0-1.6569-1.3431-3-3-3s-3 1.3431-3 3c0 .8284.3358 1.5784.8787 2.1213"/></g></svg>