<svg xmlns="http://www.w3.org/2000/svg" role="img" viewBox="8.85 6.85 48.30 59.93"><title>E108.svg</title><circle cx="33" cy="12" r="4" fill="#92D3F5"/><path fill="#FCEA2B" d="M55 36.6959H37V20h-.1837c.1117-.3142.1837-.6475.1837-1 0-1.6569-1.3431-3-3-3s-3 1.3431-3 3c0 .3525.072.6858.1837 1H31v20.354l-.2188-.9969-2.4511-2.6396-5.2392-.7568L21 38l2.0471 3.25L27 47.4352v4.9335l-.1849.007L27 53.411V55h.2838l.0646.3616L28 56l2.0676 4.0537 5.7051 3.7324 6.2917.9064 6.8249-2.346 5.0653-6.1851L54.1971 55H55V36.6959z"/><g stroke="#000" stroke-linecap="round" stroke-linejoin="round" stroke-miterlimit="10" stroke-width="2"><path d="M26.1481 11.5949s-7.2102 0-14.4203 4.8068"/><path fill="none" d="M12.343 10l-1.307 7.239m7.239 1.307l-7.239-1.307m43.9847 33.3075c0 7.8067-6.3285 14.1352-14.1352 14.1352s-14.1352-6.3285-14.1352-14.1352m28.2707-.7505V39.488m-6.0065-.2516c.0696-1.659 1.4708-2.9474 3.1298-2.8778 1.6589.0696 2.9474 1.4708 2.8778 3.1298m-12.0178-.4521c.0696-1.6589 1.4708-2.9474 3.1298-2.8778 1.6589.0696 2.9474 1.4708 2.8778 3.1298"/><path fill="none" d="M43.0077 38.9213c.1331-1.6551 1.5828-2.8888 3.2378-2.7557 1.6551.1331 2.8888 1.5828 2.7557 3.2378m-12.0421-.7779c.1063-1.657 1.5357-2.9141 3.1927-2.8079 1.657.1063 2.9141 1.5357 2.8079 3.1927m-20.5636 1.5252c-1.1535-1.1943-1.1205-3.0976.0738-4.2511s3.0976-1.1205 4.2511.0738m4.2253-16.9501c0-1.6604 1.346-3.0064 3.0064-3.0064s3.0064 1.346 3.0064 3.0064M36.959 38.594V19.408m-6.013 0V43.28m-2.543-5.02l-1.682-1.902m-2.8064 6.1701c1.6773 1.8416 2.8977 4.4389 2.8358 8.1791M22.396 40.535l1.565 2.045m11.5656-28.9618C35.8262 13.1514 36 12.596 36 12c0-1.6569-1.3431-3-3-3s-3 1.3431-3 3c0 .8284.3358 1.5784.8787 2.1213"/></g></svg>