<svg xmlns="http://www.w3.org/2000/svg" role="img" viewBox="6.04 3.92 59.04 62.79"><title>E109.svg</title><circle cx="14.229" cy="31.724" r="4" fill="#92D3F5"/><path fill="#FCEA2B" d="M61.4709 44.0119l-.7338-.9323.5161-.6151-14.0218-11.7656-11.5719 13.7908-12.7891-10.7321-.1182.1408c-.1689-.2877-.378-.5572-.6481-.7839-1.2691-1.065-3.1613-.8995-4.2264.3696-1.065 1.2692-.8995 3.1614.3696 4.2264.2701.2267.5718.3859.8844.5023l-.1182.1408 15.5823 13.0762-.8936-.4675-3.5975.181-3.9475 3.527.2182 2.9125 3.8056.5209 7.279.9478 3.7792 3.1711-.1135.1461.912.524 1.2171 1.0212.1823-.2173.3185.183.908-.0889 4.4343 1.0218 6.5264-1.9713 4.7385-4.2371 2.5898-6.7361-1.4817-7.8561z"/><g fill="none" stroke="#000" stroke-linecap="round" stroke-linejoin="round" stroke-miterlimit="10" stroke-width="2"><path d="M57.855 39.5861c5.9803 5.018 6.7603 13.9339 1.7423 19.9141s-13.9339 6.7603-19.9141 1.7423M57.28 39.104l-7.896-6.626m-4.0538 4.4391c-1.2261-1.1197-1.3124-3.0213-.1927-4.2474 1.1197-1.2261 3.0213-1.3124 4.2474-.1927m-8.0713 8.9156c-1.2261-1.1197-1.3124-3.0213-.1927-4.2474 1.1197-1.2261 3.0213-1.3124 4.2474-.1927"/><path d="M41.2277 41.316c-1.1823-1.1659-1.1956-3.0694-.0297-4.2516 1.1658-1.1823 3.0694-1.1956 4.2516-.0297m-8.3365 8.7246c-1.201-1.1465-1.2452-3.0496-.0987-4.2506s3.0496-1.2453 4.2506-.0988M29.2154 58.143c-1.6564.116-3.0931-1.1328-3.2091-2.7891-.116-1.6563 1.1328-3.0931 2.7891-3.2091m-10.2687-14.132c-1.2719-1.0673-1.4379-2.9636-.3706-4.2356s2.9636-1.4379 4.2356-.3706M37.089 45.739L22.392 33.407m-3.865 4.606l18.286 15.344m-5.48-1.278l-2.538.066m2.9228 6.1156c2.4888-.1011 5.263.6335 8.0883 3.0851M29.215 58.143l2.572.116M17.0896 30.8171c-.165-.5297-.4788-1.0198-.9353-1.4029-1.2692-1.065-3.1615-.8995-4.2265.3698-1.065 1.2692-.8995 3.1615.3698 4.2265.6346.5325 1.425.7574 2.1898.6905M13.466 24.552V7.466m-5.173 3.871l5.201-5.201m5.202 5.201l-5.202-5.201"/></g></svg>