<svg xmlns="http://www.w3.org/2000/svg" role="img" viewBox="19.35 6.85 38.68 59.93"><title>E10A.svg</title><circle cx="33" cy="12" r="4" fill="#92d3f5"/><g fill="#fcea2b"><path d="M39.9547 36.8195c1.3123 0 2.3777 1.0654 2.3777 2.3777v.6321h-4.7613v-.6263c0-1.3155 1.068-2.3835 2.3835-2.3835zm5.8545.2011c1.3123 0 2.3777 1.0654 2.3777 2.3777v.6321h-4.7613v-.6263c0-1.3155 1.068-2.3835 2.3835-2.3835zm8.223 3.6124l-4.0668.0617v-1.4024c0-1.3164.8064-1.9664 2.1228-1.9664l.1564-.0223c.9385.067 1.7876.5638 1.7876 1.877v1.4524z"/><path d="M29.1521 56.9283l1.567 2.2842c.1371.1998.3086.3736.5066.5133l4.5461 3.2074c.2574.1816.5532.3011.8645.3494l4.7174.5584c.344.0533 2.3706-.1487 2.697-.2697l3.1883-1.3774c.2583-.0958 1.871-1.1783 2.0709-1.3678l1.965-2.042c.1154-.1094 1.0592-1.4947 1.1462-1.6278l.9151-1.9168c.1905-.2914.3898-1.0494.4142-1.3967l.289-1.5123c.0035-.0495.1735-1.5011.1734-1.5508l.1025-8.9547c-.0032-1.1117-.8953-2.0165-2.0068-2.0355l-14.0751-.2405c-1.1125-.019-2.005-.9254-2.0068-2.0381l-.0276-16.983-.0639-.1437c.1117-.3142.0371-.3981.0479-.7504.0398-1.2936-.6492-2.2805-2.0597-2.3631-.8259-.0484-2.1983.7716-2.2354 1.8043-.0126.3523-.0935.67.0182.9842l-.0365 1.6038-.0445 19.0336-.9898-1.2697a2.05253 2.05253 0 0 0-.1141-.134l-1.9437-2.0932a2.04143 2.04143 0 0 0-1.092-.612l-2.2456-.4535a2.0417 2.0417 0 0 0-1.2571.1463l-.7212.3316c-.8067.3709-1.2812 1.2208-1.1737 2.1021.0398.3261.1576.6377.3435.9085l3.4024 4.9554c.1231.1793.2168.3772.2775.5861l.6932 2.3861c.0336.1157.0569.2341.0696.3539l.4355 4.1c.0075.0702.0185.1399.0332.2089l.3728 1.7536c.0259.1217.0628.2408.1104.3557l.9229 2.2315c.0544.1316.1225.2572.2031.3747z"/></g><g stroke="#000" stroke-linecap="round" stroke-linejoin="round" stroke-width="2"><path d="M40.5684 11.5949s7.2102 0 14.4203 4.8068"/><path fill="none" d="M54.624 10l1.307 7.239m-7.239 1.307l7.239-1.307m-.9103 33.3075c0 7.8067-6.3285 14.1352-14.1352 14.1352s-14.1352-6.3285-14.1352-14.1352m28.2707-.7505V39.488m-6.0065-.2516c.0696-1.659 1.4708-2.9474 3.1298-2.8778 1.6589.0696 2.9474 1.4708 2.8778 3.1298m-12.0178-.4521c.0696-1.6589 1.4708-2.9474 3.1298-2.8778 1.6589.0696 2.9474 1.4708 2.8778 3.1298"/><path fill="none" d="M43.0077 38.9213c.1331-1.6551 1.5828-2.8888 3.2378-2.7557 1.6551.1331 2.8888 1.5828 2.7557 3.2378m-12.0421-.7779c.1063-1.657 1.5357-2.9141 3.1927-2.8079 1.657.1063 2.9141 1.5357 2.8079 3.1927m-20.5636 1.5252c-1.1535-1.1943-1.1205-3.0976.0738-4.2511s3.0976-1.1205 4.2511.0738m4.2253-16.9501c0-1.6604 1.346-3.0064 3.0064-3.0064s3.0064 1.346 3.0064 3.0064M36.959 38.594V19.408m-6.013 0V43.28m-2.543-5.02l-1.682-1.902m-2.8064 6.1701c1.6773 1.8416 2.8977 4.4389 2.8358 8.1791M22.396 40.535l1.565 2.045m11.5656-28.9618C35.8262 13.1514 36 12.596 36 12c0-1.6569-1.3431-3-3-3s-3 1.3431-3 3c0 .8284.3358 1.5784.8787 2.1213"/></g></svg>