<svg xmlns="http://www.w3.org/2000/svg" role="img" viewBox="6.12 16.49 58.89 40.14"><title>E10B.svg</title><g id="color"><circle cx="14.229" cy="21.724" r="4" fill="#92d3f5"/></g><g id="skin" fill="#fcea2b"><path d="m42.5849,52.3737l.7668.2869c1.2512.4682,2.5585.7698,3.8884.8972l.3746.0359c1.8374.176,3.691-.0507,5.4318-.6641h0c1.6539-.5828,3.1776-1.4841,4.4848-2.653l.9058-.8099c.8446-.7551,1.5184-1.6816,1.9767-2.7177l.9785-2.2123c.3841-.8685.602-1.8013.6422-2.7501l.1005-2.3709c.0483-1.1406-.1207-2.2785-.4964-3.3534-.1069-.3059-.2598-.5946-.4312-.8696l-1.5778-2.5311c-.2672-.4286-.5969-.8148-.9783-1.1459l-9.666-8.1139-11.2789,12.2218-15.3962-11.2013-.1076-.0753c-.1689-.2877-.5597-.5597-1.0872-.7427-.8934-.1938-2.0667.4736-2.2712.6889-1.0651,1.2692-.6955,2.0263-.2272,2.4946.2701.2267.6908.7533,1.0035.8697l2.2745,2.0738,13.1321,11.065-3.6117.2972-2.6698,1.711c-.3833.2456-.7432.5259-1.0753.8374l-.21.197c-.3599.3375-.5663.8074-.5715,1.3007h0c-.0057.5428.2196,1.0625.6198,1.4293l.1124.103c.4499.4124,1.0292.6554,1.6387.6874l2.8937.1518c1.1308.0593,2.2453.2947,3.3035.6976l3.0182,1.1492"/><path d="m36.7286,31.8004h3.8029c.0728,0,.1318.0591.1318.1318v.3149c0,1.1265-.9146,2.041-2.041,2.041h0c-1.1179,0-2.0255-.9076-2.0255-2.0255v-.3305c0-.0728.0591-.1318.1318-.1318Z" transform="rotate(135 38.63 33.044)"/><path d="m40.9244,27.3316h3.8029c.0728,0,.1318.0591.1318.1318v.3149c0,1.1265-.9146,2.041-2.041,2.041h0c-1.1179,0-2.0255-.9076-2.0255-2.0255v-.3305c0-.0728.0591-.1318.1318-.1318Z" transform="rotate(135 42.826 28.576)"/><path d="m44.8815,22.8969h3.8029c.0728,0,.1318.0591.1318.1318v.3149c0,1.1265-.9146,2.041-2.041,2.041h0c-1.1179,0-2.0255-.9076-2.0255-2.0255v-.3305c0-.0728.0591-.1318.1318-.1318Z" transform="rotate(135 46.783 24.14)"/></g><g id="line" fill="none" stroke="#000" stroke-linecap="round" stroke-linejoin="round" stroke-width="2"><path d="M57.855 29.5861c5.9803 5.018 6.7603 13.9339 1.7423 19.9141s-13.9339 6.7603-19.9141 1.7423M57.28 29.104L49.384 22.478M45.3302 26.9171c-1.2261-1.1197-1.3124-3.0213-.1927-4.2474s3.0213-1.3124 4.2474-.1927M41.3136 31.3926c-1.2261-1.1197-1.3124-3.0213-.1927-4.2474s3.0213-1.3124 4.2474-.1927"/><path d="M41.2277 31.316c-1.1823-1.1658-1.1956-3.0694-.0297-4.2516 1.1658-1.1823 3.0694-1.1956 4.2516-.0297M37.1131 35.7593c-1.201-1.1465-1.2452-3.0496-.0987-4.2506s3.0496-1.2452 4.2506-.0987M29.2154 48.143c-1.6564.116-3.0931-1.1328-3.2091-2.7891-.116-1.6563 1.1328-3.0931 2.7891-3.2091M18.5267 28.0128c-1.2719-1.0673-1.4379-2.9636-.3706-4.2356 1.0673-1.2719 2.9636-1.4379 4.2356-.3706M37.089 35.739L22.392 23.407M18.527 28.013L36.813 43.357M31.333 42.079L28.795 42.145M31.7178 48.2606c2.4888-.1011 5.263.6335 8.0883 3.0851M29.215 48.143L31.787 48.259M17.0896 20.8171c-.165-.5297-.4788-1.0198-.9353-1.4029-1.2692-1.065-3.1615-.8995-4.2265.3698-1.065 1.2692-.8995 3.1615.3698 4.2265.6346.5325 1.425.7574 2.1898.6905M13.524 29.136L13.524 48.221M18.696 44.35L13.495 49.552M8.293 44.351L13.495 49.552"/></g></svg>