<svg xmlns="http://www.w3.org/2000/svg" role="img" viewBox="8.96 7.84 53.95 49.20"><title>E141.svg</title><g fill="#61b2e4" stroke-linecap="round" stroke-linejoin="round" stroke-miterlimit="10" stroke-width="2"><path d="M52.1667 42.2845H19.8333v-18.154c0-7.831 6.3483-14.1794 14.1794-14.1794h4.1003c7.7617 0 14.0537 6.2921 14.0537 14.0537v18.2797zM61 55.0208h-8.8333V28h3.7829C58.7388 28 61 30.2612 61 33.0505v21.9703zM19.833 42.285h32.333v12.736H19.833z"/><path d="M52.1667 42.2845H19.8333v-3.3504c0-2.1612 1.752-3.9133 3.9133-3.9133h23.6831c2.6162 0 4.737 2.1208 4.737 4.737v2.5267zM11 55.0208h8.8333V28h-3.7829C13.2612 28 11 30.2612 11 33.0505v21.9703z"/></g><path fill="none" stroke="#000" stroke-linecap="round" stroke-linejoin="round" stroke-miterlimit="10" stroke-width="2" d="M52.1667 42.2845H19.8333v-18.154c0-7.831 6.3483-14.1794 14.1794-14.1794h4.1003c7.7617 0 14.0537 6.2921 14.0537 14.0537v18.2797zM61 55.0208h-8.8333V28h3.7829C58.7388 28 61 30.2612 61 33.0505v21.9703zM19.833 42.285h32.333v12.736H19.833z"/><path fill="none" stroke="#000" stroke-linecap="round" stroke-linejoin="round" stroke-miterlimit="10" stroke-width="2" d="M52.1667 42.2845H19.8333v-3.3504c0-2.1612 1.752-3.9133 3.9133-3.9133h23.6831c2.6162 0 4.737 2.1208 4.737 4.737v2.5267zM11 55.0208h8.8333V28h-3.7829C13.2612 28 11 30.2612 11 33.0505v21.9703z"/><circle cx="29.769" cy="18.709" r="1.167"/><circle cx="42.559" cy="18.709" r="1.167"/><circle cx="29.769" cy="27.438" r="1.167"/><circle cx="42.559" cy="27.438" r="1.167"/></svg>