<svg xmlns="http://www.w3.org/2000/svg" role="img" viewBox="13.09 8.84 45.45 54.08"><title>E145.svg</title><g id="color"><path fill="#d0cfce" d="m20.79 13.75c4.486-1.907 9.794-2.444 15.54-2.258 6.094-0.08112 11.72 0.4806 16.13 2.738 4.116 1.533 3.637 7.559 3.604 13.56 0.0665 5.123 0.3569 9.4-1.457 13.54-2.018 6.04-5.354 10.53-8.93 14.75-1.267 1.212-2.747 2.396-4.686 3.522-1.539 0.5021-3.132 0.9175-4.989 0.9047l-3.452-0.3979c-2.798-0.9362-4.443-2.413-6.064-3.901-3.49-3.68-6.748-8.312-9.237-16.11-1.045-3.183-1.92-6.823-1.307-14.46-0.035-6.012 0.5461-10.53 4.848-11.88z" transform="translate(0 -.001) scale(.9998)"/><path fill="none" stroke="#3f3f3f" stroke-linecap="round" d="M32.02 36.1l1.35-10.91M39.85 36.1l-1.01-10.98" transform="translate(0 -.001) scale(.9998)"/><path fill="none" stroke="#9b9b9a" d="M16 36.25c4.697 2.945 9.711 4.327 15.89 0M55.88 36.22c-4.697 2.945-9.711 4.327-15.89 0" transform="translate(0 -.001) scale(.9998)"/></g><g id="line"><path fill="none" stroke="#000" stroke-linecap="round" stroke-linejoin="round" stroke-width="2" d="M32.02 36.1c-2.187 2.411-1.531 2.89-1.409 3.732 1.997-.3199 3.52 1.314 5.322 1.664M39.85 36.1c2.187 2.411 1.531 2.89 1.409 3.732-1.997-.3199-3.52 1.314-5.322 1.664" transform="translate(0 -.001) scale(.9998)"/><path stroke-width=".429" d="m36.07 60.5 2.482-0.237 0.1543-3.484s0.0814-1.791 0.4668-3.713c1.055-5.259 1.291-4.883-3.076-4.883-0.0091 0-0.01817 3e-6 -0.02724 1e-5z" class="UnoptimicedTransforms" transform="translate(.002) scale(.9998)"/><path stroke-width=".429" d="m36.07 60.5 2.482-0.237 0.1543-3.484s0.0814-1.791 0.4668-3.713c1.055-5.259 1.291-4.883-3.076-4.883-0.0091 0-0.01817 3e-6 -0.02724 1e-5z" class="UnoptimicedTransforms" transform="matrix(-.9998 0 0 .9998 72.191 0)"/><path stroke-width=".429" d="m30.78 46.53c-0.6605-0.9987 0.4962-1.258 5.604-1.258 4.844 0 5.324 0.06719 5.189 0.7266-0.1301 0.6342-0.8072 0.7414-5.329 0.8432-3.214 0.0724-5.288-0.04579-5.463-0.3114z" transform="translate(0 -.001) scale(.9998)"/><path d="M50.91 23.98c.3774.2199.4675-.651.4675-1.902 0-1.6-.0152-1.714-3.209-2.043-2.207-.1426-3.003.02065-5.336 1.094-1.508.6936-3.307 1.813-3.999 2.488-1.065 1.039-1.181 1.36-.7576 2.099.6767 1.182 2.054 1.097 3.736-.2283 3.047-2.401 6.522-3.144 9.097-1.506zM21.29 23.98c-.3774.2199-.4675-.651-.4675-1.902 0-1.6.0152-1.714 3.209-2.043 2.207-.1426 3.003.02065 5.336 1.094 1.508.6936 3.307 1.813 3.999 2.488 1.065 1.039 1.181 1.36.7576 2.099-.6767 1.182-2.054 1.097-3.736-.2283-3.047-2.401-6.522-3.144-9.097-1.506z" transform="translate(0 -.001) scale(.9998)"/><path stroke-width=".429" d="m24 31.11c-2.437-0.6575-1.589-2.353 1.261-2.521 2.377-0.1407 5.607 0.4718 6.239 1.183 0.4804 0.5409 0.4359 0.7423-0.2707 1.225-0.9578 0.6545-4.989 0.7177-7.229 0.1133zm17.43-0.1133c-1.239-0.8469-0.207-1.795 2.378-2.185 3.848-0.5801 6.295-0.05888 6.295 1.341 0 1.265-7.053 1.951-8.673 0.844z" transform="translate(0 -.001) scale(.9998)"/><path fill="none" stroke="#000" stroke-linecap="round" stroke-linejoin="round" stroke-width="2.5" d="M22.57 38.8l2.911 5.042h7.669l1.512-2.44M49.27 38.78l-2.911 5.042h-7.669l-1.512-2.427" transform="translate(0 -.001) scale(.9998)"/><path fill="none" stroke="#000" stroke-linecap="round" stroke-linejoin="round" stroke-width="3" d="m20.79 13.75c4.486-1.907 9.794-2.444 15.54-2.258 6.094-0.08112 11.72 0.4806 16.13 2.738 4.116 1.533 3.637 7.559 3.604 13.56 0.0665 5.123 0.3569 9.4-1.457 13.54-2.018 6.04-5.354 10.53-8.93 14.75-1.267 1.212-2.747 2.396-4.686 3.522-1.539 0.5021-3.132 0.9175-4.989 0.9047l-3.452-0.3979c-2.798-0.9362-4.443-2.413-6.064-3.901-3.49-3.68-6.748-8.312-9.237-16.11-1.045-3.183-1.92-6.823-1.307-14.46-0.035-6.012 0.5461-10.53 4.848-11.88z" transform="translate(0 -.001) scale(.9998)"/><path fill="none" stroke="#000" stroke-linecap="round" d="M32.02 36.09l1.35-10.91M39.84 36.09l-1.01-10.98"/></g></svg>