<svg xmlns="http://www.w3.org/2000/svg" role="img" viewBox="11.59 8.84 48.69 53.56"><title>E14A.svg</title><g id="color"><path fill="#3f3f3f" stroke="#3f3f3f" stroke-linecap="round" stroke-linejoin="round" stroke-width="2" d="m16 44.46-0.1332-3.112c-1.748-5.302-2.465-12.26-1.214-16.17 0.9622-3.006 4.864-9.584 9.72-11.86 8.772-4.172 16.37-1.611 20.49-0.3777 4.87 1.952 8.904 4.811 11.51 11.06 1.24 2.972 2.174 8.5 1.751 13.93-0.2985 3.839-1.669 7.596-2.533 10.6-1.046 3.631-5.339 7.492-8.255 9.831l0.4903 0.1222-1.622 1.988z"/><path fill="#3f3f3f" stroke="#3f3f3f" stroke-linecap="round" stroke-linejoin="round" stroke-width="2" d="m16 44.46-0.1332-3.112 0.4597 0.4917 31.01 16.52 0.4903 0.1222-1.622 1.988z"/><path fill="#d22f27" stroke-width="20.46" d="m377 486c-1.719 0-3.453-0.422-5.016-1.25l-317.3-169c-2.078-1.109-3.734-2.875-4.703-5.03-4.344-9.641-41.42-96.51-8.437-178.2 18.59-46.01 47.14-80.76 84.82-103.3 32.42-19.37 70.5-29.2 113.2-29.2 38.64 0 80.28 8.562 117.2 24.11 34.53 14.53 62.75 34.3 77.4 54.22 23.81 32.34 39.28 70.62 46.01 113.8 5.828 37.45 4.812 78.72-2.969 119.3-14.81 77.39-52.82 146.9-94.57 172.9-1.718 1.078-3.687 1.625-5.64 1.625z" transform="translate(10.98 10.98) scale(.09775)"/><path fill="#3f3f3f" stroke-width="20.46" d="m476.2 171.2c-11.12-1.625-45.56-6.843-86.87-15.05-66.15-13.17-119.6-27.98-154.6-42.87-3.25-1.374-34.89-6.326-37.86-4.405-18.69 3.56-34.1 21.12-34.1 51.11 0 2.547-0.031 62.72 15.16 93.89 5.343 10.98 27.31 28.17 149.7 72.43 64.47 23.31 128.1 43.54 133.1 45.12 6.952-18.97 12.61-39.2 16.59-60 7.781-40.61 8.797-81.87 2.969-119.3-1.11-7.109-2.469-14.08-4.047-20.91z" transform="translate(10.98 10.98) scale(.09775)"/><path fill="none" stroke="#9b9b9a" stroke-linecap="round" stroke-linejoin="round" stroke-width="2" d="m55.76 27.44 0.3762 2.314 0.3602 4.32-0.0481 2.445-0.2961 3.049-0.6881 3.614-0.7776 3.58"/><circle cx="30.84" cy="25.52" r="3.957" stroke="#000" stroke-width="2"/></g><g id="line" fill="none" stroke="#000"><path stroke-linecap="round" stroke-linejoin="round" stroke-width="20.46" d="m377 486c-1.719 0-3.453-0.422-5.016-1.25l-317.3-169c-2.078-1.109-3.734-2.875-4.703-5.03-4.344-9.641-41.42-96.51-8.437-178.2 13.54-33.5 32.35-61.03 56.13-82.23 8.878-7.914 18.45-14.95 28.69-21.07 32.42-19.37 70.5-29.2 113.2-29.2 38.64 0 80.28 8.562 117.2 24.11 34.53 14.53 62.75 34.3 77.4 54.22 23.81 32.34 39.28 70.62 46.01 113.8 5.828 37.45 4.812 78.72-2.969 119.3-14.81 77.39-52.82 146.9-94.57 172.9-1.718 1.078-3.687 1.625-5.64 1.625z" transform="translate(10.98 10.98) scale(.09775)"/><path stroke-linecap="round" stroke-linejoin="round" stroke-width="2" d="m16 44.46 30.21 16.01"/><path stroke-width="20.46" d="m476.2 171.2c-11.12-1.625-45.56-6.843-86.87-15.05-66.15-13.17-119.6-27.98-154.6-42.87-3.25-1.374-34.89-6.326-37.86-4.405-18.69 3.56-34.1 21.12-34.1 51.11 0 2.547-0.031 62.72 15.16 93.89 5.343 10.98 27.31 28.17 149.7 72.43 64.47 23.31 128.1 43.54 133.1 45.12 6.952-18.97 12.61-39.2 16.59-60 7.781-40.61 8.797-81.87 2.969-119.3-1.11-7.109-2.469-14.08-4.047-20.91z" transform="translate(10.98 10.98) scale(.09775)"/></g></svg>