<svg xmlns="http://www.w3.org/2000/svg" role="img" viewBox="10.00 10.00 51.87 51.87"><title>E150.svg</title><rect width="48" height="48" x="12" y="12" fill="#9B9B9A" rx="1"/><path fill="#d0cfce" d="M24 26h23l-2 8H26l-2-8z"/><circle cx="35" cy="19" r="4" fill="#fff"/><path stroke="#D22F27" stroke-linecap="round" stroke-width="2" d="M35 19v-1"/><path fill="#A57939" d="M18.1518 15.3582c.3916-.6271 1.3048-.6271 1.6964 0l.37.5924c.1762.2822.4811.4582.8135.4698l.6981.0241c.7389.0256 1.1955.8165.8482 1.4691l-.3281.6167a1.00018 1.00018 0 0 0 0 .9394l.3281.6167c.3473.6526-.1093 1.4435-.8482 1.4691l-.6981.0241a1.00007 1.00007 0 0 0-.8135.4698l-.37.5924c-.3916.6271-1.3048.6271-1.6964 0l-.37-.5924a1.00007 1.00007 0 0 0-.8135-.4698l-.6981-.0241c-.7389-.0256-1.1955-.8165-.8482-1.4691l.3281-.6167a1.00018 1.00018 0 0 0 0-.9394l-.3281-.6167c-.3473-.6526.1093-1.4435.8482-1.4691l.6981-.0241c.3324-.0116.6373-.1876.8135-.4698l.37-.5924zM39 28c0 2.2091 7.7909 4 10 4 2.2091 0 4-1.7909 4-4 0-2.2091-1.7909-4-4-4-2.2091 0-10 1.7909-10 4z"/><circle cx="53.5" cy="18.5" r="2.5" fill="#D22F27"/><path fill="#fff" d="M25 52h20l-2 3H27l-2-3z"/><g fill="#fff"><path fill-rule="evenodd" d="M35 53c3.3137 0 6-4.4772 6-10H29c0 5.5228 2.6863 10 6 10z" clip-rule="evenodd"/><path d="M41 43h1c0-.5523-.4477-1-1-1v1zm-12 0v-1c-.5523 0-1 .4477-1 1h1zm11 0c0 2.6113-.6371 4.9271-1.6149 6.5566C37.3955 51.206 36.1676 52 35 52v2c2.1461 0 3.9182-1.4446 5.1001-3.4144C41.294 48.5958 42 45.9115 42 43h-2zm-11 1h12v-2H29v2zm6 8c-1.1676 0-2.3955-.794-3.3851-2.4434C30.6371 47.9271 30 45.6113 30 43h-2c0 2.9115.706 5.5958 1.8999 7.5856C31.0818 52.5554 32.8539 54 35 54v-2z"/></g><circle cx="53.5" cy="18.5" r="2.5" fill="none" stroke="#D0CFCE" stroke-width="2"/><g stroke="#000" stroke-width="2"><rect width="48" height="48" x="12" y="12" fill="none" stroke-linejoin="round" rx="1"/><path fill="none" d="M12 26h12"/><path fill="none" stroke-linecap="round" d="M56 26h4"/><path d="M12 55h48"/><path fill="none" stroke-linecap="round" stroke-linejoin="round" d="M40.5 26H24l2 8h18"/><circle cx="35" cy="19" r="4" fill="none"/><path fill="none" stroke-linecap="round" stroke-linejoin="round" d="M30.1996 49C29.4463 47.3287 29 45.2512 29 43h12c0 2.2512-.4463 4.3287-1.1996 6"/><path fill="none" d="M18.1518 15.3582c.3916-.6271 1.3048-.6271 1.6964 0l.37.5924c.1762.2822.4811.4582.8135.4698l.6981.0241c.7389.0256 1.1955.8165.8482 1.4691l-.3281.6167a1.00018 1.00018 0 0 0 0 .9394l.3281.6167c.3473.6526-.1093 1.4435-.8482 1.4691l-.6981.0241a1.00007 1.00007 0 0 0-.8135.4698l-.37.5924c-.3916.6271-1.3048.6271-1.6964 0l-.37-.5924a1.00007 1.00007 0 0 0-.8135-.4698l-.6981-.0241c-.7389-.0256-1.1955-.8165-.8482-1.4691l.3281-.6167a1.00018 1.00018 0 0 0 0-.9394l-.3281-.6167c-.3473-.6526.1093-1.4435.8482-1.4691l.6981-.0241c.3324-.0116.6373-.1876.8135-.4698l.37-.5924zM39 28c0 2.2091 7.7909 4 10 4 2.2091 0 4-1.7909 4-4 0-2.2091-1.7909-4-4-4-2.2091 0-10 1.7909-10 4z"/><path fill="none" stroke-linecap="round" d="M53.5 21c-1.3807 0-2.5-1.1193-2.5-2.5s1.1193-2.5 2.5-2.5"/><path fill="none" stroke-linejoin="round" d="M25 52h20l-2 3H27l-2-3z"/></g></svg>