<svg xmlns="http://www.w3.org/2000/svg" role="img" viewBox="9.74 9.87 59.02 52.15"><title>E153.svg</title><path fill="#d0cfce" fill-rule="evenodd" d="M21.4202 12H13c-.2478 2.726 1.224 6.4346 2.7716 10.3345 1.2798 3.2248 2.6115 6.5804 3.0656 9.6192l-1.8859 22.6311C16.7083 57.4999 19.0088 60 21.934 60h27.7437c2.8842 0 5.1702-2.4334 4.9903-5.3119L52.3125 17l-.0195-.3119-.2344-3.7505c-.0329-.527-.47-.9376-.998-.9376H21.4202z" clip-rule="evenodd"/><g fill="#9B9B9A"><path fill-rule="evenodd" d="M20.1191 16.571l-.0012.0138-.0345.4152-3.1321 37.5848C16.7083 57.4999 19.0088 60 21.934 60h27.7437c2.8842 0 5.1702-2.4334 4.9903-5.3119L52.3125 17l-.0195-.3119-.2344-3.7505c-.0329-.527-.47-.9376-.998-.9376H21.4202c-.5201 0-.9534.3987-.9966.917l-.3045 3.654z" clip-rule="evenodd"/><path d="M20.1179 16.5848l-.9965-.0831v.0001l.9965.083zm.0012-.0138l.9963.0858.0002-.0027-.9965-.0831zm-.0357.429l.9965.083-.9965-.083zm-3.1321 37.5848l-.9966-.0831.9966.0831zm37.7167.1033l-.998.0624.998-.0624zM52.3125 17l.9981-.0624-.9981.0624zm-.0195-.3119l-.998.0624.998-.0624zm-.2344-3.7505l.9981-.0624-.9981.0624zm-31.635-.0206l.9966.083-.9966-.083zm.6909 3.7508l.0009-.011-1.9926-.1715c-.0005.0055-.0009.0109-.0014.0164l1.9931.1661zm-.0346.4152l.0346-.4152-1.9931-.166-.0346.4152 1.9931.166zm-3.1321 37.5848l3.1321-37.5848-1.9931-.166-3.1321 37.5847 1.9931.1661zM21.934 59c-2.3402 0-4.1805-2.0001-3.9862-4.3322l-1.9931-.1661C15.6632 57.9998 18.4238 61 21.934 61v-2zm27.7437 0H21.934v2h27.7437v-2zm3.9923-4.2495C53.8139 57.0533 51.985 59 49.6777 59v2c3.461 0 6.2043-2.9201 5.9884-6.3743l-1.9961.1248zm-2.3555-37.6881L53.67 54.7505l1.9961-.1248-2.3555-37.6881-1.9961.1248zm-.0195-.3119l.0195.3119 1.9961-.1248-.0195-.3119-1.9961.1248zM51.0606 13l.2344 3.7505 1.9961-.1248-.2344-3.7505L51.0606 13zm0 0l1.9961-.1248c-.0659-1.054-.94-1.8752-1.9961-1.8752v2zm-3.7579 0h3.7579v-2h-3.7579v2zm-22.202 0h22.202v-2h-22.202v2zm-3.6805 0h3.6805v-2h-3.6805v2zm0 0v-2c-1.0402 0-1.9068.7973-1.9931 1.8339L21.4202 13zm-.3046 3.6541L21.4202 13l-1.9931-.1661-.3045 3.6541 1.993.1661z"/></g><path fill="#D0CFCE" fill-rule="evenodd" d="M30.5264 16.2802l-.0003.0121L30.51 17l-.8631 37.8861C29.583 57.6914 31.8396 60 34.6456 60h.3235c2.7948 0 5.047-2.291 4.9993-5.0854L39.3206 17l-.0687-4.0171c-.0093-.5455-.4542-.9829-.9998-.9829H31.6014c-.5434 0-.9874.434-.9998.9772l-.0752 3.303z" clip-rule="evenodd"/><path fill="#9B9B9A" d="M30.5261 16.2923l-.9997-.0228.9997.0228zm.0003-.0121l.9997.0254v-.0027l-.9997-.0227zM30.51 17l.9997.0228L30.51 17zm-.8631 37.8861l-.9997-.0228.9997.0228zm10.3215.0285l-.9999.0171.9999-.0171zM39.3206 17l.9998-.0171-.9998.0171zm-.0687-4.0171l.9999-.0171-.9999.0171zm-8.6503-.0057l.9998.0228-.9998-.0228zm.9242 3.3378l.0003-.0094-1.9994-.0509-.0003.0148 1.9994.0455zm-.0161.7078l.0161-.7078-1.9994-.0455-.0161.7077 1.9994.0456zm-.8631 37.8861l.8631-37.8861-1.9994-.0456-.8631 37.8861 1.9994.0456zM34.6456 59c-2.2448 0-4.0501-1.8469-3.999-4.0911l-1.9994-.0456C28.5705 58.2297 31.2784 61 34.6456 61v-2zm.3235 0h-.3235v2h.3235v-2zm3.9994-4.0683C39.0067 57.1672 37.205 59 34.9691 59v2c3.3538 0 6.0564-2.7492 5.9991-6.1025l-1.9997.0342zm-.6478-37.9146l.6478 37.9146 1.9997-.0342-.6478-37.9146-1.9997.0342zM38.2521 13l.0686 4.0171 1.9997-.0342-.0686-4.0171L38.2521 13zm0 0l1.9997-.0342C40.2332 11.8747 39.3433 11 38.2521 11v2zm-3.3348 0h3.3348v-2h-3.3348v2zm-3.3159 0h3.3159v-2h-3.3159v2zm0 0v-2c-1.0868 0-1.9747.8679-1.9995 1.9545L31.6014 13zm-.0753 3.3029L31.6014 13l-1.9995-.0455-.0752 3.3029 1.9994.0455z"/><g><path d="M12 12v-1c-.5172 0-.949.3944-.9959.9095L12 12zm2.7716 10.3345l.9295-.3689-.9295.3689zM18 34h-1c0 .5523.4477 1 1 1v-1zm.6674-.0087l.9966.083a.99971.99971 0 0 0-.2698-.7698.99982.99982 0 0 0-.7533-.3129l.0265.9997zm-1.7161 20.5935l-.9966-.0831.9966.0831zm37.7167.1033l-.998.0624.998-.0624zM52.3125 17l.9981-.0624v-.0001L52.3125 17zm-.0195-.3119l-.998.0624v.0001l.998-.0625zm-.2344-3.7505l.9981-.0624-.9981.0624zM12 13h9.4202v-2H12v2zm3.7011 8.9656c-.7778-1.9599-1.5155-3.8206-2.0313-5.5278-.5195-1.7191-.7801-3.1789-.6739-4.3473l-1.9918-.181c-.1416 1.5576.2098 3.3151.7512 5.1068.545 1.8036 1.317 3.7471 2.0869 5.687l1.8589-.7377zM19 34c0-3.7631-1.7484-8.1273-3.2989-12.0344l-1.8589.7377C15.4414 26.7333 17 30.702 17 34h2zm-.3591-1.0084c-.2094.0056-.423.0084-.6409.0084v2c.2351 0 .4664-.003.694-.0091l-.0531-1.9993zm-.97.9166l-1.7162 20.5935 1.9931.1661 1.7162-20.5935-1.9931-.1661zm-1.7162 20.5935C15.6632 57.9998 18.4238 61 21.934 61v-2c-2.3402 0-4.1805-2.0001-3.9862-4.3322l-1.9931-.1661zM21.934 61h27.7437v-2H21.934v2zm27.7437 0c3.461 0 6.2043-2.9201 5.9884-6.3743l-1.9961.1248C53.8139 57.0533 51.985 59 49.6777 59v2zm5.9884-6.3743l-2.3555-37.6881-1.9961.1248L53.67 54.7505l1.9961-.1248zm-2.3555-37.6882l-.0195-.3118-1.9961.1249.0195.3119 1.9961-.125zm-.0195-.3118l-.2344-3.7505L51.0606 13l.2344 3.7505 1.9961-.1248zm-.2344-3.7505c-.0659-1.054-.94-1.8752-1.9961-1.8752v2l1.9961-.1248zM51.0606 11h-3.7579v2h3.7579v-2zm-3.7579 0H30.5v2h16.8027v-2zM30.5 11h-5.3993v2H30.5v-2zm-5.3993 0h-3.6805v2h3.6805v-2z"/><path fill="none" stroke="#000" stroke-linecap="round" stroke-width="2" d="M20.25 15c-.5793 6.9519-1.0664 12.7967-1.5417 18.5"/><path fill="none" stroke="#000" stroke-linecap="round" stroke-linejoin="round" stroke-width="2" d="M54.5 21.5l-.0707-1.9267c-.0416-1.1325.8653-2.0733 1.9987-2.0733h8.2607c1.2189 0 2.1544 1.081 1.9793 2.2873l-3.9194 27c-.1427.9833-.9857 1.7127-1.9792 1.7127H58c-1.1046 0-2-.8954-2-2v-1.5623"/></g></svg>