<svg xmlns="http://www.w3.org/2000/svg" role="img" viewBox="15.92 5.92 38.03 56.03"><title>E154.svg</title><path fill="#3F3F3F" fill-rule="evenodd" d="M49.5 21H42v2.5h7.5v4C49.5 30 44 41 44 41l3 6s5-15.5 5-19.5V21h-2.5z" clip-rule="evenodd"/><path fill="#d0cfce" d="M18 27.5V21h4v4c0 2.5 4 6 4 6l-3 16s-5-15.5-5-19.5z"/><path fill="#d0cfce" fill-rule="evenodd" d="M27.1106 17c.6348-2.8377 3.9254-5 7.8894-5 3.964 0 7.2546 2.1623 7.8894 5H43l5 33.5-3 9.5H25l-3-9.5L27 17h.1106z" clip-rule="evenodd"/><path fill="#D0CFCE" fill-rule="evenodd" d="M32.6667 60H30l-2-9.5L31.3333 17H34l-3.3333 33.5 2 9.5z" clip-rule="evenodd"/><path fill="#3F3F3F" fill-rule="evenodd" d="M47.7761 49H22.2239L22 50.5l3 9.5h20l3-9.5-.2239-1.5z" clip-rule="evenodd"/><circle cx="35.5" cy="55" r="2" fill="#D22F27" stroke="#9B9B9A" stroke-width="2"/><path fill="#3F3F3F" d="M33 8h4v4h-4z"/><g><path fill="none" stroke="#000" stroke-linecap="round" stroke-linejoin="round" stroke-width="2" d="M44 21h8v6.5c0 3.2382-3.2769 14.0133-4.525 18M44 23.5h5.5v4c0 1.4799-1.9272 5.9381-3.5 9.3301M22.5 45.42C21.2337 41.3711 18 30.7168 18 27.5V21h4v4c0 1.6667 1.7778 3.7778 2.963 5"/><path d="M43 17h-1c0 .0494.0037.0988.011.1476L43 17zm-16 0l.989.1476A.99835.99835 0 0 0 28 17h-1zm-5 33.5l-.989-.1476a.99847.99847 0 0 0 .0354.4487L22 50.5zm3 9.5l-.9536.3011c.1314.4161.5173.6989.9536.6989v-1zm20 0v1c.4363 0 .8222-.2828.9536-.6989L45 60zm3-9.5l.9536.3011a.99847.99847 0 0 0 .0354-.4487L48 50.5zM35 13c2.0517 0 3.8617.5218 5.1269 1.3125C41.4061 15.112 42 16.0885 42 17h2c0-1.8499-1.197-3.3734-2.8131-4.3835C39.5566 11.5975 37.3666 11 35 11v2zm-7 4c0-.9115.5939-1.888 1.8731-2.6875C31.1383 13.5218 32.9483 13 35 13v-2c-2.3666 0-4.5566.5975-6.1869 1.6165C27.197 13.6266 26 15.1501 26 17h2zm-1.989-.1476l-5 33.5 1.978.2952 5-33.5-1.978-.2952zm-4.9646 33.9487l3 9.5 1.9072-.6022-3-9.5-1.9072.6022zM25 61h10v-2H25v2zm10 0h10v-2H35v2zm10.9536-.6989l3-9.5-1.9072-.6022-3 9.5 1.9072.6022zm3.0354-9.9487l-5-33.5-1.978.2952 5 33.5 1.978-.2952z"/><path fill="none" stroke="#000" stroke-linecap="round" stroke-width="2" d="M35.5 57c-1.1046 0-2-.8954-2-2s.8954-2 2-2"/><path fill="none" stroke="#000" stroke-linecap="round" stroke-linejoin="round" stroke-width="2" d="M23 50h21.5"/><path fill="none" stroke="#000" stroke-linecap="round" stroke-width="2" d="M27 17h13"/><path fill="none" stroke="#000" stroke-linejoin="round" stroke-width="2" d="M33 8h4v4h-4z"/></g></svg>