<svg xmlns="http://www.w3.org/2000/svg" role="img" viewBox="10.00 10.00 51.87 51.87"><title>E155.svg</title><path fill="#fff" d="M16.6168 37.555C16.837 36.0864 18.0986 35 19.5836 35h13.8328c1.485 0 2.7466 1.0864 2.9668 2.555l2.1 14C38.7553 53.3688 37.3505 55 35.5164 55H17.4836c-1.8341 0-3.2389-1.6312-2.9668-3.445l2.1-14z"/><path fill="#fff" fill-rule="evenodd" d="M20.7439 35h-1.1603c-1.485 0-2.7466 1.0864-2.9668 2.555l-2.1 14c-.0512.3407-.0431.6751.0159.9933C13.0333 51.8183 12 50.2798 12 48.5v-12c0-2.4853 2.0147-4.5 4.5-4.5 1.9593 0 3.6262 1.2522 4.2439 3z" clip-rule="evenodd"/><path fill="#6A462F" fill-rule="evenodd" d="M18 55h17c1.6569 0 3-1.3431 3-3v-7H15v7c0 1.6569 1.3431 3 3 3z" clip-rule="evenodd"/><path fill="#fff" fill-rule="evenodd" d="M13 12c-.5523 0-1 .4477-1 1v13h31v29H12v4c0 .5523.4477 1 1 1h46c.5523 0 1-.4477 1-1V13c0-.5523-.4477-1-1-1H13z" clip-rule="evenodd"/><rect width="4" height="20" x="49" y="19" fill="#D0CFCE" rx="1"/><circle cx="51.5" cy="46.5" r="2.5" fill="#D22F27" stroke="#D0CFCE" stroke-width="2"/><path fill="#fff" d="M17 29h19v6H17z"/><g><path fill="none" stroke="#000" stroke-linecap="round" stroke-width="2" d="M19.5836 35c-1.485 0-2.7466 1.0864-2.9668 2.555l-2.1 14c-.0512.3407-.0431.6751.0159.9933C13.0333 51.8183 12 50.2798 12 48.5v-12c0-2.4853 2.0147-4.5 4.5-4.5"/><path d="M12 26h-1c0 .5523.4477 1 1 1v-1zm31 0h1c0-.5523-.4477-1-1-1v1zm0 29v1c.5523 0 1-.4477 1-1h-1zm-31 0v-1c-.5523 0-1 .4477-1 1h1zm1-42v-2c-1.1046 0-2 .8954-2 2h2zm0 13V13h-2v13h2zm-1 1h31v-2H12v2zm30-1v29h2V26h-2zm1 28H12v2h31v-2zm-30 5v-4h-2v4h2zm0 0h-2c0 1.1046.8954 2 2 2v-2zm46 0H13v2h46v-2zm0 0v2c1.1046 0 2-.8954 2-2h-2zm0-46v46h2V13h-2zm0 0h2c0-1.1046-.8954-2-2-2v2zm-46 0h46v-2H13v2z"/><path fill="none" stroke="#000" stroke-width="2" d="M12 26h30.5M40 26V12.5"/><path stroke="#000" stroke-width="2" d="M12 55h48"/><path fill="none" stroke="#000" stroke-linecap="round" stroke-width="2" d="M51.5 49c-1.3807 0-2.5-1.1193-2.5-2.5s1.1193-2.5 2.5-2.5"/><path fill="none" stroke="#000" stroke-width="2" d="M16.6168 37.555C16.837 36.0864 18.0986 35 19.5836 35h13.8328c1.485 0 2.7466 1.0864 2.9668 2.555l2.1 14C38.7553 53.3688 37.3505 55 35.5164 55H17.4836c-1.8341 0-3.2389-1.6312-2.9668-3.445l2.1-14z"/><path fill="none" stroke="#000" stroke-linejoin="round" stroke-width="2" d="M17 29h19v6H17z"/><path stroke="#000" stroke-linecap="round" stroke-width="2" d="M50 20v18"/><path fill="none" stroke="#000" stroke-linecap="round" stroke-width="2" d="M50 20h2m-2 18h2m-2-9h2"/></g></svg>