<svg xmlns="http://www.w3.org/2000/svg" role="img" viewBox="15.72 2.72 39.43 66.43"><title>E181.svg</title><path fill="#fff" d="M21.5776 37.3105s7.2483-7.4772 8.6216-10.9869-1.6786 16.0225-1.6786 16.0225 0 4.1201-1.2208 3.8149-6.1038-5.7223-6.2564-6.6379.5341-2.2126.5341-2.2126z"/><path fill="#a57939" d="M19.0928 39.1045s.625 1 1 2v3l4.125 6 2.875-2L24.292 42.25s-.9258-1.0312-1.459-1.2705c-1.209-.542-2.001-.501-2.042-.542-.7441-.7441-.8232-.8955-1.0732-1.2705s-.2813-1.125-.9688-.4688"/><g fill="#fcea2b"><path d="M33.1875 25.1875L28.2998 67h3.2998l6.3008-27h2.1992l-.3144 12.7998L37.4004 67h3.2998l4.3154-14 1.2598-13.125-.5254-12.8125s3.4375 15.1875 4.6875 16.375 2.875.4688 2.875.4688L48.22 22.3679a8.5807 8.5807 0 0 0-.6393-1.7896l-1.678-3.4379a2.64893 2.64893 0 0 0-1.4593-1.3217l-1.3469-.4997a5.60092 5.60092 0 0 0-3.1329-.223l-5.4471 1.1786c-2.3219.5024-4.3296 1.9493-5.5407 3.993l-5.1007 8.6074-6.5625 7.6875s.1592.8359 2.5625.75c1.75-.0625 4.792-4.1406 5.375-4.8955 1.5938-2.0625 6.4063-11.2295 8.0625-11.292.2881-.0107 0 3.5-.125 4.0625z"/><circle cx="36.969" cy="8.094" r="3"/></g><g fill="none" stroke="#000" stroke-width="2"><circle cx="36.969" cy="8.094" r="3" stroke-miterlimit="10"/><path stroke-linecap="round" stroke-linejoin="round" d="M44 21l2.0361 16.8896c.1319 1.0918.1534 2.8809.0479 3.9766l-.877 9.1426c-.1054 1.0957-.456 2.8516-.7802 3.9023l-3.1377 10.1778C40.9648 66.1396 39.958 67 39.0508 67c-.9082 0-1.499-.8877-1.3145-1.9717l1.7129-10.0566c.1846-1.084.3584-2.8711.3858-3.9707l.2148-8.6016c.0273-1.0996-.4453-1.999-1.0498-1.999s-1.3066.876-1.5605 1.9463l-5.379 22.707C31.8066 66.124 30.8574 67 29.9492 67c-.9072 0-1.5459-.8945-1.4199-1.9863L33.5 22"/><path stroke-linecap="round" stroke-linejoin="round" d="M18 36s.6748-.4502 1.5-1 2.6406-2.9395 4.0352-5.3096l4.9296-8.3808C29.8594 18.9395 32.7998 16.5498 35 16s5.7998-1 8-1 4.3184 2.2275 4.707 4.9497l.586 4.1006c.3886 2.7222 1.3252 7.1128 2.081 9.7573L53 43m-34-4s.625 1 1 2v3l4.125 6L27 48l-3.333-4.999"/></g></svg>