<svg xmlns="http://www.w3.org/2000/svg" role="img" viewBox="3.72 2.72 65.94 66.56"><title>E182.svg</title><path fill="#fff" d="M20.6896 53.3396S42.2901 40.28 44.1274 35.8109s5.4622-.5462 5.4622-.5462l-2.4332 18.5715-26.4668-.4966z"/><path fill="#a57939" d="M14.375 47.125s.2295.0762.4395.248c1.5 1.2295 1.333 2.9405 1.333 2.9405l1.3281 1.4678L22 52.375l4.75.1875 6.375-.4375 3.5625 1.125 2.75-1.375s.0625-5.8437.7188-5.8437c.75 0 1.7812 1.1044 1.7812 3.9687 0 3.125-1.7939 6.2754-7.9375 6-.457-.0205.25 1.8125.25 1.8125l-.9375 2.75-2 2.625L31 66.25l-.3125.375s-.2637.4063-.8437.4063c-2.7813 0-3.2188-1.4688-1.5938-2.0938.1309-.0508.375-1.75.375-1.75l-2-2.0205-3.917.708-4.125.208.417 1.334-1.708 3.166s1.124.459-.459.459c-.374 0-2.04-.334-2.207-2.459l.624-3.209-1.208-2.041-.833-2-1.917-.5-4.124.624-1.375-1 1.75-1.75L9.2188 52.5l3.2412-2.168 1.915-3.207z"/><path fill="#6a462f" d="M13.583 59.71l1.667 1.664c-.125 1-2.0713.8213-2.1455 1.6465-.1045 1.166.5225.835.4844 1.6904-.0821 1.8418-2.4346 1.7686-3.0293 1.1866-.3848-.376-.3096-.792.1484-2.1465.8428-2.4932 2.3545-4.25 2.3545-4.25l.5205.209z"/><g fill="#fcea2b"><circle cx="54.969" cy="8.094" r="3"/><path d="M61.1386 52.5969c-.0868-.1429-.6643-1.4187-.6904-1.5838L58.518 38.339l.0549-.467.3571-.4121c.2158-.259.495-1.2573.467-1.5934l-.0083-6.201-.0239.0058-.7956-10.663C58.2851 16.8267 56.2519 15 54.0517 15h-.0518c-2.2002 0-4.2002 1.8306-4.4463 4.0171l-.5537 4.9619.0469.0257L48.9999 24l-.5806 6.0951c-.0433.4543-.3244.8514-.7384 1.0432l-4.4912 2.0807a1.28429 1.28429 0 0 0-.5121.4286l-.0112.016c-.3581.5115-.2981 1.2042.1418 1.6473.5258.5297 1.4033 1.0191 2.7356.6472l2.4663-1.5679-.061.6402-1.187 29.953c-.033.5284.1287.8741.6092 1.0965l.0406.0406c.7159.3314 1.2868-.3783 1.5026-1.1371l4.1906-15.3211c.3366-1.1835 2.2665-2.3136 2.7134-1.1671l2.2742 5.4419c.0411.1055.0952.518.1624.6092l5.5638 7.6756c.4069.5513 1.6229 1.7609 2.193 1.3808l.3655-.1624c.5725-.3817.3979-1.28.0406-1.8681l-5.2795-8.9751z"/></g><g fill="none" stroke="#000" stroke-width="2"><circle cx="54.969" cy="8.094" r="3" stroke-miterlimit="10"/><path stroke-linecap="round" stroke-linejoin="round" d="M49 35l-3.0479 30.0098C45.8408 66.1045 46.5205 67 47.4619 67s1.9492-.8682 2.2383-1.9297l5.4863-20.1152c.2891-1.0615 1.043-2.667 1.6739-3.5674l2.1992-3.1397c.6308-.9003 1.1035-2.5371 1.0508-3.6357l-.4922-10.1191"/><path stroke-linecap="round" stroke-linejoin="round" d="M59.1348 38.1406l1.8203 11.5254c.1709 1.0869.7793 2.7451 1.3496 3.6846l4.8242 7.9404c.5703.9395.3633 2.1592-.4619 2.709-.8252.5498-2.0342.2764-2.6875-.6094l-5.2686-7.1357c-.6533-.8858-1.5146-2.4483-1.914-3.4727l-2.2031-5.6533m5.0646-21.6032l-.36-6.7711C59.0918 16.8737 57.252 15 55.0518 15H55c-2.2002 0-4.2002 1.8306-4.4463 4.0171L50.084 23.23"/><path stroke-linecap="round" stroke-linejoin="round" d="M55.167 20l-3.0684 6.4443c-.4726.9932-1.6269 2.2754-2.5654 2.8487l-7.5957 4.6445M13 57l5-5s17-6 23.9375-18.0625"/><path stroke-linecap="round" stroke-linejoin="round" d="M40 47c2 5-4 8-7 6-.7715-.5137-3.8535-1.3145-7-1l-8.3281.3281L16 51.3125M27 58c0 2 1.25 4.501 1.25 4.501S28.6328 63.7354 28 65c-1 2 2 3 3 1s.832-3.6641 1-4c.4033-.8066 1.999-1.917 2-4v-1m-7 3c-2.041 2.001-4.625 2-8 2m-5-3c-1.0156.9287-2 1-3 2s-1 3 0 4"/><path stroke-linecap="round" stroke-linejoin="round" d="M14 48l-1 2s-2.2441.2998-3 1c-.5801.5371-1 3-1 3s-2.8779 1.5928-3 2c-.0937.3125 1.293 2 2 2 1 0 4-1 4-1 2 0 2 3 3 4 .4102.4102 0 3-.334 3.959-.6797 1.9541 2.334 3.041 3.168.875C18.1387 65.04 19 63 19 61"/></g></svg>