<svg xmlns="http://www.w3.org/2000/svg" role="img" viewBox="12.00 10.00 50.88 52.00"><title>E185.svg</title><path fill="#fcea2b" d="M32.6 44c6.0751 0 11-6.268 11-14s-4.9249-14-11-14-11 6.268-11 14 4.9249 14 11 14z"/><g fill="#6a462f"><path d="M33 21c-5.6 0-9.3333 2.6667-10.5 4 .8333-2.8333 4.2-8.5 11-8.5s9.1667 5 9.5 7.5c-1-1-4.4-3-10-3z"/><ellipse cx="33" cy="14.5" rx="4" ry="2.5"/></g><path fill="#3f3f3f" d="M14 59.1v-4c0-5 5-9 10-9 6 5 12 5 18 0 5 0 10 4 10 9v4"/><path fill="#6a462f" fill-rule="evenodd" d="M23.0477 46.1477c-1.0453.1042-2.0766.3763-3.0477.7884V59.1h26V46.9361c-.8258-.3505-1.6953-.5997-2.5798-.7305L42.5 46.6l-.5 7.5H24l-.5-7.5-.4523-.4523z"/><path fill="#fff" d="M41 57.1h20l-2 3H43l-2-3z"/><g fill="#fff"><path fill-rule="evenodd" d="M51 58.1c3.3137 0 6-4.4772 6-10H45c0 5.5228 2.6863 10 6 10z"/><path d="M57 48.1h1c0-.5523-.4477-1-1-1v1zm-12 0v-1c-.5523 0-1 .4477-1 1h1zm11 0c0 2.6113-.6371 4.927-1.6149 6.5565C53.3955 56.306 52.1676 57.1 51 57.1v2c2.1461 0 3.9182-1.4446 5.1001-3.4145C57.294 53.6958 58 51.0115 58 48.1h-2zm-11 1h12v-2H45v2zm6 8c-1.1676 0-2.3955-.794-3.3851-2.4435C46.6371 53.027 46 50.7113 46 48.1h-2c0 2.9115.706 5.5958 1.8999 7.5855C47.0818 57.6554 48.8539 59.1 51 59.1v-2z"/></g><g><path fill="none" stroke="#000" stroke-linejoin="round" stroke-width="2" d="M32.9683 16.3c-6.0635 0-11 5-11 14 0 6.6462 3.3964 14.1 11 14.1 7.5559 0 11.0635-7.483 11.0635-14.1 0-9-5.127-14-11.0635-14z"/><path d="M39 28.9c0 1.1-.9 2-2 2s-2-.9-2-2 .9-2 2-2 2 .9 2 2zm-8 0c0 1.1-.9 2-2 2s-2-.9-2-2 .9-2 2-2 2 .9 2 2z"/><path fill="none" stroke="#000" stroke-linecap="round" stroke-linejoin="round" stroke-width="2" d="M30 37.1c1.9 1 4.1 1 6 0"/><path fill="none" stroke="#000" stroke-width="2" d="M30.5 16.4517c-.9145-.4582-1.5-1.1622-1.5-1.9517 0-1.3807 1.7909-2.5 4-2.5s4 1.1193 4 2.5c0 .7895-.5855 1.4935-1.5 1.9517"/><path fill="none" stroke="#000" stroke-linecap="round" stroke-linejoin="round" stroke-width="2" d="M22 29.5c0-7.5 7-10.5 11-8 4-2.5 11 .5 11 8"/><g fill="none" stroke="#000" stroke-width="2"><path stroke-linecap="round" stroke-linejoin="round" d="M14 58v-3c0-5 5-9 10-9 6 5 12 5 18 0 .5017 0 1.0034.0403 1.5.1178"/><path stroke-linejoin="round" d="M23.5 46.6l.5 7.5h18l.5-7.5"/><path stroke-linecap="round" d="M20 47.1v11"/><path stroke-linecap="round" stroke-linejoin="round" d="M46.1996 54.1C45.4463 52.4287 45 50.3512 45 48.1h12c0 2.2512-.4463 4.3287-1.1996 6"/><path stroke-linejoin="round" d="M41 57.1h20l-2 3H43l-2-3z"/></g></g></svg>