<svg xmlns="http://www.w3.org/2000/svg" role="img" viewBox="11.94 6.94 50.99 55.12"><title>E186.svg</title><ellipse cx="33" cy="29.5" fill="#FCEA2B" rx="12" ry="14.5"/><g fill="#6A462F"><path d="M42.8 15.1c3 5.8 1.3 11.9 1.3 11.9v-.4c-1.8-7.2-3.8-8.6-5-8.7v-.4c1-.5 2.4-1.4 3.5-2.6l.2.2z"/><path d="M43.9 9.7c.8 2.2.1 3.9-1.2 5.3-1.1 1.2-2.5 2-3.5 2.5-.7.4-1.2.5-1.2.5-5.8 2.2-6.1 1.9-10.6 0 0 0-3.4-2.5-6.2 8.6v.4s-2.2-6.8 2-13.2c3.2-4.9 12.9-2.4 12.9-2.4L39.2 9l1.1 3.1 3.6-2.4z"/></g><path fill="#3F3F3F" d="M14 59.1v-4c0-5 5-9 10-9 6 5 12 5 18 0 5 0 10 4 10 9v4"/><path fill="#6A462F" fill-rule="evenodd" d="M23.0477 46.1477c-1.0453.1042-2.0766.3763-3.0477.7884V59.1h26V46.9361c-.8258-.3505-1.6953-.5997-2.5798-.7305L42.5 46.6l-.5 7.5H24l-.5-7.5-.4523-.4523z" clip-rule="evenodd"/><path fill="#fff" d="M41 57.1h20l-2 3H43l-2-3z"/><g fill="#fff"><path fill-rule="evenodd" d="M51 58.1c3.3137 0 6-4.4772 6-10H45c0 5.5228 2.6863 10 6 10z" clip-rule="evenodd"/><path d="M57 48.1h1c0-.5523-.4477-1-1-1v1zm-12 0v-1c-.5523 0-1 .4477-1 1h1zm11 0c0 2.6113-.6371 4.927-1.6149 6.5565C53.3955 56.306 52.1676 57.1 51 57.1v2c2.1461 0 3.9182-1.4446 5.1001-3.4145C57.294 53.6958 58 51.0115 58 48.1h-2zm-11 1h12v-2H45v2zm6 8c-1.1676 0-2.3955-.794-3.3851-2.4435C46.6371 53.027 46 50.7113 46 48.1h-2c0 2.9115.706 5.5958 1.8999 7.5855C47.0818 57.6554 48.8539 59.1 51 59.1v-2z"/></g><g><path d="M37 24.7c1.1 0 2 .9 2 2s-.9 2-2 2-2-.9-2-2 .9-2 2-2zm-.1 9.8c.2.5 0 1.1-.5 1.3-1.1.6-2.3.8-3.5.8-1.2 0-2.3-.3-3.4-.8-.5-.2-.7-.8-.5-1.3.2-.5.8-.7 1.3-.4 1.7.9 3.4.9 5.1 0 .6-.3 1.2-.1 1.5.4z"/><path fill="none" stroke="#000" stroke-linecap="round" stroke-linejoin="round" stroke-width="1.6" d="M33 32s1.2-2 3.6 0c.3721.3786.8609.6208 1.3875.6875m-5-.6875s-1.2-2-3.6 0A2.36156 2.36156 0 0 1 28 32.6875"/><path d="M29 24.7c1.1 0 2 .9 2 2s-.9 2-2 2-2-.9-2-2 .9-2 2-2z"/><path fill="none" stroke="#000" stroke-linecap="round" stroke-linejoin="round" stroke-miterlimit="10" stroke-width="2" d="M21.3 27c0 .4 0 1.4-.1 2.4-.2 3.1.4 6.2 1.9 8.9.6 1 1.3 2 2.1 2.7 2.8 2.4 5.6 2.5 7.4 2.5M44.2 27c0 .4.1 1.4.1 2.4.2 3.1-.4 6.2-1.9 8.9-.6 1-1.2 2-2.1 2.7-2.8 2.4-5.5 2.5-7.4 2.5h-.3M21.3 27s-2.2-6.8 2-13.2c3.2-4.9 12.9-2.4 12.9-2.4L39.3 9l1.1 3.1 3.4-2.5c.8 2.2.1 3.9-1.2 5.3-1.1 1.2-2.5 2-3.5 2.5-.7.4-1.2.5-1.2.5-5.8 2.2-6.1 1.9-10.6 0 0 0-3.4-2.5-6.2 8.6M39 17.9h.2c1.2.1 3.2 1.5 5 8.7m-1.4-11.5c3 5.8 1.3 11.9 1.3 11.9"/><g fill="none" stroke="#000" stroke-width="2"><path stroke-linecap="round" stroke-linejoin="round" d="M14 58v-3c0-5 5-9 10-9 6 5 12 5 18 0 .5017 0 1.0034.0403 1.5.1178"/><path stroke-linejoin="round" d="M23.5 46.6l.5 7.5h18l.5-7.5"/><path stroke-linecap="round" d="M20 47.1v11"/><path stroke-linecap="round" stroke-linejoin="round" d="M46.1996 54.1C45.4463 52.4287 45 50.3512 45 48.1h12c0 2.2512-.4463 4.3287-1.1996 6"/><path stroke-linejoin="round" d="M41 57.1h20l-2 3H43l-2-3z"/></g></g></svg>