<svg xmlns="http://www.w3.org/2000/svg" role="img" viewBox="13.77 4.77 44.34 63.96"><title>E1C7.svg</title><path fill="#92d3f5" d="M31.3882 26.7177s9.2367-1.8188 8.4221-9.1964c-1.3538-12.261-1.4678-10.4237-1.4678-10.4237L32.8132 8.108c.0001.0001 3.1866 13.5938-1.425 18.6097z"/><path fill="#92d3f5" stroke-linecap="round" stroke-linejoin="round" stroke-miterlimit="10" stroke-width="2" d="M34.5417 7.0359c-8.1462 0-14.75 7.496-14.75 16.7427v16.388h29.5"/><path fill="#d0cfce" stroke-linecap="round" stroke-linejoin="round" stroke-miterlimit="10" stroke-width="2" d="M26.833 44.5h4v22.095h-4zm14.5 0h4v16.479h-4z"/><path fill="#61b2e4" d="M34.5417 7.5625s15.3232.5495 15.9047 13.875c.9664 22.1458.0665 18.9191.0665 18.9191l-9.3254-.19c0 .0001 1.4372-25.0416-6.6458-32.6041z"/><path fill="#61b2e4" d="M43.333 40.792h11.833v3.083H43.333z"/><path fill="#92d3f5" d="M16.335 40.792h26.998v3.083H16.335z"/><g fill="none" stroke="#000" stroke-linecap="round" stroke-linejoin="round" stroke-miterlimit="10" stroke-width="2"><path d="M34.5417 7.0359c-8.1462 0-14.75 7.496-14.75 16.7427v16.388h29.5M26.833 44.5h4v22.095h-4zm14.5 0h4v16.479h-4zM35.2497 7.0359c8.1462 0 14.75 7.496 14.75 16.7427v7.388M16 44.5h40v-4.333H16z"/></g></svg>