<svg xmlns="http://www.w3.org/2000/svg" role="img" viewBox="14.94 9.94 41.99 55.12"><title>E1CF.svg</title><path fill="#D0CFCE" d="M53.9081 63.031H18.009c-.5523 0-1-.4477-1-1V13.0675c0-.5523.4477-1 1-1h35.8991c.5523 0 1 .4477 1 1V62.031c0 .5523-.4477 1-1 1z"/><circle cx="36.024" cy="45.016" r="12" fill="#FFF"/><path fill="#92D3F5" d="M24.0239 45.0155c0 6.6274 5.3726 12 12 12s12-5.3726 12-12"/><path fill="#9B9B9A" d="M17 17.009h16v9.95H17z"/><circle cx="36.024" cy="45.016" r="7" fill="#D0CFCE"/><path fill="#61B2E4" d="M29.0239 45.0155c0 3.866 3.134 7 7 7s7-3.134 7-7"/><g><circle cx="36.024" cy="45.016" r="12" fill="none" stroke="#000" stroke-miterlimit="10" stroke-width="2"/><circle cx="36.024" cy="45.016" r="7" fill="none" stroke="#000" stroke-miterlimit="10" stroke-width="2"/><path fill="none" stroke="#000" stroke-linecap="round" stroke-linejoin="round" stroke-miterlimit="10" stroke-width="2" d="M53.9081 63.031H18.009c-.5523 0-1-.4477-1-1V13.0675c0-.5523.4477-1 1-1h35.8991c.5523 0 1 .4477 1 1V62.031c0 .5523-.4477 1-1 1z"/><path fill="none" stroke="#000" stroke-linecap="round" stroke-linejoin="round" stroke-miterlimit="10" stroke-width="2" d="M17 17.009h16v9.95H17zM37 19h7m-7 4h7m-21-2h4"/><circle cx="49" cy="21" r="2"/></g></svg>