<svg xmlns="http://www.w3.org/2000/svg" role="img" viewBox="7.88 13.88 58.11 44.11"><title>E1D7.svg</title><path fill="#9B9B9A" stroke="#9B9B9A" stroke-miterlimit="10" stroke-width="2" d="M52 38v14H20v-8h-4v11.0352c0 .5329.4319.9648.9648.9648h38.0705c.5328 0 .9647-.4319.9647-.9648V38h-4z"/><path fill="#EA5A47" stroke="#EA5A47" stroke-miterlimit="10" stroke-width="2" d="M17.1547 16C16.517 16 16 16.517 16 17.1547V28h4v-8h32v14h4V17.1547C56 16.517 55.483 16 54.8453 16H17.1547z"/><circle cx="18" cy="36" r="8" fill="#FFF"/><g fill="none" stroke="#000" stroke-linecap="round" stroke-linejoin="round" stroke-miterlimit="10" stroke-width="2"><path d="M16 28.25V16h40v14.5m0 7.5v18H16V43.75"/><path d="M20 28.25V20h32v14m0 7.5V52H20v-8.25"/><circle cx="18" cy="36" r="8"/><path d="M23.657 30.343L12.343 41.657m0-11.314l11.314 11.314M49 34h10m-15 4h20"/></g></svg>