<svg xmlns="http://www.w3.org/2000/svg" role="img" viewBox="2.72 14.72 66.43 42.43"><title>E1D9.svg</title><path fill="#fff" d="M5 17h62v38H5z"/><g stroke="#000" stroke-linejoin="round" stroke-width="2"><path fill="none" d="M5 17h62v38H5z"/><path fill="none" stroke-linecap="round" d="M9 21v31m3-31v31m0-31v31m8-31v29m8-29v29"/><path stroke-linecap="round" d="M15 50V21h2v29h-2zm8 0V21h2v29h-2zm8 0V21h1v29h-1z"/><path fill="none" stroke-linecap="round" d="M46 21v29m3-29v29m8-29v29"/><path stroke-linecap="round" d="M41 50V21h2v29h-2zm11 0V21h2v29h-2z"/><path fill="none" stroke-linecap="round" d="M60 21v31m3-31v31M35 21v31m3-31v31"/></g></svg>