<svg xmlns="http://www.w3.org/2000/svg" role="img" viewBox="2.59 13.97 66.69 43.94"><title>E200.svg</title><path fill="#d0cfce" d="M22.81 29.6s-.6781-.3875-1.162-4.844h6.781s-.2906 3.778-1.356 4.844"/><path fill="#a57939" d="M37.94 55.69h-3.875V33.41l-17.44-.09688v-3.681h38.75v3.681l-17.44.09687z"/><path fill="#a57939" d="M47.66 41.24l-.01512 14.45h-3.881l.03125-18.32h19.38V16.93h3.875v38.75h-3.875V41.25zm-38.798.01v14.43H4.987V16.93h3.875v20.44h19.38v18.31h-3.875V41.25z"/><g fill="none" stroke="#000" stroke-linecap="round" stroke-linejoin="round" stroke-miterlimit="10" stroke-width="2"><path d="M22.8 29.6s-.6792-.3879-1.164-4.849h6.792s-.2911 3.782-1.358 4.849"/><path d="M37.94 55.69h-3.881V33.38l-17.47-.09698v-3.685h38.81v3.685l-17.47.09698z"/><path d="M47.63 41.24l.0099 14.45h-3.881V37.36h19.41V16.9h3.881v38.79h-3.881V41.24zM23.39 20.19s.5822-1.94 0-3.879m2.71 3.879s.5822-1.746 0-3.394m2.14 20.564v18.33h-3.881V41.24H8.839v14.37l-3.881.08V16.9h3.881v20.46z"/></g></svg>