<svg xmlns="http://www.w3.org/2000/svg" role="img" viewBox="13.08 15.08 47.71 37.71"><title>E207.svg</title><path fill="#9b9b9a" d="M20 40h35v11H20z"/><path fill="#fcea2b" d="M46 18l13 4-3 20-5 5-3-5-2-24z"/><path fill="#fcea2b" d="M15 17l4 14-1 16 30-5-2-24z"/><g fill="none" stroke="#000" stroke-linecap="round" stroke-linejoin="round" stroke-width="2"><path d="M15 17l4 14-1 16 30-5-2-24zm4 14l27-13m2 24L19 31m27-13l10 24m-2 9H20v-4"/><path d="M46 18l13 4-3 20-5 5-3-5-2-24zm0 0l10 24"/></g></svg>