<svg xmlns="http://www.w3.org/2000/svg" role="img" viewBox="2.84 2.59 66.44 66.69"><title>E20A.svg</title><path fill="#d0cfce" d="M37.489 32.657H34.22l-1.34 29.861h5.806l-1.197-29.861z"/><path fill="#b1cc33" d="M6.076 63.44h30.041v2.587H6.076z"/><path fill="#5c9e31" d="M35.844 63.452h30.267v2.587H35.844z"/><path fill="#d0cfce" d="M30.0819 19.1426a38.3952 38.3952 0 0 1 6.0426-.944h.0155a24.333 24.333 0 0 1 5.4164.944 1.26 1.26 0 0 1 .1722.0651 17.6007 17.6007 0 0 1-1.44 11.1333c-.2661.51-.5166.9115-.7044 1.2045a28.72 28.72 0 0 0-3.6788.0977h-.0314a28.1185 28.1185 0 0 0-2.9587.4014 1.1556 1.1556 0 0 1-.6418-.434l-.047-.0651c-1.0175-1.5192-3.2717-5.7729-2.1446-12.4029z"/><path fill="#9b9b9a" d="M35.8528 18.8318v43.07h3.1125l-1.3336-29.2561 2.0622-1.1119 2.0177-2.0044.4577-4.93-.5344-5.4682s-6.0567-.2994-5.7821-.2994z"/><g><path fill="#d22f27" d="M35.8685 8.5875c-.8042 0-1.455-.4473-1.455-1V5.7506c0-.5528.6508-1 1.455-1s1.455.4472 1.455 1v1.8369c0 .5525-.6508 1-1.455 1z"/><path fill="#d0cfce" d="M34.413 7.447h2.913v2.048h-2.913zm0 4.012h2.913v2.048h-2.913z"/><path fill="#d22f27" d="M34.413 13.447h2.913v2.048h-2.913zm0-4.012h2.913v2.048h-2.913z"/></g><g><rect width="6.858" height="4.837" x="32.66" y="15.16" rx=".887" ry=".887"/><path fill="none" stroke="#000" stroke-linecap="round" stroke-linejoin="round" stroke-width="2" d="M37.489 32.657H34.22l-1.34 29.861h5.806l-1.197-29.861zm-7.5541-13.5144a16.3828 16.3828 0 0 0 11.7661 0s.0512.0251.1181.0616a24.71 24.71 0 0 1-1.0126 11.2271 4.8949 4.8949 0 0 1-1.1214 1.6287c-.0507-.0216.0432 0 .0432 0"/><path fill="none" stroke="#000" stroke-linecap="round" stroke-linejoin="round" stroke-width="2" d="M41.8015 19.1426a16.3825 16.3825 0 0 1-11.766 0s-.0512.0251-.1182.0616A24.7124 24.7124 0 0 0 30.93 30.4313a4.8978 4.8978 0 0 0 1.1213 1.6287c.0507-.0216-.0432 0-.0432 0m9.3761-4.5251s-6.01 2.7857-10.8554 0m9.1651 4.5679a12.7286 12.7286 0 0 1-7.707-.0643m10.0258-8.8954s-6.186 2.6591-12.0988-.1334"/><path fill="none" stroke="#000" stroke-miterlimit="10" stroke-width="1.6" d="M37.6314 7.7469V5.818c0-.6286-.7067-1.1372-1.58-1.1372s-1.58.5086-1.58 1.1372v11.8859h3.1627v-9.957z"/><path fill="none" stroke="#000" stroke-linecap="round" stroke-linejoin="round" stroke-width="2" d="M5.135 62.528h61.962v4.5H5.135z"/><ellipse cx="35.832" cy="18.92" rx="6.777" ry="1.704"/></g></svg>