<svg xmlns="http://www.w3.org/2000/svg" role="img" viewBox="7.82 10.20 61.36 51.48"><title>E20E.svg</title><path fill="none" stroke="#000" stroke-linecap="round" stroke-linejoin="round" stroke-width="2" d="M27 31l3-1 2 2 3-2 2 1 2-1 2 2 1-1"/><path fill="#fff" d="M21.38 27.63c1.636.3771 3.012.9482 4.016 1.579-2.246.6314-3.65 13.32-10.57 17.69-4.659-2.517-7.075-9.495-4.782-13.8 2.43-8.036 10.83-5.355 11.33-5.47l.006.001zm36.63 5.67c.6023.1205 3.002-.2426 4.54.4514 3.639 1.302 4.828 4.206 4.63 8.066.0116 1.955-1.1776 3.2586-2.7239 4.0061-1.3367.6462-2.9024.7483-4.2997.2462-2.1293-.7652-2.1029-2.0711-2.7485-1.7103-5.214 2.913-14.63-7.577-13.72-12.99 4.296-10.07 15.93-1.788 14.32 1.933l.002-.0024z"/><path fill="#3f3f3f" d="M16.76 45.06l2.9-10.63 1.93 4.83 5.8-15.46 2.49 3 5.43-14.35 2.71 5.56 2.9 9.66 1.93-3.87 2.9 12.56 2.89-6.76 2.9 15.46"/><path fill="#fff" d="M44.05 29l-3.13 1.57-2.9-.97-1.94-.97-3.86 1.94-1.93-1.94-2.9.97-1.24-2.48 1.24-3.32 2.49 3 5.43-14.35 2.71 5.56 2.9 9.66 1.93-3.87 1.2 5.2zm-5.49 11.49l3.219-1.266s3.964-.9326 6.863.0335c3.639 1.302 5.994 4.835 5.797 8.695.0168 2.845-.5285 6.481-2.412 8.613-2.843 2.528-5.311 2.812-8.038 2.936-1.547.1219-3.918-.1353-4.749-1.446l-1.522-2.154c-1.403 1.932-4.082 3.492-6.465 3.644-2.281 0-4.895-.4741-6.263-2.299l-2.016-2.255c-.7258 1.109-1.992 1.741-3.314 1.655-1.932 0-5.797-.9661-5.797-5.797-.1959-3.445 2.529-7.396 5.963-7.729l3.057.1666c-.6255-2.6 2.355-6.929 7.403-6.929 2.325.0004 6.707.8947 8.274 4.131v.0009z"/><g fill="none" stroke="#000" stroke-linecap="round" stroke-width="2"><path stroke-linejoin="round" d="M61.2 34.43c3.4343.3331 5.9929 3.3182 5.797 6.763 0 4.83-3.864 5.797-5.797 5.797-1.9454.1886-3.6754-1.2356-3.864-3.181a3.54226 3.54226 0 0 1 0-.683M21.59 28.63s-3.864-.9661-6.763 0-4.83 2.898-4.83 7.729c-.0171 2.845 1.0146 5.5966 2.898 7.729m3.865.972l2.9-10.63 1.93 4.83 5.8-15.46 2.49 3 5.43-14.35 2.71 5.56 2.9 9.66 1.93-3.87 2.9 12.56 2.89-6.76L51 40"/><path stroke-linejoin="round" d="M19.66 44.09c-3.4343.3331-5.9929 3.3182-5.797 6.763 0 4.83 3.864 5.797 5.797 5.797 1.9454.1886 3.6754-1.2356 3.864-3.181.022-.2271.022-.4559 0-.683m1.936 3.864c1.3686 1.8245 3.5163 2.8982 5.797 2.898 3.864 0 6.763-3.864 6.763-4.83m1.93 2.902c.8305 1.3102 2.3175 2.0537 3.864 1.932 2.5948-.1679 4.6621-2.2352 4.83-4.83M23.53 45.06c-1.932-1.932.9661-8.695 6.763-8.695 2.898 0 8.695.9661 8.695 6.763m2.892-2.898s3.864-1.932 6.763-.9661c3.6388 1.3022 5.9943 4.8352 5.797 8.695.0171 2.845-1.0146 5.5966-2.898 7.729"/><path stroke-miterlimit="10" d="M57.34 35.4c1.932-1.932-.9661-8.695-6.763-8.695a10.76986 10.76986 0 0 0-6.6 1.993"/></g></svg>