<svg xmlns="http://www.w3.org/2000/svg" role="img" viewBox="14.76 2.76 42.48 64.35"><title>E210.svg</title><path fill="#9b9b9a" d="M27.7666 61.5156H17.6217v-.5748h-1.5748v1.5748a.9993.9993 0 0 0 1 1h10.72a1 1 0 1 0 0-2zm16.5324 0h10.1449v-.5748h1.5748v1.5748a.9993.9993 0 0 1-1 1H44.299a1 1 0 0 1 0-2z"/><rect width="18.532" height="4.111" x="26.767" y="61.889" fill="#61b2e4" rx="1"/><circle cx="35.952" cy="19.368" r="2.314" fill="#f4aa41"/><path fill="#f4aa41" d="M41.7407 38.9116l-1.1358-9.5873.1828-.3953 3.3964 3.7429a.7619.7619 0 0 1 .0767.93c-.4689.72-1.0447 1.6361-1.4252 2.1951a2.22 2.22 0 0 0 .85 3.1146L48.1537 32.8l-6.1664-6.465-2.6673-1.0283-7.0052-.1505-1.0848-.6173-3.31-4.22-1.419-6.3466c-1.2909 0-1.8634.7644-1.8634 1.5441 0 1.255.0575 1.495.0575 4.0649 0 2.2106 2.1772 4.9232 4.262 6.7536a12.0742 12.0742 0 0 0 2.3629 1.7534l-.2142 1.236-.5018 9.5873-6.6967 22.0415h2.5457l8.7518-19.2858h1.5429l8.9189 19.2858h2.5457z"/><path fill="none" stroke="#9b9b9a" stroke-linecap="round" stroke-linejoin="round" stroke-width="2" d="M25.0952 7.5441c0-.9722.5578-1.9444 1.41-1.9444m2.3406 1.9444a2.0955 2.0955 0 0 1 1.4322-2.23c1.5293-.6169 2.8529.6682 4.4908-.3084"/><path fill="#f4aa41" d="M31.8073 9.8822c0 1.7456-1.9977 3.1606-4.462 3.1606s-4.4619-1.415-4.4619-3.1606z"/><g fill="none" stroke="#000" stroke-width="2"><path stroke-linecap="round" stroke-linejoin="round" d="M34.316 17.732l-1.879-1.878"/><circle cx="35.952" cy="19.368" r="2.314" stroke-miterlimit="10"/><path stroke-linecap="round" stroke-linejoin="round" d="M35.952 17.054v-2.686m1.757 3.502l1.902-1.903m-1.345 3.401h2.685m-7.313 0h-2.657m-3.5729-5.9575l.1949 5.8847a3.4811 3.4811 0 0 0 .4992 1.691c1.2559 2.0753 3.2963 4.2817 4.7881 4.0953a30.0074 30.0074 0 0 1 6.1714 0 3.9932 3.9932 0 0 1 2.6291.8852 50.48 50.48 0 0 1 5.0175 5.1822 2.7609 2.7609 0 0 1 .18 3.4316l-2.59 3.6433M31.8073 9.8822c0 1.7456-1.9977 3.1606-4.462 3.1606s-4.4619-1.415-4.4619-3.1606zM17.047 60.953h10.72V65m16.532 0v-4.047h10.72"/><path stroke-linecap="round" stroke-linejoin="round" d="M39.8324 29.3244l1.5149 9.5872L47.805 58.985l.0015-.0006a1.46 1.46 0 0 1-2.6723 1.1667l-7.33-16.9553a1.8584 1.8584 0 0 0-3.6578 0l-7.33 16.9553a1.46 1.46 0 0 1-2.6724-1.1667l.0016.0006 6.4577-20.0734 1.5148-9.5872"/></g></svg>