<svg xmlns="http://www.w3.org/2000/svg" role="img" viewBox="5.45 10.58 60.97 46.47"><title>E211.svg</title><path fill="#d0cfce" d="M64.2949 54.96v-9.2268H7.7051V54.96h5.5919v-.5436a4.07 4.07 0 1 1 8.1395 0v.5436h4.2827v-.5436a4.07 4.07 0 1 1 8.1394 0v.5436h4.2828v-.5436a4.07 4.07 0 1 1 8.1394 0v.5436h4.2827v-.5436a4.07 4.07 0 1 1 8.14 0v.5436z"/><path fill="#b1cc33" d="M56.9709 36.5065a3.5581 3.5581 0 0 0-3.5581-3.558H18.5872a3.5581 3.5581 0 0 0-3.5581 3.558h41.9418z"/><path fill="#d0cfce" d="M13.125 36.506h45.75v9.227h-45.75z"/><path fill="#b1cc33" d="M47.6569 23.7216V22.72h-3.8121l-.45 1.0019H24.3431a3.558 3.558 0 0 0-3.558 3.558h30.43a3.558 3.558 0 0 0-3.5582-3.5583z"/><path fill="#d0cfce" d="M18.707 32.948V27.28h22.734l.571-1.001h11.281v6.669H18.707z"/><path fill="#b1cc33" d="M58.7145 42.1751H41.475v-1.0022H23.08v1.0022h-9.7945a3.5581 3.5581 0 0 0-3.558 3.5581h52.545a3.5581 3.5581 0 0 0-3.558-3.5581z"/><g fill="none" stroke="#000" stroke-linecap="round" stroke-linejoin="round" stroke-width="2"><path d="M13.125 42.175v-5.669h45.75v5.669m-40.168-9.227V27.28h23.305m-10.477-9.1817a6.3552 6.3552 0 0 0-7.2137 0m6.0371-5.0412a7.87 7.87 0 0 0-6.0371 5.0412m-8.3786-2.2457a8.363 8.363 0 0 1 8.3786 2.2457m-5.8986 1.1139a5.9185 5.9185 0 0 1 5.8986-1.1139m-2.9493-5.2578c2.6979 1.0919 2.9493 5.2578 2.9493 5.2578m20.9658 11.6825a7.5552 7.5552 0 0 1 8.006-1.1138m-5.6362-4.9454c4.347 0 5.6362 4.9454 5.6362 4.9454m8.3786-2.2458a8.3628 8.3628 0 0 0-8.3786 2.2458m5.8985 1.1138a5.9181 5.9181 0 0 0-5.8985-1.1138m2.9492-5.2579c-2.6979 1.0919-2.9492 5.2579-2.9492 5.2579"/><path d="M56.9709 36.5065a3.5581 3.5581 0 0 0-3.5581-3.558H18.5872a3.5581 3.5581 0 0 0-3.5581 3.558h0M64.2949 54.96v-9.2268H7.7051V54.96h5.5919v-.5436a4.07 4.07 0 1 1 8.1395 0v.5436h4.2827v-.5436a4.07 4.07 0 1 1 8.1394 0v.5436h4.2828v-.5436a4.07 4.07 0 1 1 8.1394 0v.5436h4.2827v-.5436a4.07 4.07 0 1 1 8.14 0v.5436zM24.321 18.098v14.851m28.972-4.282v7.84"/><path d="M23.08 42.1751h-9.7945a3.5581 3.5581 0 0 0-3.558 3.5581h52.545a3.5581 3.5581 0 0 0-3.558-3.5581H41.475"/><path d="M38.013 42.1556c-3.1938 0-5.3868 3.5776-5.3868 3.5776a11.0275 11.0275 0 0 0-.06-4.9045M26.3928 42.74a6.41 6.41 0 0 1 6.2334 2.9936m11.2186-22.012H24.3431a3.558 3.558 0 0 0-3.558 3.558H42.012"/></g></svg>