<svg xmlns="http://www.w3.org/2000/svg" role="img" viewBox="8.83 23.96 54.21 23.96"><title>E241.svg</title><g stroke-linecap="round" stroke-linejoin="round" stroke-miterlimit="10" stroke-width="2"><path fill="#d0cfce" d="M51.0984 45.9794H21.0578c-5.5116 0-9.9797-4.4681-9.9797-9.9797s4.4681-9.9797 9.9797-9.9797h30.0406c5.5116 0 9.9797 4.4681 9.9797 9.9797 0 5.5117-4.468 9.9797-9.9797 9.9797z"/><circle cx="20.923" cy="36" r="10.001" fill="#ea5a47"/><path fill="#ea5a47" d="M27.5214 28.4459c4.0892 3.7129 4.3944 10.0377.6815 14.127s-10.0377 4.3943-14.127.6815"/></g><g fill="none" stroke="#000" stroke-linecap="round" stroke-linejoin="round" stroke-miterlimit="10" stroke-width="2"><path d="M51.0984 45.9794H21.0578c-5.5116 0-9.9797-4.4681-9.9797-9.9797v0c0-5.5116 4.4681-9.9797 9.9797-9.9797h30.0406c5.5116 0 9.9797 4.4681 9.9797 9.9797v0c0 5.5117-4.468 9.9797-9.9797 9.9797z"/><circle cx="20.923" cy="36" r="10.001"/><path d="M27.5214 28.4459c4.0892 3.7129 4.3944 10.0377.6815 14.127s-10.0377 4.3943-14.127.6815"/></g></svg>