<svg xmlns="http://www.w3.org/2000/svg" role="img" viewBox="3.76 23.76 64.48 24.36"><title>E243.svg</title><path d="M8.042 29h56m-56-3v8m56-8v8m-28-8v8m-14-8v6m28-6v6M8.0085 45.9053h0c-1.0579 0-1.9155-.8576-1.9155-1.9155v-3.1689c0-1.0579.8576-1.9156 1.9155-1.9156h0c1.058 0 1.9156.8577 1.9156 1.9156v3.1689c0 1.0579-.8576 1.9155-1.9156 1.9155zm53.8249-5.2934c.2005-.9798 1.0674-1.7169 2.1065-1.7169h0c.5937 0 1.1313.2407 1.5204.6298.6053.6053.5494 1.6111-.0185 2.2515l-3.6521 4.1187h4.3004M35.121 40.412l1.938-1.451v7" fill="none" stroke="#000" stroke-linecap="round" stroke-linejoin="round" stroke-miterlimit="10" stroke-width="2"/></svg>