<svg xmlns="http://www.w3.org/2000/svg" role="img" viewBox="8.83 23.96 54.21 23.96"><title>E245.svg</title><g stroke-linecap="round" stroke-linejoin="round" stroke-miterlimit="10" stroke-width="2"><path fill="#d0cfce" d="M20.9453 45.9794h30.0406c5.5116 0 9.9797-4.4681 9.9797-9.9797S56.4975 26.02 50.9859 26.02H20.9453c-5.5116 0-9.9797 4.4681-9.9797 9.9797 0 5.5117 4.468 9.9797 9.9797 9.9797z"/><circle cx="50.965" cy="36" r="10.001" fill="#b1cc33"/><path fill="#5c9e31" d="M43.9618 43.0717c3.9056 3.9056 10.2378 3.9056 14.1434 0s3.9056-10.2378 0-14.1434"/></g><g fill="none" stroke="#000" stroke-linecap="round" stroke-linejoin="round" stroke-miterlimit="10" stroke-width="2"><path d="M20.9453 45.9794h30.0406c5.5116 0 9.9797-4.4681 9.9797-9.9797v0c0-5.5116-4.4681-9.9797-9.9797-9.9797H20.9453c-5.5116 0-9.9797 4.4681-9.9797 9.9797v0c0 5.5117 4.468 9.9797 9.9797 9.9797z"/><circle cx="50.965" cy="36" r="10.001"/><path d="M43.9618 43.0717c3.9056 3.9056 10.2378 3.9056 14.1434 0s3.9056-10.2378 0-14.1434"/></g></svg>