<svg xmlns="http://www.w3.org/2000/svg" role="img" viewBox="4.80 14.80 62.40 42.40"><title>E246.svg</title><path fill="#9b9b9a" d="M16.0497 54.9455c-1.6613 0-3.0081-1.3468-3.0081-3.0081v-8.862l-.0015-3.4078c-.0001-.2111.2466-.326.4082-.1901l3.7794 3.3007a.7521.7521 0 0 0 .4845.1768h23.2796c1.6613 0 3.0081 1.3468 3.0081 3.0081v5.9742c0 1.6613-1.3468 3.0081-3.0081 3.0081H16.0497z"/><path fill="#d0cfce" d="M58.6474 32.468c.1623.1367.4103.0212.4102-.191l-.0014-3.2289h.0005v-9.0304c0-1.6702-1.354-3.0242-3.0242-3.0242H31.1218c-1.6702 0-3.0242 1.354-3.0242 3.0242v6.0062c0 1.6702 1.354 3.0242 3.0242 3.0242h23.3303c.1782 0 .3507.063.487.1777l3.7083 3.2422z"/><g fill="#fcea2b"><circle cx="13.02" cy="20.122" r="3"/><circle cx="59.08" cy="42.036" r="3"/><path d="M8.5664 29.2484a7.41196 7.41196 0 0 1 4.5958-1.8435c1.4123-.0578 2.7877.46 3.8113 1.4348a5.70045 5.70045 0 0 1 1.6868 3.1621l.3645 2.1197-12.0812-.0078.3192-2.4206a3.94524 3.94524 0 0 1 1.3037-2.4447zm46.7498 21.3649a5.0571 5.0571 0 0 1 3.1356-1.2578l1.4133-.0579a3.84848 3.84848 0 0 1 2.8118 1.0585 7.4528 7.4528 0 0 1 2.2051 4.1338l.2661 1.5479L53.067 56.03l.2101-1.5931a6.17054 6.17054 0 0 1 2.0391-3.8237z"/></g><g fill="none" stroke="#000" stroke-width="2"><circle cx="13.02" cy="20.122" r="3" stroke-miterlimit="10"/><path stroke-linecap="round" stroke-linejoin="round" d="M7.0196 33.1223s1-4.3112 3-5.3112 4-1 6 0 3 5.3112 3 5.3112"/><circle cx="59.08" cy="42.036" r="3" stroke-miterlimit="10"/><path stroke-linecap="round" stroke-linejoin="round" d="M53.0802 55.0363s1-4.3112 3-5.3112 4-1 6 0 3 5.3112 3 5.3112"/><path stroke-miterlimit="10" d="M16.0497 54.9455c-1.6613 0-3.0081-1.3468-3.0081-3.0081v-8.862l-.0015-3.4078c-.0001-.2111.2466-.326.4082-.1901l3.7794 3.3007a.7521.7521 0 0 0 .4845.1768h23.2796c1.6613 0 3.0081 1.3468 3.0081 3.0081v5.9742c0 1.6613-1.3468 3.0081-3.0081 3.0081H16.0497zM58.6474 32.468c.1623.1367.4103.0212.4102-.191l-.0014-3.2289h.0005v-9.0304c0-1.6702-1.354-3.0242-3.0242-3.0242H31.1218c-1.6702 0-3.0242 1.354-3.0242 3.0242v6.0062c0 1.6702 1.354 3.0242 3.0242 3.0242h23.3303c.1782 0 .3507.063.487.1777l3.7083 3.2422z"/></g></svg>