<svg xmlns="http://www.w3.org/2000/svg" role="img" viewBox="8.84 8.84 54.08 54.08"><title>E247.svg</title><path fill="#D0CFCE" d="M35.67 60.98C10.08 54.96 11 16.06 11 16.06c4.75.05 25-5.08 25-5.08v.09s20.25 5.12 25 5.08c0 0 .25 38.81-25.33 44.83z"/><path fill="#9B9B9A" d="M46.5557 13.5874S53 44 36 60c0 0 16-1 22-25s0-19 0-19l-11.4443-2.4126"/><path fill="#61B2E4" d="M26.644 32.829l9.165 14.011 14.704-24.264-5.103 2.491-9.569 15.791-5.965-9.118z"/><g fill="none" stroke="#000" stroke-linecap="round" stroke-linejoin="round" stroke-miterlimit="10" stroke-width="2"><path d="M36 10.9792s-20.2537 5.1291-25 5.0853c0 0-.9167 38.8939 24.6667 44.9147"/><path d="M35.6667 60.9792C61.25 54.9584 61 16.151 61 16.151c-4.7463.0437-25-5.0853-25-5.0853"/><path d="M26.644 32.829l9.165 14.011 14.704-24.264-5.103 2.491-9.569 15.791-5.965-9.118z"/></g></svg>