<svg xmlns="http://www.w3.org/2000/svg" role="img" viewBox="9.96 9.96 53.95 51.95"><title>E249.svg</title><g fill="#fcea2b"><circle cx="21" cy="17" r="3"/><circle cx="55.992" cy="26.324" r="3"/><circle cx="29.993" cy="47.008" r="3"/><path d="M17.1027 25.6367a5.32188 5.32188 0 0 1 3.2998-1.3237l.2881-.0118c1.7012-.0696 3.3578.554 4.5907 1.7282a4.33437 4.33437 0 0 1 1.2827 2.4047l.4411 2.5652-12.0811-.0078.2223-1.6861a5.91977 5.91977 0 0 1 1.9564-3.6686zm34.6558 9.6774l.5938-.523a4.58825 4.58825 0 0 1 2.8452-1.1413l.6753-.0276c1.6197-.0663 3.197.5275 4.3708 1.6454a4.72028 4.72028 0 0 1 1.3966 2.6181l.4195 2.4397-12.0811-.0078.2918-2.2129a4.50318 4.50318 0 0 1 1.4882-2.7906zm-25.071 19.8576a3.3044 3.3044 0 0 1 2.0485-.8217l.4524-.0185c2.0529-.084 4.0521.6686 5.54 2.0855.4159.3961.693.9156.7903 1.4816l.5344 3.1083-12.0811-.0078.1289-.9772a7.8261 7.8261 0 0 1 2.5866-4.8502z"/></g><g fill="none" stroke="#000" stroke-width="2"><circle cx="21" cy="17" r="3" stroke-miterlimit="10"/><path stroke-linecap="round" stroke-linejoin="round" d="M15 30s1-4.3112 3-5.3112 4-1 6 0S27 30 27 30"/><circle cx="55.992" cy="26.324" r="3" stroke-miterlimit="10"/><path stroke-linecap="round" stroke-linejoin="round" d="M49.9917 39.3237s1-4.3112 3-5.3112 4-1 6 0 3 5.3112 3 5.3112"/><circle cx="29.993" cy="47.008" r="3" stroke-miterlimit="10"/><path stroke-linecap="round" stroke-linejoin="round" d="M23.9928 60.0078s1-4.3112 3-5.3112 4-1 6 0 3 5.3112 3 5.3112M52.552 20.1356C48.333 15.1588 42.0354 12 35 12c-2.7693 0-5.4243.4894-7.8832 1.3865m12.3164 44.1866c8.2126-1.6036 14.8614-7.5774 17.4267-15.4016m-44.7731-9.1831C12.0293 33.6513 12 34.3222 12 35c0 7.9743 4.0582 15.0008 10.2221 19.1268"/></g></svg>