<svg xmlns="http://www.w3.org/2000/svg" role="img" viewBox="8.30 13.92 55.90 43.40"><title>E254.svg</title><g fill="#9B9B9A"><path d="M58.3698 30.524c-5.6511-5.6511-13.458-9.1464-22.0813-9.1464-8.6366 0-16.4544 3.5061-22.1075 9.1726l-3.813-3.7631c6.6245-6.6507 15.7919-10.7667 25.9205-10.7667 10.1026 0 19.2488 4.0949 25.8694 10.7154l-3.7881 3.7882z"/><path d="M21.9165 38.2856c3.7224-3.7905 8.9056-6.1416 14.6379-6.1416 5.5973 0 10.671 2.2416 14.3724 5.876l3.7837-3.7919c-4.6705-4.6014-11.0817-7.4409-18.1561-7.4409-7.2115 0-13.7339 2.9506-18.4258 7.7105l3.7879 3.7879z"/><path d="M43.3518 45.5965c-1.7623-1.6966-4.158-2.7397-6.7974-2.7397-2.7741 0-5.2791 1.1524-7.0623 3.0046l-3.8144-3.8145c2.7547-2.8372 6.6098-4.6001 10.8766-4.6001 4.1307 0 7.8755 1.6522 10.6097 4.3319l-3.8122 3.8178z"/><circle cx="36.289" cy="52.605" r="2.672"/></g><g fill="none" stroke="#000" stroke-linecap="round" stroke-linejoin="round" stroke-miterlimit="10" stroke-width="2"><path d="M58.3698 30.524c-5.6511-5.6511-13.458-9.1464-22.0813-9.1464-8.6366 0-16.4544 3.5061-22.1075 9.1726l-3.813-3.7631c6.6245-6.6507 15.7919-10.7667 25.9205-10.7667 10.1026 0 19.2488 4.0949 25.8694 10.7154l-3.7881 3.7882z"/><path d="M21.9165 38.2856c3.7224-3.7905 8.9056-6.1416 14.6379-6.1416 5.5973 0 10.671 2.2416 14.3724 5.876l3.7837-3.7919c-4.6705-4.6014-11.0817-7.4409-18.1561-7.4409-7.2115 0-13.7339 2.9506-18.4258 7.7105l3.7879 3.7879z"/><path d="M43.3518 45.5965c-1.7623-1.6966-4.158-2.7397-6.7974-2.7397-2.7741 0-5.2791 1.1524-7.0623 3.0046l-3.8144-3.8145c2.7547-2.8372 6.6098-4.6001 10.8766-4.6001 4.1307 0 7.8755 1.6522 10.6097 4.3319l-3.8122 3.8178z"/><circle cx="36.289" cy="52.605" r="2.672"/></g></svg>