<svg xmlns="http://www.w3.org/2000/svg" role="img" viewBox="8.74 3.12 49.65 65.52"><title>E256.svg</title><g id="color"><path fill="#FCEA2B" d="M55.3264,61.6696c0.4702,0,0.8513-0.5583,0.8513-1.2471V6.7115c0-0.6888-0.3811-1.2471-0.8513-1.2471 H18.6616c-0.4702,0-0.8513,0.5583-0.8513,1.2471v33.0984l30.1025,21.8597C47.9128,61.6696,55.3264,61.6696,55.3264,61.6696z"/><path fill="#FCEA2B" d="M55.3442,60.3668c0.4603,0,0.8335-0.5454,0.8335-1.2182V6.6826c0-0.6728-0.3732-1.2182-0.8335-1.2182 H19.4465c-0.4603,0-0.8335,0.5454-0.8335,1.2182v53.6842H55.3442z"/><path fill="#FCEA2B" d="M18.613,6.6826c0-0.6728,0.3732-1.2182,0.8335-1.2182h35.8977c0.4603,0,0.8335,0.5454,0.8335,1.2182v52.466 c0,0.6728-0.3732,1.2182-0.8335,1.2182"/><path fill="#F1B31C" d="M51.1805,66.4522H15.2828c-0.4603,0-0.8335-0.5454-0.8335-1.2182v-7.1774V23.3439v-3.9428V12.768 c0-0.6728,0.3732-1.2182,0.8335-1.2182h35.8977c0.4603,0,0.8335,0.5454,0.8335,1.2182v52.466 C52.014,65.9068,51.6408,66.4522,51.1805,66.4522z"/></g><g id="line" fill="none" stroke="#000" stroke-linejoin="round" stroke-width="2"><path stroke-linecap="round" stroke-miterlimit="10" d="M18.613,6.6826c0-0.6728,0.3732-1.2182,0.8335-1.2182h35.8977c0.4603,0,0.8335,0.5454,0.8335,1.2182v52.466 c0,0.6728-0.3732,1.2182-0.8335,1.2182"/><path stroke-linecap="round" stroke-miterlimit="10" d="M51.1805 66.4522H15.2828c-.4603 0-.8335-.5454-.8335-1.2182v-7.1774V23.3439v-3.9428V12.768c0-.6728.3732-1.2182.8335-1.2182h35.8977c.4603 0 .8335.5454.8335 1.2182v52.466C52.014 65.9068 51.6408 66.4522 51.1805 66.4522zM12.356 20.501L19.628 20.501M12.356 27.864L19.628 27.864M11 35.319L18.272 35.319M18.272 42.683L11 42.683M11 50.046L18.272 50.046M11 57.41L18.272 57.41"/><path stroke-linecap="round" d="M42.8181,45.6368 c0,0,0-0.7431-0.3715-2.2292c-0.4499-1.8004-1.4862-2.9723-3.7154-2.9723c-1.8577,0-5.5731,0-8.1739,0 c-2.2292,0-3.2653,1.172-3.7154,2.9723c-0.3715,1.4862-0.3715,2.2292-0.3715,2.2292"/><path d="M30.9288,33.0044 c0,1.3838,0.2003,2.9012,0.7431,3.7154c0.6916,1.0377,1.8642,1.4862,2.9723,1.4862c1.1502,0,2.28-0.4485,2.9723-1.4862 c0.5424-0.8142,0.7431-2.3316,0.7431-3.7154c0-1.0379-0.3715-4.4585-3.7154-4.4585S30.9288,31.2745,30.9288,33.0044z"/></g></svg>