<svg xmlns="http://www.w3.org/2000/svg" role="img" viewBox="10.00 15.13 51.87 41.74"><title>E25C.svg</title><path fill="#D0CFCE" d="M58.2314 54.8086H14.1252c-.8922 0-1.6222-.73-1.6222-1.6222V43.1805c0-.8922.73-1.6222 1.6222-1.6222h44.1062c.8922 0 1.6222.73 1.6222 1.6222v10.0059c0 .8922-.73 1.6222-1.6222 1.6222z"/><circle cx="19.017" cy="48.289" r="1.934" fill="#92D3F5"/><g fill="none" stroke="#000" stroke-linecap="round" stroke-linejoin="round" stroke-miterlimit="10" stroke-width="2"><path d="M36.085 17.147v18.87m6.155-6.122l-6.14 6.14m-6.19-6.14l6.14 6.14m20.8461 18.9432H15.0768c-1.65 0-3-1.35-3-3V44.402c0-1.65 1.35-3 3-3h41.8194c1.65 0 3 1.35 3 3v7.5762c-.0001 1.65-1.3501 3-3.0001 3z"/><circle cx="19.017" cy="48.289" r="2"/></g></svg>