<svg xmlns="http://www.w3.org/2000/svg" role="img" viewBox="10.13 10.26 51.61 51.48"><title>E25D.svg</title><path fill="#FFF" d="M12.854 16.577h42.498v42.246H12.854z"/><path fill="#F4AA41" d="M32.775 39.406l4.719-1.782-2.937-2.937z"/><path fill="#A57939" d="M56.61112 11.67841l3.78437 3.7845-22.01403 22.01327-3.78437-3.7845z"/><g fill="none" stroke="#000" stroke-linecap="round" stroke-linejoin="round" stroke-miterlimit="10" stroke-width="2"><path d="M54.5567 28.084v30.6836c0 .55-.45 1-1 1H13.1685c-.55 0-1-.45-1-1V18.3794c0-.5523.4477-1 1-1h31.0229"/><path d="M38.0526 37.7487l21.4611-21.4611c.3905-.3905.3905-1.0237 0-1.4142l-2.3359-2.3359c-.3905-.3905-1.0237-.3905-1.4142 0L34.3025 33.9986l-2.6258 6.3865 6.3759-2.6364-3.7501-3.7501"/></g></svg>