<svg xmlns="http://www.w3.org/2000/svg" role="img" viewBox="10.95 7.07 49.98 54.86"><title>E260.svg</title><path fill="#A57939" stroke-linecap="round" stroke-linejoin="round" stroke-miterlimit="10" stroke-width="2" d="M57.9219 59.7151H14.0782c-.55 0-1-.45-1-1V35.1819c0-.55.45-1 1-1h43.8437c.55 0 1 .45 1 1v23.5332c0 .55-.45 1-1 1z"/><g fill="none" stroke="#000" stroke-linecap="round" stroke-linejoin="round" stroke-miterlimit="10" stroke-width="2"><path d="M57.9219 59.7151H14.0782c-.55 0-1-.45-1-1V35.1819c0-.55.45-1 1-1h43.8437c.55 0 1 .45 1 1v23.5332c0 .55-.45 1-1 1z"/><path d="M57.7185 60.0021H14.3634c-.6323 0-1.1449-.5126-1.1449-1.1449V35.103c0-.6323.5126-1.1449 1.1449-1.1449h43.3551c.6323 0 1.1449.5126 1.1449 1.1449v23.7542c0 .6323-.5126 1.1449-1.1449 1.1449zM13.443 47.011h45.366M40.028 38.97h-8.027m8.027 13.003h-8.027m4.046-42.848v18.87m6.155-6.121l-6.14 6.14m-6.19-6.14l6.14 6.14"/></g></svg>