<svg xmlns="http://www.w3.org/2000/svg" role="img" viewBox="11.04 11.04 49.79 49.79"><title>E282.svg</title><path fill="#FCEA2B" d="M36.2 13.32c-12.57 0-22.8 10.23-22.8 22.8s10.23 22.8 22.8 22.8S59 48.69 59 36.12s-10.23-22.8-22.8-22.8z"/><circle cx="36" cy="36" r="23" fill="none" stroke="#000" stroke-miterlimit="10" stroke-width="2"/><path fill="none" stroke="#000" stroke-linecap="round" stroke-linejoin="round" stroke-miterlimit="10" stroke-width="2" d="M28.99 51h14.02"/><path d="M29.2 42c0 1.657-1.345 3-3 3s-3-1.343-3-3c0-1.655 1.345-3 3-3s3 1.345 3 3m19.6 0c0 1.657-1.345 3-3 3s-3-1.343-3-3c0-1.655 1.345-3 3-3s3 1.345 3 3"/></svg>