<svg xmlns="http://www.w3.org/2000/svg" role="img" viewBox="8.91 12.41 54.05 56.55"><title>E2C0.svg</title><g id="color"><path fill="#61B2E4" d="M11 23.845H61V68.001H11z"/><path fill="#92D3F5" d="M26.5617,23.482l-4.3533,4.7736l0.0855,3.9396l-4.7557,1.1207l4.9233,3.8301l-1.2307,3.83 c0,0,4.923,0.7018,6.3015,3.45c0.094,0.1827,0.1667,0.3756,0.2166,0.5749c0.9256,3.2259,0.8665,11.1492,0.8665,11.1492l3.2,5.1067 l5.3717,2.261l4.8387-11.8214l1.4179,2.0757c0,0,0.9846,0.6627,2.1563-6.3347c0.7199,0.4804,1.7114,1.1294,2.1231,1.8907 c0.9846,1.5203,0.2794-7.1338,0.2794-7.1338l-1.1717-3.1771l5.576-0.7436l-1.9231-6.0785 c-1.5926-3.1579-3.5919-6.0936-5.9471-8.7322L26.5617,23.482z"/><path fill="#FFF" d="M31.815 14.526L39.718 19.169 44.537 23.463 26.562 23.482z"/></g><g id="line" fill="none" stroke="#000" stroke-linecap="round" stroke-linejoin="round" stroke-width="2"><path d="M11 23.845L61 23.845M22.4615 37.146l-1.2307 3.83c0 0 4.923.7018 6.3015 3.45.094.1827.1667.3756.2166.5749.9256 3.2259.8665 11.1492.8665 11.1492l3.2 5.1067 5.3717 2.261 4.8387-11.8214 1.4179 2.0757c0 0 .9846.6627 2.1563-6.3347.7199.4804 1.7114 1.1294 2.1231 1.8907.9846 1.5203.2794-7.1338.2794-7.1338l-1.1717-3.1771 5.576-.7436-1.9231-6.0785c-1.5926-3.1579-3.5919-6.0936-5.9471-8.7322-3.7812-4.7068-12.7212-8.9368-12.7212-8.9368l-5.6537 9.9559-3.9533 3.7736.0855 3.9396-4.7557 1.1207L22.4615 37.146z"/></g></svg>