<svg xmlns="http://www.w3.org/2000/svg" role="img" viewBox="2.72 2.72 66.43 66.43"><title>E2C1.svg</title><path fill="#92d3f5" d="M4 4h64v64H4z"/><path fill="#61b2e4" d="M9.5508 36.7741l-.5426.8373a6.0547 6.0547 0 0 0-.2276 6.2048l4.3152 7.8676a6.0545 6.0545 0 0 0 1.68 1.9353l5.5942 4.1878a6.0555 6.0555 0 0 0 3.4784 1.2059l16.9841.4217a6.0541 6.0541 0 0 0 1.8789-.25l11.4443-3.4089a6.055 6.055 0 0 0 3.5273-2.7967l5.3387-9.3336a6.055 6.055 0 0 0-1.6049-7.8367"/><path fill="#fff" d="M19.705 25.833L9.551 32.48l4.175 8.353 8.191 6.132h19.71l13.227-4.578 6.563-11.579-13-7.975-18.25 5.75-10.462-2.75z"/><path fill="#fff" d="M9.551 32.48v7l4.175 8.353 8.191 6.132h19.71l13.227-4.578 6.563-11.579v-7"/><path fill="#fff" d="M32.917 53.965l1.125-3.007-1.5-1.375 1.062-2.618m-3.4373-18.3817l4.1874 5.3125-3.1874 3.6875 1.0937 3.25-1.7813 2.125a32.0259 32.0259 0 0 0 1.125 4.0065"/><g fill="none" stroke="#000" stroke-linecap="round" stroke-linejoin="round" stroke-width="2"><path d="M19.705 25.833L9.551 32.48l4.175 8.353 8.191 6.132h19.71l13.227-4.578 6.563-11.579-13-7.975-18.25 5.75-10.462-2.75z"/><path d="M9.551 32.48v7l4.175 8.353 8.191 6.132h19.71l13.227-4.578 6.563-11.579v-7"/></g></svg>