<svg xmlns="http://www.w3.org/2000/svg" role="img" viewBox="27.63 3.76 16.48 64.48"><title>E2C4.svg</title><path fill="#ea5a47" d="M31.312 41.391v24.734h9.375v-33.5h-9.375v8.766z"/><path fill="#d22f27" d="M37.771 41.391v24.734h2.916v-33.5h-2.916v8.766z"/><path fill="#d0cfce" d="M31.313 32.625h9.375v8.5h-9.375z"/><path fill="#9b9b9a" d="M37.771 32.625h2.917v8.5h-2.917z"/><g fill="none" stroke="#000" stroke-linecap="round" stroke-linejoin="round" stroke-width="2"><path d="M31.312 41.391v24.734h9.375v-33.5h-9.375v8.766zm.001 0h9.375M36 32.625l.1412-14.1237a9.3053 9.3053 0 0 0-.5293-2.8977l-1.0051-2.5809a11.319 11.319 0 0 1-.6275-2.8954l-.1461-2.63A1.4067 1.4067 0 0 1 35.25 6h1.5a1.4054 1.4054 0 0 1 1.4156 1.4976l-.162 2.8744a10.4354 10.4354 0 0 1-.2431 1.9243l-.1588.4266M33.063 24.75h6"/></g><g><path fill="#ea5a47" d="M37.07 44.3038l4.2988-1.1665a2.2445 2.2445 0 0 0 1.5656-1.2692 1.6785 1.6785 0 0 0-1.2394-1.9813l-.025 1.0988a.9419.9419 0 0 1-.701.889l-4.3112 1.1395-6.026 1.4753c-.21.0571-1.3188.3239-1.5656 1.2692a2.9247 2.9247 0 0 0 .2319 2.2988l1.0329-1.4164a.9418.9418 0 0 1 .701-.8889z"/><path fill="#d22f27" d="M37.07 45.3038l4.2988-1.1665a3.0112 3.0112 0 0 0 1.4319-1.0228 1.0106 1.0106 0 0 0 .1425-.5293c.0339-1.0775.0339-.8932.0339-1.0435a7.9451 7.9451 0 0 1-2.1328 1.3658c-.1773.069-4.1869 1.1066-4.1869 1.1066l-6.026 1.4753a2.2445 2.2445 0 0 0-1.5656 1.2692 1.6624 1.6624 0 0 0 1.2393 1.9814l.0254-1.0989a.9418.9418 0 0 1 .701-.8889z"/><path fill="#ea5a47" d="M37.07 50.3038l4.2988-1.1665a2.2445 2.2445 0 0 0 1.5656-1.2692 1.6785 1.6785 0 0 0-1.2394-1.9813l-.025 1.0988a.9419.9419 0 0 1-.701.889l-4.3112 1.1395-6.026 1.4753c-.21.0571-1.3188.3239-1.5656 1.2692a2.9247 2.9247 0 0 0 .2319 2.2988l1.0329-1.4164a.9418.9418 0 0 1 .701-.8889z"/><path fill="#d22f27" d="M37.07 51.3038l4.2988-1.1665a3.0112 3.0112 0 0 0 1.4319-1.0228 1.0106 1.0106 0 0 0 .1425-.5293c.0339-1.0775.0339-.8932.0339-1.0435a7.9451 7.9451 0 0 1-2.1328 1.3658c-.1773.069-4.1869 1.1066-4.1869 1.1066l-6.026 1.4753a2.2445 2.2445 0 0 0-1.5656 1.2692 1.6624 1.6624 0 0 0 1.2393 1.9814l.0254-1.0989a.9418.9418 0 0 1 .701-.8889z"/><path fill="#ea5a47" d="M37.07 56.3038l4.2988-1.1665a2.2445 2.2445 0 0 0 1.5656-1.2692 1.6785 1.6785 0 0 0-1.2394-1.9813l-.025 1.0988a.9419.9419 0 0 1-.701.889l-4.3112 1.1395-6.026 1.4753c-.21.0571-1.3188.3239-1.5656 1.2692a2.9247 2.9247 0 0 0 .2319 2.2988l1.0329-1.4164a.9418.9418 0 0 1 .701-.8889z"/><path fill="#d22f27" d="M37.07 57.3038l4.2988-1.1665a3.0112 3.0112 0 0 0 1.4319-1.0228 1.0106 1.0106 0 0 0 .1425-.5293c.0339-1.0775.0339-.8932.0339-1.0435a7.9451 7.9451 0 0 1-2.1328 1.3658c-.1773.069-4.1869 1.1066-4.1869 1.1066l-6.026 1.4753a2.2445 2.2445 0 0 0-1.5656 1.2692 1.6624 1.6624 0 0 0 1.2393 1.9814l.0254-1.0989a.9418.9418 0 0 1 .701-.8889z"/><path fill="#ea5a47" d="M37.07 62.3038l4.2988-1.1665a2.2445 2.2445 0 0 0 1.5656-1.2692 1.6785 1.6785 0 0 0-1.2394-1.9813l-.025 1.0988a.9419.9419 0 0 1-.701.889l-4.3112 1.1395-6.026 1.4753c-.21.0571-1.3188.3239-1.5656 1.2692a2.7583 2.7583 0 0 0 .29 2.2988l.9744-1.4164a.9418.9418 0 0 1 .701-.8889z"/><path fill="#d22f27" d="M37.07 63.3038l4.2988-1.1665a3.0112 3.0112 0 0 0 1.4319-1.0228 1.0106 1.0106 0 0 0 .1425-.5293c.0339-1.0775.0339-.8932.0339-1.0435a7.9451 7.9451 0 0 1-2.1328 1.3658c-.1773.069-4.1869 1.1066-4.1869 1.1066l-6.026 1.4753a2.2445 2.2445 0 0 0-1.5656 1.2692c-.3176 1.6 1.4 1.9316 1.4 1.9316l-.1354-1.0492a.9418.9418 0 0 1 .701-.8889z"/></g></svg>