<svg xmlns="http://www.w3.org/2000/svg" role="img" viewBox="2.69 15.31 68.25 53.88"><title>E2C7.svg</title><path fill="#fff" d="M33.637 24.917l4.663-.38 1.313 3.869v9.028l1.97 9.41-2.048 7.258-3.388-9.483-.894-6.74-.598-4.901-1.852-2.695.834-5.366z"/><path fill="#fff" d="M31.402 19.194l-13.027 3.858 5.851 15.167-5.768-.292 3.584 4.75 2 1.875 1.125 2.667v4.541l3.541 2.917 1 2.323h9.905l-3.466-12.381-1.492-11.641-1.852-2.695.834-5.366-2.235-5.723M67 57H44.021l2.187-13.365-.958-11.902-1.5-2.906 1.5-5.219-1.5-5.958 10.833 1.319 5.899-.355 3.601.855 4 .75L67 57z"/><path fill="#d0cfce" d="M53.358 39.439l1.5 4.74-.26 4.13-1.24 5.37L54.598 57H48.75l1.608-3.321 1.24-5.37.26-4.13-1.5-4.74v-4.88l5.24-1.67 2.21.25-4.45 1.42v4.88zm-7.344 3.662L43.554 57h-4.11l1.13-10.509-.18-9.95-1.404-8.072-1.482-7.387 6.046-3.971 1.5 5.96-1.5 5.22 1.5 2.9.96 11.91z"/><path fill="#fff" d="M11.708 43v5.333l3.417-4.833-3.417-.5z"/><path fill="#92d3f5" d="M4 57h64v11H4z"/><path fill="none" stroke="#61b2e4" stroke-linecap="round" stroke-linejoin="round" stroke-width="2" d="M8.072 61.34l6.121-.482"/><path fill="#fff" d="M7.708 53.583l-1.583 2.75L8.458 60.5l4.959-.5-5.709-6.417z"/><g fill="none" stroke="#000" stroke-linecap="round" stroke-linejoin="round"><path stroke-width="2" d="M44.021 57l2.187-13.365-.958-11.902-1.5-2.906 1.5-5.219-1.5-5.958 10.833 1.319 5.899-.355 3.601.855 4 .75"/><path stroke-width="2" d="M54.333 57l-1.25-2.656 1.25-5.375.25-4.125-1.5-4.75v-4.875l5.25-1.667 10.375 1.177"/><path stroke-width="2" d="M61.708 39.958l1.125 4.75-.945 5.012M39.613 57l-3.466-12.381-1.492-11.641-1.852-2.695.834-5.366-2.235-5.723m0 0l-13.027 3.858 5.851 15.167-5.768-.292 3.584 4.75 2 1.875 1.125 2.667v4.541l3.541 2.917 1 2.323m-18.46 0H67M5 57h1.098M43.75 17.65l-6.604 3.631 2.467 7.125v9.028l1.97 9.41L39.708 57"/><path stroke-width="1.6" d="M11.708 43v5.333l3.417-4.833-3.417-.5zm-4 10.583l-1.583 2.75L8.458 60.5l4.959-.5-5.709-6.417z"/></g></svg>