<svg xmlns="http://www.w3.org/2000/svg" role="img" viewBox="24.95 5.33 21.85 61.10"><title>E2CA.svg</title><path fill="#d22f27" d="M43.3128 23a4.29 4.29 0 0 0-4.4286-3.9164H32.76a4.3473 4.3473 0 0 0-4.2963 4.1314l-.8085 19.4393a1 1 0 0 1-.1234.4369l2.9945-2.0943-.7287 22.1331a1.2142 1.2142 0 0 0 .2552.8789.2474.2474 0 0 0 .1551.09c.2185 0 1.29-.3847 1.37-1.0835l2.5781-22.5781a4.2613 4.2613 0 0 1 .1716-1.1593l.74-.8052h1.6587l.6489.7458a4.3877 4.3877 0 0 1 .4218 1.25l2.625 22.5468a1.33 1.33 0 0 0 1.014 1.0815.248.248 0 0 0 .1552-.09c.1962-.2483.5-.585.4663-.9l-.9516-22.11 3.572 2.43z"/><path fill="#fcea2b" d="M38.9326 12.58a3.0322 3.0322 0 0 1-6.0632 0 2.9474 2.9474 0 0 1 .2041-1.08h5.5631a.2881.2881 0 0 0 .0919-.01 3 3 0 0 1 .2041 1.09z"/><path fill="none" stroke="#fff" stroke-linecap="square" stroke-linejoin="round" stroke-width="2" d="M30.424 47.695l2.55.368m-2.55 2.632l2.55.368m6.45 0l2.55-.368m-2.55-2.632l2.55-.368M27.803 29.028l2.55.367m11.247 0l2.55-.367"/><path fill="#a57939" d="M40.5028 8.03v5.12s-.47 1.12-1.12 0v-2.04h-6.76v2.08c-.65 1.12-1.12 0-1.12 0V8.03a.7341.7341 0 0 1 .73-.73h7.54a.7341.7341 0 0 1 .73.73z"/><path fill="#6a462f" d="M37.459 7.083h2.896v3.842h-2.896z"/><path fill="#6a462f" d="M39.383 10.625h.972v2.979h-.972z"/><g><path fill="none" stroke="#000" stroke-linecap="round" stroke-linejoin="round" stroke-width="1.6" d="M40.5028 8.03v5.12s-.47 1.12-1.12 0v-2.04h-6.76v2.08c-.65 1.12-1.12 0-1.12 0V8.03a.7341.7341 0 0 1 .73-.73h7.54a.7341.7341 0 0 1 .73.73z"/><g fill="none" stroke="#000" stroke-linecap="round" stroke-linejoin="round" stroke-width="1.6"><path d="M38.9727 12.08a2.97 2.97 0 1 1-5.94 0m7.9386 12.436s-.275 4.5-.2 6c.0686 1.3717.7744 5.4868.7744 5.4868l1.3256 26.5132c.055 1.1-.575 2-1.4 2a2.076 2.076 0 0 1-1.729-1.987L37.2 40.498c-.129-1.093-.679-1.987-1.229-1.987s-1.103.894-1.229 1.987l-2.539 22.031a2.076 2.076 0 0 1-1.729 1.987c-.825 0-1.455-.9-1.4-2L30.4 36.0023c.1087-2.1733.7035-4.07.7737-5.4738.0752-1.5032-.1994-6.0125-.1994-6.0125"/><path d="M26.9742 42.516l.792-19a5.274 5.274 0 0 1 5.208-5h6"/><path d="M38.9013 18.5159a5.274 5.274 0 0 1 5.208 5l.792 19"/></g></g></svg>