<svg xmlns="http://www.w3.org/2000/svg" role="img" viewBox="8.90 4.90 54.07 57.07"><title>E2CC.svg</title><path fill="#d0cfce" d="M38.889 12.2778a5.2581 5.2581 0 0 1 9.2247-3.4712 4.195 4.195 0 0 1 7.6433 2.4177c.0071 0 .0137-.002.0208-.002a4.2222 4.2222 0 1 1 0 8.4444c-.0686 0-.1323-.017-.2-.02a3.1151 3.1151 0 0 1-1.9479 4.06c.0057.0633.0369.1178.0369.1825a2.1111 2.1111 0 1 1-4.2222 0 2.0851 2.0851 0 0 1 .5476-1.3879 3.1488 3.1488 0 0 1-.4257-.9549 3.1433 3.1433 0 0 1-4.2993-2.4894 4.1985 4.1985 0 0 1-6.0872-5.1241 5.22 5.22 0 0 1-.291-1.6551z"/><path fill="#9b9b9a" d="M11.106 44.03h49.788V60H11.106z"/><path fill="#d0cfce" d="M15.803 48.727h12.212V60H15.803z"/><path fill="#92d3f5" d="M51.5 48.727H32.712v4.697h23.485v-4.697H51.5z"/><path fill="#9b9b9a" d="M54.788 44.03h-5.636L50.091 29h3.757l.94 15.03z"/><path fill="#d0cfce" d="M15.8 37.455l.005 6.575h9.389L15.8 37.455zm9.867 0l.004 6.575h9.39l-9.394-6.575zm9.394 0l.004 6.575h9.39l-9.394-6.575z"/><g fill="none" stroke="#000" stroke-linecap="round" stroke-linejoin="round" stroke-width="2"><path d="M11.106 44.03h49.788V60H11.106z"/><path d="M15.803 48.727h12.212V60H15.803zm0 3.758h12.212m-12.212 3.757h12.212m9.394-2.818h-4.697v-4.697h4.697m4.697 4.697h-4.697m0-4.697h4.697m4.697 4.697h-4.697m0-4.697h4.697m4.697 4.697h-4.697m0-4.697H51.5m0 0h4.697v4.697H51.5m3.288-9.394h-5.636L50.091 29h3.757l.94 15.03zM15.8 37.455l.005 6.575h9.389L15.8 37.455zm9.867 0l.004 6.575h9.39l-9.394-6.575zm9.394 0l.004 6.575h9.39l-9.394-6.575z"/><path d="M38.889 12.2778a5.2581 5.2581 0 0 1 9.2247-3.4712 4.195 4.195 0 0 1 7.6433 2.4177c.0071 0 .0137-.002.0208-.002a4.2222 4.2222 0 1 1 0 8.4444c-.0686 0-.1323-.017-.2-.02a3.1151 3.1151 0 0 1-1.9479 4.06c.0057.0633.0369.1178.0369.1825a2.1111 2.1111 0 1 1-4.2222 0 2.0851 2.0851 0 0 1 .5476-1.3879 3.1488 3.1488 0 0 1-.4257-.9549 3.1433 3.1433 0 0 1-4.2993-2.4894 4.1985 4.1985 0 0 1-6.0872-5.1241 5.22 5.22 0 0 1-.291-1.6551z"/></g></svg>