<svg xmlns="http://www.w3.org/2000/svg" role="img" viewBox="17.21 5.33 42.21 60.71"><title>E2D1.svg</title><g id="color"><path fill="#D0CFCE" d="M36.096,36.3716c-1.4066,0.0714-2.5841-0.8749-3.7267-1.6749L30.28,63.9608h10.8322l-2.19-28.4641 C38.0903,36.0674,37.1049,36.3724,36.096,36.3716z"/><path fill="#92D3F5" d="M32.3667,24.4379c0.0046,0.0633,0.0216,0.1251,0.05,0.1818c0.1174,0.184,0.3019,0.315,0.5144,0.3652 c1.2434-1.0656,2.9447-1.4229,4.5117-0.9476c0.4714-0.5217,0.7544-1.1862,0.8038-1.8876c0.0053-0.6874-0.1017-1.3711-0.3167-2.0241 c-0.7951-3.0258-1.7545-6.006-2.8739-8.9274c-0.3177-0.8908-0.7432-1.7393-1.2669-2.5268 c-0.2908-0.4726-0.7342-0.8317-1.2569-1.018c-0.5444-0.1711-1.1299,0.0976-1.3551,0.6219 c-0.048,0.2033-0.0577,0.4138-0.0286,0.6206C31.5546,14.0766,31.9607,19.2573,32.3667,24.4379z"/><circle cx="35.946" cy="28.946" r="1.353" fill="#D0CFCE"/><path fill="#92D3F5" d="M34.0253 35.1441c.0525-.0356.0975-.0812.1324-.1342.1007-.1937.1218-.419.0591-.6281-1.5445-.544-2.7046-1.8387-3.0765-3.4334-.6875-.1474-1.4045-.0602-2.0366.2477-.598.3391-1.1366.7736-1.5946 1.2863-2.2228 2.2015-4.3241 4.5225-6.2944 6.9526-.6126.7205-1.1347 1.5133-1.5548 2.3606-.2639.4881-.3532 1.0517-.2532 1.5975.124.557.6495.9297 1.2161.8626.2001-.0601.3872-.1569.5518-.2855C25.4583 41.028 29.7418 38.086 34.0253 35.1441zM42.4678 28.3546c-.0571-.0277-.1191-.0439-.1824-.0476-.2181.0097-.4238.104-.5735.2629.3011 1.6096-.2401 3.2616-1.4352 4.381.2161.6691.6501 1.2465 1.2328 1.6399.5927.3483 1.2383.5975 1.9113.7378 3.018.8243 6.0786 1.4836 9.1683 1.9748.9303.1702 1.8779.2261 2.8217.1662.5547-.0155 1.0874-.22 1.5101-.5795.4204-.3859.4804-1.0273.139-1.4845-.1521-.1432-.3295-.2569-.5232-.3351C51.847 32.8319 47.1574 30.5933 42.4678 28.3546z"/></g><g id="line" fill="none" stroke="#000" stroke-linecap="round" stroke-linejoin="round" stroke-width="2"><path d="M33.0155 38.7965L31.08 63.9608h10.0322l-2.19-28.4641M32.3667 24.4379c.0046.0633.0216.1251.05.1818.1174.184.3019.315.5144.3652 1.2434-1.0656 2.9447-1.4229 4.5117-.9476.4714-.5217.7544-1.1862.8038-1.8876.0053-.6874-.1017-1.3711-.3167-2.0241-.7951-3.0258-1.7545-6.006-2.8739-8.9274-.3177-.8908-.7432-1.7393-1.2669-2.5268-.2908-.4726-.7342-.8317-1.2569-1.018-.5444-.1711-1.1299.0976-1.3551.6219-.048.2033-.0577.4138-.0286.6206C31.5546 14.0766 31.9607 19.2573 32.3667 24.4379zM34.0253 35.1441c.0525-.0356.0975-.0812.1324-.1342.1007-.1937.1218-.419.0591-.6281-1.5445-.544-2.7046-1.8387-3.0765-3.4334-.6875-.1474-1.4045-.0602-2.0366.2477-.598.3391-1.1366.7736-1.5946 1.2863-2.2228 2.2015-4.3241 4.5225-6.2944 6.9526-.6126.7205-1.1347 1.5133-1.5548 2.3606-.2639.4881-.3532 1.0517-.2532 1.5975.124.557.6495.9297 1.2161.8626.2001-.0601.3872-.1569.5518-.2855C25.4583 41.028 29.7418 38.086 34.0253 35.1441zM42.4678 28.3546c-.0571-.0277-.1191-.0439-.1824-.0476-.2181.0097-.4238.104-.5735.2629.3011 1.6096-.2401 3.2616-1.4352 4.381.2161.6691.6501 1.2465 1.2328 1.6399.5927.3483 1.2383.5975 1.9113.7378 3.018.8243 6.0786 1.4836 9.1683 1.9748.9303.1702 1.8779.2261 2.8217.1662.5547-.0155 1.0874-.22 1.5101-.5795.4204-.3859.4804-1.0273.139-1.4845-.1521-.1432-.3295-.2569-.5232-.3351C51.847 32.8319 47.1574 30.5933 42.4678 28.3546z"/><circle cx="36.297" cy="29.297" r="1.703"/></g></svg>