<svg xmlns="http://www.w3.org/2000/svg" role="img" viewBox="17.64 10.14 36.60 51.35"><title>E2D2.svg</title><rect width="32.615" height="38.612" x="19.693" y="20.941" fill="#a57939" rx="6.783"/><path fill="#b1cc33" d="M33.4268 38.1266c1.8065-2.92 5.8685-3.6166 5.8685-3.6166s1.1181 3.9957-.6707 6.8386-5.8685 3.6165-5.8685 3.6165-1.1361-3.9186.6707-6.8385z"/><g fill="none" stroke="#000" stroke-width="2"><path d="M33.6447 38.0545c1.8065-2.92 5.8685-3.6166 5.8685-3.6166s1.1182 3.9957-.6706 6.8385-5.8685 3.6166-5.8685 3.6166-1.1359-3.9186.6706-6.8385zM32.1 46.457l.807-1.658" stroke-linecap="round" stroke-linejoin="round"/><g stroke-miterlimit="10"><path stroke-linecap="round" d="M28.1565 25.6632c0-7.4447 3.4165-13.48 7.6309-13.48s7.6308 6.035 7.6308 13.48"/><rect width="32.615" height="38.612" x="19.693" y="20.941" rx="6.783"/></g></g></svg>