<svg xmlns="http://www.w3.org/2000/svg" role="img" viewBox="13.98 9.98 39.91 52.91"><title>E2D6.svg</title><rect width="36" height="49" x="16" y="12" fill="#f4aa41" rx="6"/><circle cx="34" cy="26" r="10" fill="#fff"/><ellipse cx="34" cy="31.5" fill="#d0cfce" rx="8.348" ry="4.5"/><path fill="#e27022" d="M52 55V18a6.0176 6.0176 0 0 0-6-6v49a6.0176 6.0176 0 0 0 6-6z"/><path fill="#f1b31c" d="M32 31h4v25h-4z"/><g stroke="#000" stroke-linecap="round" stroke-linejoin="round"><path d="M24.7536 45.1329a.6288.6288 0 1 1-.3145-.5449.6289.6289 0 0 1 .3145.5449zm-3.1454 0a2.5152 2.5152 0 0 1 1.258-2.18l-1.2584-2.18a5.0306 5.0306 0 0 0-2.516 4.3592zm3.7747 2.1796a2.52 2.52 0 0 1-2.5167 0l-1.2584 2.18a5.0391 5.0391 0 0 0 5.0335 0zm0-4.3592a2.5152 2.5152 0 0 1 1.258 2.18h2.5164a5.0308 5.0308 0 0 0-2.516-4.3592z"/><rect width="36" height="49" x="16" y="12" fill="none" stroke-width="2" rx="6"/><path fill="none" stroke-width="2" d="M42.3475 31.5a9.9923 9.9923 0 0 0-16.695 0M29 23l1.797 4.494M36 35.7991a10 10 0 1 0-4 0m0 14.7556a4 4 0 1 0 4 0"/><rect width="4" height="25" x="32" y="31" fill="none" stroke-width="2" rx="1"/></g></svg>