<svg xmlns="http://www.w3.org/2000/svg" role="img" viewBox="12.25 10.00 47.37 51.87"><title>E307.svg</title><path fill="#92d3f5" stroke-width="1.553" d="M53.87 20.06H18.13l-2.692 4.478a8.59152 8.59152 0 0 0-1.228 4.427v25.94c.00015 2.84 2.302 5.142 5.143 5.142h33.3c2.84 0 5.142-2.302 5.143-5.142v-25.94c0-1.56-.4247-3.09-1.228-4.427z"/><path fill="#d0cfce" stroke-width="1.553" d="M18.16 11.95H53.8v7.917H18.16z"/><path fill="#D22F27" d="M39.04741 49.98053v-7.34569h7.34569v-5.17149h-7.34569v-7.34569h-5.17149v7.34569h-7.34569v5.17149h7.34569v7.34569z"/><path fill="none" stroke="#000" stroke-linecap="round" stroke-linejoin="round" d="M33.87592 30.11766v7.34569h-7.34569v5.17149h7.34569v7.34569h5.17149v-7.34569h7.34569v-5.17149h-7.34569v-7.34569z" stroke-width="1.553"/><g fill="none" stroke="#000" stroke-linecap="round" stroke-linejoin="round" stroke-width="1.766"><path d="M53.9 20.04H18.1l-2.696 4.485c-.805 1.339-1.23 2.872-1.23 4.434v25.98c.00016 2.845 2.306 5.151 5.151 5.151h33.35c2.845 0 5.151-2.306 5.151-5.151v-25.98c0-1.562-.4254-3.095-1.23-4.434zm-35.76-8.13h35.7v7.929h-35.7zm5.92 0v7.93m5.97-7.93v7.93M36 11.91v7.93m5.97-7.93v7.93m5.97-7.93v7.93"/></g></svg>