<svg xmlns="http://www.w3.org/2000/svg" role="img" viewBox="12.28 13.53 43.45 44.07"><title>E316.svg</title><path fill="#D22F27" d="M25.942 31.2662a11.85938 11.85938 0 0 1-3.2992-5.9974c-.4464-2.2508-.2846-4.9334 2.1864-6.5942 0 0 10.4386-7.3873 19.5924 0 0 0 11.081 6.8252 9.3948 24.6511 0 0-.1606 12.2855-12.687 12.4461 0 0-6.1828 1.5256-6.8252-8.5918a21.3125 21.3125 0 0 0-.0055-2.83c-.2494-3.8546-2.0436-7.4455-4.9764-9.9593-1.0276-.8832-2.2367-1.9723-3.3803-3.1245z"/><path fill="#D22F27" d="M25.942 31.2662a11.85938 11.85938 0 0 1-3.2992-5.9974c-.4464-2.2508-.2846-4.9334 2.1864-6.5942 0 0 10.4386-7.3873 19.5924 0 0 0 11.081 6.8252 9.3948 24.6511 0 0-.1606 12.2855-12.687 12.4461 0 0-6.1828 1.5256-6.8252-8.5918a21.3125 21.3125 0 0 0-.0055-2.83c-.2494-3.8546-2.0436-7.4455-4.9764-9.9593-1.0276-.8832-2.2367-1.9723-3.3803-3.1245z"/><g fill="none" stroke="#000" stroke-width="2"><path stroke-miterlimit="10" d="M25.942 31.2662a11.85938 11.85938 0 0 1-3.2992-5.9974c-.4464-2.2508-.2846-4.9334 2.1864-6.5942 0 0 10.4386-7.3873 19.5924 0 0 0 11.081 6.8252 9.3948 24.6511 0 0-.1606 12.2855-12.687 12.4461 0 0-6.1828 1.5256-6.8252-8.5918a21.3125 21.3125 0 0 0-.0055-2.83c-.2494-3.8546-2.0436-7.4455-4.9764-9.9593-1.0276-.8832-2.2367-1.9723-3.3803-3.1245z"/><path stroke-linecap="round" stroke-linejoin="round" d="M34.9867 29.073s-3.9033 1.592-7.2512.4347m12.6713 13.9786s-6.9056-.8029-9.6357-3.8141c0 0-3.3091-3.739-9.8363 0l-6.7782 2.3365"/><path stroke-linecap="round" stroke-linejoin="round" d="M36.7879 33.69c-.4326.3737-.7294.88-.8442 1.44a3.07623 3.07623 0 0 0 .2161 1.9136c.3386.7868.7848 2.5839-.3043 5.44m-21.6989-.4749l6.7782-2.3365s5.6207-2.2483 6.4237-5.701c0 0-.3212-6.0223 2.0877-7.3071"/></g></svg>