<svg xmlns="http://www.w3.org/2000/svg" role="img" viewBox="9.98 2.85 49.42 66.30"><title>E322.svg</title><path fill="#FFF" d="M38.137 39.97a2.61694 2.61694 0 0 0-2.1082-.1756l.0012-.002c-1.7358.219-2.14-2.6337-3.04-3.649-.693-.7657-1.713-1.1496-2.7389-1.0309-1.9186.2874-2.6773 2.6665-2.778 2.9822a5.13067 5.13067 0 0 0-.0093 2.988 4.14734 4.14734 0 0 1-.164 2.7852 32.76388 32.76388 0 0 1-9.5459 12.2061 5.8442 5.8442 0 0 0-3.442.94c-.6667.4385-1.9653 1.2924-2.014 2.7091.0331.8798.4422 1.7031 1.1233 2.261a2.62333 2.62333 0 0 0 2.1135.1747l-.0065.0028c1.7357-.219 2.14 2.6335 3.04 3.6491.6931.7656 1.7131 1.1496 2.739 1.0309 1.9185-.2874 2.6773-2.6666 2.778-2.9823a5.1295 5.1295 0 0 0 .0092-2.9879 3.16558 3.16558 0 0 1 .0058-1.9225l.2113-.0779 4.9385-8.025.1924-.3138a31.70725 31.70725 0 0 1 4.3194-4.6774 5.8952 5.8952 0 0 0 3.4845-.9149c.6666-.4385 1.9653-1.2924 2.0139-2.7092A3.07205 3.07205 0 0 0 38.137 39.97z"/><path fill="none" stroke="#FFA7C0" stroke-linecap="round" stroke-miterlimit="10" stroke-width="3" d="M31.609 33.708l1.859.857 2.4 3.044 1.045.585 1.826.371"/><path fill="#D0CFCE" d="M18.0231 64.4784c-.5407.8567 1.2488 3.7588 4.8863 1.6168.806-.4746 1.0569-2.2655 1.5914-3.3343.2748-.55-.766-3.1452-.4808-3.7338a45.49888 45.49888 0 0 1 9.7419-13.0337 5.89406 5.89406 0 0 0 3.4844-.915c.6667-.4384 1.9653-1.2923 2.014-2.7091a3.07222 3.07222 0 0 0-1.1233-2.2609c-1.1846-1.0667-2.21-.5683-2.3036-.3953 0 0 .6448 1.2469-1.0633 3.0234-4.051 4.2127-10.8381 12.978-14.1268 19.6835-1.4962 3.0505-2.6202 2.0584-2.6202 2.0584z"/><path fill="#FFF" d="M56.0771 9.8777a2.61736 2.61736 0 0 0-2.1082-.1757L53.97 9.7c-1.7358.219-2.14-2.6337-3.04-3.6491-.6931-.7657-1.7132-1.1497-2.7392-1.0309-1.9186.2873-2.6773 2.6665-2.778 2.9822a5.13034 5.13034 0 0 0-.0093 2.9879 4.14734 4.14734 0 0 1-.164 2.7852 32.76348 32.76348 0 0 1-9.5455 12.2066 5.8442 5.8442 0 0 0-3.442.94c-.6667.4385-1.9653 1.2925-2.014 2.7092a3.0717 3.0717 0 0 0 1.1233 2.2609 2.62333 2.62333 0 0 0 2.1135.1747l-.0065.0029c1.7357-.219 2.1395 2.6334 3.04 3.649.693.7657 1.7131 1.1496 2.739 1.0309 1.9185-.2874 2.6773-2.6665 2.778-2.9822.2995-.973.3027-2.0132.0092-2.988a3.166 3.166 0 0 1 .0057-1.9224l.2114-.0779 4.9384-8.0251.1924-.3137a31.70725 31.70725 0 0 1 4.3194-4.6774 5.89406 5.89406 0 0 0 3.4844-.915c.6667-.4384 1.9654-1.2924 2.014-2.7091-.0331-.8798-.442-1.7031-1.1231-2.261z"/><path fill="#D0CFCE" d="M35.9632 34.3864c-.5407.8567 1.2488 3.7587 4.8863 1.6168.806-.4747 1.0569-2.2655 1.5914-3.3343.2748-.55-.766-3.1453-.4808-3.7338a45.49932 45.49932 0 0 1 9.7419-13.0338 5.89326 5.89326 0 0 0 3.4844-.9149c.6667-.4384 1.9653-1.2924 2.014-2.7091a3.07243 3.07243 0 0 0-1.1233-2.261c-1.1846-1.0666-2.21-.5683-2.3036-.3952 0 0 .6448 1.2469-1.0633 3.0233-4.051 4.2127-10.8381 12.978-14.1268 19.6834-1.4962 3.0507-2.6202 2.0586-2.6202 2.0586z"/><g fill="none" stroke="#000" stroke-linecap="round" stroke-linejoin="round" stroke-width="2"><path d="M50.2264 10.0821c.6267 1.0969 4.6661-1.1327 5.8507-.0661.681.558 1.0898 1.3813 1.1229 2.2611-.0489 1.4169-1.3473 2.2707-2.014 2.7091a5.89406 5.89406 0 0 1-3.4844.915c-4.1585 3.5428-7.9978 9.8859-9.45 12.52a3.37124 3.37124 0 0 0-.2171 2.4966c.2935.9748.2903 2.015-.0092 2.988-.1007.3158-.8595 2.695-2.778 2.9822-1.0259.1187-2.0459-.2652-2.7389-1.0309-.9009-1.0156-1.3047-3.8681-3.04-3.6491"/><path d="M37.2119 31.9643c-.6267-1.0969-4.6661 1.1327-5.8507.066-.6811-.5579-1.0902-1.3812-1.1233-2.261.0489-1.4169 1.3473-2.2707 2.014-2.7091a5.84255 5.84255 0 0 1 3.442-.94A32.76423 32.76423 0 0 0 45.24 13.9136a4.148 4.148 0 0 0 .164-2.7848 5.13034 5.13034 0 0 1 .0093-2.9879c.1007-.3158.8594-2.6951 2.778-2.9823 1.0259-.1184 2.0458.2657 2.7387 1.0314.9008 1.0156 1.3046 3.8681 3.04 3.6491"/><path d="M32.2863 40.1741c.6267 1.0969 4.6661-1.1327 5.8507-.066a3.0725 3.0725 0 0 1 1.123 2.2611c-.0489 1.4168-1.3473 2.2706-2.014 2.7091a5.89398 5.89398 0 0 1-3.4844.9149c-4.1585 3.5429-7.9978 9.886-9.45 12.52a3.3715 3.3715 0 0 0-.2171 2.4967 5.1295 5.1295 0 0 1-.0092 2.9879c-.1007.3158-.86 2.695-2.778 2.9822-1.0258.1187-2.0459-.2652-2.7389-1.0308-.9009-1.0156-1.3047-3.8681-3.04-3.6492"/><path d="M19.2719 62.0564c-.6268-1.097-4.6662 1.1326-5.8508.066-.6811-.5579-1.0901-1.3813-1.1233-2.2611.0489-1.4168 1.3473-2.2707 2.014-2.7091a5.8442 5.8442 0 0 1 3.442-.94 32.76508 32.76508 0 0 0 9.5456-12.2067 4.1474 4.1474 0 0 0 .164-2.7848 5.13067 5.13067 0 0 1 .0093-2.988c.1007-.3158.86-2.695 2.778-2.9822 1.026-.1188 2.0463.2652 2.7393 1.0311.9008 1.0156 1.3046 3.8681 3.04 3.6491"/><path d="M28.005 26.658l-2.944-3.4 2.771-1.027-3.699-4.271m.388 17.106l-4.494.179 1.147 2.724-5.646.225m10.133-7.641l-3.855-2.316-.536 2.906-4.843-2.91"/></g><g fill="none" stroke="#D22F27" stroke-linecap="round" stroke-linejoin="round" stroke-width="2"><path d="M28.005 26.658l-2.944-3.4 2.771-1.027-3.699-4.271m.388 17.106l-4.494.179 1.147 2.724-5.646.225m10.133-7.641l-3.855-2.316-.536 2.906-4.843-2.91"/></g></svg>