<svg xmlns="http://www.w3.org/2000/svg" role="img" viewBox="21.28 20.53 29.31 30.81"><title>E325.svg</title><path fill="#3f3f3f" d="M23.7877 41.921s8.3575-1.6821 8.7626-1.7962c.9567-.27 1.102.5416 1.102.5416-.0516.5042-.7612.8425-1.2887 1.11l-3.9512 2.0019a6.5473 6.5473 0 0 1-1.6965.58 8.1655 8.1655 0 0 1-3.1978.1985c-.967-.3777-.8106-2.2945.2696-2.6358z"/><path fill="#9b9b9a" d="M24.2836 47.1122s8.3412-6.635 8.4676-7.0773.78-3.5549 1.7646-4.3054c.9107-.6942 2.2162-.5281 2.9824.9378s.09 4.73-.6357 5.8347-9.6907 6.6726-10.3866 7.082-3.3612.3372-2.1923-2.4718z"/><g fill="none" stroke="#000" stroke-linecap="round" stroke-linejoin="round" stroke-width="2"><path d="M28.4384 43.7691c-.0087 0-.0175.0088-.0263.0088a6.3265 6.3265 0 0 1-1.6928.5789 8.3128 8.3128 0 0 1-3.2015.2017c-.9648-.3771-.8069-2.298.2719-2.64 0 0 8.359-1.6753 8.7624-1.7893a1.442 1.442 0 0 1 .1667-.0351"/><ellipse cx="34.83" cy="25.958" rx="3.748" ry="3.807"/><ellipse cx="45.362" cy="33.794" rx="3.748" ry="3.807"/><path d="M37.367 28.823l-1.964 6.526m6.569-3.175l-4.175 5.613m-13.5134 9.3252s8.3412-6.635 8.4676-7.0773.78-3.5549 1.7646-4.3054c.9107-.6942 2.2162-.5281 2.9824.9378s.09 4.73-.6357 5.8347-9.6907 6.6726-10.3866 7.082-3.3612.3372-2.1923-2.4718z"/></g></svg>