<svg xmlns="http://www.w3.org/2000/svg" role="img" viewBox="8.03 12.41 50.44 45.69"><title>E329.svg</title><path fill="#92d3f5" d="M11.7973 32.1459h12.9681a1.6942 1.6942 0 0 1 1.2068.502 14.3889 14.3889 0 0 1 2.5537 3.0972l.0151.0527a1.6913 1.6913 0 0 1-1.6555 2.1059l-15.0669-.008a1.7012 1.7012 0 0 1-1.7-1.6852l-.0222-2.3473a1.7012 1.7012 0 0 1 1.7009-1.7173z"/><path fill="none" stroke="#000" stroke-linecap="round" stroke-linejoin="round" stroke-width="2" d="M16.9855 42.7615a20.43 20.43 0 0 0 39.6005-7.4838 20.4308 20.4308 0 0 0-39.6845-7.2572s8.7984.2756 8.8872.1679c3.721-4.5128 6.0234-5.59 10.3188-5.59a12.6819 12.6819 0 0 1 0 25.3593 12.3643 12.3643 0 0 1-10.1984-5.412m-8.5771-.1337l7.241.044"/><path stroke="#000" stroke-linecap="round" stroke-linejoin="round" stroke-width="2" d="M10.186 40.904l26.07.0783a3.232 3.232 0 0 1-2.0356 1.4092c-1.2526.1566-24.0687.036-24.0687.036z"/><path fill="none" stroke="#000" stroke-miterlimit="10" stroke-width="2" d="M11.7973 32.1459h12.9681a1.6942 1.6942 0 0 1 1.2068.502 14.3889 14.3889 0 0 1 2.5537 3.0972l.0151.0527a1.6913 1.6913 0 0 1-1.6555 2.1059l-15.0669-.008a1.7012 1.7012 0 0 1-1.7-1.6852l-.0222-2.3473a1.7012 1.7012 0 0 1 1.7009-1.7173z"/><ellipse cx="32.8" cy="34.819" rx="3.217" ry="3.199"/></svg>