<svg xmlns="http://www.w3.org/2000/svg" role="img" viewBox="5.71 5.71 60.45 56.33"><title>E343.svg</title><path fill="#b1cc33" d="M34.04 34.84H54.7a1.833 1.833 0 0 1 1.833 1.833v6.16a1.833 1.833 0 0 1-1.833 1.833H35.23a1.833 1.833 0 0 1-1.833-1.833v-7.342a.6513.6513 0 0 1 .6513-.6513z"/><path fill="#5c9e31" stroke-width=".658" d="M35.8908 49.7896v5.244h18.8176l-.0152-2.6144 1.8544-2.6448-1.8392.0152h-3.2528v-5.1224H38.9764v5.1224z"/><circle cx="29.62" cy="52.29" r="7.618" fill="#d0cfce"/><circle cx="59.08" cy="54.85" r="5.063" fill="#d0cfce"/><g><path fill="none" stroke="#000" stroke-linecap="round" stroke-linejoin="round" stroke-width="2" d="M7.95 7.957s19.41 5.496 25.24 26.36m-.03.103h21.05a1.868 1.872 0 0 1 1.868 1.872v6.288a1.868 1.872 0 0 1-1.868 1.872H34.37a1.868 1.872 0 0 1-1.868-1.872v-7.494a.6638.6649 0 0 1 .6638-.6649zm20.16 20.61H35.89"/><path fill="none" stroke="#000" stroke-linecap="round" stroke-linejoin="round" stroke-width="1.29" d="M33.64 49.24h1.42v-3.37h8.22v3.37h2.14l1.35-.01v.09" transform="matrix(1.549 0 0 1.552 -16.13 -26.71)"/><ellipse cx="28.65" cy="52.23" fill="none" stroke="#000" stroke-linecap="round" stroke-linejoin="round" stroke-width="2" rx="7.764" ry="7.776"/><ellipse cx="58.68" cy="54.63" fill="none" stroke="#000" stroke-linecap="round" stroke-linejoin="round" stroke-width="2" rx="5.37" ry="5.379"/><rect width="6.725" height="3.728" x="45.58" y="30.7" rx="1.201" ry="1.201"/></g></svg>