<svg xmlns="http://www.w3.org/2000/svg" role="img" viewBox="5.71 18.34 60.45 43.83"><title>E344.svg</title><path fill="#5c9e31" stroke-width=".693" d="M21.06456 27.77736l1.67504.38988.04332 10.85888 23.85488 11.1188 17.94892-17.06808-43.52216-7.23444z"/><g fill="none" stroke="#000" stroke-linecap="round" stroke-linejoin="round" stroke-width="2"><path d="M7.95 20.5l9.409 4.316 1.505 12.74 35.49 17.15"/><path d="M19.99 38.31s-.6416 14.85-.1209 16.16c.4215 1.06 4.497 2.403 5.832.8481 1.466-1.708 4.697-12.84 4.697-12.84M59.66 54.71a5.302 5.392 0 0 1-5.302 5.392 5.302 5.392 0 0 1-5.302-5.392 5.302 5.392 0 0 1 5.302-5.392 5.302 5.392 0 0 1 5.302 5.392"/><path d="M64.05 33.49l-42.22-7.064v1.892l1.628.379.03923 10.6 23.14 10.85z"/></g></svg>