<svg xmlns="http://www.w3.org/2000/svg" role="img" viewBox="5.84 6.34 60.32 59.20"><title>E347.svg</title><path fill="#9b9b9a" d="M7.95 17.47l18.13-4.237s.2172 2.51.5415 4.237a19.1957 19.1957 0 0 0 3.561 6.474c.7553.5395-7.482 11.88-10.24 12.42-4.921.9542-13.4-18.33-11.99-18.89z"/><path fill="#a57939" d="M36.41 23.25c-1.189.7925-2.352.923-1.771 2.228a7.128 7.128 0 0 1 .4344 1.297c.5011 2.172 1.503 3.675 5.345 5.847 3.412 1.929 10.38 15.58 11.9 18.61a2.94 2.94 0 0 1 .3103 1.257l.1299 5.842a2.963 2.963 0 0 0 .6625 1.803l1.863 2.293a2.963 2.963 0 0 0 4.132.4596l3.502-2.757a2.963 2.963 0 0 0 .7033-3.86l-21.27-35.2c-.873-1.445-.81-1.416-2.215-.4796z"/><rect width="13.63" height="13.53" x="14.18" y="24.84" fill="#d0cfce" rx="2.359" ry="2.359" transform="rotate(-30)"/><g><g fill="none" stroke="#000" stroke-linecap="round" stroke-linejoin="round" stroke-width="2"><path d="M34.66 24.76c-.04016.2039-.0022.4507.1384.7666.1851.4156.3298.848.4321 1.291.4985 2.162 1.495 3.658 5.317 5.819 3.394 1.919 10.32 15.51 11.83 18.53.1945.3888.2999.8161.3086 1.251l.1292 5.814c.01454.6546.2464 1.286.659 1.794l1.853 2.283c1.015 1.25 2.845 1.454 4.11.4574l3.483-2.744c1.169-.9207 1.468-2.568.6995-3.842l-21.14-34.74c-.3143-.5205-.5248-.8075-.7317-.9177"/><rect width="13.56" height="13.46" x="14.32" y="25.04" rx="2.359" ry="2.359" transform="rotate(-30.014) skewX(-.028)"/><path d="M31.02 24.98l-9.465 11.24c-3.463 4.049-17.14-17.64-12.65-19.27l17.34-3.026"/></g></g></svg>