<svg xmlns="http://www.w3.org/2000/svg" role="img" viewBox="7.34 5.71 55.70 60.45"><title>E348.svg</title><path fill="#d0cfce" stroke-width=".691" d="M36.61834 53.88826l.69227-4.59927-4.69085-.16958 1.82347-3.65417-5.03234.00673 1.89239-4.34894-4.17117.00994 2.29291-3.74521-4.31144.49528 2.28334-4.37129-4.1327-.14102 1.69808-4.16284-4.3209.42358 1.97498-4.60784-4.74576.74218 2.57693-4.46834-5.02911 1.02754 2.42707-4.60906-5.15528.40224 2.27579-4.42864-3.89439-.98942 6.17027-4.76685 32.36544 31.71108-4.1007 8.40396-8.34893 6.27947"/><path fill="#a57939" d="M37.66 55.14l8.843-6.969 10.24-.8285 3.836 3.993c.8094.7795.0027 2.209-.9022 2.875l-12.89 9.488c-.7695.5664-1.849.4259-2.447-.3186l-6.676-8.24"/><g stroke="#000" stroke-linecap="round" stroke-linejoin="round" stroke-width="2"><path fill="none" d="M37.66 55.14l.1448-5.113-4.704-.174 2.129-4.509-5.047.01558 2.164-4.039-4.638.2295 2.033-4.019-4.323.4922 1.982-4.506-4.735.2672 2.296-4.566-4.853.6287 2.171-4.636-4.748.6693 2.442-4.36-4.543.8141 2.332-4.353-5.063.1439 2.273-4.419-5.385-.05985 7.644-5.701 32.42 31.72 7.138 7.683"/><path fill="none" d="M37.66 55.14l8.158-6.568 10.97-1.225 3.843 3.993c.8109.7796.0028 2.209-.9039 2.875l-12.91 9.489c-.7709.5664-1.852.4259-2.452-.3187l-5.554-6.892z"/><path stroke-miterlimit="10" d="M49.62 39.67l-3.798 8.911 10.92-1.229s-3.572-4.236-7.124-7.682zm1.288 8.282c-2.51.2806-4.118-2.596-2.561-4.581 1.557-1.985 4.75-1.119 5.07 1.382.2015 1.574-.931 3.007-2.509 3.199z"/></g></svg>