<svg xmlns="http://www.w3.org/2000/svg" role="img" viewBox="2.59 13.84 66.69 52.94"><title>E0A8.svg</title><path fill="#fff" d="M24.087 21.569h23.24v33.98h-23.24z"/><path fill="#9b9b9a" d="M24.454 54.906L4.026 56.153V16H68v39.991L48.304 56l.016-34.788-23.854.093-.009 31.944"/><path fill="#fcea2b" d="M27 43.2891l-1.822 2.7563-5.1772 2.5087c-.5657.2224-.8639.8437-.6836 1.4242.1565.5359.7178.8434 1.2537.6869a.9238.9238 0 0 0 .0563-.0183l4.9342-1.5127a4.39176 4.39176 0 0 0 1.7886-1.1381l4.18-4.2311-4.53-.4759z"/><g><path fill="#fcea2b" d="M34.483 37.9341v1.81l3.4021 4.19c.3618.6846.5725 1.4388.618 2.2117l.3316 7.4825c.07 1.4557-.6738 2.2238-1.4194 2.2238-.7931 0-1.4067-.746-1.54-2.1518l-.861-7.08-5.6549-4.8191a2.63012 2.63012 0 0 1-.91-1.9343c.0275-.745.2426-1.4709.6254-2.1106l2.6929-4.8621c.9328-1.8657 1.8444-2.5281 3.0759-2.5281 1.2257.0148 2.2072 1.0205 2.1924 2.2461 0 .0056-.0002.0111-.0003.0167l-2.5527 5.3052z"/><circle cx="39.109" cy="27.212" r="2.67" fill="#fcea2b"/><path fill="#f1b31c" d="M19.3172 49.9783c.1565.5359.7178.8434 1.2537.6869a.9238.9238 0 0 0 .0563-.0183l4.9342-1.5127a4.39176 4.39176 0 0 0 1.7886-1.1381l4.18-4.2311-4.1685-.4759-1.3723 2.679c-.464.485-1.0473.8393-1.6915 1.0276l-3.0317 1.3979-1.9488 1.5847zm22.0871-24.5315s-3.52 1.2239-3.9621 3.8354c0 0-2.2915-1.9976.2927-4.3527s3.6694.5173 3.6694.5173z"/><path fill="#f1b31c" d="M36.439 45.4894a73.87847 73.87847 0 0 0-5.7863-5.3479c.9951-3.4333 5.2275-9.2054 5.2275-9.2054l-2.236-.57-2.0188 2.7839-3.0813 7.7433.9524.4688-.1374.4389 5.9175 4.8324.7366 8.9092h1.5613c0-.1596-.4199-9.032-1.1355-10.0532z"/><path fill="#9b9b9a" d="M36.0638 56l-10.8416 8.7719c-.1807.1463-.2086.4114-.0623.5921a.4208.4208 0 0 0 .3365.156l1.5828-.0352c.4692-.0106.921-.1798 1.2817-.48l10.8434-9.0225L36.0638 56z"/></g><g fill="none" stroke="#000" stroke-linecap="round" stroke-linejoin="round"><path stroke-width="2" d="M48.304 56V21.078H23.456v8.09M4.951 55.814h14.603l3.902.038v-2.581m43.593-37.085H4.951m40.502 40.428h21.596"/><path stroke-width="1.635" d="M42.728 38.041h-4.332l-3.799-4.36m-.2016-3.2666s-4.73 1.1064-5.7956 1.8694c-1.3608.9745-4.6392 5.8563-4.6392 5.8563"/><g stroke-width="1.635"><path d="M19.4124 49.9783c.1565.5359.7178.8434 1.2537.6869a.9238.9238 0 0 0 .0563-.0183l4.9341-1.5127a4.39142 4.39142 0 0 0 1.7885-1.1381l4.18-4.2311"/><path d="M27.0954 43.2891l-1.8222 2.7563-5.1772 2.5087c-.5657.2224-.8639.8437-.6836 1.4242"/></g><path stroke-width="1.635" d="M34.5782 37.9341v1.81l3.4021 4.19c.3617.6846.5725 1.4388.618 2.2117l.3316 7.4825c.07 1.4557-.6739 2.2238-1.4194 2.2238-.7932 0-1.4068-.746-1.54-2.1518l-.861-7.08-5.6548-4.8191a2.63012 2.63012 0 0 1-.91-1.9343c.0275-.745.2426-1.4709.6254-2.1106l2.6929-4.8621c.9328-1.8657 1.8444-2.5281 3.0759-2.5281 1.2256.0154 2.2067 1.0215 2.1914 2.2471 0 .0053-.0002.0105-.0003.0158m-.5958-5.4173c0-1.4746 1.1954-2.67 2.67-2.67s2.67 1.1954 2.67 2.67-1.1954 2.67-2.67 2.67"/></g></svg>