<svg xmlns="http://www.w3.org/2000/svg" role="img" viewBox="10.52 10.65 50.83 50.58"><title>E043.svg</title><path fill="#FFF" d="M46.7845 12.6136h-21.569c-6.9598 0-12.6019 5.6421-12.6019 12.6019v21.5689c0 6.9598 5.6421 12.6019 12.6019 12.6019h21.5689c6.9598 0 12.6019-5.6421 12.6019-12.6019V25.2155c.0001-6.9598-5.642-12.6019-12.6018-12.6019z"/><path fill="none" stroke="#000" stroke-miterlimit="10" stroke-width="2" d="M46.7845 12.6136h-21.569c-6.9598 0-12.6019 5.6421-12.6019 12.6019v21.5689c0 6.9598 5.6421 12.6019 12.6019 12.6019h21.5689c6.9598 0 12.6019-5.6421 12.6019-12.6019V25.2155c.0001-6.9598-5.642-12.6019-12.6018-12.6019z"/><circle cx="36" cy="36" r="11.29" fill="none" stroke="#000" stroke-miterlimit="10" stroke-width="2"/><circle cx="49.709" cy="22.291" r="2.419"/></svg>