<svg xmlns="http://www.w3.org/2000/svg" role="img" viewBox="13.65 20.03 44.07 31.82"><title>E30A.svg</title><path fill="#EA5A47" d="M15.5 21.903h7.29v3.894H15.5z"/><path fill="#FCEA2B" d="M25.107 21.903h7.29v3.894h-7.29z"/><path fill="#B1CC33" d="M34.714 21.903h7.29v3.894h-7.29z"/><path fill="#D0CFCE" d="M15.5 25.797H56v24.3H15.5z"/><path fill="none" d="M16.4008 21.903h5.4885c.4975 0 .9008.4033.9008.9008v2.9932H15.5v-2.9932c0-.4975.4033-.9008.9008-.9008zm9.6069 0h5.4885c.4975 0 .9008.4033.9008.9008v2.9932h-7.29v-2.9932c0-.4975.4032-.9007.9007-.9008zm9.607 0h5.4885c.4975 0 .9008.4033.9008.9008v2.9932h-7.29v-2.9932c0-.4975.4032-.9007.9007-.9008zM15.5 25.797H56v24.3H15.5z"/><path fill="#D22F27" d="M30.656 39.273h3.768v3.768h2.652v-3.768h3.768v-2.652h-3.768v-3.767h-2.652v3.767h-3.768z"/><g><path fill="none" stroke="#000" stroke-linecap="round" stroke-linejoin="round" stroke-width="2" d="M16.4008 21.903h5.4885c.4975 0 .9008.4033.9008.9008v2.9932h0H15.5h0v-2.9932c0-.4975.4033-.9008.9008-.9008zm9.6069 0h5.4885c.4975 0 .9008.4033.9008.9008v2.9932h0-7.29 0v-2.9932c0-.4975.4032-.9007.9007-.9008zm9.607 0h5.4885c.4975 0 .9008.4033.9008.9008v2.9932h0-7.29 0v-2.9932c0-.4975.4032-.9007.9007-.9008zM15.5 25.797H56v24.3H15.5z"/><path d="M37.0761 32.8534v3.7674h3.7674v2.6523h-3.7674v3.7675h-2.6522v-3.7675h-3.7674v-2.6523h3.7674v-3.7674h2.6522m0-2h-2.6522c-1.1046 0-2 .8954-2 2v1.7674h-1.7674c-1.1046 0-2 .8954-2 2v2.6523c0 1.1046.8954 2 2 2h1.7674v1.7675c0 1.1046.8954 2 2 2h2.6522c1.1046 0 2-.8954 2-2v-1.7675h1.7674c1.1046 0 2-.8954 2-2v-2.6523c0-1.1046-.8954-2-2-2h-1.7674v-1.7674c0-1.1046-.8954-2-2-2z"/></g></svg>