<svg xmlns="http://www.w3.org/2000/svg" role="img" viewBox="7.30 4.93 57.27 62.14"><title>1F94B.svg</title><path fill="#D0CFCE" d="M62.48 46.02c-.74-.16-1.45-.22-2.13-.22-3.8199 0-6.58 2.09-6.58 2.09l-6.06-19.68-.51 19.24 4.66 15.96s-2.19.85-3.86 1.21l-.01-.14c-4.28 1.03-12.01 2.11-22.63.4v-2.92s-2.73.85-4.52-1.15l3.98-13.65-.51-19.24-6.06 19.68v-.03s-2.76-2.09-6.58-2.09c-.68 0-1.38.06-2.12.22l7.11-23.02s1.56-5.47 3.44-7.19c1.87-1.72 8.1801-2.46 8.1801-2.46l2.1-5.37c.12-.3.47-.55 1.22-.55h9.01c.76 0 1.1.24 1.22.55l2.11 5.37s6.11 1.04 7.98 2.76c1.88 1.71 3.44 7.18 3.44 7.18L62.48 46.02z"/><path fill="#9B9B9A" d="M30.921 7.875h10.662L36 16.958z"/><path fill="#3F3F3F" d="M25.25 42.25h21.951v3.688H25.25z"/><path fill="#3F3F3F" d="M33.7748 22.0446l-5.0167-8.8259 1.9294-4.3596 5.5648 8.6206 5.3311-8.6206 1.5417 3.5575v1.3958C36.0625 23 31.1678 42.4148 31.1678 42.4148l-4.2859-.2612s2.9838-12.2832 6.8929-20.109z"/><g fill="none" stroke="#000" stroke-linecap="round" stroke-linejoin="round" stroke-miterlimit="10" stroke-width="2"><path d="M28.2667 12.9217s-6.3025.7358-8.1775 2.4233-3.4375 7.0625-3.4375 7.0625L9.5276 45.0492l-.0009.0041.0009-.0303-.0009.0041c4.875-1.0208 8.7083 1.8333 8.7083 1.8333v.0262l6.0634-19.3333.5143 18.9039-4.156 13.9804c1.7944 1.9678 4.6915 1.352 4.6915 1.352v2.2188c10.6269 1.6752 18.3598.6209 22.6412-.3947m-4.0595-50.692s6.1059 1.0241 7.9809 2.7116 3.4375 7.0625 3.4375 7.0625l7.1241 22.6418.0009.0041c-4.875-1.0208-8.7083 1.8333-8.7083 1.8333l-6.0634-19.3333-.5143 18.9039 4.6611 15.6794"/><path d="M36.0952 17.5229c-2.6908-4.8889-4.9342-7.8331-5.4623-8.6188 0 0-1.1458-1.7917.9583-1.7917H40.5983c2.1042 0 .9583 1.7917.9583 1.7917-1.1477 1.7075-10.3965 13.609-14.7321 33.5106"/><path d="M30.9212 42.692c4.1212-17.8053 11.9731-28.1405 13.0087-29.7703l-2.1148-5.2704m-8.0403 14.3935c-2.6766-5.2005-4.9797-8.2986-5.5081-9.1302m.0003.0074l2.114-5.271m16.9313 34.5026c-9.8928.9136-17.8024.7124-22.6167.0011m22.5049 4.103c-9.7712.8963-17.5847.7032-22.393.0074"/></g></svg>