<svg xmlns="http://www.w3.org/2000/svg" role="img" viewBox="10.01 10.01 51.74 50.74"><title>1F4BC.svg</title><path fill="#fcea2b" d="M41.846 36.354l-8.54-.037h-1.993v2.958l.009 3.093 7.705.034h2.819v-6.048z"/><path fill="#6a462f" d="M31.4162 41.6188l-.3429-3.7443c-.0066-.058-.0547-.1023-.113-.1044 0 0-18.948-1.9874-18.9454-1.8667l.259 7.6637 17.8099-1.608c.019 0 .0334.7369.0507.7291.14-.0634.9309-.6263 1.2009-.6934.0551-.0137.0872-.3197.0808-.3761zm25.7075-2.9545H42.2012v3.4808c0 .0911.512.1733.4892.2571l17.1333-.1903.253-6.0799c-.2349 1.9835-2.213 1.9629-2.953 2.5323z"/><path fill="#a57939" d="M12.2584 36.8135s-.2216 1.9088 3.7599 1.8508c2.983-.0435 14.8516 0 14.8516 0l1.0237-1.8983 9.3992-.0793 1.3976 1.6962s11.9705.5109 14.4333.2814c3.2389-.3018 3-3.8906 3-3.9999V19.9209H12.2584v16.8926zm30.4838 4.8398H12.7828l.0006.0206c.5383.0165-.525 1.3157-.525 1.858l.4953 15.3184h46.9289V42.6877c0-.4933-.387-.8842.0825-.9664l-.2483-.068H42.7422z"/><g fill="none" stroke="#000" stroke-linecap="round" stroke-linejoin="round" stroke-width="2"><path d="M31.456 15.891v-3.839h10.325v3.839m17.652 26.797V58.85H12.504V42.668m29.4472-4.0037h14.9225c1.6569 0 3-1.3431 3-3V19.9209H12.0084v15.7434c0 1.6569 1.3431 3 3 3h15.6115"/><path d="M31.167 36.317h10.325v5.828H31.167z"/></g></svg>