<svg xmlns="http://www.w3.org/2000/svg" role="img" viewBox="3.65 4.15 63.57 63.07"><title>1F3AB.svg</title><path fill="#FCEA2B" d="M48.7127 23.515c-3.4279-3.5522-4.0284-8.7836-1.8682-12.9334l-3.6009-3.7315L6.8857 41.9362l3.8016 3.9394c4.0722-1.5735 8.8681-.6711 12.09 2.6676 3.2219 3.3387 3.9531 8.1636 2.2356 12.1773l3.8016 3.9394 36.3579-35.0861-3.6009-3.7315c-4.2242 2.0111-9.4309 1.2248-12.8588-2.3273z"/><path fill="none" stroke="#000" stroke-miterlimit="10" stroke-width="2" d="M48.1546 23.505c-3.4279-3.5522-4.0284-8.7836-1.8682-12.9334l-3.6009-3.7315L6.3276 41.9262l3.8016 3.9394c4.0722-1.5735 8.8681-.6711 12.09 2.6676s3.9531 8.1636 2.2356 12.1773l3.8016 3.9394 36.3579-35.0861-3.6009-3.7315c-4.2242 2.0111-9.4309 1.2249-12.8588-2.3273z"/><circle cx="37.122" cy="22.122" r="2" transform="rotate(-44.781 37.124 22.123)"/><circle cx="43.612" cy="28.661" r="2" transform="rotate(-44.781 43.614 28.661)"/><circle cx="50.101" cy="35.199" r="2" transform="rotate(-44.781 50.104 35.2)"/></svg>