<svg xmlns="http://www.w3.org/2000/svg" role="img" viewBox="5.97 14.84 60.06 42.06"><title>1F9BE.svg</title><path fill="#d0cfce" d="M19.07554 42.5276l2.63697 5.11806-.14133 5.14664-3.54757 1.79392-9.45672-.87696.31864-9.39696 5.51426-1.84978 1.425-5.95462 2.17323-1.04699zm29.05863 11.06748l-5.31291-.28578v-6.04035l3.62421-2.41614 4.83228 4.83228z"/><path fill="#d0cfce" d="M43.35619 52.75876l-2.41614 2.41614h-15.7179l-2.41614-2.41614v-6.04035l2.41614-2.41614h15.7179l2.41614 2.41614z"/><path fill="#d0cfce" d="M49.70596 21.01616l6.6249-4.40361 7.71606 3.31245v6.61191l-9.92436 22.04403-3.31245 1.10415-4.40361-4.40361 1.10415-12.13266z"/><path fill="#9b9b9a" stroke-width="2" d="M59.84 19.09s1.206 8.559-9.042 29.17c.1585 1.189 4.087 1.766 9.719-12.93 0 0 8.38-14.96-.6761-16.24"/><path fill="#9b9b9a" d="M49.48513 47.28194l-4.39712 5.61428h4.53351z"/><g fill="none" stroke="#000"><path stroke-linecap="round" stroke-linejoin="round" stroke-width="2" d="M44.04 46.24l.6839-.4559a2.55 2.55 0 0 1 3.218.3187l1.65 1.65a2.55 2.55 0 0 1 .1854 3.399l-.8328 1.038a2.55 2.55 0 0 1-2.126.95l-1.501-.08121a2.55 2.55 0 0 1-2.412-2.546v-2.151a2.55 2.55 0 0 1 1.135-2.122z"/><path stroke-miterlimit="10" stroke-width="2" d="M23.59 46.21l.7924-.7046a2.55 2.55 0 0 1 1.694-.6445h13.48a2.55 2.55 0 0 1 1.695.6445l.7923.7046a2.55 2.55 0 0 1 .8555 1.905V51.1a2.55 2.55 0 0 1-.8555 1.905l-.7923.7046a2.55 2.55 0 0 1-1.695.6445h-13.48a2.55 2.55 0 0 1-1.694-.6445l-.7924-.7046a2.55 2.55 0 0 1-.8554-1.905v-2.985a2.55 2.55 0 0 1 .8551-1.905zm26.27 1.85l-2.37-2.37a2.55 2.55 0 0 1-.7364-2.034l.9638-10.6q.01032-.1132.03073-.2253l1.951-10.73a2.55 2.55 0 0 1 1.094-1.665l4.443-2.962a2.55 2.55 0 0 1 2.419-.2221l4.76 2.04a2.55 2.55 0 0 1 1.546 2.344v4.265a2.55 2.55 0 0 1-.2246 1.046l-9.057 20.13a2.55 2.55 0 0 1-1.519 1.373l-.6913.2304a2.55 2.55 0 0 1-2.609-.6159z"/><path stroke-linecap="round" stroke-linejoin="round" stroke-width="2.000475" d="M11.6565 50.89325H9.693m1.69575-3.55725l-1.59375.1275m7.96875 7.30575a2.5486 2.5486 0 0 0 1.38592-.40991l3.11993-2.02215v-4.50075l-2.07698-4.03793a2.55193 2.55193 0 0 1-.25589-.7998l-.92578-6.37246c-.3417-1.1392-2.51685-1.24427-3.19005-.1173a17.16072 17.16072 0 0 0-.4372 4.49183c.04853 1.377-.9848 2.55127-2.3562 2.68005l-3.12374.23269c-2.1675.12903-2.26695 3.2844-.11246 3.55087-2.19427.83704-1.90612 3.08168-.09881 3.43485-1.93673.40736-1.87935 3.18495.07146 3.52283l2.21978.34833z"/></g></svg>