<svg xmlns="http://www.w3.org/2000/svg" role="img" viewBox="4.55 4.68 62.27 62.27"><title>1F6DF.svg</title><path fill="none" stroke="#000" stroke-linecap="round" stroke-linejoin="round" stroke-width="2" d="M16.8742 15.0481C2.3563 28.1948 4.886 45.9647 15.4493 56.3005A30.3559 30.3559 0 0 0 44.75 63.6551C69.6439 53.2674 68.4718 28.893 56.2756 15.7239c-9.109-9.8356-24.3988-13.2987-39.4014-.6758z"/><path fill="none" stroke="#d0cfce" stroke-linecap="round" stroke-linejoin="round" stroke-width="2" d="M16.8742 15.0481C2.3563 28.1948 4.886 45.9647 15.4493 56.3005A30.3559 30.3559 0 0 0 44.75 63.6551C69.6439 53.2674 68.4718 28.893 56.2756 15.7239c-9.109-9.8356-24.3988-13.2987-39.4014-.6758z"/><path fill="#ea5a47" d="M36 11a25 25 0 1 0 25 25 25 25 0 0 0-25-25zm0 39.9874A14.9875 14.9875 0 1 1 50.9876 36 14.9875 14.9875 0 0 1 36 50.9874z"/><path fill="#fff" d="M20.8574 15.0481a24.3423 24.3423 0 0 0-5.8431 5.843l7.8266 7.8189a13.5056 13.5056 0 0 1 5.5628-5.6964zm36.204 5.8319a24.5793 24.5793 0 0 0-5.9-5.9l-7.89 7.8888a13.6355 13.6355 0 0 1 5.9048 5.8977zM51.113 56.9855a24.3441 24.3441 0 0 0 5.8431-5.843L49.13 43.3237a13.5058 13.5058 0 0 1-5.5634 5.6963zm-36.3208-5.6377a24.9933 24.9933 0 0 0 6 6l8.0237-8.0224a13.8661 13.8661 0 0 1-6.0047-5.9976z"/><path fill="#d22f27" d="M49.1986 43.3237l2.3154 2.3131a18.0762 18.0762 0 0 0-.0779-19.0617l-2.1909 2.1913a13.6339 13.6339 0 0 0-5.9052-5.8977l2.1814-2.181a18.0808 18.0808 0 0 0-19.18.0765l2.1308 2.2493A13.5059 13.5059 0 0 0 22.91 28.71l-2.2734-2.2711a18.0873 18.0873 0 0 0-.1248 19.2572l2.3682-2.3687a13.8663 13.8663 0 0 0 6.0048 5.9976l-2.3615 2.3611a18.1038 18.1038 0 0 0 19.3843-.268L43.6358 49.02a13.5062 13.5062 0 0 0 5.5628-5.6963zM21.1036 36a14.9876 14.9876 0 1 1 14.9875 14.9874A14.9876 14.9876 0 0 1 21.1036 36z"/><path fill="#d0cfce" d="M28.551 22.8413L26.42 20.592a18.2635 18.2635 0 0 0-5.7053 5.6746l2.2734 2.2711a13.5062 13.5062 0 0 1 5.5629-5.6964zm20.7724 5.7529l2.191-2.1913A18.2586 18.2586 0 0 0 45.6 20.5155l-2.1814 2.181a13.6342 13.6342 0 0 1 5.9048 5.8977zm2.2688 16.8704l-2.3154-2.3131a13.5059 13.5059 0 0 1-5.5627 5.6964l2.2717 2.398a18.2661 18.2661 0 0 0 5.6064-5.7813zm-28.634-2.3094L20.59 45.5239a18.26 18.26 0 0 0 6.0115 5.99l2.3616-2.3611a13.8666 13.8666 0 0 1-6.0049-5.9976z"/><g stroke="#000" stroke-linecap="round" stroke-linejoin="round" stroke-width="2"><path fill="none" d="M15.3611 50.1122a25.0141 25.0141 0 0 1-.0915-28.09m34.8136 34.6366a25.0144 25.0144 0 0 1-28.0609.0716m34.6065-34.8573a25.014 25.014 0 0 1 .1012 28.1046M21.8739 15.3706a25.0141 25.0141 0 0 1 28.1038-.101m-29.1203-.2215a24.3423 24.3423 0 0 0-5.8431 5.843l7.8266 7.8189a13.5056 13.5056 0 0 1 5.5628-5.6964z"/><path d="M18.3305 16.4054l-1.9925-2.1032a7.712 7.712 0 0 0-1.851 1.8509l2.05 2.0478m39.1739-.0161l2.1032-1.9925a7.712 7.712 0 0 0-1.8509-1.851l-2.0479 2.05m.0553 39.2555l1.9925 2.1032a7.71 7.71 0 0 0 1.851-1.8509l-2.05-2.0479m-39.6103.2155l-2.1032 1.9926a7.71 7.71 0 0 0 1.851 1.8509l2.0478-2.05"/><path fill="none" d="M57.0614 20.88a24.5793 24.5793 0 0 0-5.9-5.9l-7.89 7.8888a13.6355 13.6355 0 0 1 5.9048 5.8977zM51.113 56.9855a24.3441 24.3441 0 0 0 5.8431-5.843L49.13 43.3237a13.5058 13.5058 0 0 1-5.5634 5.6963zm-36.3208-5.6377a24.9933 24.9933 0 0 0 6 6l8.0237-8.0224a13.8661 13.8661 0 0 1-6.0047-5.9976z"/><circle cx="36" cy="36.17" r="14.988" fill="none"/></g></svg>