<svg xmlns="http://www.w3.org/2000/svg" role="img" viewBox="7.38 7.63 56.37 58.37"><title>1F423.svg</title><path fill="#FCEA2B" stroke="#FCEA2B" stroke-miterlimit="10" stroke-width="1.8" d="M36.1089 44.1242s21.3368-.7112 10.6684-20.6256c0 0-2.8449-7.8235-10.6684-7.8235-2.2075 0-4.0187.5096-5.4973 1.2733-3.7618 1.9427-5.3718 5.5292-5.8823 6.5502-.7113 1.4225-11.3797 19.2032 11.3796 20.6256z"/><path fill="#F1B31C" d="M35.3719 30.6032s5.9251-.2907 0 5.2324c0 0-5.9251-5.2324 0-5.2324z"/><path fill="#FFF" d="M61.6942 37.9501C61.6942 52.3371 50.0313 64 35.6443 64S9.5944 52.3371 9.5944 37.9501l7.4428 3.7214 6.5125-4.6518 8.3732 5.5821 6.2024-5.5821 8.1758 4.7364 7.0199-5.6667 8.3732 1.8607z"/><path fill="#D0CFCE" d="M53.321 36.0894C51.3406 47.7279 46.2215 57.4929 35.6443 64c14.387 0 26.0499-11.663 26.0499-26.0499l-8.3732-1.8607z"/><g><circle cx="30.908" cy="26.363" r="2.368"/><circle cx="40.381" cy="26.363" r="2.368"/><path fill="none" stroke="#000" stroke-linecap="round" stroke-linejoin="round" stroke-miterlimit="10" stroke-width="2" d="M34.796 14.903l-1.363-5.117m3.395 5.92v-3.552m2.171 3.749l1.382-6.117m-5.0091 20.8172s5.9251-.2907 0 5.2324c0 0-5.9251-5.2324 0-5.2324z"/><path fill="none" stroke="#000" stroke-linecap="round" stroke-linejoin="round" stroke-miterlimit="10" stroke-width="2" d="M49.7637 33.4191c.0286-2.6167-.8175-5.8717-2.9865-9.9204 0 0-2.8449-7.8235-10.6684-7.8235-2.2075 0-4.0187.5096-5.4973 1.2733-3.7618 1.9427-5.3718 5.5292-5.8823 6.5502-.3479.6959-3.0787 5.3065-3.1133 10.0017m40.0783 4.4497C61.6942 52.3371 50.0313 64 35.6443 64S9.5944 52.3371 9.5944 37.9501l7.4428 3.7214 6.5125-4.6518 8.3732 5.5821 6.2024-5.5821 8.1758 4.7364 7.0199-5.6667 8.3732 1.8607z"/></g></svg>