<svg xmlns="http://www.w3.org/2000/svg" role="img" viewBox="14.90 10.40 41.82 50.57"><title>1F513.svg</title><path fill="#FCEA2B" d="M53 32.297h1.875v26.875h-38V32.297h1.875z"/><path fill="#F1B31C" d="M54.43 32.493L35.66 58.994h19.308z"/><path fill="#D0CFCE" stroke="#D0CFCE" stroke-linejoin="round" stroke-miterlimit="10" stroke-width="2" d="M46.0641 31.8167l.2102-2.902c.4766-6.9852-4.8299-12.6829-10.5142-12.4934-4.6725.1558-8.6157 4.2846-9.8282 9.301l-4.0503-.9026c1.6615-6.6916 7.2189-12.2207 13.8118-12.4281 7.9697-.2507 15.4098 7.2847 14.7416 16.523l-.2425 2.902"/><g fill="none" stroke="#000" stroke-linecap="round" stroke-linejoin="round" stroke-miterlimit="10" stroke-width="2"><path d="M53 32.25h1.875v26.875h-38V32.25h1.875zm-6.7257-3.3354c.4766-6.9852-4.8299-12.6829-10.5142-12.4934-4.6725.1558-8.6157 4.2846-9.8282 9.301l-4.0503-.9026c1.6615-6.6916 7.2189-12.2207 13.8118-12.4281 7.9697-.2507 15.4098 7.2847 14.7416 16.523"/></g></svg>