<svg xmlns="http://www.w3.org/2000/svg" role="img" viewBox="8.96 11.21 54.08 50.70"><title>1F468-200D-1F469-200D-1F467-200D-1F467.svg</title><path fill="#92D3F5" d="M11.0003 61V44.9552c0-3.2895 3.2918-5.9566 6.5836-5.9566 3.9146 3.2895 7.8292 3.2895 11.8327 0h13.1673c3.9146 3.2895 7.8292 3.2895 11.8327 0 3.2918 0 6.5836 2.6671 6.5836 5.9566V61"/><path fill="#B1CC33" d="M17 61v-2.5333C17 56 19.5018 54 22.0036 54c2.9751 2.4667 5.9502 2.4667 8.9929 0C33.4982 54 36 56 36 58.4667V61m.0003 0v-2.5333C36.0003 56 38.5021 54 41.0039 54c2.9751 2.4667 5.9502 2.4667 8.9929 0 2.5018 0 5.0036 2 5.0036 4.4667V61"/><g fill="#A57939"><path d="M37.9321 40.062l-1.5485-2.0449c-2.6671-4.0007.2034-7.4695 1.4481-10.6701 1.0669-2.845-.1778-4.3563.889-8.0903.978-3.6451 4.8898-5.9566 9.1572-5.9566 3.6451 0 5.3343 2.0448 5.3343 2.0448 2.7561.2667 4.8898 2.5782 4.9787 5.3343.2667 4.8009.7112 4.8009 2.3115 8.5349 1.1558 2.756 1.5344 6.4376-.4216 8.6602l-1.7012 2.0373m-44.451-18.5213c.5334-7.7347 6.4011-7.8236 9.335-7.3791.2667.0889 1.0669 0 1.3336 0 5.3343-.7112 8.0014 5.3343 8.0014 8.0014 0 .978.2255 3.3655-1.1081 4.6991 0 0-3.2483-3.7211-3.4261-5.8549 0 0-10.1352 3.8229-10.8464.5334 0 0-.7112 2.6671-1.3336 3.3784 0 0-.3288 2.0448-.3288 2.6671.0002.0002-1.8937-2.667-1.627-6.0454zM26.5 40.7038c3.864 1.3703 5.567 5.8271 5.6943 9.6307 1.4225.308 2.8826-.3898 3.8057-1.461a7.1981 7.1981 0 0 1-2.1494-3.1356c.7369-5.7252-2.03-9.5793-7.3506-8.4862-5.3206-1.0931-8.0875 2.761-7.3506 8.4862A7.1981 7.1981 0 0 1 17 48.8735c.923 1.0712 2.3833 1.769 3.8057 1.461.1273-3.8034 1.8302-8.2605 5.6943-9.6307z"/><path d="M45.5003 40.7038c3.864 1.3703 5.567 5.8271 5.6943 9.6307 1.4225.308 2.8826-.3898 3.8057-1.461a7.1981 7.1981 0 0 1-2.1494-3.1356c.7369-5.7252-2.03-9.5793-7.3506-8.4862-5.3206-1.0931-8.0875 2.761-7.3506 8.4862a7.1981 7.1981 0 0 1-2.1494 3.1356c.923 1.0712 2.3833 1.769 3.8057 1.461.1273-3.8034 1.8302-8.2605 5.6943-9.6307z"/></g><path d="M41.1209 26.8135c0 5.3343 3.3784 9.335 7.3791 9.335s7.3791-4.0007 7.3791-9.335c0-3.3784-1.3336-5.3343-4.0007-8.0014-2.6671 2.6671-10.6686 6.0455-10.6686 7.3791l-.0889.6223zm-13.0755-5.9566s-10.1351 3.8229-10.8464.5334c0 0-.7112 2.6672-1.3336 3.3784 0 0-.3185 1.9835-.3273 2.635.4585 5.148 3.8411 9.1996 7.9427 9.1996 4.2864 0 7.782-4.426 7.9809-9.9028-.1045-.1204-3.2414-3.7454-3.4163-5.8436zm3.958 27.6601c-.0138-.0543-.0171-.1106-.0324-.1646-.5499-3.1755-2.2374-6.5396-5.471-7.6487-3.2336 1.1091-4.9211 4.4731-5.471 7.6487-.0153.054-.0186.1102-.0324.1646.8397 2.7543 2.9947 4.3117 5.5034 4.3118 2.5087-.0001 4.6638-1.5575 5.5034-4.3118zm19 0c-.0138-.0543-.0171-.1106-.0324-.1646-.5499-3.1755-2.2374-6.5396-5.471-7.6487-3.2336 1.1091-4.9211 4.4731-5.471 7.6487-.0153.054-.0186.1102-.0324.1646.8397 2.7543 2.9947 4.3117 5.5034 4.3118 2.5087-.0001 4.6638-1.5575 5.5034-4.3118z" fill="#FCEA2B"/><g><path fill="none" stroke="#000" stroke-miterlimit="10" stroke-width="2" d="M31.5 25.5689v.6437c0 5.7012-3.5862 10.3908-8 10.3908s-8-4.6897-8-10.3908v-.6437"/><path fill="none" stroke="#000" stroke-linecap="round" stroke-linejoin="round" stroke-width="2" d="M13.9286 21.3903c.5334-7.7347 6.4011-7.8236 9.335-7.3791.2667.0889 1.0669 0 1.3336 0 5.3343-.7112 8.0014 5.3343 8.0014 8.0014 0 .978.2255 3.3655-1.1081 4.6991 0 0-3.2483-3.7211-3.4261-5.8549 0 0-10.1352 3.8229-10.8464.5334 0 0-.7112 2.6671-1.3336 3.3784 0 0-.3288 2.0448-.3288 2.6671.0002.0002-1.8937-2.667-1.627-6.0454zm22.7958 15.3558c-2.0402-3.6662-.0693-6.3738 1.1072-9.3991 1.0669-2.845-.1778-4.3563.889-8.0903.978-3.6451 4.8898-5.9566 9.1572-5.9566 3.6451 0 5.3343 2.0448 5.3343 2.0448 2.7561.2667 4.8898 2.5782 4.9787 5.3343.2667 4.8009.7112 4.8009 2.3115 8.5349 1.0621 2.5328.7728 5.3659-.7991 7.5333"/><path fill="none" stroke="#000" stroke-linejoin="round" stroke-miterlimit="10" stroke-width="2" d="M41.1209 26.8135c0 5.3343 3.3784 9.335 7.3791 9.335s7.3791-4.0007 7.3791-9.335c0-3.3784-1.3336-5.3343-4.0007-8.0014-2.6671 2.6671-10.6686 6.0455-10.6686 7.3791l-.0889.6223h0z"/><path fill="none" stroke="#000" stroke-linecap="round" stroke-linejoin="round" stroke-width="2" d="M11.0003 60V44.9552c0-3.2895 3.2918-5.9566 6.5836-5.9566.541.4546 1.082.8464 1.6232 1.1754m33.4384.0684c.5886-.3426 1.1789-.7573 1.7711-1.2439 3.2918 0 6.5836 2.6671 6.5836 5.9566V60"/><path d="M47.25 26.5c0 .7143-.5357 1.25-1.25 1.25s-1.25-.5357-1.25-1.25.5357-1.25 1.25-1.25 1.25.5357 1.25 1.25m5 0c0 .7143-.5357 1.25-1.25 1.25s-1.25-.5357-1.25-1.25.5357-1.25 1.25-1.25 1.25.5357 1.25 1.25"/><path fill="none" stroke="#000" stroke-linecap="round" stroke-linejoin="round" stroke-width="2" d="M46.633 31.5332c1.1558.6223 2.5782.6223 3.734 0"/><path d="M22.25 26.5c0 .7143-.5357 1.25-1.25 1.25s-1.25-.5357-1.25-1.25.5357-1.25 1.25-1.25 1.25.5357 1.25 1.25m5 0c0 .7143-.5357 1.25-1.25 1.25s-1.25-.5357-1.25-1.25.5357-1.25 1.25-1.25 1.25.5357 1.25 1.25"/><path fill="none" stroke="#000" stroke-linecap="round" stroke-linejoin="round" stroke-width="2" d="M21.633 31.5332c1.1558.6223 2.5782.6223 3.734 0"/><path d="M48.0979 45.7015c.0333.4958-.3417.9247-.8377.958-.4959.0333-.9249-.3417-.9582-.8375s.3417-.9247.8377-.958a.86825.86825 0 0 1 .0604-.002c.4796-.0155.8813.3601.8978.8395z"/><path fill="none" stroke="#000" stroke-linecap="round" stroke-linejoin="round" stroke-width="1.6" d="M44.1639 49.1857c.7749.6425 1.8974.6425 2.6723 0"/><path fill="none" stroke="#000" stroke-miterlimit="10" stroke-width="1.6" d="M51.0438 48.407c-.8139 2.8267-3.0002 4.4219-5.5441 4.4219h.0006c-2.5439 0-4.7302-1.5952-5.5441-4.4219"/><path d="M43.7999 44.862a.9372.9372 0 0 1 .0604.002c.4959.0333.871.4622.8377.958s-.4623.8707-.9582.8375c-.4959-.0333-.871-.4622-.8377-.958.0165-.4794.4182-.855.8978-.8395z"/><path fill="none" stroke="#000" stroke-linecap="round" stroke-linejoin="round" stroke-width="1.6" d="M17 60.2v-1.7333C17 56 19.5018 54 22.0036 54c2.9751 2.4667 5.9502 2.4667 8.9929 0C33.4982 54 36 56 36 58.4667V60.2m.0003 0v-1.7333C36.0003 56 38.5021 54 41.0039 54c2.9751 2.4667 5.9502 2.4667 8.9929 0 2.5018 0 5.0036 2 5.0036 4.4667V60.2"/><path d="M29.0979 45.7015c.0333.4958-.3417.9247-.8377.958-.4959.0333-.9249-.3417-.9582-.8375s.3417-.9247.8377-.958a.86825.86825 0 0 1 .0604-.002c.4796-.0155.8813.3601.8978.8395z"/><path fill="none" stroke="#000" stroke-linecap="round" stroke-linejoin="round" stroke-width="1.6" d="M25.1639 49.1857c.7749.6425 1.8974.6425 2.6723 0"/><path fill="none" stroke="#000" stroke-miterlimit="10" stroke-width="1.6" d="M32.0438 48.407c-.8139 2.8267-3.0002 4.4219-5.5441 4.4219h.0006c-2.5439 0-4.7302-1.5952-5.5441-4.4219"/><path d="M24.7999 44.862a.9372.9372 0 0 1 .0604.002c.4959.0333.871.4622.8377.958s-.4623.8707-.9582.8375c-.4959-.0333-.871-.4622-.8377-.958.0165-.4794.4182-.855.8978-.8395z"/><path fill="none" stroke="#000" stroke-linecap="round" stroke-linejoin="round" stroke-width="1.6" d="M26.5 40.7038c3.864 1.3703 5.567 5.8271 5.6943 9.6307 1.4225.308 2.8826-.3898 3.8057-1.461a7.1981 7.1981 0 0 1-2.1494-3.1356c.7369-5.7252-2.03-9.5793-7.3506-8.4862-5.3206-1.0931-8.0875 2.761-7.3506 8.4862A7.1981 7.1981 0 0 1 17 48.8735c.923 1.0712 2.3833 1.769 3.8057 1.461.1273-3.8034 1.8302-8.2605 5.6943-9.6307zm19.0003 0c3.864 1.3703 5.567 5.8271 5.6943 9.6307 1.4225.308 2.8826-.3898 3.8057-1.461a7.1981 7.1981 0 0 1-2.1494-3.1356c.7369-5.7252-2.03-9.5793-7.3506-8.4862-5.3206-1.0931-8.0875 2.761-7.3506 8.4862a7.1981 7.1981 0 0 1-2.1494 3.1356c.923 1.0712 2.3833 1.769 3.8057 1.461.1273-3.8034 1.8302-8.2605 5.6943-9.6307z"/></g></svg>