<svg xmlns="http://www.w3.org/2000/svg" role="img" viewBox="5.84 5.84 60.19 60.19"><title>1F1F2.svg</title><circle cx="36" cy="36" r="27.5" fill="#fff"/><circle cx="36" cy="36" r="28" fill="none" stroke="#000" stroke-linejoin="round" stroke-width="2"/><path stroke="#000" stroke-linejoin="round" stroke-width="2" d="M48.2295 21.0391c-.4502-.1064-.917.1108-1.124.5259L36 43.7764 24.8945 21.565c-.207-.415-.6758-.6313-1.124-.5259-.4512.1064-.7705.5093-.7705.9731v28c0 .5522.4473 1 1 1s1-.4478 1-1V26.248l10.1055 20.2114c.3398.6777 1.4492.6777 1.7891 0L47.0001 26.248v23.7642c0 .5522.4473 1 1 1s1-.4478 1-1v-28c0-.4639-.3193-.8667-.7705-.9731h0z"/></svg>