<svg xmlns="http://www.w3.org/2000/svg" role="img" viewBox="6.87 5.87 58.63 56.13"><title>2B1F.svg</title><path d="M34.824 8.45109c.701-.509 1.651-.509 2.352 0L62.405 26.7811c.701.51.994 1.412.727 2.236l-9.637 29.659c-.268.824-1.036 1.382-1.902 1.382H20.407c-.866 0-1.634-.558-1.902-1.382l-9.637-29.659c-.267-.824.026-1.726.727-2.236L34.824 8.45109z"/><path fill="#3F3F3F" d="M34.824 8.45109c.701-.509 1.651-.509 2.352 0L62.405 26.7811c.701.51.994 1.412.727 2.236l-9.637 29.659c-.268.824-1.036 1.382-1.902 1.382H20.407c-.866 0-1.634-.558-1.902-1.382l-9.637-29.659c-.267-.824.026-1.726.727-2.236L34.824 8.45109z"/><path fill="none" stroke="#000" stroke-width="2" d="M35.0536 8.38175c.701-.509 1.651-.509 2.352 0l25.229 18.33005c.701.51.994 1.412.727 2.236l-9.637 29.6589c-.268.824-1.036 1.382-1.902 1.382h-31.186c-.866 0-1.634-.558-1.902-1.382L9.09764 28.9478c-.267-.824.026-1.726.727-2.236L35.0536 8.38175z"/></svg>