<svg xmlns="http://www.w3.org/2000/svg" role="img" viewBox="5.98 5.73 59.67 58.92"><title>26F5.svg</title><path fill="#d0cfce" d="M38.535 7.946v27.905h16.693L38.535 7.946z"/><path fill="#a57939" d="M51.9349 47.4646c2.68-2.68 4.4666-7.1466 4.4666-7.1466H17.9887s-.8933 4.4666 2.68 7.1466H51.935z"/><path fill="#d0cfce" d="M35.196 14.412v21.439H24.901l10.295-21.439z"/><path fill="none" d="M64.441 63.544H7.269V45.888"/><path fill="#92d3f5" d="M64.4414 44.7846v18.7598H7.2688V44.7846h.8933c2.68 0 8.0399 2.68 13.3998 2.68s8.9332-2.68 14.2931-2.68 9.8265 2.68 14.2931 2.68 6.2533-2.68 13.3998-2.68h.8933z"/><g fill="none" stroke="#000" stroke-linecap="round" stroke-linejoin="round"><path stroke-width="2.036" d="M38.535 7.946v27.905h16.693L38.535 7.946z"/><path stroke-width="2" d="M52.0409 47.2948c2.68-2.68 4.3606-6.9768 4.3606-6.9768H17.9887s-1.0793 4.3214 2.494 7.0014M35.196 14.412v21.439H24.901l10.295-21.439z"/><path stroke-width="2.036" d="M38.535 8.158v32.16"/><path stroke-width="2" d="M8.1621 44.7846c2.68 0 8.0399 2.68 13.3998 2.68s8.9332-2.68 14.2931-2.68 9.8265 2.68 14.2931 2.68 6.2533-2.68 13.3998-2.68"/></g></svg>