<svg xmlns="http://www.w3.org/2000/svg" role="img" viewBox="13.04 13.04 44.79 49.79"><title>E263.svg</title><g fill="#FCEA2B"><circle cx="36" cy="35" r="20.8"/><path d="M23.437 50.3563C22.1049 53.8785 18.4321 58.7119 15 61c7.1652 0 12.2335-2.0922 16-7.2731"/></g><circle cx="26" cy="35.079" r="2.857"/><circle cx="36" cy="35.079" r="2.857"/><circle cx="46" cy="35.079" r="2.857"/><path fill="none" stroke="#000" stroke-linecap="round" stroke-linejoin="round" stroke-miterlimit="10" stroke-width="2" d="M23.437 50.3563C22.1049 53.8785 18.4321 58.7119 15 61c7.1652 0 12.2335-2.0922 16-7.2731"/><path fill="none" stroke="#000" stroke-linecap="round" stroke-linejoin="round" stroke-miterlimit="10" stroke-width="2" d="M23.437 50.3563C22.1049 53.8785 18.4321 58.7119 15 61c7.1652 0 12.2335-2.0922 16-7.2731"/><path fill="none" stroke="#000" stroke-linecap="round" stroke-miterlimit="10" stroke-width="2" d="M20.4809 47.6168C17.6795 44.1751 16 39.7837 16 35c0-11.0457 8.9543-20 20-20s20 8.9543 20 20-8.9543 20-20 20c-.3703 0-.7383-.0101-1.1037-.0299"/></svg>