<svg xmlns="http://www.w3.org/2000/svg" role="img" viewBox="14.47 2.72 41.44 66.56"><title>1F3F8.svg</title><path fill="#d0cfce" stroke="#d0cfce" stroke-linecap="round" stroke-linejoin="round" stroke-width="1.5" d="M48.4009 52.2372c.2055-1.3254-.7025-2.5665-2.0279-2.772-1.3254-.2055-2.5665.7025-2.772 2.0279-.0382.2463-.0382.497-.0001.7432v3.6l-5.6022 11.1992 3.2.0005 1.6-1.6 1.6 1.6 1.6-1.6 1.6 1.6 1.6-1.6 1.6 1.6 3.2.0005L48.4 55.8371v-3.1548l.0009-.4452z"/><path fill="#d22f27" d="M48.4007 53.408v2.4s-5.575.0175-4.8-.0089v-2.4l4.8.0089z"/><path fill="#9b9b9a" stroke="#9b9b9a" stroke-linecap="round" stroke-linejoin="round" stroke-width="2" d="M23.641 67.036V53.202l.854-6.697h2.022l.853 6.697v13.834h-3.729z"/><path fill="#3f3f3f" d="M24.752 29.507h1.5v16h-1.5z"/><g fill="none" stroke="#d0cfce" stroke-miterlimit="10"><path stroke-width="1.484" d="M25.696 5.001V28.5"/><path stroke-width="1.477" d="M22.696 5.701V28"/><path stroke-width="1.479" d="M19.696 8v17.5m9-19.852V28m3-20v17.5"/><path stroke-width="1.468" d="M17.013 14h17.239"/><path stroke-width="1.479" d="M16.752 17h17.5"/><path stroke-width="1.486" d="M17.075 20h16.677"/><path stroke-width="1.492" d="M17.922 11h15.33"/><path stroke-width="1.5" d="M19.752 8h12M20.046 26h11.206"/><path stroke-width="1.462" d="M18.063 23h15.189"/></g><ellipse cx="25.752" cy="16.842" fill="none" stroke="#3f3f3f" stroke-miterlimit="10" stroke-width="2" rx="9" ry="11.842"/><g><g fill="none" stroke="#000" stroke-width="1.5"><path stroke-linecap="round" stroke-linejoin="round" d="M48.4009 52.2372c.2055-1.3254-.7025-2.5665-2.0279-2.772-1.3254-.2055-2.5665.7025-2.772 2.0279-.0382.2463-.0382.497-.0001.7432v3.6l-2.05 4.0979-.4957.991-3.0563 6.11 3.2.0005 1.6-1.6 1.6 1.6 1.6-1.6 1.6 1.6 1.6-1.6 1.6 1.6 3.2.0005-3.0631-6.1263-.5629-1.1263L48.4 55.8371v-3.1548l.0009-.4452z"/><path stroke-miterlimit="10" d="M48.4007 53.4372v2.4s-4.8-.0116-4.8-.0008v-2.4l4.8.0008z"/></g><path fill="none" stroke="#000" stroke-linecap="round" stroke-linejoin="round" stroke-width="2" d="M24.22 48.658l-.579 4.545v13.834h3.729V53.203"/><path d="M24.752 29.507h1.5v16h-1.5z"/><ellipse cx="25.752" cy="16.842" fill="none" stroke="#000" stroke-miterlimit="10" stroke-width="2" rx="9" ry="11.842"/></g></svg>