<svg xmlns="http://www.w3.org/2000/svg" role="img" viewBox="2.69 2.81 54.38 61.88"><title>1F9D7-1F3FE.svg</title><path fill="#92D3F5" d="M51.112 33.188l3.05 1.017L52.898 38l-3.05-1.017"/><path fill="#D0CFCE" d="M40 7v1l-2 8s-1 3-3 6-4 4-4 4l-3 2-2 2-5 11 1 2v1l1 1-3 4-3.2656 7.6875L11 62l-7.041 1L4 9l16-5h16l4 3z"/><g fill="#a57939"><circle cx="51.969" cy="15.094" r="3"/><path d="M48 21l4.9688 2.375-2.7618 13.2354-1.0722 1.5302L47 50l3 12-3 1-5-13V40l-9-5-9 9-2-2 10-12 9.6025 2.8809S44.625 26.25 46 24c0 0-4.917-.75-11.8262-2.9106-1.5439-.483-3.0175-1.5581-2.0175-3.5581"/></g><g fill="none" stroke="#000" stroke-miterlimit="10" stroke-width="2"><circle cx="51.969" cy="15.094" r="3"/><path stroke-linecap="round" stroke-linejoin="round" d="M42 33l-8.084-2.4258c-1.0537-.3154-2.4922.1172-3.1963.9619l-7.4394 8.9278c-.7041.8447-.8301 1.9863-.2803 2.5361s1.6367.3633 2.4141-.4141l6.1718-6.1718c.7774-.7774 2.2012-.9766 3.1621-.4424l5.504 3.0566C41.2129 39.5625 42.9004 40 44 40h1c1.0996 0 2.6182-.6533 3.375-1.4531l.457-.4834c.7569-.7998 1.5537-2.2656 1.7715-3.2588C50.8213 33.8125 51 33 51 33"/><path stroke-linecap="round" stroke-linejoin="round" d="M49.1348 38.1406l-1.7803 9.8907c-.1953 1.083-.1357 2.8417.1309 3.9091l2.0292 8.1192c.2667 1.0674-.1894 2.165-1.0146 2.4404s-1.8232-.3398-2.2178-1.3662l-3.5644-9.2676C42.3232 50.8398 42 49.0996 42 48v-7m9-8l1.8506-6.1685C53.4824 24.7241 52.6504 22.5498 51 22s-4.7861-1.2231-6.9687-1.4961l-.0625-.0078c-2.1827-.273-5.544-.9248-7.4688-1.4492-1.9248-.5244-3.5-.9531-3.5-.9531M16 56l7-11-2-4 6-13 5-3 2-3m9 8l8 3m1.265.572l1.897.633L52.898 38 51 37.367M37 16l2-8m7 17l-1 2"/></g></svg>