<svg xmlns="http://www.w3.org/2000/svg" role="img" viewBox="14.33 3.83 39.84 60.71"><title>1F3CC-1F3FC-200D-2640-FE0F.svg</title><g fill="#debb90"><circle cx="33.745" cy="9.104" r="2.86"/><path d="M28.2162 17.5879c-3.9084.4766-5.529.1906-6.1009-.572-.4766-.7626-.1907-4.29-.3813-8.3888l-2.0972-1.1439v10.3906l1.3346 1.9062 4.957.7626 1.2392-.572z"/><path d="M23.2592 9.0084l1.9066 4.7664 9.5327 2.86.9532 2.86-.9532 10.4852.9532 3.8131.9533 13.3458 3.8131 15.2523h-2.86l-5.72-15.2523-1.9066-10.486h-.9533l-.9532 9.5327-1.906 16.206h-2.86V45.2327l.9535-12.3927 1.9065-8.5794 2.0972-6.5776c-.7626-.286-3.3364-.858-4.385-2.0972s-3.1458-5.5288-3.2412-7.054"/></g><g fill="none" stroke="#000" stroke-width="2"><path stroke-linecap="round" stroke-linejoin="round" d="M44.56 12.5289l6.344 1.2459.9533 2.86c.9532 1.9065-1.9066 2.86-2.86 0M16.5862 7.1019l10.486 2.0019m.9534 9.4373L26.691 22.45c-.286.9533-.7626 2.6692-1.0486 3.6225l-1.0486 4.8617c-.1907 1.0486-.4766 2.6691-.572 3.7177l-.6673 8.5795c-.0953 1.0486-.1906 2.7644-.1906 3.813V60.39c0 1.0486.6673 1.9066 1.43 1.9066a1.9638 1.9638 0 0 0 1.6205-1.9066l1.43-12.3925c.0953-1.0486.2859-2.7645.3813-3.8131l.5719-5.72c.0954-1.0486.3813-1.9065.6673-1.9065s.6673.8579.858 1.9065l1.2392 6.7682a22.6577 22.6577 0 0 0 1.0486 3.6225l4.385 11.7249a2.8 2.8 0 0 0 2.0972 1.8112c.7626 0 1.2392-.8579.9532-1.8112l-2.86-11.5346a25.0573 25.0573 0 0 1-.5719-3.7178l-.6673-9.5327c-.0954-1.0486-.3813-2.7644-.572-3.7177v-.0953a12.2615 12.2615 0 0 1-.286-3.7178l.572-6.6729a9.2911 9.2911 0 0 0-.286-3.3364 4.0016 4.0016 0 0 0-2.2879-2.0019l-5.91-1.8112a4.6636 4.6636 0 0 1-2.5739-2.2879l-1.1439-3.1454"/><circle cx="33.745" cy="9.104" r="3" stroke-miterlimit="10"/><path stroke-linecap="round" stroke-linejoin="round" d="M27.0723 20.4477l-4.7664-.572a3.3717 3.3717 0 0 1-2.86-3.2411V8.0552m18.2521.2615s.6372-.165.935.1912c.3507.4184.3957 1.75.7827 2.3941a3.3634 3.3634 0 0 0 1.6377 1.4264"/></g></svg>