<svg xmlns="http://www.w3.org/2000/svg" role="img" viewBox="2.72 17.72 66.43 51.43"><title>1F6A3-1F3FD.svg</title><g id="color"><path fill="#D0CFCE" d="M58 48L66 39.7 44 39 33 39 6 40.3 12 48 18 50.167 26.833 48.75 36 47 43.167 48.167 52 50z"/><path fill="#92D3F5" d="M67.958,46.958C59.958,46.958,57,50,52,50s-10-3-16-3s-10,3-16,3S7,47,4,47c0,0,0,10.916,0,12.666 C4,61.082,5.4189,68,11,68c5.6689,0,19.0635,0,24.9795,0c3.083,0,20.1035,0,26.1035,0c5.832,0,5.876-5.834,5.876-10.5215 C67.959,54.8125,67.958,46.958,67.958,46.958z"/><path fill="#A57939" d="M25,49c0,0,3.0557-2.1807,4-3c2.1367-1.8535,5-2,5-2l13-11l0.75-0.666c0,0,0.916,1.582,0.582,2.249 S42.25,39.75,42.25,39.75l-6.334,5.583l0.251,2.084l-9.334,1.333L25,49z"/></g><g id="skin" fill="#c19a65" stroke="#c19a65"><circle cx="35" cy="23" r="3"/><path d="M47,33c-4-1-11.0996-3.2002-15-4c-5-1-10,11-10,11h8l4.5039-7.791l10.166,2.166"/></g><g id="line" fill="none" stroke="#000" stroke-linecap="round" stroke-linejoin="round" stroke-miterlimit="10" stroke-width="2"><path d="M12 48L6 40.3 33 40"/><circle cx="35" cy="23" r="3"/><path d="M47 33c-4-1-11.0996-3.2002-15-4-5-1-10 11-10 11M30 40L34 33M5 47c3 0 9 3 15 3s10-3 16-3 11 3 16 3 7-3 15-3"/><path d="M25 49c0 0 3.0557-2.1807 4-3 2.1367-1.8535 5-2 5-2l13-11M56.977 49L66 39.7 44 40"/></g></svg>