<svg xmlns="http://www.w3.org/2000/svg" role="img" viewBox="2.72 14.72 66.43 42.43"><title>1F1F0-1F1EE.svg</title><path fill="#d22f27" d="M5 17h62v38H5z"/><path fill="#f1b31c" stroke="#f1b31c" stroke-linecap="round" stroke-linejoin="round" d="M36 36l1.326-4.92.11 5.094 2.465-4.459-1.113 4.972 3.461-3.74-2.27 4.562 4.255-2.803-3.296 3.886 4.802-1.704-4.13 2.984 5.07-.504-4.724 1.909L47 42l-5.044.723 4.724 1.909-5.07-.504 4.13 2.984-4.802-1.704 3.296 3.886-4.255-2.803 2.27 4.562-3.461-3.74 1.113 4.972-2.465-4.459-.11 5.094L36 48l-1.326 4.92-.11-5.094-2.465 4.459 1.113-4.972-3.461 3.74 2.27-4.562-4.255 2.803 3.296-3.886-4.802 1.704 4.13-2.984-5.07.504 4.724-1.909L25 42l5.044-.723-4.724-1.909 5.07.504-4.13-2.984 4.802 1.704-3.296-3.886 4.255 2.803-2.27-4.562 3.461 3.74-1.113-4.972 2.465 4.459.11-5.094L36 36z"/><path fill="#fff" d="M67 44a42.5886 42.5886 0 0 1-6.2 1c-1.5693-.0494-4.6308-1.0494-6.2-1s-4.6308 1.0494-6.2 1-4.6307-1.0494-6.2-1-4.6307 1.0494-6.2 1-4.6308-1.0492-6.2-1-4.6308 1.0481-6.2 1-4.6306-1.0415-6.2-1-4.63 1-6.2 1A50.8361 50.8361 0 0 1 5 44v-2a50.8361 50.8361 0 0 0 6.2 1c1.57 0 4.6305-.9586 6.2-1s4.6308.9519 6.2 1 4.6308-.9508 6.2-1 4.6307.9506 6.2 1 4.6307-.9506 6.2-1 4.6307.9506 6.2 1 4.6307-.9506 6.2-1 4.6307.9506 6.2 1a42.5886 42.5886 0 0 0 6.2-1z"/><path fill="#1e50a0" d="M67 46a42.5886 42.5886 0 0 1-6.2 1c-1.5693-.0494-4.6308-1.0494-6.2-1s-4.6308 1.0494-6.2 1-4.6307-1.0494-6.2-1-4.6307 1.0494-6.2 1-4.6308-1.0492-6.2-1-4.6308 1.0481-6.2 1-4.6306-1.0415-6.2-1-4.63 1-6.2 1A50.8361 50.8361 0 0 1 5 46v-2a50.8361 50.8361 0 0 0 6.2 1c1.57 0 4.6305-.9586 6.2-1s4.6308.9519 6.2 1 4.6308-.9508 6.2-1 4.6307.9506 6.2 1 4.6307-.9506 6.2-1 4.6307.9506 6.2 1 4.6307-.9506 6.2-1 4.6307.9506 6.2 1a42.5886 42.5886 0 0 0 6.2-1z"/><path fill="#fff" d="M67 48a42.5886 42.5886 0 0 1-6.2 1c-1.5693-.0494-4.6308-1.0494-6.2-1s-4.6308 1.0494-6.2 1-4.6307-1.0494-6.2-1-4.6307 1.0494-6.2 1-4.6308-1.0492-6.2-1-4.6308 1.0481-6.2 1-4.6306-1.0415-6.2-1-4.63 1-6.2 1A50.8361 50.8361 0 0 1 5 48v-2a50.8361 50.8361 0 0 0 6.2 1c1.57 0 4.6305-.9586 6.2-1s4.6308.9519 6.2 1 4.6308-.9508 6.2-1 4.6307.9506 6.2 1 4.6307-.9506 6.2-1 4.6307.9506 6.2 1 4.6307-.9506 6.2-1 4.6307.9506 6.2 1a42.5886 42.5886 0 0 0 6.2-1z"/><path fill="#1e50a0" d="M67 50a42.5886 42.5886 0 0 1-6.2 1c-1.5693-.0494-4.6308-1.0494-6.2-1s-4.6308 1.0494-6.2 1-4.6307-1.0494-6.2-1-4.6307 1.0494-6.2 1-4.6308-1.0492-6.2-1-4.6308 1.0481-6.2 1-4.6306-1.0415-6.2-1-4.63 1-6.2 1A50.8361 50.8361 0 0 1 5 50v-2a50.8361 50.8361 0 0 0 6.2 1c1.57 0 4.6305-.9586 6.2-1s4.6308.9519 6.2 1 4.6308-.9508 6.2-1 4.6307.9506 6.2 1 4.6307-.9506 6.2-1 4.6307.9506 6.2 1 4.6307-.9506 6.2-1 4.6307.9506 6.2 1a42.5886 42.5886 0 0 0 6.2-1z"/><path fill="#1e50a0" d="M67 55s-4.6307-.9506-6.2-1-4.6308.9506-6.2 1-4.6308-.9506-6.2-1-4.6307.9506-6.2 1-4.6307-.9506-6.2-1-4.6308.9508-6.2 1-4.6308-.9519-6.2-1-4.6306.9585-6.2 1-4.63-1-6.2-1A50.8361 50.8361 0 0 0 5 55v-4a50.8361 50.8361 0 0 0 6.2 1c1.57 0 4.6305-.9586 6.2-1s4.6308.9519 6.2 1 4.6308-.9508 6.2-1 4.6307.9506 6.2 1 4.6307-.9506 6.2-1 4.6307.9506 6.2 1 4.6307-.9506 6.2-1 4.6307.9506 6.2 1a42.5886 42.5886 0 0 0 6.2-1z"/><path fill="#fff" d="M67 52a42.5886 42.5886 0 0 1-6.2 1c-1.5693-.0494-4.6308-1.0494-6.2-1s-4.6308 1.0494-6.2 1-4.6307-1.0494-6.2-1-4.6307 1.0494-6.2 1-4.6308-1.0492-6.2-1-4.6308 1.0481-6.2 1-4.6306-1.0415-6.2-1-4.63 1-6.2 1A50.8361 50.8361 0 0 1 5 52v-2a50.8361 50.8361 0 0 0 6.2 1c1.57 0 4.6305-.9586 6.2-1s4.6308.9519 6.2 1 4.6308-.9508 6.2-1 4.6307.9506 6.2 1 4.6307-.9506 6.2-1 4.6307.9506 6.2 1 4.6307-.9506 6.2-1 4.6307.9506 6.2 1a42.5886 42.5886 0 0 0 6.2-1z"/><path d="M45.5 22a17.1366 17.1366 0 0 1-8 2m-11-2a17.1366 17.1366 0 0 0 8 2" fill="#f1b31c" stroke="#f1b31c" stroke-linecap="round" stroke-linejoin="round" stroke-width="2"/><path fill="none" stroke="#f1b31c" stroke-linecap="round" stroke-linejoin="round" stroke-width="2" d="M31.4946 25.9334a10.9861 10.9861 0 0 1 9.0109-.0011"/><g><path fill="none" stroke="#000" stroke-linecap="round" stroke-linejoin="round" stroke-width="2" d="M5 17h62v38H5z"/></g></svg>