<svg xmlns="http://www.w3.org/2000/svg" role="img" viewBox="14.52 4.89 42.34 64.22"><title>1F4CB.svg</title><g id="color"><path fill="#a57939" d="m19.4835,11.9519c-1.6223.0879-2.6548,1.3894-2.6446,3.0141l.3073,49.0067c0,1.1025,1.5713,3.0003,2.6738,3.0003h28.4129c3.5401,0,6.4365-2.8964,6.4365-6.4365V14.8499c0-1.6248-1.2817-2.8115-2.9042-2.898-.7359-.0392-31.6955-.0318-32.2816,0Z"/><path fill="#d0cfce" d="m32.9574,11.2092l-4.0841.1491c-1.6251,0-3.3121,2.401-3.7826,3.8716l21.4716.3382c-.4705-1.4707-1.8325-4.3589-3.4576-4.3589l-3.8013-.3336c-.3697,0-.1859-3.8359-3.3445-3.6872s-2.6318,4.0208-3.0015,4.0208Z"/><path fill="#fff" d="M51.7802 54.9399v-.1743c-.0021.0239-.0102.0456-.014.0689.0046.0353.0131.0696.014.1054zM47.1379 14.8526c.008.1192-2.3273.5918-2.88.5918 0 0-20.1393-.4492-20.1313-.5685h-3.0741s.0002.0001.0004.0001c.236.0377-.1528 46.5465-.1528 46.5465h22.5355s7.3614-6.4365 7.3614-6.4623l-.1522-2.8562.1522-36.2586c0-.0543-.0221-.9928-.0221-.9928 0 0-3.637 0-3.637 0z"/><path fill="#fff" d="M42.7393 57.1041c.0184.0177.0435.0265.0633.0427-.0199-.0159-.0447-.0253-.0633-.0427zM43.0405 57.301c.1157.0482.2423.076.3765.076-.1336 0-.2601-.0286-.3765-.076z"/><path fill="#d0cfce" d="M50.514 55.207L45.83 54.853 43.688 54.766 42.432 56.45 42.432 60.423 43.436 61.422 50.514 55.207z"/><path fill="none" stroke="#6a462f" stroke-linecap="round" stroke-linejoin="round" stroke-width="2" d="M50.645 55.927L43.229 62.404 20.914 62.404"/></g><g id="line" fill="none" stroke="#000" stroke-linecap="round" stroke-linejoin="round" stroke-width="2"><path d="M49.6856 11.9519h4.9838v52.0211c0 1.6568-1.3431 3-3 3h-31.8494c-1.6569 0-3-1.3432-3-3V11.9519h4.6155M50.797 15.845L50.797 54.96"/><path d="M43.417 56.377L43.417 54.964 50.796 54.96 43.436 61.422 20.9 61.422 20.9 15.845M24.581 22.615L37.347 22.615M24.581 26.615L41.563 26.615M24.581 30.615L44.781 30.615M24.581 34.615L38.133 34.615M24.581 38.615L40.992 38.615M24.581 42.615L31.703 42.615M42.2763 10.9439h-3.7961c.1302-.3182.2034-.666.2034-1.0311 0-1.5047-1.2199-2.7244-2.7247-2.7244s-2.7244 1.2197-2.7244 2.7244c0 .3651.0729.7129.2033 1.0311h-4.0611c-2.367 0-4.286 1.9189-4.286 4.286h21.4716c0-2.3671-1.919-4.286-4.286-4.286z"/></g></svg>