<svg xmlns="http://www.w3.org/2000/svg" role="img" viewBox="8.96 8.96 53.95 53.95"><title>1F6BC.svg</title><path fill="#61b2e4" stroke-linecap="round" stroke-linejoin="round" stroke-miterlimit="10" stroke-width="2" d="M60 61H12c-.5523 0-1-.4477-1-1V12c0-.5523.4477-1 1-1h48c.5523 0 1 .4477 1 1v48c0 .5523-.4477 1-1 1z"/><path fill="#FFF" d="M40.4155 37.6526s-1.1088-.2837-.7159.8999l-3.6179-1.9927 1.0397-1.1799 3.2941 2.2727zm-9.9588 0s1.1088-.2837.7159.8999l3.6179-1.9927-1.0397-1.1799-3.2941 2.2727z"/><path fill="none" stroke="#FFF" stroke-linecap="round" stroke-linejoin="round" stroke-miterlimit="10" stroke-width="3" d="M46.2 39.6c-5.3-4.6-10.7-4.2334-10.7-4.2334S29.9 35 24.6 39.6"/><path fill="#FFF" d="M31 39l2-4 5.889-.029L40 39h-9"/><path fill="#FFF" stroke-linecap="round" stroke-linejoin="round" stroke-miterlimit="10" stroke-width="2" d="M39 38.6l5.6 11.2s0 1.4-1.4 1.4-5.6-4.2-5.6-4.2h-2.8 1.4-2.8s-4.2 4.2-5.6 4.2c-1.4 0-1.4-1.4-1.4-1.4L32 38.6"/><path fill="#FFF" stroke-linecap="round" stroke-linejoin="round" stroke-miterlimit="10" stroke-width="2" d="M33.4 47l-2.8-2.8v-2.8h9.8v2.8L37.6 47z"/><circle cx="36.2" cy="27" r="4.2" fill="#FFF" stroke-linecap="round" stroke-linejoin="round" stroke-miterlimit="10" stroke-width="2"/><g fill="none" stroke="#000" stroke-linecap="round" stroke-linejoin="round" stroke-miterlimit="10" stroke-width="2"><path d="M60 61H12c-.5523 0-1-.4477-1-1V12c0-.5523.4477-1 1-1h48c.5523 0 1 .4477 1 1v48c0 .5523-.4477 1-1 1z"/><path d="M47.4 40c-4.536-5.67-11.9-5.684-11.9-5.684S28.136 34.33 23.6 40"/><path d="M39 38.6l5.6 11.2s0 1.4-1.4 1.4-5.6-4.2-5.6-4.2h-2.8 1.4-2.8s-4.2 4.2-5.6 4.2c-1.4 0-1.4-1.4-1.4-1.4L32 38.6"/><path d="M33.4 47l-2.8-2.8v-2.8h9.8v2.8L37.6 47z"/><circle cx="36.2" cy="27" r="4.2"/></g></svg>