<svg xmlns="http://www.w3.org/2000/svg" role="img" viewBox="11.71 14.46 47.71 41.46"><title>1F3B2.svg</title><path fill="#D0CFCE" d="M58.094 22.608l-22.421 5.236-21.744-5.571 21.744-4.856z"/><path fill="#9B9B9A" d="M58.221 48.347l-22.178 5.758-.37-27.101 22.493-5.158z"/><path fill="#D0CFCE" d="M13.986 47.957l21.717 6.148-.03-26.261-13.023-3.145-8.667-2.403z"/><g><path fill="none" stroke="#000" stroke-linecap="round" stroke-linejoin="round" stroke-miterlimit="10" stroke-width="2.069" d="M35.635 54.017l21.835-5.286V21.765l-21.853 4.75-21.85-4.75v26.966l21.834 5.286V30.371m-21.834-8.606l22.041-5.311 21.662 5.311"/><circle cx="21.273" cy="32.934" r="3"/><circle cx="27.245" cy="44.376" r="3"/><circle cx="41.767" cy="45.221" r="3"/><circle cx="46.827" cy="38.067" r="3"/><circle cx="51.888" cy="30.912" r="3"/><ellipse cx="35.831" cy="21.122" rx="4" ry="1.619"/></g></svg>