<svg xmlns="http://www.w3.org/2000/svg" role="img" viewBox="16.76 6.75 38.24 58.24"><title>1FAD9.svg</title><g fill="#fff"><path d="M26.3 33.1h19.3a1.6855 1.6855 0 0 1 1.7 1.7v14.1a1.6855 1.6855 0 0 1-1.7 1.7H26.3a1.6855 1.6855 0 0 1-1.7-1.7V34.8a1.8276 1.8276 0 0 1 1.7-1.7z"/><path d="M53 29.5v30.2a3.1349 3.1349 0 0 1-2.9 3.3H21.9a3.1349 3.1349 0 0 1-2.9-3.3V29.5a15.0381 15.0381 0 0 1 2.2-7.8l1.8-3v-4.2h-.9a1.58 1.58 0 0 1-1.6-1.6v-2.4a1.58 1.58 0 0 1 1.6-1.6h27.8a1.58 1.58 0 0 1 1.6 1.6v2.4a1.58 1.58 0 0 1-1.6 1.6H49v4.2l1.8 3a14.7745 14.7745 0 0 1 2.2 7.8zm-3.4-15H23"/></g><path fill="#9b9b9a" d="M49.6 14.7H22.4l-1.5-1.3-.7-2.3 1-2h29.1l1.5.9-.3 3.7-1.9 1z"/><path fill="#d0cfce" d="M53 28.1v33.2L50.5 63h-3.2V36c0-11.3-11.9-17-24.9-17l.3-4.5H49v2.6l.6 2.5 2.2 3.9z"/><path fill="#3f3f3f" d="M51.8 10v3.4l-1.1.9v.2h-4.5V9.1h4.6v.1l1 .8z"/><g fill="none" stroke="#000" stroke-width="2"><path stroke-miterlimit="10" d="M26.3 33.1h19.3a1.6855 1.6855 0 0 1 1.7 1.7v14.1a1.6855 1.6855 0 0 1-1.7 1.7H26.3a1.6855 1.6855 0 0 1-1.7-1.7V34.8a1.8276 1.8276 0 0 1 1.7-1.7z"/><path stroke-linejoin="round" d="M53 29.5v30.2a3.1349 3.1349 0 0 1-2.9 3.3H21.9a3.1349 3.1349 0 0 1-2.9-3.3V29.5a15.0381 15.0381 0 0 1 2.2-7.8l1.8-3v-4.2h-.9a1.58 1.58 0 0 1-1.6-1.6v-2.4a1.58 1.58 0 0 1 1.6-1.6h27.8a1.58 1.58 0 0 1 1.6 1.6v2.4a1.58 1.58 0 0 1-1.6 1.6H49v4.2l1.8 3a14.7745 14.7745 0 0 1 2.2 7.8zm-3.4-15H23"/></g></svg>