<svg xmlns="http://www.w3.org/2000/svg" role="img" viewBox="16.54 10.54 41.16 56.29"><title>2618.svg</title><path fill="#5C9E31" d="M35.7502 38.8606c.7918-.8555 2.1446-.8553 2.9361.0005l5.0691 5.4806c1.9827 2.2387 4.4923 3.2216 6.9032 1.7652 2.3429-1.4154 3.0291-4.517 1.6577-6.886l-.7615-1.3154-.4165-.7194 1.9671-1.1388c2.3997-1.3893 3.3965-4.5861 1.9817-6.9709-1.3879-2.3396-4.0753-2.4334-6.7882-1.772l-1.5258.4466c-1.592.466-3.0266-1.097-2.4262-2.6433l.8157-2.1008c.4085-1.0521.8731-2.0807 1.3203-3.1169.9172-2.1253 1.1047-4.2003-.4735-5.8473-1.9632-2.0487-5.3008-1.904-7.3073.1024l-1.5842 1.5841-.5878-.5878-.9963-.9962c-2.0104-2.0102-5.3553-2.1497-7.3173-.0922-1.5682 1.6446-1.386 3.6828-.4662 5.8231.4505 1.0482.9183 2.0889 1.3313 3.1525l.7883 2.0303c.6038 1.5551-.8495 3.1223-2.4456 2.6375l-1.2905-.392c-2.7129-.6613-5.4003-.5676-6.7882 1.772-1.4148 2.3847-.4179 5.5816 1.9817 6.9709l1.9671 1.1388-.4165.7194-.7615 1.3154c-1.3714 2.3689-.6852 5.4706 1.6577 6.886 2.4109 1.4565 4.9205.4735 6.9032-1.7652l5.0729-5.4811z"/><g fill="none" stroke="#000" stroke-linecap="round" stroke-linejoin="round" stroke-width="2"><path stroke-miterlimit="10" d="M35.7598 38.9396c.7918-.8555 2.1446-.8553 2.9361.0005l5.0691 5.4806c1.9827 2.2387 4.4923 3.2216 6.9032 1.7652 2.3429-1.4154 3.0291-4.517 1.6577-6.886l-.7615-1.3154-.4165-.7194 1.9671-1.1388c2.3997-1.3893 3.3965-4.5861 1.9817-6.9709-1.388-2.3396-4.0753-2.4334-6.7882-1.772l-1.5257.4466c-1.592.466-3.0266-1.097-2.4262-2.6433l.8157-2.1008c.4085-1.0521.8731-2.0807 1.3203-3.1169.9172-2.1253 1.1047-4.2003-.4735-5.8473-1.9632-2.0487-5.3008-1.904-7.3073.1024l-1.5842 1.5841-.5878-.5878-.9963-.9962c-2.0104-2.0102-5.3553-2.1497-7.3173-.0922-1.5682 1.6446-1.386 3.6828-.4662 5.8231.4505 1.0482.9183 2.0889 1.3313 3.1525l.7883 2.0303c.6038 1.5551-.8495 3.1223-2.4456 2.6375l-1.2905-.392c-2.7129-.6613-5.4003-.5676-6.7882 1.772-1.4148 2.3847-.4179 5.5816 1.9817 6.9709l1.9671 1.1388-.4165.7194-.7615 1.3154c-1.3714 2.3689-.6852 5.4706 1.6577 6.886 2.4109 1.4565 4.9205.4735 6.9032-1.7652l5.0728-5.4811z"/><path d="M37.1374 44.0518c-3.438 3.548-7.676 10.246-5.829 20.735"/></g></svg>