<svg xmlns="http://www.w3.org/2000/svg" role="img" viewBox="4.80 14.93 62.27 52.15"><title>1F963.svg</title><path fill="#d0cfce" d="M45.9934 66H26.2541a2.6628 2.6628 0 0 1-2.6591-2.6592V60.91a1 1 0 0 1 1-1h.0019l23.0576.0429a1 1 0 0 1 .9981 1v2.3877A2.6628 2.6628 0 0 1 45.9934 66z"/><path fill="#d0cfce" d="M51.2973 28.8323c5.0582 0 9.1586-2.6112 9.1586-5.8323s-4.1-5.8323-9.1586-5.8323c-4.6982 0-8.5665 1.3551-9.0938 4.257l-28.4123-.8108a2 2 0 0 0 0 4l28.4181-.0285c.5347 2.8967 4.3954 4.2469 9.088 4.2469z"/><path fill="#fff" d="M47.3323 61.9531h-.0235L24.593 61.91a12.0946 12.0946 0 0 1-7.65-2.74A29.9163 29.9163 0 0 1 6 36a1 1 0 0 1 1-1h58a.9994.9994 0 0 1 1 1 29.9033 29.9033 0 0 1-11.0261 23.2383 12.0993 12.0993 0 0 1-7.6416 2.7148z"/><path fill="#d0cfce" d="M65 35H53.595a1 1 0 0 1 1 1 29.9032 29.9032 0 0 1-11.0264 23.2383 12.0867 12.0867 0 0 1-7.1633 2.6942l10.9035.0206h.0235a12.0993 12.0993 0 0 0 7.6416-2.7148A29.9031 29.9031 0 0 0 66 36a.9994.9994 0 0 0-1-1z"/><g fill="none" stroke="#000" stroke-linecap="round" stroke-linejoin="round" stroke-width="2"><path d="M24.595 60.91a11.0687 11.0687 0 0 1-7.0163-2.5114A28.9413 28.9413 0 0 1 7 36h58a28.9427 28.9427 0 0 1-10.6585 22.4642 11.0741 11.0741 0 0 1-7.0309 2.4889L29.7422 60.92"/><path d="M24.595 60.91v2.4312A1.6587 1.6587 0 0 0 26.2537 65h19.74a1.6587 1.6587 0 0 0 1.6587-1.6587v-2.3882"/><path d="M51.2973 28.8323c5.0582 0 9.1586-2.6112 9.1586-5.8323s-4.1-5.8323-9.1586-5.8323c-4.6982 0-8.5665 1.3551-9.0938 4.257h0l-28.4123-.8108a2 2 0 0 0 0 4l28.4181-.0285h0c.5347 2.8967 4.3954 4.2469 9.088 4.2469z"/></g></svg>