<svg xmlns="http://www.w3.org/2000/svg" role="img" viewBox="14.74 7.36 42.15 52.59"><title>1F477-1F3FC.svg</title><path fill="#92D3F5" d="M54.0706 58.8969s2-13.7974-10-13.7974c-3.1919 2.1193-5.9264 3.5838-9 3.5775h.125c-3.0736.0063-5.8082-1.4582-9-3.5775-12 0-10 13.7974-10 13.7974"/><path fill="#61B2E4" d="M43.1009 49.1247c5.4463 2.2601 5.5866 6.8076 6.1478 9.7535h5.0205s2.1603-14.9254-9.6229-14.9254"/><path fill="#E27022" d="M49.1002 58.8968V45.8237l-4.096-.7271c-2.3626 5.5058-5.0143 10.899-6.8354 13.8002h10.9314zm-15.3804 0c-1.8211-2.9012-4.4729-8.2944-6.8355-13.8002l-4.3245.7271v13.0729l11.16.0002z"/><path fill="#F1B31C" d="M46.9269 21.2821l-.04.1c-.38-.13-.79-.26-1.23-.39-2.11-.62-4.99-1.16-8.56-1.16v-2.57h2.89l.06-5.96c6.84 1.21 6.88 9.98 6.88 9.98zm-9.83-4.02v2.57c-.34 0-.68.01-1.03.02h-.16c-.03 0-.06-.01-.08 0-4.02-.11-7.21.47-9.5 1.13v.01c-.59.17-1.12.35-1.59.53l-.09-.24s.05-9.2 7.4-10.06l-.06 6.04h5.11z"/><path fill="#FCEA2B" d="M44.423 58.948l3.488-13.225-1.935-.502-3.789 13.724zm-17.251 0l-3.489-13.225 1.936-.502 3.788 13.724zm12.8749-47.6459l-.06 5.96h-8l.06-6.04c1.59-2.81 7.37-2.07 8 0v.08z"/><g fill="#fcea2b"><path d="M35.8269 19.8521s.04.04.12.11c-.92.79-6.87 5.73-10.22 4.31l-.53-.21c.28-1.09.66-2.12 1.13-3.07v-.01c2.29-.66 5.48-1.24 9.5-1.13zm10.96 4.2l-.62.22c-3.35 1.42-9.3-3.52-10.22-4.31.08-.07.12-.11.12-.11.35-.01.69-.02 1.03-.02 3.57 0 6.45.54 8.56 1.16.47.95.85 1.98 1.13 3.06z"/></g><g><path fill="#debb90" d="M47.0069 25.0321c.21 1.08.32 2.21.32 3.36 0 7.83-5.08 14.18-11.34 14.18s-11.34-6.35-11.34-14.18c0-1.51.19-2.97.55-4.33l.53.21c3.35 1.42 9.3-3.52 10.22-4.31.92.79 6.87 5.73 10.22 4.31l.62-.22c.08.32.16.65.22.98zm-5.02 2c0-1.1-.89-2-2-2-1.1 0-2 .9-2 2 0 1.11.9 2 2 2 1.11 0 2-.89 2-2zm-2.55 9.15c.49-.25.69-.85.45-1.34-.25-.5-.85-.7-1.34-.45-1.72.86-3.39.86-5.11 0-.5-.25-1.1-.05-1.34.45-.25.49-.05 1.09.45 1.34 1.14.57 2.29.86 3.44.86s2.31-.29 3.45-.86zm-5.45-9.15c0-1.1-.89-2-2-2-1.1 0-2 .9-2 2 0 1.11.9 2 2 2 1.11 0 2-.89 2-2z"/></g><g><path fill="none" d="M24.651 45.472l3.489 13.425"/><path d="M54.8066 58.8877c-.0507 0-.1015-.0029-.1523-.0107-.5459-.084-.9209-.5938-.8379-1.1387.0088-.0576.8272-5.7412-2.1289-9.1778-1.4756-1.7148-3.6895-2.6123-6.5859-2.6689-3.3096 2.1846-6.0274 3.5449-9.126 3.5879-.0215.0019-.044.001-.0645.001h-.0673c-.0137-.001-.0274 0-.0411 0-.0146 0-.0293 0-.0439-.001-3.1006-.043-5.8174-1.4033-9.126-3.5879-2.8965.0566-5.1103.9541-6.5859 2.6689-2.9561 3.4366-2.1377 9.1202-2.1289 9.1778.083.5449-.292 1.0547-.8379 1.1387-.5352.083-1.0547-.2901-1.1387-.836-.041-.2695-.9726-6.6328 2.5811-10.7754 1.9228-2.2412 4.7509-3.3769 8.4072-3.3769.1973 0 .3906.0586.5547.1679 3.1523 2.1016 5.6592 3.4092 8.3828 3.4239 2.7226-.0137 5.2295-1.3213 8.3828-3.4239.1641-.1093.3574-.1679.5547-.1679 3.6562 0 6.4844 1.1357 8.4072 3.3769 3.5537 4.1426 2.6221 10.5059 2.5811 10.7754-.0762.4942-.502.8467-.9864.8467z"/><path d="M33.7656 58.8887c-.333 0-.6582-.166-.8476-.4688-1.8311-2.916-4.5157-7.5635-6.9073-13.1367-.2177-.5078.0176-1.0957.5245-1.3135.5068-.2197 1.0957.0166 1.3134.5244 2.3409 5.4551 4.9698 10.0059 6.7627 12.8633.294.4678.1524 1.085-.3154 1.378-.165.1035-.3486.1533-.5303.1533zm4.4473 0c-.1816 0-.3652-.0498-.5303-.1533-.4678-.293-.6094-.9102-.3154-1.378 1.793-2.8574 4.4219-7.4082 6.7627-12.8633.2168-.5078.8066-.7431 1.3135-.5244.5068.2178.7421.8057.5244 1.3135-2.3916 5.5732-5.0762 10.2207-6.9073 13.1367-.1894.3028-.5146.4688-.8476.4688zm-15.6084 0c-.5527 0-1-.4473-1-1V45.6152c0-.5527.4473-1 1-1s1 .4473 1 1v12.2735c0 .5527-.4473 1-1 1zm26.541 0c-.5527 0-1-.4473-1-1V45.6152c0-.5527.4473-1 1-1s1 .4473 1 1v12.2735c0 .5527-.4473 1-1 1zm-9.1586-33.8566c1.11 0 2 .9 2 2 0 1.11-.89 2-2 2-1.1 0-2-.89-2-2 0-1.1.9-2 2-2zm-.1 9.81c.24.49.04 1.09-.45 1.34-1.14.57-2.3.86-3.45.86s-2.3-.29-3.44-.86c-.5-.25-.7-.85-.45-1.34.24-.5.84-.7 1.34-.45 1.72.86 3.39.86 5.11 0 .49-.25 1.09-.05 1.34.45zm-7.9-9.81c1.11 0 2 .9 2 2 0 1.11-.89 2-2 2-1.1 0-2-.89-2-2 0-1.1.9-2 2-2z"/><path fill="none" stroke="#000" stroke-miterlimit="10" stroke-width="2" d="M26.3269 20.9921c-.47.95-.85 1.98-1.13 3.07-.36 1.36-.55 2.82-.55 4.33 0 7.83 5.08 14.18 11.34 14.18s11.34-6.35 11.34-14.18c0-1.15-.11-2.28-.32-3.36-.06-.33-.14-.66-.22-.98-.28-1.08-.66-2.11-1.13-3.06"/><path fill="none" stroke="#000" stroke-linecap="round" stroke-linejoin="round" stroke-miterlimit="10" stroke-width="2" d="M26.3269 20.9921c-.59.17-1.12.35-1.59.53-1.74.64-2.65 1.22-2.65 1.22"/><path fill="none" stroke="#000" stroke-miterlimit="10" stroke-width="2" d="M26.327 20.982v.01"/><path fill="none" stroke="#000" stroke-linecap="round" stroke-linejoin="round" stroke-miterlimit="10" stroke-width="2" d="M49.8869 22.7421s-1.03-.66-3-1.36c-.38-.13-.79-.26-1.23-.39-2.11-.62-4.99-1.16-8.56-1.16-.34 0-.68.01-1.03.02h-.16c-.03 0-.06-.01-.08 0-4.02-.11-7.21.47-9.5 1.13m13.72-9.68v-.08c-.63-2.07-6.41-2.81-8 0l-.06 6.04h8l.06-5.96z"/><path fill="none" stroke="#000" stroke-miterlimit="10" stroke-width="2" d="M24.6469 21.2821s.05-9.2 7.4-10.06m14.88 10.06s-.04-8.77-6.88-9.98c-.16-.03-.34-.06-.51-.08"/><path fill="none" stroke="#000" stroke-linecap="round" stroke-miterlimit="10" stroke-width="2" d="M36.0669 19.8521s-.04.04-.12.11c-.92.79-6.87 5.73-10.22 4.31l-.53-.21h-.01"/><path fill="none" stroke="#000" stroke-linecap="round" stroke-miterlimit="10" stroke-width="2" d="M35.8269 19.8521s.04.04.12.11c.92.79 6.87 5.73 10.22 4.31l.62-.22"/></g></svg>