<svg xmlns="http://www.w3.org/2000/svg" role="img" viewBox="9.37 6.12 51.76 58.76"><title>1F515.svg</title><g id="color" stroke-miterlimit="10" stroke-width="2"><circle cx="35.61" cy="57.772" r="5" fill="#f1b31c" stroke="#f1b31c"/><path fill="#fcea2b" stroke="#fcea2b" stroke-linecap="round" stroke-linejoin="round" d="M56.1048,56.7825c0,0-2.0587-3.7664-3.254-9.5855c-1.3523-6.5836-1.8795-15.5146-2.246-19.4145c-0.7752-8.2479-6.7157-15-15-15 h-0.5c-8.2843,0-14.2248,6.7521-15,15c-0.3665,3.8999-0.8937,12.8309-2.246,19.4145c-1.1953,5.8191-3.254,9.5855-3.254,9.5855 H56.1048z"/></g><g id="line" fill="none" stroke="#000" stroke-linecap="round" stroke-linejoin="round" stroke-width="2"><path d="M30.1048 13.2825c0-2.7614 2.2386-5 5-5 2.7614 0 5 2.2386 5 5M40.0872 60.0005c-.8174 1.6487-2.5176 2.782-4.4824 2.782-1.9659 0-3.6667-1.1345-4.4836-2.7845"/><path stroke-miterlimit="10" d="M53.4639 49.7703c-.2181-.8032-.4261-1.6631-.6131-2.5733-1.3523-6.5836-1.8795-15.5146-2.246-19.4145-.7752-8.2479-6.7157-15-15-15h-.5c-4.9448 0-9.0546 2.4056-11.7293 6.0991M20.2584 26.5641c-.0638.402-.1151.8084-.1536 1.2184-.3665 3.8999-.8937 12.8309-2.246 19.4145-1.1953 5.8191-3.254 9.5855-3.254 9.5855h35.5"/><path d="M11.605 12.783L59.105 60.282"/></g></svg>