<svg xmlns="http://www.w3.org/2000/svg" role="img" viewBox="6.62 7.87 58.63 56.26"><title>2B20.svg</title><path fill="#FFF" d="M34.824 10.451c.701-.509 1.651-.509 2.352 0l25.229 18.33c.701.51.994 1.412.727 2.236l-9.637 29.659c-.268.824-1.036 1.382-1.902 1.382H20.407c-.866 0-1.634-.558-1.902-1.382L8.868 31.017c-.267-.824.026-1.726.727-2.236l25.229-18.33z"/><path fill="none" stroke="#000" stroke-width="2" d="M34.824 10.451c.701-.509 1.651-.509 2.352 0l25.229 18.33c.701.51.994 1.412.727 2.236l-9.637 29.659c-.268.824-1.036 1.382-1.902 1.382H20.407c-.866 0-1.634-.558-1.902-1.382L8.868 31.017c-.267-.824.026-1.726.727-2.236l25.229-18.33z"/></svg>