<svg xmlns="http://www.w3.org/2000/svg" role="img" viewBox="3.50 22.75 65.13 30.38"><title>E0A5.svg</title><path fill="#fcea2b" d="M11.6022 27.0359a2.7339 2.7339 0 0 1 2.5041-1.9354h50.72a1.4722 1.4722 0 0 1 1.4959 1.9354l-5.7117 21.9282A2.7341 2.7341 0 0 1 58.1063 50.9h-50.72a1.4721 1.4721 0 0 1-1.4958-1.9354z"/><path fill="#f1b31c" d="M60.4443 49.6138l3.4947-13.4285A193.6507 193.6507 0 0 1 38.9863 45.14a218.0268 218.0268 0 0 1-28.8 5.76h48.5578a1.7112 1.7112 0 0 0 1.7002-1.2862z"/><path d="M34.006 25.1h9.6l-6.72 25.8h-9.6l6.72-25.8zm15.661 0h9.6l-6.72 25.8h-9.6l6.72-25.8zm-31.321 0h9.6l-6.72 25.8h-9.6l6.72-25.8z"/><path fill="none" d="M11.6022 27.0359a2.7339 2.7339 0 0 1 2.5041-1.9354h50.72a1.4722 1.4722 0 0 1 1.4959 1.9354l-5.7117 21.9282A2.7341 2.7341 0 0 1 58.1063 50.9h-50.72a1.4721 1.4721 0 0 1-1.4958-1.9354z"/><g fill="none" stroke="#000" stroke-linecap="round" stroke-linejoin="round" stroke-width="2"><path d="M10.9891 27.0475a2.6542 2.6542 0 0 1 2.4573-1.947h51.38a1.4939 1.4939 0 0 1 1.5192 1.9413l-5.4285 21.9164A2.6938 2.6938 0 0 1 58.4363 50.9h-51.05a1.5161 1.5161 0 0 1-1.5426-1.947zM38.67 25.101L31.951 50.9m22.05-25.799L47.281 50.9M23.01 25.101L16.29 50.9"/></g></svg>