<svg xmlns="http://www.w3.org/2000/svg" role="img" viewBox="14.84 5.84 42.19 60.19"><title>231B.svg</title><path fill="#fff" d="M35.4423 37.8357h1.0165c7.6245 0 13.8146 6.1901 13.8146 13.8146v6.4581H21.9452v-6.7757c0-7.4492 6.0478-13.4971 13.4971-13.4971z"/><path fill="#fff" d="M36.6007 33.8655h-1.0165c-7.6245 0-13.8146-6.1901-13.8146-13.8146v-6.4581h28.3282v6.7757c0 7.4492-6.0478 13.4971-13.4971 13.4971z"/><path fill="#fff" d="M39.2568 33.55s-2.8222 2.0175-.1707 4.5474c0 0-2.0336-.5557-6.3872.0707 0 0 2.7562-2.0985-.094-4.7294l6.6519.1114z"/><path fill="#9b9b9a" d="M44.0449 43H27.9561C25.1357 45.584 24 49.665 24 52.3184V59h24v-6.6816C48 49.665 46.8643 45.584 44.0449 43z"/><path fill="#a57939" d="M55 11c0 1.1001-.9004 2-2 2H19c-1.0996 0-2-.8999-2-2v-1c0-1.1001.9004-2 2-2h34c1.0996 0 2 .8999 2 2v1zm0 51c0 1.0996-.9004 2-2 2H19c-1.0996 0-2-.9004-2-2v-1c0-1.0996.9004-2 2-2h34c1.0996 0 2 .9004 2 2v1z"/><g fill="none" stroke="#000" stroke-linecap="round" stroke-linejoin="round" stroke-width="2"><path d="M31 34c-7.2725-1.9092-10-9.5454-10-14.3184V13m0 46v-6.6816C21 47.5459 23.7275 39.9092 31 38m0 0c1-.2715 2-.8945 2-2 0-1.1045-1-1.7285-2-2m10 0c7.2725-1.9092 10-9.5454 10-14.3184V13m0 46v-6.6816C51 47.5459 48.2725 39.9092 41 38m0 0c-1-.2715-2-.8945-2-2 0-1.1045 1-1.7285 2-2m14-23c0 1.1001-.9004 2-2 2H19c-1.0996 0-2-.8999-2-2v-1c0-1.1001.9004-2 2-2h34c1.0996 0 2 .8999 2 2v1zm0 51c0 1.0996-.9004 2-2 2H19c-1.0996 0-2-.9004-2-2v-1c0-1.0996.9004-2 2-2h34c1.0996 0 2 .9004 2 2v1zM29 43h14"/></g></svg>