<svg xmlns="http://www.w3.org/2000/svg" role="img" viewBox="13.90 16.15 44.07 39.57"><title>1F519.svg</title><path fill="#3f3f3f" d="M56.25 26.12v5.867H28.41v8.067l-12.66-11 12.84-11.02-.1813 8.089 27.84-.003"/><g fill="none" stroke="#000" stroke-linecap="round" stroke-linejoin="round" stroke-width="2"><path d="M56.25 31.99H28.41v8.067l-12.66-11 12.66-11v8.066h27.84v5.867M34.99 53.94l-4.1-10-4.09 10m1.36-2.4h5.47m15.01-7.16v9.56m0-3.36l5.47-6.2m-2.84 3.21l3.28 6.35m-9.79-.9c-.6237.5544-1.43.86-2.264.8589v0c-.9054.00027-1.774-.3592-2.414-.9993-.6403-.6401-1-1.508-1-2.414v-2.731c.00055-1.885 1.528-3.412 3.413-3.413v0c.8345-.00119 1.64.3046 2.264.8591M21.43 49.1h-3.645v-4.761h3.645c1.315 0 2.38 1.065 2.381 2.38v0c.00027.6316-.2505 1.237-.6971 1.684s-1.052.6974-1.684.6971v0"/><path d="M21.43 53.86h-3.645v-4.761h3.645c1.314.00055 2.379 1.066 2.38 2.38v0c0 1.315-1.065 2.38-2.38 2.381v0"/></g></svg>