<svg xmlns="http://www.w3.org/2000/svg" role="img" viewBox="3.50 20.88 64.87 31.50"><title>1F50B.svg</title><path fill="#d0cfce" d="M59.971 42.7985c0-.5523.4477-1 1-1h4.143v-9.183h-4.143c-.5523 0-1-.4477-1-1m0 0v-7.159H6.662v25.013h53.309v-6.671"/><path fill="#d0cfce" d="M61.083 32.3485c-.5523 0-1-.4477-1-1v-7.159H6.773v25.013h53.313v-6.671c0-.5523.4477-1 1-1h4.143v-9.183h-4.146z"/><path fill="#b1cc33" d="M12.002 45.3665h32.239v-17.007H12.002v17.007z"/><g fill="none" stroke="#000" stroke-linecap="round" stroke-linejoin="round" stroke-width="2"><path d="M61.081 31.3475v-7.159c0-.5523-.4477-1-1-1H6.772c-.5523 0-1 .4477-1 1v25.016c0 .5523.4477 1 1 1h53.313c.5523 0 1-.4477 1-1v-6.674h5.143v-11.183h-5.147z"/><path d="M11 27.36h34.239v19.007H11z"/></g></svg>