<svg xmlns="http://www.w3.org/2000/svg" role="img" viewBox="9.80 19.43 55.64 45.27"><title>1F42C.svg</title><path fill="#9b9b9a" d="M35.546 38.031c-1.0014.10832-4.0792 1.4989-3.8998 5.2083.26209 5.4174-7.6423-3.1345-.98053-11.892"/><path fill="#9b9b9a" d="M12 33.938s-2 4 16 4h8s10-.5 15.5 9.75c.29517.57883.50441 1.2045.62771 1.7365 1.0477 4.0472-5.5475 2.4327-6.6491 5.2532-.40316 1.0322-1.1544 4.1685-.56439 4.5874.0393.0283.0851.0437.13677.0467.19108.009.47061-.16726.86303-.59882 2.0599-1.5336 4.9982.51116 6.9868-.6529.80032-.46845 1.2022-1.2239 1.4915-1.7917.46148.7394 1.075 2.2683 2.1236 2.6224 1.8358.5511 4.5889.37522 5.8969 3.8416 1.1916-3.6368 2.3829-6.2308-2.0593-9.292-1.5604-1.057-3.9503-2.6878-4.0085-4.1251-.009-.1798.39822-10.231-5.5746-18.566.20821-2.2288 1.8232-5.3148 4.1092-5.8167 2.0556-.45133-3.4045-4.5113-11.387-.88331-10.758-6.1609-23.196.0287-23.548 6.7324-3.125-.25-7.8698.23039-7.9948 2.9804"/><path fill="#d0cfce" fill-rule="evenodd" d="M13.96 31.324c-1.243.46701-2.1344 1.2238-2.1875 2.3926l.0508.17579s-1.5608 3.2084 11.084 3.873l7.5.12696h5.416s.76556-.0308 1.9668.125l.17969.004.082.0332c1.8927.27635 4.7352 1.0324 7.5606 3.0234l.3125.125.18945.2461c1.8744 1.4244 3.7096 3.3991 5.209 6.1934.19867.38958.34208.79051.46289 1.1797l.94532 1.2207c-1.149-16.617-15.964-17.629-32.492-18.601-3.434-.236-4.161-.34-6.28-.118z"/><path fill="#9b9b9a" d="M43.469 36.098c-.76004.66098-2.4918 3.5606-.22546 6.5026 3.3099 4.2967-8.0632 1.7931-7.5983-9.2004l.84937-2.9011 9.2997 2.737z"/><g fill="none" stroke="#000" stroke-linecap="round" stroke-linejoin="round" stroke-miterlimit="10" stroke-width="2"><path d="M28.035 37.938c-.44221 5.6934 3.8049 9.3193 3.6113 5.3184-.17947-3.7094 2.899-5.1007 3.9004-5.209l-.08-.109h-7.4316"/><path d="M42.202 39.165c3.0822 1.2277 6.6941 3.6708 9.2976 8.5229.29517.57883.50441 1.2045.62771 1.7365 1.0477 4.0472-5.5475 2.4327-6.6491 5.2532-.40316 1.0322-1.1544 4.1685-.56439 4.5874.0393.0283.0851.0437.13677.0467.19108.009.47061-.16726.86303-.59882 2.0599-1.5336 4.9982.51116 6.9868-.6529.80032-.46845 1.2022-1.2239 1.4915-1.7917.46148.7394 1.075 2.2683 2.1236 2.6224 1.8358.5511 4.5889.37522 5.8969 3.8416 1.1916-3.6368 2.3829-6.2308-2.0593-9.292-1.5604-1.057-3.9503-2.6878-4.0085-4.1251-.009-.1798.39822-10.231-5.5746-18.566.20821-2.2288 1.8232-5.3148 4.1092-5.8167 2.0556-.45133-3.4045-4.5113-11.387-.88331-10.758-6.1609-23.196.0287-23.548 6.7324-3.125-.25-7.8698.23039-7.9697 3.0681.0156.54688-.14674 4.0878 16.025 4.0878h8s.01921-.00096.05642-.0019"/><path d="M43.469 36.098c-.76004.66098-2.4918 3.5606-.22546 6.5026 3.3099 4.2967-8.0632 1.7931-7.5983-9.2004"/></g></svg>