<svg xmlns="http://www.w3.org/2000/svg" role="img" viewBox="9.70 11.45 52.47 54.34"><title>1FAB0.svg</title><path fill="#3f3f3f" d="M40.2451 32.9176h-8.5328c3.2564 11.704-1.0771 20.0171-1.0771 20.0171l1.1848 2.0015c.5108.8526 2.3242 3.6358 4.18 3.6358 1.8457 0 3.7158-2.7725 4.2451-3.6211l1.1885-1.8978s-3.8923-7.5849-1.1885-20.1355z"/><path fill="#d22f27" d="M29.9766 22.8725a5.0792 5.0792 0 1 1 5.1463-5.0787 5.1185 5.1185 0 0 1-5.1463 5.0787zm5.8625-5.0975a5.161 5.161 0 1 1 5.16 5.0665 5.1194 5.1194 0 0 1-5.16-5.0665z"/><path fill="#d0cfce" d="M17.6953 60.0554a7.809 7.809 0 0 1-3.9014-.9209 5.7966 5.7966 0 0 1-2.8457-3.9756c-.3447-1.2315-1.4648-9.1963 17.61-30.9307a1.018 1.018 0 0 1 .9238-.3262 1 1 0 0 1 .7588.62 63.5309 63.5309 0 0 1 3.4727 13.9316c.855 7.0692-.1541 12.4784-2.93 15.968a11.2475 11.2475 0 0 1-4.22 3.27 22.3942 22.3942 0 0 1-8.8682 2.3638zm36.5986 0a22.3764 22.3764 0 0 1-8.8671-2.3633c-5.878-2.6631-8.3516-9.3154-7.1514-19.2383a63.5591 63.5591 0 0 1 3.4726-13.9316 1 1 0 0 1 .7579-.62 1.0123 1.0123 0 0 1 .9248.3262c19.0752 21.7344 17.955 29.6992 17.61 30.9307a5.7962 5.7962 0 0 1-2.8457 3.9756 7.8087 7.8087 0 0 1-3.9011.9207z"/><path d="M35.5107 34.5954H35.51c-.0254 0-.0889-.002-.1153-.0039-4.2832-.2041-6.8183-4.4844-7.5039-12.7227a4.4428 4.4428 0 0 1 1.01-3.2841c1.916-2.2891 5.8418-2.4053 6.6094-2.4053h.97c.7676 0 4.6943.1162 6.6094 2.4053A4.4424 4.4424 0 0 1 44.1 21.8679c-.6885 8.2392-3.2236 12.52-7.5342 12.7255z"/><g fill="none" stroke="#000" stroke-linecap="round" stroke-width="2"><path stroke-linejoin="round" d="M39.3963 54.4212S37.4338 57.5718 36 57.5718s-3.322-3.1506-3.322-3.1506m-1.4604-23.5053c2.1195 8.0259 4.1409 21.6941-5.0676 25.865-13.3088 6.0279-14.2239-1.844-14.2239-1.844s-2.5216-7.3556 17.3456-30.0053m11.5412 5.83c-2.134 8.004-4.2411 21.8216 5.0267 26.0193 13.3087 6.0279 14.2239-1.844 14.2239-1.844s2.5215-7.3557-17.3461-30.0059m-16.7032-5.833a4.1674 4.1674 0 1 1 8.1116-1.7954m10.855 1.7954a4.1674 4.1674 0 1 0-8.1116-1.7954"/><path stroke-miterlimit="10" d="M29.469 54.421l.508 3.058-4.102 6.328m16.799-9.221l-.48 2.893 4.101 6.328"/><path stroke-linejoin="round" d="M34.0092 33.3341a3.9639 3.9639 0 0 1-1.59-1.0147c-1.91-1.7455-3.0941-5.2687-3.5324-10.534a3.4564 3.4564 0 0 1 .7809-2.559c1.6648-1.99 5.4193-2.0472 5.8419-2.0472h.97c.4225 0 4.1771.0571 5.8419 2.0472a3.4569 3.4569 0 0 1 .7809 2.559c-.4388 5.257-1.62 8.7774-3.5245 10.5258a5.8964 5.8964 0 0 1-1.5979 1.0229"/><path stroke-miterlimit="10" d="M15.545 15.444l4.213 8.444 6.688 4.341m29.881-12.785l-4.214 8.444-6.61 4.291"/></g></svg>