<svg xmlns="http://www.w3.org/2000/svg" role="img" viewBox="6.92 9.92 50.03 56.03"><title>1F3C2-1F3FB.svg</title><g fill="#fadcbc"><circle cx="26.969" cy="15.094" r="3"/><path d="M38.5 22c2.5 9 5.7383 17.0801 5.7383 17.0801l-3.9649 3.5351-2.2412 13.5108L34 55l.5117-15.3643-.6113-.2353-5.3945.0801L23 48l-4-1 4.1113-11.5908L30.8154 33 29.5 29 28 28h-1s-2.333.875-9.333 12.875c-1.5918 2.7295-3.209.833-3.209.833C14.792 40.958 26 24 26 24l11-5h19s0 3-3 3H40c-2 0 0 2 0 2"/></g><g fill="none" stroke="#000" stroke-miterlimit="10" stroke-width="2"><circle cx="26.969" cy="15.094" r="3"/><path stroke-linecap="round" stroke-linejoin="round" d="M15 41l6.5195-11.4092c1.3643-2.3872 3.8301-5.2969 5.4805-6.4658 1.6504-1.1689 4.3496-2.5752 6-3.125 1.6504-.5498 5.25-1 8-1h14"/><path stroke-linecap="round" stroke-linejoin="round" d="M38.5 23l3.625 8.0625c1.4648 3.2578 1.6533 4.9502 1.6533 4.9502.1221 1.0928-.3437 2.6875-1.0351 3.543l-1.2129 1.5039c-.6914.8554-1.4043 2.4433-1.584 3.5283l-1.5869 9.5654c-.1797 1.085-1.1944 1.7305-2.2539 1.4346l-.1787-.0498c-1.0596-.2959-1.8965-1.4375-1.8604-2.5371l.3789-11.3662c.0361-1.0996-.0713-2.0518-.2392-2.1172-.168-.0645-1.2061-.1035-2.3057-.0879l-1.3945.0215c-1.0996.0156-2.4883.7851-3.086 1.709l-3.334 5.1601c-.5976.9238-1.9589 1.461-3.0263 1.1943l-.1192-.0292c-1.0674-.2666-1.6396-1.334-1.2715-2.3702l2.7735-7.8213c.3681-1.0361 1.5283-2.1533 2.5781-2.4814l3.8858-1.2158c1.0498-.3281 1.6279-1.4512 1.2841-2.4971l-.0654-.1992c-.3437-1.0459-.9629-2.1255-1.375-2.4004-.4121-.2749-.75-.5-.75-.5m17 36h-1c-.5498 0-2.1699-.6738-3.5996-1.4971L12.5996 46.4971C11.1699 45.6738 9.7754 44.5498 9.5 44S9 43 9 43"/></g></svg>