<svg xmlns="http://www.w3.org/2000/svg" role="img" viewBox="12.08 12.08 47.71 47.71"><title>1F3F9.svg</title><path fill="none" stroke="#a57939" stroke-linecap="round" stroke-linejoin="round" stroke-width="2.8" d="M51.88 55.5863A27.0167 27.0167 0 0 0 16.3837 20.09"/><path fill="#d22f27" d="M31.1285 40.8418l-7.098 7.098v6.8521a.6024.6024 0 0 0 1.0283.4259l5.8933-5.8933a.6027.6027 0 0 0 .1764-.4259z"/><path fill="#ea5a47" d="M31.1285 40.8418l-7.098 7.098h-6.8521a.6024.6024 0 0 1-.4259-1.0283l5.8933-5.8933a.6027.6027 0 0 1 .4259-.1764z"/><g><g fill="none" stroke="#000" stroke-width="2"><path stroke-linecap="round" stroke-linejoin="round" d="M19.228 21.517l31.226 31.225"/><path stroke-miterlimit="10" d="M50.2183 57.2486a2.3515 2.3515 0 0 1-.4964-2.5908 24.6677 24.6677 0 0 0-32.41-32.41 2.3493 2.3493 0 0 1-1.8567-4.3162 29.3663 29.3663 0 0 1 38.5829 38.5829 2.3526 2.3526 0 0 1-3.82.7341z"/><path stroke-linecap="round" stroke-linejoin="round" d="M57.966 14.064L22.158 49.872m30.438-35.808h5.37v5.089"/></g></g></svg>