<svg xmlns="http://www.w3.org/2000/svg" role="img" viewBox="14.84 5.84 42.19 60.19"><title>23F3.svg</title><path fill="#fff" d="M35.498 37.967h1.0165c7.6245 0 13.8146 6.1901 13.8146 13.8146v6.4581H22.0009V51.464c0-7.4492 6.0478-13.4971 13.4971-13.4971z"/><path fill="#fff" d="M36.657 33.9962h-1.0165c-7.6245 0-13.8146-6.1901-13.8146-13.8146v-6.4581h28.3282v6.7757c0 7.4492-6.0478 13.4971-13.4971 13.4971z"/><path fill="#fff" d="M39.3125 33.6813s-2.8222 2.0175-.1707 4.5474c0 0-2.0336-.5557-6.3872.0707 0 0 2.7562-2.0985-.094-4.7294l6.6519.1114z"/><path fill="#9b9b9a" d="M40.2139 31.1055c.0039-.002.0068-.002.0107-.002.0049-.0019.0088-.0039.0137-.0058C45.8926 29.6133 48 23.3076 48 19.6816V18H24v1.6816c0 3.626 2.1074 9.9317 7.7617 11.4161.0049.0019.0088.0039.0137.0058.0039 0 .0068 0 .0107.002 1.792.4863 3.0996 1.5361 3.7491 2.8945h.9296c.6495-1.3584 1.9571-2.4082 3.7491-2.8945zM47 55c-6.0742 0-11-4.9258-11-11 0 6.0742-4.9258 11-11 11h-1v4h24v-4h-1z"/><path fill="#a57939" d="M55 11c0 1.1001-.9004 2-2 2H19c-1.0996 0-2-.8999-2-2v-1c0-1.1001.9004-2 2-2h34c1.0996 0 2 .8999 2 2v1zm0 51c0 1.0996-.9004 2-2 2H19c-1.0996 0-2-.9004-2-2v-1c0-1.0996.9004-2 2-2h34c1.0996 0 2 .9004 2 2v1z"/><g fill="none" stroke="#000" stroke-linecap="round" stroke-linejoin="round" stroke-width="2"><path d="M31 34c-7.2725-1.9092-10-9.5454-10-14.3184V13m0 46v-6.6816C21 47.5459 23.7275 39.9092 31 38m0 0c1-.2715 2-.8945 2-2 0-1.1045-1-1.7285-2-2m10 0c7.2725-1.9092 10-9.5454 10-14.3184V13m0 46v-6.6816C51 47.5459 48.2725 39.9092 41 38m0 0c-1-.2715-2-.8945-2-2 0-1.1045 1-1.7285 2-2M25 55c6.0742 0 11-4.9258 11-11 0 6.0742 4.9258 11 11 11m8-44c0 1.1001-.9004 2-2 2H19c-1.0996 0-2-.8999-2-2v-1c0-1.1001.9004-2 2-2h34c1.0996 0 2 .8999 2 2v1zm-8 7H25m30 44c0 1.0996-.9004 2-2 2H19c-1.0996 0-2-.9004-2-2v-1c0-1.0996.9004-2 2-2h34c1.0996 0 2 .9004 2 2v1zM36 39v5"/></g></svg>