<svg xmlns="http://www.w3.org/2000/svg" role="img" viewBox="3.62 29.74 65.26 27.39"><title>1F40A.svg</title><g stroke-linecap="round" stroke-linejoin="round" stroke-miterlimit="10" stroke-width="2"><path fill="#5C9E31" stroke="#5C9E31" d="M46 52s17 2 19 0v-1s3-3 1-4-5 0-5 0-2.9167-1.3333-6.4583-4.6667C54.5417 42.3333 53 41 51 43c0 0-2-3-8-3s-24 1-24 1-6-1 0-3 11-2 12 0c0 0-2.6667-8.4167-17.3333-5.2083C13.6667 32.7917 1 36 8 48c0 0 2 4 8 4h30z"/><path fill="#B1CC33" stroke="#B1CC33" d="M23 47s-4.8121 4-3.406 5S23 55 23 55h4l-3.0324-3S26 51 27 49s0-3.2403 0-3.2403M40 47s-4.8121 4-3.406 5S40 55 40 55h4l-3.0324-3S43 51 44 49s0-3.2403 0-3.2403"/></g><g fill="none" stroke="#000" stroke-linecap="round" stroke-linejoin="round" stroke-miterlimit="10" stroke-width="2"><path d="M29 52h4m13 0s17 2 19 0v-1s3-3 1-4-5 0-5 0-2.9167-1.3333-6.4583-4.6667C54.5417 42.3333 53 41 51 43c0 0-2-3-8-3s-24 1-24 1-6-1 0-3 11-2 12 0c0 0-2.6667-8.4167-17.3333-5.2083C13.6667 32.7917 1 36 8 48c0 0 2 4 8 4"/><path d="M23 47s-4.8121 4-3.406 5S23 55 23 55h4l-3.0324-3S26 51 27 49s0-3.2403 0-3.2403M40 47s-4.8121 4-3.406 5S40 55 40 55h4l-3.0324-3S43 51 44 49s0-3.2403 0-3.2403"/></g></svg>