<svg xmlns="http://www.w3.org/2000/svg" role="img" viewBox="1.68 1.68 68.51 68.51"><title>1F30A.svg</title><path fill="#92D3F5" d="M4 28.1891C4 14.817 14.2855 3.9774 27.8365 3.9774 15 19.3437 26.25 43.7216 56.4 41.5631c4.2563-.3047 8.9466-1.7777 12.5933-3.7244v30.0865c0 .5583-.4525 1.0108-1.0108 1.0109L4 68.9578V28.1891"/><path fill="#61B2E4" d="M21.7843 10.0119c-3.8217 7.178-5.9507 21.1275 6.5553 33.3435 0 0 10.2391 12.649 40.6537 4.8847V37.3494s-11.1064 7.5922-27.5251 2.3384c-15.3849-4.923-19.4254-16.5267-18.9093-20.7668.1825-1.4994.7878-6.0417.7878-6.0417s.8388-3.0147.5454-3.801c-.3396-.9104-1.8341.4196-2.1078.9336z"/><path fill="#92D3F5" d="M44.857 9.7223c1.6744 1.9066 1.5785 4.7217-.2101 6.2925s-4.5959 1.2984-6.2703-.6082c0 0-2.0702-2.2858-3.0178-8.8759 0 0-.2509-1.3199.9788-.9606 6.4126 1.7907 8.5194 4.1522 8.5194 4.1522"/><path fill="#61B2E4" d="M35.4101 6.0551c4.3534-.5992 9.1662 3.3883 9.1662 3.3883 2.1331 2.429 1.859 5.0003.0704 6.571-.0001 0-.9978-5.4421-9.2366-9.9593"/><g fill="none" stroke="#000" stroke-linecap="round" stroke-linejoin="round" stroke-miterlimit="10"><path stroke-width="2" d="M68 47.89580000000001v20.0625H4v-40.125C4 13.1478 13.579 4 27.8364 3.9969"/><path stroke-width="2" d="M68 37.5064C64.3533 39.4229 60.6563 40.7 56.4 41 26.25 43.125 15 19.125 27.8364 3.9969"/><path stroke-width="2" d="M68 47.8958c-4.8333 2.6875-11.25 3.3715-19.0158 2.9878-34.9931-3.2582-37.6029-36.4995-21.1478-46.8867"/><path stroke-width="1.9" d="M44.857 9.7223c1.6744 1.9066 1.5785 4.7217-.2101 6.2925s-4.5959 1.2984-6.2703-.6082c0 0-2.0702-2.2858-3.0178-8.8759 0 0-.2509-1.3199.9788-.9606 6.4126 1.7907 8.5194 4.1522 8.5194 4.1522"/><path stroke-width="2" d="M63.875 63.2775c-3.4238 0-3.4238-2.055-6.8475-2.055-3.4219 0-3.4219 2.055-6.8438 2.055-3.4249 0-3.4249-2.055-6.8498-2.055-3.4272 0-3.4272 2.055-6.8545 2.055s-3.4272-2.055-6.8545-2.055"/></g></svg>