<svg xmlns="http://www.w3.org/2000/svg" role="img" viewBox="15.15 5.02 42.59 63.96"><title>1F469-1F3FF-200D-1F37C.svg</title><g id="color"><path fill="#B399C8" d="M41.0089,54.0039H28.7462c-0.2505,0.0001-0.4919-0.0941-0.6762-0.2639l-7.4307-6.834 c-0.2967-0.2728-0.4007-0.697-0.2637-1.0761c1.4776-4.0947,2.5049-6.8242,3.0547-8.1113c0.7183-1.5602,2.3008-2.5388,4.0176-2.4844 c0.1562-0.0137,0.3105-0.0264,0.4609-0.0449c0.8209-0.0927,1.6493,0.0915,2.3535,0.5234c1.714,1.071,3.6957,1.636,5.7168,1.63 h0.9961c2.0252-0.014,4.0085-0.5777,5.7383-1.6309c0.7045-0.4311,1.5327-0.615,2.3535-0.5224 c0.15,0.0185,0.3047,0.0312,0.46,0.0449c1.6993-0.0596,3.2708,0.8986,3.9961,2.4365c1.0136,2.3682,3.1191,8.1963,4.7119,12.6777 c0.1849,0.5204-0.0871,1.0922-0.6075,1.2771c-0.0486,0.0173-0.0985,0.0308-0.1493,0.0403l-12.2832,2.32 C41.1337,53.9978,41.0714,54.0038,41.0089,54.0039z"/><path fill="#B1CC33" d="M36.9777,50.8835c-1.1792-0.2084-2.3708-0.3382-3.5672-0.3886c0.9485,4.4521-1.8918,8.8301-6.3439,9.7785 c-2.0886,0.445-4.2684,0.0619-6.0802-1.0685c0.6659,1.659,1.7913,3.0935,3.2442,4.1351c2.8993,2.1116,6.2588,3.5044,9.8017,4.0635 c1.5463,0.2793,3.1143,0.4218,4.6856,0.4258c6.14,0,10.8838-2.3282,11.5488-6.0537C51.0919,57.1433,45.254,52.3591,36.9777,50.8835 z"/><path fill="#92D3F5" d="M36.3234,50.6836c-1.1487-0.0002-2.1716-0.7269-2.55-1.8115l-0.79-2.2754 c-0.4858-1.4062,0.2575-2.9403,1.6621-3.4307l8.583-2.9795c1.406-0.4877,2.9414,0.2557,3.4307,1.6612l0.79,2.2773 c0.4864,1.406-0.2572,2.9404-1.6621,3.43l-8.583,2.98C36.9209,50.6335,36.6232,50.6838,36.3234,50.6836z"/><circle cx="33.278" cy="47.683" r="2" fill="#F1B31C"/></g><g id="skin" fill="#6a462f"><path d="M25.3321 60.4707c-4.5602 0-8.2569-3.6967-8.2569-8.2569s3.6967-8.2569 8.2569-8.2569c4.5602 0 8.2569 3.6967 8.2569 8.2569 0 0 0 .0001 0 .0001C33.5838 56.7719 29.8901 60.4655 25.3321 60.4707zM56.0392 55.4707c0 0-.8418-2.415-1.9424-5.5088-.0161-.0303-.0338-.0598-.0531-.0882-.0101-.0334-.022-.0662-.0358-.0983-.0178-.0292-.0466-.0454-.0667-.0721-.0394-.0523-.084-.1004-.1331-.1437-.0483-.0437-.1008-.0823-.1569-.1153-.0519-.0299-.1065-.0549-.163-.0747-.0622-.023-.1267-.0395-.1923-.0493-.0596-.0084-.1199-.011-.18-.008-.0679.0024-.1353.012-.2012.0286-.0318.0029-.0635.0075-.0949.0136-.0305.0161-.06.0338-.0885.0532-.0333.0101-.0661.022-.0981.0357-1.5917.815-3.3702 1.1959-5.1561 1.1044-1.2471-2.0232-2.5471-3.9678-3.251-5.1871-.4548-1.0514-1.6452-1.5723-2.7261-1.1927-1.357.4551-2.0882 1.9241-1.6332 3.2811.0198.0591.0417.1174.0658.1749 3.0694 7.3545 7.545 15.8018 11.9053 15.8018.2952 0 .5892-.0395.874-.1172.0185-.005.0313-.0186.0492-.0245.02-.0066.04-.0037.06-.0116 1.4602-.5081 2.6442-1.599 3.27-3.0127C56.6507 58.7092 56.6323 57.0088 56.0392 55.4707z"/><path d="M32.6124 61.9365l-8.9951-3.6992c-.0184-.0076-.0378-.0045-.0564-.0109-.0134-.0046-.0227-.0152-.0364-.0194-2.3222-.7046-4.0297-2.6853-4.3845-5.0859-.0114-.0406-.0255-.0804-.0423-.1191-.0172-.0767-.0435-.1512-.0783-.2217-.0357-.0568-.0771-.1099-.1236-.1582-.0844-.1218-.2062-.2128-.3469-.2591-.0283-.0183-.0575-.035-.0876-.05-.0065-.0021-.013 0-.0195-.0022-.078-.019-.1581-.0281-.2384-.0271-.0546-.007-.1098-.0095-.1648-.0074-.0107.0014-.0206-.0032-.0314-.0014-.0508.0134-.1004.0311-.1482.0528-.0646.016-.1274.0384-.1875.0669-.1034.0738-.2011.1554-.2922.2439-.0457.0626-.084.1302-.1141.2016-.0242.0366-.0458.0749-.0647.1145-.0058.0177-.0093.0333-.0149.0509l-.0029.01c-2.0249 6.2905.6584 8.2628.95 8.4536 3.9688 2.4534 8.3081 4.249 12.85 5.3174 1.3214.3415 2.68-.4061 3.0987-1.7051C34.4914 63.8101 33.8505 62.438 32.6124 61.9365zM26.8428 22.2074c.0276.2543.0614.5098.1014.7664 1.02 6.52 5.7549 11.1941 10.5753 10.44S45.42 26.7623 44.4 20.2423c-3.5124.5439-6.9891-1.1707-8.6957-4.2884-2.1315 2.6425-5.1947 5.5064-8.8524 6.2527M35.3022 45.0548l8.581-2.9785c.0347-.0122.0703-.0216.1065-.0283.0276-.0052.0481-.023.0747-.03.1226-.0357.2382-.092.3418-.1665.0552-.0438.1055-.0933.15-.1479.036-.0396.0687-.0822.0976-.1272.033-.0587.0598-.1206.08-.1848.0217-.0553.0381-.1126.049-.171.0034-.0206.0152-.0374.0171-.0585.1604-1.6469.2002-3.3033.1192-4.956-.0251-.0692-.0374-.1423-.0362-.2159-.0133-.0294-.0282-.0581-.0446-.0859-.0505-.1205-.122-.231-.2111-.3266-.0406-.0404-.0847-.0772-.1316-.11-.0543-.04-.1125-.0743-.1738-.1024-.1176-.0491-.2427-.0778-.37-.085-.0311-.0012-.059-.0148-.09-.0131-.0345.0071-.0685.0161-.1019.027-.0378.0005-.0755.0032-.1129.0081-.3282.0939-.6422.2315-.9336.4092-1.7298 1.0532-3.7131 1.6169-5.7383 1.6309H35.979c-2.0211.006-4.0028-.559-5.7168-1.63-.3961-.2432-.8344-.4099-1.292-.4912-.4512-.0774-.896.1674-1.072.59-.0083.0158-.0119.033-.0193.0493-.0278.0546-.0502.1118-.0669.1708-.0046.0261.0044.05.0019.0763-.0107.0326-.0195.0658-.0263.0995-.2162 3.6968.2609 7.4015 1.4069 10.9229L35.3022 45.0548z"/></g><g id="hair"><path d="M49.8032,20.8232c-0.4189-9.0351-5.4658-14.4619-13.5068-14.5166h-0.5811 c-8.2275,0.0557-13.2822,5.6739-13.5195,15.0557v19.709c0,0.0068,0.0037,0.0123,0.0039,0.0191 c0.0061,0.079,0.0219,0.1571,0.0469,0.2324c0.008,0.0505,0.0198,0.1004,0.0354,0.1491c0.0298,0.0549,0.0648,0.1069,0.1045,0.1552 c0.0323,0.0565,0.0701,0.1096,0.1129,0.1587c0.0386,0.0303,0.0793,0.0577,0.1218,0.0821c0.0632,0.0515,0.1325,0.0948,0.2064,0.1291 c0.006,0.0024,0.01,0.0076,0.0158,0.01c0.2257,0.088,0.4766,0.0859,0.7009-0.0058c0.0345-0.0142,0.0682-0.0303,0.1008-0.0485 c0.072-0.0366,0.1392-0.082,0.2-0.135c0.0296-0.0243,0.0577-0.0504,0.0842-0.078c0.0579-0.0652,0.1068-0.1378,0.1455-0.2159 c0.0146-0.0282,0.0342-0.0519,0.0462-0.0815c0.0027-0.0067,0.0078-0.0115,0.01-0.0182c0.4991-1.3242,0.8848-2.3066,1.125-2.872 c0.5733-1.1689,1.2891-1.23,2.3731-1.3252c0.1777-0.0157,0.3525-0.03,0.5234-0.0508c0.3762-0.0427,0.7556,0.0438,1.0762,0.2451 c2.035,1.2639,4.3845,1.9298,6.78,1.9219h0.9531c2.4022,0.0065,4.7582-0.6597,6.8015-1.923 c0.3209-0.2006,0.7002-0.2867,1.0762-0.2441c0.1708,0.02,0.3457,0.0351,0.5234,0.0508c1.084,0.0947,1.8,0.1562,2.3506,1.2734 l0.165,0.3975l0.0032,0.0047c0.0505,0.1218,0.1246,0.2324,0.218,0.3254c0.0083,0.0081,0.02,0.0112,0.0282,0.019 c0.1833,0.1695,0.4224,0.2659,0.672,0.271l0.0044,0.001c0.126-0.0261,0.2523-0.0508,0.3789-0.0743l0.0046-0.0031 c0.1215-0.0502,0.2318-0.1239,0.3247-0.2169c0.0209-0.0275,0.0403-0.0562,0.0579-0.0859c0.0628-0.07,0.1154-0.1486,0.156-0.2334 c0.0504-0.121,0.0765-0.2508,0.0769-0.3819l0.001-0.0045L49.8032,20.8232z M37.5195,33.4138 c-4.8204,0.7541-9.5554-3.92-10.5753-10.44c-0.04-0.2566-0.0738-0.512-0.1014-0.7664l0.0092-0.0009 c3.6577-0.7463,6.7209-3.6102,8.8524-6.2527c1.7066,3.1177,5.1833,4.8323,8.6957,4.2884 C45.42,26.7623,42.3399,32.6597,37.5195,33.4138z"/></g><g id="line" fill="none" stroke="#000" stroke-linecap="round" stroke-linejoin="round" stroke-width="2"><path d="M26.8428,22.2074 c0.0276,0.2543,0.0614,0.5098,0.1014,0.7664c1.02,6.52,5.7549,11.1941,10.5753,10.44S45.42,26.7623,44.4,20.2423 c-3.5124,0.5439-6.9891-1.1707-8.6957-4.2884c-2.1315,2.6425-5.1947,5.5064-8.8524,6.2527z"/><path d="M48.7954 38.1114V20.8693c-.32-6.9079-3.6992-13.5032-12.5083-13.5627h-.5742c-9.0183.0609-12.3458 6.9719-12.526 14.0555V33.49M43.8047 41.0662c.1548-1.5954.1938-3.1999.1166-4.8009M28.7853 36.2653c-.2007 3.5568.2552 7.1202 1.3447 10.512"/><path d="M21.3154,46.17 c1.2325-3.4161,2.4138-6.6069,3.0343-8.0586c0.9436-1.9239,2.4321-1.7805,3.6765-1.9283c0.5984-0.0686,1.2025,0.0662,1.7149,0.3828 c1.8808,1.1622,4.048,1.7775,6.2589,1.7771h0.9747c2.2109,0.0004,4.3781-0.6149,6.2589-1.7771 c0.5124-0.3166,1.1165-0.4514,1.7149-0.3828c1.2444,0.1478,2.7329,0.0044,3.6765,1.9283c1.65,3.86,6.47,17.6883,6.47,17.6883 s1.9655,4.6809-2.6193,6.5336l-0.0256,0.01c-4.3985,1.1911-9.8744-10.9633-11.6493-15.2351"/><circle cx="25.332" cy="52.214" r="7.257"/><path d="M18.7 60.646c3.9547 2.4286 8.2777 4.1986 12.8 5.2409M41.2136 48.0844L36.8761 49.59c-.8845.3041-1.8485-.1631-2.1578-1.0458l-.79-2.2759c-.3044-.8845.1628-1.8487 1.0457-2.1578l8.5828-2.9794c.8845-.3041 1.8485.1631 2.1578 1.0458l.79 2.2759M32.552 51.4807c1.4253.0167 2.8467.1519 4.2495.4043 2.6408.4457 5.1862 1.339 7.5264 2.6413M46.5572 50.9868c1.4492 2.3905 3.0979 4.6542 4.9284 6.7669"/><path d="M31.3262 48.1222c-.2415-1.0788.4373-2.149 1.5161-2.3905.3292-.0737.6718-.063.9957.0312M34.88 48.8811c-.6614.8846-1.9147 1.0656-2.7994.4042-.0602-.045-.1179-.0935-.1727-.145"/></g></svg>