<svg xmlns="http://www.w3.org/2000/svg" role="img" viewBox="20.34 4.96 30.95 60.58"><title>E0A0.svg</title><path fill="#ea5a47" d="M49.153 32.349v1.992l-13.305-7.649-13.306 7.649v-1.992L35.848 8.288l13.305 24.061z"/><path fill="#d22f27" d="M22.542 32.349l13.166-11.202 13.445 11.202v1.992l-13.305-7.649-13.306 7.649v-1.992z"/><path fill="#9b9b9a" d="M47.8224 40.5722v22.0133a.8892.8892 0 0 1-.9319.8608h-9.537a1.5437 1.5437 0 0 1-1.2906-.8608l-5.5214-15.7031v15.7031a.8893.8893 0 0 1-.9323.8608h-4.8758a.8286.8286 0 0 1-.86-.8608V40.5722a.8286.8286 0 0 1 .86-.8608H34.27a1.6608 1.6608 0 0 1 1.3624.8608l5.5214 15.9183V40.5722a.8287.8287 0 0 1 .8605-.8608h4.8761a.8892.8892 0 0 1 .932.8608z"/><g fill="none" stroke="#000" stroke-linecap="round" stroke-width="2"><path d="M47.8224 40.5722v22.0133a.8892.8892 0 0 1-.9319.8608h-9.537a1.5437 1.5437 0 0 1-1.2906-.8608l-5.6393-15.7031h-.542l.66 15.7031a.8893.8893 0 0 1-.9323.8608h-4.8759a.8286.8286 0 0 1-.86-.8608V40.5722a.8286.8286 0 0 1 .86-.8608H34.27a1.6608 1.6608 0 0 1 1.3624.8608l5.39 15.9183h.4612l-.33-15.9183a.8287.8287 0 0 1 .8605-.8608h4.8761a.8892.8892 0 0 1 .9322.8608zm1.3306-8.2232v1.992l-13.305-7.649-13.306 7.649v-1.992L35.848 8.288l13.305 24.061z"/></g></svg>