<svg xmlns="http://www.w3.org/2000/svg" role="img" viewBox="2.72 2.72 66.43 66.43"><title>E2C2.svg</title><path fill="#92d3f5" d="M4 4h64v64H4z"/><path fill="#61b2e4" d="M9.8841 36.7741l-.5426.8373a6.0551 6.0551 0 0 0-.2276 6.2048l4.3153 7.8676a6.0542 6.0542 0 0 0 1.68 1.9353l5.5939 4.1878a6.0555 6.0555 0 0 0 3.4784 1.2059l16.9842.4217a6.0538 6.0538 0 0 0 1.8788-.25l11.4443-3.4089a6.0552 6.0552 0 0 0 3.5274-2.7967l5.3386-9.3336a6.0549 6.0549 0 0 0-1.6048-7.8368"/><path fill="#fff" d="M20.039 25.833L9.884 32.48l4.176 8.353 8.19 6.132h19.71l13.227-4.578 6.563-11.579-13-7.975-18.25 5.75-10.461-2.75z"/><path fill="#fff" d="M9.884 32.48v7l4.176 8.353 8.19 6.132h19.71l13.227-4.578 6.563-11.579v-7"/><path fill="#fff" d="M33.25 53.965l1.125-3.007-1.5-1.375 1.062-2.618M30.5 28.5833l4.1875 5.3125L31.5 37.5833l1.0938 3.25-1.7813 2.125a32.0088 32.0088 0 0 0 1.125 4.0065"/><g fill="none" stroke="#000" stroke-linecap="round" stroke-linejoin="round" stroke-width="2"><path d="M20.039 25.833L9.884 32.48l4.176 8.353 8.19 6.132h19.71l13.227-4.578 6.563-11.579-13-7.975-18.25 5.75-10.461-2.75z"/><path d="M9.884 32.48v7l4.176 8.353 8.19 6.132h19.71l13.227-4.578 6.563-11.579v-7"/><path d="M33.25 53.965l1.125-3.007-1.5-1.375 1.062-2.618M30.5 28.5833l4.1875 5.3125L31.5 37.5833l1.0938 3.25-1.7813 2.125a32.0088 32.0088 0 0 0 1.125 4.0065"/></g></svg>