<svg xmlns="http://www.w3.org/2000/svg" role="img" viewBox="14.38 7.25 49.12 58.37"><title>1F990.svg</title><path fill="#D22F27" d="M36.5 57.5s-5-1-5-4c0-2.8125 7.9101.5273 8.8989 2.6038.0659.1384.1011.2712.1011.3962 0 2-1 6-7 7s3-6 3-6z"/><path fill="#EA5A47" stroke="#EA5A47" stroke-linecap="round" stroke-linejoin="round" stroke-miterlimit="10" stroke-width="2" d="M47.178 54.03c-1.3044.39127-2.6095.78278-3.3603 1.2889-.75083.5062-.94659 1.126-.80964 1.7622.137.63615.6056 1.288 3.2108 1.3465 2.6051.0585 7.3467-.4753 10.602-3.4643l2.5162-5.0458z"/><path fill="#D22F27" stroke="#D22F27" stroke-linecap="round" stroke-linejoin="round" stroke-miterlimit="10" stroke-width="2" d="M48.646 48.156c-.42434.9467-.84848 1.8928-.58684 2.8066.2617.9138 1.2078 1.7947 2.5127 2.0388 1.3049.24413 2.9688-.14738 4.632-.53872l4.5754-1.7692 1.1496-4.9322-.40792-5.5997-4.2276 4.3388-4.7097 1.6317-1.6688-.03709z"/><path fill="#EA5A47" stroke="#EA5A47" stroke-linecap="round" stroke-linejoin="round" stroke-miterlimit="10" stroke-width="2" d="M47.275 41.305c.0979 1.5998.1958 3.1984 1.2566 3.9483s3.0836.65199 4.6982.01578c1.6146-.6362 2.8217-1.8108 4.0289-2.9853l3.0025-3.1975-3.1892-6.0447-5.1547-3.1892-3.4117-.81585-1.4463 7.3055z"/><path fill="#D22F27" stroke="#D22F27" stroke-linecap="round" stroke-linejoin="round" stroke-miterlimit="10" stroke-width="2" d="M44.067 39.094c-2.0138-.09277-5.2547-.52463-7.2982-1.5552-2.0435-1.0305-2.9518-2.358-3.6623-4.2679-.71048-1.9099-1.2226-4.402-2.899-6.6031s-4.518-4.1106-5.31-4.9958c-.79204-.88524.46558-.74551 4.6534.61855 4.1878 1.3641 11.338 3.8488 16.15 5.3815 3.3235 1.0585 8.3046 11.88-1.6339 11.422z"/><g fill="none" stroke="#000" stroke-linecap="round" stroke-linejoin="round" stroke-miterlimit="10"><path stroke-width="2" d="M49.677 32.699c.62935 1.4335 1.2582 2.8658.50663 4.0882-.75152 1.2224-2.8832 2.2363-5.5379 2.3763s-5.8329-.59444-7.8764-1.625c-2.0435-1.0305-2.9518-2.358-3.6623-4.2679-.71048-1.9099-1.2226-4.402-2.899-6.6031-1.6764-2.2011-4.518-4.1106-5.31-4.9958-.79204-.88524.46558-.74551 4.6534.61855 4.1878 1.3641 11.306 3.9521 16.15 5.3815s7.4144 1.7005 10.021 3.7432c2.6069 2.0428 5.2504 5.856 5.6869 10.485.43642 4.629-1.3333 10.074-4.5886 13.063s-7.9969 3.5228-10.602 3.4643c-2.6052-.05847-3.0738-.71035-3.2108-1.3465-.13695-.63616.05881-1.256.80964-1.7622.75084-.50612 2.0559-.89763 3.3603-1.2889"/><path stroke-width="2" d="M57.259 42.284c-1.2072 1.1745-2.4143 2.3491-4.0289 2.9853-1.6146.63621-3.6374.73409-4.6982-.01578s-1.1587-2.3485-1.2566-3.9483M55.204 52.463c-1.6632.39134-3.3271.78285-4.632.53872-1.3049-.24414-2.251-1.125-2.5127-2.0388-.26164-.91381.1625-1.8599.58684-2.8066M36.5 57.5s-5-1-5-4c0-2.8125 7.9101.5273 8.8989 2.6038.0659.1384.1011.2712.1011.3962 0 2-1 6-7 7s3-6 3-6z"/><path stroke-width="2.1" d="M27.5 27.5c-7.2057.10192-10.699-5.8006-10.856-8.3514s1.6239-4.8214 4.1497-6.665 5.7948-3.2595 9.97-2.9797c4.1751.27982 9.2551 2.2547 13.28 3.1022 4.0247.84748 6.9941.56801 9.9626.28862"/><path stroke-width="2.1" d="M27.5 27.5c-5.5055-1.4638-7.3872-6.8628-6.9682-9.0468.41895-2.184 2.3053-4.1403 5.2404-5.136 2.9351-.99567 6.9174-1.0306 10.149-.06944s5.7118 2.9174 8.6987 3.8253c2.9869.90786 6.4803.76813 9.9728.62843"/></g><g fill="none" stroke="#D22F27" stroke-linecap="round" stroke-linejoin="round" stroke-miterlimit="10" stroke-width="2.1"><path d="M27.5 27.5c-7.2057.10192-10.699-5.8006-10.856-8.3514s1.6239-4.8214 4.1497-6.665 5.7948-3.2595 9.97-2.9797c4.1751.27982 9.2551 2.2547 13.28 3.1022 4.0247.84748 6.9941.56801 9.9626.28862"/><path d="M27.5 27.5c-5.5055-1.4638-7.3872-6.8628-6.9682-9.0468.41895-2.184 2.3053-4.1403 5.2404-5.136 2.9351-.99567 6.9174-1.0306 10.149-.06944s5.7118 2.9174 8.6987 3.8253c2.9869.90786 6.4803.76813 9.9728.62843"/></g></svg>