<svg xmlns="http://www.w3.org/2000/svg" role="img" viewBox="9.04 28.04 49.79 39.79"><title>E2D5.svg</title><path fill="#d0cfce" d="M20 32l3 5-2 3 1 3-5.0352 2.0141C16.2573 53.494 13.9859 62.3145 11 66h22V30.1429L20 32z"/><path fill="#9b9b9a" d="M45 47c-2.3974-.0021-4.6689 1.0734-6.1866 2.9292-1.1117-7.2961-1.1712-15.1315.3836-19.9292H34l-1 .1429V66h14V49l-1.3018-1.9526C45.467 47.0258 45.237 47 45 47z"/><path fill="#fff" d="M54 41l-1-4-2-.4V66h6V42.5L54 41z"/><path fill="#3f3f3f" d="M52 64l1-3-3-2 2.943-4.905a8.03582 8.03582 0 0 0-.0312-.242L50 49h-3v17h6v-.75L52 64z"/><g fill="none" stroke="#000" stroke-linecap="round" stroke-linejoin="round" stroke-width="2"><path d="M39.197 30H34l-14 2 3 5-2 3 1 3-5.0352 2.0141C16.2573 53.494 13.9859 62.3145 11 66h33.197c-5-6.1714-8-26.7429-5-36zM53 66h4V42.5L54 41l-1-4-2-.4v14.121"/><path d="M44.197 66H53v-.75L52 64l1-3-3-2 2.9449-4.9082c-.0094-.0831-.0256-.164-.0376-.2463L50 49h-3l-1.31-1.9651C45.462 47.0153 45.2329 47 45 47c-2.3974-.0021-4.6689 1.0734-6.1866 2.9292"/></g></svg>