<svg xmlns="http://www.w3.org/2000/svg" role="img" viewBox="13.90 15.40 44.07 41.07"><title>1F51C.svg</title><path fill="#3f3f3f" d="M15.74 31.83v-6.134h27.84v-8.433l12.66 11.5-12.66 11.5V31.83H15.74"/><g fill="none" stroke="#000" stroke-linecap="round" stroke-linejoin="round" stroke-width="2"><path d="M15.75 31.83h27.84v8.433l12.66-11.5-12.66-11.5v8.433H15.75zm7.9 14.89a3.049 3.049 0 0 0-3.073-1.994v0c-1.732 0-3.137 1.118-3.137 2.498s1.404 2.498 3.137 2.498l-.0638.0093c1.733 0 3.137 1.118 3.137 2.498s-1.404 2.498-3.137 2.498v0a3.049 3.049 0 0 1-3.073-1.994"/><path d="M46.64 54.643v-10l7.14 10v-10"/><path d="M40.21 54.61v0a3.572 3.572 0 0 1-3.572-3.571v-2.857a3.572 3.572 0 0 1 3.572-3.571v0a3.571 3.571 0 0 1 3.571 3.571v2.857a3.571 3.571 0 0 1-3.571 3.571zm-10 0v0a3.572 3.572 0 0 1-3.572-3.571v-2.857a3.572 3.572 0 0 1 3.572-3.571v0a3.571 3.571 0 0 1 3.571 3.571v2.857a3.571 3.571 0 0 1-3.571 3.571z"/></g></svg>