<svg xmlns="http://www.w3.org/2000/svg" role="img" viewBox="12.97 9.09 45.69 53.56"><title>1F4B0.svg</title><g stroke-linecap="round" stroke-linejoin="round" stroke-miterlimit="10" stroke-width="2"><path fill="#6A462F" stroke="#6A462F" d="M56.72 40.04c0 10.93-8.46 19.88-19.1899 20.66 15.45-9.02 17.31-24.7401 4.62-39.52C42.1 21.12 42.05 21.06 42 21c-3.27-3.78 1.44-9.8 1.44-9.8h1.99c1.78 0 3.24 1.46 3.24 3.24v.02c0 .7401-.26 1.4301-.69 1.98-.33.44-.78.78-1.29 1h-.01c-1.17 1.16-2.2 3.13.8 5.35.03.02.08.06.11.08.11.07.24.15.35.24 1.47 1.03 2.8 2.26 3.95 3.64 1.05 1.25 1.97 2.63 2.69 4.13.04.06.07.13.11.21.15.33.29.65.42.98.1.27.21.54.3.8.11.28.19.55.27.81 0 .01.01.02.01.03.07.25.15.51.22.76.01.04.03.09.04.13.03.12.06.22.08.34.05.15.09.31.12.47.03.16.0699.3.1.46.03.12.06.26.09.39 0 .0099 0 .04.0099.05.05.29.1.56.14.82.05.36.09.69.13.99.02.21.04.41.05.58.0601.84.0501 1.34.0501 1.34z"/><path fill="#A57939" stroke="#A57939" d="M37.53 60.7c-.17.02-.34.03-.5.03-.34.02-.69.03-1.03.03-11.44 0-20.72-9.28-20.72-20.72v-.13c0-.28.0099-.55.03-.83 0-.12.01-.24.02-.3799.01-.17.03-.3701.05-.58.03-.26.07-.55.12-.86.02-.15.05-.31.07-.48.17-.95.42-2.08.8-3.29.06-.19.13-.4.21-.61.21-.58.45-1.18.73-1.79.03-.08.07-.15.11-.21.67-1.43 2.69-4.13 2.69-4.13 1.15-1.38 2.48-2.61 3.95-3.64.11-.09.24-.17.35-.24.03-.02.08-.06.11-.08 2.95-2.19 2-4.14.85-5.3-.59-.22-1.1-.61-1.46-1.11-.02-.01-.03-.02-.03-.02-.39-.54-.62-1.19-.62-1.9v-.02c0-1.78 1.45-3.24 3.24-3.24h16.94s-4.71 6.02-1.44 9.8l.15.18C54.84 35.96 52.98 51.68 37.53 60.7z"/></g><path d="M16.4861 34.8186c.0913-.4585.1988-.9108.3247-1.3545-.1282.4725-.2344.9248-.3247 1.3545zm.5988-2.2886c-.1051.3064-.1854.6218-.274.9341.0828-.3053.1726-.6163.274-.9341zm-.77 3.17c.0483-.2778.107-.5753.1713-.8814-.0584.2931-.1277.5812-.1713.8814zm-.25 2.21c-.02.27-.03.53-.03.8 0-.15 0-.42.03-.8z"/><path fill="none" stroke="#000" stroke-linecap="round" stroke-miterlimit="10" stroke-width="2" d="M42.358 19.833H29.525"/><path fill="none" stroke="#000" stroke-linecap="round" stroke-linejoin="round" stroke-miterlimit="10" stroke-width="2" d="M56.7197 40.0422c0 11.4368-9.2781 20.7148-20.7148 20.7148-11.4471 0-20.7252-9.2781-20.7252-20.7148v-.1349c0-.2802.0104-.55.0311-.8302 0-.1141.0104-.2387.0208-.3736.0104-.1764.0312-.3736.0519-.5812.0312-.2595.0623-.5501.1141-.8614.0208-.1556.0519-.3113.0727-.4774.1661-.9548.4152-2.086.7991-3.2899.0623-.1972.1349-.4047.2076-.6123.2179-.5812.4566-1.1831.7368-1.7955.0312-.0726.0623-.1452.1038-.2075.6745-1.4322 2.6879-4.1306 2.6879-4.1306a20.59324 20.59324 0 0 1 3.9541-3.6427c.1142-.083.2387-.166.3529-.2387.0312-.0208.0727-.0519.1038-.0727 2.9578-2.1898 2.003-4.1409.851-5.3032-.5916-.218-1.1001-.6123-1.4529-1.1105-.0208-.0104-.0312-.0208-.0312-.0208-.3944-.5396-.6227-1.1934-.6227-1.8992v-.0208c0-1.7747 1.4529-3.238 3.238-3.238h18.9298c1.7851 0 3.238 1.4633 3.238 3.238v.0208c0 .7368-.2595 1.4322-.6849 1.9822-.3321.4359-.7784.7784-1.2869.9963h-.0104c-1.1727 1.1623-2.2002 3.1342.7991 5.3551.0312.0208.0727.0519.1038.0727.1141.0727.2387.1557.3528.2387a20.59643 20.59643 0 0 1 3.9541 3.6427c1.0482 1.2558 1.9615 2.6361 2.688 4.1306.0415.0623.0727.1349.1038.2075.1557.3321.2906.6538.4255.9859.1038.2698.2076.5397.3009.7991.1038.2802.1868.55.2698.8095 0 .0104.0104.0208.0104.0312.0727.2491.1453.5085.2179.7576.0104.0415.0312.0934.0416.1349.0311.1141.0623.218.083.3321.0415.1557.083.3113.1141.4774.0311.1556.0727.3009.1038.4566.0312.1245.0623.2595.083.3944 0 .0103 0 .0311.0104.0415.0519.2906.1038.5604.1452.8199.0519.3633.0934.6954.1246.9963.0207.2076.0415.4048.0519.5812.0623.8408.0519 1.3389.0519 1.3389z"/><path fill="none" stroke="#000" stroke-linecap="round" stroke-linejoin="round" stroke-miterlimit="10" stroke-width="2" d="M39.1902 36.3571c-.2715-1.0566-1.4456-1.8514-2.8529-1.8514h-.0001c-1.6083 0-2.9121 1.0381-2.9121 2.3188s1.3038 2.3188 2.9121 2.3188l-.0591.0086c1.6083 0 2.9121 1.0381 2.9121 2.3188s-1.3038 2.3188-2.9121 2.3188h0c-1.4073 0-2.5815-.7947-2.853-1.8514m2.8829-7.4321v-2.211m0 13.705v-2.211M22 20s-6 0-6 6m1-8s-2 0-2-2"/></svg>