<svg xmlns="http://www.w3.org/2000/svg" role="img" viewBox="13.43 0.68 43.65 68.77"><title>E101.svg</title><g id="color"><path fill="#fcea2b" d="M40.8423 37.3592c.081-1.9313 1.7123-3.4313 3.6436-3.3502s3.4313 1.7123 3.3502 3.6436M26.8047 14.5086c0-1.933 1.567-3.5 3.5-3.5s3.5 1.567 3.5 3.5"/><path fill="none" d="M23.844 36.455L21.886 34.242M16.851 39.105L18.672 41.485"/><path fill="#fcea2b" d="m54.8362,36.8438h-.133c-.3835-1.4413-1.6517-2.5361-3.2203-2.6019-1.6726-.0703-3.116,1.0472-3.5264,2.6019h-.1995c-.2912-1.5044-1.5394-2.6978-3.1413-2.8266-1.795-.1444-3.3657,1.0989-3.6997,2.8266h-.1434c-.1277-1.714-1.4872-3.1186-3.2511-3.2317-1.7462-.112-3.2629,1.0814-3.6288,2.7386l-.088-22.1765h-6.9524v23.8658l-.8437-.3276-1.8582-2.2302c-1.3429-1.3904-5.7173-2.5504-7.2135-1.3266-2.8118,2.2998,4.6157,10.2431,3.4076,8.9166l1.7603,4.7229c.9446,16.9164,12.3744,19.308,16.271,19.4198,9.0206.2588,16.1402-6.3282,16.2401-18.1448h.2203v-12.2263Zm-20.9414.0429l.02.0013v3.8943l-.0045-.0018-.0155-3.8938Z"/></g><g id="line" fill="none" stroke="#000" stroke-linecap="round" stroke-linejoin="round" stroke-width="2"><path d="m33.79,23.7098c4.13-1.45,7.09-5.39,7.09-10.02,0-5.87-4.75-10.63-10.62-10.63s-10.62,4.76-10.62,10.63c0,4.65,2.99,8.6,7.15,10.04"/><path d="M33.79 20.5698c2.49-1.28 4.2-3.88 4.2-6.88 0-4.28-3.46-7.74-7.73-7.74s-7.74 3.46-7.74 7.74c0 3.02 1.74 5.64 4.27 6.91M54.8163 50.7743c0 9.0883-7.3675 16.4558-16.4558 16.4558s-16.4558-7.3675-16.4558-16.4558M54.816 49.901L54.816 37.901M47.824 37.6074c.081-1.9313 1.7123-3.4313 3.6436-3.3502s3.4313 1.7123 3.3502 3.6436M40.827 37.3745c.081-1.9313 1.7123-3.4313 3.6436-3.3502s3.4313 1.7123 3.3502 3.6436"/><path d="M40.8311 37.2406c.155-1.9268 1.8426-3.3631 3.7694-3.2081s3.3631 1.8426 3.2081 3.7694M33.7895 36.8962c.1237-1.929 1.7878-3.3925 3.7168-3.2688s3.3925 1.7878 3.2688 3.7168M16.8357 39.1198c-1.3429-1.3904-1.3044-3.6061.086-4.949s3.6061-1.3044 4.949.086M26.7895 14.5239c0-1.933 1.567-3.5 3.5-3.5s3.5 1.567 3.5 3.5M33.789 36.859L33.789 14.524M26.79 14.524L26.79 42.315M23.829 36.471L21.871 34.257M18.6034 41.4395c1.9526 2.1439 3.3734 5.1677 3.3013 9.5218M16.836 39.12L18.657 41.5M54.8315 50.7591c0 9.0883-7.3675 16.4558-16.4558 16.4558s-16.4557-7.3675-16.4557-16.4558"/></g></svg>