<svg xmlns="http://www.w3.org/2000/svg" role="img" viewBox="10.57 6.70 50.86 61.36"><title>E1C9.svg</title><path fill="#EA5A47" d="M19.9502 25.5384s-2.5794 1.5485-3.1555 4.0953.0005 5.3368.0005 5.3368-4.0466 1.6684-4.0466 6.9178 3.4132 6.7328 3.4132 6.7328.0403 6.1949 3.859 9.5361c3.8187 3.3412 7.8262 3.3565 7.8262 3.3565s2.0841 4.4087 8.2153 4.4087 8.2153-4.4087 8.2153-4.4087 4.1496-.606 7.8262-3.3565c3.6766-2.7504 3.5755-9.5361 3.5755-9.5361s3.6966-1.4834 3.6966-6.7328-4.0466-6.9178-4.0466-6.9178.5766-2.7901.0005-5.3368-3.1555-4.0953-3.1555-4.0953"/><path fill="#EA5A47" d="M55.4477 33.4279c0-10.7186-8.6891-13.7384-19.4077-13.7384s-19.4077 3.0198-19.4077 13.7384S25.3214 52.8356 36.04 52.8356s19.4077-8.6891 19.4077-19.4077z"/><path fill="#D22F27" d="M36.6573 65.9076s5.2476-3.6702 4.9048-12.1107c2.2569-2.3481 2.9566-5.5031.9072-9.3371 3.463-4.9359 3.103-10.2761-1.0411-14.3243 1.7074-2.4634.8148-4.5971-1.1157-6.2005 0 0 5.5557 2.7244 9.8102-1.1714 0 0 8.9433 6.4302 5.2066 12.207 0 0 9.8734 6.6729.35 13.6506 0 0 1.391 10.6345-11.1605 12.8505-.0001-.0002-3.304 3.7386-7.8615 4.4359z"/><path fill="#B1CC33" stroke-linecap="round" stroke-linejoin="round" stroke-miterlimit="10" stroke-width="2" d="M55.7803 11.2616C51.51 31.1894 38.4049 24.395 36.6244 20.8907c-1.7804-3.5043-.0602-17.4579 19.1559-9.6291z"/><path fill="#B1CC33" stroke-linecap="round" stroke-linejoin="round" stroke-miterlimit="10" stroke-width="2" d="M16.344 11.2616c4.2703 19.9278 17.3754 13.1334 19.1558 9.6291 1.7805-3.5043.0604-17.4579-19.1558-9.6291z"/><g fill="none" stroke="#000" stroke-linecap="round" stroke-linejoin="round" stroke-miterlimit="10" stroke-width="2"><path d="M55.7803 11.2616C51.51 31.1894 38.4049 24.395 36.6244 20.8907c-1.7804-3.5043-.0602-17.4579 19.1559-9.6291zm-10.208 4.0328c-3.1311 1.2014-7.1389 3.1342-8.9149 5.6542"/><path d="M16.344 11.2616c4.2703 19.9278 17.3754 13.1334 19.1558 9.6291 1.7805-3.5043.0604-17.4579-19.1558-9.6291zm10.2081 4.0328c3.1311 1.2014 7.1389 3.1342 8.9149 5.6542"/><path d="M19.9502 25.5384s-2.5794 1.5485-3.1555 4.0953.0005 5.3368.0005 5.3368-4.0466 1.6684-4.0466 6.9178 3.4132 6.7328 3.4132 6.7328.0403 6.1949 3.859 9.5361c3.8187 3.3412 7.8262 3.3565 7.8262 3.3565s2.0841 4.4087 8.2153 4.4087 8.2153-4.4087 8.2153-4.4087 4.1496-.606 7.8262-3.3565c3.6766-2.7504 3.5755-9.5361 3.5755-9.5361s3.6966-1.4834 3.6966-6.7328-4.0466-6.9178-4.0466-6.9178.5766-2.7901.0005-5.3368-3.1555-4.0953-3.1555-4.0953m-9.9313 3.9367s-2.6163 2.7671-5.8436 2.7671m-6.0675-2.7671s2.6163 2.7671 5.8436 2.7671m13.8868 7.2816c0 2.8921-2.4819 5.2365-5.5436 5.2365m-5.7559-5.2365c0 2.8921 2.4819 5.2365 5.5436 5.2365m-10.4237-5.2365c0 2.8921-2.4819 5.2365-5.5436 5.2365m-5.756-5.2365c0 2.8921 2.4819 5.2365 5.5436 5.2365m13.7782 9.1013c-1.0434 1.389-3.1599 2.3393-5.6011 2.3393m-5.9624-2.5086c.9945 1.4804 3.1823 2.5085 5.7214 2.5085M30.2894 54.05c0 1.2407-.7684 2.3588-1.9976 3.1439M41.9647 54.05c0 1.3528.9134 2.5597 2.3417 3.3483M23.4111 42.6717c0 2.3661-1.6613 4.3657-3.9422 5.0147m5.543-18.2472c0 3.0961-2.4819 5.6059-5.5436 5.6059m26.9049-5.6059c0 3.0961 2.4819 5.6059 5.5436 5.6059m-2.6656 7.6266c0 2.26 1.5157 4.1856 3.6392 4.9194"/></g></svg>