<svg xmlns="http://www.w3.org/2000/svg" role="img" viewBox="3.76 3.76 64.35 64.35"><title>1F6C5.svg</title><path fill="#fff" d="M7.082 7.005h57.794v58.076H7.082z"/><path fill="#61b2e4" d="M41.191 37.256H56.09V62H41.191z"/><path fill="#92d3f5" d="M16.085 37.256H41.19V62H16.085z"/><path fill="#f4aa41" d="M29.742 15.234h14.226v6.349H29.742zm16.237 8.046a10.28273 10.28273 0 0 0 2.2667 1.7865c.7152.4181 1.6339.1773 2.052-.538.4181-.7152.1773-1.6339-.5379-2.052a6.52104 6.52104 0 0 1-1.66-1.3174c-.5733-.598-1.5229-.618-2.1208-.0446-.598.5733-.618 1.5229-.0446 2.1209a1.57 1.57 0 0 0 .0447.0447z"/><path fill="#f4aa41" d="M49.938 22.7953c-.4126-.031-.4028.0066.0295.1127a7.56796 7.56796 0 0 1-.0005-.672 3.0791 3.0791 0 0 0-.2664-1.3581 4.32518 4.32518 0 0 1-.6568-1.2863 6.94237 6.94237 0 0 1-.005-1.4788c.084-1.93-2.9162-1.9263-3 0a8.27141 8.27141 0 0 0 .1942 2.6337c.2107.73.7135 1.2366.7306 1.9935.0434 1.91 1.0238 3.0277 2.9744 3.0553.8284-.0287 1.4767-.7235 1.448-1.552-.0273-.7881-.6599-1.4207-1.448-1.448z"/><path fill="#f4aa41" d="M47.9927 19.2238c.6924-.5448 1.1459-1.4946 1.909-1.93 1.0036-.4452 2.1724-.2856 3.02.4122.296.5452.4097 1.171.3242 1.7855-.1957.5746-.9325.6783-1.4281.8363-1.0582.3352-2.1484.559-3.2531.6676-1.9028.1911-1.9225 3.1931 0 3 2.0547-.2064 5.0112-.5042 6.5968-1.987 1.4208-1.3288 1.31-3.7561.5639-5.4038-.76-1.6791-2.9309-2.5157-4.6816-2.5584a5.00844 5.00844 0 0 0-3.0606.9381c-.8193.5953-1.3182 1.4936-2.1117 2.118-1.516 1.1932.62 3.3029 2.1213 2.1213v.0002z"/><path fill="#f4aa41" d="M42.2724 17.02c2.4722-3.1523 6.0827-5.1429 9.8282-2.2727 2.4222 1.8561 2.43 7.43-.4986 9.018-3.0294 1.6429-8.2214.5708-8.808-3.2622-.32-2.0935 1.9178-4.4608 3.7006-5.159 2.0854-.8168 3.7414-.3689 5.8764.2152l.3988-2.9464c-3.8712-.1379-7.5663 1.6212-9.9 4.713-.574.6142-.5415 1.5775.0728 2.1515.269.2514.62.3968.9879.4092-.4758-.0129.5877-1.38-.7246-1.0585-.4369.1071-.94.7918-1.15 1.2038-.4839 1.1508-.2756 2.4763.5379 3.4233 2.5893 3.4286 7.8561 2.2243 11.1229.8445 1.6442-.6945.4094-3.0606-1.1558-2.7416-2.512.5226-5.1279-.0407-7.2021-1.551l-.3584 2.7417 1.0231-.0211c1.5821.3921 2.75-1.9892 1.1559-2.7416-2.9361-1.3857-5.9364-3.2447-9.2764-3.332-3.2852-.0859-5.0259 2.6035-8 2.7742-.8321.026-1.4855.7216-1.4595 1.5537.0201.643.4461 1.2024 1.0607 1.3927.8761.2615 1.7796.4209 2.6923.4749.8335-.0086 1.5021-.6913 1.4935-1.5248a1.50885 1.50885 0 0 0-.1983-.7322c-1.5091-2.34-3.5991-3.1381-6.3678-3.244-2.7391-.1047-3.3058 1.0162-4.7848 3.1629l2.3559-.3036c-1.9024-2.292-4.7858-2.5821-6.8514-.5234h2.1214c-1.5346-1.348-1.893-1.5787-1.0753-.6922 1.8149-.6244 1.0351-3.5233-.7975-2.8929-3.6984 1.2723-2.942 3.6075-.2486 5.7064.5946.5643 1.5268.5643 2.1214 0l2.6086.5235c.6003.584 1.5603.5708 2.1443-.0294.0808-.083.1518-.175.2116-.2742 1.3126-1.9052 3.026-4.4859 5.9718.081l1.2952-2.2571-1.8948-.3677-.3987 2.9464a8.83142 8.83142 0 0 0 3.5109-.9243c2.27-1.0522 3.6441-2.2 6.19-1.5932a34.2372 34.2372 0 0 1 6.0613 2.6657l1.1559-2.7416a3.95703 3.95703 0 0 0-2.6182.021c-.8023.247-1.2525 1.0977-1.0055 1.9.1075.3493.3373.6481.6472.8417 2.7499 1.974 6.224 2.6508 9.5138 1.8533l-1.1558-2.7416c-1.6624.7021-9.9772 1.1143-5.5738-.7939.4634-.2658.7475-.761.7429-1.2952.0623-2.2738-1.4779-2.6806-3.4409-2.7336l1.0606 2.5607c1.7752-2.5142 4.7033-3.9577 7.7786-3.8346.8319-.0247 1.4862-.7191 1.4616-1.5509-.0191-.6447-.4464-1.2057-1.0628-1.3955-5.946-1.6266-13.7429.2188-13.4262 8.1533.2206 5.5288 7.2457 7.8893 11.6943 6.2793 5.0505-1.8279 7.3865-9.1521 3.8829-13.4912-4.5288-5.6087-11.312-3.6268-15.1685 1.2908-1.1782 1.5024.93 3.64 2.1213 2.1213l-.0002.0002z"/><path fill="#f4aa41" d="M32.755 22.0086c.8284-.0287 1.4767-.7235 1.448-1.552-.0273-.7881-.6599-1.4207-1.448-1.448-.8284.0287-1.4767.7235-1.448 1.552.0273.7881.6599 1.4207 1.448 1.448zm8.2982.0703c.8284-.0287 1.4767-.7235 1.448-1.552-.0273-.7881-.6599-1.4207-1.448-1.448-.8284.0287-1.4767.7235-1.448 1.552.0273.7881.6599 1.4207 1.448 1.448zM30.2074 19.73c-.0815-.3187.6632-1.5777.7-2.0174a2.51789 2.51789 0 0 0-.4363-1.7983c-1.0649-1.2787-3.9311-.7463-5.3962-.8017-3.02-.1141-8.6027-1.2011-7.84 3.674.1351.5124.5353.9125 1.0476 1.0477a3.63045 3.63045 0 0 0 2.2564-.33c1.4218-.4271 2.7957.0337 4.2473-.1587l-.7571-2.7952a4.10561 4.10561 0 0 1-1.2384.7585c-1.7677.7131-.9955 3.6161.7975 2.8928a7.88455 7.88455 0 0 0 1.955-1.0609c1.0026-.7655.9165-3.017-.757-2.7952-1.2016.1592-2.33-.1882-3.5249-.1159-.5228.0316-1.8521.8025-2.1812.7119l1.0476 1.0476c.0073.0467 5.5764.1473 6.1424.1687a6.52313 6.52313 0 0 0 1.5933.06c.7324-.1887-.0831-.1858-.4028.22a2.53921 2.53921 0 0 0-.1463 2.0893c.4778 1.8692 3.372 1.077 2.8929-.7975l.0002.0003z"/><path fill="#e27022" d="M18 19l1.895-2H36v2H18z"/><g fill="none" stroke="#000" stroke-linecap="round" stroke-linejoin="round" stroke-width="2"><path d="M22 37.67h-6.768v23.815H22"/><path d="M21.841 37.67h28.202v23.815H21.841z"/><path d="M50.101 37.623l6.657.059-.212 23.814-6.657-.059"/><path d="M42.69 37.67h7.241v23.815H42.69m-2.8814-46.3577c2.2475-4.5433 7.7525-6.4045 12.2958-4.157.1619.0801.3213.1649.4782.2544 3.9929 2.4792 5.5094 7.5473 3.5343 11.8122-1.656 3.1251-5.0334 4.9426-8.5538 4.6031-3.6856-.3537-6.8355-2.8038-8.0854-6.2889M35.676 15.152l-16.864-.095L15 18.925l3.936 3.912 2.242-2.276 2.779 2.762 3.139-3.186 2.547 2.531 2.966.246 2.243-2.275 1.158 1.15"/><ellipse cx="51.08" cy="18.409" rx="2.371" ry="2.381"/><path d="M6 6h60v60H6z"/><path d="M30 37v-3s0-3 3.5357-3H38.25"/><path d="M42 37v-3s0-3-3.5357-3H33.75"/></g></svg>