<svg xmlns="http://www.w3.org/2000/svg" role="img" viewBox="2.72 14.72 66.43 42.43"><title>1F3F4-E0065-E0073-E0061-E0072-E007F.svg</title><path fill="#f1b31c" d="M5 17h62v38H5z"/><path fill="#d22f27" d="M5 22h62v4H5zm0 8h62v4H5zm0 8h62v4H5zm0 8h62v4H5z"/><g stroke="#000" stroke-width="4.386"><path fill="#fcea2b" d="M17.6882 38.0087l-.00695-6.3954h5.67891l.01397 6.4068" stroke-width=".250002"/><path fill="#1e50a0" d="M23.3483 38.0087l-.0069-6.3954h5.6447l.01386 6.4068" stroke-width=".250002"/><path fill="#fcea2b" d="M17.6825 37.9916l11.3145.02544s.02466 2.40369-.04677 3.23703c-.00717.96672-1.19244 5.3124-5.7285 5.31126-4.61187.0254-5.53413-3.91248-5.53983-5.5404-.0058-.50878 0-3.03354 0-3.03354z" stroke-width=".250002"/><path fill="#fff" d="M23.3426 46.5587c-1.05621.0315-2.02464-.13384-2.65335-.47772-.5216-.28511-1.00833-.53323-1.43925-1.01859-.32496-.366-.64866-.79515-.88464-1.24374-.07438-.14141-.14187-.287-.19654-.43576-.17766-.48353-.45793-1.26768-.47617-2.11527-.02806-1.30245-.01327-2.76051-.0043-3.27465.99294-.00057 5.6544.009 5.6544.009" stroke-width=".250002"/></g><path fill="#d22f27" d="M20.1677 38.003l-.0068 2.93436-2.47038-.00332c.00874.25439-.00168.43462.03183.7125l2.43903-.0034-.00344 4.13478c.23496.14187.4645.26408.7296.39353V41.6428l2.44644-.0034v-.70566l-2.44644.00332-.00344-2.93436h-.71592z"/><path d="M27.7259 38.0201h.62244v5.28333c-.07518.18987-.44323.82764-.62244 1.03113zm-1.2483 0h.62244v7.0395c-.116.11292-.40949.38218-.62016.52064zm-1.2426-.0057h.62244v7.9401c-.16735.08573-.41222.20058-.62073.26955zm-1.2426 0l.62073.00344.00172 8.3904c-.18098.03238-.40716.09091-.62244.10596z" fill="#d22f27"/><g fill="#fff" stroke="#fff"><path stroke-width=".75" d="M23.77 33.47l1.877-.01011M24.68 32.45v2.467"/><path stroke-width=".25" d="M24.68 35.8l-.003-.8808"/></g><path fill="#d22f27" stroke="#d22f27" stroke-width=".25" d="M19.92 32.41h1.121m-.561-.44l-.0072 1.703"/><ellipse cx="20.41" cy="33.97" fill="#5c9e31" rx="2.055" ry=".88"/><path fill="none" stroke="#6a462f" stroke-width=".5" d="M20.4 37.42l.0041-2.621"/><path fill="none" stroke="#6a462f" stroke-width=".25" d="M19.09 37.46c.78-.4146 2.396-.662 2.793.04281M19.72 37.56c.5417-.6902 1.051-.5814 1.541.0046m-1.181.0454c.2027-.6282.4343-.8061.7338.07587M19.6 37.29s.6863-.06694.7817-1.422m.7883 1.422s-.6863-.06694-.7817-1.422"/><g fill="none" stroke="#000" stroke-width="4.386"><path d="M17.6882 38.0087l-.00695-6.3954h5.67891l.01397 6.4068" stroke-width=".250002"/><path d="M23.3483 38.0087l-.0069-6.3954h5.6447l.01386 6.4068" stroke-width=".250002"/><path d="M17.6825 37.9916l11.3145.02544s.02466 2.40369-.04677 3.23703c-.00717.96672-1.19244 5.3124-5.7285 5.31126-4.61187.0254-5.53413-3.91248-5.53983-5.5404-.0058-.50878 0-3.03354 0-3.03354zm5.6658.0057l-.00269 8.5671" stroke-width=".250002"/><path d="M23.3426 46.5587c-1.05621.0315-2.02464-.13384-2.65335-.47772-.5216-.28511-1.00833-.53323-1.43925-1.01859-.32496-.366-.64866-.79515-.88464-1.24374-.07438-.14141-.14187-.287-.19654-.43576-.17766-.48353-.45793-1.26768-.47617-2.11527-.02806-1.30245-.01327-2.76051-.0043-3.27465.99294-.00057 5.6544.009 5.6544.009" stroke-width=".250002"/></g><g fill="#fcea2b"><ellipse cx="21.8" cy="27.86" rx=".741" ry="1.072"/><ellipse cx="18.76" cy="28.05" rx=".741" ry="1.072"/><ellipse cx="24.88" cy="27.89" rx=".741" ry="1.072"/><ellipse cx="27.95" cy="28.02" rx=".741" ry="1.072"/><path stroke="#fcea2b" stroke-linecap="round" stroke-width=".952" d="M17.36 28.89v-2.411"/><path stroke="#fcea2b" stroke-linecap="round" stroke-width=".993" d="M20.29 28.53v-2.501"/><path stroke="#fcea2b" stroke-linecap="round" stroke-width=".991" d="M23.33 28.53v-2.611"/><path stroke="#fcea2b" stroke-linecap="round" stroke-width=".979" d="M26.43 28.63v-2.561"/><path stroke="#fcea2b" stroke-linecap="round" stroke-width=".963" d="M29.31 28.83v-2.587"/><path stroke="#fcea2b" stroke-linecap="round" d="M17.33 30.75s5.348-.9895 12.04.0056"/></g><g><path fill="none" stroke="#000" stroke-linecap="round" stroke-linejoin="round" stroke-width="2" d="M5 17h62v38H5z"/></g></svg>