<svg xmlns="http://www.w3.org/2000/svg" role="img" viewBox="5.84 5.72 60.19 60.19"><title>1F36A.svg</title><path fill="#a57939" d="M64 36c.001-1.9424-.5752-3.7461-1.5576-5.2627.3262-1.7754.168-3.6606-.5742-5.4526-.7422-1.7935-1.9649-3.2403-3.4522-4.2652-.3779-1.7651-1.2451-3.4463-2.6181-4.8178-1.3711-1.3736-3.0547-2.2417-4.8204-2.6197-1.0244-1.4858-2.4697-2.707-4.2617-3.4497-1.7939-.7431-3.6806-.9018-5.457-.5757C39.7422 8.5757 37.9404 8 35.999 8c-1.9404 0-3.7441.5762-5.2597 1.5576-1.7764-.3266-3.6622-.1684-5.4551.5737-1.793.7432-3.2393 1.9654-4.2637 3.4532-1.7656.3779-3.4473 1.2451-4.8203 2.6172-1.3721 1.3725-2.2402 3.0551-2.6172 4.8217-1.4873 1.0245-2.709 2.4693-3.4531 4.2622-.7422 1.7935-.9004 3.6807-.5723 5.4576C8.5762 32.2598 8.001 34.0615 8 36.002c0 1.9414.5771 3.7451 1.5586 5.2617-.3252 1.7754-.168 3.6611.5732 5.4531.7442 1.793 1.9668 3.2402 3.4551 4.2646.377 1.7647 1.2442 3.4463 2.6152 4.8194 1.3731 1.373 3.0567 2.2402 4.8223 2.6172 1.0254 1.4863 2.4697 2.709 4.2617 3.4511 1.794.7432 3.6807.9004 5.4571.5743C32.2588 63.4238 34.0615 64 36.0029 64c1.9405 0 3.7442-.5762 5.2598-1.5576 1.7754.3262 3.6621.168 5.4551-.5733 1.792-.7441 3.2392-1.9658 4.2636-3.4541 1.7657-.3779 3.4473-1.2451 4.8184-2.6162 1.374-1.373 2.2422-3.0566 2.6191-4.8232 1.4864-1.0244 2.7071-2.4697 3.4502-4.2608.7432-1.7939.9014-3.6816.5752-5.458C63.4248 39.7402 63.999 37.9395 64 36z"/><circle cx="19" cy="35" r="2" fill="#6A462F" stroke-linecap="round" stroke-linejoin="round" stroke-miterlimit="10" stroke-width="1.939"/><circle cx="32" cy="41" r="2" fill="#6A462F" stroke-linecap="round" stroke-linejoin="round" stroke-miterlimit="10" stroke-width="1.939"/><circle cx="30" cy="51" r="2" fill="#6A462F" stroke-linecap="round" stroke-linejoin="round" stroke-miterlimit="10" stroke-width="1.939"/><circle cx="46" cy="51" r="2" fill="#6A462F" stroke-linecap="round" stroke-linejoin="round" stroke-miterlimit="10" stroke-width="1.939"/><circle cx="52" cy="36" r="2" fill="#6A462F" stroke-linecap="round" stroke-linejoin="round" stroke-miterlimit="10" stroke-width="1.939"/><circle cx="48" cy="21" r="2" fill="#6A462F" stroke-linecap="round" stroke-linejoin="round" stroke-miterlimit="10" stroke-width="1.939"/><circle cx="32" cy="22" r="2" fill="#6A462F" stroke-linecap="round" stroke-linejoin="round" stroke-miterlimit="10" stroke-width="1.939"/><g fill="none" stroke="#000" stroke-linecap="round" stroke-linejoin="round" stroke-miterlimit="10" stroke-width="1.939"><path d="M64 35.875c.001-1.9414-.5752-3.7461-1.5576-5.2617.3262-1.7759.168-3.6612-.5742-5.4531-.7422-1.7935-1.9649-3.2403-3.4522-4.2652-.3779-1.7651-1.2451-3.4463-2.6181-4.8179-1.3711-1.3735-3.0547-2.2417-4.8204-2.6196-1.0244-1.4858-2.4697-2.707-4.2617-3.4497-1.7939-.7432-3.6806-.9018-5.457-.5757-1.5166-.9809-3.3184-1.5566-5.2598-1.5566-1.9404 0-3.7441.5762-5.2597 1.5576-1.7764-.3267-3.6622-.1685-5.4551.5737-1.793.7432-3.2393 1.9654-4.2637 3.4532-1.7656.3779-3.4473 1.2451-4.8203 2.6171-1.3721 1.3726-2.2402 3.0552-2.6172 4.8218-1.4873 1.0244-2.709 2.4693-3.4531 4.2622-.7422 1.7935-.9004 3.6807-.5723 5.458C8.5762 32.1348 8.001 33.9375 8 35.877c0 1.9414.5771 3.746 1.5586 5.2617-.3252 1.7754-.168 3.6621.5732 5.4531.7442 1.793 1.9668 3.2402 3.4551 4.2656.377 1.7647 1.2442 3.4463 2.6152 4.8184 1.3731 1.373 3.0567 2.2402 4.8223 2.6181 1.0254 1.4854 2.4697 2.7081 4.2617 3.4512 1.794.7432 3.6807.9004 5.4571.5733 1.5156.9804 3.3183 1.5566 5.2597 1.5566 1.9405 0 3.7442-.5762 5.2598-1.5566 1.7754.3261 3.6621.1679 5.4551-.5743 1.792-.7431 3.2392-1.9648 4.2636-3.4531 1.7657-.3779 3.4473-1.2451 4.8184-2.6172 1.374-1.373 2.2422-3.0556 2.6191-4.8222 1.4864-1.0254 2.7071-2.4698 3.4502-4.2618.7432-1.7929.9014-3.6806.5752-5.457.9805-1.5166 1.5547-3.3183 1.5557-5.2578z"/><circle cx="19" cy="35" r="2"/><circle cx="32" cy="41" r="2"/><circle cx="30" cy="51" r="2"/><circle cx="46" cy="51" r="2"/><circle cx="52" cy="36" r="2"/><circle cx="48" cy="21" r="2"/><circle cx="32" cy="22" r="2"/></g></svg>