<svg xmlns="http://www.w3.org/2000/svg" role="img" viewBox="8.84 8.84 54.08 54.08"><title>1FA9F.svg</title><path d="M35.9 14.713v42.455m-21.179-21.21h42.562" fill="none" stroke="#000" stroke-linecap="round" stroke-linejoin="round" stroke-width="2.025"/><rect width="42.775" height="42.775" x="14.513" y="14.613" fill="#92d3f5" rx=".784"/><path fill="#fff" d="M14.535 26.666l12.053-12.053H55.23L14.514 55.477l.021-28.811z"/><path fill="#a57939" d="M60.94 62H11.0176a1.06 1.06 0 0 1-1.06-1.06V11.0179a1.06 1.06 0 0 1 1.06-1.06H60.94a1.06 1.06 0 0 1 1.06 1.06V60.94A1.06 1.06 0 0 1 60.94 62zm-44.3667-5.6123H55.228a1.06 1.06 0 0 0 1.06-1.06V16.6722a1.06 1.06 0 0 0-1.06-1.06H16.5733a1.06 1.06 0 0 0-1.06 1.06v38.6556a1.06 1.06 0 0 0 1.06 1.0599z"/><path fill="none" stroke="#a57939" stroke-linecap="round" stroke-linejoin="round" stroke-width="2.025" d="M35.9 14.613v42.774M14.513 35.958h42.775"/><g fill="none" stroke="#000" stroke-linecap="round" stroke-linejoin="round" stroke-width="2"><path d="M61 61H10.958m0-3.832v-46.21H61v46.21"/></g></svg>