<svg xmlns="http://www.w3.org/2000/svg" role="img" viewBox="5.84 5.84 60.19 60.19"><title>1F1FF.svg</title><circle cx="36" cy="36" r="27.5" fill="#fff"/><circle cx="36" cy="36" r="28" fill="none" stroke="#000" stroke-linejoin="round" stroke-width="2"/><path stroke="#000" stroke-linejoin="round" stroke-width="2" d="M44 49H29.7236l15.1445-26.5039c.1768-.3096.1758-.6899-.0029-.998-.1797-.3081-.5088-.498-.8652-.498H28c-.5527 0-1 .4478-1 1s.4473 1 1 1h14.2764L27.1319 49.504c-.1768.3096-.1758.6899.0029.998.1797.3081.5088.498.8652.498h16c.5527 0 1-.4478 1-1s-.4473-1-1-1z"/></svg>