<svg xmlns="http://www.w3.org/2000/svg" role="img" viewBox="10.46 10.34 53.58 54.08"><title>1F98D.svg</title><path fill="#3F3F3F" d="M31.9627 21.0855c-.125-.375-2.375-4-2.375-4l-7.625-4.625-5.75 2.25-.625 2.5-1.75 3.125.375 2.625-1.125 3.75s-.75 3.875 3.75 5c0 0-3.875 6.75-.625 11 0 0-7 7.75-1.375 18.875l5.5 1 4.625.75 3.375-1.5 1-2-1.375-3.75s1.625-3 .25-8.25l.375-4.5 4.625 4 5 .875 4.25-.25s6.875-2.25 7.125-5l2.125 1.25s-3.4597 13.4852.875 16.375c.375.25 5.25 2 6.125 0s2.25-9.375 1-12.125.25-5.125.25-5.125 5.5-9.5-1.5-14.875-9.125-3.375-9.125-3.375-5.125 5-12.625.75l-4.75-4.75z"/><path fill="#9B9B9A" d="M33.421 21.9188l-1.5 8.5s0 5.75-5.1666 10.5c1.4591 2.5674 3.5905 4.7194 6.4583 6.4167l9.25.625 7.125-5s4.5-7.0417-1.5-16.875l-6.8333 1.1667-4.5417-1.4167-3.2917-3.9167z"/><g fill="none" stroke="#000" stroke-linecap="round" stroke-linejoin="round" stroke-miterlimit="10" stroke-width="2"><path d="M31.1681 30.7313c-.6667 6.9167-6.75 12.6667-6.75 12.6667 2.209 4.8259-1.5972 14.1425-3.0756 17.4135-.3234.7155-1.0347 1.1698-1.8199 1.1698h-3.3263c-.8043 0-1.5271-.4876-1.8479-1.2252-4.9797-11.4476 1.903-17.9415 1.903-17.9415-2.4167-8.8333 2.4375-11.875 2.4375-11.875l2.8958-6.3333c2.25-7.1667 10.0417-2.75 10.0417-2.75s2.625.8333 5.1875 3.7708c0 0 3.4361 4.2083 13.4972-.6286 1.4052-.6755 3.1173.0775 4.4333.9135l1.6141 1.0253c3.0781 1.9552 5.2543 5.1534 5.6318 8.7804.2435 2.3401-.1842 5.0032-2.1764 7.5344l-.4375 5s1.6601 6.8547-.522 11.9388c-.3128.7288-1.0548 1.1812-1.8479 1.1724l-2.8239-.0314c-.9253-.0103-1.7248-.6509-1.9276-1.5538-.7834-3.4892-2.3444-11.9995.0588-15.776l-2.5-1s-4.125 6.875-13.125 5.375c0 0-6.2708-.9375-7.2292-5.0625"/><path d="M28.7351 17.6895l-1.5253-1.6666c-6.9167-7.5417-11.2917-.7083-11.2917-.7083l-.5 2.3333c-3.2083 3-.8333 5.75-.8333 5.75s-4.4167 4.1667.8333 8.1667h2.0833m10.3125 16.9789s2.25 3.375 0 7.375l1.5088 3.0176c.5453 1.0906.0936 2.4164-1.0041 2.9472l-3.3276.5397"/></g></svg>