<svg xmlns="http://www.w3.org/2000/svg" role="img" viewBox="3.40 5.77 63.70 63.20"><title>1F376.svg</title><g fill="#FFF"><path d="M65 66.64c-1.3 0-22 .36-32 0C34 52 36 37 41 24l1-.82c-4.32-3.03-6.37-8.6-6.37-16.18h28.74c0 7.58-2.05 13.15-6.37 16.18V24c6 13 6 28 7 42.64z"/><path stroke-linecap="round" stroke-linejoin="round" stroke-miterlimit="10" stroke-width="2" d="M34.0002 66.6361c9.9998.3639 29.7 0 30.9998 0C64 52 64 37 58 24M37.5475 38.2484c1.1488-5.8127 2.6403-10.8064 4.3783-14.6625l.2072-.3738m-4.5855 15.0363c-.4857 2.4575-.9102 5.0613-1.2661 7.7875M18.0405 51h16.3297c0 6.9523-2.2865 12.7757-7.1166 15.6799H12.8533C8.0239 63.7757 5.7374 57.9523 5.7374 51h12.3031zM64.3702 8c0 6.7783-2.1735 12.4834-6.7586 15.4563m-15.6341-.3547C37.747 20.0434 35.7374 14.5178 35.7374 8"/></g><path d="M34.0002 66.6361c9.9998.3639 29.7 0 30.9998 0C64 52 64 37 58 24M37.5475 38.2484c1.1488-5.8127 2.6403-10.8064 4.3783-14.6625l.2072-.3738m-4.5855 15.0363c-.4857 2.4575-.9102 5.0613-1.2661 7.7875M18.0405 51h16.3297c0 6.9523-2.2865 12.7757-7.1166 15.6799H12.8533C8.0239 63.7757 5.7374 57.9523 5.7374 51h12.3031zM64.3702 8c0 6.7783-2.1735 12.4834-6.7586 15.4563m-15.6341-.3547C37.747 20.0434 35.7374 14.5178 35.7374 8" fill="none" stroke="#000" stroke-linecap="round" stroke-linejoin="round" stroke-miterlimit="10" stroke-width="2"/></svg>