<svg xmlns="http://www.w3.org/2000/svg" role="img" viewBox="10.00 10.13 51.87 51.87"><title>1F18E.svg</title><g fill="none" stroke="#000" stroke-linejoin="round" stroke-width="2"><path d="M59.0349 60.1373h-46.07A.9679.9679 0 0 1 12 59.1722v-46.07a.9679.9679 0 0 1 .9651-.9651h46.07a.9679.9679 0 0 1 .9649.9653v46.07a.9679.9679 0 0 1-.9651.9649z"/><g stroke-linecap="round"><path d="M33.287 43.637l-6.429-15-6.428 15m2.142-3.591h8.572"/><path d="M46.6551 36.1373h-5.72v-7.4719h5.72a3.736 3.736 0 0 1 3.736 3.736h0a3.7359 3.7359 0 0 1-3.736 3.7359zm0 7.4721h-5.72v-7.4721h5.72a3.736 3.736 0 0 1 3.736 3.736h0a3.7361 3.7361 0 0 1-3.736 3.7361z"/></g></g><path fill="#d22f27" d="M59.0349 60.1372h-46.07A.9679.9679 0 0 1 12 59.1721v-46.07a.9679.9679 0 0 1 .9651-.9651h46.07a.9679.9679 0 0 1 .9649.9653v46.07a.9679.9679 0 0 1-.9651.9649z"/><g fill="none" stroke="#fff" stroke-linejoin="round" stroke-width="2"><path d="M59.0349 60.1372h-46.07A.9679.9679 0 0 1 12 59.1721v-46.07a.9679.9679 0 0 1 .9651-.9651h46.07a.9679.9679 0 0 1 .9649.9653v46.07a.9679.9679 0 0 1-.9651.9649z"/><g stroke-linecap="round"><path d="M33.287 43.637l-6.429-15-6.428 15m2.142-3.591h8.572"/><path d="M46.6551 36.1372h-5.72v-7.472h5.72a3.7361 3.7361 0 0 1 3.736 3.7361h0a3.7359 3.7359 0 0 1-3.736 3.7359zm0 7.4721h-5.72v-7.4721h5.72a3.736 3.736 0 0 1 3.736 3.736h0a3.7361 3.7361 0 0 1-3.736 3.7361z"/></g></g></svg>