<svg xmlns="http://www.w3.org/2000/svg" role="img" viewBox="1.55 2.05 68.77 67.77"><title>1F3D2.svg</title><path fill="#9B9B9A" d="M65.4897 62.0277v3.6853c0 1.0376-4.2382 1.8788-9.4662 1.8788s-9.4662-.8412-9.4662-1.8788v-3.6853"/><ellipse cx="56.023" cy="61.636" fill="#D0CFCE" rx="9.466" ry="1.879"/><path fill="#A57939" d="M33.1938 56.7781c-.4812.7463-1.3198 1.2404-2.2739 1.2404h.0211H7.056c-1.6851 0-3.0639 1.3788-3.0639 3.0639v2.5609c0 1.6852 1.3788 3.0639 3.0639 3.0639h24.2974c1.1031 0 2.0849-.5854 2.6246-1.4662L67.7809 7.9113c.5557-.9425.2392-2.1682-.7033-2.7239l-.4284-.2525-.4284-.2526c-.9424-.5557-2.1682-.2392-2.7239.7033L33.1938 56.7781z"/><path fill="#6A462F" d="M67.0776 5.191l-.3991-.2353-33.3552 56.5156c-.5397.8809-1.5214 1.4662-2.6246 1.4662H3.3374v1.765c0 1.6852 2.0335 2.0082 3.7186 2.0082h24.2974c1.1031 0 2.0848-.5854 2.6246-1.4662L65.9765 12.953l2.5308-4.3117c.5557-.9426-.4872-2.8947-1.4297-3.4503z"/><g fill="none" stroke="#000" stroke-linecap="round" stroke-linejoin="round" stroke-miterlimit="10"><path stroke-width="2" d="M67.2748 8.7696l.5061-.8583c.5557-.9425.2392-2.1682-.7033-2.7239l-.4284-.2525-.4284-.2526c-.9424-.5557-2.1682-.2392-2.7239.7033L33.1938 56.7781c-.4812.7463-1.3198 1.2404-2.2739 1.2404h.0211H7.056c-1.6851 0-3.0639 1.3788-3.0639 3.0639v2.5609c0 1.6852 1.3788 3.0639 3.0639 3.0639h24.2974c1.1031 0 2.0849-.5854 2.6246-1.4662h0l31.2688-53.0318"/><path stroke-width="1.9" d="M65.4897 61.6258v3.9515c0 1.1126-4.2382 2.0145-9.4662 2.0145s-9.4662-.9019-9.4662-2.0145v-3.9515"/><ellipse cx="56.023" cy="61.636" stroke-width="1.9" rx="9.466" ry="1.879"/></g></svg>