<svg xmlns="http://www.w3.org/2000/svg" role="img" viewBox="7.20 7.20 50.73 54.73"><title>1F977-1F3FE.svg</title><path fill="#3f3f3f" d="M53.7451 45.4219c-1.9346-1.958-4.6582-2.9512-8.0937-2.9512h-2.4151a.1406.1406 0 0 1-.1387-.1191l-.1535-.9195c5.456-2.6888 9.2766-8.7594 9.2766-15.8125 0-9.5366-6.9756-17.2949-15.5508-17.2949S21.1191 16.083 21.1191 25.62c0 7.0512 3.8185 13.12 9.2722 15.81l-.154.9228a.14.14 0 0 1-.1387.1182h-2.415c-3.4356 0-6.1592.9932-8.0938 2.9512-2.8437 2.8779-3.2217 7.1406-3.1943 9.4131v5.081a.9994.9994 0 0 0 1 1h38.5439a.9993.9993 0 0 0 1-1v-5.0696c.0274-2.2842-.3505-6.5467-3.1943-9.4248z"/><path d="M36.6675 19.0969c7.6593 0 14.1047 1.4272 15.381 9.5449a19.1457 19.1457 0 0 0 .2478-3.0222c0-9.5366-6.9756-17.2949-15.5508-17.2949S21.1947 16.083 21.1947 25.62a19.1325 19.1325 0 0 0 .2478 3.0221c1.2762-8.1181 7.5657-9.5452 15.225-9.5452zm17.0661 26.6476a1.6758 1.6758 0 0 0-.1092-.362.979.979 0 0 0-.1248-.1707.9266.9266 0 0 0-.0769-.1053c-.0217-.02-.0464-.0364-.0682-.0561l-.0113-.0092a11.14 11.14 0 0 0-7.6861-2.5705H43.33a.96.96 0 0 0-.2274.0459c-.0276.0069-.056.0075-.0828.0166a.97.97 0 0 0-.2808.1519c-.0163.0121-.034.02-.0494.0333a.9786.9786 0 0 0-.1821.2159.6007.6007 0 0 0-.1326.3135.9392.9392 0 0 0-.04.1272c-.0046.0431-.4961 4.1746-5.6138 9.3931-5.1178-5.2276-5.6157-9.3356-5.6206-9.3872a.9206.9206 0 0 0-.0429-.143.9916.9916 0 0 0-.06-.1983.96.96 0 0 0-.0924-.1371.991.991 0 0 0-.14-.1705 1.0137 1.0137 0 0 0-.1262-.0851.6779.6779 0 0 0-.3785-.1447.9456.9456 0 0 0-.156-.0315H27.69a11.1617 11.1617 0 0 0-7.6866 2.5625.9408.9408 0 0 0-.0913.122.9794.9794 0 0 0-.1132.1513 1.8309 1.8309 0 0 0-.1143.363.9838.9838 0 0 0 .0088.216.9273.9273 0 0 0 .0054.1331 26.3764 26.3764 0 0 0 10.2659 14.6992.9953.9953 0 0 0 .5967.1982h13.7177a1.0007 1.0007 0 0 0 .9629-.7285.9905.9905 0 0 0-.1219-.7894 25.9952 25.9952 0 0 0 8.5985-13.3121.9588.9588 0 0 0 .0061-.1374.9768.9768 0 0 0 .0089-.2041z"/><path fill="#3f3f3f" d="M17.7479 44.9834a.9987.9987 0 0 0 .8574.4863.9678.9678 0 0 0 .21-.0224 1 1 0 0 0 .7832-.8614l.7675-6.5659a1 1 0 0 0-.8212-1.1015l-5.2491-.9141c-.0182-.0031-.0356.0006-.0537-.0015a.9812.9812 0 0 0 .0664-.2172l1.4209-10.0347a1 1 0 0 0-1.52-.9888L8.8 28.1367a1 1 0 0 0-.3281 1.3623z"/><path fill="#d0cfce" d="M26.7359 43.0131L15.5887 25.0825a1.0006 1.0006 0 0 0-1.8428.41l-1.2314 10.35a1 1 0 0 0 .8183 1.1025l6.0486 1.065-.9189 7.7243a1 1 0 0 0 .8183 1.1025 12.2311 12.2311 0 0 1 7.4551-3.8237z"/><g><path fill="#a57939" d="M50.286 22.7772c-2.3516-2.8491-6.9366-4.2939-13.628-4.2939-6.3808 0-10.8613 1.41-13.3154 4.1919a7.1445 7.1445 0 0 0-1.87 5.1928 18.4938 18.4938 0 0 0 1.2715 4.99l.0644.1035-.1933.1623.2323-.0958a.7813.7813 0 0 0 .1142.1118l.0528.0479a.76.76 0 0 0 .1533.0761l-.0635.2451.124-.2168a.7743.7743 0 0 0 .1739.0293l.0439-.0009a.7206.7206 0 0 0 .2246-.0362c.0791-.0254 8.1221-2.6235 12.9873-2.6235 5.5928 0 13.086 2.2192 13.1612 2.2412a.7509.7509 0 0 0 .9218-.4722l.0518-.1186a18.709 18.709 0 0 0 1.05-4.44v-.0166a6.68 6.68 0 0 0-1.5568-5.0774z"/></g><g><path fill="none" stroke="#000" stroke-linecap="round" stroke-linejoin="round" stroke-width="2" d="M19.875 46.59L9.329 28.985l5.41-3.374L25.91 43.573"/><path fill="none" stroke="#000" stroke-linecap="round" stroke-linejoin="round" stroke-width="2" d="M14.206 30.088l-.698 5.873 8.621 1.532m-2.059 3.132l-.623 5.233"/><path d="M42.7455 24.9444a2 2 0 1 1-2-2 2.0007 2.0007 0 0 1 2 2m-8 0a2 2 0 1 1-2-2 2.0007 2.0007 0 0 1 2 2"/><path fill="none" stroke="#000" stroke-linecap="round" stroke-linejoin="round" stroke-width="2" d="M17.3926 59.9165v-5.0816C17.349 51.2 18.3529 43.47 27.6814 43.47h2.4147a1.1408 1.1408 0 0 0 1.1253-.9534l.2768-1.6607m24.4391 19.0606v-5.0816C55.9809 51.2 54.977 43.47 45.6485 43.47h-2.4147a1.1408 1.1408 0 0 1-1.1253-.9534l-.2768-1.6607"/><ellipse cx="36.667" cy="25.62" fill="none" stroke="#000" stroke-linecap="round" stroke-linejoin="round" stroke-width="2" rx="14.551" ry="16.295"/><path fill="none" stroke="#000" stroke-linecap="round" stroke-linejoin="round" stroke-width="2" d="M23.4484 32.4355s8.1953-2.6606 13.2191-2.6606c5.753 0 13.375 2.2727 13.375 2.2727m-27.814-4.3952s-1.07-8.5555 14.439-8.5555c16.0874 0 14.4364 8.5555 14.4364 8.5555M30.0961 43.47s.7425 8.2231 14.1742 16.4462M20.662 45.7805c.78 3.1761 3.091 9.0738 9.8905 14.136M43.3209 43.47s-.4327 4.7916-6.6119 10.7171m16.0304-8.3438a25.1692 25.1692 0 0 1-9.2432 13.59"/></g></svg>