<svg xmlns="http://www.w3.org/2000/svg" role="img" viewBox="14.06 7.69 45.25 55.25"><title>E321.svg</title><path fill="#d0cfce" d="M21.12 9.7472h31.3051l-.284 9.117s11.6256 22.3071-1.2545 41.5065H21.6907S11.1023 37.507 20.268 22.3194c0 0 1.8268-2.7742.852-12.5722z"/><path fill="#92d3f5" d="M19.56 24.0119s14.3164 3.031 33.9838 0l1.5453 3.3616s-7.966 11.7407-17.1183 14.1357h-3.0792S23.59 37.59 17.9073 27.66z"/><g fill="none" stroke="#000" stroke-linecap="round" stroke-linejoin="round" stroke-width="2"><path d="M21.12 9.7472v9.3654a8.2241 8.2241 0 0 1-1.2136 4.3084c-2.603 4.2408-7.7481 16.491 1.7839 37.5332m29.1963 0s12.7608-18.8731 2.305-37.5907a8.2459 8.2459 0 0 1-1.05-4.018V9.7472M34.892 41.509v19.445m3.079-19.445v19.445m-.0002-17.9052a13.0391 13.0391 0 0 0 9.751 1.112m-23.3133-.5062a13.04 13.04 0 0 0 9.8138-.0956"/><path d="M19.56 24.0119s14.3164 3.031 33.9838 0l1.5453 3.3616s-7.966 11.7407-17.1183 14.1357h-3.0792S23.59 37.59 17.9073 27.66zm22.836-3.1859l1.983-4.037 2.026 2.152 2.491-5.072m-19.588 7.149l-2.625-3.651 2.853-.773-3.299-4.588m10.536 7.745l.63-4.453-2.886.64.792-5.595"/></g><g fill="none" stroke="#d22f27" stroke-linecap="round" stroke-linejoin="round" stroke-width="2"><path d="M42.396 20.826l1.983-4.037 2.026 2.152 2.491-5.072m-19.588 7.149l-2.625-3.651 2.853-.773-3.299-4.588m10.536 7.745l.63-4.453-2.886.64.792-5.595"/></g></svg>