<svg xmlns="http://www.w3.org/2000/svg" role="img" viewBox="9.98 8.98 46.91 52.91"><title>E156.svg</title><path fill="#fff" d="M38.8772 53.9048v-13h15.3302v9l-15.3302 4z"/><path fill="#a57939" d="M40.1565 19.9078h12.8551c.6623 0 1.1992.5324 1.1992 1.1891v20.8487H38.761V21.2914c0-.7642.6248-1.3837 1.3954-1.3837z"/><path fill="#6a462f" fill-rule="evenodd" d="M38.9818 54.1131l-.0739 3.3387c0 1.1046.2372 1.613 1.3418 1.613h11.866c1.1046 0 1.9452-.007 1.9452-1.1116l-.0278-3.4181.0278-4.0572-15.0792 3.6352z"/><path fill="#a57939" d="M22 13.5283C22 16.5557 19.7614 22 17 22s-5-5.4443-5-8.4717 2.2386-2.4917 5-2.4917 5-.5358 5 2.4917z"/><path fill="#d0cfce" d="M44 14h5v5h-5z"/><g fill="none" stroke="#000" stroke-width="2"><path stroke-linecap="round" stroke-linejoin="round" d="M41 53.7941l11-2.5882"/><path d="M38 21c0-1.1046.8954-2 2-2h13c1.1046 0 2 .8954 2 2v37c0 1.1046-.8954 2-2 2H40c-1.1046 0-2-.8954-2-2V21z"/><path stroke-linejoin="round" d="M44 14h5v5h-5zm0 2h-6l-15 9h-6v-3"/><path d="M22 13.5283C22 16.5557 19.7614 22 17 22s-5-5.4443-5-8.4717 2.2386-2.4917 5-2.4917 5-.5358 5 2.4917z"/><path stroke-linecap="round" d="M39 41h13"/></g></svg>