<svg xmlns="http://www.w3.org/2000/svg" role="img" viewBox="2.72 19.72 66.56 37.44"><title>1F3CD.svg</title><ellipse cx="12.031" cy="48" fill="#9B9B9A" rx="7.031" ry="7"/><ellipse cx="53.031" cy="48" fill="#9B9B9A" rx="8.031" ry="7.995"/><path fill="#EA5A47" d="M12.1152 35.1201c-1.1953-.6806-2-1.1201-2-1.1201s3.7842-6.3921 9-9c4-2 11-3 11-3v3l-6 4 4 3 8-2 7 6s7-3 10-6v-2l14-3-1 3s-22 16-28 16l5 6h-20s0-6-1-8c-.5361-1.0723-3.9502-3.1689-7-5"/><path fill="#FCEA2B" d="M65.115 30l2 2-1.698 1.668-2.542-2.542M15 38l-3-2s4-5 5-5-2 7-2 7z"/><path fill="#D22F27" d="M28.1152 32c0 4.834 4.8848 7.667 8.5518 7.667 3.0644 0 10.1143-4.8565 12.5-5.334 1.7148-.3428 1.5273-1.8935 4.083-2.708 1.585-.5059 10.25-4.5 12.75-4.25 1.6338.1636-2.4717 2.251-1.333 1.625 6.667-3.666-25 14.667-25 14.667L37 44l-7.833-3.666-5.667-5.5v-5.5L28.1152 32z"/><path fill="#3F3F3F" d="M39.5 32.5L42 36l8.5-3 2.615-3v-2z"/><path fill="#D0CFCE" d="M40.15 45.388l5.6.581L48.594 45l4.125-2.125 6.906-3.094.219-1.312L56 34.949l-8.031 5.364-7.694 3.002L38.87 44l.63 1z"/><g fill="none" stroke="#000" stroke-miterlimit="10" stroke-width="2"><path stroke-linecap="round" stroke-linejoin="round" d="M15.1152 37s3-4 2-5"/><ellipse cx="12.031" cy="48" rx="7.031" ry="7"/><path stroke-linecap="round" stroke-linejoin="round" d="M15.1152 37c3.0498 1.8311 6.4639 3.9277 7 5 1 2 1 9 1 9h20s-.4863-6.0371-12.2812-10c-1.9756-.6631-11.4951-7.2236-6.7188-12"/><path stroke-linecap="round" stroke-linejoin="round" d="M12.1152 35.1201c-1.1953-.6806-2-1.1201-2-1.1201s3.7842-6.3921 9-9c4-2 11-3 11-3v3l-6 4 4 3s6.7149-3.6279 10-1c1.875 1.5 4 5 4 5s8-2 11-5v-3l14-3-1 3S43.625 44.167 37.625 44.167M15.1152 37s3-4 2-5m.9998 8l-6.084 8m53.084-18l2 2-1 1M59 39l-10.885 6H46m7.1152-17c-5.2802 2.8496-10.2822 4-14 4"/><path stroke-linecap="round" d="M46.2666 49.916C47.1045 52.8506 49.8164 55 53.0313 55c3.8828 0 7.0312-3.1338 7.0312-7 0-1.6602-.5801-3.1846-1.5508-4.3848"/></g></svg>