<svg xmlns="http://www.w3.org/2000/svg" role="img" viewBox="15.00 9.88 41.88 52.00"><title>1F645-1F3FC.svg</title><path fill="#92d3f5" d="M17.0083 60.9583v-4c0-4.9941 2.7617-7.12 6.9844-9.4121 5.3633-2.458 16.5615-2.918 23.9482-.13 3.3184 1.4609 7.0674 4.5479 7.0674 9.542v4"/><g fill="#debb90"><path d="M25.8413 30.2923c0 9 4.04 14.666 10.1035 14.666 5.9365 0 10.1055-5.9307 10.1055-14.9307 0-3-.042-4.0693-.042-4.0693-3-3-7-8-7-8-4 3-7 6-13 7 0 0-.167.334-.167 5.334z"/><path d="M42.564 38.4026l8-7a1.4142 1.4142 0 0 1 2 2l-5 6m2.4443 21.5137l-16-17-3.5557-4-1-1-6-4.5557a1.4142 1.4142 0 0 0-2 2l3 3.5557a39.3264 39.3264 0 0 0 2 6c.6328 1.2647 3.5557 2 3.5557 2l2 2 8 11"/><path d="M22.0083 60.9163l16-17 3.5557-4 1-1 6-4.5557a1.4142 1.4142 0 0 1 2 2l-3 3.5557a39.3264 39.3264 0 0 1-2 6c-.6328 1.2647-3.5557 2-3.5557 2l-2 2-8 11m-2.5557-22.5137l-8-7a1.4142 1.4142 0 0 0-2 2l5 6"/></g><path fill="#fcea2b" d="M39.2435 18.4458c.1743.9826-11.0921 5.57-12.9954 6.551s-.3463 5.2567-.3463 5.2567a28.5824 28.5824 0 0 0 .3878 4.764l-5.0339-3.75a48.8833 48.8833 0 0 1-.2449-5.2235c0-7 5-14.0625 15-14.0625s15 7.0625 15 14.0625c0 1.7359-.0615 3.4065-.215 4.9373l-5.1892 3.9026a30.7683 30.7683 0 0 0 .4437-4.8562l.5629-2.0462z"/><path fill="none" stroke="#000" stroke-linecap="round" stroke-linejoin="round" stroke-width="2" d="M22.0112 27.9583c-.0029-.6543-.0029-1.3223-.0029-2 0-7 5-14 14-14a13.75 13.75 0 0 1 14 14c0 .6.0039 1.1318.0049 1.666"/><path d="M41.8813 29.9583a2 2 0 1 1-2-2 2 2 0 0 1 2 2m-8 0a2 2 0 1 1-2-2 2 2 0 0 1 2 2"/><path fill="none" stroke="#000" stroke-linecap="round" stroke-linejoin="round" stroke-width="2" d="M46.9712 29.9563a11.66 11.66 0 0 0-.9629-3.998c-3-3-7-8-7-8-4 3-7 6-13 7 0 0-.9287.873-1.05 5.0693m9.05 7.9307h4m9.9326 10.4492c3.85 1.1778 7.0674 4.5469 7.0674 8.5508v3m-38 0v-3c0-3.9756 3.1719-7.3242 6.9844-8.5244M42.564 38.4026l8-7a1.4142 1.4142 0 0 1 2 2l-5 6m-18.1114-1l-8-7a1.4142 1.4142 0 0 0-2 2l5 6M36.01 54.906l-4.002 5.052"/><path fill="none" stroke="#000" stroke-linecap="round" stroke-linejoin="round" stroke-width="2" d="M35.9771 45.4935l5.5869-6.0909 1-1 6-4.5556a1.4142 1.4142 0 0 1 2 2l-3 3.5556a39.3264 39.3264 0 0 1-2 6c-.6328 1.2647-3.5557 2-3.5557 2l-2.127 2M22.008 59.958l10-10.555"/><path fill="none" stroke="#000" stroke-linecap="round" stroke-linejoin="round" stroke-width="2" d="M50.0083 59.9583l-16-16.5557-3.5557-4-1-1-6-4.5556a1.4142 1.4142 0 0 0-2 2l3 3.5556a39.3264 39.3264 0 0 0 2 6c.6328 1.2647 3.5557 2 3.5557 2l2 2 8 10.5557"/></svg>