<svg xmlns="http://www.w3.org/2000/svg" role="img" viewBox="6.10 10.85 59.67 50.17"><title>1F648.svg</title><g id="line-supplement"><path fill="none" stroke="#000" stroke-linecap="round" stroke-linejoin="round" stroke-miterlimit="10" stroke-width="2" d="M19.7452,30.3698c0.7351-1.4356,1.8465-2.6723,3.2355-3.5099c4.2321-2.5519,10.5282-1.0889,13.4909,3.8371 c3.0375-4.9167,9.313-6.349,13.4909-3.8371c1.4555,0.8751,2.5525,2.1665,3.2519,3.6508"/></g><g id="color"><path fill="#6A462F" d="M52.1565,19.3322c0.3299,0,7.0229-2.1833,10.3066,3.9209c3.1583,5.8708,1.1583,11.8708-3.4855,14.3115"/><path fill="#6A462F" d="M60.0514,35.4894c0,13.5369-10.7452,24.5106-24,24.5106s-24-10.9737-24-24.5106S22.7966,12,36.0514,12 S60.0514,21.9525,60.0514,35.4894z"/><path fill="#6A462F" d="M19.9174,18.9067c-0.3466,0-7.5022-2.3589-10.8277,4.1191c-2.9366,5.7207-0.4683,12.0981,3.6618,13.9844"/><path fill="#A57939" d="M26.0416,57.0208c-1.017-3.3042-1.4239-8.7844-0.0668-14.7835c-0.3544-0.0699-5.2649-1.1229-7.0265-5.5733 c-1.5688-3.9634,0.1684-8.5784,3.6538-10.6802c4.2321-2.5519,10.5282-1.0889,13.4909,3.8371 c3.0375-4.9167,9.313-6.349,13.4909-3.8371c3.5775,2.151,4.9892,6.8168,3.6538,10.6802c-1.5753,4.5576-6.2779,5.9855-6.7455,6.1191 c0.7217,2.1838,2.4234,8.3483-0.5621,14.2377c-0.5906,1.1649-0.995,0-4.995,2"/><path fill="#FFF" d="M41.9144,49.0171c-0.2036,0.2681-0.7527,6.0217-6.3387,6.0246c-4.9521,0.0025-5.4413-5.6762-5.7048-6.0246 C33.8854,49.0171,37.8999,49.0171,41.9144,49.0171z"/><path fill="#A57939" d="M12.1388 51.9829c1.8841-3.9279-.1881.8747 1.696-3.0531-.5664-1.6119-1.2604-4.0223-1.5384-7.0087-.425-4.5648.1233-10.4598 1.5384-10.6624.555-.0795 1.4734.6838 3.0324 4.7202 2.6006-3.0933 8.3652-6.2699 8.999-5.4998.6228.7568-.0903 2.5375-.0098 3.503 2.6552-1.2069 3.9497-1.4041 4.2664-1.0505.3186.3557-.0824 1.6942-1.7721 4.3494 3.1158-.7429 4.1039.1181 3.9426.8046-.6076 2.5859-2.7004 5.9308-6.4366 9.6067-2.0968 2.0629-4.741 2.5726-6.3992 2.9133-.6095 5.022-.4795 2.3595-1.089 7.3815M59.2614 52.2733c-1.8841-3.9279.2803.5844-1.6038-3.3435.5664-1.6119 1.2604-4.0223 1.5384-7.0087.425-4.5648-.1233-10.4598-1.5384-10.6624-.555-.0795-1.4734.6838-3.0324 4.7202-2.6006-3.0933-8.3652-6.2699-8.999-5.4998-.6228.7568.0903 2.5375.0098 3.503-2.6552-1.2069-3.9497-1.4041-4.2664-1.0505-.3186.3557.0824 1.6942 1.7721 4.3494-3.1158-.7429-4.1039.1181-3.9426.8046.6076 2.5859 2.7004 5.9308 6.4366 9.6067 2.0968 2.0629 4.741 2.5726 6.3992 2.9133.6095 5.022.347 2.8686.9565 7.8906"/><path fill="#6A462F" d="M58.1736 48.9149C58.16 48.8874 58.1667 48.901 58.1736 48.9149L58.1736 48.9149zM58.1819 48.9315l-6.1469 1.7676c0 0 .4585 2.7776 1.2932 8.7301l6.6512-6.5154C58.4483 49.5169 58.2471 49.0627 58.1819 48.9315zM58.1736 48.9149c.0018.0036.0057.0114.0082.0165l0 0C58.1819 48.9315 58.1777 48.9231 58.1736 48.9149zM13.7319 48.9391c0 0-.0086-.5805-2.0047 3.7916l5.9928 6.3912c.1003.1176.2917.0527.3104-.1007.6489-5.3294 1.6584-8.2166 1.6584-8.2166L13.7319 48.9391z"/></g><g id="line"><path fill="none" stroke="#000" stroke-linecap="round" stroke-linejoin="round" stroke-miterlimit="10" stroke-width="2" d="M52.2639 19.6545c.3299 0 7.1412-2.2454 10.3066 3.9209 1.7048 3.321 1.2756 6.2407-.0761 8.8072M19.7361 19.6545c-.3299 0-7.1412-2.2454-10.3066 3.9209-1.6112 3.1387-1.3163 5.919-.1379 8.3815M41.9368 49.0171c-.2036.2681-.7527 6.0217-6.3387 6.0246-4.9521.0025-5.4413-5.6762-5.7048-6.0246C33.9078 49.0171 37.9223 49.0171 41.9368 49.0171z"/><circle cx="34.056" cy="44.558" r="1"/><circle cx="37.696" cy="44.558" r="1"/><path fill="none" stroke="#000" stroke-linecap="round" stroke-linejoin="round" stroke-miterlimit="10" stroke-width="2" d="M48.849 55.0215C45.1636 57.5323 40.7108 59 35.9151 59c-4.7635 0-9.1887-1.4481-12.8595-3.928M14.9925 26.4342C18.6228 18.5069 26.6258 13 35.915 13c9.2192 0 17.1715 5.4242 20.8396 13.2552M59.2838 52.2733c-1.8841-3.9279.2803.5844-1.6038-3.3435.5664-1.6119 1.2604-4.0223 1.5384-7.0087.425-4.5648-.1233-10.4598-1.5384-10.6624-.555-.0795-1.4734.6838-3.0324 4.7202-2.6006-3.0933-8.3652-6.2699-8.999-5.4998-.6228.7568.0903 2.5375.0098 3.503-2.6552-1.2069-3.9497-1.4041-4.2664-1.0505-.3186.3557.0824 1.6942 1.7721 4.3494-3.1158-.7429-4.1039.1181-3.9426.8046.6076 2.5859 2.7004 5.9308 6.4366 9.6067 2.0968 2.0629 4.741 2.5726 6.3992 2.9133.6095 5.022.347 2.8686.9565 7.8906M12.3926 51.9829c1.8841-3.9279-.4196.8747 1.4645-3.0531-.5664-1.6119-1.2604-4.0223-1.5384-7.0087-.425-4.5648.1233-10.4598 1.5384-10.6624.555-.0795 1.4734.6838 3.0324 4.7202 2.6006-3.0933 8.3652-6.2699 8.999-5.4998.6228.7568-.0903 2.5375-.0098 3.503 2.6552-1.2069 3.9497-1.4041 4.2664-1.0505.3186.3557-.0824 1.6942-1.7721 4.3494 3.1158-.7429 4.1039.1181 3.9426.8046-.6076 2.5859-2.7004 5.9308-6.4366 9.6067-2.0968 2.0629-4.741 2.5726-6.3992 2.9133-.6095 5.022-.3481 2.8686-.9576 7.8906"/></g></svg>