<svg xmlns="http://www.w3.org/2000/svg" role="img" viewBox="11.02 16.27 50.96 38.59"><title>1F342.svg</title><path fill="#a57939" d="M55.732 36.689c5.4323 6.2313 4.1316 16.317 4.1316 16.317s-9.9309-.223-15.3631-6.4543-4.1316-16.317-4.1316-16.317 10.0463.069 15.3631 6.4543z"/><path fill="#e27022" d="M19.7623 22.3615C26.1543 17.0075 36.05 18.5 36.05 18.5s-.47 10.065-6.7623 15.2543S13 37.6159 13 37.6159s.37-9.9003 6.7623-15.2544z"/><g fill="none" stroke="#000" stroke-linecap="round" stroke-linejoin="round" stroke-width="2"><path d="M19.7623 22.3615C26.1543 17.0075 36.05 18.5 36.05 18.5s-.47 10.065-6.7623 15.2543S13 37.6159 13 37.6159s.37-9.9003 6.7623-15.2544zM55.732 36.689c5.4323 6.2313 4.1316 16.317 4.1316 16.317s-9.9309-.223-15.3631-6.4543-4.1316-16.317-4.1316-16.317 10.0463.069 15.3631 6.4543z"/></g></svg>