<svg xmlns="http://www.w3.org/2000/svg" role="img" viewBox="14.00 10.00 43.87 51.87"><title>1F367.svg</title><path fill="#FCEA2B" d="M52.0703 24.8882c3.9063 3.9043 3.9063 10.2358.001 14.1421C48.166 42.9346 39.9053 45.0713 36 41.167c-3.9053-3.9063-1.9766-12.3745 1.9287-16.2798s10.2373-3.9053 14.1416.001z"/><path fill="#F1B31C" d="M52.0703 24.896c-2.5937-2.5938-6.2578-3.4551-9.5713-2.6016 1.6748.4317 3.2608 1.291 4.5713 2.6016 3.9063 3.9062 3.9063 10.2378.001 14.1421-1.3106 1.3105-2.8975 2.1719-4.5713 2.6015 3.3135.8536 6.9766-.0078 9.5713-2.6015 3.9053-3.9043 3.9053-10.2359-.001-14.1421z"/><circle cx="26.999" cy="32.043" r="10" fill="#FCEA2B" transform="rotate(-45.001 27 32.043)"/><path fill="#F1B31C" d="M34.0703 24.979c-2.5937-2.5937-6.2578-3.4551-9.5713-2.6016 1.6748.4317 3.2608 1.2911 4.5713 2.6016 3.9063 3.9063 3.9063 10.2378.001 14.1421-1.3106 1.3105-2.8975 2.1719-4.5713 2.6016 3.3135.8535 6.9766-.0079 9.5713-2.6016 3.9053-3.9043 3.9053-10.2358-.001-14.1421z"/><path fill="#EA5A47" d="M31 27c1.6436 0 3.0889-.8037 4-2.0273V30c0 1.6563 1.3428 3 3 3s3-1.3437 3-3v2c0 1.6563 1.3428 3 3 3s3-1.3437 3-3v-2.1836c.3145.1113.6475.1836 1 .1836 1.6572 0 3-1.3437 3-3v-2.9956c-1.4219-1.0684-3.1357-1.769-5.0029-1.9541 0-.0171.0029-.0332.0029-.0503 0-5.5229-4.4775-10-10-10s-10 4.4771-10 10c0 2.7612 2.2393 5 5 5z"/><path fill="#FFF" d="M33 60v-6c0-2.7617-2.2393-5-5-5h-7c-2.7607 0-5-2.2383-5-5v-3c0-1.1045.8955-2 2-2h36c1.1045 0 2 .8955 2 2v3c0 2.7617-2.2393 5-5 5h-7c-2.7607 0-5 2.2383-5 5v6"/><g fill="none" stroke="#000" stroke-linecap="round" stroke-linejoin="round" stroke-miterlimit="10"><path stroke-width="2" d="M45.9972 22.0491C51.0516 22.5496 55 26.8137 55 32c0 2.4632-.8905 4.7183-2.367 6.4609m-15.6656-5.6473c-.1814 2.2526-1.1093 4.2945-2.5361 5.878m-14.8331.0326C17.9839 36.9483 17 34.589 17 32c0-5.1777 3.935-9.4363 8.9776-9.9484"/><path stroke-width="2" d="M31 27c1.6436 0 3.0889-.8037 4-2.0273V30c0 1.6563 1.3428 3 3 3s3-1.3437 3-3v2c0 1.6563 1.3428 3 3 3s3-1.3437 3-3v-2.1836c.3145.1113.6475.1836 1 .1836 1.6572 0 3-1.3437 3-3v-2.9956c-1.4219-1.0684-3.1357-1.769-5.0029-1.9541 0-.0171.0029-.0332.0029-.0503 0-5.5229-4.4775-10-10-10s-10 4.4771-10 10c0 2.7612 2.2393 5 5 5z"/><path stroke-width="1.947" d="M33 60v-6c0-2.7617-2.2393-5-5-5h-7c-2.7607 0-5-2.2383-5-5v-3c0-1.1045.8955-2 2-2h36c1.1045 0 2 .8955 2 2v3c0 2.7617-2.2393 5-5 5h-7c-2.7607 0-5 2.2383-5 5v6m-10 0h14"/></g></svg>