<svg xmlns="http://www.w3.org/2000/svg" role="img" viewBox="8.96 8.96 53.95 48.95"><title>1F916.svg</title><path fill="#D22F27" d="M34 16.1123v-2.5109c0-1.3807 1.1193-2.5 2.5-2.5s2.5 1.1193 2.5 2.5v2.5"/><path fill="#D0CFCE" d="M13.5 41.1014c-1.3807 0-2.5-1.1193-2.5-2.5v-8c0-1.3807 1.1193-2.5 2.5-2.5s2.5 1.1193 2.5 2.5v8c0 1.3807-1.1193 2.5-2.5 2.5zm45 0c1.3807 0 2.5-1.1193 2.5-2.5v-8c0-1.3807-1.1193-2.5-2.5-2.5s-2.5 1.1193-2.5 2.5v8c0 1.3807 1.1193 2.5 2.5 2.5z"/><path fill="#D0CFCE" d="M47.4505 56.1123h-22.901C19.8473 56.1123 16 52.265 16 47.5628v-22.901c0-4.7022 3.8473-8.5495 8.5495-8.5495h22.901c4.7022 0 8.5495 3.8473 8.5495 8.5495v22.901c0 4.7021-3.8473 8.5495-8.5495 8.5495z"/><path fill="#9B9B9A" d="M35.4977 56.1115h13.2865c3.9687 0 7.2158-3.8473 7.2158-8.5495V24.661c0-4.7022-3.2471-8.5495-7.2158-8.5495h-2.3526"/><circle cx="44.835" cy="29.003" r="2.834" fill="#FFF"/><circle cx="27.334" cy="29.002" r="2.834" fill="#FFF"/><path fill="#FFF" d="M44.5 47.5005h-17c-2.2 0-4-1.8-4-4s1.8-4 4-4h17c2.2 0 4 1.8 4 4s-1.8 4-4 4z"/><g fill="none" stroke="#000" stroke-miterlimit="2" stroke-width="2"><path stroke-linecap="round" stroke-linejoin="round" d="M34 16.0109V13.5c0-1.3807 1.1193-2.5 2.5-2.5h0c1.3807 0 2.5 1.1193 2.5 2.5V16"/><path stroke-linecap="round" stroke-linejoin="round" d="M47.4505 56h-22.901C19.8473 56 16 52.1527 16 47.4505v-22.901C16 19.8473 19.8473 16 24.5495 16h22.901C52.1527 16 56 19.8473 56 24.5495v22.901C56 52.1527 52.1527 56 47.4505 56z"/><circle cx="44.835" cy="29.002" r="2.834" stroke-linecap="round" stroke-linejoin="round"/><circle cx="27.334" cy="29.002" r="2.834" stroke-linecap="round" stroke-linejoin="round"/><path d="M44.5 47.5h-17c-2.2 0-4-1.8-4-4h0c0-2.2 1.8-4 4-4h17c2.2 0 4 1.8 4 4h0c0 2.2-1.8 4-4 4z"/><path stroke-linecap="round" stroke-linejoin="round" d="M13.5 41h0c-1.3807 0-2.5-1.1193-2.5-2.5v-8c0-1.3807 1.1193-2.5 2.5-2.5h0c1.3807 0 2.5 1.1193 2.5 2.5v8c0 1.3807-1.1193 2.5-2.5 2.5zm45 0h0c1.3807 0 2.5-1.1193 2.5-2.5v-8c0-1.3807-1.1193-2.5-2.5-2.5h0c-1.3807 0-2.5 1.1193-2.5 2.5v8c0 1.3807 1.1193 2.5 2.5 2.5zM28 40v7m5-7v7m5-7v7m5-7v7"/></g></svg>